%FSLAX46Y46*%
%MOMM*%
%ADD11C,0.050000*%
%ADD10C,0.150000*%
G01*
%LPD*%
G01*
%LPD*%
D10*
X10190476Y37810952D02*
X10142857Y37715716D01*
D10*
X10285714Y37906192D02*
X10190476Y37810952D01*
D10*
X10380952Y37953808D02*
X10285714Y37906192D01*
D10*
X10571429Y37953808D02*
X10380952Y37953808D01*
D10*
X10666667Y37906192D02*
X10571429Y37953808D01*
D10*
X10761905Y37810952D02*
X10666667Y37906192D01*
D10*
X10809524Y37715716D02*
X10761905Y37810952D01*
D10*
X10857143Y37572856D02*
X10809524Y37715716D01*
D10*
X10857143Y37334760D02*
X10857143Y37572856D01*
D10*
X10809524Y37191904D02*
X10857143Y37334760D01*
D10*
X10761905Y37096668D02*
X10809524Y37191904D01*
D10*
X10666667Y37001428D02*
X10761905Y37096668D01*
D10*
X10571429Y36953808D02*
X10666667Y37001428D01*
D10*
X10380952Y36953808D02*
X10571429Y36953808D01*
D10*
X10285714Y37001428D02*
X10380952Y36953808D01*
D10*
X10190476Y37096668D02*
X10285714Y37001428D01*
D10*
X10142857Y37191904D02*
X10190476Y37096668D01*
D10*
X9666667Y37906192D02*
X9571429Y37953808D01*
D10*
X9761905Y37810952D02*
X9666667Y37906192D01*
D10*
X9809524Y37715716D02*
X9761905Y37810952D01*
D10*
X9857143Y37572856D02*
X9809524Y37715716D01*
D10*
X9857143Y37334760D02*
X9857143Y37572856D01*
D10*
X9809524Y37191904D02*
X9857143Y37334760D01*
D10*
X9761905Y37096668D02*
X9809524Y37191904D01*
D10*
X9666667Y37001428D02*
X9761905Y37096668D01*
D10*
X9571429Y36953808D02*
X9666667Y37001428D01*
D10*
X9380952Y36953808D02*
X9571429Y36953808D01*
D10*
X9285714Y37001428D02*
X9380952Y36953808D01*
D10*
X9190476Y37096668D02*
X9285714Y37001428D01*
D10*
X9142857Y37191904D02*
X9190476Y37096668D01*
D10*
X9095238Y37334760D02*
X9142857Y37191904D01*
D10*
X9095238Y37572856D02*
X9095238Y37334760D01*
D10*
X9142857Y37715716D02*
X9095238Y37572856D01*
D10*
X9190476Y37810952D02*
X9142857Y37715716D01*
D10*
X9285714Y37906192D02*
X9190476Y37810952D01*
D10*
X9380952Y37953808D02*
X9285714Y37906192D01*
D10*
X9571429Y37953808D02*
X9380952Y37953808D01*
D10*
X8761905Y36953808D02*
X8761905Y37953808D01*
D10*
X8190476Y36953808D02*
X8761905Y36953808D01*
D10*
X7809524Y37906192D02*
X7714286Y37953808D01*
D10*
X7904762Y37810952D02*
X7809524Y37906192D01*
D10*
X7952381Y37715716D02*
X7904762Y37810952D01*
D10*
X8000000Y37572856D02*
X7952381Y37715716D01*
D10*
X8000000Y37334760D02*
X8000000Y37572856D01*
D10*
X7952381Y37191904D02*
X8000000Y37334760D01*
D10*
X7904762Y37096668D02*
X7952381Y37191904D01*
D10*
X7809524Y37001428D02*
X7904762Y37096668D01*
D10*
X7714286Y36953808D02*
X7809524Y37001428D01*
D10*
X7523809Y36953808D02*
X7714286Y36953808D01*
D10*
X7428571Y37001428D02*
X7523809Y36953808D01*
D10*
X7333333Y37096668D02*
X7428571Y37001428D01*
D10*
X7285714Y37191904D02*
X7333333Y37096668D01*
D10*
X7238095Y37334760D02*
X7285714Y37191904D01*
D10*
X7238095Y37572856D02*
X7238095Y37334760D01*
D10*
X7285714Y37715716D02*
X7238095Y37572856D01*
D10*
X7333333Y37810952D02*
X7285714Y37715716D01*
D10*
X7428571Y37906192D02*
X7333333Y37810952D01*
D10*
X7523809Y37953808D02*
X7428571Y37906192D01*
D10*
X7714286Y37953808D02*
X7523809Y37953808D01*
D10*
X6904762Y37239524D02*
X6904762Y37953808D01*
D10*
X6857143Y37096668D02*
X6904762Y37239524D01*
D10*
X6761905Y37001428D02*
X6857143Y37096668D01*
D10*
X6619047Y36953808D02*
X6761905Y37001428D01*
D10*
X6523809Y36953808D02*
X6619047Y36953808D01*
D10*
X6380952Y37001428D02*
X6523809Y36953808D01*
D10*
X6285714Y37096668D02*
X6380952Y37001428D01*
D10*
X6238095Y37239524D02*
X6285714Y37096668D01*
D10*
X6238095Y37953808D02*
X6238095Y37239524D01*
D10*
X5857143Y36953808D02*
X5857143Y37953808D01*
D10*
X5428571Y37953808D02*
X5857143Y37953808D01*
D10*
X5285714Y37906192D02*
X5428571Y37953808D01*
D10*
X5238095Y37858572D02*
X5285714Y37906192D01*
D10*
X5190476Y37763332D02*
X5238095Y37858572D01*
D10*
X5190476Y37668096D02*
X5190476Y37763332D01*
D10*
X5238095Y37572856D02*
X5190476Y37668096D01*
D10*
X5285714Y37525240D02*
X5238095Y37572856D01*
D10*
X5428571Y37477620D02*
X5285714Y37525240D01*
D10*
X5857143Y37477620D02*
X5428571Y37477620D01*
D10*
X5190476Y36953808D02*
X5523809Y37477620D01*
D10*
X24260952Y47073048D02*
X24165714Y47120668D01*
D10*
X24356190Y46977808D02*
X24260952Y47073048D01*
D10*
X24403810Y46882572D02*
X24356190Y46977808D01*
D10*
X24403810Y46692096D02*
X24403810Y46882572D01*
D10*
X24356190Y46596856D02*
X24403810Y46692096D01*
D10*
X24260952Y46501620D02*
X24356190Y46596856D01*
D10*
X24165714Y46454000D02*
X24260952Y46501620D01*
D10*
X24022858Y46406380D02*
X24165714Y46454000D01*
D10*
X23784762Y46406380D02*
X24022858Y46406380D01*
D10*
X23641904Y46454000D02*
X23784762Y46406380D01*
D10*
X23546666Y46501620D02*
X23641904Y46454000D01*
D10*
X23451428Y46596856D02*
X23546666Y46501620D01*
D10*
X23403810Y46692096D02*
X23451428Y46596856D01*
D10*
X23403810Y46882572D02*
X23403810Y46692096D01*
D10*
X23451428Y46977808D02*
X23403810Y46882572D01*
D10*
X23546666Y47073048D02*
X23451428Y46977808D01*
D10*
X23641904Y47120668D02*
X23546666Y47073048D01*
D10*
X23403810Y47454000D02*
X24403810Y47454000D01*
D10*
X23403810Y48025428D02*
X23403810Y47454000D01*
D10*
X23403810Y48263524D02*
X24403810Y48263524D01*
D10*
X23403810Y48644476D02*
X24403810Y48644476D01*
D10*
X24403810Y49073048D02*
X24403810Y48644476D01*
D10*
X24356190Y49215904D02*
X24403810Y49073048D01*
D10*
X24308572Y49263524D02*
X24356190Y49215904D01*
D10*
X24213334Y49311144D02*
X24308572Y49263524D01*
D10*
X24070476Y49311144D02*
X24213334Y49311144D01*
D10*
X23975238Y49263524D02*
X24070476Y49311144D01*
D10*
X23927620Y49215904D02*
X23975238Y49263524D01*
D10*
X23880000Y49073048D02*
X23927620Y49215904D01*
D10*
X23880000Y48644476D02*
X23880000Y49073048D01*
D10*
X10190476Y67810952D02*
X10142857Y67715712D01*
D10*
X10285714Y67906192D02*
X10190476Y67810952D01*
D10*
X10380952Y67953808D02*
X10285714Y67906192D01*
D10*
X10571429Y67953808D02*
X10380952Y67953808D01*
D10*
X10666667Y67906192D02*
X10571429Y67953808D01*
D10*
X10761905Y67810952D02*
X10666667Y67906192D01*
D10*
X10809524Y67715712D02*
X10761905Y67810952D01*
D10*
X10857143Y67572856D02*
X10809524Y67715712D01*
D10*
X10857143Y67334760D02*
X10857143Y67572856D01*
D10*
X10809524Y67191904D02*
X10857143Y67334760D01*
D10*
X10761905Y67096668D02*
X10809524Y67191904D01*
D10*
X10666667Y67001428D02*
X10761905Y67096668D01*
D10*
X10571429Y66953808D02*
X10666667Y67001428D01*
D10*
X10380952Y66953808D02*
X10571429Y66953808D01*
D10*
X10285714Y67001428D02*
X10380952Y66953808D01*
D10*
X10190476Y67096668D02*
X10285714Y67001428D01*
D10*
X10142857Y67191904D02*
X10190476Y67096668D01*
D10*
X10142857Y67334760D02*
X10142857Y67191904D01*
D10*
X10142857Y67334760D02*
X10380952Y67334760D01*
D10*
X9952381Y66953808D02*
X9571429Y67953808D01*
D10*
X9190476Y66953808D02*
X9571429Y67953808D01*
D10*
X9333333Y67287144D02*
X9809524Y67287144D01*
D10*
X8952381Y66953808D02*
X8952381Y67953808D01*
D10*
X8571428Y66953808D02*
X8571428Y67953808D01*
D10*
X7904762Y66953808D02*
X8571428Y67953808D01*
D10*
X7904762Y66953808D02*
X7904762Y67953808D01*
D10*
X54619048Y36953808D02*
X54619048Y37953808D01*
D10*
X54285716Y37953808D02*
X54952380Y37953808D01*
D10*
X53904760Y37906192D02*
X53809524Y37953808D01*
D10*
X54000000Y37810952D02*
X53904760Y37906192D01*
D10*
X54047620Y37715716D02*
X54000000Y37810952D01*
D10*
X54095240Y37572856D02*
X54047620Y37715716D01*
D10*
X54095240Y37334760D02*
X54095240Y37572856D01*
D10*
X54047620Y37191904D02*
X54095240Y37334760D01*
D10*
X54000000Y37096668D02*
X54047620Y37191904D01*
D10*
X53904760Y37001428D02*
X54000000Y37096668D01*
D10*
X53809524Y36953808D02*
X53904760Y37001428D01*
D10*
X53619048Y36953808D02*
X53809524Y36953808D01*
D10*
X53523808Y37001428D02*
X53619048Y36953808D01*
D10*
X53428572Y37096668D02*
X53523808Y37001428D01*
D10*
X53380952Y37191904D02*
X53428572Y37096668D01*
D10*
X53333332Y37334760D02*
X53380952Y37191904D01*
D10*
X53333332Y37572856D02*
X53333332Y37334760D01*
D10*
X53380952Y37715716D02*
X53333332Y37572856D01*
D10*
X53428572Y37810952D02*
X53380952Y37715716D01*
D10*
X53523808Y37906192D02*
X53428572Y37810952D01*
D10*
X53619048Y37953808D02*
X53523808Y37906192D01*
D10*
X53809524Y37953808D02*
X53619048Y37953808D01*
D10*
X53000000Y36953808D02*
X53000000Y37953808D01*
D10*
X52333332Y36953808D02*
X53000000Y37953808D01*
D10*
X52333332Y36953808D02*
X52333332Y37953808D01*
D10*
X51952380Y36953808D02*
X51952380Y37953808D01*
D10*
X51333332Y37953808D02*
X51952380Y37953808D01*
D10*
X51571428Y37477620D02*
X51952380Y37477620D01*
D10*
X51333332Y36953808D02*
X51952380Y36953808D01*
D10*
X54571428Y66953808D02*
X54952380Y67953808D01*
D10*
X54571428Y66953808D02*
X54190476Y67953808D01*
D10*
X53809524Y67906192D02*
X53714284Y67953808D01*
D10*
X53904760Y67810952D02*
X53809524Y67906192D01*
D10*
X53952380Y67715712D02*
X53904760Y67810952D01*
D10*
X54000000Y67572856D02*
X53952380Y67715712D01*
D10*
X54000000Y67334760D02*
X54000000Y67572856D01*
D10*
X53952380Y67191904D02*
X54000000Y67334760D01*
D10*
X53904760Y67096668D02*
X53952380Y67191904D01*
D10*
X53809524Y67001428D02*
X53904760Y67096668D01*
D10*
X53714284Y66953808D02*
X53809524Y67001428D01*
D10*
X53523808Y66953808D02*
X53714284Y66953808D01*
D10*
X53428572Y67001428D02*
X53523808Y66953808D01*
D10*
X53333332Y67096668D02*
X53428572Y67001428D01*
D10*
X53285716Y67191904D02*
X53333332Y67096668D01*
D10*
X53238096Y67334760D02*
X53285716Y67191904D01*
D10*
X53238096Y67572856D02*
X53238096Y67334760D01*
D10*
X53285716Y67715712D02*
X53238096Y67572856D01*
D10*
X53333332Y67810952D02*
X53285716Y67715712D01*
D10*
X53428572Y67906192D02*
X53333332Y67810952D01*
D10*
X53523808Y67953808D02*
X53428572Y67906192D01*
D10*
X53714284Y67953808D02*
X53523808Y67953808D01*
D10*
X52904760Y66953808D02*
X52904760Y67953808D01*
D10*
X52333332Y66953808D02*
X52904760Y66953808D01*
D11*
X16000000Y35930000D02*
X3000000Y35930000D01*
D11*
X16000000Y42430000D02*
X16000000Y35930000D01*
D11*
X-3500000Y38930000D02*
X-3500000Y38930000D01*
D11*
X3000000Y35930000D02*
X3000000Y42430000D01*
D11*
X16000000Y65930000D02*
X3000000Y65930000D01*
D11*
X16000000Y72430000D02*
X16000000Y65930000D01*
D11*
X-3500000Y68930000D02*
X-3500000Y68930000D01*
D11*
X3000000Y65930000D02*
X3000000Y72430000D01*
D11*
X60000000Y35930000D02*
X47000000Y35930000D01*
D11*
X60000000Y42430000D02*
X60000000Y35930000D01*
D11*
X40500000Y38930000D02*
X40500000Y38930000D01*
D11*
X47000000Y35930000D02*
X47000000Y42430000D01*
D11*
X25150000Y44530000D02*
X37850000Y44530000D01*
D11*
X25150000Y51330000D02*
X25150000Y44530000D01*
D11*
X37850000Y44530000D02*
X37850000Y51330000D01*
D11*
X37850000Y51330000D02*
X25150000Y51330000D01*
D11*
X60000000Y65930000D02*
X47000000Y65930000D01*
D11*
X60000000Y72430000D02*
X60000000Y65930000D01*
D11*
X40500000Y68930000D02*
X40500000Y68930000D01*
D11*
X47000000Y65930000D02*
X47000000Y72430000D01*
G75*
D11*
G02*
X1000000Y47930000D02*
X18000000Y47930000I8500000J0D01*
D11*
G02*
X18000000Y47930000D02*
X1000000Y47930000I-8500000J0D01*
D11*
G02*
X1000000Y77930000D02*
X18000000Y77930000I8500000J0D01*
D11*
G02*
X18000000Y77930000D02*
X1000000Y77930000I-8500000J0D01*
D11*
G02*
X45000000Y47930000D02*
X62000000Y47930000I8500000J0D01*
D11*
G02*
X62000000Y47930000D02*
X45000000Y47930000I-8500000J0D01*
D11*
G02*
X45000000Y77930000D02*
X62000000Y77930000I8500000J0D01*
D11*
G02*
X62000000Y77930000D02*
X45000000Y77930000I-8500000J0D01*
M02*
