%FSLAX46Y46*%
%MOMM*%
%ADD11C,0.050000*%
%ADD12C,0.100000*%
%ADD10C,0.150000*%
G01*
%LPD*%
G36*
X30600000Y28200000D02*
X30200000Y28900000D01*
X31000000Y28900000D01*
X30600000Y28200000D01*
D02*
G37*
G36*
X28370000Y56320000D02*
X28370000Y56720000D01*
X30070000Y56720000D01*
X30070000Y56320000D01*
X28370000Y56320000D01*
D02*
G37*
G36*
X34630000Y54420000D02*
X34630000Y54020000D01*
X32930000Y54020000D01*
X32930000Y54420000D01*
X34630000Y54420000D01*
D02*
G37*
G36*
X27270000Y54420000D02*
X27270000Y54020000D01*
X25570000Y54020000D01*
X25570000Y54420000D01*
X27270000Y54420000D01*
D02*
G37*
G36*
X26100000Y28920000D02*
X26500000Y28220000D01*
X25700000Y28220000D01*
X26100000Y28920000D01*
D02*
G37*
G36*
X35730000Y56320000D02*
X35730000Y56720000D01*
X37430000Y56720000D01*
X37430000Y56320000D01*
X35730000Y56320000D01*
D02*
G37*
G01*
%LPD*%
D10*
X21707142Y8710952D02*
X21754762Y8615714D01*
D10*
X21611904Y8806190D02*
X21707142Y8710952D01*
D10*
X21516666Y8853810D02*
X21611904Y8806190D01*
D10*
X21326190Y8853810D02*
X21516666Y8853810D01*
D10*
X21230952Y8806190D02*
X21326190Y8853810D01*
D10*
X21135714Y8710952D02*
X21230952Y8806190D01*
D10*
X21088096Y8615714D02*
X21135714Y8710952D01*
D10*
X21040476Y8472857D02*
X21088096Y8615714D01*
D10*
X21040476Y8234762D02*
X21040476Y8472857D01*
D10*
X21088096Y8091905D02*
X21040476Y8234762D01*
D10*
X21135714Y7996666D02*
X21088096Y8091905D01*
D10*
X21230952Y7901428D02*
X21135714Y7996666D01*
D10*
X21326190Y7853809D02*
X21230952Y7901428D01*
D10*
X21516666Y7853809D02*
X21326190Y7853809D01*
D10*
X21611904Y7901428D02*
X21516666Y7853809D01*
D10*
X21707142Y7996666D02*
X21611904Y7901428D01*
D10*
X21754762Y8091905D02*
X21707142Y7996666D01*
D10*
X22088096Y8663333D02*
X22088096Y8615714D01*
D10*
X22135714Y8758571D02*
X22088096Y8663333D01*
D10*
X22183334Y8806190D02*
X22135714Y8758571D01*
D10*
X22278572Y8853810D02*
X22183334Y8806190D01*
D10*
X22469048Y8853810D02*
X22278572Y8853810D01*
D10*
X22564286Y8806190D02*
X22469048Y8853810D01*
D10*
X22611904Y8758571D02*
X22564286Y8806190D01*
D10*
X22659524Y8663333D02*
X22611904Y8758571D01*
D10*
X22659524Y8568095D02*
X22659524Y8663333D01*
D10*
X22611904Y8472857D02*
X22659524Y8568095D01*
D10*
X22516666Y8330000D02*
X22611904Y8472857D01*
D10*
X22040476Y7853809D02*
X22516666Y8330000D01*
D10*
X22707142Y7853809D02*
X22040476Y7853809D01*
D10*
X53059524Y40800952D02*
X53107144Y40705716D01*
D10*
X52964284Y40896192D02*
X53059524Y40800952D01*
D10*
X52869048Y40943808D02*
X52964284Y40896192D01*
D10*
X52678572Y40943808D02*
X52869048Y40943808D01*
D10*
X52583332Y40896192D02*
X52678572Y40943808D01*
D10*
X52488096Y40800952D02*
X52583332Y40896192D01*
D10*
X52440476Y40705716D02*
X52488096Y40800952D01*
D10*
X52392856Y40562856D02*
X52440476Y40705716D01*
D10*
X52392856Y40324760D02*
X52392856Y40562856D01*
D10*
X52440476Y40181904D02*
X52392856Y40324760D01*
D10*
X52488096Y40086668D02*
X52440476Y40181904D01*
D10*
X52583332Y39991428D02*
X52488096Y40086668D01*
D10*
X52678572Y39943808D02*
X52583332Y39991428D01*
D10*
X52869048Y39943808D02*
X52678572Y39943808D01*
D10*
X52964284Y39991428D02*
X52869048Y39943808D01*
D10*
X53059524Y40086668D02*
X52964284Y39991428D01*
D10*
X53107144Y40181904D02*
X53059524Y40086668D01*
D10*
X53630952Y40800952D02*
X53535716Y40753332D01*
D10*
X53773808Y40943808D02*
X53630952Y40800952D01*
D10*
X53773808Y39943808D02*
X53773808Y40943808D01*
D10*
X54392856Y40753332D02*
X54392856Y40705716D01*
D10*
X54440476Y40848572D02*
X54392856Y40753332D01*
D10*
X54488096Y40896192D02*
X54440476Y40848572D01*
D10*
X54583332Y40943808D02*
X54488096Y40896192D01*
D10*
X54773808Y40943808D02*
X54583332Y40943808D01*
D10*
X54869048Y40896192D02*
X54773808Y40943808D01*
D10*
X54916668Y40848572D02*
X54869048Y40896192D01*
D10*
X54964284Y40753332D02*
X54916668Y40848572D01*
D10*
X54964284Y40658096D02*
X54964284Y40753332D01*
D10*
X54916668Y40562856D02*
X54964284Y40658096D01*
D10*
X54821428Y40420000D02*
X54916668Y40562856D01*
D10*
X54345240Y39943808D02*
X54821428Y40420000D01*
D10*
X55011904Y39943808D02*
X54345240Y39943808D01*
D10*
X41571428Y3571904D02*
X41571428Y4333809D01*
D10*
X41523808Y3429047D02*
X41571428Y3571904D01*
D10*
X41476192Y3381428D02*
X41523808Y3429047D01*
D10*
X41380952Y3333809D02*
X41476192Y3381428D01*
D10*
X41285716Y3333809D02*
X41380952Y3333809D01*
D10*
X41190476Y3381428D02*
X41285716Y3333809D01*
D10*
X41142856Y3429047D02*
X41190476Y3381428D01*
D10*
X41095240Y3571904D02*
X41142856Y3429047D01*
D10*
X41095240Y3667142D02*
X41095240Y3571904D01*
D10*
X42142856Y4190952D02*
X42047620Y4143333D01*
D10*
X42285716Y4333809D02*
X42142856Y4190952D01*
D10*
X42285716Y3333809D02*
X42285716Y4333809D01*
D10*
X30240476Y16053810D02*
X30240476Y17053810D01*
D10*
X30669048Y17053810D02*
X30240476Y17053810D01*
D10*
X30811904Y17006190D02*
X30669048Y17053810D01*
D10*
X30859524Y16958572D02*
X30811904Y17006190D01*
D10*
X30907142Y16863334D02*
X30859524Y16958572D01*
D10*
X30907142Y16768095D02*
X30907142Y16863334D01*
D10*
X30859524Y16672857D02*
X30907142Y16768095D01*
D10*
X30811904Y16625238D02*
X30859524Y16672857D01*
D10*
X30669048Y16577619D02*
X30811904Y16625238D01*
D10*
X30240476Y16577619D02*
X30669048Y16577619D01*
D10*
X30907142Y16053810D02*
X30573810Y16577619D01*
D10*
X31811904Y17053810D02*
X31288096Y17053810D01*
D10*
X31526190Y16672857D02*
X31811904Y17053810D01*
D10*
X31669048Y16672857D02*
X31526190Y16672857D01*
D10*
X31764286Y16625238D02*
X31669048Y16672857D01*
D10*
X31811904Y16577619D02*
X31764286Y16625238D01*
D10*
X31859524Y16434762D02*
X31811904Y16577619D01*
D10*
X31859524Y16339524D02*
X31859524Y16434762D01*
D10*
X31811904Y16196667D02*
X31859524Y16339524D01*
D10*
X31716666Y16101429D02*
X31811904Y16196667D01*
D10*
X31573810Y16053810D02*
X31716666Y16101429D01*
D10*
X31430952Y16053810D02*
X31573810Y16053810D01*
D10*
X31288096Y16101429D02*
X31430952Y16053810D01*
D10*
X31240476Y16149048D02*
X31288096Y16101429D01*
D10*
X31192858Y16244286D02*
X31240476Y16149048D01*
D10*
X34256192Y59070476D02*
X33256190Y59070476D01*
D10*
X33256190Y59403808D02*
X33256190Y59070476D01*
D10*
X33303810Y59546668D02*
X33256190Y59403808D01*
D10*
X33399048Y59641904D02*
X33303810Y59546668D01*
D10*
X33494286Y59689524D02*
X33399048Y59641904D01*
D10*
X33637144Y59737144D02*
X33494286Y59689524D01*
D10*
X33875240Y59737144D02*
X33637144Y59737144D01*
D10*
X34018096Y59689524D02*
X33875240Y59737144D01*
D10*
X34113332Y59641904D02*
X34018096Y59689524D01*
D10*
X34208572Y59546668D02*
X34113332Y59641904D01*
D10*
X34256192Y59403808D02*
X34208572Y59546668D01*
D10*
X34256192Y59070476D02*
X34256192Y59403808D01*
D10*
X33256190Y60118096D02*
X33256190Y60594284D01*
D10*
X33684760Y60070476D02*
X33256190Y60118096D01*
D10*
X33637144Y60118096D02*
X33684760Y60070476D01*
D10*
X33589524Y60260952D02*
X33637144Y60118096D01*
D10*
X33589524Y60403808D02*
X33589524Y60260952D01*
D10*
X33637144Y60546668D02*
X33589524Y60403808D01*
D10*
X33732380Y60641904D02*
X33637144Y60546668D01*
D10*
X33875240Y60689524D02*
X33732380Y60641904D01*
D10*
X33970476Y60689524D02*
X33875240Y60689524D01*
D10*
X34113332Y60641904D02*
X33970476Y60689524D01*
D10*
X34208572Y60546668D02*
X34113332Y60641904D01*
D10*
X34256192Y60403808D02*
X34208572Y60546668D01*
D10*
X34256192Y60260952D02*
X34256192Y60403808D01*
D10*
X34208572Y60118096D02*
X34256192Y60260952D01*
D10*
X34160952Y60070476D02*
X34208572Y60118096D01*
D10*
X34065716Y60022856D02*
X34160952Y60070476D01*
D10*
X44744048Y47789760D02*
X44839284Y47837380D01*
D10*
X44648808Y47694524D02*
X44744048Y47789760D01*
D10*
X44601192Y47599284D02*
X44648808Y47694524D01*
D10*
X44601192Y47408808D02*
X44601192Y47599284D01*
D10*
X44648808Y47313572D02*
X44601192Y47408808D01*
D10*
X44744048Y47218332D02*
X44648808Y47313572D01*
D10*
X44839284Y47170716D02*
X44744048Y47218332D01*
D10*
X44982144Y47123096D02*
X44839284Y47170716D01*
D10*
X45220240Y47123096D02*
X44982144Y47123096D01*
D10*
X45363096Y47170716D02*
X45220240Y47123096D01*
D10*
X45458332Y47218332D02*
X45363096Y47170716D01*
D10*
X45553572Y47313572D02*
X45458332Y47218332D01*
D10*
X45601192Y47408808D02*
X45553572Y47313572D01*
D10*
X45601192Y47599284D02*
X45601192Y47408808D01*
D10*
X45553572Y47694524D02*
X45601192Y47599284D01*
D10*
X45458332Y47789760D02*
X45553572Y47694524D01*
D10*
X45363096Y47837380D02*
X45458332Y47789760D01*
D10*
X44744048Y48361192D02*
X44791668Y48265952D01*
D10*
X44601192Y48504048D02*
X44744048Y48361192D01*
D10*
X45601192Y48504048D02*
X44601192Y48504048D01*
D10*
X45267856Y49075476D02*
X44601192Y49551668D01*
D10*
X45267856Y49789760D02*
X45267856Y49075476D01*
D10*
X45601192Y49551668D02*
X44601192Y49551668D01*
D10*
X6836190Y54968096D02*
X5836190Y54968096D01*
D10*
X5836190Y55396668D02*
X5836190Y54968096D01*
D10*
X5883809Y55539524D02*
X5836190Y55396668D01*
D10*
X5931428Y55587144D02*
X5883809Y55539524D01*
D10*
X6026666Y55634760D02*
X5931428Y55587144D01*
D10*
X6121905Y55634760D02*
X6026666Y55634760D01*
D10*
X6217143Y55587144D02*
X6121905Y55634760D01*
D10*
X6264762Y55539524D02*
X6217143Y55587144D01*
D10*
X6312381Y55396668D02*
X6264762Y55539524D01*
D10*
X6312381Y54968096D02*
X6312381Y55396668D01*
D10*
X6836190Y55634760D02*
X6312381Y55301428D01*
D10*
X6502857Y55920476D02*
X5836190Y56396668D01*
D10*
X6502857Y56634760D02*
X6502857Y55920476D01*
D10*
X6836190Y56396668D02*
X5836190Y56396668D01*
D10*
X33440476Y28453810D02*
X33440476Y29453810D01*
D10*
X33821428Y28453810D02*
X33440476Y29453810D01*
D10*
X33821428Y28453810D02*
X34202380Y29453810D01*
D10*
X34202380Y28453810D02*
X34202380Y29453810D01*
D10*
X34583332Y28453810D02*
X34583332Y29453810D01*
D10*
X35202380Y29453810D02*
X34583332Y29453810D01*
D10*
X34964284Y28977620D02*
X34583332Y28977620D01*
D10*
X35202380Y28453810D02*
X34583332Y28453810D01*
D10*
X35488096Y28453810D02*
X35488096Y29453810D01*
D10*
X36059524Y28453810D02*
X35488096Y28453810D01*
D10*
X36297620Y28453810D02*
X36297620Y29453810D01*
D10*
X36869048Y28453810D02*
X36297620Y28453810D01*
D10*
X37250000Y29406190D02*
X37345240Y29453810D01*
D10*
X37154760Y29310952D02*
X37250000Y29406190D01*
D10*
X37107144Y29215714D02*
X37154760Y29310952D01*
D10*
X37059524Y29072858D02*
X37107144Y29215714D01*
D10*
X37059524Y28834762D02*
X37059524Y29072858D01*
D10*
X37107144Y28691904D02*
X37059524Y28834762D01*
D10*
X37154760Y28596666D02*
X37107144Y28691904D01*
D10*
X37250000Y28501428D02*
X37154760Y28596666D01*
D10*
X37345240Y28453810D02*
X37250000Y28501428D01*
D10*
X37535712Y28453810D02*
X37345240Y28453810D01*
D10*
X37630952Y28501428D02*
X37535712Y28453810D01*
D10*
X37726192Y28596666D02*
X37630952Y28501428D01*
D10*
X37773808Y28691904D02*
X37726192Y28596666D01*
D10*
X37821428Y28834762D02*
X37773808Y28691904D01*
D10*
X37821428Y29072858D02*
X37821428Y28834762D01*
D10*
X37773808Y29215714D02*
X37821428Y29072858D01*
D10*
X37726192Y29310952D02*
X37773808Y29215714D01*
D10*
X37630952Y29406190D02*
X37726192Y29310952D01*
D10*
X37535712Y29453810D02*
X37630952Y29406190D01*
D10*
X37345240Y29453810D02*
X37535712Y29453810D01*
D10*
X38297620Y28453810D02*
X38059524Y29453810D01*
D10*
X38297620Y28453810D02*
X38535712Y29453810D01*
D10*
X38773808Y28453810D02*
X38535712Y29453810D01*
D10*
X38773808Y28453810D02*
X39011904Y29453810D01*
D10*
X30288096Y12753810D02*
X30288096Y13753810D01*
D10*
X30716666Y13753810D02*
X30288096Y13753810D01*
D10*
X30859524Y13706190D02*
X30716666Y13753810D01*
D10*
X30907142Y13658571D02*
X30859524Y13706190D01*
D10*
X30954762Y13563333D02*
X30907142Y13658571D01*
D10*
X30954762Y13468095D02*
X30954762Y13563333D01*
D10*
X30907142Y13372857D02*
X30954762Y13468095D01*
D10*
X30859524Y13325238D02*
X30907142Y13372857D01*
D10*
X30716666Y13277619D02*
X30859524Y13325238D01*
D10*
X30288096Y13277619D02*
X30716666Y13277619D01*
D10*
X30954762Y12753810D02*
X30621428Y13277619D01*
D10*
X31288096Y13563333D02*
X31288096Y13515714D01*
D10*
X31335714Y13658571D02*
X31288096Y13563333D01*
D10*
X31383334Y13706190D02*
X31335714Y13658571D01*
D10*
X31478572Y13753810D02*
X31383334Y13706190D01*
D10*
X31669048Y13753810D02*
X31478572Y13753810D01*
D10*
X31764286Y13706190D02*
X31669048Y13753810D01*
D10*
X31811904Y13658571D02*
X31764286Y13706190D01*
D10*
X31859524Y13563333D02*
X31811904Y13658571D01*
D10*
X31859524Y13468095D02*
X31859524Y13563333D01*
D10*
X31811904Y13372857D02*
X31859524Y13468095D01*
D10*
X31716666Y13230000D02*
X31811904Y13372857D01*
D10*
X31240476Y12753810D02*
X31716666Y13230000D01*
D10*
X31907142Y12753810D02*
X31240476Y12753810D01*
D10*
X52235716Y38153808D02*
X52235716Y39153808D01*
D10*
X52664284Y39153808D02*
X52235716Y39153808D01*
D10*
X52807144Y39106192D02*
X52664284Y39153808D01*
D10*
X52854760Y39058572D02*
X52807144Y39106192D01*
D10*
X52902380Y38963332D02*
X52854760Y39058572D01*
D10*
X52902380Y38868096D02*
X52902380Y38963332D01*
D10*
X52854760Y38772856D02*
X52902380Y38868096D01*
D10*
X52807144Y38725240D02*
X52854760Y38772856D01*
D10*
X52664284Y38677620D02*
X52807144Y38725240D01*
D10*
X52235716Y38677620D02*
X52664284Y38677620D01*
D10*
X52902380Y38153808D02*
X52569048Y38677620D01*
D10*
X53426192Y39010952D02*
X53330952Y38963332D01*
D10*
X53569048Y39153808D02*
X53426192Y39010952D01*
D10*
X53569048Y38153808D02*
X53569048Y39153808D01*
D10*
X54283332Y39106192D02*
X54426192Y39153808D01*
D10*
X54188096Y38963332D02*
X54283332Y39106192D01*
D10*
X54140476Y38725240D02*
X54188096Y38963332D01*
D10*
X54140476Y38582380D02*
X54140476Y38725240D01*
D10*
X54188096Y38344284D02*
X54140476Y38582380D01*
D10*
X54283332Y38201428D02*
X54188096Y38344284D01*
D10*
X54426192Y38153808D02*
X54283332Y38201428D01*
D10*
X54521428Y38153808D02*
X54426192Y38153808D01*
D10*
X54664284Y38201428D02*
X54521428Y38153808D01*
D10*
X54759524Y38344284D02*
X54664284Y38201428D01*
D10*
X54807144Y38582380D02*
X54759524Y38344284D01*
D10*
X54807144Y38725240D02*
X54807144Y38582380D01*
D10*
X54759524Y38963332D02*
X54807144Y38725240D01*
D10*
X54664284Y39106192D02*
X54759524Y38963332D01*
D10*
X54521428Y39153808D02*
X54664284Y39106192D01*
D10*
X54426192Y39153808D02*
X54521428Y39153808D01*
D10*
X30090476Y25083810D02*
X30090476Y26083810D01*
D10*
X30423810Y26083810D02*
X30090476Y26083810D01*
D10*
X30566666Y26036190D02*
X30423810Y26083810D01*
D10*
X30661904Y25940952D02*
X30566666Y26036190D01*
D10*
X30709524Y25845714D02*
X30661904Y25940952D01*
D10*
X30757142Y25702858D02*
X30709524Y25845714D01*
D10*
X30757142Y25464762D02*
X30757142Y25702858D01*
D10*
X30709524Y25321904D02*
X30757142Y25464762D01*
D10*
X30661904Y25226666D02*
X30709524Y25321904D01*
D10*
X30566666Y25131428D02*
X30661904Y25226666D01*
D10*
X30423810Y25083810D02*
X30566666Y25131428D01*
D10*
X30090476Y25083810D02*
X30423810Y25083810D01*
D10*
X31090476Y25893334D02*
X31090476Y25845714D01*
D10*
X31138096Y25988572D02*
X31090476Y25893334D01*
D10*
X31185714Y26036190D02*
X31138096Y25988572D01*
D10*
X31280952Y26083810D02*
X31185714Y26036190D01*
D10*
X31471428Y26083810D02*
X31280952Y26083810D01*
D10*
X31566666Y26036190D02*
X31471428Y26083810D01*
D10*
X31614286Y25988572D02*
X31566666Y26036190D01*
D10*
X31661904Y25893334D02*
X31614286Y25988572D01*
D10*
X31661904Y25798096D02*
X31661904Y25893334D01*
D10*
X31614286Y25702858D02*
X31661904Y25798096D01*
D10*
X31519048Y25560000D02*
X31614286Y25702858D01*
D10*
X31042858Y25083810D02*
X31519048Y25560000D01*
D10*
X31709524Y25083810D02*
X31042858Y25083810D01*
D10*
X26896190Y59076668D02*
X25896190Y59076668D01*
D10*
X25896190Y59410000D02*
X25896190Y59076668D01*
D10*
X25943810Y59552860D02*
X25896190Y59410000D01*
D10*
X26039048Y59648096D02*
X25943810Y59552860D01*
D10*
X26134286Y59695716D02*
X26039048Y59648096D01*
D10*
X26277142Y59743336D02*
X26134286Y59695716D01*
D10*
X26515238Y59743336D02*
X26277142Y59743336D01*
D10*
X26658096Y59695716D02*
X26515238Y59743336D01*
D10*
X26753334Y59648096D02*
X26658096Y59695716D01*
D10*
X26848572Y59552860D02*
X26753334Y59648096D01*
D10*
X26896190Y59410000D02*
X26848572Y59552860D01*
D10*
X26896190Y59076668D02*
X26896190Y59410000D01*
D10*
X25896190Y60648096D02*
X25896190Y60124288D01*
D10*
X26277142Y60362384D02*
X25896190Y60648096D01*
D10*
X26277142Y60505240D02*
X26277142Y60362384D01*
D10*
X26324762Y60600476D02*
X26277142Y60505240D01*
D10*
X26372380Y60648096D02*
X26324762Y60600476D01*
D10*
X26515238Y60695716D02*
X26372380Y60648096D01*
D10*
X26610476Y60695716D02*
X26515238Y60695716D01*
D10*
X26753334Y60648096D02*
X26610476Y60695716D01*
D10*
X26848572Y60552860D02*
X26753334Y60648096D01*
D10*
X26896190Y60410000D02*
X26848572Y60552860D01*
D10*
X26896190Y60267144D02*
X26896190Y60410000D01*
D10*
X26848572Y60124288D02*
X26896190Y60267144D01*
D10*
X26800952Y60076668D02*
X26848572Y60124288D01*
D10*
X26705714Y60029048D02*
X26800952Y60076668D01*
D10*
X29696190Y59070000D02*
X28696190Y59070000D01*
D10*
X28696190Y59403332D02*
X28696190Y59070000D01*
D10*
X28743810Y59546188D02*
X28696190Y59403332D01*
D10*
X28839048Y59641428D02*
X28743810Y59546188D01*
D10*
X28934286Y59689048D02*
X28839048Y59641428D01*
D10*
X29077142Y59736664D02*
X28934286Y59689048D01*
D10*
X29315238Y59736664D02*
X29077142Y59736664D01*
D10*
X29458096Y59689048D02*
X29315238Y59736664D01*
D10*
X29553334Y59641428D02*
X29458096Y59689048D01*
D10*
X29648572Y59546188D02*
X29553334Y59641428D01*
D10*
X29696190Y59403332D02*
X29648572Y59546188D01*
D10*
X29696190Y59070000D02*
X29696190Y59403332D01*
D10*
X29362858Y60022380D02*
X28696190Y60498572D01*
D10*
X29362858Y60736664D02*
X29362858Y60022380D01*
D10*
X29696190Y60498572D02*
X28696190Y60498572D01*
D10*
X24360478Y39978808D02*
X24360478Y40978808D01*
D10*
X24789050Y40978808D02*
X24360478Y40978808D01*
D10*
X24931906Y40931192D02*
X24789050Y40978808D01*
D10*
X24979526Y40883572D02*
X24931906Y40931192D01*
D10*
X25027144Y40788332D02*
X24979526Y40883572D01*
D10*
X25027144Y40693096D02*
X25027144Y40788332D01*
D10*
X24979526Y40597856D02*
X25027144Y40693096D01*
D10*
X24931906Y40550240D02*
X24979526Y40597856D01*
D10*
X24789050Y40502620D02*
X24931906Y40550240D01*
D10*
X24360478Y40502620D02*
X24789050Y40502620D01*
D10*
X25027144Y39978808D02*
X24693812Y40502620D01*
D10*
X25884288Y40502620D02*
X25931906Y40645476D01*
D10*
X25789050Y40407380D02*
X25884288Y40502620D01*
D10*
X25646192Y40359760D02*
X25789050Y40407380D01*
D10*
X25598574Y40359760D02*
X25646192Y40359760D01*
D10*
X25455716Y40407380D02*
X25598574Y40359760D01*
D10*
X25360478Y40502620D02*
X25455716Y40407380D01*
D10*
X25312860Y40645476D02*
X25360478Y40502620D01*
D10*
X25312860Y40693096D02*
X25312860Y40645476D01*
D10*
X25360478Y40835952D02*
X25312860Y40693096D01*
D10*
X25455716Y40931192D02*
X25360478Y40835952D01*
D10*
X25598574Y40978808D02*
X25455716Y40931192D01*
D10*
X25646192Y40978808D02*
X25598574Y40978808D01*
D10*
X25789050Y40931192D02*
X25646192Y40978808D01*
D10*
X25884288Y40835952D02*
X25789050Y40931192D01*
D10*
X25931906Y40645476D02*
X25884288Y40835952D01*
D10*
X25931906Y40407380D02*
X25931906Y40645476D01*
D10*
X25884288Y40169284D02*
X25931906Y40407380D01*
D10*
X25789050Y40026428D02*
X25884288Y40169284D01*
D10*
X25646192Y39978808D02*
X25789050Y40026428D01*
D10*
X25550954Y39978808D02*
X25646192Y39978808D01*
D10*
X25408098Y40026428D02*
X25550954Y39978808D01*
D10*
X25360478Y40121668D02*
X25408098Y40026428D01*
D10*
X37056192Y59078096D02*
X36056192Y59078096D01*
D10*
X36056192Y59411428D02*
X36056192Y59078096D01*
D10*
X36103808Y59554284D02*
X36056192Y59411428D01*
D10*
X36199048Y59649524D02*
X36103808Y59554284D01*
D10*
X36294284Y59697144D02*
X36199048Y59649524D01*
D10*
X36437144Y59744760D02*
X36294284Y59697144D01*
D10*
X36675240Y59744760D02*
X36437144Y59744760D01*
D10*
X36818096Y59697144D02*
X36675240Y59744760D01*
D10*
X36913332Y59649524D02*
X36818096Y59697144D01*
D10*
X37008572Y59554284D02*
X36913332Y59649524D01*
D10*
X37056192Y59411428D02*
X37008572Y59554284D01*
D10*
X37056192Y59078096D02*
X37056192Y59411428D01*
D10*
X36103808Y60601904D02*
X36199048Y60649524D01*
D10*
X36056192Y60459048D02*
X36103808Y60601904D01*
D10*
X36056192Y60363808D02*
X36056192Y60459048D01*
D10*
X36103808Y60220952D02*
X36056192Y60363808D01*
D10*
X36246668Y60125716D02*
X36103808Y60220952D01*
D10*
X36484760Y60078096D02*
X36246668Y60125716D01*
D10*
X36722856Y60078096D02*
X36484760Y60078096D01*
D10*
X36913332Y60125716D02*
X36722856Y60078096D01*
D10*
X37008572Y60220952D02*
X36913332Y60125716D01*
D10*
X37056192Y60363808D02*
X37008572Y60220952D01*
D10*
X37056192Y60411428D02*
X37056192Y60363808D01*
D10*
X37008572Y60554284D02*
X37056192Y60411428D01*
D10*
X36913332Y60649524D02*
X37008572Y60554284D01*
D10*
X36770476Y60697144D02*
X36913332Y60649524D01*
D10*
X36722856Y60697144D02*
X36770476Y60697144D01*
D10*
X36580000Y60649524D02*
X36722856Y60697144D01*
D10*
X36484760Y60554284D02*
X36580000Y60649524D01*
D10*
X36437144Y60411428D02*
X36484760Y60554284D01*
D10*
X36437144Y60363808D02*
X36437144Y60411428D01*
D10*
X36484760Y60220952D02*
X36437144Y60363808D01*
D10*
X36580000Y60125716D02*
X36484760Y60220952D01*
D10*
X36722856Y60078096D02*
X36580000Y60125716D01*
D10*
X6450476Y49923808D02*
X6450476Y50923808D01*
D10*
X6879047Y50923808D02*
X6450476Y50923808D01*
D10*
X7021905Y50876192D02*
X6879047Y50923808D01*
D10*
X7069524Y50828572D02*
X7021905Y50876192D01*
D10*
X7117143Y50733332D02*
X7069524Y50828572D01*
D10*
X7117143Y50638096D02*
X7117143Y50733332D01*
D10*
X7069524Y50542856D02*
X7117143Y50638096D01*
D10*
X7021905Y50495240D02*
X7069524Y50542856D01*
D10*
X6879047Y50447620D02*
X7021905Y50495240D01*
D10*
X6450476Y50447620D02*
X6879047Y50447620D01*
D10*
X7117143Y49923808D02*
X6783809Y50447620D01*
D10*
X7974286Y50876192D02*
X8021905Y50780952D01*
D10*
X7831428Y50923808D02*
X7974286Y50876192D01*
D10*
X7736190Y50923808D02*
X7831428Y50923808D01*
D10*
X7593333Y50876192D02*
X7736190Y50923808D01*
D10*
X7498095Y50733332D02*
X7593333Y50876192D01*
D10*
X7450476Y50495240D02*
X7498095Y50733332D01*
D10*
X7450476Y50257144D02*
X7450476Y50495240D01*
D10*
X7498095Y50066668D02*
X7450476Y50257144D01*
D10*
X7593333Y49971428D02*
X7498095Y50066668D01*
D10*
X7736190Y49923808D02*
X7593333Y49971428D01*
D10*
X7783809Y49923808D02*
X7736190Y49923808D01*
D10*
X7926666Y49971428D02*
X7783809Y49923808D01*
D10*
X8021905Y50066668D02*
X7926666Y49971428D01*
D10*
X8069524Y50209524D02*
X8021905Y50066668D01*
D10*
X8069524Y50257144D02*
X8069524Y50209524D01*
D10*
X8021905Y50400000D02*
X8069524Y50257144D01*
D10*
X7926666Y50495240D02*
X8021905Y50400000D01*
D10*
X7783809Y50542856D02*
X7926666Y50495240D01*
D10*
X7736190Y50542856D02*
X7783809Y50542856D01*
D10*
X7593333Y50495240D02*
X7736190Y50542856D01*
D10*
X7498095Y50400000D02*
X7593333Y50495240D01*
D10*
X7450476Y50257144D02*
X7498095Y50400000D01*
D10*
X5064047Y46039524D02*
X5159285Y46087144D01*
D10*
X4968809Y45944284D02*
X5064047Y46039524D01*
D10*
X4921190Y45849048D02*
X4968809Y45944284D01*
D10*
X4921190Y45658572D02*
X4921190Y45849048D01*
D10*
X4968809Y45563332D02*
X4921190Y45658572D01*
D10*
X5064047Y45468096D02*
X4968809Y45563332D01*
D10*
X5159285Y45420476D02*
X5064047Y45468096D01*
D10*
X5302143Y45372856D02*
X5159285Y45420476D01*
D10*
X5540238Y45372856D02*
X5302143Y45372856D01*
D10*
X5683095Y45420476D02*
X5540238Y45372856D01*
D10*
X5778333Y45468096D02*
X5683095Y45420476D01*
D10*
X5873571Y45563332D02*
X5778333Y45468096D01*
D10*
X5921190Y45658572D02*
X5873571Y45563332D01*
D10*
X5921190Y45849048D02*
X5921190Y45658572D01*
D10*
X5873571Y45944284D02*
X5921190Y45849048D01*
D10*
X5778333Y46039524D02*
X5873571Y45944284D01*
D10*
X5683095Y46087144D02*
X5778333Y46039524D01*
D10*
X5397381Y46944284D02*
X5254524Y46991904D01*
D10*
X5492619Y46849048D02*
X5397381Y46944284D01*
D10*
X5540238Y46706192D02*
X5492619Y46849048D01*
D10*
X5540238Y46658572D02*
X5540238Y46706192D01*
D10*
X5492619Y46515716D02*
X5540238Y46658572D01*
D10*
X5397381Y46420476D02*
X5492619Y46515716D01*
D10*
X5254524Y46372856D02*
X5397381Y46420476D01*
D10*
X5206905Y46372856D02*
X5254524Y46372856D01*
D10*
X5064047Y46420476D02*
X5206905Y46372856D01*
D10*
X4968809Y46515716D02*
X5064047Y46420476D01*
D10*
X4921190Y46658572D02*
X4968809Y46515716D01*
D10*
X4921190Y46706192D02*
X4921190Y46658572D01*
D10*
X4968809Y46849048D02*
X4921190Y46706192D01*
D10*
X5064047Y46944284D02*
X4968809Y46849048D01*
D10*
X5254524Y46991904D02*
X5064047Y46944284D01*
D10*
X5492619Y46991904D02*
X5254524Y46991904D01*
D10*
X5730714Y46944284D02*
X5492619Y46991904D01*
D10*
X5873571Y46849048D02*
X5730714Y46944284D01*
D10*
X5921190Y46706192D02*
X5873571Y46849048D01*
D10*
X5921190Y46610952D02*
X5921190Y46706192D01*
D10*
X5873571Y46468096D02*
X5921190Y46610952D01*
D10*
X5778333Y46420476D02*
X5873571Y46468096D01*
D10*
X27629762Y31510952D02*
X27677380Y31415714D01*
D10*
X27534524Y31606190D02*
X27629762Y31510952D01*
D10*
X27439286Y31653810D02*
X27534524Y31606190D01*
D10*
X27248810Y31653810D02*
X27439286Y31653810D01*
D10*
X27153572Y31606190D02*
X27248810Y31653810D01*
D10*
X27058334Y31510952D02*
X27153572Y31606190D01*
D10*
X27010714Y31415714D02*
X27058334Y31510952D01*
D10*
X26963096Y31272858D02*
X27010714Y31415714D01*
D10*
X26963096Y31034762D02*
X26963096Y31272858D01*
D10*
X27010714Y30891904D02*
X26963096Y31034762D01*
D10*
X27058334Y30796666D02*
X27010714Y30891904D01*
D10*
X27153572Y30701428D02*
X27058334Y30796666D01*
D10*
X27248810Y30653810D02*
X27153572Y30701428D01*
D10*
X27439286Y30653810D02*
X27248810Y30653810D01*
D10*
X27534524Y30701428D02*
X27439286Y30653810D01*
D10*
X27629762Y30796666D02*
X27534524Y30701428D01*
D10*
X27677380Y30891904D02*
X27629762Y30796666D01*
D10*
X28201190Y31510952D02*
X28105952Y31463334D01*
D10*
X28344048Y31653810D02*
X28201190Y31510952D01*
D10*
X28344048Y30653810D02*
X28344048Y31653810D01*
D10*
X29058334Y31606190D02*
X29201190Y31653810D01*
D10*
X28963096Y31463334D02*
X29058334Y31606190D01*
D10*
X28915476Y31225238D02*
X28963096Y31463334D01*
D10*
X28915476Y31082380D02*
X28915476Y31225238D01*
D10*
X28963096Y30844286D02*
X28915476Y31082380D01*
D10*
X29058334Y30701428D02*
X28963096Y30844286D01*
D10*
X29201190Y30653810D02*
X29058334Y30701428D01*
D10*
X29296428Y30653810D02*
X29201190Y30653810D01*
D10*
X29439286Y30701428D02*
X29296428Y30653810D01*
D10*
X29534524Y30844286D02*
X29439286Y30701428D01*
D10*
X29582142Y31082380D02*
X29534524Y30844286D01*
D10*
X29582142Y31225238D02*
X29582142Y31082380D01*
D10*
X29534524Y31463334D02*
X29582142Y31225238D01*
D10*
X29439286Y31606190D02*
X29534524Y31463334D01*
D10*
X29296428Y31653810D02*
X29439286Y31606190D01*
D10*
X29201190Y31653810D02*
X29296428Y31653810D01*
D10*
X53921192Y46000476D02*
X52921192Y46000476D01*
D10*
X52921192Y46429048D02*
X52921192Y46000476D01*
D10*
X52968808Y46571904D02*
X52921192Y46429048D01*
D10*
X53016428Y46619524D02*
X52968808Y46571904D01*
D10*
X53111668Y46667144D02*
X53016428Y46619524D01*
D10*
X53206904Y46667144D02*
X53111668Y46667144D01*
D10*
X53302144Y46619524D02*
X53206904Y46667144D01*
D10*
X53349760Y46571904D02*
X53302144Y46619524D01*
D10*
X53397380Y46429048D02*
X53349760Y46571904D01*
D10*
X53397380Y46000476D02*
X53397380Y46429048D01*
D10*
X53921192Y46667144D02*
X53397380Y46333808D01*
D10*
X53064048Y47190952D02*
X53111668Y47095716D01*
D10*
X52921192Y47333808D02*
X53064048Y47190952D01*
D10*
X53921192Y47333808D02*
X52921192Y47333808D01*
D10*
X53111668Y47952856D02*
X53159284Y47952856D01*
D10*
X53016428Y48000476D02*
X53111668Y47952856D01*
D10*
X52968808Y48048096D02*
X53016428Y48000476D01*
D10*
X52921192Y48143332D02*
X52968808Y48048096D01*
D10*
X52921192Y48333808D02*
X52921192Y48143332D01*
D10*
X52968808Y48429048D02*
X52921192Y48333808D01*
D10*
X53016428Y48476668D02*
X52968808Y48429048D01*
D10*
X53111668Y48524284D02*
X53016428Y48476668D01*
D10*
X53206904Y48524284D02*
X53111668Y48524284D01*
D10*
X53302144Y48476668D02*
X53206904Y48524284D01*
D10*
X53445000Y48381428D02*
X53302144Y48476668D01*
D10*
X53921192Y47905240D02*
X53445000Y48381428D01*
D10*
X53921192Y48571904D02*
X53921192Y47905240D01*
D10*
X43200476Y36323808D02*
X43200476Y37323808D01*
D10*
X43629048Y37323808D02*
X43200476Y37323808D01*
D10*
X43771904Y37276192D02*
X43629048Y37323808D01*
D10*
X43819524Y37228572D02*
X43771904Y37276192D01*
D10*
X43867144Y37133332D02*
X43819524Y37228572D01*
D10*
X43867144Y37038096D02*
X43867144Y37133332D01*
D10*
X43819524Y36942856D02*
X43867144Y37038096D01*
D10*
X43771904Y36895240D02*
X43819524Y36942856D01*
D10*
X43629048Y36847620D02*
X43771904Y36895240D01*
D10*
X43200476Y36847620D02*
X43629048Y36847620D01*
D10*
X43867144Y36323808D02*
X43533808Y36847620D01*
D10*
X44390952Y37180952D02*
X44295716Y37133332D01*
D10*
X44533808Y37323808D02*
X44390952Y37180952D01*
D10*
X44533808Y36323808D02*
X44533808Y37323808D01*
D10*
X45343332Y37180952D02*
X45248096Y37133332D01*
D10*
X45486192Y37323808D02*
X45343332Y37180952D01*
D10*
X45486192Y36323808D02*
X45486192Y37323808D01*
D10*
X57780952Y2323809D02*
X57495240Y2990476D01*
D10*
X57780952Y2323809D02*
X58066668Y2990476D01*
D10*
X58923808Y3323809D02*
X58400000Y3323809D01*
D10*
X58638096Y2942857D02*
X58923808Y3323809D01*
D10*
X58780952Y2942857D02*
X58638096Y2942857D01*
D10*
X58876192Y2895238D02*
X58780952Y2942857D01*
D10*
X58923808Y2847619D02*
X58876192Y2895238D01*
D10*
X58971428Y2704762D02*
X58923808Y2847619D01*
D10*
X58971428Y2609523D02*
X58971428Y2704762D01*
D10*
X58923808Y2466666D02*
X58971428Y2609523D01*
D10*
X58828572Y2371428D02*
X58923808Y2466666D01*
D10*
X58685716Y2323809D02*
X58828572Y2371428D01*
D10*
X58542856Y2323809D02*
X58685716Y2323809D01*
D10*
X58400000Y2371428D02*
X58542856Y2323809D01*
D10*
X58352380Y2419047D02*
X58400000Y2371428D01*
D10*
X58304760Y2514285D02*
X58352380Y2419047D01*
D10*
X59304760Y2371428D02*
X59352380Y2419047D01*
D10*
X59352380Y2323809D02*
X59304760Y2371428D01*
D10*
X59400000Y2371428D02*
X59352380Y2323809D01*
D10*
X59352380Y2419047D02*
X59400000Y2371428D01*
D10*
X59876192Y3276190D02*
X60019048Y3323809D01*
D10*
X59780952Y3133333D02*
X59876192Y3276190D01*
D10*
X59733332Y2895238D02*
X59780952Y3133333D01*
D10*
X59733332Y2752381D02*
X59733332Y2895238D01*
D10*
X59780952Y2514285D02*
X59733332Y2752381D01*
D10*
X59876192Y2371428D02*
X59780952Y2514285D01*
D10*
X60019048Y2323809D02*
X59876192Y2371428D01*
D10*
X60114284Y2323809D02*
X60019048Y2323809D01*
D10*
X60257144Y2371428D02*
X60114284Y2323809D01*
D10*
X60352380Y2514285D02*
X60257144Y2371428D01*
D10*
X60400000Y2752381D02*
X60352380Y2514285D01*
D10*
X60400000Y2895238D02*
X60400000Y2752381D01*
D10*
X60352380Y3133333D02*
X60400000Y2895238D01*
D10*
X60257144Y3276190D02*
X60352380Y3133333D01*
D10*
X60114284Y3323809D02*
X60257144Y3276190D01*
D10*
X60019048Y3323809D02*
X60114284Y3323809D01*
D10*
X15297143Y47915952D02*
X15344762Y47820716D01*
D10*
X15201905Y48011192D02*
X15297143Y47915952D01*
D10*
X15106667Y48058808D02*
X15201905Y48011192D01*
D10*
X14916190Y48058808D02*
X15106667Y48058808D01*
D10*
X14820952Y48011192D02*
X14916190Y48058808D01*
D10*
X14725714Y47915952D02*
X14820952Y48011192D01*
D10*
X14678095Y47820716D02*
X14725714Y47915952D01*
D10*
X14630476Y47677856D02*
X14678095Y47820716D01*
D10*
X14630476Y47439760D02*
X14630476Y47677856D01*
D10*
X14678095Y47296904D02*
X14630476Y47439760D01*
D10*
X14725714Y47201668D02*
X14678095Y47296904D01*
D10*
X14820952Y47106428D02*
X14725714Y47201668D01*
D10*
X14916190Y47058808D02*
X14820952Y47106428D01*
D10*
X15106667Y47058808D02*
X14916190Y47058808D01*
D10*
X15201905Y47106428D02*
X15106667Y47058808D01*
D10*
X15297143Y47201668D02*
X15201905Y47106428D01*
D10*
X15344762Y47296904D02*
X15297143Y47201668D01*
D10*
X15820952Y47058808D02*
X16297143Y48058808D01*
D10*
X16297143Y48058808D02*
X15630476Y48058808D01*
D10*
X44333808Y42123332D02*
X44286192Y42218572D01*
D10*
X44429048Y42028096D02*
X44333808Y42123332D01*
D10*
X44524284Y41980476D02*
X44429048Y42028096D01*
D10*
X44667144Y41932856D02*
X44524284Y41980476D01*
D10*
X44905240Y41932856D02*
X44667144Y41932856D01*
D10*
X45048096Y41980476D02*
X44905240Y41932856D01*
D10*
X45143332Y42028096D02*
X45048096Y41980476D01*
D10*
X45238572Y42123332D02*
X45143332Y42028096D01*
D10*
X45286192Y42218572D02*
X45238572Y42123332D01*
D10*
X45286192Y42409048D02*
X45286192Y42218572D01*
D10*
X45238572Y42504284D02*
X45286192Y42409048D01*
D10*
X45143332Y42599524D02*
X45238572Y42504284D01*
D10*
X45048096Y42647144D02*
X45143332Y42599524D01*
D10*
X44905240Y42694760D02*
X45048096Y42647144D01*
D10*
X44667144Y42694760D02*
X44905240Y42694760D01*
D10*
X44524284Y42647144D02*
X44667144Y42694760D01*
D10*
X44429048Y42599524D02*
X44524284Y42647144D01*
D10*
X44333808Y42504284D02*
X44429048Y42599524D01*
D10*
X44286192Y42409048D02*
X44333808Y42504284D01*
D10*
X44286192Y42218572D02*
X44286192Y42409048D01*
D10*
X45381428Y42647144D02*
X45095716Y42361428D01*
D10*
X44429048Y43218572D02*
X44476668Y43123332D01*
D10*
X44286192Y43361428D02*
X44429048Y43218572D01*
D10*
X45286192Y43361428D02*
X44286192Y43361428D01*
D10*
X30314764Y40815952D02*
X30362384Y40720716D01*
D10*
X30219526Y40911192D02*
X30314764Y40815952D01*
D10*
X30124288Y40958808D02*
X30219526Y40911192D01*
D10*
X29933812Y40958808D02*
X30124288Y40958808D01*
D10*
X29838574Y40911192D02*
X29933812Y40958808D01*
D10*
X29743336Y40815952D02*
X29838574Y40911192D01*
D10*
X29695716Y40720716D02*
X29743336Y40815952D01*
D10*
X29648098Y40577856D02*
X29695716Y40720716D01*
D10*
X29648098Y40339760D02*
X29648098Y40577856D01*
D10*
X29695716Y40196904D02*
X29648098Y40339760D01*
D10*
X29743336Y40101668D02*
X29695716Y40196904D01*
D10*
X29838574Y40006428D02*
X29743336Y40101668D01*
D10*
X29933812Y39958808D02*
X29838574Y40006428D01*
D10*
X30124288Y39958808D02*
X29933812Y39958808D01*
D10*
X30219526Y40006428D02*
X30124288Y39958808D01*
D10*
X30314764Y40101668D02*
X30219526Y40006428D01*
D10*
X30362384Y40196904D02*
X30314764Y40101668D01*
D10*
X30886192Y40815952D02*
X30790954Y40768332D01*
D10*
X31029050Y40958808D02*
X30886192Y40815952D01*
D10*
X31029050Y39958808D02*
X31029050Y40958808D01*
D10*
X31838574Y40815952D02*
X31743336Y40768332D01*
D10*
X31981430Y40958808D02*
X31838574Y40815952D01*
D10*
X31981430Y39958808D02*
X31981430Y40958808D01*
D10*
X43269524Y39310952D02*
X43317144Y39215716D01*
D10*
X43174284Y39406192D02*
X43269524Y39310952D01*
D10*
X43079048Y39453808D02*
X43174284Y39406192D01*
D10*
X42888572Y39453808D02*
X43079048Y39453808D01*
D10*
X42793332Y39406192D02*
X42888572Y39453808D01*
D10*
X42698096Y39310952D02*
X42793332Y39406192D01*
D10*
X42650476Y39215716D02*
X42698096Y39310952D01*
D10*
X42602856Y39072856D02*
X42650476Y39215716D01*
D10*
X42602856Y38834760D02*
X42602856Y39072856D01*
D10*
X42650476Y38691904D02*
X42602856Y38834760D01*
D10*
X42698096Y38596668D02*
X42650476Y38691904D01*
D10*
X42793332Y38501428D02*
X42698096Y38596668D01*
D10*
X42888572Y38453808D02*
X42793332Y38501428D01*
D10*
X43079048Y38453808D02*
X42888572Y38453808D01*
D10*
X43174284Y38501428D02*
X43079048Y38453808D01*
D10*
X43269524Y38596668D02*
X43174284Y38501428D01*
D10*
X43317144Y38691904D02*
X43269524Y38596668D01*
D10*
X43840952Y39310952D02*
X43745716Y39263332D01*
D10*
X43983808Y39453808D02*
X43840952Y39310952D01*
D10*
X43983808Y38453808D02*
X43983808Y39453808D01*
D10*
X45174284Y39453808D02*
X44650476Y39453808D01*
D10*
X44888572Y39072856D02*
X45174284Y39453808D01*
D10*
X45031428Y39072856D02*
X44888572Y39072856D01*
D10*
X45126668Y39025240D02*
X45031428Y39072856D01*
D10*
X45174284Y38977620D02*
X45126668Y39025240D01*
D10*
X45221904Y38834760D02*
X45174284Y38977620D01*
D10*
X45221904Y38739524D02*
X45221904Y38834760D01*
D10*
X45174284Y38596668D02*
X45221904Y38739524D01*
D10*
X45079048Y38501428D02*
X45174284Y38596668D01*
D10*
X44936192Y38453808D02*
X45079048Y38501428D01*
D10*
X44793332Y38453808D02*
X44936192Y38453808D01*
D10*
X44650476Y38501428D02*
X44793332Y38453808D01*
D10*
X44602856Y38549048D02*
X44650476Y38501428D01*
D10*
X44555240Y38644284D02*
X44602856Y38549048D01*
D10*
X40132144Y8660952D02*
X40179760Y8565714D01*
D10*
X40036904Y8756190D02*
X40132144Y8660952D01*
D10*
X39941668Y8803810D02*
X40036904Y8756190D01*
D10*
X39751192Y8803810D02*
X39941668Y8803810D01*
D10*
X39655952Y8756190D02*
X39751192Y8803810D01*
D10*
X39560716Y8660952D02*
X39655952Y8756190D01*
D10*
X39513096Y8565714D02*
X39560716Y8660952D01*
D10*
X39465476Y8422857D02*
X39513096Y8565714D01*
D10*
X39465476Y8184762D02*
X39465476Y8422857D01*
D10*
X39513096Y8041905D02*
X39465476Y8184762D01*
D10*
X39560716Y7946666D02*
X39513096Y8041905D01*
D10*
X39655952Y7851428D02*
X39560716Y7946666D01*
D10*
X39751192Y7803809D02*
X39655952Y7851428D01*
D10*
X39941668Y7803809D02*
X39751192Y7803809D01*
D10*
X40036904Y7851428D02*
X39941668Y7803809D01*
D10*
X40132144Y7946666D02*
X40036904Y7851428D01*
D10*
X40179760Y8041905D02*
X40132144Y7946666D01*
D10*
X40703572Y8660952D02*
X40608332Y8613333D01*
D10*
X40846428Y8803810D02*
X40703572Y8660952D01*
D10*
X40846428Y7803809D02*
X40846428Y8803810D01*
D10*
X16976190Y41370476D02*
X15976190Y41370476D01*
D10*
X15976190Y41799048D02*
X15976190Y41370476D01*
D10*
X16023810Y41941904D02*
X15976190Y41799048D01*
D10*
X16071429Y41989524D02*
X16023810Y41941904D01*
D10*
X16166667Y42037144D02*
X16071429Y41989524D01*
D10*
X16261905Y42037144D02*
X16166667Y42037144D01*
D10*
X16357143Y41989524D02*
X16261905Y42037144D01*
D10*
X16404762Y41941904D02*
X16357143Y41989524D01*
D10*
X16452381Y41799048D02*
X16404762Y41941904D01*
D10*
X16452381Y41370476D02*
X16452381Y41799048D01*
D10*
X16976190Y42037144D02*
X16452381Y41703808D01*
D10*
X16976190Y42513332D02*
X15976190Y42989524D01*
D10*
X15976190Y42989524D02*
X15976190Y42322856D01*
D10*
X10199048Y55254524D02*
X10294286Y55302144D01*
D10*
X10103810Y55159284D02*
X10199048Y55254524D01*
D10*
X10056190Y55064048D02*
X10103810Y55159284D01*
D10*
X10056190Y54873572D02*
X10056190Y55064048D01*
D10*
X10103810Y54778332D02*
X10056190Y54873572D01*
D10*
X10199048Y54683096D02*
X10103810Y54778332D01*
D10*
X10294286Y54635476D02*
X10199048Y54683096D01*
D10*
X10437143Y54587856D02*
X10294286Y54635476D01*
D10*
X10675238Y54587856D02*
X10437143Y54587856D01*
D10*
X10818095Y54635476D02*
X10675238Y54587856D01*
D10*
X10913333Y54683096D02*
X10818095Y54635476D01*
D10*
X11008571Y54778332D02*
X10913333Y54683096D01*
D10*
X11056190Y54873572D02*
X11008571Y54778332D01*
D10*
X11056190Y55064048D02*
X11056190Y54873572D01*
D10*
X11008571Y55159284D02*
X11056190Y55064048D01*
D10*
X10913333Y55254524D02*
X11008571Y55159284D01*
D10*
X10818095Y55302144D02*
X10913333Y55254524D01*
D10*
X10056190Y55683096D02*
X10056190Y56159284D01*
D10*
X10484762Y55635476D02*
X10056190Y55683096D01*
D10*
X10437143Y55683096D02*
X10484762Y55635476D01*
D10*
X10389524Y55825952D02*
X10437143Y55683096D01*
D10*
X10389524Y55968808D02*
X10389524Y55825952D01*
D10*
X10437143Y56111668D02*
X10389524Y55968808D01*
D10*
X10532381Y56206904D02*
X10437143Y56111668D01*
D10*
X10675238Y56254524D02*
X10532381Y56206904D01*
D10*
X10770476Y56254524D02*
X10675238Y56254524D01*
D10*
X10913333Y56206904D02*
X10770476Y56254524D01*
D10*
X11008571Y56111668D02*
X10913333Y56206904D01*
D10*
X11056190Y55968808D02*
X11008571Y56111668D01*
D10*
X11056190Y55825952D02*
X11056190Y55968808D01*
D10*
X11008571Y55683096D02*
X11056190Y55825952D01*
D10*
X10960952Y55635476D02*
X11008571Y55683096D01*
D10*
X10865714Y55587856D02*
X10960952Y55635476D01*
D10*
X15270476Y53923808D02*
X15270476Y54923808D01*
D10*
X16270476Y54780952D02*
X16318095Y54685716D01*
D10*
X16175238Y54876192D02*
X16270476Y54780952D01*
D10*
X16080000Y54923808D02*
X16175238Y54876192D01*
D10*
X15889524Y54923808D02*
X16080000Y54923808D01*
D10*
X15794286Y54876192D02*
X15889524Y54923808D01*
D10*
X15699048Y54780952D02*
X15794286Y54876192D01*
D10*
X15651429Y54685716D02*
X15699048Y54780952D01*
D10*
X15603810Y54542856D02*
X15651429Y54685716D01*
D10*
X15603810Y54304760D02*
X15603810Y54542856D01*
D10*
X15651429Y54161904D02*
X15603810Y54304760D01*
D10*
X15699048Y54066668D02*
X15651429Y54161904D01*
D10*
X15794286Y53971428D02*
X15699048Y54066668D01*
D10*
X15889524Y53923808D02*
X15794286Y53971428D01*
D10*
X16080000Y53923808D02*
X15889524Y53923808D01*
D10*
X16175238Y53971428D02*
X16080000Y53923808D01*
D10*
X16270476Y54066668D02*
X16175238Y53971428D01*
D10*
X16318095Y54161904D02*
X16270476Y54066668D01*
D10*
X16841904Y54780952D02*
X16746667Y54733332D01*
D10*
X16984762Y54923808D02*
X16841904Y54780952D01*
D10*
X16984762Y53923808D02*
X16984762Y54923808D01*
D10*
X15146190Y41370476D02*
X14146190Y41370476D01*
D10*
X14146190Y41799048D02*
X14146190Y41370476D01*
D10*
X14193810Y41941904D02*
X14146190Y41799048D01*
D10*
X14241429Y41989524D02*
X14193810Y41941904D01*
D10*
X14336667Y42037144D02*
X14241429Y41989524D01*
D10*
X14431905Y42037144D02*
X14336667Y42037144D01*
D10*
X14527143Y41989524D02*
X14431905Y42037144D01*
D10*
X14574762Y41941904D02*
X14527143Y41989524D01*
D10*
X14622381Y41799048D02*
X14574762Y41941904D01*
D10*
X14622381Y41370476D02*
X14622381Y41799048D01*
D10*
X15146190Y42037144D02*
X14622381Y41703808D01*
D10*
X14193810Y42418096D02*
X14146190Y42560952D01*
D10*
X14289048Y42370476D02*
X14193810Y42418096D01*
D10*
X14384286Y42370476D02*
X14289048Y42370476D01*
D10*
X14479524Y42418096D02*
X14384286Y42370476D01*
D10*
X14527143Y42513332D02*
X14479524Y42418096D01*
D10*
X14574762Y42703808D02*
X14527143Y42513332D01*
D10*
X14622381Y42846668D02*
X14574762Y42703808D01*
D10*
X14717619Y42941904D02*
X14622381Y42846668D01*
D10*
X14812857Y42989524D02*
X14717619Y42941904D01*
D10*
X14955714Y42989524D02*
X14812857Y42989524D01*
D10*
X15050952Y42941904D02*
X14955714Y42989524D01*
D10*
X15098571Y42894284D02*
X15050952Y42941904D01*
D10*
X15146190Y42751428D02*
X15098571Y42894284D01*
D10*
X15146190Y42560952D02*
X15146190Y42751428D01*
D10*
X15098571Y42418096D02*
X15146190Y42560952D01*
D10*
X15050952Y42370476D02*
X15098571Y42418096D01*
D10*
X14955714Y42322856D02*
X15050952Y42370476D01*
D10*
X14812857Y42322856D02*
X14955714Y42322856D01*
D10*
X14717619Y42370476D02*
X14812857Y42322856D01*
D10*
X14622381Y42465716D02*
X14717619Y42370476D01*
D10*
X14574762Y42608572D02*
X14622381Y42465716D01*
D10*
X14527143Y42799048D02*
X14574762Y42608572D01*
D10*
X14479524Y42894284D02*
X14527143Y42799048D01*
D10*
X14384286Y42941904D02*
X14479524Y42894284D01*
D10*
X14289048Y42941904D02*
X14384286Y42941904D01*
D10*
X14193810Y42894284D02*
X14289048Y42941904D01*
D10*
X14146190Y42751428D02*
X14193810Y42894284D01*
D10*
X14146190Y42560952D02*
X14146190Y42751428D01*
D10*
X25038096Y25083810D02*
X25038096Y26083810D01*
D10*
X25371428Y26083810D02*
X25038096Y26083810D01*
D10*
X25514286Y26036190D02*
X25371428Y26083810D01*
D10*
X25609524Y25940952D02*
X25514286Y26036190D01*
D10*
X25657142Y25845714D02*
X25609524Y25940952D01*
D10*
X25704762Y25702858D02*
X25657142Y25845714D01*
D10*
X25704762Y25464762D02*
X25704762Y25702858D01*
D10*
X25657142Y25321904D02*
X25704762Y25464762D01*
D10*
X25609524Y25226666D02*
X25657142Y25321904D01*
D10*
X25514286Y25131428D02*
X25609524Y25226666D01*
D10*
X25371428Y25083810D02*
X25514286Y25131428D01*
D10*
X25038096Y25083810D02*
X25371428Y25083810D01*
D10*
X26228572Y25940952D02*
X26133334Y25893334D01*
D10*
X26371428Y26083810D02*
X26228572Y25940952D01*
D10*
X26371428Y25083810D02*
X26371428Y26083810D01*
D10*
X30440476Y9453810D02*
X30440476Y10453810D01*
D10*
X30869048Y10453810D02*
X30440476Y10453810D01*
D10*
X31011904Y10406190D02*
X30869048Y10453810D01*
D10*
X31059524Y10358571D02*
X31011904Y10406190D01*
D10*
X31107142Y10263333D02*
X31059524Y10358571D01*
D10*
X31107142Y10168095D02*
X31107142Y10263333D01*
D10*
X31059524Y10072857D02*
X31107142Y10168095D01*
D10*
X31011904Y10025238D02*
X31059524Y10072857D01*
D10*
X30869048Y9977619D02*
X31011904Y10025238D01*
D10*
X30440476Y9977619D02*
X30869048Y9977619D01*
D10*
X31107142Y9453810D02*
X30773810Y9977619D01*
D10*
X31630952Y10310952D02*
X31535714Y10263333D01*
D10*
X31773810Y10453810D02*
X31630952Y10310952D01*
D10*
X31773810Y9453810D02*
X31773810Y10453810D01*
D10*
X19879048Y54977144D02*
X19974286Y55024760D01*
D10*
X19783810Y54881904D02*
X19879048Y54977144D01*
D10*
X19736190Y54786668D02*
X19783810Y54881904D01*
D10*
X19736190Y54596192D02*
X19736190Y54786668D01*
D10*
X19783810Y54500952D02*
X19736190Y54596192D01*
D10*
X19879048Y54405716D02*
X19783810Y54500952D01*
D10*
X19974286Y54358096D02*
X19879048Y54405716D01*
D10*
X20117142Y54310476D02*
X19974286Y54358096D01*
D10*
X20355238Y54310476D02*
X20117142Y54310476D01*
D10*
X20498096Y54358096D02*
X20355238Y54310476D01*
D10*
X20593334Y54405716D02*
X20498096Y54358096D01*
D10*
X20688572Y54500952D02*
X20593334Y54405716D01*
D10*
X20736190Y54596192D02*
X20688572Y54500952D01*
D10*
X20736190Y54786668D02*
X20736190Y54596192D01*
D10*
X20688572Y54881904D02*
X20736190Y54786668D01*
D10*
X20593334Y54977144D02*
X20688572Y54881904D01*
D10*
X20498096Y55024760D02*
X20593334Y54977144D01*
D10*
X19736190Y55929524D02*
X19736190Y55405716D01*
D10*
X20117142Y55643808D02*
X19736190Y55929524D01*
D10*
X20117142Y55786668D02*
X20117142Y55643808D01*
D10*
X20164762Y55881904D02*
X20117142Y55786668D01*
D10*
X20212380Y55929524D02*
X20164762Y55881904D01*
D10*
X20355238Y55977144D02*
X20212380Y55929524D01*
D10*
X20450476Y55977144D02*
X20355238Y55977144D01*
D10*
X20593334Y55929524D02*
X20450476Y55977144D01*
D10*
X20688572Y55834284D02*
X20593334Y55929524D01*
D10*
X20736190Y55691428D02*
X20688572Y55834284D01*
D10*
X20736190Y55548572D02*
X20736190Y55691428D01*
D10*
X20688572Y55405716D02*
X20736190Y55548572D01*
D10*
X20640952Y55358096D02*
X20688572Y55405716D01*
D10*
X20545714Y55310476D02*
X20640952Y55358096D01*
D10*
X15249524Y58440952D02*
X15297143Y58345716D01*
D10*
X15154286Y58536192D02*
X15249524Y58440952D01*
D10*
X15059048Y58583808D02*
X15154286Y58536192D01*
D10*
X14868571Y58583808D02*
X15059048Y58583808D01*
D10*
X14773333Y58536192D02*
X14868571Y58583808D01*
D10*
X14678095Y58440952D02*
X14773333Y58536192D01*
D10*
X14630476Y58345716D02*
X14678095Y58440952D01*
D10*
X14582857Y58202856D02*
X14630476Y58345716D01*
D10*
X14582857Y57964760D02*
X14582857Y58202856D01*
D10*
X14630476Y57821904D02*
X14582857Y57964760D01*
D10*
X14678095Y57726668D02*
X14630476Y57821904D01*
D10*
X14773333Y57631428D02*
X14678095Y57726668D01*
D10*
X14868571Y57583808D02*
X14773333Y57631428D01*
D10*
X15059048Y57583808D02*
X14868571Y57583808D01*
D10*
X15154286Y57631428D02*
X15059048Y57583808D01*
D10*
X15249524Y57726668D02*
X15154286Y57631428D01*
D10*
X15297143Y57821904D02*
X15249524Y57726668D01*
D10*
X16154286Y58536192D02*
X16201905Y58440952D01*
D10*
X16011428Y58583808D02*
X16154286Y58536192D01*
D10*
X15916190Y58583808D02*
X16011428Y58583808D01*
D10*
X15773333Y58536192D02*
X15916190Y58583808D01*
D10*
X15678095Y58393332D02*
X15773333Y58536192D01*
D10*
X15630476Y58155240D02*
X15678095Y58393332D01*
D10*
X15630476Y57917144D02*
X15630476Y58155240D01*
D10*
X15678095Y57726668D02*
X15630476Y57917144D01*
D10*
X15773333Y57631428D02*
X15678095Y57726668D01*
D10*
X15916190Y57583808D02*
X15773333Y57631428D01*
D10*
X15963810Y57583808D02*
X15916190Y57583808D01*
D10*
X16106667Y57631428D02*
X15963810Y57583808D01*
D10*
X16201905Y57726668D02*
X16106667Y57631428D01*
D10*
X16249524Y57869524D02*
X16201905Y57726668D01*
D10*
X16249524Y57917144D02*
X16249524Y57869524D01*
D10*
X16201905Y58060000D02*
X16249524Y57917144D01*
D10*
X16106667Y58155240D02*
X16201905Y58060000D01*
D10*
X15963810Y58202856D02*
X16106667Y58155240D01*
D10*
X15916190Y58202856D02*
X15963810Y58202856D01*
D10*
X15773333Y58155240D02*
X15916190Y58202856D01*
D10*
X15678095Y58060000D02*
X15773333Y58155240D01*
D10*
X15630476Y57917144D02*
X15678095Y58060000D01*
D10*
X8109047Y55889524D02*
X8204285Y55937144D01*
D10*
X8013809Y55794284D02*
X8109047Y55889524D01*
D10*
X7966190Y55699048D02*
X8013809Y55794284D01*
D10*
X7966190Y55508572D02*
X7966190Y55699048D01*
D10*
X8013809Y55413332D02*
X7966190Y55508572D01*
D10*
X8109047Y55318096D02*
X8013809Y55413332D01*
D10*
X8204285Y55270476D02*
X8109047Y55318096D01*
D10*
X8347143Y55222856D02*
X8204285Y55270476D01*
D10*
X8585238Y55222856D02*
X8347143Y55222856D01*
D10*
X8728095Y55270476D02*
X8585238Y55222856D01*
D10*
X8823333Y55318096D02*
X8728095Y55270476D01*
D10*
X8918571Y55413332D02*
X8823333Y55318096D01*
D10*
X8966190Y55508572D02*
X8918571Y55413332D01*
D10*
X8966190Y55699048D02*
X8966190Y55508572D01*
D10*
X8918571Y55794284D02*
X8966190Y55699048D01*
D10*
X8823333Y55889524D02*
X8918571Y55794284D01*
D10*
X8728095Y55937144D02*
X8823333Y55889524D01*
D10*
X8632857Y56222856D02*
X7966190Y56699048D01*
D10*
X8632857Y56937144D02*
X8632857Y56222856D01*
D10*
X8966190Y56699048D02*
X7966190Y56699048D01*
D10*
X6398095Y48093808D02*
X6398095Y49093808D01*
D10*
X6826667Y49093808D02*
X6398095Y49093808D01*
D10*
X6969524Y49046192D02*
X6826667Y49093808D01*
D10*
X7017143Y48998572D02*
X6969524Y49046192D01*
D10*
X7064762Y48903332D02*
X7017143Y48998572D01*
D10*
X7064762Y48808096D02*
X7064762Y48903332D01*
D10*
X7017143Y48712856D02*
X7064762Y48808096D01*
D10*
X6969524Y48665240D02*
X7017143Y48712856D01*
D10*
X6826667Y48617620D02*
X6969524Y48665240D01*
D10*
X6398095Y48617620D02*
X6826667Y48617620D01*
D10*
X7064762Y48093808D02*
X6731428Y48617620D01*
D10*
X7445714Y49093808D02*
X7921905Y49093808D01*
D10*
X7398095Y48665240D02*
X7445714Y49093808D01*
D10*
X7445714Y48712856D02*
X7398095Y48665240D01*
D10*
X7588571Y48760476D02*
X7445714Y48712856D01*
D10*
X7731428Y48760476D02*
X7588571Y48760476D01*
D10*
X7874285Y48712856D02*
X7731428Y48760476D01*
D10*
X7969524Y48617620D02*
X7874285Y48712856D01*
D10*
X8017143Y48474760D02*
X7969524Y48617620D01*
D10*
X8017143Y48379524D02*
X8017143Y48474760D01*
D10*
X7969524Y48236668D02*
X8017143Y48379524D01*
D10*
X7874285Y48141428D02*
X7969524Y48236668D01*
D10*
X7731428Y48093808D02*
X7874285Y48141428D01*
D10*
X7588571Y48093808D02*
X7731428Y48093808D01*
D10*
X7445714Y48141428D02*
X7588571Y48093808D01*
D10*
X7398095Y48189048D02*
X7445714Y48141428D01*
D10*
X7350476Y48284284D02*
X7398095Y48189048D01*
D10*
X5644047Y39154524D02*
X5739285Y39202144D01*
D10*
X5548809Y39059284D02*
X5644047Y39154524D01*
D10*
X5501190Y38964048D02*
X5548809Y39059284D01*
D10*
X5501190Y38773572D02*
X5501190Y38964048D01*
D10*
X5548809Y38678332D02*
X5501190Y38773572D01*
D10*
X5644047Y38583096D02*
X5548809Y38678332D01*
D10*
X5739285Y38535476D02*
X5644047Y38583096D01*
D10*
X5882143Y38487856D02*
X5739285Y38535476D01*
D10*
X6120238Y38487856D02*
X5882143Y38487856D01*
D10*
X6263095Y38535476D02*
X6120238Y38487856D01*
D10*
X6358333Y38583096D02*
X6263095Y38535476D01*
D10*
X6453571Y38678332D02*
X6358333Y38583096D01*
D10*
X6501190Y38773572D02*
X6453571Y38678332D01*
D10*
X6501190Y38964048D02*
X6501190Y38773572D01*
D10*
X6453571Y39059284D02*
X6501190Y38964048D01*
D10*
X6358333Y39154524D02*
X6453571Y39059284D01*
D10*
X6263095Y39202144D02*
X6358333Y39154524D01*
D10*
X5548809Y39583096D02*
X5501190Y39725952D01*
D10*
X5644047Y39535476D02*
X5548809Y39583096D01*
D10*
X5739285Y39535476D02*
X5644047Y39535476D01*
D10*
X5834524Y39583096D02*
X5739285Y39535476D01*
D10*
X5882143Y39678332D02*
X5834524Y39583096D01*
D10*
X5929762Y39868808D02*
X5882143Y39678332D01*
D10*
X5977381Y40011668D02*
X5929762Y39868808D01*
D10*
X6072619Y40106904D02*
X5977381Y40011668D01*
D10*
X6167857Y40154524D02*
X6072619Y40106904D01*
D10*
X6310714Y40154524D02*
X6167857Y40154524D01*
D10*
X6405952Y40106904D02*
X6310714Y40154524D01*
D10*
X6453571Y40059284D02*
X6405952Y40106904D01*
D10*
X6501190Y39916428D02*
X6453571Y40059284D01*
D10*
X6501190Y39725952D02*
X6501190Y39916428D01*
D10*
X6453571Y39583096D02*
X6501190Y39725952D01*
D10*
X6405952Y39535476D02*
X6453571Y39583096D01*
D10*
X6310714Y39487856D02*
X6405952Y39535476D01*
D10*
X6167857Y39487856D02*
X6310714Y39487856D01*
D10*
X6072619Y39535476D02*
X6167857Y39487856D01*
D10*
X5977381Y39630716D02*
X6072619Y39535476D01*
D10*
X5929762Y39773572D02*
X5977381Y39630716D01*
D10*
X5882143Y39964048D02*
X5929762Y39773572D01*
D10*
X5834524Y40059284D02*
X5882143Y39964048D01*
D10*
X5739285Y40106904D02*
X5834524Y40059284D01*
D10*
X5644047Y40106904D02*
X5739285Y40106904D01*
D10*
X5548809Y40059284D02*
X5644047Y40106904D01*
D10*
X5501190Y39916428D02*
X5548809Y40059284D01*
D10*
X5501190Y39725952D02*
X5501190Y39916428D01*
D11*
X51025000Y38205000D02*
X50475000Y38205000D01*
D11*
X51025000Y39055000D02*
X50475000Y39055000D01*
D11*
X27450000Y14530000D02*
X27450000Y9230000D01*
D11*
X26150000Y15830000D02*
X27450000Y14530000D01*
D11*
X20850000Y9230000D02*
X23125000Y9230000D01*
D11*
X27450000Y9230000D02*
X25175000Y9230000D01*
D11*
X26150000Y15830000D02*
X25175000Y15830000D01*
D11*
X20850000Y14530000D02*
X22150000Y15830000D01*
D11*
X20850000Y9230000D02*
X20850000Y14530000D01*
D11*
X22150000Y15830000D02*
X23125000Y15830000D01*
D11*
X25500001Y35655000D02*
X25500001Y36230000D01*
D11*
X26550001Y37280000D02*
X30800001Y37280000D01*
D11*
X25500001Y33030000D02*
X25500001Y33605000D01*
D11*
X30800001Y31980000D02*
X30800001Y33605000D01*
D11*
X25500001Y33030000D02*
X26550001Y31980000D01*
D11*
X25500001Y36230000D02*
X26550001Y37280000D01*
D11*
X26550001Y31980000D02*
X30800001Y31980000D01*
D11*
X30800001Y37280000D02*
X30800001Y35655000D01*
D11*
X46735000Y37225000D02*
X47285000Y37225000D01*
D11*
X46735000Y36375000D02*
X47285000Y36375000D01*
D11*
X24775002Y39385000D02*
X25325002Y39385000D01*
D11*
X24775002Y38535000D02*
X25325002Y38535000D01*
D11*
X13430000Y55330000D02*
X17410000Y55330000D01*
D11*
X17410000Y50330000D02*
X13430000Y50330000D01*
D11*
X14070000Y55330000D02*
X14070000Y50330000D01*
D11*
X16075000Y44105000D02*
X16075000Y44655000D01*
D11*
X16925000Y44105000D02*
X16925000Y44655000D01*
D11*
X10980000Y52845000D02*
X10980000Y53045000D01*
D11*
X10180000Y52845000D02*
X10180000Y53045000D01*
D11*
X50650000Y40020000D02*
X50850000Y40020000D01*
D11*
X50650000Y40820000D02*
X50850000Y40820000D01*
D11*
X14245000Y44105000D02*
X14245000Y44655000D01*
D11*
X15095000Y44105000D02*
X15095000Y44655000D01*
D11*
X41350000Y9230000D02*
X39075000Y9230000D01*
D11*
X36050000Y15830000D02*
X37025000Y15830000D01*
D11*
X40050000Y15830000D02*
X39075000Y15830000D01*
D11*
X40050000Y15830000D02*
X41350000Y14530000D01*
D11*
X34750000Y9230000D02*
X37025000Y9230000D01*
D11*
X34750000Y14530000D02*
X36050000Y15830000D01*
D11*
X41350000Y14530000D02*
X41350000Y9230000D01*
D11*
X34750000Y9230000D02*
X34750000Y14530000D01*
D11*
X29600000Y26910000D02*
X30100000Y26910000D01*
D11*
X31600000Y26910000D02*
X31100000Y26910000D01*
D11*
X30095000Y53670000D02*
X28345000Y53670000D01*
D11*
X28345000Y57070000D02*
X30095000Y57070000D01*
D11*
X28345000Y53670000D02*
X28345000Y57070000D01*
D11*
X30095000Y57070000D02*
X30095000Y53670000D01*
D11*
X30275000Y9130000D02*
X31925000Y9130000D01*
D11*
X30275000Y10730000D02*
X31925000Y10730000D01*
D11*
X45960000Y46790000D02*
X46810000Y45940000D01*
D11*
X46810000Y45940000D02*
X45960000Y46790000D01*
D11*
X49410000Y45940000D02*
X50260000Y46790000D01*
D11*
X49410000Y45940000D02*
X49135000Y45940000D01*
D11*
X45960000Y50240000D02*
X47085000Y50240000D01*
D11*
X45960000Y50240000D02*
X45960000Y46790000D01*
D11*
X45960000Y46790000D02*
X46810000Y45940000D01*
D11*
X50260000Y50240000D02*
X49135000Y50240000D01*
D11*
X46810000Y45940000D02*
X47080000Y45940000D01*
D11*
X46810000Y45940000D02*
X46810000Y45940000D01*
D11*
X50260000Y46790000D02*
X50260000Y50240000D01*
D11*
X32905000Y57070000D02*
X34655000Y57070000D01*
D11*
X34655000Y53670000D02*
X32905000Y53670000D01*
D11*
X34655000Y57070000D02*
X34655000Y53670000D01*
D11*
X32905000Y53670000D02*
X32905000Y57070000D01*
D11*
X31925000Y14030000D02*
X30275000Y14030000D01*
D11*
X31925000Y12430000D02*
X30275000Y12430000D01*
D11*
X47035000Y39580000D02*
X47285000Y39580000D01*
D11*
X47035000Y38280000D02*
X47285000Y38280000D01*
D11*
X30275000Y15730000D02*
X31925000Y15730000D01*
D11*
X30275000Y17330000D02*
X31925000Y17330000D01*
D11*
X15520000Y49330000D02*
X15320000Y49330000D01*
D11*
X15520000Y48530000D02*
X15320000Y48530000D01*
D11*
X46885000Y42940000D02*
X47435000Y42940000D01*
D11*
X48610000Y42665000D02*
X48610000Y41640000D01*
D11*
X45710000Y41640000D02*
X45710000Y42665000D01*
D11*
X46485000Y41640000D02*
X45710000Y41640000D01*
D11*
X48610000Y41640000D02*
X47835000Y41640000D01*
D11*
X51515000Y46915000D02*
X51515000Y47465000D01*
D11*
X52365000Y46915000D02*
X52365000Y47465000D01*
D11*
X15320000Y56330000D02*
X15520000Y56330000D01*
D11*
X15320000Y57130000D02*
X15520000Y57130000D01*
D11*
X37650000Y33180000D02*
X37650000Y33580000D01*
D11*
X34050000Y38180000D02*
X34050000Y39130000D01*
D11*
X37650000Y38180000D02*
X37650000Y39130000D01*
D11*
X37650000Y30130000D02*
X34050000Y30130000D01*
D11*
X34050000Y39130000D02*
X37650000Y39130000D01*
D11*
X34050000Y33180000D02*
X34050000Y33580000D01*
D11*
X37650000Y35680000D02*
X37650000Y36080000D01*
D11*
X34050000Y30130000D02*
X34050000Y31080000D01*
D11*
X34050000Y35680000D02*
X34050000Y36080000D01*
D11*
X37650000Y30130000D02*
X37650000Y31080000D01*
D11*
X7840000Y53155000D02*
X7840000Y53405000D01*
D11*
X9140000Y53155000D02*
X9140000Y53405000D01*
D11*
X25545000Y57070000D02*
X27295000Y57070000D01*
D11*
X27295000Y53670000D02*
X25545000Y53670000D01*
D11*
X27295000Y57070000D02*
X27295000Y53670000D01*
D11*
X25545000Y53670000D02*
X25545000Y57070000D01*
D11*
X9835000Y48145000D02*
X9285000Y48145000D01*
D11*
X9835000Y48995000D02*
X9285000Y48995000D01*
D11*
X9285000Y50825000D02*
X9835000Y50825000D01*
D11*
X9285000Y49975000D02*
X9835000Y49975000D01*
D11*
X23000000Y2710000D02*
X23000000Y4910000D01*
D11*
X40000000Y2710000D02*
X40000000Y4910000D01*
D11*
X23000000Y2710000D02*
X26500000Y2710000D01*
D11*
X40000000Y4910000D02*
X36500000Y4910000D01*
D11*
X40000000Y2710000D02*
X36500000Y2710000D01*
D11*
X23000000Y4910000D02*
X26500000Y4910000D01*
D11*
X27100000Y30210000D02*
X26600000Y30210000D01*
D11*
X25100000Y30210000D02*
X25600000Y30210000D01*
D11*
X19860000Y52820000D02*
X19860000Y52620000D01*
D11*
X20660000Y52820000D02*
X20660000Y52620000D01*
D11*
X31210002Y39360000D02*
X31010002Y39360000D01*
D11*
X31210002Y38560000D02*
X31010002Y38560000D01*
D11*
X37455000Y53670000D02*
X35705000Y53670000D01*
D11*
X35705000Y57070000D02*
X37455000Y57070000D01*
D11*
X35705000Y53670000D02*
X35705000Y57070000D01*
D11*
X37455000Y57070000D02*
X37455000Y53670000D01*
D11*
X10320000Y34780000D02*
X11170000Y35630000D01*
D11*
X11170000Y35630000D02*
X10320000Y34780000D01*
D11*
X11170000Y38230000D02*
X10320000Y39080000D01*
D11*
X11170000Y38230000D02*
X11170000Y37955000D01*
D11*
X6870000Y34780000D02*
X6870000Y35905000D01*
D11*
X6870000Y34780000D02*
X10320000Y34780000D01*
D11*
X10320000Y34780000D02*
X11170000Y35630000D01*
D11*
X6870000Y39080000D02*
X6870000Y37955000D01*
D11*
X11170000Y35630000D02*
X11170000Y35900000D01*
D11*
X11170000Y35630000D02*
X11170000Y35630000D01*
D11*
X10320000Y39080000D02*
X6870000Y39080000D01*
D11*
X11670000Y42605000D02*
X11670000Y42030000D01*
D11*
X10620000Y40980000D02*
X6370000Y40980000D01*
D11*
X11670000Y45230000D02*
X11670000Y44655000D01*
D11*
X6370000Y46280000D02*
X6370000Y44655000D01*
D11*
X11670000Y45230000D02*
X10620000Y46280000D01*
D11*
X11670000Y42030000D02*
X10620000Y40980000D01*
D11*
X10620000Y46280000D02*
X6370000Y46280000D01*
D11*
X6370000Y40980000D02*
X6370000Y42605000D01*
D11*
X6785000Y53705000D02*
X6785000Y53155000D01*
D11*
X5935000Y53705000D02*
X5935000Y53155000D01*
D10*
X4291000Y6251000D02*
X4543000Y6211000D01*
D10*
X11957000Y10219000D02*
X11993000Y10098000D01*
D10*
X13048000Y6282000D02*
X13178000Y6580000D01*
D10*
X4387000Y5673000D02*
X4180000Y5508000D01*
D10*
X3257000Y6186000D02*
X3335000Y6305000D01*
D10*
X13455000Y6254000D02*
X13523000Y5644000D01*
D10*
X13738000Y9326000D02*
X13749000Y9176000D01*
D10*
X12938000Y5389000D02*
X12833000Y5274000D01*
D10*
X9044000Y9834000D02*
X9054000Y10205000D01*
D10*
X3648000Y4903000D02*
X3498000Y5427000D01*
D10*
X9054000Y10205000D02*
X9090000Y10498000D01*
D10*
X6238000Y9874000D02*
X6149000Y9742000D01*
D10*
X7433000Y10371000D02*
X7481000Y10247000D01*
D10*
X4445000Y4479000D02*
X4724000Y4839000D01*
D10*
X11265000Y7852000D02*
X11426000Y8545000D01*
D10*
X3999000Y5403000D02*
X3818000Y5370000D01*
D10*
X3335000Y6305000D02*
X3466000Y6465000D01*
D10*
X5376000Y9163000D02*
X5584000Y9032000D01*
D10*
X10913000Y4146000D02*
X10879000Y4047000D01*
D10*
X8890000Y5918000D02*
X8718000Y5483000D01*
D10*
X12075000Y4947000D02*
X12044000Y4812000D01*
D10*
X8639000Y5225000D02*
X8526000Y4806000D01*
D10*
X7150000Y9346000D02*
X7243000Y9286000D01*
D10*
X9991000Y10126000D02*
X10132000Y10144000D01*
D10*
X5483000Y5581000D02*
X5688000Y5880000D01*
D10*
X3466000Y6465000D02*
X3611000Y6692000D01*
D10*
X4643000Y8720000D02*
X4928000Y8543000D01*
D10*
X11124000Y8889000D02*
X10992000Y8350000D01*
D10*
X8327000Y3912000D02*
X8217000Y3737000D01*
D10*
X9269000Y7621000D02*
X9123000Y7562000D01*
D10*
X8526000Y4806000D02*
X8414000Y4414000D01*
D10*
X10031000Y5440000D02*
X9878000Y5660000D01*
D10*
X8740000Y6386000D02*
X8625000Y6445000D01*
D10*
X5504000Y8649000D02*
X5178000Y8820000D01*
D10*
X9899000Y9963000D02*
X9908000Y10035000D01*
D10*
X13523000Y5644000D02*
X13618000Y5209000D01*
D10*
X7450000Y10510000D02*
X7433000Y10371000D01*
D10*
X10992000Y8350000D02*
X10937000Y7797000D01*
D10*
X3834000Y5628000D02*
X3834000Y5628000D01*
D10*
X7305000Y9809000D02*
X7222000Y9561000D01*
D10*
X14149000Y5762000D02*
X14197000Y5934000D01*
D10*
X6367000Y6376000D02*
X6778000Y6542000D01*
D10*
X7995000Y4392000D02*
X8091000Y4371000D01*
D10*
X11416000Y4373000D02*
X11733000Y4263000D01*
D10*
X5527000Y9609000D02*
X5309000Y9484000D01*
D10*
X6149000Y9742000D02*
X5883000Y9663000D01*
D10*
X11341000Y9124000D02*
X11124000Y8889000D01*
D10*
X6568000Y7859000D02*
X6383000Y7868000D01*
D10*
X15263000Y3728000D02*
X15263000Y3728000D01*
D10*
X7906000Y9675000D02*
X7834000Y9592000D01*
D10*
X6326000Y4279000D02*
X6709000Y4572000D01*
D10*
X11682000Y8453000D02*
X11551000Y7877000D01*
D10*
X10960000Y6110000D02*
X10963000Y6356000D01*
D10*
X8414000Y4414000D02*
X8516000Y4301000D01*
D10*
X4921000Y5032000D02*
X4899000Y4903000D01*
D10*
X7224000Y5436000D02*
X7263000Y5823000D01*
D10*
X5076000Y9925000D02*
X5278000Y10039000D01*
D10*
X6543000Y6064000D02*
X6136000Y5761000D01*
D10*
X4594000Y6058000D02*
X4547000Y5857000D01*
D10*
X10316000Y5096000D02*
X10229000Y4661000D01*
D10*
X9419000Y10339000D02*
X9440000Y9762000D01*
D10*
X13424000Y6616000D02*
X13455000Y6254000D01*
D10*
X12621000Y5256000D02*
X12865000Y5839000D01*
D10*
X2545000Y3805000D02*
X2564000Y4070000D01*
D10*
X9540000Y9546000D02*
X9749000Y9795000D01*
D10*
X9474000Y6325000D02*
X10055000Y5854000D01*
D10*
X5876000Y4217000D02*
X6073000Y4181000D01*
D10*
X6924000Y7992000D02*
X6788000Y8046000D01*
D10*
X13443000Y4842000D02*
X13397000Y5164000D01*
D10*
X8976000Y8849000D02*
X9009000Y9229000D01*
D10*
X5278000Y10039000D02*
X5674000Y10124000D01*
D10*
X3884000Y4051000D02*
X3806000Y4317000D01*
D10*
X14381000Y6492000D02*
X14472000Y6480000D01*
D10*
X7882000Y9980000D02*
X7959000Y9929000D01*
D10*
X7110000Y6543000D02*
X7396000Y6384000D01*
D10*
X7141000Y9022000D02*
X6992000Y9061000D01*
D10*
X6464000Y4025000D02*
X6029000Y3846000D01*
D10*
X7222000Y9561000D02*
X7150000Y9346000D01*
D10*
X15488000Y6241000D02*
X15619000Y6480000D01*
D10*
X4923000Y8107000D02*
X4617000Y8243000D01*
D10*
X10989000Y4669000D02*
X11056000Y4500000D01*
D10*
X9123000Y7562000D02*
X9030000Y7635000D01*
D10*
X5271000Y9310000D02*
X5376000Y9163000D01*
D10*
X6992000Y9061000D02*
X6904000Y8910000D01*
D10*
X6153000Y10083000D02*
X6238000Y9874000D01*
D10*
X13276000Y5756000D02*
X13183000Y5707000D01*
D10*
X13909000Y4790000D02*
X13990000Y5209000D01*
D10*
X6754000Y7849000D02*
X6568000Y7859000D01*
D10*
X13682000Y9077000D02*
X13634000Y9111000D01*
D10*
X6778000Y6542000D02*
X7110000Y6543000D01*
D10*
X6782000Y6185000D02*
X6543000Y6064000D01*
D10*
X4014000Y5946000D02*
X3697000Y5833000D01*
D10*
X8989000Y8336000D02*
X8731000Y8094000D01*
D10*
X2693000Y4633000D02*
X2947000Y5414000D01*
D10*
X6028000Y3846000D02*
X5738000Y3838000D01*
D10*
X11056000Y4500000D02*
X11416000Y4373000D01*
D10*
X3818000Y5370000D02*
X3724000Y5353000D01*
D10*
X9009000Y9229000D02*
X9044000Y9641000D01*
D10*
X10720000Y8036000D02*
X10780000Y8440000D01*
D10*
X8746000Y8633000D02*
X8976000Y8849000D01*
D10*
X11606000Y6347000D02*
X11819000Y6184000D01*
D10*
X14331000Y5602000D02*
X14217000Y5161000D01*
D10*
X5883000Y9663000D02*
X5527000Y9609000D01*
D10*
X11030000Y5010000D02*
X10989000Y4669000D01*
D10*
X11348000Y5661000D02*
X11276000Y5446000D01*
D10*
X7810000Y8968000D02*
X7949000Y8847000D01*
D10*
X8731000Y8094000D02*
X8413000Y7852000D01*
D10*
X7098000Y10638000D02*
X7288000Y10620000D01*
D10*
X11719000Y3858000D02*
X11411000Y3950000D01*
D10*
X3758000Y6520000D02*
X3595000Y6229000D01*
D10*
X14217000Y5161000D02*
X14081000Y4565000D01*
D10*
X4902000Y9109000D02*
X4852000Y9485000D01*
D10*
X6904000Y8910000D02*
X6864000Y8569000D01*
D10*
X15619000Y6480000D02*
X15754000Y6735000D01*
D10*
X7288000Y10620000D02*
X7450000Y10510000D01*
D10*
X4547000Y5857000D02*
X4387000Y5673000D01*
D10*
X10757000Y10028000D02*
X11036000Y10552000D01*
D10*
X7607000Y8163000D02*
X7703000Y8082000D01*
D10*
X6735000Y9695000D02*
X6834000Y10010000D01*
D10*
X11819000Y6184000D02*
X12007000Y6080000D01*
D10*
X5584000Y9032000D02*
X5810000Y8955000D01*
D10*
X9440000Y9762000D02*
X9457000Y9432000D01*
D10*
X5142000Y4754000D02*
X5266000Y5179000D01*
D10*
X13536000Y4548000D02*
X13443000Y4842000D01*
D10*
X13048000Y5492000D02*
X12938000Y5389000D01*
D10*
X11551000Y7877000D02*
X11356000Y7417000D01*
D10*
X9878000Y5660000D02*
X9667000Y5838000D01*
D10*
X12602000Y9238000D02*
X11900000Y9208000D01*
D10*
X3835000Y4942000D02*
X3968000Y4420000D01*
D10*
X9030000Y7635000D02*
X9010000Y8021000D01*
D10*
X11414000Y6720000D02*
X11576000Y6610000D01*
D10*
X4760000Y4599000D02*
X4449000Y4215000D01*
D10*
X14817000Y6362000D02*
X14911000Y6368000D01*
D10*
X12375000Y4384000D02*
X12406000Y4601000D01*
D10*
X6044000Y8508000D02*
X5958000Y8277000D01*
D10*
X4020000Y4232000D02*
X4153000Y4196000D01*
D10*
X6073000Y4181000D02*
X6073000Y4181000D01*
D10*
X6754000Y7947000D02*
X6754000Y7849000D01*
D10*
X8091000Y4371000D02*
X8152000Y4376000D01*
D10*
X11356000Y7417000D02*
X11191000Y7223000D01*
D10*
X9044000Y9641000D02*
X9044000Y9834000D01*
D10*
X14336000Y6410000D02*
X14381000Y6492000D01*
D10*
X9123000Y7562000D02*
X9123000Y7562000D01*
D10*
X10879000Y3949000D02*
X10694000Y3959000D01*
D10*
X7302000Y8935000D02*
X7141000Y9022000D01*
D10*
X13822000Y4473000D02*
X13909000Y4790000D01*
D10*
X10737000Y7656000D02*
X10720000Y8036000D01*
D10*
X14901000Y6115000D02*
X14779000Y6251000D01*
D10*
X9351000Y10642000D02*
X9419000Y10339000D01*
D10*
X9090000Y10498000D02*
X9211000Y10639000D01*
D10*
X11900000Y9208000D02*
X11768000Y8947000D01*
D10*
X10580000Y9536000D02*
X10757000Y10028000D01*
D10*
X14259000Y6114000D02*
X14296000Y6284000D01*
D10*
X6016000Y10191000D02*
X6153000Y10083000D01*
D10*
X11720000Y3858000D02*
X11719000Y3858000D01*
D10*
X15118000Y4265000D02*
X15198000Y4710000D01*
D10*
X15296000Y5096000D02*
X15375000Y5634000D01*
D10*
X15900000Y5788000D02*
X15706000Y5597000D01*
D10*
X6786000Y10340000D02*
X6829000Y10445000D01*
D10*
X11000000Y7198000D02*
X10847000Y7338000D01*
D10*
X3172000Y5944000D02*
X3257000Y6186000D01*
D10*
X10937000Y7797000D02*
X10976000Y7531000D01*
D10*
X5688000Y5880000D02*
X5962000Y6137000D01*
D10*
X5676000Y4981000D02*
X5587000Y4766000D01*
D10*
X2564000Y4070000D02*
X2693000Y4633000D01*
D10*
X9768000Y9221000D02*
X9430000Y8792000D01*
D10*
X11768000Y8947000D02*
X11682000Y8453000D01*
D10*
X11224000Y6738000D02*
X11414000Y6720000D01*
D10*
X3636000Y6073000D02*
X3915000Y6193000D01*
D10*
X11576000Y6610000D02*
X11559000Y6471000D01*
D10*
X8442000Y5441000D02*
X8591000Y5928000D01*
D10*
X5239000Y8014000D02*
X4923000Y8107000D01*
D10*
X10663000Y9301000D02*
X10621000Y9432000D01*
D10*
X8393000Y6698000D02*
X8511000Y6783000D01*
D10*
X8369000Y4043000D02*
X8327000Y3912000D01*
D10*
X10912000Y9562000D02*
X10968000Y9392000D01*
D10*
X11179000Y10689000D02*
X11253000Y10643000D01*
D10*
X11877000Y10252000D02*
X11957000Y10219000D01*
D10*
X7918000Y8712000D02*
X7851000Y8645000D01*
D10*
X8591000Y5928000D02*
X8673000Y6161000D01*
D10*
X7140000Y5197000D02*
X7224000Y5436000D01*
D10*
X2947000Y5414000D02*
X3172000Y5944000D01*
D10*
X14779000Y6251000D02*
X14817000Y6362000D01*
D10*
X15430000Y4136000D02*
X15360000Y3758000D01*
D10*
X3500000Y6030000D02*
X3636000Y6073000D01*
D10*
X6384000Y8110000D02*
X6458000Y8685000D01*
D10*
X6883000Y4266000D02*
X6464000Y4025000D01*
D10*
X5741000Y8086000D02*
X5485000Y7985000D01*
D10*
X5999000Y8792000D02*
X6044000Y8508000D01*
D10*
X15896000Y6722000D02*
X15991000Y6648000D01*
D10*
X5958000Y8277000D02*
X5741000Y8086000D01*
D10*
X13634000Y9111000D02*
X13564000Y9127000D01*
D10*
X10726000Y5684000D02*
X10787000Y5706000D01*
D10*
X9708000Y4520000D02*
X10015000Y4750000D01*
D10*
X7396000Y6384000D02*
X7586000Y6055000D01*
D10*
X11708000Y5836000D02*
X11431000Y5909000D01*
D10*
X16203000Y5723000D02*
X15900000Y5788000D01*
D10*
X13690000Y4065000D02*
X13618000Y4339000D01*
D10*
X13344000Y6692000D02*
X13424000Y6616000D01*
D10*
X5676000Y4342000D02*
X5876000Y4217000D01*
D10*
X2714000Y3896000D02*
X2622000Y3727000D01*
D10*
X3418000Y5564000D02*
X3290000Y5455000D01*
D10*
X12085000Y6029000D02*
X12104000Y5918000D01*
D10*
X6864000Y8569000D02*
X6930000Y8400000D01*
D10*
X11993000Y10098000D02*
X11928000Y9796000D01*
D10*
X5850000Y5368000D02*
X5676000Y4981000D01*
D10*
X5572000Y8491000D02*
X5504000Y8649000D01*
D10*
X15754000Y6735000D02*
X15896000Y6722000D01*
D10*
X9749000Y9795000D02*
X9899000Y9963000D01*
D10*
X7586000Y6055000D02*
X7669000Y5644000D01*
D10*
X7032000Y10524000D02*
X7098000Y10638000D01*
D10*
X7949000Y8847000D02*
X7918000Y8712000D01*
D10*
X3611000Y6692000D02*
X3738000Y6694000D01*
D10*
X10847000Y7338000D02*
X10737000Y7656000D01*
D10*
X14296000Y6284000D02*
X14336000Y6410000D01*
D10*
X3806000Y4317000D02*
X3648000Y4903000D01*
D10*
X15991000Y6648000D02*
X15956000Y6352000D01*
D10*
X9430000Y8792000D02*
X9362000Y8193000D01*
D10*
X3154000Y5190000D02*
X3044000Y4958000D01*
D10*
X13370000Y9174000D02*
X12602000Y9238000D01*
D10*
X9347000Y4375000D02*
X9708000Y4520000D01*
D10*
X10861000Y5795000D02*
X10960000Y6110000D01*
D10*
X6788000Y8046000D02*
X6754000Y7947000D01*
D10*
X11879000Y9530000D02*
X12451000Y9496000D01*
D10*
X2622000Y3727000D02*
X2545000Y3805000D01*
D10*
X11276000Y5446000D02*
X11369000Y5386000D01*
D10*
X9667000Y5838000D02*
X9329000Y6073000D01*
D10*
X9010000Y8021000D02*
X8989000Y8336000D01*
D10*
X8718000Y5483000D02*
X8639000Y5225000D01*
D10*
X11223000Y10442000D02*
X11043000Y10003000D01*
D10*
X14545000Y6373000D02*
X14460000Y6021000D01*
D10*
X11266000Y5122000D02*
X11118000Y5161000D01*
D10*
X10167000Y9739000D02*
X9768000Y9221000D01*
D10*
X3834000Y5628000D02*
X4014000Y5697000D01*
D10*
X8511000Y6783000D02*
X8733000Y6740000D01*
D10*
X15198000Y4710000D02*
X15296000Y5096000D01*
D10*
X13755000Y3864000D02*
X13690000Y4065000D01*
D10*
X4724000Y4839000D02*
X4921000Y5032000D01*
D10*
X12942000Y5967000D02*
X12987000Y6045000D01*
D10*
X12833000Y5274000D02*
X12781000Y5097000D01*
D10*
X11733000Y4263000D02*
X11828000Y4182000D01*
D10*
X3915000Y6193000D02*
X4291000Y6251000D01*
D10*
X11828000Y4182000D02*
X11825000Y3970000D01*
D10*
X9266000Y4095000D02*
X9037000Y4063000D01*
D10*
X12406000Y4601000D02*
X12621000Y5256000D01*
D10*
X11158000Y6624000D02*
X11224000Y6738000D01*
D10*
X12987000Y6045000D02*
X13048000Y6282000D01*
D10*
X15263000Y3728000D02*
X15174000Y3753000D01*
D10*
X15174000Y3753000D02*
X15104000Y3881000D01*
D10*
X3044000Y4958000D02*
X2921000Y4684000D01*
D10*
X10055000Y5854000D02*
X10264000Y5483000D01*
D10*
X9329000Y6073000D02*
X9049000Y6234000D01*
D10*
X13832000Y3823000D02*
X13832000Y3823000D01*
D10*
X5962000Y6137000D02*
X6367000Y6376000D01*
D10*
X11655000Y5242000D02*
X11936000Y5068000D01*
D10*
X8217000Y3737000D02*
X8109000Y3741000D01*
D10*
X9211000Y10639000D02*
X9351000Y10642000D01*
D10*
X15956000Y6352000D02*
X15919000Y6063000D01*
D10*
X5226000Y4333000D02*
X5142000Y4754000D01*
D10*
X6136000Y5761000D02*
X5850000Y5368000D01*
D10*
X4180000Y5508000D02*
X3999000Y5403000D01*
D10*
X4248000Y5861000D02*
X4369000Y5980000D01*
D10*
X6383000Y7868000D02*
X6384000Y8110000D01*
D10*
X7699000Y7870000D02*
X7594000Y7758000D01*
D10*
X8413000Y7852000D02*
X8269000Y7917000D01*
D10*
X3595000Y6229000D02*
X3500000Y6030000D01*
D10*
X4014000Y5697000D02*
X4248000Y5861000D01*
D10*
X15393000Y5946000D02*
X15208000Y5999000D01*
D10*
X10849000Y8795000D02*
X10928000Y9014000D01*
D10*
X10912000Y6440000D02*
X10955000Y6545000D01*
D10*
X6709000Y4572000D02*
X7000000Y4955000D01*
D10*
X5485000Y7985000D02*
X5239000Y8014000D01*
D10*
X11118000Y5161000D02*
X11030000Y5010000D01*
D10*
X11825000Y3970000D02*
X11720000Y3858000D01*
D10*
X15104000Y3881000D02*
X15118000Y4265000D01*
D10*
X9362000Y8193000D02*
X9269000Y7621000D01*
D10*
X11743000Y4855000D02*
X11428000Y5035000D01*
D10*
X3621000Y5784000D02*
X3694000Y5706000D01*
D10*
X4617000Y8243000D02*
X4312000Y8440000D01*
D10*
X4312000Y6007000D02*
X4014000Y5946000D01*
D10*
X10867000Y9084000D02*
X10722000Y9121000D01*
D10*
X8676000Y4045000D02*
X8369000Y4043000D01*
D10*
X9049000Y6234000D02*
X8890000Y5918000D01*
D10*
X5674000Y10124000D02*
X6016000Y10191000D01*
D10*
X4143000Y8643000D02*
X4248000Y8782000D01*
D10*
X11106000Y7180000D02*
X11106000Y7180000D01*
D10*
X8152000Y4376000D02*
X8230000Y4661000D01*
D10*
X8360000Y8229000D02*
X8746000Y8633000D01*
D10*
X15375000Y5634000D02*
X15393000Y5946000D01*
D10*
X13990000Y5209000D02*
X14070000Y5520000D01*
D10*
X10676000Y5382000D02*
X10726000Y5684000D01*
D10*
X4852000Y9485000D02*
X4929000Y9747000D01*
D10*
X11719000Y9986000D02*
X11877000Y10252000D01*
D10*
X7617000Y8755000D02*
X7302000Y8935000D01*
D10*
X10229000Y4661000D02*
X9782000Y4281000D01*
D10*
X7583000Y9736000D02*
X7305000Y9809000D01*
D10*
X5738000Y3838000D02*
X5513000Y3927000D01*
D10*
X10976000Y7531000D02*
X11045000Y7433000D01*
D10*
X7285000Y7850000D02*
X6924000Y7992000D01*
D10*
X7703000Y8082000D02*
X7699000Y7870000D01*
D10*
X11106000Y7180000D02*
X11000000Y7198000D01*
D10*
X10879000Y4047000D02*
X10879000Y3949000D01*
D10*
X4929000Y9747000D02*
X5076000Y9925000D01*
D10*
X11043000Y10003000D02*
X10912000Y9562000D01*
D10*
X5315000Y8441000D02*
X5572000Y8491000D01*
D10*
X14911000Y6368000D02*
X15198000Y6289000D01*
D10*
X7594000Y7758000D02*
X7594000Y7758000D01*
D10*
X7181000Y4571000D02*
X6883000Y4266000D01*
D10*
X13397000Y5164000D02*
X13345000Y5499000D01*
D10*
X11426000Y8545000D02*
X11524000Y9117000D01*
D10*
X3982000Y3952000D02*
X3884000Y4051000D01*
D10*
X6458000Y8685000D02*
X6550000Y9282000D01*
D10*
X8625000Y6445000D02*
X8445000Y6544000D01*
D10*
X7669000Y5644000D02*
X7575000Y5241000D01*
D10*
X7000000Y6104000D02*
X6782000Y6185000D01*
D10*
X7290000Y8273000D02*
X7607000Y8163000D01*
D10*
X10083000Y5101000D02*
X10031000Y5440000D01*
D10*
X6073000Y4181000D02*
X6326000Y4279000D01*
D10*
X10621000Y9432000D02*
X10580000Y9536000D01*
D10*
X11138000Y7538000D02*
X11265000Y7852000D01*
D10*
X8445000Y6544000D02*
X8393000Y6698000D01*
D10*
X13345000Y5499000D02*
X13276000Y5756000D01*
D10*
X7399000Y4899000D02*
X7181000Y4571000D01*
D10*
X10963000Y6356000D02*
X10912000Y6440000D01*
D10*
X12781000Y5097000D02*
X12688000Y4764000D01*
D10*
X7979000Y9818000D02*
X7906000Y9675000D01*
D10*
X11045000Y7433000D02*
X11045000Y7433000D01*
D10*
X7693000Y10084000D02*
X7882000Y9980000D01*
D10*
X5485000Y7985000D02*
X5485000Y7985000D01*
D10*
X2802000Y4275000D02*
X2714000Y3896000D01*
D10*
X3724000Y5353000D02*
X3835000Y4942000D01*
D10*
X4449000Y8829000D02*
X4643000Y8720000D01*
D10*
X3968000Y4420000D02*
X4020000Y4232000D01*
D10*
X15566000Y5152000D02*
X15484000Y4758000D01*
D10*
X11210000Y9441000D02*
X11492000Y9620000D01*
D10*
X6942000Y10466000D02*
X7032000Y10524000D01*
D10*
X8090000Y3945000D02*
X8029000Y4139000D01*
D10*
X7575000Y5241000D02*
X7399000Y4899000D01*
D10*
X12865000Y5839000D02*
X12942000Y5967000D01*
D10*
X10780000Y8440000D02*
X10849000Y8795000D01*
D10*
X15706000Y5597000D02*
X15617000Y5339000D01*
D10*
X15484000Y4758000D02*
X15430000Y4136000D01*
D10*
X13719000Y4747000D02*
X13822000Y4473000D01*
D10*
X7529000Y9142000D02*
X7810000Y8968000D01*
D10*
X8029000Y4139000D02*
X7946000Y4275000D01*
D10*
X10235000Y10012000D02*
X10167000Y9739000D01*
D10*
X7000000Y4955000D02*
X7113000Y5145000D01*
D10*
X11559000Y6471000D02*
X11606000Y6347000D01*
D10*
X7959000Y9929000D02*
X7979000Y9818000D01*
D10*
X4153000Y4196000D02*
X4310000Y4265000D01*
D10*
X7594000Y7758000D02*
X7285000Y7850000D01*
D10*
X11959000Y5692000D02*
X11708000Y5836000D01*
D10*
X8733000Y6740000D02*
X8968000Y6637000D01*
D10*
X6601000Y9584000D02*
X6661000Y9606000D01*
D10*
X5810000Y8955000D02*
X5999000Y8792000D01*
D10*
X7946000Y4275000D02*
X7995000Y4392000D01*
D10*
X3694000Y5706000D02*
X3834000Y5628000D01*
D10*
X10584000Y4785000D02*
X10676000Y5382000D01*
D10*
X10968000Y9392000D02*
X11210000Y9441000D01*
D10*
X16221000Y5949000D02*
X16493000Y5781000D01*
D10*
X6837000Y10256000D02*
X6786000Y10340000D01*
D10*
X4150000Y3963000D02*
X3982000Y3952000D01*
D10*
X5178000Y8820000D02*
X4902000Y9109000D01*
D10*
X14197000Y5934000D02*
X14259000Y6114000D01*
D10*
X5309000Y9484000D02*
X5271000Y9310000D01*
D10*
X10264000Y5483000D02*
X10316000Y5096000D01*
D10*
X10015000Y4750000D02*
X10083000Y5101000D01*
D10*
X13618000Y5209000D02*
X13719000Y4747000D01*
D10*
X9037000Y4063000D02*
X8676000Y4045000D01*
D10*
X11503000Y9206000D02*
X11341000Y9124000D01*
D10*
X2921000Y4684000D02*
X2802000Y4275000D01*
D10*
X7218000Y6024000D02*
X7000000Y6104000D01*
D10*
X6834000Y10010000D02*
X6837000Y10256000D01*
D10*
X11369000Y5386000D02*
X11655000Y5242000D01*
D10*
X8230000Y4661000D02*
X8294000Y4951000D01*
D10*
X4449000Y4215000D02*
X4150000Y3963000D01*
D10*
X11411000Y3950000D02*
X11050000Y4092000D01*
D10*
X4543000Y6211000D02*
X4594000Y6058000D01*
D10*
X12688000Y4764000D02*
X12558000Y4408000D01*
D10*
X13832000Y3823000D02*
X13755000Y3864000D01*
D10*
X10132000Y10144000D02*
X10235000Y10012000D01*
D10*
X12558000Y4408000D02*
X12457000Y4339000D01*
D10*
X3738000Y6694000D02*
X3758000Y6520000D01*
D10*
X11050000Y4092000D02*
X10913000Y4146000D01*
D10*
X5576000Y4581000D02*
X5676000Y4342000D01*
D10*
X2622000Y3727000D02*
X2622000Y3727000D01*
D10*
X11068000Y6566000D02*
X11158000Y6624000D01*
D10*
X13937000Y4041000D02*
X13832000Y3823000D01*
D10*
X13178000Y6580000D02*
X13344000Y6692000D01*
D10*
X7481000Y10247000D02*
X7693000Y10084000D01*
D10*
X10722000Y9121000D02*
X10663000Y9301000D01*
D10*
X7243000Y9286000D02*
X7529000Y9142000D01*
D10*
X6930000Y8400000D02*
X7290000Y8273000D01*
D10*
X4248000Y8782000D02*
X4449000Y8829000D01*
D10*
X7851000Y8645000D02*
X7617000Y8755000D01*
D10*
X11253000Y10643000D02*
X11223000Y10442000D01*
D10*
X10928000Y9014000D02*
X10867000Y9084000D01*
D10*
X11936000Y5068000D02*
X12075000Y4947000D01*
D10*
X12104000Y5918000D02*
X12032000Y5775000D01*
D10*
X11045000Y7433000D02*
X11138000Y7538000D01*
D10*
X4312000Y8440000D02*
X4143000Y8643000D01*
D10*
X6550000Y9282000D02*
X6601000Y9584000D01*
D10*
X3290000Y5455000D02*
X3154000Y5190000D01*
D10*
X13618000Y4339000D02*
X13536000Y4548000D01*
D10*
X8516000Y4301000D02*
X8928000Y4315000D01*
D10*
X10509000Y3968000D02*
X10510000Y4210000D01*
D10*
X12457000Y4339000D02*
X12375000Y4384000D01*
D10*
X12032000Y5775000D02*
X11959000Y5692000D01*
D10*
X8294000Y4951000D02*
X8442000Y5441000D01*
D10*
X8968000Y6637000D02*
X9474000Y6325000D01*
D10*
X14472000Y6480000D02*
X14545000Y6373000D01*
D10*
X3697000Y5833000D02*
X3621000Y5784000D01*
D10*
X5513000Y3927000D02*
X5363000Y4038000D01*
D10*
X11492000Y9620000D02*
X11719000Y9986000D01*
D10*
X16493000Y5781000D02*
X16440000Y5672000D01*
D10*
X15208000Y5999000D02*
X14901000Y6115000D01*
D10*
X10694000Y3959000D02*
X10509000Y3968000D01*
D10*
X11036000Y10552000D02*
X11179000Y10689000D01*
D10*
X6029000Y3846000D02*
X6028000Y3846000D01*
D10*
X4369000Y5980000D02*
X4312000Y6007000D01*
D10*
X15360000Y3758000D02*
X15263000Y3728000D01*
D10*
X9457000Y9432000D02*
X9540000Y9546000D01*
D10*
X8217000Y3737000D02*
X8217000Y3737000D01*
D10*
X14070000Y5520000D02*
X14149000Y5762000D01*
D10*
X7113000Y5145000D02*
X7140000Y5197000D01*
D10*
X11428000Y5035000D02*
X11266000Y5122000D01*
D10*
X13564000Y9127000D02*
X13370000Y9174000D01*
D10*
X8269000Y7917000D02*
X8204000Y8012000D01*
D10*
X14460000Y6021000D02*
X14331000Y5602000D01*
D10*
X11977000Y4745000D02*
X11743000Y4855000D01*
D10*
X5363000Y4038000D02*
X5226000Y4333000D01*
D10*
X8928000Y4315000D02*
X9347000Y4375000D01*
D10*
X6829000Y10445000D02*
X6942000Y10466000D01*
D10*
X15617000Y5339000D02*
X15566000Y5152000D01*
D10*
X13183000Y5707000D02*
X13048000Y5492000D01*
D10*
X12451000Y9496000D02*
X13355000Y9436000D01*
D10*
X11191000Y7223000D02*
X11106000Y7180000D01*
D10*
X10955000Y6545000D02*
X11068000Y6566000D01*
D10*
X11928000Y9796000D02*
X11879000Y9530000D01*
D10*
X5266000Y5179000D02*
X5483000Y5581000D01*
D10*
X12007000Y6080000D02*
X12085000Y6029000D01*
D10*
X9908000Y10035000D02*
X9991000Y10126000D01*
D10*
X9782000Y4281000D02*
X9266000Y4095000D01*
D10*
X10510000Y4210000D02*
X10584000Y4785000D01*
D10*
X8109000Y3741000D02*
X8090000Y3945000D01*
D10*
X8204000Y8012000D02*
X8360000Y8229000D01*
D10*
X7834000Y9592000D02*
X7583000Y9736000D01*
D10*
X4310000Y4265000D02*
X4445000Y4479000D01*
D10*
X4928000Y8543000D02*
X5315000Y8441000D01*
D10*
X15198000Y6289000D02*
X15488000Y6241000D01*
D10*
X8673000Y6161000D02*
X8740000Y6386000D01*
D10*
X14081000Y4565000D02*
X13937000Y4041000D01*
D10*
X3498000Y5427000D02*
X3418000Y5564000D01*
D10*
X8928000Y4315000D02*
X8928000Y4315000D01*
D10*
X7263000Y5823000D02*
X7218000Y6024000D01*
D10*
X6661000Y9606000D02*
X6735000Y9695000D01*
D10*
X13355000Y9436000D02*
X13738000Y9326000D01*
D10*
X4899000Y4903000D02*
X4760000Y4599000D01*
D10*
X12044000Y4812000D02*
X11977000Y4745000D01*
D10*
X11524000Y9117000D02*
X11503000Y9206000D01*
D10*
X15919000Y6063000D02*
X16221000Y5949000D01*
D10*
X5587000Y4766000D02*
X5576000Y4581000D01*
D10*
X16440000Y5672000D02*
X16203000Y5723000D01*
D10*
X10787000Y5706000D02*
X10861000Y5795000D01*
D10*
X13749000Y9176000D02*
X13682000Y9077000D01*
D10*
X11431000Y5909000D02*
X11348000Y5661000D01*
D12*
X56277000Y10348000D02*
X56402000Y10609000D01*
D12*
X60222000Y9634000D02*
X60268000Y9692000D01*
D12*
X58968000Y11435000D02*
X59102000Y11517000D01*
D12*
X56714000Y11687000D02*
X57032000Y11459000D01*
D12*
X56338000Y10178000D02*
X55881000Y10083000D01*
D12*
X56308000Y9532000D02*
X56448000Y9281000D01*
D12*
X56397000Y9036000D02*
X56301000Y9287000D01*
D12*
X57533000Y10457000D02*
X58018000Y10631000D01*
D12*
X58286000Y9199000D02*
X58335000Y9259000D01*
D12*
X56843000Y8107000D02*
X56582000Y7949000D01*
D12*
X58256000Y12232000D02*
X58335000Y12215000D01*
D12*
X56448000Y9281000D02*
X56562000Y9010000D01*
D12*
X55823000Y9637000D02*
X56127000Y9564000D01*
D12*
X56114000Y9419000D02*
X55949000Y9451000D01*
D12*
X58018000Y10631000D02*
X58497000Y10472000D01*
D12*
X56652000Y11547000D02*
X56606000Y11574000D01*
D12*
X55881000Y10083000D02*
X55787000Y10046000D01*
D12*
X58975000Y8400000D02*
X59241000Y8255000D01*
D12*
X56589000Y8118000D02*
X56630000Y8141000D01*
D12*
X58510000Y9003000D02*
X58782000Y8367000D01*
D12*
X58456000Y9146000D02*
X58510000Y9003000D01*
D12*
X56462000Y10753000D02*
X56361000Y10914000D01*
D12*
X56831000Y11424000D02*
X56652000Y11547000D01*
D12*
X57742000Y11759000D02*
X57720000Y11656000D01*
D12*
X55643000Y10173000D02*
X55708000Y10193000D01*
D12*
X59663000Y9497000D02*
X59742000Y9523000D01*
D12*
X59684000Y10520000D02*
X59838000Y10297000D01*
D12*
X59466000Y8951000D02*
X59545000Y9145000D01*
D12*
X58789000Y9662000D02*
X58527000Y9223000D01*
D12*
X57764000Y11875000D02*
X57742000Y11759000D01*
D12*
X58302000Y11764000D02*
X58201000Y12081000D01*
D12*
X58527000Y9223000D02*
X58456000Y9146000D01*
D12*
X57391000Y9707000D02*
X57576000Y9381000D01*
D12*
X57576000Y11676000D02*
X57643000Y11994000D01*
D12*
X58830000Y11284000D02*
X58613000Y11377000D01*
D12*
X59854000Y8538000D02*
X59930000Y8389000D01*
D12*
X58771000Y11464000D02*
X58918000Y11410000D01*
D12*
X57643000Y11994000D02*
X57700000Y12225000D01*
D12*
X56592000Y8884000D02*
X56462000Y8678000D01*
D12*
X58780000Y10054000D02*
X58789000Y9662000D01*
D12*
X59642000Y9011000D02*
X59629000Y8898000D01*
D12*
X56301000Y8407000D02*
X56445000Y8259000D01*
D12*
X59701000Y11324000D02*
X59468000Y11561000D01*
D12*
X59443000Y8888000D02*
X59466000Y8951000D01*
D12*
X59492000Y11746000D02*
X59671000Y11584000D01*
D12*
X60391000Y10171000D02*
X60416000Y10158000D01*
D12*
X60416000Y10158000D02*
X60415000Y9904000D01*
D12*
X58497000Y10472000D02*
X58780000Y10054000D01*
D12*
X59053000Y8213000D02*
X59027000Y8233000D01*
D12*
X59027000Y8233000D02*
X58865000Y8212000D01*
D12*
X59317000Y11664000D02*
X59492000Y11746000D01*
D12*
X58872000Y8379000D02*
X58975000Y8400000D01*
D12*
X57208000Y8197000D02*
X57119000Y8245000D01*
D12*
X59491000Y7951000D02*
X59426000Y7966000D01*
D12*
X56182000Y11176000D02*
X56109000Y11288000D01*
D12*
X56211000Y9398000D02*
X56114000Y9419000D01*
D12*
X56582000Y7949000D02*
X56482000Y8016000D01*
D12*
X56826000Y8269000D02*
X57011000Y8397000D01*
D12*
X59629000Y8898000D02*
X59854000Y8538000D01*
D12*
X57500000Y8911000D02*
X57574000Y9114000D01*
D12*
X59644000Y8291000D02*
X59737000Y8398000D01*
D12*
X59850000Y8290000D02*
X59735000Y8163000D01*
D12*
X56132000Y11320000D02*
X56296000Y11491000D01*
D12*
X57743000Y9141000D02*
X57413000Y8326000D01*
D12*
X60268000Y9692000D02*
X60253000Y10046000D01*
D12*
X56256000Y8239000D02*
X56110000Y8388000D01*
D12*
X57667000Y10391000D02*
X57429000Y10091000D01*
D12*
X57244000Y11452000D02*
X57492000Y11557000D01*
D12*
X57162000Y8387000D02*
X57244000Y8352000D01*
D12*
X57588000Y11443000D02*
X57376000Y11351000D01*
D12*
X56482000Y8016000D02*
X56482000Y8016000D01*
D12*
X57032000Y11459000D02*
X57244000Y11452000D01*
D12*
X56489000Y10977000D02*
X56613000Y10779000D01*
D12*
X59930000Y11290000D02*
X59744000Y10996000D01*
D12*
X56402000Y10609000D02*
X56462000Y10753000D01*
D12*
X57815000Y12076000D02*
X57764000Y11875000D01*
D12*
X56445000Y8259000D02*
X56589000Y8118000D01*
D12*
X59735000Y8163000D02*
X59491000Y7951000D01*
D12*
X57588000Y9150000D02*
X57550000Y9193000D01*
D12*
X60403000Y9521000D02*
X60340000Y9501000D01*
D12*
X59740000Y11270000D02*
X59701000Y11324000D01*
D12*
X60415000Y9904000D02*
X60408000Y9585000D01*
D12*
X57239000Y9837000D02*
X57313000Y10183000D01*
D12*
X57763000Y9204000D02*
X57743000Y9141000D01*
D12*
X59920000Y10132000D02*
X59717000Y10174000D01*
D12*
X58613000Y11377000D02*
X58379000Y11488000D01*
D12*
X55644000Y9524000D02*
X55638000Y9811000D01*
D12*
X57700000Y12225000D02*
X58256000Y12232000D01*
D12*
X59838000Y10297000D02*
X60129000Y10236000D01*
D12*
X57454000Y9300000D02*
X57239000Y9837000D01*
D12*
X56301000Y9287000D02*
X56211000Y9398000D01*
D12*
X55638000Y9811000D02*
X55638000Y10135000D01*
D12*
X59704000Y9175000D02*
X59642000Y9011000D01*
D12*
X56457000Y11658000D02*
X56580000Y11742000D01*
D12*
X58138000Y10478000D02*
X57667000Y10391000D01*
D12*
X56444000Y10363000D02*
X56338000Y10178000D01*
D12*
X56562000Y9010000D02*
X56608000Y8916000D01*
D12*
X57011000Y8397000D02*
X57162000Y8387000D01*
D12*
X59633000Y10637000D02*
X59684000Y10520000D01*
D12*
X56124000Y8420000D02*
X56358000Y8776000D01*
D12*
X59605000Y10740000D02*
X59633000Y10637000D01*
D12*
X59450000Y8135000D02*
X59644000Y8291000D01*
D12*
X58379000Y11488000D02*
X58302000Y11764000D01*
D12*
X59545000Y9145000D02*
X59657000Y9461000D01*
D12*
X56826000Y8269000D02*
X56826000Y8269000D01*
D12*
X57119000Y8245000D02*
X57035000Y8231000D01*
D12*
X58782000Y8367000D02*
X58872000Y8379000D01*
D12*
X59579000Y10423000D02*
X59476000Y10647000D01*
D12*
X58588000Y10171000D02*
X58138000Y10478000D01*
D12*
X59934000Y9568000D02*
X60222000Y9634000D01*
D12*
X58918000Y11410000D02*
X58968000Y11435000D01*
D12*
X59671000Y11584000D02*
X59930000Y11290000D01*
D12*
X56560000Y11545000D02*
X56362000Y11361000D01*
D12*
X59737000Y8398000D02*
X59558000Y8718000D01*
D12*
X59717000Y11227000D02*
X59740000Y11270000D01*
D12*
X59102000Y11517000D02*
X59217000Y11590000D01*
D12*
X58550000Y8523000D02*
X58365000Y8969000D01*
D12*
X60408000Y9585000D02*
X60403000Y9521000D01*
D12*
X59445000Y10794000D02*
X59580000Y11011000D01*
D12*
X56608000Y8916000D02*
X56592000Y8884000D01*
D12*
X60149000Y9459000D02*
X59798000Y9389000D01*
D12*
X55949000Y9451000D02*
X55689000Y9508000D01*
D12*
X57376000Y11351000D02*
X57110000Y11256000D01*
D12*
X56296000Y11491000D02*
X56457000Y11658000D01*
D12*
X56361000Y10914000D02*
X56182000Y11176000D01*
D12*
X56109000Y11288000D02*
X56132000Y11320000D01*
D12*
X59742000Y9523000D02*
X59934000Y9568000D01*
D12*
X59798000Y9389000D02*
X59704000Y9175000D01*
D12*
X56300000Y11288000D02*
X56332000Y11224000D01*
D12*
X55708000Y10193000D02*
X55904000Y10236000D01*
D12*
X57574000Y9114000D02*
X57588000Y9150000D01*
D12*
X56462000Y8678000D02*
X56301000Y8407000D01*
D12*
X55904000Y10236000D02*
X56277000Y10348000D01*
D12*
X59558000Y8718000D02*
X59443000Y8888000D01*
D12*
X57373000Y8224000D02*
X57208000Y8197000D01*
D12*
X56580000Y11742000D02*
X56714000Y11687000D01*
D12*
X59476000Y10647000D02*
X59424000Y10750000D01*
D12*
X57313000Y10183000D02*
X57533000Y10457000D01*
D12*
X58628000Y9609000D02*
X58588000Y10171000D01*
D12*
X59280000Y11463000D02*
X58972000Y11264000D01*
D12*
X58201000Y12081000D02*
X57815000Y12076000D01*
D12*
X55638000Y10135000D02*
X55643000Y10173000D01*
D12*
X56482000Y8016000D02*
X56256000Y8239000D01*
D12*
X55689000Y9508000D02*
X55644000Y9524000D01*
D12*
X57244000Y8352000D02*
X57500000Y8911000D01*
D12*
X57110000Y11256000D02*
X56831000Y11424000D01*
D12*
X58335000Y9259000D02*
X58628000Y9609000D01*
D12*
X59468000Y11561000D02*
X59280000Y11463000D01*
D12*
X56613000Y10779000D02*
X56444000Y10363000D01*
D12*
X58454000Y11747000D02*
X58500000Y11587000D01*
D12*
X57550000Y11592000D02*
X57576000Y11676000D01*
D12*
X55787000Y10046000D02*
X55780000Y9707000D01*
D12*
X56110000Y8388000D02*
X56124000Y8420000D01*
D12*
X58714000Y8179000D02*
X58550000Y8523000D01*
D12*
X57550000Y9193000D02*
X57454000Y9300000D01*
D12*
X58335000Y12215000D02*
X58454000Y11747000D01*
D12*
X59217000Y11590000D02*
X59317000Y11664000D01*
D12*
X59657000Y9461000D02*
X59663000Y9497000D01*
D12*
X59241000Y8255000D02*
X59450000Y8135000D01*
D12*
X56606000Y11574000D02*
X56560000Y11545000D01*
D12*
X57429000Y10091000D02*
X57391000Y9707000D01*
D12*
X56362000Y11361000D02*
X56300000Y11288000D01*
D12*
X59424000Y10750000D02*
X59445000Y10794000D01*
D12*
X58972000Y11264000D02*
X58923000Y11240000D01*
D12*
X58923000Y11240000D02*
X58830000Y11284000D01*
D12*
X56358000Y8776000D02*
X56397000Y9036000D01*
D12*
X57035000Y8231000D02*
X56843000Y8107000D01*
D12*
X59580000Y11011000D02*
X59717000Y11227000D01*
D12*
X58865000Y8212000D02*
X58714000Y8179000D01*
D12*
X57576000Y9381000D02*
X57706000Y9258000D01*
D12*
X58500000Y11587000D02*
X58771000Y11464000D01*
D12*
X59930000Y8389000D02*
X59850000Y8290000D01*
D12*
X60253000Y10046000D02*
X59920000Y10132000D01*
D12*
X56630000Y8141000D02*
X56826000Y8269000D01*
D12*
X55780000Y9707000D02*
X55823000Y9637000D01*
D12*
X60340000Y9501000D02*
X60149000Y9459000D01*
D12*
X57720000Y11656000D02*
X57588000Y11443000D01*
D12*
X59744000Y10996000D02*
X59605000Y10740000D01*
D12*
X59717000Y10174000D02*
X59579000Y10423000D01*
D12*
X57706000Y9258000D02*
X57763000Y9204000D01*
D12*
X60129000Y10236000D02*
X60391000Y10171000D01*
D12*
X57492000Y11557000D02*
X57550000Y11592000D01*
D12*
X57413000Y8326000D02*
X57373000Y8224000D01*
D12*
X56127000Y9564000D02*
X56308000Y9532000D01*
D12*
X59426000Y7966000D02*
X59053000Y8213000D01*
D12*
X58365000Y8969000D02*
X58286000Y9199000D01*
D12*
X56332000Y11224000D02*
X56489000Y10977000D01*
D12*
X55946000Y5562000D02*
X55934000Y5372000D01*
D12*
X55739000Y5007000D02*
X55682000Y5021000D01*
D12*
X58867000Y4548000D02*
X58856000Y4826000D01*
D12*
X57203000Y5666000D02*
X57191000Y5902000D01*
D12*
X55934000Y5372000D02*
X55938000Y5269000D01*
D12*
X60416000Y6868000D02*
X60405000Y6714000D01*
D12*
X58438000Y5581000D02*
X58485000Y5549000D01*
D12*
X58097000Y5620000D02*
X58243000Y5633000D01*
D12*
X58172000Y5272000D02*
X58164000Y5326000D01*
D12*
X58856000Y4826000D02*
X58834000Y5174000D01*
D12*
X58082000Y5385000D02*
X57997000Y5380000D01*
D12*
X55878000Y4569000D02*
X55917000Y4539000D01*
D12*
X58453000Y4421000D02*
X58427000Y4380000D01*
D12*
X57575000Y4595000D02*
X57559000Y4388000D01*
D12*
X55798000Y4583000D02*
X55878000Y4569000D01*
D12*
X58335000Y4325000D02*
X58242000Y4301000D01*
D12*
X59222000Y6389000D02*
X59218000Y6230000D01*
D12*
X57881000Y5560000D02*
X57912000Y5591000D01*
D12*
X59243000Y6778000D02*
X59286000Y6688000D01*
D12*
X56487000Y5053000D02*
X56473000Y5072000D01*
D12*
X58010000Y6691000D02*
X58160000Y6704000D01*
D12*
X59034000Y6809000D02*
X59148000Y6815000D01*
D12*
X58140000Y4484000D02*
X58150000Y4585000D01*
D12*
X56407000Y4301000D02*
X56447000Y4309000D01*
D12*
X60428000Y5380000D02*
X60442000Y5096000D01*
D12*
X55669000Y4021000D02*
X55644000Y4029000D01*
D12*
X58094000Y6592000D02*
X58073000Y6605000D01*
D12*
X60046000Y6424000D02*
X60052000Y6884000D01*
D12*
X55615000Y6378000D02*
X55645000Y6411000D01*
D12*
X55938000Y5269000D02*
X55950000Y5226000D01*
D12*
X57467000Y4205000D02*
X57317000Y4195000D01*
D12*
X57256000Y6591000D02*
X57302000Y6612000D01*
D12*
X58372000Y5620000D02*
X58438000Y5581000D01*
D12*
X57302000Y6612000D02*
X57365000Y6628000D01*
D12*
X58468000Y6676000D02*
X58474000Y6628000D01*
D12*
X55952000Y6270000D02*
X55956000Y5908000D01*
D12*
X58073000Y6605000D02*
X58031000Y6616000D01*
D12*
X58242000Y4301000D02*
X58089000Y4275000D01*
D12*
X55956000Y5908000D02*
X55957000Y5670000D01*
D12*
X58834000Y5174000D02*
X58812000Y5520000D01*
D12*
X57209000Y6536000D02*
X57225000Y6566000D01*
D12*
X57632000Y4294000D02*
X57771000Y4308000D01*
D12*
X56317000Y4287000D02*
X56407000Y4301000D01*
D12*
X56095000Y4051000D02*
X55927000Y4034000D01*
D12*
X56650000Y4155000D02*
X56574000Y4123000D01*
D12*
X60048000Y5744000D02*
X60046000Y6424000D01*
D12*
X60442000Y5096000D02*
X60444000Y4882000D01*
D12*
X57967000Y5606000D02*
X58097000Y5620000D01*
D12*
X55901000Y6441000D02*
X55923000Y6427000D01*
D12*
X55923000Y6427000D02*
X55939000Y6408000D01*
D12*
X56335000Y4075000D02*
X56211000Y4059000D01*
D12*
X57211000Y4210000D02*
X57188000Y4235000D01*
D12*
X58511000Y4745000D02*
X58498000Y4608000D01*
D12*
X57577000Y4294000D02*
X57632000Y4294000D01*
D12*
X56493000Y4497000D02*
X56513000Y4619000D01*
D12*
X60165000Y4495000D02*
X60079000Y4503000D01*
D12*
X55957000Y5670000D02*
X55946000Y5562000D01*
D12*
X56191000Y4265000D02*
X56317000Y4287000D01*
D12*
X57219000Y5146000D02*
X57215000Y5430000D01*
D12*
X57317000Y4195000D02*
X57245000Y4197000D01*
D12*
X58389000Y4350000D02*
X58335000Y4325000D01*
D12*
X58498000Y4608000D02*
X58477000Y4499000D01*
D12*
X57587000Y6556000D02*
X57578000Y6482000D01*
D12*
X57840000Y5477000D02*
X57853000Y5516000D01*
D12*
X60020000Y4662000D02*
X59975000Y4773000D01*
D12*
X59231000Y4412000D02*
X59201000Y4398000D01*
D12*
X58511000Y4929000D02*
X58511000Y4745000D01*
D12*
X55604000Y4292000D02*
X55614000Y4389000D01*
D12*
X58391000Y6300000D02*
X58305000Y6286000D01*
D12*
X56788000Y6548000D02*
X56830000Y6535000D01*
D12*
X56487000Y5277000D02*
X56487000Y5857000D01*
D12*
X56834000Y4495000D02*
X56817000Y4397000D01*
D12*
X56473000Y5072000D02*
X56440000Y5075000D01*
D12*
X58846000Y6698000D02*
X58857000Y6757000D01*
D12*
X57573000Y6256000D02*
X57580000Y5972000D01*
D12*
X59509000Y6120000D02*
X59573000Y5968000D01*
D12*
X55964000Y5203000D02*
X56015000Y5205000D01*
D12*
X60304000Y6937000D02*
X60419000Y6943000D01*
D12*
X59340000Y6563000D02*
X59427000Y6335000D01*
D12*
X59900000Y4935000D02*
X59791000Y5148000D01*
D12*
X58485000Y5549000D02*
X58488000Y5412000D01*
D12*
X57215000Y4857000D02*
X57219000Y5146000D01*
D12*
X59148000Y6815000D02*
X59218000Y6810000D01*
D12*
X58089000Y4275000D02*
X57903000Y4249000D01*
D12*
X58161000Y4737000D02*
X58171000Y5041000D01*
D12*
X57771000Y4308000D02*
X57913000Y4323000D01*
D12*
X57225000Y6566000D02*
X57256000Y6591000D01*
D12*
X56574000Y4123000D02*
X56471000Y4099000D01*
D12*
X60079000Y4503000D02*
X60051000Y4566000D01*
D12*
X56847000Y4615000D02*
X56834000Y4495000D01*
D12*
X57813000Y6672000D02*
X58010000Y6691000D01*
D12*
X58433000Y6316000D02*
X58391000Y6300000D01*
D12*
X56487000Y5857000D02*
X56492000Y6454000D01*
D12*
X60419000Y6943000D02*
X60424000Y6939000D01*
D12*
X56705000Y6561000D02*
X56788000Y6548000D01*
D12*
X58488000Y5412000D02*
X58498000Y5153000D01*
D12*
X60424000Y6939000D02*
X60416000Y6868000D01*
D12*
X60400000Y6400000D02*
X60407000Y5922000D01*
D12*
X58243000Y5633000D02*
X58328000Y5633000D01*
D12*
X55917000Y4539000D02*
X55929000Y4491000D01*
D12*
X56135000Y5220000D02*
X56341000Y5252000D01*
D12*
X58150000Y5369000D02*
X58133000Y5387000D01*
D12*
X58305000Y6286000D02*
X58180000Y6281000D01*
D12*
X57996000Y4331000D02*
X58058000Y4347000D01*
D12*
X59695000Y5334000D02*
X59643000Y5442000D01*
D12*
X60054000Y5230000D02*
X60048000Y5744000D01*
D12*
X56060000Y4250000D02*
X56191000Y4265000D01*
D12*
X56520000Y6493000D02*
X56576000Y6532000D01*
D12*
X58940000Y6795000D02*
X59034000Y6809000D01*
D12*
X58427000Y4380000D02*
X58389000Y4350000D01*
D12*
X60436000Y4716000D02*
X60426000Y4621000D01*
D12*
X58126000Y4416000D02*
X58140000Y4484000D01*
D12*
X59679000Y5728000D02*
X59835000Y5386000D01*
D12*
X60052000Y6884000D02*
X60067000Y6899000D01*
D12*
X58133000Y5387000D02*
X58082000Y5385000D01*
D12*
X55604000Y5587000D02*
X55602000Y6229000D01*
D12*
X58160000Y6704000D02*
X58324000Y6710000D01*
D12*
X56817000Y4397000D02*
X56793000Y4310000D01*
D12*
X55628000Y4468000D02*
X55649000Y4526000D01*
D12*
X56526000Y4851000D02*
X56517000Y4953000D01*
D12*
X57591000Y5752000D02*
X57599000Y5448000D01*
D12*
X57609000Y6654000D02*
X57813000Y6672000D01*
D12*
X58814000Y6446000D02*
X58830000Y6592000D01*
D12*
X55927000Y4034000D02*
X55751000Y4019000D01*
D12*
X58802000Y6274000D02*
X58814000Y6446000D01*
D12*
X59240000Y4541000D02*
X59241000Y4420000D01*
D12*
X55601000Y6359000D02*
X55615000Y6378000D01*
D12*
X57880000Y5400000D02*
X57853000Y5420000D01*
D12*
X58324000Y6710000D02*
X58424000Y6710000D01*
D12*
X56513000Y4619000D02*
X56524000Y4725000D01*
D12*
X57955000Y6620000D02*
X57852000Y6614000D01*
D12*
X58878000Y4374000D02*
X58867000Y4548000D01*
D12*
X57997000Y5380000D02*
X57924000Y5386000D01*
D12*
X57853000Y5420000D02*
X57840000Y5447000D01*
D12*
X58058000Y4347000D02*
X58099000Y4376000D01*
D12*
X57599000Y5448000D02*
X57599000Y5040000D01*
D12*
X55644000Y4029000D02*
X55630000Y4042000D01*
D12*
X58812000Y5520000D02*
X58802000Y5728000D01*
D12*
X59573000Y5968000D02*
X59679000Y5728000D01*
D12*
X55975000Y4253000D02*
X56060000Y4250000D01*
D12*
X55645000Y6411000D02*
X55682000Y6434000D01*
D12*
X55855000Y4997000D02*
X55739000Y5007000D01*
D12*
X57197000Y6490000D02*
X57209000Y6536000D01*
D12*
X58802000Y5728000D02*
X58797000Y6010000D01*
D12*
X55929000Y4491000D02*
X55926000Y4377000D01*
D12*
X55616000Y4090000D02*
X55603000Y4182000D01*
D12*
X58477000Y4499000D02*
X58453000Y4421000D01*
D12*
X58424000Y6710000D02*
X58443000Y6699000D01*
D12*
X59232000Y5098000D02*
X59240000Y4541000D01*
D12*
X57903000Y4249000D02*
X57687000Y4225000D01*
D12*
X56793000Y4310000D02*
X56761000Y4242000D01*
D12*
X55630000Y4042000D02*
X55616000Y4090000D01*
D12*
X55682000Y6434000D02*
X55734000Y6452000D01*
D12*
X57192000Y4541000D02*
X57207000Y4703000D01*
D12*
X55977000Y4995000D02*
X55855000Y4997000D01*
D12*
X60444000Y4882000D02*
X60436000Y4716000D01*
D12*
X60399000Y4538000D02*
X60357000Y4519000D01*
D12*
X59218000Y6230000D02*
X59222000Y5800000D01*
D12*
X55939000Y6408000D02*
X55952000Y6270000D01*
D12*
X58458000Y6406000D02*
X58448000Y6331000D01*
D12*
X57687000Y4225000D02*
X57467000Y4205000D01*
D12*
X58099000Y4376000D02*
X58126000Y4416000D01*
D12*
X58904000Y4368000D02*
X58878000Y4374000D01*
D12*
X57761000Y6600000D02*
X57653000Y6577000D01*
D12*
X55603000Y4182000D02*
X55604000Y4292000D01*
D12*
X58448000Y6331000D02*
X58433000Y6316000D01*
D12*
X58081000Y6442000D02*
X58094000Y6592000D01*
D12*
X57191000Y5902000D02*
X57184000Y6174000D01*
D12*
X57653000Y6577000D02*
X57587000Y6556000D01*
D12*
X60051000Y4566000D02*
X60020000Y4662000D01*
D12*
X58797000Y6010000D02*
X58802000Y6274000D01*
D12*
X57245000Y4197000D02*
X57211000Y4210000D01*
D12*
X55927000Y4280000D02*
X55941000Y4262000D01*
D12*
X59989000Y5055000D02*
X60051000Y4935000D01*
D12*
X57559000Y4305000D02*
X57577000Y4294000D01*
D12*
X56503000Y5012000D02*
X56487000Y5053000D01*
D12*
X58180000Y6281000D02*
X58091000Y6289000D01*
D12*
X55950000Y5226000D02*
X55964000Y5203000D01*
D12*
X60407000Y5922000D02*
X60416000Y5610000D01*
D12*
X58857000Y6757000D02*
X58880000Y6778000D01*
D12*
X58328000Y5633000D02*
X58372000Y5620000D01*
D12*
X59427000Y6335000D02*
X59509000Y6120000D01*
D12*
X57578000Y6482000D02*
X57573000Y6256000D01*
D12*
X56840000Y5073000D02*
X56849000Y4827000D01*
D12*
X59040000Y4373000D02*
X58960000Y4367000D01*
D12*
X57912000Y5591000D02*
X57967000Y5606000D01*
D12*
X57599000Y5040000D02*
X57591000Y4785000D01*
D12*
X58960000Y4367000D02*
X58904000Y4368000D01*
D12*
X57591000Y4785000D02*
X57575000Y4595000D01*
D12*
X56295000Y5049000D02*
X56097000Y5011000D01*
D12*
X57853000Y5516000D02*
X57881000Y5560000D01*
D12*
X55751000Y4019000D02*
X55752000Y4019000D01*
D12*
X55614000Y4389000D02*
X55628000Y4468000D01*
D12*
X56492000Y6454000D02*
X56520000Y6493000D01*
D12*
X55926000Y4377000D02*
X55927000Y4280000D01*
D12*
X56832000Y5853000D02*
X56840000Y5073000D01*
D12*
X56015000Y5205000D02*
X56135000Y5220000D01*
D12*
X56849000Y4827000D02*
X56847000Y4615000D01*
D12*
X59424000Y5936000D02*
X59222000Y6389000D01*
D12*
X55614000Y5065000D02*
X55604000Y5587000D01*
D12*
X60284000Y4502000D02*
X60165000Y4495000D01*
D12*
X59241000Y4420000D02*
X59231000Y4412000D01*
D12*
X57559000Y4388000D02*
X57559000Y4305000D01*
D12*
X58470000Y6533000D02*
X58458000Y6406000D01*
D12*
X55682000Y5021000D02*
X55641000Y5042000D01*
D12*
X60417000Y4569000D02*
X60399000Y4538000D01*
D12*
X57852000Y6614000D02*
X57761000Y6600000D01*
D12*
X56471000Y4099000D02*
X56335000Y4075000D01*
D12*
X55680000Y4555000D02*
X55722000Y4575000D01*
D12*
X58164000Y5326000D02*
X58150000Y5369000D01*
D12*
X57184000Y6174000D02*
X57187000Y6410000D01*
D12*
X55734000Y6452000D02*
X55805000Y6460000D01*
D12*
X58830000Y6592000D02*
X58846000Y6698000D01*
D12*
X59835000Y5386000D02*
X59989000Y5055000D01*
D12*
X58171000Y5041000D02*
X58172000Y5272000D01*
D12*
X57580000Y5972000D02*
X57591000Y5752000D01*
D12*
X57459000Y6641000D02*
X57609000Y6654000D01*
D12*
X56440000Y5075000D02*
X56295000Y5049000D01*
D12*
X59286000Y6688000D02*
X59340000Y6563000D01*
D12*
X55641000Y5042000D02*
X55614000Y5065000D01*
D12*
X55865000Y6455000D02*
X55901000Y6441000D01*
D12*
X58069000Y6297000D02*
X58081000Y6442000D01*
D12*
X60405000Y6714000D02*
X60400000Y6400000D01*
D12*
X59975000Y4773000D02*
X59900000Y4935000D01*
D12*
X57181000Y4345000D02*
X57192000Y4541000D01*
D12*
X55752000Y4019000D02*
X55669000Y4021000D01*
D12*
X58443000Y6699000D02*
X58468000Y6676000D01*
D12*
X59218000Y6810000D02*
X59243000Y6778000D01*
D12*
X56576000Y6532000D02*
X56637000Y6554000D01*
D12*
X60051000Y4935000D02*
X60054000Y5230000D01*
D12*
X56211000Y4059000D02*
X56095000Y4051000D01*
D12*
X55941000Y4262000D02*
X55975000Y4253000D01*
D12*
X59791000Y5148000D02*
X59695000Y5334000D01*
D12*
X57188000Y4235000D02*
X57181000Y4345000D01*
D12*
X55602000Y6229000D02*
X55601000Y6359000D01*
D12*
X59201000Y4398000D02*
X59132000Y4385000D01*
D12*
X58091000Y6289000D02*
X58069000Y6297000D01*
D12*
X57215000Y5430000D02*
X57203000Y5666000D01*
D12*
X59643000Y5442000D02*
X59424000Y5936000D01*
D12*
X60416000Y5610000D02*
X60428000Y5380000D01*
D12*
X56718000Y4197000D02*
X56650000Y4155000D01*
D12*
X56830000Y6535000D02*
X56832000Y5853000D01*
D12*
X57840000Y5447000D02*
X57840000Y5477000D01*
D12*
X58150000Y4585000D02*
X58161000Y4737000D01*
D12*
X60100000Y6913000D02*
X60158000Y6926000D01*
D12*
X56761000Y4242000D02*
X56718000Y4197000D01*
D12*
X55805000Y6460000D02*
X55865000Y6455000D01*
D12*
X58031000Y6616000D02*
X57955000Y6620000D01*
D12*
X57365000Y6628000D02*
X57459000Y6641000D01*
D12*
X60426000Y4621000D02*
X60417000Y4569000D01*
D12*
X56097000Y5011000D02*
X55977000Y4995000D01*
D12*
X58960000Y4367000D02*
X58960000Y4367000D01*
D12*
X57924000Y5386000D02*
X57880000Y5400000D01*
D12*
X56637000Y6554000D02*
X56705000Y6561000D01*
D12*
X56524000Y4725000D02*
X56526000Y4851000D01*
D12*
X59132000Y4385000D02*
X59040000Y4373000D01*
D12*
X57187000Y6410000D02*
X57197000Y6490000D01*
D12*
X60357000Y4519000D02*
X60284000Y4502000D01*
D12*
X55649000Y4526000D02*
X55680000Y4555000D01*
D12*
X59222000Y5800000D02*
X59232000Y5098000D01*
D12*
X56517000Y4953000D02*
X56503000Y5012000D01*
D12*
X60067000Y6899000D02*
X60100000Y6913000D01*
D12*
X56341000Y5252000D02*
X56478000Y5275000D01*
D12*
X60158000Y6926000D02*
X60304000Y6937000D01*
D12*
X56447000Y4309000D02*
X56465000Y4367000D01*
D12*
X56465000Y4367000D02*
X56493000Y4497000D01*
D12*
X57317000Y4195000D02*
X57317000Y4195000D01*
D12*
X58498000Y5153000D02*
X58511000Y4929000D01*
D12*
X55722000Y4575000D02*
X55798000Y4583000D01*
D12*
X58474000Y6628000D02*
X58470000Y6533000D01*
D12*
X57913000Y4323000D02*
X57996000Y4331000D01*
D12*
X57207000Y4703000D02*
X57215000Y4857000D01*
D12*
X56478000Y5275000D02*
X56487000Y5277000D01*
D12*
X58880000Y6778000D02*
X58940000Y6795000D01*
G75*
D11*
G03*
X31600000Y26910000D02*
X29600000Y26910000I-1000000J1500000D01*
D11*
G03*
X25100000Y30210000D02*
X27100000Y30210000I1000000J-1500000D01*
M02*
