%FSLAX46Y46*%
%MOMM*%
%AMPS15*
21,1,1.594948,2.741421,0.000000,0.000000,90.000000*
%
%ADD15PS15*%
%AMPS14*
21,1,1.594948,2.741421,0.000000,0.000000,270.000000*
%
%ADD14PS14*%
%AMPS12*
21,1,1.600000,2.950000,0.000000,0.000000,0.000000*
%
%ADD12PS12*%
%AMPS13*
21,1,1.600000,2.950000,0.000000,0.000000,180.000000*
%
%ADD13PS13*%
%AMPS16*
21,1,0.600000,1.550000,0.000000,0.000000,90.000000*
%
%ADD16PS16*%
%AMPS17*
21,1,0.600000,1.550000,0.000000,0.000000,270.000000*
%
%ADD17PS17*%
%AMPS27*
21,1,1.600000,2.500000,0.000000,0.000000,0.000000*
%
%ADD27PS27*%
%AMPS36*
21,1,1.600000,2.500000,0.000000,0.000000,90.000000*
%
%ADD36PS36*%
%AMPS26*
21,1,1.600000,2.500000,0.000000,0.000000,180.000000*
%
%ADD26PS26*%
%AMPS35*
21,1,1.600000,2.500000,0.000000,0.000000,270.000000*
%
%ADD35PS35*%
%AMPS31*
21,1,0.900000,1.000000,0.000000,0.000000,0.000000*
%
%ADD31PS31*%
%AMPS30*
21,1,0.900000,1.000000,0.000000,0.000000,180.000000*
%
%ADD30PS30*%
%AMPS33*
21,1,1.400000,1.100000,0.000000,0.000000,0.000000*
%
%ADD33PS33*%
%AMPS28*
21,1,1.400000,1.100000,0.000000,0.000000,90.000000*
%
%ADD28PS28*%
%AMPS32*
21,1,1.400000,1.100000,0.000000,0.000000,180.000000*
%
%ADD32PS32*%
%AMPS29*
21,1,1.400000,1.100000,0.000000,0.000000,270.000000*
%
%ADD29PS29*%
%AMPS34*
21,1,0.400000,1.900000,0.000000,0.000000,0.000000*
%
%ADD34PS34*%
%AMPS19*
21,1,0.900000,0.500000,0.000000,0.000000,0.000000*
%
%ADD19PS19*%
%AMPS11*
21,1,0.900000,0.500000,0.000000,0.000000,90.000000*
%
%ADD11PS11*%
%AMPS18*
21,1,0.900000,0.500000,0.000000,0.000000,180.000000*
%
%ADD18PS18*%
%AMPS10*
21,1,0.900000,0.500000,0.000000,0.000000,270.000000*
%
%ADD10PS10*%
%AMPS25*
21,1,1.700000,1.100000,0.000000,0.000000,90.000000*
%
%ADD25PS25*%
%AMPS24*
21,1,1.700000,1.100000,0.000000,0.000000,270.000000*
%
%ADD24PS24*%
%AMPS21*
21,1,0.850000,0.800000,0.000000,0.000000,0.000000*
%
%ADD21PS21*%
%AMPS22*
21,1,0.850000,0.800000,0.000000,0.000000,90.000000*
%
%ADD22PS22*%
%AMPS20*
21,1,0.850000,0.800000,0.000000,0.000000,180.000000*
%
%ADD20PS20*%
%AMPS23*
21,1,0.850000,0.800000,0.000000,0.000000,270.000000*
%
%ADD23PS23*%
G01*
%LPD*%
G01*
%LPD*%
G75*
D10*
X50000000Y38630000D03*
D11*
X51500000Y38630000D03*
D12*
X24150000Y9930000D03*
D13*
X24150000Y15130000D03*
D14*
X25700002Y34630000D03*
D15*
X30600000Y34630000D03*
D11*
X47760000Y36800000D03*
D10*
X46260000Y36800000D03*
D11*
X25800002Y38960000D03*
D10*
X24300002Y38960000D03*
D16*
X18090000Y54740000D03*
D16*
X18090000Y52190000D03*
D16*
X18090000Y50920000D03*
D17*
X12750000Y50920000D03*
D17*
X12750000Y53470000D03*
D16*
X18090000Y53470000D03*
D17*
X12750000Y54740000D03*
D17*
X12750000Y52190000D03*
D18*
X16500000Y45130000D03*
D19*
X16500000Y43630000D03*
D20*
X10580000Y53695000D03*
D21*
X10580000Y52195000D03*
D22*
X51500000Y40420000D03*
D23*
X50000000Y40420000D03*
D18*
X14670000Y45130000D03*
D19*
X14670000Y43630000D03*
D12*
X38050000Y9930000D03*
D13*
X38050000Y15130000D03*
D24*
X29500000Y9930000D03*
D25*
X32700000Y9930000D03*
D26*
X48110000Y49740000D03*
D27*
X48110000Y46440000D03*
D25*
X32700000Y13230000D03*
D24*
X29500000Y13230000D03*
D28*
X48060000Y38930000D03*
D29*
X46260000Y38930000D03*
D24*
X29500000Y16530000D03*
D25*
X32700000Y16530000D03*
D23*
X14670000Y48930000D03*
D22*
X16170000Y48930000D03*
D30*
X46210000Y43390000D03*
D31*
X47160000Y41190000D03*
D30*
X48110000Y43390000D03*
D18*
X51940000Y47940000D03*
D19*
X51940000Y46440000D03*
D22*
X16170000Y56730000D03*
D23*
X14670000Y56730000D03*
D32*
X8490000Y54180000D03*
D33*
X8490000Y52380000D03*
D10*
X8810000Y48570000D03*
D11*
X10310000Y48570000D03*
D11*
X10310000Y50400000D03*
D10*
X8810000Y50400000D03*
D34*
X34000000Y2060000D03*
D34*
X32000000Y2060000D03*
D34*
X30000000Y5560000D03*
D34*
X29000000Y2060000D03*
D34*
X36000000Y5560000D03*
D34*
X27000000Y2060000D03*
D34*
X32000000Y5560000D03*
D34*
X30000000Y2060000D03*
D34*
X31000000Y2060000D03*
D34*
X27000000Y5560000D03*
D34*
X35000000Y2060000D03*
D34*
X28000000Y5560000D03*
D34*
X31000000Y5560000D03*
D34*
X35000000Y5560000D03*
D34*
X28000000Y2060000D03*
D34*
X36000000Y2060000D03*
D34*
X29000000Y5560000D03*
D34*
X33000000Y5560000D03*
D34*
X34000000Y5560000D03*
D34*
X33000000Y2060000D03*
D21*
X20260000Y51970000D03*
D20*
X20260000Y53470000D03*
D23*
X30360002Y38960000D03*
D22*
X31860002Y38960000D03*
D35*
X7370000Y36930000D03*
D36*
X10670000Y36930000D03*
D15*
X11469999Y43630000D03*
D14*
X6570001Y43630000D03*
D19*
X6360000Y52680000D03*
D18*
X6360000Y54180000D03*
M02*
