%FSLAX46Y46*%
%MOMM*%
%AMPS10*
1,1,2.100000,0.000000,0.000000*
%
%ADD10PS10*%
%AMPS11*
1,1,1.600000,0.000000,0.000000*
%
%ADD11PS11*%
%AMPS15*
1,1,1.600000,0.000000,0.000000*
%
%ADD15PS15*%
%AMPS16*
1,1,1.600000,0.000000,0.000000*
%
%ADD16PS16*%
%AMPS13*
1,1,2.200000,0.000000,0.000000*
%
%ADD13PS13*%
%AMPS14*
1,1,1.200000,0.000000,0.000000*
%
%ADD14PS14*%
%AMPS12*
1,1,1.200000,0.000000,0.000000*
%
%ADD12PS12*%
%AMPS19*
1,1,1.400000,0.000000,0.000000*
%
%ADD19PS19*%
%AMPS18*
1,1,0.700000,0.000000,0.000000*
%
%ADD18PS18*%
%AMPS20*
1,1,0.900000,0.000000,0.000000*
%
%ADD20PS20*%
%AMPS17*
1,1,0.700000,0.000000,0.000000*
%
%ADD17PS17*%
G01*
%LPD*%
G36*
X62640000Y360000D02*
X62640000Y71040000D01*
X360000Y71040000D01*
X360000Y360000D01*
X62640000Y360000D01*
D02*
G37*
%LPC*%
G36*
X4500000Y60584643D02*
X4368140Y60591123D01*
X4237532Y60610496D01*
X4109471Y60642574D01*
X3985153Y60687055D01*
X3865802Y60743504D01*
X3752555Y60811381D01*
X3646521Y60890022D01*
X3548690Y60978690D01*
X3460022Y61076521D01*
X3381381Y61182555D01*
X3313504Y61295802D01*
X3257055Y61415153D01*
X3212574Y61539471D01*
X3180496Y61667532D01*
X3161123Y61798140D01*
X3154643Y61930000D01*
X3161123Y62061860D01*
X3180496Y62192468D01*
X3212574Y62320529D01*
X3257055Y62444847D01*
X3313504Y62564198D01*
X3381381Y62677445D01*
X3460022Y62783479D01*
X3548690Y62881310D01*
X3646521Y62969978D01*
X3752555Y63048619D01*
X3865802Y63116496D01*
X3985153Y63172945D01*
X4109471Y63217426D01*
X4237532Y63249504D01*
X4368140Y63268877D01*
X4500000Y63275357D01*
X4631860Y63268877D01*
X4762468Y63249504D01*
X4890529Y63217426D01*
X5014847Y63172945D01*
X5134198Y63116496D01*
X5247445Y63048619D01*
X5353479Y62969978D01*
X5451310Y62881310D01*
X5539978Y62783479D01*
X5618619Y62677445D01*
X5686496Y62564198D01*
X5742945Y62444847D01*
X5787426Y62320529D01*
X5819504Y62192468D01*
X5838877Y62061860D01*
X5845357Y61930000D01*
X5838877Y61798140D01*
X5819504Y61667532D01*
X5787426Y61539471D01*
X5742945Y61415153D01*
X5686496Y61295802D01*
X5618619Y61182555D01*
X5539978Y61076521D01*
X5451310Y60978690D01*
X5353479Y60890022D01*
X5247445Y60811381D01*
X5134198Y60743504D01*
X5014847Y60687055D01*
X4890529Y60642574D01*
X4762468Y60610496D01*
X4631860Y60591123D01*
X4500000Y60584643D01*
D02*
G37*
%LPC*%
G36*
X9500000Y60584643D02*
X9368140Y60591123D01*
X9237532Y60610496D01*
X9109471Y60642574D01*
X8985153Y60687055D01*
X8865802Y60743504D01*
X8752555Y60811381D01*
X8646521Y60890022D01*
X8548690Y60978690D01*
X8460022Y61076521D01*
X8381381Y61182555D01*
X8313504Y61295802D01*
X8257055Y61415153D01*
X8212574Y61539471D01*
X8180496Y61667532D01*
X8161123Y61798140D01*
X8154643Y61930000D01*
X8161123Y62061860D01*
X8180496Y62192468D01*
X8212574Y62320529D01*
X8257055Y62444847D01*
X8313504Y62564198D01*
X8381381Y62677445D01*
X8460022Y62783479D01*
X8548690Y62881310D01*
X8646521Y62969978D01*
X8752555Y63048619D01*
X8865802Y63116496D01*
X8985153Y63172945D01*
X9109471Y63217426D01*
X9237532Y63249504D01*
X9368140Y63268877D01*
X9500000Y63275357D01*
X9631860Y63268877D01*
X9762468Y63249504D01*
X9890529Y63217426D01*
X10014847Y63172945D01*
X10134198Y63116496D01*
X10247445Y63048619D01*
X10353479Y62969978D01*
X10451310Y62881310D01*
X10539978Y62783479D01*
X10618619Y62677445D01*
X10686496Y62564198D01*
X10742945Y62444847D01*
X10787426Y62320529D01*
X10819504Y62192468D01*
X10838877Y62061860D01*
X10845357Y61930000D01*
X10838877Y61798140D01*
X10819504Y61667532D01*
X10787426Y61539471D01*
X10742945Y61415153D01*
X10686496Y61295802D01*
X10618619Y61182555D01*
X10539978Y61076521D01*
X10451310Y60978690D01*
X10353479Y60890022D01*
X10247445Y60811381D01*
X10134198Y60743504D01*
X10014847Y60687055D01*
X9890529Y60642574D01*
X9762468Y60610496D01*
X9631860Y60591123D01*
X9500000Y60584643D01*
D02*
G37*
%LPC*%
G36*
X14500000Y60584643D02*
X14368140Y60591123D01*
X14237532Y60610496D01*
X14109471Y60642574D01*
X13985153Y60687055D01*
X13865802Y60743504D01*
X13752555Y60811381D01*
X13646521Y60890022D01*
X13548690Y60978690D01*
X13460022Y61076521D01*
X13381381Y61182555D01*
X13313504Y61295802D01*
X13257055Y61415153D01*
X13212574Y61539471D01*
X13180496Y61667532D01*
X13161123Y61798140D01*
X13154643Y61930000D01*
X13161123Y62061860D01*
X13180496Y62192468D01*
X13212574Y62320529D01*
X13257055Y62444847D01*
X13313504Y62564198D01*
X13381381Y62677445D01*
X13460022Y62783479D01*
X13548690Y62881310D01*
X13646521Y62969978D01*
X13752555Y63048619D01*
X13865802Y63116496D01*
X13985153Y63172945D01*
X14109471Y63217426D01*
X14237532Y63249504D01*
X14368140Y63268877D01*
X14500000Y63275357D01*
X14631860Y63268877D01*
X14762468Y63249504D01*
X14890529Y63217426D01*
X15014847Y63172945D01*
X15134198Y63116496D01*
X15247445Y63048619D01*
X15353479Y62969978D01*
X15451310Y62881310D01*
X15539978Y62783479D01*
X15618619Y62677445D01*
X15686496Y62564198D01*
X15742945Y62444847D01*
X15787426Y62320529D01*
X15819504Y62192468D01*
X15838877Y62061860D01*
X15845357Y61930000D01*
X15838877Y61798140D01*
X15819504Y61667532D01*
X15787426Y61539471D01*
X15742945Y61415153D01*
X15686496Y61295802D01*
X15618619Y61182555D01*
X15539978Y61076521D01*
X15451310Y60978690D01*
X15353479Y60890022D01*
X15247445Y60811381D01*
X15134198Y60743504D01*
X15014847Y60687055D01*
X14890529Y60642574D01*
X14762468Y60610496D01*
X14631860Y60591123D01*
X14500000Y60584643D01*
D02*
G37*
%LPC*%
G36*
X48500000Y60584643D02*
X48368140Y60591123D01*
X48237532Y60610496D01*
X48109471Y60642574D01*
X47985153Y60687055D01*
X47865802Y60743504D01*
X47752555Y60811381D01*
X47646521Y60890022D01*
X47548690Y60978690D01*
X47460022Y61076521D01*
X47381381Y61182555D01*
X47313504Y61295802D01*
X47257055Y61415153D01*
X47212574Y61539471D01*
X47180496Y61667532D01*
X47161123Y61798140D01*
X47154643Y61930000D01*
X47161123Y62061860D01*
X47180496Y62192468D01*
X47212574Y62320529D01*
X47257055Y62444847D01*
X47313504Y62564198D01*
X47381381Y62677445D01*
X47460022Y62783479D01*
X47548690Y62881310D01*
X47646521Y62969978D01*
X47752555Y63048619D01*
X47865802Y63116496D01*
X47985153Y63172945D01*
X48109471Y63217426D01*
X48237532Y63249504D01*
X48368140Y63268877D01*
X48500000Y63275357D01*
X48631860Y63268877D01*
X48762468Y63249504D01*
X48890529Y63217426D01*
X49014847Y63172945D01*
X49134198Y63116496D01*
X49247445Y63048619D01*
X49353479Y62969978D01*
X49451310Y62881310D01*
X49539978Y62783479D01*
X49618619Y62677445D01*
X49686496Y62564198D01*
X49742945Y62444847D01*
X49787426Y62320529D01*
X49819504Y62192468D01*
X49838877Y62061860D01*
X49845357Y61930000D01*
X49838877Y61798140D01*
X49819504Y61667532D01*
X49787426Y61539471D01*
X49742945Y61415153D01*
X49686496Y61295802D01*
X49618619Y61182555D01*
X49539978Y61076521D01*
X49451310Y60978690D01*
X49353479Y60890022D01*
X49247445Y60811381D01*
X49134198Y60743504D01*
X49014847Y60687055D01*
X48890529Y60642574D01*
X48762468Y60610496D01*
X48631860Y60591123D01*
X48500000Y60584643D01*
D02*
G37*
%LPC*%
G36*
X53500000Y60584643D02*
X53368140Y60591123D01*
X53237532Y60610496D01*
X53109471Y60642574D01*
X52985153Y60687055D01*
X52865802Y60743504D01*
X52752555Y60811381D01*
X52646521Y60890022D01*
X52548690Y60978690D01*
X52460022Y61076521D01*
X52381381Y61182555D01*
X52313504Y61295802D01*
X52257055Y61415153D01*
X52212574Y61539471D01*
X52180496Y61667532D01*
X52161123Y61798140D01*
X52154643Y61930000D01*
X52161123Y62061860D01*
X52180496Y62192468D01*
X52212574Y62320529D01*
X52257055Y62444847D01*
X52313504Y62564198D01*
X52381381Y62677445D01*
X52460022Y62783479D01*
X52548690Y62881310D01*
X52646521Y62969978D01*
X52752555Y63048619D01*
X52865802Y63116496D01*
X52985153Y63172945D01*
X53109471Y63217426D01*
X53237532Y63249504D01*
X53368140Y63268877D01*
X53500000Y63275357D01*
X53631860Y63268877D01*
X53762468Y63249504D01*
X53890529Y63217426D01*
X54014847Y63172945D01*
X54134198Y63116496D01*
X54247445Y63048619D01*
X54353479Y62969978D01*
X54451310Y62881310D01*
X54539978Y62783479D01*
X54618619Y62677445D01*
X54686496Y62564198D01*
X54742945Y62444847D01*
X54787426Y62320529D01*
X54819504Y62192468D01*
X54838877Y62061860D01*
X54845357Y61930000D01*
X54838877Y61798140D01*
X54819504Y61667532D01*
X54787426Y61539471D01*
X54742945Y61415153D01*
X54686496Y61295802D01*
X54618619Y61182555D01*
X54539978Y61076521D01*
X54451310Y60978690D01*
X54353479Y60890022D01*
X54247445Y60811381D01*
X54134198Y60743504D01*
X54014847Y60687055D01*
X53890529Y60642574D01*
X53762468Y60610496D01*
X53631860Y60591123D01*
X53500000Y60584643D01*
D02*
G37*
%LPC*%
G36*
X22060000Y52564753D02*
X21971268Y52569113D01*
X21883388Y52582149D01*
X21797224Y52603731D01*
X21713579Y52633661D01*
X21633263Y52671648D01*
X21557079Y52717310D01*
X21485715Y52770237D01*
X21419894Y52829894D01*
X21360237Y52895715D01*
X21307310Y52967079D01*
X21261648Y53043263D01*
X21223661Y53123579D01*
X21193731Y53207224D01*
X21172149Y53293388D01*
X21159113Y53381268D01*
X21154753Y53470000D01*
X21159113Y53558732D01*
X21172149Y53646612D01*
X21193731Y53732776D01*
X21223661Y53816421D01*
X21261648Y53896737D01*
X21307310Y53972921D01*
X21360237Y54044285D01*
X21419894Y54110106D01*
X21485715Y54169763D01*
X21557079Y54222690D01*
X21633263Y54268352D01*
X21713579Y54306339D01*
X21797224Y54336269D01*
X21883388Y54357851D01*
X21971268Y54370887D01*
X22060000Y54375247D01*
X22148732Y54370887D01*
X22236612Y54357851D01*
X22322776Y54336269D01*
X22406421Y54306339D01*
X22486737Y54268352D01*
X22562921Y54222690D01*
X22634285Y54169763D01*
X22700106Y54110106D01*
X22759763Y54044285D01*
X22812690Y53972921D01*
X22858352Y53896737D01*
X22896339Y53816421D01*
X22926269Y53732776D01*
X22947851Y53646612D01*
X22960887Y53558732D01*
X22965247Y53470000D01*
X22960887Y53381268D01*
X22947851Y53293388D01*
X22926269Y53207224D01*
X22896339Y53123579D01*
X22858352Y53043263D01*
X22812690Y52967079D01*
X22759763Y52895715D01*
X22700106Y52829894D01*
X22634285Y52770237D01*
X22562921Y52717310D01*
X22486737Y52671648D01*
X22406421Y52633661D01*
X22322776Y52603731D01*
X22236612Y52582149D01*
X22148732Y52569113D01*
X22060000Y52564753D01*
D02*
G37*
%LPC*%
G36*
X14670000Y52814753D02*
X14605774Y52817909D01*
X14542167Y52827345D01*
X14479790Y52842968D01*
X14419243Y52864634D01*
X14361122Y52892123D01*
X14305966Y52925182D01*
X14254316Y52963488D01*
X14206670Y53006670D01*
X14163488Y53054316D01*
X14125182Y53105966D01*
X14092123Y53161122D01*
X14064634Y53219243D01*
X14042968Y53279790D01*
X14027345Y53342167D01*
X14017909Y53405774D01*
X14014753Y53470000D01*
X14017909Y53534226D01*
X14027345Y53597833D01*
X14042968Y53660210D01*
X14064634Y53720757D01*
X14092123Y53778878D01*
X14125182Y53834034D01*
X14163488Y53885684D01*
X14206670Y53933330D01*
X14254316Y53976512D01*
X14305966Y54014818D01*
X14361122Y54047877D01*
X14419243Y54075366D01*
X14479790Y54097032D01*
X14542167Y54112655D01*
X14605774Y54122091D01*
X14670000Y54125247D01*
X14734226Y54122091D01*
X14797833Y54112655D01*
X14860210Y54097032D01*
X14920757Y54075366D01*
X14978878Y54047877D01*
X15034034Y54014818D01*
X15085684Y53976512D01*
X15133330Y53933330D01*
X15176512Y53885684D01*
X15214818Y53834034D01*
X15247877Y53778878D01*
X15275366Y53720757D01*
X15297032Y53660210D01*
X15312655Y53597833D01*
X15322091Y53534226D01*
X15325247Y53470000D01*
X15322091Y53405774D01*
X15312655Y53342167D01*
X15297032Y53279790D01*
X15275366Y53219243D01*
X15247877Y53161122D01*
X15214818Y53105966D01*
X15176512Y53054316D01*
X15133330Y53006670D01*
X15085684Y52963488D01*
X15034034Y52925182D01*
X14978878Y52892123D01*
X14920757Y52864634D01*
X14860210Y52842968D01*
X14797833Y52827345D01*
X14734226Y52817909D01*
X14670000Y52814753D01*
D02*
G37*
%LPC*%
G36*
X26420000Y51934643D02*
X26332247Y51938956D01*
X26245323Y51951849D01*
X26160093Y51973198D01*
X26077360Y52002801D01*
X25997930Y52040368D01*
X25922567Y52085540D01*
X25851991Y52137881D01*
X25786887Y52196887D01*
X25727881Y52261991D01*
X25675540Y52332567D01*
X25630368Y52407930D01*
X25592801Y52487360D01*
X25563198Y52570093D01*
X25541849Y52655323D01*
X25528956Y52742247D01*
X25524643Y52830000D01*
X25528956Y52917753D01*
X25541849Y53004677D01*
X25563198Y53089907D01*
X25592801Y53172640D01*
X25630368Y53252070D01*
X25675540Y53327433D01*
X25727881Y53398009D01*
X25786887Y53463113D01*
X25851991Y53522119D01*
X25922567Y53574460D01*
X25997930Y53619632D01*
X26077360Y53657199D01*
X26160093Y53686802D01*
X26245323Y53708151D01*
X26332247Y53721044D01*
X26420000Y53725357D01*
X26507753Y53721044D01*
X26594677Y53708151D01*
X26679907Y53686802D01*
X26762640Y53657199D01*
X26842070Y53619632D01*
X26917433Y53574460D01*
X26988009Y53522119D01*
X27053113Y53463113D01*
X27112119Y53398009D01*
X27164460Y53327433D01*
X27209632Y53252070D01*
X27247199Y53172640D01*
X27276802Y53089907D01*
X27298151Y53004677D01*
X27311044Y52917753D01*
X27315357Y52830000D01*
X27311044Y52742247D01*
X27298151Y52655323D01*
X27276802Y52570093D01*
X27247199Y52487360D01*
X27209632Y52407930D01*
X27164460Y52332567D01*
X27112119Y52261991D01*
X27053113Y52196887D01*
X26988009Y52137881D01*
X26917433Y52085540D01*
X26842070Y52040368D01*
X26762640Y52002801D01*
X26679907Y51973198D01*
X26594677Y51951849D01*
X26507753Y51938956D01*
X26420000Y51934643D01*
D02*
G37*
%LPC*%
G36*
X29220000Y51934643D02*
X29132247Y51938956D01*
X29045323Y51951849D01*
X28960093Y51973198D01*
X28877360Y52002801D01*
X28797930Y52040368D01*
X28722567Y52085540D01*
X28651991Y52137881D01*
X28586887Y52196887D01*
X28527881Y52261991D01*
X28475540Y52332567D01*
X28430368Y52407930D01*
X28392801Y52487360D01*
X28363198Y52570093D01*
X28341849Y52655323D01*
X28328956Y52742247D01*
X28324643Y52830000D01*
X28328956Y52917753D01*
X28341849Y53004677D01*
X28363198Y53089907D01*
X28392801Y53172640D01*
X28430368Y53252070D01*
X28475540Y53327433D01*
X28527881Y53398009D01*
X28586887Y53463113D01*
X28651991Y53522119D01*
X28722567Y53574460D01*
X28797930Y53619632D01*
X28877360Y53657199D01*
X28960093Y53686802D01*
X29045323Y53708151D01*
X29132247Y53721044D01*
X29220000Y53725357D01*
X29307753Y53721044D01*
X29394677Y53708151D01*
X29479907Y53686802D01*
X29562640Y53657199D01*
X29642070Y53619632D01*
X29717433Y53574460D01*
X29788009Y53522119D01*
X29853113Y53463113D01*
X29912119Y53398009D01*
X29964460Y53327433D01*
X30009632Y53252070D01*
X30047199Y53172640D01*
X30076802Y53089907D01*
X30098151Y53004677D01*
X30111044Y52917753D01*
X30115357Y52830000D01*
X30111044Y52742247D01*
X30098151Y52655323D01*
X30076802Y52570093D01*
X30047199Y52487360D01*
X30009632Y52407930D01*
X29964460Y52332567D01*
X29912119Y52261991D01*
X29853113Y52196887D01*
X29788009Y52137881D01*
X29717433Y52085540D01*
X29642070Y52040368D01*
X29562640Y52002801D01*
X29479907Y51973198D01*
X29394677Y51951849D01*
X29307753Y51938956D01*
X29220000Y51934643D01*
D02*
G37*
%LPC*%
G36*
X33780000Y51934643D02*
X33692247Y51938956D01*
X33605323Y51951849D01*
X33520093Y51973198D01*
X33437360Y52002801D01*
X33357930Y52040368D01*
X33282567Y52085540D01*
X33211991Y52137881D01*
X33146887Y52196887D01*
X33087881Y52261991D01*
X33035540Y52332567D01*
X32990368Y52407930D01*
X32952801Y52487360D01*
X32923198Y52570093D01*
X32901849Y52655323D01*
X32888956Y52742247D01*
X32884643Y52830000D01*
X32888956Y52917753D01*
X32901849Y53004677D01*
X32923198Y53089907D01*
X32952801Y53172640D01*
X32990368Y53252070D01*
X33035540Y53327433D01*
X33087881Y53398009D01*
X33146887Y53463113D01*
X33211991Y53522119D01*
X33282567Y53574460D01*
X33357930Y53619632D01*
X33437360Y53657199D01*
X33520093Y53686802D01*
X33605323Y53708151D01*
X33692247Y53721044D01*
X33780000Y53725357D01*
X33867753Y53721044D01*
X33954677Y53708151D01*
X34039907Y53686802D01*
X34122640Y53657199D01*
X34202070Y53619632D01*
X34277433Y53574460D01*
X34348009Y53522119D01*
X34413113Y53463113D01*
X34472119Y53398009D01*
X34524460Y53327433D01*
X34569632Y53252070D01*
X34607199Y53172640D01*
X34636802Y53089907D01*
X34658151Y53004677D01*
X34671044Y52917753D01*
X34675357Y52830000D01*
X34671044Y52742247D01*
X34658151Y52655323D01*
X34636802Y52570093D01*
X34607199Y52487360D01*
X34569632Y52407930D01*
X34524460Y52332567D01*
X34472119Y52261991D01*
X34413113Y52196887D01*
X34348009Y52137881D01*
X34277433Y52085540D01*
X34202070Y52040368D01*
X34122640Y52002801D01*
X34039907Y51973198D01*
X33954677Y51951849D01*
X33867753Y51938956D01*
X33780000Y51934643D01*
D02*
G37*
%LPC*%
G36*
X36580000Y51934643D02*
X36492247Y51938956D01*
X36405323Y51951849D01*
X36320093Y51973198D01*
X36237360Y52002801D01*
X36157930Y52040368D01*
X36082567Y52085540D01*
X36011991Y52137881D01*
X35946887Y52196887D01*
X35887881Y52261991D01*
X35835540Y52332567D01*
X35790368Y52407930D01*
X35752801Y52487360D01*
X35723198Y52570093D01*
X35701849Y52655323D01*
X35688956Y52742247D01*
X35684643Y52830000D01*
X35688956Y52917753D01*
X35701849Y53004677D01*
X35723198Y53089907D01*
X35752801Y53172640D01*
X35790368Y53252070D01*
X35835540Y53327433D01*
X35887881Y53398009D01*
X35946887Y53463113D01*
X36011991Y53522119D01*
X36082567Y53574460D01*
X36157930Y53619632D01*
X36237360Y53657199D01*
X36320093Y53686802D01*
X36405323Y53708151D01*
X36492247Y53721044D01*
X36580000Y53725357D01*
X36667753Y53721044D01*
X36754677Y53708151D01*
X36839907Y53686802D01*
X36922640Y53657199D01*
X37002070Y53619632D01*
X37077433Y53574460D01*
X37148009Y53522119D01*
X37213113Y53463113D01*
X37272119Y53398009D01*
X37324460Y53327433D01*
X37369632Y53252070D01*
X37407199Y53172640D01*
X37436802Y53089907D01*
X37458151Y53004677D01*
X37471044Y52917753D01*
X37475357Y52830000D01*
X37471044Y52742247D01*
X37458151Y52655323D01*
X37436802Y52570093D01*
X37407199Y52487360D01*
X37369632Y52407930D01*
X37324460Y52332567D01*
X37272119Y52261991D01*
X37213113Y52196887D01*
X37148009Y52137881D01*
X37077433Y52085540D01*
X37002070Y52040368D01*
X36922640Y52002801D01*
X36839907Y51973198D01*
X36754677Y51951849D01*
X36667753Y51938956D01*
X36580000Y51934643D01*
D02*
G37*
%LPC*%
G36*
X16170000Y51534753D02*
X16105774Y51537909D01*
X16042167Y51547345D01*
X15979790Y51562968D01*
X15919243Y51584634D01*
X15861122Y51612123D01*
X15805966Y51645182D01*
X15754316Y51683488D01*
X15706670Y51726670D01*
X15663488Y51774316D01*
X15625182Y51825966D01*
X15592123Y51881122D01*
X15564634Y51939243D01*
X15542968Y51999790D01*
X15527345Y52062167D01*
X15517909Y52125774D01*
X15514753Y52190000D01*
X15517909Y52254226D01*
X15527345Y52317833D01*
X15542968Y52380210D01*
X15564634Y52440757D01*
X15592123Y52498878D01*
X15625182Y52554034D01*
X15663488Y52605684D01*
X15706670Y52653330D01*
X15754316Y52696512D01*
X15805966Y52734818D01*
X15861122Y52767877D01*
X15919243Y52795366D01*
X15979790Y52817032D01*
X16042167Y52832655D01*
X16105774Y52842091D01*
X16170000Y52845247D01*
X16234226Y52842091D01*
X16297833Y52832655D01*
X16360210Y52817032D01*
X16420757Y52795366D01*
X16478878Y52767877D01*
X16534034Y52734818D01*
X16585684Y52696512D01*
X16633330Y52653330D01*
X16676512Y52605684D01*
X16714818Y52554034D01*
X16747877Y52498878D01*
X16775366Y52440757D01*
X16797032Y52380210D01*
X16812655Y52317833D01*
X16822091Y52254226D01*
X16825247Y52190000D01*
X16822091Y52125774D01*
X16812655Y52062167D01*
X16797032Y51999790D01*
X16775366Y51939243D01*
X16747877Y51881122D01*
X16714818Y51825966D01*
X16676512Y51774316D01*
X16633330Y51726670D01*
X16585684Y51683488D01*
X16534034Y51645182D01*
X16478878Y51612123D01*
X16420757Y51584634D01*
X16360210Y51562968D01*
X16297833Y51547345D01*
X16234226Y51537909D01*
X16170000Y51534753D01*
D02*
G37*
%LPC*%
G36*
X36580000Y46534645D02*
X36443231Y46541364D01*
X36307774Y46561458D01*
X36174948Y46594729D01*
X36046023Y46640859D01*
X35922236Y46699406D01*
X35804784Y46769804D01*
X35694794Y46851378D01*
X35593335Y46943335D01*
X35501378Y47044794D01*
X35419804Y47154784D01*
X35349406Y47272236D01*
X35290859Y47396023D01*
X35244729Y47524948D01*
X35211458Y47657774D01*
X35191364Y47793231D01*
X35184645Y47930000D01*
X35191364Y48066769D01*
X35211458Y48202226D01*
X35244729Y48335052D01*
X35290859Y48463977D01*
X35349406Y48587764D01*
X35419804Y48705216D01*
X35501378Y48815206D01*
X35593335Y48916665D01*
X35694794Y49008622D01*
X35804784Y49090196D01*
X35922236Y49160594D01*
X36046023Y49219141D01*
X36174948Y49265271D01*
X36307774Y49298542D01*
X36443231Y49318636D01*
X36580000Y49325355D01*
X36716769Y49318636D01*
X36852226Y49298542D01*
X36985052Y49265271D01*
X37113977Y49219141D01*
X37237764Y49160594D01*
X37355216Y49090196D01*
X37465206Y49008622D01*
X37566665Y48916665D01*
X37658622Y48815206D01*
X37740196Y48705216D01*
X37810594Y48587764D01*
X37869141Y48463977D01*
X37915271Y48335052D01*
X37948542Y48202226D01*
X37968636Y48066769D01*
X37975355Y47930000D01*
X37968636Y47793231D01*
X37948542Y47657774D01*
X37915271Y47524948D01*
X37869141Y47396023D01*
X37810594Y47272236D01*
X37740196Y47154784D01*
X37658622Y47044794D01*
X37566665Y46943335D01*
X37465206Y46851378D01*
X37355216Y46769804D01*
X37237764Y46699406D01*
X37113977Y46640859D01*
X36985052Y46594729D01*
X36852226Y46561458D01*
X36716769Y46541364D01*
X36580000Y46534645D01*
D02*
G37*
%LPC*%
G36*
X26420000Y46534645D02*
X26283231Y46541364D01*
X26147774Y46561458D01*
X26014948Y46594729D01*
X25886023Y46640859D01*
X25762236Y46699406D01*
X25644784Y46769804D01*
X25534794Y46851378D01*
X25433335Y46943335D01*
X25341378Y47044794D01*
X25259804Y47154784D01*
X25189406Y47272236D01*
X25130859Y47396023D01*
X25084729Y47524948D01*
X25051458Y47657774D01*
X25031364Y47793231D01*
X25024645Y47930000D01*
X25031364Y48066769D01*
X25051458Y48202226D01*
X25084729Y48335052D01*
X25130859Y48463977D01*
X25189406Y48587764D01*
X25259804Y48705216D01*
X25341378Y48815206D01*
X25433335Y48916665D01*
X25534794Y49008622D01*
X25644784Y49090196D01*
X25762236Y49160594D01*
X25886023Y49219141D01*
X26014948Y49265271D01*
X26147774Y49298542D01*
X26283231Y49318636D01*
X26420000Y49325355D01*
X26556769Y49318636D01*
X26692226Y49298542D01*
X26825052Y49265271D01*
X26953977Y49219141D01*
X27077764Y49160594D01*
X27195216Y49090196D01*
X27305206Y49008622D01*
X27406665Y48916665D01*
X27498622Y48815206D01*
X27580196Y48705216D01*
X27650594Y48587764D01*
X27709141Y48463977D01*
X27755271Y48335052D01*
X27788542Y48202226D01*
X27808636Y48066769D01*
X27815355Y47930000D01*
X27808636Y47793231D01*
X27788542Y47657774D01*
X27755271Y47524948D01*
X27709141Y47396023D01*
X27650594Y47272236D01*
X27580196Y47154784D01*
X27498622Y47044794D01*
X27406665Y46943335D01*
X27305206Y46851378D01*
X27195216Y46769804D01*
X27077764Y46699406D01*
X26953977Y46640859D01*
X26825052Y46594729D01*
X26692226Y46561458D01*
X26556769Y46541364D01*
X26420000Y46534645D01*
D02*
G37*
%LPC*%
G36*
X31500000Y46534645D02*
X31363231Y46541364D01*
X31227774Y46561458D01*
X31094948Y46594729D01*
X30966023Y46640859D01*
X30842236Y46699406D01*
X30724784Y46769804D01*
X30614794Y46851378D01*
X30513335Y46943335D01*
X30421378Y47044794D01*
X30339804Y47154784D01*
X30269406Y47272236D01*
X30210859Y47396023D01*
X30164729Y47524948D01*
X30131458Y47657774D01*
X30111364Y47793231D01*
X30104645Y47930000D01*
X30111364Y48066769D01*
X30131458Y48202226D01*
X30164729Y48335052D01*
X30210859Y48463977D01*
X30269406Y48587764D01*
X30339804Y48705216D01*
X30421378Y48815206D01*
X30513335Y48916665D01*
X30614794Y49008622D01*
X30724784Y49090196D01*
X30842236Y49160594D01*
X30966023Y49219141D01*
X31094948Y49265271D01*
X31227774Y49298542D01*
X31363231Y49318636D01*
X31500000Y49325355D01*
X31636769Y49318636D01*
X31772226Y49298542D01*
X31905052Y49265271D01*
X32033977Y49219141D01*
X32157764Y49160594D01*
X32275216Y49090196D01*
X32385206Y49008622D01*
X32486665Y48916665D01*
X32578622Y48815206D01*
X32660196Y48705216D01*
X32730594Y48587764D01*
X32789141Y48463977D01*
X32835271Y48335052D01*
X32868542Y48202226D01*
X32888636Y48066769D01*
X32895355Y47930000D01*
X32888636Y47793231D01*
X32868542Y47657774D01*
X32835271Y47524948D01*
X32789141Y47396023D01*
X32730594Y47272236D01*
X32660196Y47154784D01*
X32578622Y47044794D01*
X32486665Y46943335D01*
X32385206Y46851378D01*
X32275216Y46769804D01*
X32157764Y46699406D01*
X32033977Y46640859D01*
X31905052Y46594729D01*
X31772226Y46561458D01*
X31636769Y46541364D01*
X31500000Y46534645D01*
D02*
G37*
%LPC*%
G36*
X10310000Y45864753D02*
X10221268Y45869113D01*
X10133388Y45882149D01*
X10047224Y45903731D01*
X9963579Y45933661D01*
X9883263Y45971648D01*
X9807079Y46017310D01*
X9735715Y46070237D01*
X9669894Y46129894D01*
X9610237Y46195715D01*
X9557310Y46267079D01*
X9511648Y46343263D01*
X9473661Y46423579D01*
X9443731Y46507224D01*
X9422149Y46593388D01*
X9409113Y46681268D01*
X9404753Y46770000D01*
X9409113Y46858732D01*
X9422149Y46946612D01*
X9443731Y47032776D01*
X9473661Y47116421D01*
X9511648Y47196737D01*
X9557310Y47272921D01*
X9610237Y47344285D01*
X9669894Y47410106D01*
X9735715Y47469763D01*
X9807079Y47522690D01*
X9883263Y47568352D01*
X9963579Y47606339D01*
X10047224Y47636269D01*
X10133388Y47657851D01*
X10221268Y47670887D01*
X10310000Y47675247D01*
X10398732Y47670887D01*
X10486612Y47657851D01*
X10572776Y47636269D01*
X10656421Y47606339D01*
X10736737Y47568352D01*
X10812921Y47522690D01*
X10884285Y47469763D01*
X10950106Y47410106D01*
X11009763Y47344285D01*
X11062690Y47272921D01*
X11108352Y47196737D01*
X11146339Y47116421D01*
X11176269Y47032776D01*
X11197851Y46946612D01*
X11210887Y46858732D01*
X11215247Y46770000D01*
X11210887Y46681268D01*
X11197851Y46593388D01*
X11176269Y46507224D01*
X11146339Y46423579D01*
X11108352Y46343263D01*
X11062690Y46267079D01*
X11009763Y46195715D01*
X10950106Y46129894D01*
X10884285Y46070237D01*
X10812921Y46017310D01*
X10736737Y45971648D01*
X10656421Y45933661D01*
X10572776Y45903731D01*
X10486612Y45882149D01*
X10398732Y45869113D01*
X10310000Y45864753D01*
D02*
G37*
%LPC*%
G36*
X49910000Y42484753D02*
X49821268Y42489113D01*
X49733388Y42502149D01*
X49647224Y42523731D01*
X49563579Y42553661D01*
X49483263Y42591648D01*
X49407079Y42637310D01*
X49335715Y42690237D01*
X49269894Y42749894D01*
X49210237Y42815715D01*
X49157310Y42887079D01*
X49111648Y42963263D01*
X49073661Y43043579D01*
X49043731Y43127224D01*
X49022149Y43213388D01*
X49009113Y43301268D01*
X49004753Y43390000D01*
X49009113Y43478732D01*
X49022149Y43566612D01*
X49043731Y43652776D01*
X49073661Y43736421D01*
X49111648Y43816737D01*
X49157310Y43892921D01*
X49210237Y43964285D01*
X49269894Y44030106D01*
X49335715Y44089763D01*
X49407079Y44142690D01*
X49483263Y44188352D01*
X49563579Y44226339D01*
X49647224Y44256269D01*
X49733388Y44277851D01*
X49821268Y44290887D01*
X49910000Y44295247D01*
X49998732Y44290887D01*
X50086612Y44277851D01*
X50172776Y44256269D01*
X50256421Y44226339D01*
X50336737Y44188352D01*
X50412921Y44142690D01*
X50484285Y44089763D01*
X50550106Y44030106D01*
X50609763Y43964285D01*
X50662690Y43892921D01*
X50708352Y43816737D01*
X50746339Y43736421D01*
X50776269Y43652776D01*
X50797851Y43566612D01*
X50810887Y43478732D01*
X50815247Y43390000D01*
X50810887Y43301268D01*
X50797851Y43213388D01*
X50776269Y43127224D01*
X50746339Y43043579D01*
X50708352Y42963263D01*
X50662690Y42887079D01*
X50609763Y42815715D01*
X50550106Y42749894D01*
X50484285Y42690237D01*
X50412921Y42637310D01*
X50336737Y42591648D01*
X50256421Y42553661D01*
X50172776Y42523731D01*
X50086612Y42502149D01*
X49998732Y42489113D01*
X49910000Y42484753D01*
D02*
G37*
%LPC*%
G36*
X34200000Y36034643D02*
X34092644Y36039919D01*
X33986304Y36055692D01*
X33882032Y36081811D01*
X33780829Y36118022D01*
X33683655Y36163982D01*
X33591454Y36219245D01*
X33505113Y36283280D01*
X33425467Y36355467D01*
X33353280Y36435113D01*
X33289245Y36521454D01*
X33233982Y36613655D01*
X33188022Y36710829D01*
X33151811Y36812032D01*
X33125692Y36916304D01*
X33109919Y37022644D01*
X33104643Y37130000D01*
X33109919Y37237356D01*
X33125692Y37343696D01*
X33151811Y37447968D01*
X33188022Y37549171D01*
X33233982Y37646345D01*
X33289245Y37738546D01*
X33353280Y37824887D01*
X33425467Y37904533D01*
X33505113Y37976720D01*
X33591454Y38040755D01*
X33683655Y38096018D01*
X33780829Y38141978D01*
X33882032Y38178189D01*
X33986304Y38204308D01*
X34092644Y38220081D01*
X34200000Y38225357D01*
X34307356Y38220081D01*
X34413696Y38204308D01*
X34517968Y38178189D01*
X34619171Y38141978D01*
X34716345Y38096018D01*
X34808546Y38040755D01*
X34894887Y37976720D01*
X34974533Y37904533D01*
X35046720Y37824887D01*
X35110755Y37738546D01*
X35166018Y37646345D01*
X35211978Y37549171D01*
X35248189Y37447968D01*
X35274308Y37343696D01*
X35290081Y37237356D01*
X35295357Y37130000D01*
X35290081Y37022644D01*
X35274308Y36916304D01*
X35248189Y36812032D01*
X35211978Y36710829D01*
X35166018Y36613655D01*
X35110755Y36521454D01*
X35046720Y36435113D01*
X34974533Y36355467D01*
X34894887Y36283280D01*
X34808546Y36219245D01*
X34716345Y36163982D01*
X34619171Y36118022D01*
X34517968Y36081811D01*
X34413696Y36055692D01*
X34307356Y36039919D01*
X34200000Y36034643D01*
D02*
G37*
%LPC*%
G36*
X34200000Y33534643D02*
X34092644Y33539919D01*
X33986304Y33555692D01*
X33882032Y33581811D01*
X33780829Y33618022D01*
X33683655Y33663982D01*
X33591454Y33719245D01*
X33505113Y33783280D01*
X33425467Y33855467D01*
X33353280Y33935113D01*
X33289245Y34021454D01*
X33233982Y34113655D01*
X33188022Y34210829D01*
X33151811Y34312032D01*
X33125692Y34416304D01*
X33109919Y34522644D01*
X33104643Y34630000D01*
X33109919Y34737356D01*
X33125692Y34843696D01*
X33151811Y34947968D01*
X33188022Y35049171D01*
X33233982Y35146345D01*
X33289245Y35238546D01*
X33353280Y35324887D01*
X33425467Y35404533D01*
X33505113Y35476720D01*
X33591454Y35540755D01*
X33683655Y35596018D01*
X33780829Y35641978D01*
X33882032Y35678189D01*
X33986304Y35704308D01*
X34092644Y35720081D01*
X34200000Y35725357D01*
X34307356Y35720081D01*
X34413696Y35704308D01*
X34517968Y35678189D01*
X34619171Y35641978D01*
X34716345Y35596018D01*
X34808546Y35540755D01*
X34894887Y35476720D01*
X34974533Y35404533D01*
X35046720Y35324887D01*
X35110755Y35238546D01*
X35166018Y35146345D01*
X35211978Y35049171D01*
X35248189Y34947968D01*
X35274308Y34843696D01*
X35290081Y34737356D01*
X35295357Y34630000D01*
X35290081Y34522644D01*
X35274308Y34416304D01*
X35248189Y34312032D01*
X35211978Y34210829D01*
X35166018Y34113655D01*
X35110755Y34021454D01*
X35046720Y33935113D01*
X34974533Y33855467D01*
X34894887Y33783280D01*
X34808546Y33719245D01*
X34716345Y33663982D01*
X34619171Y33618022D01*
X34517968Y33581811D01*
X34413696Y33555692D01*
X34307356Y33539919D01*
X34200000Y33534643D01*
D02*
G37*
%LPC*%
G36*
X14500000Y30584643D02*
X14368140Y30591123D01*
X14237532Y30610496D01*
X14109471Y30642574D01*
X13985153Y30687055D01*
X13865802Y30743504D01*
X13752555Y30811381D01*
X13646521Y30890022D01*
X13548690Y30978690D01*
X13460022Y31076521D01*
X13381381Y31182555D01*
X13313504Y31295802D01*
X13257055Y31415153D01*
X13212574Y31539471D01*
X13180496Y31667532D01*
X13161123Y31798140D01*
X13154643Y31930000D01*
X13161123Y32061860D01*
X13180496Y32192468D01*
X13212574Y32320529D01*
X13257055Y32444847D01*
X13313504Y32564198D01*
X13381381Y32677445D01*
X13460022Y32783479D01*
X13548690Y32881310D01*
X13646521Y32969978D01*
X13752555Y33048619D01*
X13865802Y33116496D01*
X13985153Y33172945D01*
X14109471Y33217426D01*
X14237532Y33249504D01*
X14368140Y33268877D01*
X14500000Y33275357D01*
X14631860Y33268877D01*
X14762468Y33249504D01*
X14890529Y33217426D01*
X15014847Y33172945D01*
X15134198Y33116496D01*
X15247445Y33048619D01*
X15353479Y32969978D01*
X15451310Y32881310D01*
X15539978Y32783479D01*
X15618619Y32677445D01*
X15686496Y32564198D01*
X15742945Y32444847D01*
X15787426Y32320529D01*
X15819504Y32192468D01*
X15838877Y32061860D01*
X15845357Y31930000D01*
X15838877Y31798140D01*
X15819504Y31667532D01*
X15787426Y31539471D01*
X15742945Y31415153D01*
X15686496Y31295802D01*
X15618619Y31182555D01*
X15539978Y31076521D01*
X15451310Y30978690D01*
X15353479Y30890022D01*
X15247445Y30811381D01*
X15134198Y30743504D01*
X15014847Y30687055D01*
X14890529Y30642574D01*
X14762468Y30610496D01*
X14631860Y30591123D01*
X14500000Y30584643D01*
D02*
G37*
%LPC*%
G36*
X58500000Y30584643D02*
X58368140Y30591123D01*
X58237532Y30610496D01*
X58109471Y30642574D01*
X57985153Y30687055D01*
X57865802Y30743504D01*
X57752555Y30811381D01*
X57646521Y30890022D01*
X57548690Y30978690D01*
X57460022Y31076521D01*
X57381381Y31182555D01*
X57313504Y31295802D01*
X57257055Y31415153D01*
X57212574Y31539471D01*
X57180496Y31667532D01*
X57161123Y31798140D01*
X57154643Y31930000D01*
X57161123Y32061860D01*
X57180496Y32192468D01*
X57212574Y32320529D01*
X57257055Y32444847D01*
X57313504Y32564198D01*
X57381381Y32677445D01*
X57460022Y32783479D01*
X57548690Y32881310D01*
X57646521Y32969978D01*
X57752555Y33048619D01*
X57865802Y33116496D01*
X57985153Y33172945D01*
X58109471Y33217426D01*
X58237532Y33249504D01*
X58368140Y33268877D01*
X58500000Y33275357D01*
X58631860Y33268877D01*
X58762468Y33249504D01*
X58890529Y33217426D01*
X59014847Y33172945D01*
X59134198Y33116496D01*
X59247445Y33048619D01*
X59353479Y32969978D01*
X59451310Y32881310D01*
X59539978Y32783479D01*
X59618619Y32677445D01*
X59686496Y32564198D01*
X59742945Y32444847D01*
X59787426Y32320529D01*
X59819504Y32192468D01*
X59838877Y32061860D01*
X59845357Y31930000D01*
X59838877Y31798140D01*
X59819504Y31667532D01*
X59787426Y31539471D01*
X59742945Y31415153D01*
X59686496Y31295802D01*
X59618619Y31182555D01*
X59539978Y31076521D01*
X59451310Y30978690D01*
X59353479Y30890022D01*
X59247445Y30811381D01*
X59134198Y30743504D01*
X59014847Y30687055D01*
X58890529Y30642574D01*
X58762468Y30610496D01*
X58631860Y30591123D01*
X58500000Y30584643D01*
D02*
G37*
%LPC*%
G36*
X53500000Y30584643D02*
X53368140Y30591123D01*
X53237532Y30610496D01*
X53109471Y30642574D01*
X52985153Y30687055D01*
X52865802Y30743504D01*
X52752555Y30811381D01*
X52646521Y30890022D01*
X52548690Y30978690D01*
X52460022Y31076521D01*
X52381381Y31182555D01*
X52313504Y31295802D01*
X52257055Y31415153D01*
X52212574Y31539471D01*
X52180496Y31667532D01*
X52161123Y31798140D01*
X52154643Y31930000D01*
X52161123Y32061860D01*
X52180496Y32192468D01*
X52212574Y32320529D01*
X52257055Y32444847D01*
X52313504Y32564198D01*
X52381381Y32677445D01*
X52460022Y32783479D01*
X52548690Y32881310D01*
X52646521Y32969978D01*
X52752555Y33048619D01*
X52865802Y33116496D01*
X52985153Y33172945D01*
X53109471Y33217426D01*
X53237532Y33249504D01*
X53368140Y33268877D01*
X53500000Y33275357D01*
X53631860Y33268877D01*
X53762468Y33249504D01*
X53890529Y33217426D01*
X54014847Y33172945D01*
X54134198Y33116496D01*
X54247445Y33048619D01*
X54353479Y32969978D01*
X54451310Y32881310D01*
X54539978Y32783479D01*
X54618619Y32677445D01*
X54686496Y32564198D01*
X54742945Y32444847D01*
X54787426Y32320529D01*
X54819504Y32192468D01*
X54838877Y32061860D01*
X54845357Y31930000D01*
X54838877Y31798140D01*
X54819504Y31667532D01*
X54787426Y31539471D01*
X54742945Y31415153D01*
X54686496Y31295802D01*
X54618619Y31182555D01*
X54539978Y31076521D01*
X54451310Y30978690D01*
X54353479Y30890022D01*
X54247445Y30811381D01*
X54134198Y30743504D01*
X54014847Y30687055D01*
X53890529Y30642574D01*
X53762468Y30610496D01*
X53631860Y30591123D01*
X53500000Y30584643D01*
D02*
G37*
%LPC*%
G36*
X48500000Y30584643D02*
X48368140Y30591123D01*
X48237532Y30610496D01*
X48109471Y30642574D01*
X47985153Y30687055D01*
X47865802Y30743504D01*
X47752555Y30811381D01*
X47646521Y30890022D01*
X47548690Y30978690D01*
X47460022Y31076521D01*
X47381381Y31182555D01*
X47313504Y31295802D01*
X47257055Y31415153D01*
X47212574Y31539471D01*
X47180496Y31667532D01*
X47161123Y31798140D01*
X47154643Y31930000D01*
X47161123Y32061860D01*
X47180496Y32192468D01*
X47212574Y32320529D01*
X47257055Y32444847D01*
X47313504Y32564198D01*
X47381381Y32677445D01*
X47460022Y32783479D01*
X47548690Y32881310D01*
X47646521Y32969978D01*
X47752555Y33048619D01*
X47865802Y33116496D01*
X47985153Y33172945D01*
X48109471Y33217426D01*
X48237532Y33249504D01*
X48368140Y33268877D01*
X48500000Y33275357D01*
X48631860Y33268877D01*
X48762468Y33249504D01*
X48890529Y33217426D01*
X49014847Y33172945D01*
X49134198Y33116496D01*
X49247445Y33048619D01*
X49353479Y32969978D01*
X49451310Y32881310D01*
X49539978Y32783479D01*
X49618619Y32677445D01*
X49686496Y32564198D01*
X49742945Y32444847D01*
X49787426Y32320529D01*
X49819504Y32192468D01*
X49838877Y32061860D01*
X49845357Y31930000D01*
X49838877Y31798140D01*
X49819504Y31667532D01*
X49787426Y31539471D01*
X49742945Y31415153D01*
X49686496Y31295802D01*
X49618619Y31182555D01*
X49539978Y31076521D01*
X49451310Y30978690D01*
X49353479Y30890022D01*
X49247445Y30811381D01*
X49134198Y30743504D01*
X49014847Y30687055D01*
X48890529Y30642574D01*
X48762468Y30610496D01*
X48631860Y30591123D01*
X48500000Y30584643D01*
D02*
G37*
%LPC*%
G36*
X9500000Y30584643D02*
X9368140Y30591123D01*
X9237532Y30610496D01*
X9109471Y30642574D01*
X8985153Y30687055D01*
X8865802Y30743504D01*
X8752555Y30811381D01*
X8646521Y30890022D01*
X8548690Y30978690D01*
X8460022Y31076521D01*
X8381381Y31182555D01*
X8313504Y31295802D01*
X8257055Y31415153D01*
X8212574Y31539471D01*
X8180496Y31667532D01*
X8161123Y31798140D01*
X8154643Y31930000D01*
X8161123Y32061860D01*
X8180496Y32192468D01*
X8212574Y32320529D01*
X8257055Y32444847D01*
X8313504Y32564198D01*
X8381381Y32677445D01*
X8460022Y32783479D01*
X8548690Y32881310D01*
X8646521Y32969978D01*
X8752555Y33048619D01*
X8865802Y33116496D01*
X8985153Y33172945D01*
X9109471Y33217426D01*
X9237532Y33249504D01*
X9368140Y33268877D01*
X9500000Y33275357D01*
X9631860Y33268877D01*
X9762468Y33249504D01*
X9890529Y33217426D01*
X10014847Y33172945D01*
X10134198Y33116496D01*
X10247445Y33048619D01*
X10353479Y32969978D01*
X10451310Y32881310D01*
X10539978Y32783479D01*
X10618619Y32677445D01*
X10686496Y32564198D01*
X10742945Y32444847D01*
X10787426Y32320529D01*
X10819504Y32192468D01*
X10838877Y32061860D01*
X10845357Y31930000D01*
X10838877Y31798140D01*
X10819504Y31667532D01*
X10787426Y31539471D01*
X10742945Y31415153D01*
X10686496Y31295802D01*
X10618619Y31182555D01*
X10539978Y31076521D01*
X10451310Y30978690D01*
X10353479Y30890022D01*
X10247445Y30811381D01*
X10134198Y30743504D01*
X10014847Y30687055D01*
X9890529Y30642574D01*
X9762468Y30610496D01*
X9631860Y30591123D01*
X9500000Y30584643D01*
D02*
G37*
%LPC*%
G36*
X4500000Y30584643D02*
X4368140Y30591123D01*
X4237532Y30610496D01*
X4109471Y30642574D01*
X3985153Y30687055D01*
X3865802Y30743504D01*
X3752555Y30811381D01*
X3646521Y30890022D01*
X3548690Y30978690D01*
X3460022Y31076521D01*
X3381381Y31182555D01*
X3313504Y31295802D01*
X3257055Y31415153D01*
X3212574Y31539471D01*
X3180496Y31667532D01*
X3161123Y31798140D01*
X3154643Y31930000D01*
X3161123Y32061860D01*
X3180496Y32192468D01*
X3212574Y32320529D01*
X3257055Y32444847D01*
X3313504Y32564198D01*
X3381381Y32677445D01*
X3460022Y32783479D01*
X3548690Y32881310D01*
X3646521Y32969978D01*
X3752555Y33048619D01*
X3865802Y33116496D01*
X3985153Y33172945D01*
X4109471Y33217426D01*
X4237532Y33249504D01*
X4368140Y33268877D01*
X4500000Y33275357D01*
X4631860Y33268877D01*
X4762468Y33249504D01*
X4890529Y33217426D01*
X5014847Y33172945D01*
X5134198Y33116496D01*
X5247445Y33048619D01*
X5353479Y32969978D01*
X5451310Y32881310D01*
X5539978Y32783479D01*
X5618619Y32677445D01*
X5686496Y32564198D01*
X5742945Y32444847D01*
X5787426Y32320529D01*
X5819504Y32192468D01*
X5838877Y32061860D01*
X5845357Y31930000D01*
X5838877Y31798140D01*
X5819504Y31667532D01*
X5787426Y31539471D01*
X5742945Y31415153D01*
X5686496Y31295802D01*
X5618619Y31182555D01*
X5539978Y31076521D01*
X5451310Y30978690D01*
X5353479Y30890022D01*
X5247445Y30811381D01*
X5134198Y30743504D01*
X5014847Y30687055D01*
X4890529Y30642574D01*
X4762468Y30610496D01*
X4631860Y30591123D01*
X4500000Y30584643D01*
D02*
G37*
%LPC*%
G36*
X34200000Y31034643D02*
X34092644Y31039919D01*
X33986304Y31055692D01*
X33882032Y31081811D01*
X33780829Y31118022D01*
X33683655Y31163982D01*
X33591454Y31219245D01*
X33505113Y31283280D01*
X33425467Y31355467D01*
X33353280Y31435113D01*
X33289245Y31521454D01*
X33233982Y31613655D01*
X33188022Y31710829D01*
X33151811Y31812032D01*
X33125692Y31916304D01*
X33109919Y32022644D01*
X33104643Y32130000D01*
X33109919Y32237356D01*
X33125692Y32343696D01*
X33151811Y32447968D01*
X33188022Y32549171D01*
X33233982Y32646345D01*
X33289245Y32738546D01*
X33353280Y32824887D01*
X33425467Y32904533D01*
X33505113Y32976720D01*
X33591454Y33040755D01*
X33683655Y33096018D01*
X33780829Y33141978D01*
X33882032Y33178189D01*
X33986304Y33204308D01*
X34092644Y33220081D01*
X34200000Y33225357D01*
X34307356Y33220081D01*
X34413696Y33204308D01*
X34517968Y33178189D01*
X34619171Y33141978D01*
X34716345Y33096018D01*
X34808546Y33040755D01*
X34894887Y32976720D01*
X34974533Y32904533D01*
X35046720Y32824887D01*
X35110755Y32738546D01*
X35166018Y32646345D01*
X35211978Y32549171D01*
X35248189Y32447968D01*
X35274308Y32343696D01*
X35290081Y32237356D01*
X35295357Y32130000D01*
X35290081Y32022644D01*
X35274308Y31916304D01*
X35248189Y31812032D01*
X35211978Y31710829D01*
X35166018Y31613655D01*
X35110755Y31521454D01*
X35046720Y31435113D01*
X34974533Y31355467D01*
X34894887Y31283280D01*
X34808546Y31219245D01*
X34716345Y31163982D01*
X34619171Y31118022D01*
X34517968Y31081811D01*
X34413696Y31055692D01*
X34307356Y31039919D01*
X34200000Y31034643D01*
D02*
G37*
%LPC*%
G36*
X26100000Y28734643D02*
X25992644Y28739919D01*
X25886304Y28755692D01*
X25782032Y28781811D01*
X25680829Y28818022D01*
X25583655Y28863982D01*
X25491454Y28919245D01*
X25405113Y28983280D01*
X25325467Y29055467D01*
X25253280Y29135113D01*
X25189245Y29221454D01*
X25133982Y29313655D01*
X25088022Y29410829D01*
X25051811Y29512032D01*
X25025692Y29616304D01*
X25009919Y29722644D01*
X25004643Y29830000D01*
X25009919Y29937356D01*
X25025692Y30043696D01*
X25051811Y30147968D01*
X25088022Y30249171D01*
X25133982Y30346345D01*
X25189245Y30438546D01*
X25253280Y30524887D01*
X25325467Y30604533D01*
X25405113Y30676720D01*
X25491454Y30740755D01*
X25583655Y30796018D01*
X25680829Y30841978D01*
X25782032Y30878189D01*
X25886304Y30904308D01*
X25992644Y30920081D01*
X26100000Y30925357D01*
X26207356Y30920081D01*
X26313696Y30904308D01*
X26417968Y30878189D01*
X26519171Y30841978D01*
X26616345Y30796018D01*
X26708546Y30740755D01*
X26794887Y30676720D01*
X26874533Y30604533D01*
X26946720Y30524887D01*
X27010755Y30438546D01*
X27066018Y30346345D01*
X27111978Y30249171D01*
X27148189Y30147968D01*
X27174308Y30043696D01*
X27190081Y29937356D01*
X27195357Y29830000D01*
X27190081Y29722644D01*
X27174308Y29616304D01*
X27148189Y29512032D01*
X27111978Y29410829D01*
X27066018Y29313655D01*
X27010755Y29221454D01*
X26946720Y29135113D01*
X26874533Y29055467D01*
X26794887Y28983280D01*
X26708546Y28919245D01*
X26616345Y28863982D01*
X26519171Y28818022D01*
X26417968Y28781811D01*
X26313696Y28755692D01*
X26207356Y28739919D01*
X26100000Y28734643D01*
D02*
G37*
%LPC*%
G36*
X30600000Y28734643D02*
X30492644Y28739919D01*
X30386304Y28755692D01*
X30282032Y28781811D01*
X30180829Y28818022D01*
X30083655Y28863982D01*
X29991454Y28919245D01*
X29905113Y28983280D01*
X29825467Y29055467D01*
X29753280Y29135113D01*
X29689245Y29221454D01*
X29633982Y29313655D01*
X29588022Y29410829D01*
X29551811Y29512032D01*
X29525692Y29616304D01*
X29509919Y29722644D01*
X29504643Y29830000D01*
X29509919Y29937356D01*
X29525692Y30043696D01*
X29551811Y30147968D01*
X29588022Y30249171D01*
X29633982Y30346345D01*
X29689245Y30438546D01*
X29753280Y30524887D01*
X29825467Y30604533D01*
X29905113Y30676720D01*
X29991454Y30740755D01*
X30083655Y30796018D01*
X30180829Y30841978D01*
X30282032Y30878189D01*
X30386304Y30904308D01*
X30492644Y30920081D01*
X30600000Y30925357D01*
X30707356Y30920081D01*
X30813696Y30904308D01*
X30917968Y30878189D01*
X31019171Y30841978D01*
X31116345Y30796018D01*
X31208546Y30740755D01*
X31294887Y30676720D01*
X31374533Y30604533D01*
X31446720Y30524887D01*
X31510755Y30438546D01*
X31566018Y30346345D01*
X31611978Y30249171D01*
X31648189Y30147968D01*
X31674308Y30043696D01*
X31690081Y29937356D01*
X31695357Y29830000D01*
X31690081Y29722644D01*
X31674308Y29616304D01*
X31648189Y29512032D01*
X31611978Y29410829D01*
X31566018Y29313655D01*
X31510755Y29221454D01*
X31446720Y29135113D01*
X31374533Y29055467D01*
X31294887Y28983280D01*
X31208546Y28919245D01*
X31116345Y28863982D01*
X31019171Y28818022D01*
X30917968Y28781811D01*
X30813696Y28755692D01*
X30707356Y28739919D01*
X30600000Y28734643D01*
D02*
G37*
%LPC*%
G36*
X21700000Y14924753D02*
X21611268Y14929113D01*
X21523388Y14942149D01*
X21437224Y14963731D01*
X21353579Y14993661D01*
X21273263Y15031648D01*
X21197079Y15077310D01*
X21125715Y15130237D01*
X21059894Y15189894D01*
X21000237Y15255715D01*
X20947310Y15327079D01*
X20901648Y15403263D01*
X20863661Y15483579D01*
X20833731Y15567224D01*
X20812149Y15653388D01*
X20799113Y15741268D01*
X20794753Y15830000D01*
X20799113Y15918732D01*
X20812149Y16006612D01*
X20833731Y16092776D01*
X20863661Y16176421D01*
X20901648Y16256737D01*
X20947310Y16332921D01*
X21000237Y16404285D01*
X21059894Y16470106D01*
X21125715Y16529763D01*
X21197079Y16582690D01*
X21273263Y16628352D01*
X21353579Y16666339D01*
X21437224Y16696269D01*
X21523388Y16717851D01*
X21611268Y16730887D01*
X21700000Y16735247D01*
X21788732Y16730887D01*
X21876612Y16717851D01*
X21962776Y16696269D01*
X22046421Y16666339D01*
X22126737Y16628352D01*
X22202921Y16582690D01*
X22274285Y16529763D01*
X22340106Y16470106D01*
X22399763Y16404285D01*
X22452690Y16332921D01*
X22498352Y16256737D01*
X22536339Y16176421D01*
X22566269Y16092776D01*
X22587851Y16006612D01*
X22600887Y15918732D01*
X22605247Y15830000D01*
X22600887Y15741268D01*
X22587851Y15653388D01*
X22566269Y15567224D01*
X22536339Y15483579D01*
X22498352Y15403263D01*
X22452690Y15327079D01*
X22399763Y15255715D01*
X22340106Y15189894D01*
X22274285Y15130237D01*
X22202921Y15077310D01*
X22126737Y15031648D01*
X22046421Y14993661D01*
X21962776Y14963731D01*
X21876612Y14942149D01*
X21788732Y14929113D01*
X21700000Y14924753D01*
D02*
G37*
%LPC*%
G36*
X40500000Y14924753D02*
X40411268Y14929113D01*
X40323388Y14942149D01*
X40237224Y14963731D01*
X40153579Y14993661D01*
X40073263Y15031648D01*
X39997079Y15077310D01*
X39925715Y15130237D01*
X39859894Y15189894D01*
X39800237Y15255715D01*
X39747310Y15327079D01*
X39701648Y15403263D01*
X39663661Y15483579D01*
X39633731Y15567224D01*
X39612149Y15653388D01*
X39599113Y15741268D01*
X39594753Y15830000D01*
X39599113Y15918732D01*
X39612149Y16006612D01*
X39633731Y16092776D01*
X39663661Y16176421D01*
X39701648Y16256737D01*
X39747310Y16332921D01*
X39800237Y16404285D01*
X39859894Y16470106D01*
X39925715Y16529763D01*
X39997079Y16582690D01*
X40073263Y16628352D01*
X40153579Y16666339D01*
X40237224Y16696269D01*
X40323388Y16717851D01*
X40411268Y16730887D01*
X40500000Y16735247D01*
X40588732Y16730887D01*
X40676612Y16717851D01*
X40762776Y16696269D01*
X40846421Y16666339D01*
X40926737Y16628352D01*
X41002921Y16582690D01*
X41074285Y16529763D01*
X41140106Y16470106D01*
X41199763Y16404285D01*
X41252690Y16332921D01*
X41298352Y16256737D01*
X41336339Y16176421D01*
X41366269Y16092776D01*
X41387851Y16006612D01*
X41400887Y15918732D01*
X41405247Y15830000D01*
X41400887Y15741268D01*
X41387851Y15653388D01*
X41366269Y15567224D01*
X41336339Y15483579D01*
X41298352Y15403263D01*
X41252690Y15327079D01*
X41199763Y15255715D01*
X41140106Y15189894D01*
X41074285Y15130237D01*
X41002921Y15077310D01*
X40926737Y15031648D01*
X40846421Y14993661D01*
X40762776Y14963731D01*
X40676612Y14942149D01*
X40588732Y14929113D01*
X40500000Y14924753D01*
D02*
G37*
%LPD*%
G01*
%LPD*%
G75*
D10*
X4500000Y31930000D03*
D10*
X14500000Y31930000D03*
D10*
X9500000Y31930000D03*
D10*
X4500000Y61930000D03*
D10*
X14500000Y61930000D03*
D10*
X9500000Y61930000D03*
D10*
X48500000Y31930000D03*
D10*
X58500000Y31930000D03*
D10*
X53500000Y31930000D03*
D11*
X30600000Y27290000D03*
D11*
X30600000Y29830000D03*
D12*
X29220000Y57910000D03*
D12*
X29220000Y52830000D03*
D13*
X31500000Y47930000D03*
D13*
X36580000Y47930000D03*
D13*
X26420000Y47930000D03*
D14*
X33780000Y52830000D03*
D14*
X33780000Y57910000D03*
D10*
X48500000Y61930000D03*
D10*
X58500000Y61930000D03*
D10*
X53500000Y61930000D03*
D15*
X37500000Y32130000D03*
D15*
X34200000Y34630000D03*
D15*
X34200000Y37130000D03*
D15*
X34200000Y32130000D03*
D15*
X37500000Y34630000D03*
D15*
X37500000Y37130000D03*
D14*
X26420000Y52830000D03*
D14*
X26420000Y57910000D03*
D16*
X26100000Y29830000D03*
D16*
X26100000Y27290000D03*
D12*
X36580000Y57910000D03*
D12*
X36580000Y52830000D03*
D17*
X23875000Y57810000D03*
D17*
X16250000Y19950000D03*
D17*
X31500000Y45190000D03*
D17*
X25970000Y9930000D03*
D17*
X16250000Y7330000D03*
D18*
X1000000Y32570000D03*
D17*
X31500000Y52100000D03*
D18*
X31500000Y70430000D03*
D18*
X62000000Y32570000D03*
D18*
X16250000Y70430000D03*
D18*
X62000000Y7330000D03*
D18*
X1000000Y45190000D03*
D17*
X25900000Y2060000D03*
D18*
X54375000Y70430000D03*
D17*
X54375000Y13640000D03*
D18*
X39125000Y70430000D03*
D18*
X1000000Y64120000D03*
D18*
X23875000Y70430000D03*
D17*
X29000000Y7310000D03*
D17*
X8625000Y13640000D03*
D18*
X62000000Y38880000D03*
D19*
X10310000Y46770000D03*
D17*
X16250000Y64120000D03*
D17*
X46050000Y51500000D03*
D17*
X30000000Y7310000D03*
D17*
X16250000Y13640000D03*
D17*
X8625000Y64120000D03*
D18*
X1000000Y38880000D03*
D17*
X54375000Y26260000D03*
D19*
X40500000Y15830000D03*
D17*
X31500000Y64120000D03*
D17*
X55775000Y32870000D03*
D18*
X62000000Y45190000D03*
D17*
X31500000Y25760000D03*
D17*
X23875000Y26260000D03*
D17*
X32000000Y3810000D03*
D17*
X46750000Y7330000D03*
D17*
X39125000Y19950000D03*
D18*
X62000000Y1000000D03*
D17*
X16250000Y37680000D03*
D17*
X23875000Y37680000D03*
D17*
X39125000Y1000000D03*
D17*
X39125000Y45190000D03*
D18*
X62000000Y70430000D03*
D18*
X62000000Y64120000D03*
D17*
X15250000Y58070000D03*
D17*
X33000000Y7310000D03*
D17*
X32000000Y32570000D03*
D18*
X1000000Y57810000D03*
D17*
X54375000Y19950000D03*
D17*
X54375000Y45190000D03*
D18*
X1000000Y7330000D03*
D17*
X46550000Y32870000D03*
D18*
X62000000Y26260000D03*
D20*
X16170000Y52190000D03*
D17*
X7370000Y38730000D03*
D17*
X54375000Y38880000D03*
D17*
X12750000Y49620000D03*
D19*
X49910000Y43390000D03*
D17*
X37100000Y5560000D03*
D17*
X29000000Y3810000D03*
D17*
X24075000Y45190000D03*
D17*
X46750000Y19950000D03*
D17*
X8625000Y26260000D03*
D17*
X34000000Y7310000D03*
D17*
X8625000Y57810000D03*
D18*
X62000000Y13640000D03*
D18*
X1000000Y13640000D03*
D17*
X15300000Y55530000D03*
D18*
X46750000Y70430000D03*
D17*
X25900000Y5560000D03*
D18*
X62000000Y51500000D03*
D17*
X54375000Y51500000D03*
D17*
X20260000Y50770000D03*
D18*
X1000000Y1000000D03*
D17*
X39125000Y52100000D03*
D17*
X54375000Y1000000D03*
D17*
X36480000Y9930000D03*
D17*
X8625000Y19950000D03*
D17*
X6570001Y45430000D03*
D17*
X8625000Y7330000D03*
D19*
X21700000Y15830000D03*
D20*
X14670000Y53470000D03*
D17*
X22370000Y9930000D03*
D17*
X16250000Y1000000D03*
D19*
X22060000Y53470000D03*
D17*
X52750000Y40420000D03*
D17*
X54375000Y7330000D03*
D17*
X16250000Y32970000D03*
D17*
X54375000Y57810000D03*
D17*
X24075000Y52100000D03*
D17*
X8625000Y1000000D03*
D18*
X62000000Y57810000D03*
D17*
X39125000Y26260000D03*
D17*
X51000000Y30300000D03*
D17*
X37100000Y2060000D03*
D17*
X40080000Y9930000D03*
D17*
X23875000Y19950000D03*
D17*
X16250000Y26260000D03*
D17*
X46750000Y64120000D03*
D17*
X48860000Y36800000D03*
D17*
X31500000Y57810000D03*
D17*
X34000000Y3810000D03*
D17*
X39125000Y64120000D03*
D17*
X54375000Y64120000D03*
D17*
X23875000Y64120000D03*
D17*
X31500000Y19950000D03*
D18*
X1000000Y51500000D03*
D17*
X46750000Y1000000D03*
D17*
X7125000Y33070000D03*
D17*
X38050000Y7330000D03*
D17*
X30360002Y37760000D03*
D18*
X1000000Y19950000D03*
D17*
X24170000Y7330000D03*
D17*
X39125000Y38880000D03*
D18*
X8625000Y70430000D03*
D17*
X30000000Y3810000D03*
D18*
X62000000Y19950000D03*
D17*
X46750000Y26260000D03*
D17*
X46750000Y57810000D03*
D17*
X51940000Y49040000D03*
D17*
X16250000Y46390000D03*
D17*
X23875000Y32570000D03*
D17*
X46750000Y13640000D03*
D18*
X1000000Y26260000D03*
D17*
X32000000Y7310000D03*
D17*
X34400000Y16530000D03*
D17*
X39125000Y32570000D03*
D17*
X46050000Y45190000D03*
D17*
X39125000Y57810000D03*
D18*
X1000000Y70430000D03*
D17*
X23875000Y1000000D03*
D17*
X33000000Y3810000D03*
D17*
X10580000Y54945000D03*
D17*
X6360000Y51580000D03*
M02*
