%FSLAX46Y46*%
%MOMM*%
%ADD10C,0.300000*%
%ADD13C,0.500000*%
%ADD11C,0.600000*%
%ADD12C,0.750000*%
%ADD14C,0.800000*%
%AMPS19*
1,1,2.100000,0.000000,0.000000*
%
%ADD19PS19*%
%AMPS31*
1,1,1.600000,0.000000,0.000000*
%
%ADD31PS31*%
%AMPS43*
1,1,1.600000,0.000000,0.000000*
%
%ADD43PS43*%
%AMPS46*
1,1,1.600000,0.000000,0.000000*
%
%ADD46PS46*%
%AMPS30*
1,1,1.700000,0.000000,0.000000*
%
%ADD30PS30*%
%AMPS35*
1,1,2.200000,0.000000,0.000000*
%
%ADD35PS35*%
%AMPS38*
1,1,1.200000,0.000000,0.000000*
%
%ADD38PS38*%
%AMPS32*
1,1,1.200000,0.000000,0.000000*
%
%ADD32PS32*%
%AMPS21*
21,1,1.594948,2.741421,0.000000,0.000000,90.000000*
%
%ADD21PS21*%
%AMPS20*
21,1,1.594948,2.741421,0.000000,0.000000,270.000000*
%
%ADD20PS20*%
%AMPS17*
21,1,1.600000,2.950000,0.000000,0.000000,0.000000*
%
%ADD17PS17*%
%AMPS18*
21,1,1.600000,2.950000,0.000000,0.000000,180.000000*
%
%ADD18PS18*%
%AMPS22*
21,1,0.600000,1.550000,0.000000,0.000000,90.000000*
%
%ADD22PS22*%
%AMPS23*
21,1,0.600000,1.550000,0.000000,0.000000,270.000000*
%
%ADD23PS23*%
%AMPS37*
21,1,1.600000,2.500000,0.000000,0.000000,0.000000*
%
%ADD37PS37*%
%AMPS48*
21,1,1.600000,2.500000,0.000000,0.000000,90.000000*
%
%ADD48PS48*%
%AMPS36*
21,1,1.600000,2.500000,0.000000,0.000000,180.000000*
%
%ADD36PS36*%
%AMPS47*
21,1,1.600000,2.500000,0.000000,0.000000,270.000000*
%
%ADD47PS47*%
%AMPS42*
21,1,0.900000,1.000000,0.000000,0.000000,0.000000*
%
%ADD42PS42*%
%AMPS41*
21,1,0.900000,1.000000,0.000000,0.000000,180.000000*
%
%ADD41PS41*%
%AMPS45*
21,1,1.400000,1.100000,0.000000,0.000000,0.000000*
%
%ADD45PS45*%
%AMPS39*
21,1,1.400000,1.100000,0.000000,0.000000,90.000000*
%
%ADD39PS39*%
%AMPS44*
21,1,1.400000,1.100000,0.000000,0.000000,180.000000*
%
%ADD44PS44*%
%AMPS40*
21,1,1.400000,1.100000,0.000000,0.000000,270.000000*
%
%ADD40PS40*%
%AMPS25*
21,1,0.900000,0.500000,0.000000,0.000000,0.000000*
%
%ADD25PS25*%
%AMPS16*
21,1,0.900000,0.500000,0.000000,0.000000,90.000000*
%
%ADD16PS16*%
%AMPS24*
21,1,0.900000,0.500000,0.000000,0.000000,180.000000*
%
%ADD24PS24*%
%AMPS15*
21,1,0.900000,0.500000,0.000000,0.000000,270.000000*
%
%ADD15PS15*%
%AMPS34*
21,1,1.700000,1.100000,0.000000,0.000000,90.000000*
%
%ADD34PS34*%
%AMPS33*
21,1,1.700000,1.100000,0.000000,0.000000,270.000000*
%
%ADD33PS33*%
%AMPS27*
21,1,0.850000,0.800000,0.000000,0.000000,0.000000*
%
%ADD27PS27*%
%AMPS28*
21,1,0.850000,0.800000,0.000000,0.000000,90.000000*
%
%ADD28PS28*%
%AMPS26*
21,1,0.850000,0.800000,0.000000,0.000000,180.000000*
%
%ADD26PS26*%
%AMPS29*
21,1,0.850000,0.800000,0.000000,0.000000,270.000000*
%
%ADD29PS29*%
%AMPS51*
1,1,1.400000,0.000000,0.000000*
%
%ADD51PS51*%
%AMPS50*
1,1,0.700000,0.000000,0.000000*
%
%ADD50PS50*%
%AMPS52*
1,1,0.900000,0.000000,0.000000*
%
%ADD52PS52*%
%AMPS49*
1,1,0.700000,0.000000,0.000000*
%
%ADD49PS49*%
G01*
%LPD*%
G36*
X62640000Y360000D02*
X62640000Y71040000D01*
X360000Y71040000D01*
X360000Y360000D01*
X62640000Y360000D01*
D02*
G37*
%LPC*%
G36*
X9500000Y60674752D02*
X9376973Y60680798D01*
X9255108Y60698874D01*
X9135622Y60728803D01*
X9019640Y60770302D01*
X8908282Y60822970D01*
X8802623Y60886300D01*
X8703681Y60959681D01*
X8612406Y61042406D01*
X8529681Y61133681D01*
X8456300Y61232623D01*
X8392970Y61338282D01*
X8340302Y61449640D01*
X8295448Y61575000D01*
X5704552Y61575000D01*
X5659698Y61449640D01*
X5607030Y61338282D01*
X5543700Y61232623D01*
X5470319Y61133681D01*
X5387594Y61042406D01*
X5296319Y60959681D01*
X5197377Y60886300D01*
X5091718Y60822970D01*
X4980360Y60770302D01*
X4864378Y60728803D01*
X4744892Y60698874D01*
X4623027Y60680798D01*
X4500000Y60674752D01*
X4376973Y60680798D01*
X4255108Y60698874D01*
X4135622Y60728803D01*
X4019640Y60770302D01*
X3908282Y60822970D01*
X3802623Y60886300D01*
X3703681Y60959681D01*
X3612406Y61042406D01*
X3529681Y61133681D01*
X3456300Y61232623D01*
X3392970Y61338282D01*
X3340302Y61449640D01*
X3298803Y61565622D01*
X3268874Y61685108D01*
X3250798Y61806973D01*
X3244752Y61930000D01*
X3250798Y62053027D01*
X3268874Y62174892D01*
X3298803Y62294378D01*
X3340302Y62410360D01*
X3392970Y62521718D01*
X3456300Y62627377D01*
X3529681Y62726319D01*
X3612406Y62817594D01*
X3703681Y62900319D01*
X3802623Y62973700D01*
X3908282Y63037030D01*
X4019640Y63089698D01*
X4135622Y63131197D01*
X4255108Y63161126D01*
X4376973Y63179202D01*
X4500000Y63185248D01*
X4623027Y63179202D01*
X4744892Y63161126D01*
X4864378Y63131197D01*
X4980360Y63089698D01*
X5091718Y63037030D01*
X5197377Y62973700D01*
X5296319Y62900319D01*
X5387594Y62817594D01*
X5470319Y62726319D01*
X5543700Y62627377D01*
X5607030Y62521718D01*
X5659698Y62410360D01*
X5704552Y62285000D01*
X8295448Y62285000D01*
X8340302Y62410360D01*
X8392970Y62521718D01*
X8456300Y62627377D01*
X8529681Y62726319D01*
X8612406Y62817594D01*
X8703681Y62900319D01*
X8802623Y62973700D01*
X8908282Y63037030D01*
X9019640Y63089698D01*
X9135622Y63131197D01*
X9255108Y63161126D01*
X9376973Y63179202D01*
X9500000Y63185248D01*
X9623027Y63179202D01*
X9744892Y63161126D01*
X9864378Y63131197D01*
X9980360Y63089698D01*
X10091718Y63037030D01*
X10197377Y62973700D01*
X10296319Y62900319D01*
X10387594Y62817594D01*
X10470319Y62726319D01*
X10543700Y62627377D01*
X10607030Y62521718D01*
X10659698Y62410360D01*
X10701197Y62294378D01*
X10731126Y62174892D01*
X10749202Y62053027D01*
X10755248Y61930000D01*
X10749202Y61806973D01*
X10731126Y61685108D01*
X10701197Y61565622D01*
X10659698Y61449640D01*
X10607030Y61338282D01*
X10543700Y61232623D01*
X10470319Y61133681D01*
X10387594Y61042406D01*
X10296319Y60959681D01*
X10197377Y60886300D01*
X10091718Y60822970D01*
X9980360Y60770302D01*
X9864378Y60728803D01*
X9744892Y60698874D01*
X9623027Y60680798D01*
X9500000Y60674752D01*
D02*
G37*
%LPC*%
G36*
X14500000Y60674752D02*
X14376973Y60680798D01*
X14255108Y60698874D01*
X14135622Y60728803D01*
X14019640Y60770302D01*
X13908282Y60822970D01*
X13802623Y60886300D01*
X13703681Y60959681D01*
X13612406Y61042406D01*
X13529681Y61133681D01*
X13456300Y61232623D01*
X13392970Y61338282D01*
X13340302Y61449640D01*
X13298803Y61565622D01*
X13268874Y61685108D01*
X13250798Y61806973D01*
X13244752Y61930000D01*
X13250798Y62053027D01*
X13268874Y62174892D01*
X13298803Y62294378D01*
X13340302Y62410360D01*
X13392970Y62521718D01*
X13456300Y62627377D01*
X13529681Y62726319D01*
X13612406Y62817594D01*
X13703681Y62900319D01*
X13802623Y62973700D01*
X13908282Y63037030D01*
X14019640Y63089698D01*
X14135622Y63131197D01*
X14255108Y63161126D01*
X14376973Y63179202D01*
X14500000Y63185248D01*
X14623027Y63179202D01*
X14744892Y63161126D01*
X14864378Y63131197D01*
X14980360Y63089698D01*
X15091718Y63037030D01*
X15197377Y62973700D01*
X15296319Y62900319D01*
X15387594Y62817594D01*
X15470319Y62726319D01*
X15543700Y62627377D01*
X15607030Y62521718D01*
X15659698Y62410360D01*
X15701197Y62294378D01*
X15731126Y62174892D01*
X15749202Y62053027D01*
X15755248Y61930000D01*
X15749202Y61806973D01*
X15731126Y61685108D01*
X15701197Y61565622D01*
X15659698Y61449640D01*
X15607030Y61338282D01*
X15543700Y61232623D01*
X15470319Y61133681D01*
X15387594Y61042406D01*
X15296319Y60959681D01*
X15197377Y60886300D01*
X15091718Y60822970D01*
X14980360Y60770302D01*
X14864378Y60728803D01*
X14744892Y60698874D01*
X14623027Y60680798D01*
X14500000Y60674752D01*
D02*
G37*
%LPC*%
G36*
X59550000Y2024753D02*
X59446567Y2029835D01*
X59344127Y2045031D01*
X59243680Y2070191D01*
X59146180Y2105078D01*
X59052554Y2149358D01*
X58963742Y2202591D01*
X58880556Y2264286D01*
X58803828Y2333828D01*
X58734286Y2410556D01*
X58672591Y2493742D01*
X58619358Y2582554D01*
X58575078Y2676180D01*
X58540191Y2773680D01*
X58515031Y2874127D01*
X58499835Y2976567D01*
X58494753Y3080000D01*
X58499835Y3183433D01*
X58515031Y3285873D01*
X58540191Y3386320D01*
X58575078Y3483820D01*
X58619358Y3577446D01*
X58672591Y3666258D01*
X58734286Y3749444D01*
X58803828Y3826172D01*
X58880556Y3895714D01*
X58963742Y3957409D01*
X59052554Y4010642D01*
X59195000Y4078012D01*
X59195000Y7090066D01*
X59200849Y7149451D01*
X59221106Y7216229D01*
X59254003Y7277777D01*
X59297779Y7331122D01*
X59305551Y7337598D01*
X60535000Y8567047D01*
X60535000Y54392953D01*
X54100724Y60827229D01*
X53980360Y60770302D01*
X53864378Y60728803D01*
X53744892Y60698874D01*
X53623027Y60680798D01*
X53500000Y60674752D01*
X53376973Y60680798D01*
X53255108Y60698874D01*
X53135622Y60728803D01*
X53019640Y60770302D01*
X52908282Y60822970D01*
X52802623Y60886300D01*
X52703681Y60959681D01*
X52612406Y61042406D01*
X52529681Y61133681D01*
X52456300Y61232623D01*
X52392970Y61338282D01*
X52340302Y61449640D01*
X52298803Y61565622D01*
X52268874Y61685108D01*
X52250798Y61806973D01*
X52244752Y61930000D01*
X52250798Y62053027D01*
X52268874Y62174892D01*
X52298803Y62294378D01*
X52340302Y62410360D01*
X52392970Y62521718D01*
X52456300Y62627377D01*
X52529681Y62726319D01*
X52612406Y62817594D01*
X52703681Y62900319D01*
X52802623Y62973700D01*
X52908282Y63037030D01*
X53019640Y63089698D01*
X53135622Y63131197D01*
X53255108Y63161126D01*
X53376973Y63179202D01*
X53500000Y63185248D01*
X53623027Y63179202D01*
X53744892Y63161126D01*
X53864378Y63131197D01*
X53980360Y63089698D01*
X54091718Y63037030D01*
X54197377Y62973700D01*
X54296319Y62900319D01*
X54387594Y62817594D01*
X54470319Y62726319D01*
X54543700Y62627377D01*
X54607030Y62521718D01*
X54659698Y62410360D01*
X54701197Y62294378D01*
X54731126Y62174892D01*
X54749202Y62053027D01*
X54755248Y61930000D01*
X54749202Y61806973D01*
X54731126Y61685108D01*
X54701197Y61565622D01*
X54659699Y61449644D01*
X54602771Y61329275D01*
X61148148Y54783897D01*
X61185996Y54737776D01*
X61218893Y54676229D01*
X61239151Y54609451D01*
X61245000Y54550077D01*
X61245000Y8409923D01*
X61239151Y8350548D01*
X61218893Y8283770D01*
X61185996Y8222222D01*
X61142220Y8168877D01*
X61134448Y8162401D01*
X59905000Y6932953D01*
X59905000Y4078012D01*
X60047446Y4010642D01*
X60136258Y3957409D01*
X60219444Y3895714D01*
X60296172Y3826172D01*
X60365714Y3749444D01*
X60427409Y3666258D01*
X60480642Y3577446D01*
X60524922Y3483820D01*
X60559809Y3386320D01*
X60584969Y3285873D01*
X60600165Y3183433D01*
X60605247Y3080000D01*
X60600165Y2976567D01*
X60584969Y2874127D01*
X60559809Y2773680D01*
X60524922Y2676180D01*
X60480642Y2582554D01*
X60427409Y2493742D01*
X60365714Y2410556D01*
X60296172Y2333828D01*
X60219444Y2264286D01*
X60136258Y2202591D01*
X60047446Y2149358D01*
X59953820Y2105078D01*
X59856320Y2070191D01*
X59755873Y2045031D01*
X59653433Y2029835D01*
X59550000Y2024753D01*
D02*
G37*
%LPC*%
G36*
X49115000Y48285000D02*
X47105000Y48285000D01*
X47105000Y51195000D01*
X48145000Y51195000D01*
X48145000Y60725448D01*
X48019640Y60770302D01*
X47908282Y60822970D01*
X47802623Y60886300D01*
X47703681Y60959681D01*
X47612406Y61042406D01*
X47529681Y61133681D01*
X47456300Y61232623D01*
X47392970Y61338282D01*
X47340302Y61449640D01*
X47298803Y61565622D01*
X47268874Y61685108D01*
X47250798Y61806973D01*
X47244752Y61930000D01*
X47250798Y62053027D01*
X47268874Y62174892D01*
X47298803Y62294378D01*
X47340302Y62410360D01*
X47392970Y62521718D01*
X47456300Y62627377D01*
X47529681Y62726319D01*
X47612406Y62817594D01*
X47703681Y62900319D01*
X47802623Y62973700D01*
X47908282Y63037030D01*
X48019640Y63089698D01*
X48135622Y63131197D01*
X48255108Y63161126D01*
X48376973Y63179202D01*
X48500000Y63185248D01*
X48623027Y63179202D01*
X48744892Y63161126D01*
X48864378Y63131197D01*
X48980360Y63089698D01*
X49091718Y63037030D01*
X49197377Y62973700D01*
X49296319Y62900319D01*
X49387594Y62817594D01*
X49470319Y62726319D01*
X49543700Y62627377D01*
X49607030Y62521718D01*
X49659698Y62410360D01*
X49701197Y62294378D01*
X49731126Y62174892D01*
X49749202Y62053027D01*
X49755248Y61930000D01*
X49749202Y61806973D01*
X49731126Y61685108D01*
X49701197Y61565622D01*
X49659698Y61449640D01*
X49607030Y61338282D01*
X49543700Y61232623D01*
X49470319Y61133681D01*
X49387594Y61042406D01*
X49296319Y60959681D01*
X49197377Y60886300D01*
X49091718Y60822970D01*
X48980360Y60770302D01*
X48855000Y60725448D01*
X48855000Y51195000D01*
X49115000Y51195000D01*
X49115000Y48285000D01*
D02*
G37*
%LPC*%
G36*
X58350000Y62080000D02*
X57259853Y62080000D01*
X57273783Y62173912D01*
X57303595Y62292927D01*
X57344927Y62408444D01*
X57397385Y62519358D01*
X57460463Y62624596D01*
X57533551Y62723143D01*
X57615946Y62814054D01*
X57706857Y62896449D01*
X57805404Y62969537D01*
X57910642Y63032615D01*
X58021556Y63085073D01*
X58137073Y63126405D01*
X58256088Y63156217D01*
X58350000Y63170147D01*
X58350000Y62080000D01*
D02*
G37*
%LPC*%
G36*
X59740147Y62080000D02*
X58650000Y62080000D01*
X58650000Y63170147D01*
X58743912Y63156217D01*
X58862927Y63126405D01*
X58978444Y63085073D01*
X59089358Y63032615D01*
X59194596Y62969537D01*
X59293143Y62896449D01*
X59384054Y62814054D01*
X59466449Y62723143D01*
X59539537Y62624596D01*
X59602615Y62519358D01*
X59655073Y62408444D01*
X59696405Y62292927D01*
X59726217Y62173912D01*
X59740147Y62080000D01*
D02*
G37*
%LPC*%
G36*
X58350000Y60689853D02*
X58256088Y60703783D01*
X58137073Y60733595D01*
X58021556Y60774927D01*
X57910642Y60827385D01*
X57805404Y60890463D01*
X57706857Y60963551D01*
X57615946Y61045946D01*
X57533551Y61136857D01*
X57460463Y61235404D01*
X57397385Y61340642D01*
X57344927Y61451556D01*
X57303595Y61567073D01*
X57273783Y61686088D01*
X57259853Y61780000D01*
X58350000Y61780000D01*
X58350000Y60689853D01*
D02*
G37*
%LPC*%
G36*
X58650000Y60689853D02*
X58650000Y61780000D01*
X59740147Y61780000D01*
X59726217Y61686088D01*
X59696405Y61567073D01*
X59655073Y61451556D01*
X59602615Y61340642D01*
X59539537Y61235404D01*
X59466449Y61136857D01*
X59384054Y61045946D01*
X59293143Y60963551D01*
X59194596Y60890463D01*
X59089358Y60827385D01*
X58978444Y60774927D01*
X58862927Y60733595D01*
X58743912Y60703783D01*
X58650000Y60689853D01*
D02*
G37*
%LPC*%
G36*
X27205772Y58060000D02*
X26570000Y58060000D01*
X26570000Y58695772D01*
X26576117Y58694865D01*
X26652302Y58675781D01*
X26726233Y58649328D01*
X26797229Y58615749D01*
X26864597Y58575370D01*
X26927663Y58528598D01*
X26985856Y58475856D01*
X27038598Y58417663D01*
X27085370Y58354597D01*
X27125749Y58287229D01*
X27159328Y58216233D01*
X27185781Y58142302D01*
X27204865Y58066117D01*
X27205772Y58060000D01*
D02*
G37*
%LPC*%
G36*
X30005772Y58060000D02*
X29370000Y58060000D01*
X29370000Y58695772D01*
X29376117Y58694865D01*
X29452302Y58675781D01*
X29526233Y58649328D01*
X29597229Y58615749D01*
X29664597Y58575370D01*
X29727663Y58528598D01*
X29785856Y58475856D01*
X29838598Y58417663D01*
X29885370Y58354597D01*
X29925749Y58287229D01*
X29959328Y58216233D01*
X29985781Y58142302D01*
X30004865Y58066117D01*
X30005772Y58060000D01*
D02*
G37*
%LPC*%
G36*
X34565772Y58060000D02*
X33930000Y58060000D01*
X33930000Y58695772D01*
X33936117Y58694865D01*
X34012302Y58675781D01*
X34086233Y58649328D01*
X34157229Y58615749D01*
X34224597Y58575370D01*
X34287663Y58528598D01*
X34345856Y58475856D01*
X34398598Y58417663D01*
X34445370Y58354597D01*
X34485749Y58287229D01*
X34519328Y58216233D01*
X34545781Y58142302D01*
X34564865Y58066117D01*
X34565772Y58060000D01*
D02*
G37*
%LPC*%
G36*
X36430000Y58060000D02*
X35794228Y58060000D01*
X35795135Y58066117D01*
X35814219Y58142302D01*
X35840672Y58216233D01*
X35874251Y58287229D01*
X35914630Y58354597D01*
X35961402Y58417663D01*
X36014144Y58475856D01*
X36072337Y58528598D01*
X36135403Y58575370D01*
X36202771Y58615749D01*
X36273767Y58649328D01*
X36347698Y58675781D01*
X36423883Y58694865D01*
X36430000Y58695772D01*
X36430000Y58060000D01*
D02*
G37*
%LPC*%
G36*
X29070000Y58060000D02*
X28434228Y58060000D01*
X28435135Y58066117D01*
X28454219Y58142302D01*
X28480672Y58216233D01*
X28514251Y58287229D01*
X28554630Y58354597D01*
X28601402Y58417663D01*
X28654144Y58475856D01*
X28712337Y58528598D01*
X28775403Y58575370D01*
X28842771Y58615749D01*
X28913767Y58649328D01*
X28987698Y58675781D01*
X29063883Y58694865D01*
X29070000Y58695772D01*
X29070000Y58060000D01*
D02*
G37*
%LPC*%
G36*
X37365772Y58060000D02*
X36730000Y58060000D01*
X36730000Y58695772D01*
X36736117Y58694865D01*
X36812302Y58675781D01*
X36886233Y58649328D01*
X36957229Y58615749D01*
X37024597Y58575370D01*
X37087663Y58528598D01*
X37145856Y58475856D01*
X37198598Y58417663D01*
X37245370Y58354597D01*
X37285749Y58287229D01*
X37319328Y58216233D01*
X37345781Y58142302D01*
X37364865Y58066117D01*
X37365772Y58060000D01*
D02*
G37*
%LPC*%
G36*
X33630000Y58060000D02*
X32994228Y58060000D01*
X32995135Y58066117D01*
X33014219Y58142302D01*
X33040672Y58216233D01*
X33074251Y58287229D01*
X33114630Y58354597D01*
X33161402Y58417663D01*
X33214144Y58475856D01*
X33272337Y58528598D01*
X33335403Y58575370D01*
X33402771Y58615749D01*
X33473767Y58649328D01*
X33547698Y58675781D01*
X33623883Y58694865D01*
X33630000Y58695772D01*
X33630000Y58060000D01*
D02*
G37*
%LPC*%
G36*
X26270000Y58060000D02*
X25634228Y58060000D01*
X25635135Y58066117D01*
X25654219Y58142302D01*
X25680672Y58216233D01*
X25714251Y58287229D01*
X25754630Y58354597D01*
X25801402Y58417663D01*
X25854144Y58475856D01*
X25912337Y58528598D01*
X25975403Y58575370D01*
X26042771Y58615749D01*
X26113767Y58649328D01*
X26187698Y58675781D01*
X26263883Y58694865D01*
X26270000Y58695772D01*
X26270000Y58060000D01*
D02*
G37*
%LPC*%
G36*
X29070000Y57124228D02*
X29063883Y57125135D01*
X28987698Y57144219D01*
X28913767Y57170672D01*
X28842771Y57204251D01*
X28775403Y57244630D01*
X28712337Y57291402D01*
X28654144Y57344144D01*
X28601402Y57402337D01*
X28554630Y57465403D01*
X28514251Y57532771D01*
X28480672Y57603767D01*
X28454219Y57677698D01*
X28435135Y57753883D01*
X28434228Y57760000D01*
X29070000Y57760000D01*
X29070000Y57124228D01*
D02*
G37*
%LPC*%
G36*
X33930000Y57124228D02*
X33930000Y57760000D01*
X34565772Y57760000D01*
X34564865Y57753883D01*
X34545781Y57677698D01*
X34519328Y57603767D01*
X34485749Y57532771D01*
X34445370Y57465403D01*
X34398598Y57402337D01*
X34345856Y57344144D01*
X34287663Y57291402D01*
X34224597Y57244630D01*
X34157229Y57204251D01*
X34086233Y57170672D01*
X34012302Y57144219D01*
X33936117Y57125135D01*
X33930000Y57124228D01*
D02*
G37*
%LPC*%
G36*
X36730000Y57124228D02*
X36730000Y57760000D01*
X37365772Y57760000D01*
X37364865Y57753883D01*
X37345781Y57677698D01*
X37319328Y57603767D01*
X37285749Y57532771D01*
X37245370Y57465403D01*
X37198598Y57402337D01*
X37145856Y57344144D01*
X37087663Y57291402D01*
X37024597Y57244630D01*
X36957229Y57204251D01*
X36886233Y57170672D01*
X36812302Y57144219D01*
X36736117Y57125135D01*
X36730000Y57124228D01*
D02*
G37*
%LPC*%
G36*
X36430000Y57124228D02*
X36423883Y57125135D01*
X36347698Y57144219D01*
X36273767Y57170672D01*
X36202771Y57204251D01*
X36135403Y57244630D01*
X36072337Y57291402D01*
X36014144Y57344144D01*
X35961402Y57402337D01*
X35914630Y57465403D01*
X35874251Y57532771D01*
X35840672Y57603767D01*
X35814219Y57677698D01*
X35795135Y57753883D01*
X35794228Y57760000D01*
X36430000Y57760000D01*
X36430000Y57124228D01*
D02*
G37*
%LPC*%
G36*
X29370000Y57124228D02*
X29370000Y57760000D01*
X30005772Y57760000D01*
X30004865Y57753883D01*
X29985781Y57677698D01*
X29959328Y57603767D01*
X29925749Y57532771D01*
X29885370Y57465403D01*
X29838598Y57402337D01*
X29785856Y57344144D01*
X29727663Y57291402D01*
X29664597Y57244630D01*
X29597229Y57204251D01*
X29526233Y57170672D01*
X29452302Y57144219D01*
X29376117Y57125135D01*
X29370000Y57124228D01*
D02*
G37*
%LPC*%
G36*
X33630000Y57124228D02*
X33623883Y57125135D01*
X33547698Y57144219D01*
X33473767Y57170672D01*
X33402771Y57204251D01*
X33335403Y57244630D01*
X33272337Y57291402D01*
X33214144Y57344144D01*
X33161402Y57402337D01*
X33114630Y57465403D01*
X33074251Y57532771D01*
X33040672Y57603767D01*
X33014219Y57677698D01*
X32995135Y57753883D01*
X32994228Y57760000D01*
X33630000Y57760000D01*
X33630000Y57124228D01*
D02*
G37*
%LPC*%
G36*
X26570000Y57124228D02*
X26570000Y57760000D01*
X27205772Y57760000D01*
X27204865Y57753883D01*
X27185781Y57677698D01*
X27159328Y57603767D01*
X27125749Y57532771D01*
X27085370Y57465403D01*
X27038598Y57402337D01*
X26985856Y57344144D01*
X26927663Y57291402D01*
X26864597Y57244630D01*
X26797229Y57204251D01*
X26726233Y57170672D01*
X26652302Y57144219D01*
X26576117Y57125135D01*
X26570000Y57124228D01*
D02*
G37*
%LPC*%
G36*
X26270000Y57124228D02*
X26263883Y57125135D01*
X26187698Y57144219D01*
X26113767Y57170672D01*
X26042771Y57204251D01*
X25975403Y57244630D01*
X25912337Y57291402D01*
X25854144Y57344144D01*
X25801402Y57402337D01*
X25754630Y57465403D01*
X25714251Y57532771D01*
X25680672Y57603767D01*
X25654219Y57677698D01*
X25635135Y57753883D01*
X25634228Y57760000D01*
X26270000Y57760000D01*
X26270000Y57124228D01*
D02*
G37*
%LPC*%
G36*
X13730000Y54235000D02*
X11770000Y54235000D01*
X11770000Y55245000D01*
X12682953Y55245000D01*
X14065000Y56627046D01*
X14065000Y57360000D01*
X15275000Y57360000D01*
X15275000Y56100000D01*
X14542046Y56100000D01*
X13730000Y55287953D01*
X13730000Y54235000D01*
D02*
G37*
%LPC*%
G36*
X19070000Y54235000D02*
X17110000Y54235000D01*
X17110000Y55287953D01*
X16297954Y56100000D01*
X15565000Y56100000D01*
X15565000Y57360000D01*
X16775000Y57360000D01*
X16775000Y56627046D01*
X18157046Y55245000D01*
X19070000Y55245000D01*
X19070000Y54235000D01*
D02*
G37*
%LPC*%
G36*
X5950000Y2024753D02*
X5846567Y2029835D01*
X5744127Y2045031D01*
X5643680Y2070191D01*
X5546180Y2105078D01*
X5452554Y2149358D01*
X5363742Y2202591D01*
X5280556Y2264286D01*
X5203828Y2333828D01*
X5134286Y2410556D01*
X5072591Y2493742D01*
X5019358Y2582554D01*
X4975078Y2676180D01*
X4940191Y2773680D01*
X4915031Y2874127D01*
X4899835Y2976567D01*
X4894753Y3080000D01*
X4899835Y3183433D01*
X4915031Y3285873D01*
X4940191Y3386320D01*
X4975078Y3483820D01*
X5019358Y3577446D01*
X5072591Y3666258D01*
X5134286Y3749444D01*
X5203828Y3826172D01*
X5280556Y3895714D01*
X5363742Y3957409D01*
X5452554Y4010642D01*
X5595000Y4078012D01*
X5595000Y6732953D01*
X1826215Y10501738D01*
X1818372Y10508155D01*
X1774003Y10562223D01*
X1741106Y10623770D01*
X1720849Y10690548D01*
X1715000Y10749935D01*
X1715000Y50280066D01*
X1720849Y50339451D01*
X1741106Y50406229D01*
X1774003Y50467777D01*
X1817779Y50521122D01*
X1825551Y50527598D01*
X5705000Y54407047D01*
X5705000Y54635000D01*
X7015000Y54635000D01*
X7015000Y54535000D01*
X7585000Y54535000D01*
X7585000Y54935000D01*
X9395000Y54935000D01*
X9395000Y53425000D01*
X7585000Y53425000D01*
X7585000Y53825000D01*
X7015000Y53825000D01*
X7015000Y53725000D01*
X6027047Y53725000D01*
X2425000Y50122953D01*
X2425000Y10907047D01*
X6208148Y7123897D01*
X6245996Y7077776D01*
X6278893Y7016229D01*
X6299151Y6949451D01*
X6305000Y6890077D01*
X6305000Y4078012D01*
X6447446Y4010642D01*
X6536258Y3957409D01*
X6619444Y3895714D01*
X6696172Y3826172D01*
X6765714Y3749444D01*
X6827409Y3666258D01*
X6880642Y3577446D01*
X6924922Y3483820D01*
X6959809Y3386320D01*
X6984969Y3285873D01*
X7000165Y3183433D01*
X7005247Y3080000D01*
X7000165Y2976567D01*
X6984969Y2874127D01*
X6959809Y2773680D01*
X6924922Y2676180D01*
X6880642Y2582554D01*
X6827409Y2493742D01*
X6765714Y2410556D01*
X6696172Y2333828D01*
X6619444Y2264286D01*
X6536258Y2202591D01*
X6447446Y2149358D01*
X6353820Y2105078D01*
X6256320Y2070191D01*
X6155873Y2045031D01*
X6053433Y2029835D01*
X5950000Y2024753D01*
D02*
G37*
%LPC*%
G36*
X22060000Y52564753D02*
X21971268Y52569113D01*
X21883388Y52582149D01*
X21797224Y52603731D01*
X21713579Y52633661D01*
X21633263Y52671648D01*
X21557079Y52717310D01*
X21485715Y52770237D01*
X21419894Y52829894D01*
X21365417Y52890000D01*
X20890000Y52890000D01*
X20890000Y52865000D01*
X19630000Y52865000D01*
X19630000Y52965000D01*
X17110000Y52965000D01*
X17110000Y53975000D01*
X19630000Y53975000D01*
X19630000Y54075000D01*
X20890000Y54075000D01*
X20890000Y54050000D01*
X21365417Y54050000D01*
X21419894Y54110106D01*
X21485715Y54169763D01*
X21557079Y54222690D01*
X21633263Y54268352D01*
X21713579Y54306339D01*
X21797224Y54336269D01*
X21883388Y54357851D01*
X21971268Y54370887D01*
X22060000Y54375247D01*
X22148732Y54370887D01*
X22236612Y54357851D01*
X22322776Y54336269D01*
X22406421Y54306339D01*
X22486737Y54268352D01*
X22562921Y54222690D01*
X22634285Y54169763D01*
X22700106Y54110106D01*
X22759763Y54044285D01*
X22812690Y53972921D01*
X22858352Y53896737D01*
X22896339Y53816421D01*
X22926269Y53732776D01*
X22947851Y53646612D01*
X22960887Y53558732D01*
X22965247Y53470000D01*
X22960887Y53381268D01*
X22947851Y53293388D01*
X22926269Y53207224D01*
X22896339Y53123579D01*
X22858352Y53043263D01*
X22812690Y52967079D01*
X22759763Y52895715D01*
X22700106Y52829894D01*
X22634285Y52770237D01*
X22562921Y52717310D01*
X22486737Y52671648D01*
X22406421Y52633661D01*
X22322776Y52603731D01*
X22236612Y52582149D01*
X22148732Y52569113D01*
X22060000Y52564753D01*
D02*
G37*
%LPC*%
G36*
X11205000Y53845000D02*
X10730000Y53845000D01*
X10730000Y54295000D01*
X11205000Y54295000D01*
X11205000Y53845000D01*
D02*
G37*
%LPC*%
G36*
X10430000Y53845000D02*
X9955000Y53845000D01*
X9955000Y54295000D01*
X10430000Y54295000D01*
X10430000Y53845000D01*
D02*
G37*
%LPC*%
G36*
X15325000Y44675000D02*
X14015000Y44675000D01*
X14015000Y45585000D01*
X14315000Y45585000D01*
X14315000Y48300000D01*
X14065000Y48300000D01*
X14065000Y49560000D01*
X14315000Y49560000D01*
X14315000Y52918483D01*
X14254319Y52963485D01*
X14206670Y53006670D01*
X14163485Y53054319D01*
X14118483Y53115000D01*
X13730000Y53115000D01*
X13730000Y52965000D01*
X11770000Y52965000D01*
X11770000Y53975000D01*
X13730000Y53975000D01*
X13730000Y53825000D01*
X14118483Y53825000D01*
X14163485Y53885681D01*
X14206670Y53933330D01*
X14254316Y53976512D01*
X14305966Y54014818D01*
X14361122Y54047877D01*
X14419243Y54075366D01*
X14479790Y54097032D01*
X14542167Y54112655D01*
X14605774Y54122091D01*
X14670000Y54125247D01*
X14734226Y54122091D01*
X14797833Y54112655D01*
X14860210Y54097032D01*
X14920757Y54075366D01*
X14978878Y54047877D01*
X15034034Y54014818D01*
X15085684Y53976512D01*
X15133330Y53933330D01*
X15176512Y53885684D01*
X15214818Y53834034D01*
X15247877Y53778878D01*
X15275366Y53720757D01*
X15297032Y53660210D01*
X15312655Y53597833D01*
X15322091Y53534226D01*
X15325247Y53470000D01*
X15322091Y53405774D01*
X15312655Y53342167D01*
X15297032Y53279790D01*
X15275366Y53219243D01*
X15247877Y53161122D01*
X15214818Y53105966D01*
X15176512Y53054316D01*
X15133330Y53006670D01*
X15085681Y52963485D01*
X15025000Y52918483D01*
X15025000Y49560000D01*
X15275000Y49560000D01*
X15275000Y48300000D01*
X15025000Y48300000D01*
X15025000Y45585000D01*
X15325000Y45585000D01*
X15325000Y45485000D01*
X15845000Y45485000D01*
X15845000Y45585000D01*
X17155000Y45585000D01*
X17155000Y44675000D01*
X15845000Y44675000D01*
X15845000Y44775000D01*
X15325000Y44775000D01*
X15325000Y44675000D01*
D02*
G37*
%LPC*%
G36*
X26420000Y46624753D02*
X26292063Y46631039D01*
X26165352Y46649835D01*
X26041107Y46680956D01*
X25920506Y46724108D01*
X25804712Y46778874D01*
X25694844Y46844727D01*
X25591961Y46921031D01*
X25497051Y47007051D01*
X25411031Y47101961D01*
X25334727Y47204844D01*
X25268874Y47314712D01*
X25214108Y47430506D01*
X25170956Y47551107D01*
X25139835Y47675352D01*
X25121039Y47802063D01*
X25114753Y47930000D01*
X25121039Y48057937D01*
X25139835Y48184648D01*
X25170956Y48308893D01*
X25214108Y48429494D01*
X25268874Y48545288D01*
X25334727Y48655156D01*
X25411031Y48758039D01*
X25497051Y48852949D01*
X25591961Y48938969D01*
X25694844Y49015273D01*
X25804712Y49081126D01*
X25920506Y49135892D01*
X26065000Y49187592D01*
X26065000Y52105098D01*
X25972634Y52160458D01*
X25909157Y52207536D01*
X25850604Y52260604D01*
X25797536Y52319157D01*
X25750461Y52382630D01*
X25709838Y52450406D01*
X25676047Y52521851D01*
X25649429Y52596244D01*
X25630225Y52672906D01*
X25618631Y52751077D01*
X25614752Y52830000D01*
X25618631Y52908923D01*
X25630225Y52987094D01*
X25649429Y53063756D01*
X25676047Y53138149D01*
X25709838Y53209594D01*
X25750461Y53277370D01*
X25797536Y53340843D01*
X25850604Y53399396D01*
X25909157Y53452464D01*
X25972630Y53499539D01*
X26040406Y53540162D01*
X26111851Y53573953D01*
X26186244Y53600571D01*
X26262906Y53619775D01*
X26341077Y53631369D01*
X26420000Y53635248D01*
X26498923Y53631369D01*
X26577094Y53619775D01*
X26653756Y53600571D01*
X26728149Y53573953D01*
X26799594Y53540162D01*
X26867370Y53499539D01*
X26930843Y53452464D01*
X26989396Y53399396D01*
X27042464Y53340843D01*
X27089542Y53277366D01*
X27144902Y53185000D01*
X28495098Y53185000D01*
X28550458Y53277366D01*
X28597536Y53340843D01*
X28650604Y53399396D01*
X28709157Y53452464D01*
X28772630Y53499539D01*
X28840406Y53540162D01*
X28911851Y53573953D01*
X28986244Y53600571D01*
X29062906Y53619775D01*
X29141077Y53631369D01*
X29220000Y53635248D01*
X29298923Y53631369D01*
X29377094Y53619775D01*
X29453756Y53600571D01*
X29528149Y53573953D01*
X29599594Y53540162D01*
X29667370Y53499539D01*
X29730843Y53452464D01*
X29789396Y53399396D01*
X29842464Y53340843D01*
X29889539Y53277370D01*
X29930162Y53209594D01*
X29963953Y53138149D01*
X29990571Y53063756D01*
X30009775Y52987094D01*
X30021369Y52908923D01*
X30025248Y52830000D01*
X30021369Y52751077D01*
X30009775Y52672906D01*
X29990571Y52596244D01*
X29963953Y52521851D01*
X29930162Y52450406D01*
X29889539Y52382630D01*
X29842464Y52319157D01*
X29789396Y52260604D01*
X29730843Y52207536D01*
X29667370Y52160461D01*
X29599594Y52119838D01*
X29528149Y52086047D01*
X29453756Y52059429D01*
X29377094Y52040225D01*
X29298923Y52028631D01*
X29220000Y52024752D01*
X29141077Y52028631D01*
X29062906Y52040225D01*
X28986244Y52059429D01*
X28911851Y52086047D01*
X28840406Y52119838D01*
X28772630Y52160461D01*
X28709157Y52207536D01*
X28650604Y52260604D01*
X28597536Y52319157D01*
X28550458Y52382634D01*
X28495098Y52475000D01*
X27144902Y52475000D01*
X27089542Y52382634D01*
X27042464Y52319157D01*
X26989396Y52260604D01*
X26930843Y52207536D01*
X26867366Y52160458D01*
X26775000Y52105098D01*
X26775000Y49187592D01*
X26919494Y49135892D01*
X27035288Y49081126D01*
X27145156Y49015273D01*
X27248039Y48938969D01*
X27342949Y48852949D01*
X27428969Y48758039D01*
X27505273Y48655156D01*
X27571126Y48545288D01*
X27625892Y48429494D01*
X27669044Y48308893D01*
X27700165Y48184648D01*
X27718961Y48057937D01*
X27725247Y47930000D01*
X27718961Y47802063D01*
X27700165Y47675352D01*
X27669044Y47551107D01*
X27625892Y47430506D01*
X27571126Y47314712D01*
X27505273Y47204844D01*
X27428969Y47101961D01*
X27342949Y47007051D01*
X27248039Y46921031D01*
X27145156Y46844727D01*
X27035288Y46778874D01*
X26919494Y46724108D01*
X26798893Y46680956D01*
X26674648Y46649835D01*
X26547937Y46631039D01*
X26420000Y46624753D01*
D02*
G37*
%LPC*%
G36*
X36580000Y46624753D02*
X36452063Y46631039D01*
X36325352Y46649835D01*
X36201107Y46680956D01*
X36080506Y46724108D01*
X35964712Y46778874D01*
X35854844Y46844727D01*
X35751961Y46921031D01*
X35657051Y47007051D01*
X35571031Y47101961D01*
X35494727Y47204844D01*
X35428874Y47314712D01*
X35374108Y47430506D01*
X35330956Y47551107D01*
X35299835Y47675352D01*
X35281039Y47802063D01*
X35274753Y47930000D01*
X35281039Y48057937D01*
X35299835Y48184648D01*
X35330956Y48308893D01*
X35374108Y48429494D01*
X35428874Y48545288D01*
X35494727Y48655156D01*
X35571031Y48758039D01*
X35657051Y48852949D01*
X35751961Y48938969D01*
X35854844Y49015273D01*
X35964712Y49081126D01*
X36080506Y49135892D01*
X36225000Y49187592D01*
X36225000Y52105098D01*
X36132634Y52160458D01*
X36069157Y52207536D01*
X36010604Y52260604D01*
X35957536Y52319157D01*
X35910458Y52382634D01*
X35855098Y52475000D01*
X34504902Y52475000D01*
X34449542Y52382634D01*
X34402464Y52319157D01*
X34349396Y52260604D01*
X34290843Y52207536D01*
X34227370Y52160461D01*
X34159594Y52119838D01*
X34088149Y52086047D01*
X34013756Y52059429D01*
X33937094Y52040225D01*
X33858923Y52028631D01*
X33780000Y52024752D01*
X33701077Y52028631D01*
X33622906Y52040225D01*
X33546244Y52059429D01*
X33471851Y52086047D01*
X33400406Y52119838D01*
X33332630Y52160461D01*
X33269157Y52207536D01*
X33210604Y52260604D01*
X33157536Y52319157D01*
X33110461Y52382630D01*
X33069838Y52450406D01*
X33036047Y52521851D01*
X33009429Y52596244D01*
X32990225Y52672906D01*
X32978631Y52751077D01*
X32974752Y52830000D01*
X32978631Y52908923D01*
X32990225Y52987094D01*
X33009429Y53063756D01*
X33036047Y53138149D01*
X33069838Y53209594D01*
X33110461Y53277370D01*
X33157536Y53340843D01*
X33210604Y53399396D01*
X33269157Y53452464D01*
X33332630Y53499539D01*
X33400406Y53540162D01*
X33471851Y53573953D01*
X33546244Y53600571D01*
X33622906Y53619775D01*
X33701077Y53631369D01*
X33780000Y53635248D01*
X33858923Y53631369D01*
X33937094Y53619775D01*
X34013756Y53600571D01*
X34088149Y53573953D01*
X34159594Y53540162D01*
X34227370Y53499539D01*
X34290843Y53452464D01*
X34349396Y53399396D01*
X34402464Y53340843D01*
X34449542Y53277366D01*
X34504902Y53185000D01*
X35855098Y53185000D01*
X35910458Y53277366D01*
X35957536Y53340843D01*
X36010604Y53399396D01*
X36069157Y53452464D01*
X36132630Y53499539D01*
X36200406Y53540162D01*
X36271851Y53573953D01*
X36346244Y53600571D01*
X36422906Y53619775D01*
X36501077Y53631369D01*
X36580000Y53635248D01*
X36658923Y53631369D01*
X36737094Y53619775D01*
X36813756Y53600571D01*
X36888149Y53573953D01*
X36959594Y53540162D01*
X37027370Y53499539D01*
X37090843Y53452464D01*
X37149396Y53399396D01*
X37202464Y53340843D01*
X37249539Y53277370D01*
X37290162Y53209594D01*
X37323953Y53138149D01*
X37350571Y53063756D01*
X37369775Y52987094D01*
X37381369Y52908923D01*
X37385248Y52830000D01*
X37381369Y52751077D01*
X37369775Y52672906D01*
X37350571Y52596244D01*
X37323953Y52521851D01*
X37290162Y52450406D01*
X37249539Y52382630D01*
X37202464Y52319157D01*
X37149396Y52260604D01*
X37090843Y52207536D01*
X37027366Y52160458D01*
X36935000Y52105098D01*
X36935000Y49187592D01*
X37079494Y49135892D01*
X37195288Y49081126D01*
X37305156Y49015273D01*
X37408039Y48938969D01*
X37502949Y48852949D01*
X37588969Y48758039D01*
X37665273Y48655156D01*
X37731126Y48545288D01*
X37785892Y48429494D01*
X37829044Y48308893D01*
X37860165Y48184648D01*
X37878961Y48057937D01*
X37885247Y47930000D01*
X37878961Y47802063D01*
X37860165Y47675352D01*
X37829044Y47551107D01*
X37785892Y47430506D01*
X37731126Y47314712D01*
X37665273Y47204844D01*
X37588969Y47101961D01*
X37502949Y47007051D01*
X37408039Y46921031D01*
X37305156Y46844727D01*
X37195288Y46778874D01*
X37079494Y46724108D01*
X36958893Y46680956D01*
X36834648Y46649835D01*
X36707937Y46631039D01*
X36580000Y46624753D01*
D02*
G37*
%LPC*%
G36*
X10430000Y53095000D02*
X9955000Y53095000D01*
X9955000Y53545000D01*
X10430000Y53545000D01*
X10430000Y53095000D01*
D02*
G37*
%LPC*%
G36*
X11205000Y53095000D02*
X10730000Y53095000D01*
X10730000Y53545000D01*
X11205000Y53545000D01*
X11205000Y53095000D01*
D02*
G37*
%LPC*%
G36*
X9265000Y47915000D02*
X8355000Y47915000D01*
X8355000Y49225000D01*
X8455000Y49225000D01*
X8455000Y49745000D01*
X8355000Y49745000D01*
X8355000Y51055000D01*
X8455000Y51055000D01*
X8455000Y51625000D01*
X7585000Y51625000D01*
X7585000Y53135000D01*
X9395000Y53135000D01*
X9395000Y51625000D01*
X9165000Y51625000D01*
X9165000Y51055000D01*
X9265000Y51055000D01*
X9265000Y49745000D01*
X9165000Y49745000D01*
X9165000Y49225000D01*
X9265000Y49225000D01*
X9265000Y47915000D01*
D02*
G37*
%LPC*%
G36*
X7010000Y52830000D02*
X6510000Y52830000D01*
X6510000Y53130000D01*
X7010000Y53130000D01*
X7010000Y52830000D01*
D02*
G37*
%LPC*%
G36*
X6210000Y52830000D02*
X5710000Y52830000D01*
X5710000Y53130000D01*
X6210000Y53130000D01*
X6210000Y52830000D01*
D02*
G37*
%LPC*%
G36*
X24755002Y38305000D02*
X23845002Y38305000D01*
X23845002Y39615000D01*
X23945002Y39615000D01*
X23945002Y40652951D01*
X16297953Y48300000D01*
X15565000Y48300000D01*
X15565000Y49560000D01*
X15815000Y49560000D01*
X15815000Y51638483D01*
X15754319Y51683485D01*
X15706670Y51726670D01*
X15663488Y51774316D01*
X15625182Y51825966D01*
X15592123Y51881122D01*
X15564634Y51939243D01*
X15542968Y51999790D01*
X15527345Y52062167D01*
X15517909Y52125774D01*
X15514753Y52190000D01*
X15517909Y52254226D01*
X15527345Y52317833D01*
X15542968Y52380210D01*
X15564634Y52440757D01*
X15592123Y52498878D01*
X15625182Y52554034D01*
X15663488Y52605684D01*
X15706670Y52653330D01*
X15754316Y52696512D01*
X15805966Y52734818D01*
X15861122Y52767877D01*
X15919243Y52795366D01*
X15979790Y52817032D01*
X16042167Y52832655D01*
X16105774Y52842091D01*
X16170000Y52845247D01*
X16234226Y52842091D01*
X16297833Y52832655D01*
X16360210Y52817032D01*
X16420757Y52795366D01*
X16478878Y52767877D01*
X16534034Y52734818D01*
X16585684Y52696512D01*
X16633330Y52653330D01*
X16676515Y52605681D01*
X16721517Y52545000D01*
X17110000Y52545000D01*
X17110000Y52695000D01*
X19070000Y52695000D01*
X19070000Y51685000D01*
X17110000Y51685000D01*
X17110000Y51835000D01*
X16721517Y51835000D01*
X16676515Y51774319D01*
X16633330Y51726670D01*
X16585681Y51683485D01*
X16525000Y51638483D01*
X16525000Y49560000D01*
X16775000Y49560000D01*
X16775000Y48827047D01*
X24558150Y41043895D01*
X24595998Y40997774D01*
X24628895Y40936227D01*
X24649153Y40869449D01*
X24655002Y40810075D01*
X24655002Y39615000D01*
X24755002Y39615000D01*
X24755002Y38305000D01*
D02*
G37*
%LPC*%
G36*
X10765000Y49745000D02*
X9855000Y49745000D01*
X9855000Y51055000D01*
X9955000Y51055000D01*
X9955000Y51590000D01*
X9950000Y51590000D01*
X9950000Y52800000D01*
X11210000Y52800000D01*
X11210000Y52550000D01*
X11770000Y52550000D01*
X11770000Y52695000D01*
X13730000Y52695000D01*
X13730000Y51685000D01*
X11770000Y51685000D01*
X11770000Y51840000D01*
X11210000Y51840000D01*
X11210000Y51590000D01*
X10665000Y51590000D01*
X10665000Y51055000D01*
X10765000Y51055000D01*
X10765000Y49745000D01*
D02*
G37*
%LPC*%
G36*
X20110000Y52120000D02*
X19635000Y52120000D01*
X19635000Y52570000D01*
X20110000Y52570000D01*
X20110000Y52120000D01*
D02*
G37*
%LPC*%
G36*
X20885000Y52120000D02*
X20410000Y52120000D01*
X20410000Y52570000D01*
X20885000Y52570000D01*
X20885000Y52120000D01*
D02*
G37*
%LPC*%
G36*
X7010000Y52230000D02*
X6510000Y52230000D01*
X6510000Y52530000D01*
X7010000Y52530000D01*
X7010000Y52230000D01*
D02*
G37*
%LPC*%
G36*
X6210000Y52230000D02*
X5710000Y52230000D01*
X5710000Y52530000D01*
X6210000Y52530000D01*
X6210000Y52230000D01*
D02*
G37*
%LPC*%
G36*
X20885000Y51370000D02*
X20410000Y51370000D01*
X20410000Y51820000D01*
X20885000Y51820000D01*
X20885000Y51370000D01*
D02*
G37*
%LPC*%
G36*
X20110000Y51370000D02*
X19635000Y51370000D01*
X19635000Y51820000D01*
X20110000Y51820000D01*
X20110000Y51370000D01*
D02*
G37*
%LPC*%
G36*
X19070000Y50415000D02*
X17110000Y50415000D01*
X17110000Y51425000D01*
X19070000Y51425000D01*
X19070000Y50415000D01*
D02*
G37*
%LPC*%
G36*
X13725000Y51070000D02*
X12900000Y51070000D01*
X12900000Y51420000D01*
X13725000Y51420000D01*
X13725000Y51070000D01*
D02*
G37*
%LPC*%
G36*
X12600000Y51070000D02*
X11775000Y51070000D01*
X11775000Y51420000D01*
X12600000Y51420000D01*
X12600000Y51070000D01*
D02*
G37*
%LPC*%
G36*
X12600000Y50420000D02*
X11775000Y50420000D01*
X11775000Y50770000D01*
X12600000Y50770000D01*
X12600000Y50420000D01*
D02*
G37*
%LPC*%
G36*
X13725000Y50420000D02*
X12900000Y50420000D01*
X12900000Y50770000D01*
X13725000Y50770000D01*
X13725000Y50420000D01*
D02*
G37*
%LPC*%
G36*
X30600000Y28824752D02*
X30501475Y28829594D01*
X30403884Y28844069D01*
X30308193Y28868038D01*
X30215304Y28901275D01*
X30126140Y28943445D01*
X30041512Y28994170D01*
X29962277Y29052935D01*
X29889183Y29119183D01*
X29822935Y29192277D01*
X29764170Y29271512D01*
X29713448Y29356136D01*
X29657231Y29475000D01*
X27042769Y29475000D01*
X26986552Y29356136D01*
X26935830Y29271512D01*
X26877065Y29192277D01*
X26810817Y29119183D01*
X26737723Y29052935D01*
X26658488Y28994170D01*
X26573860Y28943445D01*
X26484696Y28901275D01*
X26391807Y28868038D01*
X26296116Y28844069D01*
X26198525Y28829594D01*
X26100000Y28824752D01*
X26001475Y28829594D01*
X25903884Y28844069D01*
X25808193Y28868038D01*
X25715304Y28901275D01*
X25626140Y28943445D01*
X25541512Y28994170D01*
X25462277Y29052935D01*
X25389183Y29119183D01*
X25322935Y29192277D01*
X25264170Y29271512D01*
X25213445Y29356140D01*
X25171275Y29445304D01*
X25138038Y29538193D01*
X25114069Y29633884D01*
X25099594Y29731475D01*
X25094752Y29830000D01*
X25099594Y29928525D01*
X25114069Y30026116D01*
X25138038Y30121807D01*
X25171275Y30214696D01*
X25213445Y30303860D01*
X25264170Y30388488D01*
X25322935Y30467723D01*
X25389183Y30540817D01*
X25462277Y30607065D01*
X25541512Y30665830D01*
X25626140Y30716555D01*
X25715304Y30758725D01*
X25808193Y30791962D01*
X25903884Y30815931D01*
X26001475Y30830406D01*
X26100000Y30835248D01*
X26198525Y30830406D01*
X26296116Y30815931D01*
X26391807Y30791962D01*
X26484696Y30758725D01*
X26573860Y30716555D01*
X26658488Y30665830D01*
X26737723Y30607065D01*
X26810817Y30540817D01*
X26877065Y30467723D01*
X26935830Y30388488D01*
X26986552Y30303864D01*
X27042769Y30185000D01*
X29657231Y30185000D01*
X29713448Y30303864D01*
X29764170Y30388488D01*
X29822935Y30467723D01*
X29889183Y30540817D01*
X29962277Y30607065D01*
X30041512Y30665830D01*
X30126136Y30716552D01*
X30245000Y30772769D01*
X30245000Y33627526D01*
X29024290Y33627526D01*
X29024290Y35073663D01*
X27956214Y36141740D01*
X27948371Y36148157D01*
X27904003Y36202223D01*
X27871106Y36263770D01*
X27850849Y36330548D01*
X27845000Y36389935D01*
X27845000Y44640066D01*
X27850849Y44699451D01*
X27871106Y44766229D01*
X27904003Y44827777D01*
X27947779Y44881122D01*
X27955551Y44887598D01*
X30359724Y47291770D01*
X30294108Y47430506D01*
X30250956Y47551107D01*
X30219835Y47675352D01*
X30201039Y47802063D01*
X30194753Y47930000D01*
X30201039Y48057937D01*
X30219835Y48184648D01*
X30250956Y48308893D01*
X30294108Y48429494D01*
X30348874Y48545288D01*
X30414727Y48655156D01*
X30491031Y48758039D01*
X30577051Y48852949D01*
X30671961Y48938969D01*
X30774844Y49015273D01*
X30884712Y49081126D01*
X31000506Y49135892D01*
X31121107Y49179044D01*
X31245352Y49210165D01*
X31372063Y49228961D01*
X31500000Y49235247D01*
X31627937Y49228961D01*
X31754648Y49210165D01*
X31878893Y49179044D01*
X31999494Y49135892D01*
X32115288Y49081126D01*
X32225156Y49015273D01*
X32328039Y48938969D01*
X32422949Y48852949D01*
X32508969Y48758039D01*
X32585273Y48655156D01*
X32651126Y48545288D01*
X32705892Y48429494D01*
X32749044Y48308893D01*
X32780165Y48184648D01*
X32798961Y48057937D01*
X32805247Y47930000D01*
X32798961Y47802063D01*
X32780165Y47675352D01*
X32749044Y47551107D01*
X32705892Y47430506D01*
X32651126Y47314712D01*
X32585273Y47204844D01*
X32508969Y47101961D01*
X32422949Y47007051D01*
X32328039Y46921031D01*
X32225156Y46844727D01*
X32115288Y46778874D01*
X31999494Y46724108D01*
X31878893Y46680956D01*
X31754648Y46649835D01*
X31627937Y46631039D01*
X31500000Y46624753D01*
X31372063Y46631039D01*
X31245352Y46649835D01*
X31121107Y46680956D01*
X31000506Y46724108D01*
X30861770Y46789724D01*
X28555000Y44482953D01*
X28555000Y36547047D01*
X29469573Y35632474D01*
X32175710Y35632474D01*
X32175710Y34985000D01*
X33257231Y34985000D01*
X33313448Y35103864D01*
X33364170Y35188488D01*
X33422935Y35267723D01*
X33489183Y35340817D01*
X33562277Y35407065D01*
X33641512Y35465830D01*
X33726140Y35516555D01*
X33815304Y35558725D01*
X33908193Y35591962D01*
X34003884Y35615931D01*
X34101475Y35630406D01*
X34200000Y35635248D01*
X34298525Y35630406D01*
X34396116Y35615931D01*
X34491807Y35591962D01*
X34584696Y35558725D01*
X34673860Y35516555D01*
X34758488Y35465830D01*
X34837723Y35407065D01*
X34910817Y35340817D01*
X34977065Y35267723D01*
X35035830Y35188488D01*
X35086555Y35103860D01*
X35128725Y35014696D01*
X35161962Y34921807D01*
X35185931Y34826116D01*
X35200406Y34728525D01*
X35205248Y34630000D01*
X35200406Y34531475D01*
X35185931Y34433884D01*
X35161962Y34338193D01*
X35128725Y34245304D01*
X35086555Y34156140D01*
X35035830Y34071512D01*
X34977065Y33992277D01*
X34910817Y33919183D01*
X34837723Y33852935D01*
X34758488Y33794170D01*
X34673860Y33743445D01*
X34584696Y33701275D01*
X34491807Y33668038D01*
X34396116Y33644069D01*
X34298525Y33629594D01*
X34200000Y33624752D01*
X34101475Y33629594D01*
X34003884Y33644069D01*
X33908193Y33668038D01*
X33815304Y33701275D01*
X33726140Y33743445D01*
X33641512Y33794170D01*
X33562277Y33852935D01*
X33489183Y33919183D01*
X33422935Y33992277D01*
X33364170Y34071512D01*
X33313448Y34156136D01*
X33257231Y34275000D01*
X32175710Y34275000D01*
X32175710Y33627526D01*
X30955000Y33627526D01*
X30955000Y30772769D01*
X31073864Y30716552D01*
X31158488Y30665830D01*
X31237723Y30607065D01*
X31310817Y30540817D01*
X31377065Y30467723D01*
X31435830Y30388488D01*
X31486552Y30303864D01*
X31542769Y30185000D01*
X56252953Y30185000D01*
X57397229Y31329276D01*
X57340302Y31449640D01*
X57298803Y31565622D01*
X57268874Y31685108D01*
X57250798Y31806973D01*
X57244752Y31930000D01*
X57250798Y32053027D01*
X57268874Y32174892D01*
X57298803Y32294378D01*
X57340302Y32410360D01*
X57392970Y32521718D01*
X57456300Y32627377D01*
X57529681Y32726319D01*
X57612406Y32817594D01*
X57703681Y32900319D01*
X57802623Y32973700D01*
X57908282Y33037030D01*
X58019640Y33089698D01*
X58135622Y33131197D01*
X58255108Y33161126D01*
X58376973Y33179202D01*
X58500000Y33185248D01*
X58623027Y33179202D01*
X58744892Y33161126D01*
X58864378Y33131197D01*
X58980360Y33089698D01*
X59091718Y33037030D01*
X59197377Y32973700D01*
X59296319Y32900319D01*
X59387594Y32817594D01*
X59470319Y32726319D01*
X59543700Y32627377D01*
X59607030Y32521718D01*
X59659698Y32410360D01*
X59701197Y32294378D01*
X59731126Y32174892D01*
X59749202Y32053027D01*
X59755248Y31930000D01*
X59749202Y31806973D01*
X59731126Y31685108D01*
X59701197Y31565622D01*
X59659698Y31449640D01*
X59607030Y31338282D01*
X59543700Y31232623D01*
X59470319Y31133681D01*
X59387594Y31042406D01*
X59296319Y30959681D01*
X59197377Y30886300D01*
X59091718Y30822970D01*
X58980360Y30770302D01*
X58864378Y30728803D01*
X58744892Y30698874D01*
X58623027Y30680798D01*
X58500000Y30674752D01*
X58376973Y30680798D01*
X58255108Y30698874D01*
X58135622Y30728803D01*
X58019640Y30770302D01*
X57899276Y30827229D01*
X56657598Y29585551D01*
X56651122Y29577779D01*
X56597777Y29534003D01*
X56536229Y29501106D01*
X56469451Y29480849D01*
X56410066Y29475000D01*
X31542769Y29475000D01*
X31486552Y29356136D01*
X31435830Y29271512D01*
X31377065Y29192277D01*
X31310817Y29119183D01*
X31237723Y29052935D01*
X31158488Y28994170D01*
X31073860Y28943445D01*
X30984696Y28901275D01*
X30891807Y28868038D01*
X30796116Y28844069D01*
X30698525Y28829594D01*
X30600000Y28824752D01*
D02*
G37*
%LPC*%
G36*
X10310000Y45864753D02*
X10221268Y45869113D01*
X10133388Y45882149D01*
X10047224Y45903731D01*
X9963579Y45933661D01*
X9883263Y45971648D01*
X9807079Y46017310D01*
X9735715Y46070237D01*
X9669894Y46129894D01*
X9610237Y46195715D01*
X9557310Y46267079D01*
X9511648Y46343263D01*
X9473661Y46423579D01*
X9443731Y46507224D01*
X9422149Y46593388D01*
X9409113Y46681268D01*
X9404753Y46770000D01*
X9409113Y46858732D01*
X9422149Y46946612D01*
X9443731Y47032776D01*
X9473661Y47116421D01*
X9511648Y47196737D01*
X9557310Y47272921D01*
X9610237Y47344285D01*
X9669894Y47410106D01*
X9735715Y47469763D01*
X9807073Y47522685D01*
X9855000Y47551406D01*
X9855000Y49225000D01*
X10765000Y49225000D01*
X10765000Y47551406D01*
X10812927Y47522685D01*
X10884285Y47469763D01*
X10950106Y47410106D01*
X11009763Y47344285D01*
X11062690Y47272921D01*
X11108352Y47196737D01*
X11146339Y47116421D01*
X11176269Y47032776D01*
X11197851Y46946612D01*
X11210887Y46858732D01*
X11215247Y46770000D01*
X11210887Y46681268D01*
X11197851Y46593388D01*
X11176269Y46507224D01*
X11146339Y46423579D01*
X11108352Y46343263D01*
X11062690Y46267079D01*
X11009763Y46195715D01*
X10950106Y46129894D01*
X10884285Y46070237D01*
X10812921Y46017310D01*
X10736737Y45971648D01*
X10656421Y45933661D01*
X10572776Y45903731D01*
X10486612Y45882149D01*
X10398732Y45869113D01*
X10310000Y45864753D01*
D02*
G37*
%LPC*%
G36*
X51790000Y48090000D02*
X51290000Y48090000D01*
X51290000Y48390000D01*
X51790000Y48390000D01*
X51790000Y48090000D01*
D02*
G37*
%LPC*%
G36*
X52590000Y48090000D02*
X52090000Y48090000D01*
X52090000Y48390000D01*
X52590000Y48390000D01*
X52590000Y48090000D01*
D02*
G37*
%LPC*%
G36*
X46865000Y42685000D02*
X45555000Y42685000D01*
X45555000Y44095000D01*
X46002953Y44095000D01*
X47105000Y45197047D01*
X47105000Y47895000D01*
X49115000Y47895000D01*
X49115000Y46795000D01*
X51285000Y46795000D01*
X51285000Y46895000D01*
X52595000Y46895000D01*
X52595000Y45985000D01*
X51285000Y45985000D01*
X51285000Y46085000D01*
X49115000Y46085000D01*
X49115000Y44985000D01*
X47897047Y44985000D01*
X46865000Y43952953D01*
X46865000Y42685000D01*
D02*
G37*
%LPC*%
G36*
X51790000Y47490000D02*
X51290000Y47490000D01*
X51290000Y47790000D01*
X51790000Y47790000D01*
X51790000Y47490000D01*
D02*
G37*
%LPC*%
G36*
X52590000Y47490000D02*
X52090000Y47490000D01*
X52090000Y47790000D01*
X52590000Y47790000D01*
X52590000Y47490000D01*
D02*
G37*
%LPC*%
G36*
X13045709Y42627526D02*
X9894289Y42627526D01*
X9894289Y44632474D01*
X13045709Y44632474D01*
X13045709Y43985000D01*
X14015000Y43985000D01*
X14015000Y44085000D01*
X15325000Y44085000D01*
X15325000Y43175000D01*
X14015000Y43175000D01*
X14015000Y43275000D01*
X13045709Y43275000D01*
X13045709Y42627526D01*
D02*
G37*
%LPC*%
G36*
X8140711Y43780000D02*
X6720001Y43780000D01*
X6720001Y44627474D01*
X8140711Y44627474D01*
X8140711Y43780000D01*
D02*
G37*
%LPC*%
G36*
X6420001Y43780000D02*
X4999291Y43780000D01*
X4999291Y44627474D01*
X6420001Y44627474D01*
X6420001Y43780000D01*
D02*
G37*
%LPC*%
G36*
X49910000Y42484753D02*
X49821268Y42489113D01*
X49733388Y42502149D01*
X49647224Y42523731D01*
X49563579Y42553661D01*
X49483263Y42591648D01*
X49407079Y42637310D01*
X49335715Y42690237D01*
X49269896Y42749892D01*
X49238077Y42785000D01*
X48765000Y42785000D01*
X48765000Y42685000D01*
X47455000Y42685000D01*
X47455000Y44095000D01*
X48765000Y44095000D01*
X48765000Y43995000D01*
X49238077Y43995000D01*
X49269896Y44030108D01*
X49335715Y44089763D01*
X49407079Y44142690D01*
X49483263Y44188352D01*
X49563579Y44226339D01*
X49647224Y44256269D01*
X49733388Y44277851D01*
X49821268Y44290887D01*
X49910000Y44295247D01*
X49998732Y44290887D01*
X50086612Y44277851D01*
X50172776Y44256269D01*
X50256421Y44226339D01*
X50336737Y44188352D01*
X50412921Y44142690D01*
X50484285Y44089763D01*
X50550106Y44030106D01*
X50609763Y43964285D01*
X50662690Y43892921D01*
X50708352Y43816737D01*
X50746339Y43736421D01*
X50776269Y43652776D01*
X50797851Y43566612D01*
X50810887Y43478732D01*
X50815247Y43390000D01*
X50810887Y43301268D01*
X50797851Y43213388D01*
X50776269Y43127224D01*
X50746339Y43043579D01*
X50708352Y42963263D01*
X50662690Y42887079D01*
X50609763Y42815715D01*
X50550106Y42749894D01*
X50484285Y42690237D01*
X50412921Y42637310D01*
X50336737Y42591648D01*
X50256421Y42553661D01*
X50172776Y42523731D01*
X50086612Y42502149D01*
X49998732Y42489113D01*
X49910000Y42484753D01*
D02*
G37*
%LPC*%
G36*
X14500000Y30674752D02*
X14376973Y30680798D01*
X14255108Y30698874D01*
X14135622Y30728803D01*
X14019640Y30770302D01*
X13908282Y30822970D01*
X13802623Y30886300D01*
X13703681Y30959681D01*
X13612406Y31042406D01*
X13529681Y31133681D01*
X13456300Y31232623D01*
X13392970Y31338282D01*
X13340302Y31449640D01*
X13298803Y31565622D01*
X13268874Y31685108D01*
X13250798Y31806973D01*
X13244752Y31930000D01*
X13250798Y32053027D01*
X13268874Y32174892D01*
X13298803Y32294378D01*
X13340302Y32410360D01*
X13392970Y32521718D01*
X13456300Y32627377D01*
X13529681Y32726319D01*
X13612406Y32817594D01*
X13703681Y32900319D01*
X13802623Y32973700D01*
X13908282Y33037030D01*
X14019640Y33089698D01*
X14145000Y33134552D01*
X14145000Y38710066D01*
X14150849Y38769451D01*
X14171106Y38836229D01*
X14204003Y38897777D01*
X14247779Y38951122D01*
X14255551Y38957598D01*
X16145000Y40847047D01*
X16145000Y43175000D01*
X15845000Y43175000D01*
X15845000Y44085000D01*
X17155000Y44085000D01*
X17155000Y43175000D01*
X16855000Y43175000D01*
X16855000Y40689923D01*
X16849151Y40630548D01*
X16828893Y40563770D01*
X16795996Y40502222D01*
X16752220Y40448877D01*
X16744448Y40442401D01*
X14855000Y38552953D01*
X14855000Y33134552D01*
X14980360Y33089698D01*
X15091718Y33037030D01*
X15197377Y32973700D01*
X15296319Y32900319D01*
X15387594Y32817594D01*
X15470319Y32726319D01*
X15543700Y32627377D01*
X15607030Y32521718D01*
X15659698Y32410360D01*
X15701197Y32294378D01*
X15731126Y32174892D01*
X15749202Y32053027D01*
X15755248Y31930000D01*
X15749202Y31806973D01*
X15731126Y31685108D01*
X15701197Y31565622D01*
X15659698Y31449640D01*
X15607030Y31338282D01*
X15543700Y31232623D01*
X15470319Y31133681D01*
X15387594Y31042406D01*
X15296319Y30959681D01*
X15197377Y30886300D01*
X15091718Y30822970D01*
X14980360Y30770302D01*
X14864378Y30728803D01*
X14744892Y30698874D01*
X14623027Y30680798D01*
X14500000Y30674752D01*
D02*
G37*
%LPC*%
G36*
X8140711Y42632526D02*
X6720001Y42632526D01*
X6720001Y43480000D01*
X8140711Y43480000D01*
X8140711Y42632526D01*
D02*
G37*
%LPC*%
G36*
X6420001Y42632526D02*
X4999291Y42632526D01*
X4999291Y43480000D01*
X6420001Y43480000D01*
X6420001Y42632526D01*
D02*
G37*
%LPC*%
G36*
X46715000Y36145000D02*
X45805000Y36145000D01*
X45805000Y37455000D01*
X45905000Y37455000D01*
X45905000Y38025000D01*
X45505000Y38025000D01*
X45505000Y39835000D01*
X45905000Y39835000D01*
X45905000Y40300066D01*
X45910849Y40359451D01*
X45931106Y40426229D01*
X45964003Y40487777D01*
X46007779Y40541122D01*
X46015551Y40547598D01*
X46505000Y41037046D01*
X46505000Y41895000D01*
X47815000Y41895000D01*
X47815000Y40485000D01*
X46957047Y40485000D01*
X46615000Y40142953D01*
X46615000Y39835000D01*
X47015000Y39835000D01*
X47015000Y38025000D01*
X46615000Y38025000D01*
X46615000Y37455000D01*
X46715000Y37455000D01*
X46715000Y36145000D01*
D02*
G37*
%LPC*%
G36*
X50455000Y37975000D02*
X49545000Y37975000D01*
X49545000Y38275000D01*
X48815000Y38275000D01*
X48815000Y38025000D01*
X47305000Y38025000D01*
X47305000Y39835000D01*
X48815000Y39835000D01*
X48815000Y38985000D01*
X49545000Y38985000D01*
X49545000Y39285000D01*
X49645000Y39285000D01*
X49645000Y39790000D01*
X49395000Y39790000D01*
X49395000Y41050000D01*
X50605000Y41050000D01*
X50605000Y39790000D01*
X50355000Y39790000D01*
X50355000Y39285000D01*
X50455000Y39285000D01*
X50455000Y37975000D01*
D02*
G37*
%LPC*%
G36*
X52100000Y40570000D02*
X51650000Y40570000D01*
X51650000Y41045000D01*
X52100000Y41045000D01*
X52100000Y40570000D01*
D02*
G37*
%LPC*%
G36*
X51350000Y40570000D02*
X50900000Y40570000D01*
X50900000Y41045000D01*
X51350000Y41045000D01*
X51350000Y40570000D01*
D02*
G37*
%LPC*%
G36*
X52100000Y39795000D02*
X51650000Y39795000D01*
X51650000Y40270000D01*
X52100000Y40270000D01*
X52100000Y39795000D01*
D02*
G37*
%LPC*%
G36*
X51350000Y39795000D02*
X50900000Y39795000D01*
X50900000Y40270000D01*
X51350000Y40270000D01*
X51350000Y39795000D01*
D02*
G37*
%LPC*%
G36*
X27275712Y33627526D02*
X24124292Y33627526D01*
X24124292Y35632474D01*
X25445002Y35632474D01*
X25445002Y38305000D01*
X25345002Y38305000D01*
X25345002Y39615000D01*
X26255002Y39615000D01*
X26255002Y38305000D01*
X26155002Y38305000D01*
X26155002Y35632474D01*
X27275712Y35632474D01*
X27275712Y33627526D01*
D02*
G37*
%LPC*%
G36*
X34200000Y36124752D02*
X34101475Y36129594D01*
X34003884Y36144069D01*
X33908193Y36168038D01*
X33815304Y36201275D01*
X33726140Y36243445D01*
X33641512Y36294170D01*
X33562277Y36352935D01*
X33489183Y36419183D01*
X33422935Y36492277D01*
X33364170Y36571512D01*
X33313445Y36656140D01*
X33271275Y36745304D01*
X33238038Y36838193D01*
X33214069Y36933884D01*
X33199595Y37031465D01*
X33195105Y37122852D01*
X31987956Y38330000D01*
X31255002Y38330000D01*
X31255002Y39590000D01*
X32465002Y39590000D01*
X32465002Y38857046D01*
X33485014Y37837035D01*
X33562283Y37907069D01*
X33641512Y37965830D01*
X33726140Y38016555D01*
X33815304Y38058725D01*
X33908193Y38091962D01*
X34003884Y38115931D01*
X34101475Y38130406D01*
X34200000Y38135248D01*
X34298525Y38130406D01*
X34396116Y38115931D01*
X34491807Y38091962D01*
X34584696Y38058725D01*
X34673860Y38016555D01*
X34758488Y37965830D01*
X34837723Y37907065D01*
X34910817Y37840817D01*
X34977065Y37767723D01*
X35035830Y37688488D01*
X35086555Y37603860D01*
X35128725Y37514696D01*
X35161962Y37421807D01*
X35185931Y37326116D01*
X35200406Y37228525D01*
X35205248Y37130000D01*
X35200406Y37031475D01*
X35185931Y36933884D01*
X35161962Y36838193D01*
X35128725Y36745304D01*
X35086555Y36656140D01*
X35035830Y36571512D01*
X34977065Y36492277D01*
X34910817Y36419183D01*
X34837723Y36352935D01*
X34758488Y36294170D01*
X34673860Y36243445D01*
X34584696Y36201275D01*
X34491807Y36168038D01*
X34396116Y36144069D01*
X34298525Y36129594D01*
X34200000Y36124752D01*
D02*
G37*
%LPC*%
G36*
X30960002Y39110000D02*
X30510002Y39110000D01*
X30510002Y39585000D01*
X30960002Y39585000D01*
X30960002Y39110000D01*
D02*
G37*
%LPC*%
G36*
X30210002Y39110000D02*
X29760002Y39110000D01*
X29760002Y39585000D01*
X30210002Y39585000D01*
X30210002Y39110000D01*
D02*
G37*
%LPC*%
G36*
X53500000Y30674752D02*
X53376973Y30680798D01*
X53255108Y30698874D01*
X53135622Y30728803D01*
X53019640Y30770302D01*
X52908282Y30822970D01*
X52802623Y30886300D01*
X52703681Y30959681D01*
X52612406Y31042406D01*
X52529681Y31133681D01*
X52456300Y31232623D01*
X52392970Y31338282D01*
X52340302Y31449640D01*
X52295448Y31575000D01*
X49704552Y31575000D01*
X49659698Y31449640D01*
X49607030Y31338282D01*
X49543700Y31232623D01*
X49470319Y31133681D01*
X49387594Y31042406D01*
X49296319Y30959681D01*
X49197377Y30886300D01*
X49091718Y30822970D01*
X48980360Y30770302D01*
X48864378Y30728803D01*
X48744892Y30698874D01*
X48623027Y30680798D01*
X48500000Y30674752D01*
X48376973Y30680798D01*
X48255108Y30698874D01*
X48135622Y30728803D01*
X48019640Y30770302D01*
X47908282Y30822970D01*
X47802623Y30886300D01*
X47703681Y30959681D01*
X47612406Y31042406D01*
X47529681Y31133681D01*
X47456300Y31232623D01*
X47392970Y31338282D01*
X47340302Y31449640D01*
X47298803Y31565622D01*
X47268874Y31685108D01*
X47250798Y31806973D01*
X47244752Y31930000D01*
X47250798Y32053027D01*
X47268874Y32174892D01*
X47298803Y32294378D01*
X47340302Y32410360D01*
X47392970Y32521718D01*
X47456300Y32627377D01*
X47529681Y32726319D01*
X47612406Y32817594D01*
X47703681Y32900319D01*
X47802623Y32973700D01*
X47908282Y33037030D01*
X48019640Y33089698D01*
X48135622Y33131197D01*
X48255108Y33161126D01*
X48376973Y33179202D01*
X48500000Y33185248D01*
X48623027Y33179202D01*
X48744892Y33161126D01*
X48864378Y33131197D01*
X48980360Y33089698D01*
X49091718Y33037030D01*
X49197377Y32973700D01*
X49296319Y32900319D01*
X49387594Y32817594D01*
X49470319Y32726319D01*
X49543700Y32627377D01*
X49607030Y32521718D01*
X49659698Y32410360D01*
X49704552Y32285000D01*
X52295448Y32285000D01*
X52340302Y32410360D01*
X52392970Y32521718D01*
X52456300Y32627377D01*
X52529681Y32726319D01*
X52612406Y32817594D01*
X52703681Y32900319D01*
X52802623Y32973700D01*
X52908282Y33037030D01*
X53019640Y33089698D01*
X53145000Y33134552D01*
X53145000Y36482953D01*
X51652954Y37975000D01*
X51045000Y37975000D01*
X51045000Y39285000D01*
X51955000Y39285000D01*
X51955000Y38677046D01*
X53758148Y36873897D01*
X53795996Y36827776D01*
X53828893Y36766229D01*
X53849151Y36699451D01*
X53855000Y36640077D01*
X53855000Y33134552D01*
X53980360Y33089698D01*
X54091718Y33037030D01*
X54197377Y32973700D01*
X54296319Y32900319D01*
X54387594Y32817594D01*
X54470319Y32726319D01*
X54543700Y32627377D01*
X54607030Y32521718D01*
X54659698Y32410360D01*
X54701197Y32294378D01*
X54731126Y32174892D01*
X54749202Y32053027D01*
X54755248Y31930000D01*
X54749202Y31806973D01*
X54731126Y31685108D01*
X54701197Y31565622D01*
X54659698Y31449640D01*
X54607030Y31338282D01*
X54543700Y31232623D01*
X54470319Y31133681D01*
X54387594Y31042406D01*
X54296319Y30959681D01*
X54197377Y30886300D01*
X54091718Y30822970D01*
X53980360Y30770302D01*
X53864378Y30728803D01*
X53744892Y30698874D01*
X53623027Y30680798D01*
X53500000Y30674752D01*
D02*
G37*
%LPC*%
G36*
X30960002Y38335000D02*
X30510002Y38335000D01*
X30510002Y38810000D01*
X30960002Y38810000D01*
X30960002Y38335000D01*
D02*
G37*
%LPC*%
G36*
X30210002Y38335000D02*
X29760002Y38335000D01*
X29760002Y38810000D01*
X30210002Y38810000D01*
X30210002Y38335000D01*
D02*
G37*
%LPC*%
G36*
X37350000Y37280000D02*
X36512283Y37280000D01*
X36518978Y37325137D01*
X36542831Y37420359D01*
X36575899Y37512777D01*
X36617864Y37601508D01*
X36668328Y37685700D01*
X36726805Y37764547D01*
X36792723Y37837277D01*
X36865453Y37903195D01*
X36944300Y37961672D01*
X37028492Y38012136D01*
X37117223Y38054101D01*
X37209641Y38087169D01*
X37304863Y38111022D01*
X37350000Y38117717D01*
X37350000Y37280000D01*
D02*
G37*
%LPC*%
G36*
X38487717Y37280000D02*
X37650000Y37280000D01*
X37650000Y38117717D01*
X37695137Y38111022D01*
X37790359Y38087169D01*
X37882777Y38054101D01*
X37971508Y38012136D01*
X38055700Y37961672D01*
X38134547Y37903195D01*
X38207277Y37837277D01*
X38273195Y37764547D01*
X38331672Y37685700D01*
X38382136Y37601508D01*
X38424101Y37512777D01*
X38457169Y37420359D01*
X38481022Y37325137D01*
X38487717Y37280000D01*
D02*
G37*
%LPC*%
G36*
X9500000Y30674752D02*
X9376973Y30680798D01*
X9255108Y30698874D01*
X9135622Y30728803D01*
X9019640Y30770302D01*
X8908282Y30822970D01*
X8802623Y30886300D01*
X8703681Y30959681D01*
X8612406Y31042406D01*
X8529681Y31133681D01*
X8456300Y31232623D01*
X8392970Y31338282D01*
X8340302Y31449640D01*
X8295448Y31575000D01*
X5704552Y31575000D01*
X5659698Y31449640D01*
X5607030Y31338282D01*
X5543700Y31232623D01*
X5470319Y31133681D01*
X5387594Y31042406D01*
X5296319Y30959681D01*
X5197377Y30886300D01*
X5091718Y30822970D01*
X4980360Y30770302D01*
X4864378Y30728803D01*
X4744892Y30698874D01*
X4623027Y30680798D01*
X4500000Y30674752D01*
X4376973Y30680798D01*
X4255108Y30698874D01*
X4135622Y30728803D01*
X4019640Y30770302D01*
X3908282Y30822970D01*
X3802623Y30886300D01*
X3703681Y30959681D01*
X3612406Y31042406D01*
X3529681Y31133681D01*
X3456300Y31232623D01*
X3392970Y31338282D01*
X3340302Y31449640D01*
X3298803Y31565622D01*
X3268874Y31685108D01*
X3250798Y31806973D01*
X3244752Y31930000D01*
X3250798Y32053027D01*
X3268874Y32174892D01*
X3298803Y32294378D01*
X3340302Y32410360D01*
X3392970Y32521718D01*
X3456300Y32627377D01*
X3529681Y32726319D01*
X3612406Y32817594D01*
X3703681Y32900319D01*
X3802623Y32973700D01*
X3908282Y33037030D01*
X4019640Y33089698D01*
X4135622Y33131197D01*
X4255108Y33161126D01*
X4376973Y33179202D01*
X4500000Y33185248D01*
X4623027Y33179202D01*
X4744892Y33161126D01*
X4864378Y33131197D01*
X4980360Y33089698D01*
X5091718Y33037030D01*
X5197377Y32973700D01*
X5296319Y32900319D01*
X5387594Y32817594D01*
X5470319Y32726319D01*
X5543700Y32627377D01*
X5607030Y32521718D01*
X5659698Y32410360D01*
X5704552Y32285000D01*
X8295448Y32285000D01*
X8340302Y32410360D01*
X8392970Y32521718D01*
X8456300Y32627377D01*
X8529681Y32726319D01*
X8612406Y32817594D01*
X8703681Y32900319D01*
X8802623Y32973700D01*
X8908282Y33037030D01*
X9019640Y33089698D01*
X9135622Y33131197D01*
X9255108Y33161126D01*
X9376973Y33179202D01*
X9500000Y33185248D01*
X9623027Y33179202D01*
X9744892Y33161126D01*
X9864378Y33131197D01*
X9980360Y33089698D01*
X10100724Y33032771D01*
X10315000Y33247047D01*
X10315000Y35925000D01*
X9215000Y35925000D01*
X9215000Y37935000D01*
X12125000Y37935000D01*
X12125000Y35925000D01*
X11025000Y35925000D01*
X11025000Y33089923D01*
X11019151Y33030548D01*
X10998893Y32963770D01*
X10965996Y32902222D01*
X10922220Y32848877D01*
X10914448Y32842401D01*
X10602771Y32530724D01*
X10659698Y32410360D01*
X10701197Y32294378D01*
X10731126Y32174892D01*
X10749202Y32053027D01*
X10755248Y31930000D01*
X10749202Y31806973D01*
X10731126Y31685108D01*
X10701197Y31565622D01*
X10659698Y31449640D01*
X10607030Y31338282D01*
X10543700Y31232623D01*
X10470319Y31133681D01*
X10387594Y31042406D01*
X10296319Y30959681D01*
X10197377Y30886300D01*
X10091718Y30822970D01*
X9980360Y30770302D01*
X9864378Y30728803D01*
X9744892Y30698874D01*
X9623027Y30680798D01*
X9500000Y30674752D01*
D02*
G37*
%LPC*%
G36*
X7220000Y37080000D02*
X5920000Y37080000D01*
X5920000Y37930000D01*
X7220000Y37930000D01*
X7220000Y37080000D01*
D02*
G37*
%LPC*%
G36*
X8820000Y37080000D02*
X7520000Y37080000D01*
X7520000Y37930000D01*
X8820000Y37930000D01*
X8820000Y37080000D01*
D02*
G37*
%LPC*%
G36*
X47610000Y36950000D02*
X47310000Y36950000D01*
X47310000Y37450000D01*
X47610000Y37450000D01*
X47610000Y36950000D01*
D02*
G37*
%LPC*%
G36*
X48210000Y36950000D02*
X47910000Y36950000D01*
X47910000Y37450000D01*
X48210000Y37450000D01*
X48210000Y36950000D01*
D02*
G37*
%LPC*%
G36*
X37350000Y36142283D02*
X37304863Y36148978D01*
X37209641Y36172831D01*
X37117223Y36205899D01*
X37028492Y36247864D01*
X36944300Y36298328D01*
X36865453Y36356805D01*
X36792723Y36422723D01*
X36726805Y36495453D01*
X36668328Y36574300D01*
X36617864Y36658492D01*
X36575899Y36747223D01*
X36542831Y36839641D01*
X36518978Y36934863D01*
X36512283Y36980000D01*
X37350000Y36980000D01*
X37350000Y36142283D01*
D02*
G37*
%LPC*%
G36*
X37650000Y36142283D02*
X37650000Y36980000D01*
X38487717Y36980000D01*
X38481022Y36934863D01*
X38457169Y36839641D01*
X38424101Y36747223D01*
X38382136Y36658492D01*
X38331672Y36574300D01*
X38273195Y36495453D01*
X38207277Y36422723D01*
X38134547Y36356805D01*
X38055700Y36298328D01*
X37971508Y36247864D01*
X37882777Y36205899D01*
X37790359Y36172831D01*
X37695137Y36148978D01*
X37650000Y36142283D01*
D02*
G37*
%LPC*%
G36*
X8820000Y35930000D02*
X7520000Y35930000D01*
X7520000Y36780000D01*
X8820000Y36780000D01*
X8820000Y35930000D01*
D02*
G37*
%LPC*%
G36*
X7220000Y35930000D02*
X5920000Y35930000D01*
X5920000Y36780000D01*
X7220000Y36780000D01*
X7220000Y35930000D01*
D02*
G37*
%LPC*%
G36*
X48210000Y36150000D02*
X47910000Y36150000D01*
X47910000Y36650000D01*
X48210000Y36650000D01*
X48210000Y36150000D01*
D02*
G37*
%LPC*%
G36*
X47610000Y36150000D02*
X47310000Y36150000D01*
X47310000Y36650000D01*
X47610000Y36650000D01*
X47610000Y36150000D01*
D02*
G37*
%LPC*%
G36*
X37350000Y34780000D02*
X36512283Y34780000D01*
X36518978Y34825137D01*
X36542831Y34920359D01*
X36575899Y35012777D01*
X36617864Y35101508D01*
X36668328Y35185700D01*
X36726805Y35264547D01*
X36792723Y35337277D01*
X36865453Y35403195D01*
X36944300Y35461672D01*
X37028492Y35512136D01*
X37117223Y35554101D01*
X37209641Y35587169D01*
X37304863Y35611022D01*
X37350000Y35617717D01*
X37350000Y34780000D01*
D02*
G37*
%LPC*%
G36*
X38487717Y34780000D02*
X37650000Y34780000D01*
X37650000Y35617717D01*
X37695137Y35611022D01*
X37790359Y35587169D01*
X37882777Y35554101D01*
X37971508Y35512136D01*
X38055700Y35461672D01*
X38134547Y35403195D01*
X38207277Y35337277D01*
X38273195Y35264547D01*
X38331672Y35185700D01*
X38382136Y35101508D01*
X38424101Y35012777D01*
X38457169Y34920359D01*
X38481022Y34825137D01*
X38487717Y34780000D01*
D02*
G37*
%LPC*%
G36*
X37650000Y33642283D02*
X37650000Y34480000D01*
X38487717Y34480000D01*
X38481022Y34434863D01*
X38457169Y34339641D01*
X38424101Y34247223D01*
X38382136Y34158492D01*
X38331672Y34074300D01*
X38273195Y33995453D01*
X38207277Y33922723D01*
X38134547Y33856805D01*
X38055700Y33798328D01*
X37971508Y33747864D01*
X37882777Y33705899D01*
X37790359Y33672831D01*
X37695137Y33648978D01*
X37650000Y33642283D01*
D02*
G37*
%LPC*%
G36*
X37350000Y33642283D02*
X37304863Y33648978D01*
X37209641Y33672831D01*
X37117223Y33705899D01*
X37028492Y33747864D01*
X36944300Y33798328D01*
X36865453Y33856805D01*
X36792723Y33922723D01*
X36726805Y33995453D01*
X36668328Y34074300D01*
X36617864Y34158492D01*
X36575899Y34247223D01*
X36542831Y34339641D01*
X36518978Y34434863D01*
X36512283Y34480000D01*
X37350000Y34480000D01*
X37350000Y33642283D01*
D02*
G37*
%LPC*%
G36*
X34200000Y31124752D02*
X34101475Y31129594D01*
X34003884Y31144069D01*
X33908193Y31168038D01*
X33815304Y31201275D01*
X33726140Y31243445D01*
X33641512Y31294170D01*
X33562277Y31352935D01*
X33489183Y31419183D01*
X33422935Y31492277D01*
X33364170Y31571512D01*
X33313445Y31656140D01*
X33271275Y31745304D01*
X33238038Y31838193D01*
X33214069Y31933884D01*
X33199594Y32031475D01*
X33194752Y32130000D01*
X33199594Y32228525D01*
X33214069Y32326116D01*
X33238038Y32421807D01*
X33271275Y32514696D01*
X33313445Y32603860D01*
X33364170Y32688488D01*
X33422935Y32767723D01*
X33489183Y32840817D01*
X33562277Y32907065D01*
X33641512Y32965830D01*
X33726140Y33016555D01*
X33815304Y33058725D01*
X33908193Y33091962D01*
X34003884Y33115931D01*
X34101475Y33130406D01*
X34200000Y33135248D01*
X34298525Y33130406D01*
X34396116Y33115931D01*
X34491807Y33091962D01*
X34584696Y33058725D01*
X34673860Y33016555D01*
X34758488Y32965830D01*
X34837723Y32907065D01*
X34910817Y32840817D01*
X34977065Y32767723D01*
X35035830Y32688488D01*
X35086555Y32603860D01*
X35128725Y32514696D01*
X35161962Y32421807D01*
X35185931Y32326116D01*
X35200406Y32228525D01*
X35205248Y32130000D01*
X35200406Y32031475D01*
X35185931Y31933884D01*
X35161962Y31838193D01*
X35128725Y31745304D01*
X35086555Y31656140D01*
X35035830Y31571512D01*
X34977065Y31492277D01*
X34910817Y31419183D01*
X34837723Y31352935D01*
X34758488Y31294170D01*
X34673860Y31243445D01*
X34584696Y31201275D01*
X34491807Y31168038D01*
X34396116Y31144069D01*
X34298525Y31129594D01*
X34200000Y31124752D01*
D02*
G37*
%LPC*%
G36*
X37350000Y32280000D02*
X36512283Y32280000D01*
X36518978Y32325137D01*
X36542831Y32420359D01*
X36575899Y32512777D01*
X36617864Y32601508D01*
X36668328Y32685700D01*
X36726805Y32764547D01*
X36792723Y32837277D01*
X36865453Y32903195D01*
X36944300Y32961672D01*
X37028492Y33012136D01*
X37117223Y33054101D01*
X37209641Y33087169D01*
X37304863Y33111022D01*
X37350000Y33117717D01*
X37350000Y32280000D01*
D02*
G37*
%LPC*%
G36*
X38487717Y32280000D02*
X37650000Y32280000D01*
X37650000Y33117717D01*
X37695137Y33111022D01*
X37790359Y33087169D01*
X37882777Y33054101D01*
X37971508Y33012136D01*
X38055700Y32961672D01*
X38134547Y32903195D01*
X38207277Y32837277D01*
X38273195Y32764547D01*
X38331672Y32685700D01*
X38382136Y32601508D01*
X38424101Y32512777D01*
X38457169Y32420359D01*
X38481022Y32325137D01*
X38487717Y32280000D01*
D02*
G37*
%LPC*%
G36*
X37650000Y31142283D02*
X37650000Y31980000D01*
X38487717Y31980000D01*
X38481022Y31934863D01*
X38457169Y31839641D01*
X38424101Y31747223D01*
X38382136Y31658492D01*
X38331672Y31574300D01*
X38273195Y31495453D01*
X38207277Y31422723D01*
X38134547Y31356805D01*
X38055700Y31298328D01*
X37971508Y31247864D01*
X37882777Y31205899D01*
X37790359Y31172831D01*
X37695137Y31148978D01*
X37650000Y31142283D01*
D02*
G37*
%LPC*%
G36*
X37350000Y31142283D02*
X37304863Y31148978D01*
X37209641Y31172831D01*
X37117223Y31205899D01*
X37028492Y31247864D01*
X36944300Y31298328D01*
X36865453Y31356805D01*
X36792723Y31422723D01*
X36726805Y31495453D01*
X36668328Y31574300D01*
X36617864Y31658492D01*
X36575899Y31747223D01*
X36542831Y31839641D01*
X36518978Y31934863D01*
X36512283Y31980000D01*
X37350000Y31980000D01*
X37350000Y31142283D01*
D02*
G37*
%LPC*%
G36*
X31587717Y27440000D02*
X30750000Y27440000D01*
X30750000Y28277717D01*
X30795137Y28271022D01*
X30890359Y28247169D01*
X30982777Y28214101D01*
X31071508Y28172136D01*
X31155700Y28121672D01*
X31234547Y28063195D01*
X31307277Y27997277D01*
X31373195Y27924547D01*
X31431672Y27845700D01*
X31482136Y27761508D01*
X31524101Y27672777D01*
X31557169Y27580359D01*
X31581022Y27485137D01*
X31587717Y27440000D01*
D02*
G37*
%LPC*%
G36*
X27087717Y27440000D02*
X26250000Y27440000D01*
X26250000Y28277717D01*
X26295137Y28271022D01*
X26390359Y28247169D01*
X26482777Y28214101D01*
X26571508Y28172136D01*
X26655700Y28121672D01*
X26734547Y28063195D01*
X26807277Y27997277D01*
X26873195Y27924547D01*
X26931672Y27845700D01*
X26982136Y27761508D01*
X27024101Y27672777D01*
X27057169Y27580359D01*
X27081022Y27485137D01*
X27087717Y27440000D01*
D02*
G37*
%LPC*%
G36*
X30450000Y27440000D02*
X29612283Y27440000D01*
X29618978Y27485137D01*
X29642831Y27580359D01*
X29675899Y27672777D01*
X29717864Y27761508D01*
X29768328Y27845700D01*
X29826805Y27924547D01*
X29892723Y27997277D01*
X29965453Y28063195D01*
X30044300Y28121672D01*
X30128492Y28172136D01*
X30217223Y28214101D01*
X30309641Y28247169D01*
X30404863Y28271022D01*
X30450000Y28277717D01*
X30450000Y27440000D01*
D02*
G37*
%LPC*%
G36*
X25950000Y27440000D02*
X25112283Y27440000D01*
X25118978Y27485137D01*
X25142831Y27580359D01*
X25175899Y27672777D01*
X25217864Y27761508D01*
X25268328Y27845700D01*
X25326805Y27924547D01*
X25392723Y27997277D01*
X25465453Y28063195D01*
X25544300Y28121672D01*
X25628492Y28172136D01*
X25717223Y28214101D01*
X25809641Y28247169D01*
X25904863Y28271022D01*
X25950000Y28277717D01*
X25950000Y27440000D01*
D02*
G37*
%LPC*%
G36*
X30450000Y26302283D02*
X30404863Y26308978D01*
X30309641Y26332831D01*
X30217223Y26365899D01*
X30128492Y26407864D01*
X30044300Y26458328D01*
X29965453Y26516805D01*
X29892723Y26582723D01*
X29826805Y26655453D01*
X29768328Y26734300D01*
X29717864Y26818492D01*
X29675899Y26907223D01*
X29642831Y26999641D01*
X29618978Y27094863D01*
X29612283Y27140000D01*
X30450000Y27140000D01*
X30450000Y26302283D01*
D02*
G37*
%LPC*%
G36*
X26250000Y26302283D02*
X26250000Y27140000D01*
X27087717Y27140000D01*
X27081022Y27094863D01*
X27057169Y26999641D01*
X27024101Y26907223D01*
X26982136Y26818492D01*
X26931672Y26734300D01*
X26873195Y26655453D01*
X26807277Y26582723D01*
X26734547Y26516805D01*
X26655700Y26458328D01*
X26571508Y26407864D01*
X26482777Y26365899D01*
X26390359Y26332831D01*
X26295137Y26308978D01*
X26250000Y26302283D01*
D02*
G37*
%LPC*%
G36*
X30750000Y26302283D02*
X30750000Y27140000D01*
X31587717Y27140000D01*
X31581022Y27094863D01*
X31557169Y26999641D01*
X31524101Y26907223D01*
X31482136Y26818492D01*
X31431672Y26734300D01*
X31373195Y26655453D01*
X31307277Y26582723D01*
X31234547Y26516805D01*
X31155700Y26458328D01*
X31071508Y26407864D01*
X30982777Y26365899D01*
X30890359Y26332831D01*
X30795137Y26308978D01*
X30750000Y26302283D01*
D02*
G37*
%LPC*%
G36*
X25950000Y26302283D02*
X25904863Y26308978D01*
X25809641Y26332831D01*
X25717223Y26365899D01*
X25628492Y26407864D01*
X25544300Y26458328D01*
X25465453Y26516805D01*
X25392723Y26582723D01*
X25326805Y26655453D01*
X25268328Y26734300D01*
X25217864Y26818492D01*
X25175899Y26907223D01*
X25142831Y26999641D01*
X25118978Y27094863D01*
X25112283Y27140000D01*
X25950000Y27140000D01*
X25950000Y26302283D01*
D02*
G37*
%LPC*%
G36*
X30805000Y10285000D02*
X28195000Y10285000D01*
X28195000Y10825000D01*
X20195000Y10825000D01*
X20195000Y16635000D01*
X30805000Y16635000D01*
X30805000Y10285000D01*
D02*
G37*
%LPD*%
G36*
X30600000Y10490000D02*
X30600000Y16430000D01*
X20400000Y16430000D01*
X20400000Y11030000D01*
X28400000Y11030000D01*
X28400000Y10490000D01*
X30600000Y10490000D01*
D02*
G37*
%LPC*%
G36*
X35405000Y6825000D02*
X31395000Y6825000D01*
X31395000Y13335000D01*
X35195000Y13335000D01*
X35195000Y16625000D01*
X42205000Y16625000D01*
X42205000Y10825000D01*
X35405000Y10825000D01*
X35405000Y6825000D01*
D02*
G37*
%LPD*%
G36*
X35200000Y7030000D02*
X35200000Y11030000D01*
X42000000Y11030000D01*
X42000000Y16420000D01*
X35400000Y16420000D01*
X35400000Y13130000D01*
X31600000Y13130000D01*
X31600000Y7030000D01*
X35200000Y7030000D01*
D02*
G37*
%LPC*%
G36*
X33450000Y15180000D02*
X32850000Y15180000D01*
X32850000Y16080000D01*
X33450000Y16080000D01*
X33450000Y15180000D01*
D02*
G37*
%LPC*%
G36*
X32550000Y15180000D02*
X31950000Y15180000D01*
X31950000Y16080000D01*
X32550000Y16080000D01*
X32550000Y15180000D01*
D02*
G37*
%LPC*%
G36*
X33450000Y13980000D02*
X32850000Y13980000D01*
X32850000Y14880000D01*
X33450000Y14880000D01*
X33450000Y13980000D01*
D02*
G37*
%LPC*%
G36*
X32550000Y13980000D02*
X31950000Y13980000D01*
X31950000Y14880000D01*
X32550000Y14880000D01*
X32550000Y13980000D01*
D02*
G37*
%LPC*%
G36*
X39050000Y8580000D02*
X38200000Y8580000D01*
X38200000Y10105000D01*
X39050000Y10105000D01*
X39050000Y8580000D01*
D02*
G37*
%LPC*%
G36*
X37900000Y8580000D02*
X37050000Y8580000D01*
X37050000Y10105000D01*
X37900000Y10105000D01*
X37900000Y8580000D01*
D02*
G37*
%LPC*%
G36*
X25150000Y8580000D02*
X24300000Y8580000D01*
X24300000Y10105000D01*
X25150000Y10105000D01*
X25150000Y8580000D01*
D02*
G37*
%LPC*%
G36*
X24000000Y8580000D02*
X23150000Y8580000D01*
X23150000Y10105000D01*
X24000000Y10105000D01*
X24000000Y8580000D01*
D02*
G37*
%LPC*%
G36*
X31495000Y1525000D02*
X29005000Y1525000D01*
X29005000Y4725000D01*
X28195000Y4725000D01*
X28195000Y9835000D01*
X30805000Y9835000D01*
X30805000Y6335000D01*
X31495000Y6335000D01*
X31495000Y1525000D01*
D02*
G37*
%LPD*%
G36*
X31290000Y1730000D02*
X31290000Y6130000D01*
X30600000Y6130000D01*
X30600000Y9630000D01*
X28400000Y9630000D01*
X28400000Y4930000D01*
X29210000Y4930000D01*
X29210000Y1730000D01*
X31290000Y1730000D01*
D02*
G37*
%LPC*%
G36*
X25150000Y6755000D02*
X24300000Y6755000D01*
X24300000Y8280000D01*
X25150000Y8280000D01*
X25150000Y6755000D01*
D02*
G37*
%LPC*%
G36*
X39050000Y6755000D02*
X38200000Y6755000D01*
X38200000Y8280000D01*
X39050000Y8280000D01*
X39050000Y6755000D01*
D02*
G37*
%LPC*%
G36*
X24000000Y6755000D02*
X23150000Y6755000D01*
X23150000Y8280000D01*
X24000000Y8280000D01*
X24000000Y6755000D01*
D02*
G37*
%LPC*%
G36*
X37900000Y6755000D02*
X37050000Y6755000D01*
X37050000Y8280000D01*
X37900000Y8280000D01*
X37900000Y6755000D01*
D02*
G37*
%LPC*%
G36*
X35250000Y2024753D02*
X35146567Y2029835D01*
X35044127Y2045031D01*
X34943680Y2070191D01*
X34846180Y2105078D01*
X34752554Y2149358D01*
X34663742Y2202591D01*
X34580556Y2264286D01*
X34503828Y2333828D01*
X34434286Y2410556D01*
X34372591Y2493742D01*
X34319358Y2582554D01*
X34275078Y2676180D01*
X34240191Y2773680D01*
X34215031Y2874127D01*
X34199835Y2976567D01*
X34194753Y3080000D01*
X34199835Y3183433D01*
X34215031Y3285873D01*
X34240191Y3386320D01*
X34275078Y3483820D01*
X34319358Y3577446D01*
X34372591Y3666258D01*
X34434286Y3749444D01*
X34503828Y3826172D01*
X34580556Y3895714D01*
X34663742Y3957409D01*
X34752554Y4010642D01*
X34846180Y4054922D01*
X34943680Y4089809D01*
X35044127Y4114969D01*
X35146567Y4130165D01*
X35250000Y4135247D01*
X35353433Y4130165D01*
X35455873Y4114969D01*
X35556320Y4089809D01*
X35653820Y4054922D01*
X35747446Y4010642D01*
X35836258Y3957409D01*
X35919444Y3895714D01*
X35996172Y3826172D01*
X36065714Y3749444D01*
X36127409Y3666258D01*
X36180642Y3577446D01*
X36224922Y3483820D01*
X36259809Y3386320D01*
X36284969Y3285873D01*
X36300165Y3183433D01*
X36305247Y3080000D01*
X36300165Y2976567D01*
X36284969Y2874127D01*
X36259809Y2773680D01*
X36224922Y2676180D01*
X36180642Y2582554D01*
X36127409Y2493742D01*
X36065714Y2410556D01*
X35996172Y2333828D01*
X35919444Y2264286D01*
X35836258Y2202591D01*
X35747446Y2149358D01*
X35653820Y2105078D01*
X35556320Y2070191D01*
X35455873Y2045031D01*
X35353433Y2029835D01*
X35250000Y2024753D01*
D02*
G37*
%LPC*%
G36*
X4488202Y3230000D02*
X3600000Y3230000D01*
X3600000Y4118202D01*
X3654897Y4110059D01*
X3754871Y4085017D01*
X3851911Y4050295D01*
X3945070Y4006236D01*
X4033491Y3953237D01*
X4116262Y3891850D01*
X4192632Y3822632D01*
X4261850Y3746262D01*
X4323237Y3663491D01*
X4376236Y3575070D01*
X4420295Y3481911D01*
X4455017Y3384871D01*
X4480059Y3284897D01*
X4488202Y3230000D01*
D02*
G37*
%LPC*%
G36*
X27600000Y3230000D02*
X26711798Y3230000D01*
X26719941Y3284897D01*
X26744983Y3384871D01*
X26779705Y3481911D01*
X26823764Y3575070D01*
X26876763Y3663491D01*
X26938150Y3746262D01*
X27007368Y3822632D01*
X27083738Y3891850D01*
X27166509Y3953237D01*
X27254930Y4006236D01*
X27348089Y4050295D01*
X27445129Y4085017D01*
X27545103Y4110059D01*
X27600000Y4118202D01*
X27600000Y3230000D01*
D02*
G37*
%LPC*%
G36*
X28788202Y3230000D02*
X27900000Y3230000D01*
X27900000Y4118202D01*
X27954897Y4110059D01*
X28054871Y4085017D01*
X28151911Y4050295D01*
X28245070Y4006236D01*
X28333491Y3953237D01*
X28416262Y3891850D01*
X28492632Y3822632D01*
X28561850Y3746262D01*
X28623237Y3663491D01*
X28676236Y3575070D01*
X28720295Y3481911D01*
X28755017Y3384871D01*
X28780059Y3284897D01*
X28788202Y3230000D01*
D02*
G37*
%LPC*%
G36*
X32600000Y3230000D02*
X31711798Y3230000D01*
X31719941Y3284897D01*
X31744983Y3384871D01*
X31779705Y3481911D01*
X31823764Y3575070D01*
X31876763Y3663491D01*
X31938150Y3746262D01*
X32007368Y3822632D01*
X32083738Y3891850D01*
X32166509Y3953237D01*
X32254930Y4006236D01*
X32348089Y4050295D01*
X32445129Y4085017D01*
X32545103Y4110059D01*
X32600000Y4118202D01*
X32600000Y3230000D01*
D02*
G37*
%LPC*%
G36*
X33788202Y3230000D02*
X32900000Y3230000D01*
X32900000Y4118202D01*
X32954897Y4110059D01*
X33054871Y4085017D01*
X33151911Y4050295D01*
X33245070Y4006236D01*
X33333491Y3953237D01*
X33416262Y3891850D01*
X33492632Y3822632D01*
X33561850Y3746262D01*
X33623237Y3663491D01*
X33676236Y3575070D01*
X33720295Y3481911D01*
X33755017Y3384871D01*
X33780059Y3284897D01*
X33788202Y3230000D01*
D02*
G37*
%LPC*%
G36*
X56900000Y3230000D02*
X56011798Y3230000D01*
X56019941Y3284897D01*
X56044983Y3384871D01*
X56079705Y3481911D01*
X56123764Y3575070D01*
X56176763Y3663491D01*
X56238150Y3746262D01*
X56307368Y3822632D01*
X56383738Y3891850D01*
X56466509Y3953237D01*
X56554930Y4006236D01*
X56648089Y4050295D01*
X56745129Y4085017D01*
X56845103Y4110059D01*
X56900000Y4118202D01*
X56900000Y3230000D01*
D02*
G37*
%LPC*%
G36*
X58088202Y3230000D02*
X57200000Y3230000D01*
X57200000Y4118202D01*
X57254897Y4110059D01*
X57354871Y4085017D01*
X57451911Y4050295D01*
X57545070Y4006236D01*
X57633491Y3953237D01*
X57716262Y3891850D01*
X57792632Y3822632D01*
X57861850Y3746262D01*
X57923237Y3663491D01*
X57976236Y3575070D01*
X58020295Y3481911D01*
X58055017Y3384871D01*
X58080059Y3284897D01*
X58088202Y3230000D01*
D02*
G37*
%LPC*%
G36*
X3300000Y3230000D02*
X2411798Y3230000D01*
X2419941Y3284897D01*
X2444983Y3384871D01*
X2479705Y3481911D01*
X2523764Y3575070D01*
X2576763Y3663491D01*
X2638150Y3746262D01*
X2707368Y3822632D01*
X2783738Y3891850D01*
X2866509Y3953237D01*
X2954930Y4006236D01*
X3048089Y4050295D01*
X3145129Y4085017D01*
X3245103Y4110059D01*
X3300000Y4118202D01*
X3300000Y3230000D01*
D02*
G37*
%LPC*%
G36*
X57200000Y2041798D02*
X57200000Y2930000D01*
X58088202Y2930000D01*
X58080059Y2875103D01*
X58055017Y2775129D01*
X58020295Y2678089D01*
X57976236Y2584930D01*
X57923237Y2496509D01*
X57861850Y2413738D01*
X57792632Y2337368D01*
X57716262Y2268150D01*
X57633491Y2206763D01*
X57545070Y2153764D01*
X57451911Y2109705D01*
X57354871Y2074983D01*
X57254897Y2049941D01*
X57200000Y2041798D01*
D02*
G37*
%LPC*%
G36*
X56900000Y2041798D02*
X56845103Y2049941D01*
X56745129Y2074983D01*
X56648089Y2109705D01*
X56554930Y2153764D01*
X56466509Y2206763D01*
X56383738Y2268150D01*
X56307368Y2337368D01*
X56238150Y2413738D01*
X56176763Y2496509D01*
X56123764Y2584930D01*
X56079705Y2678089D01*
X56044983Y2775129D01*
X56019941Y2875103D01*
X56011798Y2930000D01*
X56900000Y2930000D01*
X56900000Y2041798D01*
D02*
G37*
%LPC*%
G36*
X32900000Y2041798D02*
X32900000Y2930000D01*
X33788202Y2930000D01*
X33780059Y2875103D01*
X33755017Y2775129D01*
X33720295Y2678089D01*
X33676236Y2584930D01*
X33623237Y2496509D01*
X33561850Y2413738D01*
X33492632Y2337368D01*
X33416262Y2268150D01*
X33333491Y2206763D01*
X33245070Y2153764D01*
X33151911Y2109705D01*
X33054871Y2074983D01*
X32954897Y2049941D01*
X32900000Y2041798D01*
D02*
G37*
%LPC*%
G36*
X32600000Y2041798D02*
X32545103Y2049941D01*
X32445129Y2074983D01*
X32348089Y2109705D01*
X32254930Y2153764D01*
X32166509Y2206763D01*
X32083738Y2268150D01*
X32007368Y2337368D01*
X31938150Y2413738D01*
X31876763Y2496509D01*
X31823764Y2584930D01*
X31779705Y2678089D01*
X31744983Y2775129D01*
X31719941Y2875103D01*
X31711798Y2930000D01*
X32600000Y2930000D01*
X32600000Y2041798D01*
D02*
G37*
%LPC*%
G36*
X27900000Y2041798D02*
X27900000Y2930000D01*
X28788202Y2930000D01*
X28780059Y2875103D01*
X28755017Y2775129D01*
X28720295Y2678089D01*
X28676236Y2584930D01*
X28623237Y2496509D01*
X28561850Y2413738D01*
X28492632Y2337368D01*
X28416262Y2268150D01*
X28333491Y2206763D01*
X28245070Y2153764D01*
X28151911Y2109705D01*
X28054871Y2074983D01*
X27954897Y2049941D01*
X27900000Y2041798D01*
D02*
G37*
%LPC*%
G36*
X27600000Y2041798D02*
X27545103Y2049941D01*
X27445129Y2074983D01*
X27348089Y2109705D01*
X27254930Y2153764D01*
X27166509Y2206763D01*
X27083738Y2268150D01*
X27007368Y2337368D01*
X26938150Y2413738D01*
X26876763Y2496509D01*
X26823764Y2584930D01*
X26779705Y2678089D01*
X26744983Y2775129D01*
X26719941Y2875103D01*
X26711798Y2930000D01*
X27600000Y2930000D01*
X27600000Y2041798D01*
D02*
G37*
%LPC*%
G36*
X3600000Y2041798D02*
X3600000Y2930000D01*
X4488202Y2930000D01*
X4480059Y2875103D01*
X4455017Y2775129D01*
X4420295Y2678089D01*
X4376236Y2584930D01*
X4323237Y2496509D01*
X4261850Y2413738D01*
X4192632Y2337368D01*
X4116262Y2268150D01*
X4033491Y2206763D01*
X3945070Y2153764D01*
X3851911Y2109705D01*
X3754871Y2074983D01*
X3654897Y2049941D01*
X3600000Y2041798D01*
D02*
G37*
%LPC*%
G36*
X3300000Y2041798D02*
X3245103Y2049941D01*
X3145129Y2074983D01*
X3048089Y2109705D01*
X2954930Y2153764D01*
X2866509Y2206763D01*
X2783738Y2268150D01*
X2707368Y2337368D01*
X2638150Y2413738D01*
X2576763Y2496509D01*
X2523764Y2584930D01*
X2479705Y2678089D01*
X2444983Y2775129D01*
X2419941Y2875103D01*
X2411798Y2930000D01*
X3300000Y2930000D01*
X3300000Y2041798D01*
D02*
G37*
%LPD*%
G01*
%LPD*%
D10*
X12750000Y54740000D02*
X12750000Y54810000D01*
D10*
X18090000Y54740000D02*
X18090000Y54810000D01*
D10*
X48110000Y45700000D02*
X48110000Y46440000D01*
D11*
X18090000Y53470000D02*
X20260000Y53470000D01*
D10*
X26100000Y29830000D02*
X30600000Y29830000D01*
D10*
X26420000Y47930000D02*
X26420000Y52830000D01*
D10*
X56400000Y29830000D02*
X58500000Y31930000D01*
D10*
X46260000Y40290000D02*
X47160000Y41190000D01*
D10*
X12750000Y53470000D02*
X14670000Y53470000D01*
D10*
X25800002Y34730000D02*
X25700002Y34630000D01*
D10*
X50000000Y38630000D02*
X48360000Y38630000D01*
D10*
X48500000Y61930000D02*
X48500000Y50130000D01*
D10*
X30600000Y34630000D02*
X34200000Y34630000D01*
D10*
X5950000Y3080000D02*
X5950000Y6880000D01*
D10*
X34200000Y37130000D02*
X33690002Y37130000D01*
D10*
X12750000Y54810000D02*
X14670000Y56730000D01*
D10*
X30600000Y29830000D02*
X56400000Y29830000D01*
D10*
X10670000Y33100000D02*
X9500000Y31930000D01*
D10*
X4500000Y61930000D02*
X9500000Y61930000D01*
D10*
X18090000Y52190000D02*
X16170000Y52190000D01*
D10*
X33690002Y37130000D02*
X31860002Y38960000D01*
D10*
X11469999Y43630000D02*
X14670000Y43630000D01*
D10*
X8810000Y52060000D02*
X8490000Y52380000D01*
D10*
X10670000Y36930000D02*
X10670000Y33100000D01*
D12*
X22060000Y53470000D02*
X20260000Y53470000D01*
D10*
X33780000Y52830000D02*
X36580000Y52830000D01*
D10*
X60890000Y8420000D02*
X60890000Y54540000D01*
D10*
X48360000Y38630000D02*
X48060000Y38930000D01*
D10*
X28200000Y36400000D02*
X28200000Y44630000D01*
D10*
X59550000Y7080000D02*
X60890000Y8420000D01*
D10*
X12745000Y52195000D02*
X12750000Y52190000D01*
D10*
X4500000Y31930000D02*
X9500000Y31930000D01*
D10*
X8810000Y50400000D02*
X8810000Y48570000D01*
D10*
X10310000Y51925000D02*
X10580000Y52195000D01*
D10*
X30600000Y34630000D02*
X29970000Y34630000D01*
D10*
X50000000Y40420000D02*
X50000000Y38630000D01*
D10*
X24300002Y40799998D02*
X16170000Y48930000D01*
D10*
X60890000Y54540000D02*
X53500000Y61930000D01*
D10*
X53500000Y36630000D02*
X51500000Y38630000D01*
D10*
X18090000Y54810000D02*
X16170000Y56730000D01*
D10*
X2070000Y50270000D02*
X5980000Y54180000D01*
D10*
X14670000Y48930000D02*
X14670000Y45130000D01*
D10*
X14670000Y45130000D02*
X16500000Y45130000D01*
D10*
X24300002Y38960000D02*
X24300002Y40799998D01*
D10*
X48500000Y31930000D02*
X53500000Y31930000D01*
D10*
X10580000Y52195000D02*
X12745000Y52195000D01*
D13*
X10310000Y46770000D02*
X10310000Y48570000D01*
D10*
X46210000Y43390000D02*
X46210000Y43800000D01*
D10*
X26420000Y52830000D02*
X29220000Y52830000D01*
D10*
X46260000Y38930000D02*
X46260000Y40290000D01*
D10*
X29970000Y34630000D02*
X28200000Y36400000D01*
D10*
X59550000Y3080000D02*
X59550000Y7080000D01*
D10*
X14500000Y38700000D02*
X16500000Y40700000D01*
D10*
X48110000Y46440000D02*
X51940000Y46440000D01*
D10*
X14500000Y31930000D02*
X14500000Y38700000D01*
D10*
X36580000Y47930000D02*
X36580000Y52830000D01*
D10*
X14670000Y53470000D02*
X14670000Y48930000D01*
D14*
X49910000Y43390000D02*
X48110000Y43390000D01*
D10*
X5950000Y6880000D02*
X2070000Y10760000D01*
D10*
X48500000Y50130000D02*
X48110000Y49740000D01*
D10*
X5980000Y54180000D02*
X6360000Y54180000D01*
D10*
X8810000Y50400000D02*
X8810000Y52060000D01*
D10*
X16500000Y40700000D02*
X16500000Y43630000D01*
D10*
X53500000Y31930000D02*
X53500000Y36630000D01*
D10*
X25800002Y38960000D02*
X25800002Y34730000D01*
D10*
X28200000Y44630000D02*
X31500000Y47930000D01*
D10*
X10310000Y50400000D02*
X10310000Y51925000D01*
D10*
X6360000Y54180000D02*
X8490000Y54180000D01*
D10*
X30600000Y29830000D02*
X30600000Y34630000D01*
D10*
X16170000Y52190000D02*
X16170000Y48930000D01*
D10*
X2070000Y10760000D02*
X2070000Y50270000D01*
D10*
X46210000Y43800000D02*
X48110000Y45700000D01*
D10*
X46260000Y36800000D02*
X46260000Y38930000D01*
G75*
D15*
X50000000Y38630000D03*
D16*
X51500000Y38630000D03*
D17*
X24150000Y8430000D03*
D18*
X24150000Y13630000D03*
D19*
X4500000Y31930000D03*
D19*
X14500000Y31930000D03*
D19*
X9500000Y31930000D03*
D20*
X25700002Y34630000D03*
D21*
X30600000Y34630000D03*
D19*
X4500000Y61930000D03*
D19*
X14500000Y61930000D03*
D19*
X9500000Y61930000D03*
D16*
X47760000Y36800000D03*
D15*
X46260000Y36800000D03*
D16*
X25800002Y38960000D03*
D15*
X24300002Y38960000D03*
D22*
X18090000Y54740000D03*
D22*
X18090000Y52190000D03*
D22*
X18090000Y50920000D03*
D23*
X12750000Y50920000D03*
D23*
X12750000Y53470000D03*
D22*
X18090000Y53470000D03*
D23*
X12750000Y54740000D03*
D23*
X12750000Y52190000D03*
D24*
X16500000Y45130000D03*
D25*
X16500000Y43630000D03*
D26*
X10580000Y53695000D03*
D27*
X10580000Y52195000D03*
D28*
X51500000Y40420000D03*
D29*
X50000000Y40420000D03*
D19*
X48500000Y31930000D03*
D19*
X58500000Y31930000D03*
D19*
X53500000Y31930000D03*
D30*
X32750000Y3080000D03*
D30*
X35250000Y3080000D03*
D30*
X30250000Y3080000D03*
D30*
X27750000Y3080000D03*
D24*
X14670000Y45130000D03*
D25*
X14670000Y43630000D03*
D17*
X38050000Y8430000D03*
D18*
X38050000Y13630000D03*
D31*
X30600000Y27290000D03*
D31*
X30600000Y29830000D03*
D32*
X29220000Y57910000D03*
D32*
X29220000Y52830000D03*
D33*
X29500000Y8430000D03*
D34*
X32700000Y8430000D03*
D35*
X31500000Y47930000D03*
D35*
X36580000Y47930000D03*
D35*
X26420000Y47930000D03*
D36*
X48110000Y49740000D03*
D37*
X48110000Y46440000D03*
D38*
X33780000Y52830000D03*
D38*
X33780000Y57910000D03*
D34*
X32700000Y11730000D03*
D33*
X29500000Y11730000D03*
D39*
X48060000Y38930000D03*
D40*
X46260000Y38930000D03*
D33*
X29500000Y15030000D03*
D34*
X32700000Y15030000D03*
D30*
X57050000Y3080000D03*
D30*
X59550000Y3080000D03*
D29*
X14670000Y48930000D03*
D28*
X16170000Y48930000D03*
D19*
X48500000Y61930000D03*
D19*
X58500000Y61930000D03*
D19*
X53500000Y61930000D03*
D41*
X46210000Y43390000D03*
D42*
X47160000Y41190000D03*
D41*
X48110000Y43390000D03*
D24*
X51940000Y47940000D03*
D25*
X51940000Y46440000D03*
D28*
X16170000Y56730000D03*
D29*
X14670000Y56730000D03*
D43*
X37500000Y32130000D03*
D43*
X34200000Y34630000D03*
D43*
X34200000Y37130000D03*
D43*
X34200000Y32130000D03*
D43*
X37500000Y34630000D03*
D43*
X37500000Y37130000D03*
D44*
X8490000Y54180000D03*
D45*
X8490000Y52380000D03*
D38*
X26420000Y52830000D03*
D38*
X26420000Y57910000D03*
D15*
X8810000Y48570000D03*
D16*
X10310000Y48570000D03*
D16*
X10310000Y50400000D03*
D15*
X8810000Y50400000D03*
D46*
X26100000Y29830000D03*
D46*
X26100000Y27290000D03*
D27*
X20260000Y51970000D03*
D26*
X20260000Y53470000D03*
D29*
X30360002Y38960000D03*
D28*
X31860002Y38960000D03*
D32*
X36580000Y57910000D03*
D32*
X36580000Y52830000D03*
D47*
X7370000Y36930000D03*
D48*
X10670000Y36930000D03*
D21*
X11469999Y43630000D03*
D20*
X6570001Y43630000D03*
D30*
X3450000Y3080000D03*
D30*
X5950000Y3080000D03*
D25*
X6360000Y52680000D03*
D24*
X6360000Y54180000D03*
D49*
X23875000Y57810000D03*
D49*
X16250000Y19950000D03*
D49*
X31500000Y45190000D03*
D49*
X25970000Y8430000D03*
D50*
X1000000Y32570000D03*
D49*
X31500000Y52100000D03*
D50*
X31500000Y70430000D03*
D49*
X31500000Y1000000D03*
D50*
X62000000Y32570000D03*
D50*
X16250000Y70430000D03*
D50*
X62000000Y7330000D03*
D50*
X1000000Y45190000D03*
D50*
X54375000Y70430000D03*
D50*
X39125000Y70430000D03*
D50*
X1000000Y64120000D03*
D50*
X23875000Y70430000D03*
D50*
X62000000Y38880000D03*
D51*
X10310000Y46770000D03*
D49*
X16250000Y64120000D03*
D49*
X16250000Y7330000D03*
D49*
X46050000Y51500000D03*
D49*
X8625000Y64120000D03*
D49*
X16250000Y13640000D03*
D50*
X1000000Y38880000D03*
D49*
X54375000Y26260000D03*
D51*
X40500000Y14330000D03*
D49*
X31500000Y64120000D03*
D49*
X55775000Y32870000D03*
D50*
X62000000Y45190000D03*
D49*
X31500000Y25760000D03*
D49*
X23875000Y26260000D03*
D49*
X39125000Y19950000D03*
D50*
X62000000Y1000000D03*
D49*
X16250000Y37680000D03*
D49*
X23875000Y37680000D03*
D49*
X39125000Y1000000D03*
D49*
X39125000Y45190000D03*
D50*
X62000000Y70430000D03*
D50*
X62000000Y64120000D03*
D49*
X15250000Y58070000D03*
D49*
X32000000Y32570000D03*
D50*
X1000000Y57810000D03*
D49*
X54375000Y19950000D03*
D49*
X54375000Y45190000D03*
D50*
X1000000Y7330000D03*
D49*
X46550000Y32870000D03*
D50*
X62000000Y26260000D03*
D52*
X16170000Y52190000D03*
D49*
X7370000Y38730000D03*
D49*
X54375000Y38880000D03*
D49*
X12750000Y49620000D03*
D51*
X49910000Y43390000D03*
D49*
X24075000Y45190000D03*
D49*
X46750000Y19950000D03*
D49*
X8625000Y26260000D03*
D49*
X8625000Y57810000D03*
D50*
X62000000Y13640000D03*
D50*
X1000000Y13640000D03*
D49*
X15300000Y55530000D03*
D50*
X46750000Y70430000D03*
D50*
X62000000Y51500000D03*
D49*
X54375000Y51500000D03*
D49*
X20260000Y50770000D03*
D50*
X1000000Y1000000D03*
D49*
X54375000Y7330000D03*
D49*
X39125000Y52100000D03*
D49*
X54375000Y1000000D03*
D49*
X36480000Y8430000D03*
D49*
X8625000Y19950000D03*
D49*
X6570001Y45430000D03*
D51*
X21700000Y14330000D03*
D52*
X14670000Y53470000D03*
D49*
X22370000Y8430000D03*
D49*
X16250000Y1000000D03*
D51*
X22060000Y53470000D03*
D49*
X52750000Y40420000D03*
D49*
X16250000Y32970000D03*
D49*
X54375000Y13640000D03*
D49*
X54375000Y57810000D03*
D49*
X24075000Y52100000D03*
D49*
X8625000Y1000000D03*
D50*
X62000000Y57810000D03*
D49*
X39125000Y26260000D03*
D49*
X51000000Y30900000D03*
D49*
X40080000Y8430000D03*
D49*
X23875000Y19950000D03*
D49*
X16250000Y26260000D03*
D49*
X46750000Y64120000D03*
D49*
X48860000Y36800000D03*
D49*
X31500000Y57810000D03*
D49*
X39125000Y64120000D03*
D49*
X54375000Y64120000D03*
D49*
X23875000Y64120000D03*
D49*
X31500000Y19950000D03*
D50*
X1000000Y51500000D03*
D49*
X46750000Y1000000D03*
D49*
X7125000Y33070000D03*
D49*
X38280000Y5830000D03*
D49*
X30360002Y37760000D03*
D50*
X1000000Y19950000D03*
D49*
X24170000Y5830000D03*
D49*
X39125000Y38880000D03*
D50*
X8625000Y70430000D03*
D50*
X62000000Y19950000D03*
D49*
X46750000Y26260000D03*
D49*
X46750000Y57810000D03*
D49*
X51940000Y49040000D03*
D49*
X16250000Y46390000D03*
D49*
X8625000Y13640000D03*
D49*
X23875000Y32570000D03*
D49*
X46750000Y13640000D03*
D50*
X1000000Y26260000D03*
D49*
X46750000Y7330000D03*
D49*
X8625000Y7330000D03*
D49*
X34400000Y15030000D03*
D49*
X39125000Y32570000D03*
D49*
X46050000Y45190000D03*
D49*
X39125000Y57810000D03*
D50*
X1000000Y70430000D03*
D49*
X23875000Y1000000D03*
D49*
X10580000Y54945000D03*
D49*
X6360000Y51580000D03*
M02*
