%FSLAX46Y46*%
%MOMM*%
%ADD10C,0.050000*%
%ADD11C,0.150000*%
G01*
%LPD*%
G36*
X30600000Y28200000D02*
X30200000Y28900000D01*
X31000000Y28900000D01*
X30600000Y28200000D01*
D02*
G37*
G36*
X28370000Y56320000D02*
X28370000Y56720000D01*
X30070000Y56720000D01*
X30070000Y56320000D01*
X28370000Y56320000D01*
D02*
G37*
G36*
X34630000Y54420000D02*
X34630000Y54020000D01*
X32930000Y54020000D01*
X32930000Y54420000D01*
X34630000Y54420000D01*
D02*
G37*
G36*
X27270000Y54420000D02*
X27270000Y54020000D01*
X25570000Y54020000D01*
X25570000Y54420000D01*
X27270000Y54420000D01*
D02*
G37*
G36*
X26100000Y28920000D02*
X26500000Y28220000D01*
X25700000Y28220000D01*
X26100000Y28920000D01*
D02*
G37*
G36*
X35730000Y56320000D02*
X35730000Y56720000D01*
X37430000Y56720000D01*
X37430000Y56320000D01*
X35730000Y56320000D01*
D02*
G37*
G01*
%LPD*%
D10*
X51025000Y38205000D02*
X50475000Y38205000D01*
D10*
X51025000Y39055000D02*
X50475000Y39055000D01*
D11*
X49415716Y36658808D02*
X49415716Y37658808D01*
D11*
X49844284Y37658808D02*
X49415716Y37658808D01*
D11*
X49987144Y37611192D02*
X49844284Y37658808D01*
D11*
X50034760Y37563572D02*
X49987144Y37611192D01*
D11*
X50082380Y37468332D02*
X50034760Y37563572D01*
D11*
X50082380Y37373096D02*
X50082380Y37468332D01*
D11*
X50034760Y37277856D02*
X50082380Y37373096D01*
D11*
X49987144Y37230240D02*
X50034760Y37277856D01*
D11*
X49844284Y37182620D02*
X49987144Y37230240D01*
D11*
X49415716Y37182620D02*
X49844284Y37182620D01*
D11*
X50082380Y36658808D02*
X49749048Y37182620D01*
D11*
X50606192Y37515952D02*
X50510952Y37468332D01*
D11*
X50749048Y37658808D02*
X50606192Y37515952D01*
D11*
X50749048Y36658808D02*
X50749048Y37658808D01*
D11*
X51463332Y37611192D02*
X51606192Y37658808D01*
D11*
X51368096Y37468332D02*
X51463332Y37611192D01*
D11*
X51320476Y37230240D02*
X51368096Y37468332D01*
D11*
X51320476Y37087380D02*
X51320476Y37230240D01*
D11*
X51368096Y36849284D02*
X51320476Y37087380D01*
D11*
X51463332Y36706428D02*
X51368096Y36849284D01*
D11*
X51606192Y36658808D02*
X51463332Y36706428D01*
D11*
X51701428Y36658808D02*
X51606192Y36658808D01*
D11*
X51844284Y36706428D02*
X51701428Y36658808D01*
D11*
X51939524Y36849284D02*
X51844284Y36706428D01*
D11*
X51987144Y37087380D02*
X51939524Y36849284D01*
D11*
X51987144Y37230240D02*
X51987144Y37087380D01*
D11*
X51939524Y37468332D02*
X51987144Y37230240D01*
D11*
X51844284Y37611192D02*
X51939524Y37468332D01*
D11*
X51701428Y37658808D02*
X51844284Y37611192D01*
D11*
X51606192Y37658808D02*
X51701428Y37658808D01*
D10*
X27450000Y13030000D02*
X27450000Y7730000D01*
D10*
X26150000Y14330000D02*
X27450000Y13030000D01*
D10*
X20850000Y7730000D02*
X23125000Y7730000D01*
D10*
X27450000Y7730000D02*
X25175000Y7730000D01*
D10*
X26150000Y14330000D02*
X25175000Y14330000D01*
D10*
X20850000Y13030000D02*
X22150000Y14330000D01*
D10*
X20850000Y7730000D02*
X20850000Y13030000D01*
D10*
X22150000Y14330000D02*
X23125000Y14330000D01*
D11*
X28369048Y11087143D02*
X28464286Y11134762D01*
D11*
X28273810Y10991905D02*
X28369048Y11087143D01*
D11*
X28226190Y10896667D02*
X28273810Y10991905D01*
D11*
X28226190Y10706190D02*
X28226190Y10896667D01*
D11*
X28273810Y10610952D02*
X28226190Y10706190D01*
D11*
X28369048Y10515714D02*
X28273810Y10610952D01*
D11*
X28464286Y10468095D02*
X28369048Y10515714D01*
D11*
X28607142Y10420476D02*
X28464286Y10468095D01*
D11*
X28845238Y10420476D02*
X28607142Y10420476D01*
D11*
X28988096Y10468095D02*
X28845238Y10420476D01*
D11*
X29083334Y10515714D02*
X28988096Y10468095D01*
D11*
X29178572Y10610952D02*
X29083334Y10515714D01*
D11*
X29226190Y10706190D02*
X29178572Y10610952D01*
D11*
X29226190Y10896667D02*
X29226190Y10706190D01*
D11*
X29178572Y10991905D02*
X29226190Y10896667D01*
D11*
X29083334Y11087143D02*
X29178572Y10991905D01*
D11*
X28988096Y11134762D02*
X29083334Y11087143D01*
D11*
X28416666Y11468095D02*
X28464286Y11468095D01*
D11*
X28321428Y11515714D02*
X28416666Y11468095D01*
D11*
X28273810Y11563333D02*
X28321428Y11515714D01*
D11*
X28226190Y11658571D02*
X28273810Y11563333D01*
D11*
X28226190Y11849048D02*
X28226190Y11658571D01*
D11*
X28273810Y11944286D02*
X28226190Y11849048D01*
D11*
X28321428Y11991905D02*
X28273810Y11944286D01*
D11*
X28416666Y12039524D02*
X28321428Y11991905D01*
D11*
X28511904Y12039524D02*
X28416666Y12039524D01*
D11*
X28607142Y11991905D02*
X28511904Y12039524D01*
D11*
X28750000Y11896667D02*
X28607142Y11991905D01*
D11*
X29226190Y11420476D02*
X28750000Y11896667D01*
D11*
X29226190Y12087143D02*
X29226190Y11420476D01*
D10*
X25500001Y35655000D02*
X25500001Y36230000D01*
D10*
X26550001Y37280000D02*
X30800001Y37280000D01*
D10*
X25500001Y33030000D02*
X25500001Y33605000D01*
D10*
X30800001Y31980000D02*
X30800001Y33605000D01*
D10*
X25500001Y33030000D02*
X26550001Y31980000D01*
D10*
X25500001Y36230000D02*
X26550001Y37280000D01*
D10*
X26550001Y31980000D02*
X30800001Y31980000D01*
D10*
X30800001Y37280000D02*
X30800001Y35655000D01*
D11*
X27634524Y39010952D02*
X27682142Y38915716D01*
D11*
X27539286Y39106192D02*
X27634524Y39010952D01*
D11*
X27444048Y39153808D02*
X27539286Y39106192D01*
D11*
X27253572Y39153808D02*
X27444048Y39153808D01*
D11*
X27158334Y39106192D02*
X27253572Y39153808D01*
D11*
X27063096Y39010952D02*
X27158334Y39106192D01*
D11*
X27015476Y38915716D02*
X27063096Y39010952D01*
D11*
X26967858Y38772856D02*
X27015476Y38915716D01*
D11*
X26967858Y38534760D02*
X26967858Y38772856D01*
D11*
X27015476Y38391904D02*
X26967858Y38534760D01*
D11*
X27063096Y38296668D02*
X27015476Y38391904D01*
D11*
X27158334Y38201428D02*
X27063096Y38296668D01*
D11*
X27253572Y38153808D02*
X27158334Y38201428D01*
D11*
X27444048Y38153808D02*
X27253572Y38153808D01*
D11*
X27539286Y38201428D02*
X27444048Y38153808D01*
D11*
X27634524Y38296668D02*
X27539286Y38201428D01*
D11*
X27682142Y38391904D02*
X27634524Y38296668D01*
D11*
X28205952Y39010952D02*
X28110714Y38963332D01*
D11*
X28348810Y39153808D02*
X28205952Y39010952D01*
D11*
X28348810Y38153808D02*
X28348810Y39153808D01*
D11*
X29063096Y39106192D02*
X29205952Y39153808D01*
D11*
X28967856Y38963332D02*
X29063096Y39106192D01*
D11*
X28920238Y38725240D02*
X28967856Y38963332D01*
D11*
X28920238Y38582380D02*
X28920238Y38725240D01*
D11*
X28967856Y38344284D02*
X28920238Y38582380D01*
D11*
X29063096Y38201428D02*
X28967856Y38344284D01*
D11*
X29205952Y38153808D02*
X29063096Y38201428D01*
D11*
X29301190Y38153808D02*
X29205952Y38153808D01*
D11*
X29444048Y38201428D02*
X29301190Y38153808D01*
D11*
X29539286Y38344284D02*
X29444048Y38201428D01*
D11*
X29586904Y38582380D02*
X29539286Y38344284D01*
D11*
X29586904Y38725240D02*
X29586904Y38582380D01*
D11*
X29539286Y38963332D02*
X29586904Y38725240D01*
D11*
X29444048Y39106192D02*
X29539286Y38963332D01*
D11*
X29301190Y39153808D02*
X29444048Y39106192D01*
D11*
X29205952Y39153808D02*
X29301190Y39153808D01*
D10*
X46735000Y37225000D02*
X47285000Y37225000D01*
D10*
X46735000Y36375000D02*
X47285000Y36375000D01*
D11*
X45820476Y37818808D02*
X45820476Y38818808D01*
D11*
X46249048Y38818808D02*
X45820476Y38818808D01*
D11*
X46391904Y38771192D02*
X46249048Y38818808D01*
D11*
X46439524Y38723572D02*
X46391904Y38771192D01*
D11*
X46487144Y38628332D02*
X46439524Y38723572D01*
D11*
X46487144Y38533096D02*
X46487144Y38628332D01*
D11*
X46439524Y38437856D02*
X46487144Y38533096D01*
D11*
X46391904Y38390240D02*
X46439524Y38437856D01*
D11*
X46249048Y38342620D02*
X46391904Y38390240D01*
D11*
X45820476Y38342620D02*
X46249048Y38342620D01*
D11*
X46487144Y37818808D02*
X46153808Y38342620D01*
D11*
X47010952Y38675952D02*
X46915716Y38628332D01*
D11*
X47153808Y38818808D02*
X47010952Y38675952D01*
D11*
X47153808Y37818808D02*
X47153808Y38818808D01*
D11*
X47963332Y38675952D02*
X47868096Y38628332D01*
D11*
X48106192Y38818808D02*
X47963332Y38675952D01*
D11*
X48106192Y37818808D02*
X48106192Y38818808D01*
D10*
X24775002Y39385000D02*
X25325002Y39385000D01*
D10*
X24775002Y38535000D02*
X25325002Y38535000D01*
D11*
X23860478Y39978808D02*
X23860478Y40978808D01*
D11*
X24289050Y40978808D02*
X23860478Y40978808D01*
D11*
X24431906Y40931192D02*
X24289050Y40978808D01*
D11*
X24479526Y40883572D02*
X24431906Y40931192D01*
D11*
X24527144Y40788332D02*
X24479526Y40883572D01*
D11*
X24527144Y40693096D02*
X24527144Y40788332D01*
D11*
X24479526Y40597856D02*
X24527144Y40693096D01*
D11*
X24431906Y40550240D02*
X24479526Y40597856D01*
D11*
X24289050Y40502620D02*
X24431906Y40550240D01*
D11*
X23860478Y40502620D02*
X24289050Y40502620D01*
D11*
X24527144Y39978808D02*
X24193812Y40502620D01*
D11*
X25384288Y40502620D02*
X25431906Y40645476D01*
D11*
X25289050Y40407380D02*
X25384288Y40502620D01*
D11*
X25146192Y40359760D02*
X25289050Y40407380D01*
D11*
X25098574Y40359760D02*
X25146192Y40359760D01*
D11*
X24955716Y40407380D02*
X25098574Y40359760D01*
D11*
X24860478Y40502620D02*
X24955716Y40407380D01*
D11*
X24812860Y40645476D02*
X24860478Y40502620D01*
D11*
X24812860Y40693096D02*
X24812860Y40645476D01*
D11*
X24860478Y40835952D02*
X24812860Y40693096D01*
D11*
X24955716Y40931192D02*
X24860478Y40835952D01*
D11*
X25098574Y40978808D02*
X24955716Y40931192D01*
D11*
X25146192Y40978808D02*
X25098574Y40978808D01*
D11*
X25289050Y40931192D02*
X25146192Y40978808D01*
D11*
X25384288Y40835952D02*
X25289050Y40931192D01*
D11*
X25431906Y40645476D02*
X25384288Y40835952D01*
D11*
X25431906Y40407380D02*
X25431906Y40645476D01*
D11*
X25384288Y40169284D02*
X25431906Y40407380D01*
D11*
X25289050Y40026428D02*
X25384288Y40169284D01*
D11*
X25146192Y39978808D02*
X25289050Y40026428D01*
D11*
X25050954Y39978808D02*
X25146192Y39978808D01*
D11*
X24908098Y40026428D02*
X25050954Y39978808D01*
D11*
X24860478Y40121668D02*
X24908098Y40026428D01*
D10*
X13430000Y55330000D02*
X17410000Y55330000D01*
D10*
X17410000Y50330000D02*
X13430000Y50330000D01*
D10*
X14070000Y55330000D02*
X14070000Y50330000D01*
D11*
X14170476Y56023808D02*
X14170476Y57023808D01*
D11*
X15170476Y56880952D02*
X15218095Y56785716D01*
D11*
X15075238Y56976192D02*
X15170476Y56880952D01*
D11*
X14980000Y57023808D02*
X15075238Y56976192D01*
D11*
X14789524Y57023808D02*
X14980000Y57023808D01*
D11*
X14694286Y56976192D02*
X14789524Y57023808D01*
D11*
X14599048Y56880952D02*
X14694286Y56976192D01*
D11*
X14551429Y56785716D02*
X14599048Y56880952D01*
D11*
X14503810Y56642856D02*
X14551429Y56785716D01*
D11*
X14503810Y56404760D02*
X14503810Y56642856D01*
D11*
X14551429Y56261904D02*
X14503810Y56404760D01*
D11*
X14599048Y56166668D02*
X14551429Y56261904D01*
D11*
X14694286Y56071428D02*
X14599048Y56166668D01*
D11*
X14789524Y56023808D02*
X14694286Y56071428D01*
D11*
X14980000Y56023808D02*
X14789524Y56023808D01*
D11*
X15075238Y56071428D02*
X14980000Y56023808D01*
D11*
X15170476Y56166668D02*
X15075238Y56071428D01*
D11*
X15218095Y56261904D02*
X15170476Y56166668D01*
D11*
X15741905Y56880952D02*
X15646667Y56833332D01*
D11*
X15884762Y57023808D02*
X15741905Y56880952D01*
D11*
X15884762Y56023808D02*
X15884762Y57023808D01*
D10*
X16075000Y44105000D02*
X16075000Y44655000D01*
D10*
X16925000Y44105000D02*
X16925000Y44655000D01*
D11*
X15481190Y43190476D02*
X14481190Y43190476D01*
D11*
X14481190Y43619048D02*
X14481190Y43190476D01*
D11*
X14528810Y43761904D02*
X14481190Y43619048D01*
D11*
X14576429Y43809524D02*
X14528810Y43761904D01*
D11*
X14671667Y43857144D02*
X14576429Y43809524D01*
D11*
X14766905Y43857144D02*
X14671667Y43857144D01*
D11*
X14862143Y43809524D02*
X14766905Y43857144D01*
D11*
X14909762Y43761904D02*
X14862143Y43809524D01*
D11*
X14957381Y43619048D02*
X14909762Y43761904D01*
D11*
X14957381Y43190476D02*
X14957381Y43619048D01*
D11*
X15481190Y43857144D02*
X14957381Y43523808D01*
D11*
X15481190Y44333332D02*
X14481190Y44809524D01*
D11*
X14481190Y44809524D02*
X14481190Y44142856D01*
D10*
X10980000Y52845000D02*
X10980000Y53045000D01*
D10*
X10180000Y52845000D02*
X10180000Y53045000D01*
D11*
X8774048Y52354524D02*
X8869286Y52402144D01*
D11*
X8678810Y52259284D02*
X8774048Y52354524D01*
D11*
X8631190Y52164048D02*
X8678810Y52259284D01*
D11*
X8631190Y51973572D02*
X8631190Y52164048D01*
D11*
X8678810Y51878332D02*
X8631190Y51973572D01*
D11*
X8774048Y51783096D02*
X8678810Y51878332D01*
D11*
X8869286Y51735476D02*
X8774048Y51783096D01*
D11*
X9012143Y51687856D02*
X8869286Y51735476D01*
D11*
X9250238Y51687856D02*
X9012143Y51687856D01*
D11*
X9393095Y51735476D02*
X9250238Y51687856D01*
D11*
X9488333Y51783096D02*
X9393095Y51735476D01*
D11*
X9583571Y51878332D02*
X9488333Y51783096D01*
D11*
X9631190Y51973572D02*
X9583571Y51878332D01*
D11*
X9631190Y52164048D02*
X9631190Y51973572D01*
D11*
X9583571Y52259284D02*
X9631190Y52164048D01*
D11*
X9488333Y52354524D02*
X9583571Y52259284D01*
D11*
X9393095Y52402144D02*
X9488333Y52354524D01*
D11*
X8631190Y52783096D02*
X8631190Y53259284D01*
D11*
X9059762Y52735476D02*
X8631190Y52783096D01*
D11*
X9012143Y52783096D02*
X9059762Y52735476D01*
D11*
X8964524Y52925952D02*
X9012143Y52783096D01*
D11*
X8964524Y53068808D02*
X8964524Y52925952D01*
D11*
X9012143Y53211668D02*
X8964524Y53068808D01*
D11*
X9107381Y53306904D02*
X9012143Y53211668D01*
D11*
X9250238Y53354524D02*
X9107381Y53306904D01*
D11*
X9345476Y53354524D02*
X9250238Y53354524D01*
D11*
X9488333Y53306904D02*
X9345476Y53354524D01*
D11*
X9583571Y53211668D02*
X9488333Y53306904D01*
D11*
X9631190Y53068808D02*
X9583571Y53211668D01*
D11*
X9631190Y52925952D02*
X9631190Y53068808D01*
D11*
X9583571Y52783096D02*
X9631190Y52925952D01*
D11*
X9535952Y52735476D02*
X9583571Y52783096D01*
D11*
X9440714Y52687856D02*
X9535952Y52735476D01*
D10*
X50650000Y40020000D02*
X50850000Y40020000D01*
D10*
X50650000Y40820000D02*
X50850000Y40820000D01*
D11*
X50159524Y42225952D02*
X50207144Y42130716D01*
D11*
X50064284Y42321192D02*
X50159524Y42225952D01*
D11*
X49969048Y42368808D02*
X50064284Y42321192D01*
D11*
X49778572Y42368808D02*
X49969048Y42368808D01*
D11*
X49683332Y42321192D02*
X49778572Y42368808D01*
D11*
X49588096Y42225952D02*
X49683332Y42321192D01*
D11*
X49540476Y42130716D02*
X49588096Y42225952D01*
D11*
X49492856Y41987856D02*
X49540476Y42130716D01*
D11*
X49492856Y41749760D02*
X49492856Y41987856D01*
D11*
X49540476Y41606904D02*
X49492856Y41749760D01*
D11*
X49588096Y41511668D02*
X49540476Y41606904D01*
D11*
X49683332Y41416428D02*
X49588096Y41511668D01*
D11*
X49778572Y41368808D02*
X49683332Y41416428D01*
D11*
X49969048Y41368808D02*
X49778572Y41368808D01*
D11*
X50064284Y41416428D02*
X49969048Y41368808D01*
D11*
X50159524Y41511668D02*
X50064284Y41416428D01*
D11*
X50207144Y41606904D02*
X50159524Y41511668D01*
D11*
X50730952Y42225952D02*
X50635716Y42178332D01*
D11*
X50873808Y42368808D02*
X50730952Y42225952D01*
D11*
X50873808Y41368808D02*
X50873808Y42368808D01*
D11*
X51492856Y42178332D02*
X51492856Y42130716D01*
D11*
X51540476Y42273572D02*
X51492856Y42178332D01*
D11*
X51588096Y42321192D02*
X51540476Y42273572D01*
D11*
X51683332Y42368808D02*
X51588096Y42321192D01*
D11*
X51873808Y42368808D02*
X51683332Y42368808D01*
D11*
X51969048Y42321192D02*
X51873808Y42368808D01*
D11*
X52016668Y42273572D02*
X51969048Y42321192D01*
D11*
X52064284Y42178332D02*
X52016668Y42273572D01*
D11*
X52064284Y42083096D02*
X52064284Y42178332D01*
D11*
X52016668Y41987856D02*
X52064284Y42083096D01*
D11*
X51921428Y41845000D02*
X52016668Y41987856D01*
D11*
X51445240Y41368808D02*
X51921428Y41845000D01*
D11*
X52111904Y41368808D02*
X51445240Y41368808D01*
D10*
X37700000Y730000D02*
X35700000Y730000D01*
D10*
X25300000Y730000D02*
X25300000Y6480000D01*
D10*
X25300000Y6480000D02*
X37700000Y6480000D01*
D10*
X37700000Y6480000D02*
X37700000Y730000D01*
D10*
X28100000Y730000D02*
X34900000Y730000D01*
D10*
X25300000Y730000D02*
X27300000Y730000D01*
D11*
X30190476Y6953809D02*
X30190476Y7953809D01*
D11*
X30523810Y7953809D02*
X30190476Y7953809D01*
D11*
X30666666Y7906190D02*
X30523810Y7953809D01*
D11*
X30761904Y7810952D02*
X30666666Y7906190D01*
D11*
X30809524Y7715714D02*
X30761904Y7810952D01*
D11*
X30857142Y7572857D02*
X30809524Y7715714D01*
D11*
X30857142Y7334762D02*
X30857142Y7572857D01*
D11*
X30809524Y7191905D02*
X30857142Y7334762D01*
D11*
X30761904Y7096666D02*
X30809524Y7191905D01*
D11*
X30666666Y7001428D02*
X30761904Y7096666D01*
D11*
X30523810Y6953809D02*
X30666666Y7001428D01*
D11*
X30190476Y6953809D02*
X30523810Y6953809D01*
D11*
X31809524Y7810952D02*
X31857142Y7715714D01*
D11*
X31714286Y7906190D02*
X31809524Y7810952D01*
D11*
X31619048Y7953809D02*
X31714286Y7906190D01*
D11*
X31428572Y7953809D02*
X31619048Y7953809D01*
D11*
X31333334Y7906190D02*
X31428572Y7953809D01*
D11*
X31238096Y7810952D02*
X31333334Y7906190D01*
D11*
X31190476Y7715714D02*
X31238096Y7810952D01*
D11*
X31142858Y7572857D02*
X31190476Y7715714D01*
D11*
X31142858Y7334762D02*
X31142858Y7572857D01*
D11*
X31190476Y7191905D02*
X31142858Y7334762D01*
D11*
X31238096Y7096666D02*
X31190476Y7191905D01*
D11*
X31333334Y7001428D02*
X31238096Y7096666D01*
D11*
X31428572Y6953809D02*
X31333334Y7001428D01*
D11*
X31619048Y6953809D02*
X31428572Y6953809D01*
D11*
X31714286Y7001428D02*
X31619048Y6953809D01*
D11*
X31809524Y7096666D02*
X31714286Y7001428D01*
D11*
X31857142Y7191905D02*
X31809524Y7096666D01*
D10*
X14245000Y44105000D02*
X14245000Y44655000D01*
D10*
X15095000Y44105000D02*
X15095000Y44655000D01*
D11*
X13651190Y43190476D02*
X12651190Y43190476D01*
D11*
X12651190Y43619048D02*
X12651190Y43190476D01*
D11*
X12698810Y43761904D02*
X12651190Y43619048D01*
D11*
X12746429Y43809524D02*
X12698810Y43761904D01*
D11*
X12841667Y43857144D02*
X12746429Y43809524D01*
D11*
X12936905Y43857144D02*
X12841667Y43857144D01*
D11*
X13032143Y43809524D02*
X12936905Y43857144D01*
D11*
X13079762Y43761904D02*
X13032143Y43809524D01*
D11*
X13127381Y43619048D02*
X13079762Y43761904D01*
D11*
X13127381Y43190476D02*
X13127381Y43619048D01*
D11*
X13651190Y43857144D02*
X13127381Y43523808D01*
D11*
X12698810Y44238096D02*
X12651190Y44380952D01*
D11*
X12794048Y44190476D02*
X12698810Y44238096D01*
D11*
X12889286Y44190476D02*
X12794048Y44190476D01*
D11*
X12984524Y44238096D02*
X12889286Y44190476D01*
D11*
X13032143Y44333332D02*
X12984524Y44238096D01*
D11*
X13079762Y44523808D02*
X13032143Y44333332D01*
D11*
X13127381Y44666668D02*
X13079762Y44523808D01*
D11*
X13222619Y44761904D02*
X13127381Y44666668D01*
D11*
X13317857Y44809524D02*
X13222619Y44761904D01*
D11*
X13460714Y44809524D02*
X13317857Y44809524D01*
D11*
X13555952Y44761904D02*
X13460714Y44809524D01*
D11*
X13603571Y44714284D02*
X13555952Y44761904D01*
D11*
X13651190Y44571428D02*
X13603571Y44714284D01*
D11*
X13651190Y44380952D02*
X13651190Y44571428D01*
D11*
X13603571Y44238096D02*
X13651190Y44380952D01*
D11*
X13555952Y44190476D02*
X13603571Y44238096D01*
D11*
X13460714Y44142856D02*
X13555952Y44190476D01*
D11*
X13317857Y44142856D02*
X13460714Y44142856D01*
D11*
X13222619Y44190476D02*
X13317857Y44142856D01*
D11*
X13127381Y44285716D02*
X13222619Y44190476D01*
D11*
X13079762Y44428572D02*
X13127381Y44285716D01*
D11*
X13032143Y44619048D02*
X13079762Y44428572D01*
D11*
X12984524Y44714284D02*
X13032143Y44619048D01*
D11*
X12889286Y44761904D02*
X12984524Y44714284D01*
D11*
X12794048Y44761904D02*
X12889286Y44761904D01*
D11*
X12698810Y44714284D02*
X12794048Y44761904D01*
D11*
X12651190Y44571428D02*
X12698810Y44714284D01*
D11*
X12651190Y44380952D02*
X12651190Y44571428D01*
D10*
X41350000Y7730000D02*
X39075000Y7730000D01*
D10*
X36050000Y14330000D02*
X37025000Y14330000D01*
D10*
X40050000Y14330000D02*
X39075000Y14330000D01*
D10*
X40050000Y14330000D02*
X41350000Y13030000D01*
D10*
X34750000Y7730000D02*
X37025000Y7730000D01*
D10*
X34750000Y13030000D02*
X36050000Y14330000D01*
D10*
X41350000Y13030000D02*
X41350000Y7730000D01*
D10*
X34750000Y7730000D02*
X34750000Y13030000D01*
D11*
X42294048Y11237143D02*
X42389284Y11284762D01*
D11*
X42198808Y11141905D02*
X42294048Y11237143D01*
D11*
X42151192Y11046667D02*
X42198808Y11141905D01*
D11*
X42151192Y10856190D02*
X42151192Y11046667D01*
D11*
X42198808Y10760952D02*
X42151192Y10856190D01*
D11*
X42294048Y10665714D02*
X42198808Y10760952D01*
D11*
X42389284Y10618095D02*
X42294048Y10665714D01*
D11*
X42532144Y10570476D02*
X42389284Y10618095D01*
D11*
X42770240Y10570476D02*
X42532144Y10570476D01*
D11*
X42913096Y10618095D02*
X42770240Y10570476D01*
D11*
X43008332Y10665714D02*
X42913096Y10618095D01*
D11*
X43103572Y10760952D02*
X43008332Y10665714D01*
D11*
X43151192Y10856190D02*
X43103572Y10760952D01*
D11*
X43151192Y11046667D02*
X43151192Y10856190D01*
D11*
X43103572Y11141905D02*
X43151192Y11046667D01*
D11*
X43008332Y11237143D02*
X43103572Y11141905D01*
D11*
X42913096Y11284762D02*
X43008332Y11237143D01*
D11*
X42294048Y11808571D02*
X42341668Y11713333D01*
D11*
X42151192Y11951429D02*
X42294048Y11808571D01*
D11*
X43151192Y11951429D02*
X42151192Y11951429D01*
D10*
X29600000Y26910000D02*
X30100000Y26910000D01*
D10*
X31600000Y26910000D02*
X31100000Y26910000D01*
D11*
X29552380Y31179048D02*
X29552380Y31979048D01*
D11*
X29819048Y31979048D02*
X29552380Y31979048D01*
D11*
X29933334Y31940952D02*
X29819048Y31979048D01*
D11*
X30009524Y31864762D02*
X29933334Y31940952D01*
D11*
X30047620Y31788572D02*
X30009524Y31864762D01*
D11*
X30085714Y31674286D02*
X30047620Y31788572D01*
D11*
X30085714Y31483810D02*
X30085714Y31674286D01*
D11*
X30047620Y31369524D02*
X30085714Y31483810D01*
D11*
X30009524Y31293334D02*
X30047620Y31369524D01*
D11*
X29933334Y31217142D02*
X30009524Y31293334D01*
D11*
X29819048Y31179048D02*
X29933334Y31217142D01*
D11*
X29552380Y31179048D02*
X29819048Y31179048D01*
D11*
X30352380Y31826666D02*
X30352380Y31788572D01*
D11*
X30390476Y31902858D02*
X30352380Y31826666D01*
D11*
X30428572Y31940952D02*
X30390476Y31902858D01*
D11*
X30504762Y31979048D02*
X30428572Y31940952D01*
D11*
X30657142Y31979048D02*
X30504762Y31979048D01*
D11*
X30733334Y31940952D02*
X30657142Y31979048D01*
D11*
X30771428Y31902858D02*
X30733334Y31940952D01*
D11*
X30809524Y31826666D02*
X30771428Y31902858D01*
D11*
X30809524Y31750476D02*
X30809524Y31826666D01*
D11*
X30771428Y31674286D02*
X30809524Y31750476D01*
D11*
X30695238Y31560000D02*
X30771428Y31674286D01*
D11*
X30314286Y31179048D02*
X30695238Y31560000D01*
D11*
X30847620Y31179048D02*
X30314286Y31179048D01*
D10*
X30095000Y53670000D02*
X28345000Y53670000D01*
D10*
X28345000Y57070000D02*
X30095000Y57070000D01*
D10*
X28345000Y53670000D02*
X28345000Y57070000D01*
D10*
X30095000Y57070000D02*
X30095000Y53670000D01*
D11*
X31250952Y55010476D02*
X30450952Y55010476D01*
D11*
X30450952Y55277144D02*
X30450952Y55010476D01*
D11*
X30489048Y55391428D02*
X30450952Y55277144D01*
D11*
X30565238Y55467620D02*
X30489048Y55391428D01*
D11*
X30641428Y55505716D02*
X30565238Y55467620D01*
D11*
X30755714Y55543808D02*
X30641428Y55505716D01*
D11*
X30946190Y55543808D02*
X30755714Y55543808D01*
D11*
X31060476Y55505716D02*
X30946190Y55543808D01*
D11*
X31136666Y55467620D02*
X31060476Y55505716D01*
D11*
X31212858Y55391428D02*
X31136666Y55467620D01*
D11*
X31250952Y55277144D02*
X31212858Y55391428D01*
D11*
X31250952Y55010476D02*
X31250952Y55277144D01*
D11*
X30984286Y55772380D02*
X30450952Y56153332D01*
D11*
X30984286Y56343808D02*
X30984286Y55772380D01*
D11*
X31250952Y56153332D02*
X30450952Y56153332D01*
D10*
X30275000Y7630000D02*
X31925000Y7630000D01*
D10*
X30275000Y9230000D02*
X31925000Y9230000D01*
D11*
X29940476Y9953810D02*
X29940476Y10953810D01*
D11*
X30369048Y10953810D02*
X29940476Y10953810D01*
D11*
X30511904Y10906190D02*
X30369048Y10953810D01*
D11*
X30559524Y10858571D02*
X30511904Y10906190D01*
D11*
X30607142Y10763333D02*
X30559524Y10858571D01*
D11*
X30607142Y10668095D02*
X30607142Y10763333D01*
D11*
X30559524Y10572857D02*
X30607142Y10668095D01*
D11*
X30511904Y10525238D02*
X30559524Y10572857D01*
D11*
X30369048Y10477619D02*
X30511904Y10525238D01*
D11*
X29940476Y10477619D02*
X30369048Y10477619D01*
D11*
X30607142Y9953810D02*
X30273810Y10477619D01*
D11*
X31130952Y10810952D02*
X31035714Y10763333D01*
D11*
X31273810Y10953810D02*
X31130952Y10810952D01*
D11*
X31273810Y9953810D02*
X31273810Y10953810D01*
D10*
X45960000Y46790000D02*
X46810000Y45940000D01*
D10*
X46810000Y45940000D02*
X45960000Y46790000D01*
D10*
X49410000Y45940000D02*
X50260000Y46790000D01*
D10*
X49410000Y45940000D02*
X49135000Y45940000D01*
D10*
X45960000Y50240000D02*
X47085000Y50240000D01*
D10*
X45960000Y50240000D02*
X45960000Y46790000D01*
D10*
X45960000Y46790000D02*
X46810000Y45940000D01*
D10*
X50260000Y50240000D02*
X49135000Y50240000D01*
D10*
X46810000Y45940000D02*
X47080000Y45940000D01*
D10*
X46810000Y45940000D02*
X46810000Y45940000D01*
D10*
X50260000Y46790000D02*
X50260000Y50240000D01*
D11*
X44244048Y47594524D02*
X44339284Y47642144D01*
D11*
X44148808Y47499284D02*
X44244048Y47594524D01*
D11*
X44101192Y47404048D02*
X44148808Y47499284D01*
D11*
X44101192Y47213572D02*
X44101192Y47404048D01*
D11*
X44148808Y47118332D02*
X44101192Y47213572D01*
D11*
X44244048Y47023096D02*
X44148808Y47118332D01*
D11*
X44339284Y46975476D02*
X44244048Y47023096D01*
D11*
X44482144Y46927856D02*
X44339284Y46975476D01*
D11*
X44720240Y46927856D02*
X44482144Y46927856D01*
D11*
X44863096Y46975476D02*
X44720240Y46927856D01*
D11*
X44958332Y47023096D02*
X44863096Y46975476D01*
D11*
X45053572Y47118332D02*
X44958332Y47023096D01*
D11*
X45101192Y47213572D02*
X45053572Y47118332D01*
D11*
X45101192Y47404048D02*
X45101192Y47213572D01*
D11*
X45053572Y47499284D02*
X45101192Y47404048D01*
D11*
X44958332Y47594524D02*
X45053572Y47499284D01*
D11*
X44863096Y47642144D02*
X44958332Y47594524D01*
D11*
X44244048Y48165952D02*
X44291668Y48070716D01*
D11*
X44101192Y48308808D02*
X44244048Y48165952D01*
D11*
X45101192Y48308808D02*
X44101192Y48308808D01*
D11*
X44767856Y48880240D02*
X44101192Y49356428D01*
D11*
X44767856Y49594524D02*
X44767856Y48880240D01*
D11*
X45101192Y49356428D02*
X44101192Y49356428D01*
D10*
X32905000Y57070000D02*
X34655000Y57070000D01*
D10*
X34655000Y53670000D02*
X32905000Y53670000D01*
D10*
X34655000Y57070000D02*
X34655000Y53670000D01*
D10*
X32905000Y53670000D02*
X32905000Y57070000D01*
D11*
X32510952Y54472380D02*
X31710952Y54472380D01*
D11*
X31710952Y54739048D02*
X31710952Y54472380D01*
D11*
X31749048Y54853332D02*
X31710952Y54739048D01*
D11*
X31825238Y54929524D02*
X31749048Y54853332D01*
D11*
X31901428Y54967620D02*
X31825238Y54929524D01*
D11*
X32015714Y55005716D02*
X31901428Y54967620D01*
D11*
X32206190Y55005716D02*
X32015714Y55005716D01*
D11*
X32320476Y54967620D02*
X32206190Y55005716D01*
D11*
X32396666Y54929524D02*
X32320476Y54967620D01*
D11*
X32472858Y54853332D02*
X32396666Y54929524D01*
D11*
X32510952Y54739048D02*
X32472858Y54853332D01*
D11*
X32510952Y54472380D02*
X32510952Y54739048D01*
D11*
X31710952Y55310476D02*
X31710952Y55691428D01*
D11*
X32053810Y55272380D02*
X31710952Y55310476D01*
D11*
X32015714Y55310476D02*
X32053810Y55272380D01*
D11*
X31977620Y55424760D02*
X32015714Y55310476D01*
D11*
X31977620Y55539048D02*
X31977620Y55424760D01*
D11*
X32015714Y55653332D02*
X31977620Y55539048D01*
D11*
X32091904Y55729524D02*
X32015714Y55653332D01*
D11*
X32206190Y55767620D02*
X32091904Y55729524D01*
D11*
X32282380Y55767620D02*
X32206190Y55767620D01*
D11*
X32396666Y55729524D02*
X32282380Y55767620D01*
D11*
X32472858Y55653332D02*
X32396666Y55729524D01*
D11*
X32510952Y55539048D02*
X32472858Y55653332D01*
D11*
X32510952Y55424760D02*
X32510952Y55539048D01*
D11*
X32472858Y55310476D02*
X32510952Y55424760D01*
D11*
X32434762Y55272380D02*
X32472858Y55310476D01*
D11*
X32358572Y55234284D02*
X32434762Y55272380D01*
D10*
X31925000Y12530000D02*
X30275000Y12530000D01*
D10*
X31925000Y10930000D02*
X30275000Y10930000D01*
D11*
X30688096Y9253810D02*
X30688096Y10253810D01*
D11*
X31116666Y10253810D02*
X30688096Y10253810D01*
D11*
X31259524Y10206190D02*
X31116666Y10253810D01*
D11*
X31307142Y10158571D02*
X31259524Y10206190D01*
D11*
X31354762Y10063333D02*
X31307142Y10158571D01*
D11*
X31354762Y9968095D02*
X31354762Y10063333D01*
D11*
X31307142Y9872857D02*
X31354762Y9968095D01*
D11*
X31259524Y9825238D02*
X31307142Y9872857D01*
D11*
X31116666Y9777619D02*
X31259524Y9825238D01*
D11*
X30688096Y9777619D02*
X31116666Y9777619D01*
D11*
X31354762Y9253810D02*
X31021428Y9777619D01*
D11*
X31688096Y10063333D02*
X31688096Y10015714D01*
D11*
X31735714Y10158571D02*
X31688096Y10063333D01*
D11*
X31783334Y10206190D02*
X31735714Y10158571D01*
D11*
X31878572Y10253810D02*
X31783334Y10206190D01*
D11*
X32069048Y10253810D02*
X31878572Y10253810D01*
D11*
X32164286Y10206190D02*
X32069048Y10253810D01*
D11*
X32211904Y10158571D02*
X32164286Y10206190D01*
D11*
X32259524Y10063333D02*
X32211904Y10158571D01*
D11*
X32259524Y9968095D02*
X32259524Y10063333D01*
D11*
X32211904Y9872857D02*
X32259524Y9968095D01*
D11*
X32116666Y9730000D02*
X32211904Y9872857D01*
D11*
X31640476Y9253810D02*
X32116666Y9730000D01*
D11*
X32307142Y9253810D02*
X31640476Y9253810D01*
D10*
X47035000Y39580000D02*
X47285000Y39580000D01*
D10*
X47035000Y38280000D02*
X47285000Y38280000D01*
D11*
X46519524Y41060952D02*
X46567144Y40965716D01*
D11*
X46424284Y41156192D02*
X46519524Y41060952D01*
D11*
X46329048Y41203808D02*
X46424284Y41156192D01*
D11*
X46138572Y41203808D02*
X46329048Y41203808D01*
D11*
X46043332Y41156192D02*
X46138572Y41203808D01*
D11*
X45948096Y41060952D02*
X46043332Y41156192D01*
D11*
X45900476Y40965716D02*
X45948096Y41060952D01*
D11*
X45852856Y40822856D02*
X45900476Y40965716D01*
D11*
X45852856Y40584760D02*
X45852856Y40822856D01*
D11*
X45900476Y40441904D02*
X45852856Y40584760D01*
D11*
X45948096Y40346668D02*
X45900476Y40441904D01*
D11*
X46043332Y40251428D02*
X45948096Y40346668D01*
D11*
X46138572Y40203808D02*
X46043332Y40251428D01*
D11*
X46329048Y40203808D02*
X46138572Y40203808D01*
D11*
X46424284Y40251428D02*
X46329048Y40203808D01*
D11*
X46519524Y40346668D02*
X46424284Y40251428D01*
D11*
X46567144Y40441904D02*
X46519524Y40346668D01*
D11*
X47090952Y41060952D02*
X46995716Y41013332D01*
D11*
X47233808Y41203808D02*
X47090952Y41060952D01*
D11*
X47233808Y40203808D02*
X47233808Y41203808D01*
D11*
X48424284Y41203808D02*
X47900476Y41203808D01*
D11*
X48138572Y40822856D02*
X48424284Y41203808D01*
D11*
X48281428Y40822856D02*
X48138572Y40822856D01*
D11*
X48376668Y40775240D02*
X48281428Y40822856D01*
D11*
X48424284Y40727620D02*
X48376668Y40775240D01*
D11*
X48471904Y40584760D02*
X48424284Y40727620D01*
D11*
X48471904Y40489524D02*
X48471904Y40584760D01*
D11*
X48424284Y40346668D02*
X48471904Y40489524D01*
D11*
X48329048Y40251428D02*
X48424284Y40346668D01*
D11*
X48186192Y40203808D02*
X48329048Y40251428D01*
D11*
X48043332Y40203808D02*
X48186192Y40203808D01*
D11*
X47900476Y40251428D02*
X48043332Y40203808D01*
D11*
X47852856Y40299048D02*
X47900476Y40251428D01*
D11*
X47805240Y40394284D02*
X47852856Y40299048D01*
D10*
X30275000Y14230000D02*
X31925000Y14230000D01*
D10*
X30275000Y15830000D02*
X31925000Y15830000D01*
D11*
X29940476Y16553810D02*
X29940476Y17553810D01*
D11*
X30369048Y17553810D02*
X29940476Y17553810D01*
D11*
X30511904Y17506190D02*
X30369048Y17553810D01*
D11*
X30559524Y17458572D02*
X30511904Y17506190D01*
D11*
X30607142Y17363334D02*
X30559524Y17458572D01*
D11*
X30607142Y17268096D02*
X30607142Y17363334D01*
D11*
X30559524Y17172858D02*
X30607142Y17268096D01*
D11*
X30511904Y17125238D02*
X30559524Y17172858D01*
D11*
X30369048Y17077620D02*
X30511904Y17125238D01*
D11*
X29940476Y17077620D02*
X30369048Y17077620D01*
D11*
X30607142Y16553810D02*
X30273810Y17077620D01*
D11*
X31511904Y17553810D02*
X30988096Y17553810D01*
D11*
X31226190Y17172858D02*
X31511904Y17553810D01*
D11*
X31369048Y17172858D02*
X31226190Y17172858D01*
D11*
X31464286Y17125238D02*
X31369048Y17172858D01*
D11*
X31511904Y17077620D02*
X31464286Y17125238D01*
D11*
X31559524Y16934762D02*
X31511904Y17077620D01*
D11*
X31559524Y16839524D02*
X31559524Y16934762D01*
D11*
X31511904Y16696667D02*
X31559524Y16839524D01*
D11*
X31416666Y16601429D02*
X31511904Y16696667D01*
D11*
X31273810Y16553810D02*
X31416666Y16601429D01*
D11*
X31130952Y16553810D02*
X31273810Y16553810D01*
D11*
X30988096Y16601429D02*
X31130952Y16553810D01*
D11*
X30940476Y16649048D02*
X30988096Y16601429D01*
D11*
X30892858Y16744286D02*
X30940476Y16649048D01*
D10*
X54600000Y730000D02*
X54600000Y6480000D01*
D10*
X59600000Y730000D02*
X62000000Y730000D01*
D10*
X54600000Y730000D02*
X57000000Y730000D01*
D10*
X62000000Y6480000D02*
X62000000Y730000D01*
D10*
X54600000Y6480000D02*
X62000000Y6480000D01*
D11*
X56790476Y6953809D02*
X56790476Y7953809D01*
D11*
X57219048Y7953809D02*
X56790476Y7953809D01*
D11*
X57361904Y7906190D02*
X57219048Y7953809D01*
D11*
X57409524Y7858571D02*
X57361904Y7906190D01*
D11*
X57457144Y7763333D02*
X57409524Y7858571D01*
D11*
X57457144Y7668095D02*
X57457144Y7763333D01*
D11*
X57409524Y7572857D02*
X57457144Y7668095D01*
D11*
X57361904Y7525238D02*
X57409524Y7572857D01*
D11*
X57219048Y7477619D02*
X57361904Y7525238D01*
D11*
X56790476Y7477619D02*
X57219048Y7477619D01*
D11*
X57457144Y6953809D02*
X57123808Y7477619D01*
D11*
X57790476Y6953809D02*
X57790476Y7953809D01*
D11*
X58409524Y7953809D02*
X57790476Y7953809D01*
D11*
X58171428Y7477619D02*
X57790476Y7477619D01*
D11*
X58409524Y6953809D02*
X57790476Y6953809D01*
D11*
X58885716Y6953809D02*
X58885716Y7953809D01*
D11*
X59219048Y7953809D02*
X58552380Y7953809D01*
D11*
X59457144Y7239524D02*
X59457144Y7953809D01*
D11*
X59504760Y7096666D02*
X59457144Y7239524D01*
D11*
X59600000Y7001428D02*
X59504760Y7096666D01*
D11*
X59742856Y6953809D02*
X59600000Y7001428D01*
D11*
X59838096Y6953809D02*
X59742856Y6953809D01*
D11*
X59980952Y7001428D02*
X59838096Y6953809D01*
D11*
X60076192Y7096666D02*
X59980952Y7001428D01*
D11*
X60123808Y7239524D02*
X60076192Y7096666D01*
D11*
X60123808Y7953809D02*
X60123808Y7239524D01*
D11*
X60504760Y6953809D02*
X60504760Y7953809D01*
D11*
X60933332Y7953809D02*
X60504760Y7953809D01*
D11*
X61076192Y7906190D02*
X60933332Y7953809D01*
D11*
X61123808Y7858571D02*
X61076192Y7906190D01*
D11*
X61171428Y7763333D02*
X61123808Y7858571D01*
D11*
X61171428Y7668095D02*
X61171428Y7763333D01*
D11*
X61123808Y7572857D02*
X61171428Y7668095D01*
D11*
X61076192Y7525238D02*
X61123808Y7572857D01*
D11*
X60933332Y7477619D02*
X61076192Y7525238D01*
D11*
X60504760Y7477619D02*
X60933332Y7477619D01*
D11*
X61171428Y6953809D02*
X60838096Y7477619D01*
D11*
X61504760Y6953809D02*
X61504760Y7953809D01*
D11*
X62171428Y6953809D02*
X61504760Y7953809D01*
D11*
X62171428Y6953809D02*
X62171428Y7953809D01*
D10*
X15520000Y49330000D02*
X15320000Y49330000D01*
D10*
X15520000Y48530000D02*
X15320000Y48530000D01*
D11*
X15677143Y47885952D02*
X15724762Y47790716D01*
D11*
X15581905Y47981192D02*
X15677143Y47885952D01*
D11*
X15486667Y48028808D02*
X15581905Y47981192D01*
D11*
X15296190Y48028808D02*
X15486667Y48028808D01*
D11*
X15200952Y47981192D02*
X15296190Y48028808D01*
D11*
X15105714Y47885952D02*
X15200952Y47981192D01*
D11*
X15058095Y47790716D02*
X15105714Y47885952D01*
D11*
X15010476Y47647856D02*
X15058095Y47790716D01*
D11*
X15010476Y47409760D02*
X15010476Y47647856D01*
D11*
X15058095Y47266904D02*
X15010476Y47409760D01*
D11*
X15105714Y47171668D02*
X15058095Y47266904D01*
D11*
X15200952Y47076428D02*
X15105714Y47171668D01*
D11*
X15296190Y47028808D02*
X15200952Y47076428D01*
D11*
X15486667Y47028808D02*
X15296190Y47028808D01*
D11*
X15581905Y47076428D02*
X15486667Y47028808D01*
D11*
X15677143Y47171668D02*
X15581905Y47076428D01*
D11*
X15724762Y47266904D02*
X15677143Y47171668D01*
D11*
X16200952Y47028808D02*
X16677143Y48028808D01*
D11*
X16677143Y48028808D02*
X16010476Y48028808D01*
D10*
X46885000Y42940000D02*
X47435000Y42940000D01*
D10*
X48610000Y42665000D02*
X48610000Y41640000D01*
D10*
X45710000Y41640000D02*
X45710000Y42665000D01*
D10*
X46485000Y41640000D02*
X45710000Y41640000D01*
D10*
X48610000Y41640000D02*
X47835000Y41640000D01*
D11*
X49133808Y42023332D02*
X49086192Y42118572D01*
D11*
X49229048Y41928096D02*
X49133808Y42023332D01*
D11*
X49324284Y41880476D02*
X49229048Y41928096D01*
D11*
X49467144Y41832856D02*
X49324284Y41880476D01*
D11*
X49705240Y41832856D02*
X49467144Y41832856D01*
D11*
X49848096Y41880476D02*
X49705240Y41832856D01*
D11*
X49943332Y41928096D02*
X49848096Y41880476D01*
D11*
X50038572Y42023332D02*
X49943332Y41928096D01*
D11*
X50086192Y42118572D02*
X50038572Y42023332D01*
D11*
X50086192Y42309048D02*
X50086192Y42118572D01*
D11*
X50038572Y42404284D02*
X50086192Y42309048D01*
D11*
X49943332Y42499524D02*
X50038572Y42404284D01*
D11*
X49848096Y42547144D02*
X49943332Y42499524D01*
D11*
X49705240Y42594760D02*
X49848096Y42547144D01*
D11*
X49467144Y42594760D02*
X49705240Y42594760D01*
D11*
X49324284Y42547144D02*
X49467144Y42594760D01*
D11*
X49229048Y42499524D02*
X49324284Y42547144D01*
D11*
X49133808Y42404284D02*
X49229048Y42499524D01*
D11*
X49086192Y42309048D02*
X49133808Y42404284D01*
D11*
X49086192Y42118572D02*
X49086192Y42309048D01*
D11*
X50181428Y42547144D02*
X49895716Y42261428D01*
D11*
X49229048Y43118572D02*
X49276668Y43023332D01*
D11*
X49086192Y43261428D02*
X49229048Y43118572D01*
D11*
X50086192Y43261428D02*
X49086192Y43261428D01*
D10*
X51515000Y46915000D02*
X51515000Y47465000D01*
D10*
X52365000Y46915000D02*
X52365000Y47465000D01*
D11*
X50921192Y46000476D02*
X49921192Y46000476D01*
D11*
X49921192Y46429048D02*
X49921192Y46000476D01*
D11*
X49968808Y46571904D02*
X49921192Y46429048D01*
D11*
X50016428Y46619524D02*
X49968808Y46571904D01*
D11*
X50111668Y46667144D02*
X50016428Y46619524D01*
D11*
X50206904Y46667144D02*
X50111668Y46667144D01*
D11*
X50302144Y46619524D02*
X50206904Y46667144D01*
D11*
X50349760Y46571904D02*
X50302144Y46619524D01*
D11*
X50397380Y46429048D02*
X50349760Y46571904D01*
D11*
X50397380Y46000476D02*
X50397380Y46429048D01*
D11*
X50921192Y46667144D02*
X50397380Y46333808D01*
D11*
X50064048Y47190952D02*
X50111668Y47095716D01*
D11*
X49921192Y47333808D02*
X50064048Y47190952D01*
D11*
X50921192Y47333808D02*
X49921192Y47333808D01*
D11*
X50111668Y47952856D02*
X50159284Y47952856D01*
D11*
X50016428Y48000476D02*
X50111668Y47952856D01*
D11*
X49968808Y48048096D02*
X50016428Y48000476D01*
D11*
X49921192Y48143332D02*
X49968808Y48048096D01*
D11*
X49921192Y48333808D02*
X49921192Y48143332D01*
D11*
X49968808Y48429048D02*
X49921192Y48333808D01*
D11*
X50016428Y48476668D02*
X49968808Y48429048D01*
D11*
X50111668Y48524284D02*
X50016428Y48476668D01*
D11*
X50206904Y48524284D02*
X50111668Y48524284D01*
D11*
X50302144Y48476668D02*
X50206904Y48524284D01*
D11*
X50445000Y48381428D02*
X50302144Y48476668D01*
D11*
X50921192Y47905240D02*
X50445000Y48381428D01*
D11*
X50921192Y48571904D02*
X50921192Y47905240D01*
D10*
X15320000Y56330000D02*
X15520000Y56330000D01*
D10*
X15320000Y57130000D02*
X15520000Y57130000D01*
D11*
X14829524Y58535952D02*
X14877143Y58440716D01*
D11*
X14734286Y58631192D02*
X14829524Y58535952D01*
D11*
X14639048Y58678808D02*
X14734286Y58631192D01*
D11*
X14448571Y58678808D02*
X14639048Y58678808D01*
D11*
X14353333Y58631192D02*
X14448571Y58678808D01*
D11*
X14258095Y58535952D02*
X14353333Y58631192D01*
D11*
X14210476Y58440716D02*
X14258095Y58535952D01*
D11*
X14162857Y58297856D02*
X14210476Y58440716D01*
D11*
X14162857Y58059760D02*
X14162857Y58297856D01*
D11*
X14210476Y57916904D02*
X14162857Y58059760D01*
D11*
X14258095Y57821668D02*
X14210476Y57916904D01*
D11*
X14353333Y57726428D02*
X14258095Y57821668D01*
D11*
X14448571Y57678808D02*
X14353333Y57726428D01*
D11*
X14639048Y57678808D02*
X14448571Y57678808D01*
D11*
X14734286Y57726428D02*
X14639048Y57678808D01*
D11*
X14829524Y57821668D02*
X14734286Y57726428D01*
D11*
X14877143Y57916904D02*
X14829524Y57821668D01*
D11*
X15734286Y58631192D02*
X15781905Y58535952D01*
D11*
X15591428Y58678808D02*
X15734286Y58631192D01*
D11*
X15496190Y58678808D02*
X15591428Y58678808D01*
D11*
X15353333Y58631192D02*
X15496190Y58678808D01*
D11*
X15258095Y58488332D02*
X15353333Y58631192D01*
D11*
X15210476Y58250240D02*
X15258095Y58488332D01*
D11*
X15210476Y58012144D02*
X15210476Y58250240D01*
D11*
X15258095Y57821668D02*
X15210476Y58012144D01*
D11*
X15353333Y57726428D02*
X15258095Y57821668D01*
D11*
X15496190Y57678808D02*
X15353333Y57726428D01*
D11*
X15543810Y57678808D02*
X15496190Y57678808D01*
D11*
X15686667Y57726428D02*
X15543810Y57678808D01*
D11*
X15781905Y57821668D02*
X15686667Y57726428D01*
D11*
X15829524Y57964524D02*
X15781905Y57821668D01*
D11*
X15829524Y58012144D02*
X15829524Y57964524D01*
D11*
X15781905Y58155000D02*
X15829524Y58012144D01*
D11*
X15686667Y58250240D02*
X15781905Y58155000D01*
D11*
X15543810Y58297856D02*
X15686667Y58250240D01*
D11*
X15496190Y58297856D02*
X15543810Y58297856D01*
D11*
X15353333Y58250240D02*
X15496190Y58297856D01*
D11*
X15258095Y58155000D02*
X15353333Y58250240D01*
D11*
X15210476Y58012144D02*
X15258095Y58155000D01*
D10*
X37650000Y33180000D02*
X37650000Y33580000D01*
D10*
X34050000Y38180000D02*
X34050000Y39130000D01*
D10*
X37650000Y38180000D02*
X37650000Y39130000D01*
D10*
X37650000Y30130000D02*
X34050000Y30130000D01*
D10*
X34050000Y39130000D02*
X37650000Y39130000D01*
D10*
X34050000Y33180000D02*
X34050000Y33580000D01*
D10*
X37650000Y35680000D02*
X37650000Y36080000D01*
D10*
X34050000Y30130000D02*
X34050000Y31080000D01*
D10*
X34050000Y35680000D02*
X34050000Y36080000D01*
D10*
X37650000Y30130000D02*
X37650000Y31080000D01*
D11*
X31773810Y33944284D02*
X31869048Y34039524D01*
D11*
X31726190Y33801428D02*
X31773810Y33944284D01*
D11*
X31726190Y33610952D02*
X31726190Y33801428D01*
D11*
X31773810Y33468096D02*
X31726190Y33610952D01*
D11*
X31869048Y33372858D02*
X31773810Y33468096D01*
D11*
X31964286Y33372858D02*
X31869048Y33372858D01*
D11*
X32059524Y33420476D02*
X31964286Y33372858D01*
D11*
X32107142Y33468096D02*
X32059524Y33420476D01*
D11*
X32154762Y33563332D02*
X32107142Y33468096D01*
D11*
X32250000Y33849048D02*
X32154762Y33563332D01*
D11*
X32297620Y33944284D02*
X32250000Y33849048D01*
D11*
X32345238Y33991904D02*
X32297620Y33944284D01*
D11*
X32440476Y34039524D02*
X32345238Y33991904D01*
D11*
X32583334Y34039524D02*
X32440476Y34039524D01*
D11*
X32678572Y33944284D02*
X32583334Y34039524D01*
D11*
X32726190Y33801428D02*
X32678572Y33944284D01*
D11*
X32726190Y33610952D02*
X32726190Y33801428D01*
D11*
X32678572Y33468096D02*
X32726190Y33610952D01*
D11*
X32583334Y33372858D02*
X32678572Y33468096D01*
D11*
X32726190Y34515716D02*
X31726190Y34277620D01*
D11*
X32726190Y34515716D02*
X31726190Y34753808D01*
D11*
X32726190Y34991904D02*
X31726190Y34753808D01*
D11*
X32726190Y34991904D02*
X31726190Y35230000D01*
D11*
X31869048Y35706192D02*
X31916666Y35610952D01*
D11*
X31726190Y35849048D02*
X31869048Y35706192D01*
D11*
X32726190Y35849048D02*
X31726190Y35849048D01*
D10*
X7840000Y53155000D02*
X7840000Y53405000D01*
D10*
X9140000Y53155000D02*
X9140000Y53405000D01*
D11*
X6359047Y52639524D02*
X6454285Y52687144D01*
D11*
X6263809Y52544284D02*
X6359047Y52639524D01*
D11*
X6216190Y52449048D02*
X6263809Y52544284D01*
D11*
X6216190Y52258572D02*
X6216190Y52449048D01*
D11*
X6263809Y52163332D02*
X6216190Y52258572D01*
D11*
X6359047Y52068096D02*
X6263809Y52163332D01*
D11*
X6454285Y52020476D02*
X6359047Y52068096D01*
D11*
X6597143Y51972856D02*
X6454285Y52020476D01*
D11*
X6835238Y51972856D02*
X6597143Y51972856D01*
D11*
X6978095Y52020476D02*
X6835238Y51972856D01*
D11*
X7073333Y52068096D02*
X6978095Y52020476D01*
D11*
X7168571Y52163332D02*
X7073333Y52068096D01*
D11*
X7216190Y52258572D02*
X7168571Y52163332D01*
D11*
X7216190Y52449048D02*
X7216190Y52258572D01*
D11*
X7168571Y52544284D02*
X7216190Y52449048D01*
D11*
X7073333Y52639524D02*
X7168571Y52544284D01*
D11*
X6978095Y52687144D02*
X7073333Y52639524D01*
D11*
X6882857Y52972856D02*
X6216190Y53449048D01*
D11*
X6882857Y53687144D02*
X6882857Y52972856D01*
D11*
X7216190Y53449048D02*
X6216190Y53449048D01*
D10*
X25545000Y57070000D02*
X27295000Y57070000D01*
D10*
X27295000Y53670000D02*
X25545000Y53670000D01*
D10*
X27295000Y57070000D02*
X27295000Y53670000D01*
D10*
X25545000Y53670000D02*
X25545000Y57070000D01*
D11*
X25150952Y54472380D02*
X24350952Y54472380D01*
D11*
X24350952Y54739048D02*
X24350952Y54472380D01*
D11*
X24389048Y54853332D02*
X24350952Y54739048D01*
D11*
X24465238Y54929524D02*
X24389048Y54853332D01*
D11*
X24541428Y54967620D02*
X24465238Y54929524D01*
D11*
X24655714Y55005716D02*
X24541428Y54967620D01*
D11*
X24846190Y55005716D02*
X24655714Y55005716D01*
D11*
X24960476Y54967620D02*
X24846190Y55005716D01*
D11*
X25036666Y54929524D02*
X24960476Y54967620D01*
D11*
X25112858Y54853332D02*
X25036666Y54929524D01*
D11*
X25150952Y54739048D02*
X25112858Y54853332D01*
D11*
X25150952Y54472380D02*
X25150952Y54739048D01*
D11*
X24350952Y55729524D02*
X24350952Y55310476D01*
D11*
X24655714Y55500952D02*
X24350952Y55729524D01*
D11*
X24655714Y55615240D02*
X24655714Y55500952D01*
D11*
X24693810Y55691428D02*
X24655714Y55615240D01*
D11*
X24731904Y55729524D02*
X24693810Y55691428D01*
D11*
X24846190Y55767620D02*
X24731904Y55729524D01*
D11*
X24922380Y55767620D02*
X24846190Y55767620D01*
D11*
X25036666Y55729524D02*
X24922380Y55767620D01*
D11*
X25112858Y55653332D02*
X25036666Y55729524D01*
D11*
X25150952Y55539048D02*
X25112858Y55653332D01*
D11*
X25150952Y55424760D02*
X25150952Y55539048D01*
D11*
X25112858Y55310476D02*
X25150952Y55424760D01*
D11*
X25074762Y55272380D02*
X25112858Y55310476D01*
D11*
X24998572Y55234284D02*
X25074762Y55272380D01*
D10*
X9835000Y48145000D02*
X9285000Y48145000D01*
D10*
X9835000Y48995000D02*
X9285000Y48995000D01*
D11*
X9178095Y46598808D02*
X9178095Y47598808D01*
D11*
X9606667Y47598808D02*
X9178095Y47598808D01*
D11*
X9749524Y47551192D02*
X9606667Y47598808D01*
D11*
X9797143Y47503572D02*
X9749524Y47551192D01*
D11*
X9844762Y47408332D02*
X9797143Y47503572D01*
D11*
X9844762Y47313096D02*
X9844762Y47408332D01*
D11*
X9797143Y47217856D02*
X9844762Y47313096D01*
D11*
X9749524Y47170240D02*
X9797143Y47217856D01*
D11*
X9606667Y47122620D02*
X9749524Y47170240D01*
D11*
X9178095Y47122620D02*
X9606667Y47122620D01*
D11*
X9844762Y46598808D02*
X9511429Y47122620D01*
D11*
X10225714Y47598808D02*
X10701905Y47598808D01*
D11*
X10178095Y47170240D02*
X10225714Y47598808D01*
D11*
X10225714Y47217856D02*
X10178095Y47170240D01*
D11*
X10368571Y47265476D02*
X10225714Y47217856D01*
D11*
X10511429Y47265476D02*
X10368571Y47265476D01*
D11*
X10654286Y47217856D02*
X10511429Y47265476D01*
D11*
X10749524Y47122620D02*
X10654286Y47217856D01*
D11*
X10797143Y46979760D02*
X10749524Y47122620D01*
D11*
X10797143Y46884524D02*
X10797143Y46979760D01*
D11*
X10749524Y46741668D02*
X10797143Y46884524D01*
D11*
X10654286Y46646428D02*
X10749524Y46741668D01*
D11*
X10511429Y46598808D02*
X10654286Y46646428D01*
D11*
X10368571Y46598808D02*
X10511429Y46598808D01*
D11*
X10225714Y46646428D02*
X10368571Y46598808D01*
D11*
X10178095Y46694048D02*
X10225714Y46646428D01*
D11*
X10130476Y46789284D02*
X10178095Y46694048D01*
D10*
X9285000Y50825000D02*
X9835000Y50825000D01*
D10*
X9285000Y49975000D02*
X9835000Y49975000D01*
D11*
X8370476Y51418808D02*
X8370476Y52418808D01*
D11*
X8799048Y52418808D02*
X8370476Y52418808D01*
D11*
X8941905Y52371192D02*
X8799048Y52418808D01*
D11*
X8989524Y52323572D02*
X8941905Y52371192D01*
D11*
X9037143Y52228332D02*
X8989524Y52323572D01*
D11*
X9037143Y52133096D02*
X9037143Y52228332D01*
D11*
X8989524Y52037856D02*
X9037143Y52133096D01*
D11*
X8941905Y51990240D02*
X8989524Y52037856D01*
D11*
X8799048Y51942620D02*
X8941905Y51990240D01*
D11*
X8370476Y51942620D02*
X8799048Y51942620D01*
D11*
X9037143Y51418808D02*
X8703810Y51942620D01*
D11*
X9894286Y52371192D02*
X9941905Y52275952D01*
D11*
X9751428Y52418808D02*
X9894286Y52371192D01*
D11*
X9656190Y52418808D02*
X9751428Y52418808D01*
D11*
X9513333Y52371192D02*
X9656190Y52418808D01*
D11*
X9418095Y52228332D02*
X9513333Y52371192D01*
D11*
X9370476Y51990240D02*
X9418095Y52228332D01*
D11*
X9370476Y51752144D02*
X9370476Y51990240D01*
D11*
X9418095Y51561668D02*
X9370476Y51752144D01*
D11*
X9513333Y51466428D02*
X9418095Y51561668D01*
D11*
X9656190Y51418808D02*
X9513333Y51466428D01*
D11*
X9703810Y51418808D02*
X9656190Y51418808D01*
D11*
X9846667Y51466428D02*
X9703810Y51418808D01*
D11*
X9941905Y51561668D02*
X9846667Y51466428D01*
D11*
X9989524Y51704524D02*
X9941905Y51561668D01*
D11*
X9989524Y51752144D02*
X9989524Y51704524D01*
D11*
X9941905Y51895000D02*
X9989524Y51752144D01*
D11*
X9846667Y51990240D02*
X9941905Y51895000D01*
D11*
X9703810Y52037856D02*
X9846667Y51990240D01*
D11*
X9656190Y52037856D02*
X9703810Y52037856D01*
D11*
X9513333Y51990240D02*
X9656190Y52037856D01*
D11*
X9418095Y51895000D02*
X9513333Y51990240D01*
D11*
X9370476Y51752144D02*
X9418095Y51895000D01*
D10*
X27100000Y30210000D02*
X26600000Y30210000D01*
D10*
X25100000Y30210000D02*
X25600000Y30210000D01*
D11*
X25890476Y25179048D02*
X25890476Y25979048D01*
D11*
X26157142Y25979048D02*
X25890476Y25979048D01*
D11*
X26271428Y25940952D02*
X26157142Y25979048D01*
D11*
X26347620Y25864762D02*
X26271428Y25940952D01*
D11*
X26385714Y25788572D02*
X26347620Y25864762D01*
D11*
X26423810Y25674286D02*
X26385714Y25788572D01*
D11*
X26423810Y25483810D02*
X26423810Y25674286D01*
D11*
X26385714Y25369524D02*
X26423810Y25483810D01*
D11*
X26347620Y25293334D02*
X26385714Y25369524D01*
D11*
X26271428Y25217142D02*
X26347620Y25293334D01*
D11*
X26157142Y25179048D02*
X26271428Y25217142D01*
D11*
X25890476Y25179048D02*
X26157142Y25179048D01*
D11*
X26842858Y25864762D02*
X26766666Y25826666D01*
D11*
X26957142Y25979048D02*
X26842858Y25864762D01*
D11*
X26957142Y25179048D02*
X26957142Y25979048D01*
D10*
X19860000Y52820000D02*
X19860000Y52620000D01*
D10*
X20660000Y52820000D02*
X20660000Y52620000D01*
D11*
X21304048Y52977144D02*
X21399286Y53024760D01*
D11*
X21208810Y52881904D02*
X21304048Y52977144D01*
D11*
X21161190Y52786668D02*
X21208810Y52881904D01*
D11*
X21161190Y52596192D02*
X21161190Y52786668D01*
D11*
X21208810Y52500952D02*
X21161190Y52596192D01*
D11*
X21304048Y52405716D02*
X21208810Y52500952D01*
D11*
X21399286Y52358096D02*
X21304048Y52405716D01*
D11*
X21542142Y52310476D02*
X21399286Y52358096D01*
D11*
X21780238Y52310476D02*
X21542142Y52310476D01*
D11*
X21923096Y52358096D02*
X21780238Y52310476D01*
D11*
X22018334Y52405716D02*
X21923096Y52358096D01*
D11*
X22113572Y52500952D02*
X22018334Y52405716D01*
D11*
X22161190Y52596192D02*
X22113572Y52500952D01*
D11*
X22161190Y52786668D02*
X22161190Y52596192D01*
D11*
X22113572Y52881904D02*
X22161190Y52786668D01*
D11*
X22018334Y52977144D02*
X22113572Y52881904D01*
D11*
X21923096Y53024760D02*
X22018334Y52977144D01*
D11*
X21161190Y53929524D02*
X21161190Y53405716D01*
D11*
X21542142Y53643808D02*
X21161190Y53929524D01*
D11*
X21542142Y53786668D02*
X21542142Y53643808D01*
D11*
X21589762Y53881904D02*
X21542142Y53786668D01*
D11*
X21637380Y53929524D02*
X21589762Y53881904D01*
D11*
X21780238Y53977144D02*
X21637380Y53929524D01*
D11*
X21875476Y53977144D02*
X21780238Y53977144D01*
D11*
X22018334Y53929524D02*
X21875476Y53977144D01*
D11*
X22113572Y53834284D02*
X22018334Y53929524D01*
D11*
X22161190Y53691428D02*
X22113572Y53834284D01*
D11*
X22161190Y53548572D02*
X22161190Y53691428D01*
D11*
X22113572Y53405716D02*
X22161190Y53548572D01*
D11*
X22065952Y53358096D02*
X22113572Y53405716D01*
D11*
X21970714Y53310476D02*
X22065952Y53358096D01*
D10*
X31210002Y39360000D02*
X31010002Y39360000D01*
D10*
X31210002Y38560000D02*
X31010002Y38560000D01*
D11*
X30414764Y37915952D02*
X30462384Y37820716D01*
D11*
X30319526Y38011192D02*
X30414764Y37915952D01*
D11*
X30224288Y38058808D02*
X30319526Y38011192D01*
D11*
X30033812Y38058808D02*
X30224288Y38058808D01*
D11*
X29938574Y38011192D02*
X30033812Y38058808D01*
D11*
X29843336Y37915952D02*
X29938574Y38011192D01*
D11*
X29795716Y37820716D02*
X29843336Y37915952D01*
D11*
X29748098Y37677856D02*
X29795716Y37820716D01*
D11*
X29748098Y37439760D02*
X29748098Y37677856D01*
D11*
X29795716Y37296904D02*
X29748098Y37439760D01*
D11*
X29843336Y37201668D02*
X29795716Y37296904D01*
D11*
X29938574Y37106428D02*
X29843336Y37201668D01*
D11*
X30033812Y37058808D02*
X29938574Y37106428D01*
D11*
X30224288Y37058808D02*
X30033812Y37058808D01*
D11*
X30319526Y37106428D02*
X30224288Y37058808D01*
D11*
X30414764Y37201668D02*
X30319526Y37106428D01*
D11*
X30462384Y37296904D02*
X30414764Y37201668D01*
D11*
X30986192Y37915952D02*
X30890954Y37868332D01*
D11*
X31129050Y38058808D02*
X30986192Y37915952D01*
D11*
X31129050Y37058808D02*
X31129050Y38058808D01*
D11*
X31938574Y37915952D02*
X31843336Y37868332D01*
D11*
X32081430Y38058808D02*
X31938574Y37915952D01*
D11*
X32081430Y37058808D02*
X32081430Y38058808D01*
D10*
X37455000Y53670000D02*
X35705000Y53670000D01*
D10*
X35705000Y57070000D02*
X37455000Y57070000D01*
D10*
X35705000Y53670000D02*
X35705000Y57070000D01*
D10*
X37455000Y57070000D02*
X37455000Y53670000D01*
D11*
X38610952Y55010476D02*
X37810952Y55010476D01*
D11*
X37810952Y55277144D02*
X37810952Y55010476D01*
D11*
X37849048Y55391428D02*
X37810952Y55277144D01*
D11*
X37925240Y55467620D02*
X37849048Y55391428D01*
D11*
X38001428Y55505716D02*
X37925240Y55467620D01*
D11*
X38115716Y55543808D02*
X38001428Y55505716D01*
D11*
X38306192Y55543808D02*
X38115716Y55543808D01*
D11*
X38420476Y55505716D02*
X38306192Y55543808D01*
D11*
X38496668Y55467620D02*
X38420476Y55505716D01*
D11*
X38572856Y55391428D02*
X38496668Y55467620D01*
D11*
X38610952Y55277144D02*
X38572856Y55391428D01*
D11*
X38610952Y55010476D02*
X38610952Y55277144D01*
D11*
X37849048Y56229524D02*
X37925240Y56267620D01*
D11*
X37810952Y56115240D02*
X37849048Y56229524D01*
D11*
X37810952Y56039048D02*
X37810952Y56115240D01*
D11*
X37849048Y55924760D02*
X37810952Y56039048D01*
D11*
X37963332Y55848572D02*
X37849048Y55924760D01*
D11*
X38153808Y55810476D02*
X37963332Y55848572D01*
D11*
X38344284Y55810476D02*
X38153808Y55810476D01*
D11*
X38496668Y55848572D02*
X38344284Y55810476D01*
D11*
X38572856Y55924760D02*
X38496668Y55848572D01*
D11*
X38610952Y56039048D02*
X38572856Y55924760D01*
D11*
X38610952Y56077144D02*
X38610952Y56039048D01*
D11*
X38572856Y56191428D02*
X38610952Y56077144D01*
D11*
X38496668Y56267620D02*
X38572856Y56191428D01*
D11*
X38382380Y56305716D02*
X38496668Y56267620D01*
D11*
X38344284Y56305716D02*
X38382380Y56305716D01*
D11*
X38230000Y56267620D02*
X38344284Y56305716D01*
D11*
X38153808Y56191428D02*
X38230000Y56267620D01*
D11*
X38115716Y56077144D02*
X38153808Y56191428D01*
D11*
X38115716Y56039048D02*
X38115716Y56077144D01*
D11*
X38153808Y55924760D02*
X38115716Y56039048D01*
D11*
X38230000Y55848572D02*
X38153808Y55924760D01*
D11*
X38344284Y55810476D02*
X38230000Y55848572D01*
D10*
X10320000Y34780000D02*
X11170000Y35630000D01*
D10*
X11170000Y35630000D02*
X10320000Y34780000D01*
D10*
X11170000Y38230000D02*
X10320000Y39080000D01*
D10*
X11170000Y38230000D02*
X11170000Y37955000D01*
D10*
X6870000Y34780000D02*
X6870000Y35905000D01*
D10*
X6870000Y34780000D02*
X10320000Y34780000D01*
D10*
X10320000Y34780000D02*
X11170000Y35630000D01*
D10*
X6870000Y39080000D02*
X6870000Y37955000D01*
D10*
X11170000Y35630000D02*
X11170000Y35900000D01*
D10*
X11170000Y35630000D02*
X11170000Y35630000D01*
D10*
X10320000Y39080000D02*
X6870000Y39080000D01*
D11*
X9182143Y33825952D02*
X9229762Y33730716D01*
D11*
X9086905Y33921192D02*
X9182143Y33825952D01*
D11*
X8991667Y33968808D02*
X9086905Y33921192D01*
D11*
X8801190Y33968808D02*
X8991667Y33968808D01*
D11*
X8705952Y33921192D02*
X8801190Y33968808D01*
D11*
X8610714Y33825952D02*
X8705952Y33921192D01*
D11*
X8563095Y33730716D02*
X8610714Y33825952D01*
D11*
X8515476Y33587856D02*
X8563095Y33730716D01*
D11*
X8515476Y33349762D02*
X8515476Y33587856D01*
D11*
X8563095Y33206904D02*
X8515476Y33349762D01*
D11*
X8610714Y33111666D02*
X8563095Y33206904D01*
D11*
X8705952Y33016428D02*
X8610714Y33111666D01*
D11*
X8801190Y32968810D02*
X8705952Y33016428D01*
D11*
X8991667Y32968810D02*
X8801190Y32968810D01*
D11*
X9086905Y33016428D02*
X8991667Y32968810D01*
D11*
X9182143Y33111666D02*
X9086905Y33016428D01*
D11*
X9229762Y33206904D02*
X9182143Y33111666D01*
D11*
X9610714Y33921192D02*
X9753571Y33968808D01*
D11*
X9563095Y33825952D02*
X9610714Y33921192D01*
D11*
X9563095Y33730716D02*
X9563095Y33825952D01*
D11*
X9610714Y33635476D02*
X9563095Y33730716D01*
D11*
X9705952Y33587856D02*
X9610714Y33635476D01*
D11*
X9896429Y33540238D02*
X9705952Y33587856D01*
D11*
X10039286Y33492620D02*
X9896429Y33540238D01*
D11*
X10134524Y33397380D02*
X10039286Y33492620D01*
D11*
X10182143Y33302142D02*
X10134524Y33397380D01*
D11*
X10182143Y33159286D02*
X10182143Y33302142D01*
D11*
X10134524Y33064048D02*
X10182143Y33159286D01*
D11*
X10086905Y33016428D02*
X10134524Y33064048D01*
D11*
X9944048Y32968810D02*
X10086905Y33016428D01*
D11*
X9753571Y32968810D02*
X9944048Y32968810D01*
D11*
X9610714Y33016428D02*
X9753571Y32968810D01*
D11*
X9563095Y33064048D02*
X9610714Y33016428D01*
D11*
X9515476Y33159286D02*
X9563095Y33064048D01*
D11*
X9515476Y33302142D02*
X9515476Y33159286D01*
D11*
X9563095Y33397380D02*
X9515476Y33302142D01*
D11*
X9658333Y33492620D02*
X9563095Y33397380D01*
D11*
X9801190Y33540238D02*
X9658333Y33492620D01*
D11*
X9991667Y33587856D02*
X9801190Y33540238D01*
D11*
X10086905Y33635476D02*
X9991667Y33587856D01*
D11*
X10134524Y33730716D02*
X10086905Y33635476D01*
D11*
X10134524Y33825952D02*
X10134524Y33730716D01*
D11*
X10086905Y33921192D02*
X10134524Y33825952D01*
D11*
X9944048Y33968808D02*
X10086905Y33921192D01*
D11*
X9753571Y33968808D02*
X9944048Y33968808D01*
D10*
X11670000Y42605000D02*
X11670000Y42030000D01*
D10*
X10620000Y40980000D02*
X6370000Y40980000D01*
D10*
X11670000Y45230000D02*
X11670000Y44655000D01*
D10*
X6370000Y46280000D02*
X6370000Y44655000D01*
D10*
X11670000Y45230000D02*
X10620000Y46280000D01*
D10*
X11670000Y42030000D02*
X10620000Y40980000D01*
D10*
X10620000Y46280000D02*
X6370000Y46280000D01*
D10*
X6370000Y40980000D02*
X6370000Y42605000D01*
D11*
X9202143Y40010952D02*
X9249762Y39915716D01*
D11*
X9106905Y40106192D02*
X9202143Y40010952D01*
D11*
X9011667Y40153808D02*
X9106905Y40106192D01*
D11*
X8821190Y40153808D02*
X9011667Y40153808D01*
D11*
X8725952Y40106192D02*
X8821190Y40153808D01*
D11*
X8630714Y40010952D02*
X8725952Y40106192D01*
D11*
X8583095Y39915716D02*
X8630714Y40010952D01*
D11*
X8535476Y39772856D02*
X8583095Y39915716D01*
D11*
X8535476Y39534760D02*
X8535476Y39772856D01*
D11*
X8583095Y39391904D02*
X8535476Y39534760D01*
D11*
X8630714Y39296668D02*
X8583095Y39391904D01*
D11*
X8725952Y39201428D02*
X8630714Y39296668D01*
D11*
X8821190Y39153808D02*
X8725952Y39201428D01*
D11*
X9011667Y39153808D02*
X8821190Y39153808D01*
D11*
X9106905Y39201428D02*
X9011667Y39153808D01*
D11*
X9202143Y39296668D02*
X9106905Y39201428D01*
D11*
X9249762Y39391904D02*
X9202143Y39296668D01*
D11*
X10106905Y39677620D02*
X10154524Y39820476D01*
D11*
X10011667Y39582380D02*
X10106905Y39677620D01*
D11*
X9868810Y39534760D02*
X10011667Y39582380D01*
D11*
X9821190Y39534760D02*
X9868810Y39534760D01*
D11*
X9678333Y39582380D02*
X9821190Y39534760D01*
D11*
X9583095Y39677620D02*
X9678333Y39582380D01*
D11*
X9535476Y39820476D02*
X9583095Y39677620D01*
D11*
X9535476Y39868096D02*
X9535476Y39820476D01*
D11*
X9583095Y40010952D02*
X9535476Y39868096D01*
D11*
X9678333Y40106192D02*
X9583095Y40010952D01*
D11*
X9821190Y40153808D02*
X9678333Y40106192D01*
D11*
X9868810Y40153808D02*
X9821190Y40153808D01*
D11*
X10011667Y40106192D02*
X9868810Y40153808D01*
D11*
X10106905Y40010952D02*
X10011667Y40106192D01*
D11*
X10154524Y39820476D02*
X10106905Y40010952D01*
D11*
X10154524Y39582380D02*
X10154524Y39820476D01*
D11*
X10106905Y39344284D02*
X10154524Y39582380D01*
D11*
X10011667Y39201428D02*
X10106905Y39344284D01*
D11*
X9868810Y39153808D02*
X10011667Y39201428D01*
D11*
X9773571Y39153808D02*
X9868810Y39153808D01*
D11*
X9630714Y39201428D02*
X9773571Y39153808D01*
D11*
X9583095Y39296668D02*
X9630714Y39201428D01*
D10*
X1000000Y730000D02*
X1000000Y6480000D01*
D10*
X6000000Y730000D02*
X8400000Y730000D01*
D10*
X1000000Y730000D02*
X3400000Y730000D01*
D10*
X8400000Y6480000D02*
X8400000Y730000D01*
D10*
X1000000Y6480000D02*
X8400000Y6480000D01*
D11*
X3714285Y7906190D02*
X3809523Y7810952D01*
D11*
X3571428Y7953809D02*
X3714285Y7906190D01*
D11*
X3380952Y7953809D02*
X3571428Y7953809D01*
D11*
X3238095Y7906190D02*
X3380952Y7953809D01*
D11*
X3142857Y7810952D02*
X3238095Y7906190D01*
D11*
X3142857Y7715714D02*
X3142857Y7810952D01*
D11*
X3190476Y7620476D02*
X3142857Y7715714D01*
D11*
X3238095Y7572857D02*
X3190476Y7620476D01*
D11*
X3333333Y7525238D02*
X3238095Y7572857D01*
D11*
X3619047Y7430000D02*
X3333333Y7525238D01*
D11*
X3714285Y7382381D02*
X3619047Y7430000D01*
D11*
X3761904Y7334762D02*
X3714285Y7382381D01*
D11*
X3809523Y7239524D02*
X3761904Y7334762D01*
D11*
X3809523Y7096666D02*
X3809523Y7239524D01*
D11*
X3714285Y7001428D02*
X3809523Y7096666D01*
D11*
X3571428Y6953809D02*
X3714285Y7001428D01*
D11*
X3380952Y6953809D02*
X3571428Y6953809D01*
D11*
X3238095Y7001428D02*
X3380952Y6953809D01*
D11*
X3142857Y7096666D02*
X3238095Y7001428D01*
D11*
X4142857Y6953809D02*
X4142857Y7953809D01*
D11*
X4761905Y7953809D02*
X4142857Y7953809D01*
D11*
X4523809Y7477619D02*
X4142857Y7477619D01*
D11*
X4761905Y6953809D02*
X4142857Y6953809D01*
D11*
X5047619Y6953809D02*
X5047619Y7953809D01*
D11*
X5714286Y6953809D02*
X5047619Y7953809D01*
D11*
X5714286Y6953809D02*
X5714286Y7953809D01*
D11*
X6095238Y6953809D02*
X6095238Y7953809D01*
D11*
X6428571Y7953809D02*
X6095238Y7953809D01*
D11*
X6571428Y7906190D02*
X6428571Y7953809D01*
D11*
X6666666Y7810952D02*
X6571428Y7906190D01*
D11*
X6714286Y7715714D02*
X6666666Y7810952D01*
D11*
X6761905Y7572857D02*
X6714286Y7715714D01*
D11*
X6761905Y7334762D02*
X6761905Y7572857D01*
D11*
X6714286Y7191905D02*
X6761905Y7334762D01*
D11*
X6666666Y7096666D02*
X6714286Y7191905D01*
D11*
X6571428Y7001428D02*
X6666666Y7096666D01*
D11*
X6428571Y6953809D02*
X6571428Y7001428D01*
D11*
X6095238Y6953809D02*
X6428571Y6953809D01*
D10*
X6785000Y53705000D02*
X6785000Y53155000D01*
D10*
X5935000Y53705000D02*
X5935000Y53155000D01*
D11*
X8331190Y53048096D02*
X7331190Y53048096D01*
D11*
X7331190Y53476668D02*
X7331190Y53048096D01*
D11*
X7378809Y53619524D02*
X7331190Y53476668D01*
D11*
X7426428Y53667144D02*
X7378809Y53619524D01*
D11*
X7521666Y53714760D02*
X7426428Y53667144D01*
D11*
X7616905Y53714760D02*
X7521666Y53714760D01*
D11*
X7712143Y53667144D02*
X7616905Y53714760D01*
D11*
X7759762Y53619524D02*
X7712143Y53667144D01*
D11*
X7807381Y53476668D02*
X7759762Y53619524D01*
D11*
X7807381Y53048096D02*
X7807381Y53476668D01*
D11*
X8331190Y53714760D02*
X7807381Y53381428D01*
D11*
X7997857Y54000476D02*
X7331190Y54476668D01*
D11*
X7997857Y54714760D02*
X7997857Y54000476D01*
D11*
X8331190Y54476668D02*
X7331190Y54476668D01*
G75*
D10*
G03*
X31600000Y26910000D02*
X29600000Y26910000I-1000000J1500000D01*
D10*
G03*
X25100000Y30210000D02*
X27100000Y30210000I1000000J-1500000D01*
M02*
