%FSLAX46Y46*%
%MOMM*%
%AMPS10*
1,1,2.100000,0.000000,0.000000*
%
%ADD10PS10*%
%AMPS12*
1,1,1.600000,0.000000,0.000000*
%
%ADD12PS12*%
%AMPS16*
1,1,1.600000,0.000000,0.000000*
%
%ADD16PS16*%
%AMPS17*
1,1,1.600000,0.000000,0.000000*
%
%ADD17PS17*%
%AMPS11*
1,1,1.700000,0.000000,0.000000*
%
%ADD11PS11*%
%AMPS14*
1,1,2.200000,0.000000,0.000000*
%
%ADD14PS14*%
%AMPS15*
1,1,1.200000,0.000000,0.000000*
%
%ADD15PS15*%
%AMPS13*
1,1,1.200000,0.000000,0.000000*
%
%ADD13PS13*%
%AMPS20*
1,1,1.400000,0.000000,0.000000*
%
%ADD20PS20*%
%AMPS19*
1,1,0.700000,0.000000,0.000000*
%
%ADD19PS19*%
%AMPS21*
1,1,0.900000,0.000000,0.000000*
%
%ADD21PS21*%
%AMPS18*
1,1,0.700000,0.000000,0.000000*
%
%ADD18PS18*%
G01*
%LPD*%
G36*
X62640000Y360000D02*
X62640000Y71040000D01*
X360000Y71040000D01*
X360000Y360000D01*
X62640000Y360000D01*
D02*
G37*
%LPC*%
G36*
X4500000Y60674752D02*
X4376973Y60680798D01*
X4255108Y60698874D01*
X4135622Y60728803D01*
X4019640Y60770302D01*
X3908282Y60822970D01*
X3802623Y60886300D01*
X3703681Y60959681D01*
X3612406Y61042406D01*
X3529681Y61133681D01*
X3456300Y61232623D01*
X3392970Y61338282D01*
X3340302Y61449640D01*
X3298803Y61565622D01*
X3268874Y61685108D01*
X3250798Y61806973D01*
X3244752Y61930000D01*
X3250798Y62053027D01*
X3268874Y62174892D01*
X3298803Y62294378D01*
X3340302Y62410360D01*
X3392970Y62521718D01*
X3456300Y62627377D01*
X3529681Y62726319D01*
X3612406Y62817594D01*
X3703681Y62900319D01*
X3802623Y62973700D01*
X3908282Y63037030D01*
X4019640Y63089698D01*
X4135622Y63131197D01*
X4255108Y63161126D01*
X4376973Y63179202D01*
X4500000Y63185248D01*
X4623027Y63179202D01*
X4744892Y63161126D01*
X4864378Y63131197D01*
X4980360Y63089698D01*
X5091718Y63037030D01*
X5197377Y62973700D01*
X5296319Y62900319D01*
X5387594Y62817594D01*
X5470319Y62726319D01*
X5543700Y62627377D01*
X5607030Y62521718D01*
X5659698Y62410360D01*
X5701197Y62294378D01*
X5731126Y62174892D01*
X5749202Y62053027D01*
X5755248Y61930000D01*
X5749202Y61806973D01*
X5731126Y61685108D01*
X5701197Y61565622D01*
X5659698Y61449640D01*
X5607030Y61338282D01*
X5543700Y61232623D01*
X5470319Y61133681D01*
X5387594Y61042406D01*
X5296319Y60959681D01*
X5197377Y60886300D01*
X5091718Y60822970D01*
X4980360Y60770302D01*
X4864378Y60728803D01*
X4744892Y60698874D01*
X4623027Y60680798D01*
X4500000Y60674752D01*
D02*
G37*
%LPC*%
G36*
X9500000Y60674752D02*
X9376973Y60680798D01*
X9255108Y60698874D01*
X9135622Y60728803D01*
X9019640Y60770302D01*
X8908282Y60822970D01*
X8802623Y60886300D01*
X8703681Y60959681D01*
X8612406Y61042406D01*
X8529681Y61133681D01*
X8456300Y61232623D01*
X8392970Y61338282D01*
X8340302Y61449640D01*
X8298803Y61565622D01*
X8268874Y61685108D01*
X8250798Y61806973D01*
X8244752Y61930000D01*
X8250798Y62053027D01*
X8268874Y62174892D01*
X8298803Y62294378D01*
X8340302Y62410360D01*
X8392970Y62521718D01*
X8456300Y62627377D01*
X8529681Y62726319D01*
X8612406Y62817594D01*
X8703681Y62900319D01*
X8802623Y62973700D01*
X8908282Y63037030D01*
X9019640Y63089698D01*
X9135622Y63131197D01*
X9255108Y63161126D01*
X9376973Y63179202D01*
X9500000Y63185248D01*
X9623027Y63179202D01*
X9744892Y63161126D01*
X9864378Y63131197D01*
X9980360Y63089698D01*
X10091718Y63037030D01*
X10197377Y62973700D01*
X10296319Y62900319D01*
X10387594Y62817594D01*
X10470319Y62726319D01*
X10543700Y62627377D01*
X10607030Y62521718D01*
X10659698Y62410360D01*
X10701197Y62294378D01*
X10731126Y62174892D01*
X10749202Y62053027D01*
X10755248Y61930000D01*
X10749202Y61806973D01*
X10731126Y61685108D01*
X10701197Y61565622D01*
X10659698Y61449640D01*
X10607030Y61338282D01*
X10543700Y61232623D01*
X10470319Y61133681D01*
X10387594Y61042406D01*
X10296319Y60959681D01*
X10197377Y60886300D01*
X10091718Y60822970D01*
X9980360Y60770302D01*
X9864378Y60728803D01*
X9744892Y60698874D01*
X9623027Y60680798D01*
X9500000Y60674752D01*
D02*
G37*
%LPC*%
G36*
X14500000Y60674752D02*
X14376973Y60680798D01*
X14255108Y60698874D01*
X14135622Y60728803D01*
X14019640Y60770302D01*
X13908282Y60822970D01*
X13802623Y60886300D01*
X13703681Y60959681D01*
X13612406Y61042406D01*
X13529681Y61133681D01*
X13456300Y61232623D01*
X13392970Y61338282D01*
X13340302Y61449640D01*
X13298803Y61565622D01*
X13268874Y61685108D01*
X13250798Y61806973D01*
X13244752Y61930000D01*
X13250798Y62053027D01*
X13268874Y62174892D01*
X13298803Y62294378D01*
X13340302Y62410360D01*
X13392970Y62521718D01*
X13456300Y62627377D01*
X13529681Y62726319D01*
X13612406Y62817594D01*
X13703681Y62900319D01*
X13802623Y62973700D01*
X13908282Y63037030D01*
X14019640Y63089698D01*
X14135622Y63131197D01*
X14255108Y63161126D01*
X14376973Y63179202D01*
X14500000Y63185248D01*
X14623027Y63179202D01*
X14744892Y63161126D01*
X14864378Y63131197D01*
X14980360Y63089698D01*
X15091718Y63037030D01*
X15197377Y62973700D01*
X15296319Y62900319D01*
X15387594Y62817594D01*
X15470319Y62726319D01*
X15543700Y62627377D01*
X15607030Y62521718D01*
X15659698Y62410360D01*
X15701197Y62294378D01*
X15731126Y62174892D01*
X15749202Y62053027D01*
X15755248Y61930000D01*
X15749202Y61806973D01*
X15731126Y61685108D01*
X15701197Y61565622D01*
X15659698Y61449640D01*
X15607030Y61338282D01*
X15543700Y61232623D01*
X15470319Y61133681D01*
X15387594Y61042406D01*
X15296319Y60959681D01*
X15197377Y60886300D01*
X15091718Y60822970D01*
X14980360Y60770302D01*
X14864378Y60728803D01*
X14744892Y60698874D01*
X14623027Y60680798D01*
X14500000Y60674752D01*
D02*
G37*
%LPC*%
G36*
X48500000Y60674752D02*
X48376973Y60680798D01*
X48255108Y60698874D01*
X48135622Y60728803D01*
X48019640Y60770302D01*
X47908282Y60822970D01*
X47802623Y60886300D01*
X47703681Y60959681D01*
X47612406Y61042406D01*
X47529681Y61133681D01*
X47456300Y61232623D01*
X47392970Y61338282D01*
X47340302Y61449640D01*
X47298803Y61565622D01*
X47268874Y61685108D01*
X47250798Y61806973D01*
X47244752Y61930000D01*
X47250798Y62053027D01*
X47268874Y62174892D01*
X47298803Y62294378D01*
X47340302Y62410360D01*
X47392970Y62521718D01*
X47456300Y62627377D01*
X47529681Y62726319D01*
X47612406Y62817594D01*
X47703681Y62900319D01*
X47802623Y62973700D01*
X47908282Y63037030D01*
X48019640Y63089698D01*
X48135622Y63131197D01*
X48255108Y63161126D01*
X48376973Y63179202D01*
X48500000Y63185248D01*
X48623027Y63179202D01*
X48744892Y63161126D01*
X48864378Y63131197D01*
X48980360Y63089698D01*
X49091718Y63037030D01*
X49197377Y62973700D01*
X49296319Y62900319D01*
X49387594Y62817594D01*
X49470319Y62726319D01*
X49543700Y62627377D01*
X49607030Y62521718D01*
X49659698Y62410360D01*
X49701197Y62294378D01*
X49731126Y62174892D01*
X49749202Y62053027D01*
X49755248Y61930000D01*
X49749202Y61806973D01*
X49731126Y61685108D01*
X49701197Y61565622D01*
X49659698Y61449640D01*
X49607030Y61338282D01*
X49543700Y61232623D01*
X49470319Y61133681D01*
X49387594Y61042406D01*
X49296319Y60959681D01*
X49197377Y60886300D01*
X49091718Y60822970D01*
X48980360Y60770302D01*
X48864378Y60728803D01*
X48744892Y60698874D01*
X48623027Y60680798D01*
X48500000Y60674752D01*
D02*
G37*
%LPC*%
G36*
X53500000Y60674752D02*
X53376973Y60680798D01*
X53255108Y60698874D01*
X53135622Y60728803D01*
X53019640Y60770302D01*
X52908282Y60822970D01*
X52802623Y60886300D01*
X52703681Y60959681D01*
X52612406Y61042406D01*
X52529681Y61133681D01*
X52456300Y61232623D01*
X52392970Y61338282D01*
X52340302Y61449640D01*
X52298803Y61565622D01*
X52268874Y61685108D01*
X52250798Y61806973D01*
X52244752Y61930000D01*
X52250798Y62053027D01*
X52268874Y62174892D01*
X52298803Y62294378D01*
X52340302Y62410360D01*
X52392970Y62521718D01*
X52456300Y62627377D01*
X52529681Y62726319D01*
X52612406Y62817594D01*
X52703681Y62900319D01*
X52802623Y62973700D01*
X52908282Y63037030D01*
X53019640Y63089698D01*
X53135622Y63131197D01*
X53255108Y63161126D01*
X53376973Y63179202D01*
X53500000Y63185248D01*
X53623027Y63179202D01*
X53744892Y63161126D01*
X53864378Y63131197D01*
X53980360Y63089698D01*
X54091718Y63037030D01*
X54197377Y62973700D01*
X54296319Y62900319D01*
X54387594Y62817594D01*
X54470319Y62726319D01*
X54543700Y62627377D01*
X54607030Y62521718D01*
X54659698Y62410360D01*
X54701197Y62294378D01*
X54731126Y62174892D01*
X54749202Y62053027D01*
X54755248Y61930000D01*
X54749202Y61806973D01*
X54731126Y61685108D01*
X54701197Y61565622D01*
X54659698Y61449640D01*
X54607030Y61338282D01*
X54543700Y61232623D01*
X54470319Y61133681D01*
X54387594Y61042406D01*
X54296319Y60959681D01*
X54197377Y60886300D01*
X54091718Y60822970D01*
X53980360Y60770302D01*
X53864378Y60728803D01*
X53744892Y60698874D01*
X53623027Y60680798D01*
X53500000Y60674752D01*
D02*
G37*
%LPC*%
G36*
X44205000Y10825000D02*
X35195000Y10825000D01*
X35195000Y16625000D01*
X40595000Y16625000D01*
X40595000Y41825000D01*
X20795000Y41825000D01*
X20795000Y55035000D01*
X23405000Y55035000D01*
X23405000Y44635000D01*
X51205000Y44635000D01*
X51205000Y41825000D01*
X44205000Y41825000D01*
X44205000Y10825000D01*
D02*
G37*
%LPD*%
G36*
X44000000Y11030000D02*
X44000000Y42030000D01*
X51000000Y42030000D01*
X51000000Y44430000D01*
X23200000Y44430000D01*
X23200000Y54830000D01*
X21000000Y54830000D01*
X21000000Y42030000D01*
X40800000Y42030000D01*
X40800000Y16420000D01*
X35400000Y16420000D01*
X35400000Y11030000D01*
X44000000Y11030000D01*
D02*
G37*
%LPC*%
G36*
X14670000Y52814753D02*
X14605774Y52817909D01*
X14542167Y52827345D01*
X14479790Y52842968D01*
X14419243Y52864634D01*
X14361122Y52892123D01*
X14305966Y52925182D01*
X14254316Y52963488D01*
X14206670Y53006670D01*
X14163488Y53054316D01*
X14125182Y53105966D01*
X14092123Y53161122D01*
X14064634Y53219243D01*
X14042968Y53279790D01*
X14027345Y53342167D01*
X14017909Y53405774D01*
X14014753Y53470000D01*
X14017909Y53534226D01*
X14027345Y53597833D01*
X14042968Y53660210D01*
X14064634Y53720757D01*
X14092123Y53778878D01*
X14125182Y53834034D01*
X14163488Y53885684D01*
X14206670Y53933330D01*
X14254316Y53976512D01*
X14305966Y54014818D01*
X14361122Y54047877D01*
X14419243Y54075366D01*
X14479790Y54097032D01*
X14542167Y54112655D01*
X14605774Y54122091D01*
X14670000Y54125247D01*
X14734226Y54122091D01*
X14797833Y54112655D01*
X14860210Y54097032D01*
X14920757Y54075366D01*
X14978878Y54047877D01*
X15034034Y54014818D01*
X15085684Y53976512D01*
X15133330Y53933330D01*
X15176512Y53885684D01*
X15214818Y53834034D01*
X15247877Y53778878D01*
X15275366Y53720757D01*
X15297032Y53660210D01*
X15312655Y53597833D01*
X15322091Y53534226D01*
X15325247Y53470000D01*
X15322091Y53405774D01*
X15312655Y53342167D01*
X15297032Y53279790D01*
X15275366Y53219243D01*
X15247877Y53161122D01*
X15214818Y53105966D01*
X15176512Y53054316D01*
X15133330Y53006670D01*
X15085684Y52963488D01*
X15034034Y52925182D01*
X14978878Y52892123D01*
X14920757Y52864634D01*
X14860210Y52842968D01*
X14797833Y52827345D01*
X14734226Y52817909D01*
X14670000Y52814753D01*
D02*
G37*
%LPC*%
G36*
X26420000Y52024752D02*
X26341077Y52028631D01*
X26262906Y52040225D01*
X26186244Y52059429D01*
X26111851Y52086047D01*
X26040406Y52119838D01*
X25972630Y52160461D01*
X25909157Y52207536D01*
X25850604Y52260604D01*
X25797536Y52319157D01*
X25750461Y52382630D01*
X25709838Y52450406D01*
X25676047Y52521851D01*
X25649429Y52596244D01*
X25630225Y52672906D01*
X25618631Y52751077D01*
X25614752Y52830000D01*
X25618631Y52908923D01*
X25630225Y52987094D01*
X25649429Y53063756D01*
X25676047Y53138149D01*
X25709838Y53209594D01*
X25750461Y53277370D01*
X25797536Y53340843D01*
X25850604Y53399396D01*
X25909157Y53452464D01*
X25972630Y53499539D01*
X26040406Y53540162D01*
X26111851Y53573953D01*
X26186244Y53600571D01*
X26262906Y53619775D01*
X26341077Y53631369D01*
X26420000Y53635248D01*
X26498923Y53631369D01*
X26577094Y53619775D01*
X26653756Y53600571D01*
X26728149Y53573953D01*
X26799594Y53540162D01*
X26867370Y53499539D01*
X26930843Y53452464D01*
X26989396Y53399396D01*
X27042464Y53340843D01*
X27089539Y53277370D01*
X27130162Y53209594D01*
X27163953Y53138149D01*
X27190571Y53063756D01*
X27209775Y52987094D01*
X27221369Y52908923D01*
X27225248Y52830000D01*
X27221369Y52751077D01*
X27209775Y52672906D01*
X27190571Y52596244D01*
X27163953Y52521851D01*
X27130162Y52450406D01*
X27089539Y52382630D01*
X27042464Y52319157D01*
X26989396Y52260604D01*
X26930843Y52207536D01*
X26867370Y52160461D01*
X26799594Y52119838D01*
X26728149Y52086047D01*
X26653756Y52059429D01*
X26577094Y52040225D01*
X26498923Y52028631D01*
X26420000Y52024752D01*
D02*
G37*
%LPC*%
G36*
X29220000Y52024752D02*
X29141077Y52028631D01*
X29062906Y52040225D01*
X28986244Y52059429D01*
X28911851Y52086047D01*
X28840406Y52119838D01*
X28772630Y52160461D01*
X28709157Y52207536D01*
X28650604Y52260604D01*
X28597536Y52319157D01*
X28550461Y52382630D01*
X28509838Y52450406D01*
X28476047Y52521851D01*
X28449429Y52596244D01*
X28430225Y52672906D01*
X28418631Y52751077D01*
X28414752Y52830000D01*
X28418631Y52908923D01*
X28430225Y52987094D01*
X28449429Y53063756D01*
X28476047Y53138149D01*
X28509838Y53209594D01*
X28550461Y53277370D01*
X28597536Y53340843D01*
X28650604Y53399396D01*
X28709157Y53452464D01*
X28772630Y53499539D01*
X28840406Y53540162D01*
X28911851Y53573953D01*
X28986244Y53600571D01*
X29062906Y53619775D01*
X29141077Y53631369D01*
X29220000Y53635248D01*
X29298923Y53631369D01*
X29377094Y53619775D01*
X29453756Y53600571D01*
X29528149Y53573953D01*
X29599594Y53540162D01*
X29667370Y53499539D01*
X29730843Y53452464D01*
X29789396Y53399396D01*
X29842464Y53340843D01*
X29889539Y53277370D01*
X29930162Y53209594D01*
X29963953Y53138149D01*
X29990571Y53063756D01*
X30009775Y52987094D01*
X30021369Y52908923D01*
X30025248Y52830000D01*
X30021369Y52751077D01*
X30009775Y52672906D01*
X29990571Y52596244D01*
X29963953Y52521851D01*
X29930162Y52450406D01*
X29889539Y52382630D01*
X29842464Y52319157D01*
X29789396Y52260604D01*
X29730843Y52207536D01*
X29667370Y52160461D01*
X29599594Y52119838D01*
X29528149Y52086047D01*
X29453756Y52059429D01*
X29377094Y52040225D01*
X29298923Y52028631D01*
X29220000Y52024752D01*
D02*
G37*
%LPC*%
G36*
X33780000Y52024752D02*
X33701077Y52028631D01*
X33622906Y52040225D01*
X33546244Y52059429D01*
X33471851Y52086047D01*
X33400406Y52119838D01*
X33332630Y52160461D01*
X33269157Y52207536D01*
X33210604Y52260604D01*
X33157536Y52319157D01*
X33110461Y52382630D01*
X33069838Y52450406D01*
X33036047Y52521851D01*
X33009429Y52596244D01*
X32990225Y52672906D01*
X32978631Y52751077D01*
X32974752Y52830000D01*
X32978631Y52908923D01*
X32990225Y52987094D01*
X33009429Y53063756D01*
X33036047Y53138149D01*
X33069838Y53209594D01*
X33110461Y53277370D01*
X33157536Y53340843D01*
X33210604Y53399396D01*
X33269157Y53452464D01*
X33332630Y53499539D01*
X33400406Y53540162D01*
X33471851Y53573953D01*
X33546244Y53600571D01*
X33622906Y53619775D01*
X33701077Y53631369D01*
X33780000Y53635248D01*
X33858923Y53631369D01*
X33937094Y53619775D01*
X34013756Y53600571D01*
X34088149Y53573953D01*
X34159594Y53540162D01*
X34227370Y53499539D01*
X34290843Y53452464D01*
X34349396Y53399396D01*
X34402464Y53340843D01*
X34449539Y53277370D01*
X34490162Y53209594D01*
X34523953Y53138149D01*
X34550571Y53063756D01*
X34569775Y52987094D01*
X34581369Y52908923D01*
X34585248Y52830000D01*
X34581369Y52751077D01*
X34569775Y52672906D01*
X34550571Y52596244D01*
X34523953Y52521851D01*
X34490162Y52450406D01*
X34449539Y52382630D01*
X34402464Y52319157D01*
X34349396Y52260604D01*
X34290843Y52207536D01*
X34227370Y52160461D01*
X34159594Y52119838D01*
X34088149Y52086047D01*
X34013756Y52059429D01*
X33937094Y52040225D01*
X33858923Y52028631D01*
X33780000Y52024752D01*
D02*
G37*
%LPC*%
G36*
X36580000Y52024752D02*
X36501077Y52028631D01*
X36422906Y52040225D01*
X36346244Y52059429D01*
X36271851Y52086047D01*
X36200406Y52119838D01*
X36132630Y52160461D01*
X36069157Y52207536D01*
X36010604Y52260604D01*
X35957536Y52319157D01*
X35910461Y52382630D01*
X35869838Y52450406D01*
X35836047Y52521851D01*
X35809429Y52596244D01*
X35790225Y52672906D01*
X35778631Y52751077D01*
X35774752Y52830000D01*
X35778631Y52908923D01*
X35790225Y52987094D01*
X35809429Y53063756D01*
X35836047Y53138149D01*
X35869838Y53209594D01*
X35910461Y53277370D01*
X35957536Y53340843D01*
X36010604Y53399396D01*
X36069157Y53452464D01*
X36132630Y53499539D01*
X36200406Y53540162D01*
X36271851Y53573953D01*
X36346244Y53600571D01*
X36422906Y53619775D01*
X36501077Y53631369D01*
X36580000Y53635248D01*
X36658923Y53631369D01*
X36737094Y53619775D01*
X36813756Y53600571D01*
X36888149Y53573953D01*
X36959594Y53540162D01*
X37027370Y53499539D01*
X37090843Y53452464D01*
X37149396Y53399396D01*
X37202464Y53340843D01*
X37249539Y53277370D01*
X37290162Y53209594D01*
X37323953Y53138149D01*
X37350571Y53063756D01*
X37369775Y52987094D01*
X37381369Y52908923D01*
X37385248Y52830000D01*
X37381369Y52751077D01*
X37369775Y52672906D01*
X37350571Y52596244D01*
X37323953Y52521851D01*
X37290162Y52450406D01*
X37249539Y52382630D01*
X37202464Y52319157D01*
X37149396Y52260604D01*
X37090843Y52207536D01*
X37027370Y52160461D01*
X36959594Y52119838D01*
X36888149Y52086047D01*
X36813756Y52059429D01*
X36737094Y52040225D01*
X36658923Y52028631D01*
X36580000Y52024752D01*
D02*
G37*
%LPC*%
G36*
X16170000Y51534753D02*
X16105774Y51537909D01*
X16042167Y51547345D01*
X15979790Y51562968D01*
X15919243Y51584634D01*
X15861122Y51612123D01*
X15805966Y51645182D01*
X15754316Y51683488D01*
X15706670Y51726670D01*
X15663488Y51774316D01*
X15625182Y51825966D01*
X15592123Y51881122D01*
X15564634Y51939243D01*
X15542968Y51999790D01*
X15527345Y52062167D01*
X15517909Y52125774D01*
X15514753Y52190000D01*
X15517909Y52254226D01*
X15527345Y52317833D01*
X15542968Y52380210D01*
X15564634Y52440757D01*
X15592123Y52498878D01*
X15625182Y52554034D01*
X15663488Y52605684D01*
X15706670Y52653330D01*
X15754316Y52696512D01*
X15805966Y52734818D01*
X15861122Y52767877D01*
X15919243Y52795366D01*
X15979790Y52817032D01*
X16042167Y52832655D01*
X16105774Y52842091D01*
X16170000Y52845247D01*
X16234226Y52842091D01*
X16297833Y52832655D01*
X16360210Y52817032D01*
X16420757Y52795366D01*
X16478878Y52767877D01*
X16534034Y52734818D01*
X16585684Y52696512D01*
X16633330Y52653330D01*
X16676512Y52605684D01*
X16714818Y52554034D01*
X16747877Y52498878D01*
X16775366Y52440757D01*
X16797032Y52380210D01*
X16812655Y52317833D01*
X16822091Y52254226D01*
X16825247Y52190000D01*
X16822091Y52125774D01*
X16812655Y52062167D01*
X16797032Y51999790D01*
X16775366Y51939243D01*
X16747877Y51881122D01*
X16714818Y51825966D01*
X16676512Y51774316D01*
X16633330Y51726670D01*
X16585684Y51683488D01*
X16534034Y51645182D01*
X16478878Y51612123D01*
X16420757Y51584634D01*
X16360210Y51562968D01*
X16297833Y51547345D01*
X16234226Y51537909D01*
X16170000Y51534753D01*
D02*
G37*
%LPC*%
G36*
X26420000Y46624753D02*
X26292063Y46631039D01*
X26165352Y46649835D01*
X26041107Y46680956D01*
X25920506Y46724108D01*
X25804712Y46778874D01*
X25694844Y46844727D01*
X25591961Y46921031D01*
X25497051Y47007051D01*
X25411031Y47101961D01*
X25334727Y47204844D01*
X25268874Y47314712D01*
X25214108Y47430506D01*
X25170956Y47551107D01*
X25139835Y47675352D01*
X25121039Y47802063D01*
X25114753Y47930000D01*
X25121039Y48057937D01*
X25139835Y48184648D01*
X25170956Y48308893D01*
X25214108Y48429494D01*
X25268874Y48545288D01*
X25334727Y48655156D01*
X25411031Y48758039D01*
X25497051Y48852949D01*
X25591961Y48938969D01*
X25694844Y49015273D01*
X25804712Y49081126D01*
X25920506Y49135892D01*
X26041107Y49179044D01*
X26165352Y49210165D01*
X26292063Y49228961D01*
X26420000Y49235247D01*
X26547937Y49228961D01*
X26674648Y49210165D01*
X26798893Y49179044D01*
X26919494Y49135892D01*
X27035288Y49081126D01*
X27145156Y49015273D01*
X27248039Y48938969D01*
X27342949Y48852949D01*
X27428969Y48758039D01*
X27505273Y48655156D01*
X27571126Y48545288D01*
X27625892Y48429494D01*
X27669044Y48308893D01*
X27700165Y48184648D01*
X27718961Y48057937D01*
X27725247Y47930000D01*
X27718961Y47802063D01*
X27700165Y47675352D01*
X27669044Y47551107D01*
X27625892Y47430506D01*
X27571126Y47314712D01*
X27505273Y47204844D01*
X27428969Y47101961D01*
X27342949Y47007051D01*
X27248039Y46921031D01*
X27145156Y46844727D01*
X27035288Y46778874D01*
X26919494Y46724108D01*
X26798893Y46680956D01*
X26674648Y46649835D01*
X26547937Y46631039D01*
X26420000Y46624753D01*
D02*
G37*
%LPC*%
G36*
X31500000Y46624753D02*
X31372063Y46631039D01*
X31245352Y46649835D01*
X31121107Y46680956D01*
X31000506Y46724108D01*
X30884712Y46778874D01*
X30774844Y46844727D01*
X30671961Y46921031D01*
X30577051Y47007051D01*
X30491031Y47101961D01*
X30414727Y47204844D01*
X30348874Y47314712D01*
X30294108Y47430506D01*
X30250956Y47551107D01*
X30219835Y47675352D01*
X30201039Y47802063D01*
X30194753Y47930000D01*
X30201039Y48057937D01*
X30219835Y48184648D01*
X30250956Y48308893D01*
X30294108Y48429494D01*
X30348874Y48545288D01*
X30414727Y48655156D01*
X30491031Y48758039D01*
X30577051Y48852949D01*
X30671961Y48938969D01*
X30774844Y49015273D01*
X30884712Y49081126D01*
X31000506Y49135892D01*
X31121107Y49179044D01*
X31245352Y49210165D01*
X31372063Y49228961D01*
X31500000Y49235247D01*
X31627937Y49228961D01*
X31754648Y49210165D01*
X31878893Y49179044D01*
X31999494Y49135892D01*
X32115288Y49081126D01*
X32225156Y49015273D01*
X32328039Y48938969D01*
X32422949Y48852949D01*
X32508969Y48758039D01*
X32585273Y48655156D01*
X32651126Y48545288D01*
X32705892Y48429494D01*
X32749044Y48308893D01*
X32780165Y48184648D01*
X32798961Y48057937D01*
X32805247Y47930000D01*
X32798961Y47802063D01*
X32780165Y47675352D01*
X32749044Y47551107D01*
X32705892Y47430506D01*
X32651126Y47314712D01*
X32585273Y47204844D01*
X32508969Y47101961D01*
X32422949Y47007051D01*
X32328039Y46921031D01*
X32225156Y46844727D01*
X32115288Y46778874D01*
X31999494Y46724108D01*
X31878893Y46680956D01*
X31754648Y46649835D01*
X31627937Y46631039D01*
X31500000Y46624753D01*
D02*
G37*
%LPC*%
G36*
X36580000Y46624753D02*
X36452063Y46631039D01*
X36325352Y46649835D01*
X36201107Y46680956D01*
X36080506Y46724108D01*
X35964712Y46778874D01*
X35854844Y46844727D01*
X35751961Y46921031D01*
X35657051Y47007051D01*
X35571031Y47101961D01*
X35494727Y47204844D01*
X35428874Y47314712D01*
X35374108Y47430506D01*
X35330956Y47551107D01*
X35299835Y47675352D01*
X35281039Y47802063D01*
X35274753Y47930000D01*
X35281039Y48057937D01*
X35299835Y48184648D01*
X35330956Y48308893D01*
X35374108Y48429494D01*
X35428874Y48545288D01*
X35494727Y48655156D01*
X35571031Y48758039D01*
X35657051Y48852949D01*
X35751961Y48938969D01*
X35854844Y49015273D01*
X35964712Y49081126D01*
X36080506Y49135892D01*
X36201107Y49179044D01*
X36325352Y49210165D01*
X36452063Y49228961D01*
X36580000Y49235247D01*
X36707937Y49228961D01*
X36834648Y49210165D01*
X36958893Y49179044D01*
X37079494Y49135892D01*
X37195288Y49081126D01*
X37305156Y49015273D01*
X37408039Y48938969D01*
X37502949Y48852949D01*
X37588969Y48758039D01*
X37665273Y48655156D01*
X37731126Y48545288D01*
X37785892Y48429494D01*
X37829044Y48308893D01*
X37860165Y48184648D01*
X37878961Y48057937D01*
X37885247Y47930000D01*
X37878961Y47802063D01*
X37860165Y47675352D01*
X37829044Y47551107D01*
X37785892Y47430506D01*
X37731126Y47314712D01*
X37665273Y47204844D01*
X37588969Y47101961D01*
X37502949Y47007051D01*
X37408039Y46921031D01*
X37305156Y46844727D01*
X37195288Y46778874D01*
X37079494Y46724108D01*
X36958893Y46680956D01*
X36834648Y46649835D01*
X36707937Y46631039D01*
X36580000Y46624753D01*
D02*
G37*
%LPC*%
G36*
X27205000Y10825000D02*
X17395000Y10825000D01*
X17395000Y38325000D01*
X8595000Y38325000D01*
X8595000Y48535000D01*
X13405000Y48535000D01*
X13405000Y40805000D01*
X21005000Y40805000D01*
X21005000Y16635000D01*
X27205000Y16635000D01*
X27205000Y10825000D01*
D02*
G37*
%LPD*%
G36*
X27000000Y11030000D02*
X27000000Y16430000D01*
X20800000Y16430000D01*
X20800000Y40600000D01*
X13200000Y40600000D01*
X13200000Y48330000D01*
X8800000Y48330000D01*
X8800000Y38530000D01*
X17600000Y38530000D01*
X17600000Y11030000D01*
X27000000Y11030000D01*
D02*
G37*
%LPC*%
G36*
X34200000Y36124752D02*
X34101475Y36129594D01*
X34003884Y36144069D01*
X33908193Y36168038D01*
X33815304Y36201275D01*
X33726140Y36243445D01*
X33641512Y36294170D01*
X33562277Y36352935D01*
X33489183Y36419183D01*
X33422935Y36492277D01*
X33364170Y36571512D01*
X33313445Y36656140D01*
X33271275Y36745304D01*
X33238038Y36838193D01*
X33214069Y36933884D01*
X33199594Y37031475D01*
X33194752Y37130000D01*
X33199594Y37228525D01*
X33214069Y37326116D01*
X33238038Y37421807D01*
X33271275Y37514696D01*
X33313445Y37603860D01*
X33364170Y37688488D01*
X33422935Y37767723D01*
X33489183Y37840817D01*
X33562277Y37907065D01*
X33641512Y37965830D01*
X33726140Y38016555D01*
X33815304Y38058725D01*
X33908193Y38091962D01*
X34003884Y38115931D01*
X34101475Y38130406D01*
X34200000Y38135248D01*
X34298525Y38130406D01*
X34396116Y38115931D01*
X34491807Y38091962D01*
X34584696Y38058725D01*
X34673860Y38016555D01*
X34758488Y37965830D01*
X34837723Y37907065D01*
X34910817Y37840817D01*
X34977065Y37767723D01*
X35035830Y37688488D01*
X35086555Y37603860D01*
X35128725Y37514696D01*
X35161962Y37421807D01*
X35185931Y37326116D01*
X35200406Y37228525D01*
X35205248Y37130000D01*
X35200406Y37031475D01*
X35185931Y36933884D01*
X35161962Y36838193D01*
X35128725Y36745304D01*
X35086555Y36656140D01*
X35035830Y36571512D01*
X34977065Y36492277D01*
X34910817Y36419183D01*
X34837723Y36352935D01*
X34758488Y36294170D01*
X34673860Y36243445D01*
X34584696Y36201275D01*
X34491807Y36168038D01*
X34396116Y36144069D01*
X34298525Y36129594D01*
X34200000Y36124752D01*
D02*
G37*
%LPC*%
G36*
X34200000Y33624752D02*
X34101475Y33629594D01*
X34003884Y33644069D01*
X33908193Y33668038D01*
X33815304Y33701275D01*
X33726140Y33743445D01*
X33641512Y33794170D01*
X33562277Y33852935D01*
X33489183Y33919183D01*
X33422935Y33992277D01*
X33364170Y34071512D01*
X33313445Y34156140D01*
X33271275Y34245304D01*
X33238038Y34338193D01*
X33214069Y34433884D01*
X33199594Y34531475D01*
X33194752Y34630000D01*
X33199594Y34728525D01*
X33214069Y34826116D01*
X33238038Y34921807D01*
X33271275Y35014696D01*
X33313445Y35103860D01*
X33364170Y35188488D01*
X33422935Y35267723D01*
X33489183Y35340817D01*
X33562277Y35407065D01*
X33641512Y35465830D01*
X33726140Y35516555D01*
X33815304Y35558725D01*
X33908193Y35591962D01*
X34003884Y35615931D01*
X34101475Y35630406D01*
X34200000Y35635248D01*
X34298525Y35630406D01*
X34396116Y35615931D01*
X34491807Y35591962D01*
X34584696Y35558725D01*
X34673860Y35516555D01*
X34758488Y35465830D01*
X34837723Y35407065D01*
X34910817Y35340817D01*
X34977065Y35267723D01*
X35035830Y35188488D01*
X35086555Y35103860D01*
X35128725Y35014696D01*
X35161962Y34921807D01*
X35185931Y34826116D01*
X35200406Y34728525D01*
X35205248Y34630000D01*
X35200406Y34531475D01*
X35185931Y34433884D01*
X35161962Y34338193D01*
X35128725Y34245304D01*
X35086555Y34156140D01*
X35035830Y34071512D01*
X34977065Y33992277D01*
X34910817Y33919183D01*
X34837723Y33852935D01*
X34758488Y33794170D01*
X34673860Y33743445D01*
X34584696Y33701275D01*
X34491807Y33668038D01*
X34396116Y33644069D01*
X34298525Y33629594D01*
X34200000Y33624752D01*
D02*
G37*
%LPC*%
G36*
X4500000Y30674752D02*
X4376973Y30680798D01*
X4255108Y30698874D01*
X4135622Y30728803D01*
X4019640Y30770302D01*
X3908282Y30822970D01*
X3802623Y30886300D01*
X3703681Y30959681D01*
X3612406Y31042406D01*
X3529681Y31133681D01*
X3456300Y31232623D01*
X3392970Y31338282D01*
X3340302Y31449640D01*
X3298803Y31565622D01*
X3268874Y31685108D01*
X3250798Y31806973D01*
X3244752Y31930000D01*
X3250798Y32053027D01*
X3268874Y32174892D01*
X3298803Y32294378D01*
X3340302Y32410360D01*
X3392970Y32521718D01*
X3456300Y32627377D01*
X3529681Y32726319D01*
X3612406Y32817594D01*
X3703681Y32900319D01*
X3802623Y32973700D01*
X3908282Y33037030D01*
X4019640Y33089698D01*
X4135622Y33131197D01*
X4255108Y33161126D01*
X4376973Y33179202D01*
X4500000Y33185248D01*
X4623027Y33179202D01*
X4744892Y33161126D01*
X4864378Y33131197D01*
X4980360Y33089698D01*
X5091718Y33037030D01*
X5197377Y32973700D01*
X5296319Y32900319D01*
X5387594Y32817594D01*
X5470319Y32726319D01*
X5543700Y32627377D01*
X5607030Y32521718D01*
X5659698Y32410360D01*
X5701197Y32294378D01*
X5731126Y32174892D01*
X5749202Y32053027D01*
X5755248Y31930000D01*
X5749202Y31806973D01*
X5731126Y31685108D01*
X5701197Y31565622D01*
X5659698Y31449640D01*
X5607030Y31338282D01*
X5543700Y31232623D01*
X5470319Y31133681D01*
X5387594Y31042406D01*
X5296319Y30959681D01*
X5197377Y30886300D01*
X5091718Y30822970D01*
X4980360Y30770302D01*
X4864378Y30728803D01*
X4744892Y30698874D01*
X4623027Y30680798D01*
X4500000Y30674752D01*
D02*
G37*
%LPC*%
G36*
X9500000Y30674752D02*
X9376973Y30680798D01*
X9255108Y30698874D01*
X9135622Y30728803D01*
X9019640Y30770302D01*
X8908282Y30822970D01*
X8802623Y30886300D01*
X8703681Y30959681D01*
X8612406Y31042406D01*
X8529681Y31133681D01*
X8456300Y31232623D01*
X8392970Y31338282D01*
X8340302Y31449640D01*
X8298803Y31565622D01*
X8268874Y31685108D01*
X8250798Y31806973D01*
X8244752Y31930000D01*
X8250798Y32053027D01*
X8268874Y32174892D01*
X8298803Y32294378D01*
X8340302Y32410360D01*
X8392970Y32521718D01*
X8456300Y32627377D01*
X8529681Y32726319D01*
X8612406Y32817594D01*
X8703681Y32900319D01*
X8802623Y32973700D01*
X8908282Y33037030D01*
X9019640Y33089698D01*
X9135622Y33131197D01*
X9255108Y33161126D01*
X9376973Y33179202D01*
X9500000Y33185248D01*
X9623027Y33179202D01*
X9744892Y33161126D01*
X9864378Y33131197D01*
X9980360Y33089698D01*
X10091718Y33037030D01*
X10197377Y32973700D01*
X10296319Y32900319D01*
X10387594Y32817594D01*
X10470319Y32726319D01*
X10543700Y32627377D01*
X10607030Y32521718D01*
X10659698Y32410360D01*
X10701197Y32294378D01*
X10731126Y32174892D01*
X10749202Y32053027D01*
X10755248Y31930000D01*
X10749202Y31806973D01*
X10731126Y31685108D01*
X10701197Y31565622D01*
X10659698Y31449640D01*
X10607030Y31338282D01*
X10543700Y31232623D01*
X10470319Y31133681D01*
X10387594Y31042406D01*
X10296319Y30959681D01*
X10197377Y30886300D01*
X10091718Y30822970D01*
X9980360Y30770302D01*
X9864378Y30728803D01*
X9744892Y30698874D01*
X9623027Y30680798D01*
X9500000Y30674752D01*
D02*
G37*
%LPC*%
G36*
X14500000Y30674752D02*
X14376973Y30680798D01*
X14255108Y30698874D01*
X14135622Y30728803D01*
X14019640Y30770302D01*
X13908282Y30822970D01*
X13802623Y30886300D01*
X13703681Y30959681D01*
X13612406Y31042406D01*
X13529681Y31133681D01*
X13456300Y31232623D01*
X13392970Y31338282D01*
X13340302Y31449640D01*
X13298803Y31565622D01*
X13268874Y31685108D01*
X13250798Y31806973D01*
X13244752Y31930000D01*
X13250798Y32053027D01*
X13268874Y32174892D01*
X13298803Y32294378D01*
X13340302Y32410360D01*
X13392970Y32521718D01*
X13456300Y32627377D01*
X13529681Y32726319D01*
X13612406Y32817594D01*
X13703681Y32900319D01*
X13802623Y32973700D01*
X13908282Y33037030D01*
X14019640Y33089698D01*
X14135622Y33131197D01*
X14255108Y33161126D01*
X14376973Y33179202D01*
X14500000Y33185248D01*
X14623027Y33179202D01*
X14744892Y33161126D01*
X14864378Y33131197D01*
X14980360Y33089698D01*
X15091718Y33037030D01*
X15197377Y32973700D01*
X15296319Y32900319D01*
X15387594Y32817594D01*
X15470319Y32726319D01*
X15543700Y32627377D01*
X15607030Y32521718D01*
X15659698Y32410360D01*
X15701197Y32294378D01*
X15731126Y32174892D01*
X15749202Y32053027D01*
X15755248Y31930000D01*
X15749202Y31806973D01*
X15731126Y31685108D01*
X15701197Y31565622D01*
X15659698Y31449640D01*
X15607030Y31338282D01*
X15543700Y31232623D01*
X15470319Y31133681D01*
X15387594Y31042406D01*
X15296319Y30959681D01*
X15197377Y30886300D01*
X15091718Y30822970D01*
X14980360Y30770302D01*
X14864378Y30728803D01*
X14744892Y30698874D01*
X14623027Y30680798D01*
X14500000Y30674752D01*
D02*
G37*
%LPC*%
G36*
X48500000Y30674752D02*
X48376973Y30680798D01*
X48255108Y30698874D01*
X48135622Y30728803D01*
X48019640Y30770302D01*
X47908282Y30822970D01*
X47802623Y30886300D01*
X47703681Y30959681D01*
X47612406Y31042406D01*
X47529681Y31133681D01*
X47456300Y31232623D01*
X47392970Y31338282D01*
X47340302Y31449640D01*
X47298803Y31565622D01*
X47268874Y31685108D01*
X47250798Y31806973D01*
X47244752Y31930000D01*
X47250798Y32053027D01*
X47268874Y32174892D01*
X47298803Y32294378D01*
X47340302Y32410360D01*
X47392970Y32521718D01*
X47456300Y32627377D01*
X47529681Y32726319D01*
X47612406Y32817594D01*
X47703681Y32900319D01*
X47802623Y32973700D01*
X47908282Y33037030D01*
X48019640Y33089698D01*
X48135622Y33131197D01*
X48255108Y33161126D01*
X48376973Y33179202D01*
X48500000Y33185248D01*
X48623027Y33179202D01*
X48744892Y33161126D01*
X48864378Y33131197D01*
X48980360Y33089698D01*
X49091718Y33037030D01*
X49197377Y32973700D01*
X49296319Y32900319D01*
X49387594Y32817594D01*
X49470319Y32726319D01*
X49543700Y32627377D01*
X49607030Y32521718D01*
X49659698Y32410360D01*
X49701197Y32294378D01*
X49731126Y32174892D01*
X49749202Y32053027D01*
X49755248Y31930000D01*
X49749202Y31806973D01*
X49731126Y31685108D01*
X49701197Y31565622D01*
X49659698Y31449640D01*
X49607030Y31338282D01*
X49543700Y31232623D01*
X49470319Y31133681D01*
X49387594Y31042406D01*
X49296319Y30959681D01*
X49197377Y30886300D01*
X49091718Y30822970D01*
X48980360Y30770302D01*
X48864378Y30728803D01*
X48744892Y30698874D01*
X48623027Y30680798D01*
X48500000Y30674752D01*
D02*
G37*
%LPC*%
G36*
X53500000Y30674752D02*
X53376973Y30680798D01*
X53255108Y30698874D01*
X53135622Y30728803D01*
X53019640Y30770302D01*
X52908282Y30822970D01*
X52802623Y30886300D01*
X52703681Y30959681D01*
X52612406Y31042406D01*
X52529681Y31133681D01*
X52456300Y31232623D01*
X52392970Y31338282D01*
X52340302Y31449640D01*
X52298803Y31565622D01*
X52268874Y31685108D01*
X52250798Y31806973D01*
X52244752Y31930000D01*
X52250798Y32053027D01*
X52268874Y32174892D01*
X52298803Y32294378D01*
X52340302Y32410360D01*
X52392970Y32521718D01*
X52456300Y32627377D01*
X52529681Y32726319D01*
X52612406Y32817594D01*
X52703681Y32900319D01*
X52802623Y32973700D01*
X52908282Y33037030D01*
X53019640Y33089698D01*
X53135622Y33131197D01*
X53255108Y33161126D01*
X53376973Y33179202D01*
X53500000Y33185248D01*
X53623027Y33179202D01*
X53744892Y33161126D01*
X53864378Y33131197D01*
X53980360Y33089698D01*
X54091718Y33037030D01*
X54197377Y32973700D01*
X54296319Y32900319D01*
X54387594Y32817594D01*
X54470319Y32726319D01*
X54543700Y32627377D01*
X54607030Y32521718D01*
X54659698Y32410360D01*
X54701197Y32294378D01*
X54731126Y32174892D01*
X54749202Y32053027D01*
X54755248Y31930000D01*
X54749202Y31806973D01*
X54731126Y31685108D01*
X54701197Y31565622D01*
X54659698Y31449640D01*
X54607030Y31338282D01*
X54543700Y31232623D01*
X54470319Y31133681D01*
X54387594Y31042406D01*
X54296319Y30959681D01*
X54197377Y30886300D01*
X54091718Y30822970D01*
X53980360Y30770302D01*
X53864378Y30728803D01*
X53744892Y30698874D01*
X53623027Y30680798D01*
X53500000Y30674752D01*
D02*
G37*
%LPC*%
G36*
X58500000Y30674752D02*
X58376973Y30680798D01*
X58255108Y30698874D01*
X58135622Y30728803D01*
X58019640Y30770302D01*
X57908282Y30822970D01*
X57802623Y30886300D01*
X57703681Y30959681D01*
X57612406Y31042406D01*
X57529681Y31133681D01*
X57456300Y31232623D01*
X57392970Y31338282D01*
X57340302Y31449640D01*
X57298803Y31565622D01*
X57268874Y31685108D01*
X57250798Y31806973D01*
X57244752Y31930000D01*
X57250798Y32053027D01*
X57268874Y32174892D01*
X57298803Y32294378D01*
X57340302Y32410360D01*
X57392970Y32521718D01*
X57456300Y32627377D01*
X57529681Y32726319D01*
X57612406Y32817594D01*
X57703681Y32900319D01*
X57802623Y32973700D01*
X57908282Y33037030D01*
X58019640Y33089698D01*
X58135622Y33131197D01*
X58255108Y33161126D01*
X58376973Y33179202D01*
X58500000Y33185248D01*
X58623027Y33179202D01*
X58744892Y33161126D01*
X58864378Y33131197D01*
X58980360Y33089698D01*
X59091718Y33037030D01*
X59197377Y32973700D01*
X59296319Y32900319D01*
X59387594Y32817594D01*
X59470319Y32726319D01*
X59543700Y32627377D01*
X59607030Y32521718D01*
X59659698Y32410360D01*
X59701197Y32294378D01*
X59731126Y32174892D01*
X59749202Y32053027D01*
X59755248Y31930000D01*
X59749202Y31806973D01*
X59731126Y31685108D01*
X59701197Y31565622D01*
X59659698Y31449640D01*
X59607030Y31338282D01*
X59543700Y31232623D01*
X59470319Y31133681D01*
X59387594Y31042406D01*
X59296319Y30959681D01*
X59197377Y30886300D01*
X59091718Y30822970D01*
X58980360Y30770302D01*
X58864378Y30728803D01*
X58744892Y30698874D01*
X58623027Y30680798D01*
X58500000Y30674752D01*
D02*
G37*
%LPC*%
G36*
X34200000Y31124752D02*
X34101475Y31129594D01*
X34003884Y31144069D01*
X33908193Y31168038D01*
X33815304Y31201275D01*
X33726140Y31243445D01*
X33641512Y31294170D01*
X33562277Y31352935D01*
X33489183Y31419183D01*
X33422935Y31492277D01*
X33364170Y31571512D01*
X33313445Y31656140D01*
X33271275Y31745304D01*
X33238038Y31838193D01*
X33214069Y31933884D01*
X33199594Y32031475D01*
X33194752Y32130000D01*
X33199594Y32228525D01*
X33214069Y32326116D01*
X33238038Y32421807D01*
X33271275Y32514696D01*
X33313445Y32603860D01*
X33364170Y32688488D01*
X33422935Y32767723D01*
X33489183Y32840817D01*
X33562277Y32907065D01*
X33641512Y32965830D01*
X33726140Y33016555D01*
X33815304Y33058725D01*
X33908193Y33091962D01*
X34003884Y33115931D01*
X34101475Y33130406D01*
X34200000Y33135248D01*
X34298525Y33130406D01*
X34396116Y33115931D01*
X34491807Y33091962D01*
X34584696Y33058725D01*
X34673860Y33016555D01*
X34758488Y32965830D01*
X34837723Y32907065D01*
X34910817Y32840817D01*
X34977065Y32767723D01*
X35035830Y32688488D01*
X35086555Y32603860D01*
X35128725Y32514696D01*
X35161962Y32421807D01*
X35185931Y32326116D01*
X35200406Y32228525D01*
X35205248Y32130000D01*
X35200406Y32031475D01*
X35185931Y31933884D01*
X35161962Y31838193D01*
X35128725Y31745304D01*
X35086555Y31656140D01*
X35035830Y31571512D01*
X34977065Y31492277D01*
X34910817Y31419183D01*
X34837723Y31352935D01*
X34758488Y31294170D01*
X34673860Y31243445D01*
X34584696Y31201275D01*
X34491807Y31168038D01*
X34396116Y31144069D01*
X34298525Y31129594D01*
X34200000Y31124752D01*
D02*
G37*
%LPC*%
G36*
X26100000Y28824752D02*
X26001475Y28829594D01*
X25903884Y28844069D01*
X25808193Y28868038D01*
X25715304Y28901275D01*
X25626140Y28943445D01*
X25541512Y28994170D01*
X25462277Y29052935D01*
X25389183Y29119183D01*
X25322935Y29192277D01*
X25264170Y29271512D01*
X25213445Y29356140D01*
X25171275Y29445304D01*
X25138038Y29538193D01*
X25114069Y29633884D01*
X25099594Y29731475D01*
X25094752Y29830000D01*
X25099594Y29928525D01*
X25114069Y30026116D01*
X25138038Y30121807D01*
X25171275Y30214696D01*
X25213445Y30303860D01*
X25264170Y30388488D01*
X25322935Y30467723D01*
X25389183Y30540817D01*
X25462277Y30607065D01*
X25541512Y30665830D01*
X25626140Y30716555D01*
X25715304Y30758725D01*
X25808193Y30791962D01*
X25903884Y30815931D01*
X26001475Y30830406D01*
X26100000Y30835248D01*
X26198525Y30830406D01*
X26296116Y30815931D01*
X26391807Y30791962D01*
X26484696Y30758725D01*
X26573860Y30716555D01*
X26658488Y30665830D01*
X26737723Y30607065D01*
X26810817Y30540817D01*
X26877065Y30467723D01*
X26935830Y30388488D01*
X26986555Y30303860D01*
X27028725Y30214696D01*
X27061962Y30121807D01*
X27085931Y30026116D01*
X27100406Y29928525D01*
X27105248Y29830000D01*
X27100406Y29731475D01*
X27085931Y29633884D01*
X27061962Y29538193D01*
X27028725Y29445304D01*
X26986555Y29356140D01*
X26935830Y29271512D01*
X26877065Y29192277D01*
X26810817Y29119183D01*
X26737723Y29052935D01*
X26658488Y28994170D01*
X26573860Y28943445D01*
X26484696Y28901275D01*
X26391807Y28868038D01*
X26296116Y28844069D01*
X26198525Y28829594D01*
X26100000Y28824752D01*
D02*
G37*
%LPC*%
G36*
X30600000Y28824752D02*
X30501475Y28829594D01*
X30403884Y28844069D01*
X30308193Y28868038D01*
X30215304Y28901275D01*
X30126140Y28943445D01*
X30041512Y28994170D01*
X29962277Y29052935D01*
X29889183Y29119183D01*
X29822935Y29192277D01*
X29764170Y29271512D01*
X29713445Y29356140D01*
X29671275Y29445304D01*
X29638038Y29538193D01*
X29614069Y29633884D01*
X29599594Y29731475D01*
X29594752Y29830000D01*
X29599594Y29928525D01*
X29614069Y30026116D01*
X29638038Y30121807D01*
X29671275Y30214696D01*
X29713445Y30303860D01*
X29764170Y30388488D01*
X29822935Y30467723D01*
X29889183Y30540817D01*
X29962277Y30607065D01*
X30041512Y30665830D01*
X30126140Y30716555D01*
X30215304Y30758725D01*
X30308193Y30791962D01*
X30403884Y30815931D01*
X30501475Y30830406D01*
X30600000Y30835248D01*
X30698525Y30830406D01*
X30796116Y30815931D01*
X30891807Y30791962D01*
X30984696Y30758725D01*
X31073860Y30716555D01*
X31158488Y30665830D01*
X31237723Y30607065D01*
X31310817Y30540817D01*
X31377065Y30467723D01*
X31435830Y30388488D01*
X31486555Y30303860D01*
X31528725Y30214696D01*
X31561962Y30121807D01*
X31585931Y30026116D01*
X31600406Y29928525D01*
X31605248Y29830000D01*
X31600406Y29731475D01*
X31585931Y29633884D01*
X31561962Y29538193D01*
X31528725Y29445304D01*
X31486555Y29356140D01*
X31435830Y29271512D01*
X31377065Y29192277D01*
X31310817Y29119183D01*
X31237723Y29052935D01*
X31158488Y28994170D01*
X31073860Y28943445D01*
X30984696Y28901275D01*
X30891807Y28868038D01*
X30796116Y28844069D01*
X30698525Y28829594D01*
X30600000Y28824752D01*
D02*
G37*
%LPC*%
G36*
X5950000Y2024753D02*
X5846567Y2029835D01*
X5744127Y2045031D01*
X5643680Y2070191D01*
X5546180Y2105078D01*
X5452554Y2149358D01*
X5363742Y2202591D01*
X5280556Y2264286D01*
X5203828Y2333828D01*
X5134286Y2410556D01*
X5072591Y2493742D01*
X5019358Y2582554D01*
X4975078Y2676180D01*
X4940191Y2773680D01*
X4915031Y2874127D01*
X4899835Y2976567D01*
X4894753Y3080000D01*
X4899835Y3183433D01*
X4915031Y3285873D01*
X4940191Y3386320D01*
X4975078Y3483820D01*
X5019358Y3577446D01*
X5072591Y3666258D01*
X5134286Y3749444D01*
X5203828Y3826172D01*
X5280556Y3895714D01*
X5363742Y3957409D01*
X5452554Y4010642D01*
X5546180Y4054922D01*
X5643680Y4089809D01*
X5744127Y4114969D01*
X5846567Y4130165D01*
X5950000Y4135247D01*
X6053433Y4130165D01*
X6155873Y4114969D01*
X6256320Y4089809D01*
X6353820Y4054922D01*
X6447446Y4010642D01*
X6536258Y3957409D01*
X6619444Y3895714D01*
X6696172Y3826172D01*
X6765714Y3749444D01*
X6827409Y3666258D01*
X6880642Y3577446D01*
X6924922Y3483820D01*
X6959809Y3386320D01*
X6984969Y3285873D01*
X7000165Y3183433D01*
X7005247Y3080000D01*
X7000165Y2976567D01*
X6984969Y2874127D01*
X6959809Y2773680D01*
X6924922Y2676180D01*
X6880642Y2582554D01*
X6827409Y2493742D01*
X6765714Y2410556D01*
X6696172Y2333828D01*
X6619444Y2264286D01*
X6536258Y2202591D01*
X6447446Y2149358D01*
X6353820Y2105078D01*
X6256320Y2070191D01*
X6155873Y2045031D01*
X6053433Y2029835D01*
X5950000Y2024753D01*
D02*
G37*
%LPC*%
G36*
X30250000Y2024753D02*
X30146567Y2029835D01*
X30044127Y2045031D01*
X29943680Y2070191D01*
X29846180Y2105078D01*
X29752554Y2149358D01*
X29663742Y2202591D01*
X29580556Y2264286D01*
X29503828Y2333828D01*
X29434286Y2410556D01*
X29372591Y2493742D01*
X29319358Y2582554D01*
X29275078Y2676180D01*
X29240191Y2773680D01*
X29215031Y2874127D01*
X29199835Y2976567D01*
X29194753Y3080000D01*
X29199835Y3183433D01*
X29215031Y3285873D01*
X29240191Y3386320D01*
X29275078Y3483820D01*
X29319358Y3577446D01*
X29372591Y3666258D01*
X29434286Y3749444D01*
X29503828Y3826172D01*
X29580556Y3895714D01*
X29663742Y3957409D01*
X29752554Y4010642D01*
X29846180Y4054922D01*
X29943680Y4089809D01*
X30044127Y4114969D01*
X30146567Y4130165D01*
X30250000Y4135247D01*
X30353433Y4130165D01*
X30455873Y4114969D01*
X30556320Y4089809D01*
X30653820Y4054922D01*
X30747446Y4010642D01*
X30836258Y3957409D01*
X30919444Y3895714D01*
X30996172Y3826172D01*
X31065714Y3749444D01*
X31127409Y3666258D01*
X31180642Y3577446D01*
X31224922Y3483820D01*
X31259809Y3386320D01*
X31284969Y3285873D01*
X31300165Y3183433D01*
X31305247Y3080000D01*
X31300165Y2976567D01*
X31284969Y2874127D01*
X31259809Y2773680D01*
X31224922Y2676180D01*
X31180642Y2582554D01*
X31127409Y2493742D01*
X31065714Y2410556D01*
X30996172Y2333828D01*
X30919444Y2264286D01*
X30836258Y2202591D01*
X30747446Y2149358D01*
X30653820Y2105078D01*
X30556320Y2070191D01*
X30455873Y2045031D01*
X30353433Y2029835D01*
X30250000Y2024753D01*
D02*
G37*
%LPC*%
G36*
X35250000Y2024753D02*
X35146567Y2029835D01*
X35044127Y2045031D01*
X34943680Y2070191D01*
X34846180Y2105078D01*
X34752554Y2149358D01*
X34663742Y2202591D01*
X34580556Y2264286D01*
X34503828Y2333828D01*
X34434286Y2410556D01*
X34372591Y2493742D01*
X34319358Y2582554D01*
X34275078Y2676180D01*
X34240191Y2773680D01*
X34215031Y2874127D01*
X34199835Y2976567D01*
X34194753Y3080000D01*
X34199835Y3183433D01*
X34215031Y3285873D01*
X34240191Y3386320D01*
X34275078Y3483820D01*
X34319358Y3577446D01*
X34372591Y3666258D01*
X34434286Y3749444D01*
X34503828Y3826172D01*
X34580556Y3895714D01*
X34663742Y3957409D01*
X34752554Y4010642D01*
X34846180Y4054922D01*
X34943680Y4089809D01*
X35044127Y4114969D01*
X35146567Y4130165D01*
X35250000Y4135247D01*
X35353433Y4130165D01*
X35455873Y4114969D01*
X35556320Y4089809D01*
X35653820Y4054922D01*
X35747446Y4010642D01*
X35836258Y3957409D01*
X35919444Y3895714D01*
X35996172Y3826172D01*
X36065714Y3749444D01*
X36127409Y3666258D01*
X36180642Y3577446D01*
X36224922Y3483820D01*
X36259809Y3386320D01*
X36284969Y3285873D01*
X36300165Y3183433D01*
X36305247Y3080000D01*
X36300165Y2976567D01*
X36284969Y2874127D01*
X36259809Y2773680D01*
X36224922Y2676180D01*
X36180642Y2582554D01*
X36127409Y2493742D01*
X36065714Y2410556D01*
X35996172Y2333828D01*
X35919444Y2264286D01*
X35836258Y2202591D01*
X35747446Y2149358D01*
X35653820Y2105078D01*
X35556320Y2070191D01*
X35455873Y2045031D01*
X35353433Y2029835D01*
X35250000Y2024753D01*
D02*
G37*
%LPC*%
G36*
X59550000Y2024753D02*
X59446567Y2029835D01*
X59344127Y2045031D01*
X59243680Y2070191D01*
X59146180Y2105078D01*
X59052554Y2149358D01*
X58963742Y2202591D01*
X58880556Y2264286D01*
X58803828Y2333828D01*
X58734286Y2410556D01*
X58672591Y2493742D01*
X58619358Y2582554D01*
X58575078Y2676180D01*
X58540191Y2773680D01*
X58515031Y2874127D01*
X58499835Y2976567D01*
X58494753Y3080000D01*
X58499835Y3183433D01*
X58515031Y3285873D01*
X58540191Y3386320D01*
X58575078Y3483820D01*
X58619358Y3577446D01*
X58672591Y3666258D01*
X58734286Y3749444D01*
X58803828Y3826172D01*
X58880556Y3895714D01*
X58963742Y3957409D01*
X59052554Y4010642D01*
X59146180Y4054922D01*
X59243680Y4089809D01*
X59344127Y4114969D01*
X59446567Y4130165D01*
X59550000Y4135247D01*
X59653433Y4130165D01*
X59755873Y4114969D01*
X59856320Y4089809D01*
X59953820Y4054922D01*
X60047446Y4010642D01*
X60136258Y3957409D01*
X60219444Y3895714D01*
X60296172Y3826172D01*
X60365714Y3749444D01*
X60427409Y3666258D01*
X60480642Y3577446D01*
X60524922Y3483820D01*
X60559809Y3386320D01*
X60584969Y3285873D01*
X60600165Y3183433D01*
X60605247Y3080000D01*
X60600165Y2976567D01*
X60584969Y2874127D01*
X60559809Y2773680D01*
X60524922Y2676180D01*
X60480642Y2582554D01*
X60427409Y2493742D01*
X60365714Y2410556D01*
X60296172Y2333828D01*
X60219444Y2264286D01*
X60136258Y2202591D01*
X60047446Y2149358D01*
X59953820Y2105078D01*
X59856320Y2070191D01*
X59755873Y2045031D01*
X59653433Y2029835D01*
X59550000Y2024753D01*
D02*
G37*
%LPD*%
G01*
%LPD*%
G75*
D10*
X4500000Y31930000D03*
D10*
X14500000Y31930000D03*
D10*
X9500000Y31930000D03*
D10*
X4500000Y61930000D03*
D10*
X14500000Y61930000D03*
D10*
X9500000Y61930000D03*
D10*
X48500000Y31930000D03*
D10*
X58500000Y31930000D03*
D10*
X53500000Y31930000D03*
D11*
X32750000Y3080000D03*
D11*
X35250000Y3080000D03*
D11*
X30250000Y3080000D03*
D11*
X27750000Y3080000D03*
D12*
X30600000Y27290000D03*
D12*
X30600000Y29830000D03*
D13*
X29220000Y57910000D03*
D13*
X29220000Y52830000D03*
D14*
X31500000Y47930000D03*
D14*
X36580000Y47930000D03*
D14*
X26420000Y47930000D03*
D15*
X33780000Y52830000D03*
D15*
X33780000Y57910000D03*
D11*
X57050000Y3080000D03*
D11*
X59550000Y3080000D03*
D10*
X48500000Y61930000D03*
D10*
X58500000Y61930000D03*
D10*
X53500000Y61930000D03*
D16*
X37500000Y32130000D03*
D16*
X34200000Y34630000D03*
D16*
X34200000Y37130000D03*
D16*
X34200000Y32130000D03*
D16*
X37500000Y34630000D03*
D16*
X37500000Y37130000D03*
D15*
X26420000Y52830000D03*
D15*
X26420000Y57910000D03*
D17*
X26100000Y29830000D03*
D17*
X26100000Y27290000D03*
D13*
X36580000Y57910000D03*
D13*
X36580000Y52830000D03*
D11*
X3450000Y3080000D03*
D11*
X5950000Y3080000D03*
D18*
X23875000Y57810000D03*
D18*
X16250000Y19950000D03*
D18*
X31500000Y45190000D03*
D18*
X25970000Y8430000D03*
D19*
X1000000Y32570000D03*
D18*
X31500000Y52100000D03*
D19*
X31500000Y70430000D03*
D18*
X31500000Y1000000D03*
D19*
X62000000Y32570000D03*
D19*
X16250000Y70430000D03*
D19*
X62000000Y7330000D03*
D19*
X1000000Y45190000D03*
D19*
X54375000Y70430000D03*
D19*
X39125000Y70430000D03*
D19*
X1000000Y64120000D03*
D19*
X23875000Y70430000D03*
D19*
X62000000Y38880000D03*
D20*
X10310000Y46770000D03*
D18*
X16250000Y64120000D03*
D18*
X16250000Y7330000D03*
D18*
X46050000Y51500000D03*
D18*
X8625000Y64120000D03*
D18*
X16250000Y13640000D03*
D19*
X1000000Y38880000D03*
D18*
X54375000Y26260000D03*
D20*
X40500000Y14330000D03*
D18*
X31500000Y64120000D03*
D18*
X55775000Y32870000D03*
D19*
X62000000Y45190000D03*
D18*
X31500000Y25760000D03*
D18*
X23875000Y26260000D03*
D18*
X39125000Y19950000D03*
D19*
X62000000Y1000000D03*
D18*
X16250000Y37680000D03*
D18*
X23875000Y37680000D03*
D18*
X39125000Y1000000D03*
D18*
X39125000Y45190000D03*
D19*
X62000000Y70430000D03*
D19*
X62000000Y64120000D03*
D18*
X15250000Y58070000D03*
D18*
X32000000Y32570000D03*
D19*
X1000000Y57810000D03*
D18*
X54375000Y19950000D03*
D18*
X54375000Y45190000D03*
D19*
X1000000Y7330000D03*
D18*
X46550000Y32870000D03*
D19*
X62000000Y26260000D03*
D21*
X16170000Y52190000D03*
D18*
X7370000Y38730000D03*
D18*
X54375000Y38880000D03*
D18*
X12750000Y49620000D03*
D20*
X49910000Y43390000D03*
D18*
X24075000Y45190000D03*
D18*
X46750000Y19950000D03*
D18*
X8625000Y26260000D03*
D18*
X8625000Y57810000D03*
D19*
X62000000Y13640000D03*
D19*
X1000000Y13640000D03*
D18*
X15300000Y55530000D03*
D19*
X46750000Y70430000D03*
D19*
X62000000Y51500000D03*
D18*
X54375000Y51500000D03*
D18*
X20260000Y50770000D03*
D19*
X1000000Y1000000D03*
D18*
X54375000Y7330000D03*
D18*
X39125000Y52100000D03*
D18*
X54375000Y1000000D03*
D18*
X36480000Y8430000D03*
D18*
X8625000Y19950000D03*
D18*
X6570001Y45430000D03*
D20*
X21700000Y14330000D03*
D21*
X14670000Y53470000D03*
D18*
X22370000Y8430000D03*
D18*
X16250000Y1000000D03*
D20*
X22060000Y53470000D03*
D18*
X52750000Y40420000D03*
D18*
X16250000Y32970000D03*
D18*
X54375000Y13640000D03*
D18*
X54375000Y57810000D03*
D18*
X24075000Y52100000D03*
D18*
X8625000Y1000000D03*
D19*
X62000000Y57810000D03*
D18*
X39125000Y26260000D03*
D18*
X51000000Y30900000D03*
D18*
X40080000Y8430000D03*
D18*
X23875000Y19950000D03*
D18*
X16250000Y26260000D03*
D18*
X46750000Y64120000D03*
D18*
X48860000Y36800000D03*
D18*
X31500000Y57810000D03*
D18*
X39125000Y64120000D03*
D18*
X54375000Y64120000D03*
D18*
X23875000Y64120000D03*
D18*
X31500000Y19950000D03*
D19*
X1000000Y51500000D03*
D18*
X46750000Y1000000D03*
D18*
X7125000Y33070000D03*
D18*
X38280000Y5830000D03*
D18*
X30360002Y37760000D03*
D19*
X1000000Y19950000D03*
D18*
X24170000Y5830000D03*
D18*
X39125000Y38880000D03*
D19*
X8625000Y70430000D03*
D19*
X62000000Y19950000D03*
D18*
X46750000Y26260000D03*
D18*
X46750000Y57810000D03*
D18*
X51940000Y49040000D03*
D18*
X16250000Y46390000D03*
D18*
X8625000Y13640000D03*
D18*
X23875000Y32570000D03*
D18*
X46750000Y13640000D03*
D19*
X1000000Y26260000D03*
D18*
X46750000Y7330000D03*
D18*
X8625000Y7330000D03*
D18*
X34400000Y15030000D03*
D18*
X39125000Y32570000D03*
D18*
X46050000Y45190000D03*
D18*
X39125000Y57810000D03*
D19*
X1000000Y70430000D03*
D18*
X23875000Y1000000D03*
D18*
X10580000Y54945000D03*
D18*
X6360000Y51580000D03*
M02*
