%FSLAX46Y46*%
%MOMM*%
%AMPS14*
1,1,2.300000,0.000000,0.000000*
%
%ADD14PS14*%
%AMPS26*
1,1,1.800000,0.000000,0.000000*
%
%ADD26PS26*%
%AMPS38*
1,1,1.800000,0.000000,0.000000*
%
%ADD38PS38*%
%AMPS41*
1,1,1.800000,0.000000,0.000000*
%
%ADD41PS41*%
%AMPS25*
1,1,1.900000,0.000000,0.000000*
%
%ADD25PS25*%
%AMPS30*
1,1,2.400000,0.000000,0.000000*
%
%ADD30PS30*%
%AMPS33*
1,1,1.400000,0.000000,0.000000*
%
%ADD33PS33*%
%AMPS27*
1,1,1.400000,0.000000,0.000000*
%
%ADD27PS27*%
%AMPS16*
21,1,1.794948,2.941421,0.000000,0.000000,90.000000*
%
%ADD16PS16*%
%AMPS15*
21,1,1.794948,2.941421,0.000000,0.000000,270.000000*
%
%ADD15PS15*%
%AMPS12*
21,1,1.800000,3.150000,0.000000,0.000000,0.000000*
%
%ADD12PS12*%
%AMPS13*
21,1,1.800000,3.150000,0.000000,0.000000,180.000000*
%
%ADD13PS13*%
%AMPS17*
21,1,0.800000,1.750000,0.000000,0.000000,90.000000*
%
%ADD17PS17*%
%AMPS18*
21,1,0.800000,1.750000,0.000000,0.000000,270.000000*
%
%ADD18PS18*%
%AMPS32*
21,1,1.800000,2.700000,0.000000,0.000000,0.000000*
%
%ADD32PS32*%
%AMPS43*
21,1,1.800000,2.700000,0.000000,0.000000,90.000000*
%
%ADD43PS43*%
%AMPS31*
21,1,1.800000,2.700000,0.000000,0.000000,180.000000*
%
%ADD31PS31*%
%AMPS42*
21,1,1.800000,2.700000,0.000000,0.000000,270.000000*
%
%ADD42PS42*%
%AMPS37*
21,1,1.100000,1.200000,0.000000,0.000000,0.000000*
%
%ADD37PS37*%
%AMPS36*
21,1,1.100000,1.200000,0.000000,0.000000,180.000000*
%
%ADD36PS36*%
%AMPS40*
21,1,1.600000,1.300000,0.000000,0.000000,0.000000*
%
%ADD40PS40*%
%AMPS34*
21,1,1.600000,1.300000,0.000000,0.000000,90.000000*
%
%ADD34PS34*%
%AMPS39*
21,1,1.600000,1.300000,0.000000,0.000000,180.000000*
%
%ADD39PS39*%
%AMPS35*
21,1,1.600000,1.300000,0.000000,0.000000,270.000000*
%
%ADD35PS35*%
%AMPS20*
21,1,1.100000,0.700000,0.000000,0.000000,0.000000*
%
%ADD20PS20*%
%AMPS11*
21,1,1.100000,0.700000,0.000000,0.000000,90.000000*
%
%ADD11PS11*%
%AMPS19*
21,1,1.100000,0.700000,0.000000,0.000000,180.000000*
%
%ADD19PS19*%
%AMPS10*
21,1,1.100000,0.700000,0.000000,0.000000,270.000000*
%
%ADD10PS10*%
%AMPS29*
21,1,1.900000,1.300000,0.000000,0.000000,90.000000*
%
%ADD29PS29*%
%AMPS28*
21,1,1.900000,1.300000,0.000000,0.000000,270.000000*
%
%ADD28PS28*%
%AMPS22*
21,1,1.050000,1.000000,0.000000,0.000000,0.000000*
%
%ADD22PS22*%
%AMPS23*
21,1,1.050000,1.000000,0.000000,0.000000,90.000000*
%
%ADD23PS23*%
%AMPS21*
21,1,1.050000,1.000000,0.000000,0.000000,180.000000*
%
%ADD21PS21*%
%AMPS24*
21,1,1.050000,1.000000,0.000000,0.000000,270.000000*
%
%ADD24PS24*%
%AMPS45*
1,1,1.200000,0.000000,0.000000*
%
%ADD45PS45*%
%AMPS44*
1,1,0.550000,0.000000,0.000000*
%
%ADD44PS44*%
%AMPS46*
1,1,0.700000,0.000000,0.000000*
%
%ADD46PS46*%
G01*
%LPD*%
G01*
%LPD*%
G75*
D10*
X50000000Y38630000D03*
D11*
X51500000Y38630000D03*
D12*
X24150000Y8430000D03*
D13*
X24150000Y13630000D03*
D14*
X4500000Y31930000D03*
D14*
X14500000Y31930000D03*
D14*
X9500000Y31930000D03*
D15*
X25700002Y34630000D03*
D16*
X30600000Y34630000D03*
D14*
X4500000Y61930000D03*
D14*
X14500000Y61930000D03*
D14*
X9500000Y61930000D03*
D11*
X47760000Y36800000D03*
D10*
X46260000Y36800000D03*
D11*
X25800002Y38960000D03*
D10*
X24300002Y38960000D03*
D17*
X18090000Y54740000D03*
D17*
X18090000Y52190000D03*
D17*
X18090000Y50920000D03*
D18*
X12750000Y50920000D03*
D18*
X12750000Y53470000D03*
D17*
X18090000Y53470000D03*
D18*
X12750000Y54740000D03*
D18*
X12750000Y52190000D03*
D19*
X16500000Y45130000D03*
D20*
X16500000Y43630000D03*
D21*
X10580000Y53695000D03*
D22*
X10580000Y52195000D03*
D23*
X51500000Y40420000D03*
D24*
X50000000Y40420000D03*
D14*
X48500000Y31930000D03*
D14*
X58500000Y31930000D03*
D14*
X53500000Y31930000D03*
D25*
X32750000Y3080000D03*
D25*
X35250000Y3080000D03*
D25*
X30250000Y3080000D03*
D25*
X27750000Y3080000D03*
D19*
X14670000Y45130000D03*
D20*
X14670000Y43630000D03*
D12*
X38050000Y8430000D03*
D13*
X38050000Y13630000D03*
D26*
X30600000Y27290000D03*
D26*
X30600000Y29830000D03*
D27*
X29220000Y57910000D03*
D27*
X29220000Y52830000D03*
D28*
X29500000Y8430000D03*
D29*
X32700000Y8430000D03*
D30*
X31500000Y47930000D03*
D30*
X36580000Y47930000D03*
D30*
X26420000Y47930000D03*
D31*
X48110000Y49740000D03*
D32*
X48110000Y46440000D03*
D33*
X33780000Y52830000D03*
D33*
X33780000Y57910000D03*
D29*
X32700000Y11730000D03*
D28*
X29500000Y11730000D03*
D34*
X48060000Y38930000D03*
D35*
X46260000Y38930000D03*
D28*
X29500000Y15030000D03*
D29*
X32700000Y15030000D03*
D25*
X57050000Y3080000D03*
D25*
X59550000Y3080000D03*
D24*
X14670000Y48930000D03*
D23*
X16170000Y48930000D03*
D14*
X48500000Y61930000D03*
D14*
X58500000Y61930000D03*
D14*
X53500000Y61930000D03*
D36*
X46210000Y43390000D03*
D37*
X47160000Y41190000D03*
D36*
X48110000Y43390000D03*
D19*
X51940000Y47940000D03*
D20*
X51940000Y46440000D03*
D23*
X16170000Y56730000D03*
D24*
X14670000Y56730000D03*
D38*
X37500000Y32130000D03*
D38*
X34200000Y34630000D03*
D38*
X34200000Y37130000D03*
D38*
X34200000Y32130000D03*
D38*
X37500000Y34630000D03*
D38*
X37500000Y37130000D03*
D39*
X8490000Y54180000D03*
D40*
X8490000Y52380000D03*
D33*
X26420000Y52830000D03*
D33*
X26420000Y57910000D03*
D10*
X8810000Y48570000D03*
D11*
X10310000Y48570000D03*
D11*
X10310000Y50400000D03*
D10*
X8810000Y50400000D03*
D41*
X26100000Y29830000D03*
D41*
X26100000Y27290000D03*
D22*
X20260000Y51970000D03*
D21*
X20260000Y53470000D03*
D24*
X30360002Y38960000D03*
D23*
X31860002Y38960000D03*
D27*
X36580000Y57910000D03*
D27*
X36580000Y52830000D03*
D42*
X7370000Y36930000D03*
D43*
X10670000Y36930000D03*
D16*
X11469999Y43630000D03*
D15*
X6570001Y43630000D03*
D25*
X3450000Y3080000D03*
D25*
X5950000Y3080000D03*
D20*
X6360000Y52680000D03*
D19*
X6360000Y54180000D03*
D44*
X1000000Y32570000D03*
D44*
X31500000Y70430000D03*
D44*
X62000000Y32570000D03*
D44*
X16250000Y70430000D03*
D44*
X62000000Y7330000D03*
D44*
X1000000Y45190000D03*
D44*
X54375000Y70430000D03*
D44*
X39125000Y70430000D03*
D44*
X1000000Y64120000D03*
D44*
X23875000Y70430000D03*
D44*
X62000000Y38880000D03*
D45*
X10310000Y46770000D03*
D44*
X1000000Y38880000D03*
D45*
X40500000Y14330000D03*
D44*
X62000000Y45190000D03*
D44*
X62000000Y1000000D03*
D44*
X62000000Y70430000D03*
D44*
X62000000Y64120000D03*
D44*
X1000000Y57810000D03*
D44*
X1000000Y7330000D03*
D44*
X62000000Y26260000D03*
D46*
X16170000Y52190000D03*
D45*
X49910000Y43390000D03*
D44*
X62000000Y13640000D03*
D44*
X1000000Y13640000D03*
D44*
X46750000Y70430000D03*
D44*
X62000000Y51500000D03*
D44*
X1000000Y1000000D03*
D45*
X21700000Y14330000D03*
D46*
X14670000Y53470000D03*
D45*
X22060000Y53470000D03*
D44*
X62000000Y57810000D03*
D44*
X1000000Y51500000D03*
D44*
X1000000Y19950000D03*
D44*
X8625000Y70430000D03*
D44*
X62000000Y19950000D03*
D44*
X1000000Y26260000D03*
D44*
X1000000Y70430000D03*
M02*
