M48
FMAT,2
METRIC,TZ
T6C0.350
T4C0.500
T3C0.900
T2C1.000
T1C1.400
T5C1.500
%
G90
G05
M71
T6
X23.875Y57.810
X16.250Y19.950
X31.500Y45.190
X25.970Y8.430
X1.000Y32.570
X31.500Y52.100
X31.500Y70.430
X31.500Y1.000
X62.000Y32.570
X16.250Y70.430
X62.000Y7.330
X1.000Y45.190
X54.375Y70.430
X39.125Y70.430
X1.000Y64.120
X23.875Y70.430
X62.000Y38.880
X16.250Y64.120
X16.250Y7.330
X46.050Y51.500
X8.625Y64.120
X16.250Y13.640
X1.000Y38.880
X54.375Y26.260
X31.500Y64.120
X55.775Y32.870
X62.000Y45.190
X31.500Y25.760
X23.875Y26.260
X39.125Y19.950
X62.000Y1.000
X16.250Y37.680
X23.875Y37.680
X39.125Y1.000
X39.125Y45.190
X62.000Y70.430
X62.000Y64.120
X15.250Y58.070
X32.000Y32.570
X1.000Y57.810
X54.375Y19.950
X54.375Y45.190
X1.000Y7.330
X46.550Y32.870
X62.000Y26.260
X7.370Y38.730
X54.375Y38.880
X12.750Y49.620
X24.075Y45.190
X46.750Y19.950
X8.625Y26.260
X8.625Y57.810
X62.000Y13.640
X1.000Y13.640
X15.300Y55.530
X46.750Y70.430
X62.000Y51.500
X54.375Y51.500
X20.260Y50.770
X1.000Y1.000
X54.375Y7.330
X39.125Y52.100
X54.375Y1.000
X36.480Y8.430
X8.625Y19.950
X6.570Y45.430
X22.370Y8.430
X16.250Y1.000
X52.750Y40.420
X16.250Y32.970
X54.375Y13.640
X54.375Y57.810
X24.075Y52.100
X8.625Y1.000
X62.000Y57.810
X39.125Y26.260
X51.000Y30.900
X40.080Y8.430
X23.875Y19.950
X16.250Y26.260
X46.750Y64.120
X48.860Y36.800
X31.500Y57.810
X39.125Y64.120
X54.375Y64.120
X23.875Y64.120
X31.500Y19.950
X1.000Y51.500
X46.750Y1.000
X7.125Y33.070
X38.280Y5.830
X30.360Y37.760
X1.000Y19.950
X24.170Y5.830
X39.125Y38.880
X8.625Y70.430
X62.000Y19.950
X46.750Y26.260
X46.750Y57.810
X51.940Y49.040
X16.250Y46.390
X8.625Y13.640
X23.875Y32.570
X46.750Y13.640
X1.000Y26.260
X46.750Y7.330
X8.625Y7.330
X34.400Y15.030
X39.125Y32.570
X46.050Y45.190
X39.125Y57.810
X1.000Y70.430
X23.875Y1.000
X10.580Y54.945
X6.360Y51.580
T4
X29.220Y57.910
X29.220Y52.830
X33.780Y52.830
X33.780Y57.910
X26.420Y52.830
X26.420Y57.910
X36.580Y57.910
X36.580Y52.830
X16.170Y52.190
X14.670Y53.470
T3
X30.600Y27.290
X30.600Y29.830
X37.500Y32.130
X34.200Y34.630
X34.200Y37.130
X34.200Y32.130
X37.500Y34.630
X37.500Y37.130
X26.100Y29.830
X26.100Y27.290
T2
X32.750Y3.080
X35.250Y3.080
X30.250Y3.080
X27.750Y3.080
X57.050Y3.080
X59.550Y3.080
X3.450Y3.080
X5.950Y3.080
X10.310Y46.770
X40.500Y14.330
X49.910Y43.390
X21.700Y14.330
X22.060Y53.470
T1
X4.500Y31.930
X14.500Y31.930
X9.500Y31.930
X4.500Y61.930
X14.500Y61.930
X9.500Y61.930
X48.500Y31.930
X58.500Y31.930
X53.500Y31.930
X48.500Y61.930
X58.500Y61.930
X53.500Y61.930
T5
X31.500Y47.930
X36.580Y47.930
X26.420Y47.930
M30
