%FSLAX46Y46*%
%MOMM*%
%ADD11C,0.050000*%
%ADD10C,0.150000*%
G01*
G01*
%LPD*%
D10*
X49071428Y56223808D02*
X49452380Y57223808D01*
D10*
X49071428Y56223808D02*
X48690476Y57223808D01*
D10*
X48309524Y57176192D02*
X48214284Y57223808D01*
D10*
X48404760Y57080952D02*
X48309524Y57176192D01*
D10*
X48452380Y56985716D02*
X48404760Y57080952D01*
D10*
X48500000Y56842856D02*
X48452380Y56985716D01*
D10*
X48500000Y56604760D02*
X48500000Y56842856D01*
D10*
X48452380Y56461904D02*
X48500000Y56604760D01*
D10*
X48404760Y56366668D02*
X48452380Y56461904D01*
D10*
X48309524Y56271428D02*
X48404760Y56366668D01*
D10*
X48214284Y56223808D02*
X48309524Y56271428D01*
D10*
X48023808Y56223808D02*
X48214284Y56223808D01*
D10*
X47928572Y56271428D02*
X48023808Y56223808D01*
D10*
X47833332Y56366668D02*
X47928572Y56271428D01*
D10*
X47785716Y56461904D02*
X47833332Y56366668D01*
D10*
X47738096Y56604760D02*
X47785716Y56461904D01*
D10*
X47738096Y56842856D02*
X47738096Y56604760D01*
D10*
X47785716Y56985716D02*
X47738096Y56842856D01*
D10*
X47833332Y57080952D02*
X47785716Y56985716D01*
D10*
X47928572Y57176192D02*
X47833332Y57080952D01*
D10*
X48023808Y57223808D02*
X47928572Y57176192D01*
D10*
X48214284Y57223808D02*
X48023808Y57223808D01*
D10*
X47404760Y56223808D02*
X47404760Y57223808D01*
D10*
X46833332Y56223808D02*
X47404760Y56223808D01*
D10*
X2903809Y33233524D02*
X3903809Y33614476D01*
D10*
X2903809Y33995428D02*
X3903809Y33614476D01*
D10*
X3237142Y33852572D02*
X3237142Y33376380D01*
D10*
X2903809Y34424000D02*
X3903809Y34424000D01*
D10*
X3903809Y34757332D02*
X3903809Y34090668D01*
D10*
X2903809Y35185904D02*
X3903809Y35185904D01*
D10*
X3903809Y35519240D02*
X3903809Y34852572D01*
D10*
X2903809Y35614476D02*
X3903809Y35995428D01*
D10*
X2903809Y36376380D02*
X3903809Y35995428D01*
D10*
X3237142Y36233524D02*
X3237142Y35757332D01*
D10*
X3760952Y37233524D02*
X3665714Y37281144D01*
D10*
X3856190Y37138284D02*
X3760952Y37233524D01*
D10*
X3903809Y37043048D02*
X3856190Y37138284D01*
D10*
X3903809Y36852572D02*
X3903809Y37043048D01*
D10*
X3856190Y36757332D02*
X3903809Y36852572D01*
D10*
X3760952Y36662096D02*
X3856190Y36757332D01*
D10*
X3665714Y36614476D02*
X3760952Y36662096D01*
D10*
X3522857Y36566856D02*
X3665714Y36614476D01*
D10*
X3284762Y36566856D02*
X3522857Y36566856D01*
D10*
X3141904Y36614476D02*
X3284762Y36566856D01*
D10*
X3046666Y36662096D02*
X3141904Y36614476D01*
D10*
X2951428Y36757332D02*
X3046666Y36662096D01*
D10*
X2903809Y36852572D02*
X2951428Y36757332D01*
D10*
X2903809Y37043048D02*
X2903809Y36852572D01*
D10*
X2951428Y37138284D02*
X2903809Y37043048D01*
D10*
X3046666Y37233524D02*
X2951428Y37138284D01*
D10*
X3141904Y37281144D02*
X3046666Y37233524D01*
D10*
X2903809Y37614476D02*
X3903809Y37614476D01*
D10*
X3237142Y37614476D02*
X3903809Y38281144D01*
D10*
X2903809Y38281144D02*
X3475238Y37852572D01*
D10*
X49309524Y25923810D02*
X49309524Y26923810D01*
D10*
X48880952Y26923810D02*
X49309524Y26923810D01*
D10*
X48738096Y26876190D02*
X48880952Y26923810D01*
D10*
X48690476Y26828572D02*
X48738096Y26876190D01*
D10*
X48642856Y26733334D02*
X48690476Y26828572D01*
D10*
X48642856Y26638096D02*
X48642856Y26733334D01*
D10*
X48690476Y26542858D02*
X48642856Y26638096D01*
D10*
X48738096Y26495238D02*
X48690476Y26542858D01*
D10*
X48880952Y26447620D02*
X48738096Y26495238D01*
D10*
X48880952Y26447620D02*
X49309524Y26447620D01*
D10*
X48738096Y26400000D02*
X48880952Y26447620D01*
D10*
X48690476Y26352380D02*
X48738096Y26400000D01*
D10*
X48642856Y26257142D02*
X48690476Y26352380D01*
D10*
X48642856Y26114286D02*
X48642856Y26257142D01*
D10*
X48690476Y26019048D02*
X48642856Y26114286D01*
D10*
X48738096Y25971428D02*
X48690476Y26019048D01*
D10*
X48880952Y25923810D02*
X48738096Y25971428D01*
D10*
X49309524Y25923810D02*
X48880952Y25923810D01*
D10*
X48309524Y25923810D02*
X48309524Y26923810D01*
D10*
X47738096Y25923810D02*
X48309524Y25923810D01*
D10*
X47500000Y25923810D02*
X47500000Y26923810D01*
D10*
X46880952Y26923810D02*
X47500000Y26923810D01*
D10*
X47119048Y26447620D02*
X47500000Y26447620D01*
D10*
X46880952Y25923810D02*
X47500000Y25923810D01*
D10*
X46595240Y25923810D02*
X46595240Y26923810D01*
D10*
X45928572Y25923810D02*
X46595240Y26923810D01*
D10*
X45928572Y25923810D02*
X45928572Y26923810D01*
D10*
X45547620Y25923810D02*
X45547620Y26923810D01*
D10*
X45214288Y26923810D02*
X45547620Y26923810D01*
D10*
X45071428Y26876190D02*
X45214288Y26923810D01*
D10*
X44976192Y26780952D02*
X45071428Y26876190D01*
D10*
X44928572Y26685714D02*
X44976192Y26780952D01*
D10*
X44880952Y26542858D02*
X44928572Y26685714D01*
D10*
X44880952Y26304762D02*
X44880952Y26542858D01*
D10*
X44928572Y26161904D02*
X44880952Y26304762D01*
D10*
X44976192Y26066666D02*
X44928572Y26161904D01*
D10*
X45071428Y25971428D02*
X44976192Y26066666D01*
D10*
X45214288Y25923810D02*
X45071428Y25971428D01*
D10*
X45547620Y25923810D02*
X45214288Y25923810D01*
D10*
X11785714Y57176192D02*
X11690476Y57080952D01*
D10*
X11928571Y57223808D02*
X11785714Y57176192D01*
D10*
X12119048Y57223808D02*
X11928571Y57223808D01*
D10*
X12261905Y57176192D02*
X12119048Y57223808D01*
D10*
X12357143Y57080952D02*
X12261905Y57176192D01*
D10*
X12357143Y56985716D02*
X12357143Y57080952D01*
D10*
X12309524Y56890476D02*
X12357143Y56985716D01*
D10*
X12261905Y56842856D02*
X12309524Y56890476D01*
D10*
X12166667Y56795240D02*
X12261905Y56842856D01*
D10*
X11880952Y56700000D02*
X12166667Y56795240D01*
D10*
X11785714Y56652380D02*
X11880952Y56700000D01*
D10*
X11738095Y56604760D02*
X11785714Y56652380D01*
D10*
X11690476Y56509524D02*
X11738095Y56604760D01*
D10*
X11690476Y56366668D02*
X11690476Y56509524D01*
D10*
X11785714Y56271428D02*
X11690476Y56366668D01*
D10*
X11928571Y56223808D02*
X11785714Y56271428D01*
D10*
X12119048Y56223808D02*
X11928571Y56223808D01*
D10*
X12261905Y56271428D02*
X12119048Y56223808D01*
D10*
X12357143Y56366668D02*
X12261905Y56271428D01*
D10*
X11357143Y56223808D02*
X11357143Y57223808D01*
D10*
X10738095Y57223808D02*
X11357143Y57223808D01*
D10*
X10976190Y56747620D02*
X11357143Y56747620D01*
D10*
X10738095Y56223808D02*
X11357143Y56223808D01*
D10*
X10452381Y56223808D02*
X10452381Y57223808D01*
D10*
X9785714Y56223808D02*
X10452381Y57223808D01*
D10*
X9785714Y56223808D02*
X9785714Y57223808D01*
D10*
X8880952Y57176192D02*
X8785714Y57080952D01*
D10*
X9023810Y57223808D02*
X8880952Y57176192D01*
D10*
X9214286Y57223808D02*
X9023810Y57223808D01*
D10*
X9357143Y57176192D02*
X9214286Y57223808D01*
D10*
X9452381Y57080952D02*
X9357143Y57176192D01*
D10*
X9452381Y56985716D02*
X9452381Y57080952D01*
D10*
X9404762Y56890476D02*
X9452381Y56985716D01*
D10*
X9357143Y56842856D02*
X9404762Y56890476D01*
D10*
X9261905Y56795240D02*
X9357143Y56842856D01*
D10*
X8976190Y56700000D02*
X9261905Y56795240D01*
D10*
X8880952Y56652380D02*
X8976190Y56700000D01*
D10*
X8833334Y56604760D02*
X8880952Y56652380D01*
D10*
X8785714Y56509524D02*
X8833334Y56604760D01*
D10*
X8785714Y56366668D02*
X8785714Y56509524D01*
D10*
X8880952Y56271428D02*
X8785714Y56366668D01*
D10*
X9023810Y56223808D02*
X8880952Y56271428D01*
D10*
X9214286Y56223808D02*
X9023810Y56223808D01*
D10*
X9357143Y56271428D02*
X9214286Y56223808D01*
D10*
X9452381Y56366668D02*
X9357143Y56271428D01*
D11*
X54500000Y55200000D02*
X41500000Y55200000D01*
D11*
X54500000Y61700000D02*
X54500000Y55200000D01*
D11*
X35000000Y58200000D02*
X35000000Y58200000D01*
D11*
X41500000Y55200000D02*
X41500000Y61700000D01*
D11*
X39500000Y67200000D02*
X39510239Y67617075D01*
D11*
X39510239Y67617075D02*
X39540930Y68033145D01*
D11*
X39540930Y68033145D02*
X39592000Y68447209D01*
D11*
X39592000Y68447209D02*
X39663326Y68858267D01*
D11*
X39663326Y68858267D02*
X39754735Y69265331D01*
D11*
X39754735Y69265331D02*
X39866007Y69667420D01*
D11*
X39866007Y69667420D02*
X39996876Y70063563D01*
D11*
X39996876Y70063563D02*
X40147024Y70452809D01*
D11*
X40147024Y70452809D02*
X40316091Y70834218D01*
D11*
X40316091Y70834218D02*
X40503669Y71206872D01*
D11*
X40503669Y71206872D02*
X40709307Y71569873D01*
D11*
X40709307Y71569873D02*
X40932509Y71922347D01*
D11*
X40932509Y71922347D02*
X41172736Y72263444D01*
D11*
X41172736Y72263444D02*
X41429412Y72592343D01*
D11*
X41429412Y72592343D02*
X41701916Y72908251D01*
D11*
X41701916Y72908251D02*
X41989593Y73210408D01*
D11*
X41989593Y73210408D02*
X42291750Y73498085D01*
D11*
X42291750Y73498085D02*
X42607658Y73770589D01*
D11*
X42607658Y73770589D02*
X42936557Y74027265D01*
D11*
X42936557Y74027265D02*
X43277654Y74267492D01*
D11*
X43277654Y74267492D02*
X43630128Y74490694D01*
D11*
X43630128Y74490694D02*
X43993130Y74696331D01*
D11*
X43993130Y74696331D02*
X44365784Y74883909D01*
D11*
X44365784Y74883909D02*
X44747193Y75052977D01*
D11*
X44747193Y75052977D02*
X45136439Y75203125D01*
D11*
X45136439Y75203125D02*
X45532583Y75333993D01*
D11*
X45532583Y75333993D02*
X45934671Y75445266D01*
D11*
X45934671Y75445266D02*
X46341735Y75536675D01*
D11*
X46341735Y75536675D02*
X46752794Y75608001D01*
D11*
X46752794Y75608001D02*
X47166858Y75659071D01*
D11*
X47166858Y75659071D02*
X47582928Y75689761D01*
D11*
X47582928Y75689761D02*
X48000003Y75700000D01*
D11*
X48000003Y75700000D02*
X48417078Y75689761D01*
D11*
X48417078Y75689761D02*
X48833149Y75659070D01*
D11*
X48833149Y75659070D02*
X49247212Y75608000D01*
D11*
X49247212Y75608000D02*
X49658271Y75536674D01*
D11*
X49658271Y75536674D02*
X50065335Y75445264D01*
D11*
X50065335Y75445264D02*
X50467424Y75333991D01*
D11*
X50467424Y75333991D02*
X50863568Y75203123D01*
D11*
X50863568Y75203123D02*
X51252813Y75052974D01*
D11*
X51252813Y75052974D02*
X51634221Y74883907D01*
D11*
X51634221Y74883907D02*
X52006874Y74696329D01*
D11*
X52006874Y74696329D02*
X52369875Y74490692D01*
D11*
X52369875Y74490692D02*
X52722348Y74267491D01*
D11*
X52722348Y74267491D02*
X53063444Y74027264D01*
D11*
X53063444Y74027264D02*
X53392343Y73770589D01*
D11*
X53392343Y73770589D02*
X53708250Y73498085D01*
D11*
X53708250Y73498085D02*
X54010406Y73210409D01*
D11*
X54010406Y73210409D02*
X54298082Y72908253D01*
D11*
X54298082Y72908253D02*
X54570586Y72592346D01*
D11*
X54570586Y72592346D02*
X54827261Y72263447D01*
D11*
X54827261Y72263447D02*
X55067488Y71922351D01*
D11*
X55067488Y71922351D02*
X55290690Y71569878D01*
D11*
X55290690Y71569878D02*
X55496327Y71206878D01*
D11*
X55496327Y71206878D02*
X55683905Y70834225D01*
D11*
X55683905Y70834225D02*
X55852972Y70452817D01*
D11*
X55852972Y70452817D02*
X56003121Y70063572D01*
D11*
X56003121Y70063572D02*
X56133990Y69667429D01*
D11*
X56133990Y69667429D02*
X56245262Y69265342D01*
D11*
X56245262Y69265342D02*
X56336672Y68858279D01*
D11*
X56336672Y68858279D02*
X56407998Y68447221D01*
D11*
X56407998Y68447221D02*
X56459069Y68033159D01*
D11*
X56459069Y68033159D02*
X56489761Y67617089D01*
D11*
X56489761Y67617089D02*
X56500000Y67200015D01*
D11*
X56500000Y67200000D02*
X56489761Y66782925D01*
D11*
X56489761Y66782925D02*
X56459070Y66366856D01*
D11*
X56459070Y66366856D02*
X56408000Y65952793D01*
D11*
X56408000Y65952793D02*
X56336675Y65541735D01*
D11*
X56336675Y65541735D02*
X56245266Y65134672D01*
D11*
X56245266Y65134672D02*
X56133994Y64732585D01*
D11*
X56133994Y64732585D02*
X56003126Y64336441D01*
D11*
X56003126Y64336441D02*
X55852978Y63947197D01*
D11*
X55852978Y63947197D02*
X55683911Y63565788D01*
D11*
X55683911Y63565788D02*
X55496334Y63193135D01*
D11*
X55496334Y63193135D02*
X55290697Y62830134D01*
D11*
X55290697Y62830134D02*
X55067497Y62477661D01*
D11*
X55067497Y62477661D02*
X54827270Y62136564D01*
D11*
X54827270Y62136564D02*
X54570596Y61807666D01*
D11*
X54570596Y61807666D02*
X54298092Y61491758D01*
D11*
X54298092Y61491758D02*
X54010416Y61189602D01*
D11*
X54010416Y61189602D02*
X53708261Y60901925D01*
D11*
X53708261Y60901925D02*
X53392352Y60629419D01*
D11*
X53392352Y60629419D02*
X53063453Y60372743D01*
D11*
X53063453Y60372743D02*
X52722355Y60132514D01*
D11*
X52722355Y60132514D02*
X52369881Y59909312D01*
D11*
X52369881Y59909312D02*
X52006879Y59703673D01*
D11*
X52006879Y59703673D02*
X51634224Y59516094D01*
D11*
X51634224Y59516094D02*
X51252814Y59347026D01*
D11*
X51252814Y59347026D02*
X50863567Y59196877D01*
D11*
X50863567Y59196877D02*
X50467422Y59066008D01*
D11*
X50467422Y59066008D02*
X50065333Y58954735D01*
D11*
X50065333Y58954735D02*
X49658268Y58863326D01*
D11*
X49658268Y58863326D02*
X49247208Y58792000D01*
D11*
X49247208Y58792000D02*
X48833143Y58740930D01*
D11*
X48833143Y58740930D02*
X48417072Y58710239D01*
D11*
X48417072Y58710239D02*
X47999996Y58700000D01*
D11*
X47999996Y58700000D02*
X47582920Y58710239D01*
D11*
X47582920Y58710239D02*
X47166848Y58740930D01*
D11*
X47166848Y58740930D02*
X46752784Y58792001D01*
D11*
X46752784Y58792001D02*
X46341724Y58863327D01*
D11*
X46341724Y58863327D02*
X45934659Y58954737D01*
D11*
X45934659Y58954737D02*
X45532570Y59066011D01*
D11*
X45532570Y59066011D02*
X45136425Y59196880D01*
D11*
X45136425Y59196880D02*
X44747179Y59347030D01*
D11*
X44747179Y59347030D02*
X44365769Y59516098D01*
D11*
X44365769Y59516098D02*
X43993114Y59703677D01*
D11*
X43993114Y59703677D02*
X43630112Y59909316D01*
D11*
X43630112Y59909316D02*
X43277638Y60132519D01*
D11*
X43277638Y60132519D02*
X42936540Y60372748D01*
D11*
X42936540Y60372748D02*
X42607641Y60629425D01*
D11*
X42607641Y60629425D02*
X42291733Y60901930D01*
D11*
X42291733Y60901930D02*
X41989577Y61189609D01*
D11*
X41989577Y61189609D02*
X41701900Y61491767D01*
D11*
X41701900Y61491767D02*
X41429395Y61807677D01*
D11*
X41429395Y61807677D02*
X41172720Y62136577D01*
D11*
X41172720Y62136577D02*
X40932493Y62477676D01*
D11*
X40932493Y62477676D02*
X40709292Y62830152D01*
D11*
X40709292Y62830152D02*
X40503655Y63193155D01*
D11*
X40503655Y63193155D02*
X40316078Y63565811D01*
D11*
X40316078Y63565811D02*
X40147012Y63947221D01*
D11*
X40147012Y63947221D02*
X39996864Y64336468D01*
D11*
X39996864Y64336468D02*
X39865997Y64732614D01*
D11*
X39865997Y64732614D02*
X39754726Y65134704D01*
D11*
X39754726Y65134704D02*
X39663318Y65541769D01*
D11*
X39663318Y65541769D02*
X39591994Y65952829D01*
D11*
X39591994Y65952829D02*
X39540926Y66366894D01*
D11*
X39540926Y66366894D02*
X39510237Y66782966D01*
D11*
X39510237Y66782966D02*
X39500000Y67200042D01*
D11*
X54500000Y24900000D02*
X41500000Y24900000D01*
D11*
X54500000Y31400000D02*
X54500000Y24900000D01*
D11*
X35000000Y27900000D02*
X35000000Y27900000D01*
D11*
X41500000Y24900000D02*
X41500000Y31400000D01*
D11*
X39500000Y36900000D02*
X39510239Y37317075D01*
D11*
X39510239Y37317075D02*
X39540930Y37733145D01*
D11*
X39540930Y37733145D02*
X39592000Y38147209D01*
D11*
X39592000Y38147209D02*
X39663326Y38558267D01*
D11*
X39663326Y38558267D02*
X39754735Y38965331D01*
D11*
X39754735Y38965331D02*
X39866007Y39367420D01*
D11*
X39866007Y39367420D02*
X39996876Y39763563D01*
D11*
X39996876Y39763563D02*
X40147024Y40152809D01*
D11*
X40147024Y40152809D02*
X40316091Y40534218D01*
D11*
X40316091Y40534218D02*
X40503669Y40906872D01*
D11*
X40503669Y40906872D02*
X40709307Y41269873D01*
D11*
X40709307Y41269873D02*
X40932509Y41622347D01*
D11*
X40932509Y41622347D02*
X41172736Y41963444D01*
D11*
X41172736Y41963444D02*
X41429412Y42292343D01*
D11*
X41429412Y42292343D02*
X41701916Y42608251D01*
D11*
X41701916Y42608251D02*
X41989593Y42910408D01*
D11*
X41989593Y42910408D02*
X42291750Y43198085D01*
D11*
X42291750Y43198085D02*
X42607658Y43470589D01*
D11*
X42607658Y43470589D02*
X42936557Y43727265D01*
D11*
X42936557Y43727265D02*
X43277654Y43967492D01*
D11*
X43277654Y43967492D02*
X43630128Y44190694D01*
D11*
X43630128Y44190694D02*
X43993130Y44396331D01*
D11*
X43993130Y44396331D02*
X44365784Y44583909D01*
D11*
X44365784Y44583909D02*
X44747193Y44752977D01*
D11*
X44747193Y44752977D02*
X45136439Y44903125D01*
D11*
X45136439Y44903125D02*
X45532583Y45033993D01*
D11*
X45532583Y45033993D02*
X45934671Y45145266D01*
D11*
X45934671Y45145266D02*
X46341735Y45236675D01*
D11*
X46341735Y45236675D02*
X46752794Y45308001D01*
D11*
X46752794Y45308001D02*
X47166858Y45359071D01*
D11*
X47166858Y45359071D02*
X47582928Y45389761D01*
D11*
X47582928Y45389761D02*
X48000003Y45400000D01*
D11*
X48000003Y45400000D02*
X48417078Y45389761D01*
D11*
X48417078Y45389761D02*
X48833149Y45359070D01*
D11*
X48833149Y45359070D02*
X49247212Y45308000D01*
D11*
X49247212Y45308000D02*
X49658271Y45236674D01*
D11*
X49658271Y45236674D02*
X50065335Y45145264D01*
D11*
X50065335Y45145264D02*
X50467424Y45033991D01*
D11*
X50467424Y45033991D02*
X50863568Y44903123D01*
D11*
X50863568Y44903123D02*
X51252813Y44752974D01*
D11*
X51252813Y44752974D02*
X51634221Y44583907D01*
D11*
X51634221Y44583907D02*
X52006874Y44396329D01*
D11*
X52006874Y44396329D02*
X52369875Y44190692D01*
D11*
X52369875Y44190692D02*
X52722348Y43967491D01*
D11*
X52722348Y43967491D02*
X53063444Y43727264D01*
D11*
X53063444Y43727264D02*
X53392343Y43470589D01*
D11*
X53392343Y43470589D02*
X53708250Y43198085D01*
D11*
X53708250Y43198085D02*
X54010406Y42910409D01*
D11*
X54010406Y42910409D02*
X54298082Y42608253D01*
D11*
X54298082Y42608253D02*
X54570586Y42292346D01*
D11*
X54570586Y42292346D02*
X54827261Y41963447D01*
D11*
X54827261Y41963447D02*
X55067488Y41622351D01*
D11*
X55067488Y41622351D02*
X55290690Y41269878D01*
D11*
X55290690Y41269878D02*
X55496327Y40906878D01*
D11*
X55496327Y40906878D02*
X55683905Y40534225D01*
D11*
X55683905Y40534225D02*
X55852972Y40152817D01*
D11*
X55852972Y40152817D02*
X56003121Y39763572D01*
D11*
X56003121Y39763572D02*
X56133990Y39367429D01*
D11*
X56133990Y39367429D02*
X56245262Y38965342D01*
D11*
X56245262Y38965342D02*
X56336672Y38558279D01*
D11*
X56336672Y38558279D02*
X56407998Y38147221D01*
D11*
X56407998Y38147221D02*
X56459069Y37733159D01*
D11*
X56459069Y37733159D02*
X56489761Y37317089D01*
D11*
X56489761Y37317089D02*
X56500000Y36900015D01*
D11*
X56500000Y36900000D02*
X56489761Y36482925D01*
D11*
X56489761Y36482925D02*
X56459070Y36066856D01*
D11*
X56459070Y36066856D02*
X56408000Y35652793D01*
D11*
X56408000Y35652793D02*
X56336675Y35241735D01*
D11*
X56336675Y35241735D02*
X56245266Y34834672D01*
D11*
X56245266Y34834672D02*
X56133994Y34432585D01*
D11*
X56133994Y34432585D02*
X56003126Y34036441D01*
D11*
X56003126Y34036441D02*
X55852978Y33647197D01*
D11*
X55852978Y33647197D02*
X55683911Y33265788D01*
D11*
X55683911Y33265788D02*
X55496334Y32893135D01*
D11*
X55496334Y32893135D02*
X55290697Y32530134D01*
D11*
X55290697Y32530134D02*
X55067497Y32177661D01*
D11*
X55067497Y32177661D02*
X54827270Y31836564D01*
D11*
X54827270Y31836564D02*
X54570596Y31507666D01*
D11*
X54570596Y31507666D02*
X54298092Y31191758D01*
D11*
X54298092Y31191758D02*
X54010416Y30889602D01*
D11*
X54010416Y30889602D02*
X53708261Y30601925D01*
D11*
X53708261Y30601925D02*
X53392352Y30329419D01*
D11*
X53392352Y30329419D02*
X53063453Y30072743D01*
D11*
X53063453Y30072743D02*
X52722355Y29832514D01*
D11*
X52722355Y29832514D02*
X52369881Y29609312D01*
D11*
X52369881Y29609312D02*
X52006879Y29403673D01*
D11*
X52006879Y29403673D02*
X51634224Y29216094D01*
D11*
X51634224Y29216094D02*
X51252814Y29047026D01*
D11*
X51252814Y29047026D02*
X50863567Y28896877D01*
D11*
X50863567Y28896877D02*
X50467422Y28766008D01*
D11*
X50467422Y28766008D02*
X50065333Y28654735D01*
D11*
X50065333Y28654735D02*
X49658268Y28563326D01*
D11*
X49658268Y28563326D02*
X49247208Y28492000D01*
D11*
X49247208Y28492000D02*
X48833143Y28440930D01*
D11*
X48833143Y28440930D02*
X48417072Y28410239D01*
D11*
X48417072Y28410239D02*
X47999996Y28400000D01*
D11*
X47999996Y28400000D02*
X47582920Y28410239D01*
D11*
X47582920Y28410239D02*
X47166848Y28440930D01*
D11*
X47166848Y28440930D02*
X46752784Y28492001D01*
D11*
X46752784Y28492001D02*
X46341724Y28563327D01*
D11*
X46341724Y28563327D02*
X45934659Y28654737D01*
D11*
X45934659Y28654737D02*
X45532570Y28766011D01*
D11*
X45532570Y28766011D02*
X45136425Y28896880D01*
D11*
X45136425Y28896880D02*
X44747179Y29047030D01*
D11*
X44747179Y29047030D02*
X44365769Y29216098D01*
D11*
X44365769Y29216098D02*
X43993114Y29403677D01*
D11*
X43993114Y29403677D02*
X43630112Y29609316D01*
D11*
X43630112Y29609316D02*
X43277638Y29832519D01*
D11*
X43277638Y29832519D02*
X42936540Y30072748D01*
D11*
X42936540Y30072748D02*
X42607641Y30329425D01*
D11*
X42607641Y30329425D02*
X42291733Y30601930D01*
D11*
X42291733Y30601930D02*
X41989577Y30889609D01*
D11*
X41989577Y30889609D02*
X41701900Y31191767D01*
D11*
X41701900Y31191767D02*
X41429395Y31507677D01*
D11*
X41429395Y31507677D02*
X41172720Y31836577D01*
D11*
X41172720Y31836577D02*
X40932493Y32177676D01*
D11*
X40932493Y32177676D02*
X40709292Y32530152D01*
D11*
X40709292Y32530152D02*
X40503655Y32893155D01*
D11*
X40503655Y32893155D02*
X40316078Y33265811D01*
D11*
X40316078Y33265811D02*
X40147012Y33647221D01*
D11*
X40147012Y33647221D02*
X39996864Y34036468D01*
D11*
X39996864Y34036468D02*
X39865997Y34432614D01*
D11*
X39865997Y34432614D02*
X39754726Y34834704D01*
D11*
X39754726Y34834704D02*
X39663318Y35241769D01*
D11*
X39663318Y35241769D02*
X39591994Y35652829D01*
D11*
X39591994Y35652829D02*
X39540926Y36066894D01*
D11*
X39540926Y36066894D02*
X39510237Y36482966D01*
D11*
X39510237Y36482966D02*
X39500000Y36900042D01*
D11*
X17500000Y55200000D02*
X4500000Y55200000D01*
D11*
X17500000Y61700000D02*
X17500000Y55200000D01*
D11*
X-2000000Y58200000D02*
X-2000000Y58200000D01*
D11*
X4500000Y55200000D02*
X4500000Y61700000D01*
D11*
X2500000Y67200000D02*
X2510239Y67617075D01*
D11*
X2510239Y67617075D02*
X2540930Y68033145D01*
D11*
X2540930Y68033145D02*
X2592000Y68447209D01*
D11*
X2592000Y68447209D02*
X2663326Y68858267D01*
D11*
X2663326Y68858267D02*
X2754735Y69265331D01*
D11*
X2754735Y69265331D02*
X2866007Y69667420D01*
D11*
X2866007Y69667420D02*
X2996876Y70063563D01*
D11*
X2996876Y70063563D02*
X3147024Y70452809D01*
D11*
X3147024Y70452809D02*
X3316091Y70834218D01*
D11*
X3316091Y70834218D02*
X3503669Y71206872D01*
D11*
X3503669Y71206872D02*
X3709307Y71569873D01*
D11*
X3709307Y71569873D02*
X3932509Y71922347D01*
D11*
X3932509Y71922347D02*
X4172736Y72263444D01*
D11*
X4172736Y72263444D02*
X4429412Y72592343D01*
D11*
X4429412Y72592343D02*
X4701916Y72908251D01*
D11*
X4701916Y72908251D02*
X4989593Y73210408D01*
D11*
X4989593Y73210408D02*
X5291750Y73498085D01*
D11*
X5291750Y73498085D02*
X5607658Y73770589D01*
D11*
X5607658Y73770589D02*
X5936557Y74027265D01*
D11*
X5936557Y74027265D02*
X6277654Y74267492D01*
D11*
X6277654Y74267492D02*
X6630128Y74490694D01*
D11*
X6630128Y74490694D02*
X6993130Y74696331D01*
D11*
X6993130Y74696331D02*
X7365784Y74883909D01*
D11*
X7365784Y74883909D02*
X7747193Y75052977D01*
D11*
X7747193Y75052977D02*
X8136439Y75203125D01*
D11*
X8136439Y75203125D02*
X8532583Y75333993D01*
D11*
X8532583Y75333993D02*
X8934671Y75445266D01*
D11*
X8934671Y75445266D02*
X9341735Y75536675D01*
D11*
X9341735Y75536675D02*
X9752794Y75608001D01*
D11*
X9752794Y75608001D02*
X10166858Y75659071D01*
D11*
X10166858Y75659071D02*
X10582928Y75689761D01*
D11*
X10582928Y75689761D02*
X11000003Y75700000D01*
D11*
X11000003Y75700000D02*
X11417078Y75689761D01*
D11*
X11417078Y75689761D02*
X11833149Y75659070D01*
D11*
X11833149Y75659070D02*
X12247212Y75608000D01*
D11*
X12247212Y75608000D02*
X12658271Y75536674D01*
D11*
X12658271Y75536674D02*
X13065335Y75445264D01*
D11*
X13065335Y75445264D02*
X13467424Y75333991D01*
D11*
X13467424Y75333991D02*
X13863568Y75203123D01*
D11*
X13863568Y75203123D02*
X14252813Y75052974D01*
D11*
X14252813Y75052974D02*
X14634221Y74883907D01*
D11*
X14634221Y74883907D02*
X15006874Y74696329D01*
D11*
X15006874Y74696329D02*
X15369875Y74490692D01*
D11*
X15369875Y74490692D02*
X15722348Y74267491D01*
D11*
X15722348Y74267491D02*
X16063444Y74027264D01*
D11*
X16063444Y74027264D02*
X16392343Y73770589D01*
D11*
X16392343Y73770589D02*
X16708250Y73498085D01*
D11*
X16708250Y73498085D02*
X17010406Y73210409D01*
D11*
X17010406Y73210409D02*
X17298082Y72908253D01*
D11*
X17298082Y72908253D02*
X17570586Y72592346D01*
D11*
X17570586Y72592346D02*
X17827261Y72263447D01*
D11*
X17827261Y72263447D02*
X18067488Y71922351D01*
D11*
X18067488Y71922351D02*
X18290690Y71569878D01*
D11*
X18290690Y71569878D02*
X18496327Y71206878D01*
D11*
X18496327Y71206878D02*
X18683905Y70834225D01*
D11*
X18683905Y70834225D02*
X18852972Y70452817D01*
D11*
X18852972Y70452817D02*
X19003121Y70063572D01*
D11*
X19003121Y70063572D02*
X19133990Y69667429D01*
D11*
X19133990Y69667429D02*
X19245262Y69265342D01*
D11*
X19245262Y69265342D02*
X19336672Y68858279D01*
D11*
X19336672Y68858279D02*
X19407998Y68447221D01*
D11*
X19407998Y68447221D02*
X19459069Y68033159D01*
D11*
X19459069Y68033159D02*
X19489761Y67617089D01*
D11*
X19489761Y67617089D02*
X19500000Y67200015D01*
D11*
X19500000Y67200000D02*
X19489761Y66782925D01*
D11*
X19489761Y66782925D02*
X19459070Y66366856D01*
D11*
X19459070Y66366856D02*
X19408000Y65952793D01*
D11*
X19408000Y65952793D02*
X19336675Y65541735D01*
D11*
X19336675Y65541735D02*
X19245266Y65134672D01*
D11*
X19245266Y65134672D02*
X19133994Y64732585D01*
D11*
X19133994Y64732585D02*
X19003126Y64336441D01*
D11*
X19003126Y64336441D02*
X18852978Y63947197D01*
D11*
X18852978Y63947197D02*
X18683911Y63565788D01*
D11*
X18683911Y63565788D02*
X18496334Y63193135D01*
D11*
X18496334Y63193135D02*
X18290697Y62830134D01*
D11*
X18290697Y62830134D02*
X18067497Y62477661D01*
D11*
X18067497Y62477661D02*
X17827270Y62136564D01*
D11*
X17827270Y62136564D02*
X17570596Y61807666D01*
D11*
X17570596Y61807666D02*
X17298092Y61491758D01*
D11*
X17298092Y61491758D02*
X17010416Y61189602D01*
D11*
X17010416Y61189602D02*
X16708261Y60901925D01*
D11*
X16708261Y60901925D02*
X16392352Y60629419D01*
D11*
X16392352Y60629419D02*
X16063453Y60372743D01*
D11*
X16063453Y60372743D02*
X15722355Y60132514D01*
D11*
X15722355Y60132514D02*
X15369881Y59909312D01*
D11*
X15369881Y59909312D02*
X15006879Y59703673D01*
D11*
X15006879Y59703673D02*
X14634224Y59516094D01*
D11*
X14634224Y59516094D02*
X14252814Y59347026D01*
D11*
X14252814Y59347026D02*
X13863567Y59196877D01*
D11*
X13863567Y59196877D02*
X13467422Y59066008D01*
D11*
X13467422Y59066008D02*
X13065333Y58954735D01*
D11*
X13065333Y58954735D02*
X12658268Y58863326D01*
D11*
X12658268Y58863326D02*
X12247208Y58792000D01*
D11*
X12247208Y58792000D02*
X11833143Y58740930D01*
D11*
X11833143Y58740930D02*
X11417072Y58710239D01*
D11*
X11417072Y58710239D02*
X10999996Y58700000D01*
D11*
X10999996Y58700000D02*
X10582920Y58710239D01*
D11*
X10582920Y58710239D02*
X10166848Y58740930D01*
D11*
X10166848Y58740930D02*
X9752784Y58792001D01*
D11*
X9752784Y58792001D02*
X9341724Y58863327D01*
D11*
X9341724Y58863327D02*
X8934659Y58954737D01*
D11*
X8934659Y58954737D02*
X8532570Y59066011D01*
D11*
X8532570Y59066011D02*
X8136425Y59196880D01*
D11*
X8136425Y59196880D02*
X7747179Y59347030D01*
D11*
X7747179Y59347030D02*
X7365769Y59516098D01*
D11*
X7365769Y59516098D02*
X6993114Y59703677D01*
D11*
X6993114Y59703677D02*
X6630112Y59909316D01*
D11*
X6630112Y59909316D02*
X6277638Y60132519D01*
D11*
X6277638Y60132519D02*
X5936540Y60372748D01*
D11*
X5936540Y60372748D02*
X5607641Y60629425D01*
D11*
X5607641Y60629425D02*
X5291733Y60901930D01*
D11*
X5291733Y60901930D02*
X4989577Y61189609D01*
D11*
X4989577Y61189609D02*
X4701900Y61491767D01*
D11*
X4701900Y61491767D02*
X4429395Y61807677D01*
D11*
X4429395Y61807677D02*
X4172720Y62136577D01*
D11*
X4172720Y62136577D02*
X3932493Y62477676D01*
D11*
X3932493Y62477676D02*
X3709292Y62830152D01*
D11*
X3709292Y62830152D02*
X3503655Y63193155D01*
D11*
X3503655Y63193155D02*
X3316078Y63565811D01*
D11*
X3316078Y63565811D02*
X3147012Y63947221D01*
D11*
X3147012Y63947221D02*
X2996864Y64336468D01*
D11*
X2996864Y64336468D02*
X2865997Y64732614D01*
D11*
X2865997Y64732614D02*
X2754726Y65134704D01*
D11*
X2754726Y65134704D02*
X2663318Y65541769D01*
D11*
X2663318Y65541769D02*
X2591994Y65952829D01*
D11*
X2591994Y65952829D02*
X2540926Y66366894D01*
D11*
X2540926Y66366894D02*
X2510237Y66782966D01*
D11*
X2510237Y66782966D02*
X2500000Y67200042D01*
D11*
X4650000Y33500000D02*
X17350000Y33500000D01*
D11*
X4650000Y40300000D02*
X4650000Y33500000D01*
D11*
X17350000Y33500000D02*
X17350000Y40300000D01*
D11*
X17350000Y40300000D02*
X4650000Y40300000D01*
G75*
M02*
