%FSLAX46Y46*%
%MOMM*%
%ADD10C,0.010000*%
%ADD11C,2.400000*%
G01*
G01*
%LPD*%
D10*
X0Y0D02*
X0Y73900000D01*
D10*
X0Y73900000D02*
X6000000Y73900000D01*
D10*
X6000000Y73900000D02*
X6000000Y80900000D01*
D10*
X6000000Y80900000D02*
X27500000Y80900000D01*
D10*
X27500000Y80900000D02*
X27500000Y65800000D01*
D10*
X27500000Y65800000D02*
X31500000Y65800000D01*
D10*
X31500000Y65800000D02*
X31500000Y80900000D01*
D10*
X31500000Y80900000D02*
X53000000Y80900000D01*
D10*
X53000000Y80900000D02*
X53000000Y73900000D01*
D10*
X53000000Y73900000D02*
X59000000Y73900000D01*
D10*
X59000000Y73900000D02*
X59000000Y0D01*
D10*
X59000000Y0D02*
X0Y0D01*
D11*
X54200000Y75100000D02*
X60200000Y75100000D01*
D11*
X30300000Y82100000D02*
X54200000Y82100000D01*
D11*
X28700000Y67000000D02*
X30300000Y67000000D01*
D11*
X4800000Y75100000D02*
X4800000Y82100000D01*
D11*
X-1200000Y75100000D02*
X-1200000Y-1200000D01*
D11*
X-1200000Y75100000D02*
X4800000Y75100000D01*
D11*
X-1200000Y-1200000D02*
X60200000Y-1200000D01*
D11*
X54200000Y75100000D02*
X54200000Y82100000D01*
D11*
X28700000Y82100000D02*
X28700000Y67000000D01*
D11*
X4800000Y82100000D02*
X28700000Y82100000D01*
D11*
X60200000Y75100000D02*
X60200000Y-1200000D01*
D11*
X30300000Y82100000D02*
X30300000Y67000000D01*
G75*
M02*
