M48
FMAT,2
METRIC,TZ
T9C0.300
T6C0.350
T7C0.500
T4C0.600
T8C0.800
T5C0.900
T3C1.000
T1C1.400
T2C1.500
%
G90
G05
M71
T9
X48.292Y29.548
X50.312Y28.278
T6
X7.336Y54.900
X58.000Y60.900
X1.003Y60.900
X54.450Y12.000
X39.001Y66.900
X51.667Y0.900
X39.001Y60.900
X29.300Y41.000
X13.669Y6.900
X51.667Y6.900
X26.335Y0.900
X13.669Y12.900
X1.003Y66.900
X51.667Y54.900
X39.001Y72.900
X9.680Y22.810
X20.002Y66.900
X45.334Y0.900
X9.680Y21.540
X51.667Y79.233
X26.335Y60.900
X39.001Y0.900
X37.350Y52.800
X13.708Y21.690
X7.336Y60.900
X17.200Y40.790
X33.660Y53.400
X29.300Y17.600
X26.335Y79.233
X39.001Y6.300
X28.000Y26.270
X45.634Y54.900
X14.750Y17.500
X3.700Y36.900
X33.668Y12.900
X32.360Y55.300
X45.334Y79.233
X20.002Y72.900
X20.002Y55.400
X48.200Y14.350
X40.600Y14.950
X45.734Y48.900
X33.100Y41.000
X20.002Y12.900
X45.334Y72.900
X32.360Y49.000
X7.336Y72.900
X58.000Y36.900
X20.002Y0.900
X7.336Y66.900
X7.836Y36.500
X1.003Y18.900
X36.800Y14.950
X26.335Y18.900
X1.003Y72.900
X45.030Y28.300
X12.090Y40.150
X13.669Y66.900
X1.003Y0.900
X1.003Y6.900
X49.272Y34.078
X20.002Y79.233
X51.667Y72.900
X22.370Y14.510
X20.210Y40.380
X58.000Y0.900
X58.000Y6.900
X45.350Y15.150
X39.450Y36.290
X13.669Y0.900
X29.080Y10.670
X58.000Y24.900
X26.335Y66.900
X58.000Y66.900
X28.310Y8.030
X34.960Y55.300
X32.668Y79.233
X32.668Y72.900
X7.336Y12.900
X11.810Y33.540
X39.450Y55.200
X58.000Y54.900
X1.003Y36.900
X58.000Y18.900
X45.334Y60.900
X20.002Y60.900
X1.003Y30.900
X33.660Y50.900
X58.000Y48.900
X58.000Y12.900
X27.235Y48.200
X19.180Y48.480
X32.668Y0.900
X45.334Y6.900
X42.500Y14.350
X27.275Y43.000
X13.669Y79.233
X7.336Y79.233
X33.000Y46.500
X15.950Y27.190
X7.330Y19.000
X33.100Y17.600
X26.335Y72.900
X26.335Y54.900
X23.200Y18.900
X45.334Y66.900
X9.698Y31.850
X1.003Y42.900
X32.668Y66.900
X13.669Y60.900
X20.002Y18.900
X41.350Y39.100
X39.001Y18.900
X1.003Y48.900
X11.180Y26.350
X35.750Y45.800
X7.336Y24.900
X39.001Y79.233
X6.400Y41.900
X58.000Y72.900
X1.003Y12.900
X54.450Y15.400
X41.950Y52.800
X1.003Y54.900
X7.336Y0.900
X51.667Y66.900
X37.550Y39.100
X51.667Y60.900
X1.003Y24.900
X51.667Y48.900
X20.002Y6.900
X13.669Y72.900
X13.669Y54.900
X34.960Y49.000
X9.600Y49.900
X58.000Y30.900
X58.000Y42.900
X32.668Y6.300
T7
X26.000Y40.800
X32.200Y56.900
X17.690Y21.690
X37.870Y31.560
X24.600Y37.900
X26.000Y48.860
X19.710Y56.910
X51.130Y25.050
X7.440Y20.270
X17.800Y34.700
X13.840Y33.800
X15.100Y40.800
T4
X48.340Y4.770
X45.800Y2.230
X43.260Y4.770
X16.075Y29.065
X23.320Y33.390
X23.420Y35.180
X16.075Y29.065
X4.950Y48.080
X51.972Y35.578
X12.500Y47.730
X18.500Y36.490
X19.890Y26.740
X23.320Y31.140
X14.850Y19.000
T8
X36.050Y44.300
X32.950Y11.650
T5
X23.210Y2.570
X25.750Y2.570
X28.290Y2.570
T3
X30.750Y62.400
X28.250Y62.400
X32.890Y3.300
X40.510Y3.300
X52.450Y3.650
X54.950Y3.650
X4.050Y3.680
X6.550Y3.680
X27.510Y32.070
X28.200Y22.800
X51.150Y16.100
X34.800Y32.070
T1
X43.000Y51.200
X53.000Y51.200
X48.000Y51.200
X43.000Y20.900
X53.000Y20.900
X48.000Y20.900
X6.000Y51.200
X16.000Y51.200
X11.000Y51.200
X43.200Y44.300
T2
X23.750Y63.250
X23.750Y75.700
X7.450Y75.700
X23.750Y69.450
X7.450Y69.450
X7.450Y63.250
X51.550Y63.250
X51.550Y75.700
X35.250Y75.700
X51.550Y69.450
X35.250Y69.450
X35.250Y63.250
X11.000Y36.900
X16.080Y36.900
X5.920Y36.900
M30
