%FSLAX46Y46*%
%MOMM*%
%AMPS12*
1,1,2.300000,0.000000,0.000000*
%
%ADD12PS12*%
%AMPS60*
1,1,1.800000,0.000000,0.000000*
%
%ADD60PS60*%
%AMPS29*
1,1,2.400000,0.000000,0.000000*
%
%ADD29PS29*%
%AMPS59*
1,1,1.500000,0.000000,0.000000*
%
%ADD59PS59*%
%AMPS50*
1,1,1.900000,0.000000,0.000000*
%
%ADD50PS50*%
%AMPS42*
1,1,1.900000,0.000000,0.000000*
%
%ADD42PS42*%
%AMPS47*
1,1,1.900000,0.000000,0.000000*
%
%ADD47PS47*%
%AMPS61*
1,1,2.400000,0.000000,0.000000*
%
%ADD61PS61*%
%AMPS55*
21,1,1.794948,2.941421,0.000000,0.000000,0.000000*
%
%ADD55PS55*%
%AMPS56*
21,1,1.794948,2.941421,0.000000,0.000000,180.000000*
%
%ADD56PS56*%
%AMPS13*
21,1,1.800000,3.150000,0.000000,0.000000,0.000000*
%
%ADD13PS13*%
%AMPS14*
21,1,1.800000,3.150000,0.000000,0.000000,180.000000*
%
%ADD14PS14*%
%AMPS36*
21,1,0.800000,1.750000,0.000000,0.000000,0.000000*
%
%ADD36PS36*%
%AMPS45*
21,1,0.800000,1.750000,0.000000,0.000000,90.000000*
%
%ADD45PS45*%
%AMPS37*
21,1,0.800000,1.750000,0.000000,0.000000,180.000000*
%
%ADD37PS37*%
%AMPS46*
21,1,0.800000,1.750000,0.000000,0.000000,270.000000*
%
%ADD46PS46*%
%AMPS41*
21,1,1.800000,2.700000,0.000000,0.000000,0.000000*
%
%ADD41PS41*%
%AMPS51*
21,1,1.800000,2.700000,0.000000,0.000000,90.000000*
%
%ADD51PS51*%
%AMPS40*
21,1,1.800000,2.700000,0.000000,0.000000,180.000000*
%
%ADD40PS40*%
%AMPS52*
21,1,1.800000,2.700000,0.000000,0.000000,270.000000*
%
%ADD52PS52*%
%AMPS48*
21,1,1.100000,1.200000,0.000000,0.000000,0.000000*
%
%ADD48PS48*%
%AMPS23*
21,1,1.100000,1.200000,0.000000,0.000000,90.000000*
%
%ADD23PS23*%
%AMPS49*
21,1,1.100000,1.200000,0.000000,0.000000,180.000000*
%
%ADD49PS49*%
%AMPS24*
21,1,1.100000,1.200000,0.000000,0.000000,270.000000*
%
%ADD24PS24*%
%AMPS58*
21,1,0.600000,1.100000,0.000000,0.000000,0.000000*
%
%ADD58PS58*%
%AMPS17*
21,1,0.600000,1.100000,0.000000,0.000000,90.000000*
%
%ADD17PS17*%
%AMPS57*
21,1,0.600000,1.100000,0.000000,0.000000,180.000000*
%
%ADD57PS57*%
%AMPS18*
21,1,0.600000,1.100000,0.000000,0.000000,270.000000*
%
%ADD18PS18*%
%AMPS34*
21,1,0.750000,1.450000,0.000000,0.000000,90.000000*
%
%ADD34PS34*%
%AMPS35*
21,1,0.750000,1.450000,0.000000,0.000000,270.000000*
%
%ADD35PS35*%
%AMPS54*
21,1,0.800000,2.000000,0.000000,0.000000,0.000000*
%
%ADD54PS54*%
%AMPS53*
21,1,0.800000,2.000000,0.000000,0.000000,180.000000*
%
%ADD53PS53*%
%AMPS39*
21,1,0.901421,1.691421,0.000000,0.000000,90.000000*
%
%ADD39PS39*%
%AMPS38*
21,1,0.901421,1.691421,0.000000,0.000000,270.000000*
%
%ADD38PS38*%
%AMPS30*
21,1,2.000000,1.400000,0.000000,0.000000,0.000000*
%
%ADD30PS30*%
%AMPS43*
21,1,2.000000,1.400000,0.000000,0.000000,90.000000*
%
%ADD43PS43*%
%AMPS31*
21,1,2.000000,1.400000,0.000000,0.000000,180.000000*
%
%ADD31PS31*%
%AMPS44*
21,1,2.000000,1.400000,0.000000,0.000000,270.000000*
%
%ADD44PS44*%
%AMPS10*
21,1,2.500000,1.100000,0.000000,0.000000,90.000000*
%
%ADD10PS10*%
%AMPS11*
21,1,2.500000,1.100000,0.000000,0.000000,270.000000*
%
%ADD11PS11*%
%AMPS19*
21,1,1.100000,0.700000,0.000000,0.000000,0.000000*
%
%ADD19PS19*%
%AMPS22*
21,1,1.100000,0.700000,0.000000,0.000000,90.000000*
%
%ADD22PS22*%
%AMPS20*
21,1,1.100000,0.700000,0.000000,0.000000,180.000000*
%
%ADD20PS20*%
%AMPS21*
21,1,1.100000,0.700000,0.000000,0.000000,270.000000*
%
%ADD21PS21*%
%AMPS25*
21,1,1.900000,1.300000,0.000000,0.000000,90.000000*
%
%ADD25PS25*%
%AMPS26*
21,1,1.900000,1.300000,0.000000,0.000000,270.000000*
%
%ADD26PS26*%
%AMPS62*
21,1,0.900000,1.100000,0.000000,0.000000,0.000000*
%
%ADD62PS62*%
%AMPS63*
21,1,0.900000,1.100000,0.000000,0.000000,180.000000*
%
%ADD63PS63*%
%AMPS33*
21,1,1.050000,1.000000,0.000000,0.000000,0.000000*
%
%ADD33PS33*%
%AMPS16*
21,1,1.050000,1.000000,0.000000,0.000000,90.000000*
%
%ADD16PS16*%
%AMPS32*
21,1,1.050000,1.000000,0.000000,0.000000,180.000000*
%
%ADD32PS32*%
%AMPS15*
21,1,1.050000,1.000000,0.000000,0.000000,270.000000*
%
%ADD15PS15*%
%AMPS28*
21,1,1.950000,2.850000,0.000000,0.000000,0.000000*
%
%ADD28PS28*%
%AMPS27*
21,1,1.950000,2.850000,0.000000,0.000000,180.000000*
%
%ADD27PS27*%
%AMPS67*
1,1,1.000000,0.000000,0.000000*
%
%ADD67PS67*%
%AMPS68*
1,1,1.200000,0.000000,0.000000*
%
%ADD68PS68*%
%AMPS64*
1,1,0.550000,0.000000,0.000000*
%
%ADD64PS64*%
%AMPS69*
1,1,1.600000,0.000000,0.000000*
%
%ADD69PS69*%
%AMPS70*
1,1,0.500000,0.000000,0.000000*
%
%ADD70PS70*%
%AMPS65*
1,1,0.700000,0.000000,0.000000*
%
%ADD65PS65*%
%AMPS66*
1,1,0.800000,0.000000,0.000000*
%
%ADD66PS66*%
G01*
G01*
%LPD*%
G75*
D10*
X8298466Y31850000D03*
D11*
X5561534Y31850000D03*
D12*
X43000000Y51200000D03*
D12*
X53000000Y51200000D03*
D12*
X48000000Y51200000D03*
D13*
X39450000Y39100000D03*
D14*
X39450000Y44300000D03*
D15*
X50471668Y34078328D03*
D16*
X51971668Y34078328D03*
D17*
X28775000Y46480000D03*
D18*
X26575000Y46480000D03*
D19*
X48070000Y24930000D03*
D20*
X48070000Y26430000D03*
D11*
X52943068Y25050000D03*
D10*
X55680000Y25050000D03*
D21*
X7550000Y41120000D03*
D22*
X9050000Y41120000D03*
D22*
X14750000Y27190000D03*
D21*
X13250000Y27190000D03*
D12*
X43000000Y20900000D03*
D12*
X53000000Y20900000D03*
D12*
X48000000Y20900000D03*
D23*
X14900000Y47180000D03*
D24*
X12700000Y46230000D03*
D23*
X14900000Y45280000D03*
D20*
X24560000Y16910000D03*
D19*
X24560000Y15410000D03*
D25*
X32800000Y32070000D03*
D26*
X29600000Y32070000D03*
D27*
X39450000Y52800000D03*
D28*
X39450000Y48500000D03*
D24*
X12700000Y41350000D03*
D23*
X14900000Y42300000D03*
D24*
X12700000Y43250000D03*
D29*
X23750000Y63250000D03*
D29*
X23750000Y75700000D03*
D29*
X7450000Y75700000D03*
D29*
X23750000Y69450000D03*
D29*
X7450000Y69450000D03*
D29*
X7450000Y63250000D03*
D30*
X10250000Y45280000D03*
D31*
X10250000Y48180000D03*
D21*
X14918466Y21690000D03*
D22*
X16418466Y21690000D03*
D20*
X42580000Y29410000D03*
D19*
X42580000Y27910000D03*
D20*
X3610160Y26850000D03*
D19*
X3610160Y25350000D03*
D19*
X42580000Y24930000D03*
D20*
X42580000Y26430000D03*
D32*
X42500000Y13150000D03*
D33*
X42500000Y11650000D03*
D24*
X17690000Y27290000D03*
D23*
X19890000Y28240000D03*
D24*
X17690000Y29190000D03*
D34*
X11180000Y25350000D03*
D35*
X5830160Y22810000D03*
D34*
X11180000Y19000000D03*
D35*
X5830160Y24080000D03*
D35*
X5830160Y21540000D03*
D35*
X5830160Y17730000D03*
D34*
X11180000Y22810000D03*
D35*
X5830160Y16460000D03*
D34*
X11180000Y16460000D03*
D34*
X11180000Y21540000D03*
D34*
X11180000Y17730000D03*
D34*
X11180000Y20270000D03*
D35*
X5830160Y20270000D03*
D34*
X11180000Y24080000D03*
D35*
X5830160Y25350000D03*
D35*
X5830160Y19000000D03*
D21*
X20420000Y33390000D03*
D22*
X21920000Y33390000D03*
D20*
X54180000Y30950000D03*
D19*
X54180000Y29450000D03*
D20*
X46240000Y26430000D03*
D19*
X46240000Y24930000D03*
D36*
X27110000Y8030000D03*
D36*
X24560000Y8030000D03*
D36*
X23290000Y8030000D03*
D37*
X23290000Y13370000D03*
D37*
X25840000Y13370000D03*
D36*
X25840000Y8030000D03*
D37*
X27110000Y13370000D03*
D37*
X24560000Y13370000D03*
D26*
X37400000Y7900000D03*
D25*
X40600000Y7900000D03*
D38*
X21625000Y49290000D03*
D39*
X28775000Y51830000D03*
D39*
X28775000Y56910000D03*
D39*
X28775000Y54370000D03*
D38*
X21625000Y51830000D03*
D38*
X21625000Y56910000D03*
D39*
X28775000Y49290000D03*
D38*
X21625000Y54370000D03*
D40*
X38700000Y14950000D03*
D41*
X38700000Y11650000D03*
D32*
X48200000Y13150000D03*
D33*
X48200000Y11650000D03*
D19*
X8560000Y27340000D03*
D20*
X8560000Y28840000D03*
D42*
X30750000Y62400000D03*
D42*
X28250000Y62400000D03*
D21*
X5270000Y27340000D03*
D22*
X6770000Y27340000D03*
D20*
X21270000Y13930000D03*
D19*
X21270000Y12430000D03*
D26*
X29600000Y29170000D03*
D25*
X32800000Y29170000D03*
D22*
X8100000Y45280000D03*
D21*
X6600000Y45280000D03*
D20*
X18500000Y39290000D03*
D19*
X18500000Y37790000D03*
D12*
X6000000Y51200000D03*
D12*
X16000000Y51200000D03*
D12*
X11000000Y51200000D03*
D22*
X14775000Y29065000D03*
D21*
X13275000Y29065000D03*
D13*
X31200000Y17600000D03*
D14*
X31200000Y22800000D03*
D21*
X54180000Y27800000D03*
D22*
X55680000Y27800000D03*
D43*
X42380000Y31560000D03*
D44*
X39480000Y31560000D03*
D19*
X17200000Y41890000D03*
D20*
X17200000Y43390000D03*
D45*
X51971668Y32098328D03*
D45*
X51971668Y29548328D03*
D45*
X51971668Y28278328D03*
D46*
X46631668Y28278328D03*
D46*
X46631668Y30828328D03*
D45*
X51971668Y30828328D03*
D46*
X46631668Y32098328D03*
D46*
X46631668Y29548328D03*
D20*
X44410000Y32210000D03*
D19*
X44410000Y30710000D03*
D23*
X19180000Y47180000D03*
D24*
X16980000Y46230000D03*
D23*
X19180000Y45280000D03*
D17*
X9050000Y43100000D03*
D18*
X6850000Y43100000D03*
D47*
X32890000Y3300000D03*
D47*
X40510000Y3300000D03*
D48*
X22320000Y37090000D03*
D49*
X21370000Y39290000D03*
D48*
X20420000Y37090000D03*
D43*
X16740000Y31690000D03*
D44*
X13840000Y31690000D03*
D50*
X52450000Y3650000D03*
D50*
X54950000Y3650000D03*
D20*
X44410000Y26430000D03*
D19*
X44410000Y24930000D03*
D33*
X13350000Y17500000D03*
D32*
X13350000Y19000000D03*
D20*
X11810000Y32440000D03*
D19*
X11810000Y30940000D03*
D48*
X32560000Y44300000D03*
D49*
X31610000Y46500000D03*
D48*
X30660000Y44300000D03*
D51*
X54450000Y13700000D03*
D52*
X51150000Y13700000D03*
D15*
X5270000Y29140000D03*
D16*
X6770000Y29140000D03*
D20*
X11600000Y28840000D03*
D19*
X11600000Y27340000D03*
D53*
X31160000Y55300000D03*
D54*
X33660000Y49000000D03*
D54*
X31160000Y49000000D03*
D53*
X33660000Y55300000D03*
D55*
X48350000Y39250001D03*
D56*
X48350000Y44149999D03*
D14*
X31200000Y41000000D03*
D13*
X31200000Y35800000D03*
D57*
X19180000Y43390000D03*
D58*
X19180000Y41190000D03*
D15*
X20420000Y35180000D03*
D16*
X21920000Y35180000D03*
D19*
X4950000Y45280000D03*
D20*
X4950000Y46780000D03*
D21*
X20420000Y31140000D03*
D22*
X21920000Y31140000D03*
D22*
X8100000Y47110000D03*
D21*
X6600000Y47110000D03*
D10*
X16418466Y24440000D03*
D11*
X13681534Y24440000D03*
D26*
X29600000Y26270000D03*
D25*
X32800000Y26270000D03*
D19*
X18770000Y30940000D03*
D20*
X18770000Y32440000D03*
D15*
X27275000Y44300000D03*
D16*
X28775000Y44300000D03*
D59*
X48340000Y4770000D03*
D59*
X45800000Y2230000D03*
D59*
X43260000Y4770000D03*
D16*
X22620000Y43390000D03*
D15*
X21120000Y43390000D03*
D33*
X10780000Y41600000D03*
D32*
X10780000Y43100000D03*
D29*
X51550000Y63250000D03*
D29*
X51550000Y75700000D03*
D29*
X35250000Y75700000D03*
D29*
X51550000Y69450000D03*
D29*
X35250000Y69450000D03*
D29*
X35250000Y63250000D03*
D21*
X21120000Y41610000D03*
D22*
X22620000Y41610000D03*
D33*
X29080000Y11870000D03*
D32*
X29080000Y13370000D03*
D60*
X23210000Y2570000D03*
D60*
X25750000Y2570000D03*
D60*
X28290000Y2570000D03*
D48*
X46300000Y11650000D03*
D49*
X45350000Y13850000D03*
D48*
X44400000Y11650000D03*
D32*
X34450000Y45800000D03*
D33*
X34450000Y44300000D03*
D50*
X4050000Y3680000D03*
D50*
X6550000Y3680000D03*
D61*
X11000000Y36900000D03*
D61*
X16080000Y36900000D03*
D61*
X5920000Y36900000D03*
D62*
X21270000Y15710000D03*
D62*
X22570000Y15710000D03*
D63*
X21920000Y17610000D03*
D64*
X58000000Y60900000D03*
D64*
X1003000Y60900000D03*
D65*
X26000000Y40800000D03*
D64*
X51667000Y900000D03*
D65*
X32200000Y56900000D03*
D65*
X17690000Y21690000D03*
D64*
X26335000Y900000D03*
D64*
X1003000Y66900000D03*
D65*
X37870000Y31560000D03*
D64*
X45334000Y900000D03*
D66*
X16075000Y29065000D03*
D64*
X51667000Y79233000D03*
D65*
X24600000Y37900000D03*
D64*
X39001000Y900000D03*
D65*
X26000000Y48860000D03*
D66*
X23320000Y33390000D03*
D64*
X26335000Y79233000D03*
D65*
X19710000Y56910000D03*
D67*
X36050000Y44300000D03*
D64*
X45334000Y79233000D03*
D66*
X23420000Y35180000D03*
D66*
X16075000Y29065000D03*
D64*
X58000000Y36900000D03*
D64*
X20002000Y900000D03*
D64*
X1003000Y18900000D03*
D68*
X27510000Y32070000D03*
D65*
X51130000Y25050000D03*
D64*
X1003000Y72900000D03*
D64*
X1003000Y900000D03*
D66*
X4950000Y48080000D03*
D64*
X1003000Y6900000D03*
D64*
X20002000Y79233000D03*
D66*
X51971668Y35578328D03*
D64*
X58000000Y900000D03*
D64*
X58000000Y6900000D03*
D69*
X43200000Y44300000D03*
D64*
X13669000Y900000D03*
D64*
X58000000Y24900000D03*
D64*
X26335000Y66900000D03*
D64*
X58000000Y66900000D03*
D66*
X12500000Y47730000D03*
D64*
X32668000Y79233000D03*
D68*
X28200000Y22800000D03*
D64*
X32668000Y72900000D03*
D64*
X58000000Y54900000D03*
D64*
X1003000Y36900000D03*
D64*
X58000000Y18900000D03*
D64*
X1003000Y30900000D03*
D64*
X58000000Y48900000D03*
D70*
X48291668Y29548328D03*
D66*
X18500000Y36490000D03*
D64*
X58000000Y12900000D03*
D65*
X7440000Y20270000D03*
D68*
X51150000Y16100000D03*
D64*
X32668000Y900000D03*
D64*
X13669000Y79233000D03*
D64*
X7336000Y79233000D03*
D66*
X19890000Y26740000D03*
D64*
X26335000Y72900000D03*
D65*
X17800000Y34700000D03*
D66*
X23320000Y31140000D03*
D66*
X14850000Y19000000D03*
D64*
X1003000Y42900000D03*
D64*
X32668000Y66900000D03*
D65*
X13840000Y33800000D03*
D64*
X1003000Y48900000D03*
D65*
X15100000Y40800000D03*
D64*
X39001000Y79233000D03*
D64*
X58000000Y72900000D03*
D64*
X1003000Y12900000D03*
D68*
X34800000Y32070000D03*
D64*
X1003000Y54900000D03*
D64*
X7336000Y900000D03*
D64*
X1003000Y24900000D03*
D67*
X32950000Y11650000D03*
D64*
X58000000Y30900000D03*
D64*
X58000000Y42900000D03*
D70*
X50311668Y28278328D03*
M02*
