%FSLAX46Y46*%
%MOMM*%
%ADD10C,0.300000*%
%ADD11C,0.800000*%
%AMPS12*
1,1,2.100000,0.000000,0.000000*
%
%ADD12PS12*%
%AMPS18*
1,1,1.600000,0.000000,0.000000*
%
%ADD18PS18*%
%AMPS13*
1,1,2.200000,0.000000,0.000000*
%
%ADD13PS13*%
%AMPS17*
1,1,1.300000,0.000000,0.000000*
%
%ADD17PS17*%
%AMPS16*
1,1,1.700000,0.000000,0.000000*
%
%ADD16PS16*%
%AMPS14*
1,1,1.700000,0.000000,0.000000*
%
%ADD14PS14*%
%AMPS15*
1,1,1.700000,0.000000,0.000000*
%
%ADD15PS15*%
%AMPS19*
1,1,2.200000,0.000000,0.000000*
%
%ADD19PS19*%
%AMPS24*
1,1,1.200000,0.000000,0.000000*
%
%ADD24PS24*%
%AMPS25*
1,1,1.400000,0.000000,0.000000*
%
%ADD25PS25*%
%AMPS21*
1,1,0.700000,0.000000,0.000000*
%
%ADD21PS21*%
%AMPS26*
1,1,1.600000,0.000000,0.000000*
%
%ADD26PS26*%
%AMPS27*
1,1,0.700000,0.000000,0.000000*
%
%ADD27PS27*%
%AMPS22*
1,1,0.900000,0.000000,0.000000*
%
%ADD22PS22*%
%AMPS23*
1,1,1.000000,0.000000,0.000000*
%
%ADD23PS23*%
%AMPS20*
1,1,0.700000,0.000000,0.000000*
%
%ADD20PS20*%
G01*
%LPD*%
G36*
X58690000Y310000D02*
X58690000Y73590000D01*
X52690000Y73590000D01*
X52690000Y74900353D01*
X52561978Y74949736D01*
X52437551Y74812449D01*
X52346283Y74729730D01*
X52247346Y74656353D01*
X52141685Y74593022D01*
X52030336Y74540358D01*
X51914364Y74498862D01*
X51794879Y74468933D01*
X51673030Y74450858D01*
X51550000Y74444813D01*
X51426970Y74450858D01*
X51305121Y74468933D01*
X51185636Y74498862D01*
X51069664Y74540358D01*
X50958315Y74593022D01*
X50852654Y74656353D01*
X50753717Y74729730D01*
X50662449Y74812449D01*
X50579730Y74903717D01*
X50506353Y75002654D01*
X50443022Y75108315D01*
X50390358Y75219664D01*
X50348862Y75335636D01*
X50318933Y75455121D01*
X50300858Y75576970D01*
X50294813Y75700000D01*
X50300858Y75823030D01*
X50318933Y75944879D01*
X50348862Y76064364D01*
X50390358Y76180336D01*
X50443022Y76291685D01*
X50506353Y76397346D01*
X50579730Y76496283D01*
X50662449Y76587551D01*
X50753717Y76670270D01*
X50852654Y76743647D01*
X50958315Y76806978D01*
X51069664Y76859642D01*
X51185636Y76901138D01*
X51305121Y76931067D01*
X51426970Y76949142D01*
X51550000Y76955187D01*
X51673030Y76949142D01*
X51794879Y76931067D01*
X51914364Y76901138D01*
X52030336Y76859642D01*
X52141685Y76806978D01*
X52247346Y76743647D01*
X52346283Y76670270D01*
X52437551Y76587551D01*
X52561978Y76450264D01*
X52690000Y76499647D01*
X52690000Y80590000D01*
X31810000Y80590000D01*
X31810000Y65490000D01*
X27190000Y65490000D01*
X27190000Y80590000D01*
X6310000Y80590000D01*
X6310000Y76529430D01*
X6438021Y76480047D01*
X6548290Y76601710D01*
X6641013Y76685749D01*
X6741533Y76760300D01*
X6848872Y76824636D01*
X6962000Y76878142D01*
X7079824Y76920300D01*
X7201213Y76950706D01*
X7325008Y76969070D01*
X7345000Y76970052D01*
X7345000Y74429948D01*
X7325008Y74430930D01*
X7201213Y74449294D01*
X7079824Y74479700D01*
X6962000Y74521858D01*
X6848872Y74575364D01*
X6741533Y74639700D01*
X6641013Y74714251D01*
X6548290Y74798290D01*
X6438021Y74919953D01*
X6310000Y74870570D01*
X6310000Y73590000D01*
X310000Y73590000D01*
X310000Y310000D01*
X58690000Y310000D01*
D02*
G37*
%LPC*%
G36*
X8720052Y75805000D02*
X7555000Y75805000D01*
X7555000Y76970052D01*
X7574992Y76969070D01*
X7698787Y76950706D01*
X7820176Y76920300D01*
X7938000Y76878142D01*
X8051128Y76824636D01*
X8158467Y76760300D01*
X8258987Y76685749D01*
X8351710Y76601710D01*
X8435749Y76508987D01*
X8510300Y76408467D01*
X8574636Y76301128D01*
X8628142Y76188000D01*
X8670300Y76070176D01*
X8700706Y75948787D01*
X8719070Y75824992D01*
X8720052Y75805000D01*
D02*
G37*
%LPC*%
G36*
X35145000Y75805000D02*
X33979948Y75805000D01*
X33980930Y75824992D01*
X33999294Y75948787D01*
X34029700Y76070176D01*
X34071858Y76188000D01*
X34125364Y76301128D01*
X34189700Y76408467D01*
X34264251Y76508987D01*
X34348290Y76601710D01*
X34441013Y76685749D01*
X34541533Y76760300D01*
X34648872Y76824636D01*
X34762000Y76878142D01*
X34879824Y76920300D01*
X35001213Y76950706D01*
X35125008Y76969070D01*
X35145000Y76970052D01*
X35145000Y75805000D01*
D02*
G37*
%LPC*%
G36*
X36520052Y75805000D02*
X35355000Y75805000D01*
X35355000Y76970052D01*
X35374992Y76969070D01*
X35498787Y76950706D01*
X35620176Y76920300D01*
X35738000Y76878142D01*
X35851128Y76824636D01*
X35958467Y76760300D01*
X36058987Y76685749D01*
X36151710Y76601710D01*
X36235749Y76508987D01*
X36310300Y76408467D01*
X36374636Y76301128D01*
X36428142Y76188000D01*
X36470300Y76070176D01*
X36500706Y75948787D01*
X36519070Y75824992D01*
X36520052Y75805000D01*
D02*
G37*
%LPC*%
G36*
X23750000Y74444813D02*
X23626970Y74450858D01*
X23505121Y74468933D01*
X23385636Y74498862D01*
X23269664Y74540358D01*
X23158315Y74593022D01*
X23052654Y74656353D01*
X22953717Y74729730D01*
X22862449Y74812449D01*
X22779730Y74903717D01*
X22706353Y75002654D01*
X22643022Y75108315D01*
X22590358Y75219664D01*
X22548862Y75335636D01*
X22518933Y75455121D01*
X22500858Y75576970D01*
X22494813Y75700000D01*
X22500858Y75823030D01*
X22518933Y75944879D01*
X22548862Y76064364D01*
X22590358Y76180336D01*
X22643022Y76291685D01*
X22706353Y76397346D01*
X22779730Y76496283D01*
X22862449Y76587551D01*
X22953717Y76670270D01*
X23052654Y76743647D01*
X23158315Y76806978D01*
X23269664Y76859642D01*
X23385636Y76901138D01*
X23505121Y76931067D01*
X23626970Y76949142D01*
X23750000Y76955187D01*
X23873030Y76949142D01*
X23994879Y76931067D01*
X24114364Y76901138D01*
X24230336Y76859642D01*
X24341685Y76806978D01*
X24447346Y76743647D01*
X24546283Y76670270D01*
X24637551Y76587551D01*
X24720270Y76496283D01*
X24793647Y76397346D01*
X24856978Y76291685D01*
X24909642Y76180336D01*
X24951138Y76064364D01*
X24981067Y75944879D01*
X24999142Y75823030D01*
X25005187Y75700000D01*
X24999142Y75576970D01*
X24981067Y75455121D01*
X24951138Y75335636D01*
X24909642Y75219664D01*
X24856978Y75108315D01*
X24793647Y75002654D01*
X24720270Y74903717D01*
X24637551Y74812449D01*
X24546283Y74729730D01*
X24447346Y74656353D01*
X24341685Y74593022D01*
X24230336Y74540358D01*
X24114364Y74498862D01*
X23994879Y74468933D01*
X23873030Y74450858D01*
X23750000Y74444813D01*
D02*
G37*
%LPC*%
G36*
X35355000Y74429948D02*
X35355000Y75595000D01*
X36520052Y75595000D01*
X36519070Y75575008D01*
X36500706Y75451213D01*
X36470300Y75329824D01*
X36428142Y75212000D01*
X36374636Y75098872D01*
X36310300Y74991533D01*
X36235749Y74891013D01*
X36151710Y74798290D01*
X36058987Y74714251D01*
X35958467Y74639700D01*
X35851128Y74575364D01*
X35738000Y74521858D01*
X35620176Y74479700D01*
X35498787Y74449294D01*
X35374992Y74430930D01*
X35355000Y74429948D01*
D02*
G37*
%LPC*%
G36*
X35145000Y74429948D02*
X35125008Y74430930D01*
X35001213Y74449294D01*
X34879824Y74479700D01*
X34762000Y74521858D01*
X34648872Y74575364D01*
X34541533Y74639700D01*
X34441013Y74714251D01*
X34348290Y74798290D01*
X34264251Y74891013D01*
X34189700Y74991533D01*
X34125364Y75098872D01*
X34071858Y75212000D01*
X34029700Y75329824D01*
X33999294Y75451213D01*
X33980930Y75575008D01*
X33979948Y75595000D01*
X35145000Y75595000D01*
X35145000Y74429948D01*
D02*
G37*
%LPC*%
G36*
X7555000Y74429948D02*
X7555000Y75595000D01*
X8720052Y75595000D01*
X8719070Y75575008D01*
X8700706Y75451213D01*
X8670300Y75329824D01*
X8628142Y75212000D01*
X8574636Y75098872D01*
X8510300Y74991533D01*
X8435749Y74891013D01*
X8351710Y74798290D01*
X8258987Y74714251D01*
X8158467Y74639700D01*
X8051128Y74575364D01*
X7938000Y74521858D01*
X7820176Y74479700D01*
X7698787Y74449294D01*
X7574992Y74430930D01*
X7555000Y74429948D01*
D02*
G37*
%LPC*%
G36*
X7450000Y68194813D02*
X7326970Y68200858D01*
X7205121Y68218933D01*
X7085636Y68248862D01*
X6969664Y68290358D01*
X6858315Y68343022D01*
X6752654Y68406353D01*
X6653717Y68479730D01*
X6562449Y68562449D01*
X6479730Y68653717D01*
X6406353Y68752654D01*
X6343022Y68858315D01*
X6290358Y68969664D01*
X6248862Y69085636D01*
X6218933Y69205121D01*
X6200858Y69326970D01*
X6194813Y69450000D01*
X6200858Y69573030D01*
X6218933Y69694879D01*
X6248862Y69814364D01*
X6290358Y69930336D01*
X6343022Y70041685D01*
X6406353Y70147346D01*
X6479730Y70246283D01*
X6562449Y70337551D01*
X6653717Y70420270D01*
X6752654Y70493647D01*
X6858315Y70556978D01*
X6969664Y70609642D01*
X7085636Y70651138D01*
X7205121Y70681067D01*
X7326970Y70699142D01*
X7450000Y70705187D01*
X7573030Y70699142D01*
X7694879Y70681067D01*
X7814364Y70651138D01*
X7930336Y70609642D01*
X8041685Y70556978D01*
X8147346Y70493647D01*
X8246283Y70420270D01*
X8337551Y70337551D01*
X8420270Y70246283D01*
X8493647Y70147346D01*
X8556978Y70041685D01*
X8609642Y69930336D01*
X8651138Y69814364D01*
X8681067Y69694879D01*
X8699142Y69573030D01*
X8705187Y69450000D01*
X8699142Y69326970D01*
X8681067Y69205121D01*
X8651138Y69085636D01*
X8609642Y68969664D01*
X8556978Y68858315D01*
X8493647Y68752654D01*
X8420270Y68653717D01*
X8337551Y68562449D01*
X8246283Y68479730D01*
X8147346Y68406353D01*
X8041685Y68343022D01*
X7930336Y68290358D01*
X7814364Y68248862D01*
X7694879Y68218933D01*
X7573030Y68200858D01*
X7450000Y68194813D01*
D02*
G37*
%LPC*%
G36*
X23750000Y68194813D02*
X23626970Y68200858D01*
X23505121Y68218933D01*
X23385636Y68248862D01*
X23269664Y68290358D01*
X23158315Y68343022D01*
X23052654Y68406353D01*
X22953717Y68479730D01*
X22862449Y68562449D01*
X22779730Y68653717D01*
X22706353Y68752654D01*
X22643022Y68858315D01*
X22590358Y68969664D01*
X22548862Y69085636D01*
X22518933Y69205121D01*
X22500858Y69326970D01*
X22494813Y69450000D01*
X22500858Y69573030D01*
X22518933Y69694879D01*
X22548862Y69814364D01*
X22590358Y69930336D01*
X22643022Y70041685D01*
X22706353Y70147346D01*
X22779730Y70246283D01*
X22862449Y70337551D01*
X22953717Y70420270D01*
X23052654Y70493647D01*
X23158315Y70556978D01*
X23269664Y70609642D01*
X23385636Y70651138D01*
X23505121Y70681067D01*
X23626970Y70699142D01*
X23750000Y70705187D01*
X23873030Y70699142D01*
X23994879Y70681067D01*
X24114364Y70651138D01*
X24230336Y70609642D01*
X24341685Y70556978D01*
X24447346Y70493647D01*
X24546283Y70420270D01*
X24637551Y70337551D01*
X24720270Y70246283D01*
X24793647Y70147346D01*
X24856978Y70041685D01*
X24909642Y69930336D01*
X24951138Y69814364D01*
X24981067Y69694879D01*
X24999142Y69573030D01*
X25005187Y69450000D01*
X24999142Y69326970D01*
X24981067Y69205121D01*
X24951138Y69085636D01*
X24909642Y68969664D01*
X24856978Y68858315D01*
X24793647Y68752654D01*
X24720270Y68653717D01*
X24637551Y68562449D01*
X24546283Y68479730D01*
X24447346Y68406353D01*
X24341685Y68343022D01*
X24230336Y68290358D01*
X24114364Y68248862D01*
X23994879Y68218933D01*
X23873030Y68200858D01*
X23750000Y68194813D01*
D02*
G37*
%LPC*%
G36*
X35250000Y68194813D02*
X35126970Y68200858D01*
X35005121Y68218933D01*
X34885636Y68248862D01*
X34769664Y68290358D01*
X34658315Y68343022D01*
X34552654Y68406353D01*
X34453717Y68479730D01*
X34362449Y68562449D01*
X34279730Y68653717D01*
X34206353Y68752654D01*
X34143022Y68858315D01*
X34090358Y68969664D01*
X34048862Y69085636D01*
X34018933Y69205121D01*
X34000858Y69326970D01*
X33994813Y69450000D01*
X34000858Y69573030D01*
X34018933Y69694879D01*
X34048862Y69814364D01*
X34090358Y69930336D01*
X34143022Y70041685D01*
X34206353Y70147346D01*
X34279730Y70246283D01*
X34362449Y70337551D01*
X34453717Y70420270D01*
X34552654Y70493647D01*
X34658315Y70556978D01*
X34769664Y70609642D01*
X34885636Y70651138D01*
X35005121Y70681067D01*
X35126970Y70699142D01*
X35250000Y70705187D01*
X35373030Y70699142D01*
X35494879Y70681067D01*
X35614364Y70651138D01*
X35730336Y70609642D01*
X35841685Y70556978D01*
X35947346Y70493647D01*
X36046283Y70420270D01*
X36137551Y70337551D01*
X36220270Y70246283D01*
X36293647Y70147346D01*
X36356978Y70041685D01*
X36409642Y69930336D01*
X36451138Y69814364D01*
X36481067Y69694879D01*
X36499142Y69573030D01*
X36505187Y69450000D01*
X36499142Y69326970D01*
X36481067Y69205121D01*
X36451138Y69085636D01*
X36409642Y68969664D01*
X36356978Y68858315D01*
X36293647Y68752654D01*
X36220270Y68653717D01*
X36137551Y68562449D01*
X36046283Y68479730D01*
X35947346Y68406353D01*
X35841685Y68343022D01*
X35730336Y68290358D01*
X35614364Y68248862D01*
X35494879Y68218933D01*
X35373030Y68200858D01*
X35250000Y68194813D01*
D02*
G37*
%LPC*%
G36*
X51550000Y68194813D02*
X51426970Y68200858D01*
X51305121Y68218933D01*
X51185636Y68248862D01*
X51069664Y68290358D01*
X50958315Y68343022D01*
X50852654Y68406353D01*
X50753717Y68479730D01*
X50662449Y68562449D01*
X50579730Y68653717D01*
X50506353Y68752654D01*
X50443022Y68858315D01*
X50390358Y68969664D01*
X50348862Y69085636D01*
X50318933Y69205121D01*
X50300858Y69326970D01*
X50294813Y69450000D01*
X50300858Y69573030D01*
X50318933Y69694879D01*
X50348862Y69814364D01*
X50390358Y69930336D01*
X50443022Y70041685D01*
X50506353Y70147346D01*
X50579730Y70246283D01*
X50662449Y70337551D01*
X50753717Y70420270D01*
X50852654Y70493647D01*
X50958315Y70556978D01*
X51069664Y70609642D01*
X51185636Y70651138D01*
X51305121Y70681067D01*
X51426970Y70699142D01*
X51550000Y70705187D01*
X51673030Y70699142D01*
X51794879Y70681067D01*
X51914364Y70651138D01*
X52030336Y70609642D01*
X52141685Y70556978D01*
X52247346Y70493647D01*
X52346283Y70420270D01*
X52437551Y70337551D01*
X52520270Y70246283D01*
X52593647Y70147346D01*
X52656978Y70041685D01*
X52709642Y69930336D01*
X52751138Y69814364D01*
X52781067Y69694879D01*
X52799142Y69573030D01*
X52805187Y69450000D01*
X52799142Y69326970D01*
X52781067Y69205121D01*
X52751138Y69085636D01*
X52709642Y68969664D01*
X52656978Y68858315D01*
X52593647Y68752654D01*
X52520270Y68653717D01*
X52437551Y68562449D01*
X52346283Y68479730D01*
X52247346Y68406353D01*
X52141685Y68343022D01*
X52030336Y68290358D01*
X51914364Y68248862D01*
X51794879Y68218933D01*
X51673030Y68200858D01*
X51550000Y68194813D01*
D02*
G37*
%LPC*%
G36*
X7450000Y61994813D02*
X7326970Y62000858D01*
X7205121Y62018933D01*
X7085636Y62048862D01*
X6969664Y62090358D01*
X6858315Y62143022D01*
X6752654Y62206353D01*
X6653717Y62279730D01*
X6562449Y62362449D01*
X6479730Y62453717D01*
X6406353Y62552654D01*
X6343022Y62658315D01*
X6290358Y62769664D01*
X6248862Y62885636D01*
X6218933Y63005121D01*
X6200858Y63126970D01*
X6194813Y63250000D01*
X6200858Y63373030D01*
X6218933Y63494879D01*
X6248862Y63614364D01*
X6290358Y63730336D01*
X6343022Y63841685D01*
X6406353Y63947346D01*
X6479730Y64046283D01*
X6562449Y64137551D01*
X6653717Y64220270D01*
X6752654Y64293647D01*
X6858315Y64356978D01*
X6969664Y64409642D01*
X7085636Y64451138D01*
X7205121Y64481067D01*
X7326970Y64499142D01*
X7450000Y64505187D01*
X7573030Y64499142D01*
X7694879Y64481067D01*
X7814364Y64451138D01*
X7930336Y64409642D01*
X8041685Y64356978D01*
X8147346Y64293647D01*
X8246283Y64220270D01*
X8337551Y64137551D01*
X8420270Y64046283D01*
X8493647Y63947346D01*
X8556978Y63841685D01*
X8609642Y63730336D01*
X8651138Y63614364D01*
X8681067Y63494879D01*
X8699142Y63373030D01*
X8705187Y63250000D01*
X8699142Y63126970D01*
X8681067Y63005121D01*
X8651138Y62885636D01*
X8609642Y62769664D01*
X8556978Y62658315D01*
X8493647Y62552654D01*
X8420270Y62453717D01*
X8337551Y62362449D01*
X8246283Y62279730D01*
X8147346Y62206353D01*
X8041685Y62143022D01*
X7930336Y62090358D01*
X7814364Y62048862D01*
X7694879Y62018933D01*
X7573030Y62000858D01*
X7450000Y61994813D01*
D02*
G37*
%LPC*%
G36*
X23750000Y61994813D02*
X23626970Y62000858D01*
X23505121Y62018933D01*
X23385636Y62048862D01*
X23269664Y62090358D01*
X23158315Y62143022D01*
X23052654Y62206353D01*
X22953717Y62279730D01*
X22862449Y62362449D01*
X22779730Y62453717D01*
X22706353Y62552654D01*
X22643022Y62658315D01*
X22590358Y62769664D01*
X22548862Y62885636D01*
X22518933Y63005121D01*
X22500858Y63126970D01*
X22494813Y63250000D01*
X22500858Y63373030D01*
X22518933Y63494879D01*
X22548862Y63614364D01*
X22590358Y63730336D01*
X22643022Y63841685D01*
X22706353Y63947346D01*
X22779730Y64046283D01*
X22862449Y64137551D01*
X22953717Y64220270D01*
X23052654Y64293647D01*
X23158315Y64356978D01*
X23269664Y64409642D01*
X23385636Y64451138D01*
X23505121Y64481067D01*
X23626970Y64499142D01*
X23750000Y64505187D01*
X23873030Y64499142D01*
X23994879Y64481067D01*
X24114364Y64451138D01*
X24230336Y64409642D01*
X24341685Y64356978D01*
X24447346Y64293647D01*
X24546283Y64220270D01*
X24637551Y64137551D01*
X24720270Y64046283D01*
X24793647Y63947346D01*
X24856978Y63841685D01*
X24909642Y63730336D01*
X24951138Y63614364D01*
X24981067Y63494879D01*
X24999142Y63373030D01*
X25005187Y63250000D01*
X24999142Y63126970D01*
X24981067Y63005121D01*
X24951138Y62885636D01*
X24909642Y62769664D01*
X24856978Y62658315D01*
X24793647Y62552654D01*
X24720270Y62453717D01*
X24637551Y62362449D01*
X24546283Y62279730D01*
X24447346Y62206353D01*
X24341685Y62143022D01*
X24230336Y62090358D01*
X24114364Y62048862D01*
X23994879Y62018933D01*
X23873030Y62000858D01*
X23750000Y61994813D01*
D02*
G37*
%LPC*%
G36*
X32200000Y56294812D02*
X32140690Y56297727D01*
X32081927Y56306443D01*
X32024326Y56320871D01*
X31968404Y56340881D01*
X31914719Y56366272D01*
X31863777Y56396806D01*
X31816076Y56432184D01*
X31772068Y56472068D01*
X31732184Y56516076D01*
X31696806Y56563777D01*
X31666272Y56614719D01*
X31640881Y56668404D01*
X31620871Y56724326D01*
X31606443Y56781927D01*
X31597727Y56840690D01*
X31594812Y56900000D01*
X31597727Y56959310D01*
X31606443Y57018073D01*
X31620871Y57075674D01*
X31640881Y57131596D01*
X31666272Y57185281D01*
X31696806Y57236223D01*
X31732184Y57283924D01*
X31772068Y57327932D01*
X31816076Y57367816D01*
X31863777Y57403194D01*
X31914719Y57433728D01*
X31968404Y57459119D01*
X32024326Y57479129D01*
X32081927Y57493557D01*
X32140690Y57502273D01*
X32199991Y57505187D01*
X32298312Y57500357D01*
X34895000Y60097047D01*
X34895000Y62045511D01*
X34769661Y62090360D01*
X34658315Y62143022D01*
X34552654Y62206353D01*
X34453717Y62279730D01*
X34362449Y62362449D01*
X34279730Y62453717D01*
X34206353Y62552654D01*
X34143022Y62658315D01*
X34090358Y62769664D01*
X34048862Y62885636D01*
X34018933Y63005121D01*
X34000858Y63126970D01*
X33994813Y63250000D01*
X34000858Y63373030D01*
X34018933Y63494879D01*
X34048862Y63614364D01*
X34090358Y63730336D01*
X34143022Y63841685D01*
X34206353Y63947346D01*
X34279730Y64046283D01*
X34362449Y64137551D01*
X34453717Y64220270D01*
X34552654Y64293647D01*
X34658315Y64356978D01*
X34769664Y64409642D01*
X34885636Y64451138D01*
X35005121Y64481067D01*
X35126970Y64499142D01*
X35250000Y64505187D01*
X35373030Y64499142D01*
X35494879Y64481067D01*
X35614364Y64451138D01*
X35730336Y64409642D01*
X35841685Y64356978D01*
X35947346Y64293647D01*
X36046283Y64220270D01*
X36137551Y64137551D01*
X36220270Y64046283D01*
X36293647Y63947346D01*
X36356978Y63841685D01*
X36409642Y63730336D01*
X36451138Y63614364D01*
X36481067Y63494879D01*
X36499142Y63373030D01*
X36505187Y63250000D01*
X36499142Y63126970D01*
X36481067Y63005121D01*
X36451138Y62885636D01*
X36409642Y62769664D01*
X36356978Y62658315D01*
X36293647Y62552654D01*
X36220270Y62453717D01*
X36137551Y62362449D01*
X36046283Y62279730D01*
X35947346Y62206353D01*
X35841685Y62143022D01*
X35730339Y62090360D01*
X35605000Y62045511D01*
X35605000Y59939923D01*
X35599151Y59880548D01*
X35578893Y59813770D01*
X35545996Y59752222D01*
X35502220Y59698877D01*
X35494448Y59692401D01*
X32800357Y56998312D01*
X32805187Y56899991D01*
X32802273Y56840690D01*
X32793557Y56781927D01*
X32779129Y56724326D01*
X32759119Y56668404D01*
X32733728Y56614719D01*
X32703194Y56563777D01*
X32667816Y56516076D01*
X32627932Y56472068D01*
X32583924Y56432184D01*
X32536223Y56396806D01*
X32485281Y56366272D01*
X32431596Y56340881D01*
X32375674Y56320871D01*
X32318073Y56306443D01*
X32259310Y56297727D01*
X32200000Y56294812D01*
D02*
G37*
%LPC*%
G36*
X51550000Y61994813D02*
X51426970Y62000858D01*
X51305121Y62018933D01*
X51185636Y62048862D01*
X51069664Y62090358D01*
X50958315Y62143022D01*
X50852654Y62206353D01*
X50753717Y62279730D01*
X50662449Y62362449D01*
X50579730Y62453717D01*
X50506353Y62552654D01*
X50443022Y62658315D01*
X50390358Y62769664D01*
X50348862Y62885636D01*
X50318933Y63005121D01*
X50300858Y63126970D01*
X50294813Y63250000D01*
X50300858Y63373030D01*
X50318933Y63494879D01*
X50348862Y63614364D01*
X50390358Y63730336D01*
X50443022Y63841685D01*
X50506353Y63947346D01*
X50579730Y64046283D01*
X50662449Y64137551D01*
X50753717Y64220270D01*
X50852654Y64293647D01*
X50958315Y64356978D01*
X51069664Y64409642D01*
X51185636Y64451138D01*
X51305121Y64481067D01*
X51426970Y64499142D01*
X51550000Y64505187D01*
X51673030Y64499142D01*
X51794879Y64481067D01*
X51914364Y64451138D01*
X52030336Y64409642D01*
X52141685Y64356978D01*
X52247346Y64293647D01*
X52346283Y64220270D01*
X52437551Y64137551D01*
X52520270Y64046283D01*
X52593647Y63947346D01*
X52656978Y63841685D01*
X52709642Y63730336D01*
X52751138Y63614364D01*
X52781067Y63494879D01*
X52799142Y63373030D01*
X52805187Y63250000D01*
X52799142Y63126970D01*
X52781067Y63005121D01*
X52751138Y62885636D01*
X52709642Y62769664D01*
X52656978Y62658315D01*
X52593647Y62552654D01*
X52520270Y62453717D01*
X52437551Y62362449D01*
X52346283Y62279730D01*
X52247346Y62206353D01*
X52141685Y62143022D01*
X52030336Y62090358D01*
X51914364Y62048862D01*
X51794879Y62018933D01*
X51673030Y62000858D01*
X51550000Y61994813D01*
D02*
G37*
%LPC*%
G36*
X28145000Y62505000D02*
X27230395Y62505000D01*
X27244490Y62600014D01*
X27268935Y62697605D01*
X27302827Y62792328D01*
X27345842Y62883275D01*
X27397571Y62969579D01*
X27457504Y63050389D01*
X27525067Y63124933D01*
X27599611Y63192496D01*
X27680421Y63252429D01*
X27766725Y63304158D01*
X27857672Y63347173D01*
X27952395Y63381065D01*
X28049986Y63405510D01*
X28145000Y63419605D01*
X28145000Y62505000D01*
D02*
G37*
%LPC*%
G36*
X29269605Y62505000D02*
X28355000Y62505000D01*
X28355000Y63419605D01*
X28450014Y63405510D01*
X28547605Y63381065D01*
X28642328Y63347173D01*
X28733275Y63304158D01*
X28819579Y63252429D01*
X28900389Y63192496D01*
X28974933Y63124933D01*
X29042496Y63050389D01*
X29102429Y62969579D01*
X29154158Y62883275D01*
X29197173Y62792328D01*
X29231065Y62697605D01*
X29255510Y62600014D01*
X29269605Y62505000D01*
D02*
G37*
%LPC*%
G36*
X30750000Y61394813D02*
X30651474Y61399654D01*
X30553893Y61414129D01*
X30458208Y61438097D01*
X30365331Y61471329D01*
X30276160Y61513502D01*
X30191554Y61564214D01*
X30112314Y61622983D01*
X30039226Y61689226D01*
X29972983Y61762314D01*
X29914214Y61841554D01*
X29863502Y61926160D01*
X29821329Y62015331D01*
X29788097Y62108208D01*
X29764129Y62203893D01*
X29749654Y62301474D01*
X29744813Y62400000D01*
X29749654Y62498526D01*
X29764129Y62596107D01*
X29788097Y62691792D01*
X29821329Y62784669D01*
X29863502Y62873840D01*
X29914214Y62958446D01*
X29972983Y63037686D01*
X30039226Y63110774D01*
X30112314Y63177017D01*
X30191554Y63235786D01*
X30276160Y63286498D01*
X30365331Y63328671D01*
X30458208Y63361903D01*
X30553893Y63385871D01*
X30651474Y63400346D01*
X30750000Y63405187D01*
X30848526Y63400346D01*
X30946107Y63385871D01*
X31041792Y63361903D01*
X31134669Y63328671D01*
X31223840Y63286498D01*
X31308446Y63235786D01*
X31387686Y63177017D01*
X31460774Y63110774D01*
X31527017Y63037686D01*
X31585786Y62958446D01*
X31636498Y62873840D01*
X31678671Y62784669D01*
X31711903Y62691792D01*
X31735871Y62596107D01*
X31750346Y62498526D01*
X31755187Y62400000D01*
X31750346Y62301474D01*
X31735871Y62203893D01*
X31711903Y62108208D01*
X31678671Y62015331D01*
X31636498Y61926160D01*
X31585786Y61841554D01*
X31527017Y61762314D01*
X31460774Y61689226D01*
X31387686Y61622983D01*
X31308446Y61564214D01*
X31223840Y61513502D01*
X31134669Y61471329D01*
X31041792Y61438097D01*
X30946107Y61414129D01*
X30848526Y61399654D01*
X30750000Y61394813D01*
D02*
G37*
%LPC*%
G36*
X28355000Y61380395D02*
X28355000Y62295000D01*
X29269605Y62295000D01*
X29255510Y62199986D01*
X29231065Y62102395D01*
X29197173Y62007672D01*
X29154158Y61916725D01*
X29102429Y61830421D01*
X29042496Y61749611D01*
X28974933Y61675067D01*
X28900389Y61607504D01*
X28819579Y61547571D01*
X28733275Y61495842D01*
X28642328Y61452827D01*
X28547605Y61418935D01*
X28450014Y61394490D01*
X28355000Y61380395D01*
D02*
G37*
%LPC*%
G36*
X28145000Y61380395D02*
X28049986Y61394490D01*
X27952395Y61418935D01*
X27857672Y61452827D01*
X27766725Y61495842D01*
X27680421Y61547571D01*
X27599611Y61607504D01*
X27525067Y61675067D01*
X27457504Y61749611D01*
X27397571Y61830421D01*
X27345842Y61916725D01*
X27302827Y62007672D01*
X27268935Y62102395D01*
X27244490Y62199986D01*
X27230395Y62295000D01*
X28145000Y62295000D01*
X28145000Y61380395D01*
D02*
G37*
%LPC*%
G36*
X13840000Y33194812D02*
X13780690Y33197727D01*
X13721927Y33206443D01*
X13664326Y33220871D01*
X13608404Y33240881D01*
X13554719Y33266272D01*
X13503777Y33296806D01*
X13456076Y33332184D01*
X13412068Y33372068D01*
X13372184Y33416076D01*
X13336806Y33463777D01*
X13306272Y33514719D01*
X13280881Y33568404D01*
X13260871Y33624326D01*
X13246443Y33681927D01*
X13237727Y33740690D01*
X13234812Y33800000D01*
X13237727Y33859310D01*
X13246443Y33918073D01*
X13260871Y33975674D01*
X13280881Y34031596D01*
X13306272Y34085281D01*
X13336806Y34136223D01*
X13372184Y34183924D01*
X13412072Y34227937D01*
X13485000Y34294029D01*
X13485000Y52750066D01*
X13490849Y52809451D01*
X13511106Y52876229D01*
X13544003Y52937777D01*
X13587779Y52991122D01*
X13595551Y52997598D01*
X17752401Y57154448D01*
X17758877Y57162220D01*
X17812222Y57205996D01*
X17873770Y57238893D01*
X17940548Y57259151D01*
X17999923Y57265000D01*
X19215971Y57265000D01*
X19282063Y57337928D01*
X19326076Y57377816D01*
X19373777Y57413194D01*
X19424719Y57443728D01*
X19478404Y57469119D01*
X19534326Y57489129D01*
X19591927Y57503557D01*
X19650690Y57512273D01*
X19710000Y57515188D01*
X19769310Y57512273D01*
X19828073Y57503557D01*
X19885674Y57489129D01*
X19941596Y57469119D01*
X19995281Y57443728D01*
X20046223Y57413194D01*
X20093924Y57377816D01*
X20137932Y57337932D01*
X20177816Y57293924D01*
X20213194Y57246223D01*
X20243728Y57195281D01*
X20269119Y57141596D01*
X20289129Y57085674D01*
X20303557Y57028073D01*
X20312273Y56969310D01*
X20315188Y56910000D01*
X20312273Y56850690D01*
X20303557Y56791927D01*
X20289129Y56734326D01*
X20269119Y56678404D01*
X20243728Y56624719D01*
X20213194Y56573777D01*
X20177816Y56526076D01*
X20137932Y56482068D01*
X20093924Y56442184D01*
X20046223Y56406806D01*
X19995281Y56376272D01*
X19941596Y56350881D01*
X19885674Y56330871D01*
X19828073Y56316443D01*
X19769310Y56307727D01*
X19710000Y56304812D01*
X19650690Y56307727D01*
X19591927Y56316443D01*
X19534326Y56330871D01*
X19478404Y56350881D01*
X19424719Y56376272D01*
X19373777Y56406806D01*
X19326076Y56442184D01*
X19282063Y56482072D01*
X19215971Y56555000D01*
X18157047Y56555000D01*
X14195000Y52592953D01*
X14195000Y34294029D01*
X14267928Y34227937D01*
X14307816Y34183924D01*
X14343194Y34136223D01*
X14373728Y34085281D01*
X14399119Y34031596D01*
X14419129Y33975674D01*
X14433557Y33918073D01*
X14442273Y33859310D01*
X14445188Y33800000D01*
X14442273Y33740690D01*
X14433557Y33681927D01*
X14419129Y33624326D01*
X14399119Y33568404D01*
X14373728Y33514719D01*
X14343194Y33463777D01*
X14307816Y33416076D01*
X14267932Y33372068D01*
X14223924Y33332184D01*
X14176223Y33296806D01*
X14125281Y33266272D01*
X14071596Y33240881D01*
X14015674Y33220871D01*
X13958073Y33206443D01*
X13899310Y33197727D01*
X13840000Y33194812D01*
D02*
G37*
%LPC*%
G36*
X52895000Y51305000D02*
X51779948Y51305000D01*
X51780690Y51320092D01*
X51798333Y51439030D01*
X51827547Y51555661D01*
X51868052Y51668866D01*
X51919460Y51777558D01*
X51981275Y51880690D01*
X52052900Y51977264D01*
X52133645Y52066355D01*
X52222736Y52147100D01*
X52319310Y52218725D01*
X52422442Y52280540D01*
X52531134Y52331948D01*
X52644339Y52372453D01*
X52760970Y52401667D01*
X52879908Y52419310D01*
X52895000Y52420052D01*
X52895000Y51305000D01*
D02*
G37*
%LPC*%
G36*
X54220052Y51305000D02*
X53105000Y51305000D01*
X53105000Y52420052D01*
X53120092Y52419310D01*
X53239030Y52401667D01*
X53355661Y52372453D01*
X53468866Y52331948D01*
X53577558Y52280540D01*
X53680690Y52218725D01*
X53777264Y52147100D01*
X53866355Y52066355D01*
X53947100Y51977264D01*
X54018725Y51880690D01*
X54080540Y51777558D01*
X54131948Y51668866D01*
X54172453Y51555661D01*
X54201667Y51439030D01*
X54219310Y51320092D01*
X54220052Y51305000D01*
D02*
G37*
%LPC*%
G36*
X6000000Y49994812D02*
X5881880Y50000617D01*
X5764877Y50017972D01*
X5650151Y50046709D01*
X5538798Y50086552D01*
X5431880Y50137120D01*
X5330429Y50197927D01*
X5235443Y50268374D01*
X5147804Y50347804D01*
X5068374Y50435443D01*
X4997927Y50530429D01*
X4937120Y50631880D01*
X4886552Y50738798D01*
X4846709Y50850151D01*
X4817972Y50964877D01*
X4800617Y51081880D01*
X4794812Y51200000D01*
X4800617Y51318120D01*
X4817972Y51435123D01*
X4846709Y51549849D01*
X4886552Y51661202D01*
X4937120Y51768120D01*
X4997927Y51869571D01*
X5068374Y51964557D01*
X5147804Y52052196D01*
X5235443Y52131626D01*
X5330429Y52202073D01*
X5431880Y52262880D01*
X5538798Y52313448D01*
X5650151Y52353291D01*
X5764877Y52382028D01*
X5881880Y52399383D01*
X6000000Y52405188D01*
X6118120Y52399383D01*
X6235123Y52382028D01*
X6349849Y52353291D01*
X6461202Y52313448D01*
X6568120Y52262880D01*
X6669571Y52202073D01*
X6764557Y52131626D01*
X6852196Y52052196D01*
X6931626Y51964557D01*
X7002073Y51869571D01*
X7062880Y51768120D01*
X7113448Y51661202D01*
X7153291Y51549849D01*
X7182028Y51435123D01*
X7199383Y51318120D01*
X7205188Y51200000D01*
X7199383Y51081880D01*
X7182028Y50964877D01*
X7153291Y50850151D01*
X7113448Y50738798D01*
X7062880Y50631880D01*
X7002073Y50530429D01*
X6931626Y50435443D01*
X6852196Y50347804D01*
X6764557Y50268374D01*
X6669571Y50197927D01*
X6568120Y50137120D01*
X6461202Y50086552D01*
X6349849Y50046709D01*
X6235123Y50017972D01*
X6118120Y50000617D01*
X6000000Y49994812D01*
D02*
G37*
%LPC*%
G36*
X11000000Y49994812D02*
X10881880Y50000617D01*
X10764877Y50017972D01*
X10650151Y50046709D01*
X10538798Y50086552D01*
X10431880Y50137120D01*
X10330429Y50197927D01*
X10235443Y50268374D01*
X10147804Y50347804D01*
X10068374Y50435443D01*
X9997927Y50530429D01*
X9937120Y50631880D01*
X9886552Y50738798D01*
X9846709Y50850151D01*
X9817972Y50964877D01*
X9800617Y51081880D01*
X9794812Y51200000D01*
X9800617Y51318120D01*
X9817972Y51435123D01*
X9846709Y51549849D01*
X9886552Y51661202D01*
X9937120Y51768120D01*
X9997927Y51869571D01*
X10068374Y51964557D01*
X10147804Y52052196D01*
X10235443Y52131626D01*
X10330429Y52202073D01*
X10431880Y52262880D01*
X10538798Y52313448D01*
X10650151Y52353291D01*
X10764877Y52382028D01*
X10881880Y52399383D01*
X11000000Y52405188D01*
X11118120Y52399383D01*
X11235123Y52382028D01*
X11349849Y52353291D01*
X11461202Y52313448D01*
X11568120Y52262880D01*
X11669571Y52202073D01*
X11764557Y52131626D01*
X11852196Y52052196D01*
X11931626Y51964557D01*
X12002073Y51869571D01*
X12062880Y51768120D01*
X12113448Y51661202D01*
X12153291Y51549849D01*
X12182028Y51435123D01*
X12199383Y51318120D01*
X12205188Y51200000D01*
X12199383Y51081880D01*
X12182028Y50964877D01*
X12153291Y50850151D01*
X12113448Y50738798D01*
X12062880Y50631880D01*
X12002073Y50530429D01*
X11931626Y50435443D01*
X11852196Y50347804D01*
X11764557Y50268374D01*
X11669571Y50197927D01*
X11568120Y50137120D01*
X11461202Y50086552D01*
X11349849Y50046709D01*
X11235123Y50017972D01*
X11118120Y50000617D01*
X11000000Y49994812D01*
D02*
G37*
%LPC*%
G36*
X16000000Y49994812D02*
X15881880Y50000617D01*
X15764877Y50017972D01*
X15650151Y50046709D01*
X15538798Y50086552D01*
X15431880Y50137120D01*
X15330429Y50197927D01*
X15235443Y50268374D01*
X15147804Y50347804D01*
X15068374Y50435443D01*
X14997927Y50530429D01*
X14937120Y50631880D01*
X14886552Y50738798D01*
X14846709Y50850151D01*
X14817972Y50964877D01*
X14800617Y51081880D01*
X14794812Y51200000D01*
X14800617Y51318120D01*
X14817972Y51435123D01*
X14846709Y51549849D01*
X14886552Y51661202D01*
X14937120Y51768120D01*
X14997927Y51869571D01*
X15068374Y51964557D01*
X15147804Y52052196D01*
X15235443Y52131626D01*
X15330429Y52202073D01*
X15431880Y52262880D01*
X15538798Y52313448D01*
X15650151Y52353291D01*
X15764877Y52382028D01*
X15881880Y52399383D01*
X16000000Y52405188D01*
X16118120Y52399383D01*
X16235123Y52382028D01*
X16349849Y52353291D01*
X16461202Y52313448D01*
X16568120Y52262880D01*
X16669571Y52202073D01*
X16764557Y52131626D01*
X16852196Y52052196D01*
X16931626Y51964557D01*
X17002073Y51869571D01*
X17062880Y51768120D01*
X17113448Y51661202D01*
X17153291Y51549849D01*
X17182028Y51435123D01*
X17199383Y51318120D01*
X17205188Y51200000D01*
X17199383Y51081880D01*
X17182028Y50964877D01*
X17153291Y50850151D01*
X17113448Y50738798D01*
X17062880Y50631880D01*
X17002073Y50530429D01*
X16931626Y50435443D01*
X16852196Y50347804D01*
X16764557Y50268374D01*
X16669571Y50197927D01*
X16568120Y50137120D01*
X16461202Y50086552D01*
X16349849Y50046709D01*
X16235123Y50017972D01*
X16118120Y50000617D01*
X16000000Y49994812D01*
D02*
G37*
%LPC*%
G36*
X43000000Y49994812D02*
X42881880Y50000617D01*
X42764877Y50017972D01*
X42650151Y50046709D01*
X42538798Y50086552D01*
X42431880Y50137120D01*
X42330429Y50197927D01*
X42235443Y50268374D01*
X42147804Y50347804D01*
X42068374Y50435443D01*
X41997927Y50530429D01*
X41937120Y50631880D01*
X41886552Y50738798D01*
X41846709Y50850151D01*
X41817972Y50964877D01*
X41800617Y51081880D01*
X41794812Y51200000D01*
X41800617Y51318120D01*
X41817972Y51435123D01*
X41846709Y51549849D01*
X41886552Y51661202D01*
X41937120Y51768120D01*
X41997927Y51869571D01*
X42068374Y51964557D01*
X42147804Y52052196D01*
X42235443Y52131626D01*
X42330429Y52202073D01*
X42431880Y52262880D01*
X42538798Y52313448D01*
X42650151Y52353291D01*
X42764877Y52382028D01*
X42881880Y52399383D01*
X43000000Y52405188D01*
X43118120Y52399383D01*
X43235123Y52382028D01*
X43349849Y52353291D01*
X43461202Y52313448D01*
X43568120Y52262880D01*
X43669571Y52202073D01*
X43764557Y52131626D01*
X43852196Y52052196D01*
X43931626Y51964557D01*
X44002073Y51869571D01*
X44062880Y51768120D01*
X44113448Y51661202D01*
X44153291Y51549849D01*
X44182028Y51435123D01*
X44199383Y51318120D01*
X44205188Y51200000D01*
X44199383Y51081880D01*
X44182028Y50964877D01*
X44153291Y50850151D01*
X44113448Y50738798D01*
X44062880Y50631880D01*
X44002073Y50530429D01*
X43931626Y50435443D01*
X43852196Y50347804D01*
X43764557Y50268374D01*
X43669571Y50197927D01*
X43568120Y50137120D01*
X43461202Y50086552D01*
X43349849Y50046709D01*
X43235123Y50017972D01*
X43118120Y50000617D01*
X43000000Y49994812D01*
D02*
G37*
%LPC*%
G36*
X48000000Y49994812D02*
X47881880Y50000617D01*
X47764877Y50017972D01*
X47650151Y50046709D01*
X47538798Y50086552D01*
X47431880Y50137120D01*
X47330429Y50197927D01*
X47235443Y50268374D01*
X47147804Y50347804D01*
X47068374Y50435443D01*
X46997927Y50530429D01*
X46937120Y50631880D01*
X46886552Y50738798D01*
X46846709Y50850151D01*
X46817972Y50964877D01*
X46800617Y51081880D01*
X46794812Y51200000D01*
X46800617Y51318120D01*
X46817972Y51435123D01*
X46846709Y51549849D01*
X46886552Y51661202D01*
X46937120Y51768120D01*
X46997927Y51869571D01*
X47068374Y51964557D01*
X47147804Y52052196D01*
X47235443Y52131626D01*
X47330429Y52202073D01*
X47431880Y52262880D01*
X47538798Y52313448D01*
X47650151Y52353291D01*
X47764877Y52382028D01*
X47881880Y52399383D01*
X48000000Y52405188D01*
X48118120Y52399383D01*
X48235123Y52382028D01*
X48349849Y52353291D01*
X48461202Y52313448D01*
X48568120Y52262880D01*
X48669571Y52202073D01*
X48764557Y52131626D01*
X48852196Y52052196D01*
X48931626Y51964557D01*
X49002073Y51869571D01*
X49062880Y51768120D01*
X49113448Y51661202D01*
X49153291Y51549849D01*
X49182028Y51435123D01*
X49199383Y51318120D01*
X49205188Y51200000D01*
X49199383Y51081880D01*
X49182028Y50964877D01*
X49153291Y50850151D01*
X49113448Y50738798D01*
X49062880Y50631880D01*
X49002073Y50530429D01*
X48931626Y50435443D01*
X48852196Y50347804D01*
X48764557Y50268374D01*
X48669571Y50197927D01*
X48568120Y50137120D01*
X48461202Y50086552D01*
X48349849Y50046709D01*
X48235123Y50017972D01*
X48118120Y50000617D01*
X48000000Y49994812D01*
D02*
G37*
%LPC*%
G36*
X53105000Y49979948D02*
X53105000Y51095000D01*
X54220052Y51095000D01*
X54219310Y51079908D01*
X54201667Y50960970D01*
X54172453Y50844339D01*
X54131948Y50731134D01*
X54080540Y50622442D01*
X54018725Y50519310D01*
X53947100Y50422736D01*
X53866355Y50333645D01*
X53777264Y50252900D01*
X53680690Y50181275D01*
X53577558Y50119460D01*
X53468866Y50068052D01*
X53355661Y50027547D01*
X53239030Y49998333D01*
X53120092Y49980690D01*
X53105000Y49979948D01*
D02*
G37*
%LPC*%
G36*
X52895000Y49979948D02*
X52879908Y49980690D01*
X52760970Y49998333D01*
X52644339Y50027547D01*
X52531134Y50068052D01*
X52422442Y50119460D01*
X52319310Y50181275D01*
X52222736Y50252900D01*
X52133645Y50333645D01*
X52052900Y50422736D01*
X51981275Y50519310D01*
X51919460Y50622442D01*
X51868052Y50731134D01*
X51827547Y50844339D01*
X51798333Y50960970D01*
X51780690Y51079908D01*
X51779948Y51095000D01*
X52895000Y51095000D01*
X52895000Y49979948D01*
D02*
G37*
%LPC*%
G36*
X26000000Y40194812D02*
X25940690Y40197727D01*
X25881927Y40206443D01*
X25824326Y40220871D01*
X25768404Y40240881D01*
X25714719Y40266272D01*
X25663777Y40296806D01*
X25616076Y40332184D01*
X25572068Y40372068D01*
X25532184Y40416076D01*
X25496806Y40463777D01*
X25466272Y40514719D01*
X25440881Y40568404D01*
X25420871Y40624326D01*
X25406443Y40681927D01*
X25397727Y40740690D01*
X25394812Y40800000D01*
X25397727Y40859310D01*
X25406443Y40918073D01*
X25420871Y40975674D01*
X25440881Y41031596D01*
X25466272Y41085281D01*
X25496806Y41136223D01*
X25532184Y41183924D01*
X25572072Y41227937D01*
X25645000Y41294029D01*
X25645000Y48365971D01*
X25572072Y48432063D01*
X25532184Y48476076D01*
X25496806Y48523777D01*
X25466272Y48574719D01*
X25440881Y48628404D01*
X25420871Y48684326D01*
X25406443Y48741927D01*
X25397727Y48800690D01*
X25394812Y48860000D01*
X25397727Y48919310D01*
X25406443Y48978073D01*
X25420871Y49035674D01*
X25440881Y49091596D01*
X25466272Y49145281D01*
X25496806Y49196223D01*
X25532184Y49243924D01*
X25572068Y49287932D01*
X25616076Y49327816D01*
X25663777Y49363194D01*
X25714719Y49393728D01*
X25768404Y49419119D01*
X25824326Y49439129D01*
X25881927Y49453557D01*
X25940690Y49462273D01*
X26000000Y49465188D01*
X26059310Y49462273D01*
X26118073Y49453557D01*
X26175674Y49439129D01*
X26231596Y49419119D01*
X26285281Y49393728D01*
X26336223Y49363194D01*
X26383924Y49327816D01*
X26427932Y49287932D01*
X26467816Y49243924D01*
X26503194Y49196223D01*
X26533728Y49145281D01*
X26559119Y49091596D01*
X26579129Y49035674D01*
X26593557Y48978073D01*
X26602273Y48919310D01*
X26605188Y48860000D01*
X26602273Y48800690D01*
X26593557Y48741927D01*
X26579129Y48684326D01*
X26559119Y48628404D01*
X26533728Y48574719D01*
X26503194Y48523777D01*
X26467816Y48476076D01*
X26427928Y48432063D01*
X26355000Y48365971D01*
X26355000Y41294029D01*
X26427928Y41227937D01*
X26467816Y41183924D01*
X26503194Y41136223D01*
X26533728Y41085281D01*
X26559119Y41031596D01*
X26579129Y40975674D01*
X26593557Y40918073D01*
X26602273Y40859310D01*
X26605188Y40800000D01*
X26602273Y40740690D01*
X26593557Y40681927D01*
X26579129Y40624326D01*
X26559119Y40568404D01*
X26533728Y40514719D01*
X26503194Y40463777D01*
X26467816Y40416076D01*
X26427932Y40372068D01*
X26383924Y40332184D01*
X26336223Y40296806D01*
X26285281Y40266272D01*
X26231596Y40240881D01*
X26175674Y40220871D01*
X26118073Y40206443D01*
X26059310Y40197727D01*
X26000000Y40194812D01*
D02*
G37*
%LPC*%
G36*
X4950000Y47424812D02*
X4885789Y47427967D01*
X4822173Y47437404D01*
X4759812Y47453024D01*
X4699274Y47474686D01*
X4641145Y47502179D01*
X4586000Y47535231D01*
X4534353Y47573535D01*
X4486713Y47616713D01*
X4443535Y47664353D01*
X4405231Y47716000D01*
X4372179Y47771145D01*
X4344686Y47829274D01*
X4323024Y47889812D01*
X4307404Y47952173D01*
X4297967Y48015789D01*
X4294812Y48080000D01*
X4297967Y48144211D01*
X4307404Y48207827D01*
X4323024Y48270188D01*
X4344686Y48330726D01*
X4372179Y48388855D01*
X4405231Y48444000D01*
X4443535Y48495647D01*
X4486713Y48543287D01*
X4534353Y48586465D01*
X4586000Y48624769D01*
X4641145Y48657821D01*
X4699274Y48685314D01*
X4759812Y48706976D01*
X4822173Y48722596D01*
X4885789Y48732033D01*
X4950000Y48735188D01*
X5014211Y48732033D01*
X5077827Y48722596D01*
X5140188Y48706976D01*
X5200726Y48685314D01*
X5258855Y48657821D01*
X5314000Y48624769D01*
X5365647Y48586465D01*
X5413287Y48543287D01*
X5456465Y48495647D01*
X5494769Y48444000D01*
X5527821Y48388855D01*
X5555314Y48330726D01*
X5576976Y48270188D01*
X5592596Y48207827D01*
X5602033Y48144211D01*
X5605188Y48080000D01*
X5602033Y48015789D01*
X5592596Y47952173D01*
X5576976Y47889812D01*
X5555314Y47829274D01*
X5527821Y47771145D01*
X5494769Y47716000D01*
X5456465Y47664353D01*
X5413287Y47616713D01*
X5365647Y47573535D01*
X5314000Y47535231D01*
X5258855Y47502179D01*
X5200726Y47474686D01*
X5140188Y47453024D01*
X5077827Y47437404D01*
X5014211Y47427967D01*
X4950000Y47424812D01*
D02*
G37*
%LPC*%
G36*
X12500000Y47074812D02*
X12435789Y47077967D01*
X12372173Y47087404D01*
X12309812Y47103024D01*
X12249274Y47124686D01*
X12191145Y47152179D01*
X12136000Y47185231D01*
X12084353Y47223535D01*
X12036713Y47266713D01*
X11993535Y47314353D01*
X11955231Y47366000D01*
X11922179Y47421145D01*
X11894686Y47479274D01*
X11873024Y47539812D01*
X11857404Y47602173D01*
X11847967Y47665789D01*
X11844812Y47730000D01*
X11847967Y47794211D01*
X11857404Y47857827D01*
X11873024Y47920188D01*
X11894686Y47980726D01*
X11922179Y48038855D01*
X11955231Y48094000D01*
X11993535Y48145647D01*
X12036713Y48193287D01*
X12084353Y48236465D01*
X12136000Y48274769D01*
X12191145Y48307821D01*
X12249274Y48335314D01*
X12309812Y48356976D01*
X12372173Y48372596D01*
X12435789Y48382033D01*
X12500000Y48385188D01*
X12564211Y48382033D01*
X12627827Y48372596D01*
X12690188Y48356976D01*
X12750726Y48335314D01*
X12808855Y48307821D01*
X12864000Y48274769D01*
X12915647Y48236465D01*
X12963287Y48193287D01*
X13006465Y48145647D01*
X13044769Y48094000D01*
X13077821Y48038855D01*
X13105314Y47980726D01*
X13126976Y47920188D01*
X13142596Y47857827D01*
X13152033Y47794211D01*
X13155188Y47730000D01*
X13152033Y47665789D01*
X13142596Y47602173D01*
X13126976Y47539812D01*
X13105314Y47479274D01*
X13077821Y47421145D01*
X13044769Y47366000D01*
X13006465Y47314353D01*
X12963287Y47266713D01*
X12915647Y47223535D01*
X12864000Y47185231D01*
X12808855Y47152179D01*
X12750726Y47124686D01*
X12690188Y47103024D01*
X12627827Y47087404D01*
X12564211Y47077967D01*
X12500000Y47074812D01*
D02*
G37*
%LPC*%
G36*
X43200000Y43344693D02*
X43106361Y43349294D01*
X43013622Y43363050D01*
X42922693Y43385826D01*
X42834422Y43417411D01*
X42749670Y43457496D01*
X42669263Y43505689D01*
X42593957Y43561540D01*
X42524496Y43624496D01*
X42461540Y43693957D01*
X42405689Y43769263D01*
X42357496Y43849670D01*
X42317411Y43934422D01*
X42285826Y44022693D01*
X42263050Y44113622D01*
X42249294Y44206361D01*
X42244693Y44300000D01*
X42249294Y44393639D01*
X42263050Y44486378D01*
X42285826Y44577307D01*
X42317411Y44665578D01*
X42357496Y44750330D01*
X42405689Y44830737D01*
X42461540Y44906043D01*
X42524496Y44975504D01*
X42593957Y45038460D01*
X42669263Y45094311D01*
X42749670Y45142504D01*
X42834422Y45182589D01*
X42922693Y45214174D01*
X43013622Y45236950D01*
X43106361Y45250706D01*
X43200000Y45255307D01*
X43293639Y45250706D01*
X43386378Y45236950D01*
X43477307Y45214174D01*
X43565578Y45182589D01*
X43650330Y45142504D01*
X43730737Y45094311D01*
X43806043Y45038460D01*
X43875504Y44975504D01*
X43938460Y44906043D01*
X43994311Y44830737D01*
X44042504Y44750330D01*
X44082589Y44665578D01*
X44114174Y44577307D01*
X44136950Y44486378D01*
X44150706Y44393639D01*
X44155307Y44300000D01*
X44150706Y44206361D01*
X44136950Y44113622D01*
X44114174Y44022693D01*
X44082589Y43934422D01*
X44042504Y43849670D01*
X43994311Y43769263D01*
X43938460Y43693957D01*
X43875504Y43624496D01*
X43806043Y43561540D01*
X43730737Y43505689D01*
X43650330Y43457496D01*
X43565578Y43417411D01*
X43477307Y43385826D01*
X43386378Y43363050D01*
X43293639Y43349294D01*
X43200000Y43344693D01*
D02*
G37*
%LPC*%
G36*
X36050000Y43544812D02*
X35975986Y43548450D01*
X35902668Y43559325D01*
X35830782Y43577331D01*
X35761002Y43602300D01*
X35694009Y43633985D01*
X35630435Y43672089D01*
X35570915Y43716233D01*
X35516002Y43766002D01*
X35466233Y43820915D01*
X35422089Y43880435D01*
X35383985Y43944009D01*
X35352300Y44011002D01*
X35327331Y44080782D01*
X35309325Y44152668D01*
X35298450Y44225986D01*
X35294812Y44300000D01*
X35298450Y44374014D01*
X35309325Y44447332D01*
X35327331Y44519218D01*
X35352300Y44588998D01*
X35383985Y44655991D01*
X35422089Y44719565D01*
X35466233Y44779085D01*
X35516002Y44833998D01*
X35570915Y44883767D01*
X35630435Y44927911D01*
X35694009Y44966015D01*
X35761002Y44997700D01*
X35830782Y45022669D01*
X35902668Y45040675D01*
X35975986Y45051550D01*
X36050000Y45055188D01*
X36124014Y45051550D01*
X36197332Y45040675D01*
X36269218Y45022669D01*
X36338998Y44997700D01*
X36405991Y44966015D01*
X36469565Y44927911D01*
X36529085Y44883767D01*
X36583998Y44833998D01*
X36633767Y44779085D01*
X36677911Y44719565D01*
X36716015Y44655991D01*
X36747700Y44588998D01*
X36772669Y44519218D01*
X36790675Y44447332D01*
X36801550Y44374014D01*
X36805188Y44300000D01*
X36801550Y44225986D01*
X36790675Y44152668D01*
X36772669Y44080782D01*
X36747700Y44011002D01*
X36716015Y43944009D01*
X36677911Y43880435D01*
X36633767Y43820915D01*
X36583998Y43766002D01*
X36529085Y43716233D01*
X36469565Y43672089D01*
X36405991Y43633985D01*
X36338998Y43602300D01*
X36269218Y43577331D01*
X36197332Y43559325D01*
X36124014Y43548450D01*
X36050000Y43544812D01*
D02*
G37*
%LPC*%
G36*
X16080000Y35644813D02*
X15956970Y35650858D01*
X15835121Y35668933D01*
X15715636Y35698862D01*
X15599664Y35740358D01*
X15488315Y35793022D01*
X15382654Y35856353D01*
X15283717Y35929730D01*
X15192449Y36012449D01*
X15109730Y36103717D01*
X15036353Y36202654D01*
X14973022Y36308315D01*
X14920358Y36419664D01*
X14878862Y36535636D01*
X14848933Y36655121D01*
X14830858Y36776970D01*
X14824813Y36900000D01*
X14830858Y37023030D01*
X14848933Y37144879D01*
X14878862Y37264364D01*
X14920358Y37380336D01*
X14973022Y37491685D01*
X15036353Y37597346D01*
X15109730Y37696283D01*
X15200984Y37796970D01*
X14856214Y38141740D01*
X14848371Y38148157D01*
X14804003Y38202223D01*
X14771106Y38263770D01*
X14750849Y38330548D01*
X14745000Y38389935D01*
X14745000Y40305971D01*
X14672072Y40372063D01*
X14632184Y40416076D01*
X14596806Y40463777D01*
X14566272Y40514719D01*
X14540881Y40568404D01*
X14520871Y40624326D01*
X14506443Y40681927D01*
X14497727Y40740690D01*
X14494812Y40800000D01*
X14497727Y40859310D01*
X14506443Y40918073D01*
X14520871Y40975674D01*
X14540881Y41031596D01*
X14566272Y41085281D01*
X14596806Y41136223D01*
X14632184Y41183924D01*
X14672068Y41227932D01*
X14716076Y41267816D01*
X14763777Y41303194D01*
X14814719Y41333728D01*
X14868404Y41359119D01*
X14924326Y41379129D01*
X14981927Y41393557D01*
X15040690Y41402273D01*
X15100000Y41405188D01*
X15159310Y41402273D01*
X15218073Y41393557D01*
X15275674Y41379129D01*
X15331596Y41359119D01*
X15385281Y41333728D01*
X15436223Y41303194D01*
X15483924Y41267816D01*
X15527932Y41227932D01*
X15567816Y41183924D01*
X15603194Y41136223D01*
X15633728Y41085281D01*
X15659119Y41031596D01*
X15679129Y40975674D01*
X15693557Y40918073D01*
X15702273Y40859310D01*
X15705188Y40800000D01*
X15702273Y40740690D01*
X15693557Y40681927D01*
X15679129Y40624326D01*
X15659119Y40568404D01*
X15633728Y40514719D01*
X15603194Y40463777D01*
X15567816Y40416076D01*
X15527928Y40372063D01*
X15455000Y40305971D01*
X15455000Y38547047D01*
X15866347Y38135699D01*
X15956971Y38149142D01*
X16080000Y38155187D01*
X16203030Y38149142D01*
X16324879Y38131067D01*
X16444364Y38101138D01*
X16560336Y38059642D01*
X16671685Y38006978D01*
X16777346Y37943647D01*
X16876283Y37870270D01*
X16967551Y37787551D01*
X17050270Y37696283D01*
X17123647Y37597346D01*
X17186978Y37491685D01*
X17239642Y37380336D01*
X17281138Y37264364D01*
X17311067Y37144879D01*
X17329142Y37023030D01*
X17335187Y36900000D01*
X17329142Y36776970D01*
X17311067Y36655121D01*
X17281138Y36535636D01*
X17239642Y36419664D01*
X17186978Y36308315D01*
X17123647Y36202654D01*
X17050270Y36103717D01*
X16967551Y36012449D01*
X16876283Y35929730D01*
X16777346Y35856353D01*
X16671685Y35793022D01*
X16560336Y35740358D01*
X16444364Y35698862D01*
X16324879Y35668933D01*
X16203030Y35650858D01*
X16080000Y35644813D01*
D02*
G37*
%LPC*%
G36*
X37870000Y30954812D02*
X37810690Y30957727D01*
X37751927Y30966443D01*
X37694326Y30980871D01*
X37638404Y31000881D01*
X37584719Y31026272D01*
X37533777Y31056806D01*
X37486076Y31092184D01*
X37442068Y31132068D01*
X37402184Y31176076D01*
X37366806Y31223777D01*
X37336272Y31274719D01*
X37310881Y31328404D01*
X37290871Y31384326D01*
X37276443Y31441927D01*
X37267727Y31500690D01*
X37264813Y31559991D01*
X37269643Y31658312D01*
X31382953Y37545000D01*
X25094029Y37545000D01*
X25027937Y37472072D01*
X24983924Y37432184D01*
X24936223Y37396806D01*
X24885281Y37366272D01*
X24831596Y37340881D01*
X24775674Y37320871D01*
X24718073Y37306443D01*
X24659310Y37297727D01*
X24600000Y37294812D01*
X24540690Y37297727D01*
X24481927Y37306443D01*
X24424326Y37320871D01*
X24368404Y37340881D01*
X24314719Y37366272D01*
X24263777Y37396806D01*
X24216076Y37432184D01*
X24172068Y37472068D01*
X24132184Y37516076D01*
X24096806Y37563777D01*
X24066272Y37614719D01*
X24040881Y37668404D01*
X24020871Y37724326D01*
X24006443Y37781927D01*
X23997727Y37840690D01*
X23994812Y37900000D01*
X23997727Y37959310D01*
X24006443Y38018073D01*
X24020871Y38075674D01*
X24040881Y38131596D01*
X24066272Y38185281D01*
X24096806Y38236223D01*
X24132184Y38283924D01*
X24172068Y38327932D01*
X24216076Y38367816D01*
X24263777Y38403194D01*
X24314719Y38433728D01*
X24368404Y38459119D01*
X24424326Y38479129D01*
X24481927Y38493557D01*
X24540690Y38502273D01*
X24600000Y38505188D01*
X24659310Y38502273D01*
X24718073Y38493557D01*
X24775674Y38479129D01*
X24831596Y38459119D01*
X24885281Y38433728D01*
X24936223Y38403194D01*
X24983924Y38367816D01*
X25027937Y38327928D01*
X25094029Y38255000D01*
X31540077Y38255000D01*
X31599451Y38249151D01*
X31666229Y38228893D01*
X31727776Y38195996D01*
X31773897Y38158148D01*
X37771688Y32160357D01*
X37870009Y32165187D01*
X37929310Y32162273D01*
X37988073Y32153557D01*
X38045674Y32139129D01*
X38101596Y32119119D01*
X38155281Y32093728D01*
X38206223Y32063194D01*
X38253924Y32027816D01*
X38297932Y31987932D01*
X38337816Y31943924D01*
X38373194Y31896223D01*
X38403728Y31845281D01*
X38429119Y31791596D01*
X38449129Y31735674D01*
X38463557Y31678073D01*
X38472273Y31619310D01*
X38475188Y31560000D01*
X38472273Y31500690D01*
X38463557Y31441927D01*
X38449129Y31384326D01*
X38429119Y31328404D01*
X38403728Y31274719D01*
X38373194Y31223777D01*
X38337816Y31176076D01*
X38297932Y31132068D01*
X38253924Y31092184D01*
X38206223Y31056806D01*
X38155281Y31026272D01*
X38101596Y31000881D01*
X38045674Y30980871D01*
X37988073Y30966443D01*
X37929310Y30957727D01*
X37870000Y30954812D01*
D02*
G37*
%LPC*%
G36*
X5920000Y35644813D02*
X5796970Y35650858D01*
X5675121Y35668933D01*
X5555636Y35698862D01*
X5439664Y35740358D01*
X5328315Y35793022D01*
X5222654Y35856353D01*
X5123717Y35929730D01*
X5032449Y36012449D01*
X4949730Y36103717D01*
X4876353Y36202654D01*
X4813022Y36308315D01*
X4760358Y36419664D01*
X4718862Y36535636D01*
X4688933Y36655121D01*
X4670858Y36776970D01*
X4664813Y36900000D01*
X4670858Y37023030D01*
X4688933Y37144879D01*
X4718862Y37264364D01*
X4760358Y37380336D01*
X4813022Y37491685D01*
X4876353Y37597346D01*
X4949730Y37696283D01*
X5032449Y37787551D01*
X5123717Y37870270D01*
X5222654Y37943647D01*
X5328315Y38006978D01*
X5439664Y38059642D01*
X5555636Y38101138D01*
X5675121Y38131067D01*
X5796970Y38149142D01*
X5920000Y38155187D01*
X6043030Y38149142D01*
X6164879Y38131067D01*
X6284364Y38101138D01*
X6400336Y38059642D01*
X6511685Y38006978D01*
X6617346Y37943647D01*
X6716283Y37870270D01*
X6807551Y37787551D01*
X6890270Y37696283D01*
X6963647Y37597346D01*
X7026978Y37491685D01*
X7079642Y37380336D01*
X7121138Y37264364D01*
X7151067Y37144879D01*
X7169142Y37023030D01*
X7175187Y36900000D01*
X7169142Y36776970D01*
X7151067Y36655121D01*
X7121138Y36535636D01*
X7079642Y36419664D01*
X7026978Y36308315D01*
X6963647Y36202654D01*
X6890270Y36103717D01*
X6807551Y36012449D01*
X6716283Y35929730D01*
X6617346Y35856353D01*
X6511685Y35793022D01*
X6400336Y35740358D01*
X6284364Y35698862D01*
X6164879Y35668933D01*
X6043030Y35650858D01*
X5920000Y35644813D01*
D02*
G37*
%LPC*%
G36*
X11000000Y35644813D02*
X10876970Y35650858D01*
X10755121Y35668933D01*
X10635636Y35698862D01*
X10519664Y35740358D01*
X10408315Y35793022D01*
X10302654Y35856353D01*
X10203717Y35929730D01*
X10112449Y36012449D01*
X10029730Y36103717D01*
X9956353Y36202654D01*
X9893022Y36308315D01*
X9840358Y36419664D01*
X9798862Y36535636D01*
X9768933Y36655121D01*
X9750858Y36776970D01*
X9744813Y36900000D01*
X9750858Y37023030D01*
X9768933Y37144879D01*
X9798862Y37264364D01*
X9840358Y37380336D01*
X9893022Y37491685D01*
X9956353Y37597346D01*
X10029730Y37696283D01*
X10112449Y37787551D01*
X10203717Y37870270D01*
X10302654Y37943647D01*
X10408315Y38006978D01*
X10519664Y38059642D01*
X10635636Y38101138D01*
X10755121Y38131067D01*
X10876970Y38149142D01*
X11000000Y38155187D01*
X11123030Y38149142D01*
X11244879Y38131067D01*
X11364364Y38101138D01*
X11480336Y38059642D01*
X11591685Y38006978D01*
X11697346Y37943647D01*
X11796283Y37870270D01*
X11887551Y37787551D01*
X11970270Y37696283D01*
X12043647Y37597346D01*
X12106978Y37491685D01*
X12159642Y37380336D01*
X12201138Y37264364D01*
X12231067Y37144879D01*
X12249142Y37023030D01*
X12255187Y36900000D01*
X12249142Y36776970D01*
X12231067Y36655121D01*
X12201138Y36535636D01*
X12159642Y36419664D01*
X12106978Y36308315D01*
X12043647Y36202654D01*
X11970270Y36103717D01*
X11887551Y36012449D01*
X11796283Y35929730D01*
X11697346Y35856353D01*
X11591685Y35793022D01*
X11480336Y35740358D01*
X11364364Y35698862D01*
X11244879Y35668933D01*
X11123030Y35650858D01*
X11000000Y35644813D01*
D02*
G37*
%LPC*%
G36*
X18500000Y35834812D02*
X18435789Y35837967D01*
X18372173Y35847404D01*
X18309812Y35863024D01*
X18249274Y35884686D01*
X18191145Y35912179D01*
X18136000Y35945231D01*
X18084353Y35983535D01*
X18036713Y36026713D01*
X17993535Y36074353D01*
X17955231Y36126000D01*
X17922179Y36181145D01*
X17894686Y36239274D01*
X17873024Y36299812D01*
X17857404Y36362173D01*
X17847967Y36425789D01*
X17844812Y36490000D01*
X17847967Y36554211D01*
X17857404Y36617827D01*
X17873024Y36680188D01*
X17894686Y36740726D01*
X17922179Y36798855D01*
X17955231Y36854000D01*
X17993535Y36905647D01*
X18036713Y36953287D01*
X18084353Y36996465D01*
X18136000Y37034769D01*
X18191145Y37067821D01*
X18249274Y37095314D01*
X18309812Y37116976D01*
X18372173Y37132596D01*
X18435789Y37142033D01*
X18500000Y37145188D01*
X18564211Y37142033D01*
X18627827Y37132596D01*
X18690188Y37116976D01*
X18750726Y37095314D01*
X18808855Y37067821D01*
X18864000Y37034769D01*
X18915647Y36996465D01*
X18963287Y36953287D01*
X19006465Y36905647D01*
X19044769Y36854000D01*
X19077821Y36798855D01*
X19105314Y36740726D01*
X19126976Y36680188D01*
X19142596Y36617827D01*
X19152033Y36554211D01*
X19155188Y36490000D01*
X19152033Y36425789D01*
X19142596Y36362173D01*
X19126976Y36299812D01*
X19105314Y36239274D01*
X19077821Y36181145D01*
X19044769Y36126000D01*
X19006465Y36074353D01*
X18963287Y36026713D01*
X18915647Y35983535D01*
X18864000Y35945231D01*
X18808855Y35912179D01*
X18750726Y35884686D01*
X18690188Y35863024D01*
X18627827Y35847404D01*
X18564211Y35837967D01*
X18500000Y35834812D01*
D02*
G37*
%LPC*%
G36*
X51971668Y34923140D02*
X51907457Y34926295D01*
X51843841Y34935732D01*
X51781480Y34951352D01*
X51720942Y34973014D01*
X51662813Y35000507D01*
X51607668Y35033559D01*
X51556021Y35071863D01*
X51508381Y35115041D01*
X51465203Y35162681D01*
X51426899Y35214328D01*
X51393847Y35269473D01*
X51366354Y35327602D01*
X51344692Y35388140D01*
X51329072Y35450501D01*
X51319635Y35514117D01*
X51316480Y35578328D01*
X51319635Y35642539D01*
X51329072Y35706155D01*
X51344692Y35768516D01*
X51366354Y35829054D01*
X51393847Y35887183D01*
X51426899Y35942328D01*
X51465203Y35993975D01*
X51508381Y36041615D01*
X51556021Y36084793D01*
X51607668Y36123097D01*
X51662813Y36156149D01*
X51720942Y36183642D01*
X51781480Y36205304D01*
X51843841Y36220924D01*
X51907457Y36230361D01*
X51971668Y36233516D01*
X52035879Y36230361D01*
X52099495Y36220924D01*
X52161856Y36205304D01*
X52222394Y36183642D01*
X52280523Y36156149D01*
X52335668Y36123097D01*
X52387315Y36084793D01*
X52434955Y36041615D01*
X52478133Y35993975D01*
X52516437Y35942328D01*
X52549489Y35887183D01*
X52576982Y35829054D01*
X52598644Y35768516D01*
X52614264Y35706155D01*
X52623701Y35642539D01*
X52626856Y35578328D01*
X52623701Y35514117D01*
X52614264Y35450501D01*
X52598644Y35388140D01*
X52576982Y35327602D01*
X52549489Y35269473D01*
X52516437Y35214328D01*
X52478133Y35162681D01*
X52434955Y35115041D01*
X52387315Y35071863D01*
X52335668Y35033559D01*
X52280523Y35000507D01*
X52222394Y34973014D01*
X52161856Y34951352D01*
X52099495Y34935732D01*
X52035879Y34926295D01*
X51971668Y34923140D01*
D02*
G37*
%LPC*%
G36*
X23420000Y34524812D02*
X23355789Y34527967D01*
X23292173Y34537404D01*
X23229812Y34553024D01*
X23169274Y34574686D01*
X23111145Y34602179D01*
X23056000Y34635231D01*
X23004353Y34673535D01*
X22956713Y34716713D01*
X22913535Y34764353D01*
X22875231Y34816000D01*
X22842179Y34871145D01*
X22814686Y34929274D01*
X22793024Y34989812D01*
X22777404Y35052173D01*
X22767967Y35115789D01*
X22764812Y35180000D01*
X22767967Y35244211D01*
X22777404Y35307827D01*
X22793024Y35370188D01*
X22814686Y35430726D01*
X22842179Y35488855D01*
X22875231Y35544000D01*
X22913535Y35595647D01*
X22956713Y35643287D01*
X23004353Y35686465D01*
X23056000Y35724769D01*
X23111145Y35757821D01*
X23169274Y35785314D01*
X23229812Y35806976D01*
X23292173Y35822596D01*
X23355789Y35832033D01*
X23420000Y35835188D01*
X23484211Y35832033D01*
X23547827Y35822596D01*
X23610188Y35806976D01*
X23670726Y35785314D01*
X23728855Y35757821D01*
X23784000Y35724769D01*
X23835647Y35686465D01*
X23883287Y35643287D01*
X23926465Y35595647D01*
X23964769Y35544000D01*
X23997821Y35488855D01*
X24025314Y35430726D01*
X24046976Y35370188D01*
X24062596Y35307827D01*
X24072033Y35244211D01*
X24075188Y35180000D01*
X24072033Y35115789D01*
X24062596Y35052173D01*
X24046976Y34989812D01*
X24025314Y34929274D01*
X23997821Y34871145D01*
X23964769Y34816000D01*
X23926465Y34764353D01*
X23883287Y34716713D01*
X23835647Y34673535D01*
X23784000Y34635231D01*
X23728855Y34602179D01*
X23670726Y34574686D01*
X23610188Y34553024D01*
X23547827Y34537404D01*
X23484211Y34527967D01*
X23420000Y34524812D01*
D02*
G37*
%LPC*%
G36*
X7440000Y19664812D02*
X7380690Y19667727D01*
X7321927Y19676443D01*
X7264326Y19690871D01*
X7208404Y19710881D01*
X7154719Y19736272D01*
X7103777Y19766806D01*
X7056076Y19802184D01*
X7012068Y19842068D01*
X6972184Y19886076D01*
X6936806Y19933777D01*
X6906272Y19984719D01*
X6880881Y20038404D01*
X6860871Y20094326D01*
X6846443Y20151927D01*
X6837727Y20210690D01*
X6834812Y20270000D01*
X6837727Y20329310D01*
X6846443Y20388073D01*
X6860871Y20445674D01*
X6880881Y20501596D01*
X6906272Y20555281D01*
X6936806Y20606223D01*
X6972184Y20653924D01*
X7012068Y20697932D01*
X7056076Y20737816D01*
X7103777Y20773194D01*
X7154719Y20803728D01*
X7208404Y20829119D01*
X7264326Y20849129D01*
X7321927Y20863557D01*
X7380690Y20872273D01*
X7440000Y20875188D01*
X7499310Y20872273D01*
X7558073Y20863557D01*
X7615674Y20849129D01*
X7671596Y20829119D01*
X7725281Y20803728D01*
X7776223Y20773194D01*
X7823924Y20737816D01*
X7867937Y20697928D01*
X7934029Y20625000D01*
X9722953Y20625000D01*
X13845000Y24747047D01*
X13845000Y31110066D01*
X13850849Y31169451D01*
X13871106Y31236229D01*
X13904003Y31297777D01*
X13947779Y31351122D01*
X13955551Y31357598D01*
X17199643Y34601688D01*
X17194813Y34700009D01*
X17197727Y34759310D01*
X17206443Y34818073D01*
X17220871Y34875674D01*
X17240881Y34931596D01*
X17266272Y34985281D01*
X17296806Y35036223D01*
X17332184Y35083924D01*
X17372068Y35127932D01*
X17416076Y35167816D01*
X17463777Y35203194D01*
X17514719Y35233728D01*
X17568404Y35259119D01*
X17624326Y35279129D01*
X17681927Y35293557D01*
X17740690Y35302273D01*
X17800000Y35305188D01*
X17859310Y35302273D01*
X17918073Y35293557D01*
X17975674Y35279129D01*
X18031596Y35259119D01*
X18085281Y35233728D01*
X18136223Y35203194D01*
X18183924Y35167816D01*
X18227932Y35127932D01*
X18267816Y35083924D01*
X18303194Y35036223D01*
X18333728Y34985281D01*
X18359119Y34931596D01*
X18379129Y34875674D01*
X18393557Y34818073D01*
X18402273Y34759310D01*
X18405188Y34700000D01*
X18402273Y34640690D01*
X18393557Y34581927D01*
X18379129Y34524326D01*
X18359119Y34468404D01*
X18333728Y34414719D01*
X18303194Y34363777D01*
X18267816Y34316076D01*
X18227932Y34272068D01*
X18183924Y34232184D01*
X18136223Y34196806D01*
X18085281Y34166272D01*
X18031596Y34140881D01*
X17975674Y34120871D01*
X17918073Y34106443D01*
X17859310Y34097727D01*
X17800009Y34094813D01*
X17701688Y34099643D01*
X14555000Y30952953D01*
X14555000Y24589923D01*
X14549151Y24530548D01*
X14528893Y24463770D01*
X14495996Y24402222D01*
X14452220Y24348877D01*
X14444448Y24342401D01*
X10127598Y20025551D01*
X10121122Y20017779D01*
X10067777Y19974003D01*
X10006229Y19941106D01*
X9939451Y19920849D01*
X9880066Y19915000D01*
X7934029Y19915000D01*
X7867937Y19842072D01*
X7823924Y19802184D01*
X7776223Y19766806D01*
X7725281Y19736272D01*
X7671596Y19710881D01*
X7615674Y19690871D01*
X7558073Y19676443D01*
X7499310Y19667727D01*
X7440000Y19664812D01*
D02*
G37*
%LPC*%
G36*
X23320000Y32734812D02*
X23255789Y32737967D01*
X23192173Y32747404D01*
X23129812Y32763024D01*
X23069274Y32784686D01*
X23011145Y32812179D01*
X22956000Y32845231D01*
X22904353Y32883535D01*
X22856713Y32926713D01*
X22813535Y32974353D01*
X22775231Y33026000D01*
X22742179Y33081145D01*
X22714686Y33139274D01*
X22693024Y33199812D01*
X22677404Y33262173D01*
X22667967Y33325789D01*
X22664812Y33390000D01*
X22667967Y33454211D01*
X22677404Y33517827D01*
X22693024Y33580188D01*
X22714686Y33640726D01*
X22742179Y33698855D01*
X22775231Y33754000D01*
X22813535Y33805647D01*
X22856713Y33853287D01*
X22904353Y33896465D01*
X22956000Y33934769D01*
X23011145Y33967821D01*
X23069274Y33995314D01*
X23129812Y34016976D01*
X23192173Y34032596D01*
X23255789Y34042033D01*
X23320000Y34045188D01*
X23384211Y34042033D01*
X23447827Y34032596D01*
X23510188Y34016976D01*
X23570726Y33995314D01*
X23628855Y33967821D01*
X23684000Y33934769D01*
X23735647Y33896465D01*
X23783287Y33853287D01*
X23826465Y33805647D01*
X23864769Y33754000D01*
X23897821Y33698855D01*
X23925314Y33640726D01*
X23946976Y33580188D01*
X23962596Y33517827D01*
X23972033Y33454211D01*
X23975188Y33390000D01*
X23972033Y33325789D01*
X23962596Y33262173D01*
X23946976Y33199812D01*
X23925314Y33139274D01*
X23897821Y33081145D01*
X23864769Y33026000D01*
X23826465Y32974353D01*
X23783287Y32926713D01*
X23735647Y32883535D01*
X23684000Y32845231D01*
X23628855Y32812179D01*
X23570726Y32784686D01*
X23510188Y32763024D01*
X23447827Y32747404D01*
X23384211Y32737967D01*
X23320000Y32734812D01*
D02*
G37*
%LPC*%
G36*
X27510000Y31214812D02*
X27426185Y31218931D01*
X27343157Y31231247D01*
X27261750Y31251638D01*
X27182740Y31279909D01*
X27106866Y31315795D01*
X27034882Y31358940D01*
X26967477Y31408930D01*
X26905292Y31465292D01*
X26848930Y31527477D01*
X26798940Y31594882D01*
X26755795Y31666866D01*
X26719909Y31742740D01*
X26691638Y31821750D01*
X26671247Y31903157D01*
X26658931Y31986185D01*
X26654812Y32070000D01*
X26658931Y32153815D01*
X26671247Y32236843D01*
X26691638Y32318250D01*
X26719909Y32397260D01*
X26755795Y32473134D01*
X26798940Y32545118D01*
X26848930Y32612523D01*
X26905292Y32674708D01*
X26967477Y32731070D01*
X27034882Y32781060D01*
X27106866Y32824205D01*
X27182740Y32860091D01*
X27261750Y32888362D01*
X27343157Y32908753D01*
X27426185Y32921069D01*
X27510000Y32925188D01*
X27593815Y32921069D01*
X27676843Y32908753D01*
X27758250Y32888362D01*
X27837260Y32860091D01*
X27913134Y32824205D01*
X27985118Y32781060D01*
X28052523Y32731070D01*
X28114708Y32674708D01*
X28171070Y32612523D01*
X28221060Y32545118D01*
X28264205Y32473134D01*
X28300091Y32397260D01*
X28328362Y32318250D01*
X28348753Y32236843D01*
X28361069Y32153815D01*
X28365188Y32070000D01*
X28361069Y31986185D01*
X28348753Y31903157D01*
X28328362Y31821750D01*
X28300091Y31742740D01*
X28264205Y31666866D01*
X28221060Y31594882D01*
X28171070Y31527477D01*
X28114708Y31465292D01*
X28052523Y31408930D01*
X27985118Y31358940D01*
X27913134Y31315795D01*
X27837260Y31279909D01*
X27758250Y31251638D01*
X27676843Y31231247D01*
X27593815Y31218931D01*
X27510000Y31214812D01*
D02*
G37*
%LPC*%
G36*
X34800000Y31214812D02*
X34716185Y31218931D01*
X34633157Y31231247D01*
X34551750Y31251638D01*
X34472740Y31279909D01*
X34396866Y31315795D01*
X34324882Y31358940D01*
X34257477Y31408930D01*
X34195292Y31465292D01*
X34138930Y31527477D01*
X34088940Y31594882D01*
X34045795Y31666866D01*
X34009909Y31742740D01*
X33981638Y31821750D01*
X33961247Y31903157D01*
X33948931Y31986185D01*
X33944812Y32070000D01*
X33948931Y32153815D01*
X33961247Y32236843D01*
X33981638Y32318250D01*
X34009909Y32397260D01*
X34045795Y32473134D01*
X34088940Y32545118D01*
X34138930Y32612523D01*
X34195292Y32674708D01*
X34257477Y32731070D01*
X34324882Y32781060D01*
X34396866Y32824205D01*
X34472740Y32860091D01*
X34551750Y32888362D01*
X34633157Y32908753D01*
X34716185Y32921069D01*
X34800000Y32925188D01*
X34883815Y32921069D01*
X34966843Y32908753D01*
X35048250Y32888362D01*
X35127260Y32860091D01*
X35203134Y32824205D01*
X35275118Y32781060D01*
X35342523Y32731070D01*
X35404708Y32674708D01*
X35461070Y32612523D01*
X35511060Y32545118D01*
X35554205Y32473134D01*
X35590091Y32397260D01*
X35618362Y32318250D01*
X35638753Y32236843D01*
X35651069Y32153815D01*
X35655188Y32070000D01*
X35651069Y31986185D01*
X35638753Y31903157D01*
X35618362Y31821750D01*
X35590091Y31742740D01*
X35554205Y31666866D01*
X35511060Y31594882D01*
X35461070Y31527477D01*
X35404708Y31465292D01*
X35342523Y31408930D01*
X35275118Y31358940D01*
X35203134Y31315795D01*
X35127260Y31279909D01*
X35048250Y31251638D01*
X34966843Y31231247D01*
X34883815Y31218931D01*
X34800000Y31214812D01*
D02*
G37*
%LPC*%
G36*
X23320000Y30484812D02*
X23255789Y30487967D01*
X23192173Y30497404D01*
X23129812Y30513024D01*
X23069274Y30534686D01*
X23011145Y30562179D01*
X22956000Y30595231D01*
X22904353Y30633535D01*
X22856713Y30676713D01*
X22813535Y30724353D01*
X22775231Y30776000D01*
X22742179Y30831145D01*
X22714686Y30889274D01*
X22693024Y30949812D01*
X22677404Y31012173D01*
X22667967Y31075789D01*
X22664812Y31140000D01*
X22667967Y31204211D01*
X22677404Y31267827D01*
X22693024Y31330188D01*
X22714686Y31390726D01*
X22742179Y31448855D01*
X22775231Y31504000D01*
X22813535Y31555647D01*
X22856713Y31603287D01*
X22904353Y31646465D01*
X22956000Y31684769D01*
X23011145Y31717821D01*
X23069274Y31745314D01*
X23129812Y31766976D01*
X23192173Y31782596D01*
X23255789Y31792033D01*
X23320000Y31795188D01*
X23384211Y31792033D01*
X23447827Y31782596D01*
X23510188Y31766976D01*
X23570726Y31745314D01*
X23628855Y31717821D01*
X23684000Y31684769D01*
X23735647Y31646465D01*
X23783287Y31603287D01*
X23826465Y31555647D01*
X23864769Y31504000D01*
X23897821Y31448855D01*
X23925314Y31390726D01*
X23946976Y31330188D01*
X23962596Y31267827D01*
X23972033Y31204211D01*
X23975188Y31140000D01*
X23972033Y31075789D01*
X23962596Y31012173D01*
X23946976Y30949812D01*
X23925314Y30889274D01*
X23897821Y30831145D01*
X23864769Y30776000D01*
X23826465Y30724353D01*
X23783287Y30676713D01*
X23735647Y30633535D01*
X23684000Y30595231D01*
X23628855Y30562179D01*
X23570726Y30534686D01*
X23510188Y30513024D01*
X23447827Y30497404D01*
X23384211Y30487967D01*
X23320000Y30484812D01*
D02*
G37*
%LPC*%
G36*
X48291668Y29043140D02*
X48242149Y29045574D01*
X48193115Y29052848D01*
X48145021Y29064894D01*
X48098342Y29081596D01*
X48053527Y29102792D01*
X48011003Y29128280D01*
X47971180Y29157815D01*
X47934447Y29191107D01*
X47901155Y29227840D01*
X47871620Y29267663D01*
X47846132Y29310187D01*
X47824936Y29355002D01*
X47808234Y29401681D01*
X47796188Y29449775D01*
X47788914Y29498809D01*
X47786480Y29548328D01*
X47788914Y29597847D01*
X47796188Y29646881D01*
X47808234Y29694975D01*
X47824936Y29741654D01*
X47846132Y29786469D01*
X47871620Y29828993D01*
X47901155Y29868816D01*
X47934447Y29905549D01*
X47971180Y29938841D01*
X48011003Y29968376D01*
X48053527Y29993864D01*
X48098342Y30015060D01*
X48145021Y30031762D01*
X48193115Y30043808D01*
X48242149Y30051082D01*
X48291668Y30053516D01*
X48341187Y30051082D01*
X48390221Y30043808D01*
X48438315Y30031762D01*
X48484994Y30015060D01*
X48529809Y29993864D01*
X48572333Y29968376D01*
X48612156Y29938841D01*
X48648889Y29905549D01*
X48682181Y29868816D01*
X48711716Y29828993D01*
X48737204Y29786469D01*
X48758400Y29741654D01*
X48775102Y29694975D01*
X48787148Y29646881D01*
X48794422Y29597847D01*
X48796856Y29548328D01*
X48794422Y29498809D01*
X48787148Y29449775D01*
X48775102Y29401681D01*
X48758400Y29355002D01*
X48737204Y29310187D01*
X48711716Y29267663D01*
X48682181Y29227840D01*
X48648889Y29191107D01*
X48612156Y29157815D01*
X48572333Y29128280D01*
X48529809Y29102792D01*
X48484994Y29081596D01*
X48438315Y29064894D01*
X48390221Y29052848D01*
X48341187Y29045574D01*
X48291668Y29043140D01*
D02*
G37*
%LPC*%
G36*
X16075000Y28409812D02*
X16010789Y28412967D01*
X15947173Y28422404D01*
X15884812Y28438024D01*
X15824274Y28459686D01*
X15766145Y28487179D01*
X15711000Y28520231D01*
X15659353Y28558535D01*
X15611713Y28601713D01*
X15568535Y28649353D01*
X15530231Y28701000D01*
X15497179Y28756145D01*
X15469686Y28814274D01*
X15448024Y28874812D01*
X15432404Y28937173D01*
X15422967Y29000789D01*
X15419812Y29065000D01*
X15422967Y29129211D01*
X15432404Y29192827D01*
X15448024Y29255188D01*
X15469686Y29315726D01*
X15497179Y29373855D01*
X15530231Y29429000D01*
X15568535Y29480647D01*
X15611713Y29528287D01*
X15659353Y29571465D01*
X15711000Y29609769D01*
X15766145Y29642821D01*
X15824274Y29670314D01*
X15884812Y29691976D01*
X15947173Y29707596D01*
X16010789Y29717033D01*
X16075000Y29720188D01*
X16139211Y29717033D01*
X16202827Y29707596D01*
X16265188Y29691976D01*
X16325726Y29670314D01*
X16383855Y29642821D01*
X16439000Y29609769D01*
X16490647Y29571465D01*
X16538287Y29528287D01*
X16581465Y29480647D01*
X16619769Y29429000D01*
X16652821Y29373855D01*
X16680314Y29315726D01*
X16701976Y29255188D01*
X16717596Y29192827D01*
X16727033Y29129211D01*
X16730188Y29065000D01*
X16727033Y29000789D01*
X16717596Y28937173D01*
X16701976Y28874812D01*
X16680314Y28814274D01*
X16652821Y28756145D01*
X16619769Y28701000D01*
X16581465Y28649353D01*
X16538287Y28601713D01*
X16490647Y28558535D01*
X16439000Y28520231D01*
X16383855Y28487179D01*
X16325726Y28459686D01*
X16265188Y28438024D01*
X16202827Y28422404D01*
X16139211Y28412967D01*
X16075000Y28409812D01*
D02*
G37*
%LPC*%
G36*
X50311668Y27773140D02*
X50262149Y27775574D01*
X50213115Y27782848D01*
X50165021Y27794894D01*
X50118342Y27811596D01*
X50073527Y27832792D01*
X50031003Y27858280D01*
X49991180Y27887815D01*
X49954447Y27921107D01*
X49921155Y27957840D01*
X49891620Y27997663D01*
X49866132Y28040187D01*
X49844936Y28085002D01*
X49828234Y28131681D01*
X49816188Y28179775D01*
X49808914Y28228809D01*
X49806480Y28278328D01*
X49808914Y28327847D01*
X49816188Y28376881D01*
X49828234Y28424975D01*
X49844936Y28471654D01*
X49866132Y28516469D01*
X49891620Y28558993D01*
X49921155Y28598816D01*
X49954447Y28635549D01*
X49991180Y28668841D01*
X50031003Y28698376D01*
X50073527Y28723864D01*
X50118342Y28745060D01*
X50165021Y28761762D01*
X50213115Y28773808D01*
X50262149Y28781082D01*
X50311668Y28783516D01*
X50361187Y28781082D01*
X50410221Y28773808D01*
X50458315Y28761762D01*
X50504994Y28745060D01*
X50549809Y28723864D01*
X50592333Y28698376D01*
X50632156Y28668841D01*
X50668889Y28635549D01*
X50702181Y28598816D01*
X50731716Y28558993D01*
X50757204Y28516469D01*
X50778400Y28471654D01*
X50795102Y28424975D01*
X50807148Y28376881D01*
X50814422Y28327847D01*
X50816856Y28278328D01*
X50814422Y28228809D01*
X50807148Y28179775D01*
X50795102Y28131681D01*
X50778400Y28085002D01*
X50757204Y28040187D01*
X50731716Y27997663D01*
X50702181Y27957840D01*
X50668889Y27921107D01*
X50632156Y27887815D01*
X50592333Y27858280D01*
X50549809Y27832792D01*
X50504994Y27811596D01*
X50458315Y27794894D01*
X50410221Y27782848D01*
X50361187Y27775574D01*
X50311668Y27773140D01*
D02*
G37*
%LPC*%
G36*
X19890000Y26084812D02*
X19825789Y26087967D01*
X19762173Y26097404D01*
X19699812Y26113024D01*
X19639274Y26134686D01*
X19581145Y26162179D01*
X19526000Y26195231D01*
X19474353Y26233535D01*
X19426713Y26276713D01*
X19383535Y26324353D01*
X19345231Y26376000D01*
X19312179Y26431145D01*
X19284686Y26489274D01*
X19263024Y26549812D01*
X19247404Y26612173D01*
X19237967Y26675789D01*
X19234812Y26740000D01*
X19237967Y26804211D01*
X19247404Y26867827D01*
X19263024Y26930188D01*
X19284686Y26990726D01*
X19312179Y27048855D01*
X19345231Y27104000D01*
X19383535Y27155647D01*
X19426713Y27203287D01*
X19474353Y27246465D01*
X19526000Y27284769D01*
X19581145Y27317821D01*
X19639274Y27345314D01*
X19699812Y27366976D01*
X19762173Y27382596D01*
X19825789Y27392033D01*
X19890000Y27395188D01*
X19954211Y27392033D01*
X20017827Y27382596D01*
X20080188Y27366976D01*
X20140726Y27345314D01*
X20198855Y27317821D01*
X20254000Y27284769D01*
X20305647Y27246465D01*
X20353287Y27203287D01*
X20396465Y27155647D01*
X20434769Y27104000D01*
X20467821Y27048855D01*
X20495314Y26990726D01*
X20516976Y26930188D01*
X20532596Y26867827D01*
X20542033Y26804211D01*
X20545188Y26740000D01*
X20542033Y26675789D01*
X20532596Y26612173D01*
X20516976Y26549812D01*
X20495314Y26489274D01*
X20467821Y26431145D01*
X20434769Y26376000D01*
X20396465Y26324353D01*
X20353287Y26276713D01*
X20305647Y26233535D01*
X20254000Y26195231D01*
X20198855Y26162179D01*
X20140726Y26134686D01*
X20080188Y26113024D01*
X20017827Y26097404D01*
X19954211Y26087967D01*
X19890000Y26084812D01*
D02*
G37*
%LPC*%
G36*
X17690000Y21084812D02*
X17630690Y21087727D01*
X17571927Y21096443D01*
X17514326Y21110871D01*
X17458404Y21130881D01*
X17404719Y21156272D01*
X17353777Y21186806D01*
X17306076Y21222184D01*
X17262068Y21262068D01*
X17222184Y21306076D01*
X17186806Y21353777D01*
X17156272Y21404719D01*
X17130881Y21458404D01*
X17110871Y21514326D01*
X17096443Y21571927D01*
X17087727Y21630690D01*
X17084812Y21690000D01*
X17087727Y21749310D01*
X17096443Y21808073D01*
X17110871Y21865674D01*
X17130881Y21921596D01*
X17156272Y21975281D01*
X17186806Y22026223D01*
X17222184Y22073924D01*
X17262068Y22117932D01*
X17306076Y22157816D01*
X17353777Y22193194D01*
X17404719Y22223728D01*
X17458404Y22249119D01*
X17514326Y22269129D01*
X17571927Y22283557D01*
X17630690Y22292273D01*
X17690000Y22295188D01*
X17749310Y22292273D01*
X17808073Y22283557D01*
X17865674Y22269129D01*
X17921596Y22249119D01*
X17975281Y22223728D01*
X18026223Y22193194D01*
X18073924Y22157816D01*
X18117937Y22117928D01*
X18184029Y22045000D01*
X24242953Y22045000D01*
X27492401Y25294448D01*
X27498877Y25302220D01*
X27552222Y25345996D01*
X27613770Y25378893D01*
X27680548Y25399151D01*
X27739923Y25405000D01*
X50635971Y25405000D01*
X50702063Y25477928D01*
X50746076Y25517816D01*
X50793777Y25553194D01*
X50844719Y25583728D01*
X50898404Y25609119D01*
X50954326Y25629129D01*
X51011927Y25643557D01*
X51070690Y25652273D01*
X51130000Y25655188D01*
X51189310Y25652273D01*
X51248073Y25643557D01*
X51305674Y25629129D01*
X51361596Y25609119D01*
X51415281Y25583728D01*
X51466223Y25553194D01*
X51513924Y25517816D01*
X51557932Y25477932D01*
X51597816Y25433924D01*
X51633194Y25386223D01*
X51663728Y25335281D01*
X51689119Y25281596D01*
X51709129Y25225674D01*
X51723557Y25168073D01*
X51732273Y25109310D01*
X51735188Y25050000D01*
X51732273Y24990690D01*
X51723557Y24931927D01*
X51709129Y24874326D01*
X51689119Y24818404D01*
X51663728Y24764719D01*
X51633194Y24713777D01*
X51597816Y24666076D01*
X51557932Y24622068D01*
X51513924Y24582184D01*
X51466223Y24546806D01*
X51415281Y24516272D01*
X51361596Y24490881D01*
X51305674Y24470871D01*
X51248073Y24456443D01*
X51189310Y24447727D01*
X51130000Y24444812D01*
X51070690Y24447727D01*
X51011927Y24456443D01*
X50954326Y24470871D01*
X50898404Y24490881D01*
X50844719Y24516272D01*
X50793777Y24546806D01*
X50746076Y24582184D01*
X50702063Y24622072D01*
X50635971Y24695000D01*
X27897047Y24695000D01*
X24647598Y21445551D01*
X24641122Y21437779D01*
X24587777Y21394003D01*
X24526229Y21361106D01*
X24459451Y21340849D01*
X24400066Y21335000D01*
X18184029Y21335000D01*
X18117937Y21262072D01*
X18073924Y21222184D01*
X18026223Y21186806D01*
X17975281Y21156272D01*
X17921596Y21130881D01*
X17865674Y21110871D01*
X17808073Y21096443D01*
X17749310Y21087727D01*
X17690000Y21084812D01*
D02*
G37*
%LPC*%
G36*
X28200000Y21944812D02*
X28116185Y21948931D01*
X28033157Y21961247D01*
X27951750Y21981638D01*
X27872740Y22009909D01*
X27796866Y22045795D01*
X27724882Y22088940D01*
X27657477Y22138930D01*
X27595292Y22195292D01*
X27538930Y22257477D01*
X27488940Y22324882D01*
X27445795Y22396866D01*
X27409909Y22472740D01*
X27381638Y22551750D01*
X27361247Y22633157D01*
X27348931Y22716185D01*
X27344812Y22800000D01*
X27348931Y22883815D01*
X27361247Y22966843D01*
X27381638Y23048250D01*
X27409909Y23127260D01*
X27445795Y23203134D01*
X27488940Y23275118D01*
X27538930Y23342523D01*
X27595292Y23404708D01*
X27657477Y23461070D01*
X27724882Y23511060D01*
X27796866Y23554205D01*
X27872740Y23590091D01*
X27951750Y23618362D01*
X28033157Y23638753D01*
X28116185Y23651069D01*
X28200000Y23655188D01*
X28283815Y23651069D01*
X28366843Y23638753D01*
X28448250Y23618362D01*
X28527260Y23590091D01*
X28603134Y23554205D01*
X28675118Y23511060D01*
X28742523Y23461070D01*
X28804708Y23404708D01*
X28861070Y23342523D01*
X28911060Y23275118D01*
X28954205Y23203134D01*
X28990091Y23127260D01*
X29018362Y23048250D01*
X29038753Y22966843D01*
X29051069Y22883815D01*
X29055188Y22800000D01*
X29051069Y22716185D01*
X29038753Y22633157D01*
X29018362Y22551750D01*
X28990091Y22472740D01*
X28954205Y22396866D01*
X28911060Y22324882D01*
X28861070Y22257477D01*
X28804708Y22195292D01*
X28742523Y22138930D01*
X28675118Y22088940D01*
X28603134Y22045795D01*
X28527260Y22009909D01*
X28448250Y21981638D01*
X28366843Y21961247D01*
X28283815Y21948931D01*
X28200000Y21944812D01*
D02*
G37*
%LPC*%
G36*
X43000000Y19694812D02*
X42881880Y19700617D01*
X42764877Y19717972D01*
X42650151Y19746709D01*
X42538798Y19786552D01*
X42431880Y19837120D01*
X42330429Y19897927D01*
X42235443Y19968374D01*
X42147804Y20047804D01*
X42068374Y20135443D01*
X41997927Y20230429D01*
X41937120Y20331880D01*
X41886552Y20438798D01*
X41846709Y20550151D01*
X41817972Y20664877D01*
X41800617Y20781880D01*
X41794812Y20900000D01*
X41800617Y21018120D01*
X41817972Y21135123D01*
X41846709Y21249849D01*
X41886552Y21361202D01*
X41937120Y21468120D01*
X41997927Y21569571D01*
X42068374Y21664557D01*
X42147804Y21752196D01*
X42235443Y21831626D01*
X42330429Y21902073D01*
X42431880Y21962880D01*
X42538798Y22013448D01*
X42650151Y22053291D01*
X42764877Y22082028D01*
X42881880Y22099383D01*
X43000000Y22105188D01*
X43118120Y22099383D01*
X43235123Y22082028D01*
X43349849Y22053291D01*
X43461202Y22013448D01*
X43568120Y21962880D01*
X43669571Y21902073D01*
X43764557Y21831626D01*
X43852196Y21752196D01*
X43931626Y21664557D01*
X44002073Y21569571D01*
X44062880Y21468120D01*
X44113448Y21361202D01*
X44153291Y21249849D01*
X44182028Y21135123D01*
X44199383Y21018120D01*
X44205188Y20900000D01*
X44199383Y20781880D01*
X44182028Y20664877D01*
X44153291Y20550151D01*
X44113448Y20438798D01*
X44062880Y20331880D01*
X44002073Y20230429D01*
X43931626Y20135443D01*
X43852196Y20047804D01*
X43764557Y19968374D01*
X43669571Y19897927D01*
X43568120Y19837120D01*
X43461202Y19786552D01*
X43349849Y19746709D01*
X43235123Y19717972D01*
X43118120Y19700617D01*
X43000000Y19694812D01*
D02*
G37*
%LPC*%
G36*
X48000000Y19694812D02*
X47881880Y19700617D01*
X47764877Y19717972D01*
X47650151Y19746709D01*
X47538798Y19786552D01*
X47431880Y19837120D01*
X47330429Y19897927D01*
X47235443Y19968374D01*
X47147804Y20047804D01*
X47068374Y20135443D01*
X46997927Y20230429D01*
X46937120Y20331880D01*
X46886552Y20438798D01*
X46846709Y20550151D01*
X46817972Y20664877D01*
X46800617Y20781880D01*
X46794812Y20900000D01*
X46800617Y21018120D01*
X46817972Y21135123D01*
X46846709Y21249849D01*
X46886552Y21361202D01*
X46937120Y21468120D01*
X46997927Y21569571D01*
X47068374Y21664557D01*
X47147804Y21752196D01*
X47235443Y21831626D01*
X47330429Y21902073D01*
X47431880Y21962880D01*
X47538798Y22013448D01*
X47650151Y22053291D01*
X47764877Y22082028D01*
X47881880Y22099383D01*
X48000000Y22105188D01*
X48118120Y22099383D01*
X48235123Y22082028D01*
X48349849Y22053291D01*
X48461202Y22013448D01*
X48568120Y21962880D01*
X48669571Y21902073D01*
X48764557Y21831626D01*
X48852196Y21752196D01*
X48931626Y21664557D01*
X49002073Y21569571D01*
X49062880Y21468120D01*
X49113448Y21361202D01*
X49153291Y21249849D01*
X49182028Y21135123D01*
X49199383Y21018120D01*
X49205188Y20900000D01*
X49199383Y20781880D01*
X49182028Y20664877D01*
X49153291Y20550151D01*
X49113448Y20438798D01*
X49062880Y20331880D01*
X49002073Y20230429D01*
X48931626Y20135443D01*
X48852196Y20047804D01*
X48764557Y19968374D01*
X48669571Y19897927D01*
X48568120Y19837120D01*
X48461202Y19786552D01*
X48349849Y19746709D01*
X48235123Y19717972D01*
X48118120Y19700617D01*
X48000000Y19694812D01*
D02*
G37*
%LPC*%
G36*
X53000000Y19694812D02*
X52881880Y19700617D01*
X52764877Y19717972D01*
X52650151Y19746709D01*
X52538798Y19786552D01*
X52431880Y19837120D01*
X52330429Y19897927D01*
X52235443Y19968374D01*
X52147804Y20047804D01*
X52068374Y20135443D01*
X51997927Y20230429D01*
X51937120Y20331880D01*
X51886552Y20438798D01*
X51846709Y20550151D01*
X51817972Y20664877D01*
X51800617Y20781880D01*
X51794812Y20900000D01*
X51800617Y21018120D01*
X51817972Y21135123D01*
X51846709Y21249849D01*
X51886552Y21361202D01*
X51937120Y21468120D01*
X51997927Y21569571D01*
X52068374Y21664557D01*
X52147804Y21752196D01*
X52235443Y21831626D01*
X52330429Y21902073D01*
X52431880Y21962880D01*
X52538798Y22013448D01*
X52650151Y22053291D01*
X52764877Y22082028D01*
X52881880Y22099383D01*
X53000000Y22105188D01*
X53118120Y22099383D01*
X53235123Y22082028D01*
X53349849Y22053291D01*
X53461202Y22013448D01*
X53568120Y21962880D01*
X53669571Y21902073D01*
X53764557Y21831626D01*
X53852196Y21752196D01*
X53931626Y21664557D01*
X54002073Y21569571D01*
X54062880Y21468120D01*
X54113448Y21361202D01*
X54153291Y21249849D01*
X54182028Y21135123D01*
X54199383Y21018120D01*
X54205188Y20900000D01*
X54199383Y20781880D01*
X54182028Y20664877D01*
X54153291Y20550151D01*
X54113448Y20438798D01*
X54062880Y20331880D01*
X54002073Y20230429D01*
X53931626Y20135443D01*
X53852196Y20047804D01*
X53764557Y19968374D01*
X53669571Y19897927D01*
X53568120Y19837120D01*
X53461202Y19786552D01*
X53349849Y19746709D01*
X53235123Y19717972D01*
X53118120Y19700617D01*
X53000000Y19694812D01*
D02*
G37*
%LPC*%
G36*
X14850000Y18344812D02*
X14785789Y18347967D01*
X14722173Y18357404D01*
X14659812Y18373024D01*
X14599274Y18394686D01*
X14541145Y18422179D01*
X14486000Y18455231D01*
X14434353Y18493535D01*
X14386713Y18536713D01*
X14343535Y18584353D01*
X14305231Y18636000D01*
X14272179Y18691145D01*
X14244686Y18749274D01*
X14223024Y18809812D01*
X14207404Y18872173D01*
X14197967Y18935789D01*
X14194812Y19000000D01*
X14197967Y19064211D01*
X14207404Y19127827D01*
X14223024Y19190188D01*
X14244686Y19250726D01*
X14272179Y19308855D01*
X14305231Y19364000D01*
X14343535Y19415647D01*
X14386713Y19463287D01*
X14434353Y19506465D01*
X14486000Y19544769D01*
X14541145Y19577821D01*
X14599274Y19605314D01*
X14659812Y19626976D01*
X14722173Y19642596D01*
X14785789Y19652033D01*
X14850000Y19655188D01*
X14914211Y19652033D01*
X14977827Y19642596D01*
X15040188Y19626976D01*
X15100726Y19605314D01*
X15158855Y19577821D01*
X15214000Y19544769D01*
X15265647Y19506465D01*
X15313287Y19463287D01*
X15356465Y19415647D01*
X15394769Y19364000D01*
X15427821Y19308855D01*
X15455314Y19250726D01*
X15476976Y19190188D01*
X15492596Y19127827D01*
X15502033Y19064211D01*
X15505188Y19000000D01*
X15502033Y18935789D01*
X15492596Y18872173D01*
X15476976Y18809812D01*
X15455314Y18749274D01*
X15427821Y18691145D01*
X15394769Y18636000D01*
X15356465Y18584353D01*
X15313287Y18536713D01*
X15265647Y18493535D01*
X15214000Y18455231D01*
X15158855Y18422179D01*
X15100726Y18394686D01*
X15040188Y18373024D01*
X14977827Y18357404D01*
X14914211Y18347967D01*
X14850000Y18344812D01*
D02*
G37*
%LPC*%
G36*
X51150000Y15244812D02*
X51066185Y15248931D01*
X50983157Y15261247D01*
X50901750Y15281638D01*
X50822740Y15309909D01*
X50746866Y15345795D01*
X50674882Y15388940D01*
X50607477Y15438930D01*
X50545292Y15495292D01*
X50488930Y15557477D01*
X50438940Y15624882D01*
X50395795Y15696866D01*
X50359909Y15772740D01*
X50331638Y15851750D01*
X50311247Y15933157D01*
X50298931Y16016185D01*
X50294812Y16100000D01*
X50298931Y16183815D01*
X50311247Y16266843D01*
X50331638Y16348250D01*
X50359909Y16427260D01*
X50395795Y16503134D01*
X50438940Y16575118D01*
X50488930Y16642523D01*
X50545292Y16704708D01*
X50607477Y16761070D01*
X50674882Y16811060D01*
X50746866Y16854205D01*
X50822740Y16890091D01*
X50901750Y16918362D01*
X50983157Y16938753D01*
X51066185Y16951069D01*
X51150000Y16955188D01*
X51233815Y16951069D01*
X51316843Y16938753D01*
X51398250Y16918362D01*
X51477260Y16890091D01*
X51553134Y16854205D01*
X51625118Y16811060D01*
X51692523Y16761070D01*
X51754708Y16704708D01*
X51811070Y16642523D01*
X51861060Y16575118D01*
X51904205Y16503134D01*
X51940091Y16427260D01*
X51968362Y16348250D01*
X51988753Y16266843D01*
X52001069Y16183815D01*
X52005188Y16100000D01*
X52001069Y16016185D01*
X51988753Y15933157D01*
X51968362Y15851750D01*
X51940091Y15772740D01*
X51904205Y15696866D01*
X51861060Y15624882D01*
X51811070Y15557477D01*
X51754708Y15495292D01*
X51692523Y15438930D01*
X51625118Y15388940D01*
X51553134Y15345795D01*
X51477260Y15309909D01*
X51398250Y15281638D01*
X51316843Y15261247D01*
X51233815Y15248931D01*
X51150000Y15244812D01*
D02*
G37*
%LPC*%
G36*
X28290000Y1614812D02*
X28196383Y1619413D01*
X28103650Y1633168D01*
X28012721Y1655944D01*
X27924470Y1687521D01*
X27839734Y1727598D01*
X27759317Y1775798D01*
X27684041Y1831627D01*
X27614581Y1894581D01*
X27551627Y1964041D01*
X27495798Y2039317D01*
X27447598Y2119734D01*
X27407521Y2204470D01*
X27375944Y2292721D01*
X27353168Y2383650D01*
X27339413Y2476383D01*
X27334812Y2570000D01*
X27339413Y2663617D01*
X27353168Y2756350D01*
X27375944Y2847279D01*
X27407521Y2935530D01*
X27447598Y3020266D01*
X27495798Y3100683D01*
X27551627Y3175959D01*
X27614581Y3245419D01*
X27685000Y3309241D01*
X27685000Y4900065D01*
X27695652Y5008224D01*
X27730137Y5121904D01*
X27786135Y5226669D01*
X27861009Y5317902D01*
X27868772Y5324371D01*
X32345000Y9800599D01*
X32345000Y11199545D01*
X32322086Y11230441D01*
X32283985Y11294009D01*
X32252300Y11361002D01*
X32227331Y11430782D01*
X32209325Y11502668D01*
X32198450Y11575986D01*
X32194812Y11650000D01*
X32198450Y11724014D01*
X32209325Y11797332D01*
X32227331Y11869218D01*
X32252300Y11938998D01*
X32283985Y12005991D01*
X32322089Y12069565D01*
X32366233Y12129085D01*
X32416002Y12183998D01*
X32470915Y12233767D01*
X32530435Y12277911D01*
X32594009Y12316015D01*
X32661002Y12347700D01*
X32730782Y12372669D01*
X32802668Y12390675D01*
X32875986Y12401550D01*
X32950000Y12405188D01*
X33024014Y12401550D01*
X33097332Y12390675D01*
X33169218Y12372669D01*
X33238998Y12347700D01*
X33305991Y12316015D01*
X33369565Y12277911D01*
X33429085Y12233767D01*
X33483998Y12183998D01*
X33533767Y12129085D01*
X33577911Y12069565D01*
X33616015Y12005991D01*
X33647700Y11938998D01*
X33672669Y11869218D01*
X33690675Y11797332D01*
X33701550Y11724014D01*
X33705188Y11650000D01*
X33701550Y11575986D01*
X33690675Y11502668D01*
X33672669Y11430782D01*
X33647700Y11361002D01*
X33616015Y11294009D01*
X33577914Y11230441D01*
X33555000Y11199545D01*
X33555000Y9539924D01*
X33544349Y9431779D01*
X33509861Y9318094D01*
X33453864Y9213330D01*
X33378990Y9122097D01*
X33371227Y9115628D01*
X28895000Y4639401D01*
X28895000Y3309241D01*
X28965419Y3245419D01*
X29028373Y3175959D01*
X29084202Y3100683D01*
X29132402Y3020266D01*
X29172479Y2935530D01*
X29204056Y2847279D01*
X29226832Y2756350D01*
X29240587Y2663617D01*
X29245188Y2570000D01*
X29240587Y2476383D01*
X29226832Y2383650D01*
X29204056Y2292721D01*
X29172479Y2204470D01*
X29132402Y2119734D01*
X29084202Y2039317D01*
X29028373Y1964041D01*
X28965419Y1894581D01*
X28895959Y1831627D01*
X28820683Y1775798D01*
X28740266Y1727598D01*
X28655530Y1687521D01*
X28567279Y1655944D01*
X28476350Y1633168D01*
X28383617Y1619413D01*
X28290000Y1614812D01*
D02*
G37*
%LPC*%
G36*
X43260000Y3964813D02*
X43181076Y3968691D01*
X43102912Y3980286D01*
X43026264Y3999485D01*
X42951869Y4026104D01*
X42880443Y4059887D01*
X42812661Y4100513D01*
X42749196Y4147583D01*
X42690647Y4200647D01*
X42637583Y4259196D01*
X42590513Y4322661D01*
X42549887Y4390443D01*
X42516104Y4461869D01*
X42489485Y4536264D01*
X42470286Y4612912D01*
X42458691Y4691076D01*
X42454813Y4770000D01*
X42458691Y4848924D01*
X42470286Y4927088D01*
X42489485Y5003736D01*
X42516104Y5078131D01*
X42549887Y5149557D01*
X42590513Y5217339D01*
X42637583Y5280804D01*
X42690647Y5339353D01*
X42749196Y5392417D01*
X42812661Y5439487D01*
X42880443Y5480113D01*
X42951869Y5513896D01*
X43026264Y5540515D01*
X43102912Y5559714D01*
X43181076Y5571309D01*
X43260000Y5575187D01*
X43338924Y5571309D01*
X43417088Y5559714D01*
X43493736Y5540515D01*
X43568131Y5513896D01*
X43639557Y5480113D01*
X43707339Y5439487D01*
X43770804Y5392417D01*
X43829353Y5339353D01*
X43882417Y5280804D01*
X43929487Y5217339D01*
X43970113Y5149557D01*
X44003896Y5078131D01*
X44030515Y5003736D01*
X44049714Y4927088D01*
X44061309Y4848924D01*
X44065187Y4770000D01*
X44061309Y4691076D01*
X44049714Y4612912D01*
X44030515Y4536264D01*
X44003896Y4461869D01*
X43970113Y4390443D01*
X43929487Y4322661D01*
X43882417Y4259196D01*
X43829353Y4200647D01*
X43770804Y4147583D01*
X43707339Y4100513D01*
X43639557Y4059887D01*
X43568131Y4026104D01*
X43493736Y3999485D01*
X43417088Y3980286D01*
X43338924Y3968691D01*
X43260000Y3964813D01*
D02*
G37*
%LPC*%
G36*
X48340000Y3964813D02*
X48261076Y3968691D01*
X48182912Y3980286D01*
X48106264Y3999485D01*
X48031869Y4026104D01*
X47960443Y4059887D01*
X47892661Y4100513D01*
X47829196Y4147583D01*
X47770647Y4200647D01*
X47717583Y4259196D01*
X47670513Y4322661D01*
X47629887Y4390443D01*
X47596104Y4461869D01*
X47569485Y4536264D01*
X47550286Y4612912D01*
X47538691Y4691076D01*
X47534813Y4770000D01*
X47538691Y4848924D01*
X47550286Y4927088D01*
X47569485Y5003736D01*
X47596104Y5078131D01*
X47629887Y5149557D01*
X47670513Y5217339D01*
X47717583Y5280804D01*
X47770647Y5339353D01*
X47829196Y5392417D01*
X47892661Y5439487D01*
X47960443Y5480113D01*
X48031869Y5513896D01*
X48106264Y5540515D01*
X48182912Y5559714D01*
X48261076Y5571309D01*
X48340000Y5575187D01*
X48418924Y5571309D01*
X48497088Y5559714D01*
X48573736Y5540515D01*
X48648131Y5513896D01*
X48719557Y5480113D01*
X48787339Y5439487D01*
X48850804Y5392417D01*
X48909353Y5339353D01*
X48962417Y5280804D01*
X49009487Y5217339D01*
X49050113Y5149557D01*
X49083896Y5078131D01*
X49110515Y5003736D01*
X49129714Y4927088D01*
X49141309Y4848924D01*
X49145187Y4770000D01*
X49141309Y4691076D01*
X49129714Y4612912D01*
X49110515Y4536264D01*
X49083896Y4461869D01*
X49050113Y4390443D01*
X49009487Y4322661D01*
X48962417Y4259196D01*
X48909353Y4200647D01*
X48850804Y4147583D01*
X48787339Y4100513D01*
X48719557Y4059887D01*
X48648131Y4026104D01*
X48573736Y3999485D01*
X48497088Y3980286D01*
X48418924Y3968691D01*
X48340000Y3964813D01*
D02*
G37*
%LPC*%
G36*
X6445000Y3785000D02*
X5530395Y3785000D01*
X5544490Y3880014D01*
X5568935Y3977605D01*
X5602827Y4072328D01*
X5645842Y4163275D01*
X5697571Y4249579D01*
X5757504Y4330389D01*
X5825067Y4404933D01*
X5899611Y4472496D01*
X5980421Y4532429D01*
X6066725Y4584158D01*
X6157672Y4627173D01*
X6252395Y4661065D01*
X6349986Y4685510D01*
X6445000Y4699605D01*
X6445000Y3785000D01*
D02*
G37*
%LPC*%
G36*
X7569605Y3785000D02*
X6655000Y3785000D01*
X6655000Y4699605D01*
X6750014Y4685510D01*
X6847605Y4661065D01*
X6942328Y4627173D01*
X7033275Y4584158D01*
X7119579Y4532429D01*
X7200389Y4472496D01*
X7274933Y4404933D01*
X7342496Y4330389D01*
X7402429Y4249579D01*
X7454158Y4163275D01*
X7497173Y4072328D01*
X7531065Y3977605D01*
X7555510Y3880014D01*
X7569605Y3785000D01*
D02*
G37*
%LPC*%
G36*
X4050000Y2674813D02*
X3951474Y2679654D01*
X3853893Y2694129D01*
X3758208Y2718097D01*
X3665331Y2751329D01*
X3576160Y2793502D01*
X3491554Y2844214D01*
X3412314Y2902983D01*
X3339226Y2969226D01*
X3272983Y3042314D01*
X3214214Y3121554D01*
X3163502Y3206160D01*
X3121329Y3295331D01*
X3088097Y3388208D01*
X3064129Y3483893D01*
X3049654Y3581474D01*
X3044813Y3680000D01*
X3049654Y3778526D01*
X3064129Y3876107D01*
X3088097Y3971792D01*
X3121329Y4064669D01*
X3163502Y4153840D01*
X3214214Y4238446D01*
X3272983Y4317686D01*
X3339226Y4390774D01*
X3412314Y4457017D01*
X3491554Y4515786D01*
X3576160Y4566498D01*
X3665331Y4608671D01*
X3758208Y4641903D01*
X3853893Y4665871D01*
X3951474Y4680346D01*
X4050000Y4685187D01*
X4148526Y4680346D01*
X4246107Y4665871D01*
X4341792Y4641903D01*
X4434669Y4608671D01*
X4523840Y4566498D01*
X4608446Y4515786D01*
X4687686Y4457017D01*
X4760774Y4390774D01*
X4827017Y4317686D01*
X4885786Y4238446D01*
X4936498Y4153840D01*
X4978671Y4064669D01*
X5011903Y3971792D01*
X5035871Y3876107D01*
X5050346Y3778526D01*
X5055187Y3680000D01*
X5050346Y3581474D01*
X5035871Y3483893D01*
X5011903Y3388208D01*
X4978671Y3295331D01*
X4936498Y3206160D01*
X4885786Y3121554D01*
X4827017Y3042314D01*
X4760774Y2969226D01*
X4687686Y2902983D01*
X4608446Y2844214D01*
X4523840Y2793502D01*
X4434669Y2751329D01*
X4341792Y2718097D01*
X4246107Y2694129D01*
X4148526Y2679654D01*
X4050000Y2674813D01*
D02*
G37*
%LPC*%
G36*
X54845000Y3755000D02*
X53930395Y3755000D01*
X53944490Y3850014D01*
X53968935Y3947605D01*
X54002827Y4042328D01*
X54045842Y4133275D01*
X54097571Y4219579D01*
X54157504Y4300389D01*
X54225067Y4374933D01*
X54299611Y4442496D01*
X54380421Y4502429D01*
X54466725Y4554158D01*
X54557672Y4597173D01*
X54652395Y4631065D01*
X54749986Y4655510D01*
X54845000Y4669605D01*
X54845000Y3755000D01*
D02*
G37*
%LPC*%
G36*
X55969605Y3755000D02*
X55055000Y3755000D01*
X55055000Y4669605D01*
X55150014Y4655510D01*
X55247605Y4631065D01*
X55342328Y4597173D01*
X55433275Y4554158D01*
X55519579Y4502429D01*
X55600389Y4442496D01*
X55674933Y4374933D01*
X55742496Y4300389D01*
X55802429Y4219579D01*
X55854158Y4133275D01*
X55897173Y4042328D01*
X55931065Y3947605D01*
X55955510Y3850014D01*
X55969605Y3755000D01*
D02*
G37*
%LPC*%
G36*
X52450000Y2644813D02*
X52351474Y2649654D01*
X52253893Y2664129D01*
X52158208Y2688097D01*
X52065331Y2721329D01*
X51976160Y2763502D01*
X51891554Y2814214D01*
X51812314Y2872983D01*
X51739226Y2939226D01*
X51672983Y3012314D01*
X51614214Y3091554D01*
X51563502Y3176160D01*
X51521329Y3265331D01*
X51488097Y3358208D01*
X51464129Y3453893D01*
X51449654Y3551474D01*
X51444813Y3650000D01*
X51449654Y3748526D01*
X51464129Y3846107D01*
X51488097Y3941792D01*
X51521329Y4034669D01*
X51563502Y4123840D01*
X51614214Y4208446D01*
X51672983Y4287686D01*
X51739226Y4360774D01*
X51812314Y4427017D01*
X51891554Y4485786D01*
X51976160Y4536498D01*
X52065331Y4578671D01*
X52158208Y4611903D01*
X52253893Y4635871D01*
X52351474Y4650346D01*
X52450000Y4655187D01*
X52548526Y4650346D01*
X52646107Y4635871D01*
X52741792Y4611903D01*
X52834669Y4578671D01*
X52923840Y4536498D01*
X53008446Y4485786D01*
X53087686Y4427017D01*
X53160774Y4360774D01*
X53227017Y4287686D01*
X53285786Y4208446D01*
X53336498Y4123840D01*
X53378671Y4034669D01*
X53411903Y3941792D01*
X53435871Y3846107D01*
X53450346Y3748526D01*
X53455187Y3650000D01*
X53450346Y3551474D01*
X53435871Y3453893D01*
X53411903Y3358208D01*
X53378671Y3265331D01*
X53336498Y3176160D01*
X53285786Y3091554D01*
X53227017Y3012314D01*
X53160774Y2939226D01*
X53087686Y2872983D01*
X53008446Y2814214D01*
X52923840Y2763502D01*
X52834669Y2721329D01*
X52741792Y2688097D01*
X52646107Y2664129D01*
X52548526Y2649654D01*
X52450000Y2644813D01*
D02*
G37*
%LPC*%
G36*
X40405000Y3405000D02*
X39490395Y3405000D01*
X39504490Y3500014D01*
X39528935Y3597605D01*
X39562827Y3692328D01*
X39605842Y3783275D01*
X39657571Y3869579D01*
X39717504Y3950389D01*
X39785067Y4024933D01*
X39859611Y4092496D01*
X39940421Y4152429D01*
X40026725Y4204158D01*
X40117672Y4247173D01*
X40212395Y4281065D01*
X40309986Y4305510D01*
X40405000Y4319605D01*
X40405000Y3405000D01*
D02*
G37*
%LPC*%
G36*
X41529605Y3405000D02*
X40615000Y3405000D01*
X40615000Y4319605D01*
X40710014Y4305510D01*
X40807605Y4281065D01*
X40902328Y4247173D01*
X40993275Y4204158D01*
X41079579Y4152429D01*
X41160389Y4092496D01*
X41234933Y4024933D01*
X41302496Y3950389D01*
X41362429Y3869579D01*
X41414158Y3783275D01*
X41457173Y3692328D01*
X41491065Y3597605D01*
X41515510Y3500014D01*
X41529605Y3405000D01*
D02*
G37*
%LPC*%
G36*
X32890000Y2294813D02*
X32791474Y2299654D01*
X32693893Y2314129D01*
X32598208Y2338097D01*
X32505331Y2371329D01*
X32416160Y2413502D01*
X32331554Y2464214D01*
X32252314Y2522983D01*
X32179226Y2589226D01*
X32112983Y2662314D01*
X32054214Y2741554D01*
X32003502Y2826160D01*
X31961329Y2915331D01*
X31928097Y3008208D01*
X31904129Y3103893D01*
X31889654Y3201474D01*
X31884813Y3300000D01*
X31889654Y3398526D01*
X31904129Y3496107D01*
X31928097Y3591792D01*
X31961329Y3684669D01*
X32003502Y3773840D01*
X32054214Y3858446D01*
X32112983Y3937686D01*
X32179226Y4010774D01*
X32252314Y4077017D01*
X32331554Y4135786D01*
X32416160Y4186498D01*
X32505331Y4228671D01*
X32598208Y4261903D01*
X32693893Y4285871D01*
X32791474Y4300346D01*
X32890000Y4305187D01*
X32988526Y4300346D01*
X33086107Y4285871D01*
X33181792Y4261903D01*
X33274669Y4228671D01*
X33363840Y4186498D01*
X33448446Y4135786D01*
X33527686Y4077017D01*
X33600774Y4010774D01*
X33667017Y3937686D01*
X33725786Y3858446D01*
X33776498Y3773840D01*
X33818671Y3684669D01*
X33851903Y3591792D01*
X33875871Y3496107D01*
X33890346Y3398526D01*
X33895187Y3300000D01*
X33890346Y3201474D01*
X33875871Y3103893D01*
X33851903Y3008208D01*
X33818671Y2915331D01*
X33776498Y2826160D01*
X33725786Y2741554D01*
X33667017Y2662314D01*
X33600774Y2589226D01*
X33527686Y2522983D01*
X33448446Y2464214D01*
X33363840Y2413502D01*
X33274669Y2371329D01*
X33181792Y2338097D01*
X33086107Y2314129D01*
X32988526Y2299654D01*
X32890000Y2294813D01*
D02*
G37*
%LPC*%
G36*
X6655000Y2660395D02*
X6655000Y3575000D01*
X7569605Y3575000D01*
X7555510Y3479986D01*
X7531065Y3382395D01*
X7497173Y3287672D01*
X7454158Y3196725D01*
X7402429Y3110421D01*
X7342496Y3029611D01*
X7274933Y2955067D01*
X7200389Y2887504D01*
X7119579Y2827571D01*
X7033275Y2775842D01*
X6942328Y2732827D01*
X6847605Y2698935D01*
X6750014Y2674490D01*
X6655000Y2660395D01*
D02*
G37*
%LPC*%
G36*
X6445000Y2660395D02*
X6349986Y2674490D01*
X6252395Y2698935D01*
X6157672Y2732827D01*
X6066725Y2775842D01*
X5980421Y2827571D01*
X5899611Y2887504D01*
X5825067Y2955067D01*
X5757504Y3029611D01*
X5697571Y3110421D01*
X5645842Y3196725D01*
X5602827Y3287672D01*
X5568935Y3382395D01*
X5544490Y3479986D01*
X5530395Y3575000D01*
X6445000Y3575000D01*
X6445000Y2660395D01*
D02*
G37*
%LPC*%
G36*
X55055000Y2630395D02*
X55055000Y3545000D01*
X55969605Y3545000D01*
X55955510Y3449986D01*
X55931065Y3352395D01*
X55897173Y3257672D01*
X55854158Y3166725D01*
X55802429Y3080421D01*
X55742496Y2999611D01*
X55674933Y2925067D01*
X55600389Y2857504D01*
X55519579Y2797571D01*
X55433275Y2745842D01*
X55342328Y2702827D01*
X55247605Y2668935D01*
X55150014Y2644490D01*
X55055000Y2630395D01*
D02*
G37*
%LPC*%
G36*
X54845000Y2630395D02*
X54749986Y2644490D01*
X54652395Y2668935D01*
X54557672Y2702827D01*
X54466725Y2745842D01*
X54380421Y2797571D01*
X54299611Y2857504D01*
X54225067Y2925067D01*
X54157504Y2999611D01*
X54097571Y3080421D01*
X54045842Y3166725D01*
X54002827Y3257672D01*
X53968935Y3352395D01*
X53944490Y3449986D01*
X53930395Y3545000D01*
X54845000Y3545000D01*
X54845000Y2630395D01*
D02*
G37*
%LPC*%
G36*
X25645000Y2675000D02*
X24780882Y2675000D01*
X24793529Y2760258D01*
X24816781Y2853087D01*
X24849025Y2943201D01*
X24889935Y3029701D01*
X24939145Y3111801D01*
X24996154Y3188668D01*
X25060422Y3259578D01*
X25131332Y3323846D01*
X25208199Y3380855D01*
X25290299Y3430065D01*
X25376799Y3470975D01*
X25466913Y3503219D01*
X25559742Y3526471D01*
X25645000Y3539118D01*
X25645000Y2675000D01*
D02*
G37*
%LPC*%
G36*
X26719118Y2675000D02*
X25855000Y2675000D01*
X25855000Y3539118D01*
X25940258Y3526471D01*
X26033087Y3503219D01*
X26123201Y3470975D01*
X26209701Y3430065D01*
X26291801Y3380855D01*
X26368668Y3323846D01*
X26439578Y3259578D01*
X26503846Y3188668D01*
X26560855Y3111801D01*
X26610065Y3029701D01*
X26650975Y2943201D01*
X26683219Y2853087D01*
X26706471Y2760258D01*
X26719118Y2675000D01*
D02*
G37*
%LPC*%
G36*
X23210000Y1614812D02*
X23116383Y1619413D01*
X23023650Y1633168D01*
X22932721Y1655944D01*
X22844470Y1687521D01*
X22759734Y1727598D01*
X22679317Y1775798D01*
X22604041Y1831627D01*
X22534581Y1894581D01*
X22471627Y1964041D01*
X22415798Y2039317D01*
X22367598Y2119734D01*
X22327521Y2204470D01*
X22295944Y2292721D01*
X22273168Y2383650D01*
X22259413Y2476383D01*
X22254812Y2570000D01*
X22259413Y2663617D01*
X22273168Y2756350D01*
X22295944Y2847279D01*
X22327521Y2935530D01*
X22367598Y3020266D01*
X22415798Y3100683D01*
X22471627Y3175959D01*
X22534581Y3245419D01*
X22604041Y3308373D01*
X22679317Y3364202D01*
X22759734Y3412402D01*
X22844470Y3452479D01*
X22932721Y3484056D01*
X23023650Y3506832D01*
X23116383Y3520587D01*
X23210000Y3525188D01*
X23303617Y3520587D01*
X23396350Y3506832D01*
X23487279Y3484056D01*
X23575530Y3452479D01*
X23660266Y3412402D01*
X23740683Y3364202D01*
X23815959Y3308373D01*
X23885419Y3245419D01*
X23948373Y3175959D01*
X24004202Y3100683D01*
X24052402Y3020266D01*
X24092479Y2935530D01*
X24124056Y2847279D01*
X24146832Y2756350D01*
X24160587Y2663617D01*
X24165188Y2570000D01*
X24160587Y2476383D01*
X24146832Y2383650D01*
X24124056Y2292721D01*
X24092479Y2204470D01*
X24052402Y2119734D01*
X24004202Y2039317D01*
X23948373Y1964041D01*
X23885419Y1894581D01*
X23815959Y1831627D01*
X23740683Y1775798D01*
X23660266Y1727598D01*
X23575530Y1687521D01*
X23487279Y1655944D01*
X23396350Y1633168D01*
X23303617Y1619413D01*
X23210000Y1614812D01*
D02*
G37*
%LPC*%
G36*
X40615000Y2280395D02*
X40615000Y3195000D01*
X41529605Y3195000D01*
X41515510Y3099986D01*
X41491065Y3002395D01*
X41457173Y2907672D01*
X41414158Y2816725D01*
X41362429Y2730421D01*
X41302496Y2649611D01*
X41234933Y2575067D01*
X41160389Y2507504D01*
X41079579Y2447571D01*
X40993275Y2395842D01*
X40902328Y2352827D01*
X40807605Y2318935D01*
X40710014Y2294490D01*
X40615000Y2280395D01*
D02*
G37*
%LPC*%
G36*
X40405000Y2280395D02*
X40309986Y2294490D01*
X40212395Y2318935D01*
X40117672Y2352827D01*
X40026725Y2395842D01*
X39940421Y2447571D01*
X39859611Y2507504D01*
X39785067Y2575067D01*
X39717504Y2649611D01*
X39657571Y2730421D01*
X39605842Y2816725D01*
X39562827Y2907672D01*
X39528935Y3002395D01*
X39504490Y3099986D01*
X39490395Y3195000D01*
X40405000Y3195000D01*
X40405000Y2280395D01*
D02*
G37*
%LPC*%
G36*
X45800000Y1424813D02*
X45721076Y1428691D01*
X45642912Y1440286D01*
X45566264Y1459485D01*
X45491869Y1486104D01*
X45420443Y1519887D01*
X45352661Y1560513D01*
X45289196Y1607583D01*
X45230647Y1660647D01*
X45177583Y1719196D01*
X45130513Y1782661D01*
X45089887Y1850443D01*
X45056104Y1921869D01*
X45029485Y1996264D01*
X45010286Y2072912D01*
X44998691Y2151076D01*
X44994813Y2230000D01*
X44998691Y2308924D01*
X45010286Y2387088D01*
X45029485Y2463736D01*
X45056104Y2538131D01*
X45089887Y2609557D01*
X45130513Y2677339D01*
X45177583Y2740804D01*
X45230647Y2799353D01*
X45289196Y2852417D01*
X45352661Y2899487D01*
X45420443Y2940113D01*
X45491869Y2973896D01*
X45566264Y3000515D01*
X45642912Y3019714D01*
X45721076Y3031309D01*
X45800000Y3035187D01*
X45878924Y3031309D01*
X45957088Y3019714D01*
X46033736Y3000515D01*
X46108131Y2973896D01*
X46179557Y2940113D01*
X46247339Y2899487D01*
X46310804Y2852417D01*
X46369353Y2799353D01*
X46422417Y2740804D01*
X46469487Y2677339D01*
X46510113Y2609557D01*
X46543896Y2538131D01*
X46570515Y2463736D01*
X46589714Y2387088D01*
X46601309Y2308924D01*
X46605187Y2230000D01*
X46601309Y2151076D01*
X46589714Y2072912D01*
X46570515Y1996264D01*
X46543896Y1921869D01*
X46510113Y1850443D01*
X46469487Y1782661D01*
X46422417Y1719196D01*
X46369353Y1660647D01*
X46310804Y1607583D01*
X46247339Y1560513D01*
X46179557Y1519887D01*
X46108131Y1486104D01*
X46033736Y1459485D01*
X45957088Y1440286D01*
X45878924Y1428691D01*
X45800000Y1424813D01*
D02*
G37*
%LPC*%
G36*
X25855000Y1600882D02*
X25855000Y2465000D01*
X26719118Y2465000D01*
X26706471Y2379742D01*
X26683219Y2286913D01*
X26650975Y2196799D01*
X26610065Y2110299D01*
X26560855Y2028199D01*
X26503846Y1951332D01*
X26439578Y1880422D01*
X26368668Y1816154D01*
X26291801Y1759145D01*
X26209701Y1709935D01*
X26123201Y1669025D01*
X26033087Y1636781D01*
X25940258Y1613529D01*
X25855000Y1600882D01*
D02*
G37*
%LPC*%
G36*
X25645000Y1600882D02*
X25559742Y1613529D01*
X25466913Y1636781D01*
X25376799Y1669025D01*
X25290299Y1709935D01*
X25208199Y1759145D01*
X25131332Y1816154D01*
X25060422Y1880422D01*
X24996154Y1951332D01*
X24939145Y2028199D01*
X24889935Y2110299D01*
X24849025Y2196799D01*
X24816781Y2286913D01*
X24793529Y2379742D01*
X24780882Y2465000D01*
X25645000Y2465000D01*
X25645000Y1600882D01*
D02*
G37*
G01*
%LPD*%
D10*
X13840000Y33800000D02*
X13840000Y52740000D01*
D10*
X31530000Y37900000D02*
X37870000Y31560000D01*
D10*
X24600000Y37900000D02*
X31530000Y37900000D01*
D11*
X28290000Y4890000D02*
X32950000Y9550000D01*
D10*
X7440000Y20270000D02*
X9870000Y20270000D01*
D10*
X13840000Y52740000D02*
X18010000Y56910000D01*
D10*
X35250000Y59950000D02*
X32200000Y56900000D01*
D11*
X32950000Y9550000D02*
X32950000Y11650000D01*
D10*
X9870000Y20270000D02*
X14200000Y24600000D01*
D10*
X27750000Y25050000D02*
X51130000Y25050000D01*
D10*
X16080000Y36900000D02*
X16080000Y37420000D01*
D10*
X14200000Y31100000D02*
X17800000Y34700000D01*
D10*
X26000000Y40800000D02*
X26000000Y48860000D01*
D10*
X15100000Y38400000D02*
X15100000Y40800000D01*
D10*
X24390000Y21690000D02*
X27750000Y25050000D01*
D10*
X35250000Y63250000D02*
X35250000Y59950000D01*
D11*
X28290000Y2570000D02*
X28290000Y4890000D01*
D10*
X14200000Y24600000D02*
X14200000Y31100000D01*
D10*
X18010000Y56910000D02*
X19710000Y56910000D01*
D10*
X17690000Y21690000D02*
X24390000Y21690000D01*
D10*
X16080000Y37420000D02*
X15100000Y38400000D01*
G75*
D12*
X43000000Y51200000D03*
D12*
X53000000Y51200000D03*
D12*
X48000000Y51200000D03*
D12*
X43000000Y20900000D03*
D12*
X53000000Y20900000D03*
D12*
X48000000Y20900000D03*
D13*
X23750000Y63250000D03*
D13*
X23750000Y75700000D03*
D13*
X7450000Y75700000D03*
D13*
X23750000Y69450000D03*
D13*
X7450000Y69450000D03*
D13*
X7450000Y63250000D03*
D14*
X30750000Y62400000D03*
D14*
X28250000Y62400000D03*
D12*
X6000000Y51200000D03*
D12*
X16000000Y51200000D03*
D12*
X11000000Y51200000D03*
D15*
X32890000Y3300000D03*
D15*
X40510000Y3300000D03*
D16*
X52450000Y3650000D03*
D16*
X54950000Y3650000D03*
D17*
X48340000Y4770000D03*
D17*
X45800000Y2230000D03*
D17*
X43260000Y4770000D03*
D13*
X51550000Y63250000D03*
D13*
X51550000Y75700000D03*
D13*
X35250000Y75700000D03*
D13*
X51550000Y69450000D03*
D13*
X35250000Y69450000D03*
D13*
X35250000Y63250000D03*
D18*
X23210000Y2570000D03*
D18*
X25750000Y2570000D03*
D18*
X28290000Y2570000D03*
D16*
X4050000Y3680000D03*
D16*
X6550000Y3680000D03*
D19*
X11000000Y36900000D03*
D19*
X16080000Y36900000D03*
D19*
X5920000Y36900000D03*
D20*
X7336000Y54900000D03*
D21*
X58000000Y60900000D03*
D21*
X1003000Y60900000D03*
D20*
X54450000Y12000000D03*
D20*
X39001000Y66900000D03*
D22*
X26000000Y40800000D03*
D21*
X51667000Y900000D03*
D20*
X39001000Y60900000D03*
D20*
X29300000Y41000000D03*
D22*
X32200000Y56900000D03*
D20*
X13669000Y6900000D03*
D20*
X51667000Y6900000D03*
D22*
X17690000Y21690000D03*
D21*
X26335000Y900000D03*
D20*
X13669000Y12900000D03*
D21*
X1003000Y66900000D03*
D22*
X37870000Y31560000D03*
D20*
X51667000Y54900000D03*
D20*
X39001000Y72900000D03*
D20*
X9680000Y22810000D03*
D20*
X20002000Y66900000D03*
D21*
X45334000Y900000D03*
D20*
X9680000Y21540000D03*
D23*
X16075000Y29065000D03*
D21*
X51667000Y79233000D03*
D22*
X24600000Y37900000D03*
D20*
X26335000Y60900000D03*
D21*
X39001000Y900000D03*
D20*
X37350000Y52800000D03*
D20*
X13708466Y21690000D03*
D20*
X7336000Y60900000D03*
D20*
X17200000Y40790000D03*
D20*
X33660000Y53400000D03*
D22*
X26000000Y48860000D03*
D20*
X29300000Y17600000D03*
D23*
X23320000Y33390000D03*
D21*
X26335000Y79233000D03*
D20*
X39001000Y6300000D03*
D22*
X19710000Y56910000D03*
D24*
X36050000Y44300000D03*
D20*
X28000000Y26270000D03*
D20*
X45634000Y54900000D03*
D20*
X14750000Y17500000D03*
D20*
X3700000Y36900000D03*
D20*
X33668000Y12900000D03*
D20*
X32360000Y55300000D03*
D21*
X45334000Y79233000D03*
D20*
X20002000Y72900000D03*
D20*
X20002000Y55400000D03*
D20*
X48200000Y14350000D03*
D20*
X40600000Y14950000D03*
D20*
X45734000Y48900000D03*
D20*
X33100000Y41000000D03*
D23*
X23420000Y35180000D03*
D20*
X20002000Y12900000D03*
D23*
X16075000Y29065000D03*
D20*
X45334000Y72900000D03*
D20*
X32360000Y49000000D03*
D20*
X7336000Y72900000D03*
D21*
X58000000Y36900000D03*
D21*
X20002000Y900000D03*
D20*
X7336000Y66900000D03*
D20*
X7836000Y36500000D03*
D21*
X1003000Y18900000D03*
D25*
X27510000Y32070000D03*
D20*
X36800000Y14950000D03*
D20*
X26335000Y18900000D03*
D22*
X51130000Y25050000D03*
D21*
X1003000Y72900000D03*
D20*
X45030000Y28300000D03*
D20*
X12090000Y40150000D03*
D20*
X13669000Y66900000D03*
D21*
X1003000Y900000D03*
D23*
X4950000Y48080000D03*
D21*
X1003000Y6900000D03*
D20*
X49271668Y34078328D03*
D21*
X20002000Y79233000D03*
D23*
X51971668Y35578328D03*
D20*
X51667000Y72900000D03*
D20*
X22370000Y14510000D03*
D20*
X20210000Y40380000D03*
D21*
X58000000Y900000D03*
D21*
X58000000Y6900000D03*
D20*
X45350000Y15150000D03*
D20*
X39450000Y36290000D03*
D26*
X43200000Y44300000D03*
D21*
X13669000Y900000D03*
D20*
X29080000Y10670000D03*
D21*
X58000000Y24900000D03*
D21*
X26335000Y66900000D03*
D21*
X58000000Y66900000D03*
D20*
X28310000Y8030000D03*
D23*
X12500000Y47730000D03*
D20*
X34960000Y55300000D03*
D21*
X32668000Y79233000D03*
D25*
X28200000Y22800000D03*
D21*
X32668000Y72900000D03*
D20*
X7336000Y12900000D03*
D20*
X11810000Y33540000D03*
D20*
X39450000Y55200000D03*
D21*
X58000000Y54900000D03*
D21*
X1003000Y36900000D03*
D21*
X58000000Y18900000D03*
D20*
X45334000Y60900000D03*
D20*
X20002000Y60900000D03*
D21*
X1003000Y30900000D03*
D20*
X33660000Y50900000D03*
D21*
X58000000Y48900000D03*
D27*
X48291668Y29548328D03*
D23*
X18500000Y36490000D03*
D21*
X58000000Y12900000D03*
D20*
X27235000Y48200000D03*
D22*
X7440000Y20270000D03*
D25*
X51150000Y16100000D03*
D20*
X19180000Y48480000D03*
D21*
X32668000Y900000D03*
D20*
X45334000Y6900000D03*
D20*
X42500000Y14350000D03*
D20*
X27275000Y43000000D03*
D21*
X13669000Y79233000D03*
D21*
X7336000Y79233000D03*
D23*
X19890000Y26740000D03*
D20*
X33000000Y46500000D03*
D20*
X15950000Y27190000D03*
D20*
X7330160Y19000000D03*
D20*
X33100000Y17600000D03*
D21*
X26335000Y72900000D03*
D22*
X17800000Y34700000D03*
D23*
X23320000Y31140000D03*
D20*
X26335000Y54900000D03*
D20*
X23200000Y18900000D03*
D20*
X45334000Y66900000D03*
D23*
X14850000Y19000000D03*
D20*
X9698466Y31850000D03*
D21*
X1003000Y42900000D03*
D21*
X32668000Y66900000D03*
D20*
X13669000Y60900000D03*
D20*
X20002000Y18900000D03*
D20*
X41350000Y39100000D03*
D22*
X13840000Y33800000D03*
D20*
X39001000Y18900000D03*
D21*
X1003000Y48900000D03*
D22*
X15100000Y40800000D03*
D20*
X11180000Y26350000D03*
D20*
X35750000Y45800000D03*
D20*
X7336000Y24900000D03*
D21*
X39001000Y79233000D03*
D20*
X6400000Y41900000D03*
D21*
X58000000Y72900000D03*
D21*
X1003000Y12900000D03*
D20*
X54450000Y15400000D03*
D25*
X34800000Y32070000D03*
D20*
X41950000Y52800000D03*
D21*
X1003000Y54900000D03*
D21*
X7336000Y900000D03*
D20*
X51667000Y66900000D03*
D20*
X37550000Y39100000D03*
D20*
X51667000Y60900000D03*
D21*
X1003000Y24900000D03*
D20*
X51667000Y48900000D03*
D20*
X20002000Y6900000D03*
D20*
X13669000Y72900000D03*
D20*
X13669000Y54900000D03*
D20*
X34960000Y49000000D03*
D24*
X32950000Y11650000D03*
D20*
X9600000Y49900000D03*
D21*
X58000000Y30900000D03*
D21*
X58000000Y42900000D03*
D20*
X32668000Y6300000D03*
D27*
X50311668Y28278328D03*
M02*
