M48
FMAT,2
METRIC,TZ
T8C0.350
T3C0.500
T7C0.600
T9C0.800
T4C0.900
T6C1.000
T2C1.400
T5C1.500
T1C3.100
%
G90
G05
M71
T8
X53.650Y66.100
X54.455Y62.450
X65.590Y61.350
X41.799Y40.000
X34.166Y76.000
X72.164Y16.000
X62.200Y72.900
X46.832Y58.000
X56.200Y35.800
X65.590Y53.420
X30.850Y60.140
X46.450Y21.710
X78.497Y88.000
X67.990Y51.620
X44.395Y61.920
X40.499Y16.000
X46.900Y55.400
X53.165Y94.000
X72.164Y70.000
X72.164Y40.000
X32.400Y61.500
X21.500Y82.000
X28.200Y52.200
X66.431Y70.000
X28.833Y70.000
X66.000Y66.500
X53.200Y55.400
X54.165Y45.800
X34.166Y82.000
X71.150Y44.730
X54.400Y30.950
X40.170Y33.200
X21.500Y16.000
X31.633Y46.000
X24.100Y56.100
X59.198Y46.000
X30.500Y61.500
X32.350Y58.860
X27.833Y88.000
X39.900Y37.600
X43.700Y46.000
X39.000Y34.000
X21.500Y88.000
X34.166Y70.000
X67.990Y59.750
X53.600Y23.000
X34.166Y16.000
X39.900Y50.200
X54.165Y39.800
X42.700Y33.200
X34.166Y64.000
X61.600Y46.000
X27.833Y22.800
X50.900Y72.900
X44.150Y55.400
X27.833Y64.000
X78.497Y70.000
X36.530Y69.770
X73.164Y52.000
X59.198Y40.000
X65.590Y58.150
X78.497Y64.000
X34.166Y22.800
X47.275Y60.950
X36.200Y43.800
X46.832Y94.000
X57.290Y70.290
X28.930Y56.490
X21.500Y34.000
X53.165Y88.000
X52.100Y45.800
X27.833Y34.000
X21.400Y58.000
X46.832Y88.000
X58.898Y58.000
X53.165Y58.000
X21.500Y76.000
X78.497Y22.000
X26.500Y45.140
X72.240Y27.450
X65.831Y76.000
X61.680Y35.800
X78.497Y16.000
X46.832Y32.800
X76.870Y40.930
X34.166Y94.000
X26.760Y61.560
X43.700Y49.800
X41.799Y46.000
X21.500Y46.000
X53.165Y16.000
X63.860Y28.250
X53.165Y82.000
X78.497Y82.000
X59.498Y88.000
X41.499Y33.400
X46.832Y16.000
X78.497Y40.000
X32.000Y50.200
X65.831Y34.700
X21.500Y28.000
X65.590Y49.820
X59.498Y82.000
X52.550Y64.400
X72.164Y82.000
X40.499Y76.000
X21.500Y52.000
X29.300Y48.300
X46.832Y70.000
X21.500Y64.000
X54.750Y64.400
X65.831Y16.000
X46.832Y82.000
X27.833Y82.000
X58.190Y28.250
X41.999Y58.000
X65.831Y40.000
X72.164Y22.000
X65.831Y46.000
X78.497Y58.000
X46.832Y28.700
X53.600Y20.600
X46.832Y76.000
X69.360Y41.060
X61.020Y29.150
X59.498Y94.000
X39.899Y71.100
X70.864Y35.500
X78.497Y52.000
X72.164Y88.000
X43.800Y40.000
X48.430Y25.550
X21.500Y70.000
X38.000Y41.300
X58.900Y62.800
X72.164Y58.000
X46.832Y46.000
X52.100Y37.200
X31.600Y40.000
X60.690Y70.290
X65.831Y94.000
X28.433Y40.000
X65.831Y88.000
X40.499Y94.000
X61.600Y40.000
X39.799Y64.000
X72.164Y94.000
X59.498Y76.000
X78.497Y76.000
X41.799Y52.000
X54.750Y70.700
X47.032Y64.000
X59.198Y35.800
X52.200Y74.100
X33.636Y46.000
X56.400Y48.400
X27.833Y28.000
X44.400Y64.000
X78.497Y28.000
X35.300Y50.200
X53.800Y74.000
X21.500Y40.000
X34.166Y28.000
X67.850Y45.410
X34.166Y34.000
X52.550Y70.700
X53.650Y69.000
X27.833Y16.000
X69.300Y48.600
X78.497Y34.000
X40.499Y82.000
X45.800Y63.300
X40.499Y88.000
X72.164Y64.000
X46.940Y36.220
X34.770Y55.230
X59.498Y16.000
X34.166Y88.000
X41.800Y35.500
X47.132Y52.000
X52.765Y52.000
X41.700Y55.400
X69.060Y50.370
X78.497Y46.000
X27.833Y94.000
X34.266Y40.000
X72.164Y76.000
X65.831Y82.000
X27.833Y76.000
X39.700Y43.800
X36.440Y57.440
X65.831Y22.000
X21.500Y22.000
X58.200Y53.800
X50.315Y61.950
T3
X44.920Y44.990
X50.000Y44.990
X57.580Y42.010
X57.580Y47.090
X50.000Y47.490
X44.920Y47.490
X55.080Y47.090
X55.080Y42.010
T7
X67.640Y19.770
X65.100Y17.230
X62.560Y19.770
X34.080Y52.030
X51.250Y25.550
X28.340Y55.240
T9
X66.740Y30.770
X60.390Y56.670
T4
X51.300Y42.570
X48.800Y39.270
X46.300Y39.270
X51.300Y39.270
X48.800Y42.570
X46.300Y42.570
X57.580Y39.570
X57.580Y37.030
X40.765Y17.775
X43.305Y17.775
X45.845Y17.775
X57.580Y34.700
X57.580Y32.160
T6
X51.690Y18.300
X59.310Y18.300
X51.250Y77.500
X48.750Y77.500
X25.250Y18.650
X27.750Y18.650
X72.250Y18.650
X74.750Y18.650
T2
X26.500Y66.300
X36.500Y66.300
X31.500Y66.300
X63.500Y36.000
X73.500Y36.000
X68.500Y36.000
X63.500Y66.300
X73.500Y66.300
X68.500Y66.300
X26.500Y36.000
X36.500Y36.000
X31.500Y36.000
T5
X44.250Y78.350
X44.250Y90.800
X27.950Y90.800
X44.250Y84.550
X27.950Y84.550
X27.950Y78.350
X50.000Y52.000
X55.080Y52.000
X44.920Y52.000
X72.050Y78.350
X72.050Y90.800
X55.750Y90.800
X72.050Y84.550
X55.750Y84.550
X55.750Y78.350
T1
X92.000Y20.000
X8.000Y90.000
X8.000Y20.000
X92.000Y90.000
M30
