%FSLAX46Y46*%
%MOMM*%
%ADD10C,0.100000*%
%AMPS47*
21,1,1.594948,2.741421,0.000000,0.000000,0.000000*
%
%ADD47PS47*%
%AMPS24*
21,1,1.594948,2.741421,0.000000,0.000000,90.000000*
%
%ADD24PS24*%
%AMPS48*
21,1,1.594948,2.741421,0.000000,0.000000,180.000000*
%
%ADD48PS48*%
%AMPS23*
21,1,1.594948,2.741421,0.000000,0.000000,270.000000*
%
%ADD23PS23*%
%AMPS29*
21,1,1.600000,2.950000,0.000000,0.000000,0.000000*
%
%ADD29PS29*%
%AMPS33*
21,1,1.600000,2.950000,0.000000,0.000000,90.000000*
%
%ADD33PS33*%
%AMPS30*
21,1,1.600000,2.950000,0.000000,0.000000,180.000000*
%
%ADD30PS30*%
%AMPS34*
21,1,1.600000,2.950000,0.000000,0.000000,270.000000*
%
%ADD34PS34*%
%AMPS43*
21,1,0.600000,1.550000,0.000000,0.000000,0.000000*
%
%ADD43PS43*%
%AMPS35*
21,1,0.600000,1.550000,0.000000,0.000000,90.000000*
%
%ADD35PS35*%
%AMPS44*
21,1,0.600000,1.550000,0.000000,0.000000,180.000000*
%
%ADD44PS44*%
%AMPS36*
21,1,0.600000,1.550000,0.000000,0.000000,270.000000*
%
%ADD36PS36*%
%AMPS40*
21,1,1.600000,2.500000,0.000000,0.000000,0.000000*
%
%ADD40PS40*%
%AMPS27*
21,1,1.600000,2.500000,0.000000,0.000000,90.000000*
%
%ADD27PS27*%
%AMPS39*
21,1,1.600000,2.500000,0.000000,0.000000,180.000000*
%
%ADD39PS39*%
%AMPS28*
21,1,1.600000,2.500000,0.000000,0.000000,270.000000*
%
%ADD28PS28*%
%AMPS49*
21,1,0.900000,1.000000,0.000000,0.000000,0.000000*
%
%ADD49PS49*%
%AMPS32*
21,1,0.900000,1.000000,0.000000,0.000000,90.000000*
%
%ADD32PS32*%
%AMPS50*
21,1,0.900000,1.000000,0.000000,0.000000,180.000000*
%
%ADD50PS50*%
%AMPS31*
21,1,0.900000,1.000000,0.000000,0.000000,270.000000*
%
%ADD31PS31*%
%AMPS46*
21,1,1.400000,1.100000,0.000000,0.000000,0.000000*
%
%ADD46PS46*%
%AMPS45*
21,1,1.400000,1.100000,0.000000,0.000000,180.000000*
%
%ADD45PS45*%
%AMPS37*
21,1,0.400000,0.900000,0.000000,0.000000,90.000000*
%
%ADD37PS37*%
%AMPS38*
21,1,0.400000,0.900000,0.000000,0.000000,270.000000*
%
%ADD38PS38*%
%AMPS22*
21,1,0.600000,1.800000,0.000000,0.000000,0.000000*
%
%ADD22PS22*%
%AMPS21*
21,1,0.600000,1.800000,0.000000,0.000000,180.000000*
%
%ADD21PS21*%
%AMPS54*
21,1,0.701421,1.491421,0.000000,0.000000,90.000000*
%
%ADD54PS54*%
%AMPS53*
21,1,0.701421,1.491421,0.000000,0.000000,270.000000*
%
%ADD53PS53*%
%AMPS16*
21,1,0.900000,0.500000,0.000000,0.000000,0.000000*
%
%ADD16PS16*%
%AMPS17*
21,1,0.900000,0.500000,0.000000,0.000000,90.000000*
%
%ADD17PS17*%
%AMPS15*
21,1,0.900000,0.500000,0.000000,0.000000,180.000000*
%
%ADD15PS15*%
%AMPS18*
21,1,0.900000,0.500000,0.000000,0.000000,270.000000*
%
%ADD18PS18*%
%AMPS12*
21,1,1.700000,1.100000,0.000000,0.000000,0.000000*
%
%ADD12PS12*%
%AMPS26*
21,1,1.700000,1.100000,0.000000,0.000000,90.000000*
%
%ADD26PS26*%
%AMPS11*
21,1,1.700000,1.100000,0.000000,0.000000,180.000000*
%
%ADD11PS11*%
%AMPS25*
21,1,1.700000,1.100000,0.000000,0.000000,270.000000*
%
%ADD25PS25*%
%AMPS51*
21,1,0.700000,0.900000,0.000000,0.000000,0.000000*
%
%ADD51PS51*%
%AMPS52*
21,1,0.700000,0.900000,0.000000,0.000000,180.000000*
%
%ADD52PS52*%
%AMPS20*
21,1,0.850000,0.800000,0.000000,0.000000,0.000000*
%
%ADD20PS20*%
%AMPS13*
21,1,0.850000,0.800000,0.000000,0.000000,90.000000*
%
%ADD13PS13*%
%AMPS19*
21,1,0.850000,0.800000,0.000000,0.000000,180.000000*
%
%ADD19PS19*%
%AMPS14*
21,1,0.850000,0.800000,0.000000,0.000000,270.000000*
%
%ADD14PS14*%
%AMPS42*
21,1,1.750000,2.650000,0.000000,0.000000,0.000000*
%
%ADD42PS42*%
%AMPS41*
21,1,1.750000,2.650000,0.000000,0.000000,180.000000*
%
%ADD41PS41*%
G01*
%LPD*%
G36*
X112171116Y25899306D02*
X112350000Y25000000D01*
X112350000Y25000000D01*
X112171116Y24100693D01*
X111661700Y23338299D01*
X110899306Y22828883D01*
X110000000Y22650000D01*
X109100693Y22828883D01*
X108338299Y23338299D01*
X107828883Y24100693D01*
X107650000Y25000000D01*
X107828883Y25899306D01*
X108338299Y26661700D01*
X109100693Y27171116D01*
X110000000Y27350000D01*
X110899306Y27171116D01*
X111661700Y26661700D01*
X112171116Y25899306D01*
D02*
G37*
%LPD*%
G36*
X32171116Y25899306D02*
X32350000Y25000000D01*
X32350000Y25000000D01*
X32171116Y24100693D01*
X31661700Y23338299D01*
X30899306Y22828883D01*
X30000000Y22650000D01*
X29100693Y22828883D01*
X28338299Y23338299D01*
X27828883Y24100693D01*
X27650000Y25000000D01*
X27828883Y25899306D01*
X28338299Y26661700D01*
X29100693Y27171116D01*
X30000000Y27350000D01*
X30899306Y27171116D01*
X31661700Y26661700D01*
X32171116Y25899306D01*
D02*
G37*
%LPD*%
G36*
X32171116Y83899306D02*
X32350000Y83000000D01*
X32350000Y83000000D01*
X32171116Y82100693D01*
X31661700Y81338299D01*
X30899306Y80828883D01*
X30000000Y80650000D01*
X29100693Y80828883D01*
X28338299Y81338299D01*
X27828883Y82100693D01*
X27650000Y83000000D01*
X27828883Y83899306D01*
X28338299Y84661700D01*
X29100693Y85171116D01*
X30000000Y85350000D01*
X30899306Y85171116D01*
X31661700Y84661700D01*
X32171116Y83899306D01*
D02*
G37*
%LPD*%
G36*
X112171116Y83899306D02*
X112350000Y83000000D01*
X112350000Y83000000D01*
X112171116Y82100693D01*
X111661700Y81338299D01*
X110899306Y80828883D01*
X110000000Y80650000D01*
X109100693Y80828883D01*
X108338299Y81338299D01*
X107828883Y82100693D01*
X107650000Y83000000D01*
X107828883Y83899306D01*
X108338299Y84661700D01*
X109100693Y85171116D01*
X110000000Y85350000D01*
X110899306Y85171116D01*
X111661700Y84661700D01*
X112171116Y83899306D01*
D02*
G37*
G01*
%LPD*%
D10*
X140000000Y125000000D02*
X0Y125000000D01*
D10*
X0Y0D02*
X140000000Y0D01*
D10*
X0Y125000000D02*
X0Y0D01*
D10*
X140000000Y0D02*
X140000000Y125000000D01*
G75*
D11*
X76740000Y64750000D03*
D12*
X76740000Y61550000D03*
D13*
X65740000Y41220000D03*
D14*
X64240000Y41220000D03*
D15*
X59410000Y32610000D03*
D16*
X59410000Y31110000D03*
D16*
X89360000Y47160000D03*
D15*
X89360000Y48660000D03*
D16*
X42540000Y64340000D03*
D15*
X42540000Y65840000D03*
D17*
X65880000Y39440000D03*
D18*
X64380000Y39440000D03*
D14*
X50850000Y60620000D03*
D13*
X52350000Y60620000D03*
D19*
X83860000Y32050000D03*
D20*
X83860000Y30550000D03*
D11*
X59300000Y60230000D03*
D12*
X59300000Y57030000D03*
D21*
X71150000Y75700000D03*
D22*
X73650000Y69400000D03*
D22*
X71150000Y69400000D03*
D21*
X73650000Y75700000D03*
D23*
X68750001Y39440000D03*
D24*
X73649999Y39440000D03*
D25*
X76200000Y27000000D03*
D26*
X79400000Y27000000D03*
D18*
X45260000Y60240000D03*
D17*
X46760000Y60240000D03*
D27*
X90040000Y32450000D03*
D28*
X86740000Y32450000D03*
D19*
X78190000Y32050000D03*
D20*
X78190000Y30550000D03*
D29*
X58000000Y48800000D03*
D30*
X58000000Y54000000D03*
D12*
X56470000Y57030000D03*
D11*
X56470000Y60230000D03*
D31*
X89360000Y50410000D03*
D32*
X91560000Y51360000D03*
D31*
X89360000Y52310000D03*
D33*
X85590000Y64750000D03*
D34*
X80390000Y64750000D03*
D35*
X54270000Y66410000D03*
D35*
X54270000Y63860000D03*
D35*
X54270000Y62590000D03*
D36*
X48930000Y62590000D03*
D36*
X48930000Y65140000D03*
D35*
X54270000Y65140000D03*
D36*
X48930000Y66410000D03*
D36*
X48930000Y63860000D03*
D37*
X68775000Y66920000D03*
D38*
X66575000Y66920000D03*
D13*
X52350000Y68380000D03*
D14*
X50850000Y68380000D03*
D39*
X91240000Y58670000D03*
D40*
X91240000Y55370000D03*
D39*
X46500000Y48150000D03*
D40*
X46500000Y44850000D03*
D41*
X78990000Y75290000D03*
D42*
X78990000Y70990000D03*
D17*
X46760000Y62070000D03*
D18*
X45260000Y62070000D03*
D43*
X65250000Y26710000D03*
D43*
X62700000Y26710000D03*
D43*
X61430000Y26710000D03*
D44*
X61430000Y32050000D03*
D44*
X63980000Y32050000D03*
D43*
X63980000Y26710000D03*
D44*
X65250000Y32050000D03*
D44*
X62700000Y32050000D03*
D19*
X74455000Y66250000D03*
D20*
X74455000Y64750000D03*
D14*
X67275000Y64750000D03*
D13*
X68775000Y64750000D03*
D19*
X46760000Y65360000D03*
D20*
X46760000Y63860000D03*
D16*
X96870000Y47030000D03*
D15*
X96870000Y48530000D03*
D20*
X67230000Y30550000D03*
D19*
X67230000Y32050000D03*
D45*
X44670000Y65840000D03*
D46*
X44670000Y64040000D03*
D15*
X62700000Y35590000D03*
D16*
X62700000Y34090000D03*
D15*
X52680000Y53800001D03*
D16*
X52680000Y52300001D03*
D17*
X92650000Y46740000D03*
D18*
X91150000Y46740000D03*
D47*
X46500000Y52300001D03*
D48*
X46500000Y57199999D03*
D20*
X56440000Y63640000D03*
D19*
X56440000Y65140000D03*
D49*
X81970000Y30550000D03*
D50*
X81020000Y32750000D03*
D49*
X80070000Y30550000D03*
D51*
X59520000Y34390000D03*
D51*
X60820000Y34390000D03*
D52*
X60170000Y36290000D03*
D14*
X91150000Y48530000D03*
D13*
X92650000Y48530000D03*
D49*
X72565000Y64750000D03*
D50*
X71615000Y66950000D03*
D49*
X70665000Y64750000D03*
D53*
X61625000Y69690000D03*
D54*
X68775000Y72230000D03*
D54*
X68775000Y77310000D03*
D54*
X68775000Y74770000D03*
D53*
X61625000Y72230000D03*
D53*
X61625000Y77310000D03*
D54*
X68775000Y69690000D03*
D53*
X61625000Y74770000D03*
D39*
X74400000Y33850000D03*
D40*
X74400000Y30550000D03*
D15*
X50850000Y53800001D03*
D16*
X50850000Y52300001D03*
D46*
X94740000Y46740000D03*
D45*
X94740000Y48540000D03*
D33*
X85590000Y56620000D03*
D34*
X80390000Y56620000D03*
M02*
