<?xml version="1.0" encoding="UTF-8" standalone="no"?>
<svg
   width="387"
   height="343"
   viewBox="0 0 387 343"
   version="1.1"
   id="svg844"
   sodipodi:docname="sexy-rodent.gtp.svg"
   inkscape:version="1.2.2 (b0a8486541, 2022-12-01)"
   xmlns:inkscape="http://www.inkscape.org/namespaces/inkscape"
   xmlns:sodipodi="http://sodipodi.sourceforge.net/DTD/sodipodi-0.dtd"
   xmlns="http://www.w3.org/2000/svg"
   xmlns:svg="http://www.w3.org/2000/svg">
  <defs
     id="defs848" />
  <sodipodi:namedview
     id="namedview846"
     pagecolor="#505050"
     bordercolor="#ffffff"
     borderopacity="1"
     inkscape:showpageshadow="0"
     inkscape:pageopacity="0"
     inkscape:pagecheckerboard="1"
     inkscape:deskcolor="#505050"
     showgrid="false"
     inkscape:zoom="4"
     inkscape:cx="140"
     inkscape:cy="204"
     inkscape:current-layer="svg844" />
  <path
     fill-rule="evenodd"
     fill="#7373de"
     fill-opacity="1"
     d="m 298.86354,55.007777 0.33203,1.683594 -0.33203,1.679687 -0.95313,1.425782 -1.42578,0.953124 -1.67968,0.332032 -1.6836,-0.332032 -1.42578,-0.953124 -0.95312,-1.425782 -0.33204,-1.679687 0.33204,-1.683594 0.95312,-1.425781 1.42578,-0.949219 1.6836,-0.335937 1.67968,0.335937 1.42578,0.949219 z m 0,0"
     id="path592"
     style="fill:none;stroke:#000000;stroke-opacity:1;stroke-width:0.37795276;stroke-dasharray:none" />
  <path
     fill-rule="evenodd"
     fill="#7373de"
     fill-opacity="1"
     d="m 60.753889,55.007777 0.332031,1.683594 -0.332031,1.679687 -0.953125,1.425782 -1.425781,0.953124 -1.683594,0.332032 -1.679687,-0.332032 -1.425782,-0.953124 -0.953125,-1.425782 -0.332031,-1.679687 0.332031,-1.683594 0.953125,-1.425781 1.425782,-0.949219 1.679687,-0.335937 1.683594,0.335937 1.425781,0.949219 z m 0,0"
     id="path594"
     style="fill:none;stroke:#000000;stroke-opacity:1;stroke-width:0.37795276;stroke-dasharray:none" />
  <path
     fill-rule="evenodd"
     fill="#7373de"
     fill-opacity="1"
     d="m 60.753889,253.43413 0.332031,1.68359 -0.332031,1.67969 -0.953125,1.42578 -1.425781,0.95312 -1.683594,0.33203 -1.679687,-0.33203 -1.425782,-0.95312 -0.953125,-1.42578 -0.332031,-1.67969 0.332031,-1.68359 0.953125,-1.42579 1.425782,-0.95312 1.679687,-0.33203 1.683594,0.33203 1.425781,0.95312 z m 0,0"
     id="path596"
     style="fill:none;stroke:#000000;stroke-opacity:1;stroke-width:0.37795276;stroke-dasharray:none" />
  <path
     fill-rule="evenodd"
     fill="#7373de"
     fill-opacity="1"
     d="m 298.86354,253.43413 0.33203,1.68359 -0.33203,1.67969 -0.95313,1.42578 -1.42578,0.95312 -1.67968,0.33203 -1.6836,-0.33203 -1.42578,-0.95312 -0.95312,-1.42578 -0.33204,-1.67969 0.33204,-1.68359 0.95312,-1.42579 1.42578,-0.95312 1.6836,-0.33203 1.67968,0.33203 1.42578,0.95312 z m 0,0"
     id="path598"
     style="fill:none;stroke:#000000;stroke-opacity:1;stroke-width:0.37795276;stroke-dasharray:none" />
  <path
     fill="none"
     stroke-width="0.00393701"
     stroke-linecap="round"
     stroke-linejoin="miter"
     stroke="#7373de"
     stroke-opacity="1"
     stroke-miterlimit="10"
     d="M 351.49636,-0.0038975 V 311.80913"
     id="path600"
     style="fill:none;stroke:#000000;stroke-opacity:1;stroke-width:0.37795276;stroke-dasharray:none" />
  <path
     fill="none"
     stroke-width="0.00393701"
     stroke-linecap="round"
     stroke-linejoin="miter"
     stroke="#7373de"
     stroke-opacity="1"
     stroke-miterlimit="10"
     d="M 2.025e-5,-0.0038975 H 351.49636"
     id="path602"
     style="fill:none;stroke:#000000;stroke-opacity:1;stroke-width:0.37795276;stroke-dasharray:none" />
  <path
     fill="none"
     stroke-width="0.00393701"
     stroke-linecap="round"
     stroke-linejoin="miter"
     stroke="#7373de"
     stroke-opacity="1"
     stroke-miterlimit="10"
     d="M 351.49636,311.80913 H 2.025e-5"
     id="path604"
     style="fill:none;stroke:#000000;stroke-opacity:1;stroke-width:0.37795276;stroke-dasharray:none" />
  <path
     fill="none"
     stroke-width="0.00393701"
     stroke-linecap="round"
     stroke-linejoin="miter"
     stroke="#7373de"
     stroke-opacity="1"
     stroke-miterlimit="10"
     d="M 2.025e-5,311.80913 V -0.0038975"
     id="path606"
     style="fill:none;stroke:#000000;stroke-opacity:1;stroke-width:0.37795276;stroke-dasharray:none" />
  <path
     fill-rule="evenodd"
     fill="#7373de"
     fill-opacity="1"
     d="m 197.26198,140.87944 h -4.82032 v 3.11719 h 4.82032 z m 0,0"
     id="path608"
     style="fill:none;stroke:#000000;stroke-opacity:1;stroke-width:0.37795276;stroke-dasharray:none" />
  <path
     fill-rule="evenodd"
     fill="#7373de"
     fill-opacity="1"
     d="m 192.44557,153.06694 h 4.82031 v -3.11719 h -4.82031 z m 0,0"
     id="path610"
     style="fill:none;stroke:#000000;stroke-opacity:1;stroke-width:0.37795276;stroke-dasharray:none" />
  <path
     fill-rule="evenodd"
     fill="#7373de"
     fill-opacity="1"
     d="m 164.80495,210.34428 v -2.41015 h -2.26954 v 2.41015 z m 0,0"
     id="path612"
     style="fill:none;stroke:#000000;stroke-opacity:1;stroke-width:0.37795276;stroke-dasharray:none" />
  <path
     fill-rule="evenodd"
     fill="#7373de"
     fill-opacity="1"
     d="m 158.28541,207.93413 v 2.41015 h 2.26954 v -2.41015 z m 0,0"
     id="path614"
     style="fill:none;stroke:#000000;stroke-opacity:1;stroke-width:0.37795276;stroke-dasharray:none" />
  <path
     fill-rule="evenodd"
     fill="#7373de"
     fill-opacity="1"
     d="m 147.00416,232.83647 h -2.55078 v 1.41797 h 2.55078 z m 0,0"
     id="path616"
     style="fill:none;stroke:#000000;stroke-opacity:1;stroke-width:0.37795276;stroke-dasharray:none" />
  <path
     fill-rule="evenodd"
     fill="#7373de"
     fill-opacity="1"
     d="m 144.45338,238.50444 h 2.55078 v -1.41797 h -2.55078 z m 0,0"
     id="path618"
     style="fill:none;stroke:#000000;stroke-opacity:1;stroke-width:0.37795276;stroke-dasharray:none" />
  <path
     fill-rule="evenodd"
     fill="#7373de"
     fill-opacity="1"
     d="m 229.35182,193.00834 h 2.55078 v -1.41796 h -2.55078 z m 0,0"
     id="path620"
     style="fill:none;stroke:#000000;stroke-opacity:1;stroke-width:0.37795276;stroke-dasharray:none" />
  <path
     fill-rule="evenodd"
     fill="#7373de"
     fill-opacity="1"
     d="m 231.9026,187.34038 h -2.55078 v 1.41796 h 2.55078 z m 0,0"
     id="path622"
     style="fill:none;stroke:#000000;stroke-opacity:1;stroke-width:0.37795276;stroke-dasharray:none" />
  <path
     fill-rule="evenodd"
     fill="#7373de"
     fill-opacity="1"
     d="m 96.632794,144.30913 h 2.55078 v -1.41797 h -2.55078 z m 0,0"
     id="path624"
     style="fill:none;stroke:#000000;stroke-opacity:1;stroke-width:0.37795276;stroke-dasharray:none" />
  <path
     fill-rule="evenodd"
     fill="#7373de"
     fill-opacity="1"
     d="m 99.183574,138.64116 h -2.55078 v 1.41797 h 2.55078 z m 0,0"
     id="path626"
     style="fill:none;stroke:#000000;stroke-opacity:1;stroke-width:0.37795276;stroke-dasharray:none" />
  <path
     fill-rule="evenodd"
     fill="#7373de"
     fill-opacity="1"
     d="m 164.7776,215.45756 v -2.55078 h -1.41797 v 2.55078 z m 0,0"
     id="path628"
     style="fill:none;stroke:#000000;stroke-opacity:1;stroke-width:0.37795276;stroke-dasharray:none" />
  <path
     fill-rule="evenodd"
     fill="#7373de"
     fill-opacity="1"
     d="m 159.10963,212.90678 v 2.55078 h 1.41797 v -2.55078 z m 0,0"
     id="path630"
     style="fill:none;stroke:#000000;stroke-opacity:1;stroke-width:0.37795276;stroke-dasharray:none" />
  <path
     fill-rule="evenodd"
     fill="#7373de"
     fill-opacity="1"
     d="m 120.33229,152.94194 v 2.41015 h 2.26953 v -2.41015 z m 0,0"
     id="path632"
     style="fill:none;stroke:#000000;stroke-opacity:1;stroke-width:0.37795276;stroke-dasharray:none" />
  <path
     fill-rule="evenodd"
     fill="#7373de"
     fill-opacity="1"
     d="m 126.85182,155.35209 v -2.41015 h -2.26953 v 2.41015 z m 0,0"
     id="path634"
     style="fill:none;stroke:#000000;stroke-opacity:1;stroke-width:0.37795276;stroke-dasharray:none" />
  <path
     fill-rule="evenodd"
     fill="#7373de"
     fill-opacity="1"
     d="m 216.24245,233.99663 h -2.41016 v 2.26953 h 2.41016 z m 0,0"
     id="path636"
     style="fill:none;stroke:#000000;stroke-opacity:1;stroke-width:0.37795276;stroke-dasharray:none" />
  <path
     fill-rule="evenodd"
     fill="#7373de"
     fill-opacity="1"
     d="m 213.83229,240.51616 h 2.41016 v -2.26953 h -2.41016 z m 0,0"
     id="path638"
     style="fill:none;stroke:#000000;stroke-opacity:1;stroke-width:0.37795276;stroke-dasharray:none" />
  <path
     fill-rule="evenodd"
     fill="#7373de"
     fill-opacity="1"
     d="m 147.82838,153.69194 h -4.82031 v 3.11719 h 4.82031 z m 0,0"
     id="path640"
     style="fill:none;stroke:#000000;stroke-opacity:1;stroke-width:0.37795276;stroke-dasharray:none" />
  <path
     fill-rule="evenodd"
     fill="#7373de"
     fill-opacity="1"
     d="m 143.00807,165.87944 h 4.82031 v -3.11719 h -4.82031 z m 0,0"
     id="path642"
     style="fill:none;stroke:#000000;stroke-opacity:1;stroke-width:0.37795276;stroke-dasharray:none" />
  <path
     fill-rule="evenodd"
     fill="#7373de"
     fill-opacity="1"
     d="m 179.85963,108.84819 h -1.69922 v 5.10156 h 1.69922 z m 0,0"
     id="path644"
     style="fill:none;stroke:#000000;stroke-opacity:1;stroke-width:0.37795276;stroke-dasharray:none" />
  <path
     fill-rule="evenodd"
     fill="#7373de"
     fill-opacity="1"
     d="m 185.24635,131.80913 h 1.69922 v -5.10157 h -1.69922 z m 0,0"
     id="path646"
     style="fill:none;stroke:#000000;stroke-opacity:1;stroke-width:0.37795276;stroke-dasharray:none" />
  <path
     fill-rule="evenodd"
     fill="#7373de"
     fill-opacity="1"
     d="m 178.15651,131.80913 h 1.69922 v -5.10157 h -1.69922 z m 0,0"
     id="path648"
     style="fill:none;stroke:#000000;stroke-opacity:1;stroke-width:0.37795276;stroke-dasharray:none" />
  <path
     fill-rule="evenodd"
     fill="#7373de"
     fill-opacity="1"
     d="m 186.94557,108.84819 h -1.69922 v 5.10156 h 1.69922 z m 0,0"
     id="path650"
     style="fill:none;stroke:#000000;stroke-opacity:1;stroke-width:0.37795276;stroke-dasharray:none" />
  <path
     fill-rule="evenodd"
     fill="#7373de"
     fill-opacity="1"
     d="m 168.32057,211.92241 v 4.51953 h 7.76953 v -4.51953 z m 0,0"
     id="path652"
     style="fill:none;stroke:#000000;stroke-opacity:1;stroke-width:0.37795276;stroke-dasharray:none" />
  <path
     fill-rule="evenodd"
     fill="#7373de"
     fill-opacity="1"
     d="m 189.98073,216.44584 v -4.51953 h -7.76953 v 4.51953 z m 0,0"
     id="path654"
     style="fill:none;stroke:#000000;stroke-opacity:1;stroke-width:0.37795276;stroke-dasharray:none" />
  <path
     fill-rule="evenodd"
     fill="#7373de"
     fill-opacity="1"
     d="m 191.76588,247.03569 v 4.82031 h 3.11719 v -4.82031 z m 0,0"
     id="path656"
     style="fill:none;stroke:#000000;stroke-opacity:1;stroke-width:0.37795276;stroke-dasharray:none" />
  <path
     fill-rule="evenodd"
     fill="#7373de"
     fill-opacity="1"
     d="m 203.95338,251.856 v -4.82031 h -3.11718 v 4.82031 z m 0,0"
     id="path658"
     style="fill:none;stroke:#000000;stroke-opacity:1;stroke-width:0.37795276;stroke-dasharray:none" />
  <path
     fill-rule="evenodd"
     fill="#7373de"
     fill-opacity="1"
     d="m 104.91042,153.94584 v 2.55079 h 1.41796 v -2.55079 z m 0,0"
     id="path660"
     style="fill:none;stroke:#000000;stroke-opacity:1;stroke-width:0.37795276;stroke-dasharray:none" />
  <path
     fill-rule="evenodd"
     fill="#7373de"
     fill-opacity="1"
     d="m 110.57838,156.49663 v -2.55079 h -1.41796 v 2.55079 z m 0,0"
     id="path662"
     style="fill:none;stroke:#000000;stroke-opacity:1;stroke-width:0.37795276;stroke-dasharray:none" />
  <path
     fill-rule="evenodd"
     fill="#7373de"
     fill-opacity="1"
     d="M 236.09791,236.26616 V 231.731 h -7.08593 v 4.53516 z m 0,0"
     id="path664"
     style="fill:none;stroke:#000000;stroke-opacity:1;stroke-width:0.37795276;stroke-dasharray:none" />
  <path
     fill-rule="evenodd"
     fill="#7373de"
     fill-opacity="1"
     d="m 219.65651,231.731 v 4.53516 h 7.08594 V 231.731 Z m 0,0"
     id="path666"
     style="fill:none;stroke:#000000;stroke-opacity:1;stroke-width:0.37795276;stroke-dasharray:none" />
  <path
     fill-rule="evenodd"
     fill="#7373de"
     fill-opacity="1"
     d="m 200.16823,233.99663 h -2.41016 v 2.26953 h 2.41016 z m 0,0"
     id="path668"
     style="fill:none;stroke:#000000;stroke-opacity:1;stroke-width:0.37795276;stroke-dasharray:none" />
  <path
     fill-rule="evenodd"
     fill="#7373de"
     fill-opacity="1"
     d="m 197.75807,240.51616 h 2.41016 v -2.26953 h -2.41016 z m 0,0"
     id="path670"
     style="fill:none;stroke:#000000;stroke-opacity:1;stroke-width:0.37795276;stroke-dasharray:none" />
  <path
     fill-rule="evenodd"
     fill="#7373de"
     fill-opacity="1"
     d="m 139.4651,191.83256 h 4.53516 v -8.36328 h -4.53516 z m 0,0"
     id="path672"
     style="fill:none;stroke:#000000;stroke-opacity:1;stroke-width:0.37795276;stroke-dasharray:none" />
  <path
     fill-rule="evenodd"
     fill="#7373de"
     fill-opacity="1"
     d="m 144.00026,168.731 h -4.53516 v 8.36328 h 4.53516 z m 0,0"
     id="path674"
     style="fill:none;stroke:#000000;stroke-opacity:1;stroke-width:0.37795276;stroke-dasharray:none" />
  <path
     fill-rule="evenodd"
     fill="#7373de"
     fill-opacity="1"
     d="m 134.98463,165.87944 h 4.82032 v -3.11719 h -4.82032 z m 0,0"
     id="path676"
     style="fill:none;stroke:#000000;stroke-opacity:1;stroke-width:0.37795276;stroke-dasharray:none" />
  <path
     fill-rule="evenodd"
     fill="#7373de"
     fill-opacity="1"
     d="m 139.80495,153.69194 h -4.82032 v 3.11719 h 4.82032 z m 0,0"
     id="path678"
     style="fill:none;stroke:#000000;stroke-opacity:1;stroke-width:0.37795276;stroke-dasharray:none" />
  <path
     fill-rule="evenodd"
     fill="#7373de"
     fill-opacity="1"
     d="m 229.2112,181.81303 v 2.55078 h 2.83593 v -2.55078 z m 0,0"
     id="path680"
     style="fill:none;stroke:#000000;stroke-opacity:1;stroke-width:0.37795276;stroke-dasharray:none" />
  <path
     fill-rule="evenodd"
     fill="#7373de"
     fill-opacity="1"
     d="m 238.28151,181.6685 v -2.55078 h -2.83594 v 2.55078 z m 0,0"
     id="path682"
     style="fill:none;stroke:#000000;stroke-opacity:1;stroke-width:0.37795276;stroke-dasharray:none" />
  <path
     fill-rule="evenodd"
     fill="#7373de"
     fill-opacity="1"
     d="m 229.2112,176.42631 v 2.55078 h 2.83593 v -2.55078 z m 0,0"
     id="path684"
     style="fill:none;stroke:#000000;stroke-opacity:1;stroke-width:0.37795276;stroke-dasharray:none" />
  <path
     fill-rule="evenodd"
     fill="#7373de"
     fill-opacity="1"
     d="m 224.12135,144.70756 v -4.53515 h -8.36328 v 4.53515 z m 0,0"
     id="path686"
     style="fill:none;stroke:#000000;stroke-opacity:1;stroke-width:0.37795276;stroke-dasharray:none" />
  <path
     fill-rule="evenodd"
     fill="#7373de"
     fill-opacity="1"
     d="m 201.01979,140.17241 v 4.53515 h 8.36328 v -4.53515 z m 0,0"
     id="path688"
     style="fill:none;stroke:#000000;stroke-opacity:1;stroke-width:0.37795276;stroke-dasharray:none" />
  <path
     fill-rule="evenodd"
     fill="#7373de"
     fill-opacity="1"
     d="m 133.35573,138.58256 v -1.69922 h -4.39453 v 1.69922 z m 0,0"
     id="path690"
     style="fill:none;stroke:#000000;stroke-opacity:1;stroke-width:0.37795276;stroke-dasharray:none" />
  <path
     fill-rule="evenodd"
     fill="#7373de"
     fill-opacity="1"
     d="m 133.35573,145.81303 v -1.69922 h -4.39453 v 1.69922 z m 0,0"
     id="path692"
     style="fill:none;stroke:#000000;stroke-opacity:1;stroke-width:0.37795276;stroke-dasharray:none" />
  <path
     fill-rule="evenodd"
     fill="#7373de"
     fill-opacity="1"
     d="m 133.35573,149.41069 v -1.69922 h -4.39453 v 1.69922 z m 0,0"
     id="path694"
     style="fill:none;stroke:#000000;stroke-opacity:1;stroke-width:0.37795276;stroke-dasharray:none" />
  <path
     fill-rule="evenodd"
     fill="#7373de"
     fill-opacity="1"
     d="m 113.82448,147.71147 v 1.69922 h 4.39453 v -1.69922 z m 0,0"
     id="path696"
     style="fill:none;stroke:#000000;stroke-opacity:1;stroke-width:0.37795276;stroke-dasharray:none" />
  <path
     fill-rule="evenodd"
     fill="#7373de"
     fill-opacity="1"
     d="m 113.82448,140.481 v 1.69922 h 4.39453 V 140.481 Z m 0,0"
     id="path698"
     style="fill:none;stroke:#000000;stroke-opacity:1;stroke-width:0.37795276;stroke-dasharray:none" />
  <path
     fill-rule="evenodd"
     fill="#7373de"
     fill-opacity="1"
     d="m 133.35573,142.18413 v -1.69922 h -4.39453 v 1.69922 z m 0,0"
     id="path700"
     style="fill:none;stroke:#000000;stroke-opacity:1;stroke-width:0.37795276;stroke-dasharray:none" />
  <path
     fill-rule="evenodd"
     fill="#7373de"
     fill-opacity="1"
     d="m 113.82448,136.88334 v 1.69922 h 4.39453 v -1.69922 z m 0,0"
     id="path702"
     style="fill:none;stroke:#000000;stroke-opacity:1;stroke-width:0.37795276;stroke-dasharray:none" />
  <path
     fill-rule="evenodd"
     fill="#7373de"
     fill-opacity="1"
     d="m 113.82448,144.10991 v 1.69922 h 4.39453 v -1.69922 z m 0,0"
     id="path704"
     style="fill:none;stroke:#000000;stroke-opacity:1;stroke-width:0.37795276;stroke-dasharray:none" />
  <path
     fill-rule="evenodd"
     fill="#7373de"
     fill-opacity="1"
     d="m 173.55104,136.856 v -1.13281 h -2.55078 v 1.13281 z m 0,0"
     id="path706"
     style="fill:none;stroke:#000000;stroke-opacity:1;stroke-width:0.37795276;stroke-dasharray:none" />
  <path
     fill-rule="evenodd"
     fill="#7373de"
     fill-opacity="1"
     d="m 164.76588,135.71928 v 1.13281 h 2.55078 v -1.13281 z m 0,0"
     id="path708"
     style="fill:none;stroke:#000000;stroke-opacity:1;stroke-width:0.37795276;stroke-dasharray:none" />
  <path
     fill-rule="evenodd"
     fill="#7373de"
     fill-opacity="1"
     d="m 126.85182,133.35209 v -2.41015 h -2.26953 v 2.41015 z m 0,0"
     id="path710"
     style="fill:none;stroke:#000000;stroke-opacity:1;stroke-width:0.37795276;stroke-dasharray:none" />
  <path
     fill-rule="evenodd"
     fill="#7373de"
     fill-opacity="1"
     d="m 120.33229,130.94584 v 2.41016 h 2.26953 v -2.41016 z m 0,0"
     id="path712"
     style="fill:none;stroke:#000000;stroke-opacity:1;stroke-width:0.37795276;stroke-dasharray:none" />
  <path
     fill-rule="evenodd"
     fill="#7373de"
     fill-opacity="1"
     d="m 238.22291,156.12944 h -4.53515 v 7.08594 h 4.53515 z m 0,0"
     id="path714"
     style="fill:none;stroke:#000000;stroke-opacity:1;stroke-width:0.37795276;stroke-dasharray:none" />
  <path
     fill-rule="evenodd"
     fill="#7373de"
     fill-opacity="1"
     d="m 233.68776,172.57084 h 4.53515 v -7.08593 h -4.53515 z m 0,0"
     id="path716"
     style="fill:none;stroke:#000000;stroke-opacity:1;stroke-width:0.37795276;stroke-dasharray:none" />
  <path
     fill-rule="evenodd"
     fill="#7373de"
     fill-opacity="1"
     d="m 111.4026,185.94975 h -4.53515 v 7.08594 h 4.53515 z m 0,0"
     id="path718"
     style="fill:none;stroke:#000000;stroke-opacity:1;stroke-width:0.37795276;stroke-dasharray:none" />
  <path
     fill-rule="evenodd"
     fill="#7373de"
     fill-opacity="1"
     d="m 106.86745,202.39116 h 4.53515 v -7.08594 h -4.53515 z m 0,0"
     id="path720"
     style="fill:none;stroke:#000000;stroke-opacity:1;stroke-width:0.37795276;stroke-dasharray:none" />
  <path
     fill-rule="evenodd"
     fill="#7373de"
     fill-opacity="1"
     d="m 203.7112,108.80522 h -4.96094 v 7.51172 h 4.96094 z m 0,0"
     id="path722"
     style="fill:none;stroke:#000000;stroke-opacity:1;stroke-width:0.37795276;stroke-dasharray:none" />
  <path
     fill-rule="evenodd"
     fill="#7373de"
     fill-opacity="1"
     d="m 198.75026,128.50834 h 4.96094 v -7.51171 h -4.96094 z m 0,0"
     id="path724"
     style="fill:none;stroke:#000000;stroke-opacity:1;stroke-width:0.37795276;stroke-dasharray:none" />
  <path
     fill-rule="evenodd"
     fill="#7373de"
     fill-opacity="1"
     d="m 110.57838,151.31303 v -2.55078 h -1.41796 v 2.55078 z m 0,0"
     id="path726"
     style="fill:none;stroke:#000000;stroke-opacity:1;stroke-width:0.37795276;stroke-dasharray:none" />
  <path
     fill-rule="evenodd"
     fill="#7373de"
     fill-opacity="1"
     d="m 104.91042,148.75834 v 2.55079 h 1.41796 v -2.55079 z m 0,0"
     id="path728"
     style="fill:none;stroke:#000000;stroke-opacity:1;stroke-width:0.37795276;stroke-dasharray:none" />
  <path
     fill-rule="evenodd"
     fill="#7373de"
     fill-opacity="1"
     d="m 161.43385,252.46538 h 1.69922 v -4.39454 h -1.69922 z m 0,0"
     id="path730"
     style="fill:none;stroke:#000000;stroke-opacity:1;stroke-width:0.37795276;stroke-dasharray:none" />
  <path
     fill-rule="evenodd"
     fill="#7373de"
     fill-opacity="1"
     d="m 154.20338,252.46538 h 1.69922 v -4.39454 h -1.69922 z m 0,0"
     id="path732"
     style="fill:none;stroke:#000000;stroke-opacity:1;stroke-width:0.37795276;stroke-dasharray:none" />
  <path
     fill-rule="evenodd"
     fill="#7373de"
     fill-opacity="1"
     d="m 150.60573,252.46538 h 1.69922 v -4.39454 h -1.69922 z m 0,0"
     id="path734"
     style="fill:none;stroke:#000000;stroke-opacity:1;stroke-width:0.37795276;stroke-dasharray:none" />
  <path
     fill-rule="evenodd"
     fill="#7373de"
     fill-opacity="1"
     d="m 152.30495,232.93413 h -1.69922 v 4.39453 h 1.69922 z m 0,0"
     id="path736"
     style="fill:none;stroke:#000000;stroke-opacity:1;stroke-width:0.37795276;stroke-dasharray:none" />
  <path
     fill-rule="evenodd"
     fill="#7373de"
     fill-opacity="1"
     d="m 159.53541,232.93413 h -1.69921 v 4.39453 h 1.69921 z m 0,0"
     id="path738"
     style="fill:none;stroke:#000000;stroke-opacity:1;stroke-width:0.37795276;stroke-dasharray:none" />
  <path
     fill-rule="evenodd"
     fill="#7373de"
     fill-opacity="1"
     d="m 157.83229,252.46538 h 1.69922 v -4.39454 h -1.69922 z m 0,0"
     id="path740"
     style="fill:none;stroke:#000000;stroke-opacity:1;stroke-width:0.37795276;stroke-dasharray:none" />
  <path
     fill-rule="evenodd"
     fill="#7373de"
     fill-opacity="1"
     d="m 163.13307,232.93413 h -1.69922 v 4.39453 h 1.69922 z m 0,0"
     id="path742"
     style="fill:none;stroke:#000000;stroke-opacity:1;stroke-width:0.37795276;stroke-dasharray:none" />
  <path
     fill-rule="evenodd"
     fill="#7373de"
     fill-opacity="1"
     d="m 155.90651,232.93413 h -1.69922 v 4.39453 h 1.69922 z m 0,0"
     id="path744"
     style="fill:none;stroke:#000000;stroke-opacity:1;stroke-width:0.37795276;stroke-dasharray:none" />
  <path
     fill-rule="evenodd"
     fill="#7373de"
     fill-opacity="1"
     d="m 189.58229,137.05131 h -2.41016 v 2.26953 h 2.41016 z m 0,0"
     id="path746"
     style="fill:none;stroke:#000000;stroke-opacity:1;stroke-width:0.37795276;stroke-dasharray:none" />
  <path
     fill-rule="evenodd"
     fill="#7373de"
     fill-opacity="1"
     d="m 187.17213,143.57084 h 2.41016 v -2.26953 h -2.41016 z m 0,0"
     id="path748"
     style="fill:none;stroke:#000000;stroke-opacity:1;stroke-width:0.37795276;stroke-dasharray:none" />
  <path
     fill-rule="evenodd"
     fill="#7373de"
     fill-opacity="1"
     d="m 166.89088,141.23491 v 2.41015 h 2.26953 v -2.41015 z m 0,0"
     id="path750"
     style="fill:none;stroke:#000000;stroke-opacity:1;stroke-width:0.37795276;stroke-dasharray:none" />
  <path
     fill-rule="evenodd"
     fill="#7373de"
     fill-opacity="1"
     d="m 173.41041,143.64506 v -2.41015 h -2.26953 v 2.41015 z m 0,0"
     id="path752"
     style="fill:none;stroke:#000000;stroke-opacity:1;stroke-width:0.37795276;stroke-dasharray:none" />
  <path
     fill-rule="evenodd"
     fill="#7373de"
     fill-opacity="1"
     d="m 111.07448,139.57475 h -2.41016 v 2.26953 h 2.41016 z m 0,0"
     id="path754"
     style="fill:none;stroke:#000000;stroke-opacity:1;stroke-width:0.37795276;stroke-dasharray:none" />
  <path
     fill-rule="evenodd"
     fill="#7373de"
     fill-opacity="1"
     d="m 108.66823,146.09428 h 2.41015 v -2.26953 h -2.41015 z m 0,0"
     id="path756"
     style="fill:none;stroke:#000000;stroke-opacity:1;stroke-width:0.37795276;stroke-dasharray:none" />
  <path
     fill-rule="evenodd"
     fill="#7373de"
     fill-opacity="1"
     d="m 250.64088,193.37553 h 2.55078 v -1.41797 h -2.55078 z m 0,0"
     id="path758"
     style="fill:none;stroke:#000000;stroke-opacity:1;stroke-width:0.37795276;stroke-dasharray:none" />
  <path
     fill-rule="evenodd"
     fill="#7373de"
     fill-opacity="1"
     d="m 253.19166,187.70756 h -2.55078 v 1.41797 h 2.55078 z m 0,0"
     id="path760"
     style="fill:none;stroke:#000000;stroke-opacity:1;stroke-width:0.37795276;stroke-dasharray:none" />
  <path
     fill-rule="evenodd"
     fill="#7373de"
     fill-opacity="1"
     d="m 166.69166,240.51616 h 2.41016 v -2.26953 h -2.41016 z m 0,0"
     id="path762"
     style="fill:none;stroke:#000000;stroke-opacity:1;stroke-width:0.37795276;stroke-dasharray:none" />
  <path
     fill-rule="evenodd"
     fill="#7373de"
     fill-opacity="1"
     d="m 169.10182,233.99663 h -2.41016 v 2.26953 h 2.41016 z m 0,0"
     id="path764"
     style="fill:none;stroke:#000000;stroke-opacity:1;stroke-width:0.37795276;stroke-dasharray:none" />
  <path
     fill-rule="evenodd"
     fill="#7373de"
     fill-opacity="1"
     d="m 105.92995,137.78959 h -3.96875 v 3.11719 h 3.96875 z m 0,0"
     id="path766"
     style="fill:none;stroke:#000000;stroke-opacity:1;stroke-width:0.37795276;stroke-dasharray:none" />
  <path
     fill-rule="evenodd"
     fill="#7373de"
     fill-opacity="1"
     d="m 101.9612,146.01225 h 3.96875 v -3.11719 h -3.96875 z m 0,0"
     id="path768"
     style="fill:none;stroke:#000000;stroke-opacity:1;stroke-width:0.37795276;stroke-dasharray:none" />
  <path
     fill-rule="evenodd"
     fill="#7373de"
     fill-opacity="1"
     d="m 156.33229,224.38725 h -2.55078 v 1.41797 h 2.55078 z m 0,0"
     id="path770"
     style="fill:none;stroke:#000000;stroke-opacity:1;stroke-width:0.37795276;stroke-dasharray:none" />
  <path
     fill-rule="evenodd"
     fill="#7373de"
     fill-opacity="1"
     d="m 153.78151,230.05913 h 2.55078 v -1.41797 h -2.55078 z m 0,0"
     id="path772"
     style="fill:none;stroke:#000000;stroke-opacity:1;stroke-width:0.37795276;stroke-dasharray:none" />
  <path
     fill-rule="evenodd"
     fill="#7373de"
     fill-opacity="1"
     d="m 127.92995,172.77006 h -2.55079 v 1.41797 h 2.55079 z m 0,0"
     id="path774"
     style="fill:none;stroke:#000000;stroke-opacity:1;stroke-width:0.37795276;stroke-dasharray:none" />
  <path
     fill-rule="evenodd"
     fill="#7373de"
     fill-opacity="1"
     d="m 125.37526,178.43803 h 2.55078 v -1.41797 h -2.55078 z m 0,0"
     id="path776"
     style="fill:none;stroke:#000000;stroke-opacity:1;stroke-width:0.37795276;stroke-dasharray:none" />
  <path
     fill-rule="evenodd"
     fill="#7373de"
     fill-opacity="1"
     d="m 240.66041,194.76616 v -2.55078 h -1.41796 v 2.55078 z m 0,0"
     id="path778"
     style="fill:none;stroke:#000000;stroke-opacity:1;stroke-width:0.37795276;stroke-dasharray:none" />
  <path
     fill-rule="evenodd"
     fill="#7373de"
     fill-opacity="1"
     d="m 234.99245,192.21538 v 2.55078 h 1.41796 v -2.55078 z m 0,0"
     id="path780"
     style="fill:none;stroke:#000000;stroke-opacity:1;stroke-width:0.37795276;stroke-dasharray:none" />
  <path
     fill-rule="evenodd"
     fill="#7373de"
     fill-opacity="1"
     d="m 106.87526,181.61381 h 4.51953 v -7.76953 h -4.51953 z m 0,0"
     id="path782"
     style="fill:none;stroke:#000000;stroke-opacity:1;stroke-width:0.37795276;stroke-dasharray:none" />
  <path
     fill-rule="evenodd"
     fill="#7373de"
     fill-opacity="1"
     d="m 111.39479,159.95366 h -4.51953 v 7.76953 h 4.51953 z m 0,0"
     id="path784"
     style="fill:none;stroke:#000000;stroke-opacity:1;stroke-width:0.37795276;stroke-dasharray:none" />
  <path
     fill-rule="evenodd"
     fill="#7373de"
     fill-opacity="1"
     d="m 136.10573,146.71928 h 2.41015 v -2.26953 h -2.41015 z m 0,0"
     id="path786"
     style="fill:none;stroke:#000000;stroke-opacity:1;stroke-width:0.37795276;stroke-dasharray:none" />
  <path
     fill-rule="evenodd"
     fill="#7373de"
     fill-opacity="1"
     d="m 138.51588,140.19975 h -2.41015 v 2.26953 h 2.41015 z m 0,0"
     id="path788"
     style="fill:none;stroke:#000000;stroke-opacity:1;stroke-width:0.37795276;stroke-dasharray:none" />
  <path
     fill-rule="evenodd"
     fill="#7373de"
     fill-opacity="1"
     d="m 208.4026,240.80131 h 2.55078 v -2.83593 h -2.55078 z m 0,0"
     id="path790"
     style="fill:none;stroke:#000000;stroke-opacity:1;stroke-width:0.37795276;stroke-dasharray:none" />
  <path
     fill-rule="evenodd"
     fill="#7373de"
     fill-opacity="1"
     d="m 208.26198,231.731 h -2.55078 v 2.83594 h 2.55078 z m 0,0"
     id="path792"
     style="fill:none;stroke:#000000;stroke-opacity:1;stroke-width:0.37795276;stroke-dasharray:none" />
  <path
     fill-rule="evenodd"
     fill="#7373de"
     fill-opacity="1"
     d="m 203.01588,240.80131 h 2.55078 v -2.83593 h -2.55078 z m 0,0"
     id="path794"
     style="fill:none;stroke:#000000;stroke-opacity:1;stroke-width:0.37795276;stroke-dasharray:none" />
  <path
     fill-rule="evenodd"
     fill="#7373de"
     fill-opacity="1"
     d="m 145.05104,229.77397 h 1.98437 v -2.55078 h -1.98437 z m 0,0"
     id="path796"
     style="fill:none;stroke:#000000;stroke-opacity:1;stroke-width:0.37795276;stroke-dasharray:none" />
  <path
     fill-rule="evenodd"
     fill="#7373de"
     fill-opacity="1"
     d="m 148.73463,229.77397 h 1.98438 v -2.55078 h -1.98438 z m 0,0"
     id="path798"
     style="fill:none;stroke:#000000;stroke-opacity:1;stroke-width:0.37795276;stroke-dasharray:none" />
  <path
     fill-rule="evenodd"
     fill="#7373de"
     fill-opacity="1"
     d="m 148.87526,221.83647 h -1.98438 v 2.55078 h 1.98438 z m 0,0"
     id="path800"
     style="fill:none;stroke:#000000;stroke-opacity:1;stroke-width:0.37795276;stroke-dasharray:none" />
  <path
     fill-rule="evenodd"
     fill="#7373de"
     fill-opacity="1"
     d="m 234.56666,187.21147 v 2.41016 h 2.26954 v -2.41016 z m 0,0"
     id="path802"
     style="fill:none;stroke:#000000;stroke-opacity:1;stroke-width:0.37795276;stroke-dasharray:none" />
  <path
     fill-rule="evenodd"
     fill="#7373de"
     fill-opacity="1"
     d="m 241.0862,189.62163 v -2.41016 h -2.26954 v 2.41016 z m 0,0"
     id="path804"
     style="fill:none;stroke:#000000;stroke-opacity:1;stroke-width:0.37795276;stroke-dasharray:none" />
  <path
     fill-rule="evenodd"
     fill="#7373de"
     fill-opacity="1"
     d="m 181.74245,143.856 h 2.55078 v -2.83594 h -2.55078 z m 0,0"
     id="path806"
     style="fill:none;stroke:#000000;stroke-opacity:1;stroke-width:0.37795276;stroke-dasharray:none" />
  <path
     fill-rule="evenodd"
     fill="#7373de"
     fill-opacity="1"
     d="m 181.60182,134.78569 h -2.55078 v 2.83594 h 2.55078 z m 0,0"
     id="path808"
     style="fill:none;stroke:#000000;stroke-opacity:1;stroke-width:0.37795276;stroke-dasharray:none" />
  <path
     fill-rule="evenodd"
     fill="#7373de"
     fill-opacity="1"
     d="m 176.35963,143.856 h 2.55078 v -2.83594 h -2.55078 z m 0,0"
     id="path810"
     style="fill:none;stroke:#000000;stroke-opacity:1;stroke-width:0.37795276;stroke-dasharray:none" />
  <path
     fill-rule="evenodd"
     fill="#7373de"
     fill-opacity="1"
     d="m 149.89479,127.44194 v 1.98828 h 4.22656 v -1.98828 z m 0,0"
     id="path812"
     style="fill:none;stroke:#000000;stroke-opacity:1;stroke-width:0.37795276;stroke-dasharray:none" />
  <path
     fill-rule="evenodd"
     fill="#7373de"
     fill-opacity="1"
     d="m 174.39088,122.231 v -1.98828 h -4.22656 v 1.98828 z m 0,0"
     id="path814"
     style="fill:none;stroke:#000000;stroke-opacity:1;stroke-width:0.37795276;stroke-dasharray:none" />
  <path
     fill-rule="evenodd"
     fill="#7373de"
     fill-opacity="1"
     d="m 174.39088,107.82866 v -1.98828 h -4.22656 v 1.98828 z m 0,0"
     id="path816"
     style="fill:none;stroke:#000000;stroke-opacity:1;stroke-width:0.37795276;stroke-dasharray:none" />
  <path
     fill-rule="evenodd"
     fill="#7373de"
     fill-opacity="1"
     d="m 174.39088,115.02788 v -1.98829 h -4.22656 v 1.98829 z m 0,0"
     id="path818"
     style="fill:none;stroke:#000000;stroke-opacity:1;stroke-width:0.37795276;stroke-dasharray:none" />
  <path
     fill-rule="evenodd"
     fill="#7373de"
     fill-opacity="1"
     d="m 149.89479,120.24272 v 1.98828 h 4.22656 v -1.98828 z m 0,0"
     id="path820"
     style="fill:none;stroke:#000000;stroke-opacity:1;stroke-width:0.37795276;stroke-dasharray:none" />
  <path
     fill-rule="evenodd"
     fill="#7373de"
     fill-opacity="1"
     d="m 149.89479,105.84038 v 1.98828 h 4.22656 v -1.98828 z m 0,0"
     id="path822"
     style="fill:none;stroke:#000000;stroke-opacity:1;stroke-width:0.37795276;stroke-dasharray:none" />
  <path
     fill-rule="evenodd"
     fill="#7373de"
     fill-opacity="1"
     d="m 174.39088,129.43022 v -1.98828 h -4.22656 v 1.98828 z m 0,0"
     id="path824"
     style="fill:none;stroke:#000000;stroke-opacity:1;stroke-width:0.37795276;stroke-dasharray:none" />
  <path
     fill-rule="evenodd"
     fill="#7373de"
     fill-opacity="1"
     d="m 149.89479,113.03959 v 1.98829 h 4.22656 v -1.98829 z m 0,0"
     id="path826"
     style="fill:none;stroke:#000000;stroke-opacity:1;stroke-width:0.37795276;stroke-dasharray:none" />
  <path
     fill-rule="evenodd"
     fill="#7373de"
     fill-opacity="1"
     d="m 190.48854,226.48491 h -4.53516 v 7.08593 h 4.53516 z m 0,0"
     id="path828"
     style="fill:none;stroke:#000000;stroke-opacity:1;stroke-width:0.37795276;stroke-dasharray:none" />
  <path
     fill-rule="evenodd"
     fill="#7373de"
     fill-opacity="1"
     d="m 185.95338,242.92631 h 4.53516 v -7.08593 h -4.53516 z m 0,0"
     id="path830"
     style="fill:none;stroke:#000000;stroke-opacity:1;stroke-width:0.37795276;stroke-dasharray:none" />
  <path
     fill-rule="evenodd"
     fill="#7373de"
     fill-opacity="1"
     d="m 122.74245,172.77006 h -2.55079 v 1.41797 h 2.55079 z m 0,0"
     id="path832"
     style="fill:none;stroke:#000000;stroke-opacity:1;stroke-width:0.37795276;stroke-dasharray:none" />
  <path
     fill-rule="evenodd"
     fill="#7373de"
     fill-opacity="1"
     d="m 120.18776,178.43803 h 2.55078 v -1.41797 h -2.55078 z m 0,0"
     id="path834"
     style="fill:none;stroke:#000000;stroke-opacity:1;stroke-width:0.37795276;stroke-dasharray:none" />
  <path
     fill-rule="evenodd"
     fill="#7373de"
     fill-opacity="1"
     d="m 243.89479,195.05131 h 3.96875 v -3.11718 h -3.96875 z m 0,0"
     id="path836"
     style="fill:none;stroke:#000000;stroke-opacity:1;stroke-width:0.37795276;stroke-dasharray:none" />
  <path
     fill-rule="evenodd"
     fill="#7373de"
     fill-opacity="1"
     d="m 247.86354,186.82866 h -3.96875 v 3.11718 h 3.96875 z m 0,0"
     id="path838"
     style="fill:none;stroke:#000000;stroke-opacity:1;stroke-width:0.37795276;stroke-dasharray:none" />
  <path
     fill-rule="evenodd"
     fill="#7373de"
     fill-opacity="1"
     d="m 224.12135,167.75053 v -4.53515 h -8.36328 v 4.53515 z m 0,0"
     id="path840"
     style="fill:none;stroke:#000000;stroke-opacity:1;stroke-width:0.37795276;stroke-dasharray:none" />
  <path
     fill-rule="evenodd"
     fill="#7373de"
     fill-opacity="1"
     d="m 201.01979,163.21538 v 4.53515 h 8.36328 v -4.53515 z m 0,0"
     id="path842"
     style="fill:none;stroke:#000000;stroke-opacity:1;stroke-width:0.37795276;stroke-dasharray:none" />
</svg>
