M48
FMAT,2
METRIC,TZ
T8C0.350
T3C0.500
T7C0.600
T9C0.800
T4C0.900
T6C1.000
T2C1.400
T5C1.500
T1C4.700
%
G90
G05
M71
T8
X73.650Y71.100
X74.455Y67.450
X85.590Y66.450
X61.799Y45.000
X54.166Y81.000
X92.164Y21.000
X82.200Y77.900
X66.832Y63.000
X76.200Y40.800
X85.590Y58.420
X50.850Y65.140
X66.450Y26.710
X98.497Y93.000
X87.990Y56.620
X64.395Y66.920
X60.499Y21.000
X66.900Y60.400
X73.165Y99.000
X92.164Y75.000
X92.164Y45.000
X52.400Y66.600
X41.500Y87.000
X48.200Y57.200
X86.431Y75.000
X48.833Y75.000
X86.000Y71.500
X73.200Y60.400
X74.165Y50.800
X54.166Y87.000
X91.150Y49.730
X74.400Y35.950
X60.170Y38.200
X41.500Y21.000
X51.633Y51.000
X44.100Y61.100
X79.198Y51.000
X50.570Y66.600
X52.350Y63.860
X47.833Y93.000
X59.900Y42.600
X63.700Y51.000
X59.000Y39.000
X41.500Y93.000
X54.166Y75.000
X87.990Y64.750
X73.600Y28.000
X54.166Y21.000
X59.900Y55.200
X74.165Y44.800
X62.700Y38.200
X54.166Y69.000
X81.600Y51.000
X47.833Y27.800
X70.900Y77.900
X64.150Y60.400
X47.833Y69.000
X98.497Y75.000
X56.530Y74.770
X93.164Y57.000
X79.198Y45.000
X85.590Y63.050
X98.497Y69.000
X54.166Y27.800
X67.275Y65.950
X56.200Y48.800
X66.832Y99.000
X77.290Y75.290
X48.930Y61.490
X41.500Y39.000
X73.165Y93.000
X72.100Y50.800
X47.833Y39.000
X41.400Y63.000
X66.832Y93.000
X78.698Y62.700
X73.165Y63.000
X41.500Y81.000
X98.497Y27.000
X46.500Y50.140
X92.240Y32.450
X85.831Y81.000
X81.680Y40.800
X98.497Y21.000
X66.832Y37.800
X96.870Y45.930
X54.166Y99.000
X46.760Y66.560
X63.700Y54.800
X61.799Y51.000
X41.500Y51.000
X73.165Y21.000
X83.860Y33.250
X73.165Y87.000
X98.497Y87.000
X79.498Y93.000
X61.499Y38.400
X66.832Y21.000
X98.497Y45.000
X52.000Y55.200
X85.831Y39.700
X41.500Y33.000
X85.590Y54.820
X79.498Y87.000
X72.550Y69.400
X92.164Y87.000
X60.499Y81.000
X41.500Y57.000
X49.300Y53.300
X66.832Y75.000
X41.500Y69.000
X74.750Y69.400
X85.831Y21.000
X66.832Y87.000
X47.833Y87.000
X78.190Y33.250
X62.147Y63.092
X85.831Y45.000
X92.164Y27.000
X85.831Y51.000
X98.497Y63.000
X66.832Y33.700
X73.600Y25.600
X66.832Y81.000
X89.360Y46.060
X81.020Y34.150
X79.498Y99.000
X59.899Y76.100
X90.864Y40.500
X98.497Y57.000
X92.164Y93.000
X63.800Y45.000
X68.430Y30.550
X41.500Y75.000
X58.000Y46.300
X78.900Y67.800
X92.164Y63.000
X66.832Y51.000
X72.100Y42.200
X51.600Y45.000
X80.690Y75.290
X85.831Y99.000
X48.433Y45.000
X85.831Y93.000
X60.499Y99.000
X81.600Y45.000
X59.799Y69.000
X92.164Y99.000
X79.498Y81.000
X98.497Y81.000
X61.799Y57.000
X74.750Y75.700
X67.032Y69.000
X79.198Y40.800
X72.200Y79.100
X53.636Y51.000
X76.400Y53.400
X47.833Y33.000
X64.400Y69.000
X98.497Y33.000
X55.300Y55.200
X73.800Y79.000
X41.500Y45.000
X54.166Y33.000
X87.850Y50.410
X54.166Y39.000
X72.550Y75.700
X73.650Y74.000
X47.833Y21.000
X89.300Y53.600
X98.497Y39.000
X60.499Y87.000
X65.800Y68.300
X60.499Y93.000
X92.164Y69.000
X66.940Y41.220
X54.770Y60.230
X79.498Y21.000
X54.166Y93.000
X61.800Y40.600
X61.400Y60.400
X89.060Y55.370
X98.497Y51.000
X47.833Y99.000
X54.266Y45.000
X92.164Y81.000
X85.831Y87.000
X47.833Y81.000
X59.700Y48.800
X56.440Y62.440
X85.831Y27.000
X41.500Y27.000
X78.200Y58.800
X70.315Y66.950
T3
X64.920Y49.990
X70.000Y49.990
X77.580Y47.010
X77.580Y52.090
X70.000Y52.490
X64.920Y52.490
X75.080Y52.090
X75.080Y47.010
T7
X87.640Y24.770
X85.100Y22.230
X82.560Y24.770
X54.080Y57.030
X71.250Y30.550
X48.340Y60.240
T9
X86.740Y35.770
X80.390Y61.670
T4
X71.300Y47.570
X68.800Y44.270
X66.300Y44.270
X71.300Y44.270
X68.800Y47.570
X66.300Y47.570
X77.580Y44.570
X77.580Y42.030
X60.765Y22.775
X63.305Y22.775
X65.845Y22.775
X77.580Y39.700
X77.580Y37.160
T6
X71.690Y23.300
X79.310Y23.300
X71.250Y82.500
X68.750Y82.500
X45.250Y23.650
X47.750Y23.650
X92.250Y23.650
X94.750Y23.650
T2
X46.500Y71.300
X56.500Y71.300
X51.500Y71.300
X83.500Y41.000
X93.500Y41.000
X88.500Y41.000
X83.500Y71.300
X93.500Y71.300
X88.500Y71.300
X46.500Y41.000
X56.500Y41.000
X51.500Y41.000
T5
X64.250Y83.350
X64.250Y95.800
X47.950Y95.800
X64.250Y89.550
X47.950Y89.550
X47.950Y83.350
X70.000Y57.000
X75.080Y57.000
X64.920Y57.000
X92.050Y83.350
X92.050Y95.800
X75.750Y95.800
X92.050Y89.550
X75.750Y89.550
X75.750Y83.350
T1
X30.000Y83.000
X110.000Y25.000
X30.000Y25.000
X110.000Y83.000
M30
