%FSLAX46Y46*%
%MOMM*%
%AMPS10*
1,1,2.300000,0.000000,0.000000*
%
%ADD10PS10*%
%AMPS16*
1,1,1.800000,0.000000,0.000000*
%
%ADD16PS16*%
%AMPS11*
1,1,2.400000,0.000000,0.000000*
%
%ADD11PS11*%
%AMPS15*
1,1,1.500000,0.000000,0.000000*
%
%ADD15PS15*%
%AMPS14*
1,1,1.900000,0.000000,0.000000*
%
%ADD14PS14*%
%AMPS12*
1,1,1.900000,0.000000,0.000000*
%
%ADD12PS12*%
%AMPS13*
1,1,1.900000,0.000000,0.000000*
%
%ADD13PS13*%
%AMPS17*
1,1,2.400000,0.000000,0.000000*
%
%ADD17PS17*%
%AMPS23*
1,1,0.600000,0.000000,0.000000*
%
%ADD23PS23*%
%AMPS24*
1,1,1.000000,0.000000,0.000000*
%
%ADD24PS24*%
%AMPS21*
1,1,1.200000,0.000000,0.000000*
%
%ADD21PS21*%
%AMPS18*
1,1,0.550000,0.000000,0.000000*
%
%ADD18PS18*%
%AMPS22*
1,1,1.600000,0.000000,0.000000*
%
%ADD22PS22*%
%AMPS19*
1,1,0.700000,0.000000,0.000000*
%
%ADD19PS19*%
%AMPS20*
1,1,0.800000,0.000000,0.000000*
%
%ADD20PS20*%
G01*
G01*
%LPD*%
G75*
D10*
X43000000Y51200000D03*
D10*
X53000000Y51200000D03*
D10*
X48000000Y51200000D03*
D10*
X43000000Y20900000D03*
D10*
X53000000Y20900000D03*
D10*
X48000000Y20900000D03*
D11*
X23750000Y63250000D03*
D11*
X23750000Y75700000D03*
D11*
X7450000Y75700000D03*
D11*
X23750000Y69450000D03*
D11*
X7450000Y69450000D03*
D11*
X7450000Y63250000D03*
D12*
X30750000Y62400000D03*
D12*
X28250000Y62400000D03*
D10*
X6000000Y51200000D03*
D10*
X16000000Y51200000D03*
D10*
X11000000Y51200000D03*
D13*
X32890000Y3300000D03*
D13*
X40510000Y3300000D03*
D14*
X52450000Y3650000D03*
D14*
X54950000Y3650000D03*
D15*
X48340000Y4770000D03*
D15*
X45800000Y2230000D03*
D15*
X43260000Y4770000D03*
D11*
X51550000Y63250000D03*
D11*
X51550000Y75700000D03*
D11*
X35250000Y75700000D03*
D11*
X51550000Y69450000D03*
D11*
X35250000Y69450000D03*
D11*
X35250000Y63250000D03*
D16*
X23210000Y2570000D03*
D16*
X25750000Y2570000D03*
D16*
X28290000Y2570000D03*
D14*
X4050000Y3680000D03*
D14*
X6550000Y3680000D03*
D17*
X11000000Y36900000D03*
D17*
X16080000Y36900000D03*
D17*
X5920000Y36900000D03*
D18*
X58000000Y60900000D03*
D18*
X1003000Y60900000D03*
D19*
X26000000Y40600000D03*
D18*
X51667000Y900000D03*
D19*
X32200000Y56900000D03*
D19*
X17690000Y21690000D03*
D18*
X26335000Y900000D03*
D18*
X1003000Y66900000D03*
D19*
X37870000Y31560000D03*
D18*
X45334000Y900000D03*
D20*
X16075000Y29065000D03*
D18*
X51667000Y79233000D03*
D19*
X24100000Y37900000D03*
D19*
X19110000Y33690000D03*
D18*
X39001000Y900000D03*
D19*
X26000000Y48860000D03*
D20*
X23320000Y33390000D03*
D18*
X26335000Y79233000D03*
D19*
X19710000Y56910000D03*
D18*
X45334000Y79233000D03*
D20*
X23420000Y35180000D03*
D20*
X16075000Y29065000D03*
D18*
X58000000Y36900000D03*
D18*
X20002000Y900000D03*
D18*
X1003000Y18900000D03*
D21*
X27510000Y32070000D03*
D19*
X51130000Y25050000D03*
D18*
X1003000Y72900000D03*
D18*
X1003000Y900000D03*
D20*
X4950000Y48080000D03*
D18*
X1003000Y6900000D03*
D18*
X20002000Y79233000D03*
D20*
X51971668Y35578328D03*
D18*
X58000000Y900000D03*
D18*
X58000000Y6900000D03*
D22*
X43200000Y44300000D03*
D18*
X13669000Y900000D03*
D18*
X58000000Y24900000D03*
D18*
X26335000Y66900000D03*
D18*
X58000000Y66900000D03*
D20*
X12500000Y47730000D03*
D18*
X32668000Y79233000D03*
D21*
X28200000Y22800000D03*
D18*
X32668000Y72900000D03*
D18*
X58000000Y54900000D03*
D18*
X1003000Y36900000D03*
D18*
X58000000Y18900000D03*
D18*
X1003000Y30900000D03*
D18*
X58000000Y48900000D03*
D23*
X48331668Y29548328D03*
D20*
X18500000Y36490000D03*
D18*
X58000000Y12900000D03*
D19*
X7440000Y20270000D03*
D21*
X51150000Y16100000D03*
D18*
X32668000Y900000D03*
D18*
X13669000Y79233000D03*
D18*
X7336000Y79233000D03*
D20*
X19890000Y26740000D03*
D18*
X26335000Y72900000D03*
D20*
X23320000Y31140000D03*
D20*
X14850000Y19000000D03*
D18*
X1003000Y42900000D03*
D18*
X32668000Y66900000D03*
D19*
X13840000Y33800000D03*
D18*
X1003000Y48900000D03*
D19*
X15100000Y40800000D03*
D24*
X36100000Y44300000D03*
D18*
X39001000Y79233000D03*
D18*
X58000000Y72900000D03*
D18*
X1003000Y12900000D03*
D21*
X34800000Y32070000D03*
D18*
X1003000Y54900000D03*
D18*
X7336000Y900000D03*
D18*
X1003000Y24900000D03*
D24*
X32950000Y11650000D03*
D18*
X58000000Y30900000D03*
D18*
X58000000Y42900000D03*
D23*
X50271668Y28278328D03*
M02*
