%FSLAX46Y46*%
%MOMM*%
%ADD11C,0.050000*%
%ADD10C,0.150000*%
G01*
G01*
%LPD*%
D10*
X118979048Y23809524D02*
X119074288Y23857142D01*
D10*
X118883808Y23714286D02*
X118979048Y23809524D01*
D10*
X118836192Y23619048D02*
X118883808Y23714286D01*
D10*
X118836192Y23428572D02*
X118836192Y23619048D01*
D10*
X118883808Y23333334D02*
X118836192Y23428572D01*
D10*
X118979048Y23238096D02*
X118883808Y23333334D01*
D10*
X119074288Y23190476D02*
X118979048Y23238096D01*
D10*
X119217144Y23142858D02*
X119074288Y23190476D01*
D10*
X119455240Y23142858D02*
X119217144Y23142858D01*
D10*
X119598096Y23190476D02*
X119455240Y23142858D01*
D10*
X119693336Y23238096D02*
X119598096Y23190476D01*
D10*
X119788568Y23333334D02*
X119693336Y23238096D01*
D10*
X119836192Y23428572D02*
X119788568Y23333334D01*
D10*
X119836192Y23619048D02*
X119836192Y23428572D01*
D10*
X119788568Y23714286D02*
X119836192Y23619048D01*
D10*
X119693336Y23809524D02*
X119788568Y23714286D01*
D10*
X119598096Y23857142D02*
X119693336Y23809524D01*
D10*
X119836192Y24333334D02*
X118836192Y24809524D01*
D10*
X118836192Y24809524D02*
X118836192Y24142858D01*
D10*
X96569048Y31779524D02*
X96664288Y31827142D01*
D10*
X96473808Y31684286D02*
X96569048Y31779524D01*
D10*
X96426192Y31589048D02*
X96473808Y31684286D01*
D10*
X96426192Y31398572D02*
X96426192Y31589048D01*
D10*
X96473808Y31303334D02*
X96426192Y31398572D01*
D10*
X96569048Y31208096D02*
X96473808Y31303334D01*
D10*
X96664288Y31160476D02*
X96569048Y31208096D01*
D10*
X96807144Y31112858D02*
X96664288Y31160476D01*
D10*
X97045240Y31112858D02*
X96807144Y31112858D01*
D10*
X97188096Y31160476D02*
X97045240Y31112858D01*
D10*
X97283336Y31208096D02*
X97188096Y31160476D01*
D10*
X97378568Y31303334D02*
X97283336Y31208096D01*
D10*
X97426192Y31398572D02*
X97378568Y31303334D01*
D10*
X97426192Y31589048D02*
X97426192Y31398572D01*
D10*
X97378568Y31684286D02*
X97426192Y31589048D01*
D10*
X97283336Y31779524D02*
X97378568Y31684286D01*
D10*
X97188096Y31827142D02*
X97283336Y31779524D01*
D10*
X96569048Y32350952D02*
X96616664Y32255714D01*
D10*
X96426192Y32493810D02*
X96569048Y32350952D01*
D10*
X97426192Y32493810D02*
X96426192Y32493810D01*
D10*
X96426192Y33160476D02*
X96426192Y33636668D01*
D10*
X96854760Y33112856D02*
X96426192Y33160476D01*
D10*
X96807144Y33160476D02*
X96854760Y33112856D01*
D10*
X96759520Y33303334D02*
X96807144Y33160476D01*
D10*
X96759520Y33446190D02*
X96759520Y33303334D01*
D10*
X96807144Y33589048D02*
X96759520Y33446190D01*
D10*
X96902384Y33684284D02*
X96807144Y33589048D01*
D10*
X97045240Y33731904D02*
X96902384Y33684284D01*
D10*
X97140480Y33731904D02*
X97045240Y33731904D01*
D10*
X97283336Y33684284D02*
X97140480Y33731904D01*
D10*
X97378568Y33589048D02*
X97283336Y33684284D01*
D10*
X97426192Y33446190D02*
X97378568Y33589048D01*
D10*
X97426192Y33303334D02*
X97426192Y33446190D01*
D10*
X97378568Y33160476D02*
X97426192Y33303334D01*
D10*
X97330952Y33112856D02*
X97378568Y33160476D01*
D10*
X97235712Y33065238D02*
X97330952Y33112856D01*
D10*
X131626192Y36635716D02*
X130626192Y36635716D01*
D10*
X130626192Y37064284D02*
X130626192Y36635716D01*
D10*
X130673808Y37207144D02*
X130626192Y37064284D01*
D10*
X130721432Y37254760D02*
X130673808Y37207144D01*
D10*
X130816664Y37302380D02*
X130721432Y37254760D01*
D10*
X130911904Y37302380D02*
X130816664Y37302380D01*
D10*
X131007144Y37254760D02*
X130911904Y37302380D01*
D10*
X131054760Y37207144D02*
X131007144Y37254760D01*
D10*
X131102384Y37064284D02*
X131054760Y37207144D01*
D10*
X131102384Y36635716D02*
X131102384Y37064284D01*
D10*
X131626192Y37302380D02*
X131102384Y36969048D01*
D10*
X130769048Y37826192D02*
X130816664Y37730952D01*
D10*
X130626192Y37969048D02*
X130769048Y37826192D01*
D10*
X131626192Y37969048D02*
X130626192Y37969048D01*
D10*
X130769048Y38778572D02*
X130816664Y38683332D01*
D10*
X130626192Y38921428D02*
X130769048Y38778572D01*
D10*
X131626192Y38921428D02*
X130626192Y38921428D01*
D10*
X92419048Y33679524D02*
X92514288Y33727144D01*
D10*
X92323808Y33584284D02*
X92419048Y33679524D01*
D10*
X92276192Y33489048D02*
X92323808Y33584284D01*
D10*
X92276192Y33298572D02*
X92276192Y33489048D01*
D10*
X92323808Y33203334D02*
X92276192Y33298572D01*
D10*
X92419048Y33108096D02*
X92323808Y33203334D01*
D10*
X92514288Y33060476D02*
X92419048Y33108096D01*
D10*
X92657144Y33012858D02*
X92514288Y33060476D01*
D10*
X92895240Y33012858D02*
X92657144Y33012858D01*
D10*
X93038096Y33060476D02*
X92895240Y33012858D01*
D10*
X93133336Y33108096D02*
X93038096Y33060476D01*
D10*
X93228568Y33203334D02*
X93133336Y33108096D01*
D10*
X93276192Y33298572D02*
X93228568Y33203334D01*
D10*
X93276192Y33489048D02*
X93276192Y33298572D01*
D10*
X93228568Y33584284D02*
X93276192Y33489048D01*
D10*
X93133336Y33679524D02*
X93228568Y33584284D01*
D10*
X93038096Y33727144D02*
X93133336Y33679524D01*
D10*
X92419048Y34250952D02*
X92466664Y34155716D01*
D10*
X92276192Y34393808D02*
X92419048Y34250952D01*
D10*
X93276192Y34393808D02*
X92276192Y34393808D01*
D10*
X92942856Y34965240D02*
X92276192Y35441428D01*
D10*
X92942856Y35679524D02*
X92942856Y34965240D01*
D10*
X93276192Y35441428D02*
X92276192Y35441428D01*
D10*
X124669048Y23759524D02*
X124764288Y23807142D01*
D10*
X124573808Y23664286D02*
X124669048Y23759524D01*
D10*
X124526192Y23569048D02*
X124573808Y23664286D01*
D10*
X124526192Y23378572D02*
X124526192Y23569048D01*
D10*
X124573808Y23283334D02*
X124526192Y23378572D01*
D10*
X124669048Y23188096D02*
X124573808Y23283334D01*
D10*
X124764288Y23140476D02*
X124669048Y23188096D01*
D10*
X124907144Y23092858D02*
X124764288Y23140476D01*
D10*
X125145240Y23092858D02*
X124907144Y23092858D01*
D10*
X125288096Y23140476D02*
X125145240Y23092858D01*
D10*
X125383336Y23188096D02*
X125288096Y23140476D01*
D10*
X125478568Y23283334D02*
X125383336Y23188096D01*
D10*
X125526192Y23378572D02*
X125478568Y23283334D01*
D10*
X125526192Y23569048D02*
X125526192Y23378572D01*
D10*
X125478568Y23664286D02*
X125526192Y23569048D01*
D10*
X125383336Y23759524D02*
X125478568Y23664286D01*
D10*
X125288096Y23807142D02*
X125383336Y23759524D01*
D10*
X124573808Y24664286D02*
X124669048Y24711904D01*
D10*
X124526192Y24521428D02*
X124573808Y24664286D01*
D10*
X124526192Y24426190D02*
X124526192Y24521428D01*
D10*
X124573808Y24283334D02*
X124526192Y24426190D01*
D10*
X124716664Y24188096D02*
X124573808Y24283334D01*
D10*
X124954760Y24140476D02*
X124716664Y24188096D01*
D10*
X125192856Y24140476D02*
X124954760Y24140476D01*
D10*
X125383336Y24188096D02*
X125192856Y24140476D01*
D10*
X125478568Y24283334D02*
X125383336Y24188096D01*
D10*
X125526192Y24426190D02*
X125478568Y24283334D01*
D10*
X125526192Y24473810D02*
X125526192Y24426190D01*
D10*
X125478568Y24616666D02*
X125526192Y24473810D01*
D10*
X125383336Y24711904D02*
X125478568Y24616666D01*
D10*
X125240480Y24759524D02*
X125383336Y24711904D01*
D10*
X125192856Y24759524D02*
X125240480Y24759524D01*
D10*
X125050000Y24711904D02*
X125192856Y24759524D01*
D10*
X124954760Y24616666D02*
X125050000Y24711904D01*
D10*
X124907144Y24473810D02*
X124954760Y24616666D01*
D10*
X124907144Y24426190D02*
X124907144Y24473810D01*
D10*
X124954760Y24283334D02*
X124907144Y24426190D01*
D10*
X125050000Y24188096D02*
X124954760Y24283334D01*
D10*
X125192856Y24140476D02*
X125050000Y24188096D01*
D10*
X99547616Y51804760D02*
X99585712Y51728572D01*
D10*
X99471432Y51880952D02*
X99547616Y51804760D01*
D10*
X99395240Y51919048D02*
X99471432Y51880952D01*
D10*
X99242856Y51919048D02*
X99395240Y51919048D01*
D10*
X99166664Y51880952D02*
X99242856Y51919048D01*
D10*
X99090480Y51804760D02*
X99166664Y51880952D01*
D10*
X99052384Y51728572D02*
X99090480Y51804760D01*
D10*
X99014288Y51614284D02*
X99052384Y51728572D01*
D10*
X99014288Y51423808D02*
X99014288Y51614284D01*
D10*
X99052384Y51309524D02*
X99014288Y51423808D01*
D10*
X99090480Y51233332D02*
X99052384Y51309524D01*
D10*
X99166664Y51157144D02*
X99090480Y51233332D01*
D10*
X99242856Y51119048D02*
X99166664Y51157144D01*
D10*
X99395240Y51119048D02*
X99242856Y51119048D01*
D10*
X99471432Y51157144D02*
X99395240Y51119048D01*
D10*
X99547616Y51233332D02*
X99471432Y51157144D01*
D10*
X99585712Y51309524D02*
X99547616Y51233332D01*
D10*
X100004760Y51804760D02*
X99928568Y51766668D01*
D10*
X100119048Y51919048D02*
X100004760Y51804760D01*
D10*
X100119048Y51119048D02*
X100119048Y51919048D01*
D10*
X101071432Y51919048D02*
X100652384Y51919048D01*
D10*
X100842856Y51614284D02*
X101071432Y51919048D01*
D10*
X100957144Y51614284D02*
X100842856Y51614284D01*
D10*
X101033336Y51576192D02*
X100957144Y51614284D01*
D10*
X101071432Y51538096D02*
X101033336Y51576192D01*
D10*
X101109520Y51423808D02*
X101071432Y51538096D01*
D10*
X101109520Y51347620D02*
X101109520Y51423808D01*
D10*
X101071432Y51233332D02*
X101109520Y51347620D01*
D10*
X100995240Y51157144D02*
X101071432Y51233332D01*
D10*
X100880952Y51119048D02*
X100995240Y51157144D01*
D10*
X100766664Y51119048D02*
X100880952Y51119048D01*
D10*
X100652384Y51157144D02*
X100766664Y51119048D01*
D10*
X100614288Y51195240D02*
X100652384Y51157144D01*
D10*
X100576192Y51271428D02*
X100614288Y51195240D01*
D10*
X118005240Y15803810D02*
X118005240Y16803810D01*
D10*
X118386192Y15803810D02*
X118005240Y16803810D01*
D10*
X118386192Y15803810D02*
X118767144Y16803810D01*
D10*
X118767144Y15803810D02*
X118767144Y16803810D01*
D10*
X119290952Y16756190D02*
X119386192Y16803810D01*
D10*
X119195712Y16660952D02*
X119290952Y16756190D01*
D10*
X119148096Y16565714D02*
X119195712Y16660952D01*
D10*
X119100480Y16422857D02*
X119148096Y16565714D01*
D10*
X119100480Y16184762D02*
X119100480Y16422857D01*
D10*
X119148096Y16041905D02*
X119100480Y16184762D01*
D10*
X119195712Y15946667D02*
X119148096Y16041905D01*
D10*
X119290952Y15851429D02*
X119195712Y15946667D01*
D10*
X119386192Y15803810D02*
X119290952Y15851429D01*
D10*
X119576664Y15803810D02*
X119386192Y15803810D01*
D10*
X119671904Y15851429D02*
X119576664Y15803810D01*
D10*
X119767144Y15946667D02*
X119671904Y15851429D01*
D10*
X119814760Y16041905D02*
X119767144Y15946667D01*
D10*
X119862384Y16184762D02*
X119814760Y16041905D01*
D10*
X119862384Y16422857D02*
X119862384Y16184762D01*
D10*
X119814760Y16565714D02*
X119862384Y16422857D01*
D10*
X119767144Y16660952D02*
X119814760Y16565714D01*
D10*
X119671904Y16756190D02*
X119767144Y16660952D01*
D10*
X119576664Y16803810D02*
X119671904Y16756190D01*
D10*
X119386192Y16803810D02*
X119576664Y16803810D01*
D10*
X120195712Y15803810D02*
X120195712Y16803810D01*
D10*
X120529048Y16803810D02*
X120195712Y16803810D01*
D10*
X120671904Y16756190D02*
X120529048Y16803810D01*
D10*
X120767144Y16660952D02*
X120671904Y16756190D01*
D10*
X120814760Y16565714D02*
X120767144Y16660952D01*
D10*
X120862384Y16422857D02*
X120814760Y16565714D01*
D10*
X120862384Y16184762D02*
X120862384Y16422857D01*
D10*
X120814760Y16041905D02*
X120862384Y16184762D01*
D10*
X120767144Y15946667D02*
X120814760Y16041905D01*
D10*
X120671904Y15851429D02*
X120767144Y15946667D01*
D10*
X120529048Y15803810D02*
X120671904Y15851429D01*
D10*
X120195712Y15803810D02*
X120529048Y15803810D01*
D10*
X121195712Y15803810D02*
X121195712Y16803810D01*
D10*
X121814760Y16803810D02*
X121195712Y16803810D01*
D10*
X121576664Y16327619D02*
X121195712Y16327619D01*
D10*
X121814760Y15803810D02*
X121195712Y15803810D01*
D10*
X134947616Y51104760D02*
X134985712Y51028572D01*
D10*
X134871424Y51180952D02*
X134947616Y51104760D01*
D10*
X134795232Y51219048D02*
X134871424Y51180952D01*
D10*
X134642864Y51219048D02*
X134795232Y51219048D01*
D10*
X134566672Y51180952D02*
X134642864Y51219048D01*
D10*
X134490480Y51104760D02*
X134566672Y51180952D01*
D10*
X134452384Y51028572D02*
X134490480Y51104760D01*
D10*
X134414288Y50914284D02*
X134452384Y51028572D01*
D10*
X134414288Y50723808D02*
X134414288Y50914284D01*
D10*
X134452384Y50609524D02*
X134414288Y50723808D01*
D10*
X134490480Y50533332D02*
X134452384Y50609524D01*
D10*
X134566672Y50457144D02*
X134490480Y50533332D01*
D10*
X134642864Y50419048D02*
X134566672Y50457144D01*
D10*
X134795232Y50419048D02*
X134642864Y50419048D01*
D10*
X134871424Y50457144D02*
X134795232Y50419048D01*
D10*
X134947616Y50533332D02*
X134871424Y50457144D01*
D10*
X134985712Y50609524D02*
X134947616Y50533332D01*
D10*
X135404768Y51104760D02*
X135328576Y51066668D01*
D10*
X135519040Y51219048D02*
X135404768Y51104760D01*
D10*
X135519040Y50419048D02*
X135519040Y51219048D01*
D10*
X136128576Y50419048D02*
X136509520Y51219048D01*
D10*
X136509520Y51219048D02*
X135976192Y51219048D01*
D10*
X113719048Y42557144D02*
X113814288Y42604760D01*
D10*
X113623808Y42461904D02*
X113719048Y42557144D01*
D10*
X113576192Y42366668D02*
X113623808Y42461904D01*
D10*
X113576192Y42176192D02*
X113576192Y42366668D01*
D10*
X113623808Y42080952D02*
X113576192Y42176192D01*
D10*
X113719048Y41985716D02*
X113623808Y42080952D01*
D10*
X113814288Y41938096D02*
X113719048Y41985716D01*
D10*
X113957144Y41890476D02*
X113814288Y41938096D01*
D10*
X114195240Y41890476D02*
X113957144Y41890476D01*
D10*
X114338096Y41938096D02*
X114195240Y41890476D01*
D10*
X114433336Y41985716D02*
X114338096Y41938096D01*
D10*
X114528568Y42080952D02*
X114433336Y41985716D01*
D10*
X114576192Y42176192D02*
X114528568Y42080952D01*
D10*
X114576192Y42366668D02*
X114576192Y42176192D01*
D10*
X114528568Y42461904D02*
X114576192Y42366668D01*
D10*
X114433336Y42557144D02*
X114528568Y42461904D01*
D10*
X114338096Y42604760D02*
X114433336Y42557144D01*
D10*
X114242856Y42890476D02*
X113576192Y43366668D01*
D10*
X114242856Y43604760D02*
X114242856Y42890476D01*
D10*
X114576192Y43366668D02*
X113576192Y43366668D01*
D10*
X98740480Y41443808D02*
X98740480Y42443808D01*
D10*
X99169048Y42443808D02*
X98740480Y42443808D01*
D10*
X99311904Y42396192D02*
X99169048Y42443808D01*
D10*
X99359520Y42348572D02*
X99311904Y42396192D01*
D10*
X99407144Y42253332D02*
X99359520Y42348572D01*
D10*
X99407144Y42158096D02*
X99407144Y42253332D01*
D10*
X99359520Y42062856D02*
X99407144Y42158096D01*
D10*
X99311904Y42015240D02*
X99359520Y42062856D01*
D10*
X99169048Y41967620D02*
X99311904Y42015240D01*
D10*
X98740480Y41967620D02*
X99169048Y41967620D01*
D10*
X99407144Y41443808D02*
X99073808Y41967620D01*
D10*
X99788096Y42396192D02*
X99930952Y42443808D01*
D10*
X99740480Y42300952D02*
X99788096Y42396192D01*
D10*
X99740480Y42205716D02*
X99740480Y42300952D01*
D10*
X99788096Y42110476D02*
X99740480Y42205716D01*
D10*
X99883336Y42062856D02*
X99788096Y42110476D01*
D10*
X100073808Y42015240D02*
X99883336Y42062856D01*
D10*
X100216664Y41967620D02*
X100073808Y42015240D01*
D10*
X100311904Y41872380D02*
X100216664Y41967620D01*
D10*
X100359520Y41777144D02*
X100311904Y41872380D01*
D10*
X100359520Y41634284D02*
X100359520Y41777144D01*
D10*
X100311904Y41539048D02*
X100359520Y41634284D01*
D10*
X100264288Y41491428D02*
X100311904Y41539048D01*
D10*
X100121432Y41443808D02*
X100264288Y41491428D01*
D10*
X99930952Y41443808D02*
X100121432Y41443808D01*
D10*
X99788096Y41491428D02*
X99930952Y41443808D01*
D10*
X99740480Y41539048D02*
X99788096Y41491428D01*
D10*
X99692856Y41634284D02*
X99740480Y41539048D01*
D10*
X99692856Y41777144D02*
X99692856Y41634284D01*
D10*
X99740480Y41872380D02*
X99692856Y41777144D01*
D10*
X99835712Y41967620D02*
X99740480Y41872380D01*
D10*
X99978568Y42015240D02*
X99835712Y41967620D01*
D10*
X100169048Y42062856D02*
X99978568Y42015240D01*
D10*
X100264288Y42110476D02*
X100169048Y42062856D01*
D10*
X100311904Y42205716D02*
X100264288Y42110476D01*
D10*
X100311904Y42300952D02*
X100311904Y42205716D01*
D10*
X100264288Y42396192D02*
X100311904Y42300952D01*
D10*
X100121432Y42443808D02*
X100264288Y42396192D01*
D10*
X99930952Y42443808D02*
X100121432Y42443808D01*
D10*
X97733336Y25776190D02*
X97828568Y25823810D01*
D10*
X97638096Y25680952D02*
X97733336Y25776190D01*
D10*
X97590480Y25585714D02*
X97638096Y25680952D01*
D10*
X97542856Y25442858D02*
X97590480Y25585714D01*
D10*
X97542856Y25204762D02*
X97542856Y25442858D01*
D10*
X97590480Y25061904D02*
X97542856Y25204762D01*
D10*
X97638096Y24966666D02*
X97590480Y25061904D01*
D10*
X97733336Y24871428D02*
X97638096Y24966666D01*
D10*
X97828568Y24823810D02*
X97733336Y24871428D01*
D10*
X98019048Y24823810D02*
X97828568Y24823810D01*
D10*
X98114288Y24871428D02*
X98019048Y24823810D01*
D10*
X98209520Y24966666D02*
X98114288Y24871428D01*
D10*
X98257144Y25061904D02*
X98209520Y24966666D01*
D10*
X98304760Y25204762D02*
X98257144Y25061904D01*
D10*
X98304760Y25442858D02*
X98304760Y25204762D01*
D10*
X98257144Y25585714D02*
X98304760Y25442858D01*
D10*
X98209520Y25680952D02*
X98257144Y25585714D01*
D10*
X98114288Y25776190D02*
X98209520Y25680952D01*
D10*
X98019048Y25823810D02*
X98114288Y25776190D01*
D10*
X97828568Y25823810D02*
X98019048Y25823810D01*
D10*
X98257144Y24728572D02*
X97971432Y25014286D01*
D10*
X98828568Y25680952D02*
X98733336Y25633334D01*
D10*
X98971432Y25823810D02*
X98828568Y25680952D01*
D10*
X98971432Y24823810D02*
X98971432Y25823810D01*
D10*
X114569520Y31810952D02*
X114617144Y31715714D01*
D10*
X114474288Y31906190D02*
X114569520Y31810952D01*
D10*
X114379048Y31953810D02*
X114474288Y31906190D01*
D10*
X114188568Y31953810D02*
X114379048Y31953810D01*
D10*
X114093336Y31906190D02*
X114188568Y31953810D01*
D10*
X113998096Y31810952D02*
X114093336Y31906190D01*
D10*
X113950480Y31715714D02*
X113998096Y31810952D01*
D10*
X113902856Y31572858D02*
X113950480Y31715714D01*
D10*
X113902856Y31334762D02*
X113902856Y31572858D01*
D10*
X113950480Y31191904D02*
X113902856Y31334762D01*
D10*
X113998096Y31096666D02*
X113950480Y31191904D01*
D10*
X114093336Y31001428D02*
X113998096Y31096666D01*
D10*
X114188568Y30953810D02*
X114093336Y31001428D01*
D10*
X114379048Y30953810D02*
X114188568Y30953810D01*
D10*
X114474288Y31001428D02*
X114379048Y30953810D01*
D10*
X114569520Y31096666D02*
X114474288Y31001428D01*
D10*
X114617144Y31191904D02*
X114569520Y31096666D01*
D10*
X115521904Y31953810D02*
X114998096Y31953810D01*
D10*
X115236192Y31572858D02*
X115521904Y31953810D01*
D10*
X115379048Y31572858D02*
X115236192Y31572858D01*
D10*
X115474288Y31525238D02*
X115379048Y31572858D01*
D10*
X115521904Y31477620D02*
X115474288Y31525238D01*
D10*
X115569520Y31334762D02*
X115521904Y31477620D01*
D10*
X115569520Y31239524D02*
X115569520Y31334762D01*
D10*
X115521904Y31096666D02*
X115569520Y31239524D01*
D10*
X115426664Y31001428D02*
X115521904Y31096666D01*
D10*
X115283808Y30953810D02*
X115426664Y31001428D01*
D10*
X115140952Y30953810D02*
X115283808Y30953810D01*
D10*
X114998096Y31001428D02*
X115140952Y30953810D01*
D10*
X114950480Y31049048D02*
X114998096Y31001428D01*
D10*
X114902856Y31144286D02*
X114950480Y31049048D01*
D10*
X99419048Y31779524D02*
X99514288Y31827142D01*
D10*
X99323808Y31684286D02*
X99419048Y31779524D01*
D10*
X99276192Y31589048D02*
X99323808Y31684286D01*
D10*
X99276192Y31398572D02*
X99276192Y31589048D01*
D10*
X99323808Y31303334D02*
X99276192Y31398572D01*
D10*
X99419048Y31208096D02*
X99323808Y31303334D01*
D10*
X99514288Y31160476D02*
X99419048Y31208096D01*
D10*
X99657144Y31112858D02*
X99514288Y31160476D01*
D10*
X99895240Y31112858D02*
X99657144Y31112858D01*
D10*
X100038096Y31160476D02*
X99895240Y31112858D01*
D10*
X100133336Y31208096D02*
X100038096Y31160476D01*
D10*
X100228568Y31303334D02*
X100133336Y31208096D01*
D10*
X100276192Y31398572D02*
X100228568Y31303334D01*
D10*
X100276192Y31589048D02*
X100276192Y31398572D01*
D10*
X100228568Y31684286D02*
X100276192Y31589048D01*
D10*
X100133336Y31779524D02*
X100228568Y31684286D01*
D10*
X100038096Y31827142D02*
X100133336Y31779524D01*
D10*
X99419048Y32350952D02*
X99466664Y32255714D01*
D10*
X99276192Y32493810D02*
X99419048Y32350952D01*
D10*
X100276192Y32493810D02*
X99276192Y32493810D01*
D10*
X99323808Y33636668D02*
X99419048Y33684284D01*
D10*
X99276192Y33493810D02*
X99323808Y33636668D01*
D10*
X99276192Y33398572D02*
X99276192Y33493810D01*
D10*
X99323808Y33255714D02*
X99276192Y33398572D01*
D10*
X99466664Y33160476D02*
X99323808Y33255714D01*
D10*
X99704760Y33112856D02*
X99466664Y33160476D01*
D10*
X99942856Y33112856D02*
X99704760Y33112856D01*
D10*
X100133336Y33160476D02*
X99942856Y33112856D01*
D10*
X100228568Y33255714D02*
X100133336Y33160476D01*
D10*
X100276192Y33398572D02*
X100228568Y33255714D01*
D10*
X100276192Y33446190D02*
X100276192Y33398572D01*
D10*
X100228568Y33589048D02*
X100276192Y33446190D01*
D10*
X100133336Y33684284D02*
X100228568Y33589048D01*
D10*
X99990480Y33731904D02*
X100133336Y33684284D01*
D10*
X99942856Y33731904D02*
X99990480Y33731904D01*
D10*
X99800000Y33684284D02*
X99942856Y33731904D01*
D10*
X99704760Y33589048D02*
X99800000Y33684284D01*
D10*
X99657144Y33446190D02*
X99704760Y33589048D01*
D10*
X99657144Y33398572D02*
X99657144Y33446190D01*
D10*
X99704760Y33255714D02*
X99657144Y33398572D01*
D10*
X99800000Y33160476D02*
X99704760Y33255714D01*
D10*
X99942856Y33112856D02*
X99800000Y33160476D01*
D10*
X132659520Y55380952D02*
X132707144Y55285716D01*
D10*
X132564288Y55476192D02*
X132659520Y55380952D01*
D10*
X132469048Y55523808D02*
X132564288Y55476192D01*
D10*
X132278568Y55523808D02*
X132469048Y55523808D01*
D10*
X132183336Y55476192D02*
X132278568Y55523808D01*
D10*
X132088096Y55380952D02*
X132183336Y55476192D01*
D10*
X132040480Y55285716D02*
X132088096Y55380952D01*
D10*
X131992856Y55142856D02*
X132040480Y55285716D01*
D10*
X131992856Y54904760D02*
X131992856Y55142856D01*
D10*
X132040480Y54761904D02*
X131992856Y54904760D01*
D10*
X132088096Y54666668D02*
X132040480Y54761904D01*
D10*
X132183336Y54571428D02*
X132088096Y54666668D01*
D10*
X132278568Y54523808D02*
X132183336Y54571428D01*
D10*
X132469048Y54523808D02*
X132278568Y54523808D01*
D10*
X132564288Y54571428D02*
X132469048Y54523808D01*
D10*
X132659520Y54666668D02*
X132564288Y54571428D01*
D10*
X132707144Y54761904D02*
X132659520Y54666668D01*
D10*
X133230952Y55380952D02*
X133135712Y55333332D01*
D10*
X133373808Y55523808D02*
X133230952Y55380952D01*
D10*
X133373808Y54523808D02*
X133373808Y55523808D01*
D10*
X134040480Y55476192D02*
X134183336Y55523808D01*
D10*
X133992856Y55380952D02*
X134040480Y55476192D01*
D10*
X133992856Y55285716D02*
X133992856Y55380952D01*
D10*
X134040480Y55190476D02*
X133992856Y55285716D01*
D10*
X134135712Y55142856D02*
X134040480Y55190476D01*
D10*
X134326192Y55095240D02*
X134135712Y55142856D01*
D10*
X134469040Y55047620D02*
X134326192Y55095240D01*
D10*
X134564288Y54952380D02*
X134469040Y55047620D01*
D10*
X134611904Y54857144D02*
X134564288Y54952380D01*
D10*
X134611904Y54714284D02*
X134611904Y54857144D01*
D10*
X134564288Y54619048D02*
X134611904Y54714284D01*
D10*
X134516672Y54571428D02*
X134564288Y54619048D01*
D10*
X134373808Y54523808D02*
X134516672Y54571428D01*
D10*
X134183336Y54523808D02*
X134373808Y54523808D01*
D10*
X134040480Y54571428D02*
X134183336Y54523808D01*
D10*
X133992856Y54619048D02*
X134040480Y54571428D01*
D10*
X133945240Y54714284D02*
X133992856Y54619048D01*
D10*
X133945240Y54857144D02*
X133945240Y54714284D01*
D10*
X133992856Y54952380D02*
X133945240Y54857144D01*
D10*
X134088096Y55047620D02*
X133992856Y54952380D01*
D10*
X134230960Y55095240D02*
X134088096Y55047620D01*
D10*
X134421424Y55142856D02*
X134230960Y55095240D01*
D10*
X134516672Y55190476D02*
X134421424Y55142856D01*
D10*
X134564288Y55285716D02*
X134516672Y55190476D01*
D10*
X134564288Y55380952D02*
X134564288Y55285716D01*
D10*
X134516672Y55476192D02*
X134564288Y55380952D01*
D10*
X134373808Y55523808D02*
X134516672Y55476192D01*
D10*
X134183336Y55523808D02*
X134373808Y55523808D01*
D10*
X98748096Y39543808D02*
X98748096Y40543808D01*
D10*
X99176664Y40543808D02*
X98748096Y40543808D01*
D10*
X99319520Y40496192D02*
X99176664Y40543808D01*
D10*
X99367144Y40448572D02*
X99319520Y40496192D01*
D10*
X99414760Y40353332D02*
X99367144Y40448572D01*
D10*
X99414760Y40258096D02*
X99414760Y40353332D01*
D10*
X99367144Y40162856D02*
X99414760Y40258096D01*
D10*
X99319520Y40115240D02*
X99367144Y40162856D01*
D10*
X99176664Y40067620D02*
X99319520Y40115240D01*
D10*
X98748096Y40067620D02*
X99176664Y40067620D01*
D10*
X99414760Y39543808D02*
X99081432Y40067620D01*
D10*
X99890952Y39543808D02*
X100367144Y40543808D01*
D10*
X100367144Y40543808D02*
X99700480Y40543808D01*
D10*
X133433336Y37776192D02*
X133528568Y37823808D01*
D10*
X133338096Y37680952D02*
X133433336Y37776192D01*
D10*
X133290480Y37585716D02*
X133338096Y37680952D01*
D10*
X133242856Y37442856D02*
X133290480Y37585716D01*
D10*
X133242856Y37204760D02*
X133242856Y37442856D01*
D10*
X133290480Y37061904D02*
X133242856Y37204760D01*
D10*
X133338096Y36966668D02*
X133290480Y37061904D01*
D10*
X133433336Y36871428D02*
X133338096Y36966668D01*
D10*
X133528568Y36823808D02*
X133433336Y36871428D01*
D10*
X133719048Y36823808D02*
X133528568Y36823808D01*
D10*
X133814288Y36871428D02*
X133719048Y36823808D01*
D10*
X133909520Y36966668D02*
X133814288Y36871428D01*
D10*
X133957144Y37061904D02*
X133909520Y36966668D01*
D10*
X134004760Y37204760D02*
X133957144Y37061904D01*
D10*
X134004760Y37442856D02*
X134004760Y37204760D01*
D10*
X133957144Y37585716D02*
X134004760Y37442856D01*
D10*
X133909520Y37680952D02*
X133957144Y37585716D01*
D10*
X133814288Y37776192D02*
X133909520Y37680952D01*
D10*
X133719048Y37823808D02*
X133814288Y37776192D01*
D10*
X133528568Y37823808D02*
X133719048Y37823808D01*
D10*
X133957144Y36728572D02*
X133671432Y37014284D01*
D10*
X134909520Y37823808D02*
X134385712Y37823808D01*
D10*
X134623808Y37442856D02*
X134909520Y37823808D01*
D10*
X134766672Y37442856D02*
X134623808Y37442856D01*
D10*
X134861904Y37395240D02*
X134766672Y37442856D01*
D10*
X134909520Y37347620D02*
X134861904Y37395240D01*
D10*
X134957136Y37204760D02*
X134909520Y37347620D01*
D10*
X134957136Y37109524D02*
X134957136Y37204760D01*
D10*
X134909520Y36966668D02*
X134957136Y37109524D01*
D10*
X134814288Y36871428D02*
X134909520Y36966668D01*
D10*
X134671424Y36823808D02*
X134814288Y36871428D01*
D10*
X134528576Y36823808D02*
X134671424Y36823808D01*
D10*
X134385712Y36871428D02*
X134528576Y36823808D01*
D10*
X134338096Y36919048D02*
X134385712Y36871428D01*
D10*
X134290480Y37014284D02*
X134338096Y36919048D01*
D10*
X86288096Y43573808D02*
X86288096Y44573808D01*
D10*
X86716664Y44573808D02*
X86288096Y44573808D01*
D10*
X86859520Y44526192D02*
X86716664Y44573808D01*
D10*
X86907144Y44478572D02*
X86859520Y44526192D01*
D10*
X86954760Y44383332D02*
X86907144Y44478572D01*
D10*
X86954760Y44288096D02*
X86954760Y44383332D01*
D10*
X86907144Y44192856D02*
X86954760Y44288096D01*
D10*
X86859520Y44145240D02*
X86907144Y44192856D01*
D10*
X86716664Y44097620D02*
X86859520Y44145240D01*
D10*
X86288096Y44097620D02*
X86716664Y44097620D01*
D10*
X86954760Y43573808D02*
X86621432Y44097620D01*
D10*
X87811904Y44526192D02*
X87859520Y44430952D01*
D10*
X87669048Y44573808D02*
X87811904Y44526192D01*
D10*
X87573808Y44573808D02*
X87669048Y44573808D01*
D10*
X87430952Y44526192D02*
X87573808Y44573808D01*
D10*
X87335712Y44383332D02*
X87430952Y44526192D01*
D10*
X87288096Y44145240D02*
X87335712Y44383332D01*
D10*
X87288096Y43907144D02*
X87288096Y44145240D01*
D10*
X87335712Y43716668D02*
X87288096Y43907144D01*
D10*
X87430952Y43621428D02*
X87335712Y43716668D01*
D10*
X87573808Y43573808D02*
X87430952Y43621428D01*
D10*
X87621432Y43573808D02*
X87573808Y43573808D01*
D10*
X87764288Y43621428D02*
X87621432Y43573808D01*
D10*
X87859520Y43716668D02*
X87764288Y43621428D01*
D10*
X87907144Y43859524D02*
X87859520Y43716668D01*
D10*
X87907144Y43907144D02*
X87907144Y43859524D01*
D10*
X87859520Y44050000D02*
X87907144Y43907144D01*
D10*
X87764288Y44145240D02*
X87859520Y44050000D01*
D10*
X87621432Y44192856D02*
X87764288Y44145240D01*
D10*
X87573808Y44192856D02*
X87621432Y44192856D01*
D10*
X87430952Y44145240D02*
X87573808Y44192856D01*
D10*
X87335712Y44050000D02*
X87430952Y44145240D01*
D10*
X87288096Y43907144D02*
X87335712Y44050000D01*
D10*
X95076192Y34208096D02*
X94076192Y34208096D01*
D10*
X94076192Y34636668D02*
X94076192Y34208096D01*
D10*
X94123808Y34779524D02*
X94076192Y34636668D01*
D10*
X94171432Y34827144D02*
X94123808Y34779524D01*
D10*
X94266664Y34874760D02*
X94171432Y34827144D01*
D10*
X94361904Y34874760D02*
X94266664Y34874760D01*
D10*
X94457144Y34827144D02*
X94361904Y34874760D01*
D10*
X94504760Y34779524D02*
X94457144Y34827144D01*
D10*
X94552384Y34636668D02*
X94504760Y34779524D01*
D10*
X94552384Y34208096D02*
X94552384Y34636668D01*
D10*
X95076192Y34874760D02*
X94552384Y34541428D01*
D10*
X94552384Y35731904D02*
X94409520Y35779524D01*
D10*
X94647616Y35636668D02*
X94552384Y35731904D01*
D10*
X94695240Y35493808D02*
X94647616Y35636668D01*
D10*
X94695240Y35446192D02*
X94695240Y35493808D01*
D10*
X94647616Y35303332D02*
X94695240Y35446192D01*
D10*
X94552384Y35208096D02*
X94647616Y35303332D01*
D10*
X94409520Y35160476D02*
X94552384Y35208096D01*
D10*
X94361904Y35160476D02*
X94409520Y35160476D01*
D10*
X94219048Y35208096D02*
X94361904Y35160476D01*
D10*
X94123808Y35303332D02*
X94219048Y35208096D01*
D10*
X94076192Y35446192D02*
X94123808Y35303332D01*
D10*
X94076192Y35493808D02*
X94076192Y35446192D01*
D10*
X94123808Y35636668D02*
X94076192Y35493808D01*
D10*
X94219048Y35731904D02*
X94123808Y35636668D01*
D10*
X94409520Y35779524D02*
X94219048Y35731904D01*
D10*
X94647616Y35779524D02*
X94409520Y35779524D01*
D10*
X94885712Y35731904D02*
X94647616Y35779524D01*
D10*
X95028568Y35636668D02*
X94885712Y35731904D01*
D10*
X95076192Y35493808D02*
X95028568Y35636668D01*
D10*
X95076192Y35398572D02*
X95076192Y35493808D01*
D10*
X95028568Y35255716D02*
X95076192Y35398572D01*
D10*
X94933336Y35208096D02*
X95028568Y35255716D01*
D10*
X90223808Y40353332D02*
X90176192Y40448572D01*
D10*
X90319048Y40258096D02*
X90223808Y40353332D01*
D10*
X90414288Y40210476D02*
X90319048Y40258096D01*
D10*
X90557144Y40162856D02*
X90414288Y40210476D01*
D10*
X90795240Y40162856D02*
X90557144Y40162856D01*
D10*
X90938096Y40210476D02*
X90795240Y40162856D01*
D10*
X91033336Y40258096D02*
X90938096Y40210476D01*
D10*
X91128568Y40353332D02*
X91033336Y40258096D01*
D10*
X91176192Y40448572D02*
X91128568Y40353332D01*
D10*
X91176192Y40639048D02*
X91176192Y40448572D01*
D10*
X91128568Y40734284D02*
X91176192Y40639048D01*
D10*
X91033336Y40829524D02*
X91128568Y40734284D01*
D10*
X90938096Y40877144D02*
X91033336Y40829524D01*
D10*
X90795240Y40924760D02*
X90938096Y40877144D01*
D10*
X90557144Y40924760D02*
X90795240Y40924760D01*
D10*
X90414288Y40877144D02*
X90557144Y40924760D01*
D10*
X90319048Y40829524D02*
X90414288Y40877144D01*
D10*
X90223808Y40734284D02*
X90319048Y40829524D01*
D10*
X90176192Y40639048D02*
X90223808Y40734284D01*
D10*
X90176192Y40448572D02*
X90176192Y40639048D01*
D10*
X91271432Y40877144D02*
X90985712Y40591428D01*
D10*
X90366664Y41258096D02*
X90414288Y41258096D01*
D10*
X90271432Y41305716D02*
X90366664Y41258096D01*
D10*
X90223808Y41353332D02*
X90271432Y41305716D01*
D10*
X90176192Y41448572D02*
X90223808Y41353332D01*
D10*
X90176192Y41639048D02*
X90176192Y41448572D01*
D10*
X90223808Y41734284D02*
X90176192Y41639048D01*
D10*
X90271432Y41781904D02*
X90223808Y41734284D01*
D10*
X90366664Y41829524D02*
X90271432Y41781904D01*
D10*
X90461904Y41829524D02*
X90366664Y41829524D01*
D10*
X90557144Y41781904D02*
X90461904Y41829524D01*
D10*
X90700000Y41686668D02*
X90557144Y41781904D01*
D10*
X91176192Y41210476D02*
X90700000Y41686668D01*
D10*
X91176192Y41877144D02*
X91176192Y41210476D01*
D10*
X129104520Y26465952D02*
X129152144Y26370714D01*
D10*
X129009288Y26561190D02*
X129104520Y26465952D01*
D10*
X128914048Y26608810D02*
X129009288Y26561190D01*
D10*
X128723568Y26608810D02*
X128914048Y26608810D01*
D10*
X128628336Y26561190D02*
X128723568Y26608810D01*
D10*
X128533096Y26465952D02*
X128628336Y26561190D01*
D10*
X128485480Y26370714D02*
X128533096Y26465952D01*
D10*
X128437856Y26227858D02*
X128485480Y26370714D01*
D10*
X128437856Y25989762D02*
X128437856Y26227858D01*
D10*
X128485480Y25846904D02*
X128437856Y25989762D01*
D10*
X128533096Y25751666D02*
X128485480Y25846904D01*
D10*
X128628336Y25656428D02*
X128533096Y25751666D01*
D10*
X128723568Y25608810D02*
X128628336Y25656428D01*
D10*
X128914048Y25608810D02*
X128723568Y25608810D01*
D10*
X129009288Y25656428D02*
X128914048Y25608810D01*
D10*
X129104520Y25751666D02*
X129009288Y25656428D01*
D10*
X129152144Y25846904D02*
X129104520Y25751666D01*
D10*
X129533096Y26608810D02*
X130009288Y26608810D01*
D10*
X129485480Y26180238D02*
X129533096Y26608810D01*
D10*
X129533096Y26227858D02*
X129485480Y26180238D01*
D10*
X129675952Y26275476D02*
X129533096Y26227858D01*
D10*
X129818808Y26275476D02*
X129675952Y26275476D01*
D10*
X129961664Y26227858D02*
X129818808Y26275476D01*
D10*
X130056904Y26132620D02*
X129961664Y26227858D01*
D10*
X130104520Y25989762D02*
X130056904Y26132620D01*
D10*
X130104520Y25894524D02*
X130104520Y25989762D01*
D10*
X130056904Y25751666D02*
X130104520Y25894524D01*
D10*
X129961664Y25656428D02*
X130056904Y25751666D01*
D10*
X129818808Y25608810D02*
X129961664Y25656428D01*
D10*
X129675952Y25608810D02*
X129818808Y25608810D01*
D10*
X129533096Y25656428D02*
X129675952Y25608810D01*
D10*
X129485480Y25704048D02*
X129533096Y25656428D01*
D10*
X129437856Y25799286D02*
X129485480Y25704048D01*
D10*
X126609520Y56180952D02*
X126657144Y56085716D01*
D10*
X126514288Y56276192D02*
X126609520Y56180952D01*
D10*
X126419048Y56323808D02*
X126514288Y56276192D01*
D10*
X126228568Y56323808D02*
X126419048Y56323808D01*
D10*
X126133336Y56276192D02*
X126228568Y56323808D01*
D10*
X126038096Y56180952D02*
X126133336Y56276192D01*
D10*
X125990480Y56085716D02*
X126038096Y56180952D01*
D10*
X125942856Y55942856D02*
X125990480Y56085716D01*
D10*
X125942856Y55704760D02*
X125942856Y55942856D01*
D10*
X125990480Y55561904D02*
X125942856Y55704760D01*
D10*
X126038096Y55466668D02*
X125990480Y55561904D01*
D10*
X126133336Y55371428D02*
X126038096Y55466668D01*
D10*
X126228568Y55323808D02*
X126133336Y55371428D01*
D10*
X126419048Y55323808D02*
X126228568Y55323808D01*
D10*
X126514288Y55371428D02*
X126419048Y55323808D01*
D10*
X126609520Y55466668D02*
X126514288Y55371428D01*
D10*
X126657144Y55561904D02*
X126609520Y55466668D01*
D10*
X127180952Y56180952D02*
X127085712Y56133332D01*
D10*
X127323808Y56323808D02*
X127180952Y56180952D01*
D10*
X127323808Y55323808D02*
X127323808Y56323808D01*
D10*
X122920480Y18771810D02*
X122920480Y19771810D01*
D10*
X123349048Y19771810D02*
X122920480Y19771810D01*
D10*
X123491904Y19724190D02*
X123349048Y19771810D01*
D10*
X123539520Y19676572D02*
X123491904Y19724190D01*
D10*
X123587144Y19581334D02*
X123539520Y19676572D01*
D10*
X123587144Y19486096D02*
X123587144Y19581334D01*
D10*
X123539520Y19390858D02*
X123587144Y19486096D01*
D10*
X123491904Y19343238D02*
X123539520Y19390858D01*
D10*
X123349048Y19295620D02*
X123491904Y19343238D01*
D10*
X123349048Y19295620D02*
X122920480Y19295620D01*
D10*
X123491904Y19248000D02*
X123349048Y19295620D01*
D10*
X123539520Y19200380D02*
X123491904Y19248000D01*
D10*
X123587144Y19105142D02*
X123539520Y19200380D01*
D10*
X123587144Y18962286D02*
X123587144Y19105142D01*
D10*
X123539520Y18867048D02*
X123587144Y18962286D01*
D10*
X123491904Y18819428D02*
X123539520Y18867048D01*
D10*
X123349048Y18771810D02*
X123491904Y18819428D01*
D10*
X122920480Y18771810D02*
X123349048Y18771810D01*
D10*
X123920480Y18771810D02*
X123920480Y19771810D01*
D10*
X124349048Y19771810D02*
X123920480Y19771810D01*
D10*
X124491904Y19724190D02*
X124349048Y19771810D01*
D10*
X124539520Y19676572D02*
X124491904Y19724190D01*
D10*
X124587144Y19581334D02*
X124539520Y19676572D01*
D10*
X124587144Y19486096D02*
X124587144Y19581334D01*
D10*
X124539520Y19390858D02*
X124587144Y19486096D01*
D10*
X124491904Y19343238D02*
X124539520Y19390858D01*
D10*
X124349048Y19295620D02*
X124491904Y19343238D01*
D10*
X123920480Y19295620D02*
X124349048Y19295620D01*
D10*
X124587144Y18771810D02*
X124253808Y19295620D01*
D10*
X124920480Y18771810D02*
X124920480Y19771810D01*
D10*
X125920480Y19628952D02*
X125968096Y19533714D01*
D10*
X125825240Y19724190D02*
X125920480Y19628952D01*
D10*
X125730000Y19771810D02*
X125825240Y19724190D01*
D10*
X125539520Y19771810D02*
X125730000Y19771810D01*
D10*
X125444288Y19724190D02*
X125539520Y19771810D01*
D10*
X125349048Y19628952D02*
X125444288Y19724190D01*
D10*
X125301432Y19533714D02*
X125349048Y19628952D01*
D10*
X125253808Y19390858D02*
X125301432Y19533714D01*
D10*
X125253808Y19152762D02*
X125253808Y19390858D01*
D10*
X125301432Y19009904D02*
X125253808Y19152762D01*
D10*
X125349048Y18914666D02*
X125301432Y19009904D01*
D10*
X125444288Y18819428D02*
X125349048Y18914666D01*
D10*
X125539520Y18771810D02*
X125444288Y18819428D01*
D10*
X125730000Y18771810D02*
X125539520Y18771810D01*
D10*
X125825240Y18819428D02*
X125730000Y18771810D01*
D10*
X125920480Y18914666D02*
X125825240Y18819428D01*
D10*
X125968096Y19009904D02*
X125920480Y18914666D01*
D10*
X125968096Y19152762D02*
X125968096Y19009904D01*
D10*
X125968096Y19152762D02*
X125730000Y19152762D01*
D10*
X126301432Y18771810D02*
X126301432Y19771810D01*
D10*
X126968096Y18771810D02*
X126968096Y19771810D01*
D10*
X126968096Y19295620D02*
X126301432Y19295620D01*
D10*
X127539520Y18771810D02*
X127539520Y19771810D01*
D10*
X127872856Y19771810D02*
X127206192Y19771810D01*
D10*
X111190480Y16523810D02*
X111190480Y17523810D01*
D10*
X111619048Y17523810D02*
X111190480Y17523810D01*
D10*
X111761904Y17476190D02*
X111619048Y17523810D01*
D10*
X111809520Y17428572D02*
X111761904Y17476190D01*
D10*
X111857144Y17333334D02*
X111809520Y17428572D01*
D10*
X111857144Y17238096D02*
X111857144Y17333334D01*
D10*
X111809520Y17142858D02*
X111857144Y17238096D01*
D10*
X111761904Y17095238D02*
X111809520Y17142858D01*
D10*
X111619048Y17047620D02*
X111761904Y17095238D01*
D10*
X111190480Y17047620D02*
X111619048Y17047620D01*
D10*
X111857144Y16523810D02*
X111523808Y17047620D01*
D10*
X112142856Y16857142D02*
X112619048Y17523810D01*
D10*
X112857144Y16857142D02*
X112142856Y16857142D01*
D10*
X112619048Y16523810D02*
X112619048Y17523810D01*
D10*
X86288096Y46473808D02*
X86288096Y47473808D01*
D10*
X86716664Y47473808D02*
X86288096Y47473808D01*
D10*
X86859520Y47426192D02*
X86716664Y47473808D01*
D10*
X86907144Y47378572D02*
X86859520Y47426192D01*
D10*
X86954760Y47283332D02*
X86907144Y47378572D01*
D10*
X86954760Y47188096D02*
X86954760Y47283332D01*
D10*
X86907144Y47092856D02*
X86954760Y47188096D01*
D10*
X86859520Y47045240D02*
X86907144Y47092856D01*
D10*
X86716664Y46997620D02*
X86859520Y47045240D01*
D10*
X86288096Y46997620D02*
X86716664Y46997620D01*
D10*
X86954760Y46473808D02*
X86621432Y46997620D01*
D10*
X87335712Y47473808D02*
X87811904Y47473808D01*
D10*
X87288096Y47045240D02*
X87335712Y47473808D01*
D10*
X87335712Y47092856D02*
X87288096Y47045240D01*
D10*
X87478568Y47140476D02*
X87335712Y47092856D01*
D10*
X87621432Y47140476D02*
X87478568Y47140476D01*
D10*
X87764288Y47092856D02*
X87621432Y47140476D01*
D10*
X87859520Y46997620D02*
X87764288Y47092856D01*
D10*
X87907144Y46854760D02*
X87859520Y46997620D01*
D10*
X87907144Y46759524D02*
X87907144Y46854760D01*
D10*
X87859520Y46616668D02*
X87907144Y46759524D01*
D10*
X87764288Y46521428D02*
X87859520Y46616668D01*
D10*
X87621432Y46473808D02*
X87764288Y46521428D01*
D10*
X87478568Y46473808D02*
X87621432Y46473808D01*
D10*
X87335712Y46521428D02*
X87478568Y46473808D01*
D10*
X87288096Y46569048D02*
X87335712Y46521428D01*
D10*
X87240480Y46664284D02*
X87288096Y46569048D01*
D10*
X104376192Y22690476D02*
X103376192Y22690476D01*
D10*
X103376192Y23119048D02*
X103376192Y22690476D01*
D10*
X103423808Y23261904D02*
X103376192Y23119048D01*
D10*
X103471432Y23309524D02*
X103423808Y23261904D01*
D10*
X103566664Y23357142D02*
X103471432Y23309524D01*
D10*
X103661904Y23357142D02*
X103566664Y23357142D01*
D10*
X103757144Y23309524D02*
X103661904Y23357142D01*
D10*
X103804760Y23261904D02*
X103757144Y23309524D01*
D10*
X103852384Y23119048D02*
X103804760Y23261904D01*
D10*
X103852384Y22690476D02*
X103852384Y23119048D01*
D10*
X104376192Y23357142D02*
X103852384Y23023810D01*
D10*
X103566664Y23690476D02*
X103614288Y23690476D01*
D10*
X103471432Y23738096D02*
X103566664Y23690476D01*
D10*
X103423808Y23785714D02*
X103471432Y23738096D01*
D10*
X103376192Y23880952D02*
X103423808Y23785714D01*
D10*
X103376192Y24071428D02*
X103376192Y23880952D01*
D10*
X103423808Y24166666D02*
X103376192Y24071428D01*
D10*
X103471432Y24214286D02*
X103423808Y24166666D01*
D10*
X103566664Y24261904D02*
X103471432Y24214286D01*
D10*
X103661904Y24261904D02*
X103566664Y24261904D01*
D10*
X103757144Y24214286D02*
X103661904Y24261904D01*
D10*
X103900000Y24119048D02*
X103757144Y24214286D01*
D10*
X104376192Y23642858D02*
X103900000Y24119048D01*
D10*
X104376192Y24309524D02*
X104376192Y23642858D01*
D10*
X113309520Y25480952D02*
X113357144Y25385714D01*
D10*
X113214288Y25576190D02*
X113309520Y25480952D01*
D10*
X113119048Y25623810D02*
X113214288Y25576190D01*
D10*
X112928568Y25623810D02*
X113119048Y25623810D01*
D10*
X112833336Y25576190D02*
X112928568Y25623810D01*
D10*
X112738096Y25480952D02*
X112833336Y25576190D01*
D10*
X112690480Y25385714D02*
X112738096Y25480952D01*
D10*
X112642856Y25242858D02*
X112690480Y25385714D01*
D10*
X112642856Y25004762D02*
X112642856Y25242858D01*
D10*
X112690480Y24861904D02*
X112642856Y25004762D01*
D10*
X112738096Y24766666D02*
X112690480Y24861904D01*
D10*
X112833336Y24671428D02*
X112738096Y24766666D01*
D10*
X112928568Y24623810D02*
X112833336Y24671428D01*
D10*
X113119048Y24623810D02*
X112928568Y24623810D01*
D10*
X113214288Y24671428D02*
X113119048Y24623810D01*
D10*
X113309520Y24766666D02*
X113214288Y24671428D01*
D10*
X113357144Y24861904D02*
X113309520Y24766666D01*
D10*
X113738096Y25576190D02*
X113880952Y25623810D01*
D10*
X113690480Y25480952D02*
X113738096Y25576190D01*
D10*
X113690480Y25385714D02*
X113690480Y25480952D01*
D10*
X113738096Y25290476D02*
X113690480Y25385714D01*
D10*
X113833336Y25242858D02*
X113738096Y25290476D01*
D10*
X114023808Y25195238D02*
X113833336Y25242858D01*
D10*
X114166664Y25147620D02*
X114023808Y25195238D01*
D10*
X114261904Y25052380D02*
X114166664Y25147620D01*
D10*
X114309520Y24957142D02*
X114261904Y25052380D01*
D10*
X114309520Y24814286D02*
X114309520Y24957142D01*
D10*
X114261904Y24719048D02*
X114309520Y24814286D01*
D10*
X114214288Y24671428D02*
X114261904Y24719048D01*
D10*
X114071432Y24623810D02*
X114214288Y24671428D01*
D10*
X113880952Y24623810D02*
X114071432Y24623810D01*
D10*
X113738096Y24671428D02*
X113880952Y24623810D01*
D10*
X113690480Y24719048D02*
X113738096Y24671428D01*
D10*
X113642856Y24814286D02*
X113690480Y24719048D01*
D10*
X113642856Y24957142D02*
X113642856Y24814286D01*
D10*
X113690480Y25052380D02*
X113642856Y24957142D01*
D10*
X113785712Y25147620D02*
X113690480Y25052380D01*
D10*
X113928568Y25195238D02*
X113785712Y25147620D01*
D10*
X114119048Y25242858D02*
X113928568Y25195238D01*
D10*
X114214288Y25290476D02*
X114119048Y25242858D01*
D10*
X114261904Y25385714D02*
X114214288Y25290476D01*
D10*
X114261904Y25480952D02*
X114261904Y25385714D01*
D10*
X114214288Y25576190D02*
X114261904Y25480952D01*
D10*
X114071432Y25623810D02*
X114214288Y25576190D01*
D10*
X113880952Y25623810D02*
X114071432Y25623810D01*
D10*
X118766192Y36758096D02*
X117766192Y36758096D01*
D10*
X117766192Y37186668D02*
X117766192Y36758096D01*
D10*
X117813808Y37329524D02*
X117766192Y37186668D01*
D10*
X117861432Y37377144D02*
X117813808Y37329524D01*
D10*
X117956664Y37424760D02*
X117861432Y37377144D01*
D10*
X118051904Y37424760D02*
X117956664Y37424760D01*
D10*
X118147144Y37377144D02*
X118051904Y37424760D01*
D10*
X118194760Y37329524D02*
X118147144Y37377144D01*
D10*
X118242384Y37186668D02*
X118194760Y37329524D01*
D10*
X118242384Y36758096D02*
X118242384Y37186668D01*
D10*
X118766192Y37424760D02*
X118242384Y37091428D01*
D10*
X117909048Y37948572D02*
X117956664Y37853332D01*
D10*
X117766192Y38091428D02*
X117909048Y37948572D01*
D10*
X118766192Y38091428D02*
X117766192Y38091428D01*
D10*
X118766192Y45940476D02*
X117766192Y45940476D01*
D10*
X117766192Y46273808D02*
X117766192Y45940476D01*
D10*
X117813808Y46416668D02*
X117766192Y46273808D01*
D10*
X117909048Y46511904D02*
X117813808Y46416668D01*
D10*
X118004288Y46559524D02*
X117909048Y46511904D01*
D10*
X118147144Y46607144D02*
X118004288Y46559524D01*
D10*
X118385240Y46607144D02*
X118147144Y46607144D01*
D10*
X118528096Y46559524D02*
X118385240Y46607144D01*
D10*
X118623336Y46511904D02*
X118528096Y46559524D01*
D10*
X118718568Y46416668D02*
X118623336Y46511904D01*
D10*
X118766192Y46273808D02*
X118718568Y46416668D01*
D10*
X118766192Y45940476D02*
X118766192Y46273808D01*
D10*
X117909048Y47130952D02*
X117956664Y47035716D01*
D10*
X117766192Y47273808D02*
X117909048Y47130952D01*
D10*
X118766192Y47273808D02*
X117766192Y47273808D01*
D10*
X107706192Y35890476D02*
X106706192Y35890476D01*
D10*
X106849048Y36890476D02*
X106944288Y36938096D01*
D10*
X106753808Y36795240D02*
X106849048Y36890476D01*
D10*
X106706192Y36700000D02*
X106753808Y36795240D01*
D10*
X106706192Y36509524D02*
X106706192Y36700000D01*
D10*
X106753808Y36414284D02*
X106706192Y36509524D01*
D10*
X106849048Y36319048D02*
X106753808Y36414284D01*
D10*
X106944288Y36271428D02*
X106849048Y36319048D01*
D10*
X107087144Y36223808D02*
X106944288Y36271428D01*
D10*
X107325240Y36223808D02*
X107087144Y36223808D01*
D10*
X107468096Y36271428D02*
X107325240Y36223808D01*
D10*
X107563336Y36319048D02*
X107468096Y36271428D01*
D10*
X107658568Y36414284D02*
X107563336Y36319048D01*
D10*
X107706192Y36509524D02*
X107658568Y36414284D01*
D10*
X107706192Y36700000D02*
X107706192Y36509524D01*
D10*
X107658568Y36795240D02*
X107706192Y36700000D01*
D10*
X107563336Y36890476D02*
X107658568Y36795240D01*
D10*
X107468096Y36938096D02*
X107563336Y36890476D01*
D10*
X106849048Y37461904D02*
X106896664Y37366668D01*
D10*
X106706192Y37604760D02*
X106849048Y37461904D01*
D10*
X107706192Y37604760D02*
X106706192Y37604760D01*
D10*
X122933336Y76926192D02*
X123028568Y76973808D01*
D10*
X122838096Y76830952D02*
X122933336Y76926192D01*
D10*
X122790480Y76735712D02*
X122838096Y76830952D01*
D10*
X122742856Y76592856D02*
X122790480Y76735712D01*
D10*
X122742856Y76354760D02*
X122742856Y76592856D01*
D10*
X122790480Y76211904D02*
X122742856Y76354760D01*
D10*
X122838096Y76116664D02*
X122790480Y76211904D01*
D10*
X122933336Y76021432D02*
X122838096Y76116664D01*
D10*
X123028568Y75973808D02*
X122933336Y76021432D01*
D10*
X123219048Y75973808D02*
X123028568Y75973808D01*
D10*
X123314288Y76021432D02*
X123219048Y75973808D01*
D10*
X123409520Y76116664D02*
X123314288Y76021432D01*
D10*
X123457144Y76211904D02*
X123409520Y76116664D01*
D10*
X123504760Y76354760D02*
X123457144Y76211904D01*
D10*
X123504760Y76592856D02*
X123504760Y76354760D01*
D10*
X123457144Y76735712D02*
X123504760Y76592856D01*
D10*
X123409520Y76830952D02*
X123457144Y76735712D01*
D10*
X123314288Y76926192D02*
X123409520Y76830952D01*
D10*
X123219048Y76973808D02*
X123314288Y76926192D01*
D10*
X123028568Y76973808D02*
X123219048Y76973808D01*
D10*
X123838096Y76259520D02*
X123838096Y76973808D01*
D10*
X123885712Y76116664D02*
X123838096Y76259520D01*
D10*
X123980952Y76021432D02*
X123885712Y76116664D01*
D10*
X124123808Y75973808D02*
X123980952Y76021432D01*
D10*
X124219048Y75973808D02*
X124123808Y75973808D01*
D10*
X124361904Y76021432D02*
X124219048Y75973808D01*
D10*
X124457144Y76116664D02*
X124361904Y76021432D01*
D10*
X124504760Y76259520D02*
X124457144Y76116664D01*
D10*
X124504760Y76973808D02*
X124504760Y76259520D01*
D10*
X125076192Y75973808D02*
X125076192Y76973808D01*
D10*
X125409520Y76973808D02*
X124742856Y76973808D01*
D10*
X125647616Y75973808D02*
X125647616Y76973808D01*
D10*
X126076192Y76973808D02*
X125647616Y76973808D01*
D10*
X126219048Y76926192D02*
X126076192Y76973808D01*
D10*
X126266664Y76878568D02*
X126219048Y76926192D01*
D10*
X126314288Y76783336D02*
X126266664Y76878568D01*
D10*
X126314288Y76640480D02*
X126314288Y76783336D01*
D10*
X126266664Y76545240D02*
X126314288Y76640480D01*
D10*
X126219048Y76497616D02*
X126266664Y76545240D01*
D10*
X126076192Y76450000D02*
X126219048Y76497616D01*
D10*
X125647616Y76450000D02*
X126076192Y76450000D01*
D10*
X126647616Y76259520D02*
X126647616Y76973808D01*
D10*
X126695240Y76116664D02*
X126647616Y76259520D01*
D10*
X126790480Y76021432D02*
X126695240Y76116664D01*
D10*
X126933336Y75973808D02*
X126790480Y76021432D01*
D10*
X127028568Y75973808D02*
X126933336Y75973808D01*
D10*
X127171432Y76021432D02*
X127028568Y75973808D01*
D10*
X127266664Y76116664D02*
X127171432Y76021432D01*
D10*
X127314288Y76259520D02*
X127266664Y76116664D01*
D10*
X127314288Y76973808D02*
X127314288Y76259520D01*
D10*
X127885712Y75973808D02*
X127885712Y76973808D01*
D10*
X128219048Y76973808D02*
X127552384Y76973808D01*
D10*
X101590480Y19409524D02*
X101590480Y20123810D01*
D10*
X101638096Y19266666D02*
X101590480Y19409524D01*
D10*
X101733336Y19171428D02*
X101638096Y19266666D01*
D10*
X101876192Y19123810D02*
X101733336Y19171428D01*
D10*
X101971432Y19123810D02*
X101876192Y19123810D01*
D10*
X102114288Y19171428D02*
X101971432Y19123810D01*
D10*
X102209520Y19266666D02*
X102114288Y19171428D01*
D10*
X102257144Y19409524D02*
X102209520Y19266666D01*
D10*
X102257144Y20123810D02*
X102257144Y19409524D01*
D10*
X102828568Y19980952D02*
X102733336Y19933334D01*
D10*
X102971432Y20123810D02*
X102828568Y19980952D01*
D10*
X102971432Y19123810D02*
X102971432Y20123810D01*
D10*
X126609520Y46180952D02*
X126657144Y46085716D01*
D10*
X126514288Y46276192D02*
X126609520Y46180952D01*
D10*
X126419048Y46323808D02*
X126514288Y46276192D01*
D10*
X126228568Y46323808D02*
X126419048Y46323808D01*
D10*
X126133336Y46276192D02*
X126228568Y46323808D01*
D10*
X126038096Y46180952D02*
X126133336Y46276192D01*
D10*
X125990480Y46085716D02*
X126038096Y46180952D01*
D10*
X125942856Y45942856D02*
X125990480Y46085716D01*
D10*
X125942856Y45704760D02*
X125942856Y45942856D01*
D10*
X125990480Y45561904D02*
X125942856Y45704760D01*
D10*
X126038096Y45466668D02*
X125990480Y45561904D01*
D10*
X126133336Y45371428D02*
X126038096Y45466668D01*
D10*
X126228568Y45323808D02*
X126133336Y45371428D01*
D10*
X126419048Y45323808D02*
X126228568Y45323808D01*
D10*
X126514288Y45371428D02*
X126419048Y45323808D01*
D10*
X126609520Y45466668D02*
X126514288Y45371428D01*
D10*
X126657144Y45561904D02*
X126609520Y45466668D01*
D10*
X126990480Y46133332D02*
X126990480Y46085716D01*
D10*
X127038096Y46228572D02*
X126990480Y46133332D01*
D10*
X127085712Y46276192D02*
X127038096Y46228572D01*
D10*
X127180952Y46323808D02*
X127085712Y46276192D01*
D10*
X127371432Y46323808D02*
X127180952Y46323808D01*
D10*
X127466664Y46276192D02*
X127371432Y46323808D01*
D10*
X127514288Y46228572D02*
X127466664Y46276192D01*
D10*
X127561904Y46133332D02*
X127514288Y46228572D01*
D10*
X127561904Y46038096D02*
X127561904Y46133332D01*
D10*
X127514288Y45942856D02*
X127561904Y46038096D01*
D10*
X127419048Y45800000D02*
X127514288Y45942856D01*
D10*
X126942856Y45323808D02*
X127419048Y45800000D01*
D10*
X127609520Y45323808D02*
X126942856Y45323808D01*
D10*
X95031192Y19310476D02*
X94031192Y19310476D01*
D10*
X94031192Y19739048D02*
X94031192Y19310476D01*
D10*
X94078808Y19881904D02*
X94031192Y19739048D01*
D10*
X94126432Y19929524D02*
X94078808Y19881904D01*
D10*
X94221664Y19977142D02*
X94126432Y19929524D01*
D10*
X94316904Y19977142D02*
X94221664Y19977142D01*
D10*
X94412144Y19929524D02*
X94316904Y19977142D01*
D10*
X94459760Y19881904D02*
X94412144Y19929524D01*
D10*
X94507384Y19739048D02*
X94459760Y19881904D01*
D10*
X94507384Y19310476D02*
X94507384Y19739048D01*
D10*
X95031192Y19977142D02*
X94507384Y19643810D01*
D10*
X94031192Y20881904D02*
X94031192Y20358096D01*
D10*
X94412144Y20596190D02*
X94031192Y20881904D01*
D10*
X94412144Y20739048D02*
X94412144Y20596190D01*
D10*
X94459760Y20834286D02*
X94412144Y20739048D01*
D10*
X94507384Y20881904D02*
X94459760Y20834286D01*
D10*
X94650240Y20929524D02*
X94507384Y20881904D01*
D10*
X94745480Y20929524D02*
X94650240Y20929524D01*
D10*
X94888336Y20881904D02*
X94745480Y20929524D01*
D10*
X94983568Y20786666D02*
X94888336Y20881904D01*
D10*
X95031192Y20643810D02*
X94983568Y20786666D01*
D10*
X95031192Y20500952D02*
X95031192Y20643810D01*
D10*
X94983568Y20358096D02*
X95031192Y20500952D01*
D10*
X94935952Y20310476D02*
X94983568Y20358096D01*
D10*
X94840712Y20262858D02*
X94935952Y20310476D01*
D10*
X137526192Y36340476D02*
X136526192Y36340476D01*
D10*
X136526192Y36769048D02*
X136526192Y36340476D01*
D10*
X136573808Y36911904D02*
X136526192Y36769048D01*
D10*
X136621424Y36959524D02*
X136573808Y36911904D01*
D10*
X136716672Y37007144D02*
X136621424Y36959524D01*
D10*
X136811904Y37007144D02*
X136716672Y37007144D01*
D10*
X136907136Y36959524D02*
X136811904Y37007144D01*
D10*
X136954768Y36911904D02*
X136907136Y36959524D01*
D10*
X137002384Y36769048D02*
X136954768Y36911904D01*
D10*
X137002384Y36340476D02*
X137002384Y36769048D01*
D10*
X137526192Y37007144D02*
X137002384Y36673808D01*
D10*
X136669040Y37530952D02*
X136716672Y37435716D01*
D10*
X136526192Y37673808D02*
X136669040Y37530952D01*
D10*
X137526192Y37673808D02*
X136526192Y37673808D01*
D10*
X136573808Y38388096D02*
X136526192Y38530952D01*
D10*
X136716672Y38292856D02*
X136573808Y38388096D01*
D10*
X136954768Y38245240D02*
X136716672Y38292856D01*
D10*
X137097616Y38245240D02*
X136954768Y38245240D01*
D10*
X137335712Y38292856D02*
X137097616Y38245240D01*
D10*
X137478576Y38388096D02*
X137335712Y38292856D01*
D10*
X137526192Y38530952D02*
X137478576Y38388096D01*
D10*
X137526192Y38626192D02*
X137526192Y38530952D01*
D10*
X137478576Y38769048D02*
X137526192Y38626192D01*
D10*
X137335712Y38864284D02*
X137478576Y38769048D01*
D10*
X137097616Y38911904D02*
X137335712Y38864284D01*
D10*
X136954768Y38911904D02*
X137097616Y38911904D01*
D10*
X136716672Y38864284D02*
X136954768Y38911904D01*
D10*
X136573808Y38769048D02*
X136716672Y38864284D01*
D10*
X136526192Y38626192D02*
X136573808Y38769048D01*
D10*
X136526192Y38530952D02*
X136526192Y38626192D01*
D10*
X94990480Y75973808D02*
X94990480Y76973808D01*
D10*
X95371432Y75973808D02*
X95371432Y76973808D01*
D10*
X96038096Y75973808D02*
X95371432Y76973808D01*
D10*
X96038096Y75973808D02*
X96038096Y76973808D01*
D10*
X96419048Y75973808D02*
X96419048Y76973808D01*
D10*
X96847616Y76973808D02*
X96419048Y76973808D01*
D10*
X96990480Y76926192D02*
X96847616Y76973808D01*
D10*
X97038096Y76878568D02*
X96990480Y76926192D01*
D10*
X97085712Y76783336D02*
X97038096Y76878568D01*
D10*
X97085712Y76640480D02*
X97085712Y76783336D01*
D10*
X97038096Y76545240D02*
X97085712Y76640480D01*
D10*
X96990480Y76497616D02*
X97038096Y76545240D01*
D10*
X96847616Y76450000D02*
X96990480Y76497616D01*
D10*
X96419048Y76450000D02*
X96847616Y76450000D01*
D10*
X97419048Y76259520D02*
X97419048Y76973808D01*
D10*
X97466664Y76116664D02*
X97419048Y76259520D01*
D10*
X97561904Y76021432D02*
X97466664Y76116664D01*
D10*
X97704760Y75973808D02*
X97561904Y76021432D01*
D10*
X97800000Y75973808D02*
X97704760Y75973808D01*
D10*
X97942856Y76021432D02*
X97800000Y75973808D01*
D10*
X98038096Y76116664D02*
X97942856Y76021432D01*
D10*
X98085712Y76259520D02*
X98038096Y76116664D01*
D10*
X98085712Y76973808D02*
X98085712Y76259520D01*
D10*
X98657144Y75973808D02*
X98657144Y76973808D01*
D10*
X98990480Y76973808D02*
X98323808Y76973808D01*
D10*
X107509048Y22207142D02*
X107604288Y22254762D01*
D10*
X107413808Y22111904D02*
X107509048Y22207142D01*
D10*
X107366192Y22016666D02*
X107413808Y22111904D01*
D10*
X107366192Y21826190D02*
X107366192Y22016666D01*
D10*
X107413808Y21730952D02*
X107366192Y21826190D01*
D10*
X107509048Y21635714D02*
X107413808Y21730952D01*
D10*
X107604288Y21588096D02*
X107509048Y21635714D01*
D10*
X107747144Y21540476D02*
X107604288Y21588096D01*
D10*
X107985240Y21540476D02*
X107747144Y21540476D01*
D10*
X108128096Y21588096D02*
X107985240Y21540476D01*
D10*
X108223336Y21635714D02*
X108128096Y21588096D01*
D10*
X108318568Y21730952D02*
X108223336Y21635714D01*
D10*
X108366192Y21826190D02*
X108318568Y21730952D01*
D10*
X108366192Y22016666D02*
X108366192Y21826190D01*
D10*
X108318568Y22111904D02*
X108366192Y22016666D01*
D10*
X108223336Y22207142D02*
X108318568Y22111904D01*
D10*
X108128096Y22254762D02*
X108223336Y22207142D01*
D10*
X107842384Y23111904D02*
X107699520Y23159524D01*
D10*
X107937616Y23016666D02*
X107842384Y23111904D01*
D10*
X107985240Y22873810D02*
X107937616Y23016666D01*
D10*
X107985240Y22826190D02*
X107985240Y22873810D01*
D10*
X107937616Y22683334D02*
X107985240Y22826190D01*
D10*
X107842384Y22588096D02*
X107937616Y22683334D01*
D10*
X107699520Y22540476D02*
X107842384Y22588096D01*
D10*
X107651904Y22540476D02*
X107699520Y22540476D01*
D10*
X107509048Y22588096D02*
X107651904Y22540476D01*
D10*
X107413808Y22683334D02*
X107509048Y22588096D01*
D10*
X107366192Y22826190D02*
X107413808Y22683334D01*
D10*
X107366192Y22873810D02*
X107366192Y22826190D01*
D10*
X107413808Y23016666D02*
X107366192Y22873810D01*
D10*
X107509048Y23111904D02*
X107413808Y23016666D01*
D10*
X107699520Y23159524D02*
X107509048Y23111904D01*
D10*
X107937616Y23159524D02*
X107699520Y23159524D01*
D10*
X108175712Y23111904D02*
X107937616Y23159524D01*
D10*
X108318568Y23016666D02*
X108175712Y23111904D01*
D10*
X108366192Y22873810D02*
X108318568Y23016666D01*
D10*
X108366192Y22778572D02*
X108366192Y22873810D01*
D10*
X108318568Y22635714D02*
X108366192Y22778572D01*
D10*
X108223336Y22588096D02*
X108318568Y22635714D01*
D10*
X92019048Y48809524D02*
X92114288Y48857144D01*
D10*
X91923808Y48714284D02*
X92019048Y48809524D01*
D10*
X91876192Y48619048D02*
X91923808Y48714284D01*
D10*
X91876192Y48428572D02*
X91876192Y48619048D01*
D10*
X91923808Y48333332D02*
X91876192Y48428572D01*
D10*
X92019048Y48238096D02*
X91923808Y48333332D01*
D10*
X92114288Y48190476D02*
X92019048Y48238096D01*
D10*
X92257144Y48142856D02*
X92114288Y48190476D01*
D10*
X92495240Y48142856D02*
X92257144Y48142856D01*
D10*
X92638096Y48190476D02*
X92495240Y48142856D01*
D10*
X92733336Y48238096D02*
X92638096Y48190476D01*
D10*
X92828568Y48333332D02*
X92733336Y48238096D01*
D10*
X92876192Y48428572D02*
X92828568Y48333332D01*
D10*
X92876192Y48619048D02*
X92876192Y48428572D01*
D10*
X92828568Y48714284D02*
X92876192Y48619048D01*
D10*
X92733336Y48809524D02*
X92828568Y48714284D01*
D10*
X92638096Y48857144D02*
X92733336Y48809524D01*
D10*
X92019048Y49380952D02*
X92066664Y49285716D01*
D10*
X91876192Y49523808D02*
X92019048Y49380952D01*
D10*
X92876192Y49523808D02*
X91876192Y49523808D01*
D10*
X92066664Y50142856D02*
X92114288Y50142856D01*
D10*
X91971432Y50190476D02*
X92066664Y50142856D01*
D10*
X91923808Y50238096D02*
X91971432Y50190476D01*
D10*
X91876192Y50333332D02*
X91923808Y50238096D01*
D10*
X91876192Y50523808D02*
X91876192Y50333332D01*
D10*
X91923808Y50619048D02*
X91876192Y50523808D01*
D10*
X91971432Y50666668D02*
X91923808Y50619048D01*
D10*
X92066664Y50714284D02*
X91971432Y50666668D01*
D10*
X92161904Y50714284D02*
X92066664Y50714284D01*
D10*
X92257144Y50666668D02*
X92161904Y50714284D01*
D10*
X92400000Y50571428D02*
X92257144Y50666668D01*
D10*
X92876192Y50095240D02*
X92400000Y50571428D01*
D10*
X92876192Y50761904D02*
X92876192Y50095240D01*
D11*
X112715000Y50570000D02*
X112165000Y50570000D01*
D11*
X110990000Y50845000D02*
X110990000Y51870000D01*
D11*
X113890000Y51870000D02*
X113890000Y50845000D01*
D11*
X113115000Y51870000D02*
X113890000Y51870000D01*
D11*
X110990000Y51870000D02*
X111765000Y51870000D01*
D11*
X113410000Y20950000D02*
X114260000Y20100000D01*
D11*
X114260000Y20100000D02*
X113410000Y20950000D01*
D11*
X116860000Y20100000D02*
X117710000Y20950000D01*
D11*
X116860000Y20100000D02*
X116585000Y20100000D01*
D11*
X113410000Y24400000D02*
X114535000Y24400000D01*
D11*
X113410000Y24400000D02*
X113410000Y20950000D01*
D11*
X113410000Y20950000D02*
X114260000Y20100000D01*
D11*
X117710000Y24400000D02*
X116585000Y24400000D01*
D11*
X114260000Y20100000D02*
X114530000Y20100000D01*
D11*
X114260000Y20100000D02*
X114260000Y20100000D01*
D11*
X117710000Y20950000D02*
X117710000Y24400000D01*
D11*
X108200000Y34850000D02*
X108200000Y38830000D01*
D11*
X113200000Y38830000D02*
X113200000Y34850000D01*
D11*
X108200000Y35490000D02*
X113200000Y35490000D01*
D11*
X115690000Y50770000D02*
X115690000Y50970000D01*
D11*
X114890000Y50770000D02*
X114890000Y50970000D01*
D11*
X97425000Y39595000D02*
X96875000Y39595000D01*
D11*
X97425000Y40445000D02*
X96875000Y40445000D01*
D11*
X113310000Y48210000D02*
X113310000Y45935000D01*
D11*
X106710000Y42910000D02*
X106710000Y43885000D01*
D11*
X106710000Y46910000D02*
X106710000Y45935000D01*
D11*
X106710000Y46910000D02*
X108010000Y48210000D01*
D11*
X113310000Y41610000D02*
X113310000Y43885000D01*
D11*
X108010000Y41610000D02*
X106710000Y42910000D01*
D11*
X108010000Y48210000D02*
X113310000Y48210000D01*
D11*
X113310000Y41610000D02*
X108010000Y41610000D01*
D11*
X94400000Y45525000D02*
X94400000Y50825000D01*
D11*
X95700000Y44225000D02*
X94400000Y45525000D01*
D11*
X101000000Y50825000D02*
X98725000Y50825000D01*
D11*
X94400000Y50825000D02*
X96675000Y50825000D01*
D11*
X95700000Y44225000D02*
X96675000Y44225000D01*
D11*
X101000000Y45525000D02*
X99700000Y44225000D01*
D11*
X101000000Y50825000D02*
X101000000Y45525000D01*
D11*
X99700000Y44225000D02*
X98725000Y44225000D01*
D11*
X119760000Y21250000D02*
X119760000Y21450000D01*
D11*
X118960000Y21250000D02*
X118960000Y21450000D01*
D11*
X125450000Y21250000D02*
X125450000Y21450000D01*
D11*
X124650000Y21250000D02*
X124650000Y21450000D01*
D11*
X117110000Y49150000D02*
X116790000Y49150000D01*
D11*
X116815000Y50825000D02*
X119765000Y50825000D01*
D11*
X116815000Y50875000D02*
X119765000Y50875000D01*
D11*
X119790000Y49150000D02*
X119470000Y49150000D01*
D11*
X116790000Y49150000D02*
X116790000Y53550000D01*
D11*
X116790000Y53550000D02*
X117110000Y53550000D01*
D11*
X119790000Y53550000D02*
X119790000Y49150000D01*
D11*
X116815000Y50775000D02*
X119765000Y50775000D01*
D11*
X116815000Y50925000D02*
X119765000Y50925000D01*
D11*
X119470000Y53550000D02*
X119790000Y53550000D01*
D11*
X89725000Y46525000D02*
X89175000Y46525000D01*
D11*
X89725000Y47375000D02*
X89175000Y47375000D01*
D11*
X114775000Y16200000D02*
X116425000Y16200000D01*
D11*
X114775000Y17800000D02*
X116425000Y17800000D01*
D11*
X110635000Y30630000D02*
X111885000Y30630000D01*
D11*
X110635000Y32230000D02*
X111885000Y32230000D01*
D11*
X91100000Y86900000D02*
X91100000Y91000000D01*
D11*
X101100000Y66000000D02*
X101100000Y62100000D01*
D11*
X86600000Y66000000D02*
X86600000Y86900000D01*
D11*
X91100000Y91000000D02*
X102100000Y91000000D01*
D11*
X86600000Y86900000D02*
X91100000Y86900000D01*
D11*
X106600000Y66000000D02*
X101100000Y66000000D01*
D11*
X101100000Y62100000D02*
X92100000Y62100000D01*
D11*
X102100000Y91000000D02*
X102100000Y86900000D01*
D11*
X92100000Y66000000D02*
X86600000Y66000000D01*
D11*
X92100000Y62100000D02*
X92100000Y66000000D01*
D11*
X102100000Y86900000D02*
X106600000Y86900000D01*
D11*
X106600000Y86900000D02*
X106600000Y66000000D01*
D11*
X120960000Y11430000D02*
X111060000Y11430000D01*
D11*
X111060000Y15430000D02*
X120960000Y15430000D01*
D11*
X111060000Y11430000D02*
X111060000Y15430000D01*
D11*
X120960000Y15430000D02*
X120960000Y11430000D01*
D11*
X93200000Y37270000D02*
X93200000Y37470000D01*
D11*
X92400000Y37270000D02*
X92400000Y37470000D01*
D11*
X89725000Y43625000D02*
X89175000Y43625000D01*
D11*
X89725000Y44475000D02*
X89175000Y44475000D01*
D11*
X132525000Y52200000D02*
X133775000Y52200000D01*
D11*
X132525000Y53800000D02*
X133775000Y53800000D01*
D11*
X100900000Y24570000D02*
X100900000Y23595000D01*
D11*
X98700000Y23595000D02*
X98700000Y24570000D01*
D11*
X98700000Y24570000D02*
X99225000Y24570000D01*
D11*
X100375000Y24570000D02*
X100900000Y24570000D01*
D11*
X99875000Y23170000D02*
X99725000Y23170000D01*
D11*
X101945000Y23095000D02*
X101945000Y23645000D01*
D11*
X102795000Y23095000D02*
X102795000Y23645000D01*
D11*
X133825000Y40750000D02*
X134375000Y40750000D01*
D11*
X135550000Y40475000D02*
X135550000Y39450000D01*
D11*
X132650000Y39450000D02*
X132650000Y40475000D01*
D11*
X133425000Y39450000D02*
X132650000Y39450000D01*
D11*
X135550000Y39450000D02*
X134775000Y39450000D01*
D11*
X108200000Y53900000D02*
X108150000Y63900000D01*
D11*
X102750000Y63900000D02*
X109250000Y63900000D01*
D11*
X102750000Y60850000D02*
X102750000Y62050000D01*
D11*
X109250000Y63900000D02*
X109250000Y63350000D01*
D11*
X109250000Y56950000D02*
X109250000Y55750000D01*
D11*
X102750000Y55750000D02*
X102750000Y56950000D01*
D11*
X109250000Y53900000D02*
X102750000Y53900000D01*
D11*
X109250000Y60850000D02*
X109250000Y62050000D01*
D11*
X109250000Y59500000D02*
X109250000Y58300000D01*
D11*
X102750000Y63400000D02*
X102750000Y63900000D01*
D11*
X102750000Y58300000D02*
X102750000Y59500000D01*
D11*
X109250000Y54450000D02*
X109250000Y53900000D01*
D11*
X102750000Y53900000D02*
X102750000Y54450000D01*
D11*
X131575000Y40725000D02*
X131575000Y40175000D01*
D11*
X130725000Y40725000D02*
X130725000Y40175000D01*
D11*
X117490000Y41645000D02*
X117490000Y39995000D01*
D11*
X119090000Y41645000D02*
X119090000Y39995000D01*
D11*
X95625000Y19825000D02*
X95625000Y20375000D01*
D11*
X96475000Y19825000D02*
X96475000Y20375000D01*
D11*
X114200000Y71750000D02*
X114200000Y66000000D01*
D11*
X109200000Y71750000D02*
X106800000Y71750000D01*
D11*
X114200000Y71750000D02*
X111800000Y71750000D01*
D11*
X106800000Y66000000D02*
X106800000Y71750000D01*
D11*
X114200000Y66000000D02*
X106800000Y66000000D01*
D11*
X99950000Y21350000D02*
X99950000Y16050000D01*
D11*
X99300000Y16050000D02*
X104700000Y16050000D01*
D11*
X104700000Y21350000D02*
X99300000Y21350000D01*
D11*
X94280000Y13970000D02*
X109520000Y13970000D01*
D11*
X109520000Y11430000D02*
X94280000Y11430000D01*
D11*
X94280000Y11430000D02*
X94280000Y13970000D01*
D11*
X109520000Y13970000D02*
X109520000Y11430000D01*
D11*
X94150000Y41245000D02*
X94150000Y40695000D01*
D11*
X93875000Y39520000D02*
X92850000Y39520000D01*
D11*
X92850000Y42420000D02*
X93875000Y42420000D01*
D11*
X92850000Y41645000D02*
X92850000Y42420000D01*
D11*
X92850000Y39520000D02*
X92850000Y40295000D01*
D11*
X121340000Y45120000D02*
X123615000Y45120000D01*
D11*
X126640000Y38520000D02*
X125665000Y38520000D01*
D11*
X122640000Y38520000D02*
X123615000Y38520000D01*
D11*
X122640000Y38520000D02*
X121340000Y39820000D01*
D11*
X127940000Y45120000D02*
X125665000Y45120000D01*
D11*
X127940000Y39820000D02*
X126640000Y38520000D01*
D11*
X121340000Y39820000D02*
X121340000Y45120000D01*
D11*
X127940000Y45120000D02*
X127940000Y39820000D01*
D11*
X111370000Y56250000D02*
X115070000Y56250000D01*
D11*
X111370000Y60200000D02*
X111370000Y55700000D01*
D11*
X112570000Y60200000D02*
X113870000Y60200000D01*
D11*
X112570000Y55700000D02*
X113870000Y55700000D01*
D11*
X115070000Y55700000D02*
X115070000Y60200000D01*
D11*
X100600000Y35745000D02*
X100600000Y36995000D01*
D11*
X99000000Y35745000D02*
X99000000Y36995000D01*
D11*
X129850000Y44900000D02*
X129850000Y50200000D01*
D11*
X131150000Y43600000D02*
X129850000Y44900000D01*
D11*
X136450000Y50200000D02*
X134175000Y50200000D01*
D11*
X129850000Y50200000D02*
X132125000Y50200000D01*
D11*
X131150000Y43600000D02*
X132125000Y43600000D01*
D11*
X136450000Y44900000D02*
X135150000Y43600000D01*
D11*
X136450000Y50200000D02*
X136450000Y44900000D01*
D11*
X135150000Y43600000D02*
X134175000Y43600000D01*
D11*
X121340000Y55100000D02*
X123615000Y55100000D01*
D11*
X126640000Y48500000D02*
X125665000Y48500000D01*
D11*
X122640000Y48500000D02*
X123615000Y48500000D01*
D11*
X122640000Y48500000D02*
X121340000Y49800000D01*
D11*
X127940000Y55100000D02*
X125665000Y55100000D01*
D11*
X127940000Y49800000D02*
X126640000Y48500000D01*
D11*
X121340000Y49800000D02*
X121340000Y55100000D01*
D11*
X127940000Y55100000D02*
X127940000Y49800000D01*
D11*
X122475000Y21050000D02*
X121925000Y21050000D01*
D11*
X120750000Y21325000D02*
X120750000Y22350000D01*
D11*
X123650000Y22350000D02*
X123650000Y21325000D01*
D11*
X122875000Y22350000D02*
X123650000Y22350000D01*
D11*
X120750000Y22350000D02*
X121525000Y22350000D01*
D11*
X108925000Y50520000D02*
X108725000Y50520000D01*
D11*
X108925000Y49720000D02*
X108725000Y49720000D01*
D11*
X130500000Y11430000D02*
X130500000Y17180000D01*
D11*
X135500000Y11430000D02*
X137900000Y11430000D01*
D11*
X130500000Y11430000D02*
X132900000Y11430000D01*
D11*
X137900000Y17180000D02*
X137900000Y11430000D01*
D11*
X130500000Y17180000D02*
X137900000Y17180000D01*
D11*
X93200000Y44875000D02*
X93200000Y46125000D01*
D11*
X91600000Y44875000D02*
X91600000Y46125000D01*
D11*
X97750000Y35745000D02*
X97750000Y36995000D01*
D11*
X96150000Y35745000D02*
X96150000Y36995000D01*
D11*
X109325000Y51865000D02*
X109325000Y51640000D01*
D11*
X109325000Y52940000D02*
X109325000Y52715000D01*
D11*
X108800000Y51665000D02*
X108800000Y52915000D01*
D11*
X107625000Y52940000D02*
X109325000Y52940000D01*
D11*
X109325000Y51640000D02*
X107625000Y51640000D01*
D11*
X107625000Y52715000D02*
X107625000Y52940000D01*
D11*
X107625000Y51640000D02*
X107625000Y51865000D01*
D11*
X108900000Y51665000D02*
X108900000Y52915000D01*
D11*
X108850000Y51665000D02*
X108850000Y52915000D01*
D11*
X95025000Y37645000D02*
X95025000Y37095000D01*
D11*
X94175000Y37645000D02*
X94175000Y37095000D01*
D11*
X96875000Y42345000D02*
X97425000Y42345000D01*
D11*
X96875000Y41495000D02*
X97425000Y41495000D01*
D11*
X128600000Y18430000D02*
X128600000Y11430000D01*
D11*
X122000000Y11430000D02*
X122000000Y18430000D01*
D11*
X128600000Y11430000D02*
X122000000Y11430000D01*
D11*
X122000000Y18430000D02*
X128600000Y18430000D01*
D11*
X136625000Y40175000D02*
X136625000Y40725000D01*
D11*
X137475000Y40175000D02*
X137475000Y40725000D01*
D11*
X128300000Y24750000D02*
X127450000Y23900000D01*
D11*
X127450000Y23900000D02*
X128300000Y24750000D01*
D11*
X127450000Y21300000D02*
X128300000Y20450000D01*
D11*
X127450000Y21300000D02*
X127450000Y21575000D01*
D11*
X131750000Y24750000D02*
X131750000Y23625000D01*
D11*
X131750000Y24750000D02*
X128300000Y24750000D01*
D11*
X128300000Y24750000D02*
X127450000Y23900000D01*
D11*
X131750000Y20450000D02*
X131750000Y21575000D01*
D11*
X127450000Y23900000D02*
X127450000Y23630000D01*
D11*
X127450000Y23900000D02*
X127450000Y23900000D01*
D11*
X128300000Y20450000D02*
X131750000Y20450000D01*
D11*
X107490000Y19950000D02*
X107490000Y19750000D01*
D11*
X108290000Y19950000D02*
X108290000Y19750000D01*
D11*
X118900000Y86900000D02*
X118900000Y91000000D01*
D11*
X128900000Y66000000D02*
X128900000Y62100000D01*
D11*
X114400000Y66000000D02*
X114400000Y86900000D01*
D11*
X118900000Y91000000D02*
X129900000Y91000000D01*
D11*
X114400000Y86900000D02*
X118900000Y86900000D01*
D11*
X134400000Y66000000D02*
X128900000Y66000000D01*
D11*
X128900000Y62100000D02*
X119900000Y62100000D01*
D11*
X129900000Y91000000D02*
X129900000Y86900000D01*
D11*
X119900000Y66000000D02*
X114400000Y66000000D01*
D11*
X119900000Y62100000D02*
X119900000Y66000000D01*
D11*
X129900000Y86900000D02*
X134400000Y86900000D01*
D11*
X134400000Y86900000D02*
X134400000Y66000000D01*
D11*
X83100000Y11430000D02*
X83100000Y17180000D01*
D11*
X88100000Y11430000D02*
X90500000Y11430000D01*
D11*
X83100000Y11430000D02*
X85500000Y11430000D01*
D11*
X90500000Y17180000D02*
X90500000Y11430000D01*
D11*
X83100000Y17180000D02*
X90500000Y17180000D01*
D10*
X47979048Y23809524D02*
X48074284Y23857142D01*
D10*
X47883808Y23714286D02*
X47979048Y23809524D01*
D10*
X47836192Y23619048D02*
X47883808Y23714286D01*
D10*
X47836192Y23428572D02*
X47836192Y23619048D01*
D10*
X47883808Y23333334D02*
X47836192Y23428572D01*
D10*
X47979048Y23238096D02*
X47883808Y23333334D01*
D10*
X48074284Y23190476D02*
X47979048Y23238096D01*
D10*
X48217144Y23142858D02*
X48074284Y23190476D01*
D10*
X48455240Y23142858D02*
X48217144Y23142858D01*
D10*
X48598096Y23190476D02*
X48455240Y23142858D01*
D10*
X48693332Y23238096D02*
X48598096Y23190476D01*
D10*
X48788572Y23333334D02*
X48693332Y23238096D01*
D10*
X48836192Y23428572D02*
X48788572Y23333334D01*
D10*
X48836192Y23619048D02*
X48836192Y23428572D01*
D10*
X48788572Y23714286D02*
X48836192Y23619048D01*
D10*
X48693332Y23809524D02*
X48788572Y23714286D01*
D10*
X48598096Y23857142D02*
X48693332Y23809524D01*
D10*
X48836192Y24333334D02*
X47836192Y24809524D01*
D10*
X47836192Y24809524D02*
X47836192Y24142858D01*
D10*
X25569048Y31779524D02*
X25664286Y31827142D01*
D10*
X25473810Y31684286D02*
X25569048Y31779524D01*
D10*
X25426190Y31589048D02*
X25473810Y31684286D01*
D10*
X25426190Y31398572D02*
X25426190Y31589048D01*
D10*
X25473810Y31303334D02*
X25426190Y31398572D01*
D10*
X25569048Y31208096D02*
X25473810Y31303334D01*
D10*
X25664286Y31160476D02*
X25569048Y31208096D01*
D10*
X25807142Y31112858D02*
X25664286Y31160476D01*
D10*
X26045238Y31112858D02*
X25807142Y31112858D01*
D10*
X26188096Y31160476D02*
X26045238Y31112858D01*
D10*
X26283334Y31208096D02*
X26188096Y31160476D01*
D10*
X26378572Y31303334D02*
X26283334Y31208096D01*
D10*
X26426190Y31398572D02*
X26378572Y31303334D01*
D10*
X26426190Y31589048D02*
X26426190Y31398572D01*
D10*
X26378572Y31684286D02*
X26426190Y31589048D01*
D10*
X26283334Y31779524D02*
X26378572Y31684286D01*
D10*
X26188096Y31827142D02*
X26283334Y31779524D01*
D10*
X25569048Y32350952D02*
X25616666Y32255714D01*
D10*
X25426190Y32493810D02*
X25569048Y32350952D01*
D10*
X26426190Y32493810D02*
X25426190Y32493810D01*
D10*
X25426190Y33160476D02*
X25426190Y33636668D01*
D10*
X25854762Y33112856D02*
X25426190Y33160476D01*
D10*
X25807142Y33160476D02*
X25854762Y33112856D01*
D10*
X25759524Y33303334D02*
X25807142Y33160476D01*
D10*
X25759524Y33446190D02*
X25759524Y33303334D01*
D10*
X25807142Y33589048D02*
X25759524Y33446190D01*
D10*
X25902380Y33684284D02*
X25807142Y33589048D01*
D10*
X26045238Y33731904D02*
X25902380Y33684284D01*
D10*
X26140476Y33731904D02*
X26045238Y33731904D01*
D10*
X26283334Y33684284D02*
X26140476Y33731904D01*
D10*
X26378572Y33589048D02*
X26283334Y33684284D01*
D10*
X26426190Y33446190D02*
X26378572Y33589048D01*
D10*
X26426190Y33303334D02*
X26426190Y33446190D01*
D10*
X26378572Y33160476D02*
X26426190Y33303334D01*
D10*
X26330952Y33112856D02*
X26378572Y33160476D01*
D10*
X26235714Y33065238D02*
X26330952Y33112856D01*
D10*
X60626192Y36635716D02*
X59626192Y36635716D01*
D10*
X59626192Y37064284D02*
X59626192Y36635716D01*
D10*
X59673808Y37207144D02*
X59626192Y37064284D01*
D10*
X59721428Y37254760D02*
X59673808Y37207144D01*
D10*
X59816668Y37302380D02*
X59721428Y37254760D01*
D10*
X59911904Y37302380D02*
X59816668Y37302380D01*
D10*
X60007144Y37254760D02*
X59911904Y37302380D01*
D10*
X60054760Y37207144D02*
X60007144Y37254760D01*
D10*
X60102380Y37064284D02*
X60054760Y37207144D01*
D10*
X60102380Y36635716D02*
X60102380Y37064284D01*
D10*
X60626192Y37302380D02*
X60102380Y36969048D01*
D10*
X59769048Y37826192D02*
X59816668Y37730952D01*
D10*
X59626192Y37969048D02*
X59769048Y37826192D01*
D10*
X60626192Y37969048D02*
X59626192Y37969048D01*
D10*
X59769048Y38778572D02*
X59816668Y38683332D01*
D10*
X59626192Y38921428D02*
X59769048Y38778572D01*
D10*
X60626192Y38921428D02*
X59626192Y38921428D01*
D10*
X21419048Y33679524D02*
X21514286Y33727144D01*
D10*
X21323810Y33584284D02*
X21419048Y33679524D01*
D10*
X21276190Y33489048D02*
X21323810Y33584284D01*
D10*
X21276190Y33298572D02*
X21276190Y33489048D01*
D10*
X21323810Y33203334D02*
X21276190Y33298572D01*
D10*
X21419048Y33108096D02*
X21323810Y33203334D01*
D10*
X21514286Y33060476D02*
X21419048Y33108096D01*
D10*
X21657142Y33012858D02*
X21514286Y33060476D01*
D10*
X21895238Y33012858D02*
X21657142Y33012858D01*
D10*
X22038096Y33060476D02*
X21895238Y33012858D01*
D10*
X22133334Y33108096D02*
X22038096Y33060476D01*
D10*
X22228572Y33203334D02*
X22133334Y33108096D01*
D10*
X22276190Y33298572D02*
X22228572Y33203334D01*
D10*
X22276190Y33489048D02*
X22276190Y33298572D01*
D10*
X22228572Y33584284D02*
X22276190Y33489048D01*
D10*
X22133334Y33679524D02*
X22228572Y33584284D01*
D10*
X22038096Y33727144D02*
X22133334Y33679524D01*
D10*
X21419048Y34250952D02*
X21466666Y34155716D01*
D10*
X21276190Y34393808D02*
X21419048Y34250952D01*
D10*
X22276190Y34393808D02*
X21276190Y34393808D01*
D10*
X21942858Y34965240D02*
X21276190Y35441428D01*
D10*
X21942858Y35679524D02*
X21942858Y34965240D01*
D10*
X22276190Y35441428D02*
X21276190Y35441428D01*
D10*
X53669048Y23759524D02*
X53764284Y23807142D01*
D10*
X53573808Y23664286D02*
X53669048Y23759524D01*
D10*
X53526192Y23569048D02*
X53573808Y23664286D01*
D10*
X53526192Y23378572D02*
X53526192Y23569048D01*
D10*
X53573808Y23283334D02*
X53526192Y23378572D01*
D10*
X53669048Y23188096D02*
X53573808Y23283334D01*
D10*
X53764284Y23140476D02*
X53669048Y23188096D01*
D10*
X53907144Y23092858D02*
X53764284Y23140476D01*
D10*
X54145240Y23092858D02*
X53907144Y23092858D01*
D10*
X54288096Y23140476D02*
X54145240Y23092858D01*
D10*
X54383332Y23188096D02*
X54288096Y23140476D01*
D10*
X54478572Y23283334D02*
X54383332Y23188096D01*
D10*
X54526192Y23378572D02*
X54478572Y23283334D01*
D10*
X54526192Y23569048D02*
X54526192Y23378572D01*
D10*
X54478572Y23664286D02*
X54526192Y23569048D01*
D10*
X54383332Y23759524D02*
X54478572Y23664286D01*
D10*
X54288096Y23807142D02*
X54383332Y23759524D01*
D10*
X53573808Y24664286D02*
X53669048Y24711904D01*
D10*
X53526192Y24521428D02*
X53573808Y24664286D01*
D10*
X53526192Y24426190D02*
X53526192Y24521428D01*
D10*
X53573808Y24283334D02*
X53526192Y24426190D01*
D10*
X53716668Y24188096D02*
X53573808Y24283334D01*
D10*
X53954760Y24140476D02*
X53716668Y24188096D01*
D10*
X54192856Y24140476D02*
X53954760Y24140476D01*
D10*
X54383332Y24188096D02*
X54192856Y24140476D01*
D10*
X54478572Y24283334D02*
X54383332Y24188096D01*
D10*
X54526192Y24426190D02*
X54478572Y24283334D01*
D10*
X54526192Y24473810D02*
X54526192Y24426190D01*
D10*
X54478572Y24616666D02*
X54526192Y24473810D01*
D10*
X54383332Y24711904D02*
X54478572Y24616666D01*
D10*
X54240476Y24759524D02*
X54383332Y24711904D01*
D10*
X54192856Y24759524D02*
X54240476Y24759524D01*
D10*
X54050000Y24711904D02*
X54192856Y24759524D01*
D10*
X53954760Y24616666D02*
X54050000Y24711904D01*
D10*
X53907144Y24473810D02*
X53954760Y24616666D01*
D10*
X53907144Y24426190D02*
X53907144Y24473810D01*
D10*
X53954760Y24283334D02*
X53907144Y24426190D01*
D10*
X54050000Y24188096D02*
X53954760Y24283334D01*
D10*
X54192856Y24140476D02*
X54050000Y24188096D01*
D10*
X28547620Y51804760D02*
X28585714Y51728572D01*
D10*
X28471428Y51880952D02*
X28547620Y51804760D01*
D10*
X28395238Y51919048D02*
X28471428Y51880952D01*
D10*
X28242858Y51919048D02*
X28395238Y51919048D01*
D10*
X28166666Y51880952D02*
X28242858Y51919048D01*
D10*
X28090476Y51804760D02*
X28166666Y51880952D01*
D10*
X28052380Y51728572D02*
X28090476Y51804760D01*
D10*
X28014286Y51614284D02*
X28052380Y51728572D01*
D10*
X28014286Y51423808D02*
X28014286Y51614284D01*
D10*
X28052380Y51309524D02*
X28014286Y51423808D01*
D10*
X28090476Y51233332D02*
X28052380Y51309524D01*
D10*
X28166666Y51157144D02*
X28090476Y51233332D01*
D10*
X28242858Y51119048D02*
X28166666Y51157144D01*
D10*
X28395238Y51119048D02*
X28242858Y51119048D01*
D10*
X28471428Y51157144D02*
X28395238Y51119048D01*
D10*
X28547620Y51233332D02*
X28471428Y51157144D01*
D10*
X28585714Y51309524D02*
X28547620Y51233332D01*
D10*
X29004762Y51804760D02*
X28928572Y51766668D01*
D10*
X29119048Y51919048D02*
X29004762Y51804760D01*
D10*
X29119048Y51119048D02*
X29119048Y51919048D01*
D10*
X30071428Y51919048D02*
X29652380Y51919048D01*
D10*
X29842858Y51614284D02*
X30071428Y51919048D01*
D10*
X29957142Y51614284D02*
X29842858Y51614284D01*
D10*
X30033334Y51576192D02*
X29957142Y51614284D01*
D10*
X30071428Y51538096D02*
X30033334Y51576192D01*
D10*
X30109524Y51423808D02*
X30071428Y51538096D01*
D10*
X30109524Y51347620D02*
X30109524Y51423808D01*
D10*
X30071428Y51233332D02*
X30109524Y51347620D01*
D10*
X29995238Y51157144D02*
X30071428Y51233332D01*
D10*
X29880952Y51119048D02*
X29995238Y51157144D01*
D10*
X29766666Y51119048D02*
X29880952Y51119048D01*
D10*
X29652380Y51157144D02*
X29766666Y51119048D01*
D10*
X29614286Y51195240D02*
X29652380Y51157144D01*
D10*
X29576190Y51271428D02*
X29614286Y51195240D01*
D10*
X47005240Y15803810D02*
X47005240Y16803810D01*
D10*
X47386192Y15803810D02*
X47005240Y16803810D01*
D10*
X47386192Y15803810D02*
X47767144Y16803810D01*
D10*
X47767144Y15803810D02*
X47767144Y16803810D01*
D10*
X48290952Y16756190D02*
X48386192Y16803810D01*
D10*
X48195716Y16660952D02*
X48290952Y16756190D01*
D10*
X48148096Y16565714D02*
X48195716Y16660952D01*
D10*
X48100476Y16422857D02*
X48148096Y16565714D01*
D10*
X48100476Y16184762D02*
X48100476Y16422857D01*
D10*
X48148096Y16041905D02*
X48100476Y16184762D01*
D10*
X48195716Y15946667D02*
X48148096Y16041905D01*
D10*
X48290952Y15851429D02*
X48195716Y15946667D01*
D10*
X48386192Y15803810D02*
X48290952Y15851429D01*
D10*
X48576668Y15803810D02*
X48386192Y15803810D01*
D10*
X48671904Y15851429D02*
X48576668Y15803810D01*
D10*
X48767144Y15946667D02*
X48671904Y15851429D01*
D10*
X48814760Y16041905D02*
X48767144Y15946667D01*
D10*
X48862380Y16184762D02*
X48814760Y16041905D01*
D10*
X48862380Y16422857D02*
X48862380Y16184762D01*
D10*
X48814760Y16565714D02*
X48862380Y16422857D01*
D10*
X48767144Y16660952D02*
X48814760Y16565714D01*
D10*
X48671904Y16756190D02*
X48767144Y16660952D01*
D10*
X48576668Y16803810D02*
X48671904Y16756190D01*
D10*
X48386192Y16803810D02*
X48576668Y16803810D01*
D10*
X49195716Y15803810D02*
X49195716Y16803810D01*
D10*
X49529048Y16803810D02*
X49195716Y16803810D01*
D10*
X49671904Y16756190D02*
X49529048Y16803810D01*
D10*
X49767144Y16660952D02*
X49671904Y16756190D01*
D10*
X49814760Y16565714D02*
X49767144Y16660952D01*
D10*
X49862380Y16422857D02*
X49814760Y16565714D01*
D10*
X49862380Y16184762D02*
X49862380Y16422857D01*
D10*
X49814760Y16041905D02*
X49862380Y16184762D01*
D10*
X49767144Y15946667D02*
X49814760Y16041905D01*
D10*
X49671904Y15851429D02*
X49767144Y15946667D01*
D10*
X49529048Y15803810D02*
X49671904Y15851429D01*
D10*
X49195716Y15803810D02*
X49529048Y15803810D01*
D10*
X50195716Y15803810D02*
X50195716Y16803810D01*
D10*
X50814760Y16803810D02*
X50195716Y16803810D01*
D10*
X50576668Y16327619D02*
X50195716Y16327619D01*
D10*
X50814760Y15803810D02*
X50195716Y15803810D01*
D10*
X63947620Y51104760D02*
X63985716Y51028572D01*
D10*
X63871428Y51180952D02*
X63947620Y51104760D01*
D10*
X63795240Y51219048D02*
X63871428Y51180952D01*
D10*
X63642856Y51219048D02*
X63795240Y51219048D01*
D10*
X63566668Y51180952D02*
X63642856Y51219048D01*
D10*
X63490476Y51104760D02*
X63566668Y51180952D01*
D10*
X63452380Y51028572D02*
X63490476Y51104760D01*
D10*
X63414284Y50914284D02*
X63452380Y51028572D01*
D10*
X63414284Y50723808D02*
X63414284Y50914284D01*
D10*
X63452380Y50609524D02*
X63414284Y50723808D01*
D10*
X63490476Y50533332D02*
X63452380Y50609524D01*
D10*
X63566668Y50457144D02*
X63490476Y50533332D01*
D10*
X63642856Y50419048D02*
X63566668Y50457144D01*
D10*
X63795240Y50419048D02*
X63642856Y50419048D01*
D10*
X63871428Y50457144D02*
X63795240Y50419048D01*
D10*
X63947620Y50533332D02*
X63871428Y50457144D01*
D10*
X63985716Y50609524D02*
X63947620Y50533332D01*
D10*
X64404760Y51104760D02*
X64328572Y51066668D01*
D10*
X64519048Y51219048D02*
X64404760Y51104760D01*
D10*
X64519048Y50419048D02*
X64519048Y51219048D01*
D10*
X65128572Y50419048D02*
X65509524Y51219048D01*
D10*
X65509524Y51219048D02*
X64976192Y51219048D01*
D10*
X42719048Y42557144D02*
X42814284Y42604760D01*
D10*
X42623808Y42461904D02*
X42719048Y42557144D01*
D10*
X42576192Y42366668D02*
X42623808Y42461904D01*
D10*
X42576192Y42176192D02*
X42576192Y42366668D01*
D10*
X42623808Y42080952D02*
X42576192Y42176192D01*
D10*
X42719048Y41985716D02*
X42623808Y42080952D01*
D10*
X42814284Y41938096D02*
X42719048Y41985716D01*
D10*
X42957144Y41890476D02*
X42814284Y41938096D01*
D10*
X43195240Y41890476D02*
X42957144Y41890476D01*
D10*
X43338096Y41938096D02*
X43195240Y41890476D01*
D10*
X43433332Y41985716D02*
X43338096Y41938096D01*
D10*
X43528572Y42080952D02*
X43433332Y41985716D01*
D10*
X43576192Y42176192D02*
X43528572Y42080952D01*
D10*
X43576192Y42366668D02*
X43576192Y42176192D01*
D10*
X43528572Y42461904D02*
X43576192Y42366668D01*
D10*
X43433332Y42557144D02*
X43528572Y42461904D01*
D10*
X43338096Y42604760D02*
X43433332Y42557144D01*
D10*
X43242856Y42890476D02*
X42576192Y43366668D01*
D10*
X43242856Y43604760D02*
X43242856Y42890476D01*
D10*
X43576192Y43366668D02*
X42576192Y43366668D01*
D10*
X27740476Y41443808D02*
X27740476Y42443808D01*
D10*
X28169048Y42443808D02*
X27740476Y42443808D01*
D10*
X28311904Y42396192D02*
X28169048Y42443808D01*
D10*
X28359524Y42348572D02*
X28311904Y42396192D01*
D10*
X28407142Y42253332D02*
X28359524Y42348572D01*
D10*
X28407142Y42158096D02*
X28407142Y42253332D01*
D10*
X28359524Y42062856D02*
X28407142Y42158096D01*
D10*
X28311904Y42015240D02*
X28359524Y42062856D01*
D10*
X28169048Y41967620D02*
X28311904Y42015240D01*
D10*
X27740476Y41967620D02*
X28169048Y41967620D01*
D10*
X28407142Y41443808D02*
X28073810Y41967620D01*
D10*
X28788096Y42396192D02*
X28930952Y42443808D01*
D10*
X28740476Y42300952D02*
X28788096Y42396192D01*
D10*
X28740476Y42205716D02*
X28740476Y42300952D01*
D10*
X28788096Y42110476D02*
X28740476Y42205716D01*
D10*
X28883334Y42062856D02*
X28788096Y42110476D01*
D10*
X29073810Y42015240D02*
X28883334Y42062856D01*
D10*
X29216666Y41967620D02*
X29073810Y42015240D01*
D10*
X29311904Y41872380D02*
X29216666Y41967620D01*
D10*
X29359524Y41777144D02*
X29311904Y41872380D01*
D10*
X29359524Y41634284D02*
X29359524Y41777144D01*
D10*
X29311904Y41539048D02*
X29359524Y41634284D01*
D10*
X29264286Y41491428D02*
X29311904Y41539048D01*
D10*
X29121428Y41443808D02*
X29264286Y41491428D01*
D10*
X28930952Y41443808D02*
X29121428Y41443808D01*
D10*
X28788096Y41491428D02*
X28930952Y41443808D01*
D10*
X28740476Y41539048D02*
X28788096Y41491428D01*
D10*
X28692858Y41634284D02*
X28740476Y41539048D01*
D10*
X28692858Y41777144D02*
X28692858Y41634284D01*
D10*
X28740476Y41872380D02*
X28692858Y41777144D01*
D10*
X28835714Y41967620D02*
X28740476Y41872380D01*
D10*
X28978572Y42015240D02*
X28835714Y41967620D01*
D10*
X29169048Y42062856D02*
X28978572Y42015240D01*
D10*
X29264286Y42110476D02*
X29169048Y42062856D01*
D10*
X29311904Y42205716D02*
X29264286Y42110476D01*
D10*
X29311904Y42300952D02*
X29311904Y42205716D01*
D10*
X29264286Y42396192D02*
X29311904Y42300952D01*
D10*
X29121428Y42443808D02*
X29264286Y42396192D01*
D10*
X28930952Y42443808D02*
X29121428Y42443808D01*
D10*
X26733334Y25776190D02*
X26828572Y25823810D01*
D10*
X26638096Y25680952D02*
X26733334Y25776190D01*
D10*
X26590476Y25585714D02*
X26638096Y25680952D01*
D10*
X26542858Y25442858D02*
X26590476Y25585714D01*
D10*
X26542858Y25204762D02*
X26542858Y25442858D01*
D10*
X26590476Y25061904D02*
X26542858Y25204762D01*
D10*
X26638096Y24966666D02*
X26590476Y25061904D01*
D10*
X26733334Y24871428D02*
X26638096Y24966666D01*
D10*
X26828572Y24823810D02*
X26733334Y24871428D01*
D10*
X27019048Y24823810D02*
X26828572Y24823810D01*
D10*
X27114286Y24871428D02*
X27019048Y24823810D01*
D10*
X27209524Y24966666D02*
X27114286Y24871428D01*
D10*
X27257142Y25061904D02*
X27209524Y24966666D01*
D10*
X27304762Y25204762D02*
X27257142Y25061904D01*
D10*
X27304762Y25442858D02*
X27304762Y25204762D01*
D10*
X27257142Y25585714D02*
X27304762Y25442858D01*
D10*
X27209524Y25680952D02*
X27257142Y25585714D01*
D10*
X27114286Y25776190D02*
X27209524Y25680952D01*
D10*
X27019048Y25823810D02*
X27114286Y25776190D01*
D10*
X26828572Y25823810D02*
X27019048Y25823810D01*
D10*
X27257142Y24728572D02*
X26971428Y25014286D01*
D10*
X27828572Y25680952D02*
X27733334Y25633334D01*
D10*
X27971428Y25823810D02*
X27828572Y25680952D01*
D10*
X27971428Y24823810D02*
X27971428Y25823810D01*
D10*
X43569524Y31810952D02*
X43617144Y31715714D01*
D10*
X43474284Y31906190D02*
X43569524Y31810952D01*
D10*
X43379048Y31953810D02*
X43474284Y31906190D01*
D10*
X43188572Y31953810D02*
X43379048Y31953810D01*
D10*
X43093332Y31906190D02*
X43188572Y31953810D01*
D10*
X42998096Y31810952D02*
X43093332Y31906190D01*
D10*
X42950476Y31715714D02*
X42998096Y31810952D01*
D10*
X42902856Y31572858D02*
X42950476Y31715714D01*
D10*
X42902856Y31334762D02*
X42902856Y31572858D01*
D10*
X42950476Y31191904D02*
X42902856Y31334762D01*
D10*
X42998096Y31096666D02*
X42950476Y31191904D01*
D10*
X43093332Y31001428D02*
X42998096Y31096666D01*
D10*
X43188572Y30953810D02*
X43093332Y31001428D01*
D10*
X43379048Y30953810D02*
X43188572Y30953810D01*
D10*
X43474284Y31001428D02*
X43379048Y30953810D01*
D10*
X43569524Y31096666D02*
X43474284Y31001428D01*
D10*
X43617144Y31191904D02*
X43569524Y31096666D01*
D10*
X44521904Y31953810D02*
X43998096Y31953810D01*
D10*
X44236192Y31572858D02*
X44521904Y31953810D01*
D10*
X44379048Y31572858D02*
X44236192Y31572858D01*
D10*
X44474284Y31525238D02*
X44379048Y31572858D01*
D10*
X44521904Y31477620D02*
X44474284Y31525238D01*
D10*
X44569524Y31334762D02*
X44521904Y31477620D01*
D10*
X44569524Y31239524D02*
X44569524Y31334762D01*
D10*
X44521904Y31096666D02*
X44569524Y31239524D01*
D10*
X44426668Y31001428D02*
X44521904Y31096666D01*
D10*
X44283808Y30953810D02*
X44426668Y31001428D01*
D10*
X44140952Y30953810D02*
X44283808Y30953810D01*
D10*
X43998096Y31001428D02*
X44140952Y30953810D01*
D10*
X43950476Y31049048D02*
X43998096Y31001428D01*
D10*
X43902856Y31144286D02*
X43950476Y31049048D01*
D10*
X28419048Y31779524D02*
X28514286Y31827142D01*
D10*
X28323810Y31684286D02*
X28419048Y31779524D01*
D10*
X28276190Y31589048D02*
X28323810Y31684286D01*
D10*
X28276190Y31398572D02*
X28276190Y31589048D01*
D10*
X28323810Y31303334D02*
X28276190Y31398572D01*
D10*
X28419048Y31208096D02*
X28323810Y31303334D01*
D10*
X28514286Y31160476D02*
X28419048Y31208096D01*
D10*
X28657142Y31112858D02*
X28514286Y31160476D01*
D10*
X28895238Y31112858D02*
X28657142Y31112858D01*
D10*
X29038096Y31160476D02*
X28895238Y31112858D01*
D10*
X29133334Y31208096D02*
X29038096Y31160476D01*
D10*
X29228572Y31303334D02*
X29133334Y31208096D01*
D10*
X29276190Y31398572D02*
X29228572Y31303334D01*
D10*
X29276190Y31589048D02*
X29276190Y31398572D01*
D10*
X29228572Y31684286D02*
X29276190Y31589048D01*
D10*
X29133334Y31779524D02*
X29228572Y31684286D01*
D10*
X29038096Y31827142D02*
X29133334Y31779524D01*
D10*
X28419048Y32350952D02*
X28466666Y32255714D01*
D10*
X28276190Y32493810D02*
X28419048Y32350952D01*
D10*
X29276190Y32493810D02*
X28276190Y32493810D01*
D10*
X28323810Y33636668D02*
X28419048Y33684284D01*
D10*
X28276190Y33493810D02*
X28323810Y33636668D01*
D10*
X28276190Y33398572D02*
X28276190Y33493810D01*
D10*
X28323810Y33255714D02*
X28276190Y33398572D01*
D10*
X28466666Y33160476D02*
X28323810Y33255714D01*
D10*
X28704762Y33112856D02*
X28466666Y33160476D01*
D10*
X28942858Y33112856D02*
X28704762Y33112856D01*
D10*
X29133334Y33160476D02*
X28942858Y33112856D01*
D10*
X29228572Y33255714D02*
X29133334Y33160476D01*
D10*
X29276190Y33398572D02*
X29228572Y33255714D01*
D10*
X29276190Y33446190D02*
X29276190Y33398572D01*
D10*
X29228572Y33589048D02*
X29276190Y33446190D01*
D10*
X29133334Y33684284D02*
X29228572Y33589048D01*
D10*
X28990476Y33731904D02*
X29133334Y33684284D01*
D10*
X28942858Y33731904D02*
X28990476Y33731904D01*
D10*
X28800000Y33684284D02*
X28942858Y33731904D01*
D10*
X28704762Y33589048D02*
X28800000Y33684284D01*
D10*
X28657142Y33446190D02*
X28704762Y33589048D01*
D10*
X28657142Y33398572D02*
X28657142Y33446190D01*
D10*
X28704762Y33255714D02*
X28657142Y33398572D01*
D10*
X28800000Y33160476D02*
X28704762Y33255714D01*
D10*
X28942858Y33112856D02*
X28800000Y33160476D01*
D10*
X61659524Y55380952D02*
X61707144Y55285716D01*
D10*
X61564284Y55476192D02*
X61659524Y55380952D01*
D10*
X61469048Y55523808D02*
X61564284Y55476192D01*
D10*
X61278572Y55523808D02*
X61469048Y55523808D01*
D10*
X61183332Y55476192D02*
X61278572Y55523808D01*
D10*
X61088096Y55380952D02*
X61183332Y55476192D01*
D10*
X61040476Y55285716D02*
X61088096Y55380952D01*
D10*
X60992856Y55142856D02*
X61040476Y55285716D01*
D10*
X60992856Y54904760D02*
X60992856Y55142856D01*
D10*
X61040476Y54761904D02*
X60992856Y54904760D01*
D10*
X61088096Y54666668D02*
X61040476Y54761904D01*
D10*
X61183332Y54571428D02*
X61088096Y54666668D01*
D10*
X61278572Y54523808D02*
X61183332Y54571428D01*
D10*
X61469048Y54523808D02*
X61278572Y54523808D01*
D10*
X61564284Y54571428D02*
X61469048Y54523808D01*
D10*
X61659524Y54666668D02*
X61564284Y54571428D01*
D10*
X61707144Y54761904D02*
X61659524Y54666668D01*
D10*
X62230952Y55380952D02*
X62135716Y55333332D01*
D10*
X62373808Y55523808D02*
X62230952Y55380952D01*
D10*
X62373808Y54523808D02*
X62373808Y55523808D01*
D10*
X63040476Y55476192D02*
X63183332Y55523808D01*
D10*
X62992856Y55380952D02*
X63040476Y55476192D01*
D10*
X62992856Y55285716D02*
X62992856Y55380952D01*
D10*
X63040476Y55190476D02*
X62992856Y55285716D01*
D10*
X63135716Y55142856D02*
X63040476Y55190476D01*
D10*
X63326192Y55095240D02*
X63135716Y55142856D01*
D10*
X63469048Y55047620D02*
X63326192Y55095240D01*
D10*
X63564284Y54952380D02*
X63469048Y55047620D01*
D10*
X63611904Y54857144D02*
X63564284Y54952380D01*
D10*
X63611904Y54714284D02*
X63611904Y54857144D01*
D10*
X63564284Y54619048D02*
X63611904Y54714284D01*
D10*
X63516668Y54571428D02*
X63564284Y54619048D01*
D10*
X63373808Y54523808D02*
X63516668Y54571428D01*
D10*
X63183332Y54523808D02*
X63373808Y54523808D01*
D10*
X63040476Y54571428D02*
X63183332Y54523808D01*
D10*
X62992856Y54619048D02*
X63040476Y54571428D01*
D10*
X62945240Y54714284D02*
X62992856Y54619048D01*
D10*
X62945240Y54857144D02*
X62945240Y54714284D01*
D10*
X62992856Y54952380D02*
X62945240Y54857144D01*
D10*
X63088096Y55047620D02*
X62992856Y54952380D01*
D10*
X63230952Y55095240D02*
X63088096Y55047620D01*
D10*
X63421428Y55142856D02*
X63230952Y55095240D01*
D10*
X63516668Y55190476D02*
X63421428Y55142856D01*
D10*
X63564284Y55285716D02*
X63516668Y55190476D01*
D10*
X63564284Y55380952D02*
X63564284Y55285716D01*
D10*
X63516668Y55476192D02*
X63564284Y55380952D01*
D10*
X63373808Y55523808D02*
X63516668Y55476192D01*
D10*
X63183332Y55523808D02*
X63373808Y55523808D01*
D10*
X27748096Y39543808D02*
X27748096Y40543808D01*
D10*
X28176666Y40543808D02*
X27748096Y40543808D01*
D10*
X28319524Y40496192D02*
X28176666Y40543808D01*
D10*
X28367142Y40448572D02*
X28319524Y40496192D01*
D10*
X28414762Y40353332D02*
X28367142Y40448572D01*
D10*
X28414762Y40258096D02*
X28414762Y40353332D01*
D10*
X28367142Y40162856D02*
X28414762Y40258096D01*
D10*
X28319524Y40115240D02*
X28367142Y40162856D01*
D10*
X28176666Y40067620D02*
X28319524Y40115240D01*
D10*
X27748096Y40067620D02*
X28176666Y40067620D01*
D10*
X28414762Y39543808D02*
X28081428Y40067620D01*
D10*
X28890952Y39543808D02*
X29367142Y40543808D01*
D10*
X29367142Y40543808D02*
X28700476Y40543808D01*
D10*
X62433332Y37776192D02*
X62528572Y37823808D01*
D10*
X62338096Y37680952D02*
X62433332Y37776192D01*
D10*
X62290476Y37585716D02*
X62338096Y37680952D01*
D10*
X62242856Y37442856D02*
X62290476Y37585716D01*
D10*
X62242856Y37204760D02*
X62242856Y37442856D01*
D10*
X62290476Y37061904D02*
X62242856Y37204760D01*
D10*
X62338096Y36966668D02*
X62290476Y37061904D01*
D10*
X62433332Y36871428D02*
X62338096Y36966668D01*
D10*
X62528572Y36823808D02*
X62433332Y36871428D01*
D10*
X62719048Y36823808D02*
X62528572Y36823808D01*
D10*
X62814284Y36871428D02*
X62719048Y36823808D01*
D10*
X62909524Y36966668D02*
X62814284Y36871428D01*
D10*
X62957144Y37061904D02*
X62909524Y36966668D01*
D10*
X63004760Y37204760D02*
X62957144Y37061904D01*
D10*
X63004760Y37442856D02*
X63004760Y37204760D01*
D10*
X62957144Y37585716D02*
X63004760Y37442856D01*
D10*
X62909524Y37680952D02*
X62957144Y37585716D01*
D10*
X62814284Y37776192D02*
X62909524Y37680952D01*
D10*
X62719048Y37823808D02*
X62814284Y37776192D01*
D10*
X62528572Y37823808D02*
X62719048Y37823808D01*
D10*
X62957144Y36728572D02*
X62671428Y37014284D01*
D10*
X63909524Y37823808D02*
X63385716Y37823808D01*
D10*
X63623808Y37442856D02*
X63909524Y37823808D01*
D10*
X63766668Y37442856D02*
X63623808Y37442856D01*
D10*
X63861904Y37395240D02*
X63766668Y37442856D01*
D10*
X63909524Y37347620D02*
X63861904Y37395240D01*
D10*
X63957144Y37204760D02*
X63909524Y37347620D01*
D10*
X63957144Y37109524D02*
X63957144Y37204760D01*
D10*
X63909524Y36966668D02*
X63957144Y37109524D01*
D10*
X63814284Y36871428D02*
X63909524Y36966668D01*
D10*
X63671428Y36823808D02*
X63814284Y36871428D01*
D10*
X63528572Y36823808D02*
X63671428Y36823808D01*
D10*
X63385716Y36871428D02*
X63528572Y36823808D01*
D10*
X63338096Y36919048D02*
X63385716Y36871428D01*
D10*
X63290476Y37014284D02*
X63338096Y36919048D01*
D10*
X15288095Y43573808D02*
X15288095Y44573808D01*
D10*
X15716667Y44573808D02*
X15288095Y44573808D01*
D10*
X15859524Y44526192D02*
X15716667Y44573808D01*
D10*
X15907143Y44478572D02*
X15859524Y44526192D01*
D10*
X15954762Y44383332D02*
X15907143Y44478572D01*
D10*
X15954762Y44288096D02*
X15954762Y44383332D01*
D10*
X15907143Y44192856D02*
X15954762Y44288096D01*
D10*
X15859524Y44145240D02*
X15907143Y44192856D01*
D10*
X15716667Y44097620D02*
X15859524Y44145240D01*
D10*
X15288095Y44097620D02*
X15716667Y44097620D01*
D10*
X15954762Y43573808D02*
X15621429Y44097620D01*
D10*
X16811904Y44526192D02*
X16859524Y44430952D01*
D10*
X16669048Y44573808D02*
X16811904Y44526192D01*
D10*
X16573810Y44573808D02*
X16669048Y44573808D01*
D10*
X16430952Y44526192D02*
X16573810Y44573808D01*
D10*
X16335714Y44383332D02*
X16430952Y44526192D01*
D10*
X16288095Y44145240D02*
X16335714Y44383332D01*
D10*
X16288095Y43907144D02*
X16288095Y44145240D01*
D10*
X16335714Y43716668D02*
X16288095Y43907144D01*
D10*
X16430952Y43621428D02*
X16335714Y43716668D01*
D10*
X16573810Y43573808D02*
X16430952Y43621428D01*
D10*
X16621429Y43573808D02*
X16573810Y43573808D01*
D10*
X16764286Y43621428D02*
X16621429Y43573808D01*
D10*
X16859524Y43716668D02*
X16764286Y43621428D01*
D10*
X16907142Y43859524D02*
X16859524Y43716668D01*
D10*
X16907142Y43907144D02*
X16907142Y43859524D01*
D10*
X16859524Y44050000D02*
X16907142Y43907144D01*
D10*
X16764286Y44145240D02*
X16859524Y44050000D01*
D10*
X16621429Y44192856D02*
X16764286Y44145240D01*
D10*
X16573810Y44192856D02*
X16621429Y44192856D01*
D10*
X16430952Y44145240D02*
X16573810Y44192856D01*
D10*
X16335714Y44050000D02*
X16430952Y44145240D01*
D10*
X16288095Y43907144D02*
X16335714Y44050000D01*
D10*
X24076190Y34208096D02*
X23076190Y34208096D01*
D10*
X23076190Y34636668D02*
X23076190Y34208096D01*
D10*
X23123810Y34779524D02*
X23076190Y34636668D01*
D10*
X23171428Y34827144D02*
X23123810Y34779524D01*
D10*
X23266666Y34874760D02*
X23171428Y34827144D01*
D10*
X23361904Y34874760D02*
X23266666Y34874760D01*
D10*
X23457142Y34827144D02*
X23361904Y34874760D01*
D10*
X23504762Y34779524D02*
X23457142Y34827144D01*
D10*
X23552380Y34636668D02*
X23504762Y34779524D01*
D10*
X23552380Y34208096D02*
X23552380Y34636668D01*
D10*
X24076190Y34874760D02*
X23552380Y34541428D01*
D10*
X23552380Y35731904D02*
X23409524Y35779524D01*
D10*
X23647620Y35636668D02*
X23552380Y35731904D01*
D10*
X23695238Y35493808D02*
X23647620Y35636668D01*
D10*
X23695238Y35446192D02*
X23695238Y35493808D01*
D10*
X23647620Y35303332D02*
X23695238Y35446192D01*
D10*
X23552380Y35208096D02*
X23647620Y35303332D01*
D10*
X23409524Y35160476D02*
X23552380Y35208096D01*
D10*
X23361904Y35160476D02*
X23409524Y35160476D01*
D10*
X23219048Y35208096D02*
X23361904Y35160476D01*
D10*
X23123810Y35303332D02*
X23219048Y35208096D01*
D10*
X23076190Y35446192D02*
X23123810Y35303332D01*
D10*
X23076190Y35493808D02*
X23076190Y35446192D01*
D10*
X23123810Y35636668D02*
X23076190Y35493808D01*
D10*
X23219048Y35731904D02*
X23123810Y35636668D01*
D10*
X23409524Y35779524D02*
X23219048Y35731904D01*
D10*
X23647620Y35779524D02*
X23409524Y35779524D01*
D10*
X23885714Y35731904D02*
X23647620Y35779524D01*
D10*
X24028572Y35636668D02*
X23885714Y35731904D01*
D10*
X24076190Y35493808D02*
X24028572Y35636668D01*
D10*
X24076190Y35398572D02*
X24076190Y35493808D01*
D10*
X24028572Y35255716D02*
X24076190Y35398572D01*
D10*
X23933334Y35208096D02*
X24028572Y35255716D01*
D10*
X19223810Y40353332D02*
X19176190Y40448572D01*
D10*
X19319048Y40258096D02*
X19223810Y40353332D01*
D10*
X19414286Y40210476D02*
X19319048Y40258096D01*
D10*
X19557142Y40162856D02*
X19414286Y40210476D01*
D10*
X19795238Y40162856D02*
X19557142Y40162856D01*
D10*
X19938096Y40210476D02*
X19795238Y40162856D01*
D10*
X20033334Y40258096D02*
X19938096Y40210476D01*
D10*
X20128572Y40353332D02*
X20033334Y40258096D01*
D10*
X20176190Y40448572D02*
X20128572Y40353332D01*
D10*
X20176190Y40639048D02*
X20176190Y40448572D01*
D10*
X20128572Y40734284D02*
X20176190Y40639048D01*
D10*
X20033334Y40829524D02*
X20128572Y40734284D01*
D10*
X19938096Y40877144D02*
X20033334Y40829524D01*
D10*
X19795238Y40924760D02*
X19938096Y40877144D01*
D10*
X19557142Y40924760D02*
X19795238Y40924760D01*
D10*
X19414286Y40877144D02*
X19557142Y40924760D01*
D10*
X19319048Y40829524D02*
X19414286Y40877144D01*
D10*
X19223810Y40734284D02*
X19319048Y40829524D01*
D10*
X19176190Y40639048D02*
X19223810Y40734284D01*
D10*
X19176190Y40448572D02*
X19176190Y40639048D01*
D10*
X20271428Y40877144D02*
X19985714Y40591428D01*
D10*
X19366666Y41258096D02*
X19414286Y41258096D01*
D10*
X19271428Y41305716D02*
X19366666Y41258096D01*
D10*
X19223810Y41353332D02*
X19271428Y41305716D01*
D10*
X19176190Y41448572D02*
X19223810Y41353332D01*
D10*
X19176190Y41639048D02*
X19176190Y41448572D01*
D10*
X19223810Y41734284D02*
X19176190Y41639048D01*
D10*
X19271428Y41781904D02*
X19223810Y41734284D01*
D10*
X19366666Y41829524D02*
X19271428Y41781904D01*
D10*
X19461904Y41829524D02*
X19366666Y41829524D01*
D10*
X19557142Y41781904D02*
X19461904Y41829524D01*
D10*
X19700000Y41686668D02*
X19557142Y41781904D01*
D10*
X20176190Y41210476D02*
X19700000Y41686668D01*
D10*
X20176190Y41877144D02*
X20176190Y41210476D01*
D10*
X58104524Y26465952D02*
X58152144Y26370714D01*
D10*
X58009284Y26561190D02*
X58104524Y26465952D01*
D10*
X57914048Y26608810D02*
X58009284Y26561190D01*
D10*
X57723572Y26608810D02*
X57914048Y26608810D01*
D10*
X57628332Y26561190D02*
X57723572Y26608810D01*
D10*
X57533096Y26465952D02*
X57628332Y26561190D01*
D10*
X57485476Y26370714D02*
X57533096Y26465952D01*
D10*
X57437856Y26227858D02*
X57485476Y26370714D01*
D10*
X57437856Y25989762D02*
X57437856Y26227858D01*
D10*
X57485476Y25846904D02*
X57437856Y25989762D01*
D10*
X57533096Y25751666D02*
X57485476Y25846904D01*
D10*
X57628332Y25656428D02*
X57533096Y25751666D01*
D10*
X57723572Y25608810D02*
X57628332Y25656428D01*
D10*
X57914048Y25608810D02*
X57723572Y25608810D01*
D10*
X58009284Y25656428D02*
X57914048Y25608810D01*
D10*
X58104524Y25751666D02*
X58009284Y25656428D01*
D10*
X58152144Y25846904D02*
X58104524Y25751666D01*
D10*
X58533096Y26608810D02*
X59009284Y26608810D01*
D10*
X58485476Y26180238D02*
X58533096Y26608810D01*
D10*
X58533096Y26227858D02*
X58485476Y26180238D01*
D10*
X58675952Y26275476D02*
X58533096Y26227858D01*
D10*
X58818808Y26275476D02*
X58675952Y26275476D01*
D10*
X58961668Y26227858D02*
X58818808Y26275476D01*
D10*
X59056904Y26132620D02*
X58961668Y26227858D01*
D10*
X59104524Y25989762D02*
X59056904Y26132620D01*
D10*
X59104524Y25894524D02*
X59104524Y25989762D01*
D10*
X59056904Y25751666D02*
X59104524Y25894524D01*
D10*
X58961668Y25656428D02*
X59056904Y25751666D01*
D10*
X58818808Y25608810D02*
X58961668Y25656428D01*
D10*
X58675952Y25608810D02*
X58818808Y25608810D01*
D10*
X58533096Y25656428D02*
X58675952Y25608810D01*
D10*
X58485476Y25704048D02*
X58533096Y25656428D01*
D10*
X58437856Y25799286D02*
X58485476Y25704048D01*
D10*
X55609524Y56180952D02*
X55657144Y56085716D01*
D10*
X55514284Y56276192D02*
X55609524Y56180952D01*
D10*
X55419048Y56323808D02*
X55514284Y56276192D01*
D10*
X55228572Y56323808D02*
X55419048Y56323808D01*
D10*
X55133332Y56276192D02*
X55228572Y56323808D01*
D10*
X55038096Y56180952D02*
X55133332Y56276192D01*
D10*
X54990476Y56085716D02*
X55038096Y56180952D01*
D10*
X54942856Y55942856D02*
X54990476Y56085716D01*
D10*
X54942856Y55704760D02*
X54942856Y55942856D01*
D10*
X54990476Y55561904D02*
X54942856Y55704760D01*
D10*
X55038096Y55466668D02*
X54990476Y55561904D01*
D10*
X55133332Y55371428D02*
X55038096Y55466668D01*
D10*
X55228572Y55323808D02*
X55133332Y55371428D01*
D10*
X55419048Y55323808D02*
X55228572Y55323808D01*
D10*
X55514284Y55371428D02*
X55419048Y55323808D01*
D10*
X55609524Y55466668D02*
X55514284Y55371428D01*
D10*
X55657144Y55561904D02*
X55609524Y55466668D01*
D10*
X56180952Y56180952D02*
X56085716Y56133332D01*
D10*
X56323808Y56323808D02*
X56180952Y56180952D01*
D10*
X56323808Y55323808D02*
X56323808Y56323808D01*
D10*
X51920476Y18771810D02*
X51920476Y19771810D01*
D10*
X52349048Y19771810D02*
X51920476Y19771810D01*
D10*
X52491904Y19724190D02*
X52349048Y19771810D01*
D10*
X52539524Y19676572D02*
X52491904Y19724190D01*
D10*
X52587144Y19581334D02*
X52539524Y19676572D01*
D10*
X52587144Y19486096D02*
X52587144Y19581334D01*
D10*
X52539524Y19390858D02*
X52587144Y19486096D01*
D10*
X52491904Y19343238D02*
X52539524Y19390858D01*
D10*
X52349048Y19295620D02*
X52491904Y19343238D01*
D10*
X52349048Y19295620D02*
X51920476Y19295620D01*
D10*
X52491904Y19248000D02*
X52349048Y19295620D01*
D10*
X52539524Y19200380D02*
X52491904Y19248000D01*
D10*
X52587144Y19105142D02*
X52539524Y19200380D01*
D10*
X52587144Y18962286D02*
X52587144Y19105142D01*
D10*
X52539524Y18867048D02*
X52587144Y18962286D01*
D10*
X52491904Y18819428D02*
X52539524Y18867048D01*
D10*
X52349048Y18771810D02*
X52491904Y18819428D01*
D10*
X51920476Y18771810D02*
X52349048Y18771810D01*
D10*
X52920476Y18771810D02*
X52920476Y19771810D01*
D10*
X53349048Y19771810D02*
X52920476Y19771810D01*
D10*
X53491904Y19724190D02*
X53349048Y19771810D01*
D10*
X53539524Y19676572D02*
X53491904Y19724190D01*
D10*
X53587144Y19581334D02*
X53539524Y19676572D01*
D10*
X53587144Y19486096D02*
X53587144Y19581334D01*
D10*
X53539524Y19390858D02*
X53587144Y19486096D01*
D10*
X53491904Y19343238D02*
X53539524Y19390858D01*
D10*
X53349048Y19295620D02*
X53491904Y19343238D01*
D10*
X52920476Y19295620D02*
X53349048Y19295620D01*
D10*
X53587144Y18771810D02*
X53253808Y19295620D01*
D10*
X53920476Y18771810D02*
X53920476Y19771810D01*
D10*
X54920476Y19628952D02*
X54968096Y19533714D01*
D10*
X54825240Y19724190D02*
X54920476Y19628952D01*
D10*
X54730000Y19771810D02*
X54825240Y19724190D01*
D10*
X54539524Y19771810D02*
X54730000Y19771810D01*
D10*
X54444284Y19724190D02*
X54539524Y19771810D01*
D10*
X54349048Y19628952D02*
X54444284Y19724190D01*
D10*
X54301428Y19533714D02*
X54349048Y19628952D01*
D10*
X54253808Y19390858D02*
X54301428Y19533714D01*
D10*
X54253808Y19152762D02*
X54253808Y19390858D01*
D10*
X54301428Y19009904D02*
X54253808Y19152762D01*
D10*
X54349048Y18914666D02*
X54301428Y19009904D01*
D10*
X54444284Y18819428D02*
X54349048Y18914666D01*
D10*
X54539524Y18771810D02*
X54444284Y18819428D01*
D10*
X54730000Y18771810D02*
X54539524Y18771810D01*
D10*
X54825240Y18819428D02*
X54730000Y18771810D01*
D10*
X54920476Y18914666D02*
X54825240Y18819428D01*
D10*
X54968096Y19009904D02*
X54920476Y18914666D01*
D10*
X54968096Y19152762D02*
X54968096Y19009904D01*
D10*
X54968096Y19152762D02*
X54730000Y19152762D01*
D10*
X55301428Y18771810D02*
X55301428Y19771810D01*
D10*
X55968096Y18771810D02*
X55968096Y19771810D01*
D10*
X55968096Y19295620D02*
X55301428Y19295620D01*
D10*
X56539524Y18771810D02*
X56539524Y19771810D01*
D10*
X56872856Y19771810D02*
X56206192Y19771810D01*
D10*
X40190476Y16523810D02*
X40190476Y17523810D01*
D10*
X40619048Y17523810D02*
X40190476Y17523810D01*
D10*
X40761904Y17476190D02*
X40619048Y17523810D01*
D10*
X40809524Y17428572D02*
X40761904Y17476190D01*
D10*
X40857144Y17333334D02*
X40809524Y17428572D01*
D10*
X40857144Y17238096D02*
X40857144Y17333334D01*
D10*
X40809524Y17142858D02*
X40857144Y17238096D01*
D10*
X40761904Y17095238D02*
X40809524Y17142858D01*
D10*
X40619048Y17047620D02*
X40761904Y17095238D01*
D10*
X40190476Y17047620D02*
X40619048Y17047620D01*
D10*
X40857144Y16523810D02*
X40523808Y17047620D01*
D10*
X41142856Y16857142D02*
X41619048Y17523810D01*
D10*
X41857144Y16857142D02*
X41142856Y16857142D01*
D10*
X41619048Y16523810D02*
X41619048Y17523810D01*
D10*
X15288095Y46473808D02*
X15288095Y47473808D01*
D10*
X15716667Y47473808D02*
X15288095Y47473808D01*
D10*
X15859524Y47426192D02*
X15716667Y47473808D01*
D10*
X15907143Y47378572D02*
X15859524Y47426192D01*
D10*
X15954762Y47283332D02*
X15907143Y47378572D01*
D10*
X15954762Y47188096D02*
X15954762Y47283332D01*
D10*
X15907143Y47092856D02*
X15954762Y47188096D01*
D10*
X15859524Y47045240D02*
X15907143Y47092856D01*
D10*
X15716667Y46997620D02*
X15859524Y47045240D01*
D10*
X15288095Y46997620D02*
X15716667Y46997620D01*
D10*
X15954762Y46473808D02*
X15621429Y46997620D01*
D10*
X16335714Y47473808D02*
X16811904Y47473808D01*
D10*
X16288095Y47045240D02*
X16335714Y47473808D01*
D10*
X16335714Y47092856D02*
X16288095Y47045240D01*
D10*
X16478571Y47140476D02*
X16335714Y47092856D01*
D10*
X16621429Y47140476D02*
X16478571Y47140476D01*
D10*
X16764286Y47092856D02*
X16621429Y47140476D01*
D10*
X16859524Y46997620D02*
X16764286Y47092856D01*
D10*
X16907142Y46854760D02*
X16859524Y46997620D01*
D10*
X16907142Y46759524D02*
X16907142Y46854760D01*
D10*
X16859524Y46616668D02*
X16907142Y46759524D01*
D10*
X16764286Y46521428D02*
X16859524Y46616668D01*
D10*
X16621429Y46473808D02*
X16764286Y46521428D01*
D10*
X16478571Y46473808D02*
X16621429Y46473808D01*
D10*
X16335714Y46521428D02*
X16478571Y46473808D01*
D10*
X16288095Y46569048D02*
X16335714Y46521428D01*
D10*
X16240476Y46664284D02*
X16288095Y46569048D01*
D10*
X33376190Y22690476D02*
X32376190Y22690476D01*
D10*
X32376190Y23119048D02*
X32376190Y22690476D01*
D10*
X32423810Y23261904D02*
X32376190Y23119048D01*
D10*
X32471428Y23309524D02*
X32423810Y23261904D01*
D10*
X32566666Y23357142D02*
X32471428Y23309524D01*
D10*
X32661904Y23357142D02*
X32566666Y23357142D01*
D10*
X32757142Y23309524D02*
X32661904Y23357142D01*
D10*
X32804762Y23261904D02*
X32757142Y23309524D01*
D10*
X32852380Y23119048D02*
X32804762Y23261904D01*
D10*
X32852380Y22690476D02*
X32852380Y23119048D01*
D10*
X33376190Y23357142D02*
X32852380Y23023810D01*
D10*
X32566666Y23690476D02*
X32614286Y23690476D01*
D10*
X32471428Y23738096D02*
X32566666Y23690476D01*
D10*
X32423810Y23785714D02*
X32471428Y23738096D01*
D10*
X32376190Y23880952D02*
X32423810Y23785714D01*
D10*
X32376190Y24071428D02*
X32376190Y23880952D01*
D10*
X32423810Y24166666D02*
X32376190Y24071428D01*
D10*
X32471428Y24214286D02*
X32423810Y24166666D01*
D10*
X32566666Y24261904D02*
X32471428Y24214286D01*
D10*
X32661904Y24261904D02*
X32566666Y24261904D01*
D10*
X32757142Y24214286D02*
X32661904Y24261904D01*
D10*
X32900000Y24119048D02*
X32757142Y24214286D01*
D10*
X33376190Y23642858D02*
X32900000Y24119048D01*
D10*
X33376190Y24309524D02*
X33376190Y23642858D01*
D10*
X42309524Y25480952D02*
X42357144Y25385714D01*
D10*
X42214284Y25576190D02*
X42309524Y25480952D01*
D10*
X42119048Y25623810D02*
X42214284Y25576190D01*
D10*
X41928572Y25623810D02*
X42119048Y25623810D01*
D10*
X41833332Y25576190D02*
X41928572Y25623810D01*
D10*
X41738096Y25480952D02*
X41833332Y25576190D01*
D10*
X41690476Y25385714D02*
X41738096Y25480952D01*
D10*
X41642856Y25242858D02*
X41690476Y25385714D01*
D10*
X41642856Y25004762D02*
X41642856Y25242858D01*
D10*
X41690476Y24861904D02*
X41642856Y25004762D01*
D10*
X41738096Y24766666D02*
X41690476Y24861904D01*
D10*
X41833332Y24671428D02*
X41738096Y24766666D01*
D10*
X41928572Y24623810D02*
X41833332Y24671428D01*
D10*
X42119048Y24623810D02*
X41928572Y24623810D01*
D10*
X42214284Y24671428D02*
X42119048Y24623810D01*
D10*
X42309524Y24766666D02*
X42214284Y24671428D01*
D10*
X42357144Y24861904D02*
X42309524Y24766666D01*
D10*
X42738096Y25576190D02*
X42880952Y25623810D01*
D10*
X42690476Y25480952D02*
X42738096Y25576190D01*
D10*
X42690476Y25385714D02*
X42690476Y25480952D01*
D10*
X42738096Y25290476D02*
X42690476Y25385714D01*
D10*
X42833332Y25242858D02*
X42738096Y25290476D01*
D10*
X43023808Y25195238D02*
X42833332Y25242858D01*
D10*
X43166668Y25147620D02*
X43023808Y25195238D01*
D10*
X43261904Y25052380D02*
X43166668Y25147620D01*
D10*
X43309524Y24957142D02*
X43261904Y25052380D01*
D10*
X43309524Y24814286D02*
X43309524Y24957142D01*
D10*
X43261904Y24719048D02*
X43309524Y24814286D01*
D10*
X43214284Y24671428D02*
X43261904Y24719048D01*
D10*
X43071428Y24623810D02*
X43214284Y24671428D01*
D10*
X42880952Y24623810D02*
X43071428Y24623810D01*
D10*
X42738096Y24671428D02*
X42880952Y24623810D01*
D10*
X42690476Y24719048D02*
X42738096Y24671428D01*
D10*
X42642856Y24814286D02*
X42690476Y24719048D01*
D10*
X42642856Y24957142D02*
X42642856Y24814286D01*
D10*
X42690476Y25052380D02*
X42642856Y24957142D01*
D10*
X42785716Y25147620D02*
X42690476Y25052380D01*
D10*
X42928572Y25195238D02*
X42785716Y25147620D01*
D10*
X43119048Y25242858D02*
X42928572Y25195238D01*
D10*
X43214284Y25290476D02*
X43119048Y25242858D01*
D10*
X43261904Y25385714D02*
X43214284Y25290476D01*
D10*
X43261904Y25480952D02*
X43261904Y25385714D01*
D10*
X43214284Y25576190D02*
X43261904Y25480952D01*
D10*
X43071428Y25623810D02*
X43214284Y25576190D01*
D10*
X42880952Y25623810D02*
X43071428Y25623810D01*
D10*
X47766192Y36758096D02*
X46766192Y36758096D01*
D10*
X46766192Y37186668D02*
X46766192Y36758096D01*
D10*
X46813808Y37329524D02*
X46766192Y37186668D01*
D10*
X46861428Y37377144D02*
X46813808Y37329524D01*
D10*
X46956668Y37424760D02*
X46861428Y37377144D01*
D10*
X47051904Y37424760D02*
X46956668Y37424760D01*
D10*
X47147144Y37377144D02*
X47051904Y37424760D01*
D10*
X47194760Y37329524D02*
X47147144Y37377144D01*
D10*
X47242380Y37186668D02*
X47194760Y37329524D01*
D10*
X47242380Y36758096D02*
X47242380Y37186668D01*
D10*
X47766192Y37424760D02*
X47242380Y37091428D01*
D10*
X46909048Y37948572D02*
X46956668Y37853332D01*
D10*
X46766192Y38091428D02*
X46909048Y37948572D01*
D10*
X47766192Y38091428D02*
X46766192Y38091428D01*
D10*
X47766192Y45940476D02*
X46766192Y45940476D01*
D10*
X46766192Y46273808D02*
X46766192Y45940476D01*
D10*
X46813808Y46416668D02*
X46766192Y46273808D01*
D10*
X46909048Y46511904D02*
X46813808Y46416668D01*
D10*
X47004284Y46559524D02*
X46909048Y46511904D01*
D10*
X47147144Y46607144D02*
X47004284Y46559524D01*
D10*
X47385240Y46607144D02*
X47147144Y46607144D01*
D10*
X47528096Y46559524D02*
X47385240Y46607144D01*
D10*
X47623332Y46511904D02*
X47528096Y46559524D01*
D10*
X47718572Y46416668D02*
X47623332Y46511904D01*
D10*
X47766192Y46273808D02*
X47718572Y46416668D01*
D10*
X47766192Y45940476D02*
X47766192Y46273808D01*
D10*
X46909048Y47130952D02*
X46956668Y47035716D01*
D10*
X46766192Y47273808D02*
X46909048Y47130952D01*
D10*
X47766192Y47273808D02*
X46766192Y47273808D01*
D10*
X36706192Y35890476D02*
X35706192Y35890476D01*
D10*
X35849048Y36890476D02*
X35944284Y36938096D01*
D10*
X35753808Y36795240D02*
X35849048Y36890476D01*
D10*
X35706192Y36700000D02*
X35753808Y36795240D01*
D10*
X35706192Y36509524D02*
X35706192Y36700000D01*
D10*
X35753808Y36414284D02*
X35706192Y36509524D01*
D10*
X35849048Y36319048D02*
X35753808Y36414284D01*
D10*
X35944284Y36271428D02*
X35849048Y36319048D01*
D10*
X36087144Y36223808D02*
X35944284Y36271428D01*
D10*
X36325240Y36223808D02*
X36087144Y36223808D01*
D10*
X36468096Y36271428D02*
X36325240Y36223808D01*
D10*
X36563332Y36319048D02*
X36468096Y36271428D01*
D10*
X36658572Y36414284D02*
X36563332Y36319048D01*
D10*
X36706192Y36509524D02*
X36658572Y36414284D01*
D10*
X36706192Y36700000D02*
X36706192Y36509524D01*
D10*
X36658572Y36795240D02*
X36706192Y36700000D01*
D10*
X36563332Y36890476D02*
X36658572Y36795240D01*
D10*
X36468096Y36938096D02*
X36563332Y36890476D01*
D10*
X35849048Y37461904D02*
X35896668Y37366668D01*
D10*
X35706192Y37604760D02*
X35849048Y37461904D01*
D10*
X36706192Y37604760D02*
X35706192Y37604760D01*
D10*
X51933332Y76926192D02*
X52028572Y76973808D01*
D10*
X51838096Y76830952D02*
X51933332Y76926192D01*
D10*
X51790476Y76735712D02*
X51838096Y76830952D01*
D10*
X51742856Y76592856D02*
X51790476Y76735712D01*
D10*
X51742856Y76354760D02*
X51742856Y76592856D01*
D10*
X51790476Y76211904D02*
X51742856Y76354760D01*
D10*
X51838096Y76116664D02*
X51790476Y76211904D01*
D10*
X51933332Y76021432D02*
X51838096Y76116664D01*
D10*
X52028572Y75973808D02*
X51933332Y76021432D01*
D10*
X52219048Y75973808D02*
X52028572Y75973808D01*
D10*
X52314284Y76021432D02*
X52219048Y75973808D01*
D10*
X52409524Y76116664D02*
X52314284Y76021432D01*
D10*
X52457144Y76211904D02*
X52409524Y76116664D01*
D10*
X52504760Y76354760D02*
X52457144Y76211904D01*
D10*
X52504760Y76592856D02*
X52504760Y76354760D01*
D10*
X52457144Y76735712D02*
X52504760Y76592856D01*
D10*
X52409524Y76830952D02*
X52457144Y76735712D01*
D10*
X52314284Y76926192D02*
X52409524Y76830952D01*
D10*
X52219048Y76973808D02*
X52314284Y76926192D01*
D10*
X52028572Y76973808D02*
X52219048Y76973808D01*
D10*
X52838096Y76259520D02*
X52838096Y76973808D01*
D10*
X52885716Y76116664D02*
X52838096Y76259520D01*
D10*
X52980952Y76021432D02*
X52885716Y76116664D01*
D10*
X53123808Y75973808D02*
X52980952Y76021432D01*
D10*
X53219048Y75973808D02*
X53123808Y75973808D01*
D10*
X53361904Y76021432D02*
X53219048Y75973808D01*
D10*
X53457144Y76116664D02*
X53361904Y76021432D01*
D10*
X53504760Y76259520D02*
X53457144Y76116664D01*
D10*
X53504760Y76973808D02*
X53504760Y76259520D01*
D10*
X54076192Y75973808D02*
X54076192Y76973808D01*
D10*
X54409524Y76973808D02*
X53742856Y76973808D01*
D10*
X54647620Y75973808D02*
X54647620Y76973808D01*
D10*
X55076192Y76973808D02*
X54647620Y76973808D01*
D10*
X55219048Y76926192D02*
X55076192Y76973808D01*
D10*
X55266668Y76878568D02*
X55219048Y76926192D01*
D10*
X55314284Y76783336D02*
X55266668Y76878568D01*
D10*
X55314284Y76640480D02*
X55314284Y76783336D01*
D10*
X55266668Y76545240D02*
X55314284Y76640480D01*
D10*
X55219048Y76497616D02*
X55266668Y76545240D01*
D10*
X55076192Y76450000D02*
X55219048Y76497616D01*
D10*
X54647620Y76450000D02*
X55076192Y76450000D01*
D10*
X55647620Y76259520D02*
X55647620Y76973808D01*
D10*
X55695240Y76116664D02*
X55647620Y76259520D01*
D10*
X55790476Y76021432D02*
X55695240Y76116664D01*
D10*
X55933332Y75973808D02*
X55790476Y76021432D01*
D10*
X56028572Y75973808D02*
X55933332Y75973808D01*
D10*
X56171428Y76021432D02*
X56028572Y75973808D01*
D10*
X56266668Y76116664D02*
X56171428Y76021432D01*
D10*
X56314284Y76259520D02*
X56266668Y76116664D01*
D10*
X56314284Y76973808D02*
X56314284Y76259520D01*
D10*
X56885712Y75973808D02*
X56885712Y76973808D01*
D10*
X57219048Y76973808D02*
X56552380Y76973808D01*
D10*
X30590476Y19409524D02*
X30590476Y20123810D01*
D10*
X30638096Y19266666D02*
X30590476Y19409524D01*
D10*
X30733334Y19171428D02*
X30638096Y19266666D01*
D10*
X30876190Y19123810D02*
X30733334Y19171428D01*
D10*
X30971428Y19123810D02*
X30876190Y19123810D01*
D10*
X31114286Y19171428D02*
X30971428Y19123810D01*
D10*
X31209524Y19266666D02*
X31114286Y19171428D01*
D10*
X31257142Y19409524D02*
X31209524Y19266666D01*
D10*
X31257142Y20123810D02*
X31257142Y19409524D01*
D10*
X31828572Y19980952D02*
X31733334Y19933334D01*
D10*
X31971428Y20123810D02*
X31828572Y19980952D01*
D10*
X31971428Y19123810D02*
X31971428Y20123810D01*
D10*
X55609524Y46180952D02*
X55657144Y46085716D01*
D10*
X55514284Y46276192D02*
X55609524Y46180952D01*
D10*
X55419048Y46323808D02*
X55514284Y46276192D01*
D10*
X55228572Y46323808D02*
X55419048Y46323808D01*
D10*
X55133332Y46276192D02*
X55228572Y46323808D01*
D10*
X55038096Y46180952D02*
X55133332Y46276192D01*
D10*
X54990476Y46085716D02*
X55038096Y46180952D01*
D10*
X54942856Y45942856D02*
X54990476Y46085716D01*
D10*
X54942856Y45704760D02*
X54942856Y45942856D01*
D10*
X54990476Y45561904D02*
X54942856Y45704760D01*
D10*
X55038096Y45466668D02*
X54990476Y45561904D01*
D10*
X55133332Y45371428D02*
X55038096Y45466668D01*
D10*
X55228572Y45323808D02*
X55133332Y45371428D01*
D10*
X55419048Y45323808D02*
X55228572Y45323808D01*
D10*
X55514284Y45371428D02*
X55419048Y45323808D01*
D10*
X55609524Y45466668D02*
X55514284Y45371428D01*
D10*
X55657144Y45561904D02*
X55609524Y45466668D01*
D10*
X55990476Y46133332D02*
X55990476Y46085716D01*
D10*
X56038096Y46228572D02*
X55990476Y46133332D01*
D10*
X56085716Y46276192D02*
X56038096Y46228572D01*
D10*
X56180952Y46323808D02*
X56085716Y46276192D01*
D10*
X56371428Y46323808D02*
X56180952Y46323808D01*
D10*
X56466668Y46276192D02*
X56371428Y46323808D01*
D10*
X56514284Y46228572D02*
X56466668Y46276192D01*
D10*
X56561904Y46133332D02*
X56514284Y46228572D01*
D10*
X56561904Y46038096D02*
X56561904Y46133332D01*
D10*
X56514284Y45942856D02*
X56561904Y46038096D01*
D10*
X56419048Y45800000D02*
X56514284Y45942856D01*
D10*
X55942856Y45323808D02*
X56419048Y45800000D01*
D10*
X56609524Y45323808D02*
X55942856Y45323808D01*
D10*
X24031190Y19310476D02*
X23031190Y19310476D01*
D10*
X23031190Y19739048D02*
X23031190Y19310476D01*
D10*
X23078810Y19881904D02*
X23031190Y19739048D01*
D10*
X23126428Y19929524D02*
X23078810Y19881904D01*
D10*
X23221666Y19977142D02*
X23126428Y19929524D01*
D10*
X23316904Y19977142D02*
X23221666Y19977142D01*
D10*
X23412142Y19929524D02*
X23316904Y19977142D01*
D10*
X23459762Y19881904D02*
X23412142Y19929524D01*
D10*
X23507380Y19739048D02*
X23459762Y19881904D01*
D10*
X23507380Y19310476D02*
X23507380Y19739048D01*
D10*
X24031190Y19977142D02*
X23507380Y19643810D01*
D10*
X23031190Y20881904D02*
X23031190Y20358096D01*
D10*
X23412142Y20596190D02*
X23031190Y20881904D01*
D10*
X23412142Y20739048D02*
X23412142Y20596190D01*
D10*
X23459762Y20834286D02*
X23412142Y20739048D01*
D10*
X23507380Y20881904D02*
X23459762Y20834286D01*
D10*
X23650238Y20929524D02*
X23507380Y20881904D01*
D10*
X23745476Y20929524D02*
X23650238Y20929524D01*
D10*
X23888334Y20881904D02*
X23745476Y20929524D01*
D10*
X23983572Y20786666D02*
X23888334Y20881904D01*
D10*
X24031190Y20643810D02*
X23983572Y20786666D01*
D10*
X24031190Y20500952D02*
X24031190Y20643810D01*
D10*
X23983572Y20358096D02*
X24031190Y20500952D01*
D10*
X23935952Y20310476D02*
X23983572Y20358096D01*
D10*
X23840714Y20262858D02*
X23935952Y20310476D01*
D10*
X66526192Y36340476D02*
X65526192Y36340476D01*
D10*
X65526192Y36769048D02*
X65526192Y36340476D01*
D10*
X65573808Y36911904D02*
X65526192Y36769048D01*
D10*
X65621428Y36959524D02*
X65573808Y36911904D01*
D10*
X65716668Y37007144D02*
X65621428Y36959524D01*
D10*
X65811904Y37007144D02*
X65716668Y37007144D01*
D10*
X65907144Y36959524D02*
X65811904Y37007144D01*
D10*
X65954760Y36911904D02*
X65907144Y36959524D01*
D10*
X66002380Y36769048D02*
X65954760Y36911904D01*
D10*
X66002380Y36340476D02*
X66002380Y36769048D01*
D10*
X66526192Y37007144D02*
X66002380Y36673808D01*
D10*
X65669048Y37530952D02*
X65716668Y37435716D01*
D10*
X65526192Y37673808D02*
X65669048Y37530952D01*
D10*
X66526192Y37673808D02*
X65526192Y37673808D01*
D10*
X65573808Y38388096D02*
X65526192Y38530952D01*
D10*
X65716668Y38292856D02*
X65573808Y38388096D01*
D10*
X65954760Y38245240D02*
X65716668Y38292856D01*
D10*
X66097620Y38245240D02*
X65954760Y38245240D01*
D10*
X66335716Y38292856D02*
X66097620Y38245240D01*
D10*
X66478572Y38388096D02*
X66335716Y38292856D01*
D10*
X66526192Y38530952D02*
X66478572Y38388096D01*
D10*
X66526192Y38626192D02*
X66526192Y38530952D01*
D10*
X66478572Y38769048D02*
X66526192Y38626192D01*
D10*
X66335716Y38864284D02*
X66478572Y38769048D01*
D10*
X66097620Y38911904D02*
X66335716Y38864284D01*
D10*
X65954760Y38911904D02*
X66097620Y38911904D01*
D10*
X65716668Y38864284D02*
X65954760Y38911904D01*
D10*
X65573808Y38769048D02*
X65716668Y38864284D01*
D10*
X65526192Y38626192D02*
X65573808Y38769048D01*
D10*
X65526192Y38530952D02*
X65526192Y38626192D01*
D10*
X23990476Y75973808D02*
X23990476Y76973808D01*
D10*
X24371428Y75973808D02*
X24371428Y76973808D01*
D10*
X25038096Y75973808D02*
X24371428Y76973808D01*
D10*
X25038096Y75973808D02*
X25038096Y76973808D01*
D10*
X25419048Y75973808D02*
X25419048Y76973808D01*
D10*
X25847620Y76973808D02*
X25419048Y76973808D01*
D10*
X25990476Y76926192D02*
X25847620Y76973808D01*
D10*
X26038096Y76878568D02*
X25990476Y76926192D01*
D10*
X26085714Y76783336D02*
X26038096Y76878568D01*
D10*
X26085714Y76640480D02*
X26085714Y76783336D01*
D10*
X26038096Y76545240D02*
X26085714Y76640480D01*
D10*
X25990476Y76497616D02*
X26038096Y76545240D01*
D10*
X25847620Y76450000D02*
X25990476Y76497616D01*
D10*
X25419048Y76450000D02*
X25847620Y76450000D01*
D10*
X26419048Y76259520D02*
X26419048Y76973808D01*
D10*
X26466666Y76116664D02*
X26419048Y76259520D01*
D10*
X26561904Y76021432D02*
X26466666Y76116664D01*
D10*
X26704762Y75973808D02*
X26561904Y76021432D01*
D10*
X26800000Y75973808D02*
X26704762Y75973808D01*
D10*
X26942856Y76021432D02*
X26800000Y75973808D01*
D10*
X27038096Y76116664D02*
X26942856Y76021432D01*
D10*
X27085714Y76259520D02*
X27038096Y76116664D01*
D10*
X27085714Y76973808D02*
X27085714Y76259520D01*
D10*
X27657142Y75973808D02*
X27657142Y76973808D01*
D10*
X27990476Y76973808D02*
X27323810Y76973808D01*
D10*
X36509048Y22207142D02*
X36604284Y22254762D01*
D10*
X36413808Y22111904D02*
X36509048Y22207142D01*
D10*
X36366192Y22016666D02*
X36413808Y22111904D01*
D10*
X36366192Y21826190D02*
X36366192Y22016666D01*
D10*
X36413808Y21730952D02*
X36366192Y21826190D01*
D10*
X36509048Y21635714D02*
X36413808Y21730952D01*
D10*
X36604284Y21588096D02*
X36509048Y21635714D01*
D10*
X36747144Y21540476D02*
X36604284Y21588096D01*
D10*
X36985240Y21540476D02*
X36747144Y21540476D01*
D10*
X37128096Y21588096D02*
X36985240Y21540476D01*
D10*
X37223332Y21635714D02*
X37128096Y21588096D01*
D10*
X37318572Y21730952D02*
X37223332Y21635714D01*
D10*
X37366192Y21826190D02*
X37318572Y21730952D01*
D10*
X37366192Y22016666D02*
X37366192Y21826190D01*
D10*
X37318572Y22111904D02*
X37366192Y22016666D01*
D10*
X37223332Y22207142D02*
X37318572Y22111904D01*
D10*
X37128096Y22254762D02*
X37223332Y22207142D01*
D10*
X36842380Y23111904D02*
X36699524Y23159524D01*
D10*
X36937620Y23016666D02*
X36842380Y23111904D01*
D10*
X36985240Y22873810D02*
X36937620Y23016666D01*
D10*
X36985240Y22826190D02*
X36985240Y22873810D01*
D10*
X36937620Y22683334D02*
X36985240Y22826190D01*
D10*
X36842380Y22588096D02*
X36937620Y22683334D01*
D10*
X36699524Y22540476D02*
X36842380Y22588096D01*
D10*
X36651904Y22540476D02*
X36699524Y22540476D01*
D10*
X36509048Y22588096D02*
X36651904Y22540476D01*
D10*
X36413808Y22683334D02*
X36509048Y22588096D01*
D10*
X36366192Y22826190D02*
X36413808Y22683334D01*
D10*
X36366192Y22873810D02*
X36366192Y22826190D01*
D10*
X36413808Y23016666D02*
X36366192Y22873810D01*
D10*
X36509048Y23111904D02*
X36413808Y23016666D01*
D10*
X36699524Y23159524D02*
X36509048Y23111904D01*
D10*
X36937620Y23159524D02*
X36699524Y23159524D01*
D10*
X37175716Y23111904D02*
X36937620Y23159524D01*
D10*
X37318572Y23016666D02*
X37175716Y23111904D01*
D10*
X37366192Y22873810D02*
X37318572Y23016666D01*
D10*
X37366192Y22778572D02*
X37366192Y22873810D01*
D10*
X37318572Y22635714D02*
X37366192Y22778572D01*
D10*
X37223332Y22588096D02*
X37318572Y22635714D01*
D10*
X21019048Y48809524D02*
X21114286Y48857144D01*
D10*
X20923810Y48714284D02*
X21019048Y48809524D01*
D10*
X20876190Y48619048D02*
X20923810Y48714284D01*
D10*
X20876190Y48428572D02*
X20876190Y48619048D01*
D10*
X20923810Y48333332D02*
X20876190Y48428572D01*
D10*
X21019048Y48238096D02*
X20923810Y48333332D01*
D10*
X21114286Y48190476D02*
X21019048Y48238096D01*
D10*
X21257142Y48142856D02*
X21114286Y48190476D01*
D10*
X21495238Y48142856D02*
X21257142Y48142856D01*
D10*
X21638096Y48190476D02*
X21495238Y48142856D01*
D10*
X21733334Y48238096D02*
X21638096Y48190476D01*
D10*
X21828572Y48333332D02*
X21733334Y48238096D01*
D10*
X21876190Y48428572D02*
X21828572Y48333332D01*
D10*
X21876190Y48619048D02*
X21876190Y48428572D01*
D10*
X21828572Y48714284D02*
X21876190Y48619048D01*
D10*
X21733334Y48809524D02*
X21828572Y48714284D01*
D10*
X21638096Y48857144D02*
X21733334Y48809524D01*
D10*
X21019048Y49380952D02*
X21066666Y49285716D01*
D10*
X20876190Y49523808D02*
X21019048Y49380952D01*
D10*
X21876190Y49523808D02*
X20876190Y49523808D01*
D10*
X21066666Y50142856D02*
X21114286Y50142856D01*
D10*
X20971428Y50190476D02*
X21066666Y50142856D01*
D10*
X20923810Y50238096D02*
X20971428Y50190476D01*
D10*
X20876190Y50333332D02*
X20923810Y50238096D01*
D10*
X20876190Y50523808D02*
X20876190Y50333332D01*
D10*
X20923810Y50619048D02*
X20876190Y50523808D01*
D10*
X20971428Y50666668D02*
X20923810Y50619048D01*
D10*
X21066666Y50714284D02*
X20971428Y50666668D01*
D10*
X21161904Y50714284D02*
X21066666Y50714284D01*
D10*
X21257142Y50666668D02*
X21161904Y50714284D01*
D10*
X21400000Y50571428D02*
X21257142Y50666668D01*
D10*
X21876190Y50095240D02*
X21400000Y50571428D01*
D10*
X21876190Y50761904D02*
X21876190Y50095240D01*
D11*
X41715000Y50570000D02*
X41165000Y50570000D01*
D11*
X39990000Y50845000D02*
X39990000Y51870000D01*
D11*
X42890000Y51870000D02*
X42890000Y50845000D01*
D11*
X42115000Y51870000D02*
X42890000Y51870000D01*
D11*
X39990000Y51870000D02*
X40765000Y51870000D01*
D11*
X42410000Y20950000D02*
X43260000Y20100000D01*
D11*
X43260000Y20100000D02*
X42410000Y20950000D01*
D11*
X45860000Y20100000D02*
X46710000Y20950000D01*
D11*
X45860000Y20100000D02*
X45585000Y20100000D01*
D11*
X42410000Y24400000D02*
X43535000Y24400000D01*
D11*
X42410000Y24400000D02*
X42410000Y20950000D01*
D11*
X42410000Y20950000D02*
X43260000Y20100000D01*
D11*
X46710000Y24400000D02*
X45585000Y24400000D01*
D11*
X43260000Y20100000D02*
X43530000Y20100000D01*
D11*
X43260000Y20100000D02*
X43260000Y20100000D01*
D11*
X46710000Y20950000D02*
X46710000Y24400000D01*
D11*
X37200000Y34850000D02*
X37200000Y38830000D01*
D11*
X42200000Y38830000D02*
X42200000Y34850000D01*
D11*
X37200000Y35490000D02*
X42200000Y35490000D01*
D11*
X44690000Y50770000D02*
X44690000Y50970000D01*
D11*
X43890000Y50770000D02*
X43890000Y50970000D01*
D11*
X26425000Y39595000D02*
X25875000Y39595000D01*
D11*
X26425000Y40445000D02*
X25875000Y40445000D01*
D11*
X42310000Y48210000D02*
X42310000Y45935000D01*
D11*
X35710000Y42910000D02*
X35710000Y43885000D01*
D11*
X35710000Y46910000D02*
X35710000Y45935000D01*
D11*
X35710000Y46910000D02*
X37010000Y48210000D01*
D11*
X42310000Y41610000D02*
X42310000Y43885000D01*
D11*
X37010000Y41610000D02*
X35710000Y42910000D01*
D11*
X37010000Y48210000D02*
X42310000Y48210000D01*
D11*
X42310000Y41610000D02*
X37010000Y41610000D01*
D11*
X23400000Y45525000D02*
X23400000Y50825000D01*
D11*
X24700000Y44225000D02*
X23400000Y45525000D01*
D11*
X30000000Y50825000D02*
X27725000Y50825000D01*
D11*
X23400000Y50825000D02*
X25675000Y50825000D01*
D11*
X24700000Y44225000D02*
X25675000Y44225000D01*
D11*
X30000000Y45525000D02*
X28700000Y44225000D01*
D11*
X30000000Y50825000D02*
X30000000Y45525000D01*
D11*
X28700000Y44225000D02*
X27725000Y44225000D01*
D11*
X48760000Y21250000D02*
X48760000Y21450000D01*
D11*
X47960000Y21250000D02*
X47960000Y21450000D01*
D11*
X54450000Y21250000D02*
X54450000Y21450000D01*
D11*
X53650000Y21250000D02*
X53650000Y21450000D01*
D11*
X46110000Y49150000D02*
X45790000Y49150000D01*
D11*
X45815000Y50825000D02*
X48765000Y50825000D01*
D11*
X45815000Y50875000D02*
X48765000Y50875000D01*
D11*
X48790000Y49150000D02*
X48470000Y49150000D01*
D11*
X45790000Y49150000D02*
X45790000Y53550000D01*
D11*
X45790000Y53550000D02*
X46110000Y53550000D01*
D11*
X48790000Y53550000D02*
X48790000Y49150000D01*
D11*
X45815000Y50775000D02*
X48765000Y50775000D01*
D11*
X45815000Y50925000D02*
X48765000Y50925000D01*
D11*
X48470000Y53550000D02*
X48790000Y53550000D01*
D11*
X18725000Y46525000D02*
X18175000Y46525000D01*
D11*
X18725000Y47375000D02*
X18175000Y47375000D01*
D11*
X43775000Y16200000D02*
X45425000Y16200000D01*
D11*
X43775000Y17800000D02*
X45425000Y17800000D01*
D11*
X39635000Y30630000D02*
X40885000Y30630000D01*
D11*
X39635000Y32230000D02*
X40885000Y32230000D01*
D11*
X20100000Y86900000D02*
X20100000Y91000000D01*
D11*
X30100000Y66000000D02*
X30100000Y62100000D01*
D11*
X15600000Y66000000D02*
X15600000Y86900000D01*
D11*
X20100000Y91000000D02*
X31100000Y91000000D01*
D11*
X15600000Y86900000D02*
X20100000Y86900000D01*
D11*
X35600000Y66000000D02*
X30100000Y66000000D01*
D11*
X30100000Y62100000D02*
X21100000Y62100000D01*
D11*
X31100000Y91000000D02*
X31100000Y86900000D01*
D11*
X21100000Y66000000D02*
X15600000Y66000000D01*
D11*
X21100000Y62100000D02*
X21100000Y66000000D01*
D11*
X31100000Y86900000D02*
X35600000Y86900000D01*
D11*
X35600000Y86900000D02*
X35600000Y66000000D01*
D11*
X49960000Y11430000D02*
X40060000Y11430000D01*
D11*
X40060000Y15430000D02*
X49960000Y15430000D01*
D11*
X40060000Y11430000D02*
X40060000Y15430000D01*
D11*
X49960000Y15430000D02*
X49960000Y11430000D01*
D11*
X22200000Y37270000D02*
X22200000Y37470000D01*
D11*
X21400000Y37270000D02*
X21400000Y37470000D01*
D11*
X18725000Y43625000D02*
X18175000Y43625000D01*
D11*
X18725000Y44475000D02*
X18175000Y44475000D01*
D11*
X61525000Y52200000D02*
X62775000Y52200000D01*
D11*
X61525000Y53800000D02*
X62775000Y53800000D01*
D11*
X29900000Y24570000D02*
X29900000Y23595000D01*
D11*
X27700000Y23595000D02*
X27700000Y24570000D01*
D11*
X27700000Y24570000D02*
X28225000Y24570000D01*
D11*
X29375000Y24570000D02*
X29900000Y24570000D01*
D11*
X28875000Y23170000D02*
X28725000Y23170000D01*
D11*
X30945000Y23095000D02*
X30945000Y23645000D01*
D11*
X31795000Y23095000D02*
X31795000Y23645000D01*
D11*
X62825000Y40750000D02*
X63375000Y40750000D01*
D11*
X64550000Y40475000D02*
X64550000Y39450000D01*
D11*
X61650000Y39450000D02*
X61650000Y40475000D01*
D11*
X62425000Y39450000D02*
X61650000Y39450000D01*
D11*
X64550000Y39450000D02*
X63775000Y39450000D01*
D11*
X37200000Y53900000D02*
X37150000Y63900000D01*
D11*
X31750000Y63900000D02*
X38250000Y63900000D01*
D11*
X31750000Y60850000D02*
X31750000Y62050000D01*
D11*
X38250000Y63900000D02*
X38250000Y63350000D01*
D11*
X38250000Y56950000D02*
X38250000Y55750000D01*
D11*
X31750000Y55750000D02*
X31750000Y56950000D01*
D11*
X38250000Y53900000D02*
X31750000Y53900000D01*
D11*
X38250000Y60850000D02*
X38250000Y62050000D01*
D11*
X38250000Y59500000D02*
X38250000Y58300000D01*
D11*
X31750000Y63400000D02*
X31750000Y63900000D01*
D11*
X31750000Y58300000D02*
X31750000Y59500000D01*
D11*
X38250000Y54450000D02*
X38250000Y53900000D01*
D11*
X31750000Y53900000D02*
X31750000Y54450000D01*
D11*
X60575000Y40725000D02*
X60575000Y40175000D01*
D11*
X59725000Y40725000D02*
X59725000Y40175000D01*
D11*
X46490000Y41645000D02*
X46490000Y39995000D01*
D11*
X48090000Y41645000D02*
X48090000Y39995000D01*
D11*
X24625000Y19825000D02*
X24625000Y20375000D01*
D11*
X25475000Y19825000D02*
X25475000Y20375000D01*
D11*
X43200000Y71750000D02*
X43200000Y66000000D01*
D11*
X38200000Y71750000D02*
X35800000Y71750000D01*
D11*
X43200000Y71750000D02*
X40800000Y71750000D01*
D11*
X35800000Y66000000D02*
X35800000Y71750000D01*
D11*
X43200000Y66000000D02*
X35800000Y66000000D01*
D11*
X28950000Y21350000D02*
X28950000Y16050000D01*
D11*
X28300000Y16050000D02*
X33700000Y16050000D01*
D11*
X33700000Y21350000D02*
X28300000Y21350000D01*
D11*
X23280000Y13970000D02*
X38520000Y13970000D01*
D11*
X38520000Y11430000D02*
X23280000Y11430000D01*
D11*
X23280000Y11430000D02*
X23280000Y13970000D01*
D11*
X38520000Y13970000D02*
X38520000Y11430000D01*
D11*
X23150000Y41245000D02*
X23150000Y40695000D01*
D11*
X22875000Y39520000D02*
X21850000Y39520000D01*
D11*
X21850000Y42420000D02*
X22875000Y42420000D01*
D11*
X21850000Y41645000D02*
X21850000Y42420000D01*
D11*
X21850000Y39520000D02*
X21850000Y40295000D01*
D11*
X50340000Y45120000D02*
X52615000Y45120000D01*
D11*
X55640000Y38520000D02*
X54665000Y38520000D01*
D11*
X51640000Y38520000D02*
X52615000Y38520000D01*
D11*
X51640000Y38520000D02*
X50340000Y39820000D01*
D11*
X56940000Y45120000D02*
X54665000Y45120000D01*
D11*
X56940000Y39820000D02*
X55640000Y38520000D01*
D11*
X50340000Y39820000D02*
X50340000Y45120000D01*
D11*
X56940000Y45120000D02*
X56940000Y39820000D01*
D11*
X40370000Y56250000D02*
X44070000Y56250000D01*
D11*
X40370000Y60200000D02*
X40370000Y55700000D01*
D11*
X41570000Y60200000D02*
X42870000Y60200000D01*
D11*
X41570000Y55700000D02*
X42870000Y55700000D01*
D11*
X44070000Y55700000D02*
X44070000Y60200000D01*
D11*
X29600000Y35745000D02*
X29600000Y36995000D01*
D11*
X28000000Y35745000D02*
X28000000Y36995000D01*
D11*
X58850000Y44900000D02*
X58850000Y50200000D01*
D11*
X60150000Y43600000D02*
X58850000Y44900000D01*
D11*
X65450000Y50200000D02*
X63175000Y50200000D01*
D11*
X58850000Y50200000D02*
X61125000Y50200000D01*
D11*
X60150000Y43600000D02*
X61125000Y43600000D01*
D11*
X65450000Y44900000D02*
X64150000Y43600000D01*
D11*
X65450000Y50200000D02*
X65450000Y44900000D01*
D11*
X64150000Y43600000D02*
X63175000Y43600000D01*
D11*
X50340000Y55100000D02*
X52615000Y55100000D01*
D11*
X55640000Y48500000D02*
X54665000Y48500000D01*
D11*
X51640000Y48500000D02*
X52615000Y48500000D01*
D11*
X51640000Y48500000D02*
X50340000Y49800000D01*
D11*
X56940000Y55100000D02*
X54665000Y55100000D01*
D11*
X56940000Y49800000D02*
X55640000Y48500000D01*
D11*
X50340000Y49800000D02*
X50340000Y55100000D01*
D11*
X56940000Y55100000D02*
X56940000Y49800000D01*
D11*
X51475000Y21050000D02*
X50925000Y21050000D01*
D11*
X49750000Y21325000D02*
X49750000Y22350000D01*
D11*
X52650000Y22350000D02*
X52650000Y21325000D01*
D11*
X51875000Y22350000D02*
X52650000Y22350000D01*
D11*
X49750000Y22350000D02*
X50525000Y22350000D01*
D11*
X37925000Y50520000D02*
X37725000Y50520000D01*
D11*
X37925000Y49720000D02*
X37725000Y49720000D01*
D11*
X59500000Y11430000D02*
X59500000Y17180000D01*
D11*
X64500000Y11430000D02*
X66900000Y11430000D01*
D11*
X59500000Y11430000D02*
X61900000Y11430000D01*
D11*
X66900000Y17180000D02*
X66900000Y11430000D01*
D11*
X59500000Y17180000D02*
X66900000Y17180000D01*
D11*
X22200000Y44875000D02*
X22200000Y46125000D01*
D11*
X20600000Y44875000D02*
X20600000Y46125000D01*
D11*
X26750000Y35745000D02*
X26750000Y36995000D01*
D11*
X25150000Y35745000D02*
X25150000Y36995000D01*
D11*
X38325000Y51865000D02*
X38325000Y51640000D01*
D11*
X38325000Y52940000D02*
X38325000Y52715000D01*
D11*
X37800000Y51665000D02*
X37800000Y52915000D01*
D11*
X36625000Y52940000D02*
X38325000Y52940000D01*
D11*
X38325000Y51640000D02*
X36625000Y51640000D01*
D11*
X36625000Y52715000D02*
X36625000Y52940000D01*
D11*
X36625000Y51640000D02*
X36625000Y51865000D01*
D11*
X37900000Y51665000D02*
X37900000Y52915000D01*
D11*
X37850000Y51665000D02*
X37850000Y52915000D01*
D11*
X24025000Y37645000D02*
X24025000Y37095000D01*
D11*
X23175000Y37645000D02*
X23175000Y37095000D01*
D11*
X25875000Y42345000D02*
X26425000Y42345000D01*
D11*
X25875000Y41495000D02*
X26425000Y41495000D01*
D11*
X57600000Y18430000D02*
X57600000Y11430000D01*
D11*
X51000000Y11430000D02*
X51000000Y18430000D01*
D11*
X57600000Y11430000D02*
X51000000Y11430000D01*
D11*
X51000000Y18430000D02*
X57600000Y18430000D01*
D11*
X65625000Y40175000D02*
X65625000Y40725000D01*
D11*
X66475000Y40175000D02*
X66475000Y40725000D01*
D11*
X57300000Y24750000D02*
X56450000Y23900000D01*
D11*
X56450000Y23900000D02*
X57300000Y24750000D01*
D11*
X56450000Y21300000D02*
X57300000Y20450000D01*
D11*
X56450000Y21300000D02*
X56450000Y21575000D01*
D11*
X60750000Y24750000D02*
X60750000Y23625000D01*
D11*
X60750000Y24750000D02*
X57300000Y24750000D01*
D11*
X57300000Y24750000D02*
X56450000Y23900000D01*
D11*
X60750000Y20450000D02*
X60750000Y21575000D01*
D11*
X56450000Y23900000D02*
X56450000Y23630000D01*
D11*
X56450000Y23900000D02*
X56450000Y23900000D01*
D11*
X57300000Y20450000D02*
X60750000Y20450000D01*
D11*
X36490000Y19950000D02*
X36490000Y19750000D01*
D11*
X37290000Y19950000D02*
X37290000Y19750000D01*
D11*
X47900000Y86900000D02*
X47900000Y91000000D01*
D11*
X57900000Y66000000D02*
X57900000Y62100000D01*
D11*
X43400000Y66000000D02*
X43400000Y86900000D01*
D11*
X47900000Y91000000D02*
X58900000Y91000000D01*
D11*
X43400000Y86900000D02*
X47900000Y86900000D01*
D11*
X63400000Y66000000D02*
X57900000Y66000000D01*
D11*
X57900000Y62100000D02*
X48900000Y62100000D01*
D11*
X58900000Y91000000D02*
X58900000Y86900000D01*
D11*
X48900000Y66000000D02*
X43400000Y66000000D01*
D11*
X48900000Y62100000D02*
X48900000Y66000000D01*
D11*
X58900000Y86900000D02*
X63400000Y86900000D01*
D11*
X63400000Y86900000D02*
X63400000Y66000000D01*
D11*
X12100000Y11430000D02*
X12100000Y17180000D01*
D11*
X17100000Y11430000D02*
X19500000Y11430000D01*
D11*
X12100000Y11430000D02*
X14500000Y11430000D01*
D11*
X19500000Y17180000D02*
X19500000Y11430000D01*
D11*
X12100000Y17180000D02*
X19500000Y17180000D01*
G75*
M02*
