M48
FMAT,2
METRIC,TZ
T8C0.350
T1C0.500
T7C0.600
T9C0.800
T6C0.900
T4C1.000
T5C1.400
T3C1.500
T2C3.000
%
G90
G05
M71
T8
X127.200Y38.600
X88.333Y24.100
X94.666Y79.900
X126.331Y67.500
X106.100Y48.000
X115.700Y62.800
X113.665Y42.700
X132.664Y73.700
X107.332Y36.500
X93.166Y55.100
X119.998Y79.900
X88.333Y36.500
X101.099Y18.300
X100.999Y79.900
X111.900Y63.100
X132.664Y17.900
X132.700Y39.000
X134.950Y49.500
X94.666Y35.500
X121.900Y29.200
X101.800Y31.500
X101.000Y25.800
X138.997Y73.700
X128.500Y41.100
X122.200Y24.100
X127.831Y29.700
X88.700Y48.150
X126.440Y44.420
X115.570Y61.100
X100.099Y33.200
X107.332Y73.700
X133.264Y30.300
X132.664Y61.300
X88.333Y17.900
X100.999Y43.100
X122.940Y54.400
X97.700Y52.425
X82.000Y11.000
X88.333Y67.500
X114.365Y31.400
X88.700Y42.850
X99.399Y55.100
X101.399Y36.500
X113.665Y48.900
X103.500Y40.900
X119.998Y86.233
X122.700Y50.400
X101.000Y29.000
X131.164Y42.700
X88.333Y55.100
X88.333Y79.900
X107.332Y23.600
X126.331Y79.900
X131.450Y49.500
X100.999Y48.900
X122.400Y40.700
X104.900Y50.900
X132.664Y86.233
X119.998Y11.000
X82.000Y48.900
X118.290Y55.700
X121.900Y32.200
X138.997Y42.700
X119.998Y73.700
X119.998Y17.900
X135.600Y42.700
X120.090Y53.500
X113.665Y86.233
X126.331Y11.000
X94.666Y43.200
X132.664Y37.200
X96.700Y16.800
X103.500Y48.900
X94.666Y86.233
X113.665Y37.900
X119.300Y30.700
X125.631Y36.500
X82.000Y79.900
X138.997Y67.500
X138.997Y24.100
X107.400Y40.900
X88.333Y61.300
X113.370Y54.800
X100.999Y73.700
X94.666Y24.100
X132.664Y55.100
X82.000Y67.500
X98.700Y29.000
X113.960Y23.900
X103.500Y36.500
X126.331Y73.700
X121.900Y37.600
X122.598Y61.300
X111.240Y52.320
X101.000Y40.900
X105.800Y15.700
X92.800Y39.600
X87.000Y32.900
X88.333Y11.000
X138.997Y17.900
X127.800Y32.200
X119.600Y46.600
X115.600Y63.900
X82.000Y36.500
X94.666Y73.700
X103.450Y18.090
X107.410Y43.110
X119.300Y27.000
X123.850Y22.100
X100.999Y86.233
X94.666Y61.300
X107.410Y46.610
X132.700Y34.900
X120.100Y50.400
X114.470Y59.400
X112.265Y18.000
X100.999Y67.500
X107.332Y79.900
X98.530Y60.170
X119.998Y67.500
X82.000Y73.700
X100.450Y21.620
X107.932Y31.400
X119.360Y23.300
X132.664Y79.900
X94.666Y30.300
X111.340Y35.670
X100.999Y11.000
X138.997Y30.300
X82.000Y42.700
X138.997Y48.900
X94.666Y11.000
X107.332Y61.300
X113.600Y26.900
X88.333Y73.700
X94.666Y67.500
X126.340Y54.400
X113.000Y62.700
X107.332Y86.233
X82.000Y30.300
X115.365Y67.500
X107.932Y54.900
X113.500Y65.600
X82.000Y17.900
X103.500Y43.100
X132.664Y67.500
X100.999Y61.300
X87.933Y30.400
X138.997Y11.000
X113.665Y79.900
X82.000Y24.100
X102.370Y25.500
X107.332Y67.500
X106.400Y53.800
X126.331Y86.233
X105.110Y52.290
X88.333Y86.233
X125.831Y24.300
X94.666Y48.900
X138.997Y79.900
X113.370Y61.100
X99.800Y26.600
X115.290Y52.820
X131.250Y24.200
X107.332Y11.000
X119.300Y37.600
X104.600Y30.400
X113.665Y11.000
X82.000Y55.100
X126.531Y49.100
X113.700Y46.600
X127.431Y61.300
X115.570Y54.800
X132.664Y11.000
X109.100Y19.100
X103.500Y52.300
X138.997Y61.300
X135.600Y39.600
X124.640Y46.820
X103.450Y15.750
X138.997Y36.500
X90.800Y45.500
X105.300Y56.300
X138.997Y55.100
X113.665Y73.700
X108.075Y48.920
X126.331Y17.900
X114.470Y56.500
X98.100Y14.400
X82.000Y61.300
X122.840Y44.420
X56.200Y38.600
X17.333Y24.100
X23.666Y79.900
X55.331Y67.500
X35.100Y48.000
X44.700Y62.800
X42.665Y42.700
X61.664Y73.700
X36.332Y36.500
X22.166Y55.100
X48.998Y79.900
X17.333Y36.500
X30.099Y18.300
X29.999Y79.900
X40.900Y63.100
X61.664Y17.900
X61.700Y39.000
X63.950Y49.500
X23.666Y35.500
X50.900Y29.200
X30.800Y31.500
X30.000Y25.800
X67.997Y73.700
X57.500Y41.100
X51.200Y24.100
X56.831Y29.700
X17.700Y48.150
X55.440Y44.420
X44.570Y61.100
X29.099Y33.200
X36.332Y73.700
X62.264Y30.300
X61.664Y61.300
X17.333Y17.900
X29.999Y43.100
X51.940Y54.400
X26.700Y52.425
X11.000Y11.000
X17.333Y67.500
X43.365Y31.400
X17.700Y42.850
X28.399Y55.100
X30.399Y36.500
X42.665Y48.900
X32.500Y40.900
X48.998Y86.233
X51.700Y50.400
X30.000Y29.000
X60.164Y42.700
X17.333Y55.100
X17.333Y79.900
X36.332Y23.600
X55.331Y79.900
X60.450Y49.500
X29.999Y48.900
X51.400Y40.700
X33.900Y50.900
X61.664Y86.233
X48.998Y11.000
X11.000Y48.900
X47.290Y55.700
X50.900Y32.200
X67.997Y42.700
X48.998Y73.700
X48.998Y17.900
X64.600Y42.700
X49.090Y53.500
X42.665Y86.233
X55.331Y11.000
X23.666Y43.200
X61.664Y37.200
X25.700Y16.800
X32.500Y48.900
X23.666Y86.233
X42.665Y37.900
X48.300Y30.700
X54.631Y36.500
X11.000Y79.900
X67.997Y67.500
X67.997Y24.100
X36.400Y40.900
X17.333Y61.300
X42.370Y54.800
X29.999Y73.700
X23.666Y24.100
X61.664Y55.100
X11.000Y67.500
X27.700Y29.000
X42.960Y23.900
X32.500Y36.500
X55.331Y73.700
X50.900Y37.600
X51.598Y61.300
X40.240Y52.320
X30.000Y40.900
X34.800Y15.700
X21.800Y39.600
X16.000Y32.900
X17.333Y11.000
X67.997Y17.900
X56.800Y32.200
X48.600Y46.600
X44.600Y63.900
X11.000Y36.500
X23.666Y73.700
X32.450Y18.090
X36.410Y43.110
X48.300Y27.000
X52.850Y22.100
X29.999Y86.233
X23.666Y61.300
X36.410Y46.610
X61.700Y34.900
X49.100Y50.400
X43.470Y59.400
X41.265Y18.000
X29.999Y67.500
X36.332Y79.900
X27.530Y60.170
X48.998Y67.500
X11.000Y73.700
X29.450Y21.620
X36.932Y31.400
X48.360Y23.300
X61.664Y79.900
X23.666Y30.300
X40.340Y35.670
X29.999Y11.000
X67.997Y30.300
X11.000Y42.700
X67.997Y48.900
X23.666Y11.000
X36.332Y61.300
X42.600Y26.900
X17.333Y73.700
X23.666Y67.500
X55.340Y54.400
X42.000Y62.700
X36.332Y86.233
X11.000Y30.300
X44.365Y67.500
X36.932Y54.900
X42.500Y65.600
X11.000Y17.900
X32.500Y43.100
X61.664Y67.500
X29.999Y61.300
X16.933Y30.400
X67.997Y11.000
X42.665Y79.900
X11.000Y24.100
X31.370Y25.500
X36.332Y67.500
X35.400Y53.800
X55.331Y86.233
X34.110Y52.290
X17.333Y86.233
X54.831Y24.300
X23.666Y48.900
X67.997Y79.900
X42.370Y61.100
X28.800Y26.600
X44.290Y52.820
X60.250Y24.200
X36.332Y11.000
X48.300Y37.600
X33.600Y30.400
X42.665Y11.000
X11.000Y55.100
X55.531Y49.100
X42.700Y46.600
X56.431Y61.300
X44.570Y54.800
X61.664Y11.000
X38.100Y19.100
X32.500Y52.300
X67.997Y61.300
X64.600Y39.600
X53.640Y46.820
X32.450Y15.750
X67.997Y36.500
X19.800Y45.500
X34.300Y56.300
X67.997Y55.100
X42.665Y73.700
X37.075Y48.920
X55.331Y17.900
X43.470Y56.500
X27.100Y14.400
X11.000Y61.300
X51.840Y44.420
T1
X9.630Y72.700
X9.630Y20.000
X69.370Y70.000
X140.370Y71.800
X140.370Y18.200
X69.370Y20.000
X9.630Y70.900
X69.370Y18.200
X80.630Y72.700
X9.630Y71.800
X80.630Y71.800
X9.630Y69.100
X9.630Y70.000
X69.370Y21.800
X9.630Y20.900
X140.370Y72.700
X69.370Y19.100
X140.370Y69.100
X9.630Y18.200
X80.630Y70.000
X80.630Y69.100
X80.630Y18.200
X140.370Y70.000
X69.370Y71.800
X140.370Y70.900
X69.370Y69.100
X9.630Y19.100
X80.630Y21.800
X140.370Y20.900
X140.370Y21.800
X80.630Y20.000
X69.370Y20.900
X80.630Y70.900
X9.630Y21.800
X69.370Y72.700
X140.370Y19.100
X140.370Y20.000
X80.630Y20.900
X69.370Y70.900
X80.630Y19.100
T7
X127.840Y14.900
X125.300Y12.360
X122.760Y14.900
X116.190Y44.910
X129.500Y39.700
X111.100Y20.600
X56.840Y14.900
X54.300Y12.360
X51.760Y14.900
X45.190Y44.910
X58.500Y39.700
X40.100Y20.600
T9
X120.500Y40.900
X126.500Y25.800
X49.500Y40.900
X55.500Y25.800
T6
X108.250Y12.700
X98.090Y12.700
X95.550Y12.700
X100.630Y12.700
X103.170Y12.700
X105.710Y12.700
X37.250Y12.700
X27.090Y12.700
X24.550Y12.700
X29.630Y12.700
X32.170Y12.700
X34.710Y12.700
T4
X112.200Y13.430
X119.820Y13.430
X111.750Y69.400
X109.250Y69.400
X132.950Y13.780
X135.450Y13.780
X85.550Y13.780
X88.050Y13.780
X41.200Y13.430
X48.820Y13.430
X40.750Y69.400
X38.250Y69.400
X61.950Y13.780
X64.450Y13.780
X14.550Y13.780
X17.050Y13.780
T5
X105.500Y27.900
X115.500Y27.900
X110.500Y27.900
X124.000Y58.200
X134.000Y58.200
X129.000Y58.200
X87.000Y58.200
X97.000Y58.200
X92.000Y58.200
X124.000Y27.900
X134.000Y27.900
X129.000Y27.900
X87.000Y27.900
X97.000Y27.900
X92.000Y27.900
X34.500Y27.900
X44.500Y27.900
X39.500Y27.900
X53.000Y58.200
X63.000Y58.200
X58.000Y58.200
X16.000Y58.200
X26.000Y58.200
X21.000Y58.200
X53.000Y27.900
X63.000Y27.900
X58.000Y27.900
X16.000Y27.900
X26.000Y27.900
X21.000Y27.900
T3
X104.750Y70.250
X104.750Y82.700
X88.450Y82.700
X104.750Y76.450
X88.450Y76.450
X88.450Y70.250
X132.550Y70.250
X132.550Y82.700
X116.250Y82.700
X132.550Y76.450
X116.250Y76.450
X116.250Y70.250
X33.750Y70.250
X33.750Y82.700
X17.450Y82.700
X33.750Y76.450
X17.450Y76.450
X17.450Y70.250
X61.550Y70.250
X61.550Y82.700
X45.250Y82.700
X61.550Y76.450
X45.250Y76.450
X45.250Y70.250
T2
X147.000Y3.000
X3.000Y97.000
X3.000Y3.000
X147.000Y97.000
M30
