%FSLAX46Y46*%
%MOMM*%
%ADD10C,0.010000*%
%ADD11C,1.400000*%
G01*
G01*
%LPD*%
D10*
X0Y100000000D02*
X0Y0D01*
D10*
X0Y0D02*
X150000000Y0D01*
D10*
X150000000Y0D02*
X150000000Y100000000D01*
D10*
X150000000Y100000000D02*
X150000000Y100000000D01*
D10*
X150000000Y100000000D02*
X0Y100000000D01*
D10*
X81000000Y10000000D02*
X81000000Y80900000D01*
D10*
X81000000Y80900000D02*
X87000000Y80900000D01*
D10*
X87000000Y80900000D02*
X87000000Y87900000D01*
D10*
X87000000Y87900000D02*
X108500000Y87900000D01*
D10*
X108500000Y87900000D02*
X108500000Y72800000D01*
D10*
X108500000Y72800000D02*
X112500000Y72800000D01*
D10*
X112500000Y72800000D02*
X112500000Y87900000D01*
D10*
X112500000Y87900000D02*
X134000000Y87900000D01*
D10*
X134000000Y87900000D02*
X134000000Y80900000D01*
D10*
X134000000Y80900000D02*
X140000000Y80900000D01*
D10*
X140000000Y80900000D02*
X140000000Y10000000D01*
D10*
X140000000Y10000000D02*
X81000000Y10000000D01*
D11*
X109200000Y88600000D02*
X109200000Y73500000D01*
D11*
X80300000Y17000000D02*
X80300000Y9300000D01*
D11*
X140700000Y81600000D02*
X140700000Y73900000D01*
D11*
X86300000Y88600000D02*
X109200000Y88600000D01*
D11*
X80300000Y81600000D02*
X80300000Y73900000D01*
D11*
X140700000Y17000000D02*
X140700000Y9300000D01*
D11*
X80300000Y9300000D02*
X140700000Y9300000D01*
D11*
X140700000Y67900000D02*
X140700000Y23000000D01*
D11*
X109200000Y73500000D02*
X111800000Y73500000D01*
D11*
X134700000Y81600000D02*
X134700000Y88600000D01*
D11*
X86300000Y81600000D02*
X86300000Y88600000D01*
D11*
X111800000Y88600000D02*
X111800000Y73500000D01*
D11*
X80300000Y81600000D02*
X86300000Y81600000D01*
D11*
X111800000Y88600000D02*
X134700000Y88600000D01*
D11*
X134700000Y81600000D02*
X140700000Y81600000D01*
D11*
X80300000Y67900000D02*
X80300000Y23000000D01*
D10*
X10000000Y10000000D02*
X10000000Y80900000D01*
D10*
X10000000Y80900000D02*
X16000000Y80900000D01*
D10*
X16000000Y80900000D02*
X16000000Y87900000D01*
D10*
X16000000Y87900000D02*
X37500000Y87900000D01*
D10*
X37500000Y87900000D02*
X37500000Y72800000D01*
D10*
X37500000Y72800000D02*
X41500000Y72800000D01*
D10*
X41500000Y72800000D02*
X41500000Y87900000D01*
D10*
X41500000Y87900000D02*
X63000000Y87900000D01*
D10*
X63000000Y87900000D02*
X63000000Y80900000D01*
D10*
X63000000Y80900000D02*
X69000000Y80900000D01*
D10*
X69000000Y80900000D02*
X69000000Y10000000D01*
D10*
X69000000Y10000000D02*
X10000000Y10000000D01*
D11*
X38200000Y88600000D02*
X38200000Y73500000D01*
D11*
X9300000Y17000000D02*
X9300000Y9300000D01*
D11*
X69700000Y81600000D02*
X69700000Y73900000D01*
D11*
X15300000Y88600000D02*
X38200000Y88600000D01*
D11*
X9300000Y81600000D02*
X9300000Y73900000D01*
D11*
X69700000Y17000000D02*
X69700000Y9300000D01*
D11*
X9300000Y9300000D02*
X69700000Y9300000D01*
D11*
X69700000Y67900000D02*
X69700000Y23000000D01*
D11*
X38200000Y73500000D02*
X40800000Y73500000D01*
D11*
X63700000Y81600000D02*
X63700000Y88600000D01*
D11*
X15300000Y81600000D02*
X15300000Y88600000D01*
D11*
X40800000Y88600000D02*
X40800000Y73500000D01*
D11*
X9300000Y81600000D02*
X15300000Y81600000D01*
D11*
X40800000Y88600000D02*
X63700000Y88600000D01*
D11*
X63700000Y81600000D02*
X69700000Y81600000D01*
D11*
X9300000Y67900000D02*
X9300000Y23000000D01*
G75*
M02*
