%FSLAX46Y46*%
%MOMM*%
%ADD12C,0.300000*%
%ADD10C,0.600000*%
%ADD11C,0.800000*%
%AMPS15*
1,1,2.100000,0.000000,0.000000*
%
%ADD15PS15*%
%AMPS17*
1,1,1.600000,0.000000,0.000000*
%
%ADD17PS17*%
%AMPS19*
1,1,1.300000,0.000000,0.000000*
%
%ADD19PS19*%
%AMPS13*
1,1,2.200000,0.000000,0.000000*
%
%ADD13PS13*%
%AMPS18*
1,1,1.700000,0.000000,0.000000*
%
%ADD18PS18*%
%AMPS16*
1,1,1.700000,0.000000,0.000000*
%
%ADD16PS16*%
%AMPS14*
1,1,1.700000,0.000000,0.000000*
%
%ADD14PS14*%
%AMPS23*
1,1,1.200000,0.000000,0.000000*
%
%ADD23PS23*%
%AMPS22*
1,1,1.000000,0.000000,0.000000*
%
%ADD22PS22*%
%AMPS21*
1,1,0.700000,0.000000,0.000000*
%
%ADD21PS21*%
%AMPS20*
1,1,0.700000,0.000000,0.000000*
%
%ADD20PS20*%
G01*
%LPD*%
G36*
X139690000Y10310000D02*
X139690000Y80590000D01*
X133690000Y80590000D01*
X133690000Y81825898D01*
X133561979Y81875281D01*
X133472950Y81777052D01*
X133378039Y81691031D01*
X133275156Y81614727D01*
X133165288Y81548874D01*
X133049494Y81494108D01*
X132928893Y81450956D01*
X132804648Y81419835D01*
X132677937Y81401039D01*
X132550000Y81394753D01*
X132422063Y81401039D01*
X132295352Y81419835D01*
X132171107Y81450956D01*
X132050506Y81494108D01*
X131934712Y81548874D01*
X131824844Y81614727D01*
X131721961Y81691031D01*
X131627051Y81777051D01*
X131541031Y81871961D01*
X131464727Y81974844D01*
X131398874Y82084712D01*
X131344108Y82200506D01*
X131300956Y82321107D01*
X131269835Y82445352D01*
X131251039Y82572063D01*
X131244753Y82700000D01*
X131251039Y82827937D01*
X131269835Y82954648D01*
X131300956Y83078893D01*
X131344108Y83199494D01*
X131398874Y83315288D01*
X131464727Y83425156D01*
X131541031Y83528039D01*
X131627051Y83622949D01*
X131721961Y83708969D01*
X131824844Y83785273D01*
X131934712Y83851126D01*
X132050506Y83905892D01*
X132171107Y83949044D01*
X132295352Y83980165D01*
X132422063Y83998961D01*
X132550000Y84005247D01*
X132677937Y83998961D01*
X132804648Y83980165D01*
X132928893Y83949044D01*
X133049494Y83905892D01*
X133165288Y83851126D01*
X133275156Y83785273D01*
X133378039Y83708969D01*
X133472950Y83622948D01*
X133561979Y83524719D01*
X133690000Y83574102D01*
X133690000Y87590000D01*
X112810000Y87590000D01*
X112810000Y72490000D01*
X108190000Y72490000D01*
X108190000Y87590000D01*
X87310000Y87590000D01*
X87310000Y83566657D01*
X87438021Y83517274D01*
X87530591Y83619409D01*
X87625134Y83705098D01*
X87727627Y83781112D01*
X87837073Y83846711D01*
X87952421Y83901267D01*
X88072558Y83944252D01*
X88196330Y83975255D01*
X88322554Y83993979D01*
X88345000Y83995082D01*
X88345000Y81404918D01*
X88322554Y81406021D01*
X88196330Y81424745D01*
X88072558Y81455748D01*
X87952421Y81498733D01*
X87837073Y81553289D01*
X87727627Y81618888D01*
X87625134Y81694902D01*
X87530591Y81780591D01*
X87438021Y81882726D01*
X87310000Y81833343D01*
X87310000Y80590000D01*
X81310000Y80590000D01*
X81310000Y10310000D01*
X139690000Y10310000D01*
D02*
G37*
%LPC*%
G36*
X104750000Y81394753D02*
X104622063Y81401039D01*
X104495352Y81419835D01*
X104371107Y81450956D01*
X104250506Y81494108D01*
X104134712Y81548874D01*
X104024844Y81614727D01*
X103921961Y81691031D01*
X103827051Y81777051D01*
X103741031Y81871961D01*
X103664727Y81974844D01*
X103598874Y82084712D01*
X103544108Y82200506D01*
X103500956Y82321107D01*
X103469835Y82445352D01*
X103451039Y82572063D01*
X103444753Y82700000D01*
X103451039Y82827937D01*
X103469835Y82954648D01*
X103500956Y83078893D01*
X103544108Y83199494D01*
X103598874Y83315288D01*
X103664727Y83425156D01*
X103741031Y83528039D01*
X103827051Y83622949D01*
X103921961Y83708969D01*
X104024844Y83785273D01*
X104134712Y83851126D01*
X104250506Y83905892D01*
X104371107Y83949044D01*
X104495352Y83980165D01*
X104622063Y83998961D01*
X104750000Y84005247D01*
X104877937Y83998961D01*
X105004648Y83980165D01*
X105128893Y83949044D01*
X105249494Y83905892D01*
X105365288Y83851126D01*
X105475156Y83785273D01*
X105578039Y83708969D01*
X105672949Y83622949D01*
X105758969Y83528039D01*
X105835273Y83425156D01*
X105901126Y83315288D01*
X105955892Y83199494D01*
X105999044Y83078893D01*
X106030165Y82954648D01*
X106048961Y82827937D01*
X106055247Y82700000D01*
X106048961Y82572063D01*
X106030165Y82445352D01*
X105999044Y82321107D01*
X105955892Y82200506D01*
X105901126Y82084712D01*
X105835273Y81974844D01*
X105758969Y81871961D01*
X105672949Y81777051D01*
X105578039Y81691031D01*
X105475156Y81614727D01*
X105365288Y81548874D01*
X105249494Y81494108D01*
X105128893Y81450956D01*
X105004648Y81419835D01*
X104877937Y81401039D01*
X104750000Y81394753D01*
D02*
G37*
%LPC*%
G36*
X89745082Y82805000D02*
X88555000Y82805000D01*
X88555000Y83995082D01*
X88577446Y83993979D01*
X88703670Y83975255D01*
X88827442Y83944252D01*
X88947579Y83901267D01*
X89062927Y83846711D01*
X89172373Y83781112D01*
X89274866Y83705098D01*
X89369409Y83619409D01*
X89455098Y83524866D01*
X89531112Y83422373D01*
X89596711Y83312927D01*
X89651267Y83197579D01*
X89694252Y83077442D01*
X89725255Y82953670D01*
X89743979Y82827446D01*
X89745082Y82805000D01*
D02*
G37*
%LPC*%
G36*
X116145000Y82805000D02*
X114954918Y82805000D01*
X114956021Y82827446D01*
X114974745Y82953670D01*
X115005748Y83077442D01*
X115048733Y83197579D01*
X115103289Y83312927D01*
X115168888Y83422373D01*
X115244902Y83524866D01*
X115330591Y83619409D01*
X115425134Y83705098D01*
X115527627Y83781112D01*
X115637073Y83846711D01*
X115752421Y83901267D01*
X115872558Y83944252D01*
X115996330Y83975255D01*
X116122554Y83993979D01*
X116145000Y83995082D01*
X116145000Y82805000D01*
D02*
G37*
%LPC*%
G36*
X117545082Y82805000D02*
X116355000Y82805000D01*
X116355000Y83995082D01*
X116377446Y83993979D01*
X116503670Y83975255D01*
X116627442Y83944252D01*
X116747579Y83901267D01*
X116862927Y83846711D01*
X116972373Y83781112D01*
X117074866Y83705098D01*
X117169409Y83619409D01*
X117255098Y83524866D01*
X117331112Y83422373D01*
X117396711Y83312927D01*
X117451267Y83197579D01*
X117494252Y83077442D01*
X117525255Y82953670D01*
X117543979Y82827446D01*
X117545082Y82805000D01*
D02*
G37*
%LPC*%
G36*
X116355000Y81404918D02*
X116355000Y82595000D01*
X117545082Y82595000D01*
X117543979Y82572554D01*
X117525255Y82446330D01*
X117494252Y82322558D01*
X117451267Y82202421D01*
X117396711Y82087073D01*
X117331112Y81977627D01*
X117255098Y81875134D01*
X117169409Y81780591D01*
X117074866Y81694902D01*
X116972373Y81618888D01*
X116862927Y81553289D01*
X116747579Y81498733D01*
X116627442Y81455748D01*
X116503670Y81424745D01*
X116377446Y81406021D01*
X116355000Y81404918D01*
D02*
G37*
%LPC*%
G36*
X116145000Y81404918D02*
X116122554Y81406021D01*
X115996330Y81424745D01*
X115872558Y81455748D01*
X115752421Y81498733D01*
X115637073Y81553289D01*
X115527627Y81618888D01*
X115425134Y81694902D01*
X115330591Y81780591D01*
X115244902Y81875134D01*
X115168888Y81977627D01*
X115103289Y82087073D01*
X115048733Y82202421D01*
X115005748Y82322558D01*
X114974745Y82446330D01*
X114956021Y82572554D01*
X114954918Y82595000D01*
X116145000Y82595000D01*
X116145000Y81404918D01*
D02*
G37*
%LPC*%
G36*
X88555000Y81404918D02*
X88555000Y82595000D01*
X89745082Y82595000D01*
X89743979Y82572554D01*
X89725255Y82446330D01*
X89694252Y82322558D01*
X89651267Y82202421D01*
X89596711Y82087073D01*
X89531112Y81977627D01*
X89455098Y81875134D01*
X89369409Y81780591D01*
X89274866Y81694902D01*
X89172373Y81618888D01*
X89062927Y81553289D01*
X88947579Y81498733D01*
X88827442Y81455748D01*
X88703670Y81424745D01*
X88577446Y81406021D01*
X88555000Y81404918D01*
D02*
G37*
%LPC*%
G36*
X88450000Y75144753D02*
X88322063Y75151039D01*
X88195352Y75169835D01*
X88071107Y75200956D01*
X87950506Y75244108D01*
X87834712Y75298874D01*
X87724844Y75364727D01*
X87621961Y75441031D01*
X87527051Y75527051D01*
X87441031Y75621961D01*
X87364727Y75724844D01*
X87298874Y75834712D01*
X87244108Y75950506D01*
X87200956Y76071107D01*
X87169835Y76195352D01*
X87151039Y76322063D01*
X87144753Y76450000D01*
X87151039Y76577937D01*
X87169835Y76704648D01*
X87200956Y76828893D01*
X87244108Y76949494D01*
X87298874Y77065288D01*
X87364727Y77175156D01*
X87441031Y77278039D01*
X87527051Y77372949D01*
X87621961Y77458969D01*
X87724844Y77535273D01*
X87834712Y77601126D01*
X87950506Y77655892D01*
X88071107Y77699044D01*
X88195352Y77730165D01*
X88322063Y77748961D01*
X88450000Y77755247D01*
X88577937Y77748961D01*
X88704648Y77730165D01*
X88828893Y77699044D01*
X88949494Y77655892D01*
X89065288Y77601126D01*
X89175156Y77535273D01*
X89278039Y77458969D01*
X89372949Y77372949D01*
X89458969Y77278039D01*
X89535273Y77175156D01*
X89601126Y77065288D01*
X89655892Y76949494D01*
X89699044Y76828893D01*
X89730165Y76704648D01*
X89748961Y76577937D01*
X89755247Y76450000D01*
X89748961Y76322063D01*
X89730165Y76195352D01*
X89699044Y76071107D01*
X89655892Y75950506D01*
X89601126Y75834712D01*
X89535273Y75724844D01*
X89458969Y75621961D01*
X89372949Y75527051D01*
X89278039Y75441031D01*
X89175156Y75364727D01*
X89065288Y75298874D01*
X88949494Y75244108D01*
X88828893Y75200956D01*
X88704648Y75169835D01*
X88577937Y75151039D01*
X88450000Y75144753D01*
D02*
G37*
%LPC*%
G36*
X104750000Y75144753D02*
X104622063Y75151039D01*
X104495352Y75169835D01*
X104371107Y75200956D01*
X104250506Y75244108D01*
X104134712Y75298874D01*
X104024844Y75364727D01*
X103921961Y75441031D01*
X103827051Y75527051D01*
X103741031Y75621961D01*
X103664727Y75724844D01*
X103598874Y75834712D01*
X103544108Y75950506D01*
X103500956Y76071107D01*
X103469835Y76195352D01*
X103451039Y76322063D01*
X103444753Y76450000D01*
X103451039Y76577937D01*
X103469835Y76704648D01*
X103500956Y76828893D01*
X103544108Y76949494D01*
X103598874Y77065288D01*
X103664727Y77175156D01*
X103741031Y77278039D01*
X103827051Y77372949D01*
X103921961Y77458969D01*
X104024844Y77535273D01*
X104134712Y77601126D01*
X104250506Y77655892D01*
X104371107Y77699044D01*
X104495352Y77730165D01*
X104622063Y77748961D01*
X104750000Y77755247D01*
X104877937Y77748961D01*
X105004648Y77730165D01*
X105128893Y77699044D01*
X105249494Y77655892D01*
X105365288Y77601126D01*
X105475156Y77535273D01*
X105578039Y77458969D01*
X105672949Y77372949D01*
X105758969Y77278039D01*
X105835273Y77175156D01*
X105901126Y77065288D01*
X105955892Y76949494D01*
X105999044Y76828893D01*
X106030165Y76704648D01*
X106048961Y76577937D01*
X106055247Y76450000D01*
X106048961Y76322063D01*
X106030165Y76195352D01*
X105999044Y76071107D01*
X105955892Y75950506D01*
X105901126Y75834712D01*
X105835273Y75724844D01*
X105758969Y75621961D01*
X105672949Y75527051D01*
X105578039Y75441031D01*
X105475156Y75364727D01*
X105365288Y75298874D01*
X105249494Y75244108D01*
X105128893Y75200956D01*
X105004648Y75169835D01*
X104877937Y75151039D01*
X104750000Y75144753D01*
D02*
G37*
%LPC*%
G36*
X116250000Y75144753D02*
X116122063Y75151039D01*
X115995352Y75169835D01*
X115871107Y75200956D01*
X115750506Y75244108D01*
X115634712Y75298874D01*
X115524844Y75364727D01*
X115421961Y75441031D01*
X115327051Y75527051D01*
X115241031Y75621961D01*
X115164727Y75724844D01*
X115098874Y75834712D01*
X115044108Y75950506D01*
X115000956Y76071107D01*
X114969835Y76195352D01*
X114951039Y76322063D01*
X114944753Y76450000D01*
X114951039Y76577937D01*
X114969835Y76704648D01*
X115000956Y76828893D01*
X115044108Y76949494D01*
X115098874Y77065288D01*
X115164727Y77175156D01*
X115241031Y77278039D01*
X115327051Y77372949D01*
X115421961Y77458969D01*
X115524844Y77535273D01*
X115634712Y77601126D01*
X115750506Y77655892D01*
X115871107Y77699044D01*
X115995352Y77730165D01*
X116122063Y77748961D01*
X116250000Y77755247D01*
X116377937Y77748961D01*
X116504648Y77730165D01*
X116628893Y77699044D01*
X116749494Y77655892D01*
X116865288Y77601126D01*
X116975156Y77535273D01*
X117078039Y77458969D01*
X117172949Y77372949D01*
X117258969Y77278039D01*
X117335273Y77175156D01*
X117401126Y77065288D01*
X117455892Y76949494D01*
X117499044Y76828893D01*
X117530165Y76704648D01*
X117548961Y76577937D01*
X117555247Y76450000D01*
X117548961Y76322063D01*
X117530165Y76195352D01*
X117499044Y76071107D01*
X117455892Y75950506D01*
X117401126Y75834712D01*
X117335273Y75724844D01*
X117258969Y75621961D01*
X117172949Y75527051D01*
X117078039Y75441031D01*
X116975156Y75364727D01*
X116865288Y75298874D01*
X116749494Y75244108D01*
X116628893Y75200956D01*
X116504648Y75169835D01*
X116377937Y75151039D01*
X116250000Y75144753D01*
D02*
G37*
%LPC*%
G36*
X132550000Y75144753D02*
X132422063Y75151039D01*
X132295352Y75169835D01*
X132171107Y75200956D01*
X132050506Y75244108D01*
X131934712Y75298874D01*
X131824844Y75364727D01*
X131721961Y75441031D01*
X131627051Y75527051D01*
X131541031Y75621961D01*
X131464727Y75724844D01*
X131398874Y75834712D01*
X131344108Y75950506D01*
X131300956Y76071107D01*
X131269835Y76195352D01*
X131251039Y76322063D01*
X131244753Y76450000D01*
X131251039Y76577937D01*
X131269835Y76704648D01*
X131300956Y76828893D01*
X131344108Y76949494D01*
X131398874Y77065288D01*
X131464727Y77175156D01*
X131541031Y77278039D01*
X131627051Y77372949D01*
X131721961Y77458969D01*
X131824844Y77535273D01*
X131934712Y77601126D01*
X132050506Y77655892D01*
X132171107Y77699044D01*
X132295352Y77730165D01*
X132422063Y77748961D01*
X132550000Y77755247D01*
X132677937Y77748961D01*
X132804648Y77730165D01*
X132928893Y77699044D01*
X133049494Y77655892D01*
X133165288Y77601126D01*
X133275156Y77535273D01*
X133378039Y77458969D01*
X133472949Y77372949D01*
X133558969Y77278039D01*
X133635273Y77175156D01*
X133701126Y77065288D01*
X133755892Y76949494D01*
X133799044Y76828893D01*
X133830165Y76704648D01*
X133848961Y76577937D01*
X133855247Y76450000D01*
X133848961Y76322063D01*
X133830165Y76195352D01*
X133799044Y76071107D01*
X133755892Y75950506D01*
X133701126Y75834712D01*
X133635273Y75724844D01*
X133558969Y75621961D01*
X133472949Y75527051D01*
X133378039Y75441031D01*
X133275156Y75364727D01*
X133165288Y75298874D01*
X133049494Y75244108D01*
X132928893Y75200956D01*
X132804648Y75169835D01*
X132677937Y75151039D01*
X132550000Y75144753D01*
D02*
G37*
%LPC*%
G36*
X98530000Y59614752D02*
X98475583Y59617426D01*
X98421672Y59625423D01*
X98368825Y59638660D01*
X98317514Y59657020D01*
X98268256Y59680317D01*
X98221520Y59708329D01*
X98177760Y59740784D01*
X98137381Y59777381D01*
X98100784Y59817760D01*
X98068329Y59861520D01*
X98040317Y59908256D01*
X98017020Y59957514D01*
X97998660Y60008825D01*
X97985423Y60061672D01*
X97977426Y60115583D01*
X97974752Y60169995D01*
X97977242Y60220712D01*
X89088230Y69109724D01*
X88949494Y69044108D01*
X88828893Y69000956D01*
X88704648Y68969835D01*
X88577937Y68951039D01*
X88450000Y68944753D01*
X88322063Y68951039D01*
X88195352Y68969835D01*
X88071107Y69000956D01*
X87950506Y69044108D01*
X87834712Y69098874D01*
X87724844Y69164727D01*
X87621961Y69241031D01*
X87527051Y69327051D01*
X87441031Y69421961D01*
X87364727Y69524844D01*
X87298874Y69634712D01*
X87244108Y69750506D01*
X87200956Y69871107D01*
X87169835Y69995352D01*
X87151039Y70122063D01*
X87144753Y70250000D01*
X87151039Y70377937D01*
X87169835Y70504648D01*
X87200956Y70628893D01*
X87244108Y70749494D01*
X87298874Y70865288D01*
X87364727Y70975156D01*
X87441031Y71078039D01*
X87527051Y71172949D01*
X87621961Y71258969D01*
X87724844Y71335273D01*
X87834712Y71401126D01*
X87950506Y71455892D01*
X88071107Y71499044D01*
X88195352Y71530165D01*
X88322063Y71548961D01*
X88450000Y71555247D01*
X88577937Y71548961D01*
X88704648Y71530165D01*
X88828893Y71499044D01*
X88949494Y71455892D01*
X89065288Y71401126D01*
X89175156Y71335273D01*
X89278039Y71258969D01*
X89372949Y71172949D01*
X89458969Y71078039D01*
X89535273Y70975156D01*
X89601126Y70865288D01*
X89655892Y70749494D01*
X89699044Y70628893D01*
X89730165Y70504648D01*
X89748961Y70377937D01*
X89755247Y70250000D01*
X89748961Y70122063D01*
X89730165Y69995352D01*
X89699044Y69871107D01*
X89655892Y69750506D01*
X89590276Y69611770D01*
X98479288Y60722758D01*
X98530005Y60725248D01*
X98584417Y60722574D01*
X98638328Y60714577D01*
X98691175Y60701340D01*
X98742486Y60682980D01*
X98791744Y60659683D01*
X98838480Y60631671D01*
X98882240Y60599216D01*
X98922619Y60562619D01*
X98959216Y60522240D01*
X98991671Y60478480D01*
X99019683Y60431744D01*
X99042980Y60382486D01*
X99061340Y60331175D01*
X99074577Y60278328D01*
X99082574Y60224417D01*
X99085248Y60170000D01*
X99082574Y60115583D01*
X99074577Y60061672D01*
X99061340Y60008825D01*
X99042980Y59957514D01*
X99019683Y59908256D01*
X98991671Y59861520D01*
X98959216Y59817760D01*
X98922619Y59777381D01*
X98882240Y59740784D01*
X98838480Y59708329D01*
X98791744Y59680317D01*
X98742486Y59657020D01*
X98691175Y59638660D01*
X98638328Y59625423D01*
X98584417Y59617426D01*
X98530000Y59614752D01*
D02*
G37*
%LPC*%
G36*
X104750000Y68944753D02*
X104622063Y68951039D01*
X104495352Y68969835D01*
X104371107Y69000956D01*
X104250506Y69044108D01*
X104134712Y69098874D01*
X104024844Y69164727D01*
X103921961Y69241031D01*
X103827051Y69327051D01*
X103741031Y69421961D01*
X103664727Y69524844D01*
X103598874Y69634712D01*
X103544108Y69750506D01*
X103500956Y69871107D01*
X103469835Y69995352D01*
X103451039Y70122063D01*
X103444753Y70250000D01*
X103451039Y70377937D01*
X103469835Y70504648D01*
X103500956Y70628893D01*
X103544108Y70749494D01*
X103598874Y70865288D01*
X103664727Y70975156D01*
X103741031Y71078039D01*
X103827051Y71172949D01*
X103921961Y71258969D01*
X104024844Y71335273D01*
X104134712Y71401126D01*
X104250506Y71455892D01*
X104371107Y71499044D01*
X104495352Y71530165D01*
X104622063Y71548961D01*
X104750000Y71555247D01*
X104877937Y71548961D01*
X105004648Y71530165D01*
X105128893Y71499044D01*
X105249494Y71455892D01*
X105365288Y71401126D01*
X105475156Y71335273D01*
X105578039Y71258969D01*
X105672949Y71172949D01*
X105758969Y71078039D01*
X105835273Y70975156D01*
X105901126Y70865288D01*
X105955892Y70749494D01*
X105999044Y70628893D01*
X106030165Y70504648D01*
X106048961Y70377937D01*
X106055247Y70250000D01*
X106048961Y70122063D01*
X106030165Y69995352D01*
X105999044Y69871107D01*
X105955892Y69750506D01*
X105901126Y69634712D01*
X105835273Y69524844D01*
X105758969Y69421961D01*
X105672949Y69327051D01*
X105578039Y69241031D01*
X105475156Y69164727D01*
X105365288Y69098874D01*
X105249494Y69044108D01*
X105128893Y69000956D01*
X105004648Y68969835D01*
X104877937Y68951039D01*
X104750000Y68944753D01*
D02*
G37*
%LPC*%
G36*
X113000000Y62144752D02*
X112945583Y62147426D01*
X112891672Y62155423D01*
X112838825Y62168660D01*
X112787514Y62187020D01*
X112738256Y62210317D01*
X112691520Y62238329D01*
X112647760Y62270784D01*
X112607381Y62307381D01*
X112570784Y62347760D01*
X112538329Y62391520D01*
X112510317Y62438256D01*
X112487020Y62487514D01*
X112468660Y62538825D01*
X112455423Y62591672D01*
X112447426Y62645583D01*
X112444752Y62700000D01*
X112447426Y62754417D01*
X112455423Y62808328D01*
X112468660Y62861175D01*
X112487020Y62912486D01*
X112510317Y62961744D01*
X112538329Y63008480D01*
X112570784Y63052240D01*
X112607381Y63092619D01*
X112647760Y63129216D01*
X112691520Y63161671D01*
X112738256Y63189683D01*
X112787514Y63212980D01*
X112838825Y63231340D01*
X112891672Y63244577D01*
X112945583Y63252574D01*
X112999993Y63255247D01*
X113050711Y63252757D01*
X115895000Y66097047D01*
X115895000Y68992408D01*
X115750506Y69044108D01*
X115634712Y69098874D01*
X115524844Y69164727D01*
X115421961Y69241031D01*
X115327051Y69327051D01*
X115241031Y69421961D01*
X115164727Y69524844D01*
X115098874Y69634712D01*
X115044108Y69750506D01*
X115000956Y69871107D01*
X114969835Y69995352D01*
X114951039Y70122063D01*
X114944753Y70250000D01*
X114951039Y70377937D01*
X114969835Y70504648D01*
X115000956Y70628893D01*
X115044108Y70749494D01*
X115098874Y70865288D01*
X115164727Y70975156D01*
X115241031Y71078039D01*
X115327051Y71172949D01*
X115421961Y71258969D01*
X115524844Y71335273D01*
X115634712Y71401126D01*
X115750506Y71455892D01*
X115871107Y71499044D01*
X115995352Y71530165D01*
X116122063Y71548961D01*
X116250000Y71555247D01*
X116377937Y71548961D01*
X116504648Y71530165D01*
X116628893Y71499044D01*
X116749494Y71455892D01*
X116865288Y71401126D01*
X116975156Y71335273D01*
X117078039Y71258969D01*
X117172949Y71172949D01*
X117258969Y71078039D01*
X117335273Y70975156D01*
X117401126Y70865288D01*
X117455892Y70749494D01*
X117499044Y70628893D01*
X117530165Y70504648D01*
X117548961Y70377937D01*
X117555247Y70250000D01*
X117548961Y70122063D01*
X117530165Y69995352D01*
X117499044Y69871107D01*
X117455892Y69750506D01*
X117401126Y69634712D01*
X117335273Y69524844D01*
X117258969Y69421961D01*
X117172949Y69327051D01*
X117078039Y69241031D01*
X116975156Y69164727D01*
X116865288Y69098874D01*
X116749494Y69044108D01*
X116605000Y68992408D01*
X116605000Y65939923D01*
X116599151Y65880548D01*
X116578893Y65813770D01*
X116545996Y65752222D01*
X116502220Y65698877D01*
X116494448Y65692401D01*
X113552757Y62750711D01*
X113555247Y62699993D01*
X113552574Y62645583D01*
X113544577Y62591672D01*
X113531340Y62538825D01*
X113512980Y62487514D01*
X113489683Y62438256D01*
X113461671Y62391520D01*
X113429216Y62347760D01*
X113392619Y62307381D01*
X113352240Y62270784D01*
X113308480Y62238329D01*
X113261744Y62210317D01*
X113212486Y62187020D01*
X113161175Y62168660D01*
X113108328Y62155423D01*
X113054417Y62147426D01*
X113000000Y62144752D01*
D02*
G37*
%LPC*%
G36*
X132550000Y68944753D02*
X132422063Y68951039D01*
X132295352Y68969835D01*
X132171107Y69000956D01*
X132050506Y69044108D01*
X131934712Y69098874D01*
X131824844Y69164727D01*
X131721961Y69241031D01*
X131627051Y69327051D01*
X131541031Y69421961D01*
X131464727Y69524844D01*
X131398874Y69634712D01*
X131344108Y69750506D01*
X131300956Y69871107D01*
X131269835Y69995352D01*
X131251039Y70122063D01*
X131244753Y70250000D01*
X131251039Y70377937D01*
X131269835Y70504648D01*
X131300956Y70628893D01*
X131344108Y70749494D01*
X131398874Y70865288D01*
X131464727Y70975156D01*
X131541031Y71078039D01*
X131627051Y71172949D01*
X131721961Y71258969D01*
X131824844Y71335273D01*
X131934712Y71401126D01*
X132050506Y71455892D01*
X132171107Y71499044D01*
X132295352Y71530165D01*
X132422063Y71548961D01*
X132550000Y71555247D01*
X132677937Y71548961D01*
X132804648Y71530165D01*
X132928893Y71499044D01*
X133049494Y71455892D01*
X133165288Y71401126D01*
X133275156Y71335273D01*
X133378039Y71258969D01*
X133472949Y71172949D01*
X133558969Y71078039D01*
X133635273Y70975156D01*
X133701126Y70865288D01*
X133755892Y70749494D01*
X133799044Y70628893D01*
X133830165Y70504648D01*
X133848961Y70377937D01*
X133855247Y70250000D01*
X133848961Y70122063D01*
X133830165Y69995352D01*
X133799044Y69871107D01*
X133755892Y69750506D01*
X133701126Y69634712D01*
X133635273Y69524844D01*
X133558969Y69421961D01*
X133472949Y69327051D01*
X133378039Y69241031D01*
X133275156Y69164727D01*
X133165288Y69098874D01*
X133049494Y69044108D01*
X132928893Y69000956D01*
X132804648Y68969835D01*
X132677937Y68951039D01*
X132550000Y68944753D01*
D02*
G37*
%LPC*%
G36*
X111750000Y68344753D02*
X111646567Y68349835D01*
X111544127Y68365031D01*
X111443680Y68390191D01*
X111346180Y68425078D01*
X111252554Y68469358D01*
X111163742Y68522591D01*
X111080556Y68584286D01*
X111003828Y68653828D01*
X110934286Y68730556D01*
X110872591Y68813742D01*
X110819358Y68902554D01*
X110775078Y68996180D01*
X110740191Y69093680D01*
X110715031Y69194127D01*
X110699835Y69296567D01*
X110694753Y69400000D01*
X110699835Y69503433D01*
X110715031Y69605873D01*
X110740191Y69706320D01*
X110775078Y69803820D01*
X110819358Y69897446D01*
X110872591Y69986258D01*
X110934286Y70069444D01*
X111003828Y70146172D01*
X111080556Y70215714D01*
X111163742Y70277409D01*
X111252554Y70330642D01*
X111346180Y70374922D01*
X111443680Y70409809D01*
X111544127Y70434969D01*
X111646567Y70450165D01*
X111750000Y70455247D01*
X111853433Y70450165D01*
X111955873Y70434969D01*
X112056320Y70409809D01*
X112153820Y70374922D01*
X112247446Y70330642D01*
X112336258Y70277409D01*
X112419444Y70215714D01*
X112496172Y70146172D01*
X112565714Y70069444D01*
X112627409Y69986258D01*
X112680642Y69897446D01*
X112724922Y69803820D01*
X112759809Y69706320D01*
X112784969Y69605873D01*
X112800165Y69503433D01*
X112805247Y69400000D01*
X112800165Y69296567D01*
X112784969Y69194127D01*
X112759809Y69093680D01*
X112724922Y68996180D01*
X112680642Y68902554D01*
X112627409Y68813742D01*
X112565714Y68730556D01*
X112496172Y68653828D01*
X112419444Y68584286D01*
X112336258Y68522591D01*
X112247446Y68469358D01*
X112153820Y68425078D01*
X112056320Y68390191D01*
X111955873Y68365031D01*
X111853433Y68349835D01*
X111750000Y68344753D01*
D02*
G37*
%LPC*%
G36*
X109145000Y69505000D02*
X108205122Y69505000D01*
X108219941Y69604897D01*
X108244983Y69704871D01*
X108279705Y69801911D01*
X108323764Y69895070D01*
X108376763Y69983491D01*
X108438150Y70066262D01*
X108507368Y70142632D01*
X108583738Y70211850D01*
X108666509Y70273237D01*
X108754930Y70326236D01*
X108848089Y70370295D01*
X108945129Y70405017D01*
X109045103Y70430059D01*
X109145000Y70444878D01*
X109145000Y69505000D01*
D02*
G37*
%LPC*%
G36*
X110294878Y69505000D02*
X109355000Y69505000D01*
X109355000Y70444878D01*
X109454897Y70430059D01*
X109554871Y70405017D01*
X109651911Y70370295D01*
X109745070Y70326236D01*
X109833491Y70273237D01*
X109916262Y70211850D01*
X109992632Y70142632D01*
X110061850Y70066262D01*
X110123237Y69983491D01*
X110176236Y69895070D01*
X110220295Y69801911D01*
X110255017Y69704871D01*
X110280059Y69604897D01*
X110294878Y69505000D01*
D02*
G37*
%LPC*%
G36*
X109355000Y68355122D02*
X109355000Y69295000D01*
X110294878Y69295000D01*
X110280059Y69195103D01*
X110255017Y69095129D01*
X110220295Y68998089D01*
X110176236Y68904930D01*
X110123237Y68816509D01*
X110061850Y68733738D01*
X109992632Y68657368D01*
X109916262Y68588150D01*
X109833491Y68526763D01*
X109745070Y68473764D01*
X109651911Y68429705D01*
X109554871Y68394983D01*
X109454897Y68369941D01*
X109355000Y68355122D01*
D02*
G37*
%LPC*%
G36*
X109145000Y68355122D02*
X109045103Y68369941D01*
X108945129Y68394983D01*
X108848089Y68429705D01*
X108754930Y68473764D01*
X108666509Y68526763D01*
X108583738Y68588150D01*
X108507368Y68657368D01*
X108438150Y68733738D01*
X108376763Y68816509D01*
X108323764Y68904930D01*
X108279705Y68998089D01*
X108244983Y69095129D01*
X108219941Y69195103D01*
X108205122Y69295000D01*
X109145000Y69295000D01*
X109145000Y68355122D01*
D02*
G37*
%LPC*%
G36*
X129000000Y56944752D02*
X128876973Y56950798D01*
X128755108Y56968874D01*
X128635622Y56998803D01*
X128519640Y57040302D01*
X128408282Y57092970D01*
X128302623Y57156300D01*
X128203681Y57229681D01*
X128112406Y57312406D01*
X128029681Y57403681D01*
X127956300Y57502623D01*
X127892970Y57608282D01*
X127840302Y57719640D01*
X127798803Y57835622D01*
X127768874Y57955108D01*
X127750798Y58076973D01*
X127744752Y58200000D01*
X127750798Y58323027D01*
X127768874Y58444892D01*
X127798803Y58564378D01*
X127840302Y58680360D01*
X127897229Y58800724D01*
X124252953Y62445000D01*
X116126715Y62445000D01*
X116092620Y62407382D01*
X116052240Y62370784D01*
X116008480Y62338329D01*
X115961744Y62310317D01*
X115912486Y62287020D01*
X115861175Y62268660D01*
X115808328Y62255423D01*
X115754417Y62247426D01*
X115700000Y62244752D01*
X115645583Y62247426D01*
X115591672Y62255423D01*
X115538825Y62268660D01*
X115487514Y62287020D01*
X115438256Y62310317D01*
X115391520Y62338329D01*
X115347760Y62370784D01*
X115307381Y62407381D01*
X115270784Y62447760D01*
X115238329Y62491520D01*
X115210317Y62538256D01*
X115187020Y62587514D01*
X115168660Y62638825D01*
X115155423Y62691672D01*
X115147426Y62745583D01*
X115144752Y62800000D01*
X115147426Y62854417D01*
X115155423Y62908328D01*
X115168660Y62961175D01*
X115187020Y63012486D01*
X115210317Y63061744D01*
X115238329Y63108480D01*
X115270784Y63152240D01*
X115307381Y63192619D01*
X115347760Y63229216D01*
X115391520Y63261671D01*
X115438256Y63289683D01*
X115487514Y63312980D01*
X115538825Y63331340D01*
X115591672Y63344577D01*
X115645583Y63352574D01*
X115700000Y63355248D01*
X115754417Y63352574D01*
X115808328Y63344577D01*
X115861175Y63331340D01*
X115912486Y63312980D01*
X115961744Y63289683D01*
X116008480Y63261671D01*
X116052240Y63229216D01*
X116092620Y63192618D01*
X116126715Y63155000D01*
X124410077Y63155000D01*
X124469451Y63149151D01*
X124536229Y63128893D01*
X124597776Y63095996D01*
X124643897Y63058148D01*
X128399275Y59302771D01*
X128519644Y59359699D01*
X128635622Y59401197D01*
X128755108Y59431126D01*
X128876973Y59449202D01*
X129000000Y59455248D01*
X129123027Y59449202D01*
X129244892Y59431126D01*
X129364378Y59401197D01*
X129480360Y59359698D01*
X129591718Y59307030D01*
X129697377Y59243700D01*
X129796319Y59170319D01*
X129887594Y59087594D01*
X129970319Y58996319D01*
X130043700Y58897377D01*
X130107030Y58791718D01*
X130159698Y58680360D01*
X130201197Y58564378D01*
X130231126Y58444892D01*
X130249202Y58323027D01*
X130255248Y58200000D01*
X130249202Y58076973D01*
X130231126Y57955108D01*
X130201197Y57835622D01*
X130159698Y57719640D01*
X130107030Y57608282D01*
X130043700Y57502623D01*
X129970319Y57403681D01*
X129887594Y57312406D01*
X129796319Y57229681D01*
X129697377Y57156300D01*
X129591718Y57092970D01*
X129480360Y57040302D01*
X129364378Y56998803D01*
X129244892Y56968874D01*
X129123027Y56950798D01*
X129000000Y56944752D01*
D02*
G37*
%LPC*%
G36*
X87000000Y56944752D02*
X86876973Y56950798D01*
X86755108Y56968874D01*
X86635622Y56998803D01*
X86519640Y57040302D01*
X86408282Y57092970D01*
X86302623Y57156300D01*
X86203681Y57229681D01*
X86112406Y57312406D01*
X86029681Y57403681D01*
X85956300Y57502623D01*
X85892970Y57608282D01*
X85840302Y57719640D01*
X85798803Y57835622D01*
X85768874Y57955108D01*
X85750798Y58076973D01*
X85744752Y58200000D01*
X85750798Y58323027D01*
X85768874Y58444892D01*
X85798803Y58564378D01*
X85840302Y58680360D01*
X85892970Y58791718D01*
X85956300Y58897377D01*
X86029681Y58996319D01*
X86112406Y59087594D01*
X86203681Y59170319D01*
X86302623Y59243700D01*
X86408282Y59307030D01*
X86519640Y59359698D01*
X86635622Y59401197D01*
X86755108Y59431126D01*
X86876973Y59449202D01*
X87000000Y59455248D01*
X87123027Y59449202D01*
X87244892Y59431126D01*
X87364378Y59401197D01*
X87480360Y59359698D01*
X87591718Y59307030D01*
X87697377Y59243700D01*
X87796319Y59170319D01*
X87887594Y59087594D01*
X87970319Y58996319D01*
X88043700Y58897377D01*
X88107030Y58791718D01*
X88159698Y58680360D01*
X88201197Y58564378D01*
X88231126Y58444892D01*
X88249202Y58323027D01*
X88255248Y58200000D01*
X88249202Y58076973D01*
X88231126Y57955108D01*
X88201197Y57835622D01*
X88159698Y57719640D01*
X88107030Y57608282D01*
X88043700Y57502623D01*
X87970319Y57403681D01*
X87887594Y57312406D01*
X87796319Y57229681D01*
X87697377Y57156300D01*
X87591718Y57092970D01*
X87480360Y57040302D01*
X87364378Y56998803D01*
X87244892Y56968874D01*
X87123027Y56950798D01*
X87000000Y56944752D01*
D02*
G37*
%LPC*%
G36*
X92000000Y56944752D02*
X91876973Y56950798D01*
X91755108Y56968874D01*
X91635622Y56998803D01*
X91519640Y57040302D01*
X91408282Y57092970D01*
X91302623Y57156300D01*
X91203681Y57229681D01*
X91112406Y57312406D01*
X91029681Y57403681D01*
X90956300Y57502623D01*
X90892970Y57608282D01*
X90840302Y57719640D01*
X90798803Y57835622D01*
X90768874Y57955108D01*
X90750798Y58076973D01*
X90744752Y58200000D01*
X90750798Y58323027D01*
X90768874Y58444892D01*
X90798803Y58564378D01*
X90840302Y58680360D01*
X90892970Y58791718D01*
X90956300Y58897377D01*
X91029681Y58996319D01*
X91112406Y59087594D01*
X91203681Y59170319D01*
X91302623Y59243700D01*
X91408282Y59307030D01*
X91519640Y59359698D01*
X91635622Y59401197D01*
X91755108Y59431126D01*
X91876973Y59449202D01*
X92000000Y59455248D01*
X92123027Y59449202D01*
X92244892Y59431126D01*
X92364378Y59401197D01*
X92480360Y59359698D01*
X92591718Y59307030D01*
X92697377Y59243700D01*
X92796319Y59170319D01*
X92887594Y59087594D01*
X92970319Y58996319D01*
X93043700Y58897377D01*
X93107030Y58791718D01*
X93159698Y58680360D01*
X93201197Y58564378D01*
X93231126Y58444892D01*
X93249202Y58323027D01*
X93255248Y58200000D01*
X93249202Y58076973D01*
X93231126Y57955108D01*
X93201197Y57835622D01*
X93159698Y57719640D01*
X93107030Y57608282D01*
X93043700Y57502623D01*
X92970319Y57403681D01*
X92887594Y57312406D01*
X92796319Y57229681D01*
X92697377Y57156300D01*
X92591718Y57092970D01*
X92480360Y57040302D01*
X92364378Y56998803D01*
X92244892Y56968874D01*
X92123027Y56950798D01*
X92000000Y56944752D01*
D02*
G37*
%LPC*%
G36*
X124000000Y56944752D02*
X123876973Y56950798D01*
X123755108Y56968874D01*
X123635622Y56998803D01*
X123519640Y57040302D01*
X123408282Y57092970D01*
X123302623Y57156300D01*
X123203681Y57229681D01*
X123112406Y57312406D01*
X123029681Y57403681D01*
X122956300Y57502623D01*
X122892970Y57608282D01*
X122840302Y57719640D01*
X122798803Y57835622D01*
X122768874Y57955108D01*
X122750798Y58076973D01*
X122744752Y58200000D01*
X122750798Y58323027D01*
X122768874Y58444892D01*
X122798803Y58564378D01*
X122840302Y58680360D01*
X122892970Y58791718D01*
X122956300Y58897377D01*
X123029681Y58996319D01*
X123112406Y59087594D01*
X123203681Y59170319D01*
X123302623Y59243700D01*
X123408282Y59307030D01*
X123519640Y59359698D01*
X123635622Y59401197D01*
X123755108Y59431126D01*
X123876973Y59449202D01*
X124000000Y59455248D01*
X124123027Y59449202D01*
X124244892Y59431126D01*
X124364378Y59401197D01*
X124480360Y59359698D01*
X124591718Y59307030D01*
X124697377Y59243700D01*
X124796319Y59170319D01*
X124887594Y59087594D01*
X124970319Y58996319D01*
X125043700Y58897377D01*
X125107030Y58791718D01*
X125159698Y58680360D01*
X125201197Y58564378D01*
X125231126Y58444892D01*
X125249202Y58323027D01*
X125255248Y58200000D01*
X125249202Y58076973D01*
X125231126Y57955108D01*
X125201197Y57835622D01*
X125159698Y57719640D01*
X125107030Y57608282D01*
X125043700Y57502623D01*
X124970319Y57403681D01*
X124887594Y57312406D01*
X124796319Y57229681D01*
X124697377Y57156300D01*
X124591718Y57092970D01*
X124480360Y57040302D01*
X124364378Y56998803D01*
X124244892Y56968874D01*
X124123027Y56950798D01*
X124000000Y56944752D01*
D02*
G37*
%LPC*%
G36*
X96895000Y58305000D02*
X95754918Y58305000D01*
X95755780Y58322538D01*
X95773783Y58443912D01*
X95803595Y58562927D01*
X95844927Y58678444D01*
X95897385Y58789358D01*
X95960463Y58894596D01*
X96033551Y58993143D01*
X96115946Y59084054D01*
X96206857Y59166449D01*
X96305404Y59239537D01*
X96410642Y59302615D01*
X96521556Y59355073D01*
X96637073Y59396405D01*
X96756088Y59426217D01*
X96877462Y59444220D01*
X96895000Y59445082D01*
X96895000Y58305000D01*
D02*
G37*
%LPC*%
G36*
X98245082Y58305000D02*
X97105000Y58305000D01*
X97105000Y59445082D01*
X97122538Y59444220D01*
X97243912Y59426217D01*
X97362927Y59396405D01*
X97478444Y59355073D01*
X97589358Y59302615D01*
X97694596Y59239537D01*
X97793143Y59166449D01*
X97884054Y59084054D01*
X97966449Y58993143D01*
X98039537Y58894596D01*
X98102615Y58789358D01*
X98155073Y58678444D01*
X98196405Y58562927D01*
X98226217Y58443912D01*
X98244220Y58322538D01*
X98245082Y58305000D01*
D02*
G37*
%LPC*%
G36*
X133895000Y58305000D02*
X132754918Y58305000D01*
X132755780Y58322538D01*
X132773783Y58443912D01*
X132803595Y58562927D01*
X132844927Y58678444D01*
X132897385Y58789358D01*
X132960463Y58894596D01*
X133033551Y58993143D01*
X133115946Y59084054D01*
X133206857Y59166449D01*
X133305404Y59239537D01*
X133410642Y59302615D01*
X133521556Y59355073D01*
X133637073Y59396405D01*
X133756088Y59426217D01*
X133877462Y59444220D01*
X133895000Y59445082D01*
X133895000Y58305000D01*
D02*
G37*
%LPC*%
G36*
X135245082Y58305000D02*
X134105000Y58305000D01*
X134105000Y59445082D01*
X134122538Y59444220D01*
X134243912Y59426217D01*
X134362927Y59396405D01*
X134478444Y59355073D01*
X134589358Y59302615D01*
X134694596Y59239537D01*
X134793143Y59166449D01*
X134884054Y59084054D01*
X134966449Y58993143D01*
X135039537Y58894596D01*
X135102615Y58789358D01*
X135155073Y58678444D01*
X135196405Y58562927D01*
X135226217Y58443912D01*
X135244220Y58322538D01*
X135245082Y58305000D01*
D02*
G37*
%LPC*%
G36*
X134105000Y56954918D02*
X134105000Y58095000D01*
X135245082Y58095000D01*
X135244220Y58077462D01*
X135226217Y57956088D01*
X135196405Y57837073D01*
X135155073Y57721556D01*
X135102615Y57610642D01*
X135039537Y57505404D01*
X134966449Y57406857D01*
X134884054Y57315946D01*
X134793143Y57233551D01*
X134694596Y57160463D01*
X134589358Y57097385D01*
X134478444Y57044927D01*
X134362927Y57003595D01*
X134243912Y56973783D01*
X134122538Y56955780D01*
X134105000Y56954918D01*
D02*
G37*
%LPC*%
G36*
X133895000Y56954918D02*
X133877462Y56955780D01*
X133756088Y56973783D01*
X133637073Y57003595D01*
X133521556Y57044927D01*
X133410642Y57097385D01*
X133305404Y57160463D01*
X133206857Y57233551D01*
X133115946Y57315946D01*
X133033551Y57406857D01*
X132960463Y57505404D01*
X132897385Y57610642D01*
X132844927Y57721556D01*
X132803595Y57837073D01*
X132773783Y57956088D01*
X132755780Y58077462D01*
X132754918Y58095000D01*
X133895000Y58095000D01*
X133895000Y56954918D01*
D02*
G37*
%LPC*%
G36*
X97105000Y56954918D02*
X97105000Y58095000D01*
X98245082Y58095000D01*
X98244220Y58077462D01*
X98226217Y57956088D01*
X98196405Y57837073D01*
X98155073Y57721556D01*
X98102615Y57610642D01*
X98039537Y57505404D01*
X97966449Y57406857D01*
X97884054Y57315946D01*
X97793143Y57233551D01*
X97694596Y57160463D01*
X97589358Y57097385D01*
X97478444Y57044927D01*
X97362927Y57003595D01*
X97243912Y56973783D01*
X97122538Y56955780D01*
X97105000Y56954918D01*
D02*
G37*
%LPC*%
G36*
X96895000Y56954918D02*
X96877462Y56955780D01*
X96756088Y56973783D01*
X96637073Y57003595D01*
X96521556Y57044927D01*
X96410642Y57097385D01*
X96305404Y57160463D01*
X96206857Y57233551D01*
X96115946Y57315946D01*
X96033551Y57406857D01*
X95960463Y57505404D01*
X95897385Y57610642D01*
X95844927Y57721556D01*
X95803595Y57837073D01*
X95773783Y57956088D01*
X95755780Y58077462D01*
X95754918Y58095000D01*
X96895000Y58095000D01*
X96895000Y56954918D01*
D02*
G37*
%LPC*%
G36*
X102370000Y24944752D02*
X102315583Y24947426D01*
X102261672Y24955423D01*
X102208825Y24968660D01*
X102157514Y24987020D01*
X102108256Y25010317D01*
X102061520Y25038329D01*
X102017760Y25070784D01*
X101977381Y25107381D01*
X101940784Y25147760D01*
X101908329Y25191520D01*
X101880317Y25238256D01*
X101857020Y25287514D01*
X101838660Y25338825D01*
X101825423Y25391672D01*
X101817426Y25445583D01*
X101814752Y25500000D01*
X101817426Y25554417D01*
X101825423Y25608328D01*
X101838660Y25661175D01*
X101857020Y25712486D01*
X101880317Y25761744D01*
X101908329Y25808480D01*
X101940784Y25852240D01*
X101977382Y25892620D01*
X102015000Y25926715D01*
X102015000Y30580066D01*
X102020849Y30639451D01*
X102041106Y30706229D01*
X102074003Y30767777D01*
X102117779Y30821122D01*
X102125551Y30827598D01*
X104145000Y32847047D01*
X104145000Y49210066D01*
X104150849Y49269451D01*
X104171106Y49336229D01*
X104204003Y49397777D01*
X104247779Y49451122D01*
X104255551Y49457598D01*
X106045000Y51247047D01*
X106045000Y53373285D01*
X106007382Y53407380D01*
X105970784Y53447760D01*
X105938329Y53491520D01*
X105910317Y53538256D01*
X105887020Y53587514D01*
X105868660Y53638825D01*
X105855423Y53691672D01*
X105847426Y53745583D01*
X105844752Y53800000D01*
X105847426Y53854417D01*
X105855423Y53908328D01*
X105868660Y53961175D01*
X105887020Y54012486D01*
X105910317Y54061744D01*
X105938329Y54108480D01*
X105970784Y54152240D01*
X106007381Y54192619D01*
X106047760Y54229216D01*
X106091520Y54261671D01*
X106138256Y54289683D01*
X106187514Y54312980D01*
X106238825Y54331340D01*
X106291672Y54344577D01*
X106345583Y54352574D01*
X106400000Y54355248D01*
X106454417Y54352574D01*
X106508328Y54344577D01*
X106561175Y54331340D01*
X106612486Y54312980D01*
X106661744Y54289683D01*
X106708480Y54261671D01*
X106752240Y54229216D01*
X106792619Y54192619D01*
X106829216Y54152240D01*
X106861671Y54108480D01*
X106889683Y54061744D01*
X106912980Y54012486D01*
X106931340Y53961175D01*
X106944577Y53908328D01*
X106952574Y53854417D01*
X106955248Y53800000D01*
X106952574Y53745583D01*
X106944577Y53691672D01*
X106931340Y53638825D01*
X106912980Y53587514D01*
X106889683Y53538256D01*
X106861671Y53491520D01*
X106829216Y53447760D01*
X106792618Y53407380D01*
X106755000Y53373285D01*
X106755000Y51089923D01*
X106749151Y51030548D01*
X106728893Y50963770D01*
X106695996Y50902222D01*
X106652220Y50848877D01*
X106644448Y50842401D01*
X104855000Y49052953D01*
X104855000Y32689923D01*
X104849151Y32630548D01*
X104828893Y32563770D01*
X104795996Y32502222D01*
X104752220Y32448877D01*
X104744448Y32442401D01*
X102725000Y30422953D01*
X102725000Y25926715D01*
X102762618Y25892620D01*
X102799216Y25852240D01*
X102831671Y25808480D01*
X102859683Y25761744D01*
X102882980Y25712486D01*
X102901340Y25661175D01*
X102914577Y25608328D01*
X102922574Y25554417D01*
X102925248Y25500000D01*
X102922574Y25445583D01*
X102914577Y25391672D01*
X102901340Y25338825D01*
X102882980Y25287514D01*
X102859683Y25238256D01*
X102831671Y25191520D01*
X102799216Y25147760D01*
X102762619Y25107381D01*
X102722240Y25070784D01*
X102678480Y25038329D01*
X102631744Y25010317D01*
X102582486Y24987020D01*
X102531175Y24968660D01*
X102478328Y24955423D01*
X102424417Y24947426D01*
X102370000Y24944752D01*
D02*
G37*
%LPC*%
G36*
X99800000Y26044752D02*
X99745583Y26047426D01*
X99691672Y26055423D01*
X99638825Y26068660D01*
X99587514Y26087020D01*
X99538256Y26110317D01*
X99491520Y26138329D01*
X99447760Y26170784D01*
X99407381Y26207381D01*
X99370784Y26247760D01*
X99338329Y26291520D01*
X99310317Y26338256D01*
X99287020Y26387514D01*
X99268660Y26438825D01*
X99255423Y26491672D01*
X99247426Y26545583D01*
X99244752Y26600000D01*
X99247426Y26654417D01*
X99255423Y26708328D01*
X99268660Y26761175D01*
X99287020Y26812486D01*
X99310317Y26861744D01*
X99338329Y26908480D01*
X99370784Y26952240D01*
X99407382Y26992620D01*
X99445000Y27026715D01*
X99445000Y31010066D01*
X99450849Y31069451D01*
X99471106Y31136229D01*
X99504003Y31197777D01*
X99547779Y31251122D01*
X99555551Y31257598D01*
X102045000Y33747047D01*
X102045000Y49590066D01*
X102050849Y49649451D01*
X102071106Y49716229D01*
X102104003Y49777777D01*
X102147779Y49831122D01*
X102155551Y49837598D01*
X104557243Y52239289D01*
X104554753Y52290007D01*
X104557426Y52344417D01*
X104565423Y52398328D01*
X104578660Y52451175D01*
X104597020Y52502486D01*
X104620317Y52551744D01*
X104648329Y52598480D01*
X104680784Y52642240D01*
X104717381Y52682619D01*
X104757760Y52719216D01*
X104801520Y52751671D01*
X104848256Y52779683D01*
X104897514Y52802980D01*
X104948825Y52821340D01*
X105001672Y52834577D01*
X105055583Y52842574D01*
X105110000Y52845248D01*
X105164417Y52842574D01*
X105218328Y52834577D01*
X105271175Y52821340D01*
X105322486Y52802980D01*
X105371744Y52779683D01*
X105418480Y52751671D01*
X105462240Y52719216D01*
X105502619Y52682619D01*
X105539216Y52642240D01*
X105571671Y52598480D01*
X105599683Y52551744D01*
X105622980Y52502486D01*
X105641340Y52451175D01*
X105654577Y52398328D01*
X105662574Y52344417D01*
X105665248Y52290000D01*
X105662574Y52235583D01*
X105654577Y52181672D01*
X105641340Y52128825D01*
X105622980Y52077514D01*
X105599683Y52028256D01*
X105571671Y51981520D01*
X105539216Y51937760D01*
X105502619Y51897381D01*
X105462240Y51860784D01*
X105418480Y51828329D01*
X105371744Y51800317D01*
X105322486Y51777020D01*
X105271175Y51758660D01*
X105218328Y51745423D01*
X105164417Y51737426D01*
X105110007Y51734753D01*
X105059289Y51737243D01*
X102755000Y49432953D01*
X102755000Y33589923D01*
X102749151Y33530548D01*
X102728893Y33463770D01*
X102695996Y33402222D01*
X102652220Y33348877D01*
X102644448Y33342401D01*
X100155000Y30852953D01*
X100155000Y27026715D01*
X100192618Y26992620D01*
X100229216Y26952240D01*
X100261671Y26908480D01*
X100289683Y26861744D01*
X100312980Y26812486D01*
X100331340Y26761175D01*
X100344577Y26708328D01*
X100352574Y26654417D01*
X100355248Y26600000D01*
X100352574Y26545583D01*
X100344577Y26491672D01*
X100331340Y26438825D01*
X100312980Y26387514D01*
X100289683Y26338256D01*
X100261671Y26291520D01*
X100229216Y26247760D01*
X100192619Y26207381D01*
X100152240Y26170784D01*
X100108480Y26138329D01*
X100061744Y26110317D01*
X100012486Y26087020D01*
X99961175Y26068660D01*
X99908328Y26055423D01*
X99854417Y26047426D01*
X99800000Y26044752D01*
D02*
G37*
%LPC*%
G36*
X132700000Y38444752D02*
X132645583Y38447426D01*
X132591672Y38455423D01*
X132538825Y38468660D01*
X132487514Y38487020D01*
X132438256Y38510317D01*
X132391520Y38538329D01*
X132347760Y38570784D01*
X132307381Y38607381D01*
X132270784Y38647760D01*
X132238329Y38691520D01*
X132210317Y38738256D01*
X132187020Y38787514D01*
X132168660Y38838825D01*
X132155423Y38891672D01*
X132147426Y38945583D01*
X132144753Y38999993D01*
X132147243Y39050711D01*
X128856215Y42341738D01*
X128848372Y42348155D01*
X128804003Y42402223D01*
X128771106Y42463770D01*
X128750849Y42530548D01*
X128745000Y42589935D01*
X128745000Y45652953D01*
X126752953Y47645000D01*
X106526715Y47645000D01*
X106492620Y47607382D01*
X106452240Y47570784D01*
X106408480Y47538329D01*
X106361744Y47510317D01*
X106312486Y47487020D01*
X106261175Y47468660D01*
X106208328Y47455423D01*
X106154417Y47447426D01*
X106100000Y47444752D01*
X106045583Y47447426D01*
X105991672Y47455423D01*
X105938825Y47468660D01*
X105887514Y47487020D01*
X105838256Y47510317D01*
X105791520Y47538329D01*
X105747760Y47570784D01*
X105707381Y47607381D01*
X105670784Y47647760D01*
X105638329Y47691520D01*
X105610317Y47738256D01*
X105587020Y47787514D01*
X105568660Y47838825D01*
X105555423Y47891672D01*
X105547426Y47945583D01*
X105544752Y48000000D01*
X105547426Y48054417D01*
X105555423Y48108328D01*
X105568660Y48161175D01*
X105587020Y48212486D01*
X105610317Y48261744D01*
X105638329Y48308480D01*
X105670784Y48352240D01*
X105707381Y48392619D01*
X105747760Y48429216D01*
X105791520Y48461671D01*
X105838256Y48489683D01*
X105887514Y48512980D01*
X105938825Y48531340D01*
X105991672Y48544577D01*
X106045583Y48552574D01*
X106100000Y48555248D01*
X106154417Y48552574D01*
X106208328Y48544577D01*
X106261175Y48531340D01*
X106312486Y48512980D01*
X106361744Y48489683D01*
X106408480Y48461671D01*
X106452240Y48429216D01*
X106492620Y48392618D01*
X106526715Y48355000D01*
X126910077Y48355000D01*
X126969451Y48349151D01*
X127036229Y48328893D01*
X127097776Y48295996D01*
X127143897Y48258148D01*
X129358148Y46043897D01*
X129395996Y45997776D01*
X129428893Y45936229D01*
X129449151Y45869451D01*
X129455000Y45810077D01*
X129455000Y42747047D01*
X132649289Y39552757D01*
X132700007Y39555247D01*
X132754417Y39552574D01*
X132808328Y39544577D01*
X132861175Y39531340D01*
X132912486Y39512980D01*
X132961744Y39489683D01*
X133008480Y39461671D01*
X133052240Y39429216D01*
X133092619Y39392619D01*
X133129216Y39352240D01*
X133161671Y39308480D01*
X133189683Y39261744D01*
X133212980Y39212486D01*
X133231340Y39161175D01*
X133244577Y39108328D01*
X133252574Y39054417D01*
X133255248Y39000000D01*
X133252574Y38945583D01*
X133244577Y38891672D01*
X133231340Y38838825D01*
X133212980Y38787514D01*
X133189683Y38738256D01*
X133161671Y38691520D01*
X133129216Y38647760D01*
X133092619Y38607381D01*
X133052240Y38570784D01*
X133008480Y38538329D01*
X132961744Y38510317D01*
X132912486Y38487020D01*
X132861175Y38468660D01*
X132808328Y38455423D01*
X132754417Y38447426D01*
X132700000Y38444752D01*
D02*
G37*
%LPC*%
G36*
X129500000Y38994752D02*
X129430883Y38998148D01*
X129362405Y39008307D01*
X129295284Y39025118D01*
X129230114Y39048438D01*
X129167551Y39078027D01*
X129108179Y39113614D01*
X129052600Y39154834D01*
X129008284Y39195000D01*
X125989935Y39195000D01*
X125901284Y39203731D01*
X125806363Y39232525D01*
X125718885Y39279283D01*
X125642090Y39342305D01*
X125635673Y39350149D01*
X120580821Y44405000D01*
X116681716Y44405000D01*
X116637400Y44364834D01*
X116581821Y44323614D01*
X116522449Y44288027D01*
X116459886Y44258438D01*
X116394716Y44235118D01*
X116327595Y44218307D01*
X116259117Y44208148D01*
X116190000Y44204752D01*
X116120883Y44208148D01*
X116052405Y44218307D01*
X115985284Y44235118D01*
X115920114Y44258438D01*
X115857551Y44288027D01*
X115798179Y44323614D01*
X115742599Y44364834D01*
X115691315Y44411315D01*
X115644834Y44462599D01*
X115603614Y44518179D01*
X115568027Y44577551D01*
X115538438Y44640114D01*
X115515118Y44705284D01*
X115498307Y44772405D01*
X115488148Y44840883D01*
X115484752Y44910000D01*
X115488148Y44979117D01*
X115498307Y45047595D01*
X115515118Y45114716D01*
X115538438Y45179886D01*
X115568027Y45242449D01*
X115603614Y45301821D01*
X115644834Y45357401D01*
X115691315Y45408685D01*
X115742599Y45455166D01*
X115798179Y45496386D01*
X115857551Y45531973D01*
X115920114Y45561562D01*
X115985284Y45584882D01*
X116052405Y45601693D01*
X116120883Y45611852D01*
X116190000Y45615248D01*
X116259117Y45611852D01*
X116327595Y45601693D01*
X116394716Y45584882D01*
X116459886Y45561562D01*
X116522449Y45531973D01*
X116581821Y45496386D01*
X116637400Y45455166D01*
X116681716Y45415000D01*
X120800075Y45415000D01*
X120888713Y45406269D01*
X120983636Y45377474D01*
X121071113Y45330716D01*
X121139962Y45274215D01*
X126209179Y40205000D01*
X129008284Y40205000D01*
X129052600Y40245166D01*
X129108179Y40286386D01*
X129167551Y40321973D01*
X129230114Y40351562D01*
X129295284Y40374882D01*
X129362405Y40391693D01*
X129430883Y40401852D01*
X129500000Y40405248D01*
X129569117Y40401852D01*
X129637595Y40391693D01*
X129704716Y40374882D01*
X129769886Y40351562D01*
X129832449Y40321973D01*
X129891821Y40286386D01*
X129947401Y40245166D01*
X129998685Y40198685D01*
X130045166Y40147401D01*
X130086386Y40091821D01*
X130121973Y40032449D01*
X130151562Y39969886D01*
X130174882Y39904716D01*
X130191693Y39837595D01*
X130201852Y39769117D01*
X130205248Y39700000D01*
X130201852Y39630883D01*
X130191693Y39562405D01*
X130174882Y39495284D01*
X130151562Y39430114D01*
X130121973Y39367551D01*
X130086386Y39308179D01*
X130045166Y39252599D01*
X129998685Y39201315D01*
X129947401Y39154834D01*
X129891821Y39113614D01*
X129832449Y39078027D01*
X129769886Y39048438D01*
X129704716Y39025118D01*
X129637595Y39008307D01*
X129569117Y38998148D01*
X129500000Y38994752D01*
D02*
G37*
%LPC*%
G36*
X126500000Y24994752D02*
X126421077Y24998631D01*
X126342906Y25010225D01*
X126266244Y25029429D01*
X126191851Y25056047D01*
X126120406Y25089838D01*
X126052630Y25130461D01*
X125965608Y25195000D01*
X122189935Y25195000D01*
X122081775Y25205652D01*
X121968095Y25240137D01*
X121863327Y25296137D01*
X121771380Y25371596D01*
X121764964Y25379437D01*
X120079437Y27064964D01*
X120071596Y27071380D01*
X119996137Y27163327D01*
X119940137Y27268095D01*
X119905652Y27381775D01*
X119895000Y27489935D01*
X119895000Y40365608D01*
X119830461Y40452630D01*
X119789838Y40520406D01*
X119756047Y40591851D01*
X119729429Y40666244D01*
X119710225Y40742906D01*
X119698631Y40821077D01*
X119694752Y40900000D01*
X119698631Y40978923D01*
X119710225Y41057094D01*
X119729429Y41133756D01*
X119756047Y41208149D01*
X119789838Y41279594D01*
X119830461Y41347370D01*
X119877536Y41410843D01*
X119930604Y41469396D01*
X119989157Y41522464D01*
X120052630Y41569539D01*
X120120406Y41610162D01*
X120191851Y41643953D01*
X120266244Y41670571D01*
X120342906Y41689775D01*
X120421077Y41701369D01*
X120500000Y41705248D01*
X120578923Y41701369D01*
X120657094Y41689775D01*
X120733756Y41670571D01*
X120808149Y41643953D01*
X120879594Y41610162D01*
X120947370Y41569539D01*
X121010843Y41522464D01*
X121069396Y41469396D01*
X121122464Y41410843D01*
X121169539Y41347370D01*
X121210162Y41279594D01*
X121243953Y41208149D01*
X121270571Y41133756D01*
X121289775Y41057094D01*
X121301369Y40978923D01*
X121305248Y40900000D01*
X121301369Y40821077D01*
X121289775Y40742906D01*
X121270571Y40666244D01*
X121243953Y40591851D01*
X121210162Y40520406D01*
X121169539Y40452630D01*
X121105000Y40365608D01*
X121105000Y27750599D01*
X122450599Y26405000D01*
X125965608Y26405000D01*
X126052630Y26469539D01*
X126120406Y26510162D01*
X126191851Y26543953D01*
X126266244Y26570571D01*
X126342906Y26589775D01*
X126421077Y26601369D01*
X126500000Y26605248D01*
X126578923Y26601369D01*
X126657094Y26589775D01*
X126733756Y26570571D01*
X126808149Y26543953D01*
X126879594Y26510162D01*
X126947370Y26469539D01*
X127010843Y26422464D01*
X127069396Y26369396D01*
X127122464Y26310843D01*
X127169539Y26247370D01*
X127210162Y26179594D01*
X127243953Y26108149D01*
X127270571Y26033756D01*
X127289775Y25957094D01*
X127301369Y25878923D01*
X127305248Y25800000D01*
X127301369Y25721077D01*
X127289775Y25642906D01*
X127270571Y25566244D01*
X127243953Y25491851D01*
X127210162Y25420406D01*
X127169539Y25352630D01*
X127122464Y25289157D01*
X127069396Y25230604D01*
X127010843Y25177536D01*
X126947370Y25130461D01*
X126879594Y25089838D01*
X126808149Y25056047D01*
X126733756Y25029429D01*
X126657094Y25010225D01*
X126578923Y24998631D01*
X126500000Y24994752D01*
D02*
G37*
%LPC*%
G36*
X92000000Y26644752D02*
X91876973Y26650798D01*
X91755108Y26668874D01*
X91635622Y26698803D01*
X91519640Y26740302D01*
X91408282Y26792970D01*
X91302623Y26856300D01*
X91203681Y26929681D01*
X91112406Y27012406D01*
X91029681Y27103681D01*
X90956300Y27202623D01*
X90892970Y27308282D01*
X90840302Y27419640D01*
X90798803Y27535622D01*
X90768874Y27655108D01*
X90750798Y27776973D01*
X90744752Y27900000D01*
X90750798Y28023027D01*
X90768874Y28144892D01*
X90798803Y28264378D01*
X90840301Y28380356D01*
X90897229Y28500725D01*
X87050712Y32347242D01*
X86999995Y32344752D01*
X86945583Y32347426D01*
X86891672Y32355423D01*
X86838825Y32368660D01*
X86787514Y32387020D01*
X86738256Y32410317D01*
X86691520Y32438329D01*
X86647760Y32470784D01*
X86607381Y32507381D01*
X86570784Y32547760D01*
X86538329Y32591520D01*
X86510317Y32638256D01*
X86487020Y32687514D01*
X86468660Y32738825D01*
X86455423Y32791672D01*
X86447426Y32845583D01*
X86444752Y32900000D01*
X86447426Y32954417D01*
X86455423Y33008328D01*
X86468660Y33061175D01*
X86487020Y33112486D01*
X86510317Y33161744D01*
X86538329Y33208480D01*
X86570784Y33252240D01*
X86607381Y33292619D01*
X86647760Y33329216D01*
X86691520Y33361671D01*
X86738256Y33389683D01*
X86787514Y33412980D01*
X86838825Y33431340D01*
X86891672Y33444577D01*
X86945583Y33452574D01*
X87000000Y33455248D01*
X87054417Y33452574D01*
X87108328Y33444577D01*
X87161175Y33431340D01*
X87212486Y33412980D01*
X87261744Y33389683D01*
X87308480Y33361671D01*
X87352240Y33329216D01*
X87392619Y33292619D01*
X87429216Y33252240D01*
X87461671Y33208480D01*
X87489683Y33161744D01*
X87512980Y33112486D01*
X87531340Y33061175D01*
X87544577Y33008328D01*
X87552574Y32954417D01*
X87555248Y32900005D01*
X87552758Y32849288D01*
X91399275Y29002771D01*
X91519644Y29059699D01*
X91635622Y29101197D01*
X91755108Y29131126D01*
X91876973Y29149202D01*
X92000000Y29155248D01*
X92123027Y29149202D01*
X92244892Y29131126D01*
X92364378Y29101197D01*
X92480360Y29059698D01*
X92591718Y29007030D01*
X92697377Y28943700D01*
X92796319Y28870319D01*
X92887594Y28787594D01*
X92970319Y28696319D01*
X93043700Y28597377D01*
X93107030Y28491718D01*
X93159698Y28380360D01*
X93201197Y28264378D01*
X93231126Y28144892D01*
X93249202Y28023027D01*
X93255248Y27900000D01*
X93249202Y27776973D01*
X93231126Y27655108D01*
X93201197Y27535622D01*
X93159698Y27419640D01*
X93107030Y27308282D01*
X93043700Y27202623D01*
X92970319Y27103681D01*
X92887594Y27012406D01*
X92796319Y26929681D01*
X92697377Y26856300D01*
X92591718Y26792970D01*
X92480360Y26740302D01*
X92364378Y26698803D01*
X92244892Y26668874D01*
X92123027Y26650798D01*
X92000000Y26644752D01*
D02*
G37*
%LPC*%
G36*
X115500000Y26644752D02*
X115376973Y26650798D01*
X115255108Y26668874D01*
X115135622Y26698803D01*
X115019640Y26740302D01*
X114908282Y26792970D01*
X114802623Y26856300D01*
X114703681Y26929681D01*
X114612406Y27012406D01*
X114529681Y27103681D01*
X114456300Y27202623D01*
X114392970Y27308282D01*
X114340302Y27419640D01*
X114298803Y27535622D01*
X114268874Y27655108D01*
X114250798Y27776973D01*
X114244752Y27900000D01*
X114250798Y28023027D01*
X114268874Y28144892D01*
X114298803Y28264378D01*
X114340302Y28380360D01*
X114397229Y28500724D01*
X112852953Y30045000D01*
X105026715Y30045000D01*
X104992620Y30007382D01*
X104952240Y29970784D01*
X104908480Y29938329D01*
X104861744Y29910317D01*
X104812486Y29887020D01*
X104761175Y29868660D01*
X104708328Y29855423D01*
X104654417Y29847426D01*
X104600000Y29844752D01*
X104545583Y29847426D01*
X104491672Y29855423D01*
X104438825Y29868660D01*
X104387514Y29887020D01*
X104338256Y29910317D01*
X104291520Y29938329D01*
X104247760Y29970784D01*
X104207381Y30007381D01*
X104170784Y30047760D01*
X104138329Y30091520D01*
X104110317Y30138256D01*
X104087020Y30187514D01*
X104068660Y30238825D01*
X104055423Y30291672D01*
X104047426Y30345583D01*
X104044752Y30400000D01*
X104047426Y30454417D01*
X104055423Y30508328D01*
X104068660Y30561175D01*
X104087020Y30612486D01*
X104110317Y30661744D01*
X104138329Y30708480D01*
X104170784Y30752240D01*
X104207381Y30792619D01*
X104247760Y30829216D01*
X104291520Y30861671D01*
X104338256Y30889683D01*
X104387514Y30912980D01*
X104438825Y30931340D01*
X104491672Y30944577D01*
X104545583Y30952574D01*
X104600000Y30955248D01*
X104654417Y30952574D01*
X104708328Y30944577D01*
X104761175Y30931340D01*
X104812486Y30912980D01*
X104861744Y30889683D01*
X104908480Y30861671D01*
X104952240Y30829216D01*
X104992620Y30792618D01*
X105026715Y30755000D01*
X113010077Y30755000D01*
X113069451Y30749151D01*
X113136229Y30728893D01*
X113197776Y30695996D01*
X113243897Y30658148D01*
X114899275Y29002771D01*
X115019644Y29059699D01*
X115135622Y29101197D01*
X115255108Y29131126D01*
X115376973Y29149202D01*
X115500000Y29155248D01*
X115623027Y29149202D01*
X115744892Y29131126D01*
X115864378Y29101197D01*
X115980360Y29059698D01*
X116091718Y29007030D01*
X116197377Y28943700D01*
X116296319Y28870319D01*
X116387594Y28787594D01*
X116470319Y28696319D01*
X116543700Y28597377D01*
X116607030Y28491718D01*
X116659698Y28380360D01*
X116701197Y28264378D01*
X116731126Y28144892D01*
X116749202Y28023027D01*
X116755248Y27900000D01*
X116749202Y27776973D01*
X116731126Y27655108D01*
X116701197Y27535622D01*
X116659698Y27419640D01*
X116607030Y27308282D01*
X116543700Y27202623D01*
X116470319Y27103681D01*
X116387594Y27012406D01*
X116296319Y26929681D01*
X116197377Y26856300D01*
X116091718Y26792970D01*
X115980360Y26740302D01*
X115864378Y26698803D01*
X115744892Y26668874D01*
X115623027Y26650798D01*
X115500000Y26644752D01*
D02*
G37*
%LPC*%
G36*
X87000000Y26644752D02*
X86876973Y26650798D01*
X86755108Y26668874D01*
X86635622Y26698803D01*
X86519640Y26740302D01*
X86408282Y26792970D01*
X86302623Y26856300D01*
X86203681Y26929681D01*
X86112406Y27012406D01*
X86029681Y27103681D01*
X85956300Y27202623D01*
X85892970Y27308282D01*
X85840302Y27419640D01*
X85798803Y27535622D01*
X85768874Y27655108D01*
X85750798Y27776973D01*
X85744752Y27900000D01*
X85750798Y28023027D01*
X85768874Y28144892D01*
X85798803Y28264378D01*
X85840302Y28380360D01*
X85892970Y28491718D01*
X85956300Y28597377D01*
X86029681Y28696319D01*
X86112406Y28787594D01*
X86203681Y28870319D01*
X86302623Y28943700D01*
X86408282Y29007030D01*
X86519640Y29059698D01*
X86635622Y29101197D01*
X86755108Y29131126D01*
X86876973Y29149202D01*
X87000000Y29155248D01*
X87123027Y29149202D01*
X87244892Y29131126D01*
X87364378Y29101197D01*
X87480360Y29059698D01*
X87591718Y29007030D01*
X87697377Y28943700D01*
X87796319Y28870319D01*
X87887594Y28787594D01*
X87970319Y28696319D01*
X88043700Y28597377D01*
X88107030Y28491718D01*
X88159698Y28380360D01*
X88201197Y28264378D01*
X88231126Y28144892D01*
X88249202Y28023027D01*
X88255248Y27900000D01*
X88249202Y27776973D01*
X88231126Y27655108D01*
X88201197Y27535622D01*
X88159698Y27419640D01*
X88107030Y27308282D01*
X88043700Y27202623D01*
X87970319Y27103681D01*
X87887594Y27012406D01*
X87796319Y26929681D01*
X87697377Y26856300D01*
X87591718Y26792970D01*
X87480360Y26740302D01*
X87364378Y26698803D01*
X87244892Y26668874D01*
X87123027Y26650798D01*
X87000000Y26644752D01*
D02*
G37*
%LPC*%
G36*
X97000000Y26644752D02*
X96876973Y26650798D01*
X96755108Y26668874D01*
X96635622Y26698803D01*
X96519640Y26740302D01*
X96408282Y26792970D01*
X96302623Y26856300D01*
X96203681Y26929681D01*
X96112406Y27012406D01*
X96029681Y27103681D01*
X95956300Y27202623D01*
X95892970Y27308282D01*
X95840302Y27419640D01*
X95798803Y27535622D01*
X95768874Y27655108D01*
X95750798Y27776973D01*
X95744752Y27900000D01*
X95750798Y28023027D01*
X95768874Y28144892D01*
X95798803Y28264378D01*
X95840302Y28380360D01*
X95892970Y28491718D01*
X95956300Y28597377D01*
X96029681Y28696319D01*
X96112406Y28787594D01*
X96203681Y28870319D01*
X96302623Y28943700D01*
X96408282Y29007030D01*
X96519640Y29059698D01*
X96635622Y29101197D01*
X96755108Y29131126D01*
X96876973Y29149202D01*
X97000000Y29155248D01*
X97123027Y29149202D01*
X97244892Y29131126D01*
X97364378Y29101197D01*
X97480360Y29059698D01*
X97591718Y29007030D01*
X97697377Y28943700D01*
X97796319Y28870319D01*
X97887594Y28787594D01*
X97970319Y28696319D01*
X98043700Y28597377D01*
X98107030Y28491718D01*
X98159698Y28380360D01*
X98201197Y28264378D01*
X98231126Y28144892D01*
X98249202Y28023027D01*
X98255248Y27900000D01*
X98249202Y27776973D01*
X98231126Y27655108D01*
X98201197Y27535622D01*
X98159698Y27419640D01*
X98107030Y27308282D01*
X98043700Y27202623D01*
X97970319Y27103681D01*
X97887594Y27012406D01*
X97796319Y26929681D01*
X97697377Y26856300D01*
X97591718Y26792970D01*
X97480360Y26740302D01*
X97364378Y26698803D01*
X97244892Y26668874D01*
X97123027Y26650798D01*
X97000000Y26644752D01*
D02*
G37*
%LPC*%
G36*
X124000000Y26644752D02*
X123876973Y26650798D01*
X123755108Y26668874D01*
X123635622Y26698803D01*
X123519640Y26740302D01*
X123408282Y26792970D01*
X123302623Y26856300D01*
X123203681Y26929681D01*
X123112406Y27012406D01*
X123029681Y27103681D01*
X122956300Y27202623D01*
X122892970Y27308282D01*
X122840302Y27419640D01*
X122798803Y27535622D01*
X122768874Y27655108D01*
X122750798Y27776973D01*
X122744752Y27900000D01*
X122750798Y28023027D01*
X122768874Y28144892D01*
X122798803Y28264378D01*
X122840302Y28380360D01*
X122892970Y28491718D01*
X122956300Y28597377D01*
X123029681Y28696319D01*
X123112406Y28787594D01*
X123203681Y28870319D01*
X123302623Y28943700D01*
X123408282Y29007030D01*
X123519640Y29059698D01*
X123635622Y29101197D01*
X123755108Y29131126D01*
X123876973Y29149202D01*
X124000000Y29155248D01*
X124123027Y29149202D01*
X124244892Y29131126D01*
X124364378Y29101197D01*
X124480360Y29059698D01*
X124591718Y29007030D01*
X124697377Y28943700D01*
X124796319Y28870319D01*
X124887594Y28787594D01*
X124970319Y28696319D01*
X125043700Y28597377D01*
X125107030Y28491718D01*
X125159698Y28380360D01*
X125201197Y28264378D01*
X125231126Y28144892D01*
X125249202Y28023027D01*
X125255248Y27900000D01*
X125249202Y27776973D01*
X125231126Y27655108D01*
X125201197Y27535622D01*
X125159698Y27419640D01*
X125107030Y27308282D01*
X125043700Y27202623D01*
X124970319Y27103681D01*
X124887594Y27012406D01*
X124796319Y26929681D01*
X124697377Y26856300D01*
X124591718Y26792970D01*
X124480360Y26740302D01*
X124364378Y26698803D01*
X124244892Y26668874D01*
X124123027Y26650798D01*
X124000000Y26644752D01*
D02*
G37*
%LPC*%
G36*
X129000000Y26644752D02*
X128876973Y26650798D01*
X128755108Y26668874D01*
X128635622Y26698803D01*
X128519640Y26740302D01*
X128408282Y26792970D01*
X128302623Y26856300D01*
X128203681Y26929681D01*
X128112406Y27012406D01*
X128029681Y27103681D01*
X127956300Y27202623D01*
X127892970Y27308282D01*
X127840302Y27419640D01*
X127798803Y27535622D01*
X127768874Y27655108D01*
X127750798Y27776973D01*
X127744752Y27900000D01*
X127750798Y28023027D01*
X127768874Y28144892D01*
X127798803Y28264378D01*
X127840302Y28380360D01*
X127892970Y28491718D01*
X127956300Y28597377D01*
X128029681Y28696319D01*
X128112406Y28787594D01*
X128203681Y28870319D01*
X128302623Y28943700D01*
X128408282Y29007030D01*
X128519640Y29059698D01*
X128635622Y29101197D01*
X128755108Y29131126D01*
X128876973Y29149202D01*
X129000000Y29155248D01*
X129123027Y29149202D01*
X129244892Y29131126D01*
X129364378Y29101197D01*
X129480360Y29059698D01*
X129591718Y29007030D01*
X129697377Y28943700D01*
X129796319Y28870319D01*
X129887594Y28787594D01*
X129970319Y28696319D01*
X130043700Y28597377D01*
X130107030Y28491718D01*
X130159698Y28380360D01*
X130201197Y28264378D01*
X130231126Y28144892D01*
X130249202Y28023027D01*
X130255248Y27900000D01*
X130249202Y27776973D01*
X130231126Y27655108D01*
X130201197Y27535622D01*
X130159698Y27419640D01*
X130107030Y27308282D01*
X130043700Y27202623D01*
X129970319Y27103681D01*
X129887594Y27012406D01*
X129796319Y26929681D01*
X129697377Y26856300D01*
X129591718Y26792970D01*
X129480360Y26740302D01*
X129364378Y26698803D01*
X129244892Y26668874D01*
X129123027Y26650798D01*
X129000000Y26644752D01*
D02*
G37*
%LPC*%
G36*
X134000000Y26644752D02*
X133876973Y26650798D01*
X133755108Y26668874D01*
X133635622Y26698803D01*
X133519640Y26740302D01*
X133408282Y26792970D01*
X133302623Y26856300D01*
X133203681Y26929681D01*
X133112406Y27012406D01*
X133029681Y27103681D01*
X132956300Y27202623D01*
X132892970Y27308282D01*
X132840302Y27419640D01*
X132798803Y27535622D01*
X132768874Y27655108D01*
X132750798Y27776973D01*
X132744752Y27900000D01*
X132750798Y28023027D01*
X132768874Y28144892D01*
X132798803Y28264378D01*
X132840302Y28380360D01*
X132892970Y28491718D01*
X132956300Y28597377D01*
X133029681Y28696319D01*
X133112406Y28787594D01*
X133203681Y28870319D01*
X133302623Y28943700D01*
X133408282Y29007030D01*
X133519640Y29059698D01*
X133635622Y29101197D01*
X133755108Y29131126D01*
X133876973Y29149202D01*
X134000000Y29155248D01*
X134123027Y29149202D01*
X134244892Y29131126D01*
X134364378Y29101197D01*
X134480360Y29059698D01*
X134591718Y29007030D01*
X134697377Y28943700D01*
X134796319Y28870319D01*
X134887594Y28787594D01*
X134970319Y28696319D01*
X135043700Y28597377D01*
X135107030Y28491718D01*
X135159698Y28380360D01*
X135201197Y28264378D01*
X135231126Y28144892D01*
X135249202Y28023027D01*
X135255248Y27900000D01*
X135249202Y27776973D01*
X135231126Y27655108D01*
X135201197Y27535622D01*
X135159698Y27419640D01*
X135107030Y27308282D01*
X135043700Y27202623D01*
X134970319Y27103681D01*
X134887594Y27012406D01*
X134796319Y26929681D01*
X134697377Y26856300D01*
X134591718Y26792970D01*
X134480360Y26740302D01*
X134364378Y26698803D01*
X134244892Y26668874D01*
X134123027Y26650798D01*
X134000000Y26644752D01*
D02*
G37*
%LPC*%
G36*
X105395000Y28005000D02*
X104254918Y28005000D01*
X104255780Y28022538D01*
X104273783Y28143912D01*
X104303595Y28262927D01*
X104344927Y28378444D01*
X104397385Y28489358D01*
X104460463Y28594596D01*
X104533551Y28693143D01*
X104615946Y28784054D01*
X104706857Y28866449D01*
X104805404Y28939537D01*
X104910642Y29002615D01*
X105021556Y29055073D01*
X105137073Y29096405D01*
X105256088Y29126217D01*
X105377462Y29144220D01*
X105395000Y29145082D01*
X105395000Y28005000D01*
D02*
G37*
%LPC*%
G36*
X106745082Y28005000D02*
X105605000Y28005000D01*
X105605000Y29145082D01*
X105622538Y29144220D01*
X105743912Y29126217D01*
X105862927Y29096405D01*
X105978444Y29055073D01*
X106089358Y29002615D01*
X106194596Y28939537D01*
X106293143Y28866449D01*
X106384054Y28784054D01*
X106466449Y28693143D01*
X106539537Y28594596D01*
X106602615Y28489358D01*
X106655073Y28378444D01*
X106696405Y28262927D01*
X106726217Y28143912D01*
X106744220Y28022538D01*
X106745082Y28005000D01*
D02*
G37*
%LPC*%
G36*
X110395000Y28005000D02*
X109254918Y28005000D01*
X109255780Y28022538D01*
X109273783Y28143912D01*
X109303595Y28262927D01*
X109344927Y28378444D01*
X109397385Y28489358D01*
X109460463Y28594596D01*
X109533551Y28693143D01*
X109615946Y28784054D01*
X109706857Y28866449D01*
X109805404Y28939537D01*
X109910642Y29002615D01*
X110021556Y29055073D01*
X110137073Y29096405D01*
X110256088Y29126217D01*
X110377462Y29144220D01*
X110395000Y29145082D01*
X110395000Y28005000D01*
D02*
G37*
%LPC*%
G36*
X111745082Y28005000D02*
X110605000Y28005000D01*
X110605000Y29145082D01*
X110622538Y29144220D01*
X110743912Y29126217D01*
X110862927Y29096405D01*
X110978444Y29055073D01*
X111089358Y29002615D01*
X111194596Y28939537D01*
X111293143Y28866449D01*
X111384054Y28784054D01*
X111466449Y28693143D01*
X111539537Y28594596D01*
X111602615Y28489358D01*
X111655073Y28378444D01*
X111696405Y28262927D01*
X111726217Y28143912D01*
X111744220Y28022538D01*
X111745082Y28005000D01*
D02*
G37*
%LPC*%
G36*
X110605000Y26654918D02*
X110605000Y27795000D01*
X111745082Y27795000D01*
X111744220Y27777462D01*
X111726217Y27656088D01*
X111696405Y27537073D01*
X111655073Y27421556D01*
X111602615Y27310642D01*
X111539537Y27205404D01*
X111466449Y27106857D01*
X111384054Y27015946D01*
X111293143Y26933551D01*
X111194596Y26860463D01*
X111089358Y26797385D01*
X110978444Y26744927D01*
X110862927Y26703595D01*
X110743912Y26673783D01*
X110622538Y26655780D01*
X110605000Y26654918D01*
D02*
G37*
%LPC*%
G36*
X110395000Y26654918D02*
X110377462Y26655780D01*
X110256088Y26673783D01*
X110137073Y26703595D01*
X110021556Y26744927D01*
X109910642Y26797385D01*
X109805404Y26860463D01*
X109706857Y26933551D01*
X109615946Y27015946D01*
X109533551Y27106857D01*
X109460463Y27205404D01*
X109397385Y27310642D01*
X109344927Y27421556D01*
X109303595Y27537073D01*
X109273783Y27656088D01*
X109255780Y27777462D01*
X109254918Y27795000D01*
X110395000Y27795000D01*
X110395000Y26654918D01*
D02*
G37*
%LPC*%
G36*
X105605000Y26654918D02*
X105605000Y27795000D01*
X106745082Y27795000D01*
X106744220Y27777462D01*
X106726217Y27656088D01*
X106696405Y27537073D01*
X106655073Y27421556D01*
X106602615Y27310642D01*
X106539537Y27205404D01*
X106466449Y27106857D01*
X106384054Y27015946D01*
X106293143Y26933551D01*
X106194596Y26860463D01*
X106089358Y26797385D01*
X105978444Y26744927D01*
X105862927Y26703595D01*
X105743912Y26673783D01*
X105622538Y26655780D01*
X105605000Y26654918D01*
D02*
G37*
%LPC*%
G36*
X105395000Y26654918D02*
X105377462Y26655780D01*
X105256088Y26673783D01*
X105137073Y26703595D01*
X105021556Y26744927D01*
X104910642Y26797385D01*
X104805404Y26860463D01*
X104706857Y26933551D01*
X104615946Y27015946D01*
X104533551Y27106857D01*
X104460463Y27205404D01*
X104397385Y27310642D01*
X104344927Y27421556D01*
X104303595Y27537073D01*
X104273783Y27656088D01*
X104255780Y27777462D01*
X104254918Y27795000D01*
X105395000Y27795000D01*
X105395000Y26654918D01*
D02*
G37*
%LPC*%
G36*
X105710000Y11694752D02*
X105611475Y11699594D01*
X105513884Y11714069D01*
X105418193Y11738038D01*
X105325304Y11771275D01*
X105236140Y11813445D01*
X105151512Y11864170D01*
X105072277Y11922935D01*
X104999183Y11989183D01*
X104932935Y12062277D01*
X104874170Y12141512D01*
X104823445Y12226140D01*
X104781275Y12315304D01*
X104748038Y12408193D01*
X104724069Y12503884D01*
X104709594Y12601475D01*
X104704752Y12700000D01*
X104709594Y12798525D01*
X104724069Y12896116D01*
X104748038Y12991807D01*
X104781275Y13084696D01*
X104823445Y13173860D01*
X104874170Y13258488D01*
X104932935Y13337723D01*
X104999183Y13410817D01*
X105072277Y13477065D01*
X105151517Y13535833D01*
X105205000Y13567888D01*
X105205000Y14130066D01*
X105213731Y14218715D01*
X105242525Y14313636D01*
X105289283Y14401113D01*
X105351714Y14477187D01*
X105359484Y14483662D01*
X110595000Y19719179D01*
X110595000Y20108284D01*
X110554834Y20152600D01*
X110513614Y20208179D01*
X110478027Y20267551D01*
X110448438Y20330114D01*
X110425118Y20395284D01*
X110408307Y20462405D01*
X110398148Y20530883D01*
X110394752Y20600000D01*
X110398148Y20669117D01*
X110408307Y20737595D01*
X110425118Y20804716D01*
X110448438Y20869886D01*
X110478027Y20932449D01*
X110513614Y20991821D01*
X110554834Y21047401D01*
X110601315Y21098685D01*
X110652599Y21145166D01*
X110708179Y21186386D01*
X110767551Y21221973D01*
X110830114Y21251562D01*
X110895284Y21274882D01*
X110962405Y21291693D01*
X111030883Y21301852D01*
X111100000Y21305248D01*
X111169117Y21301852D01*
X111237595Y21291693D01*
X111304716Y21274882D01*
X111369886Y21251562D01*
X111432449Y21221973D01*
X111491821Y21186386D01*
X111547401Y21145166D01*
X111598685Y21098685D01*
X111645166Y21047401D01*
X111686386Y20991821D01*
X111721973Y20932449D01*
X111751562Y20869886D01*
X111774882Y20804716D01*
X111791693Y20737595D01*
X111801852Y20669117D01*
X111805248Y20600000D01*
X111801852Y20530883D01*
X111791693Y20462405D01*
X111774882Y20395284D01*
X111751562Y20330114D01*
X111721973Y20267551D01*
X111686386Y20208179D01*
X111645166Y20152600D01*
X111605000Y20108284D01*
X111605000Y19499925D01*
X111596269Y19411286D01*
X111567474Y19316363D01*
X111520716Y19228886D01*
X111458285Y19152812D01*
X111450515Y19146337D01*
X106215000Y13910821D01*
X106215000Y13567888D01*
X106268483Y13535833D01*
X106347723Y13477065D01*
X106420817Y13410817D01*
X106487065Y13337723D01*
X106545830Y13258488D01*
X106596555Y13173860D01*
X106638725Y13084696D01*
X106671962Y12991807D01*
X106695931Y12896116D01*
X106710406Y12798525D01*
X106715248Y12700000D01*
X106710406Y12601475D01*
X106695931Y12503884D01*
X106671962Y12408193D01*
X106638725Y12315304D01*
X106596555Y12226140D01*
X106545830Y12141512D01*
X106487065Y12062277D01*
X106420817Y11989183D01*
X106347723Y11922935D01*
X106268488Y11864170D01*
X106183860Y11813445D01*
X106094696Y11771275D01*
X106001807Y11738038D01*
X105906116Y11714069D01*
X105808525Y11699594D01*
X105710000Y11694752D01*
D02*
G37*
%LPC*%
G36*
X122760000Y14044753D02*
X122676170Y14048872D01*
X122593142Y14061189D01*
X122511738Y14081578D01*
X122432709Y14109856D01*
X122356842Y14145739D01*
X122284852Y14188888D01*
X122217438Y14238886D01*
X122155249Y14295249D01*
X122098886Y14357438D01*
X122048888Y14424852D01*
X122005739Y14496842D01*
X121969856Y14572709D01*
X121941578Y14651738D01*
X121921189Y14733142D01*
X121908872Y14816170D01*
X121904753Y14900000D01*
X121908872Y14983830D01*
X121921189Y15066858D01*
X121941578Y15148262D01*
X121969856Y15227291D01*
X122005739Y15303158D01*
X122048888Y15375148D01*
X122098886Y15442562D01*
X122155249Y15504751D01*
X122217438Y15561114D01*
X122284852Y15611112D01*
X122356842Y15654261D01*
X122432709Y15690144D01*
X122511738Y15718422D01*
X122593142Y15738811D01*
X122676170Y15751128D01*
X122760000Y15755247D01*
X122843830Y15751128D01*
X122926858Y15738811D01*
X123008262Y15718422D01*
X123087291Y15690144D01*
X123163158Y15654261D01*
X123235148Y15611112D01*
X123302562Y15561114D01*
X123364751Y15504751D01*
X123421114Y15442562D01*
X123471112Y15375148D01*
X123514261Y15303158D01*
X123550144Y15227291D01*
X123578422Y15148262D01*
X123598811Y15066858D01*
X123611128Y14983830D01*
X123615247Y14900000D01*
X123611128Y14816170D01*
X123598811Y14733142D01*
X123578422Y14651738D01*
X123550144Y14572709D01*
X123514261Y14496842D01*
X123471112Y14424852D01*
X123421114Y14357438D01*
X123364751Y14295249D01*
X123302562Y14238886D01*
X123235148Y14188888D01*
X123163158Y14145739D01*
X123087291Y14109856D01*
X123008262Y14081578D01*
X122926858Y14061189D01*
X122843830Y14048872D01*
X122760000Y14044753D01*
D02*
G37*
%LPC*%
G36*
X127840000Y14044753D02*
X127756170Y14048872D01*
X127673142Y14061189D01*
X127591738Y14081578D01*
X127512709Y14109856D01*
X127436842Y14145739D01*
X127364852Y14188888D01*
X127297438Y14238886D01*
X127235249Y14295249D01*
X127178886Y14357438D01*
X127128888Y14424852D01*
X127085739Y14496842D01*
X127049856Y14572709D01*
X127021578Y14651738D01*
X127001189Y14733142D01*
X126988872Y14816170D01*
X126984753Y14900000D01*
X126988872Y14983830D01*
X127001189Y15066858D01*
X127021578Y15148262D01*
X127049856Y15227291D01*
X127085739Y15303158D01*
X127128888Y15375148D01*
X127178886Y15442562D01*
X127235249Y15504751D01*
X127297438Y15561114D01*
X127364852Y15611112D01*
X127436842Y15654261D01*
X127512709Y15690144D01*
X127591738Y15718422D01*
X127673142Y15738811D01*
X127756170Y15751128D01*
X127840000Y15755247D01*
X127923830Y15751128D01*
X128006858Y15738811D01*
X128088262Y15718422D01*
X128167291Y15690144D01*
X128243158Y15654261D01*
X128315148Y15611112D01*
X128382562Y15561114D01*
X128444751Y15504751D01*
X128501114Y15442562D01*
X128551112Y15375148D01*
X128594261Y15303158D01*
X128630144Y15227291D01*
X128658422Y15148262D01*
X128678811Y15066858D01*
X128691128Y14983830D01*
X128695247Y14900000D01*
X128691128Y14816170D01*
X128678811Y14733142D01*
X128658422Y14651738D01*
X128630144Y14572709D01*
X128594261Y14496842D01*
X128551112Y14424852D01*
X128501114Y14357438D01*
X128444751Y14295249D01*
X128382562Y14238886D01*
X128315148Y14188888D01*
X128243158Y14145739D01*
X128167291Y14109856D01*
X128088262Y14081578D01*
X128006858Y14061189D01*
X127923830Y14048872D01*
X127840000Y14044753D01*
D02*
G37*
%LPC*%
G36*
X85550000Y12724753D02*
X85446567Y12729835D01*
X85344127Y12745031D01*
X85243680Y12770191D01*
X85146180Y12805078D01*
X85052554Y12849358D01*
X84963742Y12902591D01*
X84880556Y12964286D01*
X84803828Y13033828D01*
X84734286Y13110556D01*
X84672591Y13193742D01*
X84619358Y13282554D01*
X84575078Y13376180D01*
X84540191Y13473680D01*
X84515031Y13574127D01*
X84499835Y13676567D01*
X84494753Y13780000D01*
X84499835Y13883433D01*
X84515031Y13985873D01*
X84540191Y14086320D01*
X84575078Y14183820D01*
X84619358Y14277446D01*
X84672591Y14366258D01*
X84734286Y14449444D01*
X84803828Y14526172D01*
X84880556Y14595714D01*
X84963742Y14657409D01*
X85052554Y14710642D01*
X85146180Y14754922D01*
X85243680Y14789809D01*
X85344127Y14814969D01*
X85446567Y14830165D01*
X85550000Y14835247D01*
X85653433Y14830165D01*
X85755873Y14814969D01*
X85856320Y14789809D01*
X85953820Y14754922D01*
X86047446Y14710642D01*
X86136258Y14657409D01*
X86219444Y14595714D01*
X86296172Y14526172D01*
X86365714Y14449444D01*
X86427409Y14366258D01*
X86480642Y14277446D01*
X86524922Y14183820D01*
X86559809Y14086320D01*
X86584969Y13985873D01*
X86600165Y13883433D01*
X86605247Y13780000D01*
X86600165Y13676567D01*
X86584969Y13574127D01*
X86559809Y13473680D01*
X86524922Y13376180D01*
X86480642Y13282554D01*
X86427409Y13193742D01*
X86365714Y13110556D01*
X86296172Y13033828D01*
X86219444Y12964286D01*
X86136258Y12902591D01*
X86047446Y12849358D01*
X85953820Y12805078D01*
X85856320Y12770191D01*
X85755873Y12745031D01*
X85653433Y12729835D01*
X85550000Y12724753D01*
D02*
G37*
%LPC*%
G36*
X132950000Y12724753D02*
X132846567Y12729835D01*
X132744127Y12745031D01*
X132643680Y12770191D01*
X132546180Y12805078D01*
X132452554Y12849358D01*
X132363742Y12902591D01*
X132280556Y12964286D01*
X132203828Y13033828D01*
X132134286Y13110556D01*
X132072591Y13193742D01*
X132019358Y13282554D01*
X131975078Y13376180D01*
X131940191Y13473680D01*
X131915031Y13574127D01*
X131899835Y13676567D01*
X131894753Y13780000D01*
X131899835Y13883433D01*
X131915031Y13985873D01*
X131940191Y14086320D01*
X131975078Y14183820D01*
X132019358Y14277446D01*
X132072591Y14366258D01*
X132134286Y14449444D01*
X132203828Y14526172D01*
X132280556Y14595714D01*
X132363742Y14657409D01*
X132452554Y14710642D01*
X132546180Y14754922D01*
X132643680Y14789809D01*
X132744127Y14814969D01*
X132846567Y14830165D01*
X132950000Y14835247D01*
X133053433Y14830165D01*
X133155873Y14814969D01*
X133256320Y14789809D01*
X133353820Y14754922D01*
X133447446Y14710642D01*
X133536258Y14657409D01*
X133619444Y14595714D01*
X133696172Y14526172D01*
X133765714Y14449444D01*
X133827409Y14366258D01*
X133880642Y14277446D01*
X133924922Y14183820D01*
X133959809Y14086320D01*
X133984969Y13985873D01*
X134000165Y13883433D01*
X134005247Y13780000D01*
X134000165Y13676567D01*
X133984969Y13574127D01*
X133959809Y13473680D01*
X133924922Y13376180D01*
X133880642Y13282554D01*
X133827409Y13193742D01*
X133765714Y13110556D01*
X133696172Y13033828D01*
X133619444Y12964286D01*
X133536258Y12902591D01*
X133447446Y12849358D01*
X133353820Y12805078D01*
X133256320Y12770191D01*
X133155873Y12745031D01*
X133053433Y12729835D01*
X132950000Y12724753D01*
D02*
G37*
%LPC*%
G36*
X87945000Y13885000D02*
X87005122Y13885000D01*
X87019941Y13984897D01*
X87044983Y14084871D01*
X87079705Y14181911D01*
X87123764Y14275070D01*
X87176763Y14363491D01*
X87238150Y14446262D01*
X87307368Y14522632D01*
X87383738Y14591850D01*
X87466509Y14653237D01*
X87554930Y14706236D01*
X87648089Y14750295D01*
X87745129Y14785017D01*
X87845103Y14810059D01*
X87945000Y14824878D01*
X87945000Y13885000D01*
D02*
G37*
%LPC*%
G36*
X89094878Y13885000D02*
X88155000Y13885000D01*
X88155000Y14824878D01*
X88254897Y14810059D01*
X88354871Y14785017D01*
X88451911Y14750295D01*
X88545070Y14706236D01*
X88633491Y14653237D01*
X88716262Y14591850D01*
X88792632Y14522632D01*
X88861850Y14446262D01*
X88923237Y14363491D01*
X88976236Y14275070D01*
X89020295Y14181911D01*
X89055017Y14084871D01*
X89080059Y13984897D01*
X89094878Y13885000D01*
D02*
G37*
%LPC*%
G36*
X135345000Y13885000D02*
X134405122Y13885000D01*
X134419941Y13984897D01*
X134444983Y14084871D01*
X134479705Y14181911D01*
X134523764Y14275070D01*
X134576763Y14363491D01*
X134638150Y14446262D01*
X134707368Y14522632D01*
X134783738Y14591850D01*
X134866509Y14653237D01*
X134954930Y14706236D01*
X135048089Y14750295D01*
X135145129Y14785017D01*
X135245103Y14810059D01*
X135345000Y14824878D01*
X135345000Y13885000D01*
D02*
G37*
%LPC*%
G36*
X136494878Y13885000D02*
X135555000Y13885000D01*
X135555000Y14824878D01*
X135654897Y14810059D01*
X135754871Y14785017D01*
X135851911Y14750295D01*
X135945070Y14706236D01*
X136033491Y14653237D01*
X136116262Y14591850D01*
X136192632Y14522632D01*
X136261850Y14446262D01*
X136323237Y14363491D01*
X136376236Y14275070D01*
X136420295Y14181911D01*
X136455017Y14084871D01*
X136480059Y13984897D01*
X136494878Y13885000D01*
D02*
G37*
%LPC*%
G36*
X112200000Y12374753D02*
X112096567Y12379835D01*
X111994127Y12395031D01*
X111893680Y12420191D01*
X111796180Y12455078D01*
X111702554Y12499358D01*
X111613742Y12552591D01*
X111530556Y12614286D01*
X111453828Y12683828D01*
X111384286Y12760556D01*
X111322591Y12843742D01*
X111269358Y12932554D01*
X111225078Y13026180D01*
X111190191Y13123680D01*
X111165031Y13224127D01*
X111149835Y13326567D01*
X111144753Y13430000D01*
X111149835Y13533433D01*
X111165031Y13635873D01*
X111190191Y13736320D01*
X111225078Y13833820D01*
X111269358Y13927446D01*
X111322591Y14016258D01*
X111384286Y14099444D01*
X111453828Y14176172D01*
X111530556Y14245714D01*
X111613742Y14307409D01*
X111702554Y14360642D01*
X111796180Y14404922D01*
X111893680Y14439809D01*
X111994127Y14464969D01*
X112096567Y14480165D01*
X112200000Y14485247D01*
X112303433Y14480165D01*
X112405873Y14464969D01*
X112506320Y14439809D01*
X112603820Y14404922D01*
X112697446Y14360642D01*
X112786258Y14307409D01*
X112869444Y14245714D01*
X112946172Y14176172D01*
X113015714Y14099444D01*
X113077409Y14016258D01*
X113130642Y13927446D01*
X113174922Y13833820D01*
X113209809Y13736320D01*
X113234969Y13635873D01*
X113250165Y13533433D01*
X113255247Y13430000D01*
X113250165Y13326567D01*
X113234969Y13224127D01*
X113209809Y13123680D01*
X113174922Y13026180D01*
X113130642Y12932554D01*
X113077409Y12843742D01*
X113015714Y12760556D01*
X112946172Y12683828D01*
X112869444Y12614286D01*
X112786258Y12552591D01*
X112697446Y12499358D01*
X112603820Y12455078D01*
X112506320Y12420191D01*
X112405873Y12395031D01*
X112303433Y12379835D01*
X112200000Y12374753D01*
D02*
G37*
%LPC*%
G36*
X119715000Y13535000D02*
X118775122Y13535000D01*
X118789941Y13634897D01*
X118814983Y13734871D01*
X118849705Y13831911D01*
X118893764Y13925070D01*
X118946763Y14013491D01*
X119008150Y14096262D01*
X119077368Y14172632D01*
X119153738Y14241850D01*
X119236509Y14303237D01*
X119324930Y14356236D01*
X119418089Y14400295D01*
X119515129Y14435017D01*
X119615103Y14460059D01*
X119715000Y14474878D01*
X119715000Y13535000D01*
D02*
G37*
%LPC*%
G36*
X120864878Y13535000D02*
X119925000Y13535000D01*
X119925000Y14474878D01*
X120024897Y14460059D01*
X120124871Y14435017D01*
X120221911Y14400295D01*
X120315070Y14356236D01*
X120403491Y14303237D01*
X120486262Y14241850D01*
X120562632Y14172632D01*
X120631850Y14096262D01*
X120693237Y14013491D01*
X120746236Y13925070D01*
X120790295Y13831911D01*
X120825017Y13734871D01*
X120850059Y13634897D01*
X120864878Y13535000D01*
D02*
G37*
%LPC*%
G36*
X95550000Y11694752D02*
X95451475Y11699594D01*
X95353884Y11714069D01*
X95258193Y11738038D01*
X95165304Y11771275D01*
X95076140Y11813445D01*
X94991512Y11864170D01*
X94912277Y11922935D01*
X94839183Y11989183D01*
X94772935Y12062277D01*
X94714170Y12141512D01*
X94663445Y12226140D01*
X94621275Y12315304D01*
X94588038Y12408193D01*
X94564069Y12503884D01*
X94549594Y12601475D01*
X94544752Y12700000D01*
X94549594Y12798525D01*
X94564069Y12896116D01*
X94588038Y12991807D01*
X94621275Y13084696D01*
X94663445Y13173860D01*
X94714170Y13258488D01*
X94772935Y13337723D01*
X94839183Y13410817D01*
X94912277Y13477065D01*
X94991512Y13535830D01*
X95076140Y13586555D01*
X95165304Y13628725D01*
X95258193Y13661962D01*
X95353884Y13685931D01*
X95451475Y13700406D01*
X95550000Y13705248D01*
X95648525Y13700406D01*
X95746116Y13685931D01*
X95841807Y13661962D01*
X95934696Y13628725D01*
X96023860Y13586555D01*
X96108488Y13535830D01*
X96187723Y13477065D01*
X96260817Y13410817D01*
X96327065Y13337723D01*
X96385830Y13258488D01*
X96436555Y13173860D01*
X96478725Y13084696D01*
X96511962Y12991807D01*
X96535931Y12896116D01*
X96550406Y12798525D01*
X96555248Y12700000D01*
X96550406Y12601475D01*
X96535931Y12503884D01*
X96511962Y12408193D01*
X96478725Y12315304D01*
X96436555Y12226140D01*
X96385830Y12141512D01*
X96327065Y12062277D01*
X96260817Y11989183D01*
X96187723Y11922935D01*
X96108488Y11864170D01*
X96023860Y11813445D01*
X95934696Y11771275D01*
X95841807Y11738038D01*
X95746116Y11714069D01*
X95648525Y11699594D01*
X95550000Y11694752D01*
D02*
G37*
%LPC*%
G36*
X98090000Y11694752D02*
X97991475Y11699594D01*
X97893884Y11714069D01*
X97798193Y11738038D01*
X97705304Y11771275D01*
X97616140Y11813445D01*
X97531512Y11864170D01*
X97452277Y11922935D01*
X97379183Y11989183D01*
X97312935Y12062277D01*
X97254170Y12141512D01*
X97203445Y12226140D01*
X97161275Y12315304D01*
X97128038Y12408193D01*
X97104069Y12503884D01*
X97089594Y12601475D01*
X97084752Y12700000D01*
X97089594Y12798525D01*
X97104069Y12896116D01*
X97128038Y12991807D01*
X97161275Y13084696D01*
X97203445Y13173860D01*
X97254170Y13258488D01*
X97312935Y13337723D01*
X97379183Y13410817D01*
X97452277Y13477065D01*
X97531512Y13535830D01*
X97616140Y13586555D01*
X97705304Y13628725D01*
X97798193Y13661962D01*
X97893884Y13685931D01*
X97991475Y13700406D01*
X98090000Y13705248D01*
X98188525Y13700406D01*
X98286116Y13685931D01*
X98381807Y13661962D01*
X98474696Y13628725D01*
X98563860Y13586555D01*
X98648488Y13535830D01*
X98727723Y13477065D01*
X98800817Y13410817D01*
X98867065Y13337723D01*
X98925830Y13258488D01*
X98976555Y13173860D01*
X99018725Y13084696D01*
X99051962Y12991807D01*
X99075931Y12896116D01*
X99090406Y12798525D01*
X99095248Y12700000D01*
X99090406Y12601475D01*
X99075931Y12503884D01*
X99051962Y12408193D01*
X99018725Y12315304D01*
X98976555Y12226140D01*
X98925830Y12141512D01*
X98867065Y12062277D01*
X98800817Y11989183D01*
X98727723Y11922935D01*
X98648488Y11864170D01*
X98563860Y11813445D01*
X98474696Y11771275D01*
X98381807Y11738038D01*
X98286116Y11714069D01*
X98188525Y11699594D01*
X98090000Y11694752D01*
D02*
G37*
%LPC*%
G36*
X100630000Y11694752D02*
X100531475Y11699594D01*
X100433884Y11714069D01*
X100338193Y11738038D01*
X100245304Y11771275D01*
X100156140Y11813445D01*
X100071512Y11864170D01*
X99992277Y11922935D01*
X99919183Y11989183D01*
X99852935Y12062277D01*
X99794170Y12141512D01*
X99743445Y12226140D01*
X99701275Y12315304D01*
X99668038Y12408193D01*
X99644069Y12503884D01*
X99629594Y12601475D01*
X99624752Y12700000D01*
X99629594Y12798525D01*
X99644069Y12896116D01*
X99668038Y12991807D01*
X99701275Y13084696D01*
X99743445Y13173860D01*
X99794170Y13258488D01*
X99852935Y13337723D01*
X99919183Y13410817D01*
X99992277Y13477065D01*
X100071512Y13535830D01*
X100156140Y13586555D01*
X100245304Y13628725D01*
X100338193Y13661962D01*
X100433884Y13685931D01*
X100531475Y13700406D01*
X100630000Y13705248D01*
X100728525Y13700406D01*
X100826116Y13685931D01*
X100921807Y13661962D01*
X101014696Y13628725D01*
X101103860Y13586555D01*
X101188488Y13535830D01*
X101267723Y13477065D01*
X101340817Y13410817D01*
X101407065Y13337723D01*
X101465830Y13258488D01*
X101516555Y13173860D01*
X101558725Y13084696D01*
X101591962Y12991807D01*
X101615931Y12896116D01*
X101630406Y12798525D01*
X101635248Y12700000D01*
X101630406Y12601475D01*
X101615931Y12503884D01*
X101591962Y12408193D01*
X101558725Y12315304D01*
X101516555Y12226140D01*
X101465830Y12141512D01*
X101407065Y12062277D01*
X101340817Y11989183D01*
X101267723Y11922935D01*
X101188488Y11864170D01*
X101103860Y11813445D01*
X101014696Y11771275D01*
X100921807Y11738038D01*
X100826116Y11714069D01*
X100728525Y11699594D01*
X100630000Y11694752D01*
D02*
G37*
%LPC*%
G36*
X103170000Y11694752D02*
X103071475Y11699594D01*
X102973884Y11714069D01*
X102878193Y11738038D01*
X102785304Y11771275D01*
X102696140Y11813445D01*
X102611512Y11864170D01*
X102532277Y11922935D01*
X102459183Y11989183D01*
X102392935Y12062277D01*
X102334170Y12141512D01*
X102283445Y12226140D01*
X102241275Y12315304D01*
X102208038Y12408193D01*
X102184069Y12503884D01*
X102169594Y12601475D01*
X102164752Y12700000D01*
X102169594Y12798525D01*
X102184069Y12896116D01*
X102208038Y12991807D01*
X102241275Y13084696D01*
X102283445Y13173860D01*
X102334170Y13258488D01*
X102392935Y13337723D01*
X102459183Y13410817D01*
X102532277Y13477065D01*
X102611512Y13535830D01*
X102696140Y13586555D01*
X102785304Y13628725D01*
X102878193Y13661962D01*
X102973884Y13685931D01*
X103071475Y13700406D01*
X103170000Y13705248D01*
X103268525Y13700406D01*
X103366116Y13685931D01*
X103461807Y13661962D01*
X103554696Y13628725D01*
X103643860Y13586555D01*
X103728488Y13535830D01*
X103807723Y13477065D01*
X103880817Y13410817D01*
X103947065Y13337723D01*
X104005830Y13258488D01*
X104056555Y13173860D01*
X104098725Y13084696D01*
X104131962Y12991807D01*
X104155931Y12896116D01*
X104170406Y12798525D01*
X104175248Y12700000D01*
X104170406Y12601475D01*
X104155931Y12503884D01*
X104131962Y12408193D01*
X104098725Y12315304D01*
X104056555Y12226140D01*
X104005830Y12141512D01*
X103947065Y12062277D01*
X103880817Y11989183D01*
X103807723Y11922935D01*
X103728488Y11864170D01*
X103643860Y11813445D01*
X103554696Y11771275D01*
X103461807Y11738038D01*
X103366116Y11714069D01*
X103268525Y11699594D01*
X103170000Y11694752D01*
D02*
G37*
%LPC*%
G36*
X108145000Y12805000D02*
X107255609Y12805000D01*
X107268978Y12895137D01*
X107292831Y12990359D01*
X107325899Y13082777D01*
X107367864Y13171508D01*
X107418328Y13255700D01*
X107476805Y13334547D01*
X107542723Y13407277D01*
X107615453Y13473195D01*
X107694300Y13531672D01*
X107778492Y13582136D01*
X107867223Y13624101D01*
X107959641Y13657169D01*
X108054863Y13681022D01*
X108145000Y13694391D01*
X108145000Y12805000D01*
D02*
G37*
%LPC*%
G36*
X109244391Y12805000D02*
X108355000Y12805000D01*
X108355000Y13694391D01*
X108445137Y13681022D01*
X108540359Y13657169D01*
X108632777Y13624101D01*
X108721508Y13582136D01*
X108805700Y13531672D01*
X108884547Y13473195D01*
X108957277Y13407277D01*
X109023195Y13334547D01*
X109081672Y13255700D01*
X109132136Y13171508D01*
X109174101Y13082777D01*
X109207169Y12990359D01*
X109231022Y12895137D01*
X109244391Y12805000D01*
D02*
G37*
%LPC*%
G36*
X135555000Y12735122D02*
X135555000Y13675000D01*
X136494878Y13675000D01*
X136480059Y13575103D01*
X136455017Y13475129D01*
X136420295Y13378089D01*
X136376236Y13284930D01*
X136323237Y13196509D01*
X136261850Y13113738D01*
X136192632Y13037368D01*
X136116262Y12968150D01*
X136033491Y12906763D01*
X135945070Y12853764D01*
X135851911Y12809705D01*
X135754871Y12774983D01*
X135654897Y12749941D01*
X135555000Y12735122D01*
D02*
G37*
%LPC*%
G36*
X135345000Y12735122D02*
X135245103Y12749941D01*
X135145129Y12774983D01*
X135048089Y12809705D01*
X134954930Y12853764D01*
X134866509Y12906763D01*
X134783738Y12968150D01*
X134707368Y13037368D01*
X134638150Y13113738D01*
X134576763Y13196509D01*
X134523764Y13284930D01*
X134479705Y13378089D01*
X134444983Y13475129D01*
X134419941Y13575103D01*
X134405122Y13675000D01*
X135345000Y13675000D01*
X135345000Y12735122D01*
D02*
G37*
%LPC*%
G36*
X88155000Y12735122D02*
X88155000Y13675000D01*
X89094878Y13675000D01*
X89080059Y13575103D01*
X89055017Y13475129D01*
X89020295Y13378089D01*
X88976236Y13284930D01*
X88923237Y13196509D01*
X88861850Y13113738D01*
X88792632Y13037368D01*
X88716262Y12968150D01*
X88633491Y12906763D01*
X88545070Y12853764D01*
X88451911Y12809705D01*
X88354871Y12774983D01*
X88254897Y12749941D01*
X88155000Y12735122D01*
D02*
G37*
%LPC*%
G36*
X87945000Y12735122D02*
X87845103Y12749941D01*
X87745129Y12774983D01*
X87648089Y12809705D01*
X87554930Y12853764D01*
X87466509Y12906763D01*
X87383738Y12968150D01*
X87307368Y13037368D01*
X87238150Y13113738D01*
X87176763Y13196509D01*
X87123764Y13284930D01*
X87079705Y13378089D01*
X87044983Y13475129D01*
X87019941Y13575103D01*
X87005122Y13675000D01*
X87945000Y13675000D01*
X87945000Y12735122D01*
D02*
G37*
%LPC*%
G36*
X119925000Y12385122D02*
X119925000Y13325000D01*
X120864878Y13325000D01*
X120850059Y13225103D01*
X120825017Y13125129D01*
X120790295Y13028089D01*
X120746236Y12934930D01*
X120693237Y12846509D01*
X120631850Y12763738D01*
X120562632Y12687368D01*
X120486262Y12618150D01*
X120403491Y12556763D01*
X120315070Y12503764D01*
X120221911Y12459705D01*
X120124871Y12424983D01*
X120024897Y12399941D01*
X119925000Y12385122D01*
D02*
G37*
%LPC*%
G36*
X119715000Y12385122D02*
X119615103Y12399941D01*
X119515129Y12424983D01*
X119418089Y12459705D01*
X119324930Y12503764D01*
X119236509Y12556763D01*
X119153738Y12618150D01*
X119077368Y12687368D01*
X119008150Y12763738D01*
X118946763Y12846509D01*
X118893764Y12934930D01*
X118849705Y13028089D01*
X118814983Y13125129D01*
X118789941Y13225103D01*
X118775122Y13325000D01*
X119715000Y13325000D01*
X119715000Y12385122D01*
D02*
G37*
%LPC*%
G36*
X125300000Y11504753D02*
X125216170Y11508872D01*
X125133142Y11521189D01*
X125051738Y11541578D01*
X124972709Y11569856D01*
X124896842Y11605739D01*
X124824852Y11648888D01*
X124757438Y11698886D01*
X124695249Y11755249D01*
X124638886Y11817438D01*
X124588888Y11884852D01*
X124545739Y11956842D01*
X124509856Y12032709D01*
X124481578Y12111738D01*
X124461189Y12193142D01*
X124448872Y12276170D01*
X124444753Y12360000D01*
X124448872Y12443830D01*
X124461189Y12526858D01*
X124481578Y12608262D01*
X124509856Y12687291D01*
X124545739Y12763158D01*
X124588888Y12835148D01*
X124638886Y12902562D01*
X124695249Y12964751D01*
X124757438Y13021114D01*
X124824852Y13071112D01*
X124896842Y13114261D01*
X124972709Y13150144D01*
X125051738Y13178422D01*
X125133142Y13198811D01*
X125216170Y13211128D01*
X125300000Y13215247D01*
X125383830Y13211128D01*
X125466858Y13198811D01*
X125548262Y13178422D01*
X125627291Y13150144D01*
X125703158Y13114261D01*
X125775148Y13071112D01*
X125842562Y13021114D01*
X125904751Y12964751D01*
X125961114Y12902562D01*
X126011112Y12835148D01*
X126054261Y12763158D01*
X126090144Y12687291D01*
X126118422Y12608262D01*
X126138811Y12526858D01*
X126151128Y12443830D01*
X126155247Y12360000D01*
X126151128Y12276170D01*
X126138811Y12193142D01*
X126118422Y12111738D01*
X126090144Y12032709D01*
X126054261Y11956842D01*
X126011112Y11884852D01*
X125961114Y11817438D01*
X125904751Y11755249D01*
X125842562Y11698886D01*
X125775148Y11648888D01*
X125703158Y11605739D01*
X125627291Y11569856D01*
X125548262Y11541578D01*
X125466858Y11521189D01*
X125383830Y11508872D01*
X125300000Y11504753D01*
D02*
G37*
%LPC*%
G36*
X108355000Y11705609D02*
X108355000Y12595000D01*
X109244391Y12595000D01*
X109231022Y12504863D01*
X109207169Y12409641D01*
X109174101Y12317223D01*
X109132136Y12228492D01*
X109081672Y12144300D01*
X109023195Y12065453D01*
X108957277Y11992723D01*
X108884547Y11926805D01*
X108805700Y11868328D01*
X108721508Y11817864D01*
X108632777Y11775899D01*
X108540359Y11742831D01*
X108445137Y11718978D01*
X108355000Y11705609D01*
D02*
G37*
%LPC*%
G36*
X108145000Y11705609D02*
X108054863Y11718978D01*
X107959641Y11742831D01*
X107867223Y11775899D01*
X107778492Y11817864D01*
X107694300Y11868328D01*
X107615453Y11926805D01*
X107542723Y11992723D01*
X107476805Y12065453D01*
X107418328Y12144300D01*
X107367864Y12228492D01*
X107325899Y12317223D01*
X107292831Y12409641D01*
X107268978Y12504863D01*
X107255609Y12595000D01*
X108145000Y12595000D01*
X108145000Y11705609D01*
D02*
G37*
%LPD*%
G36*
X68690000Y10310000D02*
X68690000Y80590000D01*
X62690000Y80590000D01*
X62690000Y81825898D01*
X62561979Y81875281D01*
X62472950Y81777052D01*
X62378039Y81691031D01*
X62275156Y81614727D01*
X62165288Y81548874D01*
X62049494Y81494108D01*
X61928893Y81450956D01*
X61804648Y81419835D01*
X61677937Y81401039D01*
X61550000Y81394753D01*
X61422063Y81401039D01*
X61295352Y81419835D01*
X61171107Y81450956D01*
X61050506Y81494108D01*
X60934712Y81548874D01*
X60824844Y81614727D01*
X60721961Y81691031D01*
X60627051Y81777051D01*
X60541031Y81871961D01*
X60464727Y81974844D01*
X60398874Y82084712D01*
X60344108Y82200506D01*
X60300956Y82321107D01*
X60269835Y82445352D01*
X60251039Y82572063D01*
X60244753Y82700000D01*
X60251039Y82827937D01*
X60269835Y82954648D01*
X60300956Y83078893D01*
X60344108Y83199494D01*
X60398874Y83315288D01*
X60464727Y83425156D01*
X60541031Y83528039D01*
X60627051Y83622949D01*
X60721961Y83708969D01*
X60824844Y83785273D01*
X60934712Y83851126D01*
X61050506Y83905892D01*
X61171107Y83949044D01*
X61295352Y83980165D01*
X61422063Y83998961D01*
X61550000Y84005247D01*
X61677937Y83998961D01*
X61804648Y83980165D01*
X61928893Y83949044D01*
X62049494Y83905892D01*
X62165288Y83851126D01*
X62275156Y83785273D01*
X62378039Y83708969D01*
X62472950Y83622948D01*
X62561979Y83524719D01*
X62690000Y83574102D01*
X62690000Y87590000D01*
X41810000Y87590000D01*
X41810000Y72490000D01*
X37190000Y72490000D01*
X37190000Y87590000D01*
X16310000Y87590000D01*
X16310000Y83566657D01*
X16438021Y83517274D01*
X16530591Y83619409D01*
X16625134Y83705098D01*
X16727627Y83781112D01*
X16837073Y83846711D01*
X16952421Y83901267D01*
X17072558Y83944252D01*
X17196330Y83975255D01*
X17322554Y83993979D01*
X17345000Y83995082D01*
X17345000Y81404918D01*
X17322554Y81406021D01*
X17196330Y81424745D01*
X17072558Y81455748D01*
X16952421Y81498733D01*
X16837073Y81553289D01*
X16727627Y81618888D01*
X16625134Y81694902D01*
X16530591Y81780591D01*
X16438021Y81882726D01*
X16310000Y81833343D01*
X16310000Y80590000D01*
X10310000Y80590000D01*
X10310000Y10310000D01*
X68690000Y10310000D01*
D02*
G37*
%LPC*%
G36*
X33750000Y81394753D02*
X33622063Y81401039D01*
X33495352Y81419835D01*
X33371107Y81450956D01*
X33250506Y81494108D01*
X33134712Y81548874D01*
X33024844Y81614727D01*
X32921961Y81691031D01*
X32827051Y81777051D01*
X32741031Y81871961D01*
X32664727Y81974844D01*
X32598874Y82084712D01*
X32544108Y82200506D01*
X32500956Y82321107D01*
X32469835Y82445352D01*
X32451039Y82572063D01*
X32444753Y82700000D01*
X32451039Y82827937D01*
X32469835Y82954648D01*
X32500956Y83078893D01*
X32544108Y83199494D01*
X32598874Y83315288D01*
X32664727Y83425156D01*
X32741031Y83528039D01*
X32827051Y83622949D01*
X32921961Y83708969D01*
X33024844Y83785273D01*
X33134712Y83851126D01*
X33250506Y83905892D01*
X33371107Y83949044D01*
X33495352Y83980165D01*
X33622063Y83998961D01*
X33750000Y84005247D01*
X33877937Y83998961D01*
X34004648Y83980165D01*
X34128893Y83949044D01*
X34249494Y83905892D01*
X34365288Y83851126D01*
X34475156Y83785273D01*
X34578039Y83708969D01*
X34672949Y83622949D01*
X34758969Y83528039D01*
X34835273Y83425156D01*
X34901126Y83315288D01*
X34955892Y83199494D01*
X34999044Y83078893D01*
X35030165Y82954648D01*
X35048961Y82827937D01*
X35055247Y82700000D01*
X35048961Y82572063D01*
X35030165Y82445352D01*
X34999044Y82321107D01*
X34955892Y82200506D01*
X34901126Y82084712D01*
X34835273Y81974844D01*
X34758969Y81871961D01*
X34672949Y81777051D01*
X34578039Y81691031D01*
X34475156Y81614727D01*
X34365288Y81548874D01*
X34249494Y81494108D01*
X34128893Y81450956D01*
X34004648Y81419835D01*
X33877937Y81401039D01*
X33750000Y81394753D01*
D02*
G37*
%LPC*%
G36*
X18745082Y82805000D02*
X17555000Y82805000D01*
X17555000Y83995082D01*
X17577446Y83993979D01*
X17703670Y83975255D01*
X17827442Y83944252D01*
X17947579Y83901267D01*
X18062927Y83846711D01*
X18172373Y83781112D01*
X18274866Y83705098D01*
X18369409Y83619409D01*
X18455098Y83524866D01*
X18531112Y83422373D01*
X18596711Y83312927D01*
X18651267Y83197579D01*
X18694252Y83077442D01*
X18725255Y82953670D01*
X18743979Y82827446D01*
X18745082Y82805000D01*
D02*
G37*
%LPC*%
G36*
X45145000Y82805000D02*
X43954918Y82805000D01*
X43956021Y82827446D01*
X43974745Y82953670D01*
X44005748Y83077442D01*
X44048733Y83197579D01*
X44103289Y83312927D01*
X44168888Y83422373D01*
X44244902Y83524866D01*
X44330591Y83619409D01*
X44425134Y83705098D01*
X44527627Y83781112D01*
X44637073Y83846711D01*
X44752421Y83901267D01*
X44872558Y83944252D01*
X44996330Y83975255D01*
X45122554Y83993979D01*
X45145000Y83995082D01*
X45145000Y82805000D01*
D02*
G37*
%LPC*%
G36*
X46545082Y82805000D02*
X45355000Y82805000D01*
X45355000Y83995082D01*
X45377446Y83993979D01*
X45503670Y83975255D01*
X45627442Y83944252D01*
X45747579Y83901267D01*
X45862927Y83846711D01*
X45972373Y83781112D01*
X46074866Y83705098D01*
X46169409Y83619409D01*
X46255098Y83524866D01*
X46331112Y83422373D01*
X46396711Y83312927D01*
X46451267Y83197579D01*
X46494252Y83077442D01*
X46525255Y82953670D01*
X46543979Y82827446D01*
X46545082Y82805000D01*
D02*
G37*
%LPC*%
G36*
X45355000Y81404918D02*
X45355000Y82595000D01*
X46545082Y82595000D01*
X46543979Y82572554D01*
X46525255Y82446330D01*
X46494252Y82322558D01*
X46451267Y82202421D01*
X46396711Y82087073D01*
X46331112Y81977627D01*
X46255098Y81875134D01*
X46169409Y81780591D01*
X46074866Y81694902D01*
X45972373Y81618888D01*
X45862927Y81553289D01*
X45747579Y81498733D01*
X45627442Y81455748D01*
X45503670Y81424745D01*
X45377446Y81406021D01*
X45355000Y81404918D01*
D02*
G37*
%LPC*%
G36*
X45145000Y81404918D02*
X45122554Y81406021D01*
X44996330Y81424745D01*
X44872558Y81455748D01*
X44752421Y81498733D01*
X44637073Y81553289D01*
X44527627Y81618888D01*
X44425134Y81694902D01*
X44330591Y81780591D01*
X44244902Y81875134D01*
X44168888Y81977627D01*
X44103289Y82087073D01*
X44048733Y82202421D01*
X44005748Y82322558D01*
X43974745Y82446330D01*
X43956021Y82572554D01*
X43954918Y82595000D01*
X45145000Y82595000D01*
X45145000Y81404918D01*
D02*
G37*
%LPC*%
G36*
X17555000Y81404918D02*
X17555000Y82595000D01*
X18745082Y82595000D01*
X18743979Y82572554D01*
X18725255Y82446330D01*
X18694252Y82322558D01*
X18651267Y82202421D01*
X18596711Y82087073D01*
X18531112Y81977627D01*
X18455098Y81875134D01*
X18369409Y81780591D01*
X18274866Y81694902D01*
X18172373Y81618888D01*
X18062927Y81553289D01*
X17947579Y81498733D01*
X17827442Y81455748D01*
X17703670Y81424745D01*
X17577446Y81406021D01*
X17555000Y81404918D01*
D02*
G37*
%LPC*%
G36*
X17450000Y75144753D02*
X17322063Y75151039D01*
X17195352Y75169835D01*
X17071107Y75200956D01*
X16950506Y75244108D01*
X16834712Y75298874D01*
X16724844Y75364727D01*
X16621961Y75441031D01*
X16527051Y75527051D01*
X16441031Y75621961D01*
X16364727Y75724844D01*
X16298874Y75834712D01*
X16244108Y75950506D01*
X16200956Y76071107D01*
X16169835Y76195352D01*
X16151039Y76322063D01*
X16144753Y76450000D01*
X16151039Y76577937D01*
X16169835Y76704648D01*
X16200956Y76828893D01*
X16244108Y76949494D01*
X16298874Y77065288D01*
X16364727Y77175156D01*
X16441031Y77278039D01*
X16527051Y77372949D01*
X16621961Y77458969D01*
X16724844Y77535273D01*
X16834712Y77601126D01*
X16950506Y77655892D01*
X17071107Y77699044D01*
X17195352Y77730165D01*
X17322063Y77748961D01*
X17450000Y77755247D01*
X17577937Y77748961D01*
X17704648Y77730165D01*
X17828893Y77699044D01*
X17949494Y77655892D01*
X18065288Y77601126D01*
X18175156Y77535273D01*
X18278039Y77458969D01*
X18372949Y77372949D01*
X18458969Y77278039D01*
X18535273Y77175156D01*
X18601126Y77065288D01*
X18655892Y76949494D01*
X18699044Y76828893D01*
X18730165Y76704648D01*
X18748961Y76577937D01*
X18755247Y76450000D01*
X18748961Y76322063D01*
X18730165Y76195352D01*
X18699044Y76071107D01*
X18655892Y75950506D01*
X18601126Y75834712D01*
X18535273Y75724844D01*
X18458969Y75621961D01*
X18372949Y75527051D01*
X18278039Y75441031D01*
X18175156Y75364727D01*
X18065288Y75298874D01*
X17949494Y75244108D01*
X17828893Y75200956D01*
X17704648Y75169835D01*
X17577937Y75151039D01*
X17450000Y75144753D01*
D02*
G37*
%LPC*%
G36*
X33750000Y75144753D02*
X33622063Y75151039D01*
X33495352Y75169835D01*
X33371107Y75200956D01*
X33250506Y75244108D01*
X33134712Y75298874D01*
X33024844Y75364727D01*
X32921961Y75441031D01*
X32827051Y75527051D01*
X32741031Y75621961D01*
X32664727Y75724844D01*
X32598874Y75834712D01*
X32544108Y75950506D01*
X32500956Y76071107D01*
X32469835Y76195352D01*
X32451039Y76322063D01*
X32444753Y76450000D01*
X32451039Y76577937D01*
X32469835Y76704648D01*
X32500956Y76828893D01*
X32544108Y76949494D01*
X32598874Y77065288D01*
X32664727Y77175156D01*
X32741031Y77278039D01*
X32827051Y77372949D01*
X32921961Y77458969D01*
X33024844Y77535273D01*
X33134712Y77601126D01*
X33250506Y77655892D01*
X33371107Y77699044D01*
X33495352Y77730165D01*
X33622063Y77748961D01*
X33750000Y77755247D01*
X33877937Y77748961D01*
X34004648Y77730165D01*
X34128893Y77699044D01*
X34249494Y77655892D01*
X34365288Y77601126D01*
X34475156Y77535273D01*
X34578039Y77458969D01*
X34672949Y77372949D01*
X34758969Y77278039D01*
X34835273Y77175156D01*
X34901126Y77065288D01*
X34955892Y76949494D01*
X34999044Y76828893D01*
X35030165Y76704648D01*
X35048961Y76577937D01*
X35055247Y76450000D01*
X35048961Y76322063D01*
X35030165Y76195352D01*
X34999044Y76071107D01*
X34955892Y75950506D01*
X34901126Y75834712D01*
X34835273Y75724844D01*
X34758969Y75621961D01*
X34672949Y75527051D01*
X34578039Y75441031D01*
X34475156Y75364727D01*
X34365288Y75298874D01*
X34249494Y75244108D01*
X34128893Y75200956D01*
X34004648Y75169835D01*
X33877937Y75151039D01*
X33750000Y75144753D01*
D02*
G37*
%LPC*%
G36*
X45250000Y75144753D02*
X45122063Y75151039D01*
X44995352Y75169835D01*
X44871107Y75200956D01*
X44750506Y75244108D01*
X44634712Y75298874D01*
X44524844Y75364727D01*
X44421961Y75441031D01*
X44327051Y75527051D01*
X44241031Y75621961D01*
X44164727Y75724844D01*
X44098874Y75834712D01*
X44044108Y75950506D01*
X44000956Y76071107D01*
X43969835Y76195352D01*
X43951039Y76322063D01*
X43944753Y76450000D01*
X43951039Y76577937D01*
X43969835Y76704648D01*
X44000956Y76828893D01*
X44044108Y76949494D01*
X44098874Y77065288D01*
X44164727Y77175156D01*
X44241031Y77278039D01*
X44327051Y77372949D01*
X44421961Y77458969D01*
X44524844Y77535273D01*
X44634712Y77601126D01*
X44750506Y77655892D01*
X44871107Y77699044D01*
X44995352Y77730165D01*
X45122063Y77748961D01*
X45250000Y77755247D01*
X45377937Y77748961D01*
X45504648Y77730165D01*
X45628893Y77699044D01*
X45749494Y77655892D01*
X45865288Y77601126D01*
X45975156Y77535273D01*
X46078039Y77458969D01*
X46172949Y77372949D01*
X46258969Y77278039D01*
X46335273Y77175156D01*
X46401126Y77065288D01*
X46455892Y76949494D01*
X46499044Y76828893D01*
X46530165Y76704648D01*
X46548961Y76577937D01*
X46555247Y76450000D01*
X46548961Y76322063D01*
X46530165Y76195352D01*
X46499044Y76071107D01*
X46455892Y75950506D01*
X46401126Y75834712D01*
X46335273Y75724844D01*
X46258969Y75621961D01*
X46172949Y75527051D01*
X46078039Y75441031D01*
X45975156Y75364727D01*
X45865288Y75298874D01*
X45749494Y75244108D01*
X45628893Y75200956D01*
X45504648Y75169835D01*
X45377937Y75151039D01*
X45250000Y75144753D01*
D02*
G37*
%LPC*%
G36*
X61550000Y75144753D02*
X61422063Y75151039D01*
X61295352Y75169835D01*
X61171107Y75200956D01*
X61050506Y75244108D01*
X60934712Y75298874D01*
X60824844Y75364727D01*
X60721961Y75441031D01*
X60627051Y75527051D01*
X60541031Y75621961D01*
X60464727Y75724844D01*
X60398874Y75834712D01*
X60344108Y75950506D01*
X60300956Y76071107D01*
X60269835Y76195352D01*
X60251039Y76322063D01*
X60244753Y76450000D01*
X60251039Y76577937D01*
X60269835Y76704648D01*
X60300956Y76828893D01*
X60344108Y76949494D01*
X60398874Y77065288D01*
X60464727Y77175156D01*
X60541031Y77278039D01*
X60627051Y77372949D01*
X60721961Y77458969D01*
X60824844Y77535273D01*
X60934712Y77601126D01*
X61050506Y77655892D01*
X61171107Y77699044D01*
X61295352Y77730165D01*
X61422063Y77748961D01*
X61550000Y77755247D01*
X61677937Y77748961D01*
X61804648Y77730165D01*
X61928893Y77699044D01*
X62049494Y77655892D01*
X62165288Y77601126D01*
X62275156Y77535273D01*
X62378039Y77458969D01*
X62472949Y77372949D01*
X62558969Y77278039D01*
X62635273Y77175156D01*
X62701126Y77065288D01*
X62755892Y76949494D01*
X62799044Y76828893D01*
X62830165Y76704648D01*
X62848961Y76577937D01*
X62855247Y76450000D01*
X62848961Y76322063D01*
X62830165Y76195352D01*
X62799044Y76071107D01*
X62755892Y75950506D01*
X62701126Y75834712D01*
X62635273Y75724844D01*
X62558969Y75621961D01*
X62472949Y75527051D01*
X62378039Y75441031D01*
X62275156Y75364727D01*
X62165288Y75298874D01*
X62049494Y75244108D01*
X61928893Y75200956D01*
X61804648Y75169835D01*
X61677937Y75151039D01*
X61550000Y75144753D01*
D02*
G37*
%LPC*%
G36*
X27530000Y59614752D02*
X27475583Y59617426D01*
X27421672Y59625423D01*
X27368825Y59638660D01*
X27317514Y59657020D01*
X27268256Y59680317D01*
X27221520Y59708329D01*
X27177760Y59740784D01*
X27137381Y59777381D01*
X27100784Y59817760D01*
X27068329Y59861520D01*
X27040317Y59908256D01*
X27017020Y59957514D01*
X26998660Y60008825D01*
X26985423Y60061672D01*
X26977426Y60115583D01*
X26974752Y60169995D01*
X26977242Y60220712D01*
X18088230Y69109724D01*
X17949494Y69044108D01*
X17828893Y69000956D01*
X17704648Y68969835D01*
X17577937Y68951039D01*
X17450000Y68944753D01*
X17322063Y68951039D01*
X17195352Y68969835D01*
X17071107Y69000956D01*
X16950506Y69044108D01*
X16834712Y69098874D01*
X16724844Y69164727D01*
X16621961Y69241031D01*
X16527051Y69327051D01*
X16441031Y69421961D01*
X16364727Y69524844D01*
X16298874Y69634712D01*
X16244108Y69750506D01*
X16200956Y69871107D01*
X16169835Y69995352D01*
X16151039Y70122063D01*
X16144753Y70250000D01*
X16151039Y70377937D01*
X16169835Y70504648D01*
X16200956Y70628893D01*
X16244108Y70749494D01*
X16298874Y70865288D01*
X16364727Y70975156D01*
X16441031Y71078039D01*
X16527051Y71172949D01*
X16621961Y71258969D01*
X16724844Y71335273D01*
X16834712Y71401126D01*
X16950506Y71455892D01*
X17071107Y71499044D01*
X17195352Y71530165D01*
X17322063Y71548961D01*
X17450000Y71555247D01*
X17577937Y71548961D01*
X17704648Y71530165D01*
X17828893Y71499044D01*
X17949494Y71455892D01*
X18065288Y71401126D01*
X18175156Y71335273D01*
X18278039Y71258969D01*
X18372949Y71172949D01*
X18458969Y71078039D01*
X18535273Y70975156D01*
X18601126Y70865288D01*
X18655892Y70749494D01*
X18699044Y70628893D01*
X18730165Y70504648D01*
X18748961Y70377937D01*
X18755247Y70250000D01*
X18748961Y70122063D01*
X18730165Y69995352D01*
X18699044Y69871107D01*
X18655892Y69750506D01*
X18590276Y69611770D01*
X27479288Y60722758D01*
X27530005Y60725248D01*
X27584417Y60722574D01*
X27638328Y60714577D01*
X27691175Y60701340D01*
X27742486Y60682980D01*
X27791744Y60659683D01*
X27838480Y60631671D01*
X27882240Y60599216D01*
X27922619Y60562619D01*
X27959216Y60522240D01*
X27991671Y60478480D01*
X28019683Y60431744D01*
X28042980Y60382486D01*
X28061340Y60331175D01*
X28074577Y60278328D01*
X28082574Y60224417D01*
X28085248Y60170000D01*
X28082574Y60115583D01*
X28074577Y60061672D01*
X28061340Y60008825D01*
X28042980Y59957514D01*
X28019683Y59908256D01*
X27991671Y59861520D01*
X27959216Y59817760D01*
X27922619Y59777381D01*
X27882240Y59740784D01*
X27838480Y59708329D01*
X27791744Y59680317D01*
X27742486Y59657020D01*
X27691175Y59638660D01*
X27638328Y59625423D01*
X27584417Y59617426D01*
X27530000Y59614752D01*
D02*
G37*
%LPC*%
G36*
X33750000Y68944753D02*
X33622063Y68951039D01*
X33495352Y68969835D01*
X33371107Y69000956D01*
X33250506Y69044108D01*
X33134712Y69098874D01*
X33024844Y69164727D01*
X32921961Y69241031D01*
X32827051Y69327051D01*
X32741031Y69421961D01*
X32664727Y69524844D01*
X32598874Y69634712D01*
X32544108Y69750506D01*
X32500956Y69871107D01*
X32469835Y69995352D01*
X32451039Y70122063D01*
X32444753Y70250000D01*
X32451039Y70377937D01*
X32469835Y70504648D01*
X32500956Y70628893D01*
X32544108Y70749494D01*
X32598874Y70865288D01*
X32664727Y70975156D01*
X32741031Y71078039D01*
X32827051Y71172949D01*
X32921961Y71258969D01*
X33024844Y71335273D01*
X33134712Y71401126D01*
X33250506Y71455892D01*
X33371107Y71499044D01*
X33495352Y71530165D01*
X33622063Y71548961D01*
X33750000Y71555247D01*
X33877937Y71548961D01*
X34004648Y71530165D01*
X34128893Y71499044D01*
X34249494Y71455892D01*
X34365288Y71401126D01*
X34475156Y71335273D01*
X34578039Y71258969D01*
X34672949Y71172949D01*
X34758969Y71078039D01*
X34835273Y70975156D01*
X34901126Y70865288D01*
X34955892Y70749494D01*
X34999044Y70628893D01*
X35030165Y70504648D01*
X35048961Y70377937D01*
X35055247Y70250000D01*
X35048961Y70122063D01*
X35030165Y69995352D01*
X34999044Y69871107D01*
X34955892Y69750506D01*
X34901126Y69634712D01*
X34835273Y69524844D01*
X34758969Y69421961D01*
X34672949Y69327051D01*
X34578039Y69241031D01*
X34475156Y69164727D01*
X34365288Y69098874D01*
X34249494Y69044108D01*
X34128893Y69000956D01*
X34004648Y68969835D01*
X33877937Y68951039D01*
X33750000Y68944753D01*
D02*
G37*
%LPC*%
G36*
X42000000Y62144752D02*
X41945583Y62147426D01*
X41891672Y62155423D01*
X41838825Y62168660D01*
X41787514Y62187020D01*
X41738256Y62210317D01*
X41691520Y62238329D01*
X41647760Y62270784D01*
X41607381Y62307381D01*
X41570784Y62347760D01*
X41538329Y62391520D01*
X41510317Y62438256D01*
X41487020Y62487514D01*
X41468660Y62538825D01*
X41455423Y62591672D01*
X41447426Y62645583D01*
X41444752Y62700000D01*
X41447426Y62754417D01*
X41455423Y62808328D01*
X41468660Y62861175D01*
X41487020Y62912486D01*
X41510317Y62961744D01*
X41538329Y63008480D01*
X41570784Y63052240D01*
X41607381Y63092619D01*
X41647760Y63129216D01*
X41691520Y63161671D01*
X41738256Y63189683D01*
X41787514Y63212980D01*
X41838825Y63231340D01*
X41891672Y63244577D01*
X41945583Y63252574D01*
X41999993Y63255247D01*
X42050711Y63252757D01*
X44895000Y66097047D01*
X44895000Y68992408D01*
X44750506Y69044108D01*
X44634712Y69098874D01*
X44524844Y69164727D01*
X44421961Y69241031D01*
X44327051Y69327051D01*
X44241031Y69421961D01*
X44164727Y69524844D01*
X44098874Y69634712D01*
X44044108Y69750506D01*
X44000956Y69871107D01*
X43969835Y69995352D01*
X43951039Y70122063D01*
X43944753Y70250000D01*
X43951039Y70377937D01*
X43969835Y70504648D01*
X44000956Y70628893D01*
X44044108Y70749494D01*
X44098874Y70865288D01*
X44164727Y70975156D01*
X44241031Y71078039D01*
X44327051Y71172949D01*
X44421961Y71258969D01*
X44524844Y71335273D01*
X44634712Y71401126D01*
X44750506Y71455892D01*
X44871107Y71499044D01*
X44995352Y71530165D01*
X45122063Y71548961D01*
X45250000Y71555247D01*
X45377937Y71548961D01*
X45504648Y71530165D01*
X45628893Y71499044D01*
X45749494Y71455892D01*
X45865288Y71401126D01*
X45975156Y71335273D01*
X46078039Y71258969D01*
X46172949Y71172949D01*
X46258969Y71078039D01*
X46335273Y70975156D01*
X46401126Y70865288D01*
X46455892Y70749494D01*
X46499044Y70628893D01*
X46530165Y70504648D01*
X46548961Y70377937D01*
X46555247Y70250000D01*
X46548961Y70122063D01*
X46530165Y69995352D01*
X46499044Y69871107D01*
X46455892Y69750506D01*
X46401126Y69634712D01*
X46335273Y69524844D01*
X46258969Y69421961D01*
X46172949Y69327051D01*
X46078039Y69241031D01*
X45975156Y69164727D01*
X45865288Y69098874D01*
X45749494Y69044108D01*
X45605000Y68992408D01*
X45605000Y65939923D01*
X45599151Y65880548D01*
X45578893Y65813770D01*
X45545996Y65752222D01*
X45502220Y65698877D01*
X45494448Y65692401D01*
X42552757Y62750711D01*
X42555247Y62699993D01*
X42552574Y62645583D01*
X42544577Y62591672D01*
X42531340Y62538825D01*
X42512980Y62487514D01*
X42489683Y62438256D01*
X42461671Y62391520D01*
X42429216Y62347760D01*
X42392619Y62307381D01*
X42352240Y62270784D01*
X42308480Y62238329D01*
X42261744Y62210317D01*
X42212486Y62187020D01*
X42161175Y62168660D01*
X42108328Y62155423D01*
X42054417Y62147426D01*
X42000000Y62144752D01*
D02*
G37*
%LPC*%
G36*
X61550000Y68944753D02*
X61422063Y68951039D01*
X61295352Y68969835D01*
X61171107Y69000956D01*
X61050506Y69044108D01*
X60934712Y69098874D01*
X60824844Y69164727D01*
X60721961Y69241031D01*
X60627051Y69327051D01*
X60541031Y69421961D01*
X60464727Y69524844D01*
X60398874Y69634712D01*
X60344108Y69750506D01*
X60300956Y69871107D01*
X60269835Y69995352D01*
X60251039Y70122063D01*
X60244753Y70250000D01*
X60251039Y70377937D01*
X60269835Y70504648D01*
X60300956Y70628893D01*
X60344108Y70749494D01*
X60398874Y70865288D01*
X60464727Y70975156D01*
X60541031Y71078039D01*
X60627051Y71172949D01*
X60721961Y71258969D01*
X60824844Y71335273D01*
X60934712Y71401126D01*
X61050506Y71455892D01*
X61171107Y71499044D01*
X61295352Y71530165D01*
X61422063Y71548961D01*
X61550000Y71555247D01*
X61677937Y71548961D01*
X61804648Y71530165D01*
X61928893Y71499044D01*
X62049494Y71455892D01*
X62165288Y71401126D01*
X62275156Y71335273D01*
X62378039Y71258969D01*
X62472949Y71172949D01*
X62558969Y71078039D01*
X62635273Y70975156D01*
X62701126Y70865288D01*
X62755892Y70749494D01*
X62799044Y70628893D01*
X62830165Y70504648D01*
X62848961Y70377937D01*
X62855247Y70250000D01*
X62848961Y70122063D01*
X62830165Y69995352D01*
X62799044Y69871107D01*
X62755892Y69750506D01*
X62701126Y69634712D01*
X62635273Y69524844D01*
X62558969Y69421961D01*
X62472949Y69327051D01*
X62378039Y69241031D01*
X62275156Y69164727D01*
X62165288Y69098874D01*
X62049494Y69044108D01*
X61928893Y69000956D01*
X61804648Y68969835D01*
X61677937Y68951039D01*
X61550000Y68944753D01*
D02*
G37*
%LPC*%
G36*
X40750000Y68344753D02*
X40646567Y68349835D01*
X40544127Y68365031D01*
X40443680Y68390191D01*
X40346180Y68425078D01*
X40252554Y68469358D01*
X40163742Y68522591D01*
X40080556Y68584286D01*
X40003828Y68653828D01*
X39934286Y68730556D01*
X39872591Y68813742D01*
X39819358Y68902554D01*
X39775078Y68996180D01*
X39740191Y69093680D01*
X39715031Y69194127D01*
X39699835Y69296567D01*
X39694753Y69400000D01*
X39699835Y69503433D01*
X39715031Y69605873D01*
X39740191Y69706320D01*
X39775078Y69803820D01*
X39819358Y69897446D01*
X39872591Y69986258D01*
X39934286Y70069444D01*
X40003828Y70146172D01*
X40080556Y70215714D01*
X40163742Y70277409D01*
X40252554Y70330642D01*
X40346180Y70374922D01*
X40443680Y70409809D01*
X40544127Y70434969D01*
X40646567Y70450165D01*
X40750000Y70455247D01*
X40853433Y70450165D01*
X40955873Y70434969D01*
X41056320Y70409809D01*
X41153820Y70374922D01*
X41247446Y70330642D01*
X41336258Y70277409D01*
X41419444Y70215714D01*
X41496172Y70146172D01*
X41565714Y70069444D01*
X41627409Y69986258D01*
X41680642Y69897446D01*
X41724922Y69803820D01*
X41759809Y69706320D01*
X41784969Y69605873D01*
X41800165Y69503433D01*
X41805247Y69400000D01*
X41800165Y69296567D01*
X41784969Y69194127D01*
X41759809Y69093680D01*
X41724922Y68996180D01*
X41680642Y68902554D01*
X41627409Y68813742D01*
X41565714Y68730556D01*
X41496172Y68653828D01*
X41419444Y68584286D01*
X41336258Y68522591D01*
X41247446Y68469358D01*
X41153820Y68425078D01*
X41056320Y68390191D01*
X40955873Y68365031D01*
X40853433Y68349835D01*
X40750000Y68344753D01*
D02*
G37*
%LPC*%
G36*
X38145000Y69505000D02*
X37205122Y69505000D01*
X37219941Y69604897D01*
X37244983Y69704871D01*
X37279705Y69801911D01*
X37323764Y69895070D01*
X37376763Y69983491D01*
X37438150Y70066262D01*
X37507368Y70142632D01*
X37583738Y70211850D01*
X37666509Y70273237D01*
X37754930Y70326236D01*
X37848089Y70370295D01*
X37945129Y70405017D01*
X38045103Y70430059D01*
X38145000Y70444878D01*
X38145000Y69505000D01*
D02*
G37*
%LPC*%
G36*
X39294878Y69505000D02*
X38355000Y69505000D01*
X38355000Y70444878D01*
X38454897Y70430059D01*
X38554871Y70405017D01*
X38651911Y70370295D01*
X38745070Y70326236D01*
X38833491Y70273237D01*
X38916262Y70211850D01*
X38992632Y70142632D01*
X39061850Y70066262D01*
X39123237Y69983491D01*
X39176236Y69895070D01*
X39220295Y69801911D01*
X39255017Y69704871D01*
X39280059Y69604897D01*
X39294878Y69505000D01*
D02*
G37*
%LPC*%
G36*
X38355000Y68355122D02*
X38355000Y69295000D01*
X39294878Y69295000D01*
X39280059Y69195103D01*
X39255017Y69095129D01*
X39220295Y68998089D01*
X39176236Y68904930D01*
X39123237Y68816509D01*
X39061850Y68733738D01*
X38992632Y68657368D01*
X38916262Y68588150D01*
X38833491Y68526763D01*
X38745070Y68473764D01*
X38651911Y68429705D01*
X38554871Y68394983D01*
X38454897Y68369941D01*
X38355000Y68355122D01*
D02*
G37*
%LPC*%
G36*
X38145000Y68355122D02*
X38045103Y68369941D01*
X37945129Y68394983D01*
X37848089Y68429705D01*
X37754930Y68473764D01*
X37666509Y68526763D01*
X37583738Y68588150D01*
X37507368Y68657368D01*
X37438150Y68733738D01*
X37376763Y68816509D01*
X37323764Y68904930D01*
X37279705Y68998089D01*
X37244983Y69095129D01*
X37219941Y69195103D01*
X37205122Y69295000D01*
X38145000Y69295000D01*
X38145000Y68355122D01*
D02*
G37*
%LPC*%
G36*
X58000000Y56944752D02*
X57876973Y56950798D01*
X57755108Y56968874D01*
X57635622Y56998803D01*
X57519640Y57040302D01*
X57408282Y57092970D01*
X57302623Y57156300D01*
X57203681Y57229681D01*
X57112406Y57312406D01*
X57029681Y57403681D01*
X56956300Y57502623D01*
X56892970Y57608282D01*
X56840302Y57719640D01*
X56798803Y57835622D01*
X56768874Y57955108D01*
X56750798Y58076973D01*
X56744752Y58200000D01*
X56750798Y58323027D01*
X56768874Y58444892D01*
X56798803Y58564378D01*
X56840302Y58680360D01*
X56897229Y58800724D01*
X53252953Y62445000D01*
X45126715Y62445000D01*
X45092620Y62407382D01*
X45052240Y62370784D01*
X45008480Y62338329D01*
X44961744Y62310317D01*
X44912486Y62287020D01*
X44861175Y62268660D01*
X44808328Y62255423D01*
X44754417Y62247426D01*
X44700000Y62244752D01*
X44645583Y62247426D01*
X44591672Y62255423D01*
X44538825Y62268660D01*
X44487514Y62287020D01*
X44438256Y62310317D01*
X44391520Y62338329D01*
X44347760Y62370784D01*
X44307381Y62407381D01*
X44270784Y62447760D01*
X44238329Y62491520D01*
X44210317Y62538256D01*
X44187020Y62587514D01*
X44168660Y62638825D01*
X44155423Y62691672D01*
X44147426Y62745583D01*
X44144752Y62800000D01*
X44147426Y62854417D01*
X44155423Y62908328D01*
X44168660Y62961175D01*
X44187020Y63012486D01*
X44210317Y63061744D01*
X44238329Y63108480D01*
X44270784Y63152240D01*
X44307381Y63192619D01*
X44347760Y63229216D01*
X44391520Y63261671D01*
X44438256Y63289683D01*
X44487514Y63312980D01*
X44538825Y63331340D01*
X44591672Y63344577D01*
X44645583Y63352574D01*
X44700000Y63355248D01*
X44754417Y63352574D01*
X44808328Y63344577D01*
X44861175Y63331340D01*
X44912486Y63312980D01*
X44961744Y63289683D01*
X45008480Y63261671D01*
X45052240Y63229216D01*
X45092620Y63192618D01*
X45126715Y63155000D01*
X53410077Y63155000D01*
X53469451Y63149151D01*
X53536229Y63128893D01*
X53597776Y63095996D01*
X53643897Y63058148D01*
X57399275Y59302771D01*
X57519644Y59359699D01*
X57635622Y59401197D01*
X57755108Y59431126D01*
X57876973Y59449202D01*
X58000000Y59455248D01*
X58123027Y59449202D01*
X58244892Y59431126D01*
X58364378Y59401197D01*
X58480360Y59359698D01*
X58591718Y59307030D01*
X58697377Y59243700D01*
X58796319Y59170319D01*
X58887594Y59087594D01*
X58970319Y58996319D01*
X59043700Y58897377D01*
X59107030Y58791718D01*
X59159698Y58680360D01*
X59201197Y58564378D01*
X59231126Y58444892D01*
X59249202Y58323027D01*
X59255248Y58200000D01*
X59249202Y58076973D01*
X59231126Y57955108D01*
X59201197Y57835622D01*
X59159698Y57719640D01*
X59107030Y57608282D01*
X59043700Y57502623D01*
X58970319Y57403681D01*
X58887594Y57312406D01*
X58796319Y57229681D01*
X58697377Y57156300D01*
X58591718Y57092970D01*
X58480360Y57040302D01*
X58364378Y56998803D01*
X58244892Y56968874D01*
X58123027Y56950798D01*
X58000000Y56944752D01*
D02*
G37*
%LPC*%
G36*
X16000000Y56944752D02*
X15876973Y56950798D01*
X15755108Y56968874D01*
X15635622Y56998803D01*
X15519640Y57040302D01*
X15408282Y57092970D01*
X15302623Y57156300D01*
X15203681Y57229681D01*
X15112406Y57312406D01*
X15029681Y57403681D01*
X14956300Y57502623D01*
X14892970Y57608282D01*
X14840302Y57719640D01*
X14798803Y57835622D01*
X14768874Y57955108D01*
X14750798Y58076973D01*
X14744752Y58200000D01*
X14750798Y58323027D01*
X14768874Y58444892D01*
X14798803Y58564378D01*
X14840302Y58680360D01*
X14892970Y58791718D01*
X14956300Y58897377D01*
X15029681Y58996319D01*
X15112406Y59087594D01*
X15203681Y59170319D01*
X15302623Y59243700D01*
X15408282Y59307030D01*
X15519640Y59359698D01*
X15635622Y59401197D01*
X15755108Y59431126D01*
X15876973Y59449202D01*
X16000000Y59455248D01*
X16123027Y59449202D01*
X16244892Y59431126D01*
X16364378Y59401197D01*
X16480360Y59359698D01*
X16591718Y59307030D01*
X16697377Y59243700D01*
X16796319Y59170319D01*
X16887594Y59087594D01*
X16970319Y58996319D01*
X17043700Y58897377D01*
X17107030Y58791718D01*
X17159698Y58680360D01*
X17201197Y58564378D01*
X17231126Y58444892D01*
X17249202Y58323027D01*
X17255248Y58200000D01*
X17249202Y58076973D01*
X17231126Y57955108D01*
X17201197Y57835622D01*
X17159698Y57719640D01*
X17107030Y57608282D01*
X17043700Y57502623D01*
X16970319Y57403681D01*
X16887594Y57312406D01*
X16796319Y57229681D01*
X16697377Y57156300D01*
X16591718Y57092970D01*
X16480360Y57040302D01*
X16364378Y56998803D01*
X16244892Y56968874D01*
X16123027Y56950798D01*
X16000000Y56944752D01*
D02*
G37*
%LPC*%
G36*
X21000000Y56944752D02*
X20876973Y56950798D01*
X20755108Y56968874D01*
X20635622Y56998803D01*
X20519640Y57040302D01*
X20408282Y57092970D01*
X20302623Y57156300D01*
X20203681Y57229681D01*
X20112406Y57312406D01*
X20029681Y57403681D01*
X19956300Y57502623D01*
X19892970Y57608282D01*
X19840302Y57719640D01*
X19798803Y57835622D01*
X19768874Y57955108D01*
X19750798Y58076973D01*
X19744752Y58200000D01*
X19750798Y58323027D01*
X19768874Y58444892D01*
X19798803Y58564378D01*
X19840302Y58680360D01*
X19892970Y58791718D01*
X19956300Y58897377D01*
X20029681Y58996319D01*
X20112406Y59087594D01*
X20203681Y59170319D01*
X20302623Y59243700D01*
X20408282Y59307030D01*
X20519640Y59359698D01*
X20635622Y59401197D01*
X20755108Y59431126D01*
X20876973Y59449202D01*
X21000000Y59455248D01*
X21123027Y59449202D01*
X21244892Y59431126D01*
X21364378Y59401197D01*
X21480360Y59359698D01*
X21591718Y59307030D01*
X21697377Y59243700D01*
X21796319Y59170319D01*
X21887594Y59087594D01*
X21970319Y58996319D01*
X22043700Y58897377D01*
X22107030Y58791718D01*
X22159698Y58680360D01*
X22201197Y58564378D01*
X22231126Y58444892D01*
X22249202Y58323027D01*
X22255248Y58200000D01*
X22249202Y58076973D01*
X22231126Y57955108D01*
X22201197Y57835622D01*
X22159698Y57719640D01*
X22107030Y57608282D01*
X22043700Y57502623D01*
X21970319Y57403681D01*
X21887594Y57312406D01*
X21796319Y57229681D01*
X21697377Y57156300D01*
X21591718Y57092970D01*
X21480360Y57040302D01*
X21364378Y56998803D01*
X21244892Y56968874D01*
X21123027Y56950798D01*
X21000000Y56944752D01*
D02*
G37*
%LPC*%
G36*
X53000000Y56944752D02*
X52876973Y56950798D01*
X52755108Y56968874D01*
X52635622Y56998803D01*
X52519640Y57040302D01*
X52408282Y57092970D01*
X52302623Y57156300D01*
X52203681Y57229681D01*
X52112406Y57312406D01*
X52029681Y57403681D01*
X51956300Y57502623D01*
X51892970Y57608282D01*
X51840302Y57719640D01*
X51798803Y57835622D01*
X51768874Y57955108D01*
X51750798Y58076973D01*
X51744752Y58200000D01*
X51750798Y58323027D01*
X51768874Y58444892D01*
X51798803Y58564378D01*
X51840302Y58680360D01*
X51892970Y58791718D01*
X51956300Y58897377D01*
X52029681Y58996319D01*
X52112406Y59087594D01*
X52203681Y59170319D01*
X52302623Y59243700D01*
X52408282Y59307030D01*
X52519640Y59359698D01*
X52635622Y59401197D01*
X52755108Y59431126D01*
X52876973Y59449202D01*
X53000000Y59455248D01*
X53123027Y59449202D01*
X53244892Y59431126D01*
X53364378Y59401197D01*
X53480360Y59359698D01*
X53591718Y59307030D01*
X53697377Y59243700D01*
X53796319Y59170319D01*
X53887594Y59087594D01*
X53970319Y58996319D01*
X54043700Y58897377D01*
X54107030Y58791718D01*
X54159698Y58680360D01*
X54201197Y58564378D01*
X54231126Y58444892D01*
X54249202Y58323027D01*
X54255248Y58200000D01*
X54249202Y58076973D01*
X54231126Y57955108D01*
X54201197Y57835622D01*
X54159698Y57719640D01*
X54107030Y57608282D01*
X54043700Y57502623D01*
X53970319Y57403681D01*
X53887594Y57312406D01*
X53796319Y57229681D01*
X53697377Y57156300D01*
X53591718Y57092970D01*
X53480360Y57040302D01*
X53364378Y56998803D01*
X53244892Y56968874D01*
X53123027Y56950798D01*
X53000000Y56944752D01*
D02*
G37*
%LPC*%
G36*
X25895000Y58305000D02*
X24754918Y58305000D01*
X24755780Y58322538D01*
X24773783Y58443912D01*
X24803595Y58562927D01*
X24844927Y58678444D01*
X24897385Y58789358D01*
X24960463Y58894596D01*
X25033551Y58993143D01*
X25115946Y59084054D01*
X25206857Y59166449D01*
X25305404Y59239537D01*
X25410642Y59302615D01*
X25521556Y59355073D01*
X25637073Y59396405D01*
X25756088Y59426217D01*
X25877462Y59444220D01*
X25895000Y59445082D01*
X25895000Y58305000D01*
D02*
G37*
%LPC*%
G36*
X27245082Y58305000D02*
X26105000Y58305000D01*
X26105000Y59445082D01*
X26122538Y59444220D01*
X26243912Y59426217D01*
X26362927Y59396405D01*
X26478444Y59355073D01*
X26589358Y59302615D01*
X26694596Y59239537D01*
X26793143Y59166449D01*
X26884054Y59084054D01*
X26966449Y58993143D01*
X27039537Y58894596D01*
X27102615Y58789358D01*
X27155073Y58678444D01*
X27196405Y58562927D01*
X27226217Y58443912D01*
X27244220Y58322538D01*
X27245082Y58305000D01*
D02*
G37*
%LPC*%
G36*
X62895000Y58305000D02*
X61754918Y58305000D01*
X61755780Y58322538D01*
X61773783Y58443912D01*
X61803595Y58562927D01*
X61844927Y58678444D01*
X61897385Y58789358D01*
X61960463Y58894596D01*
X62033551Y58993143D01*
X62115946Y59084054D01*
X62206857Y59166449D01*
X62305404Y59239537D01*
X62410642Y59302615D01*
X62521556Y59355073D01*
X62637073Y59396405D01*
X62756088Y59426217D01*
X62877462Y59444220D01*
X62895000Y59445082D01*
X62895000Y58305000D01*
D02*
G37*
%LPC*%
G36*
X64245082Y58305000D02*
X63105000Y58305000D01*
X63105000Y59445082D01*
X63122538Y59444220D01*
X63243912Y59426217D01*
X63362927Y59396405D01*
X63478444Y59355073D01*
X63589358Y59302615D01*
X63694596Y59239537D01*
X63793143Y59166449D01*
X63884054Y59084054D01*
X63966449Y58993143D01*
X64039537Y58894596D01*
X64102615Y58789358D01*
X64155073Y58678444D01*
X64196405Y58562927D01*
X64226217Y58443912D01*
X64244220Y58322538D01*
X64245082Y58305000D01*
D02*
G37*
%LPC*%
G36*
X63105000Y56954918D02*
X63105000Y58095000D01*
X64245082Y58095000D01*
X64244220Y58077462D01*
X64226217Y57956088D01*
X64196405Y57837073D01*
X64155073Y57721556D01*
X64102615Y57610642D01*
X64039537Y57505404D01*
X63966449Y57406857D01*
X63884054Y57315946D01*
X63793143Y57233551D01*
X63694596Y57160463D01*
X63589358Y57097385D01*
X63478444Y57044927D01*
X63362927Y57003595D01*
X63243912Y56973783D01*
X63122538Y56955780D01*
X63105000Y56954918D01*
D02*
G37*
%LPC*%
G36*
X62895000Y56954918D02*
X62877462Y56955780D01*
X62756088Y56973783D01*
X62637073Y57003595D01*
X62521556Y57044927D01*
X62410642Y57097385D01*
X62305404Y57160463D01*
X62206857Y57233551D01*
X62115946Y57315946D01*
X62033551Y57406857D01*
X61960463Y57505404D01*
X61897385Y57610642D01*
X61844927Y57721556D01*
X61803595Y57837073D01*
X61773783Y57956088D01*
X61755780Y58077462D01*
X61754918Y58095000D01*
X62895000Y58095000D01*
X62895000Y56954918D01*
D02*
G37*
%LPC*%
G36*
X26105000Y56954918D02*
X26105000Y58095000D01*
X27245082Y58095000D01*
X27244220Y58077462D01*
X27226217Y57956088D01*
X27196405Y57837073D01*
X27155073Y57721556D01*
X27102615Y57610642D01*
X27039537Y57505404D01*
X26966449Y57406857D01*
X26884054Y57315946D01*
X26793143Y57233551D01*
X26694596Y57160463D01*
X26589358Y57097385D01*
X26478444Y57044927D01*
X26362927Y57003595D01*
X26243912Y56973783D01*
X26122538Y56955780D01*
X26105000Y56954918D01*
D02*
G37*
%LPC*%
G36*
X25895000Y56954918D02*
X25877462Y56955780D01*
X25756088Y56973783D01*
X25637073Y57003595D01*
X25521556Y57044927D01*
X25410642Y57097385D01*
X25305404Y57160463D01*
X25206857Y57233551D01*
X25115946Y57315946D01*
X25033551Y57406857D01*
X24960463Y57505404D01*
X24897385Y57610642D01*
X24844927Y57721556D01*
X24803595Y57837073D01*
X24773783Y57956088D01*
X24755780Y58077462D01*
X24754918Y58095000D01*
X25895000Y58095000D01*
X25895000Y56954918D01*
D02*
G37*
%LPC*%
G36*
X31370000Y24944752D02*
X31315583Y24947426D01*
X31261672Y24955423D01*
X31208825Y24968660D01*
X31157514Y24987020D01*
X31108256Y25010317D01*
X31061520Y25038329D01*
X31017760Y25070784D01*
X30977381Y25107381D01*
X30940784Y25147760D01*
X30908329Y25191520D01*
X30880317Y25238256D01*
X30857020Y25287514D01*
X30838660Y25338825D01*
X30825423Y25391672D01*
X30817426Y25445583D01*
X30814752Y25500000D01*
X30817426Y25554417D01*
X30825423Y25608328D01*
X30838660Y25661175D01*
X30857020Y25712486D01*
X30880317Y25761744D01*
X30908329Y25808480D01*
X30940784Y25852240D01*
X30977382Y25892620D01*
X31015000Y25926715D01*
X31015000Y30580066D01*
X31020849Y30639451D01*
X31041106Y30706229D01*
X31074003Y30767777D01*
X31117779Y30821122D01*
X31125551Y30827598D01*
X33145000Y32847047D01*
X33145000Y49210066D01*
X33150849Y49269451D01*
X33171106Y49336229D01*
X33204003Y49397777D01*
X33247779Y49451122D01*
X33255551Y49457598D01*
X35045000Y51247047D01*
X35045000Y53373285D01*
X35007382Y53407380D01*
X34970784Y53447760D01*
X34938329Y53491520D01*
X34910317Y53538256D01*
X34887020Y53587514D01*
X34868660Y53638825D01*
X34855423Y53691672D01*
X34847426Y53745583D01*
X34844752Y53800000D01*
X34847426Y53854417D01*
X34855423Y53908328D01*
X34868660Y53961175D01*
X34887020Y54012486D01*
X34910317Y54061744D01*
X34938329Y54108480D01*
X34970784Y54152240D01*
X35007381Y54192619D01*
X35047760Y54229216D01*
X35091520Y54261671D01*
X35138256Y54289683D01*
X35187514Y54312980D01*
X35238825Y54331340D01*
X35291672Y54344577D01*
X35345583Y54352574D01*
X35400000Y54355248D01*
X35454417Y54352574D01*
X35508328Y54344577D01*
X35561175Y54331340D01*
X35612486Y54312980D01*
X35661744Y54289683D01*
X35708480Y54261671D01*
X35752240Y54229216D01*
X35792619Y54192619D01*
X35829216Y54152240D01*
X35861671Y54108480D01*
X35889683Y54061744D01*
X35912980Y54012486D01*
X35931340Y53961175D01*
X35944577Y53908328D01*
X35952574Y53854417D01*
X35955248Y53800000D01*
X35952574Y53745583D01*
X35944577Y53691672D01*
X35931340Y53638825D01*
X35912980Y53587514D01*
X35889683Y53538256D01*
X35861671Y53491520D01*
X35829216Y53447760D01*
X35792618Y53407380D01*
X35755000Y53373285D01*
X35755000Y51089923D01*
X35749151Y51030548D01*
X35728893Y50963770D01*
X35695996Y50902222D01*
X35652220Y50848877D01*
X35644448Y50842401D01*
X33855000Y49052953D01*
X33855000Y32689923D01*
X33849151Y32630548D01*
X33828893Y32563770D01*
X33795996Y32502222D01*
X33752220Y32448877D01*
X33744448Y32442401D01*
X31725000Y30422953D01*
X31725000Y25926715D01*
X31762618Y25892620D01*
X31799216Y25852240D01*
X31831671Y25808480D01*
X31859683Y25761744D01*
X31882980Y25712486D01*
X31901340Y25661175D01*
X31914577Y25608328D01*
X31922574Y25554417D01*
X31925248Y25500000D01*
X31922574Y25445583D01*
X31914577Y25391672D01*
X31901340Y25338825D01*
X31882980Y25287514D01*
X31859683Y25238256D01*
X31831671Y25191520D01*
X31799216Y25147760D01*
X31762619Y25107381D01*
X31722240Y25070784D01*
X31678480Y25038329D01*
X31631744Y25010317D01*
X31582486Y24987020D01*
X31531175Y24968660D01*
X31478328Y24955423D01*
X31424417Y24947426D01*
X31370000Y24944752D01*
D02*
G37*
%LPC*%
G36*
X28800000Y26044752D02*
X28745583Y26047426D01*
X28691672Y26055423D01*
X28638825Y26068660D01*
X28587514Y26087020D01*
X28538256Y26110317D01*
X28491520Y26138329D01*
X28447760Y26170784D01*
X28407381Y26207381D01*
X28370784Y26247760D01*
X28338329Y26291520D01*
X28310317Y26338256D01*
X28287020Y26387514D01*
X28268660Y26438825D01*
X28255423Y26491672D01*
X28247426Y26545583D01*
X28244752Y26600000D01*
X28247426Y26654417D01*
X28255423Y26708328D01*
X28268660Y26761175D01*
X28287020Y26812486D01*
X28310317Y26861744D01*
X28338329Y26908480D01*
X28370784Y26952240D01*
X28407382Y26992620D01*
X28445000Y27026715D01*
X28445000Y31010066D01*
X28450849Y31069451D01*
X28471106Y31136229D01*
X28504003Y31197777D01*
X28547779Y31251122D01*
X28555551Y31257598D01*
X31045000Y33747047D01*
X31045000Y49590066D01*
X31050849Y49649451D01*
X31071106Y49716229D01*
X31104003Y49777777D01*
X31147779Y49831122D01*
X31155551Y49837598D01*
X33557243Y52239289D01*
X33554753Y52290007D01*
X33557426Y52344417D01*
X33565423Y52398328D01*
X33578660Y52451175D01*
X33597020Y52502486D01*
X33620317Y52551744D01*
X33648329Y52598480D01*
X33680784Y52642240D01*
X33717381Y52682619D01*
X33757760Y52719216D01*
X33801520Y52751671D01*
X33848256Y52779683D01*
X33897514Y52802980D01*
X33948825Y52821340D01*
X34001672Y52834577D01*
X34055583Y52842574D01*
X34110000Y52845248D01*
X34164417Y52842574D01*
X34218328Y52834577D01*
X34271175Y52821340D01*
X34322486Y52802980D01*
X34371744Y52779683D01*
X34418480Y52751671D01*
X34462240Y52719216D01*
X34502619Y52682619D01*
X34539216Y52642240D01*
X34571671Y52598480D01*
X34599683Y52551744D01*
X34622980Y52502486D01*
X34641340Y52451175D01*
X34654577Y52398328D01*
X34662574Y52344417D01*
X34665248Y52290000D01*
X34662574Y52235583D01*
X34654577Y52181672D01*
X34641340Y52128825D01*
X34622980Y52077514D01*
X34599683Y52028256D01*
X34571671Y51981520D01*
X34539216Y51937760D01*
X34502619Y51897381D01*
X34462240Y51860784D01*
X34418480Y51828329D01*
X34371744Y51800317D01*
X34322486Y51777020D01*
X34271175Y51758660D01*
X34218328Y51745423D01*
X34164417Y51737426D01*
X34110007Y51734753D01*
X34059289Y51737243D01*
X31755000Y49432953D01*
X31755000Y33589923D01*
X31749151Y33530548D01*
X31728893Y33463770D01*
X31695996Y33402222D01*
X31652220Y33348877D01*
X31644448Y33342401D01*
X29155000Y30852953D01*
X29155000Y27026715D01*
X29192618Y26992620D01*
X29229216Y26952240D01*
X29261671Y26908480D01*
X29289683Y26861744D01*
X29312980Y26812486D01*
X29331340Y26761175D01*
X29344577Y26708328D01*
X29352574Y26654417D01*
X29355248Y26600000D01*
X29352574Y26545583D01*
X29344577Y26491672D01*
X29331340Y26438825D01*
X29312980Y26387514D01*
X29289683Y26338256D01*
X29261671Y26291520D01*
X29229216Y26247760D01*
X29192619Y26207381D01*
X29152240Y26170784D01*
X29108480Y26138329D01*
X29061744Y26110317D01*
X29012486Y26087020D01*
X28961175Y26068660D01*
X28908328Y26055423D01*
X28854417Y26047426D01*
X28800000Y26044752D01*
D02*
G37*
%LPC*%
G36*
X61700000Y38444752D02*
X61645583Y38447426D01*
X61591672Y38455423D01*
X61538825Y38468660D01*
X61487514Y38487020D01*
X61438256Y38510317D01*
X61391520Y38538329D01*
X61347760Y38570784D01*
X61307381Y38607381D01*
X61270784Y38647760D01*
X61238329Y38691520D01*
X61210317Y38738256D01*
X61187020Y38787514D01*
X61168660Y38838825D01*
X61155423Y38891672D01*
X61147426Y38945583D01*
X61144753Y38999993D01*
X61147243Y39050711D01*
X57856215Y42341738D01*
X57848372Y42348155D01*
X57804003Y42402223D01*
X57771106Y42463770D01*
X57750849Y42530548D01*
X57745000Y42589935D01*
X57745000Y45652953D01*
X55752953Y47645000D01*
X35526715Y47645000D01*
X35492620Y47607382D01*
X35452240Y47570784D01*
X35408480Y47538329D01*
X35361744Y47510317D01*
X35312486Y47487020D01*
X35261175Y47468660D01*
X35208328Y47455423D01*
X35154417Y47447426D01*
X35100000Y47444752D01*
X35045583Y47447426D01*
X34991672Y47455423D01*
X34938825Y47468660D01*
X34887514Y47487020D01*
X34838256Y47510317D01*
X34791520Y47538329D01*
X34747760Y47570784D01*
X34707381Y47607381D01*
X34670784Y47647760D01*
X34638329Y47691520D01*
X34610317Y47738256D01*
X34587020Y47787514D01*
X34568660Y47838825D01*
X34555423Y47891672D01*
X34547426Y47945583D01*
X34544752Y48000000D01*
X34547426Y48054417D01*
X34555423Y48108328D01*
X34568660Y48161175D01*
X34587020Y48212486D01*
X34610317Y48261744D01*
X34638329Y48308480D01*
X34670784Y48352240D01*
X34707381Y48392619D01*
X34747760Y48429216D01*
X34791520Y48461671D01*
X34838256Y48489683D01*
X34887514Y48512980D01*
X34938825Y48531340D01*
X34991672Y48544577D01*
X35045583Y48552574D01*
X35100000Y48555248D01*
X35154417Y48552574D01*
X35208328Y48544577D01*
X35261175Y48531340D01*
X35312486Y48512980D01*
X35361744Y48489683D01*
X35408480Y48461671D01*
X35452240Y48429216D01*
X35492620Y48392618D01*
X35526715Y48355000D01*
X55910077Y48355000D01*
X55969451Y48349151D01*
X56036229Y48328893D01*
X56097776Y48295996D01*
X56143897Y48258148D01*
X58358148Y46043897D01*
X58395996Y45997776D01*
X58428893Y45936229D01*
X58449151Y45869451D01*
X58455000Y45810077D01*
X58455000Y42747047D01*
X61649289Y39552757D01*
X61700007Y39555247D01*
X61754417Y39552574D01*
X61808328Y39544577D01*
X61861175Y39531340D01*
X61912486Y39512980D01*
X61961744Y39489683D01*
X62008480Y39461671D01*
X62052240Y39429216D01*
X62092619Y39392619D01*
X62129216Y39352240D01*
X62161671Y39308480D01*
X62189683Y39261744D01*
X62212980Y39212486D01*
X62231340Y39161175D01*
X62244577Y39108328D01*
X62252574Y39054417D01*
X62255248Y39000000D01*
X62252574Y38945583D01*
X62244577Y38891672D01*
X62231340Y38838825D01*
X62212980Y38787514D01*
X62189683Y38738256D01*
X62161671Y38691520D01*
X62129216Y38647760D01*
X62092619Y38607381D01*
X62052240Y38570784D01*
X62008480Y38538329D01*
X61961744Y38510317D01*
X61912486Y38487020D01*
X61861175Y38468660D01*
X61808328Y38455423D01*
X61754417Y38447426D01*
X61700000Y38444752D01*
D02*
G37*
%LPC*%
G36*
X58500000Y38994752D02*
X58430883Y38998148D01*
X58362405Y39008307D01*
X58295284Y39025118D01*
X58230114Y39048438D01*
X58167551Y39078027D01*
X58108179Y39113614D01*
X58052600Y39154834D01*
X58008284Y39195000D01*
X54989935Y39195000D01*
X54901284Y39203731D01*
X54806363Y39232525D01*
X54718885Y39279283D01*
X54642090Y39342305D01*
X54635673Y39350149D01*
X49580821Y44405000D01*
X45681716Y44405000D01*
X45637400Y44364834D01*
X45581821Y44323614D01*
X45522449Y44288027D01*
X45459886Y44258438D01*
X45394716Y44235118D01*
X45327595Y44218307D01*
X45259117Y44208148D01*
X45190000Y44204752D01*
X45120883Y44208148D01*
X45052405Y44218307D01*
X44985284Y44235118D01*
X44920114Y44258438D01*
X44857551Y44288027D01*
X44798179Y44323614D01*
X44742599Y44364834D01*
X44691315Y44411315D01*
X44644834Y44462599D01*
X44603614Y44518179D01*
X44568027Y44577551D01*
X44538438Y44640114D01*
X44515118Y44705284D01*
X44498307Y44772405D01*
X44488148Y44840883D01*
X44484752Y44910000D01*
X44488148Y44979117D01*
X44498307Y45047595D01*
X44515118Y45114716D01*
X44538438Y45179886D01*
X44568027Y45242449D01*
X44603614Y45301821D01*
X44644834Y45357401D01*
X44691315Y45408685D01*
X44742599Y45455166D01*
X44798179Y45496386D01*
X44857551Y45531973D01*
X44920114Y45561562D01*
X44985284Y45584882D01*
X45052405Y45601693D01*
X45120883Y45611852D01*
X45190000Y45615248D01*
X45259117Y45611852D01*
X45327595Y45601693D01*
X45394716Y45584882D01*
X45459886Y45561562D01*
X45522449Y45531973D01*
X45581821Y45496386D01*
X45637400Y45455166D01*
X45681716Y45415000D01*
X49800075Y45415000D01*
X49888713Y45406269D01*
X49983636Y45377474D01*
X50071113Y45330716D01*
X50139962Y45274215D01*
X55209179Y40205000D01*
X58008284Y40205000D01*
X58052600Y40245166D01*
X58108179Y40286386D01*
X58167551Y40321973D01*
X58230114Y40351562D01*
X58295284Y40374882D01*
X58362405Y40391693D01*
X58430883Y40401852D01*
X58500000Y40405248D01*
X58569117Y40401852D01*
X58637595Y40391693D01*
X58704716Y40374882D01*
X58769886Y40351562D01*
X58832449Y40321973D01*
X58891821Y40286386D01*
X58947401Y40245166D01*
X58998685Y40198685D01*
X59045166Y40147401D01*
X59086386Y40091821D01*
X59121973Y40032449D01*
X59151562Y39969886D01*
X59174882Y39904716D01*
X59191693Y39837595D01*
X59201852Y39769117D01*
X59205248Y39700000D01*
X59201852Y39630883D01*
X59191693Y39562405D01*
X59174882Y39495284D01*
X59151562Y39430114D01*
X59121973Y39367551D01*
X59086386Y39308179D01*
X59045166Y39252599D01*
X58998685Y39201315D01*
X58947401Y39154834D01*
X58891821Y39113614D01*
X58832449Y39078027D01*
X58769886Y39048438D01*
X58704716Y39025118D01*
X58637595Y39008307D01*
X58569117Y38998148D01*
X58500000Y38994752D01*
D02*
G37*
%LPC*%
G36*
X55500000Y24994752D02*
X55421077Y24998631D01*
X55342906Y25010225D01*
X55266244Y25029429D01*
X55191851Y25056047D01*
X55120406Y25089838D01*
X55052630Y25130461D01*
X54965608Y25195000D01*
X51189935Y25195000D01*
X51081775Y25205652D01*
X50968095Y25240137D01*
X50863327Y25296137D01*
X50771380Y25371596D01*
X50764964Y25379437D01*
X49079437Y27064964D01*
X49071596Y27071380D01*
X48996137Y27163327D01*
X48940137Y27268095D01*
X48905652Y27381775D01*
X48895000Y27489935D01*
X48895000Y40365608D01*
X48830461Y40452630D01*
X48789838Y40520406D01*
X48756047Y40591851D01*
X48729429Y40666244D01*
X48710225Y40742906D01*
X48698631Y40821077D01*
X48694752Y40900000D01*
X48698631Y40978923D01*
X48710225Y41057094D01*
X48729429Y41133756D01*
X48756047Y41208149D01*
X48789838Y41279594D01*
X48830461Y41347370D01*
X48877536Y41410843D01*
X48930604Y41469396D01*
X48989157Y41522464D01*
X49052630Y41569539D01*
X49120406Y41610162D01*
X49191851Y41643953D01*
X49266244Y41670571D01*
X49342906Y41689775D01*
X49421077Y41701369D01*
X49500000Y41705248D01*
X49578923Y41701369D01*
X49657094Y41689775D01*
X49733756Y41670571D01*
X49808149Y41643953D01*
X49879594Y41610162D01*
X49947370Y41569539D01*
X50010843Y41522464D01*
X50069396Y41469396D01*
X50122464Y41410843D01*
X50169539Y41347370D01*
X50210162Y41279594D01*
X50243953Y41208149D01*
X50270571Y41133756D01*
X50289775Y41057094D01*
X50301369Y40978923D01*
X50305248Y40900000D01*
X50301369Y40821077D01*
X50289775Y40742906D01*
X50270571Y40666244D01*
X50243953Y40591851D01*
X50210162Y40520406D01*
X50169539Y40452630D01*
X50105000Y40365608D01*
X50105000Y27750599D01*
X51450599Y26405000D01*
X54965608Y26405000D01*
X55052630Y26469539D01*
X55120406Y26510162D01*
X55191851Y26543953D01*
X55266244Y26570571D01*
X55342906Y26589775D01*
X55421077Y26601369D01*
X55500000Y26605248D01*
X55578923Y26601369D01*
X55657094Y26589775D01*
X55733756Y26570571D01*
X55808149Y26543953D01*
X55879594Y26510162D01*
X55947370Y26469539D01*
X56010843Y26422464D01*
X56069396Y26369396D01*
X56122464Y26310843D01*
X56169539Y26247370D01*
X56210162Y26179594D01*
X56243953Y26108149D01*
X56270571Y26033756D01*
X56289775Y25957094D01*
X56301369Y25878923D01*
X56305248Y25800000D01*
X56301369Y25721077D01*
X56289775Y25642906D01*
X56270571Y25566244D01*
X56243953Y25491851D01*
X56210162Y25420406D01*
X56169539Y25352630D01*
X56122464Y25289157D01*
X56069396Y25230604D01*
X56010843Y25177536D01*
X55947370Y25130461D01*
X55879594Y25089838D01*
X55808149Y25056047D01*
X55733756Y25029429D01*
X55657094Y25010225D01*
X55578923Y24998631D01*
X55500000Y24994752D01*
D02*
G37*
%LPC*%
G36*
X21000000Y26644752D02*
X20876973Y26650798D01*
X20755108Y26668874D01*
X20635622Y26698803D01*
X20519640Y26740302D01*
X20408282Y26792970D01*
X20302623Y26856300D01*
X20203681Y26929681D01*
X20112406Y27012406D01*
X20029681Y27103681D01*
X19956300Y27202623D01*
X19892970Y27308282D01*
X19840302Y27419640D01*
X19798803Y27535622D01*
X19768874Y27655108D01*
X19750798Y27776973D01*
X19744752Y27900000D01*
X19750798Y28023027D01*
X19768874Y28144892D01*
X19798803Y28264378D01*
X19840301Y28380356D01*
X19897229Y28500725D01*
X16050712Y32347242D01*
X15999995Y32344752D01*
X15945583Y32347426D01*
X15891672Y32355423D01*
X15838825Y32368660D01*
X15787514Y32387020D01*
X15738256Y32410317D01*
X15691520Y32438329D01*
X15647760Y32470784D01*
X15607381Y32507381D01*
X15570784Y32547760D01*
X15538329Y32591520D01*
X15510317Y32638256D01*
X15487020Y32687514D01*
X15468660Y32738825D01*
X15455423Y32791672D01*
X15447426Y32845583D01*
X15444752Y32900000D01*
X15447426Y32954417D01*
X15455423Y33008328D01*
X15468660Y33061175D01*
X15487020Y33112486D01*
X15510317Y33161744D01*
X15538329Y33208480D01*
X15570784Y33252240D01*
X15607381Y33292619D01*
X15647760Y33329216D01*
X15691520Y33361671D01*
X15738256Y33389683D01*
X15787514Y33412980D01*
X15838825Y33431340D01*
X15891672Y33444577D01*
X15945583Y33452574D01*
X16000000Y33455248D01*
X16054417Y33452574D01*
X16108328Y33444577D01*
X16161175Y33431340D01*
X16212486Y33412980D01*
X16261744Y33389683D01*
X16308480Y33361671D01*
X16352240Y33329216D01*
X16392619Y33292619D01*
X16429216Y33252240D01*
X16461671Y33208480D01*
X16489683Y33161744D01*
X16512980Y33112486D01*
X16531340Y33061175D01*
X16544577Y33008328D01*
X16552574Y32954417D01*
X16555248Y32900005D01*
X16552758Y32849288D01*
X20399275Y29002771D01*
X20519644Y29059699D01*
X20635622Y29101197D01*
X20755108Y29131126D01*
X20876973Y29149202D01*
X21000000Y29155248D01*
X21123027Y29149202D01*
X21244892Y29131126D01*
X21364378Y29101197D01*
X21480360Y29059698D01*
X21591718Y29007030D01*
X21697377Y28943700D01*
X21796319Y28870319D01*
X21887594Y28787594D01*
X21970319Y28696319D01*
X22043700Y28597377D01*
X22107030Y28491718D01*
X22159698Y28380360D01*
X22201197Y28264378D01*
X22231126Y28144892D01*
X22249202Y28023027D01*
X22255248Y27900000D01*
X22249202Y27776973D01*
X22231126Y27655108D01*
X22201197Y27535622D01*
X22159698Y27419640D01*
X22107030Y27308282D01*
X22043700Y27202623D01*
X21970319Y27103681D01*
X21887594Y27012406D01*
X21796319Y26929681D01*
X21697377Y26856300D01*
X21591718Y26792970D01*
X21480360Y26740302D01*
X21364378Y26698803D01*
X21244892Y26668874D01*
X21123027Y26650798D01*
X21000000Y26644752D01*
D02*
G37*
%LPC*%
G36*
X44500000Y26644752D02*
X44376973Y26650798D01*
X44255108Y26668874D01*
X44135622Y26698803D01*
X44019640Y26740302D01*
X43908282Y26792970D01*
X43802623Y26856300D01*
X43703681Y26929681D01*
X43612406Y27012406D01*
X43529681Y27103681D01*
X43456300Y27202623D01*
X43392970Y27308282D01*
X43340302Y27419640D01*
X43298803Y27535622D01*
X43268874Y27655108D01*
X43250798Y27776973D01*
X43244752Y27900000D01*
X43250798Y28023027D01*
X43268874Y28144892D01*
X43298803Y28264378D01*
X43340302Y28380360D01*
X43397229Y28500724D01*
X41852953Y30045000D01*
X34026715Y30045000D01*
X33992620Y30007382D01*
X33952240Y29970784D01*
X33908480Y29938329D01*
X33861744Y29910317D01*
X33812486Y29887020D01*
X33761175Y29868660D01*
X33708328Y29855423D01*
X33654417Y29847426D01*
X33600000Y29844752D01*
X33545583Y29847426D01*
X33491672Y29855423D01*
X33438825Y29868660D01*
X33387514Y29887020D01*
X33338256Y29910317D01*
X33291520Y29938329D01*
X33247760Y29970784D01*
X33207381Y30007381D01*
X33170784Y30047760D01*
X33138329Y30091520D01*
X33110317Y30138256D01*
X33087020Y30187514D01*
X33068660Y30238825D01*
X33055423Y30291672D01*
X33047426Y30345583D01*
X33044752Y30400000D01*
X33047426Y30454417D01*
X33055423Y30508328D01*
X33068660Y30561175D01*
X33087020Y30612486D01*
X33110317Y30661744D01*
X33138329Y30708480D01*
X33170784Y30752240D01*
X33207381Y30792619D01*
X33247760Y30829216D01*
X33291520Y30861671D01*
X33338256Y30889683D01*
X33387514Y30912980D01*
X33438825Y30931340D01*
X33491672Y30944577D01*
X33545583Y30952574D01*
X33600000Y30955248D01*
X33654417Y30952574D01*
X33708328Y30944577D01*
X33761175Y30931340D01*
X33812486Y30912980D01*
X33861744Y30889683D01*
X33908480Y30861671D01*
X33952240Y30829216D01*
X33992620Y30792618D01*
X34026715Y30755000D01*
X42010077Y30755000D01*
X42069451Y30749151D01*
X42136229Y30728893D01*
X42197776Y30695996D01*
X42243897Y30658148D01*
X43899275Y29002771D01*
X44019644Y29059699D01*
X44135622Y29101197D01*
X44255108Y29131126D01*
X44376973Y29149202D01*
X44500000Y29155248D01*
X44623027Y29149202D01*
X44744892Y29131126D01*
X44864378Y29101197D01*
X44980360Y29059698D01*
X45091718Y29007030D01*
X45197377Y28943700D01*
X45296319Y28870319D01*
X45387594Y28787594D01*
X45470319Y28696319D01*
X45543700Y28597377D01*
X45607030Y28491718D01*
X45659698Y28380360D01*
X45701197Y28264378D01*
X45731126Y28144892D01*
X45749202Y28023027D01*
X45755248Y27900000D01*
X45749202Y27776973D01*
X45731126Y27655108D01*
X45701197Y27535622D01*
X45659698Y27419640D01*
X45607030Y27308282D01*
X45543700Y27202623D01*
X45470319Y27103681D01*
X45387594Y27012406D01*
X45296319Y26929681D01*
X45197377Y26856300D01*
X45091718Y26792970D01*
X44980360Y26740302D01*
X44864378Y26698803D01*
X44744892Y26668874D01*
X44623027Y26650798D01*
X44500000Y26644752D01*
D02*
G37*
%LPC*%
G36*
X16000000Y26644752D02*
X15876973Y26650798D01*
X15755108Y26668874D01*
X15635622Y26698803D01*
X15519640Y26740302D01*
X15408282Y26792970D01*
X15302623Y26856300D01*
X15203681Y26929681D01*
X15112406Y27012406D01*
X15029681Y27103681D01*
X14956300Y27202623D01*
X14892970Y27308282D01*
X14840302Y27419640D01*
X14798803Y27535622D01*
X14768874Y27655108D01*
X14750798Y27776973D01*
X14744752Y27900000D01*
X14750798Y28023027D01*
X14768874Y28144892D01*
X14798803Y28264378D01*
X14840302Y28380360D01*
X14892970Y28491718D01*
X14956300Y28597377D01*
X15029681Y28696319D01*
X15112406Y28787594D01*
X15203681Y28870319D01*
X15302623Y28943700D01*
X15408282Y29007030D01*
X15519640Y29059698D01*
X15635622Y29101197D01*
X15755108Y29131126D01*
X15876973Y29149202D01*
X16000000Y29155248D01*
X16123027Y29149202D01*
X16244892Y29131126D01*
X16364378Y29101197D01*
X16480360Y29059698D01*
X16591718Y29007030D01*
X16697377Y28943700D01*
X16796319Y28870319D01*
X16887594Y28787594D01*
X16970319Y28696319D01*
X17043700Y28597377D01*
X17107030Y28491718D01*
X17159698Y28380360D01*
X17201197Y28264378D01*
X17231126Y28144892D01*
X17249202Y28023027D01*
X17255248Y27900000D01*
X17249202Y27776973D01*
X17231126Y27655108D01*
X17201197Y27535622D01*
X17159698Y27419640D01*
X17107030Y27308282D01*
X17043700Y27202623D01*
X16970319Y27103681D01*
X16887594Y27012406D01*
X16796319Y26929681D01*
X16697377Y26856300D01*
X16591718Y26792970D01*
X16480360Y26740302D01*
X16364378Y26698803D01*
X16244892Y26668874D01*
X16123027Y26650798D01*
X16000000Y26644752D01*
D02*
G37*
%LPC*%
G36*
X26000000Y26644752D02*
X25876973Y26650798D01*
X25755108Y26668874D01*
X25635622Y26698803D01*
X25519640Y26740302D01*
X25408282Y26792970D01*
X25302623Y26856300D01*
X25203681Y26929681D01*
X25112406Y27012406D01*
X25029681Y27103681D01*
X24956300Y27202623D01*
X24892970Y27308282D01*
X24840302Y27419640D01*
X24798803Y27535622D01*
X24768874Y27655108D01*
X24750798Y27776973D01*
X24744752Y27900000D01*
X24750798Y28023027D01*
X24768874Y28144892D01*
X24798803Y28264378D01*
X24840302Y28380360D01*
X24892970Y28491718D01*
X24956300Y28597377D01*
X25029681Y28696319D01*
X25112406Y28787594D01*
X25203681Y28870319D01*
X25302623Y28943700D01*
X25408282Y29007030D01*
X25519640Y29059698D01*
X25635622Y29101197D01*
X25755108Y29131126D01*
X25876973Y29149202D01*
X26000000Y29155248D01*
X26123027Y29149202D01*
X26244892Y29131126D01*
X26364378Y29101197D01*
X26480360Y29059698D01*
X26591718Y29007030D01*
X26697377Y28943700D01*
X26796319Y28870319D01*
X26887594Y28787594D01*
X26970319Y28696319D01*
X27043700Y28597377D01*
X27107030Y28491718D01*
X27159698Y28380360D01*
X27201197Y28264378D01*
X27231126Y28144892D01*
X27249202Y28023027D01*
X27255248Y27900000D01*
X27249202Y27776973D01*
X27231126Y27655108D01*
X27201197Y27535622D01*
X27159698Y27419640D01*
X27107030Y27308282D01*
X27043700Y27202623D01*
X26970319Y27103681D01*
X26887594Y27012406D01*
X26796319Y26929681D01*
X26697377Y26856300D01*
X26591718Y26792970D01*
X26480360Y26740302D01*
X26364378Y26698803D01*
X26244892Y26668874D01*
X26123027Y26650798D01*
X26000000Y26644752D01*
D02*
G37*
%LPC*%
G36*
X53000000Y26644752D02*
X52876973Y26650798D01*
X52755108Y26668874D01*
X52635622Y26698803D01*
X52519640Y26740302D01*
X52408282Y26792970D01*
X52302623Y26856300D01*
X52203681Y26929681D01*
X52112406Y27012406D01*
X52029681Y27103681D01*
X51956300Y27202623D01*
X51892970Y27308282D01*
X51840302Y27419640D01*
X51798803Y27535622D01*
X51768874Y27655108D01*
X51750798Y27776973D01*
X51744752Y27900000D01*
X51750798Y28023027D01*
X51768874Y28144892D01*
X51798803Y28264378D01*
X51840302Y28380360D01*
X51892970Y28491718D01*
X51956300Y28597377D01*
X52029681Y28696319D01*
X52112406Y28787594D01*
X52203681Y28870319D01*
X52302623Y28943700D01*
X52408282Y29007030D01*
X52519640Y29059698D01*
X52635622Y29101197D01*
X52755108Y29131126D01*
X52876973Y29149202D01*
X53000000Y29155248D01*
X53123027Y29149202D01*
X53244892Y29131126D01*
X53364378Y29101197D01*
X53480360Y29059698D01*
X53591718Y29007030D01*
X53697377Y28943700D01*
X53796319Y28870319D01*
X53887594Y28787594D01*
X53970319Y28696319D01*
X54043700Y28597377D01*
X54107030Y28491718D01*
X54159698Y28380360D01*
X54201197Y28264378D01*
X54231126Y28144892D01*
X54249202Y28023027D01*
X54255248Y27900000D01*
X54249202Y27776973D01*
X54231126Y27655108D01*
X54201197Y27535622D01*
X54159698Y27419640D01*
X54107030Y27308282D01*
X54043700Y27202623D01*
X53970319Y27103681D01*
X53887594Y27012406D01*
X53796319Y26929681D01*
X53697377Y26856300D01*
X53591718Y26792970D01*
X53480360Y26740302D01*
X53364378Y26698803D01*
X53244892Y26668874D01*
X53123027Y26650798D01*
X53000000Y26644752D01*
D02*
G37*
%LPC*%
G36*
X58000000Y26644752D02*
X57876973Y26650798D01*
X57755108Y26668874D01*
X57635622Y26698803D01*
X57519640Y26740302D01*
X57408282Y26792970D01*
X57302623Y26856300D01*
X57203681Y26929681D01*
X57112406Y27012406D01*
X57029681Y27103681D01*
X56956300Y27202623D01*
X56892970Y27308282D01*
X56840302Y27419640D01*
X56798803Y27535622D01*
X56768874Y27655108D01*
X56750798Y27776973D01*
X56744752Y27900000D01*
X56750798Y28023027D01*
X56768874Y28144892D01*
X56798803Y28264378D01*
X56840302Y28380360D01*
X56892970Y28491718D01*
X56956300Y28597377D01*
X57029681Y28696319D01*
X57112406Y28787594D01*
X57203681Y28870319D01*
X57302623Y28943700D01*
X57408282Y29007030D01*
X57519640Y29059698D01*
X57635622Y29101197D01*
X57755108Y29131126D01*
X57876973Y29149202D01*
X58000000Y29155248D01*
X58123027Y29149202D01*
X58244892Y29131126D01*
X58364378Y29101197D01*
X58480360Y29059698D01*
X58591718Y29007030D01*
X58697377Y28943700D01*
X58796319Y28870319D01*
X58887594Y28787594D01*
X58970319Y28696319D01*
X59043700Y28597377D01*
X59107030Y28491718D01*
X59159698Y28380360D01*
X59201197Y28264378D01*
X59231126Y28144892D01*
X59249202Y28023027D01*
X59255248Y27900000D01*
X59249202Y27776973D01*
X59231126Y27655108D01*
X59201197Y27535622D01*
X59159698Y27419640D01*
X59107030Y27308282D01*
X59043700Y27202623D01*
X58970319Y27103681D01*
X58887594Y27012406D01*
X58796319Y26929681D01*
X58697377Y26856300D01*
X58591718Y26792970D01*
X58480360Y26740302D01*
X58364378Y26698803D01*
X58244892Y26668874D01*
X58123027Y26650798D01*
X58000000Y26644752D01*
D02*
G37*
%LPC*%
G36*
X63000000Y26644752D02*
X62876973Y26650798D01*
X62755108Y26668874D01*
X62635622Y26698803D01*
X62519640Y26740302D01*
X62408282Y26792970D01*
X62302623Y26856300D01*
X62203681Y26929681D01*
X62112406Y27012406D01*
X62029681Y27103681D01*
X61956300Y27202623D01*
X61892970Y27308282D01*
X61840302Y27419640D01*
X61798803Y27535622D01*
X61768874Y27655108D01*
X61750798Y27776973D01*
X61744752Y27900000D01*
X61750798Y28023027D01*
X61768874Y28144892D01*
X61798803Y28264378D01*
X61840302Y28380360D01*
X61892970Y28491718D01*
X61956300Y28597377D01*
X62029681Y28696319D01*
X62112406Y28787594D01*
X62203681Y28870319D01*
X62302623Y28943700D01*
X62408282Y29007030D01*
X62519640Y29059698D01*
X62635622Y29101197D01*
X62755108Y29131126D01*
X62876973Y29149202D01*
X63000000Y29155248D01*
X63123027Y29149202D01*
X63244892Y29131126D01*
X63364378Y29101197D01*
X63480360Y29059698D01*
X63591718Y29007030D01*
X63697377Y28943700D01*
X63796319Y28870319D01*
X63887594Y28787594D01*
X63970319Y28696319D01*
X64043700Y28597377D01*
X64107030Y28491718D01*
X64159698Y28380360D01*
X64201197Y28264378D01*
X64231126Y28144892D01*
X64249202Y28023027D01*
X64255248Y27900000D01*
X64249202Y27776973D01*
X64231126Y27655108D01*
X64201197Y27535622D01*
X64159698Y27419640D01*
X64107030Y27308282D01*
X64043700Y27202623D01*
X63970319Y27103681D01*
X63887594Y27012406D01*
X63796319Y26929681D01*
X63697377Y26856300D01*
X63591718Y26792970D01*
X63480360Y26740302D01*
X63364378Y26698803D01*
X63244892Y26668874D01*
X63123027Y26650798D01*
X63000000Y26644752D01*
D02*
G37*
%LPC*%
G36*
X34395000Y28005000D02*
X33254918Y28005000D01*
X33255780Y28022538D01*
X33273783Y28143912D01*
X33303595Y28262927D01*
X33344927Y28378444D01*
X33397385Y28489358D01*
X33460463Y28594596D01*
X33533551Y28693143D01*
X33615946Y28784054D01*
X33706857Y28866449D01*
X33805404Y28939537D01*
X33910642Y29002615D01*
X34021556Y29055073D01*
X34137073Y29096405D01*
X34256088Y29126217D01*
X34377462Y29144220D01*
X34395000Y29145082D01*
X34395000Y28005000D01*
D02*
G37*
%LPC*%
G36*
X35745082Y28005000D02*
X34605000Y28005000D01*
X34605000Y29145082D01*
X34622538Y29144220D01*
X34743912Y29126217D01*
X34862927Y29096405D01*
X34978444Y29055073D01*
X35089358Y29002615D01*
X35194596Y28939537D01*
X35293143Y28866449D01*
X35384054Y28784054D01*
X35466449Y28693143D01*
X35539537Y28594596D01*
X35602615Y28489358D01*
X35655073Y28378444D01*
X35696405Y28262927D01*
X35726217Y28143912D01*
X35744220Y28022538D01*
X35745082Y28005000D01*
D02*
G37*
%LPC*%
G36*
X39395000Y28005000D02*
X38254918Y28005000D01*
X38255780Y28022538D01*
X38273783Y28143912D01*
X38303595Y28262927D01*
X38344927Y28378444D01*
X38397385Y28489358D01*
X38460463Y28594596D01*
X38533551Y28693143D01*
X38615946Y28784054D01*
X38706857Y28866449D01*
X38805404Y28939537D01*
X38910642Y29002615D01*
X39021556Y29055073D01*
X39137073Y29096405D01*
X39256088Y29126217D01*
X39377462Y29144220D01*
X39395000Y29145082D01*
X39395000Y28005000D01*
D02*
G37*
%LPC*%
G36*
X40745082Y28005000D02*
X39605000Y28005000D01*
X39605000Y29145082D01*
X39622538Y29144220D01*
X39743912Y29126217D01*
X39862927Y29096405D01*
X39978444Y29055073D01*
X40089358Y29002615D01*
X40194596Y28939537D01*
X40293143Y28866449D01*
X40384054Y28784054D01*
X40466449Y28693143D01*
X40539537Y28594596D01*
X40602615Y28489358D01*
X40655073Y28378444D01*
X40696405Y28262927D01*
X40726217Y28143912D01*
X40744220Y28022538D01*
X40745082Y28005000D01*
D02*
G37*
%LPC*%
G36*
X39605000Y26654918D02*
X39605000Y27795000D01*
X40745082Y27795000D01*
X40744220Y27777462D01*
X40726217Y27656088D01*
X40696405Y27537073D01*
X40655073Y27421556D01*
X40602615Y27310642D01*
X40539537Y27205404D01*
X40466449Y27106857D01*
X40384054Y27015946D01*
X40293143Y26933551D01*
X40194596Y26860463D01*
X40089358Y26797385D01*
X39978444Y26744927D01*
X39862927Y26703595D01*
X39743912Y26673783D01*
X39622538Y26655780D01*
X39605000Y26654918D01*
D02*
G37*
%LPC*%
G36*
X39395000Y26654918D02*
X39377462Y26655780D01*
X39256088Y26673783D01*
X39137073Y26703595D01*
X39021556Y26744927D01*
X38910642Y26797385D01*
X38805404Y26860463D01*
X38706857Y26933551D01*
X38615946Y27015946D01*
X38533551Y27106857D01*
X38460463Y27205404D01*
X38397385Y27310642D01*
X38344927Y27421556D01*
X38303595Y27537073D01*
X38273783Y27656088D01*
X38255780Y27777462D01*
X38254918Y27795000D01*
X39395000Y27795000D01*
X39395000Y26654918D01*
D02*
G37*
%LPC*%
G36*
X34605000Y26654918D02*
X34605000Y27795000D01*
X35745082Y27795000D01*
X35744220Y27777462D01*
X35726217Y27656088D01*
X35696405Y27537073D01*
X35655073Y27421556D01*
X35602615Y27310642D01*
X35539537Y27205404D01*
X35466449Y27106857D01*
X35384054Y27015946D01*
X35293143Y26933551D01*
X35194596Y26860463D01*
X35089358Y26797385D01*
X34978444Y26744927D01*
X34862927Y26703595D01*
X34743912Y26673783D01*
X34622538Y26655780D01*
X34605000Y26654918D01*
D02*
G37*
%LPC*%
G36*
X34395000Y26654918D02*
X34377462Y26655780D01*
X34256088Y26673783D01*
X34137073Y26703595D01*
X34021556Y26744927D01*
X33910642Y26797385D01*
X33805404Y26860463D01*
X33706857Y26933551D01*
X33615946Y27015946D01*
X33533551Y27106857D01*
X33460463Y27205404D01*
X33397385Y27310642D01*
X33344927Y27421556D01*
X33303595Y27537073D01*
X33273783Y27656088D01*
X33255780Y27777462D01*
X33254918Y27795000D01*
X34395000Y27795000D01*
X34395000Y26654918D01*
D02*
G37*
%LPC*%
G36*
X34710000Y11694752D02*
X34611475Y11699594D01*
X34513884Y11714069D01*
X34418193Y11738038D01*
X34325304Y11771275D01*
X34236140Y11813445D01*
X34151512Y11864170D01*
X34072277Y11922935D01*
X33999183Y11989183D01*
X33932935Y12062277D01*
X33874170Y12141512D01*
X33823445Y12226140D01*
X33781275Y12315304D01*
X33748038Y12408193D01*
X33724069Y12503884D01*
X33709594Y12601475D01*
X33704752Y12700000D01*
X33709594Y12798525D01*
X33724069Y12896116D01*
X33748038Y12991807D01*
X33781275Y13084696D01*
X33823445Y13173860D01*
X33874170Y13258488D01*
X33932935Y13337723D01*
X33999183Y13410817D01*
X34072277Y13477065D01*
X34151517Y13535833D01*
X34205000Y13567888D01*
X34205000Y14130066D01*
X34213731Y14218715D01*
X34242525Y14313636D01*
X34289283Y14401113D01*
X34351714Y14477187D01*
X34359484Y14483662D01*
X39595000Y19719179D01*
X39595000Y20108284D01*
X39554834Y20152600D01*
X39513614Y20208179D01*
X39478027Y20267551D01*
X39448438Y20330114D01*
X39425118Y20395284D01*
X39408307Y20462405D01*
X39398148Y20530883D01*
X39394752Y20600000D01*
X39398148Y20669117D01*
X39408307Y20737595D01*
X39425118Y20804716D01*
X39448438Y20869886D01*
X39478027Y20932449D01*
X39513614Y20991821D01*
X39554834Y21047401D01*
X39601315Y21098685D01*
X39652599Y21145166D01*
X39708179Y21186386D01*
X39767551Y21221973D01*
X39830114Y21251562D01*
X39895284Y21274882D01*
X39962405Y21291693D01*
X40030883Y21301852D01*
X40100000Y21305248D01*
X40169117Y21301852D01*
X40237595Y21291693D01*
X40304716Y21274882D01*
X40369886Y21251562D01*
X40432449Y21221973D01*
X40491821Y21186386D01*
X40547401Y21145166D01*
X40598685Y21098685D01*
X40645166Y21047401D01*
X40686386Y20991821D01*
X40721973Y20932449D01*
X40751562Y20869886D01*
X40774882Y20804716D01*
X40791693Y20737595D01*
X40801852Y20669117D01*
X40805248Y20600000D01*
X40801852Y20530883D01*
X40791693Y20462405D01*
X40774882Y20395284D01*
X40751562Y20330114D01*
X40721973Y20267551D01*
X40686386Y20208179D01*
X40645166Y20152600D01*
X40605000Y20108284D01*
X40605000Y19499925D01*
X40596269Y19411286D01*
X40567474Y19316363D01*
X40520716Y19228886D01*
X40458285Y19152812D01*
X40450515Y19146337D01*
X35215000Y13910821D01*
X35215000Y13567888D01*
X35268483Y13535833D01*
X35347723Y13477065D01*
X35420817Y13410817D01*
X35487065Y13337723D01*
X35545830Y13258488D01*
X35596555Y13173860D01*
X35638725Y13084696D01*
X35671962Y12991807D01*
X35695931Y12896116D01*
X35710406Y12798525D01*
X35715248Y12700000D01*
X35710406Y12601475D01*
X35695931Y12503884D01*
X35671962Y12408193D01*
X35638725Y12315304D01*
X35596555Y12226140D01*
X35545830Y12141512D01*
X35487065Y12062277D01*
X35420817Y11989183D01*
X35347723Y11922935D01*
X35268488Y11864170D01*
X35183860Y11813445D01*
X35094696Y11771275D01*
X35001807Y11738038D01*
X34906116Y11714069D01*
X34808525Y11699594D01*
X34710000Y11694752D01*
D02*
G37*
%LPC*%
G36*
X51760000Y14044753D02*
X51676170Y14048872D01*
X51593142Y14061189D01*
X51511738Y14081578D01*
X51432709Y14109856D01*
X51356842Y14145739D01*
X51284852Y14188888D01*
X51217438Y14238886D01*
X51155249Y14295249D01*
X51098886Y14357438D01*
X51048888Y14424852D01*
X51005739Y14496842D01*
X50969856Y14572709D01*
X50941578Y14651738D01*
X50921189Y14733142D01*
X50908872Y14816170D01*
X50904753Y14900000D01*
X50908872Y14983830D01*
X50921189Y15066858D01*
X50941578Y15148262D01*
X50969856Y15227291D01*
X51005739Y15303158D01*
X51048888Y15375148D01*
X51098886Y15442562D01*
X51155249Y15504751D01*
X51217438Y15561114D01*
X51284852Y15611112D01*
X51356842Y15654261D01*
X51432709Y15690144D01*
X51511738Y15718422D01*
X51593142Y15738811D01*
X51676170Y15751128D01*
X51760000Y15755247D01*
X51843830Y15751128D01*
X51926858Y15738811D01*
X52008262Y15718422D01*
X52087291Y15690144D01*
X52163158Y15654261D01*
X52235148Y15611112D01*
X52302562Y15561114D01*
X52364751Y15504751D01*
X52421114Y15442562D01*
X52471112Y15375148D01*
X52514261Y15303158D01*
X52550144Y15227291D01*
X52578422Y15148262D01*
X52598811Y15066858D01*
X52611128Y14983830D01*
X52615247Y14900000D01*
X52611128Y14816170D01*
X52598811Y14733142D01*
X52578422Y14651738D01*
X52550144Y14572709D01*
X52514261Y14496842D01*
X52471112Y14424852D01*
X52421114Y14357438D01*
X52364751Y14295249D01*
X52302562Y14238886D01*
X52235148Y14188888D01*
X52163158Y14145739D01*
X52087291Y14109856D01*
X52008262Y14081578D01*
X51926858Y14061189D01*
X51843830Y14048872D01*
X51760000Y14044753D01*
D02*
G37*
%LPC*%
G36*
X56840000Y14044753D02*
X56756170Y14048872D01*
X56673142Y14061189D01*
X56591738Y14081578D01*
X56512709Y14109856D01*
X56436842Y14145739D01*
X56364852Y14188888D01*
X56297438Y14238886D01*
X56235249Y14295249D01*
X56178886Y14357438D01*
X56128888Y14424852D01*
X56085739Y14496842D01*
X56049856Y14572709D01*
X56021578Y14651738D01*
X56001189Y14733142D01*
X55988872Y14816170D01*
X55984753Y14900000D01*
X55988872Y14983830D01*
X56001189Y15066858D01*
X56021578Y15148262D01*
X56049856Y15227291D01*
X56085739Y15303158D01*
X56128888Y15375148D01*
X56178886Y15442562D01*
X56235249Y15504751D01*
X56297438Y15561114D01*
X56364852Y15611112D01*
X56436842Y15654261D01*
X56512709Y15690144D01*
X56591738Y15718422D01*
X56673142Y15738811D01*
X56756170Y15751128D01*
X56840000Y15755247D01*
X56923830Y15751128D01*
X57006858Y15738811D01*
X57088262Y15718422D01*
X57167291Y15690144D01*
X57243158Y15654261D01*
X57315148Y15611112D01*
X57382562Y15561114D01*
X57444751Y15504751D01*
X57501114Y15442562D01*
X57551112Y15375148D01*
X57594261Y15303158D01*
X57630144Y15227291D01*
X57658422Y15148262D01*
X57678811Y15066858D01*
X57691128Y14983830D01*
X57695247Y14900000D01*
X57691128Y14816170D01*
X57678811Y14733142D01*
X57658422Y14651738D01*
X57630144Y14572709D01*
X57594261Y14496842D01*
X57551112Y14424852D01*
X57501114Y14357438D01*
X57444751Y14295249D01*
X57382562Y14238886D01*
X57315148Y14188888D01*
X57243158Y14145739D01*
X57167291Y14109856D01*
X57088262Y14081578D01*
X57006858Y14061189D01*
X56923830Y14048872D01*
X56840000Y14044753D01*
D02*
G37*
%LPC*%
G36*
X14550000Y12724753D02*
X14446567Y12729835D01*
X14344127Y12745031D01*
X14243680Y12770191D01*
X14146180Y12805078D01*
X14052554Y12849358D01*
X13963742Y12902591D01*
X13880556Y12964286D01*
X13803828Y13033828D01*
X13734286Y13110556D01*
X13672591Y13193742D01*
X13619358Y13282554D01*
X13575078Y13376180D01*
X13540191Y13473680D01*
X13515031Y13574127D01*
X13499835Y13676567D01*
X13494753Y13780000D01*
X13499835Y13883433D01*
X13515031Y13985873D01*
X13540191Y14086320D01*
X13575078Y14183820D01*
X13619358Y14277446D01*
X13672591Y14366258D01*
X13734286Y14449444D01*
X13803828Y14526172D01*
X13880556Y14595714D01*
X13963742Y14657409D01*
X14052554Y14710642D01*
X14146180Y14754922D01*
X14243680Y14789809D01*
X14344127Y14814969D01*
X14446567Y14830165D01*
X14550000Y14835247D01*
X14653433Y14830165D01*
X14755873Y14814969D01*
X14856320Y14789809D01*
X14953820Y14754922D01*
X15047446Y14710642D01*
X15136258Y14657409D01*
X15219444Y14595714D01*
X15296172Y14526172D01*
X15365714Y14449444D01*
X15427409Y14366258D01*
X15480642Y14277446D01*
X15524922Y14183820D01*
X15559809Y14086320D01*
X15584969Y13985873D01*
X15600165Y13883433D01*
X15605247Y13780000D01*
X15600165Y13676567D01*
X15584969Y13574127D01*
X15559809Y13473680D01*
X15524922Y13376180D01*
X15480642Y13282554D01*
X15427409Y13193742D01*
X15365714Y13110556D01*
X15296172Y13033828D01*
X15219444Y12964286D01*
X15136258Y12902591D01*
X15047446Y12849358D01*
X14953820Y12805078D01*
X14856320Y12770191D01*
X14755873Y12745031D01*
X14653433Y12729835D01*
X14550000Y12724753D01*
D02*
G37*
%LPC*%
G36*
X61950000Y12724753D02*
X61846567Y12729835D01*
X61744127Y12745031D01*
X61643680Y12770191D01*
X61546180Y12805078D01*
X61452554Y12849358D01*
X61363742Y12902591D01*
X61280556Y12964286D01*
X61203828Y13033828D01*
X61134286Y13110556D01*
X61072591Y13193742D01*
X61019358Y13282554D01*
X60975078Y13376180D01*
X60940191Y13473680D01*
X60915031Y13574127D01*
X60899835Y13676567D01*
X60894753Y13780000D01*
X60899835Y13883433D01*
X60915031Y13985873D01*
X60940191Y14086320D01*
X60975078Y14183820D01*
X61019358Y14277446D01*
X61072591Y14366258D01*
X61134286Y14449444D01*
X61203828Y14526172D01*
X61280556Y14595714D01*
X61363742Y14657409D01*
X61452554Y14710642D01*
X61546180Y14754922D01*
X61643680Y14789809D01*
X61744127Y14814969D01*
X61846567Y14830165D01*
X61950000Y14835247D01*
X62053433Y14830165D01*
X62155873Y14814969D01*
X62256320Y14789809D01*
X62353820Y14754922D01*
X62447446Y14710642D01*
X62536258Y14657409D01*
X62619444Y14595714D01*
X62696172Y14526172D01*
X62765714Y14449444D01*
X62827409Y14366258D01*
X62880642Y14277446D01*
X62924922Y14183820D01*
X62959809Y14086320D01*
X62984969Y13985873D01*
X63000165Y13883433D01*
X63005247Y13780000D01*
X63000165Y13676567D01*
X62984969Y13574127D01*
X62959809Y13473680D01*
X62924922Y13376180D01*
X62880642Y13282554D01*
X62827409Y13193742D01*
X62765714Y13110556D01*
X62696172Y13033828D01*
X62619444Y12964286D01*
X62536258Y12902591D01*
X62447446Y12849358D01*
X62353820Y12805078D01*
X62256320Y12770191D01*
X62155873Y12745031D01*
X62053433Y12729835D01*
X61950000Y12724753D01*
D02*
G37*
%LPC*%
G36*
X16945000Y13885000D02*
X16005122Y13885000D01*
X16019941Y13984897D01*
X16044983Y14084871D01*
X16079705Y14181911D01*
X16123764Y14275070D01*
X16176763Y14363491D01*
X16238150Y14446262D01*
X16307368Y14522632D01*
X16383738Y14591850D01*
X16466509Y14653237D01*
X16554930Y14706236D01*
X16648089Y14750295D01*
X16745129Y14785017D01*
X16845103Y14810059D01*
X16945000Y14824878D01*
X16945000Y13885000D01*
D02*
G37*
%LPC*%
G36*
X18094878Y13885000D02*
X17155000Y13885000D01*
X17155000Y14824878D01*
X17254897Y14810059D01*
X17354871Y14785017D01*
X17451911Y14750295D01*
X17545070Y14706236D01*
X17633491Y14653237D01*
X17716262Y14591850D01*
X17792632Y14522632D01*
X17861850Y14446262D01*
X17923237Y14363491D01*
X17976236Y14275070D01*
X18020295Y14181911D01*
X18055017Y14084871D01*
X18080059Y13984897D01*
X18094878Y13885000D01*
D02*
G37*
%LPC*%
G36*
X64345000Y13885000D02*
X63405122Y13885000D01*
X63419941Y13984897D01*
X63444983Y14084871D01*
X63479705Y14181911D01*
X63523764Y14275070D01*
X63576763Y14363491D01*
X63638150Y14446262D01*
X63707368Y14522632D01*
X63783738Y14591850D01*
X63866509Y14653237D01*
X63954930Y14706236D01*
X64048089Y14750295D01*
X64145129Y14785017D01*
X64245103Y14810059D01*
X64345000Y14824878D01*
X64345000Y13885000D01*
D02*
G37*
%LPC*%
G36*
X65494878Y13885000D02*
X64555000Y13885000D01*
X64555000Y14824878D01*
X64654897Y14810059D01*
X64754871Y14785017D01*
X64851911Y14750295D01*
X64945070Y14706236D01*
X65033491Y14653237D01*
X65116262Y14591850D01*
X65192632Y14522632D01*
X65261850Y14446262D01*
X65323237Y14363491D01*
X65376236Y14275070D01*
X65420295Y14181911D01*
X65455017Y14084871D01*
X65480059Y13984897D01*
X65494878Y13885000D01*
D02*
G37*
%LPC*%
G36*
X41200000Y12374753D02*
X41096567Y12379835D01*
X40994127Y12395031D01*
X40893680Y12420191D01*
X40796180Y12455078D01*
X40702554Y12499358D01*
X40613742Y12552591D01*
X40530556Y12614286D01*
X40453828Y12683828D01*
X40384286Y12760556D01*
X40322591Y12843742D01*
X40269358Y12932554D01*
X40225078Y13026180D01*
X40190191Y13123680D01*
X40165031Y13224127D01*
X40149835Y13326567D01*
X40144753Y13430000D01*
X40149835Y13533433D01*
X40165031Y13635873D01*
X40190191Y13736320D01*
X40225078Y13833820D01*
X40269358Y13927446D01*
X40322591Y14016258D01*
X40384286Y14099444D01*
X40453828Y14176172D01*
X40530556Y14245714D01*
X40613742Y14307409D01*
X40702554Y14360642D01*
X40796180Y14404922D01*
X40893680Y14439809D01*
X40994127Y14464969D01*
X41096567Y14480165D01*
X41200000Y14485247D01*
X41303433Y14480165D01*
X41405873Y14464969D01*
X41506320Y14439809D01*
X41603820Y14404922D01*
X41697446Y14360642D01*
X41786258Y14307409D01*
X41869444Y14245714D01*
X41946172Y14176172D01*
X42015714Y14099444D01*
X42077409Y14016258D01*
X42130642Y13927446D01*
X42174922Y13833820D01*
X42209809Y13736320D01*
X42234969Y13635873D01*
X42250165Y13533433D01*
X42255247Y13430000D01*
X42250165Y13326567D01*
X42234969Y13224127D01*
X42209809Y13123680D01*
X42174922Y13026180D01*
X42130642Y12932554D01*
X42077409Y12843742D01*
X42015714Y12760556D01*
X41946172Y12683828D01*
X41869444Y12614286D01*
X41786258Y12552591D01*
X41697446Y12499358D01*
X41603820Y12455078D01*
X41506320Y12420191D01*
X41405873Y12395031D01*
X41303433Y12379835D01*
X41200000Y12374753D01*
D02*
G37*
%LPC*%
G36*
X48715000Y13535000D02*
X47775122Y13535000D01*
X47789941Y13634897D01*
X47814983Y13734871D01*
X47849705Y13831911D01*
X47893764Y13925070D01*
X47946763Y14013491D01*
X48008150Y14096262D01*
X48077368Y14172632D01*
X48153738Y14241850D01*
X48236509Y14303237D01*
X48324930Y14356236D01*
X48418089Y14400295D01*
X48515129Y14435017D01*
X48615103Y14460059D01*
X48715000Y14474878D01*
X48715000Y13535000D01*
D02*
G37*
%LPC*%
G36*
X49864878Y13535000D02*
X48925000Y13535000D01*
X48925000Y14474878D01*
X49024897Y14460059D01*
X49124871Y14435017D01*
X49221911Y14400295D01*
X49315070Y14356236D01*
X49403491Y14303237D01*
X49486262Y14241850D01*
X49562632Y14172632D01*
X49631850Y14096262D01*
X49693237Y14013491D01*
X49746236Y13925070D01*
X49790295Y13831911D01*
X49825017Y13734871D01*
X49850059Y13634897D01*
X49864878Y13535000D01*
D02*
G37*
%LPC*%
G36*
X24550000Y11694752D02*
X24451475Y11699594D01*
X24353884Y11714069D01*
X24258193Y11738038D01*
X24165304Y11771275D01*
X24076140Y11813445D01*
X23991512Y11864170D01*
X23912277Y11922935D01*
X23839183Y11989183D01*
X23772935Y12062277D01*
X23714170Y12141512D01*
X23663445Y12226140D01*
X23621275Y12315304D01*
X23588038Y12408193D01*
X23564069Y12503884D01*
X23549594Y12601475D01*
X23544752Y12700000D01*
X23549594Y12798525D01*
X23564069Y12896116D01*
X23588038Y12991807D01*
X23621275Y13084696D01*
X23663445Y13173860D01*
X23714170Y13258488D01*
X23772935Y13337723D01*
X23839183Y13410817D01*
X23912277Y13477065D01*
X23991512Y13535830D01*
X24076140Y13586555D01*
X24165304Y13628725D01*
X24258193Y13661962D01*
X24353884Y13685931D01*
X24451475Y13700406D01*
X24550000Y13705248D01*
X24648525Y13700406D01*
X24746116Y13685931D01*
X24841807Y13661962D01*
X24934696Y13628725D01*
X25023860Y13586555D01*
X25108488Y13535830D01*
X25187723Y13477065D01*
X25260817Y13410817D01*
X25327065Y13337723D01*
X25385830Y13258488D01*
X25436555Y13173860D01*
X25478725Y13084696D01*
X25511962Y12991807D01*
X25535931Y12896116D01*
X25550406Y12798525D01*
X25555248Y12700000D01*
X25550406Y12601475D01*
X25535931Y12503884D01*
X25511962Y12408193D01*
X25478725Y12315304D01*
X25436555Y12226140D01*
X25385830Y12141512D01*
X25327065Y12062277D01*
X25260817Y11989183D01*
X25187723Y11922935D01*
X25108488Y11864170D01*
X25023860Y11813445D01*
X24934696Y11771275D01*
X24841807Y11738038D01*
X24746116Y11714069D01*
X24648525Y11699594D01*
X24550000Y11694752D01*
D02*
G37*
%LPC*%
G36*
X27090000Y11694752D02*
X26991475Y11699594D01*
X26893884Y11714069D01*
X26798193Y11738038D01*
X26705304Y11771275D01*
X26616140Y11813445D01*
X26531512Y11864170D01*
X26452277Y11922935D01*
X26379183Y11989183D01*
X26312935Y12062277D01*
X26254170Y12141512D01*
X26203445Y12226140D01*
X26161275Y12315304D01*
X26128038Y12408193D01*
X26104069Y12503884D01*
X26089594Y12601475D01*
X26084752Y12700000D01*
X26089594Y12798525D01*
X26104069Y12896116D01*
X26128038Y12991807D01*
X26161275Y13084696D01*
X26203445Y13173860D01*
X26254170Y13258488D01*
X26312935Y13337723D01*
X26379183Y13410817D01*
X26452277Y13477065D01*
X26531512Y13535830D01*
X26616140Y13586555D01*
X26705304Y13628725D01*
X26798193Y13661962D01*
X26893884Y13685931D01*
X26991475Y13700406D01*
X27090000Y13705248D01*
X27188525Y13700406D01*
X27286116Y13685931D01*
X27381807Y13661962D01*
X27474696Y13628725D01*
X27563860Y13586555D01*
X27648488Y13535830D01*
X27727723Y13477065D01*
X27800817Y13410817D01*
X27867065Y13337723D01*
X27925830Y13258488D01*
X27976555Y13173860D01*
X28018725Y13084696D01*
X28051962Y12991807D01*
X28075931Y12896116D01*
X28090406Y12798525D01*
X28095248Y12700000D01*
X28090406Y12601475D01*
X28075931Y12503884D01*
X28051962Y12408193D01*
X28018725Y12315304D01*
X27976555Y12226140D01*
X27925830Y12141512D01*
X27867065Y12062277D01*
X27800817Y11989183D01*
X27727723Y11922935D01*
X27648488Y11864170D01*
X27563860Y11813445D01*
X27474696Y11771275D01*
X27381807Y11738038D01*
X27286116Y11714069D01*
X27188525Y11699594D01*
X27090000Y11694752D01*
D02*
G37*
%LPC*%
G36*
X29630000Y11694752D02*
X29531475Y11699594D01*
X29433884Y11714069D01*
X29338193Y11738038D01*
X29245304Y11771275D01*
X29156140Y11813445D01*
X29071512Y11864170D01*
X28992277Y11922935D01*
X28919183Y11989183D01*
X28852935Y12062277D01*
X28794170Y12141512D01*
X28743445Y12226140D01*
X28701275Y12315304D01*
X28668038Y12408193D01*
X28644069Y12503884D01*
X28629594Y12601475D01*
X28624752Y12700000D01*
X28629594Y12798525D01*
X28644069Y12896116D01*
X28668038Y12991807D01*
X28701275Y13084696D01*
X28743445Y13173860D01*
X28794170Y13258488D01*
X28852935Y13337723D01*
X28919183Y13410817D01*
X28992277Y13477065D01*
X29071512Y13535830D01*
X29156140Y13586555D01*
X29245304Y13628725D01*
X29338193Y13661962D01*
X29433884Y13685931D01*
X29531475Y13700406D01*
X29630000Y13705248D01*
X29728525Y13700406D01*
X29826116Y13685931D01*
X29921807Y13661962D01*
X30014696Y13628725D01*
X30103860Y13586555D01*
X30188488Y13535830D01*
X30267723Y13477065D01*
X30340817Y13410817D01*
X30407065Y13337723D01*
X30465830Y13258488D01*
X30516555Y13173860D01*
X30558725Y13084696D01*
X30591962Y12991807D01*
X30615931Y12896116D01*
X30630406Y12798525D01*
X30635248Y12700000D01*
X30630406Y12601475D01*
X30615931Y12503884D01*
X30591962Y12408193D01*
X30558725Y12315304D01*
X30516555Y12226140D01*
X30465830Y12141512D01*
X30407065Y12062277D01*
X30340817Y11989183D01*
X30267723Y11922935D01*
X30188488Y11864170D01*
X30103860Y11813445D01*
X30014696Y11771275D01*
X29921807Y11738038D01*
X29826116Y11714069D01*
X29728525Y11699594D01*
X29630000Y11694752D01*
D02*
G37*
%LPC*%
G36*
X32170000Y11694752D02*
X32071475Y11699594D01*
X31973884Y11714069D01*
X31878193Y11738038D01*
X31785304Y11771275D01*
X31696140Y11813445D01*
X31611512Y11864170D01*
X31532277Y11922935D01*
X31459183Y11989183D01*
X31392935Y12062277D01*
X31334170Y12141512D01*
X31283445Y12226140D01*
X31241275Y12315304D01*
X31208038Y12408193D01*
X31184069Y12503884D01*
X31169594Y12601475D01*
X31164752Y12700000D01*
X31169594Y12798525D01*
X31184069Y12896116D01*
X31208038Y12991807D01*
X31241275Y13084696D01*
X31283445Y13173860D01*
X31334170Y13258488D01*
X31392935Y13337723D01*
X31459183Y13410817D01*
X31532277Y13477065D01*
X31611512Y13535830D01*
X31696140Y13586555D01*
X31785304Y13628725D01*
X31878193Y13661962D01*
X31973884Y13685931D01*
X32071475Y13700406D01*
X32170000Y13705248D01*
X32268525Y13700406D01*
X32366116Y13685931D01*
X32461807Y13661962D01*
X32554696Y13628725D01*
X32643860Y13586555D01*
X32728488Y13535830D01*
X32807723Y13477065D01*
X32880817Y13410817D01*
X32947065Y13337723D01*
X33005830Y13258488D01*
X33056555Y13173860D01*
X33098725Y13084696D01*
X33131962Y12991807D01*
X33155931Y12896116D01*
X33170406Y12798525D01*
X33175248Y12700000D01*
X33170406Y12601475D01*
X33155931Y12503884D01*
X33131962Y12408193D01*
X33098725Y12315304D01*
X33056555Y12226140D01*
X33005830Y12141512D01*
X32947065Y12062277D01*
X32880817Y11989183D01*
X32807723Y11922935D01*
X32728488Y11864170D01*
X32643860Y11813445D01*
X32554696Y11771275D01*
X32461807Y11738038D01*
X32366116Y11714069D01*
X32268525Y11699594D01*
X32170000Y11694752D01*
D02*
G37*
%LPC*%
G36*
X37145000Y12805000D02*
X36255609Y12805000D01*
X36268978Y12895137D01*
X36292831Y12990359D01*
X36325899Y13082777D01*
X36367864Y13171508D01*
X36418328Y13255700D01*
X36476805Y13334547D01*
X36542723Y13407277D01*
X36615453Y13473195D01*
X36694300Y13531672D01*
X36778492Y13582136D01*
X36867223Y13624101D01*
X36959641Y13657169D01*
X37054863Y13681022D01*
X37145000Y13694391D01*
X37145000Y12805000D01*
D02*
G37*
%LPC*%
G36*
X38244391Y12805000D02*
X37355000Y12805000D01*
X37355000Y13694391D01*
X37445137Y13681022D01*
X37540359Y13657169D01*
X37632777Y13624101D01*
X37721508Y13582136D01*
X37805700Y13531672D01*
X37884547Y13473195D01*
X37957277Y13407277D01*
X38023195Y13334547D01*
X38081672Y13255700D01*
X38132136Y13171508D01*
X38174101Y13082777D01*
X38207169Y12990359D01*
X38231022Y12895137D01*
X38244391Y12805000D01*
D02*
G37*
%LPC*%
G36*
X64555000Y12735122D02*
X64555000Y13675000D01*
X65494878Y13675000D01*
X65480059Y13575103D01*
X65455017Y13475129D01*
X65420295Y13378089D01*
X65376236Y13284930D01*
X65323237Y13196509D01*
X65261850Y13113738D01*
X65192632Y13037368D01*
X65116262Y12968150D01*
X65033491Y12906763D01*
X64945070Y12853764D01*
X64851911Y12809705D01*
X64754871Y12774983D01*
X64654897Y12749941D01*
X64555000Y12735122D01*
D02*
G37*
%LPC*%
G36*
X64345000Y12735122D02*
X64245103Y12749941D01*
X64145129Y12774983D01*
X64048089Y12809705D01*
X63954930Y12853764D01*
X63866509Y12906763D01*
X63783738Y12968150D01*
X63707368Y13037368D01*
X63638150Y13113738D01*
X63576763Y13196509D01*
X63523764Y13284930D01*
X63479705Y13378089D01*
X63444983Y13475129D01*
X63419941Y13575103D01*
X63405122Y13675000D01*
X64345000Y13675000D01*
X64345000Y12735122D01*
D02*
G37*
%LPC*%
G36*
X17155000Y12735122D02*
X17155000Y13675000D01*
X18094878Y13675000D01*
X18080059Y13575103D01*
X18055017Y13475129D01*
X18020295Y13378089D01*
X17976236Y13284930D01*
X17923237Y13196509D01*
X17861850Y13113738D01*
X17792632Y13037368D01*
X17716262Y12968150D01*
X17633491Y12906763D01*
X17545070Y12853764D01*
X17451911Y12809705D01*
X17354871Y12774983D01*
X17254897Y12749941D01*
X17155000Y12735122D01*
D02*
G37*
%LPC*%
G36*
X16945000Y12735122D02*
X16845103Y12749941D01*
X16745129Y12774983D01*
X16648089Y12809705D01*
X16554930Y12853764D01*
X16466509Y12906763D01*
X16383738Y12968150D01*
X16307368Y13037368D01*
X16238150Y13113738D01*
X16176763Y13196509D01*
X16123764Y13284930D01*
X16079705Y13378089D01*
X16044983Y13475129D01*
X16019941Y13575103D01*
X16005122Y13675000D01*
X16945000Y13675000D01*
X16945000Y12735122D01*
D02*
G37*
%LPC*%
G36*
X48925000Y12385122D02*
X48925000Y13325000D01*
X49864878Y13325000D01*
X49850059Y13225103D01*
X49825017Y13125129D01*
X49790295Y13028089D01*
X49746236Y12934930D01*
X49693237Y12846509D01*
X49631850Y12763738D01*
X49562632Y12687368D01*
X49486262Y12618150D01*
X49403491Y12556763D01*
X49315070Y12503764D01*
X49221911Y12459705D01*
X49124871Y12424983D01*
X49024897Y12399941D01*
X48925000Y12385122D01*
D02*
G37*
%LPC*%
G36*
X48715000Y12385122D02*
X48615103Y12399941D01*
X48515129Y12424983D01*
X48418089Y12459705D01*
X48324930Y12503764D01*
X48236509Y12556763D01*
X48153738Y12618150D01*
X48077368Y12687368D01*
X48008150Y12763738D01*
X47946763Y12846509D01*
X47893764Y12934930D01*
X47849705Y13028089D01*
X47814983Y13125129D01*
X47789941Y13225103D01*
X47775122Y13325000D01*
X48715000Y13325000D01*
X48715000Y12385122D01*
D02*
G37*
%LPC*%
G36*
X54300000Y11504753D02*
X54216170Y11508872D01*
X54133142Y11521189D01*
X54051738Y11541578D01*
X53972709Y11569856D01*
X53896842Y11605739D01*
X53824852Y11648888D01*
X53757438Y11698886D01*
X53695249Y11755249D01*
X53638886Y11817438D01*
X53588888Y11884852D01*
X53545739Y11956842D01*
X53509856Y12032709D01*
X53481578Y12111738D01*
X53461189Y12193142D01*
X53448872Y12276170D01*
X53444753Y12360000D01*
X53448872Y12443830D01*
X53461189Y12526858D01*
X53481578Y12608262D01*
X53509856Y12687291D01*
X53545739Y12763158D01*
X53588888Y12835148D01*
X53638886Y12902562D01*
X53695249Y12964751D01*
X53757438Y13021114D01*
X53824852Y13071112D01*
X53896842Y13114261D01*
X53972709Y13150144D01*
X54051738Y13178422D01*
X54133142Y13198811D01*
X54216170Y13211128D01*
X54300000Y13215247D01*
X54383830Y13211128D01*
X54466858Y13198811D01*
X54548262Y13178422D01*
X54627291Y13150144D01*
X54703158Y13114261D01*
X54775148Y13071112D01*
X54842562Y13021114D01*
X54904751Y12964751D01*
X54961114Y12902562D01*
X55011112Y12835148D01*
X55054261Y12763158D01*
X55090144Y12687291D01*
X55118422Y12608262D01*
X55138811Y12526858D01*
X55151128Y12443830D01*
X55155247Y12360000D01*
X55151128Y12276170D01*
X55138811Y12193142D01*
X55118422Y12111738D01*
X55090144Y12032709D01*
X55054261Y11956842D01*
X55011112Y11884852D01*
X54961114Y11817438D01*
X54904751Y11755249D01*
X54842562Y11698886D01*
X54775148Y11648888D01*
X54703158Y11605739D01*
X54627291Y11569856D01*
X54548262Y11541578D01*
X54466858Y11521189D01*
X54383830Y11508872D01*
X54300000Y11504753D01*
D02*
G37*
%LPC*%
G36*
X37355000Y11705609D02*
X37355000Y12595000D01*
X38244391Y12595000D01*
X38231022Y12504863D01*
X38207169Y12409641D01*
X38174101Y12317223D01*
X38132136Y12228492D01*
X38081672Y12144300D01*
X38023195Y12065453D01*
X37957277Y11992723D01*
X37884547Y11926805D01*
X37805700Y11868328D01*
X37721508Y11817864D01*
X37632777Y11775899D01*
X37540359Y11742831D01*
X37445137Y11718978D01*
X37355000Y11705609D01*
D02*
G37*
%LPC*%
G36*
X37145000Y11705609D02*
X37054863Y11718978D01*
X36959641Y11742831D01*
X36867223Y11775899D01*
X36778492Y11817864D01*
X36694300Y11868328D01*
X36615453Y11926805D01*
X36542723Y11992723D01*
X36476805Y12065453D01*
X36418328Y12144300D01*
X36367864Y12228492D01*
X36325899Y12317223D01*
X36292831Y12409641D01*
X36268978Y12504863D01*
X36255609Y12595000D01*
X37145000Y12595000D01*
X37145000Y11705609D01*
D02*
G37*
G01*
%LPD*%
D10*
X105710000Y12700000D02*
X105710000Y14120000D01*
D11*
X120500000Y27500000D02*
X122200000Y25800000D01*
D12*
X115700000Y62800000D02*
X124400000Y62800000D01*
D12*
X88450000Y70250000D02*
X98530000Y60170000D01*
D12*
X102370000Y30570000D02*
X104500000Y32700000D01*
D12*
X106400000Y51100000D02*
X106400000Y53800000D01*
D11*
X120500000Y40900000D02*
X120500000Y27500000D01*
D12*
X129100000Y42600000D02*
X132700000Y39000000D01*
D12*
X99800000Y26600000D02*
X99800000Y31000000D01*
D10*
X105710000Y14120000D02*
X111100000Y19510000D01*
D12*
X116250000Y65950000D02*
X116250000Y70250000D01*
D10*
X126000000Y39700000D02*
X120790000Y44910000D01*
D12*
X104500000Y49200000D02*
X106400000Y51100000D01*
D12*
X106100000Y48000000D02*
X126900000Y48000000D01*
D12*
X102400000Y49580000D02*
X105110000Y52290000D01*
D11*
X122200000Y25800000D02*
X126500000Y25800000D01*
D12*
X102400000Y33600000D02*
X102400000Y49580000D01*
D12*
X126900000Y48000000D02*
X129100000Y45800000D01*
D12*
X99800000Y31000000D02*
X102400000Y33600000D01*
D12*
X113000000Y62700000D02*
X116250000Y65950000D01*
D12*
X113000000Y30400000D02*
X104600000Y30400000D01*
D10*
X111100000Y19510000D02*
X111100000Y20600000D01*
D12*
X102370000Y25500000D02*
X102370000Y30570000D01*
D10*
X120790000Y44910000D02*
X116190000Y44910000D01*
D10*
X129500000Y39700000D02*
X126000000Y39700000D01*
D12*
X92000000Y27900000D02*
X87000000Y32900000D01*
D12*
X124400000Y62800000D02*
X129000000Y58200000D01*
D12*
X104500000Y32700000D02*
X104500000Y49200000D01*
D12*
X129100000Y45800000D02*
X129100000Y42600000D01*
D12*
X115500000Y27900000D02*
X113000000Y30400000D01*
D10*
X34710000Y12700000D02*
X34710000Y14120000D01*
D11*
X49500000Y27500000D02*
X51200000Y25800000D01*
D12*
X44700000Y62800000D02*
X53400000Y62800000D01*
D12*
X17450000Y70250000D02*
X27530000Y60170000D01*
D12*
X31370000Y30570000D02*
X33500000Y32700000D01*
D12*
X35400000Y51100000D02*
X35400000Y53800000D01*
D11*
X49500000Y40900000D02*
X49500000Y27500000D01*
D12*
X58100000Y42600000D02*
X61700000Y39000000D01*
D12*
X28800000Y26600000D02*
X28800000Y31000000D01*
D10*
X34710000Y14120000D02*
X40100000Y19510000D01*
D12*
X45250000Y65950000D02*
X45250000Y70250000D01*
D10*
X55000000Y39700000D02*
X49790000Y44910000D01*
D12*
X33500000Y49200000D02*
X35400000Y51100000D01*
D12*
X35100000Y48000000D02*
X55900000Y48000000D01*
D12*
X31400000Y49580000D02*
X34110000Y52290000D01*
D11*
X51200000Y25800000D02*
X55500000Y25800000D01*
D12*
X31400000Y33600000D02*
X31400000Y49580000D01*
D12*
X55900000Y48000000D02*
X58100000Y45800000D01*
D12*
X28800000Y31000000D02*
X31400000Y33600000D01*
D12*
X42000000Y62700000D02*
X45250000Y65950000D01*
D12*
X42000000Y30400000D02*
X33600000Y30400000D01*
D10*
X40100000Y19510000D02*
X40100000Y20600000D01*
D12*
X31370000Y25500000D02*
X31370000Y30570000D01*
D10*
X49790000Y44910000D02*
X45190000Y44910000D01*
D10*
X58500000Y39700000D02*
X55000000Y39700000D01*
D12*
X21000000Y27900000D02*
X16000000Y32900000D01*
D12*
X53400000Y62800000D02*
X58000000Y58200000D01*
D12*
X33500000Y32700000D02*
X33500000Y49200000D01*
D12*
X58100000Y45800000D02*
X58100000Y42600000D01*
D12*
X44500000Y27900000D02*
X42000000Y30400000D01*
G75*
D13*
X104750000Y70250000D03*
D13*
X104750000Y82700000D03*
D13*
X88450000Y82700000D03*
D13*
X104750000Y76450000D03*
D13*
X88450000Y76450000D03*
D13*
X88450000Y70250000D03*
D14*
X112200000Y13430000D03*
D14*
X119820000Y13430000D03*
D15*
X105500000Y27900000D03*
D15*
X115500000Y27900000D03*
D15*
X110500000Y27900000D03*
D15*
X124000000Y58200000D03*
D15*
X134000000Y58200000D03*
D15*
X129000000Y58200000D03*
D16*
X111750000Y69400000D03*
D16*
X109250000Y69400000D03*
D17*
X108250000Y12700000D03*
D17*
X98090000Y12700000D03*
D17*
X95550000Y12700000D03*
D17*
X100630000Y12700000D03*
D17*
X103170000Y12700000D03*
D17*
X105710000Y12700000D03*
D18*
X132950000Y13780000D03*
D18*
X135450000Y13780000D03*
D19*
X127840000Y14900000D03*
D19*
X125300000Y12360000D03*
D19*
X122760000Y14900000D03*
D15*
X87000000Y58200000D03*
D15*
X97000000Y58200000D03*
D15*
X92000000Y58200000D03*
D13*
X132550000Y70250000D03*
D13*
X132550000Y82700000D03*
D13*
X116250000Y82700000D03*
D13*
X132550000Y76450000D03*
D13*
X116250000Y76450000D03*
D13*
X116250000Y70250000D03*
D18*
X85550000Y13780000D03*
D18*
X88050000Y13780000D03*
D15*
X124000000Y27900000D03*
D15*
X134000000Y27900000D03*
D15*
X129000000Y27900000D03*
D15*
X87000000Y27900000D03*
D15*
X97000000Y27900000D03*
D15*
X92000000Y27900000D03*
D20*
X127200000Y38600000D03*
D20*
X88333000Y24100000D03*
D20*
X94666000Y79900000D03*
D20*
X126331000Y67500000D03*
D21*
X106100000Y48000000D03*
D21*
X115700000Y62800000D03*
D20*
X113665000Y42700000D03*
D20*
X132664000Y73700000D03*
D20*
X107332000Y36500000D03*
D20*
X93166000Y55100000D03*
D20*
X119998000Y79900000D03*
D20*
X88333000Y36500000D03*
D20*
X101099000Y18300000D03*
D20*
X100999000Y79900000D03*
D20*
X111900000Y63100000D03*
D20*
X132664000Y17900000D03*
D21*
X132700000Y39000000D03*
D20*
X134950000Y49500000D03*
D20*
X94666000Y35500000D03*
D20*
X121900000Y29200000D03*
D20*
X101800000Y31500000D03*
D20*
X101000000Y25800000D03*
D20*
X138997000Y73700000D03*
D20*
X128500000Y41100000D03*
D20*
X122200000Y24100000D03*
D20*
X127831000Y29700000D03*
D20*
X88700000Y48150000D03*
D20*
X126440000Y44420000D03*
D20*
X115570000Y61100000D03*
D22*
X116190000Y44910000D03*
D20*
X100099000Y33200000D03*
D20*
X107332000Y73700000D03*
D20*
X133264000Y30300000D03*
D20*
X132664000Y61300000D03*
D20*
X88333000Y17900000D03*
D20*
X100999000Y43100000D03*
D20*
X122940000Y54400000D03*
D20*
X97700000Y52425000D03*
D20*
X82000000Y11000000D03*
D20*
X88333000Y67500000D03*
D20*
X114365000Y31400000D03*
D20*
X88700000Y42850000D03*
D20*
X99399000Y55100000D03*
D20*
X101399000Y36500000D03*
D20*
X113665000Y48900000D03*
D20*
X103500000Y40900000D03*
D20*
X119998000Y86233000D03*
D20*
X122700000Y50400000D03*
D20*
X101000000Y29000000D03*
D20*
X131164000Y42700000D03*
D20*
X88333000Y55100000D03*
D20*
X88333000Y79900000D03*
D20*
X107332000Y23600000D03*
D23*
X120500000Y40900000D03*
D20*
X126331000Y79900000D03*
D20*
X131450000Y49500000D03*
D20*
X100999000Y48900000D03*
D20*
X122400000Y40700000D03*
D20*
X104900000Y50900000D03*
D20*
X132664000Y86233000D03*
D20*
X119998000Y11000000D03*
D20*
X82000000Y48900000D03*
D20*
X118290000Y55700000D03*
D20*
X121900000Y32200000D03*
D20*
X138997000Y42700000D03*
D20*
X119998000Y73700000D03*
D20*
X119998000Y17900000D03*
D20*
X135600000Y42700000D03*
D20*
X120090000Y53500000D03*
D20*
X113665000Y86233000D03*
D20*
X126331000Y11000000D03*
D20*
X94666000Y43200000D03*
D20*
X132664000Y37200000D03*
D20*
X96700000Y16800000D03*
D20*
X103500000Y48900000D03*
D20*
X94666000Y86233000D03*
D20*
X113665000Y37900000D03*
D22*
X129500000Y39700000D03*
D20*
X119300000Y30700000D03*
D20*
X125631000Y36500000D03*
D20*
X82000000Y79900000D03*
D20*
X138997000Y67500000D03*
D20*
X138997000Y24100000D03*
D20*
X107400000Y40900000D03*
D20*
X88333000Y61300000D03*
D20*
X113370000Y54800000D03*
D20*
X100999000Y73700000D03*
D20*
X94666000Y24100000D03*
D20*
X132664000Y55100000D03*
D20*
X82000000Y67500000D03*
D20*
X98700000Y29000000D03*
D20*
X113960000Y23900000D03*
D20*
X103500000Y36500000D03*
D20*
X126331000Y73700000D03*
D20*
X121900000Y37600000D03*
D20*
X122598000Y61300000D03*
D20*
X111240000Y52320000D03*
D20*
X101000000Y40900000D03*
D20*
X105800000Y15700000D03*
D20*
X92800000Y39600000D03*
D21*
X87000000Y32900000D03*
D20*
X88333000Y11000000D03*
D20*
X138997000Y17900000D03*
D20*
X127800000Y32200000D03*
D20*
X119600000Y46600000D03*
D20*
X115600000Y63900000D03*
D20*
X82000000Y36500000D03*
D20*
X94666000Y73700000D03*
D20*
X103450000Y18090000D03*
D22*
X111100000Y20600000D03*
D20*
X107410000Y43110000D03*
D20*
X119300000Y27000000D03*
D20*
X123850000Y22100000D03*
D20*
X100999000Y86233000D03*
D20*
X94666000Y61300000D03*
D20*
X107410000Y46610000D03*
D20*
X132700000Y34900000D03*
D20*
X120100000Y50400000D03*
D20*
X114470000Y59400000D03*
D20*
X112265000Y18000000D03*
D20*
X100999000Y67500000D03*
D20*
X107332000Y79900000D03*
D21*
X98530000Y60170000D03*
D20*
X119998000Y67500000D03*
D20*
X82000000Y73700000D03*
D20*
X100450000Y21620000D03*
D20*
X107932000Y31400000D03*
D20*
X119360000Y23300000D03*
D20*
X132664000Y79900000D03*
D20*
X94666000Y30300000D03*
D20*
X111340000Y35670000D03*
D20*
X100999000Y11000000D03*
D20*
X138997000Y30300000D03*
D20*
X82000000Y42700000D03*
D20*
X138997000Y48900000D03*
D20*
X94666000Y11000000D03*
D20*
X107332000Y61300000D03*
D20*
X113600000Y26900000D03*
D20*
X88333000Y73700000D03*
D20*
X94666000Y67500000D03*
D20*
X126340000Y54400000D03*
D21*
X113000000Y62700000D03*
D20*
X107332000Y86233000D03*
D20*
X82000000Y30300000D03*
D20*
X115365000Y67500000D03*
D20*
X107932000Y54900000D03*
D20*
X113500000Y65600000D03*
D20*
X82000000Y17900000D03*
D20*
X103500000Y43100000D03*
D20*
X132664000Y67500000D03*
D20*
X100999000Y61300000D03*
D20*
X87933000Y30400000D03*
D20*
X138997000Y11000000D03*
D20*
X113665000Y79900000D03*
D20*
X82000000Y24100000D03*
D21*
X102370000Y25500000D03*
D20*
X107332000Y67500000D03*
D21*
X106400000Y53800000D03*
D20*
X126331000Y86233000D03*
D21*
X105110000Y52290000D03*
D20*
X88333000Y86233000D03*
D20*
X125831000Y24300000D03*
D20*
X94666000Y48900000D03*
D20*
X138997000Y79900000D03*
D20*
X113370000Y61100000D03*
D21*
X99800000Y26600000D03*
D20*
X115290000Y52820000D03*
D20*
X131250000Y24200000D03*
D20*
X107332000Y11000000D03*
D20*
X119300000Y37600000D03*
D21*
X104600000Y30400000D03*
D20*
X113665000Y11000000D03*
D20*
X82000000Y55100000D03*
D20*
X126531000Y49100000D03*
D20*
X113700000Y46600000D03*
D20*
X127431000Y61300000D03*
D20*
X115570000Y54800000D03*
D20*
X132664000Y11000000D03*
D20*
X109100000Y19100000D03*
D20*
X103500000Y52300000D03*
D20*
X138997000Y61300000D03*
D20*
X135600000Y39600000D03*
D20*
X124640000Y46820000D03*
D20*
X103450000Y15750000D03*
D20*
X138997000Y36500000D03*
D20*
X90800000Y45500000D03*
D20*
X105300000Y56300000D03*
D20*
X138997000Y55100000D03*
D20*
X113665000Y73700000D03*
D20*
X108075000Y48920000D03*
D20*
X126331000Y17900000D03*
D23*
X126500000Y25800000D03*
D20*
X114470000Y56500000D03*
D20*
X98100000Y14400000D03*
D20*
X82000000Y61300000D03*
D20*
X122840000Y44420000D03*
D13*
X33750000Y70250000D03*
D13*
X33750000Y82700000D03*
D13*
X17450000Y82700000D03*
D13*
X33750000Y76450000D03*
D13*
X17450000Y76450000D03*
D13*
X17450000Y70250000D03*
D14*
X41200000Y13430000D03*
D14*
X48820000Y13430000D03*
D15*
X34500000Y27900000D03*
D15*
X44500000Y27900000D03*
D15*
X39500000Y27900000D03*
D15*
X53000000Y58200000D03*
D15*
X63000000Y58200000D03*
D15*
X58000000Y58200000D03*
D16*
X40750000Y69400000D03*
D16*
X38250000Y69400000D03*
D17*
X37250000Y12700000D03*
D17*
X27090000Y12700000D03*
D17*
X24550000Y12700000D03*
D17*
X29630000Y12700000D03*
D17*
X32170000Y12700000D03*
D17*
X34710000Y12700000D03*
D18*
X61950000Y13780000D03*
D18*
X64450000Y13780000D03*
D19*
X56840000Y14900000D03*
D19*
X54300000Y12360000D03*
D19*
X51760000Y14900000D03*
D15*
X16000000Y58200000D03*
D15*
X26000000Y58200000D03*
D15*
X21000000Y58200000D03*
D13*
X61550000Y70250000D03*
D13*
X61550000Y82700000D03*
D13*
X45250000Y82700000D03*
D13*
X61550000Y76450000D03*
D13*
X45250000Y76450000D03*
D13*
X45250000Y70250000D03*
D18*
X14550000Y13780000D03*
D18*
X17050000Y13780000D03*
D15*
X53000000Y27900000D03*
D15*
X63000000Y27900000D03*
D15*
X58000000Y27900000D03*
D15*
X16000000Y27900000D03*
D15*
X26000000Y27900000D03*
D15*
X21000000Y27900000D03*
D20*
X56200000Y38600000D03*
D20*
X17333000Y24100000D03*
D20*
X23666000Y79900000D03*
D20*
X55331000Y67500000D03*
D21*
X35100000Y48000000D03*
D21*
X44700000Y62800000D03*
D20*
X42665000Y42700000D03*
D20*
X61664000Y73700000D03*
D20*
X36332000Y36500000D03*
D20*
X22166000Y55100000D03*
D20*
X48998000Y79900000D03*
D20*
X17333000Y36500000D03*
D20*
X30099000Y18300000D03*
D20*
X29999000Y79900000D03*
D20*
X40900000Y63100000D03*
D20*
X61664000Y17900000D03*
D21*
X61700000Y39000000D03*
D20*
X63950000Y49500000D03*
D20*
X23666000Y35500000D03*
D20*
X50900000Y29200000D03*
D20*
X30800000Y31500000D03*
D20*
X30000000Y25800000D03*
D20*
X67997000Y73700000D03*
D20*
X57500000Y41100000D03*
D20*
X51200000Y24100000D03*
D20*
X56831000Y29700000D03*
D20*
X17700000Y48150000D03*
D20*
X55440000Y44420000D03*
D20*
X44570000Y61100000D03*
D22*
X45190000Y44910000D03*
D20*
X29099000Y33200000D03*
D20*
X36332000Y73700000D03*
D20*
X62264000Y30300000D03*
D20*
X61664000Y61300000D03*
D20*
X17333000Y17900000D03*
D20*
X29999000Y43100000D03*
D20*
X51940000Y54400000D03*
D20*
X26700000Y52425000D03*
D20*
X11000000Y11000000D03*
D20*
X17333000Y67500000D03*
D20*
X43365000Y31400000D03*
D20*
X17700000Y42850000D03*
D20*
X28399000Y55100000D03*
D20*
X30399000Y36500000D03*
D20*
X42665000Y48900000D03*
D20*
X32500000Y40900000D03*
D20*
X48998000Y86233000D03*
D20*
X51700000Y50400000D03*
D20*
X30000000Y29000000D03*
D20*
X60164000Y42700000D03*
D20*
X17333000Y55100000D03*
D20*
X17333000Y79900000D03*
D20*
X36332000Y23600000D03*
D23*
X49500000Y40900000D03*
D20*
X55331000Y79900000D03*
D20*
X60450000Y49500000D03*
D20*
X29999000Y48900000D03*
D20*
X51400000Y40700000D03*
D20*
X33900000Y50900000D03*
D20*
X61664000Y86233000D03*
D20*
X48998000Y11000000D03*
D20*
X11000000Y48900000D03*
D20*
X47290000Y55700000D03*
D20*
X50900000Y32200000D03*
D20*
X67997000Y42700000D03*
D20*
X48998000Y73700000D03*
D20*
X48998000Y17900000D03*
D20*
X64600000Y42700000D03*
D20*
X49090000Y53500000D03*
D20*
X42665000Y86233000D03*
D20*
X55331000Y11000000D03*
D20*
X23666000Y43200000D03*
D20*
X61664000Y37200000D03*
D20*
X25700000Y16800000D03*
D20*
X32500000Y48900000D03*
D20*
X23666000Y86233000D03*
D20*
X42665000Y37900000D03*
D22*
X58500000Y39700000D03*
D20*
X48300000Y30700000D03*
D20*
X54631000Y36500000D03*
D20*
X11000000Y79900000D03*
D20*
X67997000Y67500000D03*
D20*
X67997000Y24100000D03*
D20*
X36400000Y40900000D03*
D20*
X17333000Y61300000D03*
D20*
X42370000Y54800000D03*
D20*
X29999000Y73700000D03*
D20*
X23666000Y24100000D03*
D20*
X61664000Y55100000D03*
D20*
X11000000Y67500000D03*
D20*
X27700000Y29000000D03*
D20*
X42960000Y23900000D03*
D20*
X32500000Y36500000D03*
D20*
X55331000Y73700000D03*
D20*
X50900000Y37600000D03*
D20*
X51598000Y61300000D03*
D20*
X40240000Y52320000D03*
D20*
X30000000Y40900000D03*
D20*
X34800000Y15700000D03*
D20*
X21800000Y39600000D03*
D21*
X16000000Y32900000D03*
D20*
X17333000Y11000000D03*
D20*
X67997000Y17900000D03*
D20*
X56800000Y32200000D03*
D20*
X48600000Y46600000D03*
D20*
X44600000Y63900000D03*
D20*
X11000000Y36500000D03*
D20*
X23666000Y73700000D03*
D20*
X32450000Y18090000D03*
D22*
X40100000Y20600000D03*
D20*
X36410000Y43110000D03*
D20*
X48300000Y27000000D03*
D20*
X52850000Y22100000D03*
D20*
X29999000Y86233000D03*
D20*
X23666000Y61300000D03*
D20*
X36410000Y46610000D03*
D20*
X61700000Y34900000D03*
D20*
X49100000Y50400000D03*
D20*
X43470000Y59400000D03*
D20*
X41265000Y18000000D03*
D20*
X29999000Y67500000D03*
D20*
X36332000Y79900000D03*
D21*
X27530000Y60170000D03*
D20*
X48998000Y67500000D03*
D20*
X11000000Y73700000D03*
D20*
X29450000Y21620000D03*
D20*
X36932000Y31400000D03*
D20*
X48360000Y23300000D03*
D20*
X61664000Y79900000D03*
D20*
X23666000Y30300000D03*
D20*
X40340000Y35670000D03*
D20*
X29999000Y11000000D03*
D20*
X67997000Y30300000D03*
D20*
X11000000Y42700000D03*
D20*
X67997000Y48900000D03*
D20*
X23666000Y11000000D03*
D20*
X36332000Y61300000D03*
D20*
X42600000Y26900000D03*
D20*
X17333000Y73700000D03*
D20*
X23666000Y67500000D03*
D20*
X55340000Y54400000D03*
D21*
X42000000Y62700000D03*
D20*
X36332000Y86233000D03*
D20*
X11000000Y30300000D03*
D20*
X44365000Y67500000D03*
D20*
X36932000Y54900000D03*
D20*
X42500000Y65600000D03*
D20*
X11000000Y17900000D03*
D20*
X32500000Y43100000D03*
D20*
X61664000Y67500000D03*
D20*
X29999000Y61300000D03*
D20*
X16933000Y30400000D03*
D20*
X67997000Y11000000D03*
D20*
X42665000Y79900000D03*
D20*
X11000000Y24100000D03*
D21*
X31370000Y25500000D03*
D20*
X36332000Y67500000D03*
D21*
X35400000Y53800000D03*
D20*
X55331000Y86233000D03*
D21*
X34110000Y52290000D03*
D20*
X17333000Y86233000D03*
D20*
X54831000Y24300000D03*
D20*
X23666000Y48900000D03*
D20*
X67997000Y79900000D03*
D20*
X42370000Y61100000D03*
D21*
X28800000Y26600000D03*
D20*
X44290000Y52820000D03*
D20*
X60250000Y24200000D03*
D20*
X36332000Y11000000D03*
D20*
X48300000Y37600000D03*
D21*
X33600000Y30400000D03*
D20*
X42665000Y11000000D03*
D20*
X11000000Y55100000D03*
D20*
X55531000Y49100000D03*
D20*
X42700000Y46600000D03*
D20*
X56431000Y61300000D03*
D20*
X44570000Y54800000D03*
D20*
X61664000Y11000000D03*
D20*
X38100000Y19100000D03*
D20*
X32500000Y52300000D03*
D20*
X67997000Y61300000D03*
D20*
X64600000Y39600000D03*
D20*
X53640000Y46820000D03*
D20*
X32450000Y15750000D03*
D20*
X67997000Y36500000D03*
D20*
X19800000Y45500000D03*
D20*
X34300000Y56300000D03*
D20*
X67997000Y55100000D03*
D20*
X42665000Y73700000D03*
D20*
X37075000Y48920000D03*
D20*
X55331000Y17900000D03*
D23*
X55500000Y25800000D03*
D20*
X43470000Y56500000D03*
D20*
X27100000Y14400000D03*
D20*
X11000000Y61300000D03*
D20*
X51840000Y44420000D03*
M02*
