%FSLAX46Y46*%
%MOMM*%
%AMPS39*
21,1,0.600000,1.700000,0.000000,0.000000,90.000000*
%
%ADD39PS39*%
%AMPS38*
21,1,0.600000,1.700000,0.000000,0.000000,270.000000*
%
%ADD38PS38*%
%AMPS23*
21,1,1.600000,2.950000,0.000000,0.000000,0.000000*
%
%ADD23PS23*%
%AMPS20*
21,1,1.600000,2.950000,0.000000,0.000000,90.000000*
%
%ADD20PS20*%
%AMPS22*
21,1,1.600000,2.950000,0.000000,0.000000,180.000000*
%
%ADD22PS22*%
%AMPS21*
21,1,1.600000,2.950000,0.000000,0.000000,270.000000*
%
%ADD21PS21*%
%AMPS15*
21,1,0.600000,1.550000,0.000000,0.000000,0.000000*
%
%ADD15PS15*%
%AMPS14*
21,1,0.600000,1.550000,0.000000,0.000000,180.000000*
%
%ADD14PS14*%
%AMPS13*
21,1,1.600000,2.500000,0.000000,0.000000,0.000000*
%
%ADD13PS13*%
%AMPS50*
21,1,1.600000,2.500000,0.000000,0.000000,90.000000*
%
%ADD50PS50*%
%AMPS12*
21,1,1.600000,2.500000,0.000000,0.000000,180.000000*
%
%ADD12PS12*%
%AMPS51*
21,1,1.600000,2.500000,0.000000,0.000000,270.000000*
%
%ADD51PS51*%
%AMPS10*
21,1,0.900000,1.000000,0.000000,0.000000,0.000000*
%
%ADD10PS10*%
%AMPS40*
21,1,0.900000,1.000000,0.000000,0.000000,90.000000*
%
%ADD40PS40*%
%AMPS11*
21,1,0.900000,1.000000,0.000000,0.000000,180.000000*
%
%ADD11PS11*%
%AMPS41*
21,1,0.900000,1.000000,0.000000,0.000000,270.000000*
%
%ADD41PS41*%
%AMPS48*
21,1,0.400000,0.900000,0.000000,0.000000,90.000000*
%
%ADD48PS48*%
%AMPS49*
21,1,0.400000,0.900000,0.000000,0.000000,270.000000*
%
%ADD49PS49*%
%AMPS43*
21,1,0.600000,1.800000,0.000000,0.000000,0.000000*
%
%ADD43PS43*%
%AMPS42*
21,1,0.600000,1.800000,0.000000,0.000000,180.000000*
%
%ADD42PS42*%
%AMPS35*
21,1,0.701421,1.491421,0.000000,0.000000,90.000000*
%
%ADD35PS35*%
%AMPS34*
21,1,0.701421,1.491421,0.000000,0.000000,270.000000*
%
%ADD34PS34*%
%AMPS44*
21,1,1.800000,1.200000,0.000000,0.000000,0.000000*
%
%ADD44PS44*%
%AMPS29*
21,1,1.800000,1.200000,0.000000,0.000000,90.000000*
%
%ADD29PS29*%
%AMPS45*
21,1,1.800000,1.200000,0.000000,0.000000,180.000000*
%
%ADD45PS45*%
%AMPS28*
21,1,1.800000,1.200000,0.000000,0.000000,270.000000*
%
%ADD28PS28*%
%AMPS33*
21,1,0.900000,0.500000,0.000000,0.000000,0.000000*
%
%ADD33PS33*%
%AMPS19*
21,1,0.900000,0.500000,0.000000,0.000000,90.000000*
%
%ADD19PS19*%
%AMPS32*
21,1,0.900000,0.500000,0.000000,0.000000,180.000000*
%
%ADD32PS32*%
%AMPS18*
21,1,0.900000,0.500000,0.000000,0.000000,270.000000*
%
%ADD18PS18*%
%AMPS37*
21,1,1.700000,1.100000,0.000000,0.000000,0.000000*
%
%ADD37PS37*%
%AMPS27*
21,1,1.700000,1.100000,0.000000,0.000000,90.000000*
%
%ADD27PS27*%
%AMPS36*
21,1,1.700000,1.100000,0.000000,0.000000,180.000000*
%
%ADD36PS36*%
%AMPS26*
21,1,1.700000,1.100000,0.000000,0.000000,270.000000*
%
%ADD26PS26*%
%AMPS30*
21,1,0.700000,0.900000,0.000000,0.000000,0.000000*
%
%ADD30PS30*%
%AMPS31*
21,1,0.700000,0.900000,0.000000,0.000000,180.000000*
%
%ADD31PS31*%
%AMPS17*
21,1,0.850000,0.800000,0.000000,0.000000,0.000000*
%
%ADD17PS17*%
%AMPS47*
21,1,0.850000,0.800000,0.000000,0.000000,90.000000*
%
%ADD47PS47*%
%AMPS16*
21,1,0.850000,0.800000,0.000000,0.000000,180.000000*
%
%ADD16PS16*%
%AMPS46*
21,1,0.850000,0.800000,0.000000,0.000000,270.000000*
%
%ADD46PS46*%
%AMPS25*
21,1,1.750000,2.650000,0.000000,0.000000,0.000000*
%
%ADD25PS25*%
%AMPS24*
21,1,1.750000,2.650000,0.000000,0.000000,180.000000*
%
%ADD24PS24*%
G01*
%LPD*%
G36*
X4385819Y97574025D02*
X4500000Y97000000D01*
X4500000Y97000000D01*
X4385819Y96425974D01*
X4060660Y95939339D01*
X3574025Y95614180D01*
X3000000Y95500000D01*
X2425974Y95614180D01*
X1939339Y95939339D01*
X1614180Y96425974D01*
X1500000Y97000000D01*
X1614180Y97574025D01*
X1939339Y98060660D01*
X2425974Y98385819D01*
X2999999Y98500000D01*
X3574025Y98385819D01*
X4060660Y98060660D01*
X4385819Y97574025D01*
D02*
G37*
%LPD*%
G36*
X148385819Y3574025D02*
X148500000Y3000000D01*
X148500000Y3000000D01*
X148385819Y2425974D01*
X148060660Y1939339D01*
X147574025Y1614180D01*
X147000000Y1500000D01*
X146425974Y1614180D01*
X145939339Y1939339D01*
X145614180Y2425974D01*
X145500000Y3000000D01*
X145614180Y3574025D01*
X145939339Y4060660D01*
X146425974Y4385819D01*
X147000000Y4500000D01*
X147574025Y4385819D01*
X148060660Y4060660D01*
X148385819Y3574025D01*
D02*
G37*
%LPD*%
G36*
X4385819Y3574025D02*
X4500000Y3000000D01*
X4500000Y3000000D01*
X4385819Y2425974D01*
X4060660Y1939339D01*
X3574025Y1614180D01*
X3000000Y1500000D01*
X2425974Y1614180D01*
X1939339Y1939339D01*
X1614180Y2425974D01*
X1500000Y3000000D01*
X1614180Y3574025D01*
X1939339Y4060660D01*
X2425974Y4385819D01*
X2999999Y4500000D01*
X3574025Y4385819D01*
X4060660Y4060660D01*
X4385819Y3574025D01*
D02*
G37*
%LPD*%
G36*
X148385819Y97574025D02*
X148500000Y97000000D01*
X148500000Y97000000D01*
X148385819Y96425974D01*
X148060660Y95939339D01*
X147574025Y95614180D01*
X147000000Y95500000D01*
X146425974Y95614180D01*
X145939339Y95939339D01*
X145614180Y96425974D01*
X145500000Y97000000D01*
X145614180Y97574025D01*
X145939339Y98060660D01*
X146425974Y98385819D01*
X147000000Y98500000D01*
X147574025Y98385819D01*
X148060660Y98060660D01*
X148385819Y97574025D01*
D02*
G37*
G01*
%LPD*%
G75*
D10*
X113390000Y50120000D03*
D11*
X112440000Y52320000D03*
D10*
X111490000Y50120000D03*
D12*
X115560000Y23900000D03*
D13*
X115560000Y20600000D03*
D14*
X108790000Y39510000D03*
D14*
X111340000Y39510000D03*
D14*
X112610000Y39510000D03*
D15*
X112610000Y34170000D03*
D15*
X110060000Y34170000D03*
D14*
X110060000Y39510000D03*
D15*
X108790000Y34170000D03*
D15*
X111340000Y34170000D03*
D16*
X115290000Y51620000D03*
D17*
X115290000Y50120000D03*
D18*
X96400000Y40020000D03*
D19*
X97900000Y40020000D03*
D20*
X112610000Y44910000D03*
D21*
X107410000Y44910000D03*
D22*
X97700000Y50125000D03*
D23*
X97700000Y44925000D03*
D16*
X119360000Y22100000D03*
D17*
X119360000Y20600000D03*
D16*
X125050000Y22100000D03*
D17*
X125050000Y20600000D03*
D24*
X118290000Y53500000D03*
D25*
X118290000Y49200000D03*
D18*
X88700000Y46950000D03*
D19*
X90200000Y46950000D03*
D26*
X114000000Y17000000D03*
D27*
X117200000Y17000000D03*
D28*
X109810000Y31430000D03*
D29*
X112710000Y31430000D03*
D16*
X92800000Y38120000D03*
D17*
X92800000Y36620000D03*
D18*
X88700000Y44050000D03*
D19*
X90200000Y44050000D03*
D28*
X131700000Y53000000D03*
D29*
X134600000Y53000000D03*
D30*
X99150000Y22920000D03*
D30*
X100450000Y22920000D03*
D31*
X99800000Y24820000D03*
D32*
X102370000Y24120000D03*
D33*
X102370000Y22620000D03*
D11*
X133150000Y41200000D03*
D10*
X134100000Y39000000D03*
D11*
X135050000Y41200000D03*
D34*
X102425000Y55090000D03*
D35*
X109575000Y57630000D03*
D35*
X109575000Y62710000D03*
D35*
X109575000Y60170000D03*
D34*
X102425000Y57630000D03*
D34*
X102425000Y62710000D03*
D35*
X109575000Y55090000D03*
D34*
X102425000Y60170000D03*
D33*
X131150000Y39700000D03*
D32*
X131150000Y41200000D03*
D36*
X118290000Y42420000D03*
D37*
X118290000Y39220000D03*
D32*
X96050000Y20850000D03*
D33*
X96050000Y19350000D03*
D38*
X98350000Y19350000D03*
D38*
X98350000Y16800000D03*
D39*
X105650000Y16800000D03*
D39*
X105650000Y18050000D03*
D39*
X105650000Y20600000D03*
D38*
X98350000Y20600000D03*
D39*
X105650000Y19350000D03*
D38*
X98350000Y18050000D03*
D40*
X94600000Y41920000D03*
D41*
X92400000Y40970000D03*
D40*
X94600000Y40020000D03*
D22*
X124640000Y44420000D03*
D23*
X124640000Y39220000D03*
D42*
X111970000Y61100000D03*
D43*
X114470000Y54800000D03*
D43*
X111970000Y54800000D03*
D42*
X114470000Y61100000D03*
D44*
X99800000Y34920000D03*
D45*
X99800000Y37820000D03*
D22*
X133150000Y49500000D03*
D23*
X133150000Y44300000D03*
D22*
X124640000Y54400000D03*
D23*
X124640000Y49200000D03*
D10*
X123150000Y20600000D03*
D11*
X122200000Y22800000D03*
D10*
X121250000Y20600000D03*
D46*
X108075000Y50120000D03*
D47*
X109575000Y50120000D03*
D44*
X92400000Y44050000D03*
D45*
X92400000Y46950000D03*
D44*
X96950000Y34920000D03*
D45*
X96950000Y37820000D03*
D48*
X109575000Y52290000D03*
D49*
X107375000Y52290000D03*
D33*
X94600000Y36620000D03*
D32*
X94600000Y38120000D03*
D19*
X97900000Y41920000D03*
D18*
X96400000Y41920000D03*
D32*
X137050000Y41200000D03*
D33*
X137050000Y39700000D03*
D50*
X131250000Y22600000D03*
D51*
X127950000Y22600000D03*
D17*
X107890000Y19100000D03*
D16*
X107890000Y20600000D03*
D10*
X42390000Y50120000D03*
D11*
X41440000Y52320000D03*
D10*
X40490000Y50120000D03*
D12*
X44560000Y23900000D03*
D13*
X44560000Y20600000D03*
D14*
X37790000Y39510000D03*
D14*
X40340000Y39510000D03*
D14*
X41610000Y39510000D03*
D15*
X41610000Y34170000D03*
D15*
X39060000Y34170000D03*
D14*
X39060000Y39510000D03*
D15*
X37790000Y34170000D03*
D15*
X40340000Y34170000D03*
D16*
X44290000Y51620000D03*
D17*
X44290000Y50120000D03*
D18*
X25400000Y40020000D03*
D19*
X26900000Y40020000D03*
D20*
X41610000Y44910000D03*
D21*
X36410000Y44910000D03*
D22*
X26700000Y50125000D03*
D23*
X26700000Y44925000D03*
D16*
X48360000Y22100000D03*
D17*
X48360000Y20600000D03*
D16*
X54050000Y22100000D03*
D17*
X54050000Y20600000D03*
D24*
X47290000Y53500000D03*
D25*
X47290000Y49200000D03*
D18*
X17700000Y46950000D03*
D19*
X19200000Y46950000D03*
D26*
X43000000Y17000000D03*
D27*
X46200000Y17000000D03*
D28*
X38810000Y31430000D03*
D29*
X41710000Y31430000D03*
D16*
X21800000Y38120000D03*
D17*
X21800000Y36620000D03*
D18*
X17700000Y44050000D03*
D19*
X19200000Y44050000D03*
D28*
X60700000Y53000000D03*
D29*
X63600000Y53000000D03*
D30*
X28150000Y22920000D03*
D30*
X29450000Y22920000D03*
D31*
X28800000Y24820000D03*
D32*
X31370000Y24120000D03*
D33*
X31370000Y22620000D03*
D11*
X62150000Y41200000D03*
D10*
X63100000Y39000000D03*
D11*
X64050000Y41200000D03*
D34*
X31425000Y55090000D03*
D35*
X38575000Y57630000D03*
D35*
X38575000Y62710000D03*
D35*
X38575000Y60170000D03*
D34*
X31425000Y57630000D03*
D34*
X31425000Y62710000D03*
D35*
X38575000Y55090000D03*
D34*
X31425000Y60170000D03*
D33*
X60150000Y39700000D03*
D32*
X60150000Y41200000D03*
D36*
X47290000Y42420000D03*
D37*
X47290000Y39220000D03*
D32*
X25050000Y20850000D03*
D33*
X25050000Y19350000D03*
D38*
X27350000Y19350000D03*
D38*
X27350000Y16800000D03*
D39*
X34650000Y16800000D03*
D39*
X34650000Y18050000D03*
D39*
X34650000Y20600000D03*
D38*
X27350000Y20600000D03*
D39*
X34650000Y19350000D03*
D38*
X27350000Y18050000D03*
D40*
X23600000Y41920000D03*
D41*
X21400000Y40970000D03*
D40*
X23600000Y40020000D03*
D22*
X53640000Y44420000D03*
D23*
X53640000Y39220000D03*
D42*
X40970000Y61100000D03*
D43*
X43470000Y54800000D03*
D43*
X40970000Y54800000D03*
D42*
X43470000Y61100000D03*
D44*
X28800000Y34920000D03*
D45*
X28800000Y37820000D03*
D22*
X62150000Y49500000D03*
D23*
X62150000Y44300000D03*
D22*
X53640000Y54400000D03*
D23*
X53640000Y49200000D03*
D10*
X52150000Y20600000D03*
D11*
X51200000Y22800000D03*
D10*
X50250000Y20600000D03*
D46*
X37075000Y50120000D03*
D47*
X38575000Y50120000D03*
D44*
X21400000Y44050000D03*
D45*
X21400000Y46950000D03*
D44*
X25950000Y34920000D03*
D45*
X25950000Y37820000D03*
D48*
X38575000Y52290000D03*
D49*
X36375000Y52290000D03*
D33*
X23600000Y36620000D03*
D32*
X23600000Y38120000D03*
D19*
X26900000Y41920000D03*
D18*
X25400000Y41920000D03*
D32*
X66050000Y41200000D03*
D33*
X66050000Y39700000D03*
D50*
X60250000Y22600000D03*
D51*
X56950000Y22600000D03*
D17*
X36890000Y19100000D03*
D16*
X36890000Y20600000D03*
M02*
