%FSLAX46Y46*%
%MOMM*%
%AMPS38*
1,1,2.300000,0.000000,0.000000*
%
%ADD38PS38*%
%AMPS46*
1,1,1.800000,0.000000,0.000000*
%
%ADD46PS46*%
%AMPS58*
1,1,1.500000,0.000000,0.000000*
%
%ADD58PS58*%
%AMPS32*
1,1,2.400000,0.000000,0.000000*
%
%ADD32PS32*%
%AMPS55*
1,1,1.900000,0.000000,0.000000*
%
%ADD55PS55*%
%AMPS43*
1,1,1.900000,0.000000,0.000000*
%
%ADD43PS43*%
%AMPS33*
1,1,1.900000,0.000000,0.000000*
%
%ADD33PS33*%
%AMPS45*
21,1,0.800000,1.900000,0.000000,0.000000,90.000000*
%
%ADD45PS45*%
%AMPS44*
21,1,0.800000,1.900000,0.000000,0.000000,270.000000*
%
%ADD44PS44*%
%AMPS25*
21,1,1.800000,3.150000,0.000000,0.000000,0.000000*
%
%ADD25PS25*%
%AMPS22*
21,1,1.800000,3.150000,0.000000,0.000000,90.000000*
%
%ADD22PS22*%
%AMPS24*
21,1,1.800000,3.150000,0.000000,0.000000,180.000000*
%
%ADD24PS24*%
%AMPS23*
21,1,1.800000,3.150000,0.000000,0.000000,270.000000*
%
%ADD23PS23*%
%AMPS17*
21,1,0.800000,1.750000,0.000000,0.000000,0.000000*
%
%ADD17PS17*%
%AMPS16*
21,1,0.800000,1.750000,0.000000,0.000000,180.000000*
%
%ADD16PS16*%
%AMPS15*
21,1,1.800000,2.700000,0.000000,0.000000,0.000000*
%
%ADD15PS15*%
%AMPS59*
21,1,1.800000,2.700000,0.000000,0.000000,90.000000*
%
%ADD59PS59*%
%AMPS14*
21,1,1.800000,2.700000,0.000000,0.000000,180.000000*
%
%ADD14PS14*%
%AMPS60*
21,1,1.800000,2.700000,0.000000,0.000000,270.000000*
%
%ADD60PS60*%
%AMPS12*
21,1,1.100000,1.200000,0.000000,0.000000,0.000000*
%
%ADD12PS12*%
%AMPS47*
21,1,1.100000,1.200000,0.000000,0.000000,90.000000*
%
%ADD47PS47*%
%AMPS13*
21,1,1.100000,1.200000,0.000000,0.000000,180.000000*
%
%ADD13PS13*%
%AMPS48*
21,1,1.100000,1.200000,0.000000,0.000000,270.000000*
%
%ADD48PS48*%
%AMPS56*
21,1,0.600000,1.100000,0.000000,0.000000,90.000000*
%
%ADD56PS56*%
%AMPS57*
21,1,0.600000,1.100000,0.000000,0.000000,270.000000*
%
%ADD57PS57*%
%AMPS50*
21,1,0.800000,2.000000,0.000000,0.000000,0.000000*
%
%ADD50PS50*%
%AMPS49*
21,1,0.800000,2.000000,0.000000,0.000000,180.000000*
%
%ADD49PS49*%
%AMPS40*
21,1,0.901421,1.691421,0.000000,0.000000,90.000000*
%
%ADD40PS40*%
%AMPS39*
21,1,0.901421,1.691421,0.000000,0.000000,270.000000*
%
%ADD39PS39*%
%AMPS51*
21,1,2.000000,1.400000,0.000000,0.000000,0.000000*
%
%ADD51PS51*%
%AMPS31*
21,1,2.000000,1.400000,0.000000,0.000000,90.000000*
%
%ADD31PS31*%
%AMPS52*
21,1,2.000000,1.400000,0.000000,0.000000,180.000000*
%
%ADD52PS52*%
%AMPS30*
21,1,2.000000,1.400000,0.000000,0.000000,270.000000*
%
%ADD30PS30*%
%AMPS37*
21,1,1.100000,0.700000,0.000000,0.000000,0.000000*
%
%ADD37PS37*%
%AMPS21*
21,1,1.100000,0.700000,0.000000,0.000000,90.000000*
%
%ADD21PS21*%
%AMPS36*
21,1,1.100000,0.700000,0.000000,0.000000,180.000000*
%
%ADD36PS36*%
%AMPS20*
21,1,1.100000,0.700000,0.000000,0.000000,270.000000*
%
%ADD20PS20*%
%AMPS42*
21,1,1.900000,1.300000,0.000000,0.000000,0.000000*
%
%ADD42PS42*%
%AMPS29*
21,1,1.900000,1.300000,0.000000,0.000000,90.000000*
%
%ADD29PS29*%
%AMPS41*
21,1,1.900000,1.300000,0.000000,0.000000,180.000000*
%
%ADD41PS41*%
%AMPS28*
21,1,1.900000,1.300000,0.000000,0.000000,270.000000*
%
%ADD28PS28*%
%AMPS34*
21,1,0.900000,1.100000,0.000000,0.000000,0.000000*
%
%ADD34PS34*%
%AMPS35*
21,1,0.900000,1.100000,0.000000,0.000000,180.000000*
%
%ADD35PS35*%
%AMPS19*
21,1,1.050000,1.000000,0.000000,0.000000,0.000000*
%
%ADD19PS19*%
%AMPS54*
21,1,1.050000,1.000000,0.000000,0.000000,90.000000*
%
%ADD54PS54*%
%AMPS18*
21,1,1.050000,1.000000,0.000000,0.000000,180.000000*
%
%ADD18PS18*%
%AMPS53*
21,1,1.050000,1.000000,0.000000,0.000000,270.000000*
%
%ADD53PS53*%
%AMPS27*
21,1,1.950000,2.850000,0.000000,0.000000,0.000000*
%
%ADD27PS27*%
%AMPS26*
21,1,1.950000,2.850000,0.000000,0.000000,180.000000*
%
%ADD26PS26*%
%AMPS63*
1,1,1.000000,0.000000,0.000000*
%
%ADD63PS63*%
%AMPS62*
1,1,0.800000,0.000000,0.000000*
%
%ADD62PS62*%
%AMPS61*
1,1,0.550000,0.000000,0.000000*
%
%ADD61PS61*%
%AMPS11*
1,1,3.200000,0.000000,0.000000*
%
%ADD11PS11*%
%AMPS10*
1,1,0.700000,0.000000,0.000000*
%
%ADD10PS10*%
G01*
G01*
%LPD*%
G75*
D10*
X9630000Y72700000D03*
D10*
X9630000Y20000000D03*
D10*
X69370000Y70000000D03*
D10*
X140370000Y71800000D03*
D10*
X140370000Y18200000D03*
D10*
X69370000Y20000000D03*
D11*
X147000000Y3000000D03*
D10*
X9630000Y70900000D03*
D10*
X69370000Y18200000D03*
D10*
X80630000Y72700000D03*
D11*
X3000000Y97000000D03*
D10*
X9630000Y71800000D03*
D10*
X80630000Y71800000D03*
D10*
X9630000Y69100000D03*
D10*
X9630000Y70000000D03*
D10*
X69370000Y21800000D03*
D11*
X3000000Y3000000D03*
D10*
X9630000Y20900000D03*
D10*
X140370000Y72700000D03*
D10*
X69370000Y19100000D03*
D10*
X140370000Y69100000D03*
D10*
X9630000Y18200000D03*
D10*
X80630000Y70000000D03*
D10*
X80630000Y69100000D03*
D10*
X80630000Y18200000D03*
D10*
X140370000Y70000000D03*
D10*
X69370000Y71800000D03*
D10*
X140370000Y70900000D03*
D10*
X69370000Y69100000D03*
D10*
X9630000Y19100000D03*
D10*
X80630000Y21800000D03*
D10*
X140370000Y20900000D03*
D10*
X140370000Y21800000D03*
D10*
X80630000Y20000000D03*
D10*
X69370000Y20900000D03*
D11*
X147000000Y97000000D03*
D10*
X80630000Y70900000D03*
D10*
X9630000Y21800000D03*
D10*
X69370000Y72700000D03*
D10*
X140370000Y19100000D03*
D10*
X140370000Y20000000D03*
D10*
X80630000Y20900000D03*
D10*
X69370000Y70900000D03*
D10*
X80630000Y19100000D03*
D12*
X113390000Y50120000D03*
D13*
X112440000Y52320000D03*
D12*
X111490000Y50120000D03*
D14*
X115560000Y23900000D03*
D15*
X115560000Y20600000D03*
D16*
X108790000Y39510000D03*
D16*
X111340000Y39510000D03*
D16*
X112610000Y39510000D03*
D17*
X112610000Y34170000D03*
D17*
X110060000Y34170000D03*
D16*
X110060000Y39510000D03*
D17*
X108790000Y34170000D03*
D17*
X111340000Y34170000D03*
D18*
X115290000Y51620000D03*
D19*
X115290000Y50120000D03*
D20*
X96400000Y40020000D03*
D21*
X97900000Y40020000D03*
D22*
X112610000Y44910000D03*
D23*
X107410000Y44910000D03*
D24*
X97700000Y50125000D03*
D25*
X97700000Y44925000D03*
D18*
X119360000Y22100000D03*
D19*
X119360000Y20600000D03*
D18*
X125050000Y22100000D03*
D19*
X125050000Y20600000D03*
D26*
X118290000Y53500000D03*
D27*
X118290000Y49200000D03*
D20*
X88700000Y46950000D03*
D21*
X90200000Y46950000D03*
D28*
X114000000Y17000000D03*
D29*
X117200000Y17000000D03*
D30*
X109810000Y31430000D03*
D31*
X112710000Y31430000D03*
D32*
X104750000Y70250000D03*
D32*
X104750000Y82700000D03*
D32*
X88450000Y82700000D03*
D32*
X104750000Y76450000D03*
D32*
X88450000Y76450000D03*
D32*
X88450000Y70250000D03*
D33*
X112200000Y13430000D03*
D33*
X119820000Y13430000D03*
D18*
X92800000Y38120000D03*
D19*
X92800000Y36620000D03*
D20*
X88700000Y44050000D03*
D21*
X90200000Y44050000D03*
D30*
X131700000Y53000000D03*
D31*
X134600000Y53000000D03*
D34*
X99150000Y22920000D03*
D34*
X100450000Y22920000D03*
D35*
X99800000Y24820000D03*
D36*
X102370000Y24120000D03*
D37*
X102370000Y22620000D03*
D38*
X105500000Y27900000D03*
D38*
X115500000Y27900000D03*
D38*
X110500000Y27900000D03*
D13*
X133150000Y41200000D03*
D12*
X134100000Y39000000D03*
D13*
X135050000Y41200000D03*
D39*
X102425000Y55090000D03*
D40*
X109575000Y57630000D03*
D40*
X109575000Y62710000D03*
D40*
X109575000Y60170000D03*
D39*
X102425000Y57630000D03*
D39*
X102425000Y62710000D03*
D40*
X109575000Y55090000D03*
D39*
X102425000Y60170000D03*
D38*
X124000000Y58200000D03*
D38*
X134000000Y58200000D03*
D38*
X129000000Y58200000D03*
D37*
X131150000Y39700000D03*
D36*
X131150000Y41200000D03*
D41*
X118290000Y42420000D03*
D42*
X118290000Y39220000D03*
D36*
X96050000Y20850000D03*
D37*
X96050000Y19350000D03*
D43*
X111750000Y69400000D03*
D43*
X109250000Y69400000D03*
D44*
X98350000Y19350000D03*
D44*
X98350000Y16800000D03*
D45*
X105650000Y16800000D03*
D45*
X105650000Y18050000D03*
D45*
X105650000Y20600000D03*
D44*
X98350000Y20600000D03*
D45*
X105650000Y19350000D03*
D44*
X98350000Y18050000D03*
D46*
X108250000Y12700000D03*
D46*
X98090000Y12700000D03*
D46*
X95550000Y12700000D03*
D46*
X100630000Y12700000D03*
D46*
X103170000Y12700000D03*
D46*
X105710000Y12700000D03*
D47*
X94600000Y41920000D03*
D48*
X92400000Y40970000D03*
D47*
X94600000Y40020000D03*
D24*
X124640000Y44420000D03*
D25*
X124640000Y39220000D03*
D49*
X111970000Y61100000D03*
D50*
X114470000Y54800000D03*
D50*
X111970000Y54800000D03*
D49*
X114470000Y61100000D03*
D51*
X99800000Y34920000D03*
D52*
X99800000Y37820000D03*
D24*
X133150000Y49500000D03*
D25*
X133150000Y44300000D03*
D24*
X124640000Y54400000D03*
D25*
X124640000Y49200000D03*
D12*
X123150000Y20600000D03*
D13*
X122200000Y22800000D03*
D12*
X121250000Y20600000D03*
D53*
X108075000Y50120000D03*
D54*
X109575000Y50120000D03*
D55*
X132950000Y13780000D03*
D55*
X135450000Y13780000D03*
D51*
X92400000Y44050000D03*
D52*
X92400000Y46950000D03*
D51*
X96950000Y34920000D03*
D52*
X96950000Y37820000D03*
D56*
X109575000Y52290000D03*
D57*
X107375000Y52290000D03*
D37*
X94600000Y36620000D03*
D36*
X94600000Y38120000D03*
D21*
X97900000Y41920000D03*
D20*
X96400000Y41920000D03*
D58*
X127840000Y14900000D03*
D58*
X125300000Y12360000D03*
D58*
X122760000Y14900000D03*
D38*
X87000000Y58200000D03*
D38*
X97000000Y58200000D03*
D38*
X92000000Y58200000D03*
D36*
X137050000Y41200000D03*
D37*
X137050000Y39700000D03*
D59*
X131250000Y22600000D03*
D60*
X127950000Y22600000D03*
D19*
X107890000Y19100000D03*
D18*
X107890000Y20600000D03*
D32*
X132550000Y70250000D03*
D32*
X132550000Y82700000D03*
D32*
X116250000Y82700000D03*
D32*
X132550000Y76450000D03*
D32*
X116250000Y76450000D03*
D32*
X116250000Y70250000D03*
D55*
X85550000Y13780000D03*
D55*
X88050000Y13780000D03*
D38*
X124000000Y27900000D03*
D38*
X134000000Y27900000D03*
D38*
X129000000Y27900000D03*
D38*
X87000000Y27900000D03*
D38*
X97000000Y27900000D03*
D38*
X92000000Y27900000D03*
D61*
X106100000Y48000000D03*
D61*
X115700000Y62800000D03*
D61*
X132700000Y39000000D03*
D62*
X116190000Y44910000D03*
D63*
X120500000Y40900000D03*
D62*
X129500000Y39700000D03*
D61*
X87000000Y32900000D03*
D62*
X111100000Y20600000D03*
D61*
X98530000Y60170000D03*
D61*
X113000000Y62700000D03*
D61*
X102370000Y25500000D03*
D61*
X106400000Y53800000D03*
D61*
X105110000Y52290000D03*
D61*
X99800000Y26600000D03*
D61*
X104600000Y30400000D03*
D63*
X126500000Y25800000D03*
D12*
X42390000Y50120000D03*
D13*
X41440000Y52320000D03*
D12*
X40490000Y50120000D03*
D14*
X44560000Y23900000D03*
D15*
X44560000Y20600000D03*
D16*
X37790000Y39510000D03*
D16*
X40340000Y39510000D03*
D16*
X41610000Y39510000D03*
D17*
X41610000Y34170000D03*
D17*
X39060000Y34170000D03*
D16*
X39060000Y39510000D03*
D17*
X37790000Y34170000D03*
D17*
X40340000Y34170000D03*
D18*
X44290000Y51620000D03*
D19*
X44290000Y50120000D03*
D20*
X25400000Y40020000D03*
D21*
X26900000Y40020000D03*
D22*
X41610000Y44910000D03*
D23*
X36410000Y44910000D03*
D24*
X26700000Y50125000D03*
D25*
X26700000Y44925000D03*
D18*
X48360000Y22100000D03*
D19*
X48360000Y20600000D03*
D18*
X54050000Y22100000D03*
D19*
X54050000Y20600000D03*
D26*
X47290000Y53500000D03*
D27*
X47290000Y49200000D03*
D20*
X17700000Y46950000D03*
D21*
X19200000Y46950000D03*
D28*
X43000000Y17000000D03*
D29*
X46200000Y17000000D03*
D30*
X38810000Y31430000D03*
D31*
X41710000Y31430000D03*
D32*
X33750000Y70250000D03*
D32*
X33750000Y82700000D03*
D32*
X17450000Y82700000D03*
D32*
X33750000Y76450000D03*
D32*
X17450000Y76450000D03*
D32*
X17450000Y70250000D03*
D33*
X41200000Y13430000D03*
D33*
X48820000Y13430000D03*
D18*
X21800000Y38120000D03*
D19*
X21800000Y36620000D03*
D20*
X17700000Y44050000D03*
D21*
X19200000Y44050000D03*
D30*
X60700000Y53000000D03*
D31*
X63600000Y53000000D03*
D34*
X28150000Y22920000D03*
D34*
X29450000Y22920000D03*
D35*
X28800000Y24820000D03*
D36*
X31370000Y24120000D03*
D37*
X31370000Y22620000D03*
D38*
X34500000Y27900000D03*
D38*
X44500000Y27900000D03*
D38*
X39500000Y27900000D03*
D13*
X62150000Y41200000D03*
D12*
X63100000Y39000000D03*
D13*
X64050000Y41200000D03*
D39*
X31425000Y55090000D03*
D40*
X38575000Y57630000D03*
D40*
X38575000Y62710000D03*
D40*
X38575000Y60170000D03*
D39*
X31425000Y57630000D03*
D39*
X31425000Y62710000D03*
D40*
X38575000Y55090000D03*
D39*
X31425000Y60170000D03*
D38*
X53000000Y58200000D03*
D38*
X63000000Y58200000D03*
D38*
X58000000Y58200000D03*
D37*
X60150000Y39700000D03*
D36*
X60150000Y41200000D03*
D41*
X47290000Y42420000D03*
D42*
X47290000Y39220000D03*
D36*
X25050000Y20850000D03*
D37*
X25050000Y19350000D03*
D43*
X40750000Y69400000D03*
D43*
X38250000Y69400000D03*
D44*
X27350000Y19350000D03*
D44*
X27350000Y16800000D03*
D45*
X34650000Y16800000D03*
D45*
X34650000Y18050000D03*
D45*
X34650000Y20600000D03*
D44*
X27350000Y20600000D03*
D45*
X34650000Y19350000D03*
D44*
X27350000Y18050000D03*
D46*
X37250000Y12700000D03*
D46*
X27090000Y12700000D03*
D46*
X24550000Y12700000D03*
D46*
X29630000Y12700000D03*
D46*
X32170000Y12700000D03*
D46*
X34710000Y12700000D03*
D47*
X23600000Y41920000D03*
D48*
X21400000Y40970000D03*
D47*
X23600000Y40020000D03*
D24*
X53640000Y44420000D03*
D25*
X53640000Y39220000D03*
D49*
X40970000Y61100000D03*
D50*
X43470000Y54800000D03*
D50*
X40970000Y54800000D03*
D49*
X43470000Y61100000D03*
D51*
X28800000Y34920000D03*
D52*
X28800000Y37820000D03*
D24*
X62150000Y49500000D03*
D25*
X62150000Y44300000D03*
D24*
X53640000Y54400000D03*
D25*
X53640000Y49200000D03*
D12*
X52150000Y20600000D03*
D13*
X51200000Y22800000D03*
D12*
X50250000Y20600000D03*
D53*
X37075000Y50120000D03*
D54*
X38575000Y50120000D03*
D55*
X61950000Y13780000D03*
D55*
X64450000Y13780000D03*
D51*
X21400000Y44050000D03*
D52*
X21400000Y46950000D03*
D51*
X25950000Y34920000D03*
D52*
X25950000Y37820000D03*
D56*
X38575000Y52290000D03*
D57*
X36375000Y52290000D03*
D37*
X23600000Y36620000D03*
D36*
X23600000Y38120000D03*
D21*
X26900000Y41920000D03*
D20*
X25400000Y41920000D03*
D58*
X56840000Y14900000D03*
D58*
X54300000Y12360000D03*
D58*
X51760000Y14900000D03*
D38*
X16000000Y58200000D03*
D38*
X26000000Y58200000D03*
D38*
X21000000Y58200000D03*
D36*
X66050000Y41200000D03*
D37*
X66050000Y39700000D03*
D59*
X60250000Y22600000D03*
D60*
X56950000Y22600000D03*
D19*
X36890000Y19100000D03*
D18*
X36890000Y20600000D03*
D32*
X61550000Y70250000D03*
D32*
X61550000Y82700000D03*
D32*
X45250000Y82700000D03*
D32*
X61550000Y76450000D03*
D32*
X45250000Y76450000D03*
D32*
X45250000Y70250000D03*
D55*
X14550000Y13780000D03*
D55*
X17050000Y13780000D03*
D38*
X53000000Y27900000D03*
D38*
X63000000Y27900000D03*
D38*
X58000000Y27900000D03*
D38*
X16000000Y27900000D03*
D38*
X26000000Y27900000D03*
D38*
X21000000Y27900000D03*
D61*
X35100000Y48000000D03*
D61*
X44700000Y62800000D03*
D61*
X61700000Y39000000D03*
D62*
X45190000Y44910000D03*
D63*
X49500000Y40900000D03*
D62*
X58500000Y39700000D03*
D61*
X16000000Y32900000D03*
D62*
X40100000Y20600000D03*
D61*
X27530000Y60170000D03*
D61*
X42000000Y62700000D03*
D61*
X31370000Y25500000D03*
D61*
X35400000Y53800000D03*
D61*
X34110000Y52290000D03*
D61*
X28800000Y26600000D03*
D61*
X33600000Y30400000D03*
D63*
X55500000Y25800000D03*
M02*
