M48
FMAT,2
METRIC,TZ
T7C0.250
T8C0.500
T5C0.600
T6C0.900
T2C1.000
T1C1.400
T3C1.500
T4C2.000
%
G90
G05
M71
T7
X162.970Y12.550
X132.970Y0.970
X17.270Y48.910
X55.370Y48.910
X24.970Y61.030
X156.970Y30.730
X54.970Y61.030
X26.600Y4.030
X144.970Y18.610
X15.100Y29.300
X27.982Y17.500
X14.900Y24.500
X132.570Y54.970
X42.970Y61.030
X23.042Y16.800
X96.970Y0.970
X13.110Y4.700
X126.970Y6.490
X48.970Y54.970
X108.020Y6.410
X162.970Y36.790
X125.700Y21.600
X162.970Y48.910
X8.100Y10.340
X36.675Y14.783
X144.970Y42.850
X24.590Y41.900
X122.910Y10.100
X114.970Y36.790
X18.900Y12.710
X132.970Y6.490
X156.970Y6.490
X156.970Y61.030
X31.700Y11.300
X108.970Y54.970
X156.970Y48.910
X140.150Y22.500
X66.970Y61.030
X37.600Y9.400
X120.970Y31.530
X72.970Y61.030
X108.970Y27.670
X54.970Y30.730
X55.900Y18.700
X31.300Y32.400
X169.030Y0.970
X72.970Y0.970
X96.970Y24.670
X169.030Y18.610
X42.275Y9.538
X12.570Y48.910
X30.970Y0.970
X22.800Y12.830
X40.220Y19.713
X150.970Y12.550
X55.900Y21.200
X138.970Y30.730
X41.800Y4.060
X42.970Y43.350
X33.900Y52.400
X13.810Y11.840
X42.970Y0.970
X144.970Y54.970
X114.970Y31.530
X19.170Y61.030
X78.970Y42.850
X150.970Y24.670
X112.860Y23.850
X18.970Y0.970
X32.900Y34.000
X15.800Y7.700
X33.900Y49.000
X78.970Y48.910
X35.500Y4.900
X54.970Y0.970
X120.170Y42.850
X78.970Y61.030
X144.970Y12.550
X93.000Y4.350
X48.970Y0.970
X14.780Y25.610
X48.970Y48.910
X16.100Y26.800
X0.970Y6.490
X71.570Y48.910
X15.800Y9.410
X60.970Y61.030
X119.470Y36.790
X18.100Y20.982
X19.450Y7.718
X47.700Y6.870
X31.300Y37.100
X27.700Y26.100
X35.405Y14.783
X20.600Y4.700
X156.970Y24.670
X42.280Y7.660
X34.280Y4.940
X60.970Y24.670
X55.370Y42.850
X46.085Y9.518
X156.970Y0.970
X42.970Y48.910
X72.970Y18.610
X96.970Y36.790
X93.700Y2.630
X43.820Y19.713
X90.970Y27.970
X36.970Y61.030
X94.990Y12.060
X0.970Y48.910
X25.000Y29.300
X150.970Y6.490
X35.930Y13.810
X108.970Y61.030
X102.970Y61.030
X156.970Y18.610
X169.030Y6.490
X72.370Y36.790
X169.030Y30.730
X114.470Y9.440
X54.970Y36.790
X0.970Y18.610
X95.720Y6.080
X84.970Y61.030
X108.970Y48.910
X42.020Y18.313
X19.560Y44.400
X71.570Y42.850
X29.700Y27.900
X13.940Y21.740
X83.870Y42.850
X94.220Y11.120
X20.020Y15.860
X9.500Y44.650
X132.570Y42.850
X10.300Y4.700
X21.300Y12.710
X104.070Y54.970
X96.970Y42.850
X42.970Y36.790
X169.030Y61.030
X114.970Y61.030
X8.080Y13.540
X96.970Y54.970
X27.680Y4.980
X30.600Y9.100
X29.100Y13.500
X55.900Y13.700
X108.070Y42.850
X96.970Y18.610
X104.070Y42.850
X66.970Y4.360
X60.970Y42.850
X17.270Y61.030
X16.700Y41.150
X140.370Y42.850
X90.970Y61.030
X120.170Y48.910
X14.900Y18.400
X162.970Y30.730
X3.200Y41.350
X14.500Y44.650
X144.970Y61.030
X55.370Y54.970
X78.970Y24.670
X33.887Y43.760
X35.800Y9.400
X19.000Y42.850
X144.970Y36.790
X151.770Y30.730
X101.810Y11.120
X30.600Y49.000
X118.630Y16.110
X60.970Y54.970
X84.970Y36.790
X43.545Y9.518
X33.000Y28.200
X32.900Y31.000
X66.970Y18.610
X36.800Y34.800
X32.865Y9.478
X138.970Y12.550
X126.970Y48.910
X27.600Y29.300
X126.970Y12.550
X33.800Y7.660
X84.970Y29.130
X150.970Y0.970
X102.970Y36.590
X24.970Y0.970
X17.200Y52.100
X151.870Y36.790
X14.130Y7.560
X60.970Y0.970
X132.570Y48.910
X22.820Y7.820
X8.100Y8.140
X120.970Y0.970
X169.030Y36.790
X78.970Y29.130
X132.970Y12.550
X114.970Y18.610
X15.400Y4.700
X90.970Y18.610
X28.027Y41.060
X7.030Y61.030
X138.970Y6.490
X162.970Y61.030
X92.400Y2.620
X6.970Y0.970
X103.410Y10.050
X9.788Y16.100
X28.130Y6.720
X0.970Y12.550
X114.970Y42.850
X118.580Y12.570
X39.075Y14.888
X22.800Y53.130
X90.970Y24.670
X169.030Y42.850
X169.030Y24.670
X169.030Y54.970
X55.900Y11.100
X12.970Y0.970
X92.760Y16.400
X108.970Y0.970
X139.150Y17.800
X126.970Y42.850
X156.970Y54.970
X22.600Y29.300
X0.970Y24.670
X66.970Y0.970
X48.970Y61.030
X169.030Y48.910
X43.900Y4.940
X84.970Y31.630
X21.890Y6.720
X12.570Y61.030
X169.030Y12.550
X39.845Y12.538
X23.100Y24.900
X96.170Y10.370
X17.270Y54.910
X78.970Y31.630
X138.970Y61.030
X35.087Y42.560
X162.970Y0.970
X23.730Y8.920
X60.970Y36.790
X28.200Y49.000
X96.970Y61.030
X126.970Y0.970
X21.860Y13.760
X13.218Y25.100
X145.870Y24.670
X138.970Y36.790
X24.600Y11.300
X72.970Y24.670
X138.970Y0.970
X83.870Y54.970
X48.970Y42.850
X83.870Y48.910
X18.700Y14.900
X114.970Y48.910
X145.770Y30.730
X30.770Y61.030
X156.970Y12.550
X16.600Y15.300
X32.865Y6.745
X0.970Y54.970
X132.970Y21.510
X30.000Y55.100
X140.150Y16.200
X31.300Y26.400
X72.470Y30.730
X90.970Y36.790
X108.970Y17.410
X112.230Y3.740
X0.970Y30.730
X48.970Y36.790
X35.400Y7.660
X104.070Y48.910
X66.970Y36.790
X60.970Y30.730
X91.570Y48.910
X12.570Y54.910
X114.970Y0.970
X16.500Y12.700
X45.530Y3.500
X0.970Y42.850
X37.400Y45.000
X138.150Y16.200
X37.620Y7.660
X0.970Y36.790
X29.300Y24.540
X162.970Y42.850
X108.970Y21.570
X162.970Y54.970
X37.100Y4.060
X23.400Y57.400
X108.970Y31.530
X32.865Y17.928
X20.700Y18.900
X138.150Y22.500
X162.970Y18.610
X7.300Y41.150
X144.970Y48.910
X29.300Y7.900
X125.670Y29.470
X13.800Y10.340
X20.400Y25.852
X132.408Y24.596
X91.570Y42.850
X144.970Y0.970
X19.350Y58.000
X132.970Y61.030
X78.970Y54.970
X31.300Y29.400
X66.970Y42.850
X5.000Y42.850
X120.970Y61.030
X144.970Y6.490
X27.500Y12.980
X12.000Y40.450
X78.970Y0.970
X108.970Y29.770
X14.768Y16.800
X132.970Y30.730
X47.000Y4.800
X84.970Y24.670
X60.970Y18.610
X126.970Y61.030
X150.970Y18.610
X71.570Y54.970
X126.970Y36.790
X60.970Y48.910
X42.970Y30.730
X156.970Y42.850
X90.970Y0.970
X102.970Y0.970
X108.970Y36.790
X66.970Y48.910
X42.970Y54.970
X25.800Y49.000
X26.700Y21.940
X43.545Y6.745
X150.970Y61.030
X9.180Y14.580
X36.970Y0.970
X162.970Y24.670
X139.870Y24.670
X66.970Y24.670
X157.670Y36.790
X8.100Y11.960
X132.970Y18.610
X23.900Y22.220
X44.100Y2.460
X20.800Y41.350
X66.970Y30.730
X20.950Y14.850
X66.970Y54.970
X44.800Y7.100
X0.970Y0.970
X6.970Y48.910
X78.970Y36.790
X103.410Y6.450
X18.000Y4.700
X12.000Y36.550
X16.000Y58.400
X102.970Y31.530
X25.400Y3.200
X0.970Y61.030
X19.900Y29.300
X91.570Y54.970
X96.970Y48.910
X132.970Y36.790
X120.170Y54.970
X84.970Y18.610
X55.900Y16.200
X126.970Y31.530
X48.970Y30.730
X121.860Y23.400
X46.085Y14.888
X84.970Y0.970
X78.970Y18.610
X126.970Y54.970
X162.970Y6.490
X27.200Y20.000
X87.390Y11.130
X114.970Y54.970
T8
X89.110Y23.770
X33.875Y18.588
X85.070Y17.420
X92.950Y6.250
X124.410Y9.780
X18.900Y26.152
X19.260Y45.900
X40.145Y11.038
X106.020Y10.710
X19.250Y56.200
X38.775Y16.388
X105.510Y19.960
X110.730Y3.354
X88.650Y6.250
X85.070Y22.500
X105.510Y22.500
X89.110Y26.310
X35.387Y41.060
X15.100Y15.200
X28.282Y16.000
X35.900Y48.100
X135.200Y22.500
X105.510Y25.040
X12.630Y7.500
X17.950Y7.478
X85.070Y19.960
X99.110Y6.250
X11.018Y22.040
X117.030Y18.770
X116.070Y3.790
T5
X47.150Y23.853
X49.690Y21.313
X47.150Y18.773
T6
X9.050Y3.400
X19.210Y3.400
X21.750Y3.400
X16.670Y3.400
X14.130Y3.400
X11.590Y3.400
T2
X4.550Y9.250
X4.550Y19.250
X4.550Y14.250
X4.550Y21.750
X4.550Y6.750
X4.550Y11.750
X4.550Y16.750
X57.350Y19.950
X57.350Y9.950
X57.350Y14.950
X57.350Y7.450
X57.350Y22.450
X57.350Y17.450
X57.350Y12.450
X3.650Y56.750
X3.650Y59.250
X28.800Y30.900
X13.800Y30.900
X21.300Y30.900
X26.300Y30.900
X18.800Y30.900
X23.800Y30.900
X8.800Y30.900
X11.300Y30.900
X16.300Y30.900
X21.300Y38.450
X2.500Y38.450
T1
X122.600Y58.300
X122.050Y48.700
X134.550Y48.700
X134.000Y51.950
X134.550Y55.050
X134.000Y45.600
X134.550Y42.350
X134.000Y58.300
X122.050Y42.350
X122.050Y55.050
X122.600Y51.950
X122.600Y45.600
X57.800Y58.300
X57.250Y48.700
X69.750Y48.700
X69.200Y51.950
X69.750Y55.050
X69.200Y45.600
X69.750Y42.350
X69.200Y58.300
X57.250Y42.350
X57.250Y55.050
X57.800Y51.950
X57.800Y45.600
X106.400Y58.300
X105.850Y48.700
X118.350Y48.700
X117.800Y51.950
X118.350Y55.050
X117.800Y45.600
X118.350Y42.350
X117.800Y58.300
X105.850Y42.350
X105.850Y55.050
X106.400Y51.950
X106.400Y45.600
X155.000Y58.300
X154.450Y48.700
X166.950Y48.700
X166.400Y51.950
X166.950Y55.050
X166.400Y45.600
X166.950Y42.350
X166.400Y58.300
X154.450Y42.350
X154.450Y55.050
X155.000Y51.950
X155.000Y45.600
X138.800Y58.300
X138.250Y48.700
X150.750Y48.700
X150.200Y51.950
X150.750Y55.050
X150.200Y45.600
X150.750Y42.350
X150.200Y58.300
X138.250Y42.350
X138.250Y55.050
X138.800Y51.950
X138.800Y45.600
X90.200Y58.300
X89.650Y48.700
X102.150Y48.700
X101.600Y51.950
X102.150Y55.050
X101.600Y45.600
X102.150Y42.350
X101.600Y58.300
X89.650Y42.350
X89.650Y55.050
X90.200Y51.950
X90.200Y45.600
X41.600Y58.300
X41.050Y48.700
X53.550Y48.700
X53.000Y51.950
X53.550Y55.050
X53.000Y45.600
X53.550Y42.350
X53.000Y58.300
X41.050Y42.350
X41.050Y55.050
X41.600Y51.950
X41.600Y45.600
X74.000Y58.300
X73.450Y48.700
X85.950Y48.700
X85.400Y51.950
X85.950Y55.050
X85.400Y45.600
X85.950Y42.350
X85.400Y58.300
X73.450Y42.350
X73.450Y55.050
X74.000Y51.950
X74.000Y45.600
T3
X35.100Y54.050
X35.100Y59.050
X36.350Y51.550
X32.600Y54.050
X23.850Y51.550
X25.100Y54.050
X25.100Y59.050
X27.600Y54.050
T4
X28.100Y58.300G85X28.100Y59.800
X32.100Y58.300G85X32.100Y59.800
M30
