%FSLAX46Y46*%
%MOMM*%
%AMPS62*
1,1,1.800000,0.000000,0.000000*
%
%ADD62PS62*%
%AMPS30*
1,1,2.400000,0.000000,0.000000*
%
%ADD30PS30*%
%AMPS38*
1,1,2.400000,0.000000,0.000000*
%
%ADD38PS38*%
%AMPS53*
1,1,1.500000,0.000000,0.000000*
%
%ADD53PS53*%
%AMPS37*
1,1,1.900000,0.000000,0.000000*
%
%ADD37PS37*%
%AMPS63*
1,1,1.900000,0.000000,0.000000*
%
%ADD63PS63*%
%AMPS46*
1,1,1.900000,0.000000,0.000000*
%
%ADD46PS46*%
%AMPS20*
21,1,1.000000,0.800000,0.000000,0.000000,0.000000*
%
%ADD20PS20*%
%AMPS21*
21,1,1.000000,0.800000,0.000000,0.000000,180.000000*
%
%ADD21PS21*%
%AMPS22*
21,1,3.500000,2.300000,0.000000,0.000000,180.000000*
%
%ADD22PS22*%
%AMPS66*
21,1,1.794948,2.941421,0.000000,0.000000,0.000000*
%
%ADD66PS66*%
%AMPS33*
21,1,1.794948,2.941421,0.000000,0.000000,90.000000*
%
%ADD33PS33*%
%AMPS67*
21,1,1.794948,2.941421,0.000000,0.000000,180.000000*
%
%ADD67PS67*%
%AMPS34*
21,1,1.794948,2.941421,0.000000,0.000000,270.000000*
%
%ADD34PS34*%
%AMPS44*
21,1,1.800000,3.150000,0.000000,0.000000,90.000000*
%
%ADD44PS44*%
%AMPS45*
21,1,1.800000,3.150000,0.000000,0.000000,270.000000*
%
%ADD45PS45*%
%AMPS49*
21,1,0.800000,1.750000,0.000000,0.000000,0.000000*
%
%ADD49PS49*%
%AMPS65*
21,1,0.800000,1.750000,0.000000,0.000000,90.000000*
%
%ADD65PS65*%
%AMPS50*
21,1,0.800000,1.750000,0.000000,0.000000,180.000000*
%
%ADD50PS50*%
%AMPS64*
21,1,0.800000,1.750000,0.000000,0.000000,270.000000*
%
%ADD64PS64*%
%AMPS23*
21,1,1.250000,2.300000,0.000000,0.000000,0.000000*
%
%ADD23PS23*%
%AMPS43*
21,1,0.766155,1.806281,0.000000,0.000000,0.000000*
%
%ADD43PS43*%
%AMPS40*
21,1,0.766155,1.806281,0.000000,0.000000,90.000000*
%
%ADD40PS40*%
%AMPS42*
21,1,0.766155,1.806281,0.000000,0.000000,180.000000*
%
%ADD42PS42*%
%AMPS41*
21,1,0.766155,1.806281,0.000000,0.000000,270.000000*
%
%ADD41PS41*%
%AMPS35*
21,1,0.600000,1.100000,0.000000,0.000000,90.000000*
%
%ADD35PS35*%
%AMPS36*
21,1,0.600000,1.100000,0.000000,0.000000,270.000000*
%
%ADD36PS36*%
%AMPS55*
21,1,1.000000,1.400000,0.000000,0.000000,0.000000*
%
%ADD55PS55*%
%AMPS54*
21,1,1.000000,1.400000,0.000000,0.000000,180.000000*
%
%ADD54PS54*%
%AMPS27*
21,1,0.750000,1.450000,0.000000,0.000000,0.000000*
%
%ADD27PS27*%
%AMPS26*
21,1,0.750000,1.450000,0.000000,0.000000,180.000000*
%
%ADD26PS26*%
%AMPS29*
21,1,0.800000,2.000000,0.000000,0.000000,0.000000*
%
%ADD29PS29*%
%AMPS28*
21,1,0.800000,2.000000,0.000000,0.000000,180.000000*
%
%ADD28PS28*%
%AMPS47*
21,1,2.000000,1.400000,0.000000,0.000000,0.000000*
%
%ADD47PS47*%
%AMPS56*
21,1,2.000000,1.400000,0.000000,0.000000,90.000000*
%
%ADD56PS56*%
%AMPS48*
21,1,2.000000,1.400000,0.000000,0.000000,180.000000*
%
%ADD48PS48*%
%AMPS57*
21,1,2.000000,1.400000,0.000000,0.000000,270.000000*
%
%ADD57PS57*%
%AMPS60*
21,1,0.800000,1.600000,0.000000,0.000000,0.000000*
%
%ADD60PS60*%
%AMPS61*
21,1,0.800000,1.600000,0.000000,0.000000,180.000000*
%
%ADD61PS61*%
%AMPS17*
21,1,1.100000,0.700000,0.000000,0.000000,0.000000*
%
%ADD17PS17*%
%AMPS15*
21,1,1.100000,0.700000,0.000000,0.000000,90.000000*
%
%ADD15PS15*%
%AMPS16*
21,1,1.100000,0.700000,0.000000,0.000000,180.000000*
%
%ADD16PS16*%
%AMPS14*
21,1,1.100000,0.700000,0.000000,0.000000,270.000000*
%
%ADD14PS14*%
%AMPS58*
21,1,1.900000,1.300000,0.000000,0.000000,0.000000*
%
%ADD58PS58*%
%AMPS59*
21,1,1.900000,1.300000,0.000000,0.000000,180.000000*
%
%ADD59PS59*%
%AMPS31*
21,1,0.800000,1.300000,0.000000,0.000000,0.000000*
%
%ADD31PS31*%
%AMPS32*
21,1,0.800000,1.300000,0.000000,0.000000,180.000000*
%
%ADD32PS32*%
%AMPS12*
21,1,0.900000,2.200000,0.000000,0.000000,0.000000*
%
%ADD12PS12*%
%AMPS11*
21,1,0.900000,2.200000,0.000000,0.000000,90.000000*
%
%ADD11PS11*%
%AMPS13*
21,1,0.900000,2.200000,0.000000,0.000000,180.000000*
%
%ADD13PS13*%
%AMPS10*
21,1,0.900000,2.200000,0.000000,0.000000,270.000000*
%
%ADD10PS10*%
%AMPS24*
21,1,1.050000,1.000000,0.000000,0.000000,0.000000*
%
%ADD24PS24*%
%AMPS18*
21,1,1.050000,1.000000,0.000000,0.000000,90.000000*
%
%ADD18PS18*%
%AMPS25*
21,1,1.050000,1.000000,0.000000,0.000000,180.000000*
%
%ADD25PS25*%
%AMPS19*
21,1,1.050000,1.000000,0.000000,0.000000,270.000000*
%
%ADD19PS19*%
%AMPS52*
21,1,1.950000,2.850000,0.000000,0.000000,90.000000*
%
%ADD52PS52*%
%AMPS51*
21,1,1.950000,2.850000,0.000000,0.000000,270.000000*
%
%ADD51PS51*%
%AMPS70*
1,1,1.200000,0.000000,0.000000*
%
%ADD70PS70*%
%AMPS68*
1,1,0.700000,0.000000,0.000000*
%
%ADD68PS68*%
%AMPS69*
1,1,0.450000,0.000000,0.000000*
%
%ADD69PS69*%
%AMPS39*
21,1,1.500000,2.200000,0.000000,0.000000,270.000000*
1,1,2.200000,0.000000,-0.750000*
1,1,2.200000,0.000000,0.750000*
%
%ADD39PS39*%
G01*
G01*
%LPD*%
G75*
D10*
X87100000Y17420000D03*
D11*
X103500000Y27580000D03*
D11*
X103500000Y25040000D03*
D12*
X101650000Y30700000D03*
D13*
X101650000Y14300000D03*
D12*
X91490000Y30700000D03*
D11*
X103500000Y21230000D03*
D13*
X95300000Y14300000D03*
D13*
X90220000Y14300000D03*
D12*
X94030000Y30700000D03*
D13*
X97840000Y14300000D03*
D10*
X87100000Y22500000D03*
D12*
X95300000Y30700000D03*
D10*
X87100000Y18690000D03*
D13*
X94030000Y14300000D03*
D10*
X87100000Y28850000D03*
D13*
X88950000Y14300000D03*
D13*
X91490000Y14300000D03*
D12*
X97840000Y30700000D03*
D10*
X87100000Y21230000D03*
D13*
X96570000Y14300000D03*
D11*
X103500000Y19960000D03*
D11*
X103500000Y17420000D03*
D10*
X87100000Y16150000D03*
D10*
X87100000Y25040000D03*
D12*
X92760000Y30700000D03*
D10*
X87100000Y26310000D03*
D13*
X99110000Y14300000D03*
D12*
X96570000Y30700000D03*
D11*
X103500000Y18690000D03*
D12*
X90220000Y30700000D03*
D11*
X103500000Y16150000D03*
D11*
X103500000Y23770000D03*
D12*
X100380000Y30700000D03*
D12*
X99110000Y30700000D03*
D11*
X103500000Y26310000D03*
D12*
X88950000Y30700000D03*
D13*
X100380000Y14300000D03*
D10*
X87100000Y23770000D03*
D10*
X87100000Y27580000D03*
D11*
X103500000Y22500000D03*
D10*
X87100000Y19960000D03*
D13*
X92760000Y14300000D03*
D11*
X103500000Y28850000D03*
D14*
X20550000Y56200000D03*
D15*
X22050000Y56200000D03*
D16*
X136650000Y14000000D03*
D17*
X136650000Y12500000D03*
D18*
X112230000Y4920000D03*
D19*
X110730000Y4920000D03*
D15*
X128088244Y19166444D03*
D14*
X126588244Y19166444D03*
D17*
X27290000Y46580000D03*
D16*
X27290000Y48080000D03*
D20*
X11018334Y19340000D03*
D21*
X11018334Y20740000D03*
D22*
X12000000Y44650000D03*
D23*
X14300000Y38450000D03*
D23*
X9700000Y38450000D03*
D23*
X12000000Y38450000D03*
D24*
X40275027Y14888279D03*
D25*
X40275027Y16388279D03*
D15*
X24590000Y47879935D03*
D14*
X23090000Y47879935D03*
D26*
X42275027Y16388279D03*
D27*
X44815027Y11038439D03*
D26*
X48625027Y16388279D03*
D27*
X43545027Y11038439D03*
D27*
X46085027Y11038439D03*
D27*
X49895027Y11038439D03*
D26*
X44815027Y16388279D03*
D27*
X51165027Y11038439D03*
D26*
X51165027Y16388279D03*
D26*
X46085027Y16388279D03*
D26*
X49895027Y16388279D03*
D26*
X47355027Y16388279D03*
D27*
X47355027Y11038439D03*
D26*
X43545027Y16388279D03*
D27*
X42275027Y11038439D03*
D27*
X48625027Y11038439D03*
D28*
X136650000Y22500000D03*
D29*
X139150000Y16200000D03*
D29*
X136650000Y16200000D03*
D28*
X139150000Y22500000D03*
D19*
X88570000Y11130000D03*
D18*
X90070000Y11130000D03*
D30*
X122600000Y58300000D03*
D30*
X122050000Y48700000D03*
D30*
X134550000Y48700000D03*
D30*
X134000000Y51950000D03*
D30*
X134550000Y55050000D03*
D30*
X134000000Y45600000D03*
D30*
X134550000Y42350000D03*
D30*
X134000000Y58300000D03*
D30*
X122050000Y42350000D03*
D30*
X122050000Y55050000D03*
D30*
X122600000Y51950000D03*
D30*
X122600000Y45600000D03*
D31*
X24590000Y43300065D03*
D32*
X22690000Y45899935D03*
D31*
X22690000Y43300065D03*
D31*
X23640000Y43300065D03*
D32*
X24590000Y45899935D03*
D19*
X122910000Y11280000D03*
D18*
X124410000Y11280000D03*
D33*
X120859999Y26450000D03*
D34*
X115960001Y26450000D03*
D35*
X31697200Y49879996D03*
D36*
X29497200Y49879996D03*
D16*
X30500000Y12000000D03*
D17*
X30500000Y10500000D03*
D37*
X4550000Y9250000D03*
D37*
X4550000Y19250000D03*
D37*
X4550000Y14250000D03*
D37*
X4550000Y21750000D03*
D37*
X4550000Y6750000D03*
D37*
X4550000Y11750000D03*
D37*
X4550000Y16750000D03*
D38*
X35100000Y54050000D03*
D39*
X28100000Y59050000D03*
D38*
X35100000Y59050000D03*
D38*
X36350000Y51550000D03*
D38*
X32600000Y54050000D03*
D38*
X23850000Y51550000D03*
D39*
X32100000Y59050000D03*
D38*
X25100000Y54050000D03*
D38*
X25100000Y59050000D03*
D38*
X27600000Y54050000D03*
D30*
X57800000Y58300000D03*
D30*
X57250000Y48700000D03*
D30*
X69750000Y48700000D03*
D30*
X69200000Y51950000D03*
D30*
X69750000Y55050000D03*
D30*
X69200000Y45600000D03*
D30*
X69750000Y42350000D03*
D30*
X69200000Y58300000D03*
D30*
X57250000Y42350000D03*
D30*
X57250000Y55050000D03*
D30*
X57800000Y51950000D03*
D30*
X57800000Y45600000D03*
D40*
X24581666Y14400000D03*
D41*
X13218334Y12800000D03*
D41*
X13218334Y15200000D03*
D42*
X21300000Y22481666D03*
D42*
X22100000Y22481666D03*
D43*
X19700000Y11118334D03*
D43*
X22100000Y11118334D03*
D42*
X16500000Y22481666D03*
D42*
X14900000Y22481666D03*
D41*
X13218334Y18400000D03*
D41*
X13218334Y16800000D03*
D43*
X15700000Y11118334D03*
D42*
X17300000Y22481666D03*
D40*
X24581666Y13600000D03*
D43*
X18100000Y11118334D03*
D43*
X21300000Y11118334D03*
D40*
X24581666Y20000000D03*
D43*
X17300000Y11118334D03*
D41*
X13218334Y20800000D03*
D40*
X24581666Y12800000D03*
D40*
X24581666Y16800000D03*
D42*
X15700000Y22481666D03*
D42*
X19700000Y22481666D03*
D43*
X20500000Y11118334D03*
D40*
X24581666Y19200000D03*
D40*
X24581666Y20800000D03*
D41*
X13218334Y13600000D03*
D40*
X24581666Y16000000D03*
D42*
X22900000Y22481666D03*
D43*
X14900000Y11118334D03*
D43*
X16500000Y11118334D03*
D40*
X24581666Y18400000D03*
D40*
X24581666Y17600000D03*
D41*
X13218334Y20000000D03*
D42*
X20500000Y22481666D03*
D41*
X13218334Y19200000D03*
D41*
X13218334Y14400000D03*
D43*
X22900000Y11118334D03*
D41*
X13218334Y16000000D03*
D43*
X18900000Y11118334D03*
D41*
X13218334Y17600000D03*
D42*
X18900000Y22481666D03*
D42*
X18100000Y22481666D03*
D40*
X24581666Y15200000D03*
D25*
X26781666Y17500000D03*
D24*
X26781666Y16000000D03*
D16*
X123780000Y22300000D03*
D17*
X123780000Y20800000D03*
D24*
X118630000Y17270000D03*
D25*
X118630000Y18770000D03*
D44*
X14600000Y52100000D03*
D45*
X9400000Y52100000D03*
D25*
X7300000Y39950000D03*
D24*
X7300000Y38450000D03*
D24*
X33887200Y41059996D03*
D25*
X33887200Y42559996D03*
D46*
X57350000Y19950000D03*
D46*
X57350000Y9950000D03*
D46*
X57350000Y14950000D03*
D46*
X57350000Y7450000D03*
D46*
X57350000Y22450000D03*
D46*
X57350000Y17450000D03*
D46*
X57350000Y12450000D03*
D16*
X121860000Y22300000D03*
D17*
X121860000Y20800000D03*
D47*
X5000000Y38450000D03*
D48*
X5000000Y41350000D03*
D17*
X111650000Y13570000D03*
D16*
X111650000Y15070000D03*
D49*
X124410000Y13430000D03*
D49*
X121860000Y13430000D03*
D49*
X120590000Y13430000D03*
D50*
X120590000Y18770000D03*
D50*
X123140000Y18770000D03*
D49*
X123140000Y13430000D03*
D50*
X124410000Y18770000D03*
D50*
X121860000Y18770000D03*
D51*
X99110000Y8250000D03*
D52*
X103410000Y8250000D03*
D25*
X38645027Y12538439D03*
D24*
X38645027Y11038439D03*
D17*
X132408244Y25596442D03*
D16*
X132408244Y27096442D03*
D37*
X3650000Y56750000D03*
D37*
X3650000Y59250000D03*
D53*
X47150027Y23853359D03*
D53*
X49690027Y21313359D03*
D53*
X47150027Y18773359D03*
D54*
X31867200Y47359996D03*
D55*
X30597200Y41059996D03*
D55*
X29327200Y47359996D03*
D55*
X29327200Y41059996D03*
D55*
X31867200Y41059996D03*
D14*
X30367200Y38689996D03*
D15*
X31867200Y38689996D03*
D30*
X106400000Y58300000D03*
D30*
X105850000Y48700000D03*
D30*
X118350000Y48700000D03*
D30*
X117800000Y51950000D03*
D30*
X118350000Y55050000D03*
D30*
X117800000Y45600000D03*
D30*
X118350000Y42350000D03*
D30*
X117800000Y58300000D03*
D30*
X105850000Y42350000D03*
D30*
X105850000Y55050000D03*
D30*
X106400000Y51950000D03*
D30*
X106400000Y45600000D03*
D56*
X116560000Y14240000D03*
D57*
X113660000Y14240000D03*
D47*
X19000000Y38450000D03*
D48*
X19000000Y41350000D03*
D58*
X42020027Y19713359D03*
D59*
X42020027Y22913359D03*
D19*
X20550000Y58000000D03*
D18*
X22050000Y58000000D03*
D15*
X36675027Y18588279D03*
D14*
X35175027Y18588279D03*
D24*
X20760000Y44399935D03*
D25*
X20760000Y45899935D03*
D18*
X20400000Y24651666D03*
D19*
X18900000Y24651666D03*
D56*
X119850000Y21460000D03*
D57*
X116950000Y21460000D03*
D30*
X155000000Y58300000D03*
D30*
X154450000Y48700000D03*
D30*
X166950000Y48700000D03*
D30*
X166400000Y51950000D03*
D30*
X166950000Y55050000D03*
D30*
X166400000Y45600000D03*
D30*
X166950000Y42350000D03*
D30*
X166400000Y58300000D03*
D30*
X154450000Y42350000D03*
D30*
X154450000Y55050000D03*
D30*
X155000000Y51950000D03*
D30*
X155000000Y45600000D03*
D60*
X36675027Y11038439D03*
D61*
X32865027Y16388279D03*
D61*
X34135027Y16388279D03*
D60*
X34135027Y11038439D03*
D61*
X36675027Y16388279D03*
D60*
X35405027Y11038439D03*
D61*
X35405027Y16388279D03*
D60*
X32865027Y11038439D03*
D16*
X26900000Y12000000D03*
D17*
X26900000Y10500000D03*
D30*
X138800000Y58300000D03*
D30*
X138250000Y48700000D03*
D30*
X150750000Y48700000D03*
D30*
X150200000Y51950000D03*
D30*
X150750000Y55050000D03*
D30*
X150200000Y45600000D03*
D30*
X150750000Y42350000D03*
D30*
X150200000Y58300000D03*
D30*
X138250000Y42350000D03*
D30*
X138250000Y55050000D03*
D30*
X138800000Y51950000D03*
D30*
X138800000Y45600000D03*
D62*
X9050000Y3400000D03*
D62*
X19210000Y3400000D03*
D62*
X21750000Y3400000D03*
D62*
X16670000Y3400000D03*
D62*
X14130000Y3400000D03*
D62*
X11590000Y3400000D03*
D52*
X13700000Y58400000D03*
D51*
X9400000Y58400000D03*
D63*
X28800000Y30900000D03*
D63*
X13800000Y30900000D03*
D63*
X21300000Y30900000D03*
D63*
X26300000Y30900000D03*
D63*
X18800000Y30900000D03*
D63*
X23800000Y30900000D03*
D63*
X8800000Y30900000D03*
D63*
X11300000Y30900000D03*
D63*
X16300000Y30900000D03*
D52*
X92950000Y8250000D03*
D51*
X88650000Y8250000D03*
D25*
X16700000Y39950000D03*
D24*
X16700000Y38450000D03*
D64*
X110730000Y6890000D03*
D64*
X110730000Y9440000D03*
D64*
X110730000Y10710000D03*
D65*
X116070000Y10710000D03*
D65*
X116070000Y8160000D03*
D64*
X110730000Y8160000D03*
D65*
X116070000Y6890000D03*
D65*
X116070000Y9440000D03*
D66*
X128088244Y22196444D03*
D67*
X128088244Y27096442D03*
D18*
X100610000Y11120000D03*
D19*
X99110000Y11120000D03*
D30*
X90200000Y58300000D03*
D30*
X89650000Y48700000D03*
D30*
X102150000Y48700000D03*
D30*
X101600000Y51950000D03*
D30*
X102150000Y55050000D03*
D30*
X101600000Y45600000D03*
D30*
X102150000Y42350000D03*
D30*
X101600000Y58300000D03*
D30*
X89650000Y42350000D03*
D30*
X89650000Y55050000D03*
D30*
X90200000Y51950000D03*
D30*
X90200000Y45600000D03*
D24*
X11018334Y16100000D03*
D25*
X11018334Y17600000D03*
D47*
X108020000Y7810000D03*
D48*
X108020000Y10710000D03*
D17*
X114940000Y20800000D03*
D16*
X114940000Y22300000D03*
D30*
X41600000Y58300000D03*
D30*
X41050000Y48700000D03*
D30*
X53550000Y48700000D03*
D30*
X53000000Y51950000D03*
D30*
X53550000Y55050000D03*
D30*
X53000000Y45600000D03*
D30*
X53550000Y42350000D03*
D30*
X53000000Y58300000D03*
D30*
X41050000Y42350000D03*
D30*
X41050000Y55050000D03*
D30*
X41600000Y51950000D03*
D30*
X41600000Y45600000D03*
D30*
X74000000Y58300000D03*
D30*
X73450000Y48700000D03*
D30*
X85950000Y48700000D03*
D30*
X85400000Y51950000D03*
D30*
X85950000Y55050000D03*
D30*
X85400000Y45600000D03*
D30*
X85950000Y42350000D03*
D30*
X85400000Y58300000D03*
D30*
X73450000Y42350000D03*
D30*
X73450000Y55050000D03*
D30*
X74000000Y51950000D03*
D30*
X74000000Y45600000D03*
D48*
X118770000Y10890000D03*
D47*
X118770000Y7990000D03*
D18*
X19450000Y8918334D03*
D19*
X17950000Y8918334D03*
D17*
X112860001Y24950000D03*
D16*
X112860001Y26450000D03*
D18*
X93040000Y11120000D03*
D19*
X91540000Y11120000D03*
D16*
X28700000Y12000000D03*
D17*
X28700000Y10500000D03*
D15*
X14130000Y5900000D03*
D14*
X12630000Y5900000D03*
D17*
X118580000Y13570000D03*
D16*
X118580000Y15070000D03*
D68*
X89110000Y23770000D03*
D68*
X33875027Y18588279D03*
D69*
X14900000Y24500000D03*
D68*
X85070000Y17420000D03*
D69*
X36675027Y14783027D03*
D68*
X92950000Y6250000D03*
D69*
X22800000Y12830000D03*
D68*
X124410000Y9780000D03*
D68*
X18900000Y26151666D03*
D68*
X19260000Y45899935D03*
D69*
X35405027Y14783027D03*
D69*
X34280000Y4940000D03*
D69*
X46085027Y9518439D03*
D68*
X40145027Y11038439D03*
D69*
X94990000Y12060000D03*
D68*
X106020000Y10710000D03*
D68*
X19250000Y56200000D03*
D69*
X20020000Y15860000D03*
D70*
X21300000Y38450000D03*
D68*
X38775027Y16388279D03*
D68*
X105510000Y19960000D03*
D68*
X110730000Y3354010D03*
D69*
X14900000Y18400000D03*
D69*
X43545027Y9518439D03*
D69*
X32865027Y9478439D03*
D69*
X33800000Y7660000D03*
D68*
X88650000Y6250000D03*
D69*
X14130000Y7560000D03*
D69*
X92400000Y2620000D03*
D68*
X85070000Y22500000D03*
D68*
X105510000Y22500000D03*
D70*
X2500000Y38450000D03*
D68*
X89110000Y26310000D03*
D69*
X43900000Y4940000D03*
D69*
X21860000Y13760000D03*
D69*
X13218334Y25100000D03*
D68*
X35387200Y41059996D03*
D69*
X32865027Y6745027D03*
D68*
X15100000Y15200000D03*
D68*
X28281666Y16000000D03*
D68*
X35900000Y48100000D03*
D68*
X135200000Y22500000D03*
D68*
X105510000Y25040000D03*
D68*
X12630000Y7500000D03*
D68*
X17950000Y7478334D03*
D68*
X85070000Y19960000D03*
D68*
X99110000Y6250000D03*
D68*
X11018334Y22040000D03*
D68*
X117030000Y18770000D03*
D69*
X43545027Y6745027D03*
D69*
X20950000Y14850000D03*
D68*
X116070000Y3790000D03*
M02*
