M48
FMAT,2
METRIC,TZ
T6C0.350
T5C0.600
T7C0.800
T4C0.900
T1C1.000
T3C1.400
T2C1.500
%
G90
G05
M71
T6
X7.400Y7.800
X24.200Y29.100
X4.200Y44.700
X32.665Y74.633
X51.664Y56.300
X44.631Y14.230
X51.664Y7.800
X22.000Y17.500
X47.864Y14.300
X57.997Y68.300
X15.150Y6.950
X26.332Y74.633
X32.665Y20.300
X25.570Y5.410
X32.040Y14.050
X25.770Y43.930
X31.800Y54.700
X39.500Y24.924
X57.997Y7.800
X27.500Y31.900
X32.270Y50.800
X32.980Y41.330
X13.666Y56.300
X57.997Y14.300
X37.430Y34.630
X19.999Y68.300
X43.300Y24.270
X45.331Y68.300
X45.331Y7.800
X33.200Y23.500
X19.999Y20.300
X27.932Y20.200
X27.500Y26.400
X40.930Y48.550
X32.270Y44.500
X30.400Y52.400
X38.998Y74.633
X12.330Y23.100
X7.333Y14.300
X26.332Y56.300
X32.665Y62.300
X46.380Y44.780
X57.997Y20.300
X10.100Y40.900
X13.700Y17.700
X53.240Y25.130
X7.140Y35.400
X13.666Y14.300
X24.200Y23.700
X1.000Y50.300
X21.060Y25.590
X33.140Y54.390
X24.000Y44.300
X57.997Y38.300
X34.470Y44.500
X41.700Y21.970
X51.664Y0.900
X19.999Y0.900
X14.800Y37.300
X17.720Y45.660
X25.990Y14.010
X12.970Y32.220
X48.100Y20.500
X39.800Y31.690
X51.650Y12.500
X7.333Y62.300
X7.333Y74.633
X9.830Y45.160
X45.100Y40.000
X23.000Y34.030
X38.750Y12.250
X7.633Y49.900
X3.760Y41.310
X42.000Y44.300
X1.000Y7.800
X57.997Y44.300
X27.500Y29.300
X37.330Y48.550
X44.900Y21.970
X55.400Y37.960
X11.100Y36.100
X32.665Y68.300
X40.830Y34.630
X50.600Y38.300
X8.770Y29.880
X1.000Y68.300
X24.090Y42.000
X19.699Y50.800
X39.498Y20.300
X54.000Y44.600
X53.690Y38.330
X26.332Y68.300
X22.800Y38.300
X12.400Y40.900
X24.930Y38.300
X13.666Y50.300
X30.300Y26.400
X26.332Y0.900
X33.370Y49.100
X45.331Y56.300
X37.100Y44.500
X35.440Y14.050
X54.430Y30.570
X32.665Y38.300
X53.010Y19.660
X57.997Y62.300
X20.100Y30.050
X31.320Y53.230
X41.910Y53.230
X1.000Y0.900
X34.280Y54.100
X8.533Y56.300
X32.265Y8.500
X34.470Y50.800
X13.666Y74.633
X8.400Y36.650
X22.020Y24.770
X23.000Y23.800
X51.664Y50.300
X7.333Y0.900
X22.190Y41.440
X38.998Y68.300
X41.500Y29.100
X19.999Y74.633
X28.300Y23.100
X13.666Y0.900
X36.200Y23.500
X45.131Y44.300
X19.999Y56.300
X26.332Y62.300
X33.330Y28.660
X7.333Y68.300
X18.400Y32.100
X33.765Y33.300
X45.331Y32.300
X1.000Y20.300
X33.370Y42.800
X5.700Y33.900
X57.997Y50.300
X26.975Y38.630
X51.664Y68.300
X1.000Y62.300
X1.000Y56.300
X13.266Y27.060
X9.600Y6.900
X38.998Y56.300
X57.997Y56.300
X24.200Y20.300
X57.997Y32.300
X13.666Y68.300
X30.400Y32.200
X26.332Y50.300
X51.760Y44.650
X35.500Y18.100
X42.000Y40.000
X39.130Y50.750
X44.931Y26.300
X51.664Y74.633
X51.664Y62.300
X3.430Y28.110
X30.300Y47.600
X30.030Y42.030
X32.665Y0.900
X13.666Y20.300
X19.599Y44.300
X37.100Y41.100
X27.600Y9.250
X7.633Y27.200
X42.050Y12.250
X11.100Y25.900
X16.400Y36.800
X22.000Y20.300
X50.000Y44.650
X1.000Y26.300
X10.570Y29.900
X15.700Y29.900
X17.150Y26.210
X45.331Y74.633
X24.190Y16.310
X1.000Y44.300
X38.998Y62.300
X46.231Y50.300
X45.331Y62.300
X19.999Y17.500
X22.020Y28.790
X24.200Y26.400
X30.400Y34.800
X26.932Y44.300
X50.364Y32.300
X18.199Y36.900
X57.997Y0.900
X44.700Y41.950
X38.998Y0.900
X1.000Y32.300
X19.999Y62.300
X48.700Y25.870
X13.666Y62.300
X24.232Y32.300
X40.390Y14.250
X38.998Y8.050
X50.650Y35.530
X6.933Y45.000
X1.000Y14.300
X19.999Y26.900
X29.200Y4.900
X27.790Y16.310
X45.331Y0.900
X2.750Y33.700
X47.300Y29.800
X1.000Y38.300
X19.700Y47.500
X21.900Y7.600
X57.997Y26.300
X7.333Y20.300
T5
X47.540Y4.900
X45.000Y2.360
X42.460Y4.900
X28.800Y10.750
T7
X29.876Y16.766
X9.630Y20.990
X43.060Y28.570
X46.150Y14.810
X31.730Y33.400
X28.910Y21.510
T4
X11.100Y39.250
X13.600Y42.550
X16.100Y42.550
X11.100Y42.550
X13.600Y39.250
X16.100Y39.250
X20.170Y2.700
X22.710Y2.700
X25.250Y2.700
T1
X52.150Y3.780
X54.650Y3.780
X30.750Y57.800
X28.250Y57.800
X4.850Y3.780
X7.350Y3.780
X30.740Y3.430
X38.360Y3.430
T3
X6.000Y46.600
X16.000Y46.600
X11.000Y46.600
X43.000Y46.600
X53.000Y46.600
X48.000Y46.600
T2
X23.750Y58.650
X23.750Y71.100
X7.450Y71.100
X23.750Y64.850
X7.450Y64.850
X7.450Y58.650
X51.550Y58.650
X51.550Y71.100
X35.250Y71.100
X51.550Y64.850
X35.250Y64.850
X35.250Y58.650
M30
