%FSLAX46Y46*%
%MOMM*%
%AMPS36*
1,1,2.300000,0.000000,0.000000*
%
%ADD36PS36*%
%AMPS52*
1,1,1.800000,0.000000,0.000000*
%
%ADD52PS52*%
%AMPS58*
1,1,1.500000,0.000000,0.000000*
%
%ADD58PS58*%
%AMPS33*
1,1,2.400000,0.000000,0.000000*
%
%ADD33PS33*%
%AMPS30*
1,1,1.900000,0.000000,0.000000*
%
%ADD30PS30*%
%AMPS49*
1,1,1.900000,0.000000,0.000000*
%
%ADD49PS49*%
%AMPS53*
1,1,1.900000,0.000000,0.000000*
%
%ADD53PS53*%
%AMPS50*
21,1,1.794948,2.941421,0.000000,0.000000,0.000000*
%
%ADD50PS50*%
%AMPS51*
21,1,1.794948,2.941421,0.000000,0.000000,180.000000*
%
%ADD51PS51*%
%AMPS37*
21,1,1.800000,3.150000,0.000000,0.000000,0.000000*
%
%ADD37PS37*%
%AMPS38*
21,1,1.800000,3.150000,0.000000,0.000000,180.000000*
%
%ADD38PS38*%
%AMPS46*
21,1,0.800000,1.750000,0.000000,0.000000,0.000000*
%
%ADD46PS46*%
%AMPS54*
21,1,0.800000,1.750000,0.000000,0.000000,90.000000*
%
%ADD54PS54*%
%AMPS45*
21,1,0.800000,1.750000,0.000000,0.000000,180.000000*
%
%ADD45PS45*%
%AMPS55*
21,1,0.800000,1.750000,0.000000,0.000000,270.000000*
%
%ADD55PS55*%
%AMPS25*
21,1,1.800000,2.700000,0.000000,0.000000,0.000000*
%
%ADD25PS25*%
%AMPS18*
21,1,1.800000,2.700000,0.000000,0.000000,90.000000*
%
%ADD18PS18*%
%AMPS24*
21,1,1.800000,2.700000,0.000000,0.000000,180.000000*
%
%ADD24PS24*%
%AMPS19*
21,1,1.800000,2.700000,0.000000,0.000000,270.000000*
%
%ADD19PS19*%
%AMPS31*
21,1,1.100000,1.200000,0.000000,0.000000,0.000000*
%
%ADD31PS31*%
%AMPS32*
21,1,1.100000,1.200000,0.000000,0.000000,180.000000*
%
%ADD32PS32*%
%AMPS34*
21,1,0.600000,1.100000,0.000000,0.000000,90.000000*
%
%ADD34PS34*%
%AMPS35*
21,1,0.600000,1.100000,0.000000,0.000000,270.000000*
%
%ADD35PS35*%
%AMPS21*
21,1,0.800000,2.000000,0.000000,0.000000,0.000000*
%
%ADD21PS21*%
%AMPS20*
21,1,0.800000,2.000000,0.000000,0.000000,180.000000*
%
%ADD20PS20*%
%AMPS23*
21,1,0.901421,1.691421,0.000000,0.000000,90.000000*
%
%ADD23PS23*%
%AMPS22*
21,1,0.901421,1.691421,0.000000,0.000000,270.000000*
%
%ADD22PS22*%
%AMPS39*
21,1,2.000000,1.540000,0.000000,0.000000,0.000000*
%
%ADD39PS39*%
%AMPS43*
21,1,2.000000,1.540000,0.000000,0.000000,90.000000*
%
%ADD43PS43*%
%AMPS40*
21,1,2.000000,1.540000,0.000000,0.000000,180.000000*
%
%ADD40PS40*%
%AMPS44*
21,1,2.000000,1.540000,0.000000,0.000000,270.000000*
%
%ADD44PS44*%
%AMPS15*
21,1,2.000000,1.400000,0.000000,0.000000,0.000000*
%
%ADD15PS15*%
%AMPS48*
21,1,2.000000,1.400000,0.000000,0.000000,90.000000*
%
%ADD48PS48*%
%AMPS14*
21,1,2.000000,1.400000,0.000000,0.000000,180.000000*
%
%ADD14PS14*%
%AMPS47*
21,1,2.000000,1.400000,0.000000,0.000000,270.000000*
%
%ADD47PS47*%
%AMPS28*
21,1,1.100000,0.700000,0.000000,0.000000,0.000000*
%
%ADD28PS28*%
%AMPS17*
21,1,1.100000,0.700000,0.000000,0.000000,90.000000*
%
%ADD17PS17*%
%AMPS29*
21,1,1.100000,0.700000,0.000000,0.000000,180.000000*
%
%ADD29PS29*%
%AMPS16*
21,1,1.100000,0.700000,0.000000,0.000000,270.000000*
%
%ADD16PS16*%
%AMPS57*
21,1,1.900000,1.300000,0.000000,0.000000,90.000000*
%
%ADD57PS57*%
%AMPS56*
21,1,1.900000,1.300000,0.000000,0.000000,270.000000*
%
%ADD56PS56*%
%AMPS41*
21,1,0.900000,1.100000,0.000000,0.000000,0.000000*
%
%ADD41PS41*%
%AMPS42*
21,1,0.900000,1.100000,0.000000,0.000000,180.000000*
%
%ADD42PS42*%
%AMPS13*
21,1,1.050000,1.000000,0.000000,0.000000,0.000000*
%
%ADD13PS13*%
%AMPS11*
21,1,1.050000,1.000000,0.000000,0.000000,90.000000*
%
%ADD11PS11*%
%AMPS12*
21,1,1.050000,1.000000,0.000000,0.000000,180.000000*
%
%ADD12PS12*%
%AMPS10*
21,1,1.050000,1.000000,0.000000,0.000000,270.000000*
%
%ADD10PS10*%
%AMPS27*
21,1,1.950000,2.850000,0.000000,0.000000,0.000000*
%
%ADD27PS27*%
%AMPS26*
21,1,1.950000,2.850000,0.000000,0.000000,180.000000*
%
%ADD26PS26*%
%AMPS60*
1,1,1.000000,0.000000,0.000000*
%
%ADD60PS60*%
%AMPS61*
1,1,0.800000,0.000000,0.000000*
%
%ADD61PS61*%
%AMPS62*
1,1,0.900000,0.000000,0.000000*
%
%ADD62PS62*%
%AMPS59*
1,1,0.550000,0.000000,0.000000*
%
%ADD59PS59*%
G01*
G01*
%LPD*%
G75*
D10*
X8130000Y30960000D03*
D11*
X9630000Y30960000D03*
D12*
X53690000Y37130000D03*
D13*
X53690000Y35630000D03*
D14*
X28890000Y27860000D03*
D15*
X28890000Y24960000D03*
D16*
X5830000Y23860000D03*
D17*
X7330000Y23860000D03*
D11*
X11130000Y23100000D03*
D10*
X9630000Y23100000D03*
D18*
X49450000Y12500000D03*
D19*
X46150000Y12500000D03*
D20*
X30870000Y50800000D03*
D21*
X33370000Y44500000D03*
D21*
X30870000Y44500000D03*
D20*
X33370000Y50800000D03*
D22*
X21325000Y44790000D03*
D23*
X28475000Y47330000D03*
D23*
X28475000Y52410000D03*
D23*
X28475000Y49870000D03*
D22*
X21325000Y47330000D03*
D22*
X21325000Y52410000D03*
D23*
X28475000Y44790000D03*
D22*
X21325000Y49870000D03*
D15*
X5830000Y27810000D03*
D14*
X5830000Y30710000D03*
D24*
X33740000Y14050000D03*
D25*
X33740000Y10750000D03*
D26*
X39130000Y48550000D03*
D27*
X39130000Y44250000D03*
D17*
X5130000Y32760000D03*
D16*
X3630000Y32760000D03*
D12*
X50000000Y43450000D03*
D13*
X50000000Y41950000D03*
D28*
X16400000Y32750000D03*
D29*
X16400000Y34250000D03*
D15*
X31740000Y22060000D03*
D14*
X31740000Y24960000D03*
D30*
X52150000Y3780000D03*
D30*
X54650000Y3780000D03*
D31*
X41340000Y10750000D03*
D32*
X40390000Y12950000D03*
D31*
X39440000Y10750000D03*
D33*
X23750000Y58650000D03*
D33*
X23750000Y71100000D03*
D33*
X7450000Y71100000D03*
D33*
X23750000Y64850000D03*
D33*
X7450000Y64850000D03*
D33*
X7450000Y58650000D03*
D29*
X51850000Y33970000D03*
D28*
X51850000Y32470000D03*
D34*
X28475000Y42000000D03*
D35*
X26275000Y42000000D03*
D15*
X39800000Y27390000D03*
D14*
X39800000Y30290000D03*
D13*
X17150000Y27410000D03*
D12*
X17150000Y28910000D03*
D29*
X48190000Y43450000D03*
D28*
X48190000Y41950000D03*
D29*
X53690000Y33970000D03*
D28*
X53690000Y32470000D03*
D12*
X37550000Y12250000D03*
D13*
X37550000Y10750000D03*
D36*
X6000000Y46600000D03*
D36*
X16000000Y46600000D03*
D36*
X11000000Y46600000D03*
D37*
X25990000Y16310000D03*
D38*
X25990000Y21510000D03*
D10*
X26975000Y39830000D03*
D11*
X28475000Y39830000D03*
D36*
X43000000Y46600000D03*
D36*
X53000000Y46600000D03*
D36*
X48000000Y46600000D03*
D17*
X16470000Y31020000D03*
D16*
X14970000Y31020000D03*
D28*
X51850000Y35530000D03*
D29*
X51850000Y37030000D03*
D39*
X37700000Y16766117D03*
D40*
X37700000Y19633883D03*
D41*
X18690000Y13080000D03*
D41*
X19990000Y13080000D03*
D42*
X19340000Y14980000D03*
D43*
X28863883Y33400000D03*
D44*
X25996117Y33400000D03*
D45*
X50690000Y28570000D03*
D45*
X53240000Y28570000D03*
D45*
X54510000Y28570000D03*
D46*
X54510000Y23230000D03*
D46*
X51960000Y23230000D03*
D45*
X51960000Y28570000D03*
D46*
X50690000Y23230000D03*
D46*
X53240000Y23230000D03*
D16*
X51850000Y30800000D03*
D17*
X53350000Y30800000D03*
D39*
X37700000Y22056117D03*
D40*
X37700000Y24923883D03*
D46*
X24410000Y5410000D03*
D46*
X21860000Y5410000D03*
D46*
X20590000Y5410000D03*
D45*
X20590000Y10750000D03*
D45*
X23140000Y10750000D03*
D46*
X23140000Y5410000D03*
D45*
X24410000Y10750000D03*
D45*
X21860000Y10750000D03*
D47*
X25990000Y30500000D03*
D48*
X28890000Y30500000D03*
D39*
X34680000Y22056117D03*
D40*
X34680000Y24923883D03*
D49*
X30750000Y57800000D03*
D49*
X28250000Y57800000D03*
D50*
X47490000Y32130001D03*
D51*
X47490000Y37029999D03*
D29*
X21860000Y14280000D03*
D28*
X21860000Y12780000D03*
D30*
X4850000Y3780000D03*
D30*
X7350000Y3780000D03*
D52*
X11100000Y39250000D03*
D52*
X13600000Y42550000D03*
D52*
X16100000Y42550000D03*
D52*
X11100000Y42550000D03*
D52*
X13600000Y39250000D03*
D52*
X16100000Y39250000D03*
D53*
X30740000Y3430000D03*
D53*
X38360000Y3430000D03*
D40*
X25990000Y27843883D03*
D39*
X25990000Y24976117D03*
D37*
X39130000Y34630000D03*
D38*
X39130000Y39830000D03*
D12*
X34180000Y41330000D03*
D13*
X34180000Y39830000D03*
D13*
X51760000Y41950000D03*
D12*
X51760000Y43450000D03*
D31*
X32280000Y39830000D03*
D32*
X31330000Y42030000D03*
D31*
X30380000Y39830000D03*
D12*
X43250000Y12250000D03*
D13*
X43250000Y10750000D03*
D28*
X3430000Y29210000D03*
D29*
X3430000Y30710000D03*
D10*
X53010000Y21060000D03*
D11*
X54510000Y21060000D03*
D37*
X43300000Y16770000D03*
D38*
X43300000Y21970000D03*
D52*
X20170000Y2700000D03*
D52*
X22710000Y2700000D03*
D52*
X25250000Y2700000D03*
D47*
X11470000Y33420000D03*
D48*
X14370000Y33420000D03*
D54*
X37070000Y31210000D03*
D54*
X37070000Y28660000D03*
D54*
X37070000Y27390000D03*
D55*
X31730000Y27390000D03*
D55*
X31730000Y29940000D03*
D54*
X37070000Y29940000D03*
D55*
X31730000Y31210000D03*
D55*
X31730000Y28660000D03*
D54*
X14970000Y28910000D03*
D54*
X14970000Y26360000D03*
D54*
X14970000Y25090000D03*
D55*
X9630000Y25090000D03*
D55*
X9630000Y27640000D03*
D54*
X14970000Y27640000D03*
D55*
X9630000Y28910000D03*
D55*
X9630000Y26360000D03*
D56*
X30700000Y7000000D03*
D57*
X33900000Y7000000D03*
D13*
X46380000Y41950000D03*
D12*
X46380000Y43450000D03*
D50*
X20730000Y32240001D03*
D51*
X20730000Y37139999D03*
D13*
X26380000Y9250000D03*
D12*
X26380000Y10750000D03*
D13*
X48700000Y27070000D03*
D12*
X48700000Y28570000D03*
D17*
X49550000Y40140000D03*
D16*
X48050000Y40140000D03*
D58*
X47540000Y4900000D03*
D58*
X45000000Y2360000D03*
D58*
X42460000Y4900000D03*
D17*
X12970000Y31020000D03*
D16*
X11470000Y31020000D03*
D29*
X18580000Y11310000D03*
D28*
X18580000Y9810000D03*
D17*
X7330000Y25760000D03*
D16*
X5830000Y25760000D03*
D17*
X22230000Y40239999D03*
D16*
X20730000Y40239999D03*
D33*
X51550000Y58650000D03*
D33*
X51550000Y71100000D03*
D33*
X35250000Y71100000D03*
D33*
X51550000Y64850000D03*
D33*
X35250000Y64850000D03*
D33*
X35250000Y58650000D03*
D17*
X8130000Y32760000D03*
D16*
X6630000Y32760000D03*
D24*
X3760000Y39010000D03*
D25*
X3760000Y35710000D03*
D59*
X32665000Y74633000D03*
D59*
X57997000Y68300000D03*
D59*
X26332000Y74633000D03*
D59*
X25770000Y43930000D03*
D59*
X57997000Y7800000D03*
D59*
X57997000Y14300000D03*
D59*
X38998000Y74633000D03*
D59*
X46380000Y44780000D03*
D59*
X57997000Y20300000D03*
D60*
X29876117Y16766117D03*
D59*
X1000000Y50300000D03*
D59*
X21060000Y25590000D03*
D61*
X28800000Y10750000D03*
D59*
X33140000Y54390000D03*
D59*
X57997000Y38300000D03*
D59*
X51664000Y900000D03*
D59*
X19999000Y900000D03*
D59*
X7333000Y74633000D03*
D60*
X9630000Y20990000D03*
D59*
X1000000Y7800000D03*
D59*
X57997000Y44300000D03*
D59*
X55400000Y37960078D03*
D59*
X1000000Y68300000D03*
D59*
X24090000Y42000000D03*
D59*
X26332000Y900000D03*
D59*
X57997000Y62300000D03*
D59*
X31320000Y53230000D03*
D59*
X41910000Y53230000D03*
D59*
X1000000Y900000D03*
D59*
X13666000Y74633000D03*
D59*
X23000000Y23800000D03*
D59*
X7333000Y900000D03*
D59*
X19999000Y74633000D03*
D59*
X13666000Y900000D03*
D59*
X1000000Y20300000D03*
D59*
X57997000Y50300000D03*
D59*
X1000000Y62300000D03*
D59*
X1000000Y56300000D03*
D59*
X57997000Y56300000D03*
D59*
X57997000Y32300000D03*
D60*
X43060000Y28570000D03*
D59*
X51664000Y74633000D03*
D60*
X46150000Y14810000D03*
D59*
X32665000Y900000D03*
D59*
X16400000Y36800000D03*
D59*
X1000000Y26300000D03*
D59*
X45331000Y74633000D03*
D59*
X1000000Y44300000D03*
D62*
X31730000Y33400000D03*
D59*
X57997000Y900000D03*
D59*
X44700000Y41950000D03*
D60*
X28910000Y21510000D03*
D59*
X38998000Y900000D03*
D59*
X1000000Y32300000D03*
D59*
X1000000Y14300000D03*
D59*
X45331000Y900000D03*
D59*
X1000000Y38300000D03*
D59*
X57997000Y26300000D03*
M02*
