%FSLAX46Y46*%
%MOMM*%
%ADD11C,0.050000*%
%ADD12C,0.100000*%
%ADD10C,0.150000*%
G01*
G01*
%LPD*%
D10*
X17173334Y16006190D02*
X17268572Y16053810D01*
D10*
X17078096Y15910952D02*
X17173334Y16006190D01*
D10*
X17030476Y15815714D02*
X17078096Y15910952D01*
D10*
X16982858Y15672857D02*
X17030476Y15815714D01*
D10*
X16982858Y15434762D02*
X16982858Y15672857D01*
D10*
X17030476Y15291905D02*
X16982858Y15434762D01*
D10*
X17078096Y15196667D02*
X17030476Y15291905D01*
D10*
X17173334Y15101429D02*
X17078096Y15196667D01*
D10*
X17268572Y15053810D02*
X17173334Y15101429D01*
D10*
X17459048Y15053810D02*
X17268572Y15053810D01*
D10*
X17554286Y15101429D02*
X17459048Y15053810D01*
D10*
X17649524Y15196667D02*
X17554286Y15101429D01*
D10*
X17697142Y15291905D02*
X17649524Y15196667D01*
D10*
X17744762Y15434762D02*
X17697142Y15291905D01*
D10*
X17744762Y15672857D02*
X17744762Y15434762D01*
D10*
X17697142Y15815714D02*
X17744762Y15672857D01*
D10*
X17649524Y15910952D02*
X17697142Y15815714D01*
D10*
X17554286Y16006190D02*
X17649524Y15910952D01*
D10*
X17459048Y16053810D02*
X17554286Y16006190D01*
D10*
X17268572Y16053810D02*
X17459048Y16053810D01*
D10*
X17697142Y14958571D02*
X17411428Y15244286D01*
D10*
X18268572Y15910952D02*
X18173334Y15863333D01*
D10*
X18411428Y16053810D02*
X18268572Y15910952D01*
D10*
X18411428Y15053810D02*
X18411428Y16053810D01*
D10*
X53980952Y9723810D02*
X53695240Y10390476D01*
D10*
X53980952Y9723810D02*
X54266668Y10390476D01*
D10*
X54552380Y10533333D02*
X54552380Y10485714D01*
D10*
X54600000Y10628571D02*
X54552380Y10533333D01*
D10*
X54647620Y10676190D02*
X54600000Y10628571D01*
D10*
X54742856Y10723810D02*
X54647620Y10676190D01*
D10*
X54933332Y10723810D02*
X54742856Y10723810D01*
D10*
X55028572Y10676190D02*
X54933332Y10723810D01*
D10*
X55076192Y10628571D02*
X55028572Y10676190D01*
D10*
X55123808Y10533333D02*
X55076192Y10628571D01*
D10*
X55123808Y10438095D02*
X55123808Y10533333D01*
D10*
X55076192Y10342857D02*
X55123808Y10438095D01*
D10*
X54980952Y10200000D02*
X55076192Y10342857D01*
D10*
X54504760Y9723810D02*
X54980952Y10200000D01*
D10*
X55171428Y9723810D02*
X54504760Y9723810D01*
D10*
X55504760Y9771429D02*
X55552380Y9819048D01*
D10*
X55552380Y9723810D02*
X55504760Y9771429D01*
D10*
X55600000Y9771429D02*
X55552380Y9723810D01*
D10*
X55552380Y9819048D02*
X55600000Y9771429D01*
D10*
X56076192Y10676190D02*
X56219048Y10723810D01*
D10*
X55980952Y10533333D02*
X56076192Y10676190D01*
D10*
X55933332Y10295238D02*
X55980952Y10533333D01*
D10*
X55933332Y10152381D02*
X55933332Y10295238D01*
D10*
X55980952Y9914286D02*
X55933332Y10152381D01*
D10*
X56076192Y9771429D02*
X55980952Y9914286D01*
D10*
X56219048Y9723810D02*
X56076192Y9771429D01*
D10*
X56314284Y9723810D02*
X56219048Y9723810D01*
D10*
X56457144Y9771429D02*
X56314284Y9723810D01*
D10*
X56552380Y9914286D02*
X56457144Y9771429D01*
D10*
X56600000Y10152381D02*
X56552380Y9914286D01*
D10*
X56600000Y10295238D02*
X56600000Y10152381D01*
D10*
X56552380Y10533333D02*
X56600000Y10295238D01*
D10*
X56457144Y10676190D02*
X56552380Y10533333D01*
D10*
X56314284Y10723810D02*
X56457144Y10676190D01*
D10*
X56219048Y10723810D02*
X56314284Y10723810D01*
D10*
X2301190Y29078096D02*
X1301190Y29078096D01*
D10*
X1301190Y29506666D02*
X1301190Y29078096D01*
D10*
X1348809Y29649524D02*
X1301190Y29506666D01*
D10*
X1396428Y29697142D02*
X1348809Y29649524D01*
D10*
X1491666Y29744762D02*
X1396428Y29697142D01*
D10*
X1586904Y29744762D02*
X1491666Y29744762D01*
D10*
X1682142Y29697142D02*
X1586904Y29744762D01*
D10*
X1729761Y29649524D02*
X1682142Y29697142D01*
D10*
X1777381Y29506666D02*
X1729761Y29649524D01*
D10*
X1777381Y29078096D02*
X1777381Y29506666D01*
D10*
X2301190Y29744762D02*
X1777381Y29411428D01*
D10*
X1348809Y30125714D02*
X1301190Y30268572D01*
D10*
X1444047Y30078096D02*
X1348809Y30125714D01*
D10*
X1539285Y30078096D02*
X1444047Y30078096D01*
D10*
X1634523Y30125714D02*
X1539285Y30078096D01*
D10*
X1682142Y30220952D02*
X1634523Y30125714D01*
D10*
X1729761Y30411428D02*
X1682142Y30220952D01*
D10*
X1777381Y30554286D02*
X1729761Y30411428D01*
D10*
X1872619Y30649524D02*
X1777381Y30554286D01*
D10*
X1967857Y30697142D02*
X1872619Y30649524D01*
D10*
X2110714Y30697142D02*
X1967857Y30697142D01*
D10*
X2205952Y30649524D02*
X2110714Y30697142D01*
D10*
X2253571Y30601904D02*
X2205952Y30649524D01*
D10*
X2301190Y30459048D02*
X2253571Y30601904D01*
D10*
X2301190Y30268572D02*
X2301190Y30459048D01*
D10*
X2253571Y30125714D02*
X2301190Y30268572D01*
D10*
X2205952Y30078096D02*
X2253571Y30125714D01*
D10*
X2110714Y30030476D02*
X2205952Y30078096D01*
D10*
X1967857Y30030476D02*
X2110714Y30030476D01*
D10*
X1872619Y30078096D02*
X1967857Y30030476D01*
D10*
X1777381Y30173334D02*
X1872619Y30078096D01*
D10*
X1729761Y30316190D02*
X1777381Y30173334D01*
D10*
X1682142Y30506666D02*
X1729761Y30316190D01*
D10*
X1634523Y30601904D02*
X1682142Y30506666D01*
D10*
X1539285Y30649524D02*
X1634523Y30601904D01*
D10*
X1444047Y30649524D02*
X1539285Y30649524D01*
D10*
X1348809Y30601904D02*
X1444047Y30649524D01*
D10*
X1301190Y30459048D02*
X1348809Y30601904D01*
D10*
X1301190Y30268572D02*
X1301190Y30459048D01*
D10*
X2564523Y27915952D02*
X2612143Y27820714D01*
D10*
X2469285Y28011190D02*
X2564523Y27915952D01*
D10*
X2374047Y28058810D02*
X2469285Y28011190D01*
D10*
X2183571Y28058810D02*
X2374047Y28058810D01*
D10*
X2088333Y28011190D02*
X2183571Y28058810D01*
D10*
X1993095Y27915952D02*
X2088333Y28011190D01*
D10*
X1945476Y27820714D02*
X1993095Y27915952D01*
D10*
X1897857Y27677858D02*
X1945476Y27820714D01*
D10*
X1897857Y27439762D02*
X1897857Y27677858D01*
D10*
X1945476Y27296904D02*
X1897857Y27439762D01*
D10*
X1993095Y27201666D02*
X1945476Y27296904D01*
D10*
X2088333Y27106428D02*
X1993095Y27201666D01*
D10*
X2183571Y27058810D02*
X2088333Y27106428D01*
D10*
X2374047Y27058810D02*
X2183571Y27058810D01*
D10*
X2469285Y27106428D02*
X2374047Y27058810D01*
D10*
X2564523Y27201666D02*
X2469285Y27106428D01*
D10*
X2612143Y27296904D02*
X2564523Y27201666D01*
D10*
X2945476Y27868334D02*
X2945476Y27820714D01*
D10*
X2993095Y27963572D02*
X2945476Y27868334D01*
D10*
X3040714Y28011190D02*
X2993095Y27963572D01*
D10*
X3135952Y28058810D02*
X3040714Y28011190D01*
D10*
X3326428Y28058810D02*
X3135952Y28058810D01*
D10*
X3421666Y28011190D02*
X3326428Y28058810D01*
D10*
X3469285Y27963572D02*
X3421666Y28011190D01*
D10*
X3516904Y27868334D02*
X3469285Y27963572D01*
D10*
X3516904Y27773096D02*
X3516904Y27868334D01*
D10*
X3469285Y27677858D02*
X3516904Y27773096D01*
D10*
X3374047Y27535000D02*
X3469285Y27677858D01*
D10*
X2897857Y27058810D02*
X3374047Y27535000D01*
D10*
X3564523Y27058810D02*
X2897857Y27058810D01*
D10*
X4088333Y27915952D02*
X3993095Y27868334D01*
D10*
X4231190Y28058810D02*
X4088333Y27915952D01*
D10*
X4231190Y27058810D02*
X4231190Y28058810D01*
D10*
X28509048Y22967142D02*
X28604286Y23014762D01*
D10*
X28413810Y22871904D02*
X28509048Y22967142D01*
D10*
X28366190Y22776666D02*
X28413810Y22871904D01*
D10*
X28366190Y22586190D02*
X28366190Y22776666D01*
D10*
X28413810Y22490952D02*
X28366190Y22586190D01*
D10*
X28509048Y22395714D02*
X28413810Y22490952D01*
D10*
X28604286Y22348096D02*
X28509048Y22395714D01*
D10*
X28747142Y22300476D02*
X28604286Y22348096D01*
D10*
X28985238Y22300476D02*
X28747142Y22300476D01*
D10*
X29128096Y22348096D02*
X28985238Y22300476D01*
D10*
X29223334Y22395714D02*
X29128096Y22348096D01*
D10*
X29318572Y22490952D02*
X29223334Y22395714D01*
D10*
X29366190Y22586190D02*
X29318572Y22490952D01*
D10*
X29366190Y22776666D02*
X29366190Y22586190D01*
D10*
X29318572Y22871904D02*
X29366190Y22776666D01*
D10*
X29223334Y22967142D02*
X29318572Y22871904D01*
D10*
X29128096Y23014762D02*
X29223334Y22967142D01*
D10*
X28366190Y23919524D02*
X28366190Y23395714D01*
D10*
X28747142Y23633810D02*
X28366190Y23919524D01*
D10*
X28747142Y23776666D02*
X28747142Y23633810D01*
D10*
X28794762Y23871904D02*
X28747142Y23776666D01*
D10*
X28842380Y23919524D02*
X28794762Y23871904D01*
D10*
X28985238Y23967142D02*
X28842380Y23919524D01*
D10*
X29080476Y23967142D02*
X28985238Y23967142D01*
D10*
X29223334Y23919524D02*
X29080476Y23967142D01*
D10*
X29318572Y23824286D02*
X29223334Y23919524D01*
D10*
X29366190Y23681428D02*
X29318572Y23824286D01*
D10*
X29366190Y23538572D02*
X29366190Y23681428D01*
D10*
X29318572Y23395714D02*
X29366190Y23538572D01*
D10*
X29270952Y23348096D02*
X29318572Y23395714D01*
D10*
X29175714Y23300476D02*
X29270952Y23348096D01*
D10*
X56684048Y35889524D02*
X56779284Y35937144D01*
D10*
X56588808Y35794284D02*
X56684048Y35889524D01*
D10*
X56541192Y35699048D02*
X56588808Y35794284D01*
D10*
X56541192Y35508572D02*
X56541192Y35699048D01*
D10*
X56588808Y35413332D02*
X56541192Y35508572D01*
D10*
X56684048Y35318096D02*
X56588808Y35413332D01*
D10*
X56779284Y35270476D02*
X56684048Y35318096D01*
D10*
X56922144Y35222856D02*
X56779284Y35270476D01*
D10*
X57160240Y35222856D02*
X56922144Y35222856D01*
D10*
X57303096Y35270476D02*
X57160240Y35222856D01*
D10*
X57398332Y35318096D02*
X57303096Y35270476D01*
D10*
X57493572Y35413332D02*
X57398332Y35318096D01*
D10*
X57541192Y35508572D02*
X57493572Y35413332D01*
D10*
X57541192Y35699048D02*
X57541192Y35508572D01*
D10*
X57493572Y35794284D02*
X57541192Y35699048D01*
D10*
X57398332Y35889524D02*
X57493572Y35794284D01*
D10*
X57303096Y35937144D02*
X57398332Y35889524D01*
D10*
X56731668Y36270476D02*
X56779284Y36270476D01*
D10*
X56636428Y36318096D02*
X56731668Y36270476D01*
D10*
X56588808Y36365716D02*
X56636428Y36318096D01*
D10*
X56541192Y36460952D02*
X56588808Y36365716D01*
D10*
X56541192Y36651428D02*
X56541192Y36460952D01*
D10*
X56588808Y36746668D02*
X56541192Y36651428D01*
D10*
X56636428Y36794284D02*
X56588808Y36746668D01*
D10*
X56731668Y36841904D02*
X56636428Y36794284D01*
D10*
X56826904Y36841904D02*
X56731668Y36841904D01*
D10*
X56922144Y36794284D02*
X56826904Y36841904D01*
D10*
X57065000Y36699048D02*
X56922144Y36794284D01*
D10*
X57541192Y36222856D02*
X57065000Y36699048D01*
D10*
X57541192Y36889524D02*
X57541192Y36222856D01*
D10*
X57541192Y37365716D02*
X56541192Y37841904D01*
D10*
X56541192Y37841904D02*
X56541192Y37175240D01*
D10*
X12789524Y23480952D02*
X12837143Y23385714D01*
D10*
X12694286Y23576190D02*
X12789524Y23480952D01*
D10*
X12599048Y23623810D02*
X12694286Y23576190D01*
D10*
X12408571Y23623810D02*
X12599048Y23623810D01*
D10*
X12313333Y23576190D02*
X12408571Y23623810D01*
D10*
X12218095Y23480952D02*
X12313333Y23576190D01*
D10*
X12170476Y23385714D02*
X12218095Y23480952D01*
D10*
X12122857Y23242858D02*
X12170476Y23385714D01*
D10*
X12122857Y23004762D02*
X12122857Y23242858D01*
D10*
X12170476Y22861904D02*
X12122857Y23004762D01*
D10*
X12218095Y22766666D02*
X12170476Y22861904D01*
D10*
X12313333Y22671428D02*
X12218095Y22766666D01*
D10*
X12408571Y22623810D02*
X12313333Y22671428D01*
D10*
X12599048Y22623810D02*
X12408571Y22623810D01*
D10*
X12694286Y22671428D02*
X12599048Y22623810D01*
D10*
X12789524Y22766666D02*
X12694286Y22671428D01*
D10*
X12837143Y22861904D02*
X12789524Y22766666D01*
D10*
X13694286Y23147620D02*
X13741905Y23290476D01*
D10*
X13599048Y23052380D02*
X13694286Y23147620D01*
D10*
X13456190Y23004762D02*
X13599048Y23052380D01*
D10*
X13408571Y23004762D02*
X13456190Y23004762D01*
D10*
X13265714Y23052380D02*
X13408571Y23004762D01*
D10*
X13170476Y23147620D02*
X13265714Y23052380D01*
D10*
X13122857Y23290476D02*
X13170476Y23147620D01*
D10*
X13122857Y23338096D02*
X13122857Y23290476D01*
D10*
X13170476Y23480952D02*
X13122857Y23338096D01*
D10*
X13265714Y23576190D02*
X13170476Y23480952D01*
D10*
X13408571Y23623810D02*
X13265714Y23576190D01*
D10*
X13456190Y23623810D02*
X13408571Y23623810D01*
D10*
X13599048Y23576190D02*
X13456190Y23623810D01*
D10*
X13694286Y23480952D02*
X13599048Y23576190D01*
D10*
X13741905Y23290476D02*
X13694286Y23480952D01*
D10*
X13741905Y23052380D02*
X13741905Y23290476D01*
D10*
X13694286Y22814286D02*
X13741905Y23052380D01*
D10*
X13599048Y22671428D02*
X13694286Y22814286D01*
D10*
X13456190Y22623810D02*
X13599048Y22671428D01*
D10*
X13360952Y22623810D02*
X13456190Y22623810D01*
D10*
X13218095Y22671428D02*
X13360952Y22623810D01*
D10*
X13170476Y22766666D02*
X13218095Y22671428D01*
D10*
X37034524Y14080952D02*
X37082144Y13985714D01*
D10*
X36939284Y14176190D02*
X37034524Y14080952D01*
D10*
X36844048Y14223810D02*
X36939284Y14176190D01*
D10*
X36653572Y14223810D02*
X36844048Y14223810D01*
D10*
X36558332Y14176190D02*
X36653572Y14223810D01*
D10*
X36463096Y14080952D02*
X36558332Y14176190D01*
D10*
X36415476Y13985714D02*
X36463096Y14080952D01*
D10*
X36367856Y13842857D02*
X36415476Y13985714D01*
D10*
X36367856Y13604762D02*
X36367856Y13842857D01*
D10*
X36415476Y13461905D02*
X36367856Y13604762D01*
D10*
X36463096Y13366667D02*
X36415476Y13461905D01*
D10*
X36558332Y13271429D02*
X36463096Y13366667D01*
D10*
X36653572Y13223810D02*
X36558332Y13271429D01*
D10*
X36844048Y13223810D02*
X36653572Y13223810D01*
D10*
X36939284Y13271429D02*
X36844048Y13223810D01*
D10*
X37034524Y13366667D02*
X36939284Y13271429D01*
D10*
X37082144Y13461905D02*
X37034524Y13366667D01*
D10*
X37605952Y14080952D02*
X37510716Y14033333D01*
D10*
X37748808Y14223810D02*
X37605952Y14080952D01*
D10*
X37748808Y13223810D02*
X37748808Y14223810D01*
D10*
X38320240Y13557143D02*
X38796428Y14223810D01*
D10*
X39034524Y13557143D02*
X38320240Y13557143D01*
D10*
X38796428Y13223810D02*
X38796428Y14223810D01*
D10*
X41244048Y28824524D02*
X41339284Y28872142D01*
D10*
X41148808Y28729286D02*
X41244048Y28824524D01*
D10*
X41101192Y28634048D02*
X41148808Y28729286D01*
D10*
X41101192Y28443572D02*
X41101192Y28634048D01*
D10*
X41148808Y28348334D02*
X41101192Y28443572D01*
D10*
X41244048Y28253096D02*
X41148808Y28348334D01*
D10*
X41339284Y28205476D02*
X41244048Y28253096D01*
D10*
X41482144Y28157858D02*
X41339284Y28205476D01*
D10*
X41720240Y28157858D02*
X41482144Y28157858D01*
D10*
X41863096Y28205476D02*
X41720240Y28157858D01*
D10*
X41958332Y28253096D02*
X41863096Y28205476D01*
D10*
X42053572Y28348334D02*
X41958332Y28253096D01*
D10*
X42101192Y28443572D02*
X42053572Y28348334D01*
D10*
X42101192Y28634048D02*
X42101192Y28443572D01*
D10*
X42053572Y28729286D02*
X42101192Y28634048D01*
D10*
X41958332Y28824524D02*
X42053572Y28729286D01*
D10*
X41863096Y28872142D02*
X41958332Y28824524D01*
D10*
X41101192Y29253096D02*
X41101192Y29729286D01*
D10*
X41529760Y29205476D02*
X41101192Y29253096D01*
D10*
X41482144Y29253096D02*
X41529760Y29205476D01*
D10*
X41434524Y29395952D02*
X41482144Y29253096D01*
D10*
X41434524Y29538810D02*
X41434524Y29395952D01*
D10*
X41482144Y29681666D02*
X41434524Y29538810D01*
D10*
X41577380Y29776904D02*
X41482144Y29681666D01*
D10*
X41720240Y29824524D02*
X41577380Y29776904D01*
D10*
X41815476Y29824524D02*
X41720240Y29824524D01*
D10*
X41958332Y29776904D02*
X41815476Y29824524D01*
D10*
X42053572Y29681666D02*
X41958332Y29776904D01*
D10*
X42101192Y29538810D02*
X42053572Y29681666D01*
D10*
X42101192Y29395952D02*
X42101192Y29538810D01*
D10*
X42053572Y29253096D02*
X42101192Y29395952D01*
D10*
X42005952Y29205476D02*
X42053572Y29253096D01*
D10*
X41910716Y29157858D02*
X42005952Y29205476D01*
D10*
X40326192Y22753096D02*
X39326192Y22753096D01*
D10*
X39326192Y23086428D02*
X39326192Y22753096D01*
D10*
X39373808Y23229286D02*
X39326192Y23086428D01*
D10*
X39469048Y23324524D02*
X39373808Y23229286D01*
D10*
X39564284Y23372142D02*
X39469048Y23324524D01*
D10*
X39707144Y23419762D02*
X39564284Y23372142D01*
D10*
X39945240Y23419762D02*
X39707144Y23419762D01*
D10*
X40088096Y23372142D02*
X39945240Y23419762D01*
D10*
X40183332Y23324524D02*
X40088096Y23372142D01*
D10*
X40278572Y23229286D02*
X40183332Y23324524D01*
D10*
X40326192Y23086428D02*
X40278572Y23229286D01*
D10*
X40326192Y22753096D02*
X40326192Y23086428D01*
D10*
X39326192Y23800714D02*
X39326192Y24276904D01*
D10*
X39754760Y23753096D02*
X39326192Y23800714D01*
D10*
X39707144Y23800714D02*
X39754760Y23753096D01*
D10*
X39659524Y23943572D02*
X39707144Y23800714D01*
D10*
X39659524Y24086428D02*
X39659524Y23943572D01*
D10*
X39707144Y24229286D02*
X39659524Y24086428D01*
D10*
X39802380Y24324524D02*
X39707144Y24229286D01*
D10*
X39945240Y24372142D02*
X39802380Y24324524D01*
D10*
X40040476Y24372142D02*
X39945240Y24372142D01*
D10*
X40183332Y24324524D02*
X40040476Y24372142D01*
D10*
X40278572Y24229286D02*
X40183332Y24324524D01*
D10*
X40326192Y24086428D02*
X40278572Y24229286D01*
D10*
X40326192Y23943572D02*
X40326192Y24086428D01*
D10*
X40278572Y23800714D02*
X40326192Y23943572D01*
D10*
X40230952Y23753096D02*
X40278572Y23800714D01*
D10*
X40135716Y23705476D02*
X40230952Y23753096D01*
D10*
X46919048Y27104762D02*
X47014284Y27152380D01*
D10*
X46823808Y27009524D02*
X46919048Y27104762D01*
D10*
X46776192Y26914286D02*
X46823808Y27009524D01*
D10*
X46776192Y26723810D02*
X46776192Y26914286D01*
D10*
X46823808Y26628572D02*
X46776192Y26723810D01*
D10*
X46919048Y26533334D02*
X46823808Y26628572D01*
D10*
X47014284Y26485714D02*
X46919048Y26533334D01*
D10*
X47157144Y26438096D02*
X47014284Y26485714D01*
D10*
X47395240Y26438096D02*
X47157144Y26438096D01*
D10*
X47538096Y26485714D02*
X47395240Y26438096D01*
D10*
X47633332Y26533334D02*
X47538096Y26485714D01*
D10*
X47728572Y26628572D02*
X47633332Y26533334D01*
D10*
X47776192Y26723810D02*
X47728572Y26628572D01*
D10*
X47776192Y26914286D02*
X47776192Y26723810D01*
D10*
X47728572Y27009524D02*
X47776192Y26914286D01*
D10*
X47633332Y27104762D02*
X47728572Y27009524D01*
D10*
X47538096Y27152380D02*
X47633332Y27104762D01*
D10*
X46919048Y27676190D02*
X46966668Y27580952D01*
D10*
X46776192Y27819048D02*
X46919048Y27676190D01*
D10*
X47776192Y27819048D02*
X46776192Y27819048D01*
D10*
X46823808Y28533334D02*
X46776192Y28676190D01*
D10*
X46966668Y28438096D02*
X46823808Y28533334D01*
D10*
X47204760Y28390476D02*
X46966668Y28438096D01*
D10*
X47347620Y28390476D02*
X47204760Y28390476D01*
D10*
X47585716Y28438096D02*
X47347620Y28390476D01*
D10*
X47728572Y28533334D02*
X47585716Y28438096D01*
D10*
X47776192Y28676190D02*
X47728572Y28533334D01*
D10*
X47776192Y28771428D02*
X47776192Y28676190D01*
D10*
X47728572Y28914286D02*
X47776192Y28771428D01*
D10*
X47585716Y29009524D02*
X47728572Y28914286D01*
D10*
X47347620Y29057142D02*
X47585716Y29009524D01*
D10*
X47204760Y29057142D02*
X47347620Y29057142D01*
D10*
X46966668Y29009524D02*
X47204760Y29057142D01*
D10*
X46823808Y28914286D02*
X46966668Y29009524D01*
D10*
X46776192Y28771428D02*
X46823808Y28914286D01*
D10*
X46776192Y28676190D02*
X46776192Y28771428D01*
D10*
X31359048Y19719524D02*
X31454286Y19767142D01*
D10*
X31263810Y19624286D02*
X31359048Y19719524D01*
D10*
X31216190Y19529048D02*
X31263810Y19624286D01*
D10*
X31216190Y19338572D02*
X31216190Y19529048D01*
D10*
X31263810Y19243334D02*
X31216190Y19338572D01*
D10*
X31359048Y19148096D02*
X31263810Y19243334D01*
D10*
X31454286Y19100476D02*
X31359048Y19148096D01*
D10*
X31597142Y19052858D02*
X31454286Y19100476D01*
D10*
X31835238Y19052858D02*
X31597142Y19052858D01*
D10*
X31978096Y19100476D02*
X31835238Y19052858D01*
D10*
X32073334Y19148096D02*
X31978096Y19100476D01*
D10*
X32168572Y19243334D02*
X32073334Y19148096D01*
D10*
X32216190Y19338572D02*
X32168572Y19243334D01*
D10*
X32216190Y19529048D02*
X32216190Y19338572D01*
D10*
X32168572Y19624286D02*
X32216190Y19529048D01*
D10*
X32073334Y19719524D02*
X32168572Y19624286D01*
D10*
X31978096Y19767142D02*
X32073334Y19719524D01*
D10*
X31882858Y20052858D02*
X31216190Y20529048D01*
D10*
X31882858Y20767142D02*
X31882858Y20052858D01*
D10*
X32216190Y20529048D02*
X31216190Y20529048D01*
D10*
X36909524Y33580952D02*
X36957144Y33485714D01*
D10*
X36814284Y33676192D02*
X36909524Y33580952D01*
D10*
X36719048Y33723808D02*
X36814284Y33676192D01*
D10*
X36528572Y33723808D02*
X36719048Y33723808D01*
D10*
X36433332Y33676192D02*
X36528572Y33723808D01*
D10*
X36338096Y33580952D02*
X36433332Y33676192D01*
D10*
X36290476Y33485714D02*
X36338096Y33580952D01*
D10*
X36242856Y33342858D02*
X36290476Y33485714D01*
D10*
X36242856Y33104762D02*
X36242856Y33342858D01*
D10*
X36290476Y32961904D02*
X36242856Y33104762D01*
D10*
X36338096Y32866666D02*
X36290476Y32961904D01*
D10*
X36433332Y32771428D02*
X36338096Y32866666D01*
D10*
X36528572Y32723810D02*
X36433332Y32771428D01*
D10*
X36719048Y32723810D02*
X36528572Y32723810D01*
D10*
X36814284Y32771428D02*
X36719048Y32723810D01*
D10*
X36909524Y32866666D02*
X36814284Y32771428D01*
D10*
X36957144Y32961904D02*
X36909524Y32866666D01*
D10*
X37480952Y33580952D02*
X37385716Y33533334D01*
D10*
X37623808Y33723808D02*
X37480952Y33580952D01*
D10*
X37623808Y32723810D02*
X37623808Y33723808D01*
D10*
X34218096Y17348810D02*
X34218096Y18348810D01*
D10*
X34551428Y18348810D02*
X34218096Y18348810D01*
D10*
X34694284Y18301190D02*
X34551428Y18348810D01*
D10*
X34789524Y18205952D02*
X34694284Y18301190D01*
D10*
X34837144Y18110714D02*
X34789524Y18205952D01*
D10*
X34884760Y17967858D02*
X34837144Y18110714D01*
D10*
X34884760Y17729762D02*
X34884760Y17967858D01*
D10*
X34837144Y17586904D02*
X34884760Y17729762D01*
D10*
X34789524Y17491666D02*
X34837144Y17586904D01*
D10*
X34694284Y17396428D02*
X34789524Y17491666D01*
D10*
X34551428Y17348810D02*
X34694284Y17396428D01*
D10*
X34218096Y17348810D02*
X34551428Y17348810D01*
D10*
X35741904Y18301190D02*
X35789524Y18205952D01*
D10*
X35599048Y18348810D02*
X35741904Y18301190D01*
D10*
X35503808Y18348810D02*
X35599048Y18348810D01*
D10*
X35360952Y18301190D02*
X35503808Y18348810D01*
D10*
X35265716Y18158334D02*
X35360952Y18301190D01*
D10*
X35218096Y17920238D02*
X35265716Y18158334D01*
D10*
X35218096Y17682142D02*
X35218096Y17920238D01*
D10*
X35265716Y17491666D02*
X35218096Y17682142D01*
D10*
X35360952Y17396428D02*
X35265716Y17491666D01*
D10*
X35503808Y17348810D02*
X35360952Y17396428D01*
D10*
X35551428Y17348810D02*
X35503808Y17348810D01*
D10*
X35694284Y17396428D02*
X35551428Y17348810D01*
D10*
X35789524Y17491666D02*
X35694284Y17396428D01*
D10*
X35837144Y17634524D02*
X35789524Y17491666D01*
D10*
X35837144Y17682142D02*
X35837144Y17634524D01*
D10*
X35789524Y17825000D02*
X35837144Y17682142D01*
D10*
X35694284Y17920238D02*
X35789524Y17825000D01*
D10*
X35551428Y17967858D02*
X35694284Y17920238D01*
D10*
X35503808Y17967858D02*
X35551428Y17967858D01*
D10*
X35360952Y17920238D02*
X35503808Y17967858D01*
D10*
X35265716Y17825000D02*
X35360952Y17920238D01*
D10*
X35218096Y17682142D02*
X35265716Y17825000D01*
D10*
X55821192Y35245716D02*
X54821192Y35245716D01*
D10*
X54821192Y35674284D02*
X54821192Y35245716D01*
D10*
X54868808Y35817144D02*
X54821192Y35674284D01*
D10*
X54916428Y35864760D02*
X54868808Y35817144D01*
D10*
X55011668Y35912380D02*
X54916428Y35864760D01*
D10*
X55106904Y35912380D02*
X55011668Y35912380D01*
D10*
X55202144Y35864760D02*
X55106904Y35912380D01*
D10*
X55249760Y35817144D02*
X55202144Y35864760D01*
D10*
X55297380Y35674284D02*
X55249760Y35817144D01*
D10*
X55297380Y35245716D02*
X55297380Y35674284D01*
D10*
X55821192Y35912380D02*
X55297380Y35579048D01*
D10*
X54964048Y36436192D02*
X55011668Y36340952D01*
D10*
X54821192Y36579048D02*
X54964048Y36436192D01*
D10*
X55821192Y36579048D02*
X54821192Y36579048D01*
D10*
X54868808Y37245716D02*
X54821192Y37388572D01*
D10*
X54964048Y37198096D02*
X54868808Y37245716D01*
D10*
X55059284Y37198096D02*
X54964048Y37198096D01*
D10*
X55154524Y37245716D02*
X55059284Y37198096D01*
D10*
X55202144Y37340952D02*
X55154524Y37245716D01*
D10*
X55249760Y37531428D02*
X55202144Y37340952D01*
D10*
X55297380Y37674284D02*
X55249760Y37531428D01*
D10*
X55392620Y37769524D02*
X55297380Y37674284D01*
D10*
X55487856Y37817144D02*
X55392620Y37769524D01*
D10*
X55630716Y37817144D02*
X55487856Y37817144D01*
D10*
X55725952Y37769524D02*
X55630716Y37817144D01*
D10*
X55773572Y37721904D02*
X55725952Y37769524D01*
D10*
X55821192Y37579048D02*
X55773572Y37721904D01*
D10*
X55821192Y37388572D02*
X55821192Y37579048D01*
D10*
X55773572Y37245716D02*
X55821192Y37388572D01*
D10*
X55725952Y37198096D02*
X55773572Y37245716D01*
D10*
X55630716Y37150476D02*
X55725952Y37198096D01*
D10*
X55487856Y37150476D02*
X55630716Y37150476D01*
D10*
X55392620Y37198096D02*
X55487856Y37150476D01*
D10*
X55297380Y37293332D02*
X55392620Y37198096D01*
D10*
X55249760Y37436192D02*
X55297380Y37293332D01*
D10*
X55202144Y37626668D02*
X55249760Y37436192D01*
D10*
X55154524Y37721904D02*
X55202144Y37626668D01*
D10*
X55059284Y37769524D02*
X55154524Y37721904D01*
D10*
X54964048Y37769524D02*
X55059284Y37769524D01*
D10*
X54868808Y37721904D02*
X54964048Y37769524D01*
D10*
X54821192Y37579048D02*
X54868808Y37721904D01*
D10*
X54821192Y37388572D02*
X54821192Y37579048D01*
D10*
X30564524Y15575952D02*
X30612142Y15480714D01*
D10*
X30469286Y15671190D02*
X30564524Y15575952D01*
D10*
X30374048Y15718810D02*
X30469286Y15671190D01*
D10*
X30183572Y15718810D02*
X30374048Y15718810D01*
D10*
X30088334Y15671190D02*
X30183572Y15718810D01*
D10*
X29993096Y15575952D02*
X30088334Y15671190D01*
D10*
X29945476Y15480714D02*
X29993096Y15575952D01*
D10*
X29897858Y15337857D02*
X29945476Y15480714D01*
D10*
X29897858Y15099762D02*
X29897858Y15337857D01*
D10*
X29945476Y14956905D02*
X29897858Y15099762D01*
D10*
X29993096Y14861667D02*
X29945476Y14956905D01*
D10*
X30088334Y14766429D02*
X29993096Y14861667D01*
D10*
X30183572Y14718810D02*
X30088334Y14766429D01*
D10*
X30374048Y14718810D02*
X30183572Y14718810D01*
D10*
X30469286Y14766429D02*
X30374048Y14718810D01*
D10*
X30564524Y14861667D02*
X30469286Y14766429D01*
D10*
X30612142Y14956905D02*
X30564524Y14861667D01*
D10*
X31135952Y15575952D02*
X31040714Y15528333D01*
D10*
X31278810Y15718810D02*
X31135952Y15575952D01*
D10*
X31278810Y14718810D02*
X31278810Y15718810D01*
D10*
X31945476Y15718810D02*
X32421666Y15718810D01*
D10*
X31897856Y15290238D02*
X31945476Y15718810D01*
D10*
X31945476Y15337857D02*
X31897856Y15290238D01*
D10*
X32088334Y15385476D02*
X31945476Y15337857D01*
D10*
X32231190Y15385476D02*
X32088334Y15385476D01*
D10*
X32374048Y15337857D02*
X32231190Y15385476D01*
D10*
X32469286Y15242619D02*
X32374048Y15337857D01*
D10*
X32516904Y15099762D02*
X32469286Y15242619D01*
D10*
X32516904Y15004524D02*
X32516904Y15099762D01*
D10*
X32469286Y14861667D02*
X32516904Y15004524D01*
D10*
X32374048Y14766429D02*
X32469286Y14861667D01*
D10*
X32231190Y14718810D02*
X32374048Y14766429D01*
D10*
X32088334Y14718810D02*
X32231190Y14718810D01*
D10*
X31945476Y14766429D02*
X32088334Y14718810D01*
D10*
X31897856Y14814048D02*
X31945476Y14766429D01*
D10*
X31850238Y14909286D02*
X31897856Y14814048D01*
D10*
X14516190Y30253096D02*
X13516190Y30253096D01*
D10*
X13516190Y30681666D02*
X13516190Y30253096D01*
D10*
X13563810Y30824524D02*
X13516190Y30681666D01*
D10*
X13611429Y30872142D02*
X13563810Y30824524D01*
D10*
X13706667Y30919762D02*
X13611429Y30872142D01*
D10*
X13801905Y30919762D02*
X13706667Y30919762D01*
D10*
X13897143Y30872142D02*
X13801905Y30919762D01*
D10*
X13944762Y30824524D02*
X13897143Y30872142D01*
D10*
X13992381Y30681666D02*
X13944762Y30824524D01*
D10*
X13992381Y30253096D02*
X13992381Y30681666D01*
D10*
X14516190Y30919762D02*
X13992381Y30586428D01*
D10*
X14182857Y31205476D02*
X13516190Y31681666D01*
D10*
X14182857Y31919762D02*
X14182857Y31205476D01*
D10*
X14516190Y31681666D02*
X13516190Y31681666D01*
D10*
X26795476Y34873808D02*
X26795476Y35873808D01*
D10*
X27128810Y35873808D02*
X26795476Y35873808D01*
D10*
X27271666Y35826192D02*
X27128810Y35873808D01*
D10*
X27366904Y35730952D02*
X27271666Y35826192D01*
D10*
X27414524Y35635716D02*
X27366904Y35730952D01*
D10*
X27462142Y35492856D02*
X27414524Y35635716D01*
D10*
X27462142Y35254760D02*
X27462142Y35492856D01*
D10*
X27414524Y35111904D02*
X27462142Y35254760D01*
D10*
X27366904Y35016668D02*
X27414524Y35111904D01*
D10*
X27271666Y34921428D02*
X27366904Y35016668D01*
D10*
X27128810Y34873808D02*
X27271666Y34921428D01*
D10*
X26795476Y34873808D02*
X27128810Y34873808D01*
D10*
X27795476Y35683332D02*
X27795476Y35635716D01*
D10*
X27843096Y35778572D02*
X27795476Y35683332D01*
D10*
X27890714Y35826192D02*
X27843096Y35778572D01*
D10*
X27985952Y35873808D02*
X27890714Y35826192D01*
D10*
X28176428Y35873808D02*
X27985952Y35873808D01*
D10*
X28271666Y35826192D02*
X28176428Y35873808D01*
D10*
X28319286Y35778572D02*
X28271666Y35826192D01*
D10*
X28366904Y35683332D02*
X28319286Y35778572D01*
D10*
X28366904Y35588096D02*
X28366904Y35683332D01*
D10*
X28319286Y35492856D02*
X28366904Y35588096D01*
D10*
X28224048Y35350000D02*
X28319286Y35492856D01*
D10*
X27747858Y34873808D02*
X28224048Y35350000D01*
D10*
X28414524Y34873808D02*
X27747858Y34873808D01*
D10*
X23813096Y41523808D02*
X23813096Y42523808D01*
D10*
X24146428Y42523808D02*
X23813096Y42523808D01*
D10*
X24289286Y42476192D02*
X24146428Y42523808D01*
D10*
X24384524Y42380952D02*
X24289286Y42476192D01*
D10*
X24432142Y42285716D02*
X24384524Y42380952D01*
D10*
X24479762Y42142856D02*
X24432142Y42285716D01*
D10*
X24479762Y41904760D02*
X24479762Y42142856D01*
D10*
X24432142Y41761904D02*
X24479762Y41904760D01*
D10*
X24384524Y41666668D02*
X24432142Y41761904D01*
D10*
X24289286Y41571428D02*
X24384524Y41666668D01*
D10*
X24146428Y41523808D02*
X24289286Y41571428D01*
D10*
X23813096Y41523808D02*
X24146428Y41523808D01*
D10*
X24955952Y41523808D02*
X25432142Y42523808D01*
D10*
X25432142Y42523808D02*
X24765476Y42523808D01*
D10*
X19056190Y7550476D02*
X18056190Y7550476D01*
D10*
X18056190Y7979047D02*
X18056190Y7550476D01*
D10*
X18103810Y8121905D02*
X18056190Y7979047D01*
D10*
X18151428Y8169524D02*
X18103810Y8121905D01*
D10*
X18246666Y8217143D02*
X18151428Y8169524D01*
D10*
X18341904Y8217143D02*
X18246666Y8217143D01*
D10*
X18437142Y8169524D02*
X18341904Y8217143D01*
D10*
X18484762Y8121905D02*
X18437142Y8169524D01*
D10*
X18532380Y7979047D02*
X18484762Y8121905D01*
D10*
X18532380Y7550476D02*
X18532380Y7979047D01*
D10*
X19056190Y8217143D02*
X18532380Y7883809D01*
D10*
X18246666Y8550476D02*
X18294286Y8550476D01*
D10*
X18151428Y8598095D02*
X18246666Y8550476D01*
D10*
X18103810Y8645714D02*
X18151428Y8598095D01*
D10*
X18056190Y8740952D02*
X18103810Y8645714D01*
D10*
X18056190Y8931428D02*
X18056190Y8740952D01*
D10*
X18103810Y9026667D02*
X18056190Y8931428D01*
D10*
X18151428Y9074286D02*
X18103810Y9026667D01*
D10*
X18246666Y9121905D02*
X18151428Y9074286D01*
D10*
X18341904Y9121905D02*
X18246666Y9121905D01*
D10*
X18437142Y9074286D02*
X18341904Y9121905D01*
D10*
X18580000Y8979048D02*
X18437142Y9074286D01*
D10*
X19056190Y8502857D02*
X18580000Y8979048D01*
D10*
X19056190Y9169524D02*
X19056190Y8502857D01*
D10*
X33650476Y28793810D02*
X33650476Y29793810D01*
D10*
X34650476Y29650952D02*
X34698096Y29555714D01*
D10*
X34555240Y29746190D02*
X34650476Y29650952D01*
D10*
X34460000Y29793810D02*
X34555240Y29746190D01*
D10*
X34269524Y29793810D02*
X34460000Y29793810D01*
D10*
X34174284Y29746190D02*
X34269524Y29793810D01*
D10*
X34079048Y29650952D02*
X34174284Y29746190D01*
D10*
X34031428Y29555714D02*
X34079048Y29650952D01*
D10*
X33983808Y29412858D02*
X34031428Y29555714D01*
D10*
X33983808Y29174762D02*
X33983808Y29412858D01*
D10*
X34031428Y29031904D02*
X33983808Y29174762D01*
D10*
X34079048Y28936666D02*
X34031428Y29031904D01*
D10*
X34174284Y28841428D02*
X34079048Y28936666D01*
D10*
X34269524Y28793810D02*
X34174284Y28841428D01*
D10*
X34460000Y28793810D02*
X34269524Y28793810D01*
D10*
X34555240Y28841428D02*
X34460000Y28793810D01*
D10*
X34650476Y28936666D02*
X34555240Y28841428D01*
D10*
X34698096Y29031904D02*
X34650476Y28936666D01*
D10*
X35221904Y29650952D02*
X35126668Y29603334D01*
D10*
X35364760Y29793810D02*
X35221904Y29650952D01*
D10*
X35364760Y28793810D02*
X35364760Y29793810D01*
D10*
X13990476Y64373808D02*
X13990476Y65373808D01*
D10*
X14371429Y64373808D02*
X14371429Y65373808D01*
D10*
X15038095Y64373808D02*
X14371429Y65373808D01*
D10*
X15038095Y64373808D02*
X15038095Y65373808D01*
D10*
X15419048Y64373808D02*
X15419048Y65373808D01*
D10*
X15847619Y65373808D02*
X15419048Y65373808D01*
D10*
X15990476Y65326192D02*
X15847619Y65373808D01*
D10*
X16038095Y65278572D02*
X15990476Y65326192D01*
D10*
X16085714Y65183332D02*
X16038095Y65278572D01*
D10*
X16085714Y65040476D02*
X16085714Y65183332D01*
D10*
X16038095Y64945240D02*
X16085714Y65040476D01*
D10*
X15990476Y64897620D02*
X16038095Y64945240D01*
D10*
X15847619Y64850000D02*
X15990476Y64897620D01*
D10*
X15419048Y64850000D02*
X15847619Y64850000D01*
D10*
X16419048Y64659524D02*
X16419048Y65373808D01*
D10*
X16466666Y64516668D02*
X16419048Y64659524D01*
D10*
X16561905Y64421428D02*
X16466666Y64516668D01*
D10*
X16704762Y64373808D02*
X16561905Y64421428D01*
D10*
X16800000Y64373808D02*
X16704762Y64373808D01*
D10*
X16942856Y64421428D02*
X16800000Y64373808D01*
D10*
X17038096Y64516668D02*
X16942856Y64421428D01*
D10*
X17085714Y64659524D02*
X17038096Y64516668D01*
D10*
X17085714Y65373808D02*
X17085714Y64659524D01*
D10*
X17657142Y64373808D02*
X17657142Y65373808D01*
D10*
X17990476Y65373808D02*
X17323810Y65373808D01*
D10*
X43024048Y42204760D02*
X43119284Y42252380D01*
D10*
X42928808Y42109524D02*
X43024048Y42204760D01*
D10*
X42881192Y42014284D02*
X42928808Y42109524D01*
D10*
X42881192Y41823808D02*
X42881192Y42014284D01*
D10*
X42928808Y41728572D02*
X42881192Y41823808D01*
D10*
X43024048Y41633332D02*
X42928808Y41728572D01*
D10*
X43119284Y41585716D02*
X43024048Y41633332D01*
D10*
X43262144Y41538096D02*
X43119284Y41585716D01*
D10*
X43500240Y41538096D02*
X43262144Y41538096D01*
D10*
X43643096Y41585716D02*
X43500240Y41538096D01*
D10*
X43738332Y41633332D02*
X43643096Y41585716D01*
D10*
X43833572Y41728572D02*
X43738332Y41633332D01*
D10*
X43881192Y41823808D02*
X43833572Y41728572D01*
D10*
X43881192Y42014284D02*
X43881192Y41823808D01*
D10*
X43833572Y42109524D02*
X43881192Y42014284D01*
D10*
X43738332Y42204760D02*
X43833572Y42109524D01*
D10*
X43643096Y42252380D02*
X43738332Y42204760D01*
D10*
X43071668Y42585716D02*
X43119284Y42585716D01*
D10*
X42976428Y42633332D02*
X43071668Y42585716D01*
D10*
X42928808Y42680952D02*
X42976428Y42633332D01*
D10*
X42881192Y42776192D02*
X42928808Y42680952D01*
D10*
X42881192Y42966668D02*
X42881192Y42776192D01*
D10*
X42928808Y43061904D02*
X42881192Y42966668D01*
D10*
X42976428Y43109524D02*
X42928808Y43061904D01*
D10*
X43071668Y43157144D02*
X42976428Y43109524D01*
D10*
X43166904Y43157144D02*
X43071668Y43157144D01*
D10*
X43262144Y43109524D02*
X43166904Y43157144D01*
D10*
X43405000Y43014284D02*
X43262144Y43109524D01*
D10*
X43881192Y42538096D02*
X43405000Y43014284D01*
D10*
X43881192Y43204760D02*
X43881192Y42538096D01*
D10*
X43547856Y43490476D02*
X42881192Y43966668D01*
D10*
X43547856Y44204760D02*
X43547856Y43490476D01*
D10*
X43881192Y43966668D02*
X42881192Y43966668D01*
D10*
X6190476Y33778808D02*
X6190476Y34778808D01*
D10*
X6619047Y34778808D02*
X6190476Y34778808D01*
D10*
X6761905Y34731192D02*
X6619047Y34778808D01*
D10*
X6809524Y34683572D02*
X6761905Y34731192D01*
D10*
X6857143Y34588332D02*
X6809524Y34683572D01*
D10*
X6857143Y34493096D02*
X6857143Y34588332D01*
D10*
X6809524Y34397856D02*
X6857143Y34493096D01*
D10*
X6761905Y34350240D02*
X6809524Y34397856D01*
D10*
X6619047Y34302620D02*
X6761905Y34350240D01*
D10*
X6190476Y34302620D02*
X6619047Y34302620D01*
D10*
X6857143Y33778808D02*
X6523809Y34302620D01*
D10*
X7380952Y34635952D02*
X7285714Y34588332D01*
D10*
X7523809Y34778808D02*
X7380952Y34635952D01*
D10*
X7523809Y33778808D02*
X7523809Y34778808D01*
D10*
X8333333Y34635952D02*
X8238095Y34588332D01*
D10*
X8476190Y34778808D02*
X8333333Y34635952D01*
D10*
X8476190Y33778808D02*
X8476190Y34778808D01*
D10*
X41933332Y65326192D02*
X42028572Y65373808D01*
D10*
X41838096Y65230952D02*
X41933332Y65326192D01*
D10*
X41790476Y65135716D02*
X41838096Y65230952D01*
D10*
X41742856Y64992856D02*
X41790476Y65135716D01*
D10*
X41742856Y64754760D02*
X41742856Y64992856D01*
D10*
X41790476Y64611904D02*
X41742856Y64754760D01*
D10*
X41838096Y64516668D02*
X41790476Y64611904D01*
D10*
X41933332Y64421428D02*
X41838096Y64516668D01*
D10*
X42028572Y64373808D02*
X41933332Y64421428D01*
D10*
X42219048Y64373808D02*
X42028572Y64373808D01*
D10*
X42314284Y64421428D02*
X42219048Y64373808D01*
D10*
X42409524Y64516668D02*
X42314284Y64421428D01*
D10*
X42457144Y64611904D02*
X42409524Y64516668D01*
D10*
X42504760Y64754760D02*
X42457144Y64611904D01*
D10*
X42504760Y64992856D02*
X42504760Y64754760D01*
D10*
X42457144Y65135716D02*
X42504760Y64992856D01*
D10*
X42409524Y65230952D02*
X42457144Y65135716D01*
D10*
X42314284Y65326192D02*
X42409524Y65230952D01*
D10*
X42219048Y65373808D02*
X42314284Y65326192D01*
D10*
X42028572Y65373808D02*
X42219048Y65373808D01*
D10*
X42838096Y64659524D02*
X42838096Y65373808D01*
D10*
X42885716Y64516668D02*
X42838096Y64659524D01*
D10*
X42980952Y64421428D02*
X42885716Y64516668D01*
D10*
X43123808Y64373808D02*
X42980952Y64421428D01*
D10*
X43219048Y64373808D02*
X43123808Y64373808D01*
D10*
X43361904Y64421428D02*
X43219048Y64373808D01*
D10*
X43457144Y64516668D02*
X43361904Y64421428D01*
D10*
X43504760Y64659524D02*
X43457144Y64516668D01*
D10*
X43504760Y65373808D02*
X43504760Y64659524D01*
D10*
X44076192Y64373808D02*
X44076192Y65373808D01*
D10*
X44409524Y65373808D02*
X43742856Y65373808D01*
D10*
X44647620Y64373808D02*
X44647620Y65373808D01*
D10*
X45076192Y65373808D02*
X44647620Y65373808D01*
D10*
X45219048Y65326192D02*
X45076192Y65373808D01*
D10*
X45266668Y65278572D02*
X45219048Y65326192D01*
D10*
X45314284Y65183332D02*
X45266668Y65278572D01*
D10*
X45314284Y65040476D02*
X45314284Y65183332D01*
D10*
X45266668Y64945240D02*
X45314284Y65040476D01*
D10*
X45219048Y64897620D02*
X45266668Y64945240D01*
D10*
X45076192Y64850000D02*
X45219048Y64897620D01*
D10*
X44647620Y64850000D02*
X45076192Y64850000D01*
D10*
X45647620Y64659524D02*
X45647620Y65373808D01*
D10*
X45695240Y64516668D02*
X45647620Y64659524D01*
D10*
X45790476Y64421428D02*
X45695240Y64516668D01*
D10*
X45933332Y64373808D02*
X45790476Y64421428D01*
D10*
X46028572Y64373808D02*
X45933332Y64373808D01*
D10*
X46171428Y64421428D02*
X46028572Y64373808D01*
D10*
X46266668Y64516668D02*
X46171428Y64421428D01*
D10*
X46314284Y64659524D02*
X46266668Y64516668D01*
D10*
X46314284Y65373808D02*
X46314284Y64659524D01*
D10*
X46885712Y64373808D02*
X46885712Y65373808D01*
D10*
X47219048Y65373808D02*
X46552380Y65373808D01*
D10*
X43420476Y8971810D02*
X43420476Y9971810D01*
D10*
X43849048Y9971810D02*
X43420476Y9971810D01*
D10*
X43991904Y9924190D02*
X43849048Y9971810D01*
D10*
X44039524Y9876571D02*
X43991904Y9924190D01*
D10*
X44087144Y9781333D02*
X44039524Y9876571D01*
D10*
X44087144Y9686095D02*
X44087144Y9781333D01*
D10*
X44039524Y9590857D02*
X44087144Y9686095D01*
D10*
X43991904Y9543238D02*
X44039524Y9590857D01*
D10*
X43849048Y9495619D02*
X43991904Y9543238D01*
D10*
X43849048Y9495619D02*
X43420476Y9495619D01*
D10*
X43991904Y9448000D02*
X43849048Y9495619D01*
D10*
X44039524Y9400381D02*
X43991904Y9448000D01*
D10*
X44087144Y9305143D02*
X44039524Y9400381D01*
D10*
X44087144Y9162286D02*
X44087144Y9305143D01*
D10*
X44039524Y9067048D02*
X44087144Y9162286D01*
D10*
X43991904Y9019429D02*
X44039524Y9067048D01*
D10*
X43849048Y8971810D02*
X43991904Y9019429D01*
D10*
X43420476Y8971810D02*
X43849048Y8971810D01*
D10*
X44420476Y8971810D02*
X44420476Y9971810D01*
D10*
X44849048Y9971810D02*
X44420476Y9971810D01*
D10*
X44991904Y9924190D02*
X44849048Y9971810D01*
D10*
X45039524Y9876571D02*
X44991904Y9924190D01*
D10*
X45087144Y9781333D02*
X45039524Y9876571D01*
D10*
X45087144Y9686095D02*
X45087144Y9781333D01*
D10*
X45039524Y9590857D02*
X45087144Y9686095D01*
D10*
X44991904Y9543238D02*
X45039524Y9590857D01*
D10*
X44849048Y9495619D02*
X44991904Y9543238D01*
D10*
X44420476Y9495619D02*
X44849048Y9495619D01*
D10*
X45087144Y8971810D02*
X44753808Y9495619D01*
D10*
X45420476Y8971810D02*
X45420476Y9971810D01*
D10*
X46420476Y9828952D02*
X46468096Y9733714D01*
D10*
X46325240Y9924190D02*
X46420476Y9828952D01*
D10*
X46230000Y9971810D02*
X46325240Y9924190D01*
D10*
X46039524Y9971810D02*
X46230000Y9971810D01*
D10*
X45944284Y9924190D02*
X46039524Y9971810D01*
D10*
X45849048Y9828952D02*
X45944284Y9924190D01*
D10*
X45801428Y9733714D02*
X45849048Y9828952D01*
D10*
X45753808Y9590857D02*
X45801428Y9733714D01*
D10*
X45753808Y9352762D02*
X45753808Y9590857D01*
D10*
X45801428Y9209905D02*
X45753808Y9352762D01*
D10*
X45849048Y9114667D02*
X45801428Y9209905D01*
D10*
X45944284Y9019429D02*
X45849048Y9114667D01*
D10*
X46039524Y8971810D02*
X45944284Y9019429D01*
D10*
X46230000Y8971810D02*
X46039524Y8971810D01*
D10*
X46325240Y9019429D02*
X46230000Y8971810D01*
D10*
X46420476Y9114667D02*
X46325240Y9019429D01*
D10*
X46468096Y9209905D02*
X46420476Y9114667D01*
D10*
X46468096Y9352762D02*
X46468096Y9209905D01*
D10*
X46468096Y9352762D02*
X46230000Y9352762D01*
D10*
X46801428Y8971810D02*
X46801428Y9971810D01*
D10*
X47468096Y8971810D02*
X47468096Y9971810D01*
D10*
X47468096Y9495619D02*
X46801428Y9495619D01*
D10*
X48039524Y8971810D02*
X48039524Y9971810D01*
D10*
X48372856Y9971810D02*
X47706192Y9971810D01*
D10*
X25999048Y6304762D02*
X26094286Y6352381D01*
D10*
X25903810Y6209524D02*
X25999048Y6304762D01*
D10*
X25856190Y6114286D02*
X25903810Y6209524D01*
D10*
X25856190Y5923809D02*
X25856190Y6114286D01*
D10*
X25903810Y5828571D02*
X25856190Y5923809D01*
D10*
X25999048Y5733333D02*
X25903810Y5828571D01*
D10*
X26094286Y5685714D02*
X25999048Y5733333D01*
D10*
X26237142Y5638095D02*
X26094286Y5685714D01*
D10*
X26475238Y5638095D02*
X26237142Y5638095D01*
D10*
X26618096Y5685714D02*
X26475238Y5638095D01*
D10*
X26713334Y5733333D02*
X26618096Y5685714D01*
D10*
X26808572Y5828571D02*
X26713334Y5733333D01*
D10*
X26856190Y5923809D02*
X26808572Y5828571D01*
D10*
X26856190Y6114286D02*
X26856190Y5923809D01*
D10*
X26808572Y6209524D02*
X26856190Y6114286D01*
D10*
X26713334Y6304762D02*
X26808572Y6209524D01*
D10*
X26618096Y6352381D02*
X26713334Y6304762D01*
D10*
X25999048Y6876190D02*
X26046666Y6780952D01*
D10*
X25856190Y7019047D02*
X25999048Y6876190D01*
D10*
X26856190Y7019047D02*
X25856190Y7019047D01*
D10*
X25903810Y8161905D02*
X25999048Y8209524D01*
D10*
X25856190Y8019047D02*
X25903810Y8161905D01*
D10*
X25856190Y7923809D02*
X25856190Y8019047D01*
D10*
X25903810Y7780952D02*
X25856190Y7923809D01*
D10*
X26046666Y7685714D02*
X25903810Y7780952D01*
D10*
X26284762Y7638095D02*
X26046666Y7685714D01*
D10*
X26522858Y7638095D02*
X26284762Y7638095D01*
D10*
X26713334Y7685714D02*
X26522858Y7638095D01*
D10*
X26808572Y7780952D02*
X26713334Y7685714D01*
D10*
X26856190Y7923809D02*
X26808572Y7780952D01*
D10*
X26856190Y7971428D02*
X26856190Y7923809D01*
D10*
X26808572Y8114285D02*
X26856190Y7971428D01*
D10*
X26713334Y8209524D02*
X26808572Y8114285D01*
D10*
X26570476Y8257143D02*
X26713334Y8209524D01*
D10*
X26522858Y8257143D02*
X26570476Y8257143D01*
D10*
X26380000Y8209524D02*
X26522858Y8257143D01*
D10*
X26284762Y8114285D02*
X26380000Y8209524D01*
D10*
X26237142Y7971428D02*
X26284762Y8114285D01*
D10*
X26237142Y7923809D02*
X26237142Y7971428D01*
D10*
X26284762Y7780952D02*
X26237142Y7923809D01*
D10*
X26380000Y7685714D02*
X26284762Y7780952D01*
D10*
X26522858Y7638095D02*
X26380000Y7685714D01*
D10*
X16876190Y35038096D02*
X15876190Y35038096D01*
D10*
X15876190Y35466668D02*
X15876190Y35038096D01*
D10*
X15923810Y35609524D02*
X15876190Y35466668D01*
D10*
X15971429Y35657144D02*
X15923810Y35609524D01*
D10*
X16066667Y35704760D02*
X15971429Y35657144D01*
D10*
X16161905Y35704760D02*
X16066667Y35704760D01*
D10*
X16257143Y35657144D02*
X16161905Y35704760D01*
D10*
X16304762Y35609524D02*
X16257143Y35657144D01*
D10*
X16352381Y35466668D02*
X16304762Y35609524D01*
D10*
X16352381Y35038096D02*
X16352381Y35466668D01*
D10*
X16876190Y35704760D02*
X16352381Y35371428D01*
D10*
X15876190Y36085716D02*
X15876190Y36561904D01*
D10*
X16304762Y36038096D02*
X15876190Y36085716D01*
D10*
X16257143Y36085716D02*
X16304762Y36038096D01*
D10*
X16209524Y36228572D02*
X16257143Y36085716D01*
D10*
X16209524Y36371428D02*
X16209524Y36228572D01*
D10*
X16257143Y36514284D02*
X16209524Y36371428D01*
D10*
X16352381Y36609524D02*
X16257143Y36514284D01*
D10*
X16495238Y36657144D02*
X16352381Y36609524D01*
D10*
X16590476Y36657144D02*
X16495238Y36657144D01*
D10*
X16733333Y36609524D02*
X16590476Y36657144D01*
D10*
X16828572Y36514284D02*
X16733333Y36609524D01*
D10*
X16876190Y36371428D02*
X16828572Y36514284D01*
D10*
X16876190Y36228572D02*
X16876190Y36371428D01*
D10*
X16828572Y36085716D02*
X16876190Y36228572D01*
D10*
X16780952Y36038096D02*
X16828572Y36085716D01*
D10*
X16685714Y35990476D02*
X16780952Y36038096D01*
D10*
X20790476Y41258808D02*
X20790476Y42258808D01*
D10*
X21219048Y42258808D02*
X20790476Y42258808D01*
D10*
X21361904Y42211192D02*
X21219048Y42258808D01*
D10*
X21409524Y42163572D02*
X21361904Y42211192D01*
D10*
X21457142Y42068332D02*
X21409524Y42163572D01*
D10*
X21457142Y41973096D02*
X21457142Y42068332D01*
D10*
X21409524Y41877856D02*
X21457142Y41973096D01*
D10*
X21361904Y41830240D02*
X21409524Y41877856D01*
D10*
X21219048Y41782620D02*
X21361904Y41830240D01*
D10*
X20790476Y41782620D02*
X21219048Y41782620D01*
D10*
X21457142Y41258808D02*
X21123810Y41782620D01*
D10*
X21933334Y41258808D02*
X22409524Y42258808D01*
D10*
X22409524Y42258808D02*
X21742858Y42258808D01*
D10*
X18194048Y27917142D02*
X18289286Y27964762D01*
D10*
X18098810Y27821904D02*
X18194048Y27917142D01*
D10*
X18051190Y27726666D02*
X18098810Y27821904D01*
D10*
X18051190Y27536190D02*
X18051190Y27726666D01*
D10*
X18098810Y27440952D02*
X18051190Y27536190D01*
D10*
X18194048Y27345714D02*
X18098810Y27440952D01*
D10*
X18289286Y27298096D02*
X18194048Y27345714D01*
D10*
X18432142Y27250476D02*
X18289286Y27298096D01*
D10*
X18670238Y27250476D02*
X18432142Y27250476D01*
D10*
X18813096Y27298096D02*
X18670238Y27250476D01*
D10*
X18908334Y27345714D02*
X18813096Y27298096D01*
D10*
X19003572Y27440952D02*
X18908334Y27345714D01*
D10*
X19051190Y27536190D02*
X19003572Y27440952D01*
D10*
X19051190Y27726666D02*
X19051190Y27536190D01*
D10*
X19003572Y27821904D02*
X19051190Y27726666D01*
D10*
X18908334Y27917142D02*
X19003572Y27821904D01*
D10*
X18813096Y27964762D02*
X18908334Y27917142D01*
D10*
X18098810Y28345714D02*
X18051190Y28488572D01*
D10*
X18194048Y28298096D02*
X18098810Y28345714D01*
D10*
X18289286Y28298096D02*
X18194048Y28298096D01*
D10*
X18384524Y28345714D02*
X18289286Y28298096D01*
D10*
X18432142Y28440952D02*
X18384524Y28345714D01*
D10*
X18479762Y28631428D02*
X18432142Y28440952D01*
D10*
X18527380Y28774286D02*
X18479762Y28631428D01*
D10*
X18622620Y28869524D02*
X18527380Y28774286D01*
D10*
X18717858Y28917142D02*
X18622620Y28869524D01*
D10*
X18860714Y28917142D02*
X18717858Y28917142D01*
D10*
X18955952Y28869524D02*
X18860714Y28917142D01*
D10*
X19003572Y28821904D02*
X18955952Y28869524D01*
D10*
X19051190Y28679048D02*
X19003572Y28821904D01*
D10*
X19051190Y28488572D02*
X19051190Y28679048D01*
D10*
X19003572Y28345714D02*
X19051190Y28488572D01*
D10*
X18955952Y28298096D02*
X19003572Y28345714D01*
D10*
X18860714Y28250476D02*
X18955952Y28298096D01*
D10*
X18717858Y28250476D02*
X18860714Y28250476D01*
D10*
X18622620Y28298096D02*
X18717858Y28250476D01*
D10*
X18527380Y28393334D02*
X18622620Y28298096D01*
D10*
X18479762Y28536190D02*
X18527380Y28393334D01*
D10*
X18432142Y28726666D02*
X18479762Y28536190D01*
D10*
X18384524Y28821904D02*
X18432142Y28726666D01*
D10*
X18289286Y28869524D02*
X18384524Y28821904D01*
D10*
X18194048Y28869524D02*
X18289286Y28869524D01*
D10*
X18098810Y28821904D02*
X18194048Y28869524D01*
D10*
X18051190Y28679048D02*
X18098810Y28821904D01*
D10*
X18051190Y28488572D02*
X18051190Y28679048D01*
D10*
X470476Y32283810D02*
X470476Y33283810D01*
D10*
X899047Y33283810D02*
X470476Y33283810D01*
D10*
X1041904Y33236190D02*
X899047Y33283810D01*
D10*
X1089523Y33188572D02*
X1041904Y33236190D01*
D10*
X1137142Y33093334D02*
X1089523Y33188572D01*
D10*
X1137142Y32998096D02*
X1137142Y33093334D01*
D10*
X1089523Y32902858D02*
X1137142Y32998096D01*
D10*
X1041904Y32855238D02*
X1089523Y32902858D01*
D10*
X899047Y32807620D02*
X1041904Y32855238D01*
D10*
X470476Y32807620D02*
X899047Y32807620D01*
D10*
X1137142Y32283810D02*
X803809Y32807620D01*
D10*
X1660952Y33140952D02*
X1565714Y33093334D01*
D10*
X1803809Y33283810D02*
X1660952Y33140952D01*
D10*
X1803809Y32283810D02*
X1803809Y33283810D01*
D10*
X2422857Y33093334D02*
X2422857Y33045714D01*
D10*
X2470476Y33188572D02*
X2422857Y33093334D01*
D10*
X2518095Y33236190D02*
X2470476Y33188572D01*
D10*
X2613333Y33283810D02*
X2518095Y33236190D01*
D10*
X2803809Y33283810D02*
X2613333Y33283810D01*
D10*
X2899047Y33236190D02*
X2803809Y33283810D01*
D10*
X2946666Y33188572D02*
X2899047Y33236190D01*
D10*
X2994285Y33093334D02*
X2946666Y33188572D01*
D10*
X2994285Y32998096D02*
X2994285Y33093334D01*
D10*
X2946666Y32902858D02*
X2994285Y32998096D01*
D10*
X2851428Y32760000D02*
X2946666Y32902858D01*
D10*
X2375238Y32283810D02*
X2851428Y32760000D01*
D10*
X3041904Y32283810D02*
X2375238Y32283810D01*
D10*
X44690476Y39663808D02*
X44690476Y40663808D01*
D10*
X45119048Y40663808D02*
X44690476Y40663808D01*
D10*
X45261904Y40616192D02*
X45119048Y40663808D01*
D10*
X45309524Y40568572D02*
X45261904Y40616192D01*
D10*
X45357144Y40473332D02*
X45309524Y40568572D01*
D10*
X45357144Y40378096D02*
X45357144Y40473332D01*
D10*
X45309524Y40282856D02*
X45357144Y40378096D01*
D10*
X45261904Y40235240D02*
X45309524Y40282856D01*
D10*
X45119048Y40187620D02*
X45261904Y40235240D01*
D10*
X44690476Y40187620D02*
X45119048Y40187620D01*
D10*
X45357144Y39663808D02*
X45023808Y40187620D01*
D10*
X45880952Y40520952D02*
X45785716Y40473332D01*
D10*
X46023808Y40663808D02*
X45880952Y40520952D01*
D10*
X46023808Y39663808D02*
X46023808Y40663808D01*
D10*
X46595240Y39997144D02*
X47071428Y40663808D01*
D10*
X47309524Y39997144D02*
X46595240Y39997144D01*
D10*
X47071428Y39663808D02*
X47071428Y40663808D01*
D10*
X45471192Y41610476D02*
X44471192Y41610476D01*
D10*
X44471192Y42039048D02*
X44471192Y41610476D01*
D10*
X44518808Y42181904D02*
X44471192Y42039048D01*
D10*
X44566428Y42229524D02*
X44518808Y42181904D01*
D10*
X44661668Y42277144D02*
X44566428Y42229524D01*
D10*
X44756904Y42277144D02*
X44661668Y42277144D01*
D10*
X44852144Y42229524D02*
X44756904Y42277144D01*
D10*
X44899760Y42181904D02*
X44852144Y42229524D01*
D10*
X44947380Y42039048D02*
X44899760Y42181904D01*
D10*
X44947380Y41610476D02*
X44947380Y42039048D01*
D10*
X45471192Y42277144D02*
X44947380Y41943808D01*
D10*
X44614048Y42800952D02*
X44661668Y42705716D01*
D10*
X44471192Y42943808D02*
X44614048Y42800952D01*
D10*
X45471192Y42943808D02*
X44471192Y42943808D01*
D10*
X44471192Y44134284D02*
X44471192Y43610476D01*
D10*
X44852144Y43848572D02*
X44471192Y44134284D01*
D10*
X44852144Y43991428D02*
X44852144Y43848572D01*
D10*
X44899760Y44086668D02*
X44852144Y43991428D01*
D10*
X44947380Y44134284D02*
X44899760Y44086668D01*
D10*
X45090240Y44181904D02*
X44947380Y44134284D01*
D10*
X45185476Y44181904D02*
X45090240Y44181904D01*
D10*
X45328332Y44134284D02*
X45185476Y44181904D01*
D10*
X45423572Y44039048D02*
X45328332Y44134284D01*
D10*
X45471192Y43896192D02*
X45423572Y44039048D01*
D10*
X45471192Y43753332D02*
X45471192Y43896192D01*
D10*
X45423572Y43610476D02*
X45471192Y43753332D01*
D10*
X45375952Y43562856D02*
X45423572Y43610476D01*
D10*
X45280716Y43515240D02*
X45375952Y43562856D01*
D10*
X35156192Y19128096D02*
X34156192Y19128096D01*
D10*
X34156192Y19461428D02*
X34156192Y19128096D01*
D10*
X34203808Y19604286D02*
X34156192Y19461428D01*
D10*
X34299048Y19699524D02*
X34203808Y19604286D01*
D10*
X34394284Y19747142D02*
X34299048Y19699524D01*
D10*
X34537144Y19794762D02*
X34394284Y19747142D01*
D10*
X34775240Y19794762D02*
X34537144Y19794762D01*
D10*
X34918096Y19747142D02*
X34775240Y19794762D01*
D10*
X35013332Y19699524D02*
X34918096Y19747142D01*
D10*
X35108572Y19604286D02*
X35013332Y19699524D01*
D10*
X35156192Y19461428D02*
X35108572Y19604286D01*
D10*
X35156192Y19128096D02*
X35156192Y19461428D01*
D10*
X34822856Y20080476D02*
X34156192Y20556666D01*
D10*
X34822856Y20794762D02*
X34822856Y20080476D01*
D10*
X35156192Y20556666D02*
X34156192Y20556666D01*
D10*
X2690476Y42973808D02*
X2690476Y43973808D01*
D10*
X3119047Y43973808D02*
X2690476Y43973808D01*
D10*
X3261904Y43926192D02*
X3119047Y43973808D01*
D10*
X3309523Y43878572D02*
X3261904Y43926192D01*
D10*
X3357143Y43783332D02*
X3309523Y43878572D01*
D10*
X3357143Y43688096D02*
X3357143Y43783332D01*
D10*
X3309523Y43592856D02*
X3357143Y43688096D01*
D10*
X3261904Y43545240D02*
X3309523Y43592856D01*
D10*
X3119047Y43497620D02*
X3261904Y43545240D01*
D10*
X3119047Y43497620D02*
X2690476Y43497620D01*
D10*
X3261904Y43450000D02*
X3119047Y43497620D01*
D10*
X3309523Y43402380D02*
X3261904Y43450000D01*
D10*
X3357143Y43307144D02*
X3309523Y43402380D01*
D10*
X3357143Y43164284D02*
X3357143Y43307144D01*
D10*
X3309523Y43069048D02*
X3357143Y43164284D01*
D10*
X3261904Y43021428D02*
X3309523Y43069048D01*
D10*
X3119047Y42973808D02*
X3261904Y43021428D01*
D10*
X2690476Y42973808D02*
X3119047Y42973808D01*
D10*
X3690476Y43259524D02*
X3690476Y43973808D01*
D10*
X3738095Y43116668D02*
X3690476Y43259524D01*
D10*
X3833333Y43021428D02*
X3738095Y43116668D01*
D10*
X3976190Y42973808D02*
X3833333Y43021428D01*
D10*
X4071428Y42973808D02*
X3976190Y42973808D01*
D10*
X4214286Y43021428D02*
X4071428Y42973808D01*
D10*
X4309524Y43116668D02*
X4214286Y43021428D01*
D10*
X4357143Y43259524D02*
X4309524Y43116668D01*
D10*
X4357143Y43973808D02*
X4357143Y43259524D01*
D10*
X4738095Y42973808D02*
X4738095Y43973808D01*
D10*
X5357143Y43973808D02*
X4738095Y43973808D01*
D10*
X5119047Y43497620D02*
X4738095Y43497620D01*
D10*
X5595238Y42973808D02*
X5595238Y43973808D01*
D10*
X6214286Y43973808D02*
X5595238Y43973808D01*
D10*
X5976190Y43497620D02*
X5595238Y43497620D01*
D10*
X6452381Y42973808D02*
X6452381Y43973808D01*
D10*
X7071428Y43973808D02*
X6452381Y43973808D01*
D10*
X6833333Y43497620D02*
X6452381Y43497620D01*
D10*
X7071428Y42973808D02*
X6452381Y42973808D01*
D10*
X7357143Y42973808D02*
X7357143Y43973808D01*
D10*
X7785714Y43973808D02*
X7357143Y43973808D01*
D10*
X7928571Y43926192D02*
X7785714Y43973808D01*
D10*
X7976190Y43878572D02*
X7928571Y43926192D01*
D10*
X8023809Y43783332D02*
X7976190Y43878572D01*
D10*
X8023809Y43688096D02*
X8023809Y43783332D01*
D10*
X7976190Y43592856D02*
X8023809Y43688096D01*
D10*
X7928571Y43545240D02*
X7976190Y43592856D01*
D10*
X7785714Y43497620D02*
X7928571Y43545240D01*
D10*
X7357143Y43497620D02*
X7785714Y43497620D01*
D10*
X8023809Y42973808D02*
X7690476Y43497620D01*
D10*
X2083333Y42376192D02*
X2178571Y42423808D01*
D10*
X1988095Y42280952D02*
X2083333Y42376192D01*
D10*
X1940476Y42185716D02*
X1988095Y42280952D01*
D10*
X1892857Y42042856D02*
X1940476Y42185716D01*
D10*
X1892857Y41804760D02*
X1892857Y42042856D01*
D10*
X1940476Y41661904D02*
X1892857Y41804760D01*
D10*
X1988095Y41566668D02*
X1940476Y41661904D01*
D10*
X2083333Y41471428D02*
X1988095Y41566668D01*
D10*
X2178571Y41423808D02*
X2083333Y41471428D01*
D10*
X2369047Y41423808D02*
X2178571Y41423808D01*
D10*
X2464285Y41471428D02*
X2369047Y41423808D01*
D10*
X2559523Y41566668D02*
X2464285Y41471428D01*
D10*
X2607143Y41661904D02*
X2559523Y41566668D01*
D10*
X2654762Y41804760D02*
X2607143Y41661904D01*
D10*
X2654762Y42042856D02*
X2654762Y41804760D01*
D10*
X2607143Y42185716D02*
X2654762Y42042856D01*
D10*
X2559523Y42280952D02*
X2607143Y42185716D01*
D10*
X2464285Y42376192D02*
X2559523Y42280952D01*
D10*
X2369047Y42423808D02*
X2464285Y42376192D01*
D10*
X2178571Y42423808D02*
X2369047Y42423808D01*
D10*
X2988095Y41423808D02*
X2988095Y42423808D01*
D10*
X3607143Y42423808D02*
X2988095Y42423808D01*
D10*
X3369047Y41947620D02*
X2988095Y41947620D01*
D10*
X3845238Y41423808D02*
X3845238Y42423808D01*
D10*
X4464286Y42423808D02*
X3845238Y42423808D01*
D10*
X4226190Y41947620D02*
X3845238Y41947620D01*
D10*
X22336190Y15120476D02*
X21336190Y15120476D01*
D10*
X21336190Y15549048D02*
X21336190Y15120476D01*
D10*
X21383810Y15691905D02*
X21336190Y15549048D01*
D10*
X21431428Y15739524D02*
X21383810Y15691905D01*
D10*
X21526666Y15787143D02*
X21431428Y15739524D01*
D10*
X21621904Y15787143D02*
X21526666Y15787143D01*
D10*
X21717142Y15739524D02*
X21621904Y15787143D01*
D10*
X21764762Y15691905D02*
X21717142Y15739524D01*
D10*
X21812380Y15549048D02*
X21764762Y15691905D01*
D10*
X21812380Y15120476D02*
X21812380Y15549048D01*
D10*
X22336190Y15787143D02*
X21812380Y15453810D01*
D10*
X21479048Y16310952D02*
X21526666Y16215714D01*
D10*
X21336190Y16453810D02*
X21479048Y16310952D01*
D10*
X22336190Y16453810D02*
X21336190Y16453810D01*
D10*
X55831192Y31730476D02*
X54831192Y31730476D01*
D10*
X54831192Y32159048D02*
X54831192Y31730476D01*
D10*
X54878808Y32301904D02*
X54831192Y32159048D01*
D10*
X54926428Y32349524D02*
X54878808Y32301904D01*
D10*
X55021668Y32397142D02*
X54926428Y32349524D01*
D10*
X55116904Y32397142D02*
X55021668Y32397142D01*
D10*
X55212144Y32349524D02*
X55116904Y32397142D01*
D10*
X55259760Y32301904D02*
X55212144Y32349524D01*
D10*
X55307380Y32159048D02*
X55259760Y32301904D01*
D10*
X55307380Y31730476D02*
X55307380Y32159048D01*
D10*
X55831192Y32397142D02*
X55307380Y32063810D01*
D10*
X54974048Y32920952D02*
X55021668Y32825714D01*
D10*
X54831192Y33063810D02*
X54974048Y32920952D01*
D10*
X55831192Y33063810D02*
X54831192Y33063810D01*
D10*
X55831192Y33825716D02*
X54831192Y34301904D01*
D10*
X54831192Y34301904D02*
X54831192Y33635240D01*
D10*
X50314048Y14394524D02*
X50409284Y14442143D01*
D10*
X50218808Y14299286D02*
X50314048Y14394524D01*
D10*
X50171192Y14204048D02*
X50218808Y14299286D01*
D10*
X50171192Y14013571D02*
X50171192Y14204048D01*
D10*
X50218808Y13918333D02*
X50171192Y14013571D01*
D10*
X50314048Y13823095D02*
X50218808Y13918333D01*
D10*
X50409284Y13775476D02*
X50314048Y13823095D01*
D10*
X50552144Y13727857D02*
X50409284Y13775476D01*
D10*
X50790240Y13727857D02*
X50552144Y13727857D01*
D10*
X50933096Y13775476D02*
X50790240Y13727857D01*
D10*
X51028332Y13823095D02*
X50933096Y13775476D01*
D10*
X51123572Y13918333D02*
X51028332Y13823095D01*
D10*
X51171192Y14013571D02*
X51123572Y13918333D01*
D10*
X51171192Y14204048D02*
X51171192Y14013571D01*
D10*
X51123572Y14299286D02*
X51171192Y14204048D01*
D10*
X51028332Y14394524D02*
X51123572Y14299286D01*
D10*
X50933096Y14442143D02*
X51028332Y14394524D01*
D10*
X50314048Y14965952D02*
X50361668Y14870714D01*
D10*
X50171192Y15108810D02*
X50314048Y14965952D01*
D10*
X51171192Y15108810D02*
X50171192Y15108810D01*
D10*
X50361668Y15727857D02*
X50409284Y15727857D01*
D10*
X50266428Y15775476D02*
X50361668Y15727857D01*
D10*
X50218808Y15823095D02*
X50266428Y15775476D01*
D10*
X50171192Y15918333D02*
X50218808Y15823095D01*
D10*
X50171192Y16108810D02*
X50171192Y15918333D01*
D10*
X50218808Y16204048D02*
X50171192Y16108810D01*
D10*
X50266428Y16251666D02*
X50218808Y16204048D01*
D10*
X50361668Y16299286D02*
X50266428Y16251666D01*
D10*
X50456904Y16299286D02*
X50361668Y16299286D01*
D10*
X50552144Y16251666D02*
X50456904Y16299286D01*
D10*
X50695000Y16156428D02*
X50552144Y16251666D01*
D10*
X51171192Y15680238D02*
X50695000Y16156428D01*
D10*
X51171192Y16346905D02*
X51171192Y15680238D01*
D10*
X36926192Y45725476D02*
X35926192Y45725476D01*
D10*
X35926192Y46058808D02*
X35926192Y45725476D01*
D10*
X35973808Y46201668D02*
X35926192Y46058808D01*
D10*
X36069048Y46296904D02*
X35973808Y46201668D01*
D10*
X36164284Y46344524D02*
X36069048Y46296904D01*
D10*
X36307144Y46392144D02*
X36164284Y46344524D01*
D10*
X36545240Y46392144D02*
X36307144Y46392144D01*
D10*
X36688096Y46344524D02*
X36545240Y46392144D01*
D10*
X36783332Y46296904D02*
X36688096Y46344524D01*
D10*
X36878572Y46201668D02*
X36783332Y46296904D01*
D10*
X36926192Y46058808D02*
X36878572Y46201668D01*
D10*
X36926192Y45725476D02*
X36926192Y46058808D01*
D10*
X36069048Y46915952D02*
X36116668Y46820716D01*
D10*
X35926192Y47058808D02*
X36069048Y46915952D01*
D10*
X36926192Y47058808D02*
X35926192Y47058808D01*
D10*
X24129762Y40210952D02*
X24177380Y40115716D01*
D10*
X24034524Y40306192D02*
X24129762Y40210952D01*
D10*
X23939286Y40353808D02*
X24034524Y40306192D01*
D10*
X23748810Y40353808D02*
X23939286Y40353808D01*
D10*
X23653572Y40306192D02*
X23748810Y40353808D01*
D10*
X23558334Y40210952D02*
X23653572Y40306192D01*
D10*
X23510714Y40115716D02*
X23558334Y40210952D01*
D10*
X23463096Y39972856D02*
X23510714Y40115716D01*
D10*
X23463096Y39734760D02*
X23463096Y39972856D01*
D10*
X23510714Y39591904D02*
X23463096Y39734760D01*
D10*
X23558334Y39496668D02*
X23510714Y39591904D01*
D10*
X23653572Y39401428D02*
X23558334Y39496668D01*
D10*
X23748810Y39353808D02*
X23653572Y39401428D01*
D10*
X23939286Y39353808D02*
X23748810Y39353808D01*
D10*
X24034524Y39401428D02*
X23939286Y39353808D01*
D10*
X24129762Y39496668D02*
X24034524Y39401428D01*
D10*
X24177380Y39591904D02*
X24129762Y39496668D01*
D10*
X24701190Y40210952D02*
X24605952Y40163332D01*
D10*
X24844048Y40353808D02*
X24701190Y40210952D01*
D10*
X24844048Y39353808D02*
X24844048Y40353808D01*
D10*
X25510714Y40306192D02*
X25653572Y40353808D01*
D10*
X25463096Y40210952D02*
X25510714Y40306192D01*
D10*
X25463096Y40115716D02*
X25463096Y40210952D01*
D10*
X25510714Y40020476D02*
X25463096Y40115716D01*
D10*
X25605952Y39972856D02*
X25510714Y40020476D01*
D10*
X25796428Y39925240D02*
X25605952Y39972856D01*
D10*
X25939286Y39877620D02*
X25796428Y39925240D01*
D10*
X26034524Y39782380D02*
X25939286Y39877620D01*
D10*
X26082142Y39687144D02*
X26034524Y39782380D01*
D10*
X26082142Y39544284D02*
X26082142Y39687144D01*
D10*
X26034524Y39449048D02*
X26082142Y39544284D01*
D10*
X25986904Y39401428D02*
X26034524Y39449048D01*
D10*
X25844048Y39353808D02*
X25986904Y39401428D01*
D10*
X25653572Y39353808D02*
X25844048Y39353808D01*
D10*
X25510714Y39401428D02*
X25653572Y39353808D01*
D10*
X25463096Y39449048D02*
X25510714Y39401428D01*
D10*
X25415476Y39544284D02*
X25463096Y39449048D01*
D10*
X25415476Y39687144D02*
X25415476Y39544284D01*
D10*
X25463096Y39782380D02*
X25415476Y39687144D01*
D10*
X25558334Y39877620D02*
X25463096Y39782380D01*
D10*
X25701190Y39925240D02*
X25558334Y39877620D01*
D10*
X25891666Y39972856D02*
X25701190Y39925240D01*
D10*
X25986904Y40020476D02*
X25891666Y39972856D01*
D10*
X26034524Y40115716D02*
X25986904Y40020476D01*
D10*
X26034524Y40210952D02*
X26034524Y40115716D01*
D10*
X25986904Y40306192D02*
X26034524Y40210952D01*
D10*
X25844048Y40353808D02*
X25986904Y40306192D01*
D10*
X25653572Y40353808D02*
X25844048Y40353808D01*
D10*
X3470476Y25283810D02*
X3470476Y26283810D01*
D10*
X3899047Y26283810D02*
X3470476Y26283810D01*
D10*
X4041904Y26236190D02*
X3899047Y26283810D01*
D10*
X4089523Y26188572D02*
X4041904Y26236190D01*
D10*
X4137143Y26093334D02*
X4089523Y26188572D01*
D10*
X4137143Y25998096D02*
X4137143Y26093334D01*
D10*
X4089523Y25902858D02*
X4137143Y25998096D01*
D10*
X4041904Y25855238D02*
X4089523Y25902858D01*
D10*
X3899047Y25807620D02*
X4041904Y25855238D01*
D10*
X3470476Y25807620D02*
X3899047Y25807620D01*
D10*
X4137143Y25283810D02*
X3803809Y25807620D01*
D10*
X4994286Y25807620D02*
X5041905Y25950476D01*
D10*
X4899047Y25712380D02*
X4994286Y25807620D01*
D10*
X4756190Y25664762D02*
X4899047Y25712380D01*
D10*
X4708571Y25664762D02*
X4756190Y25664762D01*
D10*
X4565714Y25712380D02*
X4708571Y25664762D01*
D10*
X4470476Y25807620D02*
X4565714Y25712380D01*
D10*
X4422857Y25950476D02*
X4470476Y25807620D01*
D10*
X4422857Y25998096D02*
X4422857Y25950476D01*
D10*
X4470476Y26140952D02*
X4422857Y25998096D01*
D10*
X4565714Y26236190D02*
X4470476Y26140952D01*
D10*
X4708571Y26283810D02*
X4565714Y26236190D01*
D10*
X4756190Y26283810D02*
X4708571Y26283810D01*
D10*
X4899047Y26236190D02*
X4756190Y26283810D01*
D10*
X4994286Y26140952D02*
X4899047Y26236190D01*
D10*
X5041905Y25950476D02*
X4994286Y26140952D01*
D10*
X5041905Y25712380D02*
X5041905Y25950476D01*
D10*
X4994286Y25474286D02*
X5041905Y25712380D01*
D10*
X4899047Y25331428D02*
X4994286Y25474286D01*
D10*
X4756190Y25283810D02*
X4899047Y25331428D01*
D10*
X4660952Y25283810D02*
X4756190Y25283810D01*
D10*
X4518095Y25331428D02*
X4660952Y25283810D01*
D10*
X4470476Y25426666D02*
X4518095Y25331428D01*
D10*
X40982144Y15600952D02*
X41029760Y15505714D01*
D10*
X40886904Y15696190D02*
X40982144Y15600952D01*
D10*
X40791668Y15743810D02*
X40886904Y15696190D01*
D10*
X40601192Y15743810D02*
X40791668Y15743810D01*
D10*
X40505952Y15696190D02*
X40601192Y15743810D01*
D10*
X40410716Y15600952D02*
X40505952Y15696190D01*
D10*
X40363096Y15505714D02*
X40410716Y15600952D01*
D10*
X40315476Y15362857D02*
X40363096Y15505714D01*
D10*
X40315476Y15124762D02*
X40315476Y15362857D01*
D10*
X40363096Y14981905D02*
X40315476Y15124762D01*
D10*
X40410716Y14886667D02*
X40363096Y14981905D01*
D10*
X40505952Y14791429D02*
X40410716Y14886667D01*
D10*
X40601192Y14743810D02*
X40505952Y14791429D01*
D10*
X40791668Y14743810D02*
X40601192Y14743810D01*
D10*
X40886904Y14791429D02*
X40791668Y14743810D01*
D10*
X40982144Y14886667D02*
X40886904Y14791429D01*
D10*
X41029760Y14981905D02*
X40982144Y14886667D01*
D10*
X41505952Y14743810D02*
X41982144Y15743810D01*
D10*
X41982144Y15743810D02*
X41315476Y15743810D01*
D10*
X6883333Y42376192D02*
X6978571Y42423808D01*
D10*
X6788095Y42280952D02*
X6883333Y42376192D01*
D10*
X6740476Y42185716D02*
X6788095Y42280952D01*
D10*
X6692857Y42042856D02*
X6740476Y42185716D01*
D10*
X6692857Y41804760D02*
X6692857Y42042856D01*
D10*
X6740476Y41661904D02*
X6692857Y41804760D01*
D10*
X6788095Y41566668D02*
X6740476Y41661904D01*
D10*
X6883333Y41471428D02*
X6788095Y41566668D01*
D10*
X6978571Y41423808D02*
X6883333Y41471428D01*
D10*
X7169047Y41423808D02*
X6978571Y41423808D01*
D10*
X7264285Y41471428D02*
X7169047Y41423808D01*
D10*
X7359524Y41566668D02*
X7264285Y41471428D01*
D10*
X7407143Y41661904D02*
X7359524Y41566668D01*
D10*
X7454762Y41804760D02*
X7407143Y41661904D01*
D10*
X7454762Y42042856D02*
X7454762Y41804760D01*
D10*
X7407143Y42185716D02*
X7454762Y42042856D01*
D10*
X7359524Y42280952D02*
X7407143Y42185716D01*
D10*
X7264285Y42376192D02*
X7359524Y42280952D01*
D10*
X7169047Y42423808D02*
X7264285Y42376192D01*
D10*
X6978571Y42423808D02*
X7169047Y42423808D01*
D10*
X7788095Y41423808D02*
X7788095Y42423808D01*
D10*
X8454762Y41423808D02*
X7788095Y42423808D01*
D10*
X8454762Y41423808D02*
X8454762Y42423808D01*
D10*
X52994048Y42109524D02*
X53089284Y42157144D01*
D10*
X52898808Y42014284D02*
X52994048Y42109524D01*
D10*
X52851192Y41919048D02*
X52898808Y42014284D01*
D10*
X52851192Y41728572D02*
X52851192Y41919048D01*
D10*
X52898808Y41633332D02*
X52851192Y41728572D01*
D10*
X52994048Y41538096D02*
X52898808Y41633332D01*
D10*
X53089284Y41490476D02*
X52994048Y41538096D01*
D10*
X53232144Y41442856D02*
X53089284Y41490476D01*
D10*
X53470240Y41442856D02*
X53232144Y41442856D01*
D10*
X53613096Y41490476D02*
X53470240Y41442856D01*
D10*
X53708332Y41538096D02*
X53613096Y41490476D01*
D10*
X53803572Y41633332D02*
X53708332Y41538096D01*
D10*
X53851192Y41728572D02*
X53803572Y41633332D01*
D10*
X53851192Y41919048D02*
X53851192Y41728572D01*
D10*
X53803572Y42014284D02*
X53851192Y41919048D01*
D10*
X53708332Y42109524D02*
X53803572Y42014284D01*
D10*
X53613096Y42157144D02*
X53708332Y42109524D01*
D10*
X53041668Y42490476D02*
X53089284Y42490476D01*
D10*
X52946428Y42538096D02*
X53041668Y42490476D01*
D10*
X52898808Y42585716D02*
X52946428Y42538096D01*
D10*
X52851192Y42680952D02*
X52898808Y42585716D01*
D10*
X52851192Y42871428D02*
X52851192Y42680952D01*
D10*
X52898808Y42966668D02*
X52851192Y42871428D01*
D10*
X52946428Y43014284D02*
X52898808Y42966668D01*
D10*
X53041668Y43061904D02*
X52946428Y43014284D01*
D10*
X53136904Y43061904D02*
X53041668Y43061904D01*
D10*
X53232144Y43014284D02*
X53136904Y43061904D01*
D10*
X53375000Y42919048D02*
X53232144Y43014284D01*
D10*
X53851192Y42442856D02*
X53375000Y42919048D01*
D10*
X53851192Y43109524D02*
X53851192Y42442856D01*
D10*
X52851192Y43490476D02*
X52851192Y43966668D01*
D10*
X53279760Y43442856D02*
X52851192Y43490476D01*
D10*
X53232144Y43490476D02*
X53279760Y43442856D01*
D10*
X53184524Y43633332D02*
X53232144Y43490476D01*
D10*
X53184524Y43776192D02*
X53184524Y43633332D01*
D10*
X53232144Y43919048D02*
X53184524Y43776192D01*
D10*
X53327380Y44014284D02*
X53232144Y43919048D01*
D10*
X53470240Y44061904D02*
X53327380Y44014284D01*
D10*
X53565476Y44061904D02*
X53470240Y44061904D01*
D10*
X53708332Y44014284D02*
X53565476Y44061904D01*
D10*
X53803572Y43919048D02*
X53708332Y44014284D01*
D10*
X53851192Y43776192D02*
X53803572Y43919048D01*
D10*
X53851192Y43633332D02*
X53851192Y43776192D01*
D10*
X53803572Y43490476D02*
X53851192Y43633332D01*
D10*
X53755952Y43442856D02*
X53803572Y43490476D01*
D10*
X53660716Y43395240D02*
X53755952Y43442856D01*
D10*
X42434524Y14080952D02*
X42482144Y13985714D01*
D10*
X42339284Y14176190D02*
X42434524Y14080952D01*
D10*
X42244048Y14223810D02*
X42339284Y14176190D01*
D10*
X42053572Y14223810D02*
X42244048Y14223810D01*
D10*
X41958332Y14176190D02*
X42053572Y14223810D01*
D10*
X41863096Y14080952D02*
X41958332Y14176190D01*
D10*
X41815476Y13985714D02*
X41863096Y14080952D01*
D10*
X41767856Y13842857D02*
X41815476Y13985714D01*
D10*
X41767856Y13604762D02*
X41767856Y13842857D01*
D10*
X41815476Y13461905D02*
X41767856Y13604762D01*
D10*
X41863096Y13366667D02*
X41815476Y13461905D01*
D10*
X41958332Y13271429D02*
X41863096Y13366667D01*
D10*
X42053572Y13223810D02*
X41958332Y13271429D01*
D10*
X42244048Y13223810D02*
X42053572Y13223810D01*
D10*
X42339284Y13271429D02*
X42244048Y13223810D01*
D10*
X42434524Y13366667D02*
X42339284Y13271429D01*
D10*
X42482144Y13461905D02*
X42434524Y13366667D01*
D10*
X43005952Y14080952D02*
X42910716Y14033333D01*
D10*
X43148808Y14223810D02*
X43005952Y14080952D01*
D10*
X43148808Y13223810D02*
X43148808Y14223810D01*
D10*
X44339284Y14223810D02*
X43815476Y14223810D01*
D10*
X44053572Y13842857D02*
X44339284Y14223810D01*
D10*
X44196428Y13842857D02*
X44053572Y13842857D01*
D10*
X44291668Y13795238D02*
X44196428Y13842857D01*
D10*
X44339284Y13747619D02*
X44291668Y13795238D01*
D10*
X44386904Y13604762D02*
X44339284Y13747619D01*
D10*
X44386904Y13509524D02*
X44386904Y13604762D01*
D10*
X44339284Y13366667D02*
X44386904Y13509524D01*
D10*
X44244048Y13271429D02*
X44339284Y13366667D01*
D10*
X44101192Y13223810D02*
X44244048Y13271429D01*
D10*
X43958332Y13223810D02*
X44101192Y13223810D01*
D10*
X43815476Y13271429D02*
X43958332Y13223810D01*
D10*
X43767856Y13319048D02*
X43815476Y13271429D01*
D10*
X43720240Y13414286D02*
X43767856Y13319048D01*
D10*
X23824524Y15140952D02*
X23872142Y15045714D01*
D10*
X23729286Y15236190D02*
X23824524Y15140952D01*
D10*
X23634048Y15283810D02*
X23729286Y15236190D01*
D10*
X23443572Y15283810D02*
X23634048Y15283810D01*
D10*
X23348334Y15236190D02*
X23443572Y15283810D01*
D10*
X23253096Y15140952D02*
X23348334Y15236190D01*
D10*
X23205476Y15045714D02*
X23253096Y15140952D01*
D10*
X23157858Y14902857D02*
X23205476Y15045714D01*
D10*
X23157858Y14664762D02*
X23157858Y14902857D01*
D10*
X23205476Y14521905D02*
X23157858Y14664762D01*
D10*
X23253096Y14426667D02*
X23205476Y14521905D01*
D10*
X23348334Y14331429D02*
X23253096Y14426667D01*
D10*
X23443572Y14283810D02*
X23348334Y14331429D01*
D10*
X23634048Y14283810D02*
X23443572Y14283810D01*
D10*
X23729286Y14331429D02*
X23634048Y14283810D01*
D10*
X23824524Y14426667D02*
X23729286Y14331429D01*
D10*
X23872142Y14521905D02*
X23824524Y14426667D01*
D10*
X24729286Y15236190D02*
X24776904Y15140952D01*
D10*
X24586428Y15283810D02*
X24729286Y15236190D01*
D10*
X24491190Y15283810D02*
X24586428Y15283810D01*
D10*
X24348334Y15236190D02*
X24491190Y15283810D01*
D10*
X24253096Y15093333D02*
X24348334Y15236190D01*
D10*
X24205476Y14855238D02*
X24253096Y15093333D01*
D10*
X24205476Y14617143D02*
X24205476Y14855238D01*
D10*
X24253096Y14426667D02*
X24205476Y14617143D01*
D10*
X24348334Y14331429D02*
X24253096Y14426667D01*
D10*
X24491190Y14283810D02*
X24348334Y14331429D01*
D10*
X24538810Y14283810D02*
X24491190Y14283810D01*
D10*
X24681666Y14331429D02*
X24538810Y14283810D01*
D10*
X24776904Y14426667D02*
X24681666Y14331429D01*
D10*
X24824524Y14569524D02*
X24776904Y14426667D01*
D10*
X24824524Y14617143D02*
X24824524Y14569524D01*
D10*
X24776904Y14760000D02*
X24824524Y14617143D01*
D10*
X24681666Y14855238D02*
X24776904Y14760000D01*
D10*
X24538810Y14902857D02*
X24681666Y14855238D01*
D10*
X24491190Y14902857D02*
X24538810Y14902857D01*
D10*
X24348334Y14855238D02*
X24491190Y14902857D01*
D10*
X24253096Y14760000D02*
X24348334Y14855238D01*
D10*
X24205476Y14617143D02*
X24253096Y14760000D01*
D10*
X9299048Y32644524D02*
X9394286Y32692142D01*
D10*
X9203810Y32549286D02*
X9299048Y32644524D01*
D10*
X9156190Y32454048D02*
X9203810Y32549286D01*
D10*
X9156190Y32263572D02*
X9156190Y32454048D01*
D10*
X9203810Y32168334D02*
X9156190Y32263572D01*
D10*
X9299048Y32073096D02*
X9203810Y32168334D01*
D10*
X9394286Y32025476D02*
X9299048Y32073096D01*
D10*
X9537143Y31977858D02*
X9394286Y32025476D01*
D10*
X9775238Y31977858D02*
X9537143Y31977858D01*
D10*
X9918095Y32025476D02*
X9775238Y31977858D01*
D10*
X10013333Y32073096D02*
X9918095Y32025476D01*
D10*
X10108571Y32168334D02*
X10013333Y32073096D01*
D10*
X10156190Y32263572D02*
X10108571Y32168334D01*
D10*
X10156190Y32454048D02*
X10156190Y32263572D01*
D10*
X10108571Y32549286D02*
X10156190Y32454048D01*
D10*
X10013333Y32644524D02*
X10108571Y32549286D01*
D10*
X9918095Y32692142D02*
X10013333Y32644524D01*
D10*
X9346667Y33025476D02*
X9394286Y33025476D01*
D10*
X9251429Y33073096D02*
X9346667Y33025476D01*
D10*
X9203810Y33120714D02*
X9251429Y33073096D01*
D10*
X9156190Y33215952D02*
X9203810Y33120714D01*
D10*
X9156190Y33406428D02*
X9156190Y33215952D01*
D10*
X9203810Y33501666D02*
X9156190Y33406428D01*
D10*
X9251429Y33549286D02*
X9203810Y33501666D01*
D10*
X9346667Y33596904D02*
X9251429Y33549286D01*
D10*
X9441905Y33596904D02*
X9346667Y33596904D01*
D10*
X9537143Y33549286D02*
X9441905Y33596904D01*
D10*
X9680000Y33454048D02*
X9537143Y33549286D01*
D10*
X10156190Y32977858D02*
X9680000Y33454048D01*
D10*
X10156190Y33644524D02*
X10156190Y32977858D01*
D10*
X9346667Y33977856D02*
X9394286Y33977856D01*
D10*
X9251429Y34025476D02*
X9346667Y33977856D01*
D10*
X9203810Y34073096D02*
X9251429Y34025476D01*
D10*
X9156190Y34168332D02*
X9203810Y34073096D01*
D10*
X9156190Y34358808D02*
X9156190Y34168332D01*
D10*
X9203810Y34454048D02*
X9156190Y34358808D01*
D10*
X9251429Y34501668D02*
X9203810Y34454048D01*
D10*
X9346667Y34549284D02*
X9251429Y34501668D01*
D10*
X9441905Y34549284D02*
X9346667Y34549284D01*
D10*
X9537143Y34501668D02*
X9441905Y34549284D01*
D10*
X9680000Y34406428D02*
X9537143Y34501668D01*
D10*
X10156190Y33930240D02*
X9680000Y34406428D01*
D10*
X10156190Y34596904D02*
X10156190Y33930240D01*
D10*
X53106192Y24950476D02*
X52106192Y24950476D01*
D10*
X52249048Y25950476D02*
X52344284Y25998096D01*
D10*
X52153808Y25855238D02*
X52249048Y25950476D01*
D10*
X52106192Y25760000D02*
X52153808Y25855238D01*
D10*
X52106192Y25569524D02*
X52106192Y25760000D01*
D10*
X52153808Y25474286D02*
X52106192Y25569524D01*
D10*
X52249048Y25379048D02*
X52153808Y25474286D01*
D10*
X52344284Y25331428D02*
X52249048Y25379048D01*
D10*
X52487144Y25283810D02*
X52344284Y25331428D01*
D10*
X52725240Y25283810D02*
X52487144Y25283810D01*
D10*
X52868096Y25331428D02*
X52725240Y25283810D01*
D10*
X52963332Y25379048D02*
X52868096Y25331428D01*
D10*
X53058572Y25474286D02*
X52963332Y25379048D01*
D10*
X53106192Y25569524D02*
X53058572Y25474286D01*
D10*
X53106192Y25760000D02*
X53106192Y25569524D01*
D10*
X53058572Y25855238D02*
X53106192Y25760000D01*
D10*
X52963332Y25950476D02*
X53058572Y25855238D01*
D10*
X52868096Y25998096D02*
X52963332Y25950476D01*
D10*
X52106192Y26902856D02*
X52106192Y26379048D01*
D10*
X52487144Y26617142D02*
X52106192Y26902856D01*
D10*
X52487144Y26760000D02*
X52487144Y26617142D01*
D10*
X52534760Y26855238D02*
X52487144Y26760000D01*
D10*
X52582380Y26902856D02*
X52534760Y26855238D01*
D10*
X52725240Y26950476D02*
X52582380Y26902856D01*
D10*
X52820476Y26950476D02*
X52725240Y26950476D01*
D10*
X52963332Y26902856D02*
X52820476Y26950476D01*
D10*
X53058572Y26807620D02*
X52963332Y26902856D01*
D10*
X53106192Y26664762D02*
X53058572Y26807620D01*
D10*
X53106192Y26521904D02*
X53106192Y26664762D01*
D10*
X53058572Y26379048D02*
X53106192Y26521904D01*
D10*
X53010952Y26331428D02*
X53058572Y26379048D01*
D10*
X52915716Y26283810D02*
X53010952Y26331428D01*
D10*
X35640476Y6103809D02*
X35640476Y7103809D01*
D10*
X36021428Y6103809D02*
X35640476Y7103809D01*
D10*
X36021428Y6103809D02*
X36402380Y7103809D01*
D10*
X36402380Y6103809D02*
X36402380Y7103809D01*
D10*
X36926192Y7056190D02*
X37021428Y7103809D01*
D10*
X36830952Y6960952D02*
X36926192Y7056190D01*
D10*
X36783332Y6865714D02*
X36830952Y6960952D01*
D10*
X36735716Y6722857D02*
X36783332Y6865714D01*
D10*
X36735716Y6484762D02*
X36735716Y6722857D01*
D10*
X36783332Y6341905D02*
X36735716Y6484762D01*
D10*
X36830952Y6246666D02*
X36783332Y6341905D01*
D10*
X36926192Y6151428D02*
X36830952Y6246666D01*
D10*
X37021428Y6103809D02*
X36926192Y6151428D01*
D10*
X37211904Y6103809D02*
X37021428Y6103809D01*
D10*
X37307144Y6151428D02*
X37211904Y6103809D01*
D10*
X37402380Y6246666D02*
X37307144Y6151428D01*
D10*
X37450000Y6341905D02*
X37402380Y6246666D01*
D10*
X37497620Y6484762D02*
X37450000Y6341905D01*
D10*
X37497620Y6722857D02*
X37497620Y6484762D01*
D10*
X37450000Y6865714D02*
X37497620Y6722857D01*
D10*
X37402380Y6960952D02*
X37450000Y6865714D01*
D10*
X37307144Y7056190D02*
X37402380Y6960952D01*
D10*
X37211904Y7103809D02*
X37307144Y7056190D01*
D10*
X37021428Y7103809D02*
X37211904Y7103809D01*
D10*
X37830952Y6103809D02*
X37830952Y7103809D01*
D10*
X38164284Y7103809D02*
X37830952Y7103809D01*
D10*
X38307144Y7056190D02*
X38164284Y7103809D01*
D10*
X38402380Y6960952D02*
X38307144Y7056190D01*
D10*
X38450000Y6865714D02*
X38402380Y6960952D01*
D10*
X38497620Y6722857D02*
X38450000Y6865714D01*
D10*
X38497620Y6484762D02*
X38497620Y6722857D01*
D10*
X38450000Y6341905D02*
X38497620Y6484762D01*
D10*
X38402380Y6246666D02*
X38450000Y6341905D01*
D10*
X38307144Y6151428D02*
X38402380Y6246666D01*
D10*
X38164284Y6103809D02*
X38307144Y6151428D01*
D10*
X37830952Y6103809D02*
X38164284Y6103809D01*
D10*
X38830952Y6103809D02*
X38830952Y7103809D01*
D10*
X39450000Y7103809D02*
X38830952Y7103809D01*
D10*
X39211904Y6627619D02*
X38830952Y6627619D01*
D10*
X39450000Y6103809D02*
X38830952Y6103809D01*
D10*
X594047Y37059760D02*
X689285Y37107380D01*
D10*
X498809Y36964524D02*
X594047Y37059760D01*
D10*
X451190Y36869284D02*
X498809Y36964524D01*
D10*
X451190Y36678808D02*
X451190Y36869284D01*
D10*
X498809Y36583572D02*
X451190Y36678808D01*
D10*
X594047Y36488332D02*
X498809Y36583572D01*
D10*
X689285Y36440716D02*
X594047Y36488332D01*
D10*
X832142Y36393096D02*
X689285Y36440716D01*
D10*
X1070238Y36393096D02*
X832142Y36393096D01*
D10*
X1213095Y36440716D02*
X1070238Y36393096D01*
D10*
X1308333Y36488332D02*
X1213095Y36440716D01*
D10*
X1403571Y36583572D02*
X1308333Y36488332D01*
D10*
X1451190Y36678808D02*
X1403571Y36583572D01*
D10*
X1451190Y36869284D02*
X1451190Y36678808D01*
D10*
X1403571Y36964524D02*
X1451190Y36869284D01*
D10*
X1308333Y37059760D02*
X1403571Y36964524D01*
D10*
X1213095Y37107380D02*
X1308333Y37059760D01*
D10*
X641666Y37440716D02*
X689285Y37440716D01*
D10*
X546428Y37488332D02*
X641666Y37440716D01*
D10*
X498809Y37535952D02*
X546428Y37488332D01*
D10*
X451190Y37631192D02*
X498809Y37535952D01*
D10*
X451190Y37821668D02*
X451190Y37631192D01*
D10*
X498809Y37916904D02*
X451190Y37821668D01*
D10*
X546428Y37964524D02*
X498809Y37916904D01*
D10*
X641666Y38012144D02*
X546428Y37964524D01*
D10*
X736904Y38012144D02*
X641666Y38012144D01*
D10*
X832142Y37964524D02*
X736904Y38012144D01*
D10*
X975000Y37869284D02*
X832142Y37964524D01*
D10*
X1451190Y37393096D02*
X975000Y37869284D01*
D10*
X1451190Y38059760D02*
X1451190Y37393096D01*
D10*
X451190Y38964524D02*
X451190Y38440716D01*
D10*
X832142Y38678808D02*
X451190Y38964524D01*
D10*
X832142Y38821668D02*
X832142Y38678808D01*
D10*
X879761Y38916904D02*
X832142Y38821668D01*
D10*
X927380Y38964524D02*
X879761Y38916904D01*
D10*
X1070238Y39012144D02*
X927380Y38964524D01*
D10*
X1165476Y39012144D02*
X1070238Y39012144D01*
D10*
X1308333Y38964524D02*
X1165476Y39012144D01*
D10*
X1403571Y38869284D02*
X1308333Y38964524D01*
D10*
X1451190Y38726428D02*
X1403571Y38869284D01*
D10*
X1451190Y38583572D02*
X1451190Y38726428D01*
D10*
X1403571Y38440716D02*
X1451190Y38583572D01*
D10*
X1355952Y38393096D02*
X1403571Y38440716D01*
D10*
X1260714Y38345476D02*
X1355952Y38393096D01*
D10*
X23849524Y30880952D02*
X23897142Y30785714D01*
D10*
X23754286Y30976190D02*
X23849524Y30880952D01*
D10*
X23659048Y31023810D02*
X23754286Y30976190D01*
D10*
X23468572Y31023810D02*
X23659048Y31023810D01*
D10*
X23373334Y30976190D02*
X23468572Y31023810D01*
D10*
X23278096Y30880952D02*
X23373334Y30976190D01*
D10*
X23230476Y30785714D02*
X23278096Y30880952D01*
D10*
X23182858Y30642858D02*
X23230476Y30785714D01*
D10*
X23182858Y30404762D02*
X23182858Y30642858D01*
D10*
X23230476Y30261904D02*
X23182858Y30404762D01*
D10*
X23278096Y30166666D02*
X23230476Y30261904D01*
D10*
X23373334Y30071428D02*
X23278096Y30166666D01*
D10*
X23468572Y30023810D02*
X23373334Y30071428D01*
D10*
X23659048Y30023810D02*
X23468572Y30023810D01*
D10*
X23754286Y30071428D02*
X23659048Y30023810D01*
D10*
X23849524Y30166666D02*
X23754286Y30071428D01*
D10*
X23897142Y30261904D02*
X23849524Y30166666D01*
D10*
X24230476Y30833334D02*
X24230476Y30785714D01*
D10*
X24278096Y30928572D02*
X24230476Y30833334D01*
D10*
X24325714Y30976190D02*
X24278096Y30928572D01*
D10*
X24420952Y31023810D02*
X24325714Y30976190D01*
D10*
X24611428Y31023810D02*
X24420952Y31023810D01*
D10*
X24706666Y30976190D02*
X24611428Y31023810D01*
D10*
X24754286Y30928572D02*
X24706666Y30976190D01*
D10*
X24801904Y30833334D02*
X24754286Y30928572D01*
D10*
X24801904Y30738096D02*
X24801904Y30833334D01*
D10*
X24754286Y30642858D02*
X24801904Y30738096D01*
D10*
X24659048Y30500000D02*
X24754286Y30642858D01*
D10*
X24182858Y30023810D02*
X24659048Y30500000D01*
D10*
X24849524Y30023810D02*
X24182858Y30023810D01*
D10*
X2365714Y23383810D02*
X2365714Y24383810D01*
D10*
X2794285Y24383810D02*
X2365714Y24383810D01*
D10*
X2937143Y24336190D02*
X2794285Y24383810D01*
D10*
X2984762Y24288572D02*
X2937143Y24336190D01*
D10*
X3032381Y24193334D02*
X2984762Y24288572D01*
D10*
X3032381Y24098096D02*
X3032381Y24193334D01*
D10*
X2984762Y24002858D02*
X3032381Y24098096D01*
D10*
X2937143Y23955238D02*
X2984762Y24002858D01*
D10*
X2794285Y23907620D02*
X2937143Y23955238D01*
D10*
X2365714Y23907620D02*
X2794285Y23907620D01*
D10*
X3032381Y23383810D02*
X2699047Y23907620D01*
D10*
X3556190Y24240952D02*
X3460952Y24193334D01*
D10*
X3699047Y24383810D02*
X3556190Y24240952D01*
D10*
X3699047Y23383810D02*
X3699047Y24383810D01*
D10*
X4413333Y24336190D02*
X4556190Y24383810D01*
D10*
X4318095Y24193334D02*
X4413333Y24336190D01*
D10*
X4270476Y23955238D02*
X4318095Y24193334D01*
D10*
X4270476Y23812380D02*
X4270476Y23955238D01*
D10*
X4318095Y23574286D02*
X4270476Y23812380D01*
D10*
X4413333Y23431428D02*
X4318095Y23574286D01*
D10*
X4556190Y23383810D02*
X4413333Y23431428D01*
D10*
X4651428Y23383810D02*
X4556190Y23383810D01*
D10*
X4794285Y23431428D02*
X4651428Y23383810D01*
D10*
X4889524Y23574286D02*
X4794285Y23431428D01*
D10*
X4937143Y23812380D02*
X4889524Y23574286D01*
D10*
X4937143Y23955238D02*
X4937143Y23812380D01*
D10*
X4889524Y24193334D02*
X4937143Y23955238D01*
D10*
X4794285Y24336190D02*
X4889524Y24193334D01*
D10*
X4651428Y24383810D02*
X4794285Y24336190D01*
D10*
X4556190Y24383810D02*
X4651428Y24383810D01*
D10*
X22549524Y38380952D02*
X22597142Y38285716D01*
D10*
X22454286Y38476192D02*
X22549524Y38380952D01*
D10*
X22359048Y38523808D02*
X22454286Y38476192D01*
D10*
X22168572Y38523808D02*
X22359048Y38523808D01*
D10*
X22073334Y38476192D02*
X22168572Y38523808D01*
D10*
X21978096Y38380952D02*
X22073334Y38476192D01*
D10*
X21930476Y38285716D02*
X21978096Y38380952D01*
D10*
X21882858Y38142856D02*
X21930476Y38285716D01*
D10*
X21882858Y37904760D02*
X21882858Y38142856D01*
D10*
X21930476Y37761904D02*
X21882858Y37904760D01*
D10*
X21978096Y37666668D02*
X21930476Y37761904D01*
D10*
X22073334Y37571428D02*
X21978096Y37666668D01*
D10*
X22168572Y37523808D02*
X22073334Y37571428D01*
D10*
X22359048Y37523808D02*
X22168572Y37523808D01*
D10*
X22454286Y37571428D02*
X22359048Y37523808D01*
D10*
X22549524Y37666668D02*
X22454286Y37571428D01*
D10*
X22597142Y37761904D02*
X22549524Y37666668D01*
D10*
X22930476Y38333332D02*
X22930476Y38285716D01*
D10*
X22978096Y38428572D02*
X22930476Y38333332D01*
D10*
X23025714Y38476192D02*
X22978096Y38428572D01*
D10*
X23120952Y38523808D02*
X23025714Y38476192D01*
D10*
X23311428Y38523808D02*
X23120952Y38523808D01*
D10*
X23406666Y38476192D02*
X23311428Y38523808D01*
D10*
X23454286Y38428572D02*
X23406666Y38476192D01*
D10*
X23501904Y38333332D02*
X23454286Y38428572D01*
D10*
X23501904Y38238096D02*
X23501904Y38333332D01*
D10*
X23454286Y38142856D02*
X23501904Y38238096D01*
D10*
X23359048Y38000000D02*
X23454286Y38142856D01*
D10*
X22882858Y37523808D02*
X23359048Y38000000D01*
D10*
X23549524Y37523808D02*
X22882858Y37523808D01*
D10*
X23978096Y38476192D02*
X24120952Y38523808D01*
D10*
X23882856Y38333332D02*
X23978096Y38476192D01*
D10*
X23835238Y38095240D02*
X23882856Y38333332D01*
D10*
X23835238Y37952380D02*
X23835238Y38095240D01*
D10*
X23882856Y37714284D02*
X23835238Y37952380D01*
D10*
X23978096Y37571428D02*
X23882856Y37714284D01*
D10*
X24120952Y37523808D02*
X23978096Y37571428D01*
D10*
X24216190Y37523808D02*
X24120952Y37523808D01*
D10*
X24359048Y37571428D02*
X24216190Y37523808D01*
D10*
X24454286Y37714284D02*
X24359048Y37571428D01*
D10*
X24501904Y37952380D02*
X24454286Y37714284D01*
D10*
X24501904Y38095240D02*
X24501904Y37952380D01*
D10*
X24454286Y38333332D02*
X24501904Y38095240D01*
D10*
X24359048Y38476192D02*
X24454286Y38333332D01*
D10*
X24216190Y38523808D02*
X24359048Y38476192D01*
D10*
X24120952Y38523808D02*
X24216190Y38523808D01*
D10*
X11450476Y26493810D02*
X11450476Y27493810D01*
D10*
X12450476Y27350952D02*
X12498095Y27255714D01*
D10*
X12355238Y27446190D02*
X12450476Y27350952D01*
D10*
X12260000Y27493810D02*
X12355238Y27446190D01*
D10*
X12069524Y27493810D02*
X12260000Y27493810D01*
D10*
X11974286Y27446190D02*
X12069524Y27493810D01*
D10*
X11879048Y27350952D02*
X11974286Y27446190D01*
D10*
X11831429Y27255714D02*
X11879048Y27350952D01*
D10*
X11783810Y27112858D02*
X11831429Y27255714D01*
D10*
X11783810Y26874762D02*
X11783810Y27112858D01*
D10*
X11831429Y26731904D02*
X11783810Y26874762D01*
D10*
X11879048Y26636666D02*
X11831429Y26731904D01*
D10*
X11974286Y26541428D02*
X11879048Y26636666D01*
D10*
X12069524Y26493810D02*
X11974286Y26541428D01*
D10*
X12260000Y26493810D02*
X12069524Y26493810D01*
D10*
X12355238Y26541428D02*
X12260000Y26493810D01*
D10*
X12450476Y26636666D02*
X12355238Y26541428D01*
D10*
X12498095Y26731904D02*
X12450476Y26636666D01*
D10*
X12831428Y27303334D02*
X12831428Y27255714D01*
D10*
X12879048Y27398572D02*
X12831428Y27303334D01*
D10*
X12926667Y27446190D02*
X12879048Y27398572D01*
D10*
X13021905Y27493810D02*
X12926667Y27446190D01*
D10*
X13212381Y27493810D02*
X13021905Y27493810D01*
D10*
X13307619Y27446190D02*
X13212381Y27493810D01*
D10*
X13355238Y27398572D02*
X13307619Y27446190D01*
D10*
X13402857Y27303334D02*
X13355238Y27398572D01*
D10*
X13402857Y27208096D02*
X13402857Y27303334D01*
D10*
X13355238Y27112858D02*
X13402857Y27208096D01*
D10*
X13260000Y26970000D02*
X13355238Y27112858D01*
D10*
X12783810Y26493810D02*
X13260000Y26970000D01*
D10*
X13450476Y26493810D02*
X12783810Y26493810D01*
D10*
X23060476Y7110476D02*
X22346190Y7110476D01*
D10*
X23203334Y7158095D02*
X23060476Y7110476D01*
D10*
X23298572Y7253333D02*
X23203334Y7158095D01*
D10*
X23346190Y7396190D02*
X23298572Y7253333D01*
D10*
X23346190Y7491428D02*
X23346190Y7396190D01*
D10*
X23298572Y7634286D02*
X23346190Y7491428D01*
D10*
X23203334Y7729524D02*
X23298572Y7634286D01*
D10*
X23060476Y7777143D02*
X23203334Y7729524D01*
D10*
X22346190Y7777143D02*
X23060476Y7777143D01*
D10*
X22489048Y8348571D02*
X22536666Y8253333D01*
D10*
X22346190Y8491429D02*
X22489048Y8348571D01*
D10*
X23346190Y8491429D02*
X22346190Y8491429D01*
D10*
X18196190Y30258096D02*
X17196190Y30258096D01*
D10*
X17196190Y30686666D02*
X17196190Y30258096D01*
D10*
X17243810Y30829524D02*
X17196190Y30686666D01*
D10*
X17291428Y30877142D02*
X17243810Y30829524D01*
D10*
X17386666Y30924762D02*
X17291428Y30877142D01*
D10*
X17481904Y30924762D02*
X17386666Y30924762D01*
D10*
X17577142Y30877142D02*
X17481904Y30924762D01*
D10*
X17624762Y30829524D02*
X17577142Y30877142D01*
D10*
X17672380Y30686666D02*
X17624762Y30829524D01*
D10*
X17672380Y30258096D02*
X17672380Y30686666D01*
D10*
X18196190Y30924762D02*
X17672380Y30591428D01*
D10*
X17243810Y31781904D02*
X17339048Y31829524D01*
D10*
X17196190Y31639048D02*
X17243810Y31781904D01*
D10*
X17196190Y31543810D02*
X17196190Y31639048D01*
D10*
X17243810Y31400952D02*
X17196190Y31543810D01*
D10*
X17386666Y31305714D02*
X17243810Y31400952D01*
D10*
X17624762Y31258096D02*
X17386666Y31305714D01*
D10*
X17862858Y31258096D02*
X17624762Y31258096D01*
D10*
X18053334Y31305714D02*
X17862858Y31258096D01*
D10*
X18148572Y31400952D02*
X18053334Y31305714D01*
D10*
X18196190Y31543810D02*
X18148572Y31400952D01*
D10*
X18196190Y31591428D02*
X18196190Y31543810D01*
D10*
X18148572Y31734286D02*
X18196190Y31591428D01*
D10*
X18053334Y31829524D02*
X18148572Y31734286D01*
D10*
X17910476Y31877142D02*
X18053334Y31829524D01*
D10*
X17862858Y31877142D02*
X17910476Y31877142D01*
D10*
X17720000Y31829524D02*
X17862858Y31877142D01*
D10*
X17624762Y31734286D02*
X17720000Y31829524D01*
D10*
X17577142Y31591428D02*
X17624762Y31734286D01*
D10*
X17577142Y31543810D02*
X17577142Y31591428D01*
D10*
X17624762Y31400952D02*
X17577142Y31543810D01*
D10*
X17720000Y31305714D02*
X17624762Y31400952D01*
D10*
X17862858Y31258096D02*
X17720000Y31305714D01*
D10*
X31040476Y8223809D02*
X31040476Y9223810D01*
D10*
X31469048Y9223810D02*
X31040476Y9223810D01*
D10*
X31611904Y9176190D02*
X31469048Y9223810D01*
D10*
X31659524Y9128571D02*
X31611904Y9176190D01*
D10*
X31707142Y9033333D02*
X31659524Y9128571D01*
D10*
X31707142Y8938095D02*
X31707142Y9033333D01*
D10*
X31659524Y8842857D02*
X31707142Y8938095D01*
D10*
X31611904Y8795238D02*
X31659524Y8842857D01*
D10*
X31469048Y8747619D02*
X31611904Y8795238D01*
D10*
X31040476Y8747619D02*
X31469048Y8747619D01*
D10*
X31707142Y8223809D02*
X31373810Y8747619D01*
D10*
X32611904Y9223810D02*
X32088096Y9223810D01*
D10*
X32326190Y8842857D02*
X32611904Y9223810D01*
D10*
X32469048Y8842857D02*
X32326190Y8842857D01*
D10*
X32564286Y8795238D02*
X32469048Y8842857D01*
D10*
X32611904Y8747619D02*
X32564286Y8795238D01*
D10*
X32659524Y8604762D02*
X32611904Y8747619D01*
D10*
X32659524Y8509524D02*
X32659524Y8604762D01*
D10*
X32611904Y8366666D02*
X32659524Y8509524D01*
D10*
X32516666Y8271428D02*
X32611904Y8366666D01*
D10*
X32373810Y8223809D02*
X32516666Y8271428D01*
D10*
X32230952Y8223809D02*
X32373810Y8223809D01*
D10*
X32088096Y8271428D02*
X32230952Y8223809D01*
D10*
X32040476Y8319047D02*
X32088096Y8271428D01*
D10*
X31992858Y8414286D02*
X32040476Y8319047D01*
D10*
X44294760Y38335952D02*
X44342380Y38240716D01*
D10*
X44199524Y38431192D02*
X44294760Y38335952D01*
D10*
X44104284Y38478808D02*
X44199524Y38431192D01*
D10*
X43913808Y38478808D02*
X44104284Y38478808D01*
D10*
X43818572Y38431192D02*
X43913808Y38478808D01*
D10*
X43723332Y38335952D02*
X43818572Y38431192D01*
D10*
X43675716Y38240716D02*
X43723332Y38335952D01*
D10*
X43628096Y38097856D02*
X43675716Y38240716D01*
D10*
X43628096Y37859760D02*
X43628096Y38097856D01*
D10*
X43675716Y37716904D02*
X43628096Y37859760D01*
D10*
X43723332Y37621668D02*
X43675716Y37716904D01*
D10*
X43818572Y37526428D02*
X43723332Y37621668D01*
D10*
X43913808Y37478808D02*
X43818572Y37526428D01*
D10*
X44104284Y37478808D02*
X43913808Y37478808D01*
D10*
X44199524Y37526428D02*
X44104284Y37478808D01*
D10*
X44294760Y37621668D02*
X44199524Y37526428D01*
D10*
X44342380Y37716904D02*
X44294760Y37621668D01*
D10*
X44675716Y38288332D02*
X44675716Y38240716D01*
D10*
X44723332Y38383572D02*
X44675716Y38288332D01*
D10*
X44770952Y38431192D02*
X44723332Y38383572D01*
D10*
X44866192Y38478808D02*
X44770952Y38431192D01*
D10*
X45056668Y38478808D02*
X44866192Y38478808D01*
D10*
X45151904Y38431192D02*
X45056668Y38478808D01*
D10*
X45199524Y38383572D02*
X45151904Y38431192D01*
D10*
X45247144Y38288332D02*
X45199524Y38383572D01*
D10*
X45247144Y38193096D02*
X45247144Y38288332D01*
D10*
X45199524Y38097856D02*
X45247144Y38193096D01*
D10*
X45104284Y37955000D02*
X45199524Y38097856D01*
D10*
X44628096Y37478808D02*
X45104284Y37955000D01*
D10*
X45294760Y37478808D02*
X44628096Y37478808D01*
D10*
X45675716Y38431192D02*
X45818572Y38478808D01*
D10*
X45628096Y38335952D02*
X45675716Y38431192D01*
D10*
X45628096Y38240716D02*
X45628096Y38335952D01*
D10*
X45675716Y38145476D02*
X45628096Y38240716D01*
D10*
X45770952Y38097856D02*
X45675716Y38145476D01*
D10*
X45961428Y38050240D02*
X45770952Y38097856D01*
D10*
X46104284Y38002620D02*
X45961428Y38050240D01*
D10*
X46199524Y37907380D02*
X46104284Y38002620D01*
D10*
X46247144Y37812144D02*
X46199524Y37907380D01*
D10*
X46247144Y37669284D02*
X46247144Y37812144D01*
D10*
X46199524Y37574048D02*
X46247144Y37669284D01*
D10*
X46151904Y37526428D02*
X46199524Y37574048D01*
D10*
X46009048Y37478808D02*
X46151904Y37526428D01*
D10*
X45818572Y37478808D02*
X46009048Y37478808D01*
D10*
X45675716Y37526428D02*
X45818572Y37478808D01*
D10*
X45628096Y37574048D02*
X45675716Y37526428D01*
D10*
X45580476Y37669284D02*
X45628096Y37574048D01*
D10*
X45580476Y37812144D02*
X45580476Y37669284D01*
D10*
X45628096Y37907380D02*
X45580476Y37812144D01*
D10*
X45723332Y38002620D02*
X45628096Y37907380D01*
D10*
X45866192Y38050240D02*
X45723332Y38002620D01*
D10*
X46056668Y38097856D02*
X45866192Y38050240D01*
D10*
X46151904Y38145476D02*
X46056668Y38097856D01*
D10*
X46199524Y38240716D02*
X46151904Y38145476D01*
D10*
X46199524Y38335952D02*
X46199524Y38240716D01*
D10*
X46151904Y38431192D02*
X46199524Y38335952D01*
D10*
X46009048Y38478808D02*
X46151904Y38431192D01*
D10*
X45818572Y38478808D02*
X46009048Y38478808D01*
D10*
X57571192Y31730476D02*
X56571192Y31730476D01*
D10*
X56571192Y32159048D02*
X56571192Y31730476D01*
D10*
X56618808Y32301904D02*
X56571192Y32159048D01*
D10*
X56666428Y32349524D02*
X56618808Y32301904D01*
D10*
X56761668Y32397142D02*
X56666428Y32349524D01*
D10*
X56856904Y32397142D02*
X56761668Y32397142D01*
D10*
X56952144Y32349524D02*
X56856904Y32397142D01*
D10*
X56999760Y32301904D02*
X56952144Y32349524D01*
D10*
X57047380Y32159048D02*
X56999760Y32301904D01*
D10*
X57047380Y31730476D02*
X57047380Y32159048D01*
D10*
X57571192Y32397142D02*
X57047380Y32063810D01*
D10*
X56714048Y32920952D02*
X56761668Y32825714D01*
D10*
X56571192Y33063810D02*
X56714048Y32920952D01*
D10*
X57571192Y33063810D02*
X56571192Y33063810D01*
D10*
X56618808Y34206668D02*
X56714048Y34254284D01*
D10*
X56571192Y34063808D02*
X56618808Y34206668D01*
D10*
X56571192Y33968572D02*
X56571192Y34063808D01*
D10*
X56618808Y33825716D02*
X56571192Y33968572D01*
D10*
X56761668Y33730476D02*
X56618808Y33825716D01*
D10*
X56999760Y33682856D02*
X56761668Y33730476D01*
D10*
X57237856Y33682856D02*
X56999760Y33682856D01*
D10*
X57428332Y33730476D02*
X57237856Y33682856D01*
D10*
X57523572Y33825716D02*
X57428332Y33730476D01*
D10*
X57571192Y33968572D02*
X57523572Y33825716D01*
D10*
X57571192Y34016192D02*
X57571192Y33968572D01*
D10*
X57523572Y34159048D02*
X57571192Y34016192D01*
D10*
X57428332Y34254284D02*
X57523572Y34159048D01*
D10*
X57285476Y34301904D02*
X57428332Y34254284D01*
D10*
X57237856Y34301904D02*
X57285476Y34301904D01*
D10*
X57095000Y34254284D02*
X57237856Y34301904D01*
D10*
X56999760Y34159048D02*
X57095000Y34254284D01*
D10*
X56952144Y34016192D02*
X56999760Y34159048D01*
D10*
X56952144Y33968572D02*
X56952144Y34016192D01*
D10*
X56999760Y33825716D02*
X56952144Y33968572D01*
D10*
X57095000Y33730476D02*
X56999760Y33825716D01*
D10*
X57237856Y33682856D02*
X57095000Y33730476D01*
D10*
X33799048Y37089524D02*
X33894284Y37137144D01*
D10*
X33703808Y36994284D02*
X33799048Y37089524D01*
D10*
X33656192Y36899048D02*
X33703808Y36994284D01*
D10*
X33656192Y36708572D02*
X33656192Y36899048D01*
D10*
X33703808Y36613332D02*
X33656192Y36708572D01*
D10*
X33799048Y36518096D02*
X33703808Y36613332D01*
D10*
X33894284Y36470476D02*
X33799048Y36518096D01*
D10*
X34037144Y36422856D02*
X33894284Y36470476D01*
D10*
X34275240Y36422856D02*
X34037144Y36422856D01*
D10*
X34418096Y36470476D02*
X34275240Y36422856D01*
D10*
X34513332Y36518096D02*
X34418096Y36470476D01*
D10*
X34608572Y36613332D02*
X34513332Y36518096D01*
D10*
X34656192Y36708572D02*
X34608572Y36613332D01*
D10*
X34656192Y36899048D02*
X34656192Y36708572D01*
D10*
X34608572Y36994284D02*
X34656192Y36899048D01*
D10*
X34513332Y37089524D02*
X34608572Y36994284D01*
D10*
X34418096Y37137144D02*
X34513332Y37089524D01*
D10*
X33799048Y37660952D02*
X33846668Y37565716D01*
D10*
X33656192Y37803808D02*
X33799048Y37660952D01*
D10*
X34656192Y37803808D02*
X33656192Y37803808D01*
D10*
X34656192Y38565716D02*
X33656192Y39041904D01*
D10*
X33656192Y39041904D02*
X33656192Y38375240D01*
D10*
X54804048Y42104760D02*
X54899284Y42152380D01*
D10*
X54708808Y42009524D02*
X54804048Y42104760D01*
D10*
X54661192Y41914284D02*
X54708808Y42009524D01*
D10*
X54661192Y41723808D02*
X54661192Y41914284D01*
D10*
X54708808Y41628572D02*
X54661192Y41723808D01*
D10*
X54804048Y41533332D02*
X54708808Y41628572D01*
D10*
X54899284Y41485716D02*
X54804048Y41533332D01*
D10*
X55042144Y41438096D02*
X54899284Y41485716D01*
D10*
X55280240Y41438096D02*
X55042144Y41438096D01*
D10*
X55423096Y41485716D02*
X55280240Y41438096D01*
D10*
X55518332Y41533332D02*
X55423096Y41485716D01*
D10*
X55613572Y41628572D02*
X55518332Y41533332D01*
D10*
X55661192Y41723808D02*
X55613572Y41628572D01*
D10*
X55661192Y41914284D02*
X55661192Y41723808D01*
D10*
X55613572Y42009524D02*
X55661192Y41914284D01*
D10*
X55518332Y42104760D02*
X55613572Y42009524D01*
D10*
X55423096Y42152380D02*
X55518332Y42104760D01*
D10*
X54851668Y42485716D02*
X54899284Y42485716D01*
D10*
X54756428Y42533332D02*
X54851668Y42485716D01*
D10*
X54708808Y42580952D02*
X54756428Y42533332D01*
D10*
X54661192Y42676192D02*
X54708808Y42580952D01*
D10*
X54661192Y42866668D02*
X54661192Y42676192D01*
D10*
X54708808Y42961904D02*
X54661192Y42866668D01*
D10*
X54756428Y43009524D02*
X54708808Y42961904D01*
D10*
X54851668Y43057144D02*
X54756428Y43009524D01*
D10*
X54946904Y43057144D02*
X54851668Y43057144D01*
D10*
X55042144Y43009524D02*
X54946904Y43057144D01*
D10*
X55185000Y42914284D02*
X55042144Y43009524D01*
D10*
X55661192Y42438096D02*
X55185000Y42914284D01*
D10*
X55661192Y43104760D02*
X55661192Y42438096D01*
D10*
X54708808Y43961904D02*
X54804048Y44009524D01*
D10*
X54661192Y43819048D02*
X54708808Y43961904D01*
D10*
X54661192Y43723808D02*
X54661192Y43819048D01*
D10*
X54708808Y43580952D02*
X54661192Y43723808D01*
D10*
X54851668Y43485716D02*
X54708808Y43580952D01*
D10*
X55089760Y43438096D02*
X54851668Y43485716D01*
D10*
X55327856Y43438096D02*
X55089760Y43438096D01*
D10*
X55518332Y43485716D02*
X55327856Y43438096D01*
D10*
X55613572Y43580952D02*
X55518332Y43485716D01*
D10*
X55661192Y43723808D02*
X55613572Y43580952D01*
D10*
X55661192Y43771428D02*
X55661192Y43723808D01*
D10*
X55613572Y43914284D02*
X55661192Y43771428D01*
D10*
X55518332Y44009524D02*
X55613572Y43914284D01*
D10*
X55375476Y44057144D02*
X55518332Y44009524D01*
D10*
X55327856Y44057144D02*
X55375476Y44057144D01*
D10*
X55185000Y44009524D02*
X55327856Y44057144D01*
D10*
X55089760Y43914284D02*
X55185000Y44009524D01*
D10*
X55042144Y43771428D02*
X55089760Y43914284D01*
D10*
X55042144Y43723808D02*
X55042144Y43771428D01*
D10*
X55089760Y43580952D02*
X55042144Y43723808D01*
D10*
X55185000Y43485716D02*
X55089760Y43580952D01*
D10*
X55327856Y43438096D02*
X55185000Y43485716D01*
D10*
X50064760Y21440952D02*
X50112380Y21345714D01*
D10*
X49969524Y21536190D02*
X50064760Y21440952D01*
D10*
X49874284Y21583810D02*
X49969524Y21536190D01*
D10*
X49683808Y21583810D02*
X49874284Y21583810D01*
D10*
X49588572Y21536190D02*
X49683808Y21583810D01*
D10*
X49493332Y21440952D02*
X49588572Y21536190D01*
D10*
X49445716Y21345714D02*
X49493332Y21440952D01*
D10*
X49398096Y21202858D02*
X49445716Y21345714D01*
D10*
X49398096Y20964762D02*
X49398096Y21202858D01*
D10*
X49445716Y20821904D02*
X49398096Y20964762D01*
D10*
X49493332Y20726666D02*
X49445716Y20821904D01*
D10*
X49588572Y20631428D02*
X49493332Y20726666D01*
D10*
X49683808Y20583810D02*
X49588572Y20631428D01*
D10*
X49874284Y20583810D02*
X49683808Y20583810D01*
D10*
X49969524Y20631428D02*
X49874284Y20583810D01*
D10*
X50064760Y20726666D02*
X49969524Y20631428D01*
D10*
X50112380Y20821904D02*
X50064760Y20726666D01*
D10*
X50636192Y21440952D02*
X50540952Y21393334D01*
D10*
X50779048Y21583810D02*
X50636192Y21440952D01*
D10*
X50779048Y20583810D02*
X50779048Y21583810D01*
D10*
X51588572Y21440952D02*
X51493332Y21393334D01*
D10*
X51731428Y21583810D02*
X51588572Y21440952D01*
D10*
X51731428Y20583810D02*
X51731428Y21583810D01*
D10*
X54185716Y30023810D02*
X54185716Y31023810D01*
D10*
X54614284Y31023810D02*
X54185716Y31023810D01*
D10*
X54757144Y30976190D02*
X54614284Y31023810D01*
D10*
X54804760Y30928572D02*
X54757144Y30976190D01*
D10*
X54852380Y30833334D02*
X54804760Y30928572D01*
D10*
X54852380Y30738096D02*
X54852380Y30833334D01*
D10*
X54804760Y30642858D02*
X54852380Y30738096D01*
D10*
X54757144Y30595238D02*
X54804760Y30642858D01*
D10*
X54614284Y30547620D02*
X54757144Y30595238D01*
D10*
X54185716Y30547620D02*
X54614284Y30547620D01*
D10*
X54852380Y30023810D02*
X54519048Y30547620D01*
D10*
X55376192Y30880952D02*
X55280952Y30833334D01*
D10*
X55519048Y31023810D02*
X55376192Y30880952D01*
D10*
X55519048Y30023810D02*
X55519048Y31023810D01*
D10*
X56185716Y31023810D02*
X56661904Y31023810D01*
D10*
X56138096Y30595238D02*
X56185716Y31023810D01*
D10*
X56185716Y30642858D02*
X56138096Y30595238D01*
D10*
X56328572Y30690476D02*
X56185716Y30642858D01*
D10*
X56471428Y30690476D02*
X56328572Y30690476D01*
D10*
X56614284Y30642858D02*
X56471428Y30690476D01*
D10*
X56709524Y30547620D02*
X56614284Y30642858D01*
D10*
X56757144Y30404762D02*
X56709524Y30547620D01*
D10*
X56757144Y30309524D02*
X56757144Y30404762D01*
D10*
X56709524Y30166666D02*
X56757144Y30309524D01*
D10*
X56614284Y30071428D02*
X56709524Y30166666D01*
D10*
X56471428Y30023810D02*
X56614284Y30071428D01*
D10*
X56328572Y30023810D02*
X56471428Y30023810D01*
D10*
X56185716Y30071428D02*
X56328572Y30023810D01*
D10*
X56138096Y30119048D02*
X56185716Y30071428D01*
D10*
X56090476Y30214286D02*
X56138096Y30119048D01*
D10*
X24466190Y25600476D02*
X23466190Y25600476D01*
D10*
X23466190Y25933810D02*
X23466190Y25600476D01*
D10*
X23513810Y26076666D02*
X23466190Y25933810D01*
D10*
X23609048Y26171904D02*
X23513810Y26076666D01*
D10*
X23704286Y26219524D02*
X23609048Y26171904D01*
D10*
X23847142Y26267142D02*
X23704286Y26219524D01*
D10*
X24085238Y26267142D02*
X23847142Y26267142D01*
D10*
X24228096Y26219524D02*
X24085238Y26267142D01*
D10*
X24323334Y26171904D02*
X24228096Y26219524D01*
D10*
X24418572Y26076666D02*
X24323334Y26171904D01*
D10*
X24466190Y25933810D02*
X24418572Y26076666D01*
D10*
X24466190Y25600476D02*
X24466190Y25933810D01*
D10*
X23466190Y27171904D02*
X23466190Y26648096D01*
D10*
X23847142Y26886190D02*
X23466190Y27171904D01*
D10*
X23847142Y27029048D02*
X23847142Y26886190D01*
D10*
X23894762Y27124286D02*
X23847142Y27029048D01*
D10*
X23942380Y27171904D02*
X23894762Y27124286D01*
D10*
X24085238Y27219524D02*
X23942380Y27171904D01*
D10*
X24180476Y27219524D02*
X24085238Y27219524D01*
D10*
X24323334Y27171904D02*
X24180476Y27219524D01*
D10*
X24418572Y27076666D02*
X24323334Y27171904D01*
D10*
X24466190Y26933810D02*
X24418572Y27076666D01*
D10*
X24466190Y26790952D02*
X24466190Y26933810D01*
D10*
X24418572Y26648096D02*
X24466190Y26790952D01*
D10*
X24370952Y26600476D02*
X24418572Y26648096D01*
D10*
X24275714Y26552858D02*
X24370952Y26600476D01*
D10*
X12224762Y35800952D02*
X12272381Y35705716D01*
D10*
X12129524Y35896192D02*
X12224762Y35800952D01*
D10*
X12034286Y35943808D02*
X12129524Y35896192D01*
D10*
X11843810Y35943808D02*
X12034286Y35943808D01*
D10*
X11748572Y35896192D02*
X11843810Y35943808D01*
D10*
X11653334Y35800952D02*
X11748572Y35896192D01*
D10*
X11605714Y35705716D02*
X11653334Y35800952D01*
D10*
X11558095Y35562856D02*
X11605714Y35705716D01*
D10*
X11558095Y35324760D02*
X11558095Y35562856D01*
D10*
X11605714Y35181904D02*
X11558095Y35324760D01*
D10*
X11653334Y35086668D02*
X11605714Y35181904D01*
D10*
X11748572Y34991428D02*
X11653334Y35086668D01*
D10*
X11843810Y34943808D02*
X11748572Y34991428D01*
D10*
X12034286Y34943808D02*
X11843810Y34943808D01*
D10*
X12129524Y34991428D02*
X12034286Y34943808D01*
D10*
X12224762Y35086668D02*
X12129524Y34991428D01*
D10*
X12272381Y35181904D02*
X12224762Y35086668D01*
D10*
X12796190Y35800952D02*
X12700952Y35753332D01*
D10*
X12939048Y35943808D02*
X12796190Y35800952D01*
D10*
X12939048Y34943808D02*
X12939048Y35943808D01*
D10*
X14081905Y35467620D02*
X14129524Y35610476D01*
D10*
X13986667Y35372380D02*
X14081905Y35467620D01*
D10*
X13843810Y35324760D02*
X13986667Y35372380D01*
D10*
X13796190Y35324760D02*
X13843810Y35324760D01*
D10*
X13653333Y35372380D02*
X13796190Y35324760D01*
D10*
X13558095Y35467620D02*
X13653333Y35372380D01*
D10*
X13510476Y35610476D02*
X13558095Y35467620D01*
D10*
X13510476Y35658096D02*
X13510476Y35610476D01*
D10*
X13558095Y35800952D02*
X13510476Y35658096D01*
D10*
X13653333Y35896192D02*
X13558095Y35800952D01*
D10*
X13796190Y35943808D02*
X13653333Y35896192D01*
D10*
X13843810Y35943808D02*
X13796190Y35943808D01*
D10*
X13986667Y35896192D02*
X13843810Y35943808D01*
D10*
X14081905Y35800952D02*
X13986667Y35896192D01*
D10*
X14129524Y35610476D02*
X14081905Y35800952D01*
D10*
X14129524Y35372380D02*
X14129524Y35610476D01*
D10*
X14081905Y35134284D02*
X14129524Y35372380D01*
D10*
X13986667Y34991428D02*
X14081905Y35134284D01*
D10*
X13843810Y34943808D02*
X13986667Y34991428D01*
D10*
X13748571Y34943808D02*
X13843810Y34943808D01*
D10*
X13605714Y34991428D02*
X13748571Y34943808D01*
D10*
X13558095Y35086668D02*
X13605714Y34991428D01*
D11*
X8980000Y31360000D02*
X8780000Y31360000D01*
D11*
X8980000Y30560000D02*
X8780000Y30560000D01*
D11*
X54090000Y36280000D02*
X54090000Y36480000D01*
D11*
X53290000Y36280000D02*
X53290000Y36480000D01*
D11*
X28090000Y27035000D02*
X28090000Y25785000D01*
D11*
X29690000Y27035000D02*
X29690000Y25785000D01*
D11*
X6855000Y23435000D02*
X6305000Y23435000D01*
D11*
X6855000Y24285000D02*
X6305000Y24285000D01*
D11*
X10280000Y22700000D02*
X10480000Y22700000D01*
D11*
X10280000Y23500000D02*
X10480000Y23500000D01*
D11*
X46500000Y14650000D02*
X45650000Y13800000D01*
D11*
X45650000Y13800000D02*
X46500000Y14650000D01*
D11*
X45650000Y11200000D02*
X46500000Y10350000D01*
D11*
X45650000Y11200000D02*
X45650000Y11475000D01*
D11*
X49950000Y14650000D02*
X49950000Y13525000D01*
D11*
X49950000Y14650000D02*
X46500000Y14650000D01*
D11*
X46500000Y14650000D02*
X45650000Y13800000D01*
D11*
X49950000Y10350000D02*
X49950000Y11475000D01*
D11*
X45650000Y13800000D02*
X45650000Y13530000D01*
D11*
X45650000Y13800000D02*
X45650000Y13800000D01*
D11*
X46500000Y10350000D02*
X49950000Y10350000D01*
D11*
X30270000Y45950000D02*
X33970000Y45950000D01*
D11*
X30270000Y49900000D02*
X30270000Y45400000D01*
D11*
X31470000Y49900000D02*
X32770000Y49900000D01*
D11*
X31470000Y45400000D02*
X32770000Y45400000D01*
D11*
X33970000Y45400000D02*
X33970000Y49900000D01*
D11*
X27100000Y43600000D02*
X27050000Y53600000D01*
D11*
X21650000Y53600000D02*
X28150000Y53600000D01*
D11*
X21650000Y50550000D02*
X21650000Y51750000D01*
D11*
X28150000Y53600000D02*
X28150000Y53050000D01*
D11*
X28150000Y46650000D02*
X28150000Y45450000D01*
D11*
X21650000Y45450000D02*
X21650000Y46650000D01*
D11*
X28150000Y43600000D02*
X21650000Y43600000D01*
D11*
X28150000Y50550000D02*
X28150000Y51750000D01*
D11*
X28150000Y49200000D02*
X28150000Y48000000D01*
D11*
X21650000Y53100000D02*
X21650000Y53600000D01*
D11*
X21650000Y48000000D02*
X21650000Y49200000D01*
D11*
X28150000Y44150000D02*
X28150000Y43600000D01*
D11*
X21650000Y43600000D02*
X21650000Y44150000D01*
D11*
X6630000Y28635000D02*
X6630000Y29885000D01*
D11*
X5030000Y28635000D02*
X5030000Y29885000D01*
D11*
X31590000Y11100000D02*
X32440000Y10250000D01*
D11*
X32440000Y10250000D02*
X31590000Y11100000D01*
D11*
X35040000Y10250000D02*
X35890000Y11100000D01*
D11*
X35040000Y10250000D02*
X34765000Y10250000D01*
D11*
X31590000Y14550000D02*
X32715000Y14550000D01*
D11*
X31590000Y14550000D02*
X31590000Y11100000D01*
D11*
X31590000Y11100000D02*
X32440000Y10250000D01*
D11*
X35890000Y14550000D02*
X34765000Y14550000D01*
D11*
X32440000Y10250000D02*
X32710000Y10250000D01*
D11*
X32440000Y10250000D02*
X32440000Y10250000D01*
D11*
X35890000Y11100000D02*
X35890000Y14550000D01*
D11*
X37950000Y44200000D02*
X37630000Y44200000D01*
D11*
X37655000Y45875000D02*
X40605000Y45875000D01*
D11*
X37655000Y45925000D02*
X40605000Y45925000D01*
D11*
X40630000Y44200000D02*
X40310000Y44200000D01*
D11*
X37630000Y44200000D02*
X37630000Y48600000D01*
D11*
X37630000Y48600000D02*
X37950000Y48600000D01*
D11*
X40630000Y48600000D02*
X40630000Y44200000D01*
D11*
X37655000Y45825000D02*
X40605000Y45825000D01*
D11*
X37655000Y45975000D02*
X40605000Y45975000D01*
D11*
X40310000Y48600000D02*
X40630000Y48600000D01*
D11*
X4105000Y33185000D02*
X4655000Y33185000D01*
D11*
X4105000Y32335000D02*
X4655000Y32335000D01*
D11*
X50400000Y42600000D02*
X50400000Y42800000D01*
D11*
X49600000Y42600000D02*
X49600000Y42800000D01*
D11*
X16825000Y33775000D02*
X16825000Y33225000D01*
D11*
X15975000Y33775000D02*
X15975000Y33225000D01*
D11*
X32540000Y22885000D02*
X32540000Y24135000D01*
D11*
X30940000Y22885000D02*
X30940000Y24135000D01*
D11*
X49700000Y1430000D02*
X49700000Y7180000D01*
D11*
X54700000Y1430000D02*
X57100000Y1430000D01*
D11*
X49700000Y1430000D02*
X52100000Y1430000D01*
D11*
X57100000Y7180000D02*
X57100000Y1430000D01*
D11*
X49700000Y7180000D02*
X57100000Y7180000D01*
D11*
X40665000Y11200000D02*
X40115000Y11200000D01*
D11*
X38940000Y11475000D02*
X38940000Y12500000D01*
D11*
X41840000Y12500000D02*
X41840000Y11475000D01*
D11*
X41065000Y12500000D02*
X41840000Y12500000D01*
D11*
X38940000Y12500000D02*
X39715000Y12500000D01*
D11*
X10100000Y75300000D02*
X10100000Y79400000D01*
D11*
X20100000Y54400000D02*
X20100000Y50500000D01*
D11*
X5600000Y54400000D02*
X5600000Y75300000D01*
D11*
X10100000Y79400000D02*
X21100000Y79400000D01*
D11*
X5600000Y75300000D02*
X10100000Y75300000D01*
D11*
X25600000Y54400000D02*
X20100000Y54400000D01*
D11*
X20100000Y50500000D02*
X11100000Y50500000D01*
D11*
X21100000Y79400000D02*
X21100000Y75300000D01*
D11*
X11100000Y54400000D02*
X5600000Y54400000D01*
D11*
X11100000Y50500000D02*
X11100000Y54400000D01*
D11*
X21100000Y75300000D02*
X25600000Y75300000D01*
D11*
X25600000Y75300000D02*
X25600000Y54400000D01*
D11*
X51425000Y32945000D02*
X51425000Y33495000D01*
D11*
X52275000Y32945000D02*
X52275000Y33495000D01*
D11*
X28225000Y41575000D02*
X28225000Y41350000D01*
D11*
X28225000Y42650000D02*
X28225000Y42425000D01*
D11*
X27700000Y41375000D02*
X27700000Y42625000D01*
D11*
X26525000Y42650000D02*
X28225000Y42650000D01*
D11*
X28225000Y41350000D02*
X26525000Y41350000D01*
D11*
X26525000Y42425000D02*
X26525000Y42650000D01*
D11*
X26525000Y41350000D02*
X26525000Y41575000D01*
D11*
X27800000Y41375000D02*
X27800000Y42625000D01*
D11*
X27750000Y41375000D02*
X27750000Y42625000D01*
D11*
X40600000Y28215000D02*
X40600000Y29465000D01*
D11*
X39000000Y28215000D02*
X39000000Y29465000D01*
D11*
X16750000Y28260000D02*
X16750000Y28060000D01*
D11*
X17550000Y28260000D02*
X17550000Y28060000D01*
D11*
X47765000Y42425000D02*
X47765000Y42975000D01*
D11*
X48615000Y42425000D02*
X48615000Y42975000D01*
D11*
X53265000Y32945000D02*
X53265000Y33495000D01*
D11*
X54115000Y32945000D02*
X54115000Y33495000D01*
D11*
X37950000Y11400000D02*
X37950000Y11600000D01*
D11*
X37150000Y11400000D02*
X37150000Y11600000D01*
D11*
X29290000Y15610000D02*
X27015000Y15610000D01*
D11*
X23990000Y22210000D02*
X24965000Y22210000D01*
D11*
X27990000Y22210000D02*
X27015000Y22210000D01*
D11*
X27990000Y22210000D02*
X29290000Y20910000D01*
D11*
X22690000Y15610000D02*
X24965000Y15610000D01*
D11*
X22690000Y20910000D02*
X23990000Y22210000D01*
D11*
X29290000Y20910000D02*
X29290000Y15610000D01*
D11*
X22690000Y15610000D02*
X22690000Y20910000D01*
D11*
X27825000Y40230000D02*
X27625000Y40230000D01*
D11*
X27825000Y39430000D02*
X27625000Y39430000D01*
D11*
X15445000Y31445000D02*
X15995000Y31445000D01*
D11*
X15445000Y30595000D02*
X15995000Y30595000D01*
D11*
X52275000Y36555000D02*
X52275000Y36005000D01*
D11*
X51425000Y36555000D02*
X51425000Y36005000D01*
D11*
X36725000Y18725000D02*
X36725000Y18675000D01*
D11*
X38675000Y18675000D02*
X38675000Y18625000D01*
D11*
X38675000Y18625000D02*
X36725000Y18625000D01*
D11*
X38675000Y18575000D02*
X38675000Y18550000D01*
D11*
X36725000Y18575000D02*
X38675000Y18575000D01*
D11*
X36725000Y17725000D02*
X36725000Y18725000D01*
D11*
X36725000Y18675000D02*
X38675000Y18675000D01*
D11*
X38675000Y18725000D02*
X36725000Y18725000D01*
D11*
X36725000Y18625000D02*
X36725000Y18575000D01*
D11*
X38675000Y18725000D02*
X38675000Y17722500D01*
D11*
X20440000Y14730000D02*
X20440000Y13755000D01*
D11*
X18240000Y13755000D02*
X18240000Y14730000D01*
D11*
X18240000Y14730000D02*
X18765000Y14730000D01*
D11*
X19915000Y14730000D02*
X20440000Y14730000D01*
D11*
X19415000Y13330000D02*
X19265000Y13330000D01*
D11*
X26905000Y32425000D02*
X26955000Y32425000D01*
D11*
X26955000Y34375000D02*
X27005000Y34375000D01*
D11*
X27005000Y34375000D02*
X27005000Y32425000D01*
D11*
X27055000Y34375000D02*
X27080000Y34375000D01*
D11*
X27055000Y32425000D02*
X27055000Y34375000D01*
D11*
X27905000Y32425000D02*
X26905000Y32425000D01*
D11*
X26955000Y32425000D02*
X26955000Y34375000D01*
D11*
X26905000Y34375000D02*
X26905000Y32425000D01*
D11*
X27005000Y32425000D02*
X27055000Y32425000D01*
D11*
X26905000Y34375000D02*
X27907500Y34375000D01*
D11*
X50100000Y23910000D02*
X50100000Y27890000D01*
D11*
X55100000Y27890000D02*
X55100000Y23910000D01*
D11*
X50100000Y24550000D02*
X55100000Y24550000D01*
D11*
X52875000Y30375000D02*
X52325000Y30375000D01*
D11*
X52875000Y31225000D02*
X52325000Y31225000D01*
D11*
X36725000Y24015000D02*
X36725000Y23965000D01*
D11*
X38675000Y23965000D02*
X38675000Y23915000D01*
D11*
X38675000Y23915000D02*
X36725000Y23915000D01*
D11*
X38675000Y23865000D02*
X38675000Y23840000D01*
D11*
X36725000Y23865000D02*
X38675000Y23865000D01*
D11*
X36725000Y23015000D02*
X36725000Y24015000D01*
D11*
X36725000Y23965000D02*
X38675000Y23965000D01*
D11*
X38675000Y24015000D02*
X36725000Y24015000D01*
D11*
X36725000Y23915000D02*
X36725000Y23865000D01*
D11*
X38675000Y24015000D02*
X38675000Y23012500D01*
D11*
X25000000Y10070000D02*
X25000000Y6090000D01*
D11*
X20000000Y6090000D02*
X20000000Y10070000D01*
D11*
X25000000Y9430000D02*
X20000000Y9430000D01*
D11*
X26815000Y29700000D02*
X28065000Y29700000D01*
D11*
X26815000Y31300000D02*
X28065000Y31300000D01*
D11*
X33705000Y24015000D02*
X33705000Y23965000D01*
D11*
X35655000Y23965000D02*
X35655000Y23915000D01*
D11*
X35655000Y23915000D02*
X33705000Y23915000D01*
D11*
X35655000Y23865000D02*
X35655000Y23840000D01*
D11*
X33705000Y23865000D02*
X35655000Y23865000D01*
D11*
X33705000Y23015000D02*
X33705000Y24015000D01*
D11*
X33705000Y23965000D02*
X35655000Y23965000D01*
D11*
X35655000Y24015000D02*
X33705000Y24015000D01*
D11*
X33705000Y23915000D02*
X33705000Y23865000D01*
D11*
X35655000Y24015000D02*
X35655000Y23012500D01*
D11*
X33200000Y60150000D02*
X33200000Y54400000D01*
D11*
X28200000Y60150000D02*
X25800000Y60150000D01*
D11*
X33200000Y60150000D02*
X30800000Y60150000D01*
D11*
X25800000Y54400000D02*
X25800000Y60150000D01*
D11*
X33200000Y54400000D02*
X25800000Y54400000D01*
D11*
X46465000Y31930000D02*
X45890000Y31930000D01*
D11*
X44840000Y32980000D02*
X44840000Y37230000D01*
D11*
X49090000Y31930000D02*
X48515000Y31930000D01*
D11*
X50140000Y37230000D02*
X48515000Y37230000D01*
D11*
X49090000Y31930000D02*
X50140000Y32980000D01*
D11*
X45890000Y31930000D02*
X44840000Y32980000D01*
D11*
X50140000Y32980000D02*
X50140000Y37230000D01*
D11*
X44840000Y37230000D02*
X46465000Y37230000D01*
D11*
X21435000Y13255000D02*
X21435000Y13805000D01*
D11*
X22285000Y13255000D02*
X22285000Y13805000D01*
D11*
X2400000Y1430000D02*
X2400000Y7180000D01*
D11*
X7400000Y1430000D02*
X9800000Y1430000D01*
D11*
X2400000Y1430000D02*
X4800000Y1430000D01*
D11*
X9800000Y7180000D02*
X9800000Y1430000D01*
D11*
X2400000Y7180000D02*
X9800000Y7180000D01*
D11*
X12150000Y39100000D02*
X12550000Y39100000D01*
D11*
X17150000Y42700000D02*
X18100000Y42700000D01*
D11*
X17150000Y39100000D02*
X18100000Y39100000D01*
D11*
X9100000Y39100000D02*
X9100000Y42700000D01*
D11*
X18100000Y42700000D02*
X18100000Y39100000D01*
D11*
X12150000Y42700000D02*
X12550000Y42700000D01*
D11*
X14650000Y39100000D02*
X15050000Y39100000D01*
D11*
X9100000Y42700000D02*
X10050000Y42700000D01*
D11*
X14650000Y42700000D02*
X15050000Y42700000D01*
D11*
X9100000Y39100000D02*
X10050000Y39100000D01*
D11*
X39500000Y1430000D02*
X29600000Y1430000D01*
D11*
X29600000Y5430000D02*
X39500000Y5430000D01*
D11*
X29600000Y1430000D02*
X29600000Y5430000D01*
D11*
X39500000Y5430000D02*
X39500000Y1430000D01*
D11*
X26965000Y25885000D02*
X26965000Y25935000D01*
D11*
X25015000Y25935000D02*
X25015000Y25985000D01*
D11*
X25015000Y25985000D02*
X26965000Y25985000D01*
D11*
X25015000Y26035000D02*
X25015000Y26060000D01*
D11*
X26965000Y26035000D02*
X25015000Y26035000D01*
D11*
X26965000Y26885000D02*
X26965000Y25885000D01*
D11*
X26965000Y25935000D02*
X25015000Y25935000D01*
D11*
X25015000Y25885000D02*
X26965000Y25885000D01*
D11*
X26965000Y25985000D02*
X26965000Y26035000D01*
D11*
X25015000Y25885000D02*
X25015000Y26887500D01*
D11*
X42430000Y33930000D02*
X40155000Y33930000D01*
D11*
X37130000Y40530000D02*
X38105000Y40530000D01*
D11*
X41130000Y40530000D02*
X40155000Y40530000D01*
D11*
X41130000Y40530000D02*
X42430000Y39230000D01*
D11*
X35830000Y33930000D02*
X38105000Y33930000D01*
D11*
X35830000Y39230000D02*
X37130000Y40530000D01*
D11*
X42430000Y39230000D02*
X42430000Y33930000D01*
D11*
X35830000Y33930000D02*
X35830000Y39230000D01*
D11*
X34580000Y40480000D02*
X34580000Y40680000D01*
D11*
X33780000Y40480000D02*
X33780000Y40680000D01*
D11*
X51360000Y42800000D02*
X51360000Y42600000D01*
D11*
X52160000Y42800000D02*
X52160000Y42600000D01*
D11*
X31605000Y40280000D02*
X31055000Y40280000D01*
D11*
X29880000Y40555000D02*
X29880000Y41580000D01*
D11*
X32780000Y41580000D02*
X32780000Y40555000D01*
D11*
X32005000Y41580000D02*
X32780000Y41580000D01*
D11*
X29880000Y41580000D02*
X30655000Y41580000D01*
D11*
X43650000Y11400000D02*
X43650000Y11600000D01*
D11*
X42850000Y11400000D02*
X42850000Y11600000D01*
D11*
X3855000Y30235000D02*
X3855000Y29685000D01*
D11*
X3005000Y30235000D02*
X3005000Y29685000D01*
D11*
X53860000Y21460000D02*
X53660000Y21460000D01*
D11*
X53860000Y20660000D02*
X53660000Y20660000D01*
D11*
X46600000Y16070000D02*
X44325000Y16070000D01*
D11*
X41300000Y22670000D02*
X42275000Y22670000D01*
D11*
X45300000Y22670000D02*
X44325000Y22670000D01*
D11*
X45300000Y22670000D02*
X46600000Y21370000D01*
D11*
X40000000Y16070000D02*
X42275000Y16070000D01*
D11*
X40000000Y21370000D02*
X41300000Y22670000D01*
D11*
X46600000Y21370000D02*
X46600000Y16070000D01*
D11*
X40000000Y16070000D02*
X40000000Y21370000D01*
D11*
X18620000Y3970000D02*
X26800000Y3970000D01*
D11*
X18620000Y1430000D02*
X18620000Y3970000D01*
D11*
X26800000Y3970000D02*
X26800000Y1430000D01*
D11*
X26800000Y1430000D02*
X18620000Y1430000D01*
D11*
X12295000Y32620000D02*
X13545000Y32620000D01*
D11*
X12295000Y34220000D02*
X13545000Y34220000D01*
D11*
X32410000Y31800000D02*
X36390000Y31800000D01*
D11*
X36390000Y26800000D02*
X32410000Y26800000D01*
D11*
X33050000Y31800000D02*
X33050000Y26800000D01*
D11*
X10310000Y29500000D02*
X14290000Y29500000D01*
D11*
X14290000Y24500000D02*
X10310000Y24500000D01*
D11*
X10950000Y29500000D02*
X10950000Y24500000D01*
D11*
X31475000Y6200000D02*
X33125000Y6200000D01*
D11*
X31475000Y7800000D02*
X33125000Y7800000D01*
D11*
X45980000Y42800000D02*
X45980000Y42600000D01*
D11*
X46780000Y42800000D02*
X46780000Y42600000D01*
D11*
X19705000Y32040000D02*
X19130000Y32040000D01*
D11*
X18080000Y33090000D02*
X18080000Y37340000D01*
D11*
X22330000Y32040000D02*
X21755000Y32040000D01*
D11*
X23380000Y37340000D02*
X21755000Y37340000D01*
D11*
X22330000Y32040000D02*
X23380000Y33090000D01*
D11*
X19130000Y32040000D02*
X18080000Y33090000D01*
D11*
X23380000Y33090000D02*
X23380000Y37340000D01*
D11*
X18080000Y37340000D02*
X19705000Y37340000D01*
D11*
X25980000Y10100000D02*
X25980000Y9900000D01*
D11*
X26780000Y10100000D02*
X26780000Y9900000D01*
D11*
X48300000Y27920000D02*
X48300000Y27720000D01*
D11*
X49100000Y27920000D02*
X49100000Y27720000D01*
D11*
X48525000Y40565000D02*
X49075000Y40565000D01*
D11*
X48525000Y39715000D02*
X49075000Y39715000D01*
D11*
X48300000Y8430000D02*
X48300000Y1430000D01*
D11*
X41700000Y1430000D02*
X41700000Y8430000D01*
D11*
X48300000Y1430000D02*
X41700000Y1430000D01*
D11*
X41700000Y8430000D02*
X48300000Y8430000D01*
D11*
X11945000Y31445000D02*
X12495000Y31445000D01*
D11*
X11945000Y30595000D02*
X12495000Y30595000D01*
D11*
X18155000Y10285000D02*
X18155000Y10835000D01*
D11*
X19005000Y10285000D02*
X19005000Y10835000D01*
D11*
X6305000Y26185000D02*
X6855000Y26185000D01*
D11*
X6305000Y25335000D02*
X6855000Y25335000D01*
D11*
X21205000Y40664999D02*
X21755000Y40664999D01*
D11*
X21205000Y39814999D02*
X21755000Y39814999D01*
D11*
X37900000Y75300000D02*
X37900000Y79400000D01*
D11*
X47900000Y54400000D02*
X47900000Y50500000D01*
D11*
X33400000Y54400000D02*
X33400000Y75300000D01*
D11*
X37900000Y79400000D02*
X48900000Y79400000D01*
D11*
X33400000Y75300000D02*
X37900000Y75300000D01*
D11*
X53400000Y54400000D02*
X47900000Y54400000D01*
D11*
X47900000Y50500000D02*
X38900000Y50500000D01*
D11*
X48900000Y79400000D02*
X48900000Y75300000D01*
D11*
X38900000Y54400000D02*
X33400000Y54400000D01*
D11*
X38900000Y50500000D02*
X38900000Y54400000D01*
D11*
X48900000Y75300000D02*
X53400000Y75300000D01*
D11*
X53400000Y75300000D02*
X53400000Y54400000D01*
D11*
X7105000Y33185000D02*
X7655000Y33185000D01*
D11*
X7105000Y32335000D02*
X7655000Y32335000D01*
D11*
X1610000Y36060000D02*
X2460000Y35210000D01*
D11*
X2460000Y35210000D02*
X1610000Y36060000D01*
D11*
X5060000Y35210000D02*
X5910000Y36060000D01*
D11*
X5060000Y35210000D02*
X4785000Y35210000D01*
D11*
X1610000Y39510000D02*
X2735000Y39510000D01*
D11*
X1610000Y39510000D02*
X1610000Y36060000D01*
D11*
X1610000Y36060000D02*
X2460000Y35210000D01*
D11*
X5910000Y39510000D02*
X4785000Y39510000D01*
D11*
X2460000Y35210000D02*
X2730000Y35210000D01*
D11*
X2460000Y35210000D02*
X2460000Y35210000D01*
D11*
X5910000Y36060000D02*
X5910000Y39510000D01*
D10*
X6050000Y41900000D02*
X5650000Y41500000D01*
D10*
X4750000Y41900000D02*
X5150000Y42300000D01*
D10*
X6050000Y41900000D02*
X5650000Y42300000D01*
D10*
X4750000Y41900000D02*
X6050000Y41900000D01*
D10*
X4750000Y41900000D02*
X5150000Y41500000D01*
D12*
X53077000Y17048000D02*
X53202000Y17309000D01*
D12*
X57022000Y16334000D02*
X57068000Y16392000D01*
D12*
X55768000Y18135000D02*
X55902000Y18217000D01*
D12*
X53514000Y18387000D02*
X53832000Y18159000D01*
D12*
X53138000Y16878000D02*
X52681000Y16783000D01*
D12*
X53108000Y16232000D02*
X53248000Y15981000D01*
D12*
X53197000Y15736000D02*
X53101000Y15987000D01*
D12*
X54333000Y17157000D02*
X54818000Y17331000D01*
D12*
X55086000Y15899000D02*
X55135000Y15959000D01*
D12*
X53643000Y14807000D02*
X53382000Y14649000D01*
D12*
X55056000Y18932000D02*
X55135000Y18915000D01*
D12*
X53248000Y15981000D02*
X53362000Y15710000D01*
D12*
X52623000Y16337000D02*
X52927000Y16264000D01*
D12*
X52914000Y16119000D02*
X52749000Y16151000D01*
D12*
X54818000Y17331000D02*
X55297000Y17172000D01*
D12*
X53452000Y18247000D02*
X53406000Y18274000D01*
D12*
X52681000Y16783000D02*
X52587000Y16746000D01*
D12*
X55775000Y15100000D02*
X56041000Y14955000D01*
D12*
X53389000Y14818000D02*
X53430000Y14841000D01*
D12*
X55310000Y15703000D02*
X55582000Y15067000D01*
D12*
X55256000Y15846000D02*
X55310000Y15703000D01*
D12*
X53262000Y17453000D02*
X53161000Y17614000D01*
D12*
X53631000Y18124000D02*
X53452000Y18247000D01*
D12*
X54542000Y18459000D02*
X54520000Y18356000D01*
D12*
X52443000Y16873000D02*
X52508000Y16893000D01*
D12*
X56463000Y16197000D02*
X56542000Y16223000D01*
D12*
X56484000Y17220000D02*
X56638000Y16997000D01*
D12*
X56266000Y15651000D02*
X56345000Y15845000D01*
D12*
X55589000Y16362000D02*
X55327000Y15923000D01*
D12*
X54564000Y18575000D02*
X54542000Y18459000D01*
D12*
X55102000Y18464000D02*
X55001000Y18781000D01*
D12*
X55327000Y15923000D02*
X55256000Y15846000D01*
D12*
X54191000Y16407000D02*
X54376000Y16081000D01*
D12*
X54376000Y18376000D02*
X54443000Y18694000D01*
D12*
X55630000Y17984000D02*
X55413000Y18077000D01*
D12*
X56654000Y15238000D02*
X56730000Y15089000D01*
D12*
X55571000Y18164000D02*
X55718000Y18110000D01*
D12*
X54443000Y18694000D02*
X54500000Y18925000D01*
D12*
X53392000Y15584000D02*
X53262000Y15378000D01*
D12*
X55580000Y16754000D02*
X55589000Y16362000D01*
D12*
X56442000Y15711000D02*
X56429000Y15598000D01*
D12*
X53101000Y15107000D02*
X53245000Y14959000D01*
D12*
X56501000Y18024000D02*
X56268000Y18261000D01*
D12*
X56243000Y15588000D02*
X56266000Y15651000D01*
D12*
X56292000Y18446000D02*
X56471000Y18284000D01*
D12*
X57191000Y16871000D02*
X57216000Y16858000D01*
D12*
X57216000Y16858000D02*
X57215000Y16604000D01*
D12*
X55297000Y17172000D02*
X55580000Y16754000D01*
D12*
X55853000Y14913000D02*
X55827000Y14933000D01*
D12*
X55827000Y14933000D02*
X55665000Y14912000D01*
D12*
X56117000Y18364000D02*
X56292000Y18446000D01*
D12*
X55672000Y15079000D02*
X55775000Y15100000D01*
D12*
X54008000Y14897000D02*
X53919000Y14945000D01*
D12*
X56291000Y14651000D02*
X56226000Y14666000D01*
D12*
X52982000Y17876000D02*
X52909000Y17988000D01*
D12*
X53011000Y16098000D02*
X52914000Y16119000D01*
D12*
X53382000Y14649000D02*
X53282000Y14716000D01*
D12*
X53626000Y14969000D02*
X53811000Y15097000D01*
D12*
X56429000Y15598000D02*
X56654000Y15238000D01*
D12*
X54300000Y15611000D02*
X54374000Y15814000D01*
D12*
X56444000Y14991000D02*
X56537000Y15098000D01*
D12*
X56650000Y14990000D02*
X56535000Y14863000D01*
D12*
X52932000Y18020000D02*
X53096000Y18191000D01*
D12*
X54543000Y15841000D02*
X54213000Y15026000D01*
D12*
X57068000Y16392000D02*
X57053000Y16746000D01*
D12*
X53056000Y14939000D02*
X52910000Y15088000D01*
D12*
X54467000Y17091000D02*
X54229000Y16791000D01*
D12*
X54044000Y18152000D02*
X54292000Y18257000D01*
D12*
X53962000Y15087000D02*
X54044000Y15052000D01*
D12*
X54388000Y18143000D02*
X54176000Y18051000D01*
D12*
X53282000Y14716000D02*
X53282000Y14716000D01*
D12*
X53832000Y18159000D02*
X54044000Y18152000D01*
D12*
X53289000Y17677000D02*
X53413000Y17479000D01*
D12*
X56730000Y17990000D02*
X56544000Y17696000D01*
D12*
X53202000Y17309000D02*
X53262000Y17453000D01*
D12*
X54615000Y18776000D02*
X54564000Y18575000D01*
D12*
X53245000Y14959000D02*
X53389000Y14818000D01*
D12*
X56535000Y14863000D02*
X56291000Y14651000D01*
D12*
X54388000Y15850000D02*
X54350000Y15893000D01*
D12*
X57203000Y16221000D02*
X57140000Y16201000D01*
D12*
X56540000Y17970000D02*
X56501000Y18024000D01*
D12*
X57215000Y16604000D02*
X57208000Y16285000D01*
D12*
X54039000Y16537000D02*
X54113000Y16883000D01*
D12*
X54563000Y15904000D02*
X54543000Y15841000D01*
D12*
X56720000Y16832000D02*
X56517000Y16874000D01*
D12*
X55413000Y18077000D02*
X55179000Y18188000D01*
D12*
X52444000Y16224000D02*
X52438000Y16511000D01*
D12*
X54500000Y18925000D02*
X55056000Y18932000D01*
D12*
X56638000Y16997000D02*
X56929000Y16936000D01*
D12*
X54254000Y16000000D02*
X54039000Y16537000D01*
D12*
X53101000Y15987000D02*
X53011000Y16098000D01*
D12*
X52438000Y16511000D02*
X52438000Y16835000D01*
D12*
X56504000Y15875000D02*
X56442000Y15711000D01*
D12*
X53257000Y18358000D02*
X53380000Y18442000D01*
D12*
X54938000Y17178000D02*
X54467000Y17091000D01*
D12*
X53244000Y17063000D02*
X53138000Y16878000D01*
D12*
X53362000Y15710000D02*
X53408000Y15616000D01*
D12*
X53811000Y15097000D02*
X53962000Y15087000D01*
D12*
X56433000Y17337000D02*
X56484000Y17220000D01*
D12*
X52924000Y15120000D02*
X53158000Y15476000D01*
D12*
X56405000Y17440000D02*
X56433000Y17337000D01*
D12*
X56250000Y14835000D02*
X56444000Y14991000D01*
D12*
X55179000Y18188000D02*
X55102000Y18464000D01*
D12*
X56345000Y15845000D02*
X56457000Y16161000D01*
D12*
X53626000Y14969000D02*
X53626000Y14969000D01*
D12*
X53919000Y14945000D02*
X53835000Y14931000D01*
D12*
X55582000Y15067000D02*
X55672000Y15079000D01*
D12*
X56379000Y17123000D02*
X56276000Y17347000D01*
D12*
X55388000Y16871000D02*
X54938000Y17178000D01*
D12*
X56734000Y16268000D02*
X57022000Y16334000D01*
D12*
X55718000Y18110000D02*
X55768000Y18135000D01*
D12*
X56471000Y18284000D02*
X56730000Y17990000D01*
D12*
X53360000Y18245000D02*
X53162000Y18061000D01*
D12*
X56537000Y15098000D02*
X56358000Y15418000D01*
D12*
X56517000Y17927000D02*
X56540000Y17970000D01*
D12*
X55902000Y18217000D02*
X56017000Y18290000D01*
D12*
X55350000Y15223000D02*
X55165000Y15669000D01*
D12*
X57208000Y16285000D02*
X57203000Y16221000D01*
D12*
X56245000Y17494000D02*
X56380000Y17711000D01*
D12*
X53408000Y15616000D02*
X53392000Y15584000D01*
D12*
X56949000Y16159000D02*
X56598000Y16089000D01*
D12*
X52749000Y16151000D02*
X52489000Y16208000D01*
D12*
X54176000Y18051000D02*
X53910000Y17956000D01*
D12*
X53096000Y18191000D02*
X53257000Y18358000D01*
D12*
X53161000Y17614000D02*
X52982000Y17876000D01*
D12*
X52909000Y17988000D02*
X52932000Y18020000D01*
D12*
X56542000Y16223000D02*
X56734000Y16268000D01*
D12*
X56598000Y16089000D02*
X56504000Y15875000D01*
D12*
X53100000Y17988000D02*
X53132000Y17924000D01*
D12*
X52508000Y16893000D02*
X52704000Y16936000D01*
D12*
X54374000Y15814000D02*
X54388000Y15850000D01*
D12*
X53262000Y15378000D02*
X53101000Y15107000D01*
D12*
X52704000Y16936000D02*
X53077000Y17048000D01*
D12*
X56358000Y15418000D02*
X56243000Y15588000D01*
D12*
X54173000Y14924000D02*
X54008000Y14897000D01*
D12*
X53380000Y18442000D02*
X53514000Y18387000D01*
D12*
X56276000Y17347000D02*
X56224000Y17450000D01*
D12*
X54113000Y16883000D02*
X54333000Y17157000D01*
D12*
X55428000Y16309000D02*
X55388000Y16871000D01*
D12*
X56080000Y18163000D02*
X55772000Y17964000D01*
D12*
X55001000Y18781000D02*
X54615000Y18776000D01*
D12*
X52438000Y16835000D02*
X52443000Y16873000D01*
D12*
X53282000Y14716000D02*
X53056000Y14939000D01*
D12*
X52489000Y16208000D02*
X52444000Y16224000D01*
D12*
X54044000Y15052000D02*
X54300000Y15611000D01*
D12*
X53910000Y17956000D02*
X53631000Y18124000D01*
D12*
X55135000Y15959000D02*
X55428000Y16309000D01*
D12*
X56268000Y18261000D02*
X56080000Y18163000D01*
D12*
X53413000Y17479000D02*
X53244000Y17063000D01*
D12*
X55254000Y18447000D02*
X55300000Y18287000D01*
D12*
X54350000Y18292000D02*
X54376000Y18376000D01*
D12*
X52587000Y16746000D02*
X52580000Y16407000D01*
D12*
X52910000Y15088000D02*
X52924000Y15120000D01*
D12*
X55514000Y14879000D02*
X55350000Y15223000D01*
D12*
X54350000Y15893000D02*
X54254000Y16000000D01*
D12*
X55135000Y18915000D02*
X55254000Y18447000D01*
D12*
X56017000Y18290000D02*
X56117000Y18364000D01*
D12*
X56457000Y16161000D02*
X56463000Y16197000D01*
D12*
X56041000Y14955000D02*
X56250000Y14835000D01*
D12*
X53406000Y18274000D02*
X53360000Y18245000D01*
D12*
X54229000Y16791000D02*
X54191000Y16407000D01*
D12*
X53162000Y18061000D02*
X53100000Y17988000D01*
D12*
X56224000Y17450000D02*
X56245000Y17494000D01*
D12*
X55772000Y17964000D02*
X55723000Y17940000D01*
D12*
X55723000Y17940000D02*
X55630000Y17984000D01*
D12*
X53158000Y15476000D02*
X53197000Y15736000D01*
D12*
X53835000Y14931000D02*
X53643000Y14807000D01*
D12*
X56380000Y17711000D02*
X56517000Y17927000D01*
D12*
X55665000Y14912000D02*
X55514000Y14879000D01*
D12*
X54376000Y16081000D02*
X54506000Y15958000D01*
D12*
X55300000Y18287000D02*
X55571000Y18164000D01*
D12*
X56730000Y15089000D02*
X56650000Y14990000D01*
D12*
X57053000Y16746000D02*
X56720000Y16832000D01*
D12*
X53430000Y14841000D02*
X53626000Y14969000D01*
D12*
X52580000Y16407000D02*
X52623000Y16337000D01*
D12*
X57140000Y16201000D02*
X56949000Y16159000D01*
D12*
X54520000Y18356000D02*
X54388000Y18143000D01*
D12*
X56544000Y17696000D02*
X56405000Y17440000D01*
D12*
X56517000Y16874000D02*
X56379000Y17123000D01*
D12*
X54506000Y15958000D02*
X54563000Y15904000D01*
D12*
X56929000Y16936000D02*
X57191000Y16871000D01*
D12*
X54292000Y18257000D02*
X54350000Y18292000D01*
D12*
X54213000Y15026000D02*
X54173000Y14924000D01*
D12*
X52927000Y16264000D02*
X53108000Y16232000D01*
D12*
X56226000Y14666000D02*
X55853000Y14913000D01*
D12*
X55165000Y15669000D02*
X55086000Y15899000D01*
D12*
X53132000Y17924000D02*
X53289000Y17677000D01*
D12*
X52846000Y12562000D02*
X52834000Y12372000D01*
D12*
X52639000Y12007000D02*
X52582000Y12021000D01*
D12*
X55767000Y11548000D02*
X55756000Y11826000D01*
D12*
X54103000Y12666000D02*
X54091000Y12902000D01*
D12*
X52834000Y12372000D02*
X52838000Y12269000D01*
D12*
X57316000Y13868000D02*
X57305000Y13714000D01*
D12*
X55338000Y12581000D02*
X55385000Y12549000D01*
D12*
X54997000Y12620000D02*
X55143000Y12633000D01*
D12*
X55072000Y12272000D02*
X55064000Y12326000D01*
D12*
X55756000Y11826000D02*
X55734000Y12174000D01*
D12*
X54982000Y12385000D02*
X54897000Y12380000D01*
D12*
X52778000Y11569000D02*
X52817000Y11539000D01*
D12*
X55353000Y11421000D02*
X55327000Y11380000D01*
D12*
X54475000Y11595000D02*
X54459000Y11388000D01*
D12*
X52698000Y11583000D02*
X52778000Y11569000D01*
D12*
X55235000Y11325000D02*
X55142000Y11301000D01*
D12*
X56122000Y13389000D02*
X56118000Y13230000D01*
D12*
X54781000Y12560000D02*
X54812000Y12591000D01*
D12*
X56143000Y13778000D02*
X56186000Y13688000D01*
D12*
X53387000Y12053000D02*
X53373000Y12072000D01*
D12*
X54910000Y13691000D02*
X55060000Y13704000D01*
D12*
X55934000Y13809000D02*
X56048000Y13815000D01*
D12*
X55040000Y11484000D02*
X55050000Y11585000D01*
D12*
X53307000Y11301000D02*
X53347000Y11309000D01*
D12*
X57328000Y12380000D02*
X57342000Y12096000D01*
D12*
X52569000Y11021000D02*
X52544000Y11029000D01*
D12*
X54994000Y13592000D02*
X54973000Y13605000D01*
D12*
X56946000Y13424000D02*
X56952000Y13884000D01*
D12*
X52515000Y13378000D02*
X52545000Y13411000D01*
D12*
X52838000Y12269000D02*
X52850000Y12226000D01*
D12*
X54367000Y11205000D02*
X54217000Y11195000D01*
D12*
X54156000Y13591000D02*
X54202000Y13612000D01*
D12*
X55272000Y12620000D02*
X55338000Y12581000D01*
D12*
X54202000Y13612000D02*
X54265000Y13628000D01*
D12*
X55368000Y13676000D02*
X55374000Y13628000D01*
D12*
X52852000Y13270000D02*
X52856000Y12908000D01*
D12*
X54973000Y13605000D02*
X54931000Y13616000D01*
D12*
X55142000Y11301000D02*
X54989000Y11275000D01*
D12*
X52856000Y12908000D02*
X52857000Y12670000D01*
D12*
X55734000Y12174000D02*
X55712000Y12520000D01*
D12*
X54109000Y13536000D02*
X54125000Y13566000D01*
D12*
X54532000Y11294000D02*
X54671000Y11308000D01*
D12*
X53217000Y11287000D02*
X53307000Y11301000D01*
D12*
X52995000Y11051000D02*
X52827000Y11034000D01*
D12*
X53550000Y11155000D02*
X53474000Y11123000D01*
D12*
X56948000Y12744000D02*
X56946000Y13424000D01*
D12*
X57342000Y12096000D02*
X57344000Y11882000D01*
D12*
X54867000Y12606000D02*
X54997000Y12620000D01*
D12*
X52801000Y13441000D02*
X52823000Y13427000D01*
D12*
X52823000Y13427000D02*
X52839000Y13408000D01*
D12*
X53235000Y11075000D02*
X53111000Y11059000D01*
D12*
X54111000Y11210000D02*
X54088000Y11235000D01*
D12*
X55411000Y11745000D02*
X55398000Y11608000D01*
D12*
X54477000Y11294000D02*
X54532000Y11294000D01*
D12*
X53393000Y11497000D02*
X53413000Y11619000D01*
D12*
X57065000Y11495000D02*
X56979000Y11503000D01*
D12*
X52857000Y12670000D02*
X52846000Y12562000D01*
D12*
X53091000Y11265000D02*
X53217000Y11287000D01*
D12*
X54119000Y12146000D02*
X54115000Y12430000D01*
D12*
X54217000Y11195000D02*
X54145000Y11197000D01*
D12*
X55289000Y11350000D02*
X55235000Y11325000D01*
D12*
X55398000Y11608000D02*
X55377000Y11499000D01*
D12*
X54487000Y13556000D02*
X54478000Y13482000D01*
D12*
X54740000Y12477000D02*
X54753000Y12516000D01*
D12*
X56920000Y11662000D02*
X56875000Y11773000D01*
D12*
X56131000Y11412000D02*
X56101000Y11398000D01*
D12*
X55411000Y11929000D02*
X55411000Y11745000D01*
D12*
X52504000Y11292000D02*
X52514000Y11389000D01*
D12*
X55291000Y13300000D02*
X55205000Y13286000D01*
D12*
X53688000Y13548000D02*
X53730000Y13535000D01*
D12*
X53387000Y12277000D02*
X53387000Y12857000D01*
D12*
X53734000Y11495000D02*
X53717000Y11397000D01*
D12*
X53373000Y12072000D02*
X53340000Y12075000D01*
D12*
X55746000Y13698000D02*
X55757000Y13757000D01*
D12*
X54473000Y13256000D02*
X54480000Y12972000D01*
D12*
X56409000Y13120000D02*
X56473000Y12968000D01*
D12*
X52864000Y12203000D02*
X52915000Y12205000D01*
D12*
X57204000Y13937000D02*
X57319000Y13943000D01*
D12*
X56240000Y13563000D02*
X56327000Y13335000D01*
D12*
X56800000Y11935000D02*
X56691000Y12148000D01*
D12*
X55385000Y12549000D02*
X55388000Y12412000D01*
D12*
X54115000Y11857000D02*
X54119000Y12146000D01*
D12*
X56048000Y13815000D02*
X56118000Y13810000D01*
D12*
X54989000Y11275000D02*
X54803000Y11249000D01*
D12*
X55061000Y11737000D02*
X55071000Y12041000D01*
D12*
X54671000Y11308000D02*
X54813000Y11323000D01*
D12*
X54125000Y13566000D02*
X54156000Y13591000D01*
D12*
X53474000Y11123000D02*
X53371000Y11099000D01*
D12*
X56979000Y11503000D02*
X56951000Y11566000D01*
D12*
X53747000Y11615000D02*
X53734000Y11495000D01*
D12*
X54713000Y13672000D02*
X54910000Y13691000D01*
D12*
X55333000Y13316000D02*
X55291000Y13300000D01*
D12*
X53387000Y12857000D02*
X53392000Y13454000D01*
D12*
X57319000Y13943000D02*
X57324000Y13939000D01*
D12*
X53605000Y13561000D02*
X53688000Y13548000D01*
D12*
X55388000Y12412000D02*
X55398000Y12153000D01*
D12*
X57324000Y13939000D02*
X57316000Y13868000D01*
D12*
X57300000Y13400000D02*
X57307000Y12922000D01*
D12*
X55143000Y12633000D02*
X55228000Y12633000D01*
D12*
X52817000Y11539000D02*
X52829000Y11491000D01*
D12*
X53035000Y12220000D02*
X53241000Y12252000D01*
D12*
X55050000Y12369000D02*
X55033000Y12387000D01*
D12*
X55205000Y13286000D02*
X55080000Y13281000D01*
D12*
X54896000Y11331000D02*
X54958000Y11347000D01*
D12*
X56595000Y12334000D02*
X56543000Y12442000D01*
D12*
X56954000Y12230000D02*
X56948000Y12744000D01*
D12*
X52960000Y11250000D02*
X53091000Y11265000D01*
D12*
X53420000Y13493000D02*
X53476000Y13532000D01*
D12*
X55840000Y13795000D02*
X55934000Y13809000D01*
D12*
X55327000Y11380000D02*
X55289000Y11350000D01*
D12*
X57336000Y11716000D02*
X57326000Y11621000D01*
D12*
X55026000Y11416000D02*
X55040000Y11484000D01*
D12*
X56579000Y12728000D02*
X56735000Y12386000D01*
D12*
X56952000Y13884000D02*
X56967000Y13899000D01*
D12*
X55033000Y12387000D02*
X54982000Y12385000D01*
D12*
X52504000Y12587000D02*
X52502000Y13229000D01*
D12*
X55060000Y13704000D02*
X55224000Y13710000D01*
D12*
X53717000Y11397000D02*
X53693000Y11310000D01*
D12*
X52528000Y11468000D02*
X52549000Y11526000D01*
D12*
X53426000Y11851000D02*
X53417000Y11953000D01*
D12*
X54491000Y12752000D02*
X54499000Y12448000D01*
D12*
X54509000Y13654000D02*
X54713000Y13672000D01*
D12*
X55714000Y13446000D02*
X55730000Y13592000D01*
D12*
X52827000Y11034000D02*
X52651000Y11019000D01*
D12*
X55702000Y13274000D02*
X55714000Y13446000D01*
D12*
X56140000Y11541000D02*
X56141000Y11420000D01*
D12*
X52501000Y13359000D02*
X52515000Y13378000D01*
D12*
X54780000Y12400000D02*
X54753000Y12420000D01*
D12*
X55224000Y13710000D02*
X55324000Y13710000D01*
D12*
X53413000Y11619000D02*
X53424000Y11725000D01*
D12*
X54855000Y13620000D02*
X54752000Y13614000D01*
D12*
X55778000Y11374000D02*
X55767000Y11548000D01*
D12*
X54897000Y12380000D02*
X54824000Y12386000D01*
D12*
X54753000Y12420000D02*
X54740000Y12447000D01*
D12*
X54958000Y11347000D02*
X54999000Y11376000D01*
D12*
X54499000Y12448000D02*
X54499000Y12040000D01*
D12*
X52544000Y11029000D02*
X52530000Y11042000D01*
D12*
X55712000Y12520000D02*
X55702000Y12728000D01*
D12*
X56473000Y12968000D02*
X56579000Y12728000D01*
D12*
X52875000Y11253000D02*
X52960000Y11250000D01*
D12*
X52545000Y13411000D02*
X52582000Y13434000D01*
D12*
X52755000Y11997000D02*
X52639000Y12007000D01*
D12*
X54097000Y13490000D02*
X54109000Y13536000D01*
D12*
X55702000Y12728000D02*
X55697000Y13010000D01*
D12*
X52829000Y11491000D02*
X52826000Y11377000D01*
D12*
X52516000Y11090000D02*
X52503000Y11182000D01*
D12*
X55377000Y11499000D02*
X55353000Y11421000D01*
D12*
X55324000Y13710000D02*
X55343000Y13699000D01*
D12*
X56132000Y12098000D02*
X56140000Y11541000D01*
D12*
X54803000Y11249000D02*
X54587000Y11225000D01*
D12*
X53693000Y11310000D02*
X53661000Y11242000D01*
D12*
X52530000Y11042000D02*
X52516000Y11090000D01*
D12*
X52582000Y13434000D02*
X52634000Y13452000D01*
D12*
X54092000Y11541000D02*
X54107000Y11703000D01*
D12*
X52877000Y11995000D02*
X52755000Y11997000D01*
D12*
X57344000Y11882000D02*
X57336000Y11716000D01*
D12*
X57299000Y11538000D02*
X57257000Y11519000D01*
D12*
X56118000Y13230000D02*
X56122000Y12800000D01*
D12*
X52839000Y13408000D02*
X52852000Y13270000D01*
D12*
X55358000Y13406000D02*
X55348000Y13331000D01*
D12*
X54587000Y11225000D02*
X54367000Y11205000D01*
D12*
X54999000Y11376000D02*
X55026000Y11416000D01*
D12*
X55804000Y11368000D02*
X55778000Y11374000D01*
D12*
X54661000Y13600000D02*
X54553000Y13577000D01*
D12*
X52503000Y11182000D02*
X52504000Y11292000D01*
D12*
X55348000Y13331000D02*
X55333000Y13316000D01*
D12*
X54981000Y13442000D02*
X54994000Y13592000D01*
D12*
X54091000Y12902000D02*
X54084000Y13174000D01*
D12*
X54553000Y13577000D02*
X54487000Y13556000D01*
D12*
X56951000Y11566000D02*
X56920000Y11662000D01*
D12*
X55697000Y13010000D02*
X55702000Y13274000D01*
D12*
X54145000Y11197000D02*
X54111000Y11210000D01*
D12*
X52827000Y11280000D02*
X52841000Y11262000D01*
D12*
X56889000Y12055000D02*
X56951000Y11935000D01*
D12*
X54459000Y11305000D02*
X54477000Y11294000D01*
D12*
X53403000Y12012000D02*
X53387000Y12053000D01*
D12*
X55080000Y13281000D02*
X54991000Y13289000D01*
D12*
X52850000Y12226000D02*
X52864000Y12203000D01*
D12*
X57307000Y12922000D02*
X57316000Y12610000D01*
D12*
X55757000Y13757000D02*
X55780000Y13778000D01*
D12*
X55228000Y12633000D02*
X55272000Y12620000D01*
D12*
X56327000Y13335000D02*
X56409000Y13120000D01*
D12*
X54478000Y13482000D02*
X54473000Y13256000D01*
D12*
X53740000Y12073000D02*
X53749000Y11827000D01*
D12*
X55940000Y11373000D02*
X55860000Y11367000D01*
D12*
X54812000Y12591000D02*
X54867000Y12606000D01*
D12*
X54499000Y12040000D02*
X54491000Y11785000D01*
D12*
X55860000Y11367000D02*
X55804000Y11368000D01*
D12*
X54491000Y11785000D02*
X54475000Y11595000D01*
D12*
X53195000Y12049000D02*
X52997000Y12011000D01*
D12*
X54753000Y12516000D02*
X54781000Y12560000D01*
D12*
X52651000Y11019000D02*
X52652000Y11019000D01*
D12*
X52514000Y11389000D02*
X52528000Y11468000D01*
D12*
X53392000Y13454000D02*
X53420000Y13493000D01*
D12*
X52826000Y11377000D02*
X52827000Y11280000D01*
D12*
X53732000Y12853000D02*
X53740000Y12073000D01*
D12*
X52915000Y12205000D02*
X53035000Y12220000D01*
D12*
X53749000Y11827000D02*
X53747000Y11615000D01*
D12*
X56324000Y12936000D02*
X56122000Y13389000D01*
D12*
X52514000Y12065000D02*
X52504000Y12587000D01*
D12*
X57184000Y11502000D02*
X57065000Y11495000D01*
D12*
X56141000Y11420000D02*
X56131000Y11412000D01*
D12*
X54459000Y11388000D02*
X54459000Y11305000D01*
D12*
X55370000Y13533000D02*
X55358000Y13406000D01*
D12*
X52582000Y12021000D02*
X52541000Y12042000D01*
D12*
X57317000Y11569000D02*
X57299000Y11538000D01*
D12*
X54752000Y13614000D02*
X54661000Y13600000D01*
D12*
X53371000Y11099000D02*
X53235000Y11075000D01*
D12*
X52580000Y11555000D02*
X52622000Y11575000D01*
D12*
X55064000Y12326000D02*
X55050000Y12369000D01*
D12*
X54084000Y13174000D02*
X54087000Y13410000D01*
D12*
X52634000Y13452000D02*
X52705000Y13460000D01*
D12*
X55730000Y13592000D02*
X55746000Y13698000D01*
D12*
X56735000Y12386000D02*
X56889000Y12055000D01*
D12*
X55071000Y12041000D02*
X55072000Y12272000D01*
D12*
X54480000Y12972000D02*
X54491000Y12752000D01*
D12*
X54359000Y13641000D02*
X54509000Y13654000D01*
D12*
X53340000Y12075000D02*
X53195000Y12049000D01*
D12*
X56186000Y13688000D02*
X56240000Y13563000D01*
D12*
X52541000Y12042000D02*
X52514000Y12065000D01*
D12*
X52765000Y13455000D02*
X52801000Y13441000D01*
D12*
X54969000Y13297000D02*
X54981000Y13442000D01*
D12*
X57305000Y13714000D02*
X57300000Y13400000D01*
D12*
X56875000Y11773000D02*
X56800000Y11935000D01*
D12*
X54081000Y11345000D02*
X54092000Y11541000D01*
D12*
X52652000Y11019000D02*
X52569000Y11021000D01*
D12*
X55343000Y13699000D02*
X55368000Y13676000D01*
D12*
X56118000Y13810000D02*
X56143000Y13778000D01*
D12*
X53476000Y13532000D02*
X53537000Y13554000D01*
D12*
X56951000Y11935000D02*
X56954000Y12230000D01*
D12*
X53111000Y11059000D02*
X52995000Y11051000D01*
D12*
X52841000Y11262000D02*
X52875000Y11253000D01*
D12*
X56691000Y12148000D02*
X56595000Y12334000D01*
D12*
X54088000Y11235000D02*
X54081000Y11345000D01*
D12*
X52502000Y13229000D02*
X52501000Y13359000D01*
D12*
X56101000Y11398000D02*
X56032000Y11385000D01*
D12*
X54991000Y13289000D02*
X54969000Y13297000D01*
D12*
X54115000Y12430000D02*
X54103000Y12666000D01*
D12*
X56543000Y12442000D02*
X56324000Y12936000D01*
D12*
X57316000Y12610000D02*
X57328000Y12380000D01*
D12*
X53618000Y11197000D02*
X53550000Y11155000D01*
D12*
X53730000Y13535000D02*
X53732000Y12853000D01*
D12*
X54740000Y12447000D02*
X54740000Y12477000D01*
D12*
X55050000Y11585000D02*
X55061000Y11737000D01*
D12*
X57000000Y13913000D02*
X57058000Y13926000D01*
D12*
X53661000Y11242000D02*
X53618000Y11197000D01*
D12*
X52705000Y13460000D02*
X52765000Y13455000D01*
D12*
X54931000Y13616000D02*
X54855000Y13620000D01*
D12*
X54265000Y13628000D02*
X54359000Y13641000D01*
D12*
X57326000Y11621000D02*
X57317000Y11569000D01*
D12*
X52997000Y12011000D02*
X52877000Y11995000D01*
D12*
X55860000Y11367000D02*
X55860000Y11367000D01*
D12*
X54824000Y12386000D02*
X54780000Y12400000D01*
D12*
X53537000Y13554000D02*
X53605000Y13561000D01*
D12*
X53424000Y11725000D02*
X53426000Y11851000D01*
D12*
X56032000Y11385000D02*
X55940000Y11373000D01*
D12*
X54087000Y13410000D02*
X54097000Y13490000D01*
D12*
X57257000Y11519000D02*
X57184000Y11502000D01*
D12*
X52549000Y11526000D02*
X52580000Y11555000D01*
D12*
X56122000Y12800000D02*
X56132000Y12098000D01*
D12*
X53417000Y11953000D02*
X53403000Y12012000D01*
D12*
X56967000Y13899000D02*
X57000000Y13913000D01*
D12*
X53241000Y12252000D02*
X53378000Y12275000D01*
D12*
X57058000Y13926000D02*
X57204000Y13937000D01*
D12*
X53347000Y11309000D02*
X53365000Y11367000D01*
D12*
X53365000Y11367000D02*
X53393000Y11497000D01*
D12*
X54217000Y11195000D02*
X54217000Y11195000D01*
D12*
X55398000Y12153000D02*
X55411000Y11929000D01*
D12*
X52622000Y11575000D02*
X52698000Y11583000D01*
D12*
X55374000Y13628000D02*
X55370000Y13533000D01*
D12*
X54813000Y11323000D02*
X54896000Y11331000D01*
D12*
X54107000Y11703000D02*
X54115000Y11857000D01*
D12*
X53378000Y12275000D02*
X53387000Y12277000D01*
D12*
X55780000Y13778000D02*
X55840000Y13795000D01*
D10*
X3947000Y10426000D02*
X3008000Y10339000D01*
D10*
X8200000Y12475000D02*
X8200000Y12475000D01*
D10*
X8919000Y13014000D02*
X8919000Y12495000D01*
D10*
X7029000Y12936000D02*
X7170000Y12772000D01*
D10*
X12847000Y10418000D02*
X12808000Y11101000D01*
D10*
X10475000Y10383000D02*
X10118000Y10362000D01*
D10*
X4933000Y13687000D02*
X5213000Y13759000D01*
D10*
X8651000Y10549000D02*
X8510000Y10763000D01*
D10*
X8351000Y10580000D02*
X8300000Y10400000D01*
D10*
X5213000Y13759000D02*
X5508000Y13678000D01*
D10*
X13688000Y11627000D02*
X14120000Y11414000D01*
D10*
X2430000Y11324000D02*
X2606000Y11645000D01*
D10*
X9713000Y10415000D02*
X9713000Y10415000D01*
D10*
X7266000Y11551000D02*
X7157000Y11414000D01*
D10*
X7112000Y13109000D02*
X6667000Y12942000D01*
D10*
X5183000Y10892000D02*
X5247000Y11322000D01*
D10*
X7523000Y10408000D02*
X7462000Y10458000D01*
D10*
X6714000Y11879000D02*
X7227000Y11750000D01*
D10*
X6838000Y11466000D02*
X6811000Y11363000D01*
D10*
X12702000Y11102000D02*
X12519000Y10648000D01*
D10*
X3947000Y11465000D02*
X3739000Y11463000D01*
D10*
X12038000Y10988000D02*
X12038000Y10988000D01*
D10*
X14262000Y10366000D02*
X13997000Y10375000D01*
D10*
X5002000Y12824000D02*
X4914000Y13330000D01*
D10*
X5059000Y12335000D02*
X5002000Y12824000D01*
D10*
X11133000Y13692000D02*
X11720000Y13681000D01*
D10*
X2943000Y11833000D02*
X3957000Y11773000D01*
D10*
X6998000Y11456000D02*
X6838000Y11466000D01*
D10*
X12116000Y10394000D02*
X11581000Y10328000D01*
D10*
X4484000Y12251000D02*
X4280000Y12251000D01*
D10*
X6273000Y10340000D02*
X6273000Y10340000D01*
D10*
X4019000Y10596000D02*
X3947000Y10426000D01*
D10*
X7220000Y12580000D02*
X7078000Y12454000D01*
D10*
X3659000Y13176000D02*
X3744000Y12682000D01*
D10*
X12118000Y13700000D02*
X12415000Y13619000D01*
D10*
X3969000Y13274000D02*
X3769000Y13211000D01*
D10*
X12838000Y11758000D02*
X13078000Y11839000D01*
D10*
X6528000Y12871000D02*
X6832000Y12893000D01*
D10*
X11268000Y11819000D02*
X11731000Y11876000D01*
D10*
X14017000Y13325000D02*
X14073000Y12955000D01*
D10*
X6535000Y13826000D02*
X7037000Y13760000D01*
D10*
X8510000Y10763000D02*
X8351000Y10580000D01*
D10*
X12587000Y12793000D02*
X12695000Y13262000D01*
D10*
X11020000Y13050000D02*
X11133000Y13692000D01*
D10*
X7523000Y10408000D02*
X7523000Y10408000D01*
D10*
X3989000Y10758000D02*
X4019000Y10596000D01*
D10*
X5247000Y11322000D02*
X5279000Y11761000D01*
D10*
X13357000Y10738000D02*
X13334000Y10574000D01*
D10*
X3758000Y10788000D02*
X3989000Y10758000D01*
D10*
X8290000Y11778000D02*
X8351000Y11443000D01*
D10*
X12174000Y11824000D02*
X12478000Y11650000D01*
D10*
X14073000Y12955000D02*
X13914000Y12733000D01*
D10*
X13413000Y13039000D02*
X13413000Y13039000D01*
D10*
X6832000Y12893000D02*
X7029000Y12936000D01*
D10*
X11748000Y13254000D02*
X11705000Y12756000D01*
D10*
X3744000Y12682000D02*
X3774000Y12160000D01*
D10*
X6811000Y11363000D02*
X7020000Y11228000D01*
D10*
X14165000Y11809000D02*
X14581000Y11807000D01*
D10*
X8581000Y14172000D02*
X9287000Y14173000D01*
D10*
X12415000Y13619000D02*
X12508000Y13139000D01*
D10*
X13914000Y12733000D02*
X13547000Y12656000D01*
D10*
X11720000Y13681000D02*
X11847000Y13664000D01*
D10*
X9719000Y11802000D02*
X10518000Y11804000D01*
D10*
X7462000Y11113000D02*
X7511000Y11804000D01*
D10*
X6559000Y13332000D02*
X6559000Y13332000D01*
D10*
X3496000Y10819000D02*
X3758000Y10788000D01*
D10*
X3008000Y10339000D02*
X2492000Y10667000D01*
D10*
X13689000Y10556000D02*
X13357000Y10738000D01*
D10*
X3104000Y12124000D02*
X3104000Y12124000D01*
D10*
X7170000Y12772000D02*
X7220000Y12580000D01*
D10*
X13025000Y13523000D02*
X13586000Y13532000D01*
D10*
X10195000Y13111000D02*
X10195000Y13111000D01*
D10*
X8700000Y10388000D02*
X8651000Y10549000D01*
D10*
X5643000Y13395000D02*
X5742000Y12401000D01*
D10*
X2766000Y13045000D02*
X2544000Y13116000D01*
D10*
X14120000Y11414000D02*
X14135000Y11596000D01*
D10*
X3494000Y11445000D02*
X3323000Y11134000D01*
D10*
X11731000Y11876000D02*
X12174000Y11824000D01*
D10*
X13858000Y12475000D02*
X13874000Y12132000D01*
D10*
X3739000Y11463000D02*
X3494000Y11445000D01*
D10*
X12508000Y13139000D02*
X12480000Y12512000D01*
D10*
X8177000Y13013000D02*
X8177000Y13528000D01*
D10*
X11581000Y10328000D02*
X11078000Y10464000D01*
D10*
X13269000Y10386000D02*
X13045000Y10362000D01*
D10*
X14581000Y11807000D02*
X14624000Y10706000D01*
D10*
X7883000Y14132000D02*
X8581000Y14172000D01*
D10*
X5783000Y13128000D02*
X5959000Y13638000D01*
D10*
X7823000Y13549000D02*
X7813000Y13793000D01*
D10*
X9448000Y10412000D02*
X9075000Y10362000D01*
D10*
X11581000Y10328000D02*
X11581000Y10328000D01*
D10*
X4106000Y11804000D02*
X4906000Y11800000D01*
D10*
X11705000Y12756000D02*
X11667000Y12369000D01*
D10*
X7813000Y13793000D02*
X7883000Y14132000D01*
D10*
X8651000Y11464000D02*
X8709000Y11785000D01*
D10*
X7157000Y11414000D02*
X6998000Y11456000D01*
D10*
X6667000Y12942000D02*
X6528000Y12871000D01*
D10*
X11581000Y11126000D02*
X11750000Y10908000D01*
D10*
X11078000Y10464000D02*
X10768000Y10747000D01*
D10*
X9358000Y13130000D02*
X9430000Y13531000D01*
D10*
X5710000Y10726000D02*
X5343000Y10396000D01*
D10*
X3769000Y13211000D02*
X3659000Y13176000D01*
D10*
X4982000Y10922000D02*
X5183000Y10892000D01*
D10*
X9075000Y10362000D02*
X8700000Y10388000D01*
D10*
X11667000Y12369000D02*
X11354000Y12371000D01*
D10*
X9084000Y13532000D02*
X8919000Y13532000D01*
D10*
X9267000Y13578000D02*
X9084000Y13532000D01*
D10*
X12454000Y12284000D02*
X12195000Y12288000D01*
D10*
X3104000Y12124000D02*
X2951000Y13042000D01*
D10*
X7462000Y10458000D02*
X7462000Y11113000D01*
D10*
X13334000Y10574000D02*
X13269000Y10386000D01*
D10*
X8709000Y11785000D02*
X9091000Y11839000D01*
D10*
X14562000Y10399000D02*
X14262000Y10366000D01*
D10*
X9451000Y11816000D02*
X9509000Y10827000D01*
D10*
X12684000Y12390000D02*
X12587000Y12793000D01*
D10*
X9287000Y14173000D02*
X9309000Y14054000D01*
D10*
X14624000Y10706000D02*
X14562000Y10399000D01*
D10*
X13322000Y13014000D02*
X13340000Y12930000D01*
D10*
X10768000Y10747000D02*
X10667000Y11069000D01*
D10*
X5759000Y11291000D02*
X5710000Y10726000D01*
D10*
X11750000Y10908000D02*
X12038000Y10988000D01*
D10*
X4177000Y10650000D02*
X4048000Y11408000D01*
D10*
X7162000Y10457000D02*
X6273000Y10340000D01*
D10*
X2606000Y11645000D02*
X2943000Y11833000D01*
D10*
X3008000Y10339000D02*
X3008000Y10339000D01*
D10*
X7227000Y11750000D02*
X7266000Y11551000D01*
D10*
X10156000Y13846000D02*
X10751000Y13691000D01*
D10*
X12195000Y12288000D02*
X11852000Y12315000D01*
D10*
X3774000Y12160000D02*
X3254000Y12048000D01*
D10*
X3996000Y13441000D02*
X3969000Y13274000D01*
D10*
X13586000Y13532000D02*
X14017000Y13325000D01*
D10*
X10518000Y11804000D02*
X10575000Y11161000D01*
D10*
X9091000Y11839000D02*
X9451000Y11816000D01*
D10*
X9745000Y12464000D02*
X9745000Y12464000D01*
D10*
X7511000Y11804000D02*
X7894000Y11839000D01*
D10*
X13373000Y13142000D02*
X13322000Y13014000D01*
D10*
X8000000Y13538000D02*
X7823000Y13549000D01*
D10*
X13484000Y12536000D02*
X13772000Y12581000D01*
D10*
X14135000Y11596000D02*
X14165000Y11809000D01*
D10*
X8300000Y10400000D02*
X7944000Y10367000D01*
D10*
X3254000Y12048000D02*
X3104000Y12124000D01*
D10*
X4906000Y11800000D02*
X4946000Y11367000D01*
D10*
X10147000Y12829000D02*
X10195000Y13111000D01*
D10*
X13340000Y12930000D02*
X13413000Y13039000D01*
D10*
X3957000Y11773000D02*
X3994000Y11613000D01*
D10*
X7037000Y13760000D02*
X7224000Y13455000D01*
D10*
X3899000Y13884000D02*
X3996000Y13441000D01*
D10*
X13772000Y12581000D02*
X13858000Y12475000D01*
D10*
X9440000Y12692000D02*
X9358000Y13130000D01*
D10*
X8919000Y12495000D02*
X8814000Y12474000D01*
D10*
X4914000Y13330000D02*
X4936000Y12840000D01*
D10*
X5500000Y11834000D02*
X5724000Y11799000D01*
D10*
X13547000Y12656000D02*
X13318000Y12576000D01*
D10*
X13045000Y10362000D02*
X12847000Y10418000D01*
D10*
X12660000Y11405000D02*
X12702000Y11102000D01*
D10*
X12044000Y11289000D02*
X11706000Y11326000D01*
D10*
X6137000Y12432000D02*
X5816000Y12792000D01*
D10*
X4048000Y11408000D02*
X4106000Y11804000D01*
D10*
X8200000Y12475000D02*
X8177000Y13013000D01*
D10*
X4946000Y11367000D02*
X4982000Y10922000D01*
D10*
X6058000Y11767000D02*
X6714000Y11879000D01*
D10*
X12695000Y13262000D02*
X13025000Y13523000D01*
D10*
X10667000Y11069000D02*
X10727000Y11377000D01*
D10*
X3994000Y11613000D02*
X3947000Y11465000D01*
D10*
X6273000Y10340000D02*
X5819000Y10542000D01*
D10*
X5201000Y12325000D02*
X5059000Y12335000D01*
D10*
X13997000Y10375000D02*
X13689000Y10556000D01*
D10*
X11852000Y12315000D02*
X11852000Y12315000D01*
D10*
X5809000Y10703000D02*
X5882000Y10843000D01*
D10*
X11852000Y12315000D02*
X11772000Y12438000D01*
D10*
X7944000Y10367000D02*
X7523000Y10408000D01*
D10*
X12519000Y10648000D02*
X12116000Y10394000D01*
D10*
X6164000Y11005000D02*
X5860000Y11378000D01*
D10*
X7380000Y10727000D02*
X7162000Y10457000D01*
D10*
X7224000Y13455000D02*
X7112000Y13109000D01*
D10*
X5724000Y11799000D02*
X5759000Y11291000D01*
D10*
X13318000Y12576000D02*
X13484000Y12536000D01*
D10*
X10118000Y10362000D02*
X9713000Y10415000D01*
D10*
X8351000Y11443000D02*
X8372000Y11178000D01*
D10*
X8919000Y13532000D02*
X8919000Y13014000D01*
D10*
X2951000Y13042000D02*
X2766000Y13045000D01*
D10*
X13413000Y13039000D02*
X13373000Y13142000D01*
D10*
X9657000Y10980000D02*
X9719000Y11802000D01*
D10*
X12808000Y11101000D02*
X12838000Y11758000D01*
D10*
X11354000Y12371000D02*
X11003000Y12412000D01*
D10*
X4849000Y13632000D02*
X4933000Y13687000D01*
D10*
X11790000Y13363000D02*
X11748000Y13254000D01*
D10*
X7894000Y11839000D02*
X8290000Y11778000D01*
D10*
X6528000Y13213000D02*
X6559000Y13332000D01*
D10*
X9713000Y10415000D02*
X9657000Y10980000D01*
D10*
X2544000Y13116000D02*
X2516000Y13647000D01*
D10*
X10195000Y13111000D02*
X10128000Y13439000D01*
D10*
X10568000Y10497000D02*
X10475000Y10383000D01*
D10*
X9509000Y10827000D02*
X9448000Y10412000D01*
D10*
X6097000Y10811000D02*
X6348000Y10838000D01*
D10*
X4753000Y10338000D02*
X4753000Y10338000D01*
D10*
X2516000Y13647000D02*
X3899000Y13884000D01*
D10*
X10751000Y13691000D02*
X10915000Y13164000D01*
D10*
X7020000Y11228000D02*
X7306000Y11040000D01*
D10*
X4829000Y13872000D02*
X4849000Y13632000D01*
D10*
X6559000Y13332000D02*
X6477000Y13375000D01*
D10*
X8511000Y11138000D02*
X8629000Y11191000D01*
D10*
X10529000Y12471000D02*
X9745000Y12464000D01*
D10*
X10727000Y11377000D02*
X11268000Y11819000D01*
D10*
X13874000Y12132000D02*
X13203000Y12117000D01*
D10*
X13203000Y12117000D02*
X12684000Y12390000D01*
D10*
X5959000Y13638000D02*
X6535000Y13826000D01*
D10*
X5508000Y13678000D02*
X5643000Y13395000D01*
D10*
X12478000Y11650000D02*
X12660000Y11405000D01*
D10*
X6137000Y12431000D02*
X6137000Y12432000D01*
D10*
X8177000Y13528000D02*
X8000000Y13538000D01*
D10*
X4280000Y12251000D02*
X4194000Y13102000D01*
D10*
X12480000Y12512000D02*
X12454000Y12284000D01*
D10*
X4965000Y12331000D02*
X4484000Y12251000D01*
D10*
X8629000Y11191000D02*
X8651000Y11464000D01*
D10*
X10128000Y13439000D02*
X10080000Y12872000D01*
D10*
X5816000Y12792000D02*
X5783000Y13128000D01*
D10*
X7306000Y11040000D02*
X7380000Y10727000D01*
D10*
X5860000Y11378000D02*
X6058000Y11767000D01*
D10*
X8814000Y12474000D02*
X8200000Y12475000D01*
D10*
X10575000Y11161000D02*
X10568000Y10497000D01*
D10*
X5343000Y10396000D02*
X4753000Y10338000D01*
D10*
X11003000Y12412000D02*
X11020000Y13050000D01*
D10*
X10824000Y12718000D02*
X10529000Y12471000D01*
D10*
X6348000Y10838000D02*
X6164000Y11005000D01*
D10*
X5882000Y10843000D02*
X6097000Y10811000D01*
D10*
X3323000Y11134000D02*
X3496000Y10819000D01*
D10*
X9309000Y14054000D02*
X9267000Y13578000D01*
D10*
X4789000Y14133000D02*
X4829000Y13872000D01*
D10*
X4194000Y13102000D02*
X4122000Y13993000D01*
D10*
X10915000Y13164000D02*
X10824000Y12718000D01*
D10*
X12847000Y10418000D02*
X12847000Y10418000D01*
D10*
X11803000Y12950000D02*
X11790000Y13363000D01*
D10*
X12038000Y10988000D02*
X12044000Y11289000D01*
D10*
X13078000Y11839000D02*
X13688000Y11627000D01*
D10*
X10080000Y12872000D02*
X10147000Y12829000D01*
D10*
X7078000Y12454000D02*
X6137000Y12431000D01*
D10*
X6477000Y13375000D02*
X6528000Y13213000D01*
D10*
X9745000Y12464000D02*
X9440000Y12692000D01*
D10*
X5819000Y10542000D02*
X5809000Y10703000D01*
D10*
X5279000Y11761000D02*
X5500000Y11834000D01*
D10*
X4122000Y13993000D02*
X4789000Y14133000D01*
D10*
X11706000Y11326000D02*
X11581000Y11126000D01*
D10*
X4753000Y10338000D02*
X4177000Y10650000D01*
D10*
X13203000Y12117000D02*
X13203000Y12117000D01*
D10*
X2492000Y10667000D02*
X2430000Y11324000D01*
D10*
X11772000Y12438000D02*
X11803000Y12950000D01*
D10*
X8372000Y11178000D02*
X8511000Y11138000D01*
D10*
X11847000Y13664000D02*
X12118000Y13700000D01*
D10*
X9430000Y13531000D02*
X9677000Y13766000D01*
D10*
X9677000Y13766000D02*
X10156000Y13846000D01*
D10*
X5742000Y12401000D02*
X5201000Y12325000D01*
D10*
X4936000Y12840000D02*
X4965000Y12331000D01*
G75*
M02*
