%FSLAX46Y46*%
%MOMM*%
%ADD11C,0.050000*%
%ADD12C,0.100000*%
%ADD10C,0.150000*%
G01*
G01*
%LPD*%
D10*
X53980952Y9723810D02*
X53695240Y10390476D01*
D10*
X53980952Y9723810D02*
X54266668Y10390476D01*
D10*
X54552380Y10533333D02*
X54552380Y10485714D01*
D10*
X54600000Y10628571D02*
X54552380Y10533333D01*
D10*
X54647620Y10676190D02*
X54600000Y10628571D01*
D10*
X54742856Y10723810D02*
X54647620Y10676190D01*
D10*
X54933332Y10723810D02*
X54742856Y10723810D01*
D10*
X55028572Y10676190D02*
X54933332Y10723810D01*
D10*
X55076192Y10628571D02*
X55028572Y10676190D01*
D10*
X55123808Y10533333D02*
X55076192Y10628571D01*
D10*
X55123808Y10438095D02*
X55123808Y10533333D01*
D10*
X55076192Y10342857D02*
X55123808Y10438095D01*
D10*
X54980952Y10200000D02*
X55076192Y10342857D01*
D10*
X54504760Y9723810D02*
X54980952Y10200000D01*
D10*
X55171428Y9723810D02*
X54504760Y9723810D01*
D10*
X55504760Y9771429D02*
X55552380Y9819048D01*
D10*
X55552380Y9723810D02*
X55504760Y9771429D01*
D10*
X55600000Y9771429D02*
X55552380Y9723810D01*
D10*
X55552380Y9819048D02*
X55600000Y9771429D01*
D10*
X56076192Y10676190D02*
X56219048Y10723810D01*
D10*
X55980952Y10533333D02*
X56076192Y10676190D01*
D10*
X55933332Y10295238D02*
X55980952Y10533333D01*
D10*
X55933332Y10152381D02*
X55933332Y10295238D01*
D10*
X55980952Y9914286D02*
X55933332Y10152381D01*
D10*
X56076192Y9771429D02*
X55980952Y9914286D01*
D10*
X56219048Y9723810D02*
X56076192Y9771429D01*
D10*
X56314284Y9723810D02*
X56219048Y9723810D01*
D10*
X56457144Y9771429D02*
X56314284Y9723810D01*
D10*
X56552380Y9914286D02*
X56457144Y9771429D01*
D10*
X56600000Y10152381D02*
X56552380Y9914286D01*
D10*
X56600000Y10295238D02*
X56600000Y10152381D01*
D10*
X56552380Y10533333D02*
X56600000Y10295238D01*
D10*
X56457144Y10676190D02*
X56552380Y10533333D01*
D10*
X56314284Y10723810D02*
X56457144Y10676190D01*
D10*
X56219048Y10723810D02*
X56314284Y10723810D01*
D10*
X43420476Y8971810D02*
X43420476Y9971810D01*
D10*
X43849048Y9971810D02*
X43420476Y9971810D01*
D10*
X43991904Y9924190D02*
X43849048Y9971810D01*
D10*
X44039524Y9876571D02*
X43991904Y9924190D01*
D10*
X44087144Y9781333D02*
X44039524Y9876571D01*
D10*
X44087144Y9686095D02*
X44087144Y9781333D01*
D10*
X44039524Y9590857D02*
X44087144Y9686095D01*
D10*
X43991904Y9543238D02*
X44039524Y9590857D01*
D10*
X43849048Y9495619D02*
X43991904Y9543238D01*
D10*
X43849048Y9495619D02*
X43420476Y9495619D01*
D10*
X43991904Y9448000D02*
X43849048Y9495619D01*
D10*
X44039524Y9400381D02*
X43991904Y9448000D01*
D10*
X44087144Y9305143D02*
X44039524Y9400381D01*
D10*
X44087144Y9162286D02*
X44087144Y9305143D01*
D10*
X44039524Y9067048D02*
X44087144Y9162286D01*
D10*
X43991904Y9019429D02*
X44039524Y9067048D01*
D10*
X43849048Y8971810D02*
X43991904Y9019429D01*
D10*
X43420476Y8971810D02*
X43849048Y8971810D01*
D10*
X44420476Y8971810D02*
X44420476Y9971810D01*
D10*
X44849048Y9971810D02*
X44420476Y9971810D01*
D10*
X44991904Y9924190D02*
X44849048Y9971810D01*
D10*
X45039524Y9876571D02*
X44991904Y9924190D01*
D10*
X45087144Y9781333D02*
X45039524Y9876571D01*
D10*
X45087144Y9686095D02*
X45087144Y9781333D01*
D10*
X45039524Y9590857D02*
X45087144Y9686095D01*
D10*
X44991904Y9543238D02*
X45039524Y9590857D01*
D10*
X44849048Y9495619D02*
X44991904Y9543238D01*
D10*
X44420476Y9495619D02*
X44849048Y9495619D01*
D10*
X45087144Y8971810D02*
X44753808Y9495619D01*
D10*
X45420476Y8971810D02*
X45420476Y9971810D01*
D10*
X46420476Y9828952D02*
X46468096Y9733714D01*
D10*
X46325240Y9924190D02*
X46420476Y9828952D01*
D10*
X46230000Y9971810D02*
X46325240Y9924190D01*
D10*
X46039524Y9971810D02*
X46230000Y9971810D01*
D10*
X45944284Y9924190D02*
X46039524Y9971810D01*
D10*
X45849048Y9828952D02*
X45944284Y9924190D01*
D10*
X45801428Y9733714D02*
X45849048Y9828952D01*
D10*
X45753808Y9590857D02*
X45801428Y9733714D01*
D10*
X45753808Y9352762D02*
X45753808Y9590857D01*
D10*
X45801428Y9209905D02*
X45753808Y9352762D01*
D10*
X45849048Y9114667D02*
X45801428Y9209905D01*
D10*
X45944284Y9019429D02*
X45849048Y9114667D01*
D10*
X46039524Y8971810D02*
X45944284Y9019429D01*
D10*
X46230000Y8971810D02*
X46039524Y8971810D01*
D10*
X46325240Y9019429D02*
X46230000Y8971810D01*
D10*
X46420476Y9114667D02*
X46325240Y9019429D01*
D10*
X46468096Y9209905D02*
X46420476Y9114667D01*
D10*
X46468096Y9352762D02*
X46468096Y9209905D01*
D10*
X46468096Y9352762D02*
X46230000Y9352762D01*
D10*
X46801428Y8971810D02*
X46801428Y9971810D01*
D10*
X47468096Y8971810D02*
X47468096Y9971810D01*
D10*
X47468096Y9495619D02*
X46801428Y9495619D01*
D10*
X48039524Y8971810D02*
X48039524Y9971810D01*
D10*
X48372856Y9971810D02*
X47706192Y9971810D01*
D10*
X2690476Y42973808D02*
X2690476Y43973808D01*
D10*
X3119047Y43973808D02*
X2690476Y43973808D01*
D10*
X3261904Y43926192D02*
X3119047Y43973808D01*
D10*
X3309523Y43878572D02*
X3261904Y43926192D01*
D10*
X3357143Y43783332D02*
X3309523Y43878572D01*
D10*
X3357143Y43688096D02*
X3357143Y43783332D01*
D10*
X3309523Y43592856D02*
X3357143Y43688096D01*
D10*
X3261904Y43545240D02*
X3309523Y43592856D01*
D10*
X3119047Y43497620D02*
X3261904Y43545240D01*
D10*
X3119047Y43497620D02*
X2690476Y43497620D01*
D10*
X3261904Y43450000D02*
X3119047Y43497620D01*
D10*
X3309523Y43402380D02*
X3261904Y43450000D01*
D10*
X3357143Y43307144D02*
X3309523Y43402380D01*
D10*
X3357143Y43164284D02*
X3357143Y43307144D01*
D10*
X3309523Y43069048D02*
X3357143Y43164284D01*
D10*
X3261904Y43021428D02*
X3309523Y43069048D01*
D10*
X3119047Y42973808D02*
X3261904Y43021428D01*
D10*
X2690476Y42973808D02*
X3119047Y42973808D01*
D10*
X3690476Y43259524D02*
X3690476Y43973808D01*
D10*
X3738095Y43116668D02*
X3690476Y43259524D01*
D10*
X3833333Y43021428D02*
X3738095Y43116668D01*
D10*
X3976190Y42973808D02*
X3833333Y43021428D01*
D10*
X4071428Y42973808D02*
X3976190Y42973808D01*
D10*
X4214286Y43021428D02*
X4071428Y42973808D01*
D10*
X4309524Y43116668D02*
X4214286Y43021428D01*
D10*
X4357143Y43259524D02*
X4309524Y43116668D01*
D10*
X4357143Y43973808D02*
X4357143Y43259524D01*
D10*
X4738095Y42973808D02*
X4738095Y43973808D01*
D10*
X5357143Y43973808D02*
X4738095Y43973808D01*
D10*
X5119047Y43497620D02*
X4738095Y43497620D01*
D10*
X5595238Y42973808D02*
X5595238Y43973808D01*
D10*
X6214286Y43973808D02*
X5595238Y43973808D01*
D10*
X5976190Y43497620D02*
X5595238Y43497620D01*
D10*
X6452381Y42973808D02*
X6452381Y43973808D01*
D10*
X7071428Y43973808D02*
X6452381Y43973808D01*
D10*
X6833333Y43497620D02*
X6452381Y43497620D01*
D10*
X7071428Y42973808D02*
X6452381Y42973808D01*
D10*
X7357143Y42973808D02*
X7357143Y43973808D01*
D10*
X7785714Y43973808D02*
X7357143Y43973808D01*
D10*
X7928571Y43926192D02*
X7785714Y43973808D01*
D10*
X7976190Y43878572D02*
X7928571Y43926192D01*
D10*
X8023809Y43783332D02*
X7976190Y43878572D01*
D10*
X8023809Y43688096D02*
X8023809Y43783332D01*
D10*
X7976190Y43592856D02*
X8023809Y43688096D01*
D10*
X7928571Y43545240D02*
X7976190Y43592856D01*
D10*
X7785714Y43497620D02*
X7928571Y43545240D01*
D10*
X7357143Y43497620D02*
X7785714Y43497620D01*
D10*
X8023809Y42973808D02*
X7690476Y43497620D01*
D10*
X2083333Y42376192D02*
X2178571Y42423808D01*
D10*
X1988095Y42280952D02*
X2083333Y42376192D01*
D10*
X1940476Y42185716D02*
X1988095Y42280952D01*
D10*
X1892857Y42042856D02*
X1940476Y42185716D01*
D10*
X1892857Y41804760D02*
X1892857Y42042856D01*
D10*
X1940476Y41661904D02*
X1892857Y41804760D01*
D10*
X1988095Y41566668D02*
X1940476Y41661904D01*
D10*
X2083333Y41471428D02*
X1988095Y41566668D01*
D10*
X2178571Y41423808D02*
X2083333Y41471428D01*
D10*
X2369047Y41423808D02*
X2178571Y41423808D01*
D10*
X2464285Y41471428D02*
X2369047Y41423808D01*
D10*
X2559523Y41566668D02*
X2464285Y41471428D01*
D10*
X2607143Y41661904D02*
X2559523Y41566668D01*
D10*
X2654762Y41804760D02*
X2607143Y41661904D01*
D10*
X2654762Y42042856D02*
X2654762Y41804760D01*
D10*
X2607143Y42185716D02*
X2654762Y42042856D01*
D10*
X2559523Y42280952D02*
X2607143Y42185716D01*
D10*
X2464285Y42376192D02*
X2559523Y42280952D01*
D10*
X2369047Y42423808D02*
X2464285Y42376192D01*
D10*
X2178571Y42423808D02*
X2369047Y42423808D01*
D10*
X2988095Y41423808D02*
X2988095Y42423808D01*
D10*
X3607143Y42423808D02*
X2988095Y42423808D01*
D10*
X3369047Y41947620D02*
X2988095Y41947620D01*
D10*
X3845238Y41423808D02*
X3845238Y42423808D01*
D10*
X4464286Y42423808D02*
X3845238Y42423808D01*
D10*
X4226190Y41947620D02*
X3845238Y41947620D01*
D10*
X6883333Y42376192D02*
X6978571Y42423808D01*
D10*
X6788095Y42280952D02*
X6883333Y42376192D01*
D10*
X6740476Y42185716D02*
X6788095Y42280952D01*
D10*
X6692857Y42042856D02*
X6740476Y42185716D01*
D10*
X6692857Y41804760D02*
X6692857Y42042856D01*
D10*
X6740476Y41661904D02*
X6692857Y41804760D01*
D10*
X6788095Y41566668D02*
X6740476Y41661904D01*
D10*
X6883333Y41471428D02*
X6788095Y41566668D01*
D10*
X6978571Y41423808D02*
X6883333Y41471428D01*
D10*
X7169047Y41423808D02*
X6978571Y41423808D01*
D10*
X7264285Y41471428D02*
X7169047Y41423808D01*
D10*
X7359524Y41566668D02*
X7264285Y41471428D01*
D10*
X7407143Y41661904D02*
X7359524Y41566668D01*
D10*
X7454762Y41804760D02*
X7407143Y41661904D01*
D10*
X7454762Y42042856D02*
X7454762Y41804760D01*
D10*
X7407143Y42185716D02*
X7454762Y42042856D01*
D10*
X7359524Y42280952D02*
X7407143Y42185716D01*
D10*
X7264285Y42376192D02*
X7359524Y42280952D01*
D10*
X7169047Y42423808D02*
X7264285Y42376192D01*
D10*
X6978571Y42423808D02*
X7169047Y42423808D01*
D10*
X7788095Y41423808D02*
X7788095Y42423808D01*
D10*
X8454762Y41423808D02*
X7788095Y42423808D01*
D10*
X8454762Y41423808D02*
X8454762Y42423808D01*
D10*
X35640476Y6103809D02*
X35640476Y7103809D01*
D10*
X36021428Y6103809D02*
X35640476Y7103809D01*
D10*
X36021428Y6103809D02*
X36402380Y7103809D01*
D10*
X36402380Y6103809D02*
X36402380Y7103809D01*
D10*
X36926192Y7056190D02*
X37021428Y7103809D01*
D10*
X36830952Y6960952D02*
X36926192Y7056190D01*
D10*
X36783332Y6865714D02*
X36830952Y6960952D01*
D10*
X36735716Y6722857D02*
X36783332Y6865714D01*
D10*
X36735716Y6484762D02*
X36735716Y6722857D01*
D10*
X36783332Y6341905D02*
X36735716Y6484762D01*
D10*
X36830952Y6246666D02*
X36783332Y6341905D01*
D10*
X36926192Y6151428D02*
X36830952Y6246666D01*
D10*
X37021428Y6103809D02*
X36926192Y6151428D01*
D10*
X37211904Y6103809D02*
X37021428Y6103809D01*
D10*
X37307144Y6151428D02*
X37211904Y6103809D01*
D10*
X37402380Y6246666D02*
X37307144Y6151428D01*
D10*
X37450000Y6341905D02*
X37402380Y6246666D01*
D10*
X37497620Y6484762D02*
X37450000Y6341905D01*
D10*
X37497620Y6722857D02*
X37497620Y6484762D01*
D10*
X37450000Y6865714D02*
X37497620Y6722857D01*
D10*
X37402380Y6960952D02*
X37450000Y6865714D01*
D10*
X37307144Y7056190D02*
X37402380Y6960952D01*
D10*
X37211904Y7103809D02*
X37307144Y7056190D01*
D10*
X37021428Y7103809D02*
X37211904Y7103809D01*
D10*
X37830952Y6103809D02*
X37830952Y7103809D01*
D10*
X38164284Y7103809D02*
X37830952Y7103809D01*
D10*
X38307144Y7056190D02*
X38164284Y7103809D01*
D10*
X38402380Y6960952D02*
X38307144Y7056190D01*
D10*
X38450000Y6865714D02*
X38402380Y6960952D01*
D10*
X38497620Y6722857D02*
X38450000Y6865714D01*
D10*
X38497620Y6484762D02*
X38497620Y6722857D01*
D10*
X38450000Y6341905D02*
X38497620Y6484762D01*
D10*
X38402380Y6246666D02*
X38450000Y6341905D01*
D10*
X38307144Y6151428D02*
X38402380Y6246666D01*
D10*
X38164284Y6103809D02*
X38307144Y6151428D01*
D10*
X37830952Y6103809D02*
X38164284Y6103809D01*
D10*
X38830952Y6103809D02*
X38830952Y7103809D01*
D10*
X39450000Y7103809D02*
X38830952Y7103809D01*
D10*
X39211904Y6627619D02*
X38830952Y6627619D01*
D10*
X39450000Y6103809D02*
X38830952Y6103809D01*
D11*
X8980000Y31360000D02*
X8780000Y31360000D01*
D11*
X8980000Y30560000D02*
X8780000Y30560000D01*
D11*
X54090000Y36280000D02*
X54090000Y36480000D01*
D11*
X53290000Y36280000D02*
X53290000Y36480000D01*
D11*
X28090000Y27035000D02*
X28090000Y25785000D01*
D11*
X29690000Y27035000D02*
X29690000Y25785000D01*
D11*
X6855000Y23435000D02*
X6305000Y23435000D01*
D11*
X6855000Y24285000D02*
X6305000Y24285000D01*
D11*
X10280000Y22700000D02*
X10480000Y22700000D01*
D11*
X10280000Y23500000D02*
X10480000Y23500000D01*
D11*
X46500000Y14650000D02*
X45650000Y13800000D01*
D11*
X45650000Y13800000D02*
X46500000Y14650000D01*
D11*
X45650000Y11200000D02*
X46500000Y10350000D01*
D11*
X45650000Y11200000D02*
X45650000Y11475000D01*
D11*
X49950000Y14650000D02*
X49950000Y13525000D01*
D11*
X49950000Y14650000D02*
X46500000Y14650000D01*
D11*
X46500000Y14650000D02*
X45650000Y13800000D01*
D11*
X49950000Y10350000D02*
X49950000Y11475000D01*
D11*
X45650000Y13800000D02*
X45650000Y13530000D01*
D11*
X45650000Y13800000D02*
X45650000Y13800000D01*
D11*
X46500000Y10350000D02*
X49950000Y10350000D01*
D11*
X30270000Y45950000D02*
X33970000Y45950000D01*
D11*
X30270000Y49900000D02*
X30270000Y45400000D01*
D11*
X31470000Y49900000D02*
X32770000Y49900000D01*
D11*
X31470000Y45400000D02*
X32770000Y45400000D01*
D11*
X33970000Y45400000D02*
X33970000Y49900000D01*
D11*
X27100000Y43600000D02*
X27050000Y53600000D01*
D11*
X21650000Y53600000D02*
X28150000Y53600000D01*
D11*
X21650000Y50550000D02*
X21650000Y51750000D01*
D11*
X28150000Y53600000D02*
X28150000Y53050000D01*
D11*
X28150000Y46650000D02*
X28150000Y45450000D01*
D11*
X21650000Y45450000D02*
X21650000Y46650000D01*
D11*
X28150000Y43600000D02*
X21650000Y43600000D01*
D11*
X28150000Y50550000D02*
X28150000Y51750000D01*
D11*
X28150000Y49200000D02*
X28150000Y48000000D01*
D11*
X21650000Y53100000D02*
X21650000Y53600000D01*
D11*
X21650000Y48000000D02*
X21650000Y49200000D01*
D11*
X28150000Y44150000D02*
X28150000Y43600000D01*
D11*
X21650000Y43600000D02*
X21650000Y44150000D01*
D11*
X6630000Y28635000D02*
X6630000Y29885000D01*
D11*
X5030000Y28635000D02*
X5030000Y29885000D01*
D11*
X31590000Y11100000D02*
X32440000Y10250000D01*
D11*
X32440000Y10250000D02*
X31590000Y11100000D01*
D11*
X35040000Y10250000D02*
X35890000Y11100000D01*
D11*
X35040000Y10250000D02*
X34765000Y10250000D01*
D11*
X31590000Y14550000D02*
X32715000Y14550000D01*
D11*
X31590000Y14550000D02*
X31590000Y11100000D01*
D11*
X31590000Y11100000D02*
X32440000Y10250000D01*
D11*
X35890000Y14550000D02*
X34765000Y14550000D01*
D11*
X32440000Y10250000D02*
X32710000Y10250000D01*
D11*
X32440000Y10250000D02*
X32440000Y10250000D01*
D11*
X35890000Y11100000D02*
X35890000Y14550000D01*
D11*
X37950000Y44200000D02*
X37630000Y44200000D01*
D11*
X37655000Y45875000D02*
X40605000Y45875000D01*
D11*
X37655000Y45925000D02*
X40605000Y45925000D01*
D11*
X40630000Y44200000D02*
X40310000Y44200000D01*
D11*
X37630000Y44200000D02*
X37630000Y48600000D01*
D11*
X37630000Y48600000D02*
X37950000Y48600000D01*
D11*
X40630000Y48600000D02*
X40630000Y44200000D01*
D11*
X37655000Y45825000D02*
X40605000Y45825000D01*
D11*
X37655000Y45975000D02*
X40605000Y45975000D01*
D11*
X40310000Y48600000D02*
X40630000Y48600000D01*
D11*
X4105000Y33185000D02*
X4655000Y33185000D01*
D11*
X4105000Y32335000D02*
X4655000Y32335000D01*
D11*
X50400000Y42600000D02*
X50400000Y42800000D01*
D11*
X49600000Y42600000D02*
X49600000Y42800000D01*
D11*
X16825000Y33775000D02*
X16825000Y33225000D01*
D11*
X15975000Y33775000D02*
X15975000Y33225000D01*
D11*
X32540000Y22885000D02*
X32540000Y24135000D01*
D11*
X30940000Y22885000D02*
X30940000Y24135000D01*
D11*
X49700000Y1430000D02*
X49700000Y7180000D01*
D11*
X54700000Y1430000D02*
X57100000Y1430000D01*
D11*
X49700000Y1430000D02*
X52100000Y1430000D01*
D11*
X57100000Y7180000D02*
X57100000Y1430000D01*
D11*
X49700000Y7180000D02*
X57100000Y7180000D01*
D11*
X40665000Y11200000D02*
X40115000Y11200000D01*
D11*
X38940000Y11475000D02*
X38940000Y12500000D01*
D11*
X41840000Y12500000D02*
X41840000Y11475000D01*
D11*
X41065000Y12500000D02*
X41840000Y12500000D01*
D11*
X38940000Y12500000D02*
X39715000Y12500000D01*
D11*
X10100000Y75300000D02*
X10100000Y79400000D01*
D11*
X20100000Y54400000D02*
X20100000Y50500000D01*
D11*
X5600000Y54400000D02*
X5600000Y75300000D01*
D11*
X10100000Y79400000D02*
X21100000Y79400000D01*
D11*
X5600000Y75300000D02*
X10100000Y75300000D01*
D11*
X25600000Y54400000D02*
X20100000Y54400000D01*
D11*
X20100000Y50500000D02*
X11100000Y50500000D01*
D11*
X21100000Y79400000D02*
X21100000Y75300000D01*
D11*
X11100000Y54400000D02*
X5600000Y54400000D01*
D11*
X11100000Y50500000D02*
X11100000Y54400000D01*
D11*
X21100000Y75300000D02*
X25600000Y75300000D01*
D11*
X25600000Y75300000D02*
X25600000Y54400000D01*
D11*
X51425000Y32945000D02*
X51425000Y33495000D01*
D11*
X52275000Y32945000D02*
X52275000Y33495000D01*
D11*
X28225000Y41575000D02*
X28225000Y41350000D01*
D11*
X28225000Y42650000D02*
X28225000Y42425000D01*
D11*
X27700000Y41375000D02*
X27700000Y42625000D01*
D11*
X26525000Y42650000D02*
X28225000Y42650000D01*
D11*
X28225000Y41350000D02*
X26525000Y41350000D01*
D11*
X26525000Y42425000D02*
X26525000Y42650000D01*
D11*
X26525000Y41350000D02*
X26525000Y41575000D01*
D11*
X27800000Y41375000D02*
X27800000Y42625000D01*
D11*
X27750000Y41375000D02*
X27750000Y42625000D01*
D11*
X40600000Y28215000D02*
X40600000Y29465000D01*
D11*
X39000000Y28215000D02*
X39000000Y29465000D01*
D11*
X16750000Y28260000D02*
X16750000Y28060000D01*
D11*
X17550000Y28260000D02*
X17550000Y28060000D01*
D11*
X47765000Y42425000D02*
X47765000Y42975000D01*
D11*
X48615000Y42425000D02*
X48615000Y42975000D01*
D11*
X53265000Y32945000D02*
X53265000Y33495000D01*
D11*
X54115000Y32945000D02*
X54115000Y33495000D01*
D11*
X37950000Y11400000D02*
X37950000Y11600000D01*
D11*
X37150000Y11400000D02*
X37150000Y11600000D01*
D11*
X29290000Y15610000D02*
X27015000Y15610000D01*
D11*
X23990000Y22210000D02*
X24965000Y22210000D01*
D11*
X27990000Y22210000D02*
X27015000Y22210000D01*
D11*
X27990000Y22210000D02*
X29290000Y20910000D01*
D11*
X22690000Y15610000D02*
X24965000Y15610000D01*
D11*
X22690000Y20910000D02*
X23990000Y22210000D01*
D11*
X29290000Y20910000D02*
X29290000Y15610000D01*
D11*
X22690000Y15610000D02*
X22690000Y20910000D01*
D11*
X27825000Y40230000D02*
X27625000Y40230000D01*
D11*
X27825000Y39430000D02*
X27625000Y39430000D01*
D11*
X15445000Y31445000D02*
X15995000Y31445000D01*
D11*
X15445000Y30595000D02*
X15995000Y30595000D01*
D11*
X52275000Y36555000D02*
X52275000Y36005000D01*
D11*
X51425000Y36555000D02*
X51425000Y36005000D01*
D11*
X36725000Y18725000D02*
X36725000Y18675000D01*
D11*
X38675000Y18675000D02*
X38675000Y18625000D01*
D11*
X38675000Y18625000D02*
X36725000Y18625000D01*
D11*
X38675000Y18575000D02*
X38675000Y18550000D01*
D11*
X36725000Y18575000D02*
X38675000Y18575000D01*
D11*
X36725000Y17725000D02*
X36725000Y18725000D01*
D11*
X36725000Y18675000D02*
X38675000Y18675000D01*
D11*
X38675000Y18725000D02*
X36725000Y18725000D01*
D11*
X36725000Y18625000D02*
X36725000Y18575000D01*
D11*
X38675000Y18725000D02*
X38675000Y17722500D01*
D11*
X20440000Y14730000D02*
X20440000Y13755000D01*
D11*
X18240000Y13755000D02*
X18240000Y14730000D01*
D11*
X18240000Y14730000D02*
X18765000Y14730000D01*
D11*
X19915000Y14730000D02*
X20440000Y14730000D01*
D11*
X19415000Y13330000D02*
X19265000Y13330000D01*
D11*
X26905000Y32425000D02*
X26955000Y32425000D01*
D11*
X26955000Y34375000D02*
X27005000Y34375000D01*
D11*
X27005000Y34375000D02*
X27005000Y32425000D01*
D11*
X27055000Y34375000D02*
X27080000Y34375000D01*
D11*
X27055000Y32425000D02*
X27055000Y34375000D01*
D11*
X27905000Y32425000D02*
X26905000Y32425000D01*
D11*
X26955000Y32425000D02*
X26955000Y34375000D01*
D11*
X26905000Y34375000D02*
X26905000Y32425000D01*
D11*
X27005000Y32425000D02*
X27055000Y32425000D01*
D11*
X26905000Y34375000D02*
X27907500Y34375000D01*
D11*
X50100000Y23910000D02*
X50100000Y27890000D01*
D11*
X55100000Y27890000D02*
X55100000Y23910000D01*
D11*
X50100000Y24550000D02*
X55100000Y24550000D01*
D11*
X52875000Y30375000D02*
X52325000Y30375000D01*
D11*
X52875000Y31225000D02*
X52325000Y31225000D01*
D11*
X36725000Y24015000D02*
X36725000Y23965000D01*
D11*
X38675000Y23965000D02*
X38675000Y23915000D01*
D11*
X38675000Y23915000D02*
X36725000Y23915000D01*
D11*
X38675000Y23865000D02*
X38675000Y23840000D01*
D11*
X36725000Y23865000D02*
X38675000Y23865000D01*
D11*
X36725000Y23015000D02*
X36725000Y24015000D01*
D11*
X36725000Y23965000D02*
X38675000Y23965000D01*
D11*
X38675000Y24015000D02*
X36725000Y24015000D01*
D11*
X36725000Y23915000D02*
X36725000Y23865000D01*
D11*
X38675000Y24015000D02*
X38675000Y23012500D01*
D11*
X25000000Y10070000D02*
X25000000Y6090000D01*
D11*
X20000000Y6090000D02*
X20000000Y10070000D01*
D11*
X25000000Y9430000D02*
X20000000Y9430000D01*
D11*
X26815000Y29700000D02*
X28065000Y29700000D01*
D11*
X26815000Y31300000D02*
X28065000Y31300000D01*
D11*
X33705000Y24015000D02*
X33705000Y23965000D01*
D11*
X35655000Y23965000D02*
X35655000Y23915000D01*
D11*
X35655000Y23915000D02*
X33705000Y23915000D01*
D11*
X35655000Y23865000D02*
X35655000Y23840000D01*
D11*
X33705000Y23865000D02*
X35655000Y23865000D01*
D11*
X33705000Y23015000D02*
X33705000Y24015000D01*
D11*
X33705000Y23965000D02*
X35655000Y23965000D01*
D11*
X35655000Y24015000D02*
X33705000Y24015000D01*
D11*
X33705000Y23915000D02*
X33705000Y23865000D01*
D11*
X35655000Y24015000D02*
X35655000Y23012500D01*
D11*
X33200000Y60150000D02*
X33200000Y54400000D01*
D11*
X28200000Y60150000D02*
X25800000Y60150000D01*
D11*
X33200000Y60150000D02*
X30800000Y60150000D01*
D11*
X25800000Y54400000D02*
X25800000Y60150000D01*
D11*
X33200000Y54400000D02*
X25800000Y54400000D01*
D11*
X46465000Y31930000D02*
X45890000Y31930000D01*
D11*
X44840000Y32980000D02*
X44840000Y37230000D01*
D11*
X49090000Y31930000D02*
X48515000Y31930000D01*
D11*
X50140000Y37230000D02*
X48515000Y37230000D01*
D11*
X49090000Y31930000D02*
X50140000Y32980000D01*
D11*
X45890000Y31930000D02*
X44840000Y32980000D01*
D11*
X50140000Y32980000D02*
X50140000Y37230000D01*
D11*
X44840000Y37230000D02*
X46465000Y37230000D01*
D11*
X21435000Y13255000D02*
X21435000Y13805000D01*
D11*
X22285000Y13255000D02*
X22285000Y13805000D01*
D11*
X2400000Y1430000D02*
X2400000Y7180000D01*
D11*
X7400000Y1430000D02*
X9800000Y1430000D01*
D11*
X2400000Y1430000D02*
X4800000Y1430000D01*
D11*
X9800000Y7180000D02*
X9800000Y1430000D01*
D11*
X2400000Y7180000D02*
X9800000Y7180000D01*
D11*
X12150000Y39100000D02*
X12550000Y39100000D01*
D11*
X17150000Y42700000D02*
X18100000Y42700000D01*
D11*
X17150000Y39100000D02*
X18100000Y39100000D01*
D11*
X9100000Y39100000D02*
X9100000Y42700000D01*
D11*
X18100000Y42700000D02*
X18100000Y39100000D01*
D11*
X12150000Y42700000D02*
X12550000Y42700000D01*
D11*
X14650000Y39100000D02*
X15050000Y39100000D01*
D11*
X9100000Y42700000D02*
X10050000Y42700000D01*
D11*
X14650000Y42700000D02*
X15050000Y42700000D01*
D11*
X9100000Y39100000D02*
X10050000Y39100000D01*
D11*
X39500000Y1430000D02*
X29600000Y1430000D01*
D11*
X29600000Y5430000D02*
X39500000Y5430000D01*
D11*
X29600000Y1430000D02*
X29600000Y5430000D01*
D11*
X39500000Y5430000D02*
X39500000Y1430000D01*
D11*
X26965000Y25885000D02*
X26965000Y25935000D01*
D11*
X25015000Y25935000D02*
X25015000Y25985000D01*
D11*
X25015000Y25985000D02*
X26965000Y25985000D01*
D11*
X25015000Y26035000D02*
X25015000Y26060000D01*
D11*
X26965000Y26035000D02*
X25015000Y26035000D01*
D11*
X26965000Y26885000D02*
X26965000Y25885000D01*
D11*
X26965000Y25935000D02*
X25015000Y25935000D01*
D11*
X25015000Y25885000D02*
X26965000Y25885000D01*
D11*
X26965000Y25985000D02*
X26965000Y26035000D01*
D11*
X25015000Y25885000D02*
X25015000Y26887500D01*
D11*
X42430000Y33930000D02*
X40155000Y33930000D01*
D11*
X37130000Y40530000D02*
X38105000Y40530000D01*
D11*
X41130000Y40530000D02*
X40155000Y40530000D01*
D11*
X41130000Y40530000D02*
X42430000Y39230000D01*
D11*
X35830000Y33930000D02*
X38105000Y33930000D01*
D11*
X35830000Y39230000D02*
X37130000Y40530000D01*
D11*
X42430000Y39230000D02*
X42430000Y33930000D01*
D11*
X35830000Y33930000D02*
X35830000Y39230000D01*
D11*
X34580000Y40480000D02*
X34580000Y40680000D01*
D11*
X33780000Y40480000D02*
X33780000Y40680000D01*
D11*
X51360000Y42800000D02*
X51360000Y42600000D01*
D11*
X52160000Y42800000D02*
X52160000Y42600000D01*
D11*
X31605000Y40280000D02*
X31055000Y40280000D01*
D11*
X29880000Y40555000D02*
X29880000Y41580000D01*
D11*
X32780000Y41580000D02*
X32780000Y40555000D01*
D11*
X32005000Y41580000D02*
X32780000Y41580000D01*
D11*
X29880000Y41580000D02*
X30655000Y41580000D01*
D11*
X43650000Y11400000D02*
X43650000Y11600000D01*
D11*
X42850000Y11400000D02*
X42850000Y11600000D01*
D11*
X3855000Y30235000D02*
X3855000Y29685000D01*
D11*
X3005000Y30235000D02*
X3005000Y29685000D01*
D11*
X53860000Y21460000D02*
X53660000Y21460000D01*
D11*
X53860000Y20660000D02*
X53660000Y20660000D01*
D11*
X46600000Y16070000D02*
X44325000Y16070000D01*
D11*
X41300000Y22670000D02*
X42275000Y22670000D01*
D11*
X45300000Y22670000D02*
X44325000Y22670000D01*
D11*
X45300000Y22670000D02*
X46600000Y21370000D01*
D11*
X40000000Y16070000D02*
X42275000Y16070000D01*
D11*
X40000000Y21370000D02*
X41300000Y22670000D01*
D11*
X46600000Y21370000D02*
X46600000Y16070000D01*
D11*
X40000000Y16070000D02*
X40000000Y21370000D01*
D11*
X18620000Y3970000D02*
X26800000Y3970000D01*
D11*
X18620000Y1430000D02*
X18620000Y3970000D01*
D11*
X26800000Y3970000D02*
X26800000Y1430000D01*
D11*
X26800000Y1430000D02*
X18620000Y1430000D01*
D11*
X12295000Y32620000D02*
X13545000Y32620000D01*
D11*
X12295000Y34220000D02*
X13545000Y34220000D01*
D11*
X32410000Y31800000D02*
X36390000Y31800000D01*
D11*
X36390000Y26800000D02*
X32410000Y26800000D01*
D11*
X33050000Y31800000D02*
X33050000Y26800000D01*
D11*
X10310000Y29500000D02*
X14290000Y29500000D01*
D11*
X14290000Y24500000D02*
X10310000Y24500000D01*
D11*
X10950000Y29500000D02*
X10950000Y24500000D01*
D11*
X31475000Y6200000D02*
X33125000Y6200000D01*
D11*
X31475000Y7800000D02*
X33125000Y7800000D01*
D11*
X45980000Y42800000D02*
X45980000Y42600000D01*
D11*
X46780000Y42800000D02*
X46780000Y42600000D01*
D11*
X19705000Y32040000D02*
X19130000Y32040000D01*
D11*
X18080000Y33090000D02*
X18080000Y37340000D01*
D11*
X22330000Y32040000D02*
X21755000Y32040000D01*
D11*
X23380000Y37340000D02*
X21755000Y37340000D01*
D11*
X22330000Y32040000D02*
X23380000Y33090000D01*
D11*
X19130000Y32040000D02*
X18080000Y33090000D01*
D11*
X23380000Y33090000D02*
X23380000Y37340000D01*
D11*
X18080000Y37340000D02*
X19705000Y37340000D01*
D11*
X25980000Y10100000D02*
X25980000Y9900000D01*
D11*
X26780000Y10100000D02*
X26780000Y9900000D01*
D11*
X48300000Y27920000D02*
X48300000Y27720000D01*
D11*
X49100000Y27920000D02*
X49100000Y27720000D01*
D11*
X48525000Y40565000D02*
X49075000Y40565000D01*
D11*
X48525000Y39715000D02*
X49075000Y39715000D01*
D11*
X48300000Y8430000D02*
X48300000Y1430000D01*
D11*
X41700000Y1430000D02*
X41700000Y8430000D01*
D11*
X48300000Y1430000D02*
X41700000Y1430000D01*
D11*
X41700000Y8430000D02*
X48300000Y8430000D01*
D11*
X11945000Y31445000D02*
X12495000Y31445000D01*
D11*
X11945000Y30595000D02*
X12495000Y30595000D01*
D11*
X18155000Y10285000D02*
X18155000Y10835000D01*
D11*
X19005000Y10285000D02*
X19005000Y10835000D01*
D11*
X6305000Y26185000D02*
X6855000Y26185000D01*
D11*
X6305000Y25335000D02*
X6855000Y25335000D01*
D11*
X21205000Y40664999D02*
X21755000Y40664999D01*
D11*
X21205000Y39814999D02*
X21755000Y39814999D01*
D11*
X37900000Y75300000D02*
X37900000Y79400000D01*
D11*
X47900000Y54400000D02*
X47900000Y50500000D01*
D11*
X33400000Y54400000D02*
X33400000Y75300000D01*
D11*
X37900000Y79400000D02*
X48900000Y79400000D01*
D11*
X33400000Y75300000D02*
X37900000Y75300000D01*
D11*
X53400000Y54400000D02*
X47900000Y54400000D01*
D11*
X47900000Y50500000D02*
X38900000Y50500000D01*
D11*
X48900000Y79400000D02*
X48900000Y75300000D01*
D11*
X38900000Y54400000D02*
X33400000Y54400000D01*
D11*
X38900000Y50500000D02*
X38900000Y54400000D01*
D11*
X48900000Y75300000D02*
X53400000Y75300000D01*
D11*
X53400000Y75300000D02*
X53400000Y54400000D01*
D11*
X7105000Y33185000D02*
X7655000Y33185000D01*
D11*
X7105000Y32335000D02*
X7655000Y32335000D01*
D11*
X1610000Y36060000D02*
X2460000Y35210000D01*
D11*
X2460000Y35210000D02*
X1610000Y36060000D01*
D11*
X5060000Y35210000D02*
X5910000Y36060000D01*
D11*
X5060000Y35210000D02*
X4785000Y35210000D01*
D11*
X1610000Y39510000D02*
X2735000Y39510000D01*
D11*
X1610000Y39510000D02*
X1610000Y36060000D01*
D11*
X1610000Y36060000D02*
X2460000Y35210000D01*
D11*
X5910000Y39510000D02*
X4785000Y39510000D01*
D11*
X2460000Y35210000D02*
X2730000Y35210000D01*
D11*
X2460000Y35210000D02*
X2460000Y35210000D01*
D11*
X5910000Y36060000D02*
X5910000Y39510000D01*
D10*
X6050000Y41900000D02*
X5650000Y41500000D01*
D10*
X4750000Y41900000D02*
X5150000Y42300000D01*
D10*
X6050000Y41900000D02*
X5650000Y42300000D01*
D10*
X4750000Y41900000D02*
X6050000Y41900000D01*
D10*
X4750000Y41900000D02*
X5150000Y41500000D01*
D12*
X53077000Y17048000D02*
X53202000Y17309000D01*
D12*
X57022000Y16334000D02*
X57068000Y16392000D01*
D12*
X55768000Y18135000D02*
X55902000Y18217000D01*
D12*
X53514000Y18387000D02*
X53832000Y18159000D01*
D12*
X53138000Y16878000D02*
X52681000Y16783000D01*
D12*
X53108000Y16232000D02*
X53248000Y15981000D01*
D12*
X53197000Y15736000D02*
X53101000Y15987000D01*
D12*
X54333000Y17157000D02*
X54818000Y17331000D01*
D12*
X55086000Y15899000D02*
X55135000Y15959000D01*
D12*
X53643000Y14807000D02*
X53382000Y14649000D01*
D12*
X55056000Y18932000D02*
X55135000Y18915000D01*
D12*
X53248000Y15981000D02*
X53362000Y15710000D01*
D12*
X52623000Y16337000D02*
X52927000Y16264000D01*
D12*
X52914000Y16119000D02*
X52749000Y16151000D01*
D12*
X54818000Y17331000D02*
X55297000Y17172000D01*
D12*
X53452000Y18247000D02*
X53406000Y18274000D01*
D12*
X52681000Y16783000D02*
X52587000Y16746000D01*
D12*
X55775000Y15100000D02*
X56041000Y14955000D01*
D12*
X53389000Y14818000D02*
X53430000Y14841000D01*
D12*
X55310000Y15703000D02*
X55582000Y15067000D01*
D12*
X55256000Y15846000D02*
X55310000Y15703000D01*
D12*
X53262000Y17453000D02*
X53161000Y17614000D01*
D12*
X53631000Y18124000D02*
X53452000Y18247000D01*
D12*
X54542000Y18459000D02*
X54520000Y18356000D01*
D12*
X52443000Y16873000D02*
X52508000Y16893000D01*
D12*
X56463000Y16197000D02*
X56542000Y16223000D01*
D12*
X56484000Y17220000D02*
X56638000Y16997000D01*
D12*
X56266000Y15651000D02*
X56345000Y15845000D01*
D12*
X55589000Y16362000D02*
X55327000Y15923000D01*
D12*
X54564000Y18575000D02*
X54542000Y18459000D01*
D12*
X55102000Y18464000D02*
X55001000Y18781000D01*
D12*
X55327000Y15923000D02*
X55256000Y15846000D01*
D12*
X54191000Y16407000D02*
X54376000Y16081000D01*
D12*
X54376000Y18376000D02*
X54443000Y18694000D01*
D12*
X55630000Y17984000D02*
X55413000Y18077000D01*
D12*
X56654000Y15238000D02*
X56730000Y15089000D01*
D12*
X55571000Y18164000D02*
X55718000Y18110000D01*
D12*
X54443000Y18694000D02*
X54500000Y18925000D01*
D12*
X53392000Y15584000D02*
X53262000Y15378000D01*
D12*
X55580000Y16754000D02*
X55589000Y16362000D01*
D12*
X56442000Y15711000D02*
X56429000Y15598000D01*
D12*
X53101000Y15107000D02*
X53245000Y14959000D01*
D12*
X56501000Y18024000D02*
X56268000Y18261000D01*
D12*
X56243000Y15588000D02*
X56266000Y15651000D01*
D12*
X56292000Y18446000D02*
X56471000Y18284000D01*
D12*
X57191000Y16871000D02*
X57216000Y16858000D01*
D12*
X57216000Y16858000D02*
X57215000Y16604000D01*
D12*
X55297000Y17172000D02*
X55580000Y16754000D01*
D12*
X55853000Y14913000D02*
X55827000Y14933000D01*
D12*
X55827000Y14933000D02*
X55665000Y14912000D01*
D12*
X56117000Y18364000D02*
X56292000Y18446000D01*
D12*
X55672000Y15079000D02*
X55775000Y15100000D01*
D12*
X54008000Y14897000D02*
X53919000Y14945000D01*
D12*
X56291000Y14651000D02*
X56226000Y14666000D01*
D12*
X52982000Y17876000D02*
X52909000Y17988000D01*
D12*
X53011000Y16098000D02*
X52914000Y16119000D01*
D12*
X53382000Y14649000D02*
X53282000Y14716000D01*
D12*
X53626000Y14969000D02*
X53811000Y15097000D01*
D12*
X56429000Y15598000D02*
X56654000Y15238000D01*
D12*
X54300000Y15611000D02*
X54374000Y15814000D01*
D12*
X56444000Y14991000D02*
X56537000Y15098000D01*
D12*
X56650000Y14990000D02*
X56535000Y14863000D01*
D12*
X52932000Y18020000D02*
X53096000Y18191000D01*
D12*
X54543000Y15841000D02*
X54213000Y15026000D01*
D12*
X57068000Y16392000D02*
X57053000Y16746000D01*
D12*
X53056000Y14939000D02*
X52910000Y15088000D01*
D12*
X54467000Y17091000D02*
X54229000Y16791000D01*
D12*
X54044000Y18152000D02*
X54292000Y18257000D01*
D12*
X53962000Y15087000D02*
X54044000Y15052000D01*
D12*
X54388000Y18143000D02*
X54176000Y18051000D01*
D12*
X53282000Y14716000D02*
X53282000Y14716000D01*
D12*
X53832000Y18159000D02*
X54044000Y18152000D01*
D12*
X53289000Y17677000D02*
X53413000Y17479000D01*
D12*
X56730000Y17990000D02*
X56544000Y17696000D01*
D12*
X53202000Y17309000D02*
X53262000Y17453000D01*
D12*
X54615000Y18776000D02*
X54564000Y18575000D01*
D12*
X53245000Y14959000D02*
X53389000Y14818000D01*
D12*
X56535000Y14863000D02*
X56291000Y14651000D01*
D12*
X54388000Y15850000D02*
X54350000Y15893000D01*
D12*
X57203000Y16221000D02*
X57140000Y16201000D01*
D12*
X56540000Y17970000D02*
X56501000Y18024000D01*
D12*
X57215000Y16604000D02*
X57208000Y16285000D01*
D12*
X54039000Y16537000D02*
X54113000Y16883000D01*
D12*
X54563000Y15904000D02*
X54543000Y15841000D01*
D12*
X56720000Y16832000D02*
X56517000Y16874000D01*
D12*
X55413000Y18077000D02*
X55179000Y18188000D01*
D12*
X52444000Y16224000D02*
X52438000Y16511000D01*
D12*
X54500000Y18925000D02*
X55056000Y18932000D01*
D12*
X56638000Y16997000D02*
X56929000Y16936000D01*
D12*
X54254000Y16000000D02*
X54039000Y16537000D01*
D12*
X53101000Y15987000D02*
X53011000Y16098000D01*
D12*
X52438000Y16511000D02*
X52438000Y16835000D01*
D12*
X56504000Y15875000D02*
X56442000Y15711000D01*
D12*
X53257000Y18358000D02*
X53380000Y18442000D01*
D12*
X54938000Y17178000D02*
X54467000Y17091000D01*
D12*
X53244000Y17063000D02*
X53138000Y16878000D01*
D12*
X53362000Y15710000D02*
X53408000Y15616000D01*
D12*
X53811000Y15097000D02*
X53962000Y15087000D01*
D12*
X56433000Y17337000D02*
X56484000Y17220000D01*
D12*
X52924000Y15120000D02*
X53158000Y15476000D01*
D12*
X56405000Y17440000D02*
X56433000Y17337000D01*
D12*
X56250000Y14835000D02*
X56444000Y14991000D01*
D12*
X55179000Y18188000D02*
X55102000Y18464000D01*
D12*
X56345000Y15845000D02*
X56457000Y16161000D01*
D12*
X53626000Y14969000D02*
X53626000Y14969000D01*
D12*
X53919000Y14945000D02*
X53835000Y14931000D01*
D12*
X55582000Y15067000D02*
X55672000Y15079000D01*
D12*
X56379000Y17123000D02*
X56276000Y17347000D01*
D12*
X55388000Y16871000D02*
X54938000Y17178000D01*
D12*
X56734000Y16268000D02*
X57022000Y16334000D01*
D12*
X55718000Y18110000D02*
X55768000Y18135000D01*
D12*
X56471000Y18284000D02*
X56730000Y17990000D01*
D12*
X53360000Y18245000D02*
X53162000Y18061000D01*
D12*
X56537000Y15098000D02*
X56358000Y15418000D01*
D12*
X56517000Y17927000D02*
X56540000Y17970000D01*
D12*
X55902000Y18217000D02*
X56017000Y18290000D01*
D12*
X55350000Y15223000D02*
X55165000Y15669000D01*
D12*
X57208000Y16285000D02*
X57203000Y16221000D01*
D12*
X56245000Y17494000D02*
X56380000Y17711000D01*
D12*
X53408000Y15616000D02*
X53392000Y15584000D01*
D12*
X56949000Y16159000D02*
X56598000Y16089000D01*
D12*
X52749000Y16151000D02*
X52489000Y16208000D01*
D12*
X54176000Y18051000D02*
X53910000Y17956000D01*
D12*
X53096000Y18191000D02*
X53257000Y18358000D01*
D12*
X53161000Y17614000D02*
X52982000Y17876000D01*
D12*
X52909000Y17988000D02*
X52932000Y18020000D01*
D12*
X56542000Y16223000D02*
X56734000Y16268000D01*
D12*
X56598000Y16089000D02*
X56504000Y15875000D01*
D12*
X53100000Y17988000D02*
X53132000Y17924000D01*
D12*
X52508000Y16893000D02*
X52704000Y16936000D01*
D12*
X54374000Y15814000D02*
X54388000Y15850000D01*
D12*
X53262000Y15378000D02*
X53101000Y15107000D01*
D12*
X52704000Y16936000D02*
X53077000Y17048000D01*
D12*
X56358000Y15418000D02*
X56243000Y15588000D01*
D12*
X54173000Y14924000D02*
X54008000Y14897000D01*
D12*
X53380000Y18442000D02*
X53514000Y18387000D01*
D12*
X56276000Y17347000D02*
X56224000Y17450000D01*
D12*
X54113000Y16883000D02*
X54333000Y17157000D01*
D12*
X55428000Y16309000D02*
X55388000Y16871000D01*
D12*
X56080000Y18163000D02*
X55772000Y17964000D01*
D12*
X55001000Y18781000D02*
X54615000Y18776000D01*
D12*
X52438000Y16835000D02*
X52443000Y16873000D01*
D12*
X53282000Y14716000D02*
X53056000Y14939000D01*
D12*
X52489000Y16208000D02*
X52444000Y16224000D01*
D12*
X54044000Y15052000D02*
X54300000Y15611000D01*
D12*
X53910000Y17956000D02*
X53631000Y18124000D01*
D12*
X55135000Y15959000D02*
X55428000Y16309000D01*
D12*
X56268000Y18261000D02*
X56080000Y18163000D01*
D12*
X53413000Y17479000D02*
X53244000Y17063000D01*
D12*
X55254000Y18447000D02*
X55300000Y18287000D01*
D12*
X54350000Y18292000D02*
X54376000Y18376000D01*
D12*
X52587000Y16746000D02*
X52580000Y16407000D01*
D12*
X52910000Y15088000D02*
X52924000Y15120000D01*
D12*
X55514000Y14879000D02*
X55350000Y15223000D01*
D12*
X54350000Y15893000D02*
X54254000Y16000000D01*
D12*
X55135000Y18915000D02*
X55254000Y18447000D01*
D12*
X56017000Y18290000D02*
X56117000Y18364000D01*
D12*
X56457000Y16161000D02*
X56463000Y16197000D01*
D12*
X56041000Y14955000D02*
X56250000Y14835000D01*
D12*
X53406000Y18274000D02*
X53360000Y18245000D01*
D12*
X54229000Y16791000D02*
X54191000Y16407000D01*
D12*
X53162000Y18061000D02*
X53100000Y17988000D01*
D12*
X56224000Y17450000D02*
X56245000Y17494000D01*
D12*
X55772000Y17964000D02*
X55723000Y17940000D01*
D12*
X55723000Y17940000D02*
X55630000Y17984000D01*
D12*
X53158000Y15476000D02*
X53197000Y15736000D01*
D12*
X53835000Y14931000D02*
X53643000Y14807000D01*
D12*
X56380000Y17711000D02*
X56517000Y17927000D01*
D12*
X55665000Y14912000D02*
X55514000Y14879000D01*
D12*
X54376000Y16081000D02*
X54506000Y15958000D01*
D12*
X55300000Y18287000D02*
X55571000Y18164000D01*
D12*
X56730000Y15089000D02*
X56650000Y14990000D01*
D12*
X57053000Y16746000D02*
X56720000Y16832000D01*
D12*
X53430000Y14841000D02*
X53626000Y14969000D01*
D12*
X52580000Y16407000D02*
X52623000Y16337000D01*
D12*
X57140000Y16201000D02*
X56949000Y16159000D01*
D12*
X54520000Y18356000D02*
X54388000Y18143000D01*
D12*
X56544000Y17696000D02*
X56405000Y17440000D01*
D12*
X56517000Y16874000D02*
X56379000Y17123000D01*
D12*
X54506000Y15958000D02*
X54563000Y15904000D01*
D12*
X56929000Y16936000D02*
X57191000Y16871000D01*
D12*
X54292000Y18257000D02*
X54350000Y18292000D01*
D12*
X54213000Y15026000D02*
X54173000Y14924000D01*
D12*
X52927000Y16264000D02*
X53108000Y16232000D01*
D12*
X56226000Y14666000D02*
X55853000Y14913000D01*
D12*
X55165000Y15669000D02*
X55086000Y15899000D01*
D12*
X53132000Y17924000D02*
X53289000Y17677000D01*
D12*
X52846000Y12562000D02*
X52834000Y12372000D01*
D12*
X52639000Y12007000D02*
X52582000Y12021000D01*
D12*
X55767000Y11548000D02*
X55756000Y11826000D01*
D12*
X54103000Y12666000D02*
X54091000Y12902000D01*
D12*
X52834000Y12372000D02*
X52838000Y12269000D01*
D12*
X57316000Y13868000D02*
X57305000Y13714000D01*
D12*
X55338000Y12581000D02*
X55385000Y12549000D01*
D12*
X54997000Y12620000D02*
X55143000Y12633000D01*
D12*
X55072000Y12272000D02*
X55064000Y12326000D01*
D12*
X55756000Y11826000D02*
X55734000Y12174000D01*
D12*
X54982000Y12385000D02*
X54897000Y12380000D01*
D12*
X52778000Y11569000D02*
X52817000Y11539000D01*
D12*
X55353000Y11421000D02*
X55327000Y11380000D01*
D12*
X54475000Y11595000D02*
X54459000Y11388000D01*
D12*
X52698000Y11583000D02*
X52778000Y11569000D01*
D12*
X55235000Y11325000D02*
X55142000Y11301000D01*
D12*
X56122000Y13389000D02*
X56118000Y13230000D01*
D12*
X54781000Y12560000D02*
X54812000Y12591000D01*
D12*
X56143000Y13778000D02*
X56186000Y13688000D01*
D12*
X53387000Y12053000D02*
X53373000Y12072000D01*
D12*
X54910000Y13691000D02*
X55060000Y13704000D01*
D12*
X55934000Y13809000D02*
X56048000Y13815000D01*
D12*
X55040000Y11484000D02*
X55050000Y11585000D01*
D12*
X53307000Y11301000D02*
X53347000Y11309000D01*
D12*
X57328000Y12380000D02*
X57342000Y12096000D01*
D12*
X52569000Y11021000D02*
X52544000Y11029000D01*
D12*
X54994000Y13592000D02*
X54973000Y13605000D01*
D12*
X56946000Y13424000D02*
X56952000Y13884000D01*
D12*
X52515000Y13378000D02*
X52545000Y13411000D01*
D12*
X52838000Y12269000D02*
X52850000Y12226000D01*
D12*
X54367000Y11205000D02*
X54217000Y11195000D01*
D12*
X54156000Y13591000D02*
X54202000Y13612000D01*
D12*
X55272000Y12620000D02*
X55338000Y12581000D01*
D12*
X54202000Y13612000D02*
X54265000Y13628000D01*
D12*
X55368000Y13676000D02*
X55374000Y13628000D01*
D12*
X52852000Y13270000D02*
X52856000Y12908000D01*
D12*
X54973000Y13605000D02*
X54931000Y13616000D01*
D12*
X55142000Y11301000D02*
X54989000Y11275000D01*
D12*
X52856000Y12908000D02*
X52857000Y12670000D01*
D12*
X55734000Y12174000D02*
X55712000Y12520000D01*
D12*
X54109000Y13536000D02*
X54125000Y13566000D01*
D12*
X54532000Y11294000D02*
X54671000Y11308000D01*
D12*
X53217000Y11287000D02*
X53307000Y11301000D01*
D12*
X52995000Y11051000D02*
X52827000Y11034000D01*
D12*
X53550000Y11155000D02*
X53474000Y11123000D01*
D12*
X56948000Y12744000D02*
X56946000Y13424000D01*
D12*
X57342000Y12096000D02*
X57344000Y11882000D01*
D12*
X54867000Y12606000D02*
X54997000Y12620000D01*
D12*
X52801000Y13441000D02*
X52823000Y13427000D01*
D12*
X52823000Y13427000D02*
X52839000Y13408000D01*
D12*
X53235000Y11075000D02*
X53111000Y11059000D01*
D12*
X54111000Y11210000D02*
X54088000Y11235000D01*
D12*
X55411000Y11745000D02*
X55398000Y11608000D01*
D12*
X54477000Y11294000D02*
X54532000Y11294000D01*
D12*
X53393000Y11497000D02*
X53413000Y11619000D01*
D12*
X57065000Y11495000D02*
X56979000Y11503000D01*
D12*
X52857000Y12670000D02*
X52846000Y12562000D01*
D12*
X53091000Y11265000D02*
X53217000Y11287000D01*
D12*
X54119000Y12146000D02*
X54115000Y12430000D01*
D12*
X54217000Y11195000D02*
X54145000Y11197000D01*
D12*
X55289000Y11350000D02*
X55235000Y11325000D01*
D12*
X55398000Y11608000D02*
X55377000Y11499000D01*
D12*
X54487000Y13556000D02*
X54478000Y13482000D01*
D12*
X54740000Y12477000D02*
X54753000Y12516000D01*
D12*
X56920000Y11662000D02*
X56875000Y11773000D01*
D12*
X56131000Y11412000D02*
X56101000Y11398000D01*
D12*
X55411000Y11929000D02*
X55411000Y11745000D01*
D12*
X52504000Y11292000D02*
X52514000Y11389000D01*
D12*
X55291000Y13300000D02*
X55205000Y13286000D01*
D12*
X53688000Y13548000D02*
X53730000Y13535000D01*
D12*
X53387000Y12277000D02*
X53387000Y12857000D01*
D12*
X53734000Y11495000D02*
X53717000Y11397000D01*
D12*
X53373000Y12072000D02*
X53340000Y12075000D01*
D12*
X55746000Y13698000D02*
X55757000Y13757000D01*
D12*
X54473000Y13256000D02*
X54480000Y12972000D01*
D12*
X56409000Y13120000D02*
X56473000Y12968000D01*
D12*
X52864000Y12203000D02*
X52915000Y12205000D01*
D12*
X57204000Y13937000D02*
X57319000Y13943000D01*
D12*
X56240000Y13563000D02*
X56327000Y13335000D01*
D12*
X56800000Y11935000D02*
X56691000Y12148000D01*
D12*
X55385000Y12549000D02*
X55388000Y12412000D01*
D12*
X54115000Y11857000D02*
X54119000Y12146000D01*
D12*
X56048000Y13815000D02*
X56118000Y13810000D01*
D12*
X54989000Y11275000D02*
X54803000Y11249000D01*
D12*
X55061000Y11737000D02*
X55071000Y12041000D01*
D12*
X54671000Y11308000D02*
X54813000Y11323000D01*
D12*
X54125000Y13566000D02*
X54156000Y13591000D01*
D12*
X53474000Y11123000D02*
X53371000Y11099000D01*
D12*
X56979000Y11503000D02*
X56951000Y11566000D01*
D12*
X53747000Y11615000D02*
X53734000Y11495000D01*
D12*
X54713000Y13672000D02*
X54910000Y13691000D01*
D12*
X55333000Y13316000D02*
X55291000Y13300000D01*
D12*
X53387000Y12857000D02*
X53392000Y13454000D01*
D12*
X57319000Y13943000D02*
X57324000Y13939000D01*
D12*
X53605000Y13561000D02*
X53688000Y13548000D01*
D12*
X55388000Y12412000D02*
X55398000Y12153000D01*
D12*
X57324000Y13939000D02*
X57316000Y13868000D01*
D12*
X57300000Y13400000D02*
X57307000Y12922000D01*
D12*
X55143000Y12633000D02*
X55228000Y12633000D01*
D12*
X52817000Y11539000D02*
X52829000Y11491000D01*
D12*
X53035000Y12220000D02*
X53241000Y12252000D01*
D12*
X55050000Y12369000D02*
X55033000Y12387000D01*
D12*
X55205000Y13286000D02*
X55080000Y13281000D01*
D12*
X54896000Y11331000D02*
X54958000Y11347000D01*
D12*
X56595000Y12334000D02*
X56543000Y12442000D01*
D12*
X56954000Y12230000D02*
X56948000Y12744000D01*
D12*
X52960000Y11250000D02*
X53091000Y11265000D01*
D12*
X53420000Y13493000D02*
X53476000Y13532000D01*
D12*
X55840000Y13795000D02*
X55934000Y13809000D01*
D12*
X55327000Y11380000D02*
X55289000Y11350000D01*
D12*
X57336000Y11716000D02*
X57326000Y11621000D01*
D12*
X55026000Y11416000D02*
X55040000Y11484000D01*
D12*
X56579000Y12728000D02*
X56735000Y12386000D01*
D12*
X56952000Y13884000D02*
X56967000Y13899000D01*
D12*
X55033000Y12387000D02*
X54982000Y12385000D01*
D12*
X52504000Y12587000D02*
X52502000Y13229000D01*
D12*
X55060000Y13704000D02*
X55224000Y13710000D01*
D12*
X53717000Y11397000D02*
X53693000Y11310000D01*
D12*
X52528000Y11468000D02*
X52549000Y11526000D01*
D12*
X53426000Y11851000D02*
X53417000Y11953000D01*
D12*
X54491000Y12752000D02*
X54499000Y12448000D01*
D12*
X54509000Y13654000D02*
X54713000Y13672000D01*
D12*
X55714000Y13446000D02*
X55730000Y13592000D01*
D12*
X52827000Y11034000D02*
X52651000Y11019000D01*
D12*
X55702000Y13274000D02*
X55714000Y13446000D01*
D12*
X56140000Y11541000D02*
X56141000Y11420000D01*
D12*
X52501000Y13359000D02*
X52515000Y13378000D01*
D12*
X54780000Y12400000D02*
X54753000Y12420000D01*
D12*
X55224000Y13710000D02*
X55324000Y13710000D01*
D12*
X53413000Y11619000D02*
X53424000Y11725000D01*
D12*
X54855000Y13620000D02*
X54752000Y13614000D01*
D12*
X55778000Y11374000D02*
X55767000Y11548000D01*
D12*
X54897000Y12380000D02*
X54824000Y12386000D01*
D12*
X54753000Y12420000D02*
X54740000Y12447000D01*
D12*
X54958000Y11347000D02*
X54999000Y11376000D01*
D12*
X54499000Y12448000D02*
X54499000Y12040000D01*
D12*
X52544000Y11029000D02*
X52530000Y11042000D01*
D12*
X55712000Y12520000D02*
X55702000Y12728000D01*
D12*
X56473000Y12968000D02*
X56579000Y12728000D01*
D12*
X52875000Y11253000D02*
X52960000Y11250000D01*
D12*
X52545000Y13411000D02*
X52582000Y13434000D01*
D12*
X52755000Y11997000D02*
X52639000Y12007000D01*
D12*
X54097000Y13490000D02*
X54109000Y13536000D01*
D12*
X55702000Y12728000D02*
X55697000Y13010000D01*
D12*
X52829000Y11491000D02*
X52826000Y11377000D01*
D12*
X52516000Y11090000D02*
X52503000Y11182000D01*
D12*
X55377000Y11499000D02*
X55353000Y11421000D01*
D12*
X55324000Y13710000D02*
X55343000Y13699000D01*
D12*
X56132000Y12098000D02*
X56140000Y11541000D01*
D12*
X54803000Y11249000D02*
X54587000Y11225000D01*
D12*
X53693000Y11310000D02*
X53661000Y11242000D01*
D12*
X52530000Y11042000D02*
X52516000Y11090000D01*
D12*
X52582000Y13434000D02*
X52634000Y13452000D01*
D12*
X54092000Y11541000D02*
X54107000Y11703000D01*
D12*
X52877000Y11995000D02*
X52755000Y11997000D01*
D12*
X57344000Y11882000D02*
X57336000Y11716000D01*
D12*
X57299000Y11538000D02*
X57257000Y11519000D01*
D12*
X56118000Y13230000D02*
X56122000Y12800000D01*
D12*
X52839000Y13408000D02*
X52852000Y13270000D01*
D12*
X55358000Y13406000D02*
X55348000Y13331000D01*
D12*
X54587000Y11225000D02*
X54367000Y11205000D01*
D12*
X54999000Y11376000D02*
X55026000Y11416000D01*
D12*
X55804000Y11368000D02*
X55778000Y11374000D01*
D12*
X54661000Y13600000D02*
X54553000Y13577000D01*
D12*
X52503000Y11182000D02*
X52504000Y11292000D01*
D12*
X55348000Y13331000D02*
X55333000Y13316000D01*
D12*
X54981000Y13442000D02*
X54994000Y13592000D01*
D12*
X54091000Y12902000D02*
X54084000Y13174000D01*
D12*
X54553000Y13577000D02*
X54487000Y13556000D01*
D12*
X56951000Y11566000D02*
X56920000Y11662000D01*
D12*
X55697000Y13010000D02*
X55702000Y13274000D01*
D12*
X54145000Y11197000D02*
X54111000Y11210000D01*
D12*
X52827000Y11280000D02*
X52841000Y11262000D01*
D12*
X56889000Y12055000D02*
X56951000Y11935000D01*
D12*
X54459000Y11305000D02*
X54477000Y11294000D01*
D12*
X53403000Y12012000D02*
X53387000Y12053000D01*
D12*
X55080000Y13281000D02*
X54991000Y13289000D01*
D12*
X52850000Y12226000D02*
X52864000Y12203000D01*
D12*
X57307000Y12922000D02*
X57316000Y12610000D01*
D12*
X55757000Y13757000D02*
X55780000Y13778000D01*
D12*
X55228000Y12633000D02*
X55272000Y12620000D01*
D12*
X56327000Y13335000D02*
X56409000Y13120000D01*
D12*
X54478000Y13482000D02*
X54473000Y13256000D01*
D12*
X53740000Y12073000D02*
X53749000Y11827000D01*
D12*
X55940000Y11373000D02*
X55860000Y11367000D01*
D12*
X54812000Y12591000D02*
X54867000Y12606000D01*
D12*
X54499000Y12040000D02*
X54491000Y11785000D01*
D12*
X55860000Y11367000D02*
X55804000Y11368000D01*
D12*
X54491000Y11785000D02*
X54475000Y11595000D01*
D12*
X53195000Y12049000D02*
X52997000Y12011000D01*
D12*
X54753000Y12516000D02*
X54781000Y12560000D01*
D12*
X52651000Y11019000D02*
X52652000Y11019000D01*
D12*
X52514000Y11389000D02*
X52528000Y11468000D01*
D12*
X53392000Y13454000D02*
X53420000Y13493000D01*
D12*
X52826000Y11377000D02*
X52827000Y11280000D01*
D12*
X53732000Y12853000D02*
X53740000Y12073000D01*
D12*
X52915000Y12205000D02*
X53035000Y12220000D01*
D12*
X53749000Y11827000D02*
X53747000Y11615000D01*
D12*
X56324000Y12936000D02*
X56122000Y13389000D01*
D12*
X52514000Y12065000D02*
X52504000Y12587000D01*
D12*
X57184000Y11502000D02*
X57065000Y11495000D01*
D12*
X56141000Y11420000D02*
X56131000Y11412000D01*
D12*
X54459000Y11388000D02*
X54459000Y11305000D01*
D12*
X55370000Y13533000D02*
X55358000Y13406000D01*
D12*
X52582000Y12021000D02*
X52541000Y12042000D01*
D12*
X57317000Y11569000D02*
X57299000Y11538000D01*
D12*
X54752000Y13614000D02*
X54661000Y13600000D01*
D12*
X53371000Y11099000D02*
X53235000Y11075000D01*
D12*
X52580000Y11555000D02*
X52622000Y11575000D01*
D12*
X55064000Y12326000D02*
X55050000Y12369000D01*
D12*
X54084000Y13174000D02*
X54087000Y13410000D01*
D12*
X52634000Y13452000D02*
X52705000Y13460000D01*
D12*
X55730000Y13592000D02*
X55746000Y13698000D01*
D12*
X56735000Y12386000D02*
X56889000Y12055000D01*
D12*
X55071000Y12041000D02*
X55072000Y12272000D01*
D12*
X54480000Y12972000D02*
X54491000Y12752000D01*
D12*
X54359000Y13641000D02*
X54509000Y13654000D01*
D12*
X53340000Y12075000D02*
X53195000Y12049000D01*
D12*
X56186000Y13688000D02*
X56240000Y13563000D01*
D12*
X52541000Y12042000D02*
X52514000Y12065000D01*
D12*
X52765000Y13455000D02*
X52801000Y13441000D01*
D12*
X54969000Y13297000D02*
X54981000Y13442000D01*
D12*
X57305000Y13714000D02*
X57300000Y13400000D01*
D12*
X56875000Y11773000D02*
X56800000Y11935000D01*
D12*
X54081000Y11345000D02*
X54092000Y11541000D01*
D12*
X52652000Y11019000D02*
X52569000Y11021000D01*
D12*
X55343000Y13699000D02*
X55368000Y13676000D01*
D12*
X56118000Y13810000D02*
X56143000Y13778000D01*
D12*
X53476000Y13532000D02*
X53537000Y13554000D01*
D12*
X56951000Y11935000D02*
X56954000Y12230000D01*
D12*
X53111000Y11059000D02*
X52995000Y11051000D01*
D12*
X52841000Y11262000D02*
X52875000Y11253000D01*
D12*
X56691000Y12148000D02*
X56595000Y12334000D01*
D12*
X54088000Y11235000D02*
X54081000Y11345000D01*
D12*
X52502000Y13229000D02*
X52501000Y13359000D01*
D12*
X56101000Y11398000D02*
X56032000Y11385000D01*
D12*
X54991000Y13289000D02*
X54969000Y13297000D01*
D12*
X54115000Y12430000D02*
X54103000Y12666000D01*
D12*
X56543000Y12442000D02*
X56324000Y12936000D01*
D12*
X57316000Y12610000D02*
X57328000Y12380000D01*
D12*
X53618000Y11197000D02*
X53550000Y11155000D01*
D12*
X53730000Y13535000D02*
X53732000Y12853000D01*
D12*
X54740000Y12447000D02*
X54740000Y12477000D01*
D12*
X55050000Y11585000D02*
X55061000Y11737000D01*
D12*
X57000000Y13913000D02*
X57058000Y13926000D01*
D12*
X53661000Y11242000D02*
X53618000Y11197000D01*
D12*
X52705000Y13460000D02*
X52765000Y13455000D01*
D12*
X54931000Y13616000D02*
X54855000Y13620000D01*
D12*
X54265000Y13628000D02*
X54359000Y13641000D01*
D12*
X57326000Y11621000D02*
X57317000Y11569000D01*
D12*
X52997000Y12011000D02*
X52877000Y11995000D01*
D12*
X55860000Y11367000D02*
X55860000Y11367000D01*
D12*
X54824000Y12386000D02*
X54780000Y12400000D01*
D12*
X53537000Y13554000D02*
X53605000Y13561000D01*
D12*
X53424000Y11725000D02*
X53426000Y11851000D01*
D12*
X56032000Y11385000D02*
X55940000Y11373000D01*
D12*
X54087000Y13410000D02*
X54097000Y13490000D01*
D12*
X57257000Y11519000D02*
X57184000Y11502000D01*
D12*
X52549000Y11526000D02*
X52580000Y11555000D01*
D12*
X56122000Y12800000D02*
X56132000Y12098000D01*
D12*
X53417000Y11953000D02*
X53403000Y12012000D01*
D12*
X56967000Y13899000D02*
X57000000Y13913000D01*
D12*
X53241000Y12252000D02*
X53378000Y12275000D01*
D12*
X57058000Y13926000D02*
X57204000Y13937000D01*
D12*
X53347000Y11309000D02*
X53365000Y11367000D01*
D12*
X53365000Y11367000D02*
X53393000Y11497000D01*
D12*
X54217000Y11195000D02*
X54217000Y11195000D01*
D12*
X55398000Y12153000D02*
X55411000Y11929000D01*
D12*
X52622000Y11575000D02*
X52698000Y11583000D01*
D12*
X55374000Y13628000D02*
X55370000Y13533000D01*
D12*
X54813000Y11323000D02*
X54896000Y11331000D01*
D12*
X54107000Y11703000D02*
X54115000Y11857000D01*
D12*
X53378000Y12275000D02*
X53387000Y12277000D01*
D12*
X55780000Y13778000D02*
X55840000Y13795000D01*
D10*
X3947000Y10426000D02*
X3008000Y10339000D01*
D10*
X8200000Y12475000D02*
X8200000Y12475000D01*
D10*
X8919000Y13014000D02*
X8919000Y12495000D01*
D10*
X7029000Y12936000D02*
X7170000Y12772000D01*
D10*
X12847000Y10418000D02*
X12808000Y11101000D01*
D10*
X10475000Y10383000D02*
X10118000Y10362000D01*
D10*
X4933000Y13687000D02*
X5213000Y13759000D01*
D10*
X8651000Y10549000D02*
X8510000Y10763000D01*
D10*
X8351000Y10580000D02*
X8300000Y10400000D01*
D10*
X5213000Y13759000D02*
X5508000Y13678000D01*
D10*
X13688000Y11627000D02*
X14120000Y11414000D01*
D10*
X2430000Y11324000D02*
X2606000Y11645000D01*
D10*
X9713000Y10415000D02*
X9713000Y10415000D01*
D10*
X7266000Y11551000D02*
X7157000Y11414000D01*
D10*
X7112000Y13109000D02*
X6667000Y12942000D01*
D10*
X5183000Y10892000D02*
X5247000Y11322000D01*
D10*
X7523000Y10408000D02*
X7462000Y10458000D01*
D10*
X6714000Y11879000D02*
X7227000Y11750000D01*
D10*
X6838000Y11466000D02*
X6811000Y11363000D01*
D10*
X12702000Y11102000D02*
X12519000Y10648000D01*
D10*
X3947000Y11465000D02*
X3739000Y11463000D01*
D10*
X12038000Y10988000D02*
X12038000Y10988000D01*
D10*
X14262000Y10366000D02*
X13997000Y10375000D01*
D10*
X5002000Y12824000D02*
X4914000Y13330000D01*
D10*
X5059000Y12335000D02*
X5002000Y12824000D01*
D10*
X11133000Y13692000D02*
X11720000Y13681000D01*
D10*
X2943000Y11833000D02*
X3957000Y11773000D01*
D10*
X6998000Y11456000D02*
X6838000Y11466000D01*
D10*
X12116000Y10394000D02*
X11581000Y10328000D01*
D10*
X4484000Y12251000D02*
X4280000Y12251000D01*
D10*
X6273000Y10340000D02*
X6273000Y10340000D01*
D10*
X4019000Y10596000D02*
X3947000Y10426000D01*
D10*
X7220000Y12580000D02*
X7078000Y12454000D01*
D10*
X3659000Y13176000D02*
X3744000Y12682000D01*
D10*
X12118000Y13700000D02*
X12415000Y13619000D01*
D10*
X3969000Y13274000D02*
X3769000Y13211000D01*
D10*
X12838000Y11758000D02*
X13078000Y11839000D01*
D10*
X6528000Y12871000D02*
X6832000Y12893000D01*
D10*
X11268000Y11819000D02*
X11731000Y11876000D01*
D10*
X14017000Y13325000D02*
X14073000Y12955000D01*
D10*
X6535000Y13826000D02*
X7037000Y13760000D01*
D10*
X8510000Y10763000D02*
X8351000Y10580000D01*
D10*
X12587000Y12793000D02*
X12695000Y13262000D01*
D10*
X11020000Y13050000D02*
X11133000Y13692000D01*
D10*
X7523000Y10408000D02*
X7523000Y10408000D01*
D10*
X3989000Y10758000D02*
X4019000Y10596000D01*
D10*
X5247000Y11322000D02*
X5279000Y11761000D01*
D10*
X13357000Y10738000D02*
X13334000Y10574000D01*
D10*
X3758000Y10788000D02*
X3989000Y10758000D01*
D10*
X8290000Y11778000D02*
X8351000Y11443000D01*
D10*
X12174000Y11824000D02*
X12478000Y11650000D01*
D10*
X14073000Y12955000D02*
X13914000Y12733000D01*
D10*
X13413000Y13039000D02*
X13413000Y13039000D01*
D10*
X6832000Y12893000D02*
X7029000Y12936000D01*
D10*
X11748000Y13254000D02*
X11705000Y12756000D01*
D10*
X3744000Y12682000D02*
X3774000Y12160000D01*
D10*
X6811000Y11363000D02*
X7020000Y11228000D01*
D10*
X14165000Y11809000D02*
X14581000Y11807000D01*
D10*
X8581000Y14172000D02*
X9287000Y14173000D01*
D10*
X12415000Y13619000D02*
X12508000Y13139000D01*
D10*
X13914000Y12733000D02*
X13547000Y12656000D01*
D10*
X11720000Y13681000D02*
X11847000Y13664000D01*
D10*
X9719000Y11802000D02*
X10518000Y11804000D01*
D10*
X7462000Y11113000D02*
X7511000Y11804000D01*
D10*
X6559000Y13332000D02*
X6559000Y13332000D01*
D10*
X3496000Y10819000D02*
X3758000Y10788000D01*
D10*
X3008000Y10339000D02*
X2492000Y10667000D01*
D10*
X13689000Y10556000D02*
X13357000Y10738000D01*
D10*
X3104000Y12124000D02*
X3104000Y12124000D01*
D10*
X7170000Y12772000D02*
X7220000Y12580000D01*
D10*
X13025000Y13523000D02*
X13586000Y13532000D01*
D10*
X10195000Y13111000D02*
X10195000Y13111000D01*
D10*
X8700000Y10388000D02*
X8651000Y10549000D01*
D10*
X5643000Y13395000D02*
X5742000Y12401000D01*
D10*
X2766000Y13045000D02*
X2544000Y13116000D01*
D10*
X14120000Y11414000D02*
X14135000Y11596000D01*
D10*
X3494000Y11445000D02*
X3323000Y11134000D01*
D10*
X11731000Y11876000D02*
X12174000Y11824000D01*
D10*
X13858000Y12475000D02*
X13874000Y12132000D01*
D10*
X3739000Y11463000D02*
X3494000Y11445000D01*
D10*
X12508000Y13139000D02*
X12480000Y12512000D01*
D10*
X8177000Y13013000D02*
X8177000Y13528000D01*
D10*
X11581000Y10328000D02*
X11078000Y10464000D01*
D10*
X13269000Y10386000D02*
X13045000Y10362000D01*
D10*
X14581000Y11807000D02*
X14624000Y10706000D01*
D10*
X7883000Y14132000D02*
X8581000Y14172000D01*
D10*
X5783000Y13128000D02*
X5959000Y13638000D01*
D10*
X7823000Y13549000D02*
X7813000Y13793000D01*
D10*
X9448000Y10412000D02*
X9075000Y10362000D01*
D10*
X11581000Y10328000D02*
X11581000Y10328000D01*
D10*
X4106000Y11804000D02*
X4906000Y11800000D01*
D10*
X11705000Y12756000D02*
X11667000Y12369000D01*
D10*
X7813000Y13793000D02*
X7883000Y14132000D01*
D10*
X8651000Y11464000D02*
X8709000Y11785000D01*
D10*
X7157000Y11414000D02*
X6998000Y11456000D01*
D10*
X6667000Y12942000D02*
X6528000Y12871000D01*
D10*
X11581000Y11126000D02*
X11750000Y10908000D01*
D10*
X11078000Y10464000D02*
X10768000Y10747000D01*
D10*
X9358000Y13130000D02*
X9430000Y13531000D01*
D10*
X5710000Y10726000D02*
X5343000Y10396000D01*
D10*
X3769000Y13211000D02*
X3659000Y13176000D01*
D10*
X4982000Y10922000D02*
X5183000Y10892000D01*
D10*
X9075000Y10362000D02*
X8700000Y10388000D01*
D10*
X11667000Y12369000D02*
X11354000Y12371000D01*
D10*
X9084000Y13532000D02*
X8919000Y13532000D01*
D10*
X9267000Y13578000D02*
X9084000Y13532000D01*
D10*
X12454000Y12284000D02*
X12195000Y12288000D01*
D10*
X3104000Y12124000D02*
X2951000Y13042000D01*
D10*
X7462000Y10458000D02*
X7462000Y11113000D01*
D10*
X13334000Y10574000D02*
X13269000Y10386000D01*
D10*
X8709000Y11785000D02*
X9091000Y11839000D01*
D10*
X14562000Y10399000D02*
X14262000Y10366000D01*
D10*
X9451000Y11816000D02*
X9509000Y10827000D01*
D10*
X12684000Y12390000D02*
X12587000Y12793000D01*
D10*
X9287000Y14173000D02*
X9309000Y14054000D01*
D10*
X14624000Y10706000D02*
X14562000Y10399000D01*
D10*
X13322000Y13014000D02*
X13340000Y12930000D01*
D10*
X10768000Y10747000D02*
X10667000Y11069000D01*
D10*
X5759000Y11291000D02*
X5710000Y10726000D01*
D10*
X11750000Y10908000D02*
X12038000Y10988000D01*
D10*
X4177000Y10650000D02*
X4048000Y11408000D01*
D10*
X7162000Y10457000D02*
X6273000Y10340000D01*
D10*
X2606000Y11645000D02*
X2943000Y11833000D01*
D10*
X3008000Y10339000D02*
X3008000Y10339000D01*
D10*
X7227000Y11750000D02*
X7266000Y11551000D01*
D10*
X10156000Y13846000D02*
X10751000Y13691000D01*
D10*
X12195000Y12288000D02*
X11852000Y12315000D01*
D10*
X3774000Y12160000D02*
X3254000Y12048000D01*
D10*
X3996000Y13441000D02*
X3969000Y13274000D01*
D10*
X13586000Y13532000D02*
X14017000Y13325000D01*
D10*
X10518000Y11804000D02*
X10575000Y11161000D01*
D10*
X9091000Y11839000D02*
X9451000Y11816000D01*
D10*
X9745000Y12464000D02*
X9745000Y12464000D01*
D10*
X7511000Y11804000D02*
X7894000Y11839000D01*
D10*
X13373000Y13142000D02*
X13322000Y13014000D01*
D10*
X8000000Y13538000D02*
X7823000Y13549000D01*
D10*
X13484000Y12536000D02*
X13772000Y12581000D01*
D10*
X14135000Y11596000D02*
X14165000Y11809000D01*
D10*
X8300000Y10400000D02*
X7944000Y10367000D01*
D10*
X3254000Y12048000D02*
X3104000Y12124000D01*
D10*
X4906000Y11800000D02*
X4946000Y11367000D01*
D10*
X10147000Y12829000D02*
X10195000Y13111000D01*
D10*
X13340000Y12930000D02*
X13413000Y13039000D01*
D10*
X3957000Y11773000D02*
X3994000Y11613000D01*
D10*
X7037000Y13760000D02*
X7224000Y13455000D01*
D10*
X3899000Y13884000D02*
X3996000Y13441000D01*
D10*
X13772000Y12581000D02*
X13858000Y12475000D01*
D10*
X9440000Y12692000D02*
X9358000Y13130000D01*
D10*
X8919000Y12495000D02*
X8814000Y12474000D01*
D10*
X4914000Y13330000D02*
X4936000Y12840000D01*
D10*
X5500000Y11834000D02*
X5724000Y11799000D01*
D10*
X13547000Y12656000D02*
X13318000Y12576000D01*
D10*
X13045000Y10362000D02*
X12847000Y10418000D01*
D10*
X12660000Y11405000D02*
X12702000Y11102000D01*
D10*
X12044000Y11289000D02*
X11706000Y11326000D01*
D10*
X6137000Y12432000D02*
X5816000Y12792000D01*
D10*
X4048000Y11408000D02*
X4106000Y11804000D01*
D10*
X8200000Y12475000D02*
X8177000Y13013000D01*
D10*
X4946000Y11367000D02*
X4982000Y10922000D01*
D10*
X6058000Y11767000D02*
X6714000Y11879000D01*
D10*
X12695000Y13262000D02*
X13025000Y13523000D01*
D10*
X10667000Y11069000D02*
X10727000Y11377000D01*
D10*
X3994000Y11613000D02*
X3947000Y11465000D01*
D10*
X6273000Y10340000D02*
X5819000Y10542000D01*
D10*
X5201000Y12325000D02*
X5059000Y12335000D01*
D10*
X13997000Y10375000D02*
X13689000Y10556000D01*
D10*
X11852000Y12315000D02*
X11852000Y12315000D01*
D10*
X5809000Y10703000D02*
X5882000Y10843000D01*
D10*
X11852000Y12315000D02*
X11772000Y12438000D01*
D10*
X7944000Y10367000D02*
X7523000Y10408000D01*
D10*
X12519000Y10648000D02*
X12116000Y10394000D01*
D10*
X6164000Y11005000D02*
X5860000Y11378000D01*
D10*
X7380000Y10727000D02*
X7162000Y10457000D01*
D10*
X7224000Y13455000D02*
X7112000Y13109000D01*
D10*
X5724000Y11799000D02*
X5759000Y11291000D01*
D10*
X13318000Y12576000D02*
X13484000Y12536000D01*
D10*
X10118000Y10362000D02*
X9713000Y10415000D01*
D10*
X8351000Y11443000D02*
X8372000Y11178000D01*
D10*
X8919000Y13532000D02*
X8919000Y13014000D01*
D10*
X2951000Y13042000D02*
X2766000Y13045000D01*
D10*
X13413000Y13039000D02*
X13373000Y13142000D01*
D10*
X9657000Y10980000D02*
X9719000Y11802000D01*
D10*
X12808000Y11101000D02*
X12838000Y11758000D01*
D10*
X11354000Y12371000D02*
X11003000Y12412000D01*
D10*
X4849000Y13632000D02*
X4933000Y13687000D01*
D10*
X11790000Y13363000D02*
X11748000Y13254000D01*
D10*
X7894000Y11839000D02*
X8290000Y11778000D01*
D10*
X6528000Y13213000D02*
X6559000Y13332000D01*
D10*
X9713000Y10415000D02*
X9657000Y10980000D01*
D10*
X2544000Y13116000D02*
X2516000Y13647000D01*
D10*
X10195000Y13111000D02*
X10128000Y13439000D01*
D10*
X10568000Y10497000D02*
X10475000Y10383000D01*
D10*
X9509000Y10827000D02*
X9448000Y10412000D01*
D10*
X6097000Y10811000D02*
X6348000Y10838000D01*
D10*
X4753000Y10338000D02*
X4753000Y10338000D01*
D10*
X2516000Y13647000D02*
X3899000Y13884000D01*
D10*
X10751000Y13691000D02*
X10915000Y13164000D01*
D10*
X7020000Y11228000D02*
X7306000Y11040000D01*
D10*
X4829000Y13872000D02*
X4849000Y13632000D01*
D10*
X6559000Y13332000D02*
X6477000Y13375000D01*
D10*
X8511000Y11138000D02*
X8629000Y11191000D01*
D10*
X10529000Y12471000D02*
X9745000Y12464000D01*
D10*
X10727000Y11377000D02*
X11268000Y11819000D01*
D10*
X13874000Y12132000D02*
X13203000Y12117000D01*
D10*
X13203000Y12117000D02*
X12684000Y12390000D01*
D10*
X5959000Y13638000D02*
X6535000Y13826000D01*
D10*
X5508000Y13678000D02*
X5643000Y13395000D01*
D10*
X12478000Y11650000D02*
X12660000Y11405000D01*
D10*
X6137000Y12431000D02*
X6137000Y12432000D01*
D10*
X8177000Y13528000D02*
X8000000Y13538000D01*
D10*
X4280000Y12251000D02*
X4194000Y13102000D01*
D10*
X12480000Y12512000D02*
X12454000Y12284000D01*
D10*
X4965000Y12331000D02*
X4484000Y12251000D01*
D10*
X8629000Y11191000D02*
X8651000Y11464000D01*
D10*
X10128000Y13439000D02*
X10080000Y12872000D01*
D10*
X5816000Y12792000D02*
X5783000Y13128000D01*
D10*
X7306000Y11040000D02*
X7380000Y10727000D01*
D10*
X5860000Y11378000D02*
X6058000Y11767000D01*
D10*
X8814000Y12474000D02*
X8200000Y12475000D01*
D10*
X10575000Y11161000D02*
X10568000Y10497000D01*
D10*
X5343000Y10396000D02*
X4753000Y10338000D01*
D10*
X11003000Y12412000D02*
X11020000Y13050000D01*
D10*
X10824000Y12718000D02*
X10529000Y12471000D01*
D10*
X6348000Y10838000D02*
X6164000Y11005000D01*
D10*
X5882000Y10843000D02*
X6097000Y10811000D01*
D10*
X3323000Y11134000D02*
X3496000Y10819000D01*
D10*
X9309000Y14054000D02*
X9267000Y13578000D01*
D10*
X4789000Y14133000D02*
X4829000Y13872000D01*
D10*
X4194000Y13102000D02*
X4122000Y13993000D01*
D10*
X10915000Y13164000D02*
X10824000Y12718000D01*
D10*
X12847000Y10418000D02*
X12847000Y10418000D01*
D10*
X11803000Y12950000D02*
X11790000Y13363000D01*
D10*
X12038000Y10988000D02*
X12044000Y11289000D01*
D10*
X13078000Y11839000D02*
X13688000Y11627000D01*
D10*
X10080000Y12872000D02*
X10147000Y12829000D01*
D10*
X7078000Y12454000D02*
X6137000Y12431000D01*
D10*
X6477000Y13375000D02*
X6528000Y13213000D01*
D10*
X9745000Y12464000D02*
X9440000Y12692000D01*
D10*
X5819000Y10542000D02*
X5809000Y10703000D01*
D10*
X5279000Y11761000D02*
X5500000Y11834000D01*
D10*
X4122000Y13993000D02*
X4789000Y14133000D01*
D10*
X11706000Y11326000D02*
X11581000Y11126000D01*
D10*
X4753000Y10338000D02*
X4177000Y10650000D01*
D10*
X13203000Y12117000D02*
X13203000Y12117000D01*
D10*
X2492000Y10667000D02*
X2430000Y11324000D01*
D10*
X11772000Y12438000D02*
X11803000Y12950000D01*
D10*
X8372000Y11178000D02*
X8511000Y11138000D01*
D10*
X11847000Y13664000D02*
X12118000Y13700000D01*
D10*
X9430000Y13531000D02*
X9677000Y13766000D01*
D10*
X9677000Y13766000D02*
X10156000Y13846000D01*
D10*
X5742000Y12401000D02*
X5201000Y12325000D01*
D10*
X4936000Y12840000D02*
X4965000Y12331000D01*
G75*
M02*
