%FSLAX46Y46*%
%MOMM*%
%ADD10C,0.010000*%
%ADD11C,2.400000*%
G01*
G01*
%LPD*%
D10*
X6000000Y76300000D02*
X27500000Y76300000D01*
D10*
X27500000Y76300000D02*
X27500000Y61200000D01*
D10*
X27500000Y61200000D02*
X31500000Y61200000D01*
D10*
X31500000Y61200000D02*
X31500000Y76300000D01*
D10*
X31500000Y76300000D02*
X53000000Y76300000D01*
D10*
X53000000Y76300000D02*
X53000000Y69300000D01*
D10*
X53000000Y69300000D02*
X59000000Y69300000D01*
D10*
X59000000Y69300000D02*
X59000000Y0D01*
D10*
X59000000Y0D02*
X0Y0D01*
D10*
X0Y0D02*
X0Y69300000D01*
D10*
X0Y69300000D02*
X6000000Y69300000D01*
D10*
X6000000Y69300000D02*
X6000000Y76300000D01*
D11*
X54200000Y70500000D02*
X60200000Y70500000D01*
D11*
X30300000Y77500000D02*
X30300000Y62400000D01*
D11*
X54200000Y70500000D02*
X54200000Y77500000D01*
D11*
X4800000Y77500000D02*
X28700000Y77500000D01*
D11*
X-1200000Y70500000D02*
X4800000Y70500000D01*
D11*
X28700000Y77500000D02*
X28700000Y62400000D01*
D11*
X30300000Y77500000D02*
X54200000Y77500000D01*
D11*
X-1200000Y70500000D02*
X-1200000Y-1200000D01*
D11*
X28700000Y62400000D02*
X30300000Y62400000D01*
D11*
X60200000Y70500000D02*
X60200000Y-1200000D01*
D11*
X-1200000Y-1200000D02*
X60200000Y-1200000D01*
D11*
X4800000Y70500000D02*
X4800000Y77500000D01*
G75*
M02*
