%FSLAX46Y46*%
%MOMM*%
%ADD10C,0.300000*%
%ADD12C,0.600000*%
%ADD11C,0.800000*%
%AMPS15*
1,1,2.100000,0.000000,0.000000*
%
%ADD15PS15*%
%AMPS17*
1,1,1.600000,0.000000,0.000000*
%
%ADD17PS17*%
%AMPS19*
1,1,1.300000,0.000000,0.000000*
%
%ADD19PS19*%
%AMPS14*
1,1,2.200000,0.000000,0.000000*
%
%ADD14PS14*%
%AMPS13*
1,1,1.700000,0.000000,0.000000*
%
%ADD13PS13*%
%AMPS16*
1,1,1.700000,0.000000,0.000000*
%
%ADD16PS16*%
%AMPS18*
1,1,1.700000,0.000000,0.000000*
%
%ADD18PS18*%
%AMPS22*
1,1,1.200000,0.000000,0.000000*
%
%ADD22PS22*%
%AMPS23*
1,1,1.000000,0.000000,0.000000*
%
%ADD23PS23*%
%AMPS21*
1,1,0.700000,0.000000,0.000000*
%
%ADD21PS21*%
%AMPS20*
1,1,0.700000,0.000000,0.000000*
%
%ADD20PS20*%
G01*
%LPD*%
G36*
X58690000Y310000D02*
X58690000Y68990000D01*
X52690000Y68990000D01*
X52690000Y70333424D01*
X52621368Y70356097D01*
X52558973Y70271966D01*
X52472949Y70177051D01*
X52378034Y70091027D01*
X52275155Y70014726D01*
X52165298Y69948880D01*
X52049490Y69894108D01*
X51928897Y69850958D01*
X51804639Y69819833D01*
X51677936Y69801038D01*
X51550000Y69794753D01*
X51422064Y69801038D01*
X51295361Y69819833D01*
X51171103Y69850958D01*
X51050510Y69894108D01*
X50934702Y69948880D01*
X50824845Y70014726D01*
X50721966Y70091027D01*
X50627051Y70177051D01*
X50541027Y70271966D01*
X50464726Y70374845D01*
X50398880Y70484702D01*
X50344108Y70600510D01*
X50300958Y70721103D01*
X50269833Y70845361D01*
X50251038Y70972064D01*
X50244753Y71100000D01*
X50251038Y71227936D01*
X50269833Y71354639D01*
X50300958Y71478897D01*
X50344108Y71599490D01*
X50398880Y71715298D01*
X50464726Y71825155D01*
X50541027Y71928034D01*
X50627051Y72022949D01*
X50721966Y72108973D01*
X50824845Y72185274D01*
X50934702Y72251120D01*
X51050510Y72305892D01*
X51171103Y72349042D01*
X51295361Y72380167D01*
X51422064Y72398962D01*
X51550000Y72405247D01*
X51677936Y72398962D01*
X51804639Y72380167D01*
X51928897Y72349042D01*
X52049490Y72305892D01*
X52165298Y72251120D01*
X52275155Y72185274D01*
X52378034Y72108973D01*
X52472949Y72022949D01*
X52558973Y71928034D01*
X52621368Y71843903D01*
X52690000Y71866576D01*
X52690000Y75990000D01*
X31810000Y75990000D01*
X31810000Y60890000D01*
X27190000Y60890000D01*
X27190000Y75990000D01*
X6310000Y75990000D01*
X6310000Y71858184D01*
X6378632Y71835511D01*
X6444901Y71924865D01*
X6530591Y72019409D01*
X6625135Y72105099D01*
X6727626Y72181112D01*
X6837062Y72246705D01*
X6952426Y72301268D01*
X7072556Y72344252D01*
X7196338Y72375257D01*
X7322554Y72393980D01*
X7350000Y72395328D01*
X7350000Y69804672D01*
X7322554Y69806020D01*
X7196338Y69824743D01*
X7072556Y69855748D01*
X6952426Y69898732D01*
X6837062Y69953295D01*
X6727626Y70018888D01*
X6625135Y70094901D01*
X6530591Y70180591D01*
X6444901Y70275135D01*
X6378632Y70364489D01*
X6310000Y70341816D01*
X6310000Y68990000D01*
X310000Y68990000D01*
X310000Y310000D01*
X58690000Y310000D01*
D02*
G37*
%LPC*%
G36*
X23750000Y69794753D02*
X23622064Y69801038D01*
X23495361Y69819833D01*
X23371103Y69850958D01*
X23250510Y69894108D01*
X23134702Y69948880D01*
X23024845Y70014726D01*
X22921966Y70091027D01*
X22827051Y70177051D01*
X22741027Y70271966D01*
X22664726Y70374845D01*
X22598880Y70484702D01*
X22544108Y70600510D01*
X22500958Y70721103D01*
X22469833Y70845361D01*
X22451038Y70972064D01*
X22444753Y71100000D01*
X22451038Y71227936D01*
X22469833Y71354639D01*
X22500958Y71478897D01*
X22544108Y71599490D01*
X22598880Y71715298D01*
X22664726Y71825155D01*
X22741027Y71928034D01*
X22827051Y72022949D01*
X22921966Y72108973D01*
X23024845Y72185274D01*
X23134702Y72251120D01*
X23250510Y72305892D01*
X23371103Y72349042D01*
X23495361Y72380167D01*
X23622064Y72398962D01*
X23750000Y72405247D01*
X23877936Y72398962D01*
X24004639Y72380167D01*
X24128897Y72349042D01*
X24249490Y72305892D01*
X24365298Y72251120D01*
X24475155Y72185274D01*
X24578034Y72108973D01*
X24672949Y72022949D01*
X24758973Y71928034D01*
X24835274Y71825155D01*
X24901120Y71715298D01*
X24955892Y71599490D01*
X24999042Y71478897D01*
X25030167Y71354639D01*
X25048962Y71227936D01*
X25055247Y71100000D01*
X25048962Y70972064D01*
X25030167Y70845361D01*
X24999042Y70721103D01*
X24955892Y70600510D01*
X24901120Y70484702D01*
X24835274Y70374845D01*
X24758973Y70271966D01*
X24672949Y70177051D01*
X24578034Y70091027D01*
X24475155Y70014726D01*
X24365298Y69948880D01*
X24249490Y69894108D01*
X24128897Y69850958D01*
X24004639Y69819833D01*
X23877936Y69801038D01*
X23750000Y69794753D01*
D02*
G37*
%LPC*%
G36*
X8745328Y71200000D02*
X7550000Y71200000D01*
X7550000Y72395328D01*
X7577446Y72393980D01*
X7703662Y72375257D01*
X7827444Y72344252D01*
X7947574Y72301268D01*
X8062938Y72246705D01*
X8172374Y72181112D01*
X8274865Y72105099D01*
X8369409Y72019409D01*
X8455099Y71924865D01*
X8531112Y71822374D01*
X8596705Y71712938D01*
X8651268Y71597574D01*
X8694252Y71477444D01*
X8725257Y71353662D01*
X8743980Y71227446D01*
X8745328Y71200000D01*
D02*
G37*
%LPC*%
G36*
X35150000Y71200000D02*
X33954672Y71200000D01*
X33956020Y71227446D01*
X33974743Y71353662D01*
X34005748Y71477444D01*
X34048732Y71597574D01*
X34103295Y71712938D01*
X34168888Y71822374D01*
X34244901Y71924865D01*
X34330591Y72019409D01*
X34425135Y72105099D01*
X34527626Y72181112D01*
X34637062Y72246705D01*
X34752426Y72301268D01*
X34872556Y72344252D01*
X34996338Y72375257D01*
X35122554Y72393980D01*
X35150000Y72395328D01*
X35150000Y71200000D01*
D02*
G37*
%LPC*%
G36*
X36545328Y71200000D02*
X35350000Y71200000D01*
X35350000Y72395328D01*
X35377446Y72393980D01*
X35503662Y72375257D01*
X35627444Y72344252D01*
X35747574Y72301268D01*
X35862938Y72246705D01*
X35972374Y72181112D01*
X36074865Y72105099D01*
X36169409Y72019409D01*
X36255099Y71924865D01*
X36331112Y71822374D01*
X36396705Y71712938D01*
X36451268Y71597574D01*
X36494252Y71477444D01*
X36525257Y71353662D01*
X36543980Y71227446D01*
X36545328Y71200000D01*
D02*
G37*
%LPC*%
G36*
X35350000Y69804672D02*
X35350000Y71000000D01*
X36545328Y71000000D01*
X36543980Y70972554D01*
X36525257Y70846338D01*
X36494252Y70722556D01*
X36451268Y70602426D01*
X36396705Y70487062D01*
X36331112Y70377626D01*
X36255099Y70275135D01*
X36169409Y70180591D01*
X36074865Y70094901D01*
X35972374Y70018888D01*
X35862938Y69953295D01*
X35747574Y69898732D01*
X35627444Y69855748D01*
X35503662Y69824743D01*
X35377446Y69806020D01*
X35350000Y69804672D01*
D02*
G37*
%LPC*%
G36*
X35150000Y69804672D02*
X35122554Y69806020D01*
X34996338Y69824743D01*
X34872556Y69855748D01*
X34752426Y69898732D01*
X34637062Y69953295D01*
X34527626Y70018888D01*
X34425135Y70094901D01*
X34330591Y70180591D01*
X34244901Y70275135D01*
X34168888Y70377626D01*
X34103295Y70487062D01*
X34048732Y70602426D01*
X34005748Y70722556D01*
X33974743Y70846338D01*
X33956020Y70972554D01*
X33954672Y71000000D01*
X35150000Y71000000D01*
X35150000Y69804672D01*
D02*
G37*
%LPC*%
G36*
X7550000Y69804672D02*
X7550000Y71000000D01*
X8745328Y71000000D01*
X8743980Y70972554D01*
X8725257Y70846338D01*
X8694252Y70722556D01*
X8651268Y70602426D01*
X8596705Y70487062D01*
X8531112Y70377626D01*
X8455099Y70275135D01*
X8369409Y70180591D01*
X8274865Y70094901D01*
X8172374Y70018888D01*
X8062938Y69953295D01*
X7947574Y69898732D01*
X7827444Y69855748D01*
X7703662Y69824743D01*
X7577446Y69806020D01*
X7550000Y69804672D01*
D02*
G37*
%LPC*%
G36*
X7450000Y63544753D02*
X7322064Y63551038D01*
X7195361Y63569833D01*
X7071103Y63600958D01*
X6950510Y63644108D01*
X6834702Y63698880D01*
X6724845Y63764726D01*
X6621966Y63841027D01*
X6527051Y63927051D01*
X6441027Y64021966D01*
X6364726Y64124845D01*
X6298880Y64234702D01*
X6244108Y64350510D01*
X6200958Y64471103D01*
X6169833Y64595361D01*
X6151038Y64722064D01*
X6144753Y64850000D01*
X6151038Y64977936D01*
X6169833Y65104639D01*
X6200958Y65228897D01*
X6244108Y65349490D01*
X6298880Y65465298D01*
X6364726Y65575155D01*
X6441027Y65678034D01*
X6527051Y65772949D01*
X6621966Y65858973D01*
X6724845Y65935274D01*
X6834702Y66001120D01*
X6950510Y66055892D01*
X7071103Y66099042D01*
X7195361Y66130167D01*
X7322064Y66148962D01*
X7450000Y66155247D01*
X7577936Y66148962D01*
X7704639Y66130167D01*
X7828897Y66099042D01*
X7949490Y66055892D01*
X8065298Y66001120D01*
X8175155Y65935274D01*
X8278034Y65858973D01*
X8372949Y65772949D01*
X8458973Y65678034D01*
X8535274Y65575155D01*
X8601120Y65465298D01*
X8655892Y65349490D01*
X8699042Y65228897D01*
X8730167Y65104639D01*
X8748962Y64977936D01*
X8755247Y64850000D01*
X8748962Y64722064D01*
X8730167Y64595361D01*
X8699042Y64471103D01*
X8655892Y64350510D01*
X8601120Y64234702D01*
X8535274Y64124845D01*
X8458973Y64021966D01*
X8372949Y63927051D01*
X8278034Y63841027D01*
X8175155Y63764726D01*
X8065298Y63698880D01*
X7949490Y63644108D01*
X7828897Y63600958D01*
X7704639Y63569833D01*
X7577936Y63551038D01*
X7450000Y63544753D01*
D02*
G37*
%LPC*%
G36*
X23750000Y63544753D02*
X23622064Y63551038D01*
X23495361Y63569833D01*
X23371103Y63600958D01*
X23250510Y63644108D01*
X23134702Y63698880D01*
X23024845Y63764726D01*
X22921966Y63841027D01*
X22827051Y63927051D01*
X22741027Y64021966D01*
X22664726Y64124845D01*
X22598880Y64234702D01*
X22544108Y64350510D01*
X22500958Y64471103D01*
X22469833Y64595361D01*
X22451038Y64722064D01*
X22444753Y64850000D01*
X22451038Y64977936D01*
X22469833Y65104639D01*
X22500958Y65228897D01*
X22544108Y65349490D01*
X22598880Y65465298D01*
X22664726Y65575155D01*
X22741027Y65678034D01*
X22827051Y65772949D01*
X22921966Y65858973D01*
X23024845Y65935274D01*
X23134702Y66001120D01*
X23250510Y66055892D01*
X23371103Y66099042D01*
X23495361Y66130167D01*
X23622064Y66148962D01*
X23750000Y66155247D01*
X23877936Y66148962D01*
X24004639Y66130167D01*
X24128897Y66099042D01*
X24249490Y66055892D01*
X24365298Y66001120D01*
X24475155Y65935274D01*
X24578034Y65858973D01*
X24672949Y65772949D01*
X24758973Y65678034D01*
X24835274Y65575155D01*
X24901120Y65465298D01*
X24955892Y65349490D01*
X24999042Y65228897D01*
X25030167Y65104639D01*
X25048962Y64977936D01*
X25055247Y64850000D01*
X25048962Y64722064D01*
X25030167Y64595361D01*
X24999042Y64471103D01*
X24955892Y64350510D01*
X24901120Y64234702D01*
X24835274Y64124845D01*
X24758973Y64021966D01*
X24672949Y63927051D01*
X24578034Y63841027D01*
X24475155Y63764726D01*
X24365298Y63698880D01*
X24249490Y63644108D01*
X24128897Y63600958D01*
X24004639Y63569833D01*
X23877936Y63551038D01*
X23750000Y63544753D01*
D02*
G37*
%LPC*%
G36*
X35250000Y63544753D02*
X35122064Y63551038D01*
X34995361Y63569833D01*
X34871103Y63600958D01*
X34750510Y63644108D01*
X34634702Y63698880D01*
X34524845Y63764726D01*
X34421966Y63841027D01*
X34327051Y63927051D01*
X34241027Y64021966D01*
X34164726Y64124845D01*
X34098880Y64234702D01*
X34044108Y64350510D01*
X34000958Y64471103D01*
X33969833Y64595361D01*
X33951038Y64722064D01*
X33944753Y64850000D01*
X33951038Y64977936D01*
X33969833Y65104639D01*
X34000958Y65228897D01*
X34044108Y65349490D01*
X34098880Y65465298D01*
X34164726Y65575155D01*
X34241027Y65678034D01*
X34327051Y65772949D01*
X34421966Y65858973D01*
X34524845Y65935274D01*
X34634702Y66001120D01*
X34750510Y66055892D01*
X34871103Y66099042D01*
X34995361Y66130167D01*
X35122064Y66148962D01*
X35250000Y66155247D01*
X35377936Y66148962D01*
X35504639Y66130167D01*
X35628897Y66099042D01*
X35749490Y66055892D01*
X35865298Y66001120D01*
X35975155Y65935274D01*
X36078034Y65858973D01*
X36172949Y65772949D01*
X36258973Y65678034D01*
X36335274Y65575155D01*
X36401120Y65465298D01*
X36455892Y65349490D01*
X36499042Y65228897D01*
X36530167Y65104639D01*
X36548962Y64977936D01*
X36555247Y64850000D01*
X36548962Y64722064D01*
X36530167Y64595361D01*
X36499042Y64471103D01*
X36455892Y64350510D01*
X36401120Y64234702D01*
X36335274Y64124845D01*
X36258973Y64021966D01*
X36172949Y63927051D01*
X36078034Y63841027D01*
X35975155Y63764726D01*
X35865298Y63698880D01*
X35749490Y63644108D01*
X35628897Y63600958D01*
X35504639Y63569833D01*
X35377936Y63551038D01*
X35250000Y63544753D01*
D02*
G37*
%LPC*%
G36*
X51550000Y63544753D02*
X51422064Y63551038D01*
X51295361Y63569833D01*
X51171103Y63600958D01*
X51050510Y63644108D01*
X50934702Y63698880D01*
X50824845Y63764726D01*
X50721966Y63841027D01*
X50627051Y63927051D01*
X50541027Y64021966D01*
X50464726Y64124845D01*
X50398880Y64234702D01*
X50344108Y64350510D01*
X50300958Y64471103D01*
X50269833Y64595361D01*
X50251038Y64722064D01*
X50244753Y64850000D01*
X50251038Y64977936D01*
X50269833Y65104639D01*
X50300958Y65228897D01*
X50344108Y65349490D01*
X50398880Y65465298D01*
X50464726Y65575155D01*
X50541027Y65678034D01*
X50627051Y65772949D01*
X50721966Y65858973D01*
X50824845Y65935274D01*
X50934702Y66001120D01*
X51050510Y66055892D01*
X51171103Y66099042D01*
X51295361Y66130167D01*
X51422064Y66148962D01*
X51550000Y66155247D01*
X51677936Y66148962D01*
X51804639Y66130167D01*
X51928897Y66099042D01*
X52049490Y66055892D01*
X52165298Y66001120D01*
X52275155Y65935274D01*
X52378034Y65858973D01*
X52472949Y65772949D01*
X52558973Y65678034D01*
X52635274Y65575155D01*
X52701120Y65465298D01*
X52755892Y65349490D01*
X52799042Y65228897D01*
X52830167Y65104639D01*
X52848962Y64977936D01*
X52855247Y64850000D01*
X52848962Y64722064D01*
X52830167Y64595361D01*
X52799042Y64471103D01*
X52755892Y64350510D01*
X52701120Y64234702D01*
X52635274Y64124845D01*
X52558973Y64021966D01*
X52472949Y63927051D01*
X52378034Y63841027D01*
X52275155Y63764726D01*
X52165298Y63698880D01*
X52049490Y63644108D01*
X51928897Y63600958D01*
X51804639Y63569833D01*
X51677936Y63551038D01*
X51550000Y63544753D01*
D02*
G37*
%LPC*%
G36*
X13600000Y41544753D02*
X13501467Y41549595D01*
X13403890Y41564068D01*
X13308188Y41588040D01*
X13215316Y41621271D01*
X13126121Y41663456D01*
X13041515Y41714167D01*
X12962284Y41772930D01*
X12889183Y41839183D01*
X12822930Y41912284D01*
X12764167Y41991515D01*
X12713456Y42076121D01*
X12671271Y42165316D01*
X12638040Y42258188D01*
X12614068Y42353890D01*
X12599595Y42451467D01*
X12594753Y42550000D01*
X12599595Y42648533D01*
X12614068Y42746110D01*
X12638040Y42841812D01*
X12671271Y42934684D01*
X12713456Y43023879D01*
X12764167Y43108485D01*
X12822930Y43187716D01*
X12889183Y43260817D01*
X12962284Y43327070D01*
X13041515Y43385833D01*
X13126129Y43436548D01*
X13245000Y43492770D01*
X13245000Y47252955D01*
X7206222Y53291733D01*
X7198370Y53298157D01*
X7154003Y53352222D01*
X7121106Y53413770D01*
X7100847Y53480552D01*
X7095000Y53539927D01*
X7095000Y57392408D01*
X6950510Y57444108D01*
X6834702Y57498880D01*
X6724845Y57564726D01*
X6621966Y57641027D01*
X6527051Y57727051D01*
X6441027Y57821966D01*
X6364726Y57924845D01*
X6298880Y58034702D01*
X6244108Y58150510D01*
X6200958Y58271103D01*
X6169833Y58395361D01*
X6151038Y58522064D01*
X6144753Y58650000D01*
X6151038Y58777936D01*
X6169833Y58904639D01*
X6200958Y59028897D01*
X6244108Y59149490D01*
X6298880Y59265298D01*
X6364726Y59375155D01*
X6441027Y59478034D01*
X6527051Y59572949D01*
X6621966Y59658973D01*
X6724845Y59735274D01*
X6834702Y59801120D01*
X6950510Y59855892D01*
X7071103Y59899042D01*
X7195361Y59930167D01*
X7322064Y59948962D01*
X7450000Y59955247D01*
X7577936Y59948962D01*
X7704639Y59930167D01*
X7828897Y59899042D01*
X7949490Y59855892D01*
X8065298Y59801120D01*
X8175155Y59735274D01*
X8278034Y59658973D01*
X8372949Y59572949D01*
X8458973Y59478034D01*
X8535274Y59375155D01*
X8601120Y59265298D01*
X8655892Y59149490D01*
X8699042Y59028897D01*
X8730167Y58904639D01*
X8748962Y58777936D01*
X8755247Y58650000D01*
X8748962Y58522064D01*
X8730167Y58395361D01*
X8699042Y58271103D01*
X8655892Y58150510D01*
X8601120Y58034702D01*
X8535274Y57924845D01*
X8458973Y57821966D01*
X8372949Y57727051D01*
X8278034Y57641027D01*
X8175155Y57564726D01*
X8065298Y57498880D01*
X7949490Y57444108D01*
X7805000Y57392408D01*
X7805000Y53697045D01*
X13858143Y47643903D01*
X13895996Y47597777D01*
X13928893Y47536229D01*
X13949150Y47469452D01*
X13955000Y47410075D01*
X13955000Y43492770D01*
X14073871Y43436548D01*
X14158485Y43385833D01*
X14237716Y43327070D01*
X14310817Y43260817D01*
X14377070Y43187716D01*
X14435833Y43108485D01*
X14486544Y43023879D01*
X14528729Y42934684D01*
X14561960Y42841812D01*
X14585932Y42746110D01*
X14600405Y42648533D01*
X14605247Y42550000D01*
X14600405Y42451467D01*
X14585932Y42353890D01*
X14561960Y42258188D01*
X14528729Y42165316D01*
X14486544Y42076121D01*
X14435833Y41991515D01*
X14377070Y41912284D01*
X14310817Y41839183D01*
X14237716Y41772930D01*
X14158485Y41714167D01*
X14073879Y41663456D01*
X13984684Y41621271D01*
X13891812Y41588040D01*
X13796110Y41564068D01*
X13698533Y41549595D01*
X13600000Y41544753D01*
D02*
G37*
%LPC*%
G36*
X23750000Y57344753D02*
X23622064Y57351038D01*
X23495361Y57369833D01*
X23371103Y57400958D01*
X23250510Y57444108D01*
X23134702Y57498880D01*
X23024845Y57564726D01*
X22921966Y57641027D01*
X22827051Y57727051D01*
X22741027Y57821966D01*
X22664726Y57924845D01*
X22598880Y58034702D01*
X22544108Y58150510D01*
X22500958Y58271103D01*
X22469833Y58395361D01*
X22451038Y58522064D01*
X22444753Y58650000D01*
X22451038Y58777936D01*
X22469833Y58904639D01*
X22500958Y59028897D01*
X22544108Y59149490D01*
X22598880Y59265298D01*
X22664726Y59375155D01*
X22741027Y59478034D01*
X22827051Y59572949D01*
X22921966Y59658973D01*
X23024845Y59735274D01*
X23134702Y59801120D01*
X23250510Y59855892D01*
X23371103Y59899042D01*
X23495361Y59930167D01*
X23622064Y59948962D01*
X23750000Y59955247D01*
X23877936Y59948962D01*
X24004639Y59930167D01*
X24128897Y59899042D01*
X24249490Y59855892D01*
X24365298Y59801120D01*
X24475155Y59735274D01*
X24578034Y59658973D01*
X24672949Y59572949D01*
X24758973Y59478034D01*
X24835274Y59375155D01*
X24901120Y59265298D01*
X24955892Y59149490D01*
X24999042Y59028897D01*
X25030167Y58904639D01*
X25048962Y58777936D01*
X25055247Y58650000D01*
X25048962Y58522064D01*
X25030167Y58395361D01*
X24999042Y58271103D01*
X24955892Y58150510D01*
X24901120Y58034702D01*
X24835274Y57924845D01*
X24758973Y57821966D01*
X24672949Y57727051D01*
X24578034Y57641027D01*
X24475155Y57564726D01*
X24365298Y57498880D01*
X24249490Y57444108D01*
X24128897Y57400958D01*
X24004639Y57369833D01*
X23877936Y57351038D01*
X23750000Y57344753D01*
D02*
G37*
%LPC*%
G36*
X33140000Y53834753D02*
X33085574Y53837427D01*
X33031679Y53845423D01*
X32978820Y53858662D01*
X32927521Y53877018D01*
X32878251Y53900320D01*
X32831522Y53928328D01*
X32787761Y53960784D01*
X32747381Y53997381D01*
X32710784Y54037761D01*
X32678328Y54081522D01*
X32650320Y54128251D01*
X32627018Y54177521D01*
X32608662Y54228820D01*
X32595423Y54281679D01*
X32587427Y54335574D01*
X32584753Y54390000D01*
X32587427Y54444426D01*
X32595423Y54498321D01*
X32608662Y54551180D01*
X32627018Y54602479D01*
X32650320Y54651749D01*
X32678328Y54698478D01*
X32710784Y54742239D01*
X32747381Y54782619D01*
X32787761Y54819216D01*
X32831522Y54851672D01*
X32878251Y54879680D01*
X32927521Y54902982D01*
X32978820Y54921338D01*
X33031679Y54934577D01*
X33085574Y54942573D01*
X33139999Y54945247D01*
X33190710Y54942755D01*
X34865000Y56617045D01*
X34865000Y57403142D01*
X34750510Y57444108D01*
X34634702Y57498880D01*
X34524845Y57564726D01*
X34421966Y57641027D01*
X34327051Y57727051D01*
X34241027Y57821966D01*
X34164726Y57924845D01*
X34098880Y58034702D01*
X34044108Y58150510D01*
X34000958Y58271103D01*
X33969833Y58395361D01*
X33951038Y58522064D01*
X33944753Y58650000D01*
X33951038Y58777936D01*
X33969833Y58904639D01*
X34000958Y59028897D01*
X34044108Y59149490D01*
X34098880Y59265298D01*
X34164726Y59375155D01*
X34241027Y59478034D01*
X34327051Y59572949D01*
X34421966Y59658973D01*
X34524845Y59735274D01*
X34634702Y59801120D01*
X34750510Y59855892D01*
X34871103Y59899042D01*
X34995361Y59930167D01*
X35122064Y59948962D01*
X35250000Y59955247D01*
X35377936Y59948962D01*
X35504639Y59930167D01*
X35628897Y59899042D01*
X35749490Y59855892D01*
X35865298Y59801120D01*
X35975155Y59735274D01*
X36078034Y59658973D01*
X36172949Y59572949D01*
X36258973Y59478034D01*
X36335274Y59375155D01*
X36401120Y59265298D01*
X36455892Y59149490D01*
X36499042Y59028897D01*
X36530167Y58904639D01*
X36548962Y58777936D01*
X36555247Y58650000D01*
X36548962Y58522064D01*
X36530167Y58395361D01*
X36499042Y58271103D01*
X36455892Y58150510D01*
X36401120Y58034702D01*
X36335274Y57924845D01*
X36258973Y57821966D01*
X36172949Y57727051D01*
X36078034Y57641027D01*
X35975155Y57564726D01*
X35865298Y57498880D01*
X35749490Y57444108D01*
X35628895Y57400957D01*
X35575000Y57387458D01*
X35575000Y56459925D01*
X35569150Y56400547D01*
X35548893Y56333771D01*
X35515996Y56272222D01*
X35472220Y56218879D01*
X35464441Y56212396D01*
X33692755Y54440710D01*
X33695247Y54389999D01*
X33692573Y54335574D01*
X33684577Y54281679D01*
X33671338Y54228820D01*
X33652982Y54177521D01*
X33629680Y54128251D01*
X33601672Y54081522D01*
X33569216Y54037761D01*
X33532619Y53997381D01*
X33492239Y53960784D01*
X33448478Y53928328D01*
X33401749Y53900320D01*
X33352479Y53877018D01*
X33301180Y53858662D01*
X33248321Y53845423D01*
X33194426Y53837427D01*
X33140000Y53834753D01*
D02*
G37*
%LPC*%
G36*
X51550000Y57344753D02*
X51422064Y57351038D01*
X51295361Y57369833D01*
X51171103Y57400958D01*
X51050510Y57444108D01*
X50934702Y57498880D01*
X50824845Y57564726D01*
X50721966Y57641027D01*
X50627051Y57727051D01*
X50541027Y57821966D01*
X50464726Y57924845D01*
X50398880Y58034702D01*
X50344108Y58150510D01*
X50300958Y58271103D01*
X50269833Y58395361D01*
X50251038Y58522064D01*
X50244753Y58650000D01*
X50251038Y58777936D01*
X50269833Y58904639D01*
X50300958Y59028897D01*
X50344108Y59149490D01*
X50398880Y59265298D01*
X50464726Y59375155D01*
X50541027Y59478034D01*
X50627051Y59572949D01*
X50721966Y59658973D01*
X50824845Y59735274D01*
X50934702Y59801120D01*
X51050510Y59855892D01*
X51171103Y59899042D01*
X51295361Y59930167D01*
X51422064Y59948962D01*
X51550000Y59955247D01*
X51677936Y59948962D01*
X51804639Y59930167D01*
X51928897Y59899042D01*
X52049490Y59855892D01*
X52165298Y59801120D01*
X52275155Y59735274D01*
X52378034Y59658973D01*
X52472949Y59572949D01*
X52558973Y59478034D01*
X52635274Y59375155D01*
X52701120Y59265298D01*
X52755892Y59149490D01*
X52799042Y59028897D01*
X52830167Y58904639D01*
X52848962Y58777936D01*
X52855247Y58650000D01*
X52848962Y58522064D01*
X52830167Y58395361D01*
X52799042Y58271103D01*
X52755892Y58150510D01*
X52701120Y58034702D01*
X52635274Y57924845D01*
X52558973Y57821966D01*
X52472949Y57727051D01*
X52378034Y57641027D01*
X52275155Y57564726D01*
X52165298Y57498880D01*
X52049490Y57444108D01*
X51928897Y57400958D01*
X51804639Y57369833D01*
X51677936Y57351038D01*
X51550000Y57344753D01*
D02*
G37*
%LPC*%
G36*
X30750000Y56744753D02*
X30646568Y56749834D01*
X30544133Y56765029D01*
X30443671Y56790194D01*
X30346181Y56825077D01*
X30252559Y56869355D01*
X30163733Y56922596D01*
X30080563Y56984280D01*
X30003828Y57053828D01*
X29934280Y57130563D01*
X29872596Y57213733D01*
X29819355Y57302559D01*
X29775077Y57396181D01*
X29740194Y57493671D01*
X29715029Y57594133D01*
X29699834Y57696568D01*
X29694753Y57800000D01*
X29699834Y57903432D01*
X29715029Y58005867D01*
X29740194Y58106329D01*
X29775077Y58203819D01*
X29819355Y58297441D01*
X29872596Y58386267D01*
X29934280Y58469437D01*
X30003828Y58546172D01*
X30080563Y58615720D01*
X30163733Y58677404D01*
X30252559Y58730645D01*
X30346181Y58774923D01*
X30443671Y58809806D01*
X30544133Y58834971D01*
X30646568Y58850166D01*
X30750000Y58855247D01*
X30853432Y58850166D01*
X30955867Y58834971D01*
X31056329Y58809806D01*
X31153819Y58774923D01*
X31247441Y58730645D01*
X31336267Y58677404D01*
X31419437Y58615720D01*
X31496172Y58546172D01*
X31565720Y58469437D01*
X31627404Y58386267D01*
X31680645Y58297441D01*
X31724923Y58203819D01*
X31759806Y58106329D01*
X31784971Y58005867D01*
X31800166Y57903432D01*
X31805247Y57800000D01*
X31800166Y57696568D01*
X31784971Y57594133D01*
X31759806Y57493671D01*
X31724923Y57396181D01*
X31680645Y57302559D01*
X31627404Y57213733D01*
X31565720Y57130563D01*
X31496172Y57053828D01*
X31419437Y56984280D01*
X31336267Y56922596D01*
X31247441Y56869355D01*
X31153819Y56825077D01*
X31056329Y56790194D01*
X30955867Y56765029D01*
X30853432Y56749834D01*
X30750000Y56744753D01*
D02*
G37*
%LPC*%
G36*
X28150000Y57900000D02*
X27204672Y57900000D01*
X27204816Y57902942D01*
X27219939Y58004890D01*
X27244983Y58104873D01*
X27279703Y58201907D01*
X27323772Y58295085D01*
X27376755Y58383482D01*
X27438150Y58466261D01*
X27507368Y58542632D01*
X27583739Y58611850D01*
X27666518Y58673245D01*
X27754915Y58726228D01*
X27848093Y58770297D01*
X27945127Y58805017D01*
X28045110Y58830061D01*
X28147058Y58845184D01*
X28150000Y58845328D01*
X28150000Y57900000D01*
D02*
G37*
%LPC*%
G36*
X29295328Y57900000D02*
X28350000Y57900000D01*
X28350000Y58845328D01*
X28352942Y58845184D01*
X28454890Y58830061D01*
X28554873Y58805017D01*
X28651907Y58770297D01*
X28745085Y58726228D01*
X28833482Y58673245D01*
X28916261Y58611850D01*
X28992632Y58542632D01*
X29061850Y58466261D01*
X29123245Y58383482D01*
X29176228Y58295085D01*
X29220297Y58201907D01*
X29255017Y58104873D01*
X29280061Y58004890D01*
X29295184Y57902942D01*
X29295328Y57900000D01*
D02*
G37*
%LPC*%
G36*
X28350000Y56754672D02*
X28350000Y57700000D01*
X29295328Y57700000D01*
X29295184Y57697058D01*
X29280061Y57595110D01*
X29255017Y57495127D01*
X29220297Y57398093D01*
X29176228Y57304915D01*
X29123245Y57216518D01*
X29061850Y57133739D01*
X28992632Y57057368D01*
X28916261Y56988150D01*
X28833482Y56926755D01*
X28745085Y56873772D01*
X28651907Y56829703D01*
X28554873Y56794983D01*
X28454890Y56769939D01*
X28352942Y56754816D01*
X28350000Y56754672D01*
D02*
G37*
%LPC*%
G36*
X28150000Y56754672D02*
X28147058Y56754816D01*
X28045110Y56769939D01*
X27945127Y56794983D01*
X27848093Y56829703D01*
X27754915Y56873772D01*
X27666518Y56926755D01*
X27583739Y56988150D01*
X27507368Y57057368D01*
X27438150Y57133739D01*
X27376755Y57216518D01*
X27323772Y57304915D01*
X27279703Y57398093D01*
X27244983Y57495127D01*
X27219939Y57595110D01*
X27204816Y57697058D01*
X27204672Y57700000D01*
X28150000Y57700000D01*
X28150000Y56754672D01*
D02*
G37*
%LPC*%
G36*
X41910000Y52674753D02*
X41855574Y52677427D01*
X41801679Y52685423D01*
X41748820Y52698662D01*
X41697521Y52717018D01*
X41648251Y52740320D01*
X41601522Y52768328D01*
X41557761Y52800784D01*
X41517381Y52837381D01*
X41483286Y52875000D01*
X31746714Y52875000D01*
X31712619Y52837381D01*
X31672239Y52800784D01*
X31628478Y52768328D01*
X31581749Y52740320D01*
X31532479Y52717018D01*
X31481180Y52698662D01*
X31428321Y52685423D01*
X31374426Y52677427D01*
X31320000Y52674753D01*
X31265574Y52677427D01*
X31211679Y52685423D01*
X31158820Y52698662D01*
X31107521Y52717018D01*
X31058251Y52740320D01*
X31011522Y52768328D01*
X30967761Y52800784D01*
X30927381Y52837381D01*
X30890784Y52877761D01*
X30858328Y52921522D01*
X30830320Y52968251D01*
X30807018Y53017521D01*
X30788662Y53068820D01*
X30775423Y53121679D01*
X30767427Y53175574D01*
X30764753Y53230000D01*
X30767427Y53284426D01*
X30775423Y53338321D01*
X30788662Y53391180D01*
X30807018Y53442479D01*
X30830320Y53491749D01*
X30858328Y53538478D01*
X30890784Y53582239D01*
X30927381Y53622619D01*
X30967761Y53659216D01*
X31011522Y53691672D01*
X31058251Y53719680D01*
X31107521Y53742982D01*
X31158820Y53761338D01*
X31211679Y53774577D01*
X31265574Y53782573D01*
X31320000Y53785247D01*
X31374426Y53782573D01*
X31428321Y53774577D01*
X31481180Y53761338D01*
X31532479Y53742982D01*
X31581749Y53719680D01*
X31628478Y53691672D01*
X31672239Y53659216D01*
X31712619Y53622619D01*
X31746714Y53585000D01*
X41483286Y53585000D01*
X41517381Y53622619D01*
X41557761Y53659216D01*
X41601522Y53691672D01*
X41648251Y53719680D01*
X41697521Y53742982D01*
X41748820Y53761338D01*
X41801679Y53774577D01*
X41855574Y53782573D01*
X41910000Y53785247D01*
X41964426Y53782573D01*
X42018321Y53774577D01*
X42071180Y53761338D01*
X42122479Y53742982D01*
X42171749Y53719680D01*
X42218478Y53691672D01*
X42262239Y53659216D01*
X42302619Y53622619D01*
X42339216Y53582239D01*
X42371672Y53538478D01*
X42399680Y53491749D01*
X42422982Y53442479D01*
X42441338Y53391180D01*
X42454577Y53338321D01*
X42462573Y53284426D01*
X42465247Y53230000D01*
X42462573Y53175574D01*
X42454577Y53121679D01*
X42441338Y53068820D01*
X42422982Y53017521D01*
X42399680Y52968251D01*
X42371672Y52921522D01*
X42339216Y52877761D01*
X42302619Y52837381D01*
X42262239Y52800784D01*
X42218478Y52768328D01*
X42171749Y52740320D01*
X42122479Y52717018D01*
X42071180Y52698662D01*
X42018321Y52685423D01*
X41964426Y52677427D01*
X41910000Y52674753D01*
D02*
G37*
%LPC*%
G36*
X6000000Y45344753D02*
X5876963Y45350799D01*
X5755118Y45368872D01*
X5635618Y45398805D01*
X5519644Y45440302D01*
X5408272Y45492976D01*
X5302623Y45556299D01*
X5203686Y45629677D01*
X5112406Y45712406D01*
X5029677Y45803686D01*
X4956299Y45902623D01*
X4892976Y46008272D01*
X4840302Y46119644D01*
X4798805Y46235618D01*
X4768872Y46355118D01*
X4750799Y46476963D01*
X4744753Y46600000D01*
X4750799Y46723037D01*
X4768872Y46844882D01*
X4798805Y46964382D01*
X4840302Y47080356D01*
X4892976Y47191728D01*
X4956299Y47297377D01*
X5029677Y47396314D01*
X5112406Y47487594D01*
X5203686Y47570323D01*
X5302623Y47643701D01*
X5408272Y47707024D01*
X5519644Y47759698D01*
X5635618Y47801195D01*
X5755118Y47831128D01*
X5876963Y47849201D01*
X6000000Y47855247D01*
X6123037Y47849201D01*
X6244882Y47831128D01*
X6364382Y47801195D01*
X6480356Y47759698D01*
X6591728Y47707024D01*
X6697377Y47643701D01*
X6796314Y47570323D01*
X6887594Y47487594D01*
X6970323Y47396314D01*
X7043701Y47297377D01*
X7107024Y47191728D01*
X7159698Y47080356D01*
X7201195Y46964382D01*
X7231128Y46844882D01*
X7249201Y46723037D01*
X7255247Y46600000D01*
X7249201Y46476963D01*
X7231128Y46355118D01*
X7201195Y46235618D01*
X7159698Y46119644D01*
X7107024Y46008272D01*
X7043701Y45902623D01*
X6970323Y45803686D01*
X6887594Y45712406D01*
X6796314Y45629677D01*
X6697377Y45556299D01*
X6591728Y45492976D01*
X6480356Y45440302D01*
X6364382Y45398805D01*
X6244882Y45368872D01*
X6123037Y45350799D01*
X6000000Y45344753D01*
D02*
G37*
%LPC*%
G36*
X11000000Y45344753D02*
X10876963Y45350799D01*
X10755118Y45368872D01*
X10635618Y45398805D01*
X10519644Y45440302D01*
X10408272Y45492976D01*
X10302623Y45556299D01*
X10203686Y45629677D01*
X10112406Y45712406D01*
X10029677Y45803686D01*
X9956299Y45902623D01*
X9892976Y46008272D01*
X9840302Y46119644D01*
X9798805Y46235618D01*
X9768872Y46355118D01*
X9750799Y46476963D01*
X9744753Y46600000D01*
X9750799Y46723037D01*
X9768872Y46844882D01*
X9798805Y46964382D01*
X9840302Y47080356D01*
X9892976Y47191728D01*
X9956299Y47297377D01*
X10029677Y47396314D01*
X10112406Y47487594D01*
X10203686Y47570323D01*
X10302623Y47643701D01*
X10408272Y47707024D01*
X10519644Y47759698D01*
X10635618Y47801195D01*
X10755118Y47831128D01*
X10876963Y47849201D01*
X11000000Y47855247D01*
X11123037Y47849201D01*
X11244882Y47831128D01*
X11364382Y47801195D01*
X11480356Y47759698D01*
X11591728Y47707024D01*
X11697377Y47643701D01*
X11796314Y47570323D01*
X11887594Y47487594D01*
X11970323Y47396314D01*
X12043701Y47297377D01*
X12107024Y47191728D01*
X12159698Y47080356D01*
X12201195Y46964382D01*
X12231128Y46844882D01*
X12249201Y46723037D01*
X12255247Y46600000D01*
X12249201Y46476963D01*
X12231128Y46355118D01*
X12201195Y46235618D01*
X12159698Y46119644D01*
X12107024Y46008272D01*
X12043701Y45902623D01*
X11970323Y45803686D01*
X11887594Y45712406D01*
X11796314Y45629677D01*
X11697377Y45556299D01*
X11591728Y45492976D01*
X11480356Y45440302D01*
X11364382Y45398805D01*
X11244882Y45368872D01*
X11123037Y45350799D01*
X11000000Y45344753D01*
D02*
G37*
%LPC*%
G36*
X44700000Y41394753D02*
X44645574Y41397427D01*
X44591679Y41405423D01*
X44538820Y41418662D01*
X44487521Y41437018D01*
X44438251Y41460320D01*
X44391522Y41488328D01*
X44347761Y41520784D01*
X44307381Y41557381D01*
X44273286Y41595000D01*
X38219927Y41595000D01*
X38160552Y41600847D01*
X38093770Y41621106D01*
X38032222Y41654003D01*
X37978157Y41698370D01*
X37971733Y41706222D01*
X33432955Y46245000D01*
X17204552Y46245000D01*
X17159698Y46119644D01*
X17107024Y46008272D01*
X17043701Y45902623D01*
X16970323Y45803686D01*
X16887594Y45712406D01*
X16796314Y45629677D01*
X16697377Y45556299D01*
X16591728Y45492976D01*
X16480356Y45440302D01*
X16364382Y45398805D01*
X16244882Y45368872D01*
X16123037Y45350799D01*
X16000000Y45344753D01*
X15876963Y45350799D01*
X15755118Y45368872D01*
X15635618Y45398805D01*
X15519644Y45440302D01*
X15408272Y45492976D01*
X15302623Y45556299D01*
X15203686Y45629677D01*
X15112406Y45712406D01*
X15029677Y45803686D01*
X14956299Y45902623D01*
X14892976Y46008272D01*
X14840302Y46119644D01*
X14798805Y46235618D01*
X14768872Y46355118D01*
X14750799Y46476963D01*
X14744753Y46600000D01*
X14750799Y46723037D01*
X14768872Y46844882D01*
X14798805Y46964382D01*
X14840302Y47080356D01*
X14892976Y47191728D01*
X14956299Y47297377D01*
X15029677Y47396314D01*
X15112406Y47487594D01*
X15203686Y47570323D01*
X15302623Y47643701D01*
X15408272Y47707024D01*
X15519644Y47759698D01*
X15635618Y47801195D01*
X15755118Y47831128D01*
X15876963Y47849201D01*
X16000000Y47855247D01*
X16123037Y47849201D01*
X16244882Y47831128D01*
X16364382Y47801195D01*
X16480356Y47759698D01*
X16591728Y47707024D01*
X16697377Y47643701D01*
X16796314Y47570323D01*
X16887594Y47487594D01*
X16970323Y47396314D01*
X17043701Y47297377D01*
X17107024Y47191728D01*
X17159698Y47080356D01*
X17204552Y46955000D01*
X33590075Y46955000D01*
X33649452Y46949150D01*
X33716229Y46928893D01*
X33777777Y46895996D01*
X33823903Y46858143D01*
X38377045Y42305000D01*
X44273286Y42305000D01*
X44307381Y42342619D01*
X44347761Y42379216D01*
X44391522Y42411672D01*
X44438251Y42439680D01*
X44487521Y42462982D01*
X44538820Y42481338D01*
X44591679Y42494577D01*
X44645574Y42502573D01*
X44700000Y42505247D01*
X44754426Y42502573D01*
X44808321Y42494577D01*
X44861180Y42481338D01*
X44912479Y42462982D01*
X44961749Y42439680D01*
X45008478Y42411672D01*
X45052239Y42379216D01*
X45092619Y42342619D01*
X45129216Y42302239D01*
X45161672Y42258478D01*
X45189680Y42211749D01*
X45212982Y42162479D01*
X45231338Y42111180D01*
X45244577Y42058321D01*
X45252573Y42004426D01*
X45255247Y41950000D01*
X45252573Y41895574D01*
X45244577Y41841679D01*
X45231338Y41788820D01*
X45212982Y41737521D01*
X45189680Y41688251D01*
X45161672Y41641522D01*
X45129216Y41597761D01*
X45092619Y41557381D01*
X45052239Y41520784D01*
X45008478Y41488328D01*
X44961749Y41460320D01*
X44912479Y41437018D01*
X44861180Y41418662D01*
X44808321Y41405423D01*
X44754426Y41397427D01*
X44700000Y41394753D01*
D02*
G37*
%LPC*%
G36*
X46380000Y44224753D02*
X46325574Y44227427D01*
X46271679Y44235423D01*
X46218820Y44248662D01*
X46167521Y44267018D01*
X46118251Y44290320D01*
X46071522Y44318328D01*
X46027761Y44350784D01*
X45987381Y44387381D01*
X45950784Y44427761D01*
X45918328Y44471522D01*
X45890320Y44518251D01*
X45867018Y44567521D01*
X45848662Y44618820D01*
X45835423Y44671679D01*
X45827427Y44725574D01*
X45824753Y44779999D01*
X45827245Y44830710D01*
X44412955Y46245000D01*
X44204552Y46245000D01*
X44159698Y46119644D01*
X44107024Y46008272D01*
X44043701Y45902623D01*
X43970323Y45803686D01*
X43887594Y45712406D01*
X43796314Y45629677D01*
X43697377Y45556299D01*
X43591728Y45492976D01*
X43480356Y45440302D01*
X43364382Y45398805D01*
X43244882Y45368872D01*
X43123037Y45350799D01*
X43000000Y45344753D01*
X42876963Y45350799D01*
X42755118Y45368872D01*
X42635618Y45398805D01*
X42519644Y45440302D01*
X42408272Y45492976D01*
X42302623Y45556299D01*
X42203686Y45629677D01*
X42112406Y45712406D01*
X42029677Y45803686D01*
X41956299Y45902623D01*
X41892976Y46008272D01*
X41840302Y46119644D01*
X41798805Y46235618D01*
X41768872Y46355118D01*
X41750799Y46476963D01*
X41744753Y46600000D01*
X41750799Y46723037D01*
X41768872Y46844882D01*
X41798805Y46964382D01*
X41840302Y47080356D01*
X41892976Y47191728D01*
X41956299Y47297377D01*
X42029677Y47396314D01*
X42112406Y47487594D01*
X42203686Y47570323D01*
X42302623Y47643701D01*
X42408272Y47707024D01*
X42519644Y47759698D01*
X42635618Y47801195D01*
X42755118Y47831128D01*
X42876963Y47849201D01*
X43000000Y47855247D01*
X43123037Y47849201D01*
X43244882Y47831128D01*
X43364382Y47801195D01*
X43480356Y47759698D01*
X43591728Y47707024D01*
X43697377Y47643701D01*
X43796314Y47570323D01*
X43887594Y47487594D01*
X43970323Y47396314D01*
X44043701Y47297377D01*
X44107024Y47191728D01*
X44159698Y47080356D01*
X44204552Y46955000D01*
X44570075Y46955000D01*
X44629452Y46949150D01*
X44696229Y46928893D01*
X44757777Y46895996D01*
X44803903Y46858143D01*
X46329290Y45332755D01*
X46380001Y45335247D01*
X46434426Y45332573D01*
X46488321Y45324577D01*
X46541180Y45311338D01*
X46592479Y45292982D01*
X46641749Y45269680D01*
X46688478Y45241672D01*
X46732239Y45209216D01*
X46772619Y45172619D01*
X46809216Y45132239D01*
X46841672Y45088478D01*
X46869680Y45041749D01*
X46892982Y44992479D01*
X46911338Y44941180D01*
X46924577Y44888321D01*
X46932573Y44834426D01*
X46935247Y44780000D01*
X46932573Y44725574D01*
X46924577Y44671679D01*
X46911338Y44618820D01*
X46892982Y44567521D01*
X46869680Y44518251D01*
X46841672Y44471522D01*
X46809216Y44427761D01*
X46772619Y44387381D01*
X46732239Y44350784D01*
X46688478Y44318328D01*
X46641749Y44290320D01*
X46592479Y44267018D01*
X46541180Y44248662D01*
X46488321Y44235423D01*
X46434426Y44227427D01*
X46380000Y44224753D01*
D02*
G37*
%LPC*%
G36*
X55400000Y37404831D02*
X55345574Y37407505D01*
X55291679Y37415501D01*
X55238820Y37428740D01*
X55187521Y37447096D01*
X55138251Y37470398D01*
X55091522Y37498406D01*
X55047761Y37530862D01*
X55007381Y37567459D01*
X54970784Y37607839D01*
X54938328Y37651600D01*
X54910320Y37698329D01*
X54887018Y37747599D01*
X54868662Y37798898D01*
X54855423Y37851757D01*
X54847427Y37905652D01*
X54844753Y37960077D01*
X54847245Y38010788D01*
X47756222Y45101811D01*
X47748370Y45108235D01*
X47704003Y45162300D01*
X47671106Y45223848D01*
X47650847Y45290630D01*
X47645000Y45350005D01*
X47645000Y45395448D01*
X47519644Y45440302D01*
X47408272Y45492976D01*
X47302623Y45556299D01*
X47203686Y45629677D01*
X47112406Y45712406D01*
X47029677Y45803686D01*
X46956299Y45902623D01*
X46892976Y46008272D01*
X46840302Y46119644D01*
X46798805Y46235618D01*
X46768872Y46355118D01*
X46750799Y46476963D01*
X46744753Y46600000D01*
X46750799Y46723037D01*
X46768872Y46844882D01*
X46798805Y46964382D01*
X46840302Y47080356D01*
X46892976Y47191728D01*
X46956299Y47297377D01*
X47029677Y47396314D01*
X47112406Y47487594D01*
X47203686Y47570323D01*
X47302623Y47643701D01*
X47408272Y47707024D01*
X47519644Y47759698D01*
X47635618Y47801195D01*
X47755118Y47831128D01*
X47876963Y47849201D01*
X48000000Y47855247D01*
X48123037Y47849201D01*
X48244882Y47831128D01*
X48364382Y47801195D01*
X48480356Y47759698D01*
X48591728Y47707024D01*
X48697377Y47643701D01*
X48796314Y47570323D01*
X48887594Y47487594D01*
X48970323Y47396314D01*
X49043701Y47297377D01*
X49107024Y47191728D01*
X49159698Y47080356D01*
X49201195Y46964382D01*
X49231128Y46844882D01*
X49249201Y46723037D01*
X49255247Y46600000D01*
X49249201Y46476963D01*
X49231128Y46355118D01*
X49201195Y46235618D01*
X49159698Y46119644D01*
X49107024Y46008272D01*
X49043701Y45902623D01*
X48970323Y45803686D01*
X48887594Y45712406D01*
X48796314Y45629677D01*
X48697377Y45556299D01*
X48591724Y45492974D01*
X48440616Y45421507D01*
X55349290Y38512833D01*
X55400001Y38515325D01*
X55454426Y38512651D01*
X55508321Y38504655D01*
X55561180Y38491416D01*
X55612479Y38473060D01*
X55661749Y38449758D01*
X55708478Y38421750D01*
X55752239Y38389294D01*
X55792619Y38352697D01*
X55829216Y38312317D01*
X55861672Y38268556D01*
X55889680Y38221827D01*
X55912982Y38172557D01*
X55931338Y38121258D01*
X55944577Y38068399D01*
X55952573Y38014504D01*
X55955247Y37960078D01*
X55952573Y37905652D01*
X55944577Y37851757D01*
X55931338Y37798898D01*
X55912982Y37747599D01*
X55889680Y37698329D01*
X55861672Y37651600D01*
X55829216Y37607839D01*
X55792619Y37567459D01*
X55752239Y37530862D01*
X55708478Y37498406D01*
X55661749Y37470398D01*
X55612479Y37447096D01*
X55561180Y37428740D01*
X55508321Y37415501D01*
X55454426Y37407505D01*
X55400000Y37404831D01*
D02*
G37*
%LPC*%
G36*
X53000000Y45344753D02*
X52876963Y45350799D01*
X52755118Y45368872D01*
X52635618Y45398805D01*
X52519644Y45440302D01*
X52408272Y45492976D01*
X52302623Y45556299D01*
X52203686Y45629677D01*
X52112406Y45712406D01*
X52029677Y45803686D01*
X51956299Y45902623D01*
X51892976Y46008272D01*
X51840302Y46119644D01*
X51798805Y46235618D01*
X51768872Y46355118D01*
X51750799Y46476963D01*
X51744753Y46600000D01*
X51750799Y46723037D01*
X51768872Y46844882D01*
X51798805Y46964382D01*
X51840302Y47080356D01*
X51892976Y47191728D01*
X51956299Y47297377D01*
X52029677Y47396314D01*
X52112406Y47487594D01*
X52203686Y47570323D01*
X52302623Y47643701D01*
X52408272Y47707024D01*
X52519644Y47759698D01*
X52635618Y47801195D01*
X52755118Y47831128D01*
X52876963Y47849201D01*
X53000000Y47855247D01*
X53123037Y47849201D01*
X53244882Y47831128D01*
X53364382Y47801195D01*
X53480356Y47759698D01*
X53591728Y47707024D01*
X53697377Y47643701D01*
X53796314Y47570323D01*
X53887594Y47487594D01*
X53970323Y47396314D01*
X54043701Y47297377D01*
X54107024Y47191728D01*
X54159698Y47080356D01*
X54201195Y46964382D01*
X54231128Y46844882D01*
X54249201Y46723037D01*
X54255247Y46600000D01*
X54249201Y46476963D01*
X54231128Y46355118D01*
X54201195Y46235618D01*
X54159698Y46119644D01*
X54107024Y46008272D01*
X54043701Y45902623D01*
X53970323Y45803686D01*
X53887594Y45712406D01*
X53796314Y45629677D01*
X53697377Y45556299D01*
X53591728Y45492976D01*
X53480356Y45440302D01*
X53364382Y45398805D01*
X53244882Y45368872D01*
X53123037Y45350799D01*
X53000000Y45344753D01*
D02*
G37*
%LPC*%
G36*
X23000000Y23244753D02*
X22945574Y23247427D01*
X22891679Y23255423D01*
X22838820Y23268662D01*
X22787521Y23287018D01*
X22738251Y23310320D01*
X22691522Y23338328D01*
X22647761Y23370784D01*
X22607381Y23407381D01*
X22570784Y23447761D01*
X22538328Y23491522D01*
X22510320Y23538251D01*
X22487018Y23587521D01*
X22468662Y23638820D01*
X22455423Y23691679D01*
X22447427Y23745574D01*
X22444753Y23800000D01*
X22447427Y23854426D01*
X22455423Y23908321D01*
X22468662Y23961180D01*
X22487018Y24012479D01*
X22510320Y24061749D01*
X22538328Y24108478D01*
X22570784Y24152239D01*
X22607381Y24192619D01*
X22645000Y24226714D01*
X22645000Y32710074D01*
X22650847Y32769448D01*
X22671106Y32836229D01*
X22704003Y32897777D01*
X22747779Y32951120D01*
X22755558Y32957603D01*
X25415000Y35617045D01*
X25415000Y43503286D01*
X25377381Y43537381D01*
X25340784Y43577761D01*
X25308328Y43621522D01*
X25280320Y43668251D01*
X25257018Y43717521D01*
X25238662Y43768820D01*
X25225423Y43821679D01*
X25217427Y43875574D01*
X25214753Y43930000D01*
X25217427Y43984426D01*
X25225423Y44038321D01*
X25238662Y44091180D01*
X25257018Y44142479D01*
X25280320Y44191749D01*
X25308328Y44238478D01*
X25340784Y44282239D01*
X25377381Y44322619D01*
X25417761Y44359216D01*
X25461522Y44391672D01*
X25508251Y44419680D01*
X25557521Y44442982D01*
X25608820Y44461338D01*
X25661679Y44474577D01*
X25715574Y44482573D01*
X25770000Y44485247D01*
X25824426Y44482573D01*
X25878321Y44474577D01*
X25931180Y44461338D01*
X25982479Y44442982D01*
X26031749Y44419680D01*
X26078478Y44391672D01*
X26122239Y44359216D01*
X26162619Y44322619D01*
X26199216Y44282239D01*
X26231672Y44238478D01*
X26259680Y44191749D01*
X26282982Y44142479D01*
X26301338Y44091180D01*
X26314577Y44038321D01*
X26322573Y43984426D01*
X26325247Y43930000D01*
X26322573Y43875574D01*
X26314577Y43821679D01*
X26301338Y43768820D01*
X26282982Y43717521D01*
X26259680Y43668251D01*
X26231672Y43621522D01*
X26199216Y43577761D01*
X26162619Y43537381D01*
X26125000Y43503286D01*
X26125000Y35459925D01*
X26119150Y35400547D01*
X26098893Y35333771D01*
X26065996Y35272222D01*
X26022220Y35218879D01*
X26014441Y35212396D01*
X23355000Y32552955D01*
X23355000Y24226714D01*
X23392619Y24192619D01*
X23429216Y24152239D01*
X23461672Y24108478D01*
X23489680Y24061749D01*
X23512982Y24012479D01*
X23531338Y23961180D01*
X23544577Y23908321D01*
X23552573Y23854426D01*
X23555247Y23800000D01*
X23552573Y23745574D01*
X23544577Y23691679D01*
X23531338Y23638820D01*
X23512982Y23587521D01*
X23489680Y23538251D01*
X23461672Y23491522D01*
X23429216Y23447761D01*
X23392619Y23407381D01*
X23352239Y23370784D01*
X23308478Y23338328D01*
X23261749Y23310320D01*
X23212479Y23287018D01*
X23161180Y23268662D01*
X23108321Y23255423D01*
X23054426Y23247427D01*
X23000000Y23244753D01*
D02*
G37*
%LPC*%
G36*
X11100000Y41544753D02*
X11001467Y41549595D01*
X10903890Y41564068D01*
X10808188Y41588040D01*
X10715316Y41621271D01*
X10626121Y41663456D01*
X10541515Y41714167D01*
X10462284Y41772930D01*
X10389183Y41839183D01*
X10322930Y41912284D01*
X10264167Y41991515D01*
X10213456Y42076121D01*
X10171271Y42165316D01*
X10138040Y42258188D01*
X10114068Y42353890D01*
X10099595Y42451467D01*
X10094753Y42550000D01*
X10099595Y42648533D01*
X10114068Y42746110D01*
X10138040Y42841812D01*
X10171271Y42934684D01*
X10213456Y43023879D01*
X10264167Y43108485D01*
X10322930Y43187716D01*
X10389183Y43260817D01*
X10462284Y43327070D01*
X10541515Y43385833D01*
X10626121Y43436544D01*
X10715316Y43478729D01*
X10808188Y43511960D01*
X10903890Y43535932D01*
X11001467Y43550405D01*
X11100000Y43555247D01*
X11198533Y43550405D01*
X11296110Y43535932D01*
X11391812Y43511960D01*
X11484684Y43478729D01*
X11573879Y43436544D01*
X11658485Y43385833D01*
X11737716Y43327070D01*
X11810817Y43260817D01*
X11877070Y43187716D01*
X11935833Y43108485D01*
X11986544Y43023879D01*
X12028729Y42934684D01*
X12061960Y42841812D01*
X12085932Y42746110D01*
X12100405Y42648533D01*
X12105247Y42550000D01*
X12100405Y42451467D01*
X12085932Y42353890D01*
X12061960Y42258188D01*
X12028729Y42165316D01*
X11986544Y42076121D01*
X11935833Y41991515D01*
X11877070Y41912284D01*
X11810817Y41839183D01*
X11737716Y41772930D01*
X11658485Y41714167D01*
X11573879Y41663456D01*
X11484684Y41621271D01*
X11391812Y41588040D01*
X11296110Y41564068D01*
X11198533Y41549595D01*
X11100000Y41544753D01*
D02*
G37*
%LPC*%
G36*
X16400000Y36244753D02*
X16345574Y36247427D01*
X16291679Y36255423D01*
X16238820Y36268662D01*
X16187521Y36287018D01*
X16138251Y36310320D01*
X16091522Y36338328D01*
X16047761Y36370784D01*
X16007381Y36407381D01*
X15970784Y36447761D01*
X15938328Y36491522D01*
X15910320Y36538251D01*
X15887018Y36587521D01*
X15868662Y36638820D01*
X15855423Y36691679D01*
X15847427Y36745574D01*
X15844753Y36800000D01*
X15847427Y36854426D01*
X15855423Y36908321D01*
X15868662Y36961180D01*
X15887018Y37012479D01*
X15910320Y37061749D01*
X15938328Y37108478D01*
X15970784Y37152239D01*
X16007381Y37192619D01*
X16047761Y37229216D01*
X16091522Y37261672D01*
X16138251Y37289680D01*
X16187521Y37312982D01*
X16238820Y37331338D01*
X16291679Y37344577D01*
X16345574Y37352573D01*
X16399999Y37355247D01*
X16450710Y37352755D01*
X17545000Y38447045D01*
X17545000Y40602955D01*
X16515616Y41632339D01*
X16391812Y41588040D01*
X16296110Y41564068D01*
X16198533Y41549595D01*
X16100000Y41544753D01*
X16001467Y41549595D01*
X15903890Y41564068D01*
X15808188Y41588040D01*
X15715316Y41621271D01*
X15626121Y41663456D01*
X15541515Y41714167D01*
X15462284Y41772930D01*
X15389183Y41839183D01*
X15322930Y41912284D01*
X15264167Y41991515D01*
X15213456Y42076121D01*
X15171271Y42165316D01*
X15138040Y42258188D01*
X15114068Y42353890D01*
X15099595Y42451467D01*
X15094753Y42550000D01*
X15099595Y42648533D01*
X15114068Y42746110D01*
X15138040Y42841812D01*
X15171271Y42934684D01*
X15213456Y43023879D01*
X15264167Y43108485D01*
X15322930Y43187716D01*
X15389183Y43260817D01*
X15462284Y43327070D01*
X15541515Y43385833D01*
X15626121Y43436544D01*
X15715316Y43478729D01*
X15808188Y43511960D01*
X15903890Y43535932D01*
X16001467Y43550405D01*
X16100000Y43555247D01*
X16198533Y43550405D01*
X16296110Y43535932D01*
X16391812Y43511960D01*
X16484684Y43478729D01*
X16573879Y43436544D01*
X16658485Y43385833D01*
X16737716Y43327070D01*
X16810817Y43260817D01*
X16877070Y43187716D01*
X16935833Y43108485D01*
X16986544Y43023879D01*
X17028729Y42934684D01*
X17061960Y42841812D01*
X17085932Y42746110D01*
X17100405Y42648533D01*
X17105247Y42550000D01*
X17100405Y42451467D01*
X17085932Y42353890D01*
X17061960Y42258188D01*
X17017661Y42134384D01*
X18158143Y40993903D01*
X18195996Y40947777D01*
X18228893Y40886229D01*
X18249150Y40819452D01*
X18255000Y40760075D01*
X18255000Y38289925D01*
X18249150Y38230547D01*
X18228893Y38163771D01*
X18195996Y38102222D01*
X18152220Y38048879D01*
X18144441Y38042396D01*
X16952755Y36850710D01*
X16955247Y36799999D01*
X16952573Y36745574D01*
X16944577Y36691679D01*
X16931338Y36638820D01*
X16912982Y36587521D01*
X16889680Y36538251D01*
X16861672Y36491522D01*
X16829216Y36447761D01*
X16792619Y36407381D01*
X16752239Y36370784D01*
X16708478Y36338328D01*
X16661749Y36310320D01*
X16612479Y36287018D01*
X16561180Y36268662D01*
X16508321Y36255423D01*
X16454426Y36247427D01*
X16400000Y36244753D01*
D02*
G37*
%LPC*%
G36*
X21060000Y25034753D02*
X21005574Y25037427D01*
X20951679Y25045423D01*
X20898820Y25058662D01*
X20847521Y25077018D01*
X20798251Y25100320D01*
X20751522Y25128328D01*
X20707761Y25160784D01*
X20667381Y25197381D01*
X20630784Y25237761D01*
X20598328Y25281522D01*
X20570320Y25328251D01*
X20547018Y25377521D01*
X20528662Y25428820D01*
X20515423Y25481679D01*
X20507427Y25535574D01*
X20504753Y25590000D01*
X20507427Y25644426D01*
X20515423Y25698321D01*
X20528662Y25751180D01*
X20547018Y25802479D01*
X20570320Y25851749D01*
X20598328Y25898478D01*
X20630784Y25942239D01*
X20667381Y25982619D01*
X20705000Y26016714D01*
X20705000Y33570074D01*
X20710847Y33629448D01*
X20731106Y33696229D01*
X20764003Y33757777D01*
X20807779Y33811120D01*
X20815558Y33817603D01*
X23735000Y36737045D01*
X23735000Y41573286D01*
X23697381Y41607381D01*
X23660784Y41647761D01*
X23628328Y41691522D01*
X23600320Y41738251D01*
X23577018Y41787521D01*
X23558662Y41838820D01*
X23545423Y41891679D01*
X23537427Y41945574D01*
X23534753Y42000000D01*
X23537427Y42054426D01*
X23545423Y42108321D01*
X23558662Y42161180D01*
X23577018Y42212479D01*
X23600320Y42261749D01*
X23628328Y42308478D01*
X23660784Y42352239D01*
X23697381Y42392619D01*
X23737761Y42429216D01*
X23781522Y42461672D01*
X23828251Y42489680D01*
X23877521Y42512982D01*
X23928820Y42531338D01*
X23981679Y42544577D01*
X24035574Y42552573D01*
X24090000Y42555247D01*
X24144426Y42552573D01*
X24198321Y42544577D01*
X24251180Y42531338D01*
X24302479Y42512982D01*
X24351749Y42489680D01*
X24398478Y42461672D01*
X24442239Y42429216D01*
X24482619Y42392619D01*
X24519216Y42352239D01*
X24551672Y42308478D01*
X24579680Y42261749D01*
X24602982Y42212479D01*
X24621338Y42161180D01*
X24634577Y42108321D01*
X24642573Y42054426D01*
X24645247Y42000000D01*
X24642573Y41945574D01*
X24634577Y41891679D01*
X24621338Y41838820D01*
X24602982Y41787521D01*
X24579680Y41738251D01*
X24551672Y41691522D01*
X24519216Y41647761D01*
X24482619Y41607381D01*
X24445000Y41573286D01*
X24445000Y36579925D01*
X24439150Y36520547D01*
X24418893Y36453771D01*
X24385996Y36392222D01*
X24342220Y36338879D01*
X24334441Y36332396D01*
X21415000Y33412955D01*
X21415000Y26016714D01*
X21452619Y25982619D01*
X21489216Y25942239D01*
X21521672Y25898478D01*
X21549680Y25851749D01*
X21572982Y25802479D01*
X21591338Y25751180D01*
X21604577Y25698321D01*
X21612573Y25644426D01*
X21615247Y25590000D01*
X21612573Y25535574D01*
X21604577Y25481679D01*
X21591338Y25428820D01*
X21572982Y25377521D01*
X21549680Y25328251D01*
X21521672Y25281522D01*
X21489216Y25237761D01*
X21452619Y25197381D01*
X21412239Y25160784D01*
X21368478Y25128328D01*
X21321749Y25100320D01*
X21272479Y25077018D01*
X21221180Y25058662D01*
X21168321Y25045423D01*
X21114426Y25037427D01*
X21060000Y25034753D01*
D02*
G37*
%LPC*%
G36*
X11100000Y38244753D02*
X11001467Y38249595D01*
X10903890Y38264068D01*
X10808188Y38288040D01*
X10715316Y38321271D01*
X10626121Y38363456D01*
X10541515Y38414167D01*
X10462284Y38472930D01*
X10389183Y38539183D01*
X10322930Y38612284D01*
X10264167Y38691515D01*
X10213456Y38776121D01*
X10171271Y38865316D01*
X10138040Y38958188D01*
X10114068Y39053890D01*
X10099595Y39151467D01*
X10094753Y39250000D01*
X10099595Y39348533D01*
X10114068Y39446110D01*
X10138040Y39541812D01*
X10171271Y39634684D01*
X10213456Y39723879D01*
X10264167Y39808485D01*
X10322930Y39887716D01*
X10389183Y39960817D01*
X10462284Y40027070D01*
X10541515Y40085833D01*
X10626121Y40136544D01*
X10715316Y40178729D01*
X10808188Y40211960D01*
X10903890Y40235932D01*
X11001467Y40250405D01*
X11100000Y40255247D01*
X11198533Y40250405D01*
X11296110Y40235932D01*
X11391812Y40211960D01*
X11484684Y40178729D01*
X11573879Y40136544D01*
X11658485Y40085833D01*
X11737716Y40027070D01*
X11810817Y39960817D01*
X11877070Y39887716D01*
X11935833Y39808485D01*
X11986544Y39723879D01*
X12028729Y39634684D01*
X12061960Y39541812D01*
X12085932Y39446110D01*
X12100405Y39348533D01*
X12105247Y39250000D01*
X12100405Y39151467D01*
X12085932Y39053890D01*
X12061960Y38958188D01*
X12028729Y38865316D01*
X11986544Y38776121D01*
X11935833Y38691515D01*
X11877070Y38612284D01*
X11810817Y38539183D01*
X11737716Y38472930D01*
X11658485Y38414167D01*
X11573879Y38363456D01*
X11484684Y38321271D01*
X11391812Y38288040D01*
X11296110Y38264068D01*
X11198533Y38249595D01*
X11100000Y38244753D01*
D02*
G37*
%LPC*%
G36*
X13600000Y38244753D02*
X13501467Y38249595D01*
X13403890Y38264068D01*
X13308188Y38288040D01*
X13215316Y38321271D01*
X13126121Y38363456D01*
X13041515Y38414167D01*
X12962284Y38472930D01*
X12889183Y38539183D01*
X12822930Y38612284D01*
X12764167Y38691515D01*
X12713456Y38776121D01*
X12671271Y38865316D01*
X12638040Y38958188D01*
X12614068Y39053890D01*
X12599595Y39151467D01*
X12594753Y39250000D01*
X12599595Y39348533D01*
X12614068Y39446110D01*
X12638040Y39541812D01*
X12671271Y39634684D01*
X12713456Y39723879D01*
X12764167Y39808485D01*
X12822930Y39887716D01*
X12889183Y39960817D01*
X12962284Y40027070D01*
X13041515Y40085833D01*
X13126121Y40136544D01*
X13215316Y40178729D01*
X13308188Y40211960D01*
X13403890Y40235932D01*
X13501467Y40250405D01*
X13600000Y40255247D01*
X13698533Y40250405D01*
X13796110Y40235932D01*
X13891812Y40211960D01*
X13984684Y40178729D01*
X14073879Y40136544D01*
X14158485Y40085833D01*
X14237716Y40027070D01*
X14310817Y39960817D01*
X14377070Y39887716D01*
X14435833Y39808485D01*
X14486544Y39723879D01*
X14528729Y39634684D01*
X14561960Y39541812D01*
X14585932Y39446110D01*
X14600405Y39348533D01*
X14605247Y39250000D01*
X14600405Y39151467D01*
X14585932Y39053890D01*
X14561960Y38958188D01*
X14528729Y38865316D01*
X14486544Y38776121D01*
X14435833Y38691515D01*
X14377070Y38612284D01*
X14310817Y38539183D01*
X14237716Y38472930D01*
X14158485Y38414167D01*
X14073879Y38363456D01*
X13984684Y38321271D01*
X13891812Y38288040D01*
X13796110Y38264068D01*
X13698533Y38249595D01*
X13600000Y38244753D01*
D02*
G37*
%LPC*%
G36*
X16100000Y38244753D02*
X16001467Y38249595D01*
X15903890Y38264068D01*
X15808188Y38288040D01*
X15715316Y38321271D01*
X15626121Y38363456D01*
X15541515Y38414167D01*
X15462284Y38472930D01*
X15389183Y38539183D01*
X15322930Y38612284D01*
X15264167Y38691515D01*
X15213456Y38776121D01*
X15171271Y38865316D01*
X15138040Y38958188D01*
X15114068Y39053890D01*
X15099595Y39151467D01*
X15094753Y39250000D01*
X15099595Y39348533D01*
X15114068Y39446110D01*
X15138040Y39541812D01*
X15171271Y39634684D01*
X15213456Y39723879D01*
X15264167Y39808485D01*
X15322930Y39887716D01*
X15389183Y39960817D01*
X15462284Y40027070D01*
X15541515Y40085833D01*
X15626121Y40136544D01*
X15715316Y40178729D01*
X15808188Y40211960D01*
X15903890Y40235932D01*
X16001467Y40250405D01*
X16100000Y40255247D01*
X16198533Y40250405D01*
X16296110Y40235932D01*
X16391812Y40211960D01*
X16484684Y40178729D01*
X16573879Y40136544D01*
X16658485Y40085833D01*
X16737716Y40027070D01*
X16810817Y39960817D01*
X16877070Y39887716D01*
X16935833Y39808485D01*
X16986544Y39723879D01*
X17028729Y39634684D01*
X17061960Y39541812D01*
X17085932Y39446110D01*
X17100405Y39348533D01*
X17105247Y39250000D01*
X17100405Y39151467D01*
X17085932Y39053890D01*
X17061960Y38958188D01*
X17028729Y38865316D01*
X16986544Y38776121D01*
X16935833Y38691515D01*
X16877070Y38612284D01*
X16810817Y38539183D01*
X16737716Y38472930D01*
X16658485Y38414167D01*
X16573879Y38363456D01*
X16484684Y38321271D01*
X16391812Y38288040D01*
X16296110Y38264068D01*
X16198533Y38249595D01*
X16100000Y38244753D01*
D02*
G37*
%LPC*%
G36*
X46150000Y14004753D02*
X46071070Y14008632D01*
X45992908Y14020225D01*
X45916245Y14039428D01*
X45841843Y14066051D01*
X45770408Y14099837D01*
X45702629Y14140461D01*
X45639158Y14187535D01*
X45580604Y14240604D01*
X45527535Y14299158D01*
X45480461Y14362629D01*
X45439837Y14430408D01*
X45406051Y14501843D01*
X45379428Y14576245D01*
X45360225Y14652908D01*
X45348632Y14731070D01*
X45344753Y14810000D01*
X45348632Y14888930D01*
X45360225Y14967092D01*
X45379428Y15043755D01*
X45406051Y15118157D01*
X45439837Y15189592D01*
X45480461Y15257371D01*
X45527535Y15320841D01*
X45545000Y15340111D01*
X45545000Y27929403D01*
X43579403Y29895000D01*
X33189927Y29895000D01*
X33081779Y29905650D01*
X32968095Y29940137D01*
X32863327Y29996136D01*
X32771380Y30071596D01*
X32764959Y30079444D01*
X31309444Y31534959D01*
X31301596Y31541380D01*
X31226136Y31633327D01*
X31170137Y31738095D01*
X31135650Y31851779D01*
X31125000Y31959927D01*
X31125000Y32869889D01*
X31107535Y32889159D01*
X31060461Y32952629D01*
X31019837Y33020408D01*
X30986051Y33091843D01*
X30959428Y33166245D01*
X30940225Y33242908D01*
X30928632Y33321070D01*
X30924753Y33400000D01*
X30928632Y33478930D01*
X30940225Y33557092D01*
X30959428Y33633755D01*
X30986051Y33708157D01*
X31019837Y33779592D01*
X31060461Y33847371D01*
X31107535Y33910842D01*
X31160604Y33969396D01*
X31219158Y34022465D01*
X31282629Y34069539D01*
X31350408Y34110163D01*
X31421843Y34143949D01*
X31496245Y34170572D01*
X31572908Y34189775D01*
X31651070Y34201368D01*
X31730000Y34205247D01*
X31808930Y34201368D01*
X31887092Y34189775D01*
X31963755Y34170572D01*
X32038157Y34143949D01*
X32109592Y34110163D01*
X32177371Y34069539D01*
X32240842Y34022465D01*
X32299396Y33969396D01*
X32352465Y33910842D01*
X32399539Y33847371D01*
X32440163Y33779592D01*
X32473949Y33708157D01*
X32500572Y33633755D01*
X32519775Y33557092D01*
X32531368Y33478930D01*
X32535247Y33400000D01*
X32531368Y33321070D01*
X32519775Y33242908D01*
X32500572Y33166245D01*
X32473949Y33091843D01*
X32440163Y33020408D01*
X32399539Y32952629D01*
X32352465Y32889159D01*
X32335000Y32869889D01*
X32335000Y32220597D01*
X33450597Y31105000D01*
X43840074Y31105000D01*
X43948222Y31094348D01*
X44061904Y31059862D01*
X44166672Y31003863D01*
X44250680Y30934918D01*
X46584918Y28600680D01*
X46653863Y28516672D01*
X46709862Y28411904D01*
X46744348Y28298222D01*
X46755000Y28190074D01*
X46755000Y15340111D01*
X46772465Y15320841D01*
X46819539Y15257371D01*
X46860163Y15189592D01*
X46893949Y15118157D01*
X46920572Y15043755D01*
X46939775Y14967092D01*
X46951368Y14888930D01*
X46955247Y14810000D01*
X46951368Y14731070D01*
X46939775Y14652908D01*
X46920572Y14576245D01*
X46893949Y14501843D01*
X46860163Y14430408D01*
X46819539Y14362629D01*
X46772465Y14299158D01*
X46719396Y14240604D01*
X46660842Y14187535D01*
X46597371Y14140461D01*
X46529592Y14099837D01*
X46458157Y14066051D01*
X46383755Y14039428D01*
X46307092Y14020225D01*
X46228930Y14008632D01*
X46150000Y14004753D01*
D02*
G37*
%LPC*%
G36*
X28910000Y20704753D02*
X28831070Y20708632D01*
X28752908Y20720225D01*
X28676245Y20739428D01*
X28601843Y20766051D01*
X28530408Y20799837D01*
X28462629Y20840461D01*
X28399158Y20887535D01*
X28340604Y20940604D01*
X28287535Y20999158D01*
X28240461Y21062629D01*
X28199837Y21130408D01*
X28166051Y21201843D01*
X28139428Y21276245D01*
X28120225Y21352908D01*
X28108632Y21431070D01*
X28104753Y21510000D01*
X28108632Y21588930D01*
X28120225Y21667092D01*
X28139428Y21743755D01*
X28166051Y21818157D01*
X28199837Y21889592D01*
X28240461Y21957371D01*
X28287535Y22020842D01*
X28340604Y22079396D01*
X28399158Y22132465D01*
X28462629Y22179539D01*
X28530408Y22220163D01*
X28601843Y22253949D01*
X28676245Y22280572D01*
X28752908Y22299775D01*
X28831070Y22311368D01*
X28910000Y22315247D01*
X28988930Y22311368D01*
X29067092Y22299775D01*
X29143755Y22280572D01*
X29218157Y22253949D01*
X29289592Y22220163D01*
X29357371Y22179539D01*
X29420841Y22132465D01*
X29440111Y22115000D01*
X38629403Y22115000D01*
X40445000Y23930597D01*
X40445000Y26570073D01*
X40455650Y26678221D01*
X40490137Y26791904D01*
X40546136Y26896672D01*
X40621006Y26987899D01*
X40628781Y26994379D01*
X42257356Y28622953D01*
X42258632Y28648930D01*
X42270225Y28727092D01*
X42289428Y28803755D01*
X42316051Y28878157D01*
X42349837Y28949592D01*
X42390461Y29017371D01*
X42437535Y29080842D01*
X42490604Y29139396D01*
X42549158Y29192465D01*
X42612629Y29239539D01*
X42680408Y29280163D01*
X42751843Y29313949D01*
X42826245Y29340572D01*
X42902908Y29359775D01*
X42981070Y29371368D01*
X43060000Y29375247D01*
X43138930Y29371368D01*
X43217092Y29359775D01*
X43293755Y29340572D01*
X43368157Y29313949D01*
X43439592Y29280163D01*
X43507371Y29239539D01*
X43570842Y29192465D01*
X43629396Y29139396D01*
X43682465Y29080842D01*
X43729539Y29017371D01*
X43770163Y28949592D01*
X43803949Y28878157D01*
X43830572Y28803755D01*
X43849775Y28727092D01*
X43861368Y28648930D01*
X43865247Y28570000D01*
X43861368Y28491070D01*
X43849775Y28412908D01*
X43830572Y28336245D01*
X43803949Y28261843D01*
X43770163Y28190408D01*
X43729539Y28122629D01*
X43682465Y28059158D01*
X43629396Y28000604D01*
X43570842Y27947535D01*
X43507371Y27900461D01*
X43439592Y27859837D01*
X43368157Y27826051D01*
X43293755Y27799428D01*
X43217092Y27780225D01*
X43138930Y27768632D01*
X43112953Y27767356D01*
X41655000Y26309403D01*
X41655000Y23669927D01*
X41644348Y23561777D01*
X41609862Y23448095D01*
X41553863Y23343327D01*
X41478993Y23252100D01*
X41471218Y23245620D01*
X39314379Y21088781D01*
X39307899Y21081006D01*
X39216672Y21006136D01*
X39111904Y20950137D01*
X38998221Y20915650D01*
X38890073Y20905000D01*
X29440111Y20905000D01*
X29420841Y20887535D01*
X29357371Y20840461D01*
X29289592Y20799837D01*
X29218157Y20766051D01*
X29143755Y20739428D01*
X29067092Y20720225D01*
X28988930Y20708632D01*
X28910000Y20704753D01*
D02*
G37*
%LPC*%
G36*
X29876117Y15960870D02*
X29797187Y15964749D01*
X29719025Y15976342D01*
X29642362Y15995545D01*
X29567960Y16022168D01*
X29496525Y16055954D01*
X29428746Y16096578D01*
X29365275Y16143652D01*
X29306721Y16196721D01*
X29253652Y16255275D01*
X29206578Y16318746D01*
X29165954Y16386525D01*
X29132168Y16457960D01*
X29105545Y16532362D01*
X29086342Y16609025D01*
X29074748Y16687188D01*
X29073432Y16713971D01*
X27462403Y18325000D01*
X11679927Y18325000D01*
X11571779Y18335650D01*
X11458095Y18370137D01*
X11353327Y18426136D01*
X11261380Y18501596D01*
X11254959Y18509444D01*
X9577047Y20187356D01*
X9551070Y20188632D01*
X9472908Y20200225D01*
X9396245Y20219428D01*
X9321843Y20246051D01*
X9250408Y20279837D01*
X9182629Y20320461D01*
X9119158Y20367535D01*
X9060604Y20420604D01*
X9007535Y20479158D01*
X8960461Y20542629D01*
X8919837Y20610408D01*
X8886051Y20681843D01*
X8859428Y20756245D01*
X8840225Y20832908D01*
X8828632Y20911070D01*
X8824753Y20990000D01*
X8828632Y21068930D01*
X8840225Y21147092D01*
X8859428Y21223755D01*
X8886051Y21298157D01*
X8919837Y21369592D01*
X8960461Y21437371D01*
X9007535Y21500842D01*
X9060604Y21559396D01*
X9119158Y21612465D01*
X9182629Y21659539D01*
X9250408Y21700163D01*
X9321843Y21733949D01*
X9396245Y21760572D01*
X9472908Y21779775D01*
X9551070Y21791368D01*
X9630000Y21795247D01*
X9708930Y21791368D01*
X9787092Y21779775D01*
X9863755Y21760572D01*
X9938157Y21733949D01*
X10009592Y21700163D01*
X10077371Y21659539D01*
X10140842Y21612465D01*
X10199396Y21559396D01*
X10252465Y21500842D01*
X10299539Y21437371D01*
X10340163Y21369592D01*
X10373949Y21298157D01*
X10400572Y21223755D01*
X10419775Y21147092D01*
X10431368Y21068930D01*
X10432644Y21042953D01*
X11940597Y19535000D01*
X27723074Y19535000D01*
X27831222Y19524348D01*
X27944904Y19489862D01*
X28049672Y19433863D01*
X28133680Y19364918D01*
X29929874Y17568723D01*
X29955047Y17567485D01*
X30033209Y17555892D01*
X30109872Y17536689D01*
X30184274Y17510066D01*
X30255709Y17476280D01*
X30323488Y17435656D01*
X30386959Y17388582D01*
X30445513Y17335513D01*
X30498582Y17276959D01*
X30545656Y17213488D01*
X30586280Y17145709D01*
X30620066Y17074274D01*
X30646689Y16999872D01*
X30665892Y16923209D01*
X30677485Y16845047D01*
X30681364Y16766117D01*
X30677485Y16687187D01*
X30665892Y16609025D01*
X30646689Y16532362D01*
X30620066Y16457960D01*
X30586280Y16386525D01*
X30545656Y16318746D01*
X30498582Y16255275D01*
X30445513Y16196721D01*
X30386959Y16143652D01*
X30323488Y16096578D01*
X30255709Y16055954D01*
X30184274Y16022168D01*
X30109872Y15995545D01*
X30033209Y15976342D01*
X29955047Y15964749D01*
X29876117Y15960870D01*
D02*
G37*
%LPC*%
G36*
X25250000Y1694753D02*
X25151467Y1699595D01*
X25053890Y1714068D01*
X24958188Y1738040D01*
X24865316Y1771271D01*
X24776121Y1813456D01*
X24691515Y1864167D01*
X24612284Y1922930D01*
X24539183Y1989183D01*
X24472930Y2062284D01*
X24414167Y2141515D01*
X24363456Y2226121D01*
X24321271Y2315316D01*
X24288040Y2408188D01*
X24264068Y2503890D01*
X24249595Y2601467D01*
X24244753Y2700000D01*
X24249595Y2798533D01*
X24264068Y2896110D01*
X24288040Y2991812D01*
X24321271Y3084684D01*
X24363456Y3173879D01*
X24414167Y3258485D01*
X24472930Y3337716D01*
X24539183Y3410817D01*
X24612284Y3477070D01*
X24691515Y3535833D01*
X24776121Y3586544D01*
X24865316Y3628729D01*
X24958188Y3661960D01*
X25053890Y3685932D01*
X25151467Y3700405D01*
X25250000Y3705247D01*
X25348533Y3700405D01*
X25446112Y3685932D01*
X25506603Y3670780D01*
X28295000Y6459177D01*
X28295000Y10258283D01*
X28254836Y10302596D01*
X28213613Y10358180D01*
X28178025Y10417556D01*
X28148439Y10480111D01*
X28125122Y10545273D01*
X28108304Y10612416D01*
X28098149Y10680873D01*
X28094753Y10750000D01*
X28098149Y10819127D01*
X28108304Y10887584D01*
X28125122Y10954727D01*
X28148439Y11019889D01*
X28178025Y11082444D01*
X28213613Y11141820D01*
X28254832Y11197398D01*
X28301315Y11248685D01*
X28352602Y11295168D01*
X28408180Y11336387D01*
X28467556Y11371975D01*
X28530111Y11401561D01*
X28595273Y11424878D01*
X28662416Y11441696D01*
X28730873Y11451851D01*
X28800000Y11455247D01*
X28869127Y11451851D01*
X28937584Y11441696D01*
X29004727Y11424878D01*
X29069889Y11401561D01*
X29132444Y11371975D01*
X29191820Y11336387D01*
X29247398Y11295168D01*
X29298685Y11248685D01*
X29345168Y11197398D01*
X29386387Y11141820D01*
X29421975Y11082444D01*
X29451561Y11019889D01*
X29474878Y10954727D01*
X29491696Y10887584D01*
X29501851Y10819127D01*
X29505247Y10750000D01*
X29501851Y10680873D01*
X29491696Y10612416D01*
X29474878Y10545273D01*
X29451561Y10480111D01*
X29421975Y10417556D01*
X29386387Y10358180D01*
X29345164Y10302596D01*
X29305000Y10258283D01*
X29305000Y6239926D01*
X29296269Y6151285D01*
X29267475Y6056364D01*
X29220716Y5968885D01*
X29158284Y5892811D01*
X29150507Y5886330D01*
X26220780Y2956603D01*
X26235932Y2896112D01*
X26250405Y2798533D01*
X26255247Y2700000D01*
X26250405Y2601467D01*
X26235932Y2503890D01*
X26211960Y2408188D01*
X26178729Y2315316D01*
X26136544Y2226121D01*
X26085833Y2141515D01*
X26027070Y2062284D01*
X25960817Y1989183D01*
X25887716Y1922930D01*
X25808485Y1864167D01*
X25723879Y1813456D01*
X25634684Y1771271D01*
X25541812Y1738040D01*
X25446110Y1714068D01*
X25348533Y1699595D01*
X25250000Y1694753D01*
D02*
G37*
%LPC*%
G36*
X42460000Y4044753D02*
X42376170Y4048871D01*
X42293152Y4061186D01*
X42211730Y4081581D01*
X42132707Y4109857D01*
X42056847Y4145737D01*
X41984850Y4188889D01*
X41917433Y4238890D01*
X41855249Y4295249D01*
X41798890Y4357433D01*
X41748889Y4424850D01*
X41705737Y4496847D01*
X41669857Y4572707D01*
X41641581Y4651730D01*
X41621186Y4733152D01*
X41608871Y4816170D01*
X41604753Y4900000D01*
X41608871Y4983830D01*
X41621186Y5066848D01*
X41641581Y5148270D01*
X41669857Y5227293D01*
X41705737Y5303153D01*
X41748889Y5375150D01*
X41798890Y5442567D01*
X41855249Y5504751D01*
X41917433Y5561110D01*
X41984850Y5611111D01*
X42056847Y5654263D01*
X42132707Y5690143D01*
X42211730Y5718419D01*
X42293152Y5738814D01*
X42376170Y5751129D01*
X42460000Y5755247D01*
X42543830Y5751129D01*
X42626848Y5738814D01*
X42708270Y5718419D01*
X42787293Y5690143D01*
X42863153Y5654263D01*
X42935150Y5611111D01*
X43002567Y5561110D01*
X43064751Y5504751D01*
X43121110Y5442567D01*
X43171111Y5375150D01*
X43214263Y5303153D01*
X43250143Y5227293D01*
X43278419Y5148270D01*
X43298814Y5066848D01*
X43311129Y4983830D01*
X43315247Y4900000D01*
X43311129Y4816170D01*
X43298814Y4733152D01*
X43278419Y4651730D01*
X43250143Y4572707D01*
X43214263Y4496847D01*
X43171111Y4424850D01*
X43121110Y4357433D01*
X43064751Y4295249D01*
X43002567Y4238890D01*
X42935150Y4188889D01*
X42863153Y4145737D01*
X42787293Y4109857D01*
X42708270Y4081581D01*
X42626848Y4061186D01*
X42543830Y4048871D01*
X42460000Y4044753D01*
D02*
G37*
%LPC*%
G36*
X47540000Y4044753D02*
X47456170Y4048871D01*
X47373152Y4061186D01*
X47291730Y4081581D01*
X47212707Y4109857D01*
X47136847Y4145737D01*
X47064850Y4188889D01*
X46997433Y4238890D01*
X46935249Y4295249D01*
X46878890Y4357433D01*
X46828889Y4424850D01*
X46785737Y4496847D01*
X46749857Y4572707D01*
X46721581Y4651730D01*
X46701186Y4733152D01*
X46688871Y4816170D01*
X46684753Y4900000D01*
X46688871Y4983830D01*
X46701186Y5066848D01*
X46721581Y5148270D01*
X46749857Y5227293D01*
X46785737Y5303153D01*
X46828889Y5375150D01*
X46878890Y5442567D01*
X46935249Y5504751D01*
X46997433Y5561110D01*
X47064850Y5611111D01*
X47136847Y5654263D01*
X47212707Y5690143D01*
X47291730Y5718419D01*
X47373152Y5738814D01*
X47456170Y5751129D01*
X47540000Y5755247D01*
X47623830Y5751129D01*
X47706848Y5738814D01*
X47788270Y5718419D01*
X47867293Y5690143D01*
X47943153Y5654263D01*
X48015150Y5611111D01*
X48082567Y5561110D01*
X48144751Y5504751D01*
X48201110Y5442567D01*
X48251111Y5375150D01*
X48294263Y5303153D01*
X48330143Y5227293D01*
X48358419Y5148270D01*
X48378814Y5066848D01*
X48391129Y4983830D01*
X48395247Y4900000D01*
X48391129Y4816170D01*
X48378814Y4733152D01*
X48358419Y4651730D01*
X48330143Y4572707D01*
X48294263Y4496847D01*
X48251111Y4424850D01*
X48201110Y4357433D01*
X48144751Y4295249D01*
X48082567Y4238890D01*
X48015150Y4188889D01*
X47943153Y4145737D01*
X47867293Y4109857D01*
X47788270Y4081581D01*
X47706848Y4061186D01*
X47623830Y4048871D01*
X47540000Y4044753D01*
D02*
G37*
%LPC*%
G36*
X4850000Y2724753D02*
X4746568Y2729834D01*
X4644133Y2745029D01*
X4543671Y2770194D01*
X4446181Y2805077D01*
X4352559Y2849355D01*
X4263733Y2902596D01*
X4180563Y2964280D01*
X4103828Y3033828D01*
X4034280Y3110563D01*
X3972596Y3193733D01*
X3919355Y3282559D01*
X3875077Y3376181D01*
X3840194Y3473671D01*
X3815029Y3574133D01*
X3799834Y3676568D01*
X3794753Y3780000D01*
X3799834Y3883432D01*
X3815029Y3985867D01*
X3840194Y4086329D01*
X3875077Y4183819D01*
X3919355Y4277441D01*
X3972596Y4366267D01*
X4034280Y4449437D01*
X4103828Y4526172D01*
X4180563Y4595720D01*
X4263733Y4657404D01*
X4352559Y4710645D01*
X4446181Y4754923D01*
X4543671Y4789806D01*
X4644133Y4814971D01*
X4746568Y4830166D01*
X4850000Y4835247D01*
X4953432Y4830166D01*
X5055867Y4814971D01*
X5156329Y4789806D01*
X5253819Y4754923D01*
X5347441Y4710645D01*
X5436267Y4657404D01*
X5519437Y4595720D01*
X5596172Y4526172D01*
X5665720Y4449437D01*
X5727404Y4366267D01*
X5780645Y4277441D01*
X5824923Y4183819D01*
X5859806Y4086329D01*
X5884971Y3985867D01*
X5900166Y3883432D01*
X5905247Y3780000D01*
X5900166Y3676568D01*
X5884971Y3574133D01*
X5859806Y3473671D01*
X5824923Y3376181D01*
X5780645Y3282559D01*
X5727404Y3193733D01*
X5665720Y3110563D01*
X5596172Y3033828D01*
X5519437Y2964280D01*
X5436267Y2902596D01*
X5347441Y2849355D01*
X5253819Y2805077D01*
X5156329Y2770194D01*
X5055867Y2745029D01*
X4953432Y2729834D01*
X4850000Y2724753D01*
D02*
G37*
%LPC*%
G36*
X52150000Y2724753D02*
X52046568Y2729834D01*
X51944133Y2745029D01*
X51843671Y2770194D01*
X51746181Y2805077D01*
X51652559Y2849355D01*
X51563733Y2902596D01*
X51480563Y2964280D01*
X51403828Y3033828D01*
X51334280Y3110563D01*
X51272596Y3193733D01*
X51219355Y3282559D01*
X51175077Y3376181D01*
X51140194Y3473671D01*
X51115029Y3574133D01*
X51099834Y3676568D01*
X51094753Y3780000D01*
X51099834Y3883432D01*
X51115029Y3985867D01*
X51140194Y4086329D01*
X51175077Y4183819D01*
X51219355Y4277441D01*
X51272596Y4366267D01*
X51334280Y4449437D01*
X51403828Y4526172D01*
X51480563Y4595720D01*
X51563733Y4657404D01*
X51652559Y4710645D01*
X51746181Y4754923D01*
X51843671Y4789806D01*
X51944133Y4814971D01*
X52046568Y4830166D01*
X52150000Y4835247D01*
X52253432Y4830166D01*
X52355867Y4814971D01*
X52456329Y4789806D01*
X52553819Y4754923D01*
X52647441Y4710645D01*
X52736267Y4657404D01*
X52819437Y4595720D01*
X52896172Y4526172D01*
X52965720Y4449437D01*
X53027404Y4366267D01*
X53080645Y4277441D01*
X53124923Y4183819D01*
X53159806Y4086329D01*
X53184971Y3985867D01*
X53200166Y3883432D01*
X53205247Y3780000D01*
X53200166Y3676568D01*
X53184971Y3574133D01*
X53159806Y3473671D01*
X53124923Y3376181D01*
X53080645Y3282559D01*
X53027404Y3193733D01*
X52965720Y3110563D01*
X52896172Y3033828D01*
X52819437Y2964280D01*
X52736267Y2902596D01*
X52647441Y2849355D01*
X52553819Y2805077D01*
X52456329Y2770194D01*
X52355867Y2745029D01*
X52253432Y2729834D01*
X52150000Y2724753D01*
D02*
G37*
%LPC*%
G36*
X7250000Y3880000D02*
X6304672Y3880000D01*
X6304816Y3882942D01*
X6319939Y3984890D01*
X6344983Y4084873D01*
X6379703Y4181907D01*
X6423772Y4275085D01*
X6476755Y4363482D01*
X6538150Y4446261D01*
X6607368Y4522632D01*
X6683739Y4591850D01*
X6766518Y4653245D01*
X6854915Y4706228D01*
X6948093Y4750297D01*
X7045127Y4785017D01*
X7145110Y4810061D01*
X7247058Y4825184D01*
X7250000Y4825328D01*
X7250000Y3880000D01*
D02*
G37*
%LPC*%
G36*
X8395328Y3880000D02*
X7450000Y3880000D01*
X7450000Y4825328D01*
X7452942Y4825184D01*
X7554890Y4810061D01*
X7654873Y4785017D01*
X7751907Y4750297D01*
X7845085Y4706228D01*
X7933482Y4653245D01*
X8016261Y4591850D01*
X8092632Y4522632D01*
X8161850Y4446261D01*
X8223245Y4363482D01*
X8276228Y4275085D01*
X8320297Y4181907D01*
X8355017Y4084873D01*
X8380061Y3984890D01*
X8395184Y3882942D01*
X8395328Y3880000D01*
D02*
G37*
%LPC*%
G36*
X54550000Y3880000D02*
X53604672Y3880000D01*
X53604816Y3882942D01*
X53619939Y3984890D01*
X53644983Y4084873D01*
X53679703Y4181907D01*
X53723772Y4275085D01*
X53776755Y4363482D01*
X53838150Y4446261D01*
X53907368Y4522632D01*
X53983739Y4591850D01*
X54066518Y4653245D01*
X54154915Y4706228D01*
X54248093Y4750297D01*
X54345127Y4785017D01*
X54445110Y4810061D01*
X54547058Y4825184D01*
X54550000Y4825328D01*
X54550000Y3880000D01*
D02*
G37*
%LPC*%
G36*
X55695328Y3880000D02*
X54750000Y3880000D01*
X54750000Y4825328D01*
X54752942Y4825184D01*
X54854890Y4810061D01*
X54954873Y4785017D01*
X55051907Y4750297D01*
X55145085Y4706228D01*
X55233482Y4653245D01*
X55316261Y4591850D01*
X55392632Y4522632D01*
X55461850Y4446261D01*
X55523245Y4363482D01*
X55576228Y4275085D01*
X55620297Y4181907D01*
X55655017Y4084873D01*
X55680061Y3984890D01*
X55695184Y3882942D01*
X55695328Y3880000D01*
D02*
G37*
%LPC*%
G36*
X30740000Y2374753D02*
X30636568Y2379834D01*
X30534133Y2395029D01*
X30433671Y2420194D01*
X30336181Y2455077D01*
X30242559Y2499355D01*
X30153733Y2552596D01*
X30070563Y2614280D01*
X29993828Y2683828D01*
X29924280Y2760563D01*
X29862596Y2843733D01*
X29809355Y2932559D01*
X29765077Y3026181D01*
X29730194Y3123671D01*
X29705029Y3224133D01*
X29689834Y3326568D01*
X29684753Y3430000D01*
X29689834Y3533432D01*
X29705029Y3635867D01*
X29730194Y3736329D01*
X29765077Y3833819D01*
X29809355Y3927441D01*
X29862596Y4016267D01*
X29924280Y4099437D01*
X29993828Y4176172D01*
X30070563Y4245720D01*
X30153733Y4307404D01*
X30242559Y4360645D01*
X30336181Y4404923D01*
X30433671Y4439806D01*
X30534133Y4464971D01*
X30636568Y4480166D01*
X30740000Y4485247D01*
X30843432Y4480166D01*
X30945867Y4464971D01*
X31046329Y4439806D01*
X31143819Y4404923D01*
X31237441Y4360645D01*
X31326267Y4307404D01*
X31409437Y4245720D01*
X31486172Y4176172D01*
X31555720Y4099437D01*
X31617404Y4016267D01*
X31670645Y3927441D01*
X31714923Y3833819D01*
X31749806Y3736329D01*
X31774971Y3635867D01*
X31790166Y3533432D01*
X31795247Y3430000D01*
X31790166Y3326568D01*
X31774971Y3224133D01*
X31749806Y3123671D01*
X31714923Y3026181D01*
X31670645Y2932559D01*
X31617404Y2843733D01*
X31555720Y2760563D01*
X31486172Y2683828D01*
X31409437Y2614280D01*
X31326267Y2552596D01*
X31237441Y2499355D01*
X31143819Y2455077D01*
X31046329Y2420194D01*
X30945867Y2395029D01*
X30843432Y2379834D01*
X30740000Y2374753D01*
D02*
G37*
%LPC*%
G36*
X38260000Y3530000D02*
X37314672Y3530000D01*
X37314816Y3532942D01*
X37329939Y3634890D01*
X37354983Y3734873D01*
X37389703Y3831907D01*
X37433772Y3925085D01*
X37486755Y4013482D01*
X37548150Y4096261D01*
X37617368Y4172632D01*
X37693739Y4241850D01*
X37776518Y4303245D01*
X37864915Y4356228D01*
X37958093Y4400297D01*
X38055127Y4435017D01*
X38155110Y4460061D01*
X38257058Y4475184D01*
X38260000Y4475328D01*
X38260000Y3530000D01*
D02*
G37*
%LPC*%
G36*
X39405328Y3530000D02*
X38460000Y3530000D01*
X38460000Y4475328D01*
X38462942Y4475184D01*
X38564890Y4460061D01*
X38664873Y4435017D01*
X38761907Y4400297D01*
X38855085Y4356228D01*
X38943482Y4303245D01*
X39026261Y4241850D01*
X39102632Y4172632D01*
X39171850Y4096261D01*
X39233245Y4013482D01*
X39286228Y3925085D01*
X39330297Y3831907D01*
X39365017Y3734873D01*
X39390061Y3634890D01*
X39405184Y3532942D01*
X39405328Y3530000D01*
D02*
G37*
%LPC*%
G36*
X20170000Y1694753D02*
X20071467Y1699595D01*
X19973890Y1714068D01*
X19878188Y1738040D01*
X19785316Y1771271D01*
X19696121Y1813456D01*
X19611515Y1864167D01*
X19532284Y1922930D01*
X19459183Y1989183D01*
X19392930Y2062284D01*
X19334167Y2141515D01*
X19283456Y2226121D01*
X19241271Y2315316D01*
X19208040Y2408188D01*
X19184068Y2503890D01*
X19169595Y2601467D01*
X19164753Y2700000D01*
X19169595Y2798533D01*
X19184068Y2896110D01*
X19208040Y2991812D01*
X19241271Y3084684D01*
X19283456Y3173879D01*
X19334167Y3258485D01*
X19392930Y3337716D01*
X19459183Y3410817D01*
X19532284Y3477070D01*
X19611515Y3535833D01*
X19696121Y3586544D01*
X19785316Y3628729D01*
X19878188Y3661960D01*
X19973890Y3685932D01*
X20071467Y3700405D01*
X20170000Y3705247D01*
X20268533Y3700405D01*
X20366110Y3685932D01*
X20461812Y3661960D01*
X20554684Y3628729D01*
X20643879Y3586544D01*
X20728485Y3535833D01*
X20807716Y3477070D01*
X20880817Y3410817D01*
X20947070Y3337716D01*
X21005833Y3258485D01*
X21056544Y3173879D01*
X21098729Y3084684D01*
X21131960Y2991812D01*
X21155932Y2896110D01*
X21170405Y2798533D01*
X21175247Y2700000D01*
X21170405Y2601467D01*
X21155932Y2503890D01*
X21131960Y2408188D01*
X21098729Y2315316D01*
X21056544Y2226121D01*
X21005833Y2141515D01*
X20947070Y2062284D01*
X20880817Y1989183D01*
X20807716Y1922930D01*
X20728485Y1864167D01*
X20643879Y1813456D01*
X20554684Y1771271D01*
X20461812Y1738040D01*
X20366110Y1714068D01*
X20268533Y1699595D01*
X20170000Y1694753D01*
D02*
G37*
%LPC*%
G36*
X22610000Y2800000D02*
X21714867Y2800000D01*
X21728979Y2895143D01*
X21752829Y2990353D01*
X21785897Y3082775D01*
X21827867Y3171511D01*
X21878329Y3255704D01*
X21936799Y3334540D01*
X22002723Y3407277D01*
X22075460Y3473201D01*
X22154296Y3531671D01*
X22238489Y3582133D01*
X22327225Y3624103D01*
X22419647Y3657171D01*
X22514857Y3681021D01*
X22610000Y3695133D01*
X22610000Y2800000D01*
D02*
G37*
%LPC*%
G36*
X23705133Y2800000D02*
X22810000Y2800000D01*
X22810000Y3695133D01*
X22905143Y3681021D01*
X23000353Y3657171D01*
X23092775Y3624103D01*
X23181511Y3582133D01*
X23265704Y3531671D01*
X23344540Y3473201D01*
X23417277Y3407277D01*
X23483201Y3334540D01*
X23541671Y3255704D01*
X23592133Y3171511D01*
X23634103Y3082775D01*
X23667171Y2990353D01*
X23691021Y2895143D01*
X23705133Y2800000D01*
D02*
G37*
%LPC*%
G36*
X54750000Y2734672D02*
X54750000Y3680000D01*
X55695328Y3680000D01*
X55695184Y3677058D01*
X55680061Y3575110D01*
X55655017Y3475127D01*
X55620297Y3378093D01*
X55576228Y3284915D01*
X55523245Y3196518D01*
X55461850Y3113739D01*
X55392632Y3037368D01*
X55316261Y2968150D01*
X55233482Y2906755D01*
X55145085Y2853772D01*
X55051907Y2809703D01*
X54954873Y2774983D01*
X54854890Y2749939D01*
X54752942Y2734816D01*
X54750000Y2734672D01*
D02*
G37*
%LPC*%
G36*
X54550000Y2734672D02*
X54547058Y2734816D01*
X54445110Y2749939D01*
X54345127Y2774983D01*
X54248093Y2809703D01*
X54154915Y2853772D01*
X54066518Y2906755D01*
X53983739Y2968150D01*
X53907368Y3037368D01*
X53838150Y3113739D01*
X53776755Y3196518D01*
X53723772Y3284915D01*
X53679703Y3378093D01*
X53644983Y3475127D01*
X53619939Y3575110D01*
X53604816Y3677058D01*
X53604672Y3680000D01*
X54550000Y3680000D01*
X54550000Y2734672D01*
D02*
G37*
%LPC*%
G36*
X7450000Y2734672D02*
X7450000Y3680000D01*
X8395328Y3680000D01*
X8395184Y3677058D01*
X8380061Y3575110D01*
X8355017Y3475127D01*
X8320297Y3378093D01*
X8276228Y3284915D01*
X8223245Y3196518D01*
X8161850Y3113739D01*
X8092632Y3037368D01*
X8016261Y2968150D01*
X7933482Y2906755D01*
X7845085Y2853772D01*
X7751907Y2809703D01*
X7654873Y2774983D01*
X7554890Y2749939D01*
X7452942Y2734816D01*
X7450000Y2734672D01*
D02*
G37*
%LPC*%
G36*
X7250000Y2734672D02*
X7247058Y2734816D01*
X7145110Y2749939D01*
X7045127Y2774983D01*
X6948093Y2809703D01*
X6854915Y2853772D01*
X6766518Y2906755D01*
X6683739Y2968150D01*
X6607368Y3037368D01*
X6538150Y3113739D01*
X6476755Y3196518D01*
X6423772Y3284915D01*
X6379703Y3378093D01*
X6344983Y3475127D01*
X6319939Y3575110D01*
X6304816Y3677058D01*
X6304672Y3680000D01*
X7250000Y3680000D01*
X7250000Y2734672D01*
D02*
G37*
%LPC*%
G36*
X38460000Y2384672D02*
X38460000Y3330000D01*
X39405328Y3330000D01*
X39405184Y3327058D01*
X39390061Y3225110D01*
X39365017Y3125127D01*
X39330297Y3028093D01*
X39286228Y2934915D01*
X39233245Y2846518D01*
X39171850Y2763739D01*
X39102632Y2687368D01*
X39026261Y2618150D01*
X38943482Y2556755D01*
X38855085Y2503772D01*
X38761907Y2459703D01*
X38664873Y2424983D01*
X38564890Y2399939D01*
X38462942Y2384816D01*
X38460000Y2384672D01*
D02*
G37*
%LPC*%
G36*
X38260000Y2384672D02*
X38257058Y2384816D01*
X38155110Y2399939D01*
X38055127Y2424983D01*
X37958093Y2459703D01*
X37864915Y2503772D01*
X37776518Y2556755D01*
X37693739Y2618150D01*
X37617368Y2687368D01*
X37548150Y2763739D01*
X37486755Y2846518D01*
X37433772Y2934915D01*
X37389703Y3028093D01*
X37354983Y3125127D01*
X37329939Y3225110D01*
X37314816Y3327058D01*
X37314672Y3330000D01*
X38260000Y3330000D01*
X38260000Y2384672D01*
D02*
G37*
%LPC*%
G36*
X45000000Y1504753D02*
X44916170Y1508871D01*
X44833152Y1521186D01*
X44751730Y1541581D01*
X44672707Y1569857D01*
X44596847Y1605737D01*
X44524850Y1648889D01*
X44457433Y1698890D01*
X44395249Y1755249D01*
X44338890Y1817433D01*
X44288889Y1884850D01*
X44245737Y1956847D01*
X44209857Y2032707D01*
X44181581Y2111730D01*
X44161186Y2193152D01*
X44148871Y2276170D01*
X44144753Y2360000D01*
X44148871Y2443830D01*
X44161186Y2526848D01*
X44181581Y2608270D01*
X44209857Y2687293D01*
X44245737Y2763153D01*
X44288889Y2835150D01*
X44338890Y2902567D01*
X44395249Y2964751D01*
X44457433Y3021110D01*
X44524850Y3071111D01*
X44596847Y3114263D01*
X44672707Y3150143D01*
X44751730Y3178419D01*
X44833152Y3198814D01*
X44916170Y3211129D01*
X45000000Y3215247D01*
X45083830Y3211129D01*
X45166848Y3198814D01*
X45248270Y3178419D01*
X45327293Y3150143D01*
X45403153Y3114263D01*
X45475150Y3071111D01*
X45542567Y3021110D01*
X45604751Y2964751D01*
X45661110Y2902567D01*
X45711111Y2835150D01*
X45754263Y2763153D01*
X45790143Y2687293D01*
X45818419Y2608270D01*
X45838814Y2526848D01*
X45851129Y2443830D01*
X45855247Y2360000D01*
X45851129Y2276170D01*
X45838814Y2193152D01*
X45818419Y2111730D01*
X45790143Y2032707D01*
X45754263Y1956847D01*
X45711111Y1884850D01*
X45661110Y1817433D01*
X45604751Y1755249D01*
X45542567Y1698890D01*
X45475150Y1648889D01*
X45403153Y1605737D01*
X45327293Y1569857D01*
X45248270Y1541581D01*
X45166848Y1521186D01*
X45083830Y1508871D01*
X45000000Y1504753D01*
D02*
G37*
%LPC*%
G36*
X22810000Y1704867D02*
X22810000Y2600000D01*
X23705133Y2600000D01*
X23691021Y2504857D01*
X23667171Y2409647D01*
X23634103Y2317225D01*
X23592133Y2228489D01*
X23541671Y2144296D01*
X23483201Y2065460D01*
X23417277Y1992723D01*
X23344540Y1926799D01*
X23265704Y1868329D01*
X23181511Y1817867D01*
X23092775Y1775897D01*
X23000353Y1742829D01*
X22905143Y1718979D01*
X22810000Y1704867D01*
D02*
G37*
%LPC*%
G36*
X22610000Y1704867D02*
X22514857Y1718979D01*
X22419647Y1742829D01*
X22327225Y1775897D01*
X22238489Y1817867D01*
X22154296Y1868329D01*
X22075460Y1926799D01*
X22002723Y1992723D01*
X21936799Y2065460D01*
X21878329Y2144296D01*
X21827867Y2228489D01*
X21785897Y2317225D01*
X21752829Y2409647D01*
X21728979Y2504857D01*
X21714867Y2600000D01*
X22610000Y2600000D01*
X22610000Y1704867D01*
D02*
G37*
G01*
%LPD*%
D10*
X35220000Y56470000D02*
X35220000Y58620000D01*
D11*
X31730000Y33400000D02*
X31730000Y31970000D01*
D10*
X48000000Y45360078D02*
X55400000Y37960078D01*
D10*
X13600000Y47400000D02*
X13600000Y42550000D01*
D11*
X31730000Y31970000D02*
X33200000Y30500000D01*
D10*
X43000000Y46600000D02*
X44560000Y46600000D01*
D11*
X41050000Y23680000D02*
X41050000Y26560000D01*
D10*
X48000000Y46600000D02*
X48000000Y45360078D01*
D11*
X27713000Y18930000D02*
X11690000Y18930000D01*
D10*
X31320000Y53230000D02*
X41910000Y53230000D01*
D10*
X33580000Y46600000D02*
X38230000Y41950000D01*
D11*
X41050000Y26560000D02*
X43060000Y28570000D01*
D12*
X25250000Y2700000D02*
X28800000Y6250000D01*
D10*
X16000000Y46600000D02*
X33580000Y46600000D01*
D10*
X33140000Y54390000D02*
X35220000Y56470000D01*
D10*
X23000000Y32700000D02*
X23000000Y23800000D01*
D11*
X11690000Y18930000D02*
X9630000Y20990000D01*
D10*
X35220000Y58620000D02*
X35250000Y58650000D01*
D10*
X16100000Y42550000D02*
X17900000Y40750000D01*
D11*
X38880000Y21510000D02*
X41050000Y23680000D01*
D10*
X21060000Y25590000D02*
X21060000Y33560000D01*
D11*
X33200000Y30500000D02*
X43830000Y30500000D01*
D12*
X28800000Y6250000D02*
X28800000Y10750000D01*
D10*
X25770000Y35490000D02*
X25770000Y43930000D01*
D11*
X46150000Y28180000D02*
X46150000Y14810000D01*
D10*
X7450000Y53550000D02*
X13600000Y47400000D01*
D11*
X28910000Y21510000D02*
X38880000Y21510000D01*
D10*
X21060000Y33560000D02*
X24090000Y36590000D01*
D10*
X7450000Y58650000D02*
X7450000Y53550000D01*
D10*
X17900000Y40750000D02*
X17900000Y38300000D01*
D10*
X17900000Y38300000D02*
X16400000Y36800000D01*
D11*
X29876117Y16766117D02*
X29876117Y16766883D01*
D10*
X25770000Y35470000D02*
X23000000Y32700000D01*
D11*
X43830000Y30500000D02*
X46150000Y28180000D01*
D10*
X44560000Y46600000D02*
X46380000Y44780000D01*
D10*
X24090000Y36590000D02*
X24090000Y42000000D01*
D10*
X38230000Y41950000D02*
X44700000Y41950000D01*
D11*
X29876117Y16766883D02*
X27713000Y18930000D01*
D10*
X25770000Y35490000D02*
X25770000Y35470000D01*
G75*
D13*
X52150000Y3780000D03*
D13*
X54650000Y3780000D03*
D14*
X23750000Y58650000D03*
D14*
X23750000Y71100000D03*
D14*
X7450000Y71100000D03*
D14*
X23750000Y64850000D03*
D14*
X7450000Y64850000D03*
D14*
X7450000Y58650000D03*
D15*
X6000000Y46600000D03*
D15*
X16000000Y46600000D03*
D15*
X11000000Y46600000D03*
D15*
X43000000Y46600000D03*
D15*
X53000000Y46600000D03*
D15*
X48000000Y46600000D03*
D16*
X30750000Y57800000D03*
D16*
X28250000Y57800000D03*
D13*
X4850000Y3780000D03*
D13*
X7350000Y3780000D03*
D17*
X11100000Y39250000D03*
D17*
X13600000Y42550000D03*
D17*
X16100000Y42550000D03*
D17*
X11100000Y42550000D03*
D17*
X13600000Y39250000D03*
D17*
X16100000Y39250000D03*
D18*
X30740000Y3430000D03*
D18*
X38360000Y3430000D03*
D17*
X20170000Y2700000D03*
D17*
X22710000Y2700000D03*
D17*
X25250000Y2700000D03*
D19*
X47540000Y4900000D03*
D19*
X45000000Y2360000D03*
D19*
X42460000Y4900000D03*
D14*
X51550000Y58650000D03*
D14*
X51550000Y71100000D03*
D14*
X35250000Y71100000D03*
D14*
X51550000Y64850000D03*
D14*
X35250000Y64850000D03*
D14*
X35250000Y58650000D03*
D20*
X7400000Y7800000D03*
D20*
X24200000Y29100000D03*
D20*
X4200000Y44700000D03*
D21*
X32665000Y74633000D03*
D20*
X51664000Y56300000D03*
D20*
X44631000Y14230000D03*
D20*
X51664000Y7800000D03*
D20*
X22000000Y17500000D03*
D20*
X47864000Y14300000D03*
D21*
X57997000Y68300000D03*
D20*
X15150000Y6950000D03*
D21*
X26332000Y74633000D03*
D20*
X32665000Y20300000D03*
D20*
X25570000Y5410000D03*
D20*
X32040000Y14050000D03*
D21*
X25770000Y43930000D03*
D20*
X31800000Y54700000D03*
D20*
X39500000Y24923883D03*
D21*
X57997000Y7800000D03*
D20*
X27500000Y31900000D03*
D20*
X32270000Y50800000D03*
D20*
X32980000Y41330000D03*
D20*
X13666000Y56300000D03*
D21*
X57997000Y14300000D03*
D20*
X37430000Y34630000D03*
D20*
X19999000Y68300000D03*
D20*
X43300000Y24270000D03*
D20*
X45331000Y68300000D03*
D20*
X45331000Y7800000D03*
D20*
X33200000Y23500000D03*
D20*
X19999000Y20300000D03*
D20*
X27932000Y20200000D03*
D20*
X27500000Y26400000D03*
D20*
X40930000Y48550000D03*
D20*
X32270000Y44500000D03*
D20*
X30400000Y52400000D03*
D21*
X38998000Y74633000D03*
D20*
X12330000Y23100000D03*
D20*
X7333000Y14300000D03*
D20*
X26332000Y56300000D03*
D20*
X32665000Y62300000D03*
D21*
X46380000Y44780000D03*
D21*
X57997000Y20300000D03*
D20*
X10100000Y40900000D03*
D20*
X13700000Y17700000D03*
D20*
X53240000Y25130000D03*
D20*
X7140000Y35400000D03*
D20*
X13666000Y14300000D03*
D22*
X29876117Y16766117D03*
D20*
X24200000Y23700000D03*
D21*
X1000000Y50300000D03*
D21*
X21060000Y25590000D03*
D23*
X28800000Y10750000D03*
D21*
X33140000Y54390000D03*
D20*
X24000000Y44300000D03*
D21*
X57997000Y38300000D03*
D20*
X34470000Y44500000D03*
D20*
X41700000Y21970000D03*
D21*
X51664000Y900000D03*
D21*
X19999000Y900000D03*
D20*
X14800000Y37300000D03*
D20*
X17720000Y45660000D03*
D20*
X25990000Y14010000D03*
D20*
X12970000Y32220000D03*
D20*
X48100000Y20500000D03*
D20*
X39800000Y31690000D03*
D20*
X51650000Y12500000D03*
D20*
X7333000Y62300000D03*
D21*
X7333000Y74633000D03*
D20*
X9830000Y45160000D03*
D20*
X45100000Y40000000D03*
D20*
X23000000Y34030000D03*
D22*
X9630000Y20990000D03*
D20*
X38750000Y12250000D03*
D20*
X7633000Y49900000D03*
D20*
X3760000Y41310000D03*
D20*
X42000000Y44300000D03*
D21*
X1000000Y7800000D03*
D21*
X57997000Y44300000D03*
D20*
X27500000Y29300000D03*
D20*
X37330000Y48550000D03*
D20*
X44900000Y21970000D03*
D21*
X55400000Y37960078D03*
D20*
X11100000Y36100000D03*
D20*
X32665000Y68300000D03*
D20*
X40830000Y34630000D03*
D20*
X50600000Y38300000D03*
D20*
X8770000Y29880000D03*
D21*
X1000000Y68300000D03*
D21*
X24090000Y42000000D03*
D20*
X19699000Y50800000D03*
D20*
X39498000Y20300000D03*
D20*
X54000000Y44600000D03*
D20*
X53690000Y38330000D03*
D20*
X26332000Y68300000D03*
D20*
X22800000Y38300000D03*
D20*
X12400000Y40900000D03*
D20*
X24930000Y38300000D03*
D20*
X13666000Y50300000D03*
D20*
X30300000Y26400000D03*
D21*
X26332000Y900000D03*
D20*
X33370000Y49100000D03*
D20*
X45331000Y56300000D03*
D20*
X37100000Y44500000D03*
D20*
X35440000Y14050000D03*
D20*
X54430000Y30570000D03*
D20*
X32665000Y38300000D03*
D20*
X53010000Y19660000D03*
D21*
X57997000Y62300000D03*
D20*
X20100000Y30050000D03*
D21*
X31320000Y53230000D03*
D21*
X41910000Y53230000D03*
D21*
X1000000Y900000D03*
D20*
X34280000Y54100000D03*
D20*
X8533000Y56300000D03*
D20*
X32265000Y8500000D03*
D20*
X34470000Y50800000D03*
D21*
X13666000Y74633000D03*
D20*
X8400000Y36650000D03*
D20*
X22020000Y24770000D03*
D21*
X23000000Y23800000D03*
D20*
X51664000Y50300000D03*
D21*
X7333000Y900000D03*
D20*
X22190000Y41439999D03*
D20*
X38998000Y68300000D03*
D20*
X41500000Y29100000D03*
D21*
X19999000Y74633000D03*
D20*
X28300000Y23100000D03*
D21*
X13666000Y900000D03*
D20*
X36200000Y23500000D03*
D20*
X45131000Y44300000D03*
D20*
X19999000Y56300000D03*
D20*
X26332000Y62300000D03*
D20*
X33330000Y28660000D03*
D20*
X7333000Y68300000D03*
D20*
X18400000Y32100000D03*
D20*
X33765000Y33300000D03*
D20*
X45331000Y32300000D03*
D21*
X1000000Y20300000D03*
D20*
X33370000Y42800000D03*
D20*
X5700000Y33900000D03*
D21*
X57997000Y50300000D03*
D20*
X26975000Y38630000D03*
D20*
X51664000Y68300000D03*
D21*
X1000000Y62300000D03*
D21*
X1000000Y56300000D03*
D20*
X13266000Y27060000D03*
D20*
X9600000Y6900000D03*
D20*
X38998000Y56300000D03*
D21*
X57997000Y56300000D03*
D20*
X24200000Y20300000D03*
D21*
X57997000Y32300000D03*
D22*
X43060000Y28570000D03*
D20*
X13666000Y68300000D03*
D20*
X30400000Y32200000D03*
D20*
X26332000Y50300000D03*
D20*
X51760000Y44650000D03*
D20*
X35500000Y18100000D03*
D20*
X42000000Y40000000D03*
D20*
X39130000Y50750000D03*
D20*
X44931000Y26300000D03*
D21*
X51664000Y74633000D03*
D20*
X51664000Y62300000D03*
D20*
X3430000Y28110000D03*
D22*
X46150000Y14810000D03*
D20*
X30300000Y47600000D03*
D20*
X30030000Y42030000D03*
D21*
X32665000Y900000D03*
D20*
X13666000Y20300000D03*
D20*
X19599000Y44300000D03*
D20*
X37100000Y41100000D03*
D20*
X27600000Y9250000D03*
D20*
X7633000Y27200000D03*
D20*
X42050000Y12250000D03*
D20*
X11100000Y25900000D03*
D21*
X16400000Y36800000D03*
D20*
X22000000Y20300000D03*
D20*
X50000000Y44650000D03*
D21*
X1000000Y26300000D03*
D20*
X10570000Y29900000D03*
D20*
X15700000Y29900000D03*
D20*
X17150000Y26210000D03*
D21*
X45331000Y74633000D03*
D20*
X24190000Y16310000D03*
D21*
X1000000Y44300000D03*
D20*
X38998000Y62300000D03*
D20*
X46231000Y50300000D03*
D20*
X45331000Y62300000D03*
D20*
X19999000Y17500000D03*
D20*
X22020000Y28790000D03*
D20*
X24200000Y26400000D03*
D20*
X30400000Y34800000D03*
D20*
X26932000Y44300000D03*
D20*
X50364000Y32300000D03*
D20*
X18199000Y36900000D03*
D22*
X31730000Y33400000D03*
D21*
X57997000Y900000D03*
D21*
X44700000Y41950000D03*
D22*
X28910000Y21510000D03*
D21*
X38998000Y900000D03*
D21*
X1000000Y32300000D03*
D20*
X19999000Y62300000D03*
D20*
X48700000Y25870000D03*
D20*
X13666000Y62300000D03*
D20*
X24232000Y32300000D03*
D20*
X40390000Y14250000D03*
D20*
X38998000Y8050000D03*
D20*
X50650000Y35530000D03*
D20*
X6933000Y45000000D03*
D21*
X1000000Y14300000D03*
D20*
X19999000Y26900000D03*
D20*
X29200000Y4900000D03*
D20*
X27790000Y16310000D03*
D21*
X45331000Y900000D03*
D20*
X2750000Y33700000D03*
D20*
X47300000Y29800000D03*
D21*
X1000000Y38300000D03*
D20*
X19700000Y47500000D03*
D20*
X21900000Y7600000D03*
D21*
X57997000Y26300000D03*
D20*
X7333000Y20300000D03*
M02*
