%FSLAX46Y46*%
%MOMM*%
%ADD10C,0.300000*%
%ADD12C,0.600000*%
%ADD13C,0.700000*%
%ADD11C,0.800000*%
%AMPS40*
1,1,2.100000,0.000000,0.000000*
%
%ADD40PS40*%
%AMPS56*
1,1,1.600000,0.000000,0.000000*
%
%ADD56PS56*%
%AMPS62*
1,1,1.300000,0.000000,0.000000*
%
%ADD62PS62*%
%AMPS37*
1,1,2.200000,0.000000,0.000000*
%
%ADD37PS37*%
%AMPS34*
1,1,1.700000,0.000000,0.000000*
%
%ADD34PS34*%
%AMPS53*
1,1,1.700000,0.000000,0.000000*
%
%ADD53PS53*%
%AMPS57*
1,1,1.700000,0.000000,0.000000*
%
%ADD57PS57*%
%AMPS54*
21,1,1.594948,2.741421,0.000000,0.000000,0.000000*
%
%ADD54PS54*%
%AMPS55*
21,1,1.594948,2.741421,0.000000,0.000000,180.000000*
%
%ADD55PS55*%
%AMPS41*
21,1,1.600000,2.950000,0.000000,0.000000,0.000000*
%
%ADD41PS41*%
%AMPS42*
21,1,1.600000,2.950000,0.000000,0.000000,180.000000*
%
%ADD42PS42*%
%AMPS50*
21,1,0.600000,1.550000,0.000000,0.000000,0.000000*
%
%ADD50PS50*%
%AMPS58*
21,1,0.600000,1.550000,0.000000,0.000000,90.000000*
%
%ADD58PS58*%
%AMPS49*
21,1,0.600000,1.550000,0.000000,0.000000,180.000000*
%
%ADD49PS49*%
%AMPS59*
21,1,0.600000,1.550000,0.000000,0.000000,270.000000*
%
%ADD59PS59*%
%AMPS29*
21,1,1.600000,2.500000,0.000000,0.000000,0.000000*
%
%ADD29PS29*%
%AMPS22*
21,1,1.600000,2.500000,0.000000,0.000000,90.000000*
%
%ADD22PS22*%
%AMPS28*
21,1,1.600000,2.500000,0.000000,0.000000,180.000000*
%
%ADD28PS28*%
%AMPS23*
21,1,1.600000,2.500000,0.000000,0.000000,270.000000*
%
%ADD23PS23*%
%AMPS35*
21,1,0.900000,1.000000,0.000000,0.000000,0.000000*
%
%ADD35PS35*%
%AMPS36*
21,1,0.900000,1.000000,0.000000,0.000000,180.000000*
%
%ADD36PS36*%
%AMPS38*
21,1,0.400000,0.900000,0.000000,0.000000,90.000000*
%
%ADD38PS38*%
%AMPS39*
21,1,0.400000,0.900000,0.000000,0.000000,270.000000*
%
%ADD39PS39*%
%AMPS25*
21,1,0.600000,1.800000,0.000000,0.000000,0.000000*
%
%ADD25PS25*%
%AMPS24*
21,1,0.600000,1.800000,0.000000,0.000000,180.000000*
%
%ADD24PS24*%
%AMPS27*
21,1,0.701421,1.491421,0.000000,0.000000,90.000000*
%
%ADD27PS27*%
%AMPS26*
21,1,0.701421,1.491421,0.000000,0.000000,270.000000*
%
%ADD26PS26*%
%AMPS43*
21,1,1.800000,1.340000,0.000000,0.000000,0.000000*
%
%ADD43PS43*%
%AMPS47*
21,1,1.800000,1.340000,0.000000,0.000000,90.000000*
%
%ADD47PS47*%
%AMPS44*
21,1,1.800000,1.340000,0.000000,0.000000,180.000000*
%
%ADD44PS44*%
%AMPS48*
21,1,1.800000,1.340000,0.000000,0.000000,270.000000*
%
%ADD48PS48*%
%AMPS19*
21,1,1.800000,1.200000,0.000000,0.000000,0.000000*
%
%ADD19PS19*%
%AMPS52*
21,1,1.800000,1.200000,0.000000,0.000000,90.000000*
%
%ADD52PS52*%
%AMPS18*
21,1,1.800000,1.200000,0.000000,0.000000,180.000000*
%
%ADD18PS18*%
%AMPS51*
21,1,1.800000,1.200000,0.000000,0.000000,270.000000*
%
%ADD51PS51*%
%AMPS32*
21,1,0.900000,0.500000,0.000000,0.000000,0.000000*
%
%ADD32PS32*%
%AMPS21*
21,1,0.900000,0.500000,0.000000,0.000000,90.000000*
%
%ADD21PS21*%
%AMPS33*
21,1,0.900000,0.500000,0.000000,0.000000,180.000000*
%
%ADD33PS33*%
%AMPS20*
21,1,0.900000,0.500000,0.000000,0.000000,270.000000*
%
%ADD20PS20*%
%AMPS61*
21,1,1.700000,1.100000,0.000000,0.000000,90.000000*
%
%ADD61PS61*%
%AMPS60*
21,1,1.700000,1.100000,0.000000,0.000000,270.000000*
%
%ADD60PS60*%
%AMPS45*
21,1,0.700000,0.900000,0.000000,0.000000,0.000000*
%
%ADD45PS45*%
%AMPS46*
21,1,0.700000,0.900000,0.000000,0.000000,180.000000*
%
%ADD46PS46*%
%AMPS17*
21,1,0.850000,0.800000,0.000000,0.000000,0.000000*
%
%ADD17PS17*%
%AMPS15*
21,1,0.850000,0.800000,0.000000,0.000000,90.000000*
%
%ADD15PS15*%
%AMPS16*
21,1,0.850000,0.800000,0.000000,0.000000,180.000000*
%
%ADD16PS16*%
%AMPS14*
21,1,0.850000,0.800000,0.000000,0.000000,270.000000*
%
%ADD14PS14*%
%AMPS31*
21,1,1.750000,2.650000,0.000000,0.000000,0.000000*
%
%ADD31PS31*%
%AMPS30*
21,1,1.750000,2.650000,0.000000,0.000000,180.000000*
%
%ADD30PS30*%
%AMPS65*
1,1,1.200000,0.000000,0.000000*
%
%ADD65PS65*%
%AMPS66*
1,1,1.000000,0.000000,0.000000*
%
%ADD66PS66*%
%AMPS67*
1,1,1.100000,0.000000,0.000000*
%
%ADD67PS67*%
%AMPS64*
1,1,0.700000,0.000000,0.000000*
%
%ADD64PS64*%
%AMPS63*
1,1,0.700000,0.000000,0.000000*
%
%ADD63PS63*%
G01*
%LPD*%
G36*
X58640000Y360000D02*
X58640000Y68940000D01*
X52640000Y68940000D01*
X52640000Y70266049D01*
X52575989Y70290740D01*
X52472949Y70177051D01*
X52378034Y70091027D01*
X52275155Y70014726D01*
X52165298Y69948880D01*
X52049490Y69894108D01*
X51928897Y69850958D01*
X51804639Y69819833D01*
X51677936Y69801038D01*
X51550000Y69794753D01*
X51422064Y69801038D01*
X51295361Y69819833D01*
X51171103Y69850958D01*
X51050510Y69894108D01*
X50934702Y69948880D01*
X50824845Y70014726D01*
X50721966Y70091027D01*
X50627051Y70177051D01*
X50541027Y70271966D01*
X50464726Y70374845D01*
X50398880Y70484702D01*
X50344108Y70600510D01*
X50300958Y70721103D01*
X50269833Y70845361D01*
X50251038Y70972064D01*
X50244753Y71100000D01*
X50251038Y71227936D01*
X50269833Y71354639D01*
X50300958Y71478897D01*
X50344108Y71599490D01*
X50398880Y71715298D01*
X50464726Y71825155D01*
X50541027Y71928034D01*
X50627051Y72022949D01*
X50721966Y72108973D01*
X50824845Y72185274D01*
X50934702Y72251120D01*
X51050510Y72305892D01*
X51171103Y72349042D01*
X51295361Y72380167D01*
X51422064Y72398962D01*
X51550000Y72405247D01*
X51677936Y72398962D01*
X51804639Y72380167D01*
X51928897Y72349042D01*
X52049490Y72305892D01*
X52165298Y72251120D01*
X52275155Y72185274D01*
X52378034Y72108973D01*
X52472949Y72022949D01*
X52575989Y71909260D01*
X52640000Y71933951D01*
X52640000Y75940000D01*
X31860000Y75940000D01*
X31860000Y60840000D01*
X27140000Y60840000D01*
X27140000Y75940000D01*
X6360000Y75940000D01*
X6360000Y71926507D01*
X6424010Y71901816D01*
X6530596Y72019414D01*
X6625135Y72105099D01*
X6727626Y72181112D01*
X6837062Y72246705D01*
X6952426Y72301268D01*
X7072556Y72344252D01*
X7196338Y72375257D01*
X7322554Y72393980D01*
X7350000Y72395328D01*
X7350000Y69804672D01*
X7322554Y69806020D01*
X7196338Y69824743D01*
X7072556Y69855748D01*
X6952426Y69898732D01*
X6837062Y69953295D01*
X6727626Y70018888D01*
X6625135Y70094901D01*
X6530596Y70180586D01*
X6424010Y70298184D01*
X6360000Y70273493D01*
X6360000Y68940000D01*
X360000Y68940000D01*
X360000Y360000D01*
X58640000Y360000D01*
D02*
G37*
%LPC*%
G36*
X23750000Y69794753D02*
X23622064Y69801038D01*
X23495361Y69819833D01*
X23371103Y69850958D01*
X23250510Y69894108D01*
X23134702Y69948880D01*
X23024845Y70014726D01*
X22921966Y70091027D01*
X22827051Y70177051D01*
X22741027Y70271966D01*
X22664726Y70374845D01*
X22598880Y70484702D01*
X22544108Y70600510D01*
X22500958Y70721103D01*
X22469833Y70845361D01*
X22451038Y70972064D01*
X22444753Y71100000D01*
X22451038Y71227936D01*
X22469833Y71354639D01*
X22500958Y71478897D01*
X22544108Y71599490D01*
X22598880Y71715298D01*
X22664726Y71825155D01*
X22741027Y71928034D01*
X22827051Y72022949D01*
X22921966Y72108973D01*
X23024845Y72185274D01*
X23134702Y72251120D01*
X23250510Y72305892D01*
X23371103Y72349042D01*
X23495361Y72380167D01*
X23622064Y72398962D01*
X23750000Y72405247D01*
X23877936Y72398962D01*
X24004639Y72380167D01*
X24128897Y72349042D01*
X24249490Y72305892D01*
X24365298Y72251120D01*
X24475155Y72185274D01*
X24578034Y72108973D01*
X24672949Y72022949D01*
X24758973Y71928034D01*
X24835274Y71825155D01*
X24901120Y71715298D01*
X24955892Y71599490D01*
X24999042Y71478897D01*
X25030167Y71354639D01*
X25048962Y71227936D01*
X25055247Y71100000D01*
X25048962Y70972064D01*
X25030167Y70845361D01*
X24999042Y70721103D01*
X24955892Y70600510D01*
X24901120Y70484702D01*
X24835274Y70374845D01*
X24758973Y70271966D01*
X24672949Y70177051D01*
X24578034Y70091027D01*
X24475155Y70014726D01*
X24365298Y69948880D01*
X24249490Y69894108D01*
X24128897Y69850958D01*
X24004639Y69819833D01*
X23877936Y69801038D01*
X23750000Y69794753D01*
D02*
G37*
%LPC*%
G36*
X8745328Y71200000D02*
X7550000Y71200000D01*
X7550000Y72395328D01*
X7577446Y72393980D01*
X7703662Y72375257D01*
X7827444Y72344252D01*
X7947574Y72301268D01*
X8062938Y72246705D01*
X8172374Y72181112D01*
X8274865Y72105099D01*
X8369409Y72019409D01*
X8455099Y71924865D01*
X8531112Y71822374D01*
X8596705Y71712938D01*
X8651268Y71597574D01*
X8694252Y71477444D01*
X8725257Y71353662D01*
X8743980Y71227446D01*
X8745328Y71200000D01*
D02*
G37*
%LPC*%
G36*
X35150000Y71200000D02*
X33954672Y71200000D01*
X33956020Y71227446D01*
X33974743Y71353662D01*
X34005748Y71477444D01*
X34048732Y71597574D01*
X34103295Y71712938D01*
X34168888Y71822374D01*
X34244901Y71924865D01*
X34330591Y72019409D01*
X34425135Y72105099D01*
X34527626Y72181112D01*
X34637062Y72246705D01*
X34752426Y72301268D01*
X34872556Y72344252D01*
X34996338Y72375257D01*
X35122554Y72393980D01*
X35150000Y72395328D01*
X35150000Y71200000D01*
D02*
G37*
%LPC*%
G36*
X36545328Y71200000D02*
X35350000Y71200000D01*
X35350000Y72395328D01*
X35377446Y72393980D01*
X35503662Y72375257D01*
X35627444Y72344252D01*
X35747574Y72301268D01*
X35862938Y72246705D01*
X35972374Y72181112D01*
X36074865Y72105099D01*
X36169409Y72019409D01*
X36255099Y71924865D01*
X36331112Y71822374D01*
X36396705Y71712938D01*
X36451268Y71597574D01*
X36494252Y71477444D01*
X36525257Y71353662D01*
X36543980Y71227446D01*
X36545328Y71200000D01*
D02*
G37*
%LPC*%
G36*
X35350000Y69804672D02*
X35350000Y71000000D01*
X36545328Y71000000D01*
X36543980Y70972554D01*
X36525257Y70846338D01*
X36494252Y70722556D01*
X36451268Y70602426D01*
X36396705Y70487062D01*
X36331112Y70377626D01*
X36255099Y70275135D01*
X36169409Y70180591D01*
X36074865Y70094901D01*
X35972374Y70018888D01*
X35862938Y69953295D01*
X35747574Y69898732D01*
X35627444Y69855748D01*
X35503662Y69824743D01*
X35377446Y69806020D01*
X35350000Y69804672D01*
D02*
G37*
%LPC*%
G36*
X35150000Y69804672D02*
X35122554Y69806020D01*
X34996338Y69824743D01*
X34872556Y69855748D01*
X34752426Y69898732D01*
X34637062Y69953295D01*
X34527626Y70018888D01*
X34425135Y70094901D01*
X34330591Y70180591D01*
X34244901Y70275135D01*
X34168888Y70377626D01*
X34103295Y70487062D01*
X34048732Y70602426D01*
X34005748Y70722556D01*
X33974743Y70846338D01*
X33956020Y70972554D01*
X33954672Y71000000D01*
X35150000Y71000000D01*
X35150000Y69804672D01*
D02*
G37*
%LPC*%
G36*
X7550000Y69804672D02*
X7550000Y71000000D01*
X8745328Y71000000D01*
X8743980Y70972554D01*
X8725257Y70846338D01*
X8694252Y70722556D01*
X8651268Y70602426D01*
X8596705Y70487062D01*
X8531112Y70377626D01*
X8455099Y70275135D01*
X8369409Y70180591D01*
X8274865Y70094901D01*
X8172374Y70018888D01*
X8062938Y69953295D01*
X7947574Y69898732D01*
X7827444Y69855748D01*
X7703662Y69824743D01*
X7577446Y69806020D01*
X7550000Y69804672D01*
D02*
G37*
%LPC*%
G36*
X7450000Y63544753D02*
X7322064Y63551038D01*
X7195361Y63569833D01*
X7071103Y63600958D01*
X6950510Y63644108D01*
X6834702Y63698880D01*
X6724845Y63764726D01*
X6621966Y63841027D01*
X6527051Y63927051D01*
X6441027Y64021966D01*
X6364726Y64124845D01*
X6298880Y64234702D01*
X6244108Y64350510D01*
X6200958Y64471103D01*
X6169833Y64595361D01*
X6151038Y64722064D01*
X6144753Y64850000D01*
X6151038Y64977936D01*
X6169833Y65104639D01*
X6200958Y65228897D01*
X6244108Y65349490D01*
X6298880Y65465298D01*
X6364726Y65575155D01*
X6441027Y65678034D01*
X6527051Y65772949D01*
X6621966Y65858973D01*
X6724845Y65935274D01*
X6834702Y66001120D01*
X6950510Y66055892D01*
X7071103Y66099042D01*
X7195361Y66130167D01*
X7322064Y66148962D01*
X7450000Y66155247D01*
X7577936Y66148962D01*
X7704639Y66130167D01*
X7828897Y66099042D01*
X7949490Y66055892D01*
X8065298Y66001120D01*
X8175155Y65935274D01*
X8278034Y65858973D01*
X8372949Y65772949D01*
X8458973Y65678034D01*
X8535274Y65575155D01*
X8601120Y65465298D01*
X8655892Y65349490D01*
X8699042Y65228897D01*
X8730167Y65104639D01*
X8748962Y64977936D01*
X8755247Y64850000D01*
X8748962Y64722064D01*
X8730167Y64595361D01*
X8699042Y64471103D01*
X8655892Y64350510D01*
X8601120Y64234702D01*
X8535274Y64124845D01*
X8458973Y64021966D01*
X8372949Y63927051D01*
X8278034Y63841027D01*
X8175155Y63764726D01*
X8065298Y63698880D01*
X7949490Y63644108D01*
X7828897Y63600958D01*
X7704639Y63569833D01*
X7577936Y63551038D01*
X7450000Y63544753D01*
D02*
G37*
%LPC*%
G36*
X23750000Y63544753D02*
X23622064Y63551038D01*
X23495361Y63569833D01*
X23371103Y63600958D01*
X23250510Y63644108D01*
X23134702Y63698880D01*
X23024845Y63764726D01*
X22921966Y63841027D01*
X22827051Y63927051D01*
X22741027Y64021966D01*
X22664726Y64124845D01*
X22598880Y64234702D01*
X22544108Y64350510D01*
X22500958Y64471103D01*
X22469833Y64595361D01*
X22451038Y64722064D01*
X22444753Y64850000D01*
X22451038Y64977936D01*
X22469833Y65104639D01*
X22500958Y65228897D01*
X22544108Y65349490D01*
X22598880Y65465298D01*
X22664726Y65575155D01*
X22741027Y65678034D01*
X22827051Y65772949D01*
X22921966Y65858973D01*
X23024845Y65935274D01*
X23134702Y66001120D01*
X23250510Y66055892D01*
X23371103Y66099042D01*
X23495361Y66130167D01*
X23622064Y66148962D01*
X23750000Y66155247D01*
X23877936Y66148962D01*
X24004639Y66130167D01*
X24128897Y66099042D01*
X24249490Y66055892D01*
X24365298Y66001120D01*
X24475155Y65935274D01*
X24578034Y65858973D01*
X24672949Y65772949D01*
X24758973Y65678034D01*
X24835274Y65575155D01*
X24901120Y65465298D01*
X24955892Y65349490D01*
X24999042Y65228897D01*
X25030167Y65104639D01*
X25048962Y64977936D01*
X25055247Y64850000D01*
X25048962Y64722064D01*
X25030167Y64595361D01*
X24999042Y64471103D01*
X24955892Y64350510D01*
X24901120Y64234702D01*
X24835274Y64124845D01*
X24758973Y64021966D01*
X24672949Y63927051D01*
X24578034Y63841027D01*
X24475155Y63764726D01*
X24365298Y63698880D01*
X24249490Y63644108D01*
X24128897Y63600958D01*
X24004639Y63569833D01*
X23877936Y63551038D01*
X23750000Y63544753D01*
D02*
G37*
%LPC*%
G36*
X35250000Y63544753D02*
X35122064Y63551038D01*
X34995361Y63569833D01*
X34871103Y63600958D01*
X34750510Y63644108D01*
X34634702Y63698880D01*
X34524845Y63764726D01*
X34421966Y63841027D01*
X34327051Y63927051D01*
X34241027Y64021966D01*
X34164726Y64124845D01*
X34098880Y64234702D01*
X34044108Y64350510D01*
X34000958Y64471103D01*
X33969833Y64595361D01*
X33951038Y64722064D01*
X33944753Y64850000D01*
X33951038Y64977936D01*
X33969833Y65104639D01*
X34000958Y65228897D01*
X34044108Y65349490D01*
X34098880Y65465298D01*
X34164726Y65575155D01*
X34241027Y65678034D01*
X34327051Y65772949D01*
X34421966Y65858973D01*
X34524845Y65935274D01*
X34634702Y66001120D01*
X34750510Y66055892D01*
X34871103Y66099042D01*
X34995361Y66130167D01*
X35122064Y66148962D01*
X35250000Y66155247D01*
X35377936Y66148962D01*
X35504639Y66130167D01*
X35628897Y66099042D01*
X35749490Y66055892D01*
X35865298Y66001120D01*
X35975155Y65935274D01*
X36078034Y65858973D01*
X36172949Y65772949D01*
X36258973Y65678034D01*
X36335274Y65575155D01*
X36401120Y65465298D01*
X36455892Y65349490D01*
X36499042Y65228897D01*
X36530167Y65104639D01*
X36548962Y64977936D01*
X36555247Y64850000D01*
X36548962Y64722064D01*
X36530167Y64595361D01*
X36499042Y64471103D01*
X36455892Y64350510D01*
X36401120Y64234702D01*
X36335274Y64124845D01*
X36258973Y64021966D01*
X36172949Y63927051D01*
X36078034Y63841027D01*
X35975155Y63764726D01*
X35865298Y63698880D01*
X35749490Y63644108D01*
X35628897Y63600958D01*
X35504639Y63569833D01*
X35377936Y63551038D01*
X35250000Y63544753D01*
D02*
G37*
%LPC*%
G36*
X51550000Y63544753D02*
X51422064Y63551038D01*
X51295361Y63569833D01*
X51171103Y63600958D01*
X51050510Y63644108D01*
X50934702Y63698880D01*
X50824845Y63764726D01*
X50721966Y63841027D01*
X50627051Y63927051D01*
X50541027Y64021966D01*
X50464726Y64124845D01*
X50398880Y64234702D01*
X50344108Y64350510D01*
X50300958Y64471103D01*
X50269833Y64595361D01*
X50251038Y64722064D01*
X50244753Y64850000D01*
X50251038Y64977936D01*
X50269833Y65104639D01*
X50300958Y65228897D01*
X50344108Y65349490D01*
X50398880Y65465298D01*
X50464726Y65575155D01*
X50541027Y65678034D01*
X50627051Y65772949D01*
X50721966Y65858973D01*
X50824845Y65935274D01*
X50934702Y66001120D01*
X51050510Y66055892D01*
X51171103Y66099042D01*
X51295361Y66130167D01*
X51422064Y66148962D01*
X51550000Y66155247D01*
X51677936Y66148962D01*
X51804639Y66130167D01*
X51928897Y66099042D01*
X52049490Y66055892D01*
X52165298Y66001120D01*
X52275155Y65935274D01*
X52378034Y65858973D01*
X52472949Y65772949D01*
X52558973Y65678034D01*
X52635274Y65575155D01*
X52701120Y65465298D01*
X52755892Y65349490D01*
X52799042Y65228897D01*
X52830167Y65104639D01*
X52848962Y64977936D01*
X52855247Y64850000D01*
X52848962Y64722064D01*
X52830167Y64595361D01*
X52799042Y64471103D01*
X52755892Y64350510D01*
X52701120Y64234702D01*
X52635274Y64124845D01*
X52558973Y64021966D01*
X52472949Y63927051D01*
X52378034Y63841027D01*
X52275155Y63764726D01*
X52165298Y63698880D01*
X52049490Y63644108D01*
X51928897Y63600958D01*
X51804639Y63569833D01*
X51677936Y63551038D01*
X51550000Y63544753D01*
D02*
G37*
%LPC*%
G36*
X7450000Y57344753D02*
X7322064Y57351038D01*
X7195361Y57369833D01*
X7071103Y57400958D01*
X6950510Y57444108D01*
X6834702Y57498880D01*
X6724845Y57564726D01*
X6621966Y57641027D01*
X6527051Y57727051D01*
X6441027Y57821966D01*
X6364726Y57924845D01*
X6298880Y58034702D01*
X6244108Y58150510D01*
X6200958Y58271103D01*
X6169833Y58395361D01*
X6151038Y58522064D01*
X6144753Y58650000D01*
X6151038Y58777936D01*
X6169833Y58904639D01*
X6200958Y59028897D01*
X6244108Y59149490D01*
X6298880Y59265298D01*
X6364726Y59375155D01*
X6441027Y59478034D01*
X6527051Y59572949D01*
X6621966Y59658973D01*
X6724845Y59735274D01*
X6834702Y59801120D01*
X6950510Y59855892D01*
X7071103Y59899042D01*
X7195361Y59930167D01*
X7322064Y59948962D01*
X7450000Y59955247D01*
X7577936Y59948962D01*
X7704639Y59930167D01*
X7828897Y59899042D01*
X7949490Y59855892D01*
X8065298Y59801120D01*
X8175155Y59735274D01*
X8278034Y59658973D01*
X8372949Y59572949D01*
X8458973Y59478034D01*
X8535274Y59375155D01*
X8601120Y59265298D01*
X8655892Y59149490D01*
X8699042Y59028897D01*
X8730167Y58904639D01*
X8748962Y58777936D01*
X8755247Y58650000D01*
X8748962Y58522064D01*
X8730167Y58395361D01*
X8699042Y58271103D01*
X8655892Y58150510D01*
X8601120Y58034702D01*
X8535274Y57924845D01*
X8458973Y57821966D01*
X8372949Y57727051D01*
X8278034Y57641027D01*
X8175155Y57564726D01*
X8065298Y57498880D01*
X7949490Y57444108D01*
X7828897Y57400958D01*
X7704639Y57369833D01*
X7577936Y57351038D01*
X7450000Y57344753D01*
D02*
G37*
%LPC*%
G36*
X23750000Y57344753D02*
X23622064Y57351038D01*
X23495361Y57369833D01*
X23371103Y57400958D01*
X23250510Y57444108D01*
X23134702Y57498880D01*
X23024845Y57564726D01*
X22921966Y57641027D01*
X22827051Y57727051D01*
X22741027Y57821966D01*
X22664726Y57924845D01*
X22598880Y58034702D01*
X22544108Y58150510D01*
X22500958Y58271103D01*
X22469833Y58395361D01*
X22451038Y58522064D01*
X22444753Y58650000D01*
X22451038Y58777936D01*
X22469833Y58904639D01*
X22500958Y59028897D01*
X22544108Y59149490D01*
X22598880Y59265298D01*
X22664726Y59375155D01*
X22741027Y59478034D01*
X22827051Y59572949D01*
X22921966Y59658973D01*
X23024845Y59735274D01*
X23134702Y59801120D01*
X23250510Y59855892D01*
X23371103Y59899042D01*
X23495361Y59930167D01*
X23622064Y59948962D01*
X23750000Y59955247D01*
X23877936Y59948962D01*
X24004639Y59930167D01*
X24128897Y59899042D01*
X24249490Y59855892D01*
X24365298Y59801120D01*
X24475155Y59735274D01*
X24578034Y59658973D01*
X24672949Y59572949D01*
X24758973Y59478034D01*
X24835274Y59375155D01*
X24901120Y59265298D01*
X24955892Y59149490D01*
X24999042Y59028897D01*
X25030167Y58904639D01*
X25048962Y58777936D01*
X25055247Y58650000D01*
X25048962Y58522064D01*
X25030167Y58395361D01*
X24999042Y58271103D01*
X24955892Y58150510D01*
X24901120Y58034702D01*
X24835274Y57924845D01*
X24758973Y57821966D01*
X24672949Y57727051D01*
X24578034Y57641027D01*
X24475155Y57564726D01*
X24365298Y57498880D01*
X24249490Y57444108D01*
X24128897Y57400958D01*
X24004639Y57369833D01*
X23877936Y57351038D01*
X23750000Y57344753D01*
D02*
G37*
%LPC*%
G36*
X35250000Y57344753D02*
X35122064Y57351038D01*
X34995361Y57369833D01*
X34871103Y57400958D01*
X34750510Y57444108D01*
X34634702Y57498880D01*
X34524845Y57564726D01*
X34421966Y57641027D01*
X34327051Y57727051D01*
X34241027Y57821966D01*
X34164726Y57924845D01*
X34098880Y58034702D01*
X34044108Y58150510D01*
X34000958Y58271103D01*
X33969833Y58395361D01*
X33951038Y58522064D01*
X33944753Y58650000D01*
X33951038Y58777936D01*
X33969833Y58904639D01*
X34000958Y59028897D01*
X34044108Y59149490D01*
X34098880Y59265298D01*
X34164726Y59375155D01*
X34241027Y59478034D01*
X34327051Y59572949D01*
X34421966Y59658973D01*
X34524845Y59735274D01*
X34634702Y59801120D01*
X34750510Y59855892D01*
X34871103Y59899042D01*
X34995361Y59930167D01*
X35122064Y59948962D01*
X35250000Y59955247D01*
X35377936Y59948962D01*
X35504639Y59930167D01*
X35628897Y59899042D01*
X35749490Y59855892D01*
X35865298Y59801120D01*
X35975155Y59735274D01*
X36078034Y59658973D01*
X36172949Y59572949D01*
X36258973Y59478034D01*
X36335274Y59375155D01*
X36401120Y59265298D01*
X36455892Y59149490D01*
X36499042Y59028897D01*
X36530167Y58904639D01*
X36548962Y58777936D01*
X36555247Y58650000D01*
X36548962Y58522064D01*
X36530167Y58395361D01*
X36499042Y58271103D01*
X36455892Y58150510D01*
X36401120Y58034702D01*
X36335274Y57924845D01*
X36258973Y57821966D01*
X36172949Y57727051D01*
X36078034Y57641027D01*
X35975155Y57564726D01*
X35865298Y57498880D01*
X35749490Y57444108D01*
X35628897Y57400958D01*
X35504639Y57369833D01*
X35377936Y57351038D01*
X35250000Y57344753D01*
D02*
G37*
%LPC*%
G36*
X51550000Y57344753D02*
X51422064Y57351038D01*
X51295361Y57369833D01*
X51171103Y57400958D01*
X51050510Y57444108D01*
X50934702Y57498880D01*
X50824845Y57564726D01*
X50721966Y57641027D01*
X50627051Y57727051D01*
X50541027Y57821966D01*
X50464726Y57924845D01*
X50398880Y58034702D01*
X50344108Y58150510D01*
X50300958Y58271103D01*
X50269833Y58395361D01*
X50251038Y58522064D01*
X50244753Y58650000D01*
X50251038Y58777936D01*
X50269833Y58904639D01*
X50300958Y59028897D01*
X50344108Y59149490D01*
X50398880Y59265298D01*
X50464726Y59375155D01*
X50541027Y59478034D01*
X50627051Y59572949D01*
X50721966Y59658973D01*
X50824845Y59735274D01*
X50934702Y59801120D01*
X51050510Y59855892D01*
X51171103Y59899042D01*
X51295361Y59930167D01*
X51422064Y59948962D01*
X51550000Y59955247D01*
X51677936Y59948962D01*
X51804639Y59930167D01*
X51928897Y59899042D01*
X52049490Y59855892D01*
X52165298Y59801120D01*
X52275155Y59735274D01*
X52378034Y59658973D01*
X52472949Y59572949D01*
X52558973Y59478034D01*
X52635274Y59375155D01*
X52701120Y59265298D01*
X52755892Y59149490D01*
X52799042Y59028897D01*
X52830167Y58904639D01*
X52848962Y58777936D01*
X52855247Y58650000D01*
X52848962Y58522064D01*
X52830167Y58395361D01*
X52799042Y58271103D01*
X52755892Y58150510D01*
X52701120Y58034702D01*
X52635274Y57924845D01*
X52558973Y57821966D01*
X52472949Y57727051D01*
X52378034Y57641027D01*
X52275155Y57564726D01*
X52165298Y57498880D01*
X52049490Y57444108D01*
X51928897Y57400958D01*
X51804639Y57369833D01*
X51677936Y57351038D01*
X51550000Y57344753D01*
D02*
G37*
%LPC*%
G36*
X38050000Y30705000D02*
X30750000Y30705000D01*
X30750000Y31715000D01*
X31225000Y31715000D01*
X31225000Y32795000D01*
X29738883Y32795000D01*
X29738883Y32295000D01*
X27988883Y32295000D01*
X27988883Y34505000D01*
X29738883Y34505000D01*
X29738883Y34005000D01*
X31279444Y34005000D01*
X31310416Y34027970D01*
X31373975Y34066066D01*
X31440981Y34097757D01*
X31510759Y34122725D01*
X31582661Y34140734D01*
X31620795Y34146392D01*
X33575000Y36100597D01*
X33575000Y39225000D01*
X32935000Y39225000D01*
X32935000Y39125000D01*
X31625000Y39125000D01*
X31625000Y40535000D01*
X32935000Y40535000D01*
X32935000Y40435000D01*
X38125000Y40435000D01*
X38125000Y41510000D01*
X38525000Y41510000D01*
X38525000Y42720000D01*
X38050000Y42720000D01*
X38050000Y44474403D01*
X35369444Y47154959D01*
X35361596Y47161380D01*
X35286136Y47253327D01*
X35230137Y47358095D01*
X35195650Y47471779D01*
X35185000Y47579927D01*
X35185000Y54259403D01*
X32249403Y57195000D01*
X31613509Y57195000D01*
X31565720Y57130563D01*
X31496172Y57053828D01*
X31419437Y56984280D01*
X31336267Y56922596D01*
X31247441Y56869355D01*
X31153819Y56825077D01*
X31056329Y56790194D01*
X30955867Y56765029D01*
X30853432Y56749834D01*
X30750000Y56744753D01*
X30646568Y56749834D01*
X30544133Y56765029D01*
X30443671Y56790194D01*
X30346181Y56825077D01*
X30252559Y56869355D01*
X30163733Y56922596D01*
X30080563Y56984280D01*
X30003828Y57053828D01*
X29934280Y57130563D01*
X29872596Y57213733D01*
X29819355Y57302559D01*
X29775077Y57396181D01*
X29740194Y57493671D01*
X29715029Y57594133D01*
X29699834Y57696568D01*
X29694753Y57800000D01*
X29699834Y57903432D01*
X29715029Y58005867D01*
X29740194Y58106329D01*
X29775077Y58203819D01*
X29819355Y58297441D01*
X29872596Y58386267D01*
X29934280Y58469437D01*
X30003828Y58546172D01*
X30080563Y58615720D01*
X30163733Y58677404D01*
X30252559Y58730645D01*
X30346181Y58774923D01*
X30443671Y58809806D01*
X30544133Y58834971D01*
X30646568Y58850166D01*
X30750000Y58855247D01*
X30853432Y58850166D01*
X30955867Y58834971D01*
X31056329Y58809806D01*
X31153819Y58774923D01*
X31247441Y58730645D01*
X31336267Y58677404D01*
X31419437Y58615720D01*
X31496172Y58546172D01*
X31565720Y58469437D01*
X31613509Y58405000D01*
X32510074Y58405000D01*
X32618222Y58394348D01*
X32731904Y58359862D01*
X32836672Y58303863D01*
X32920680Y58234918D01*
X36224918Y54930680D01*
X36293863Y54846672D01*
X36349862Y54741904D01*
X36384348Y54628222D01*
X36395000Y54520074D01*
X36395000Y47840597D01*
X38455597Y45780000D01*
X40210000Y45780000D01*
X40210000Y42720000D01*
X39735000Y42720000D01*
X39735000Y41510000D01*
X40135000Y41510000D01*
X40135000Y38150000D01*
X38125000Y38150000D01*
X38125000Y39225000D01*
X34785000Y39225000D01*
X34785000Y35839927D01*
X34774348Y35731777D01*
X34739862Y35618095D01*
X34683863Y35513327D01*
X34608993Y35422100D01*
X34601218Y35415620D01*
X32476392Y33290795D01*
X32470734Y33252661D01*
X32452725Y33180759D01*
X32427757Y33110981D01*
X32396066Y33043975D01*
X32357970Y32980416D01*
X32313811Y32920875D01*
X32264035Y32865955D01*
X32235000Y32839639D01*
X32235000Y31715000D01*
X38050000Y31715000D01*
X38050000Y30705000D01*
D02*
G37*
%LPC*%
G36*
X28150000Y57900000D02*
X27204672Y57900000D01*
X27204816Y57902942D01*
X27219939Y58004890D01*
X27244983Y58104873D01*
X27279703Y58201907D01*
X27323772Y58295085D01*
X27376755Y58383482D01*
X27438150Y58466261D01*
X27507368Y58542632D01*
X27583739Y58611850D01*
X27666518Y58673245D01*
X27754915Y58726228D01*
X27848093Y58770297D01*
X27945127Y58805017D01*
X28045110Y58830061D01*
X28147058Y58845184D01*
X28150000Y58845328D01*
X28150000Y57900000D01*
D02*
G37*
%LPC*%
G36*
X29295328Y57900000D02*
X28350000Y57900000D01*
X28350000Y58845328D01*
X28352942Y58845184D01*
X28454890Y58830061D01*
X28554873Y58805017D01*
X28651907Y58770297D01*
X28745085Y58726228D01*
X28833482Y58673245D01*
X28916261Y58611850D01*
X28992632Y58542632D01*
X29061850Y58466261D01*
X29123245Y58383482D01*
X29176228Y58295085D01*
X29220297Y58201907D01*
X29255017Y58104873D01*
X29280061Y58004890D01*
X29295184Y57902942D01*
X29295328Y57900000D01*
D02*
G37*
%LPC*%
G36*
X28350000Y56754672D02*
X28350000Y57700000D01*
X29295328Y57700000D01*
X29295184Y57697058D01*
X29280061Y57595110D01*
X29255017Y57495127D01*
X29220297Y57398093D01*
X29176228Y57304915D01*
X29123245Y57216518D01*
X29061850Y57133739D01*
X28992632Y57057368D01*
X28916261Y56988150D01*
X28833482Y56926755D01*
X28745085Y56873772D01*
X28651907Y56829703D01*
X28554873Y56794983D01*
X28454890Y56769939D01*
X28352942Y56754816D01*
X28350000Y56754672D01*
D02*
G37*
%LPC*%
G36*
X28150000Y56754672D02*
X28147058Y56754816D01*
X28045110Y56769939D01*
X27945127Y56794983D01*
X27848093Y56829703D01*
X27754915Y56873772D01*
X27666518Y56926755D01*
X27583739Y56988150D01*
X27507368Y57057368D01*
X27438150Y57133739D01*
X27376755Y57216518D01*
X27323772Y57304915D01*
X27279703Y57398093D01*
X27244983Y57495127D01*
X27219939Y57595110D01*
X27204816Y57697058D01*
X27204672Y57700000D01*
X28150000Y57700000D01*
X28150000Y56754672D01*
D02*
G37*
%LPC*%
G36*
X29425710Y49314290D02*
X27524290Y49314290D01*
X27524290Y50425710D01*
X28933665Y50425710D01*
X29552396Y51044441D01*
X29558879Y51052220D01*
X29612222Y51095996D01*
X29673771Y51128893D01*
X29740547Y51149150D01*
X29799925Y51155000D01*
X30365000Y51155000D01*
X30365000Y51905000D01*
X31292955Y51905000D01*
X32785000Y53397045D01*
X32785000Y53963286D01*
X32747381Y53997381D01*
X32710784Y54037761D01*
X32678328Y54081522D01*
X32650320Y54128251D01*
X32627018Y54177521D01*
X32608662Y54228820D01*
X32595423Y54281679D01*
X32587427Y54335574D01*
X32584753Y54390000D01*
X32587427Y54444426D01*
X32595423Y54498321D01*
X32608662Y54551180D01*
X32627018Y54602479D01*
X32650320Y54651749D01*
X32678328Y54698478D01*
X32710784Y54742239D01*
X32747381Y54782619D01*
X32787761Y54819216D01*
X32831522Y54851672D01*
X32878251Y54879680D01*
X32927521Y54902982D01*
X32978820Y54921338D01*
X33031679Y54934577D01*
X33085574Y54942573D01*
X33140000Y54945247D01*
X33194426Y54942573D01*
X33248321Y54934577D01*
X33301180Y54921338D01*
X33352479Y54902982D01*
X33401749Y54879680D01*
X33448478Y54851672D01*
X33492239Y54819216D01*
X33532619Y54782619D01*
X33569216Y54742239D01*
X33601672Y54698478D01*
X33629680Y54651749D01*
X33652982Y54602479D01*
X33671338Y54551180D01*
X33684577Y54498321D01*
X33692573Y54444426D01*
X33695247Y54390000D01*
X33692573Y54335574D01*
X33684577Y54281679D01*
X33671338Y54228820D01*
X33652982Y54177521D01*
X33629680Y54128251D01*
X33601672Y54081522D01*
X33569216Y54037761D01*
X33532619Y53997381D01*
X33495000Y53963286D01*
X33495000Y53239925D01*
X33489150Y53180547D01*
X33468893Y53113771D01*
X33435996Y53052222D01*
X33392220Y52998879D01*
X33384441Y52992396D01*
X31375000Y50982955D01*
X31375000Y49695000D01*
X30365000Y49695000D01*
X30365000Y50445000D01*
X29957045Y50445000D01*
X29425710Y49913665D01*
X29425710Y49314290D01*
D02*
G37*
%LPC*%
G36*
X29425710Y51854290D02*
X27524290Y51854290D01*
X27524290Y52965710D01*
X28953665Y52965710D01*
X29462396Y53474441D01*
X29468879Y53482220D01*
X29522222Y53525996D01*
X29583771Y53558893D01*
X29650547Y53579150D01*
X29709925Y53585000D01*
X30693286Y53585000D01*
X30727381Y53622619D01*
X30767761Y53659216D01*
X30811522Y53691672D01*
X30858251Y53719680D01*
X30907521Y53742982D01*
X30958820Y53761338D01*
X31011679Y53774577D01*
X31065574Y53782573D01*
X31120000Y53785247D01*
X31174426Y53782573D01*
X31228321Y53774577D01*
X31281180Y53761338D01*
X31332479Y53742982D01*
X31381749Y53719680D01*
X31428478Y53691672D01*
X31472239Y53659216D01*
X31512619Y53622619D01*
X31549216Y53582239D01*
X31581672Y53538478D01*
X31609680Y53491749D01*
X31632982Y53442479D01*
X31651338Y53391180D01*
X31664577Y53338321D01*
X31672573Y53284426D01*
X31675247Y53230000D01*
X31672573Y53175574D01*
X31664577Y53121679D01*
X31651338Y53068820D01*
X31632982Y53017521D01*
X31609680Y52968251D01*
X31581672Y52921522D01*
X31549216Y52877761D01*
X31512619Y52837381D01*
X31472239Y52800784D01*
X31428478Y52768328D01*
X31381749Y52740320D01*
X31332479Y52717018D01*
X31281180Y52698662D01*
X31228321Y52685423D01*
X31174426Y52677427D01*
X31120000Y52674753D01*
X31065574Y52677427D01*
X31011679Y52685423D01*
X30958820Y52698662D01*
X30907521Y52717018D01*
X30858251Y52740320D01*
X30811522Y52768328D01*
X30767761Y52800784D01*
X30727381Y52837381D01*
X30693286Y52875000D01*
X29867045Y52875000D01*
X29425710Y52433665D01*
X29425710Y51854290D01*
D02*
G37*
%LPC*%
G36*
X48492474Y35454289D02*
X46487526Y35454289D01*
X46487526Y37710429D01*
X43146222Y41051733D01*
X43138370Y41058157D01*
X43094003Y41112222D01*
X43061106Y41173770D01*
X43040847Y41240552D01*
X43035000Y41299927D01*
X43035000Y43870074D01*
X43040847Y43929448D01*
X43061106Y43996229D01*
X43094003Y44057777D01*
X43137779Y44111120D01*
X43145558Y44117603D01*
X45395000Y46367045D01*
X45395000Y49242955D01*
X41960710Y52677245D01*
X41909999Y52674753D01*
X41855574Y52677427D01*
X41801679Y52685423D01*
X41748820Y52698662D01*
X41697521Y52717018D01*
X41648251Y52740320D01*
X41601522Y52768328D01*
X41557761Y52800784D01*
X41517381Y52837381D01*
X41480784Y52877761D01*
X41448328Y52921522D01*
X41420320Y52968251D01*
X41397018Y53017521D01*
X41378662Y53068820D01*
X41365423Y53121679D01*
X41357427Y53175574D01*
X41354753Y53230000D01*
X41357427Y53284426D01*
X41365423Y53338321D01*
X41378662Y53391180D01*
X41397018Y53442479D01*
X41420320Y53491749D01*
X41448328Y53538478D01*
X41480784Y53582239D01*
X41517381Y53622619D01*
X41557761Y53659216D01*
X41601522Y53691672D01*
X41648251Y53719680D01*
X41697521Y53742982D01*
X41748820Y53761338D01*
X41801679Y53774577D01*
X41855574Y53782573D01*
X41910000Y53785247D01*
X41964426Y53782573D01*
X42018321Y53774577D01*
X42071180Y53761338D01*
X42122479Y53742982D01*
X42171749Y53719680D01*
X42218478Y53691672D01*
X42262239Y53659216D01*
X42302619Y53622619D01*
X42339216Y53582239D01*
X42371672Y53538478D01*
X42399680Y53491749D01*
X42422982Y53442479D01*
X42441338Y53391180D01*
X42454577Y53338321D01*
X42462573Y53284426D01*
X42465247Y53230000D01*
X42462755Y53179290D01*
X46008143Y49633903D01*
X46045996Y49587777D01*
X46078893Y49526229D01*
X46099150Y49459452D01*
X46105000Y49400075D01*
X46105000Y46209925D01*
X46099150Y46150547D01*
X46078893Y46083771D01*
X46045996Y46022222D01*
X46002220Y45968879D01*
X45994441Y45962396D01*
X43745000Y43712955D01*
X43745000Y41457045D01*
X46596336Y38605709D01*
X48492474Y38605709D01*
X48492474Y37385000D01*
X51195000Y37385000D01*
X51195000Y37485000D01*
X52505000Y37485000D01*
X52505000Y36575000D01*
X51195000Y36575000D01*
X51195000Y36675000D01*
X48492474Y36675000D01*
X48492474Y35454289D01*
D02*
G37*
%LPC*%
G36*
X6935000Y29905000D02*
X4725000Y29905000D01*
X4725000Y30355000D01*
X4085000Y30355000D01*
X4085000Y30255000D01*
X2775000Y30255000D01*
X2775000Y30862955D01*
X1656640Y31981315D01*
X1648788Y31987739D01*
X1604421Y32041804D01*
X1571524Y32103352D01*
X1551265Y32170134D01*
X1545418Y32229509D01*
X1545418Y45470492D01*
X1551265Y45529866D01*
X1571524Y45596647D01*
X1604421Y45658195D01*
X1648197Y45711538D01*
X1655976Y45718021D01*
X8592396Y52654441D01*
X8598879Y52662220D01*
X8652222Y52705996D01*
X8713771Y52738893D01*
X8780547Y52759150D01*
X8839925Y52765000D01*
X20374290Y52765000D01*
X20374290Y52965710D01*
X22275710Y52965710D01*
X22275710Y51854290D01*
X20374290Y51854290D01*
X20374290Y52055000D01*
X8997045Y52055000D01*
X2255418Y45313373D01*
X2255418Y32386627D01*
X3477045Y31165000D01*
X4085000Y31165000D01*
X4085000Y31065000D01*
X4725000Y31065000D01*
X4725000Y31515000D01*
X6935000Y31515000D01*
X6935000Y29905000D01*
D02*
G37*
%LPC*%
G36*
X33870000Y50900000D02*
X33470000Y50900000D01*
X33470000Y51900000D01*
X33870000Y51900000D01*
X33870000Y50900000D01*
D02*
G37*
%LPC*%
G36*
X33270000Y50900000D02*
X32870000Y50900000D01*
X32870000Y51900000D01*
X33270000Y51900000D01*
X33270000Y50900000D01*
D02*
G37*
%LPC*%
G36*
X33870000Y49700000D02*
X33470000Y49700000D01*
X33470000Y50700000D01*
X33870000Y50700000D01*
X33870000Y49700000D01*
D02*
G37*
%LPC*%
G36*
X33270000Y49700000D02*
X32870000Y49700000D01*
X32870000Y50700000D01*
X33270000Y50700000D01*
X33270000Y49700000D01*
D02*
G37*
%LPC*%
G36*
X13600000Y38244753D02*
X13501467Y38249595D01*
X13403890Y38264068D01*
X13308188Y38288040D01*
X13215316Y38321271D01*
X13126121Y38363456D01*
X13041515Y38414167D01*
X12962284Y38472930D01*
X12889183Y38539183D01*
X12822930Y38612284D01*
X12764167Y38691515D01*
X12713456Y38776121D01*
X12671271Y38865316D01*
X12638040Y38958188D01*
X12614068Y39053890D01*
X12599595Y39151467D01*
X12594753Y39250000D01*
X12599595Y39348533D01*
X12614068Y39446110D01*
X12638040Y39541812D01*
X12671271Y39634684D01*
X12713456Y39723879D01*
X12764167Y39808485D01*
X12822930Y39887716D01*
X12889183Y39960817D01*
X12962284Y40027070D01*
X13041515Y40085833D01*
X13126121Y40136544D01*
X13215316Y40178729D01*
X13308188Y40211960D01*
X13403890Y40235932D01*
X13501467Y40250405D01*
X13600000Y40255247D01*
X13698533Y40250405D01*
X13796110Y40235932D01*
X13891812Y40211960D01*
X14015616Y40167661D01*
X14992396Y41144441D01*
X14998879Y41152220D01*
X15052222Y41195996D01*
X15113771Y41228893D01*
X15180547Y41249150D01*
X15239925Y41255000D01*
X17352955Y41255000D01*
X18345000Y42247045D01*
X18345000Y48010074D01*
X18350847Y48069448D01*
X18371106Y48136229D01*
X18404003Y48197777D01*
X18447779Y48251120D01*
X18455558Y48257603D01*
X20312396Y50114441D01*
X20318879Y50122220D01*
X20374290Y50167693D01*
X20374290Y50425710D01*
X22275710Y50425710D01*
X22275710Y49314290D01*
X20516335Y49314290D01*
X19055000Y47852955D01*
X19055000Y42089925D01*
X19049150Y42030547D01*
X19028893Y41963771D01*
X18995996Y41902222D01*
X18952220Y41848879D01*
X18944441Y41842396D01*
X17757603Y40655558D01*
X17751120Y40647779D01*
X17697777Y40604003D01*
X17636229Y40571106D01*
X17569448Y40550847D01*
X17510074Y40545000D01*
X15397045Y40545000D01*
X14517661Y39665616D01*
X14561960Y39541812D01*
X14585932Y39446110D01*
X14600405Y39348533D01*
X14605247Y39250000D01*
X14600405Y39151467D01*
X14585932Y39053890D01*
X14561960Y38958188D01*
X14528729Y38865316D01*
X14486544Y38776121D01*
X14435833Y38691515D01*
X14377070Y38612284D01*
X14310817Y38539183D01*
X14237716Y38472930D01*
X14158485Y38414167D01*
X14073879Y38363456D01*
X13984684Y38321271D01*
X13891812Y38288040D01*
X13796110Y38264068D01*
X13698533Y38249595D01*
X13600000Y38244753D01*
D02*
G37*
%LPC*%
G36*
X40205000Y48650000D02*
X39230000Y48650000D01*
X39230000Y50075000D01*
X40205000Y50075000D01*
X40205000Y48650000D01*
D02*
G37*
%LPC*%
G36*
X39030000Y48650000D02*
X38055000Y48650000D01*
X38055000Y50075000D01*
X39030000Y50075000D01*
X39030000Y48650000D01*
D02*
G37*
%LPC*%
G36*
X40205000Y47025000D02*
X39230000Y47025000D01*
X39230000Y48450000D01*
X40205000Y48450000D01*
X40205000Y47025000D01*
D02*
G37*
%LPC*%
G36*
X39030000Y47025000D02*
X38055000Y47025000D01*
X38055000Y48450000D01*
X39030000Y48450000D01*
X39030000Y47025000D01*
D02*
G37*
%LPC*%
G36*
X29425710Y46774290D02*
X27524290Y46774290D01*
X27524290Y46975000D01*
X22275710Y46975000D01*
X22275710Y46774290D01*
X20374290Y46774290D01*
X20374290Y47885710D01*
X22275710Y47885710D01*
X22275710Y47685000D01*
X27524290Y47685000D01*
X27524290Y47885710D01*
X29425710Y47885710D01*
X29425710Y46774290D01*
D02*
G37*
%LPC*%
G36*
X5585000Y32105000D02*
X4675000Y32105000D01*
X4675000Y33415000D01*
X5585000Y33415000D01*
X5585000Y33115000D01*
X6175000Y33115000D01*
X6175000Y33415000D01*
X6275000Y33415000D01*
X6275000Y34522955D01*
X5456222Y35341733D01*
X5448370Y35348157D01*
X5404003Y35402222D01*
X5371106Y35463770D01*
X5350847Y35530552D01*
X5345000Y35589927D01*
X5345000Y45530901D01*
X5302620Y45556302D01*
X5203686Y45629677D01*
X5112406Y45712406D01*
X5029677Y45803686D01*
X4956299Y45902623D01*
X4892976Y46008272D01*
X4840302Y46119644D01*
X4798805Y46235618D01*
X4768872Y46355118D01*
X4750799Y46476963D01*
X4744753Y46600000D01*
X4750799Y46723037D01*
X4768872Y46844882D01*
X4798805Y46964382D01*
X4840302Y47080356D01*
X4892976Y47191728D01*
X4956299Y47297377D01*
X5029677Y47396314D01*
X5112406Y47487594D01*
X5203686Y47570323D01*
X5302623Y47643701D01*
X5408272Y47707024D01*
X5519644Y47759698D01*
X5635618Y47801195D01*
X5755118Y47831128D01*
X5876963Y47849201D01*
X6000000Y47855247D01*
X6123037Y47849201D01*
X6244882Y47831128D01*
X6364382Y47801195D01*
X6480356Y47759698D01*
X6591728Y47707024D01*
X6697377Y47643701D01*
X6796314Y47570323D01*
X6887594Y47487594D01*
X6970323Y47396314D01*
X7043701Y47297377D01*
X7107024Y47191728D01*
X7159698Y47080356D01*
X7201195Y46964382D01*
X7231128Y46844882D01*
X7249201Y46723037D01*
X7255247Y46600000D01*
X7249201Y46476963D01*
X7231128Y46355118D01*
X7201195Y46235618D01*
X7159698Y46119644D01*
X7107024Y46008272D01*
X7043701Y45902623D01*
X6970323Y45803686D01*
X6887594Y45712406D01*
X6796314Y45629677D01*
X6697377Y45556299D01*
X6591728Y45492976D01*
X6480356Y45440302D01*
X6364382Y45398805D01*
X6244882Y45368872D01*
X6123036Y45350799D01*
X6055000Y45347456D01*
X6055000Y35747045D01*
X6888143Y34913903D01*
X6925996Y34867777D01*
X6958893Y34806229D01*
X6979150Y34739452D01*
X6985000Y34680075D01*
X6985000Y33415000D01*
X7085000Y33415000D01*
X7085000Y32105000D01*
X6175000Y32105000D01*
X6175000Y32405000D01*
X5585000Y32405000D01*
X5585000Y32105000D01*
D02*
G37*
%LPC*%
G36*
X10610000Y27135000D02*
X8650000Y27135000D01*
X8650000Y27281914D01*
X8553770Y27311106D01*
X8492222Y27344003D01*
X8438157Y27388370D01*
X8431733Y27396222D01*
X7637222Y28190733D01*
X7629370Y28197157D01*
X7585003Y28251222D01*
X7552106Y28312770D01*
X7531847Y28379552D01*
X7526000Y28438927D01*
X7526000Y30330000D01*
X7525000Y30330000D01*
X7525000Y31590000D01*
X7775000Y31590000D01*
X7775000Y32105000D01*
X7675000Y32105000D01*
X7675000Y33415000D01*
X7775000Y33415000D01*
X7775000Y36122955D01*
X7156222Y36741733D01*
X7148370Y36748157D01*
X7104003Y36802222D01*
X7071106Y36863770D01*
X7050847Y36930552D01*
X7045000Y36989927D01*
X7045000Y44110074D01*
X7050847Y44169448D01*
X7071106Y44236229D01*
X7104003Y44297777D01*
X7147779Y44351120D01*
X7155558Y44357603D01*
X9642396Y46844441D01*
X9648879Y46852220D01*
X9702222Y46895996D01*
X9763770Y46928893D01*
X9792067Y46937477D01*
X9798803Y46964377D01*
X9840302Y47080356D01*
X9892976Y47191728D01*
X9956299Y47297377D01*
X10029677Y47396314D01*
X10112406Y47487594D01*
X10203686Y47570323D01*
X10302623Y47643701D01*
X10408272Y47707024D01*
X10519644Y47759698D01*
X10635618Y47801195D01*
X10755118Y47831128D01*
X10876963Y47849201D01*
X11000000Y47855247D01*
X11123037Y47849201D01*
X11244882Y47831128D01*
X11364382Y47801195D01*
X11480356Y47759698D01*
X11591728Y47707024D01*
X11697377Y47643701D01*
X11796314Y47570323D01*
X11887594Y47487594D01*
X11970323Y47396314D01*
X12043701Y47297377D01*
X12107024Y47191728D01*
X12159698Y47080356D01*
X12201195Y46964382D01*
X12231128Y46844882D01*
X12249201Y46723037D01*
X12255247Y46600000D01*
X12249201Y46476963D01*
X12231128Y46355118D01*
X12201195Y46235618D01*
X12159698Y46119644D01*
X12107024Y46008272D01*
X12043701Y45902623D01*
X11970323Y45803686D01*
X11887594Y45712406D01*
X11796314Y45629677D01*
X11697377Y45556299D01*
X11591728Y45492976D01*
X11480356Y45440302D01*
X11364382Y45398805D01*
X11244882Y45368872D01*
X11123037Y45350799D01*
X11000000Y45344753D01*
X10876963Y45350799D01*
X10755118Y45368872D01*
X10635618Y45398805D01*
X10519644Y45440302D01*
X10408272Y45492976D01*
X10302623Y45556299D01*
X10203686Y45629677D01*
X10112406Y45712406D01*
X10029677Y45803686D01*
X9956299Y45902623D01*
X9861999Y46059954D01*
X7755000Y43952955D01*
X7755000Y37147045D01*
X8388143Y36513903D01*
X8425996Y36467777D01*
X8458893Y36406229D01*
X8479150Y36339452D01*
X8485000Y36280075D01*
X8485000Y33415000D01*
X8585000Y33415000D01*
X8585000Y32105000D01*
X8485000Y32105000D01*
X8485000Y31590000D01*
X8735000Y31590000D01*
X8735000Y30330000D01*
X8236000Y30330000D01*
X8236000Y28596045D01*
X8687045Y28145000D01*
X10610000Y28145000D01*
X10610000Y27135000D01*
D02*
G37*
%LPC*%
G36*
X10610000Y28405000D02*
X8650000Y28405000D01*
X8650000Y29415000D01*
X9275000Y29415000D01*
X9275000Y30330000D01*
X9025000Y30330000D01*
X9025000Y31590000D01*
X9275000Y31590000D01*
X9275000Y37822955D01*
X8856222Y38241733D01*
X8848370Y38248157D01*
X8804003Y38302222D01*
X8771106Y38363770D01*
X8750847Y38430552D01*
X8745000Y38489927D01*
X8745000Y43210074D01*
X8750847Y43269448D01*
X8771106Y43336229D01*
X8804003Y43397777D01*
X8847779Y43451120D01*
X8855558Y43457603D01*
X9942396Y44544441D01*
X9948879Y44552220D01*
X10002222Y44595996D01*
X10063771Y44628893D01*
X10130547Y44649150D01*
X10189925Y44655000D01*
X11672955Y44655000D01*
X13862396Y46844441D01*
X13868879Y46852220D01*
X13922222Y46895996D01*
X13983771Y46928893D01*
X14050547Y46949150D01*
X14109925Y46955000D01*
X14795448Y46955000D01*
X14840302Y47080356D01*
X14892976Y47191728D01*
X14956299Y47297377D01*
X15029677Y47396314D01*
X15112406Y47487594D01*
X15203686Y47570323D01*
X15302623Y47643701D01*
X15408272Y47707024D01*
X15519644Y47759698D01*
X15635618Y47801195D01*
X15755118Y47831128D01*
X15876963Y47849201D01*
X16000000Y47855247D01*
X16123037Y47849201D01*
X16244882Y47831128D01*
X16364382Y47801195D01*
X16480356Y47759698D01*
X16591728Y47707024D01*
X16697377Y47643701D01*
X16796314Y47570323D01*
X16887594Y47487594D01*
X16970323Y47396314D01*
X17043701Y47297377D01*
X17107024Y47191728D01*
X17159698Y47080356D01*
X17201195Y46964382D01*
X17231128Y46844882D01*
X17249201Y46723037D01*
X17255247Y46600000D01*
X17249201Y46476963D01*
X17231128Y46355118D01*
X17201195Y46235618D01*
X17159698Y46119644D01*
X17107024Y46008272D01*
X17043701Y45902623D01*
X16970323Y45803686D01*
X16887594Y45712406D01*
X16796314Y45629677D01*
X16697377Y45556299D01*
X16591728Y45492976D01*
X16480356Y45440302D01*
X16364382Y45398805D01*
X16244882Y45368872D01*
X16123037Y45350799D01*
X16000000Y45344753D01*
X15876963Y45350799D01*
X15755118Y45368872D01*
X15635618Y45398805D01*
X15519644Y45440302D01*
X15408272Y45492976D01*
X15302623Y45556299D01*
X15203686Y45629677D01*
X15112406Y45712406D01*
X15029677Y45803686D01*
X14956299Y45902623D01*
X14892976Y46008272D01*
X14840302Y46119644D01*
X14795448Y46245000D01*
X14267045Y46245000D01*
X12077603Y44055558D01*
X12071120Y44047779D01*
X12017777Y44004003D01*
X11956229Y43971106D01*
X11889448Y43950847D01*
X11830074Y43945000D01*
X10347045Y43945000D01*
X9455000Y43052955D01*
X9455000Y38647045D01*
X9888143Y38213903D01*
X9925996Y38167777D01*
X9958893Y38106229D01*
X9979150Y38039452D01*
X9985000Y37980075D01*
X9985000Y31590000D01*
X10235000Y31590000D01*
X10235000Y30330000D01*
X9985000Y30330000D01*
X9985000Y29415000D01*
X10610000Y29415000D01*
X10610000Y28405000D01*
D02*
G37*
%LPC*%
G36*
X43000000Y45344753D02*
X42876963Y45350799D01*
X42755118Y45368872D01*
X42635618Y45398805D01*
X42519644Y45440302D01*
X42408272Y45492976D01*
X42302623Y45556299D01*
X42203686Y45629677D01*
X42112406Y45712406D01*
X42029677Y45803686D01*
X41956299Y45902623D01*
X41892976Y46008272D01*
X41840302Y46119644D01*
X41798805Y46235618D01*
X41768872Y46355118D01*
X41750799Y46476963D01*
X41744753Y46600000D01*
X41750799Y46723037D01*
X41768872Y46844882D01*
X41798805Y46964382D01*
X41840302Y47080356D01*
X41892976Y47191728D01*
X41956299Y47297377D01*
X42029677Y47396314D01*
X42112406Y47487594D01*
X42203686Y47570323D01*
X42302623Y47643701D01*
X42408272Y47707024D01*
X42519644Y47759698D01*
X42635618Y47801195D01*
X42755118Y47831128D01*
X42876963Y47849201D01*
X43000000Y47855247D01*
X43123037Y47849201D01*
X43244882Y47831128D01*
X43364382Y47801195D01*
X43480356Y47759698D01*
X43591728Y47707024D01*
X43697377Y47643701D01*
X43796314Y47570323D01*
X43887594Y47487594D01*
X43970323Y47396314D01*
X44043701Y47297377D01*
X44107024Y47191728D01*
X44159698Y47080356D01*
X44201195Y46964382D01*
X44231128Y46844882D01*
X44249201Y46723037D01*
X44255247Y46600000D01*
X44249201Y46476963D01*
X44231128Y46355118D01*
X44201195Y46235618D01*
X44159698Y46119644D01*
X44107024Y46008272D01*
X44043701Y45902623D01*
X43970323Y45803686D01*
X43887594Y45712406D01*
X43796314Y45629677D01*
X43697377Y45556299D01*
X43591728Y45492976D01*
X43480356Y45440302D01*
X43364382Y45398805D01*
X43244882Y45368872D01*
X43123037Y45350799D01*
X43000000Y45344753D01*
D02*
G37*
%LPC*%
G36*
X48000000Y45344753D02*
X47876963Y45350799D01*
X47755118Y45368872D01*
X47635618Y45398805D01*
X47519644Y45440302D01*
X47408272Y45492976D01*
X47302623Y45556299D01*
X47203686Y45629677D01*
X47112406Y45712406D01*
X47029677Y45803686D01*
X46956299Y45902623D01*
X46892976Y46008272D01*
X46840302Y46119644D01*
X46798805Y46235618D01*
X46768872Y46355118D01*
X46750799Y46476963D01*
X46744753Y46600000D01*
X46750799Y46723037D01*
X46768872Y46844882D01*
X46798805Y46964382D01*
X46840302Y47080356D01*
X46892976Y47191728D01*
X46956299Y47297377D01*
X47029677Y47396314D01*
X47112406Y47487594D01*
X47203686Y47570323D01*
X47302623Y47643701D01*
X47408272Y47707024D01*
X47519644Y47759698D01*
X47635618Y47801195D01*
X47755118Y47831128D01*
X47876963Y47849201D01*
X48000000Y47855247D01*
X48123037Y47849201D01*
X48244882Y47831128D01*
X48364382Y47801195D01*
X48480356Y47759698D01*
X48591728Y47707024D01*
X48697377Y47643701D01*
X48796314Y47570323D01*
X48887594Y47487594D01*
X48970323Y47396314D01*
X49043701Y47297377D01*
X49107024Y47191728D01*
X49159698Y47080356D01*
X49201195Y46964382D01*
X49231128Y46844882D01*
X49249201Y46723037D01*
X49255247Y46600000D01*
X49249201Y46476963D01*
X49231128Y46355118D01*
X49201195Y46235618D01*
X49159698Y46119644D01*
X49107024Y46008272D01*
X49043701Y45902623D01*
X48970323Y45803686D01*
X48887594Y45712406D01*
X48796314Y45629677D01*
X48697377Y45556299D01*
X48591728Y45492976D01*
X48480356Y45440302D01*
X48364382Y45398805D01*
X48244882Y45368872D01*
X48123037Y45350799D01*
X48000000Y45344753D01*
D02*
G37*
%LPC*%
G36*
X50005000Y39485000D02*
X49095000Y39485000D01*
X49095000Y40795000D01*
X50392955Y40795000D01*
X51130000Y41532045D01*
X51130000Y42555000D01*
X52312955Y42555000D01*
X52645000Y42887045D01*
X52645000Y45395448D01*
X52519644Y45440302D01*
X52408272Y45492976D01*
X52302623Y45556299D01*
X52203686Y45629677D01*
X52112406Y45712406D01*
X52029677Y45803686D01*
X51956299Y45902623D01*
X51892976Y46008272D01*
X51840302Y46119644D01*
X51798805Y46235618D01*
X51768872Y46355118D01*
X51750799Y46476963D01*
X51744753Y46600000D01*
X51750799Y46723037D01*
X51768872Y46844882D01*
X51798805Y46964382D01*
X51840302Y47080356D01*
X51892976Y47191728D01*
X51956299Y47297377D01*
X52029677Y47396314D01*
X52112406Y47487594D01*
X52203686Y47570323D01*
X52302623Y47643701D01*
X52408272Y47707024D01*
X52519644Y47759698D01*
X52635618Y47801195D01*
X52755118Y47831128D01*
X52876963Y47849201D01*
X53000000Y47855247D01*
X53123037Y47849201D01*
X53244882Y47831128D01*
X53364382Y47801195D01*
X53480356Y47759698D01*
X53591728Y47707024D01*
X53697377Y47643701D01*
X53796314Y47570323D01*
X53887594Y47487594D01*
X53970323Y47396314D01*
X54043701Y47297377D01*
X54107024Y47191728D01*
X54159698Y47080356D01*
X54201195Y46964382D01*
X54231128Y46844882D01*
X54249201Y46723037D01*
X54255247Y46600000D01*
X54249201Y46476963D01*
X54231128Y46355118D01*
X54201195Y46235618D01*
X54159698Y46119644D01*
X54107024Y46008272D01*
X54043701Y45902623D01*
X53970323Y45803686D01*
X53887594Y45712406D01*
X53796314Y45629677D01*
X53697377Y45556299D01*
X53591728Y45492976D01*
X53480356Y45440302D01*
X53355000Y45395448D01*
X53355000Y42729925D01*
X53349150Y42670547D01*
X53328893Y42603771D01*
X53295996Y42542222D01*
X53252220Y42488879D01*
X53244441Y42482396D01*
X52467603Y41705558D01*
X52461120Y41697779D01*
X52390000Y41639414D01*
X52390000Y41345000D01*
X51947045Y41345000D01*
X50797603Y40195558D01*
X50791120Y40187779D01*
X50737777Y40144003D01*
X50676229Y40111106D01*
X50609448Y40090847D01*
X50550074Y40085000D01*
X50005000Y40085000D01*
X50005000Y39485000D01*
D02*
G37*
%LPC*%
G36*
X25770000Y43374753D02*
X25715574Y43377427D01*
X25661679Y43385423D01*
X25608820Y43398662D01*
X25557521Y43417018D01*
X25508251Y43440320D01*
X25461522Y43468328D01*
X25417761Y43500784D01*
X25377381Y43537381D01*
X25340784Y43577761D01*
X25308328Y43621522D01*
X25280320Y43668251D01*
X25257018Y43717521D01*
X25238662Y43768820D01*
X25225423Y43821679D01*
X25217427Y43875574D01*
X25214753Y43930000D01*
X25217427Y43984426D01*
X25225423Y44038321D01*
X25238662Y44091180D01*
X25257018Y44142479D01*
X25280320Y44191749D01*
X25308328Y44238478D01*
X25340784Y44282239D01*
X25377381Y44322619D01*
X25415000Y44356714D01*
X25415000Y44910074D01*
X25420847Y44969448D01*
X25441106Y45036229D01*
X25474003Y45097777D01*
X25517779Y45151120D01*
X25525558Y45157603D01*
X26722396Y46354441D01*
X26728879Y46362220D01*
X26782222Y46405996D01*
X26843771Y46438893D01*
X26910547Y46459150D01*
X26969925Y46465000D01*
X29800075Y46465000D01*
X29859452Y46459150D01*
X29926229Y46438893D01*
X29987777Y46405996D01*
X30033903Y46368143D01*
X30797045Y45605000D01*
X31375000Y45605000D01*
X31375000Y43395000D01*
X30365000Y43395000D01*
X30365000Y45032955D01*
X29642955Y45755000D01*
X27127045Y45755000D01*
X26125000Y44752955D01*
X26125000Y44356714D01*
X26162619Y44322619D01*
X26199216Y44282239D01*
X26231672Y44238478D01*
X26259680Y44191749D01*
X26282982Y44142479D01*
X26301338Y44091180D01*
X26314577Y44038321D01*
X26322573Y43984426D01*
X26325247Y43930000D01*
X26322573Y43875574D01*
X26314577Y43821679D01*
X26301338Y43768820D01*
X26282982Y43717521D01*
X26259680Y43668251D01*
X26231672Y43621522D01*
X26199216Y43577761D01*
X26162619Y43537381D01*
X26122239Y43500784D01*
X26078478Y43468328D01*
X26031749Y43440320D01*
X25982479Y43417018D01*
X25931180Y43398662D01*
X25878321Y43385423D01*
X25824426Y43377427D01*
X25770000Y43374753D01*
D02*
G37*
%LPC*%
G36*
X33870000Y44600000D02*
X33470000Y44600000D01*
X33470000Y45600000D01*
X33870000Y45600000D01*
X33870000Y44600000D01*
D02*
G37*
%LPC*%
G36*
X33270000Y44600000D02*
X32870000Y44600000D01*
X32870000Y45600000D01*
X33270000Y45600000D01*
X33270000Y44600000D01*
D02*
G37*
%LPC*%
G36*
X31035000Y39125000D02*
X29725000Y39125000D01*
X29725000Y39225000D01*
X29080000Y39225000D01*
X29080000Y39200000D01*
X27870000Y39200000D01*
X27870000Y41595000D01*
X27820000Y41595000D01*
X27820000Y42405000D01*
X27920000Y42405000D01*
X27920000Y44234290D01*
X27524290Y44234290D01*
X27524290Y45345710D01*
X28472136Y45345710D01*
X28475000Y45345992D01*
X28477864Y45345710D01*
X29425710Y45345710D01*
X29425710Y44234290D01*
X29030000Y44234290D01*
X29030000Y42405000D01*
X29130000Y42405000D01*
X29130000Y41595000D01*
X29080000Y41595000D01*
X29080000Y40435000D01*
X29725000Y40435000D01*
X29725000Y40535000D01*
X31035000Y40535000D01*
X31035000Y39125000D01*
D02*
G37*
%LPC*%
G36*
X24090000Y41444753D02*
X24035574Y41447427D01*
X23981679Y41455423D01*
X23928820Y41468662D01*
X23877521Y41487018D01*
X23828251Y41510320D01*
X23781522Y41538328D01*
X23737761Y41570784D01*
X23697381Y41607381D01*
X23660784Y41647761D01*
X23628328Y41691522D01*
X23600320Y41738251D01*
X23577018Y41787521D01*
X23558662Y41838820D01*
X23545423Y41891679D01*
X23537427Y41945574D01*
X23534753Y41999999D01*
X23537245Y42050710D01*
X21353665Y44234290D01*
X20374290Y44234290D01*
X20374290Y45345710D01*
X22275710Y45345710D01*
X22275710Y44316335D01*
X24039290Y42552755D01*
X24090001Y42555247D01*
X24144426Y42552573D01*
X24198321Y42544577D01*
X24251180Y42531338D01*
X24302479Y42512982D01*
X24351749Y42489680D01*
X24398478Y42461672D01*
X24442239Y42429216D01*
X24482619Y42392619D01*
X24516714Y42355000D01*
X25620000Y42355000D01*
X25620000Y42405000D01*
X26930000Y42405000D01*
X26930000Y41595000D01*
X25620000Y41595000D01*
X25620000Y41645000D01*
X24516714Y41645000D01*
X24482619Y41607381D01*
X24442239Y41570784D01*
X24398478Y41538328D01*
X24351749Y41510320D01*
X24302479Y41487018D01*
X24251180Y41468662D01*
X24198321Y41455423D01*
X24144426Y41447427D01*
X24090000Y41444753D01*
D02*
G37*
%LPC*%
G36*
X47010000Y42845000D02*
X45750000Y42845000D01*
X45750000Y44055000D01*
X46025000Y44055000D01*
X46025000Y44353286D01*
X45987381Y44387381D01*
X45950784Y44427761D01*
X45918328Y44471522D01*
X45890320Y44518251D01*
X45867018Y44567521D01*
X45848662Y44618820D01*
X45835423Y44671679D01*
X45827427Y44725574D01*
X45824753Y44780000D01*
X45827427Y44834426D01*
X45835423Y44888321D01*
X45848662Y44941180D01*
X45867018Y44992479D01*
X45890320Y45041749D01*
X45918328Y45088478D01*
X45950784Y45132239D01*
X45987381Y45172619D01*
X46027761Y45209216D01*
X46071522Y45241672D01*
X46118251Y45269680D01*
X46167521Y45292982D01*
X46218820Y45311338D01*
X46271679Y45324577D01*
X46325574Y45332573D01*
X46380000Y45335247D01*
X46434426Y45332573D01*
X46488321Y45324577D01*
X46541180Y45311338D01*
X46592479Y45292982D01*
X46641749Y45269680D01*
X46688478Y45241672D01*
X46732239Y45209216D01*
X46772619Y45172619D01*
X46809216Y45132239D01*
X46841672Y45088478D01*
X46869680Y45041749D01*
X46892982Y44992479D01*
X46911338Y44941180D01*
X46924577Y44888321D01*
X46932573Y44834426D01*
X46935247Y44780000D01*
X46932573Y44725574D01*
X46924577Y44671679D01*
X46911338Y44618820D01*
X46892982Y44567521D01*
X46869680Y44518251D01*
X46841672Y44471522D01*
X46809216Y44427761D01*
X46772619Y44387381D01*
X46735000Y44353286D01*
X46735000Y44055000D01*
X47010000Y44055000D01*
X47010000Y43805000D01*
X47535000Y43805000D01*
X47535000Y43905000D01*
X48845000Y43905000D01*
X48845000Y42995000D01*
X47535000Y42995000D01*
X47535000Y43095000D01*
X47010000Y43095000D01*
X47010000Y42845000D01*
D02*
G37*
%LPC*%
G36*
X33870000Y43400000D02*
X33470000Y43400000D01*
X33470000Y44400000D01*
X33870000Y44400000D01*
X33870000Y43400000D01*
D02*
G37*
%LPC*%
G36*
X33270000Y43400000D02*
X32870000Y43400000D01*
X32870000Y44400000D01*
X33270000Y44400000D01*
X33270000Y43400000D01*
D02*
G37*
%LPC*%
G36*
X52385000Y43550000D02*
X51860000Y43550000D01*
X51860000Y44050000D01*
X52385000Y44050000D01*
X52385000Y43550000D01*
D02*
G37*
%LPC*%
G36*
X51660000Y43550000D02*
X51135000Y43550000D01*
X51135000Y44050000D01*
X51660000Y44050000D01*
X51660000Y43550000D01*
D02*
G37*
%LPC*%
G36*
X50625000Y43550000D02*
X50100000Y43550000D01*
X50100000Y44050000D01*
X50625000Y44050000D01*
X50625000Y43550000D01*
D02*
G37*
%LPC*%
G36*
X49900000Y43550000D02*
X49375000Y43550000D01*
X49375000Y44050000D01*
X49900000Y44050000D01*
X49900000Y43550000D01*
D02*
G37*
%LPC*%
G36*
X11100000Y38244753D02*
X11001467Y38249595D01*
X10903890Y38264068D01*
X10808188Y38288040D01*
X10715316Y38321271D01*
X10626121Y38363456D01*
X10541515Y38414167D01*
X10462284Y38472930D01*
X10389183Y38539183D01*
X10322930Y38612284D01*
X10264167Y38691515D01*
X10213456Y38776121D01*
X10171271Y38865316D01*
X10138040Y38958188D01*
X10114068Y39053890D01*
X10099595Y39151467D01*
X10094753Y39250000D01*
X10099595Y39348533D01*
X10114068Y39446110D01*
X10138040Y39541812D01*
X10171271Y39634684D01*
X10213456Y39723879D01*
X10264167Y39808485D01*
X10322930Y39887716D01*
X10389183Y39960817D01*
X10462284Y40027070D01*
X10541515Y40085833D01*
X10626129Y40136548D01*
X10745000Y40192770D01*
X10745000Y41607230D01*
X10626129Y41663452D01*
X10541515Y41714167D01*
X10462284Y41772930D01*
X10389183Y41839183D01*
X10322930Y41912284D01*
X10264167Y41991515D01*
X10213456Y42076121D01*
X10171271Y42165316D01*
X10138040Y42258188D01*
X10114068Y42353890D01*
X10099595Y42451467D01*
X10094753Y42550000D01*
X10099595Y42648533D01*
X10114068Y42746110D01*
X10138040Y42841812D01*
X10171271Y42934684D01*
X10213456Y43023879D01*
X10264167Y43108485D01*
X10322930Y43187716D01*
X10389183Y43260817D01*
X10462284Y43327070D01*
X10541515Y43385833D01*
X10626121Y43436544D01*
X10715316Y43478729D01*
X10808188Y43511960D01*
X10903890Y43535932D01*
X11001467Y43550405D01*
X11100000Y43555247D01*
X11198533Y43550405D01*
X11296110Y43535932D01*
X11391812Y43511960D01*
X11484684Y43478729D01*
X11573879Y43436544D01*
X11658485Y43385833D01*
X11737716Y43327070D01*
X11810817Y43260817D01*
X11877070Y43187716D01*
X11935833Y43108485D01*
X11986544Y43023879D01*
X12028729Y42934684D01*
X12061960Y42841812D01*
X12085932Y42746110D01*
X12100405Y42648533D01*
X12105247Y42550000D01*
X12100405Y42451467D01*
X12085932Y42353890D01*
X12061960Y42258188D01*
X12028729Y42165316D01*
X11986544Y42076121D01*
X11935833Y41991515D01*
X11877070Y41912284D01*
X11810817Y41839183D01*
X11737716Y41772930D01*
X11658485Y41714167D01*
X11573871Y41663452D01*
X11455000Y41607230D01*
X11455000Y40192770D01*
X11573871Y40136548D01*
X11658485Y40085833D01*
X11737716Y40027070D01*
X11810817Y39960817D01*
X11877070Y39887716D01*
X11935833Y39808485D01*
X11986544Y39723879D01*
X12028729Y39634684D01*
X12061960Y39541812D01*
X12085932Y39446110D01*
X12100405Y39348533D01*
X12105247Y39250000D01*
X12100405Y39151467D01*
X12085932Y39053890D01*
X12061960Y38958188D01*
X12028729Y38865316D01*
X11986544Y38776121D01*
X11935833Y38691515D01*
X11877070Y38612284D01*
X11810817Y38539183D01*
X11737716Y38472930D01*
X11658485Y38414167D01*
X11573879Y38363456D01*
X11484684Y38321271D01*
X11391812Y38288040D01*
X11296110Y38264068D01*
X11198533Y38249595D01*
X11100000Y38244753D01*
D02*
G37*
%LPC*%
G36*
X13600000Y41544753D02*
X13501467Y41549595D01*
X13403890Y41564068D01*
X13308188Y41588040D01*
X13215316Y41621271D01*
X13126121Y41663456D01*
X13041515Y41714167D01*
X12962284Y41772930D01*
X12889183Y41839183D01*
X12822930Y41912284D01*
X12764167Y41991515D01*
X12713456Y42076121D01*
X12671271Y42165316D01*
X12638040Y42258188D01*
X12614068Y42353890D01*
X12599595Y42451467D01*
X12594753Y42550000D01*
X12599595Y42648533D01*
X12614068Y42746110D01*
X12638040Y42841812D01*
X12671271Y42934684D01*
X12713456Y43023879D01*
X12764167Y43108485D01*
X12822930Y43187716D01*
X12889183Y43260817D01*
X12962284Y43327070D01*
X13041515Y43385833D01*
X13126121Y43436544D01*
X13215316Y43478729D01*
X13308188Y43511960D01*
X13403890Y43535932D01*
X13501467Y43550405D01*
X13600000Y43555247D01*
X13698533Y43550405D01*
X13796110Y43535932D01*
X13891812Y43511960D01*
X13984684Y43478729D01*
X14073879Y43436544D01*
X14158485Y43385833D01*
X14237716Y43327070D01*
X14310817Y43260817D01*
X14377070Y43187716D01*
X14435833Y43108485D01*
X14486544Y43023879D01*
X14528729Y42934684D01*
X14561960Y42841812D01*
X14585932Y42746110D01*
X14600405Y42648533D01*
X14605247Y42550000D01*
X14600405Y42451467D01*
X14585932Y42353890D01*
X14561960Y42258188D01*
X14528729Y42165316D01*
X14486544Y42076121D01*
X14435833Y41991515D01*
X14377070Y41912284D01*
X14310817Y41839183D01*
X14237716Y41772930D01*
X14158485Y41714167D01*
X14073879Y41663456D01*
X13984684Y41621271D01*
X13891812Y41588040D01*
X13796110Y41564068D01*
X13698533Y41549595D01*
X13600000Y41544753D01*
D02*
G37*
%LPC*%
G36*
X16100000Y41544753D02*
X16001467Y41549595D01*
X15903890Y41564068D01*
X15808188Y41588040D01*
X15715316Y41621271D01*
X15626121Y41663456D01*
X15541515Y41714167D01*
X15462284Y41772930D01*
X15389183Y41839183D01*
X15322930Y41912284D01*
X15264167Y41991515D01*
X15213456Y42076121D01*
X15171271Y42165316D01*
X15138040Y42258188D01*
X15114068Y42353890D01*
X15099595Y42451467D01*
X15094753Y42550000D01*
X15099595Y42648533D01*
X15114068Y42746110D01*
X15138040Y42841812D01*
X15171271Y42934684D01*
X15213456Y43023879D01*
X15264167Y43108485D01*
X15322930Y43187716D01*
X15389183Y43260817D01*
X15462284Y43327070D01*
X15541515Y43385833D01*
X15626121Y43436544D01*
X15715316Y43478729D01*
X15808188Y43511960D01*
X15903890Y43535932D01*
X16001467Y43550405D01*
X16100000Y43555247D01*
X16198533Y43550405D01*
X16296110Y43535932D01*
X16391812Y43511960D01*
X16484684Y43478729D01*
X16573879Y43436544D01*
X16658485Y43385833D01*
X16737716Y43327070D01*
X16810817Y43260817D01*
X16877070Y43187716D01*
X16935833Y43108485D01*
X16986544Y43023879D01*
X17028729Y42934684D01*
X17061960Y42841812D01*
X17085932Y42746110D01*
X17100405Y42648533D01*
X17105247Y42550000D01*
X17100405Y42451467D01*
X17085932Y42353890D01*
X17061960Y42258188D01*
X17028729Y42165316D01*
X16986544Y42076121D01*
X16935833Y41991515D01*
X16877070Y41912284D01*
X16810817Y41839183D01*
X16737716Y41772930D01*
X16658485Y41714167D01*
X16573879Y41663456D01*
X16484684Y41621271D01*
X16391812Y41588040D01*
X16296110Y41564068D01*
X16198533Y41549595D01*
X16100000Y41544753D01*
D02*
G37*
%LPC*%
G36*
X52385000Y42850000D02*
X51860000Y42850000D01*
X51860000Y43350000D01*
X52385000Y43350000D01*
X52385000Y42850000D01*
D02*
G37*
%LPC*%
G36*
X51660000Y42850000D02*
X51135000Y42850000D01*
X51135000Y43350000D01*
X51660000Y43350000D01*
X51660000Y42850000D01*
D02*
G37*
%LPC*%
G36*
X50625000Y42850000D02*
X50100000Y42850000D01*
X50100000Y43350000D01*
X50625000Y43350000D01*
X50625000Y42850000D01*
D02*
G37*
%LPC*%
G36*
X49900000Y42850000D02*
X49375000Y42850000D01*
X49375000Y43350000D01*
X49900000Y43350000D01*
X49900000Y42850000D01*
D02*
G37*
%LPC*%
G36*
X31980000Y42130000D02*
X31430000Y42130000D01*
X31430000Y42730000D01*
X31980000Y42730000D01*
X31980000Y42130000D01*
D02*
G37*
%LPC*%
G36*
X31230000Y42130000D02*
X30680000Y42130000D01*
X30680000Y42730000D01*
X31230000Y42730000D01*
X31230000Y42130000D01*
D02*
G37*
%LPC*%
G36*
X50630000Y41345000D02*
X49370000Y41345000D01*
X49370000Y41595000D01*
X48845000Y41595000D01*
X48845000Y41495000D01*
X47535000Y41495000D01*
X47535000Y42405000D01*
X48845000Y42405000D01*
X48845000Y42305000D01*
X49370000Y42305000D01*
X49370000Y42555000D01*
X50630000Y42555000D01*
X50630000Y41345000D01*
D02*
G37*
%LPC*%
G36*
X48505000Y39485000D02*
X47595000Y39485000D01*
X47595000Y40002955D01*
X46252955Y41345000D01*
X45750000Y41345000D01*
X45750000Y41595000D01*
X45326714Y41595000D01*
X45292619Y41557381D01*
X45252239Y41520784D01*
X45208478Y41488328D01*
X45161749Y41460320D01*
X45112479Y41437018D01*
X45061180Y41418662D01*
X45008321Y41405423D01*
X44954426Y41397427D01*
X44900000Y41394753D01*
X44845574Y41397427D01*
X44791679Y41405423D01*
X44738820Y41418662D01*
X44687521Y41437018D01*
X44638251Y41460320D01*
X44591522Y41488328D01*
X44547761Y41520784D01*
X44507381Y41557381D01*
X44470784Y41597761D01*
X44438328Y41641522D01*
X44410320Y41688251D01*
X44387018Y41737521D01*
X44368662Y41788820D01*
X44355423Y41841679D01*
X44347427Y41895574D01*
X44344753Y41950000D01*
X44347427Y42004426D01*
X44355423Y42058321D01*
X44368662Y42111180D01*
X44387018Y42162479D01*
X44410320Y42211749D01*
X44438328Y42258478D01*
X44470784Y42302239D01*
X44507381Y42342619D01*
X44547761Y42379216D01*
X44591522Y42411672D01*
X44638251Y42439680D01*
X44687521Y42462982D01*
X44738820Y42481338D01*
X44791679Y42494577D01*
X44845574Y42502573D01*
X44900000Y42505247D01*
X44954426Y42502573D01*
X45008321Y42494577D01*
X45061180Y42481338D01*
X45112479Y42462982D01*
X45161749Y42439680D01*
X45208478Y42411672D01*
X45252239Y42379216D01*
X45292619Y42342619D01*
X45326714Y42305000D01*
X45750000Y42305000D01*
X45750000Y42555000D01*
X47010000Y42555000D01*
X47010000Y41592045D01*
X47807045Y40795000D01*
X48505000Y40795000D01*
X48505000Y39485000D01*
D02*
G37*
%LPC*%
G36*
X34805000Y41430000D02*
X34280000Y41430000D01*
X34280000Y41930000D01*
X34805000Y41930000D01*
X34805000Y41430000D01*
D02*
G37*
%LPC*%
G36*
X34080000Y41430000D02*
X33555000Y41430000D01*
X33555000Y41930000D01*
X34080000Y41930000D01*
X34080000Y41430000D01*
D02*
G37*
%LPC*%
G36*
X31980000Y41330000D02*
X31430000Y41330000D01*
X31430000Y41930000D01*
X31980000Y41930000D01*
X31980000Y41330000D01*
D02*
G37*
%LPC*%
G36*
X31230000Y41330000D02*
X30680000Y41330000D01*
X30680000Y41930000D01*
X31230000Y41930000D01*
X31230000Y41330000D01*
D02*
G37*
%LPC*%
G36*
X34805000Y40730000D02*
X34280000Y40730000D01*
X34280000Y41230000D01*
X34805000Y41230000D01*
X34805000Y40730000D01*
D02*
G37*
%LPC*%
G36*
X34080000Y40730000D02*
X33555000Y40730000D01*
X33555000Y41230000D01*
X34080000Y41230000D01*
X34080000Y40730000D01*
D02*
G37*
%LPC*%
G36*
X21732474Y35564289D02*
X19727526Y35564289D01*
X19727526Y38715709D01*
X20375000Y38715709D01*
X20375000Y39584999D01*
X20275000Y39584999D01*
X20275000Y39884999D01*
X19487044Y39884999D01*
X18607603Y39005558D01*
X18601120Y38997779D01*
X18547777Y38954003D01*
X18486229Y38921106D01*
X18419448Y38900847D01*
X18360074Y38895000D01*
X17042770Y38895000D01*
X16986548Y38776129D01*
X16935833Y38691515D01*
X16877070Y38612284D01*
X16810817Y38539183D01*
X16737716Y38472930D01*
X16658485Y38414167D01*
X16573879Y38363456D01*
X16484684Y38321271D01*
X16391812Y38288040D01*
X16296110Y38264068D01*
X16198533Y38249595D01*
X16100000Y38244753D01*
X16001467Y38249595D01*
X15903890Y38264068D01*
X15808188Y38288040D01*
X15715316Y38321271D01*
X15626121Y38363456D01*
X15541515Y38414167D01*
X15462284Y38472930D01*
X15389183Y38539183D01*
X15322930Y38612284D01*
X15264167Y38691515D01*
X15213456Y38776121D01*
X15171271Y38865316D01*
X15138040Y38958188D01*
X15114068Y39053890D01*
X15099595Y39151467D01*
X15094753Y39250000D01*
X15099595Y39348533D01*
X15114068Y39446110D01*
X15138040Y39541812D01*
X15171271Y39634684D01*
X15213456Y39723879D01*
X15264167Y39808485D01*
X15322930Y39887716D01*
X15389183Y39960817D01*
X15462284Y40027070D01*
X15541515Y40085833D01*
X15626121Y40136544D01*
X15715316Y40178729D01*
X15808188Y40211960D01*
X15903890Y40235932D01*
X16001467Y40250405D01*
X16100000Y40255247D01*
X16198533Y40250405D01*
X16296110Y40235932D01*
X16391812Y40211960D01*
X16484684Y40178729D01*
X16573879Y40136544D01*
X16658485Y40085833D01*
X16737716Y40027070D01*
X16810817Y39960817D01*
X16877070Y39887716D01*
X16935833Y39808485D01*
X16986548Y39723871D01*
X17042770Y39605000D01*
X18202955Y39605000D01*
X19082395Y40484440D01*
X19088878Y40492219D01*
X19142221Y40535995D01*
X19203770Y40568892D01*
X19270546Y40589149D01*
X19329924Y40594999D01*
X20275000Y40594999D01*
X20275000Y40894999D01*
X21185000Y40894999D01*
X21185000Y39584999D01*
X21085000Y39584999D01*
X21085000Y38715709D01*
X21732474Y38715709D01*
X21732474Y35564289D01*
D02*
G37*
%LPC*%
G36*
X22680000Y40339999D02*
X22330000Y40339999D01*
X22330000Y40889999D01*
X22680000Y40889999D01*
X22680000Y40339999D01*
D02*
G37*
%LPC*%
G36*
X22130000Y40339999D02*
X21780000Y40339999D01*
X21780000Y40889999D01*
X22130000Y40889999D01*
X22130000Y40339999D01*
D02*
G37*
%LPC*%
G36*
X4760000Y39110000D02*
X3860000Y39110000D01*
X3860000Y40460000D01*
X4760000Y40460000D01*
X4760000Y39110000D01*
D02*
G37*
%LPC*%
G36*
X3660000Y39110000D02*
X2760000Y39110000D01*
X2760000Y40460000D01*
X3660000Y40460000D01*
X3660000Y39110000D01*
D02*
G37*
%LPC*%
G36*
X27575000Y39930000D02*
X27075000Y39930000D01*
X27075000Y40455000D01*
X27575000Y40455000D01*
X27575000Y39930000D01*
D02*
G37*
%LPC*%
G36*
X26875000Y39930000D02*
X26375000Y39930000D01*
X26375000Y40455000D01*
X26875000Y40455000D01*
X26875000Y39930000D01*
D02*
G37*
%LPC*%
G36*
X22680000Y39589999D02*
X22330000Y39589999D01*
X22330000Y40139999D01*
X22680000Y40139999D01*
X22680000Y39589999D01*
D02*
G37*
%LPC*%
G36*
X22130000Y39589999D02*
X21780000Y39589999D01*
X21780000Y40139999D01*
X22130000Y40139999D01*
X22130000Y39589999D01*
D02*
G37*
%LPC*%
G36*
X27575000Y39205000D02*
X27075000Y39205000D01*
X27075000Y39730000D01*
X27575000Y39730000D01*
X27575000Y39205000D01*
D02*
G37*
%LPC*%
G36*
X26875000Y39205000D02*
X26375000Y39205000D01*
X26375000Y39730000D01*
X26875000Y39730000D01*
X26875000Y39205000D01*
D02*
G37*
%LPC*%
G36*
X4760000Y37560000D02*
X3860000Y37560000D01*
X3860000Y38910000D01*
X4760000Y38910000D01*
X4760000Y37560000D01*
D02*
G37*
%LPC*%
G36*
X3660000Y37560000D02*
X2760000Y37560000D01*
X2760000Y38910000D01*
X3660000Y38910000D01*
X3660000Y37560000D01*
D02*
G37*
%LPC*%
G36*
X55015000Y27590000D02*
X54005000Y27590000D01*
X54005000Y29550000D01*
X54547955Y29550000D01*
X55045000Y30047045D01*
X55045000Y37533364D01*
X55007381Y37567459D01*
X54970784Y37607839D01*
X54938328Y37651600D01*
X54910320Y37698329D01*
X54887018Y37747599D01*
X54868662Y37798898D01*
X54855423Y37851757D01*
X54847427Y37905652D01*
X54844753Y37960078D01*
X54847427Y38014504D01*
X54855423Y38068399D01*
X54868662Y38121258D01*
X54887018Y38172557D01*
X54910320Y38221827D01*
X54938328Y38268556D01*
X54970784Y38312317D01*
X55007381Y38352697D01*
X55047761Y38389294D01*
X55091522Y38421750D01*
X55138251Y38449758D01*
X55187521Y38473060D01*
X55238820Y38491416D01*
X55291679Y38504655D01*
X55345574Y38512651D01*
X55400000Y38515325D01*
X55454426Y38512651D01*
X55508321Y38504655D01*
X55561180Y38491416D01*
X55612479Y38473060D01*
X55661749Y38449758D01*
X55708478Y38421750D01*
X55752239Y38389294D01*
X55792619Y38352697D01*
X55829216Y38312317D01*
X55861672Y38268556D01*
X55889680Y38221827D01*
X55912982Y38172557D01*
X55931338Y38121258D01*
X55944577Y38068399D01*
X55952573Y38014504D01*
X55955247Y37960078D01*
X55952573Y37905652D01*
X55944577Y37851757D01*
X55931338Y37798898D01*
X55912982Y37747599D01*
X55889680Y37698329D01*
X55861672Y37651600D01*
X55829216Y37607839D01*
X55792619Y37567459D01*
X55755000Y37533364D01*
X55755000Y29889925D01*
X55749150Y29830547D01*
X55728893Y29763771D01*
X55695996Y29702222D01*
X55652220Y29648879D01*
X55644441Y29642396D01*
X55015000Y29012955D01*
X55015000Y27590000D01*
D02*
G37*
%LPC*%
G36*
X54315000Y37230000D02*
X53790000Y37230000D01*
X53790000Y37730000D01*
X54315000Y37730000D01*
X54315000Y37230000D01*
D02*
G37*
%LPC*%
G36*
X53590000Y37230000D02*
X53065000Y37230000D01*
X53065000Y37730000D01*
X53590000Y37730000D01*
X53590000Y37230000D01*
D02*
G37*
%LPC*%
G36*
X17055000Y33795000D02*
X15745000Y33795000D01*
X15745000Y34705000D01*
X16045000Y34705000D01*
X16045000Y36373286D01*
X16007381Y36407381D01*
X15970784Y36447761D01*
X15938328Y36491522D01*
X15910320Y36538251D01*
X15887018Y36587521D01*
X15868662Y36638820D01*
X15855423Y36691679D01*
X15847427Y36745574D01*
X15844753Y36800000D01*
X15847427Y36854426D01*
X15855423Y36908321D01*
X15868662Y36961180D01*
X15887018Y37012479D01*
X15910320Y37061749D01*
X15938328Y37108478D01*
X15970784Y37152239D01*
X16007381Y37192619D01*
X16047761Y37229216D01*
X16091522Y37261672D01*
X16138251Y37289680D01*
X16187521Y37312982D01*
X16238820Y37331338D01*
X16291679Y37344577D01*
X16345574Y37352573D01*
X16400000Y37355247D01*
X16454426Y37352573D01*
X16508321Y37344577D01*
X16561180Y37331338D01*
X16612479Y37312982D01*
X16661749Y37289680D01*
X16708478Y37261672D01*
X16752239Y37229216D01*
X16792619Y37192619D01*
X16829216Y37152239D01*
X16861672Y37108478D01*
X16889680Y37061749D01*
X16912982Y37012479D01*
X16931338Y36961180D01*
X16944577Y36908321D01*
X16952573Y36854426D01*
X16955247Y36800000D01*
X16952573Y36745574D01*
X16944577Y36691679D01*
X16931338Y36638820D01*
X16912982Y36587521D01*
X16889680Y36538251D01*
X16861672Y36491522D01*
X16829216Y36447761D01*
X16792619Y36407381D01*
X16755000Y36373286D01*
X16755000Y34705000D01*
X17055000Y34705000D01*
X17055000Y33795000D01*
D02*
G37*
%LPC*%
G36*
X4085000Y32105000D02*
X3175000Y32105000D01*
X3175000Y33415000D01*
X3336544Y33415000D01*
X3336544Y34255000D01*
X2755000Y34255000D01*
X2755000Y37165000D01*
X4765000Y37165000D01*
X4765000Y34255000D01*
X4046544Y34255000D01*
X4046544Y33415000D01*
X4085000Y33415000D01*
X4085000Y32105000D01*
D02*
G37*
%LPC*%
G36*
X54315000Y36530000D02*
X53790000Y36530000D01*
X53790000Y37030000D01*
X54315000Y37030000D01*
X54315000Y36530000D01*
D02*
G37*
%LPC*%
G36*
X53590000Y36530000D02*
X53065000Y36530000D01*
X53065000Y37030000D01*
X53590000Y37030000D01*
X53590000Y36530000D01*
D02*
G37*
%LPC*%
G36*
X40130000Y34730000D02*
X39230000Y34730000D01*
X39230000Y36305000D01*
X40130000Y36305000D01*
X40130000Y34730000D01*
D02*
G37*
%LPC*%
G36*
X39030000Y34730000D02*
X38130000Y34730000D01*
X38130000Y36305000D01*
X39030000Y36305000D01*
X39030000Y34730000D01*
D02*
G37*
%LPC*%
G36*
X54345000Y33515000D02*
X53035000Y33515000D01*
X53035000Y34425000D01*
X53335000Y34425000D01*
X53335000Y35025000D01*
X53060000Y35025000D01*
X53060000Y36235000D01*
X54320000Y36235000D01*
X54320000Y35025000D01*
X54045000Y35025000D01*
X54045000Y34425000D01*
X54345000Y34425000D01*
X54345000Y33515000D01*
D02*
G37*
%LPC*%
G36*
X52500000Y35630000D02*
X51950000Y35630000D01*
X51950000Y35980000D01*
X52500000Y35980000D01*
X52500000Y35630000D01*
D02*
G37*
%LPC*%
G36*
X51750000Y35630000D02*
X51200000Y35630000D01*
X51200000Y35980000D01*
X51750000Y35980000D01*
X51750000Y35630000D01*
D02*
G37*
%LPC*%
G36*
X52500000Y35080000D02*
X51950000Y35080000D01*
X51950000Y35430000D01*
X52500000Y35430000D01*
X52500000Y35080000D01*
D02*
G37*
%LPC*%
G36*
X51750000Y35080000D02*
X51200000Y35080000D01*
X51200000Y35430000D01*
X51750000Y35430000D01*
X51750000Y35080000D01*
D02*
G37*
%LPC*%
G36*
X40130000Y32955000D02*
X39230000Y32955000D01*
X39230000Y34530000D01*
X40130000Y34530000D01*
X40130000Y32955000D01*
D02*
G37*
%LPC*%
G36*
X39030000Y32955000D02*
X38130000Y32955000D01*
X38130000Y34530000D01*
X39030000Y34530000D01*
X39030000Y32955000D01*
D02*
G37*
%LPC*%
G36*
X17055000Y32295000D02*
X15745000Y32295000D01*
X15745000Y32395000D01*
X15175000Y32395000D01*
X15175000Y32315000D01*
X13565000Y32315000D01*
X13565000Y34525000D01*
X15175000Y34525000D01*
X15175000Y33105000D01*
X15745000Y33105000D01*
X15745000Y33205000D01*
X17055000Y33205000D01*
X17055000Y32295000D01*
D02*
G37*
%LPC*%
G36*
X15950000Y24585000D02*
X13990000Y24585000D01*
X13990000Y24735979D01*
X13940552Y24740847D01*
X13873770Y24761106D01*
X13812222Y24794003D01*
X13758157Y24838370D01*
X13751733Y24846222D01*
X11226222Y27371733D01*
X11218370Y27378157D01*
X11174003Y27432222D01*
X11141106Y27493770D01*
X11120847Y27560552D01*
X11115000Y27619927D01*
X11115000Y30365000D01*
X11015000Y30365000D01*
X11015000Y31675000D01*
X11115000Y31675000D01*
X11115000Y32315000D01*
X10665000Y32315000D01*
X10665000Y34525000D01*
X12275000Y34525000D01*
X12275000Y32315000D01*
X11825000Y32315000D01*
X11825000Y31675000D01*
X11925000Y31675000D01*
X11925000Y30365000D01*
X11825000Y30365000D01*
X11825000Y27777045D01*
X14007045Y25595000D01*
X15950000Y25595000D01*
X15950000Y24585000D01*
D02*
G37*
%LPC*%
G36*
X27095000Y26968883D02*
X24885000Y26968883D01*
X24885000Y28718883D01*
X25385000Y28718883D01*
X25385000Y29395000D01*
X25185000Y29395000D01*
X25185000Y31605000D01*
X25385000Y31605000D01*
X25385000Y32295000D01*
X25121117Y32295000D01*
X25121117Y34505000D01*
X26871117Y34505000D01*
X26871117Y32295000D01*
X26595000Y32295000D01*
X26595000Y31605000D01*
X26795000Y31605000D01*
X26795000Y29395000D01*
X26595000Y29395000D01*
X26595000Y28718883D01*
X27095000Y28718883D01*
X27095000Y26968883D01*
D02*
G37*
%LPC*%
G36*
X48492474Y30554291D02*
X46487526Y30554291D01*
X46487526Y33705711D01*
X48263666Y33705711D01*
X48772396Y34214441D01*
X48778879Y34222220D01*
X48832222Y34265996D01*
X48893771Y34298893D01*
X48960547Y34319150D01*
X49019925Y34325000D01*
X51195000Y34325000D01*
X51195000Y34425000D01*
X52505000Y34425000D01*
X52505000Y33515000D01*
X51195000Y33515000D01*
X51195000Y33615000D01*
X49177045Y33615000D01*
X48492474Y32930429D01*
X48492474Y30554291D01*
D02*
G37*
%LPC*%
G36*
X17025000Y30365000D02*
X16115000Y30365000D01*
X16115000Y31675000D01*
X17025000Y31675000D01*
X17025000Y31375000D01*
X19727526Y31375000D01*
X19727526Y33815711D01*
X21732474Y33815711D01*
X21732474Y30664291D01*
X19727526Y30664291D01*
X19727526Y30665000D01*
X17025000Y30665000D01*
X17025000Y30365000D01*
D02*
G37*
%LPC*%
G36*
X53745000Y27590000D02*
X52735000Y27590000D01*
X52735000Y29550000D01*
X52995000Y29550000D01*
X52995000Y30145000D01*
X52895000Y30145000D01*
X52895000Y31455000D01*
X53055000Y31455000D01*
X53055000Y32015000D01*
X53035000Y32015000D01*
X53035000Y32925000D01*
X54345000Y32925000D01*
X54345000Y32015000D01*
X53765000Y32015000D01*
X53765000Y31455000D01*
X53805000Y31455000D01*
X53805000Y30145000D01*
X53705000Y30145000D01*
X53705000Y29550000D01*
X53745000Y29550000D01*
X53745000Y27590000D01*
D02*
G37*
%LPC*%
G36*
X52465000Y27590000D02*
X51455000Y27590000D01*
X51455000Y29550000D01*
X51495000Y29550000D01*
X51495000Y30145000D01*
X51395000Y30145000D01*
X51395000Y31455000D01*
X51495000Y31455000D01*
X51495000Y32015000D01*
X51195000Y32015000D01*
X51195000Y32925000D01*
X52505000Y32925000D01*
X52505000Y32015000D01*
X52205000Y32015000D01*
X52205000Y31455000D01*
X52305000Y31455000D01*
X52305000Y30145000D01*
X52205000Y30145000D01*
X52205000Y29550000D01*
X52465000Y29550000D01*
X52465000Y27590000D01*
D02*
G37*
%LPC*%
G36*
X15950000Y25855000D02*
X13990000Y25855000D01*
X13990000Y26865000D01*
X14615000Y26865000D01*
X14615000Y27135000D01*
X13990000Y27135000D01*
X13990000Y27285000D01*
X13919927Y27285000D01*
X13860552Y27290847D01*
X13793770Y27311106D01*
X13732222Y27344003D01*
X13678157Y27388370D01*
X13671733Y27396222D01*
X12956222Y28111733D01*
X12948370Y28118157D01*
X12904003Y28172222D01*
X12871106Y28233770D01*
X12850847Y28300552D01*
X12845000Y28359927D01*
X12845000Y29430074D01*
X12850847Y29489448D01*
X12871106Y29556229D01*
X12904003Y29617777D01*
X12947779Y29671120D01*
X12955558Y29677603D01*
X14542396Y31264441D01*
X14548879Y31272220D01*
X14615000Y31326482D01*
X14615000Y31675000D01*
X15525000Y31675000D01*
X15525000Y30365000D01*
X14647045Y30365000D01*
X13555000Y29272955D01*
X13555000Y28517045D01*
X13927045Y28145000D01*
X15950000Y28145000D01*
X15950000Y27135000D01*
X15325000Y27135000D01*
X15325000Y26865000D01*
X15950000Y26865000D01*
X15950000Y25855000D01*
D02*
G37*
%LPC*%
G36*
X13420000Y31120000D02*
X13070000Y31120000D01*
X13070000Y31670000D01*
X13420000Y31670000D01*
X13420000Y31120000D01*
D02*
G37*
%LPC*%
G36*
X12870000Y31120000D02*
X12520000Y31120000D01*
X12520000Y31670000D01*
X12870000Y31670000D01*
X12870000Y31120000D01*
D02*
G37*
%LPC*%
G36*
X29995000Y27055000D02*
X27785000Y27055000D01*
X27785000Y28665000D01*
X28285000Y28665000D01*
X28285000Y29395000D01*
X28085000Y29395000D01*
X28085000Y31605000D01*
X29695000Y31605000D01*
X29695000Y30445000D01*
X32710000Y30445000D01*
X32710000Y29435000D01*
X29695000Y29435000D01*
X29695000Y29395000D01*
X29495000Y29395000D01*
X29495000Y28665000D01*
X29995000Y28665000D01*
X29995000Y27055000D01*
D02*
G37*
%LPC*%
G36*
X40900000Y30390000D02*
X39900000Y30390000D01*
X39900000Y31090000D01*
X40900000Y31090000D01*
X40900000Y30390000D01*
D02*
G37*
%LPC*%
G36*
X39700000Y30390000D02*
X38700000Y30390000D01*
X38700000Y31090000D01*
X39700000Y31090000D01*
X39700000Y30390000D01*
D02*
G37*
%LPC*%
G36*
X13420000Y30370000D02*
X13070000Y30370000D01*
X13070000Y30920000D01*
X13420000Y30920000D01*
X13420000Y30370000D01*
D02*
G37*
%LPC*%
G36*
X12870000Y30370000D02*
X12520000Y30370000D01*
X12520000Y30920000D01*
X12870000Y30920000D01*
X12870000Y30370000D01*
D02*
G37*
%LPC*%
G36*
X38050000Y29435000D02*
X36090000Y29435000D01*
X36090000Y30445000D01*
X38050000Y30445000D01*
X38050000Y29435000D01*
D02*
G37*
%LPC*%
G36*
X40900000Y29490000D02*
X39900000Y29490000D01*
X39900000Y30190000D01*
X40900000Y30190000D01*
X40900000Y29490000D01*
D02*
G37*
%LPC*%
G36*
X39700000Y29490000D02*
X38700000Y29490000D01*
X38700000Y30190000D01*
X39700000Y30190000D01*
X39700000Y29490000D01*
D02*
G37*
%LPC*%
G36*
X4080000Y29310000D02*
X3530000Y29310000D01*
X3530000Y29660000D01*
X4080000Y29660000D01*
X4080000Y29310000D01*
D02*
G37*
%LPC*%
G36*
X3330000Y29310000D02*
X2780000Y29310000D01*
X2780000Y29660000D01*
X3330000Y29660000D01*
X3330000Y29310000D01*
D02*
G37*
%LPC*%
G36*
X51195000Y27590000D02*
X50185000Y27590000D01*
X50185000Y28065000D01*
X49330000Y28065000D01*
X49330000Y27965000D01*
X43590111Y27965000D01*
X43570841Y27947535D01*
X43507371Y27900461D01*
X43439592Y27859837D01*
X43368157Y27826051D01*
X43293755Y27799428D01*
X43217092Y27780225D01*
X43138930Y27768632D01*
X43060000Y27764753D01*
X42981070Y27768632D01*
X42902908Y27780225D01*
X42826245Y27799428D01*
X42751843Y27826051D01*
X42680408Y27859837D01*
X42612629Y27900461D01*
X42549158Y27947535D01*
X42490604Y28000604D01*
X42437535Y28059158D01*
X42390461Y28122629D01*
X42349837Y28190408D01*
X42316051Y28261843D01*
X42289428Y28336245D01*
X42270225Y28412908D01*
X42258632Y28491070D01*
X42254753Y28570000D01*
X42258632Y28648930D01*
X42270225Y28727092D01*
X42289428Y28803755D01*
X42316051Y28878157D01*
X42349837Y28949592D01*
X42390461Y29017371D01*
X42437535Y29080842D01*
X42490604Y29139396D01*
X42549158Y29192465D01*
X42612629Y29239539D01*
X42680408Y29280163D01*
X42751843Y29313949D01*
X42826245Y29340572D01*
X42902908Y29359775D01*
X42981070Y29371368D01*
X43060000Y29375247D01*
X43138930Y29371368D01*
X43217092Y29359775D01*
X43293755Y29340572D01*
X43368157Y29313949D01*
X43439592Y29280163D01*
X43507371Y29239539D01*
X43570841Y29192465D01*
X43590111Y29175000D01*
X49330000Y29175000D01*
X49330000Y29075000D01*
X50185000Y29075000D01*
X50185000Y29550000D01*
X51195000Y29550000D01*
X51195000Y28580071D01*
X51195992Y28569999D01*
X51195000Y28559925D01*
X51195000Y27590000D01*
D02*
G37*
%LPC*%
G36*
X26995000Y19830000D02*
X24985000Y19830000D01*
X24985000Y23190000D01*
X25385000Y23190000D01*
X25385000Y24101117D01*
X24885000Y24101117D01*
X24885000Y24371117D01*
X23953810Y24371117D01*
X23845662Y24381767D01*
X23731978Y24416254D01*
X23627210Y24472253D01*
X23535263Y24547713D01*
X23528842Y24555561D01*
X19779403Y28305000D01*
X16520000Y28305000D01*
X16520000Y28405000D01*
X13990000Y28405000D01*
X13990000Y29415000D01*
X16520000Y29415000D01*
X16520000Y29515000D01*
X20040074Y29515000D01*
X20148222Y29504348D01*
X20261904Y29469862D01*
X20366672Y29413863D01*
X20450680Y29344918D01*
X24214480Y25581117D01*
X24885000Y25581117D01*
X24885000Y25851117D01*
X27095000Y25851117D01*
X27095000Y24101117D01*
X26595000Y24101117D01*
X26595000Y23190000D01*
X26995000Y23190000D01*
X26995000Y22115000D01*
X28879889Y22115000D01*
X28899159Y22132465D01*
X28962629Y22179539D01*
X29030408Y22220163D01*
X29101843Y22253949D01*
X29176245Y22280572D01*
X29252908Y22299775D01*
X29331070Y22311368D01*
X29410000Y22315247D01*
X29488930Y22311368D01*
X29567092Y22299775D01*
X29643755Y22280572D01*
X29718157Y22253949D01*
X29789592Y22220163D01*
X29857371Y22179539D01*
X29920842Y22132465D01*
X29979396Y22079396D01*
X30032465Y22020842D01*
X30079539Y21957371D01*
X30120163Y21889592D01*
X30153949Y21818157D01*
X30180572Y21743755D01*
X30199775Y21667092D01*
X30211368Y21588930D01*
X30215247Y21510000D01*
X30211368Y21431070D01*
X30199775Y21352908D01*
X30180572Y21276245D01*
X30153949Y21201843D01*
X30120163Y21130408D01*
X30079539Y21062629D01*
X30032465Y20999158D01*
X29979396Y20940604D01*
X29920842Y20887535D01*
X29857371Y20840461D01*
X29789592Y20799837D01*
X29718157Y20766051D01*
X29643755Y20739428D01*
X29567092Y20720225D01*
X29488930Y20708632D01*
X29410000Y20704753D01*
X29331070Y20708632D01*
X29252908Y20720225D01*
X29176245Y20739428D01*
X29101843Y20766051D01*
X29030408Y20799837D01*
X28962629Y20840461D01*
X28899159Y20887535D01*
X28879889Y20905000D01*
X26995000Y20905000D01*
X26995000Y19830000D01*
D02*
G37*
%LPC*%
G36*
X38050000Y28155000D02*
X36090000Y28155000D01*
X36090000Y29165000D01*
X38050000Y29165000D01*
X38050000Y28155000D01*
D02*
G37*
%LPC*%
G36*
X32705000Y28760000D02*
X31830000Y28760000D01*
X31830000Y29160000D01*
X32705000Y29160000D01*
X32705000Y28760000D01*
D02*
G37*
%LPC*%
G36*
X31630000Y28760000D02*
X30755000Y28760000D01*
X30755000Y29160000D01*
X31630000Y29160000D01*
X31630000Y28760000D01*
D02*
G37*
%LPC*%
G36*
X4080000Y28760000D02*
X3530000Y28760000D01*
X3530000Y29110000D01*
X4080000Y29110000D01*
X4080000Y28760000D01*
D02*
G37*
%LPC*%
G36*
X3330000Y28760000D02*
X2780000Y28760000D01*
X2780000Y29110000D01*
X3330000Y29110000D01*
X3330000Y28760000D01*
D02*
G37*
%LPC*%
G36*
X6285000Y25105000D02*
X5375000Y25105000D01*
X5375000Y26415000D01*
X5475000Y26415000D01*
X5475000Y27005000D01*
X4725000Y27005000D01*
X4725000Y28615000D01*
X6935000Y28615000D01*
X6935000Y27005000D01*
X6185000Y27005000D01*
X6185000Y26415000D01*
X6285000Y26415000D01*
X6285000Y25105000D01*
D02*
G37*
%LPC*%
G36*
X32705000Y28160000D02*
X31830000Y28160000D01*
X31830000Y28560000D01*
X32705000Y28560000D01*
X32705000Y28160000D01*
D02*
G37*
%LPC*%
G36*
X31630000Y28160000D02*
X30755000Y28160000D01*
X30755000Y28560000D01*
X31630000Y28560000D01*
X31630000Y28160000D01*
D02*
G37*
%LPC*%
G36*
X35785000Y24048883D02*
X33575000Y24048883D01*
X33575000Y25798883D01*
X34764706Y25798883D01*
X36090000Y27124177D01*
X36090000Y27895000D01*
X38695000Y27895000D01*
X38695000Y28195000D01*
X40905000Y28195000D01*
X40905000Y26585000D01*
X38695000Y26585000D01*
X38695000Y26885000D01*
X37279177Y26885000D01*
X35785000Y25390823D01*
X35785000Y24048883D01*
D02*
G37*
%LPC*%
G36*
X17775000Y27510000D02*
X17250000Y27510000D01*
X17250000Y28010000D01*
X17775000Y28010000D01*
X17775000Y27510000D01*
D02*
G37*
%LPC*%
G36*
X17050000Y27510000D02*
X16525000Y27510000D01*
X16525000Y28010000D01*
X17050000Y28010000D01*
X17050000Y27510000D01*
D02*
G37*
%LPC*%
G36*
X29995000Y24155000D02*
X27785000Y24155000D01*
X27785000Y25765000D01*
X29995000Y25765000D01*
X29995000Y25565000D01*
X30635000Y25565000D01*
X30635000Y25765000D01*
X31235000Y25765000D01*
X31235000Y26885000D01*
X30750000Y26885000D01*
X30750000Y27895000D01*
X31719936Y27895000D01*
X31730000Y27895991D01*
X31740064Y27895000D01*
X32710000Y27895000D01*
X32710000Y26885000D01*
X32245000Y26885000D01*
X32245000Y25765000D01*
X32845000Y25765000D01*
X32845000Y24155000D01*
X30635000Y24155000D01*
X30635000Y24355000D01*
X29995000Y24355000D01*
X29995000Y24155000D01*
D02*
G37*
%LPC*%
G36*
X49325000Y27170000D02*
X48800000Y27170000D01*
X48800000Y27670000D01*
X49325000Y27670000D01*
X49325000Y27170000D01*
D02*
G37*
%LPC*%
G36*
X48600000Y27170000D02*
X48075000Y27170000D01*
X48075000Y27670000D01*
X48600000Y27670000D01*
X48600000Y27170000D01*
D02*
G37*
%LPC*%
G36*
X17775000Y26810000D02*
X17250000Y26810000D01*
X17250000Y27310000D01*
X17775000Y27310000D01*
X17775000Y26810000D01*
D02*
G37*
%LPC*%
G36*
X17050000Y26810000D02*
X16525000Y26810000D01*
X16525000Y27310000D01*
X17050000Y27310000D01*
X17050000Y26810000D01*
D02*
G37*
%LPC*%
G36*
X49325000Y26470000D02*
X48800000Y26470000D01*
X48800000Y26970000D01*
X49325000Y26970000D01*
X49325000Y26470000D01*
D02*
G37*
%LPC*%
G36*
X48600000Y26470000D02*
X48075000Y26470000D01*
X48075000Y26970000D01*
X48600000Y26970000D01*
X48600000Y26470000D01*
D02*
G37*
%LPC*%
G36*
X7785000Y23205000D02*
X6875000Y23205000D01*
X6875000Y24515000D01*
X6975000Y24515000D01*
X6975000Y25105000D01*
X6875000Y25105000D01*
X6875000Y26415000D01*
X7482955Y26415000D01*
X7672396Y26604441D01*
X7678879Y26612220D01*
X7732222Y26655996D01*
X7793771Y26688893D01*
X7860547Y26709150D01*
X7919925Y26715000D01*
X8650000Y26715000D01*
X8650000Y26865000D01*
X10610000Y26865000D01*
X10610000Y25855000D01*
X8650000Y25855000D01*
X8650000Y26005000D01*
X8077045Y26005000D01*
X7785000Y25712955D01*
X7785000Y25105000D01*
X7685000Y25105000D01*
X7685000Y24515000D01*
X7785000Y24515000D01*
X7785000Y23205000D01*
D02*
G37*
%LPC*%
G36*
X19895000Y14325000D02*
X18785000Y14325000D01*
X18785000Y15635000D01*
X19492955Y15635000D01*
X20705000Y16847045D01*
X20705000Y25163286D01*
X20667381Y25197381D01*
X20630784Y25237761D01*
X20598328Y25281522D01*
X20570320Y25328251D01*
X20547018Y25377521D01*
X20528662Y25428820D01*
X20515423Y25481679D01*
X20507427Y25535574D01*
X20504753Y25590000D01*
X20507427Y25644426D01*
X20515423Y25698321D01*
X20528662Y25751180D01*
X20547018Y25802479D01*
X20570320Y25851749D01*
X20598328Y25898478D01*
X20630784Y25942239D01*
X20667381Y25982619D01*
X20707761Y26019216D01*
X20751522Y26051672D01*
X20798251Y26079680D01*
X20847521Y26102982D01*
X20898820Y26121338D01*
X20951679Y26134577D01*
X21005574Y26142573D01*
X21060000Y26145247D01*
X21114426Y26142573D01*
X21168321Y26134577D01*
X21221180Y26121338D01*
X21272479Y26102982D01*
X21321749Y26079680D01*
X21368478Y26051672D01*
X21412239Y26019216D01*
X21452619Y25982619D01*
X21489216Y25942239D01*
X21521672Y25898478D01*
X21549680Y25851749D01*
X21572982Y25802479D01*
X21591338Y25751180D01*
X21604577Y25698321D01*
X21612573Y25644426D01*
X21615247Y25590000D01*
X21612573Y25535574D01*
X21604577Y25481679D01*
X21591338Y25428820D01*
X21572982Y25377521D01*
X21549680Y25328251D01*
X21521672Y25281522D01*
X21489216Y25237761D01*
X21452619Y25197381D01*
X21415000Y25163286D01*
X21415000Y16689925D01*
X21409150Y16630547D01*
X21388893Y16563771D01*
X21355996Y16502222D01*
X21312220Y16448879D01*
X21304441Y16442396D01*
X19895000Y15032955D01*
X19895000Y14325000D01*
D02*
G37*
%LPC*%
G36*
X38800000Y25023883D02*
X37800000Y25023883D01*
X37800000Y25793883D01*
X38800000Y25793883D01*
X38800000Y25023883D01*
D02*
G37*
%LPC*%
G36*
X37600000Y25023883D02*
X36600000Y25023883D01*
X36600000Y25793883D01*
X37600000Y25793883D01*
X37600000Y25023883D01*
D02*
G37*
%LPC*%
G36*
X9630000Y20184753D02*
X9551070Y20188632D01*
X9472908Y20200225D01*
X9396245Y20219428D01*
X9321843Y20246051D01*
X9250408Y20279837D01*
X9182629Y20320461D01*
X9119158Y20367535D01*
X9060604Y20420604D01*
X9007535Y20479158D01*
X8960461Y20542629D01*
X8919837Y20610408D01*
X8886051Y20681843D01*
X8859428Y20756245D01*
X8840225Y20832908D01*
X8828632Y20911070D01*
X8824753Y20990000D01*
X8828632Y21068930D01*
X8840225Y21147092D01*
X8859428Y21223755D01*
X8886051Y21298157D01*
X8919837Y21369592D01*
X8960461Y21437371D01*
X9007535Y21500841D01*
X9025000Y21520111D01*
X9025000Y23730000D01*
X9125000Y23730000D01*
X9125000Y24585000D01*
X8650000Y24585000D01*
X8650000Y25595000D01*
X9619929Y25595000D01*
X9630000Y25595992D01*
X9640071Y25595000D01*
X10610000Y25595000D01*
X10610000Y24585000D01*
X10135000Y24585000D01*
X10135000Y23730000D01*
X10235000Y23730000D01*
X10235000Y21520111D01*
X10252465Y21500841D01*
X10299539Y21437371D01*
X10340163Y21369592D01*
X10373949Y21298157D01*
X10400572Y21223755D01*
X10419775Y21147092D01*
X10431368Y21068930D01*
X10435247Y20990000D01*
X10431368Y20911070D01*
X10419775Y20832908D01*
X10400572Y20756245D01*
X10373949Y20681843D01*
X10340163Y20610408D01*
X10299539Y20542629D01*
X10252465Y20479158D01*
X10199396Y20420604D01*
X10140842Y20367535D01*
X10077371Y20320461D01*
X10009592Y20279837D01*
X9938157Y20246051D01*
X9863755Y20219428D01*
X9787092Y20200225D01*
X9708930Y20188632D01*
X9630000Y20184753D01*
D02*
G37*
%LPC*%
G36*
X38800000Y24053883D02*
X37800000Y24053883D01*
X37800000Y24823883D01*
X38800000Y24823883D01*
X38800000Y24053883D01*
D02*
G37*
%LPC*%
G36*
X37600000Y24053883D02*
X36600000Y24053883D01*
X36600000Y24823883D01*
X37600000Y24823883D01*
X37600000Y24053883D01*
D02*
G37*
%LPC*%
G36*
X6280000Y23960000D02*
X5930000Y23960000D01*
X5930000Y24510000D01*
X6280000Y24510000D01*
X6280000Y23960000D01*
D02*
G37*
%LPC*%
G36*
X5730000Y23960000D02*
X5380000Y23960000D01*
X5380000Y24510000D01*
X5730000Y24510000D01*
X5730000Y23960000D01*
D02*
G37*
%LPC*%
G36*
X22515000Y13825000D02*
X21205000Y13825000D01*
X21205000Y14735000D01*
X21812955Y14735000D01*
X22645000Y15567045D01*
X22645000Y23373286D01*
X22607381Y23407381D01*
X22570784Y23447761D01*
X22538328Y23491522D01*
X22510320Y23538251D01*
X22487018Y23587521D01*
X22468662Y23638820D01*
X22455423Y23691679D01*
X22447427Y23745574D01*
X22444753Y23800000D01*
X22447427Y23854426D01*
X22455423Y23908321D01*
X22468662Y23961180D01*
X22487018Y24012479D01*
X22510320Y24061749D01*
X22538328Y24108478D01*
X22570784Y24152239D01*
X22607381Y24192619D01*
X22647761Y24229216D01*
X22691522Y24261672D01*
X22738251Y24289680D01*
X22787521Y24312982D01*
X22838820Y24331338D01*
X22891679Y24344577D01*
X22945574Y24352573D01*
X23000000Y24355247D01*
X23054426Y24352573D01*
X23108321Y24344577D01*
X23161180Y24331338D01*
X23212479Y24312982D01*
X23261749Y24289680D01*
X23308478Y24261672D01*
X23352239Y24229216D01*
X23392619Y24192619D01*
X23429216Y24152239D01*
X23461672Y24108478D01*
X23489680Y24061749D01*
X23512982Y24012479D01*
X23531338Y23961180D01*
X23544577Y23908321D01*
X23552573Y23854426D01*
X23555247Y23800000D01*
X23552573Y23745574D01*
X23544577Y23691679D01*
X23531338Y23638820D01*
X23512982Y23587521D01*
X23489680Y23538251D01*
X23461672Y23491522D01*
X23429216Y23447761D01*
X23392619Y23407381D01*
X23355000Y23373286D01*
X23355000Y15409925D01*
X23349150Y15350547D01*
X23328893Y15283771D01*
X23295996Y15222222D01*
X23252220Y15168879D01*
X23244441Y15162396D01*
X22515000Y14432955D01*
X22515000Y13825000D01*
D02*
G37*
%LPC*%
G36*
X44305000Y15090000D02*
X42295000Y15090000D01*
X42295000Y16165000D01*
X38805000Y16165000D01*
X38805000Y15891117D01*
X36595000Y15891117D01*
X36595000Y16161117D01*
X30406228Y16161117D01*
X30386958Y16143652D01*
X30323488Y16096578D01*
X30255709Y16055954D01*
X30184274Y16022168D01*
X30109872Y15995545D01*
X30033209Y15976342D01*
X29955047Y15964749D01*
X29876117Y15960870D01*
X29797187Y15964749D01*
X29719025Y15976342D01*
X29642362Y15995545D01*
X29567960Y16022168D01*
X29496525Y16055954D01*
X29428746Y16096578D01*
X29365275Y16143652D01*
X29306721Y16196721D01*
X29253652Y16255275D01*
X29206578Y16318746D01*
X29165954Y16386525D01*
X29132168Y16457960D01*
X29105545Y16532362D01*
X29086342Y16609025D01*
X29074749Y16687187D01*
X29070870Y16766117D01*
X29074749Y16845047D01*
X29086342Y16923209D01*
X29105545Y16999872D01*
X29132168Y17074274D01*
X29165954Y17145709D01*
X29206578Y17213488D01*
X29253652Y17276959D01*
X29306721Y17335513D01*
X29365275Y17388582D01*
X29428746Y17435656D01*
X29496525Y17476280D01*
X29567960Y17510066D01*
X29642362Y17536689D01*
X29719025Y17555892D01*
X29797187Y17567485D01*
X29876117Y17571364D01*
X29955047Y17567485D01*
X30033209Y17555892D01*
X30109872Y17536689D01*
X30184274Y17510066D01*
X30255709Y17476280D01*
X30323488Y17435656D01*
X30386958Y17388582D01*
X30406228Y17371117D01*
X36595000Y17371117D01*
X36595000Y17641117D01*
X38805000Y17641117D01*
X38805000Y17375000D01*
X42295000Y17375000D01*
X42295000Y18450000D01*
X44305000Y18450000D01*
X44305000Y17375000D01*
X51519403Y17375000D01*
X53905000Y19760597D01*
X53905000Y21690000D01*
X54005000Y21690000D01*
X54005000Y24210000D01*
X55015000Y24210000D01*
X55015000Y21690000D01*
X55115000Y21690000D01*
X55115000Y19499927D01*
X55104348Y19391777D01*
X55069862Y19278095D01*
X55013863Y19173327D01*
X54938993Y19082100D01*
X54931218Y19075620D01*
X52204379Y16348781D01*
X52197899Y16341006D01*
X52106672Y16266136D01*
X52001904Y16210137D01*
X51888221Y16175650D01*
X51780073Y16165000D01*
X44305000Y16165000D01*
X44305000Y15090000D01*
D02*
G37*
%LPC*%
G36*
X52465000Y22250000D02*
X51455000Y22250000D01*
X51455000Y22875000D01*
X51195000Y22875000D01*
X51195000Y22250000D01*
X50185000Y22250000D01*
X50185000Y24210000D01*
X51195000Y24210000D01*
X51195000Y23585000D01*
X51455000Y23585000D01*
X51455000Y24210000D01*
X52465000Y24210000D01*
X52465000Y22250000D01*
D02*
G37*
%LPC*%
G36*
X53740000Y23330000D02*
X53340000Y23330000D01*
X53340000Y24205000D01*
X53740000Y24205000D01*
X53740000Y23330000D01*
D02*
G37*
%LPC*%
G36*
X53140000Y23330000D02*
X52740000Y23330000D01*
X52740000Y24205000D01*
X53140000Y24205000D01*
X53140000Y23330000D01*
D02*
G37*
%LPC*%
G36*
X6280000Y23210000D02*
X5930000Y23210000D01*
X5930000Y23760000D01*
X6280000Y23760000D01*
X6280000Y23210000D01*
D02*
G37*
%LPC*%
G36*
X5730000Y23210000D02*
X5380000Y23210000D01*
X5380000Y23760000D01*
X5730000Y23760000D01*
X5730000Y23210000D01*
D02*
G37*
%LPC*%
G36*
X11730000Y23200000D02*
X11230000Y23200000D01*
X11230000Y23725000D01*
X11730000Y23725000D01*
X11730000Y23200000D01*
D02*
G37*
%LPC*%
G36*
X11030000Y23200000D02*
X10530000Y23200000D01*
X10530000Y23725000D01*
X11030000Y23725000D01*
X11030000Y23200000D01*
D02*
G37*
%LPC*%
G36*
X44300000Y22070000D02*
X43400000Y22070000D01*
X43400000Y23645000D01*
X44300000Y23645000D01*
X44300000Y22070000D01*
D02*
G37*
%LPC*%
G36*
X43200000Y22070000D02*
X42300000Y22070000D01*
X42300000Y23645000D01*
X43200000Y23645000D01*
X43200000Y22070000D01*
D02*
G37*
%LPC*%
G36*
X53740000Y22255000D02*
X53340000Y22255000D01*
X53340000Y23130000D01*
X53740000Y23130000D01*
X53740000Y22255000D01*
D02*
G37*
%LPC*%
G36*
X53140000Y22255000D02*
X52740000Y22255000D01*
X52740000Y23130000D01*
X53140000Y23130000D01*
X53140000Y22255000D01*
D02*
G37*
%LPC*%
G36*
X11730000Y22475000D02*
X11230000Y22475000D01*
X11230000Y23000000D01*
X11730000Y23000000D01*
X11730000Y22475000D01*
D02*
G37*
%LPC*%
G36*
X11030000Y22475000D02*
X10530000Y22475000D01*
X10530000Y23000000D01*
X11030000Y23000000D01*
X11030000Y22475000D01*
D02*
G37*
%LPC*%
G36*
X38805000Y18758883D02*
X36595000Y18758883D01*
X36595000Y20508883D01*
X37095000Y20508883D01*
X37095000Y21181117D01*
X36595000Y21181117D01*
X36595000Y21451117D01*
X35785000Y21451117D01*
X35785000Y21181117D01*
X33575000Y21181117D01*
X33575000Y21451117D01*
X32845000Y21451117D01*
X32845000Y21255000D01*
X30635000Y21255000D01*
X30635000Y22865000D01*
X32845000Y22865000D01*
X32845000Y22661117D01*
X33575000Y22661117D01*
X33575000Y22931117D01*
X35785000Y22931117D01*
X35785000Y22661117D01*
X36595000Y22661117D01*
X36595000Y22931117D01*
X38805000Y22931117D01*
X38805000Y21181117D01*
X38305000Y21181117D01*
X38305000Y20508883D01*
X38805000Y20508883D01*
X38805000Y18758883D01*
D02*
G37*
%LPC*%
G36*
X44300000Y20295000D02*
X43400000Y20295000D01*
X43400000Y21870000D01*
X44300000Y21870000D01*
X44300000Y20295000D01*
D02*
G37*
%LPC*%
G36*
X43200000Y20295000D02*
X42300000Y20295000D01*
X42300000Y21870000D01*
X43200000Y21870000D01*
X43200000Y20295000D01*
D02*
G37*
%LPC*%
G36*
X53610000Y21160000D02*
X53110000Y21160000D01*
X53110000Y21685000D01*
X53610000Y21685000D01*
X53610000Y21160000D01*
D02*
G37*
%LPC*%
G36*
X52910000Y21160000D02*
X52410000Y21160000D01*
X52410000Y21685000D01*
X52910000Y21685000D01*
X52910000Y21160000D01*
D02*
G37*
%LPC*%
G36*
X53610000Y20435000D02*
X53110000Y20435000D01*
X53110000Y20960000D01*
X53610000Y20960000D01*
X53610000Y20435000D01*
D02*
G37*
%LPC*%
G36*
X52910000Y20435000D02*
X52410000Y20435000D01*
X52410000Y20960000D01*
X52910000Y20960000D01*
X52910000Y20435000D01*
D02*
G37*
%LPC*%
G36*
X26990000Y16410000D02*
X26090000Y16410000D01*
X26090000Y17985000D01*
X26990000Y17985000D01*
X26990000Y16410000D01*
D02*
G37*
%LPC*%
G36*
X25890000Y16410000D02*
X24990000Y16410000D01*
X24990000Y17985000D01*
X25890000Y17985000D01*
X25890000Y16410000D01*
D02*
G37*
%LPC*%
G36*
X26990000Y14635000D02*
X26090000Y14635000D01*
X26090000Y16210000D01*
X26990000Y16210000D01*
X26990000Y14635000D01*
D02*
G37*
%LPC*%
G36*
X25890000Y14635000D02*
X24990000Y14635000D01*
X24990000Y16210000D01*
X25890000Y16210000D01*
X25890000Y14635000D01*
D02*
G37*
%LPC*%
G36*
X41995000Y10045000D02*
X40685000Y10045000D01*
X40685000Y11455000D01*
X41995000Y11455000D01*
X41995000Y11355000D01*
X44149403Y11355000D01*
X44695000Y11900597D01*
X44695000Y13505000D01*
X45545000Y13505000D01*
X45545000Y14279889D01*
X45527535Y14299159D01*
X45480461Y14362629D01*
X45439837Y14430408D01*
X45406051Y14501843D01*
X45379428Y14576245D01*
X45360225Y14652908D01*
X45348632Y14731070D01*
X45344753Y14810000D01*
X45348632Y14888930D01*
X45360225Y14967092D01*
X45379428Y15043755D01*
X45406051Y15118157D01*
X45439837Y15189592D01*
X45480461Y15257371D01*
X45527535Y15320842D01*
X45580604Y15379396D01*
X45639158Y15432465D01*
X45702629Y15479539D01*
X45770408Y15520163D01*
X45841843Y15553949D01*
X45916245Y15580572D01*
X45992908Y15599775D01*
X46071070Y15611368D01*
X46150000Y15615247D01*
X46228930Y15611368D01*
X46307092Y15599775D01*
X46383755Y15580572D01*
X46458157Y15553949D01*
X46529592Y15520163D01*
X46597371Y15479539D01*
X46660842Y15432465D01*
X46719396Y15379396D01*
X46772465Y15320842D01*
X46819539Y15257371D01*
X46860163Y15189592D01*
X46893949Y15118157D01*
X46920572Y15043755D01*
X46939775Y14967092D01*
X46951368Y14888930D01*
X46955247Y14810000D01*
X46951368Y14731070D01*
X46939775Y14652908D01*
X46920572Y14576245D01*
X46893949Y14501843D01*
X46860163Y14430408D01*
X46819539Y14362629D01*
X46772465Y14299159D01*
X46755000Y14279889D01*
X46755000Y13505000D01*
X47605000Y13505000D01*
X47605000Y11495000D01*
X46000597Y11495000D01*
X44834379Y10328781D01*
X44827899Y10321006D01*
X44736672Y10246136D01*
X44631904Y10190137D01*
X44518221Y10155650D01*
X44410073Y10145000D01*
X41995000Y10145000D01*
X41995000Y10045000D01*
D02*
G37*
%LPC*%
G36*
X34740000Y14150000D02*
X33840000Y14150000D01*
X33840000Y15500000D01*
X34740000Y15500000D01*
X34740000Y14150000D01*
D02*
G37*
%LPC*%
G36*
X33640000Y14150000D02*
X32740000Y14150000D01*
X32740000Y15500000D01*
X33640000Y15500000D01*
X33640000Y14150000D01*
D02*
G37*
%LPC*%
G36*
X34740000Y12600000D02*
X33840000Y12600000D01*
X33840000Y13950000D01*
X34740000Y13950000D01*
X34740000Y12600000D01*
D02*
G37*
%LPC*%
G36*
X33640000Y12600000D02*
X32740000Y12600000D01*
X32740000Y13950000D01*
X33640000Y13950000D01*
X33640000Y12600000D01*
D02*
G37*
%LPC*%
G36*
X19235000Y10855000D02*
X17925000Y10855000D01*
X17925000Y11765000D01*
X18335000Y11765000D01*
X18335000Y12425000D01*
X18135000Y12425000D01*
X18135000Y13735000D01*
X19245000Y13735000D01*
X19245000Y12425000D01*
X19045000Y12425000D01*
X19045000Y11765000D01*
X19235000Y11765000D01*
X19235000Y10855000D01*
D02*
G37*
%LPC*%
G36*
X20540000Y13180000D02*
X20090000Y13180000D01*
X20090000Y13730000D01*
X20540000Y13730000D01*
X20540000Y13180000D01*
D02*
G37*
%LPC*%
G36*
X19890000Y13180000D02*
X19440000Y13180000D01*
X19440000Y13730000D01*
X19890000Y13730000D01*
X19890000Y13180000D01*
D02*
G37*
%LPC*%
G36*
X41040000Y13050000D02*
X40490000Y13050000D01*
X40490000Y13650000D01*
X41040000Y13650000D01*
X41040000Y13050000D01*
D02*
G37*
%LPC*%
G36*
X40290000Y13050000D02*
X39740000Y13050000D01*
X39740000Y13650000D01*
X40290000Y13650000D01*
X40290000Y13050000D01*
D02*
G37*
%LPC*%
G36*
X50900000Y12600000D02*
X49550000Y12600000D01*
X49550000Y13500000D01*
X50900000Y13500000D01*
X50900000Y12600000D01*
D02*
G37*
%LPC*%
G36*
X49350000Y12600000D02*
X48000000Y12600000D01*
X48000000Y13500000D01*
X49350000Y13500000D01*
X49350000Y12600000D01*
D02*
G37*
%LPC*%
G36*
X22365000Y9770000D02*
X21355000Y9770000D01*
X21355000Y11730000D01*
X21505000Y11730000D01*
X21505000Y12325000D01*
X21205000Y12325000D01*
X21205000Y13235000D01*
X22515000Y13235000D01*
X22515000Y12325000D01*
X22215000Y12325000D01*
X22215000Y11730000D01*
X22365000Y11730000D01*
X22365000Y9770000D01*
D02*
G37*
%LPC*%
G36*
X20540000Y12430000D02*
X20090000Y12430000D01*
X20090000Y12980000D01*
X20540000Y12980000D01*
X20540000Y12430000D01*
D02*
G37*
%LPC*%
G36*
X19890000Y12430000D02*
X19440000Y12430000D01*
X19440000Y12980000D01*
X19890000Y12980000D01*
X19890000Y12430000D01*
D02*
G37*
%LPC*%
G36*
X43875000Y12350000D02*
X43350000Y12350000D01*
X43350000Y12850000D01*
X43875000Y12850000D01*
X43875000Y12350000D01*
D02*
G37*
%LPC*%
G36*
X43150000Y12350000D02*
X42625000Y12350000D01*
X42625000Y12850000D01*
X43150000Y12850000D01*
X43150000Y12350000D01*
D02*
G37*
%LPC*%
G36*
X41040000Y12250000D02*
X40490000Y12250000D01*
X40490000Y12850000D01*
X41040000Y12850000D01*
X41040000Y12250000D01*
D02*
G37*
%LPC*%
G36*
X40290000Y12250000D02*
X39740000Y12250000D01*
X39740000Y12850000D01*
X40290000Y12850000D01*
X40290000Y12250000D01*
D02*
G37*
%LPC*%
G36*
X38175000Y12350000D02*
X37650000Y12350000D01*
X37650000Y12850000D01*
X38175000Y12850000D01*
X38175000Y12350000D01*
D02*
G37*
%LPC*%
G36*
X37450000Y12350000D02*
X36925000Y12350000D01*
X36925000Y12850000D01*
X37450000Y12850000D01*
X37450000Y12350000D01*
D02*
G37*
%LPC*%
G36*
X50900000Y11500000D02*
X49550000Y11500000D01*
X49550000Y12400000D01*
X50900000Y12400000D01*
X50900000Y11500000D01*
D02*
G37*
%LPC*%
G36*
X49350000Y11500000D02*
X48000000Y11500000D01*
X48000000Y12400000D01*
X49350000Y12400000D01*
X49350000Y11500000D01*
D02*
G37*
%LPC*%
G36*
X34745000Y9295000D02*
X32735000Y9295000D01*
X32735000Y10245000D01*
X29291717Y10245000D01*
X29247404Y10204836D01*
X29191820Y10163613D01*
X29132444Y10128025D01*
X29069889Y10098439D01*
X29004727Y10075122D01*
X28937584Y10058304D01*
X28869127Y10048149D01*
X28800000Y10044753D01*
X28730873Y10048149D01*
X28662416Y10058304D01*
X28595273Y10075122D01*
X28530111Y10098439D01*
X28467556Y10128025D01*
X28408180Y10163613D01*
X28352596Y10204836D01*
X28308283Y10245000D01*
X27010000Y10245000D01*
X27010000Y10145000D01*
X25750000Y10145000D01*
X25750000Y10245000D01*
X24915000Y10245000D01*
X24915000Y9770000D01*
X23905000Y9770000D01*
X23905000Y10739925D01*
X23904008Y10749999D01*
X23905000Y10760070D01*
X23905000Y11730000D01*
X24915000Y11730000D01*
X24915000Y11255000D01*
X25750000Y11255000D01*
X25750000Y11355000D01*
X27010000Y11355000D01*
X27010000Y11255000D01*
X28308283Y11255000D01*
X28352596Y11295164D01*
X28408180Y11336387D01*
X28467556Y11371975D01*
X28530111Y11401561D01*
X28595273Y11424878D01*
X28662416Y11441696D01*
X28730873Y11451851D01*
X28800000Y11455247D01*
X28869127Y11451851D01*
X28937584Y11441696D01*
X29004727Y11424878D01*
X29069889Y11401561D01*
X29132444Y11371975D01*
X29191820Y11336387D01*
X29247404Y11295164D01*
X29291717Y11255000D01*
X32735000Y11255000D01*
X32735000Y12205000D01*
X34745000Y12205000D01*
X34745000Y11255000D01*
X36920000Y11255000D01*
X36920000Y11355000D01*
X38180000Y11355000D01*
X38180000Y11255000D01*
X38785000Y11255000D01*
X38785000Y11455000D01*
X40095000Y11455000D01*
X40095000Y10045000D01*
X38785000Y10045000D01*
X38785000Y10245000D01*
X38180000Y10245000D01*
X38180000Y10145000D01*
X36920000Y10145000D01*
X36920000Y10245000D01*
X34745000Y10245000D01*
X34745000Y9295000D01*
D02*
G37*
%LPC*%
G36*
X43875000Y11650000D02*
X43350000Y11650000D01*
X43350000Y12150000D01*
X43875000Y12150000D01*
X43875000Y11650000D01*
D02*
G37*
%LPC*%
G36*
X43150000Y11650000D02*
X42625000Y11650000D01*
X42625000Y12150000D01*
X43150000Y12150000D01*
X43150000Y11650000D01*
D02*
G37*
%LPC*%
G36*
X38175000Y11650000D02*
X37650000Y11650000D01*
X37650000Y12150000D01*
X38175000Y12150000D01*
X38175000Y11650000D01*
D02*
G37*
%LPC*%
G36*
X37450000Y11650000D02*
X36925000Y11650000D01*
X36925000Y12150000D01*
X37450000Y12150000D01*
X37450000Y11650000D01*
D02*
G37*
%LPC*%
G36*
X31455000Y5945000D02*
X29945000Y5945000D01*
X29945000Y6645000D01*
X26589927Y6645000D01*
X26530552Y6650847D01*
X26463770Y6671106D01*
X26402222Y6704003D01*
X26348157Y6748370D01*
X26341733Y6756222D01*
X25452955Y7645000D01*
X24889927Y7645000D01*
X24830552Y7650847D01*
X24763770Y7671106D01*
X24702222Y7704003D01*
X24648157Y7748370D01*
X24641733Y7756222D01*
X22896222Y9501733D01*
X22888370Y9508157D01*
X22844003Y9562222D01*
X22811106Y9623770D01*
X22790847Y9690552D01*
X22783024Y9770000D01*
X22635000Y9770000D01*
X22635000Y11730000D01*
X23645000Y11730000D01*
X23645000Y9757045D01*
X25047045Y8355000D01*
X25610075Y8355000D01*
X25669452Y8349150D01*
X25736229Y8328893D01*
X25797777Y8295996D01*
X25843903Y8258143D01*
X26747045Y7355000D01*
X29945000Y7355000D01*
X29945000Y8055000D01*
X31455000Y8055000D01*
X31455000Y5945000D01*
D02*
G37*
%LPC*%
G36*
X19235000Y9355000D02*
X17925000Y9355000D01*
X17925000Y10265000D01*
X19235000Y10265000D01*
X19235000Y10165000D01*
X19862955Y10165000D01*
X20085000Y10387045D01*
X20085000Y11730000D01*
X21095000Y11730000D01*
X21095000Y9770000D01*
X20472045Y9770000D01*
X20267603Y9565558D01*
X20261120Y9557779D01*
X20207777Y9514003D01*
X20146229Y9481106D01*
X20079448Y9460847D01*
X20020074Y9455000D01*
X19235000Y9455000D01*
X19235000Y9355000D01*
D02*
G37*
%LPC*%
G36*
X27005000Y9350000D02*
X26480000Y9350000D01*
X26480000Y9850000D01*
X27005000Y9850000D01*
X27005000Y9350000D01*
D02*
G37*
%LPC*%
G36*
X26280000Y9350000D02*
X25755000Y9350000D01*
X25755000Y9850000D01*
X26280000Y9850000D01*
X26280000Y9350000D01*
D02*
G37*
%LPC*%
G36*
X27005000Y8650000D02*
X26480000Y8650000D01*
X26480000Y9150000D01*
X27005000Y9150000D01*
X27005000Y8650000D01*
D02*
G37*
%LPC*%
G36*
X26280000Y8650000D02*
X25755000Y8650000D01*
X25755000Y9150000D01*
X26280000Y9150000D01*
X26280000Y8650000D01*
D02*
G37*
%LPC*%
G36*
X42460000Y4044753D02*
X42376170Y4048871D01*
X42293152Y4061186D01*
X42211730Y4081581D01*
X42132707Y4109857D01*
X42056847Y4145737D01*
X41984850Y4188889D01*
X41917433Y4238890D01*
X41855249Y4295249D01*
X41798890Y4357433D01*
X41748889Y4424850D01*
X41705737Y4496847D01*
X41669857Y4572707D01*
X41641581Y4651730D01*
X41621186Y4733152D01*
X41608871Y4816170D01*
X41604753Y4900000D01*
X41608871Y4983830D01*
X41621186Y5066848D01*
X41641581Y5148270D01*
X41659528Y5198427D01*
X40212955Y6645000D01*
X34655000Y6645000D01*
X34655000Y5945000D01*
X33145000Y5945000D01*
X33145000Y8055000D01*
X34655000Y8055000D01*
X34655000Y7355000D01*
X40370075Y7355000D01*
X40429452Y7349150D01*
X40496229Y7328893D01*
X40557777Y7295996D01*
X40603903Y7258143D01*
X42161573Y5700472D01*
X42211730Y5718419D01*
X42293152Y5738814D01*
X42376170Y5751129D01*
X42460000Y5755247D01*
X42543830Y5751129D01*
X42626848Y5738814D01*
X42708270Y5718419D01*
X42787293Y5690143D01*
X42863153Y5654263D01*
X42935150Y5611111D01*
X43002567Y5561110D01*
X43064751Y5504751D01*
X43121110Y5442567D01*
X43171111Y5375150D01*
X43214263Y5303153D01*
X43250143Y5227293D01*
X43278419Y5148270D01*
X43298814Y5066848D01*
X43311129Y4983830D01*
X43315247Y4900000D01*
X43311129Y4816170D01*
X43298814Y4733152D01*
X43278419Y4651730D01*
X43250143Y4572707D01*
X43214263Y4496847D01*
X43171111Y4424850D01*
X43121110Y4357433D01*
X43064751Y4295249D01*
X43002567Y4238890D01*
X42935150Y4188889D01*
X42863153Y4145737D01*
X42787293Y4109857D01*
X42708270Y4081581D01*
X42626848Y4061186D01*
X42543830Y4048871D01*
X42460000Y4044753D01*
D02*
G37*
%LPC*%
G36*
X30740000Y2374753D02*
X30636568Y2379834D01*
X30534133Y2395029D01*
X30433671Y2420194D01*
X30336181Y2455077D01*
X30242559Y2499355D01*
X30153733Y2552596D01*
X30070563Y2614280D01*
X29993828Y2683828D01*
X29924280Y2760563D01*
X29862596Y2843733D01*
X29809355Y2932559D01*
X29765078Y3026178D01*
X29747608Y3075000D01*
X28759927Y3075000D01*
X28700552Y3080847D01*
X28633770Y3101106D01*
X28572222Y3134003D01*
X28518157Y3178370D01*
X28511733Y3186222D01*
X25002955Y6695000D01*
X23997045Y6695000D01*
X23645000Y6342955D01*
X23645000Y4430000D01*
X22635000Y4430000D01*
X22635000Y6390000D01*
X22784947Y6390000D01*
X22811106Y6476229D01*
X22844003Y6537777D01*
X22887779Y6591120D01*
X22895558Y6597603D01*
X23592396Y7294441D01*
X23598879Y7302220D01*
X23652222Y7345996D01*
X23713771Y7378893D01*
X23780547Y7399150D01*
X23839925Y7405000D01*
X25160075Y7405000D01*
X25219452Y7399150D01*
X25286229Y7378893D01*
X25347777Y7345996D01*
X25393903Y7308143D01*
X28917045Y3785000D01*
X29747608Y3785000D01*
X29765078Y3833822D01*
X29809355Y3927441D01*
X29862596Y4016267D01*
X29924280Y4099437D01*
X29993828Y4176172D01*
X30070563Y4245720D01*
X30153733Y4307404D01*
X30242559Y4360645D01*
X30336181Y4404923D01*
X30433671Y4439806D01*
X30534133Y4464971D01*
X30636568Y4480166D01*
X30740000Y4485247D01*
X30843432Y4480166D01*
X30945867Y4464971D01*
X31046329Y4439806D01*
X31143819Y4404923D01*
X31237441Y4360645D01*
X31326267Y4307404D01*
X31409437Y4245720D01*
X31486172Y4176172D01*
X31555720Y4099437D01*
X31617404Y4016267D01*
X31670645Y3927441D01*
X31714923Y3833819D01*
X31749806Y3736329D01*
X31774971Y3635867D01*
X31790166Y3533432D01*
X31795247Y3430000D01*
X31790166Y3326568D01*
X31774971Y3224133D01*
X31749806Y3123671D01*
X31714923Y3026181D01*
X31670645Y2932559D01*
X31617404Y2843733D01*
X31555720Y2760563D01*
X31486172Y2683828D01*
X31409437Y2614280D01*
X31326267Y2552596D01*
X31237441Y2499355D01*
X31143819Y2455077D01*
X31046329Y2420194D01*
X30945867Y2395029D01*
X30843432Y2379834D01*
X30740000Y2374753D01*
D02*
G37*
%LPC*%
G36*
X20170000Y1694753D02*
X20071467Y1699595D01*
X19973890Y1714068D01*
X19878188Y1738040D01*
X19785316Y1771271D01*
X19696121Y1813456D01*
X19611515Y1864167D01*
X19532284Y1922930D01*
X19459183Y1989183D01*
X19392930Y2062284D01*
X19334167Y2141515D01*
X19283456Y2226121D01*
X19241271Y2315316D01*
X19208040Y2408188D01*
X19184068Y2503890D01*
X19169595Y2601467D01*
X19164753Y2700000D01*
X19169595Y2798533D01*
X19184068Y2896110D01*
X19208040Y2991812D01*
X19241271Y3084684D01*
X19283456Y3173879D01*
X19334167Y3258485D01*
X19392930Y3337716D01*
X19459183Y3410817D01*
X19532284Y3477070D01*
X19611515Y3535833D01*
X19696121Y3586544D01*
X19785316Y3628729D01*
X19878188Y3661960D01*
X19973890Y3685932D01*
X20071467Y3700405D01*
X20170000Y3705247D01*
X20268533Y3700405D01*
X20366110Y3685932D01*
X20461812Y3661960D01*
X20585616Y3617661D01*
X21355000Y4387045D01*
X21355000Y6390000D01*
X22365000Y6390000D01*
X22365000Y4430000D01*
X22215000Y4430000D01*
X22215000Y4379925D01*
X22209150Y4320547D01*
X22188893Y4253771D01*
X22155996Y4192222D01*
X22112220Y4138879D01*
X22104441Y4132396D01*
X21087661Y3115616D01*
X21131960Y2991812D01*
X21155932Y2896110D01*
X21170405Y2798533D01*
X21175247Y2700000D01*
X21170405Y2601467D01*
X21155932Y2503890D01*
X21131960Y2408188D01*
X21098729Y2315316D01*
X21056544Y2226121D01*
X21005833Y2141515D01*
X20947070Y2062284D01*
X20880817Y1989183D01*
X20807716Y1922930D01*
X20728485Y1864167D01*
X20643879Y1813456D01*
X20554684Y1771271D01*
X20461812Y1738040D01*
X20366110Y1714068D01*
X20268533Y1699595D01*
X20170000Y1694753D01*
D02*
G37*
%LPC*%
G36*
X4850000Y2724753D02*
X4746568Y2729834D01*
X4644133Y2745029D01*
X4543671Y2770194D01*
X4446181Y2805077D01*
X4352559Y2849355D01*
X4263733Y2902596D01*
X4180563Y2964280D01*
X4103828Y3033828D01*
X4034280Y3110563D01*
X3972596Y3193733D01*
X3919355Y3282559D01*
X3875077Y3376181D01*
X3840194Y3473671D01*
X3815029Y3574133D01*
X3799834Y3676568D01*
X3794753Y3780000D01*
X3799834Y3883432D01*
X3815029Y3985867D01*
X3840194Y4086329D01*
X3875077Y4183819D01*
X3919355Y4277441D01*
X3972596Y4366267D01*
X4034280Y4449437D01*
X4103828Y4526172D01*
X4180563Y4595720D01*
X4263733Y4657404D01*
X4352559Y4710645D01*
X4446181Y4754923D01*
X4543671Y4789806D01*
X4644133Y4814971D01*
X4746568Y4830166D01*
X4850000Y4835247D01*
X4953432Y4830166D01*
X5055867Y4814971D01*
X5156329Y4789806D01*
X5253823Y4754922D01*
X5300703Y4732748D01*
X6222396Y5654441D01*
X6228879Y5662220D01*
X6282222Y5705996D01*
X6343771Y5738893D01*
X6410547Y5759150D01*
X6469925Y5765000D01*
X20085000Y5765000D01*
X20085000Y6390000D01*
X21095000Y6390000D01*
X21095000Y4430000D01*
X20085000Y4430000D01*
X20085000Y5055000D01*
X6627045Y5055000D01*
X5802748Y4230703D01*
X5824922Y4183823D01*
X5859806Y4086329D01*
X5884971Y3985867D01*
X5900166Y3883432D01*
X5905247Y3780000D01*
X5900166Y3676568D01*
X5884971Y3574133D01*
X5859806Y3473671D01*
X5824923Y3376181D01*
X5780645Y3282559D01*
X5727404Y3193733D01*
X5665720Y3110563D01*
X5596172Y3033828D01*
X5519437Y2964280D01*
X5436267Y2902596D01*
X5347441Y2849355D01*
X5253819Y2805077D01*
X5156329Y2770194D01*
X5055867Y2745029D01*
X4953432Y2729834D01*
X4850000Y2724753D01*
D02*
G37*
%LPC*%
G36*
X24910000Y5510000D02*
X24510000Y5510000D01*
X24510000Y6385000D01*
X24910000Y6385000D01*
X24910000Y5510000D01*
D02*
G37*
%LPC*%
G36*
X24310000Y5510000D02*
X23910000Y5510000D01*
X23910000Y6385000D01*
X24310000Y6385000D01*
X24310000Y5510000D01*
D02*
G37*
%LPC*%
G36*
X45000000Y1504753D02*
X44916170Y1508871D01*
X44833152Y1521186D01*
X44751730Y1541581D01*
X44672707Y1569857D01*
X44596847Y1605737D01*
X44524850Y1648889D01*
X44457433Y1698890D01*
X44395249Y1755249D01*
X44338890Y1817433D01*
X44288889Y1884850D01*
X44245737Y1956847D01*
X44209857Y2032707D01*
X44181581Y2111730D01*
X44161186Y2193152D01*
X44148871Y2276170D01*
X44144753Y2360000D01*
X44148871Y2443830D01*
X44161186Y2526848D01*
X44181581Y2608270D01*
X44209857Y2687293D01*
X44245737Y2763153D01*
X44288889Y2835150D01*
X44338890Y2902567D01*
X44395249Y2964751D01*
X44457433Y3021110D01*
X44524850Y3071111D01*
X44596847Y3114263D01*
X44672707Y3150143D01*
X44751730Y3178419D01*
X44833152Y3198814D01*
X44916170Y3211129D01*
X45000000Y3215247D01*
X45083830Y3211129D01*
X45166848Y3198814D01*
X45248270Y3178419D01*
X45298427Y3160472D01*
X46739528Y4601573D01*
X46721581Y4651730D01*
X46701186Y4733152D01*
X46688871Y4816170D01*
X46684753Y4900000D01*
X46688871Y4983830D01*
X46701186Y5066848D01*
X46721581Y5148270D01*
X46749857Y5227293D01*
X46785737Y5303153D01*
X46828889Y5375150D01*
X46878890Y5442567D01*
X46935249Y5504751D01*
X46997433Y5561110D01*
X47064850Y5611111D01*
X47136847Y5654263D01*
X47212707Y5690143D01*
X47291730Y5718419D01*
X47373152Y5738814D01*
X47456170Y5751129D01*
X47540000Y5755247D01*
X47623830Y5751129D01*
X47706848Y5738814D01*
X47788270Y5718419D01*
X47867293Y5690143D01*
X47943153Y5654263D01*
X48015150Y5611111D01*
X48082567Y5561110D01*
X48144751Y5504751D01*
X48201110Y5442567D01*
X48251111Y5375150D01*
X48294263Y5303153D01*
X48317038Y5255000D01*
X51040075Y5255000D01*
X51099452Y5249150D01*
X51166229Y5228893D01*
X51227777Y5195996D01*
X51273903Y5158143D01*
X51699297Y4732748D01*
X51746177Y4754922D01*
X51843671Y4789806D01*
X51944133Y4814971D01*
X52046568Y4830166D01*
X52150000Y4835247D01*
X52253432Y4830166D01*
X52355867Y4814971D01*
X52456329Y4789806D01*
X52553819Y4754923D01*
X52647441Y4710645D01*
X52736267Y4657404D01*
X52819437Y4595720D01*
X52896172Y4526172D01*
X52965720Y4449437D01*
X53027404Y4366267D01*
X53080645Y4277441D01*
X53124923Y4183819D01*
X53159806Y4086329D01*
X53184971Y3985867D01*
X53200166Y3883432D01*
X53205247Y3780000D01*
X53200166Y3676568D01*
X53184971Y3574133D01*
X53159806Y3473671D01*
X53124923Y3376181D01*
X53080645Y3282559D01*
X53027404Y3193733D01*
X52965720Y3110563D01*
X52896172Y3033828D01*
X52819437Y2964280D01*
X52736267Y2902596D01*
X52647441Y2849355D01*
X52553819Y2805077D01*
X52456329Y2770194D01*
X52355867Y2745029D01*
X52253432Y2729834D01*
X52150000Y2724753D01*
X52046568Y2729834D01*
X51944133Y2745029D01*
X51843671Y2770194D01*
X51746181Y2805077D01*
X51652559Y2849355D01*
X51563733Y2902596D01*
X51480563Y2964280D01*
X51403828Y3033828D01*
X51334280Y3110563D01*
X51272596Y3193733D01*
X51219355Y3282559D01*
X51175077Y3376181D01*
X51140194Y3473671D01*
X51115029Y3574133D01*
X51099834Y3676568D01*
X51094753Y3780000D01*
X51099834Y3883432D01*
X51115029Y3985867D01*
X51140194Y4086329D01*
X51175078Y4183823D01*
X51197252Y4230703D01*
X50882955Y4545000D01*
X48317038Y4545000D01*
X48294263Y4496847D01*
X48251111Y4424850D01*
X48201110Y4357433D01*
X48144751Y4295249D01*
X48082567Y4238890D01*
X48015150Y4188889D01*
X47943153Y4145737D01*
X47867293Y4109857D01*
X47788270Y4081581D01*
X47706848Y4061186D01*
X47623830Y4048871D01*
X47540000Y4044753D01*
X47456170Y4048871D01*
X47373152Y4061186D01*
X47291730Y4081581D01*
X47241573Y4099528D01*
X45800472Y2658427D01*
X45818419Y2608270D01*
X45838814Y2526848D01*
X45851129Y2443830D01*
X45855247Y2360000D01*
X45851129Y2276170D01*
X45838814Y2193152D01*
X45818419Y2111730D01*
X45790143Y2032707D01*
X45754263Y1956847D01*
X45711111Y1884850D01*
X45661110Y1817433D01*
X45604751Y1755249D01*
X45542567Y1698890D01*
X45475150Y1648889D01*
X45403153Y1605737D01*
X45327293Y1569857D01*
X45248270Y1541581D01*
X45166848Y1521186D01*
X45083830Y1508871D01*
X45000000Y1504753D01*
D02*
G37*
%LPC*%
G36*
X24910000Y4435000D02*
X24510000Y4435000D01*
X24510000Y5310000D01*
X24910000Y5310000D01*
X24910000Y4435000D01*
D02*
G37*
%LPC*%
G36*
X24310000Y4435000D02*
X23910000Y4435000D01*
X23910000Y5310000D01*
X24310000Y5310000D01*
X24310000Y4435000D01*
D02*
G37*
%LPC*%
G36*
X7250000Y3880000D02*
X6304672Y3880000D01*
X6304816Y3882942D01*
X6319939Y3984890D01*
X6344983Y4084873D01*
X6379703Y4181907D01*
X6423772Y4275085D01*
X6476755Y4363482D01*
X6538150Y4446261D01*
X6607368Y4522632D01*
X6683739Y4591850D01*
X6766518Y4653245D01*
X6854915Y4706228D01*
X6948093Y4750297D01*
X7045127Y4785017D01*
X7145110Y4810061D01*
X7247058Y4825184D01*
X7250000Y4825328D01*
X7250000Y3880000D01*
D02*
G37*
%LPC*%
G36*
X8395328Y3880000D02*
X7450000Y3880000D01*
X7450000Y4825328D01*
X7452942Y4825184D01*
X7554890Y4810061D01*
X7654873Y4785017D01*
X7751907Y4750297D01*
X7845085Y4706228D01*
X7933482Y4653245D01*
X8016261Y4591850D01*
X8092632Y4522632D01*
X8161850Y4446261D01*
X8223245Y4363482D01*
X8276228Y4275085D01*
X8320297Y4181907D01*
X8355017Y4084873D01*
X8380061Y3984890D01*
X8395184Y3882942D01*
X8395328Y3880000D01*
D02*
G37*
%LPC*%
G36*
X54550000Y3880000D02*
X53604672Y3880000D01*
X53604816Y3882942D01*
X53619939Y3984890D01*
X53644983Y4084873D01*
X53679703Y4181907D01*
X53723772Y4275085D01*
X53776755Y4363482D01*
X53838150Y4446261D01*
X53907368Y4522632D01*
X53983739Y4591850D01*
X54066518Y4653245D01*
X54154915Y4706228D01*
X54248093Y4750297D01*
X54345127Y4785017D01*
X54445110Y4810061D01*
X54547058Y4825184D01*
X54550000Y4825328D01*
X54550000Y3880000D01*
D02*
G37*
%LPC*%
G36*
X55695328Y3880000D02*
X54750000Y3880000D01*
X54750000Y4825328D01*
X54752942Y4825184D01*
X54854890Y4810061D01*
X54954873Y4785017D01*
X55051907Y4750297D01*
X55145085Y4706228D01*
X55233482Y4653245D01*
X55316261Y4591850D01*
X55392632Y4522632D01*
X55461850Y4446261D01*
X55523245Y4363482D01*
X55576228Y4275085D01*
X55620297Y4181907D01*
X55655017Y4084873D01*
X55680061Y3984890D01*
X55695184Y3882942D01*
X55695328Y3880000D01*
D02*
G37*
%LPC*%
G36*
X38260000Y3530000D02*
X37314672Y3530000D01*
X37314816Y3532942D01*
X37329939Y3634890D01*
X37354983Y3734873D01*
X37389703Y3831907D01*
X37433772Y3925085D01*
X37486755Y4013482D01*
X37548150Y4096261D01*
X37617368Y4172632D01*
X37693739Y4241850D01*
X37776518Y4303245D01*
X37864915Y4356228D01*
X37958093Y4400297D01*
X38055127Y4435017D01*
X38155110Y4460061D01*
X38257058Y4475184D01*
X38260000Y4475328D01*
X38260000Y3530000D01*
D02*
G37*
%LPC*%
G36*
X39405328Y3530000D02*
X38460000Y3530000D01*
X38460000Y4475328D01*
X38462942Y4475184D01*
X38564890Y4460061D01*
X38664873Y4435017D01*
X38761907Y4400297D01*
X38855085Y4356228D01*
X38943482Y4303245D01*
X39026261Y4241850D01*
X39102632Y4172632D01*
X39171850Y4096261D01*
X39233245Y4013482D01*
X39286228Y3925085D01*
X39330297Y3831907D01*
X39365017Y3734873D01*
X39390061Y3634890D01*
X39405184Y3532942D01*
X39405328Y3530000D01*
D02*
G37*
%LPC*%
G36*
X25250000Y1694753D02*
X25151467Y1699595D01*
X25053890Y1714068D01*
X24958188Y1738040D01*
X24865316Y1771271D01*
X24776121Y1813456D01*
X24691515Y1864167D01*
X24612284Y1922930D01*
X24539183Y1989183D01*
X24472930Y2062284D01*
X24414167Y2141515D01*
X24363456Y2226121D01*
X24321271Y2315316D01*
X24288040Y2408188D01*
X24264068Y2503890D01*
X24249595Y2601467D01*
X24244753Y2700000D01*
X24249595Y2798533D01*
X24264068Y2896110D01*
X24288040Y2991812D01*
X24321271Y3084684D01*
X24363456Y3173879D01*
X24414167Y3258485D01*
X24472930Y3337716D01*
X24539183Y3410817D01*
X24612284Y3477070D01*
X24691515Y3535833D01*
X24776121Y3586544D01*
X24865316Y3628729D01*
X24958188Y3661960D01*
X25053890Y3685932D01*
X25151467Y3700405D01*
X25250000Y3705247D01*
X25348533Y3700405D01*
X25446110Y3685932D01*
X25541812Y3661960D01*
X25634684Y3628729D01*
X25723879Y3586544D01*
X25808485Y3535833D01*
X25887716Y3477070D01*
X25960817Y3410817D01*
X26027070Y3337716D01*
X26085833Y3258485D01*
X26136544Y3173879D01*
X26178729Y3084684D01*
X26211960Y2991812D01*
X26235932Y2896110D01*
X26250405Y2798533D01*
X26255247Y2700000D01*
X26250405Y2601467D01*
X26235932Y2503890D01*
X26211960Y2408188D01*
X26178729Y2315316D01*
X26136544Y2226121D01*
X26085833Y2141515D01*
X26027070Y2062284D01*
X25960817Y1989183D01*
X25887716Y1922930D01*
X25808485Y1864167D01*
X25723879Y1813456D01*
X25634684Y1771271D01*
X25541812Y1738040D01*
X25446110Y1714068D01*
X25348533Y1699595D01*
X25250000Y1694753D01*
D02*
G37*
%LPC*%
G36*
X22610000Y2800000D02*
X21714867Y2800000D01*
X21728979Y2895143D01*
X21752829Y2990353D01*
X21785897Y3082775D01*
X21827867Y3171511D01*
X21878329Y3255704D01*
X21936799Y3334540D01*
X22002723Y3407277D01*
X22075460Y3473201D01*
X22154296Y3531671D01*
X22238489Y3582133D01*
X22327225Y3624103D01*
X22419647Y3657171D01*
X22514857Y3681021D01*
X22610000Y3695133D01*
X22610000Y2800000D01*
D02*
G37*
%LPC*%
G36*
X23705133Y2800000D02*
X22810000Y2800000D01*
X22810000Y3695133D01*
X22905143Y3681021D01*
X23000353Y3657171D01*
X23092775Y3624103D01*
X23181511Y3582133D01*
X23265704Y3531671D01*
X23344540Y3473201D01*
X23417277Y3407277D01*
X23483201Y3334540D01*
X23541671Y3255704D01*
X23592133Y3171511D01*
X23634103Y3082775D01*
X23667171Y2990353D01*
X23691021Y2895143D01*
X23705133Y2800000D01*
D02*
G37*
%LPC*%
G36*
X54750000Y2734672D02*
X54750000Y3680000D01*
X55695328Y3680000D01*
X55695184Y3677058D01*
X55680061Y3575110D01*
X55655017Y3475127D01*
X55620297Y3378093D01*
X55576228Y3284915D01*
X55523245Y3196518D01*
X55461850Y3113739D01*
X55392632Y3037368D01*
X55316261Y2968150D01*
X55233482Y2906755D01*
X55145085Y2853772D01*
X55051907Y2809703D01*
X54954873Y2774983D01*
X54854890Y2749939D01*
X54752942Y2734816D01*
X54750000Y2734672D01*
D02*
G37*
%LPC*%
G36*
X54550000Y2734672D02*
X54547058Y2734816D01*
X54445110Y2749939D01*
X54345127Y2774983D01*
X54248093Y2809703D01*
X54154915Y2853772D01*
X54066518Y2906755D01*
X53983739Y2968150D01*
X53907368Y3037368D01*
X53838150Y3113739D01*
X53776755Y3196518D01*
X53723772Y3284915D01*
X53679703Y3378093D01*
X53644983Y3475127D01*
X53619939Y3575110D01*
X53604816Y3677058D01*
X53604672Y3680000D01*
X54550000Y3680000D01*
X54550000Y2734672D01*
D02*
G37*
%LPC*%
G36*
X7450000Y2734672D02*
X7450000Y3680000D01*
X8395328Y3680000D01*
X8395184Y3677058D01*
X8380061Y3575110D01*
X8355017Y3475127D01*
X8320297Y3378093D01*
X8276228Y3284915D01*
X8223245Y3196518D01*
X8161850Y3113739D01*
X8092632Y3037368D01*
X8016261Y2968150D01*
X7933482Y2906755D01*
X7845085Y2853772D01*
X7751907Y2809703D01*
X7654873Y2774983D01*
X7554890Y2749939D01*
X7452942Y2734816D01*
X7450000Y2734672D01*
D02*
G37*
%LPC*%
G36*
X7250000Y2734672D02*
X7247058Y2734816D01*
X7145110Y2749939D01*
X7045127Y2774983D01*
X6948093Y2809703D01*
X6854915Y2853772D01*
X6766518Y2906755D01*
X6683739Y2968150D01*
X6607368Y3037368D01*
X6538150Y3113739D01*
X6476755Y3196518D01*
X6423772Y3284915D01*
X6379703Y3378093D01*
X6344983Y3475127D01*
X6319939Y3575110D01*
X6304816Y3677058D01*
X6304672Y3680000D01*
X7250000Y3680000D01*
X7250000Y2734672D01*
D02*
G37*
%LPC*%
G36*
X38460000Y2384672D02*
X38460000Y3330000D01*
X39405328Y3330000D01*
X39405184Y3327058D01*
X39390061Y3225110D01*
X39365017Y3125127D01*
X39330297Y3028093D01*
X39286228Y2934915D01*
X39233245Y2846518D01*
X39171850Y2763739D01*
X39102632Y2687368D01*
X39026261Y2618150D01*
X38943482Y2556755D01*
X38855085Y2503772D01*
X38761907Y2459703D01*
X38664873Y2424983D01*
X38564890Y2399939D01*
X38462942Y2384816D01*
X38460000Y2384672D01*
D02*
G37*
%LPC*%
G36*
X38260000Y2384672D02*
X38257058Y2384816D01*
X38155110Y2399939D01*
X38055127Y2424983D01*
X37958093Y2459703D01*
X37864915Y2503772D01*
X37776518Y2556755D01*
X37693739Y2618150D01*
X37617368Y2687368D01*
X37548150Y2763739D01*
X37486755Y2846518D01*
X37433772Y2934915D01*
X37389703Y3028093D01*
X37354983Y3125127D01*
X37329939Y3225110D01*
X37314816Y3327058D01*
X37314672Y3330000D01*
X38260000Y3330000D01*
X38260000Y2384672D01*
D02*
G37*
%LPC*%
G36*
X22810000Y1704867D02*
X22810000Y2600000D01*
X23705133Y2600000D01*
X23691021Y2504857D01*
X23667171Y2409647D01*
X23634103Y2317225D01*
X23592133Y2228489D01*
X23541671Y2144296D01*
X23483201Y2065460D01*
X23417277Y1992723D01*
X23344540Y1926799D01*
X23265704Y1868329D01*
X23181511Y1817867D01*
X23092775Y1775897D01*
X23000353Y1742829D01*
X22905143Y1718979D01*
X22810000Y1704867D01*
D02*
G37*
%LPC*%
G36*
X22610000Y1704867D02*
X22514857Y1718979D01*
X22419647Y1742829D01*
X22327225Y1775897D01*
X22238489Y1817867D01*
X22154296Y1868329D01*
X22075460Y1926799D01*
X22002723Y1992723D01*
X21936799Y2065460D01*
X21878329Y2144296D01*
X21827867Y2228489D01*
X21785897Y2317225D01*
X21752829Y2409647D01*
X21728979Y2504857D01*
X21714867Y2600000D01*
X22610000Y2600000D01*
X22610000Y1704867D01*
D02*
G37*
G01*
%LPD*%
D10*
X51850000Y37030000D02*
X47490001Y37030000D01*
D11*
X51770000Y16770000D02*
X54510000Y19510000D01*
D10*
X54510000Y29010000D02*
X55400000Y29900000D01*
D10*
X9100000Y43200000D02*
X10200000Y44300000D01*
D10*
X25770000Y43930000D02*
X25770000Y44900000D01*
D10*
X28475000Y49870000D02*
X28880000Y49870000D01*
D10*
X6630000Y34670000D02*
X5700000Y35600000D01*
D10*
X6630000Y32760000D02*
X6630000Y34670000D01*
D11*
X35790000Y54510000D02*
X32500000Y57800000D01*
D10*
X28770000Y3430000D02*
X25150000Y7050000D01*
D10*
X3430000Y30710000D02*
X5830000Y30710000D01*
D10*
X20590000Y10390000D02*
X20590000Y10750000D01*
D11*
X28890000Y24960000D02*
X31740000Y24960000D01*
D10*
X18350000Y39250000D02*
X16100000Y39250000D01*
D12*
X34680000Y24923883D02*
X34680000Y25000000D01*
D11*
X39130000Y44250000D02*
X39130000Y39830000D01*
D10*
X8130000Y30960000D02*
X8130000Y32760000D01*
D12*
X26380000Y10750000D02*
X28800000Y10750000D01*
D10*
X52210000Y41950000D02*
X51760000Y41950000D01*
D10*
X9900000Y46600000D02*
X11000000Y46600000D01*
D10*
X30700000Y7000000D02*
X26600000Y7000000D01*
D10*
X25150000Y7050000D02*
X23850000Y7050000D01*
D11*
X39130000Y39830000D02*
X34180000Y39830000D01*
D11*
X34180000Y39830000D02*
X34180000Y35850000D01*
D10*
X47490000Y32430000D02*
X47490000Y32130001D01*
D10*
X18580000Y9810000D02*
X20010000Y9810000D01*
D10*
X43390000Y43860000D02*
X45750000Y46220000D01*
D10*
X21860000Y10750000D02*
X21860000Y12780000D01*
D11*
X17150000Y28910000D02*
X20030000Y28910000D01*
D10*
X13200000Y29420000D02*
X14800000Y31020000D01*
D10*
X16400000Y34250000D02*
X16400000Y36800000D01*
D10*
X11470000Y27630000D02*
X14010000Y25090000D01*
D10*
X47490000Y37029999D02*
X47490000Y37210000D01*
D10*
X7881000Y30711000D02*
X7881000Y28449000D01*
D10*
X19339999Y40239999D02*
X18350000Y39250000D01*
D10*
X21325000Y52410000D02*
X8850000Y52410000D01*
D10*
X45750000Y49390000D02*
X41910000Y53230000D01*
D10*
X20730000Y31020000D02*
X20730000Y32240001D01*
D12*
X48700000Y28570000D02*
X50690000Y28570000D01*
D10*
X50690000Y23230000D02*
X51960000Y23230000D01*
D10*
X7330000Y23860000D02*
X7330000Y25760000D01*
D10*
X53350000Y28680000D02*
X53240000Y28570000D01*
D10*
X29790000Y46110000D02*
X30870000Y45030000D01*
D10*
X5700000Y46300000D02*
X6000000Y46600000D01*
D11*
X34180000Y35850000D02*
X31730000Y33400000D01*
D10*
X47490000Y37210000D02*
X43390000Y41310000D01*
D10*
X51030000Y4900000D02*
X52150000Y3780000D01*
D11*
X34680000Y22056117D02*
X31743883Y22056117D01*
D10*
X30870000Y45030000D02*
X30870000Y44500000D01*
D10*
X18700000Y42100000D02*
X18700000Y48000000D01*
D10*
X3760000Y35710000D02*
X3691544Y35641544D01*
D10*
X53410000Y32190000D02*
X53410000Y30860000D01*
D12*
X26380000Y10750000D02*
X24410000Y10750000D01*
D11*
X37700000Y16766117D02*
X29876117Y16766117D01*
D10*
X21860000Y5410000D02*
X21860000Y4390000D01*
D11*
X43060000Y28570000D02*
X48700000Y28570000D01*
D10*
X13600000Y39250000D02*
X15250000Y40900000D01*
D12*
X31740000Y24960000D02*
X31740000Y27380000D01*
D10*
X10200000Y44300000D02*
X11820000Y44300000D01*
D10*
X28475000Y52410000D02*
X28900000Y52410000D01*
D10*
X30740000Y3430000D02*
X28770000Y3430000D01*
D10*
X7400000Y37000000D02*
X7400000Y44100000D01*
D10*
X29810000Y50800000D02*
X30870000Y50800000D01*
D10*
X15250000Y40900000D02*
X17500000Y40900000D01*
D10*
X26600000Y7000000D02*
X25600000Y8000000D01*
D12*
X28800000Y10750000D02*
X33740000Y10750000D01*
D10*
X16400000Y32750000D02*
X14370000Y32750000D01*
D12*
X29450000Y29940000D02*
X28890000Y30500000D01*
D10*
X21325000Y47330000D02*
X28475000Y47330000D01*
D10*
X25770000Y44900000D02*
X26980000Y46110000D01*
D12*
X31730000Y29940000D02*
X29450000Y29940000D01*
D10*
X53690000Y35630000D02*
X53690000Y33970000D01*
D10*
X7930000Y26360000D02*
X7330000Y25760000D01*
D10*
X3691544Y32821544D02*
X3630000Y32760000D01*
D12*
X31730000Y33400000D02*
X31730000Y31210000D01*
D10*
X49030000Y33970000D02*
X47490000Y32430000D01*
D10*
X11470000Y33420000D02*
X11470000Y31020000D01*
D10*
X49550000Y40140000D02*
X49550000Y40150000D01*
D10*
X51850000Y30800000D02*
X51850000Y28680000D01*
D10*
X21060000Y25590000D02*
X21060000Y16700000D01*
D11*
X43250000Y10750000D02*
X41340000Y10750000D01*
D10*
X8850000Y52410000D02*
X1900418Y45460418D01*
D10*
X20010000Y9810000D02*
X20590000Y10390000D01*
D10*
X11820000Y44300000D02*
X14120000Y46600000D01*
D12*
X39440000Y10750000D02*
X37550000Y10750000D01*
D10*
X23000000Y23800000D02*
X23000000Y15420000D01*
D10*
X20570000Y49870000D02*
X21325000Y49870000D01*
D11*
X28890000Y27860000D02*
X28890000Y30500000D01*
D10*
X54510000Y28570000D02*
X54510000Y29010000D01*
D10*
X47540000Y4900000D02*
X51030000Y4900000D01*
D11*
X37700000Y19633883D02*
X37700000Y22056117D01*
D10*
X53000000Y42740000D02*
X52210000Y41950000D01*
D10*
X8130000Y36270000D02*
X7400000Y37000000D01*
D10*
X11470000Y31020000D02*
X11470000Y27630000D01*
D12*
X37550000Y10750000D02*
X33740000Y10750000D01*
D10*
X40360000Y7000000D02*
X42460000Y4900000D01*
D10*
X47960000Y40140000D02*
X46380000Y41720000D01*
D10*
X48190000Y41950000D02*
X50000000Y41950000D01*
D11*
X37700000Y22056117D02*
X34680000Y22056117D01*
D10*
X16570000Y31020000D02*
X20730000Y31020000D01*
D11*
X9630000Y20990000D02*
X9630000Y23100000D01*
D10*
X26980000Y46110000D02*
X29790000Y46110000D01*
D11*
X37703883Y16770000D02*
X37700000Y16766117D01*
D10*
X55400000Y37960078D02*
X55400000Y29900000D01*
D10*
X14010000Y25090000D02*
X14970000Y25090000D01*
D10*
X13930000Y27640000D02*
X13200000Y28370000D01*
D10*
X5700000Y35600000D02*
X5700000Y46300000D01*
D10*
X24900000Y8000000D02*
X23140000Y9760000D01*
D10*
X28900000Y52410000D02*
X29720000Y53230000D01*
D10*
X14970000Y26360000D02*
X14970000Y27640000D01*
D11*
X54510000Y19510000D02*
X54510000Y21060000D01*
D10*
X9630000Y30960000D02*
X9630000Y37970000D01*
D11*
X39130000Y44250000D02*
X35790000Y47590000D01*
D10*
X28880000Y49870000D02*
X29810000Y50800000D01*
D10*
X21325000Y44765000D02*
X21325000Y44790000D01*
D10*
X5130000Y32760000D02*
X6630000Y32760000D01*
D10*
X26275000Y42000000D02*
X24090000Y42000000D01*
D10*
X51760000Y41950000D02*
X51760000Y41660000D01*
D11*
X28475000Y39830000D02*
X28475000Y42000000D01*
D10*
X20730000Y40239999D02*
X19339999Y40239999D01*
D11*
X46150000Y12500000D02*
X46150000Y14810000D01*
D10*
X17500000Y40900000D02*
X18700000Y42100000D01*
D11*
X25990000Y21510000D02*
X29410000Y21510000D01*
D10*
X9630000Y26360000D02*
X7930000Y26360000D01*
D10*
X14970000Y27640000D02*
X13930000Y27640000D01*
D10*
X51850000Y30800000D02*
X51850000Y32470000D01*
D11*
X31743883Y22056117D02*
X31740000Y22060000D01*
D10*
X45000000Y2360000D02*
X47540000Y4900000D01*
D10*
X48050000Y40140000D02*
X47960000Y40140000D01*
D10*
X24090000Y42000000D02*
X21325000Y44765000D01*
D13*
X28475000Y42000000D02*
X28475000Y44790000D01*
D11*
X44400000Y10750000D02*
X46150000Y12500000D01*
D10*
X49840000Y40440000D02*
X50540000Y40440000D01*
D11*
X43250000Y10750000D02*
X44400000Y10750000D01*
D10*
X45750000Y46220000D02*
X45750000Y49390000D01*
D10*
X53350000Y30800000D02*
X53350000Y28680000D01*
D10*
X30870000Y50800000D02*
X30870000Y50980000D01*
D10*
X21860000Y4390000D02*
X20170000Y2700000D01*
D10*
X8130000Y30960000D02*
X7881000Y30711000D01*
D10*
X46380000Y43450000D02*
X48190000Y43450000D01*
D12*
X37070000Y27390000D02*
X39800000Y27390000D01*
D12*
X34680000Y25000000D02*
X37070000Y27390000D01*
D11*
X25990000Y24976117D02*
X23963883Y24976117D01*
D10*
X18690000Y11420000D02*
X18580000Y11310000D01*
D10*
X46380000Y43450000D02*
X46380000Y44780000D01*
D10*
X1900418Y32239582D02*
X3430000Y30710000D01*
D10*
X53000000Y46600000D02*
X53000000Y42740000D01*
D10*
X14370000Y32750000D02*
X14370000Y33420000D01*
D10*
X20590000Y5410000D02*
X6480000Y5410000D01*
D10*
X23850000Y7050000D02*
X23140000Y6340000D01*
D11*
X25990000Y33393883D02*
X25996117Y33400000D01*
D10*
X20730000Y40239999D02*
X20730000Y37139999D01*
D10*
X7881000Y28449000D02*
X8690000Y27640000D01*
D11*
X32500000Y57800000D02*
X30750000Y57800000D01*
D10*
X29720000Y53230000D02*
X31120000Y53230000D01*
D12*
X9630000Y23100000D02*
X9630000Y25090000D01*
D10*
X44900000Y41950000D02*
X46380000Y41950000D01*
D11*
X43300000Y16770000D02*
X37703883Y16770000D01*
D10*
X13200000Y28370000D02*
X13200000Y29420000D01*
D10*
X43390000Y41310000D02*
X43390000Y43860000D01*
D10*
X8690000Y27640000D02*
X9630000Y27640000D01*
D11*
X35790000Y47590000D02*
X35790000Y54510000D01*
D10*
X14800000Y31020000D02*
X15070000Y31020000D01*
D10*
X33140000Y53250000D02*
X33140000Y54390000D01*
D12*
X17150000Y28910000D02*
X14970000Y28910000D01*
D12*
X31740000Y27380000D02*
X31730000Y27390000D01*
D11*
X30380000Y39830000D02*
X28475000Y39830000D01*
D10*
X51850000Y28680000D02*
X51960000Y28570000D01*
D10*
X9100000Y38500000D02*
X9100000Y43200000D01*
D10*
X9630000Y37970000D02*
X9100000Y38500000D01*
D10*
X9630000Y28910000D02*
X9630000Y30960000D01*
D10*
X18700000Y48000000D02*
X20570000Y49870000D01*
D11*
X34180000Y39830000D02*
X32280000Y39830000D01*
D10*
X11100000Y42550000D02*
X11100000Y39250000D01*
D11*
X43300000Y16770000D02*
X51770000Y16770000D01*
D11*
X25990000Y27843883D02*
X25990000Y30500000D01*
D11*
X25990000Y30500000D02*
X25990000Y33393883D01*
D10*
X25600000Y8000000D02*
X24900000Y8000000D01*
D10*
X30870000Y50980000D02*
X33140000Y53250000D01*
D10*
X1900418Y45460418D02*
X1900418Y32239582D01*
D10*
X18690000Y13080000D02*
X18690000Y11420000D01*
D11*
X25990000Y21510000D02*
X25990000Y24976117D01*
D12*
X54510000Y21060000D02*
X54510000Y23230000D01*
D10*
X14120000Y46600000D02*
X16000000Y46600000D01*
D10*
X23000000Y15420000D02*
X21860000Y14280000D01*
D10*
X6480000Y5410000D02*
X4850000Y3780000D01*
D10*
X5830000Y27810000D02*
X5830000Y25760000D01*
D10*
X53690000Y32470000D02*
X53410000Y32190000D01*
D12*
X37070000Y31210000D02*
X31730000Y31210000D01*
D10*
X46380000Y41720000D02*
X46380000Y41950000D01*
D11*
X20030000Y28910000D02*
X23963883Y24976117D01*
D10*
X47490001Y37030000D02*
X47490000Y37029999D01*
D10*
X23140000Y6340000D02*
X23140000Y5410000D01*
D10*
X3691544Y35641544D02*
X3691544Y32821544D01*
D10*
X51760000Y41660000D02*
X50540000Y40440000D01*
D10*
X21060000Y16700000D02*
X19340000Y14980000D01*
D10*
X51850000Y33970000D02*
X49030000Y33970000D01*
D10*
X7400000Y44100000D02*
X9900000Y46600000D01*
D11*
X28863883Y33400000D02*
X31730000Y33400000D01*
D10*
X8130000Y32760000D02*
X8130000Y36270000D01*
D10*
X33900000Y7000000D02*
X40360000Y7000000D01*
D10*
X49550000Y40150000D02*
X49840000Y40440000D01*
D10*
X53410000Y30860000D02*
X53350000Y30800000D01*
D10*
X23140000Y9760000D02*
X23140000Y10750000D01*
G75*
D14*
X8130000Y30960000D03*
D15*
X9630000Y30960000D03*
D16*
X53690000Y37130000D03*
D17*
X53690000Y35630000D03*
D18*
X28890000Y27860000D03*
D19*
X28890000Y24960000D03*
D20*
X5830000Y23860000D03*
D21*
X7330000Y23860000D03*
D15*
X11130000Y23100000D03*
D14*
X9630000Y23100000D03*
D22*
X49450000Y12500000D03*
D23*
X46150000Y12500000D03*
D24*
X30870000Y50800000D03*
D25*
X33370000Y44500000D03*
D25*
X30870000Y44500000D03*
D24*
X33370000Y50800000D03*
D26*
X21325000Y44790000D03*
D27*
X28475000Y47330000D03*
D27*
X28475000Y52410000D03*
D27*
X28475000Y49870000D03*
D26*
X21325000Y47330000D03*
D26*
X21325000Y52410000D03*
D27*
X28475000Y44790000D03*
D26*
X21325000Y49870000D03*
D19*
X5830000Y27810000D03*
D18*
X5830000Y30710000D03*
D28*
X33740000Y14050000D03*
D29*
X33740000Y10750000D03*
D30*
X39130000Y48550000D03*
D31*
X39130000Y44250000D03*
D21*
X5130000Y32760000D03*
D20*
X3630000Y32760000D03*
D16*
X50000000Y43450000D03*
D17*
X50000000Y41950000D03*
D32*
X16400000Y32750000D03*
D33*
X16400000Y34250000D03*
D19*
X31740000Y22060000D03*
D18*
X31740000Y24960000D03*
D34*
X52150000Y3780000D03*
D34*
X54650000Y3780000D03*
D35*
X41340000Y10750000D03*
D36*
X40390000Y12950000D03*
D35*
X39440000Y10750000D03*
D37*
X23750000Y58650000D03*
D37*
X23750000Y71100000D03*
D37*
X7450000Y71100000D03*
D37*
X23750000Y64850000D03*
D37*
X7450000Y64850000D03*
D37*
X7450000Y58650000D03*
D33*
X51850000Y33970000D03*
D32*
X51850000Y32470000D03*
D38*
X28475000Y42000000D03*
D39*
X26275000Y42000000D03*
D19*
X39800000Y27390000D03*
D18*
X39800000Y30290000D03*
D17*
X17150000Y27410000D03*
D16*
X17150000Y28910000D03*
D33*
X48190000Y43450000D03*
D32*
X48190000Y41950000D03*
D33*
X53690000Y33970000D03*
D32*
X53690000Y32470000D03*
D16*
X37550000Y12250000D03*
D17*
X37550000Y10750000D03*
D40*
X6000000Y46600000D03*
D40*
X16000000Y46600000D03*
D40*
X11000000Y46600000D03*
D41*
X25990000Y16310000D03*
D42*
X25990000Y21510000D03*
D14*
X26975000Y39830000D03*
D15*
X28475000Y39830000D03*
D40*
X43000000Y46600000D03*
D40*
X53000000Y46600000D03*
D40*
X48000000Y46600000D03*
D32*
X51850000Y35530000D03*
D33*
X51850000Y37030000D03*
D43*
X37700000Y16766117D03*
D44*
X37700000Y19633883D03*
D45*
X18690000Y13080000D03*
D45*
X19990000Y13080000D03*
D46*
X19340000Y14980000D03*
D47*
X28863883Y33400000D03*
D48*
X25996117Y33400000D03*
D49*
X50690000Y28570000D03*
D49*
X53240000Y28570000D03*
D49*
X54510000Y28570000D03*
D50*
X54510000Y23230000D03*
D50*
X51960000Y23230000D03*
D49*
X51960000Y28570000D03*
D50*
X50690000Y23230000D03*
D50*
X53240000Y23230000D03*
D20*
X51850000Y30800000D03*
D21*
X53350000Y30800000D03*
D43*
X37700000Y22056117D03*
D44*
X37700000Y24923883D03*
D50*
X24410000Y5410000D03*
D50*
X21860000Y5410000D03*
D50*
X20590000Y5410000D03*
D49*
X20590000Y10750000D03*
D49*
X23140000Y10750000D03*
D50*
X23140000Y5410000D03*
D49*
X24410000Y10750000D03*
D49*
X21860000Y10750000D03*
D51*
X25990000Y30500000D03*
D52*
X28890000Y30500000D03*
D43*
X34680000Y22056117D03*
D44*
X34680000Y24923883D03*
D53*
X30750000Y57800000D03*
D53*
X28250000Y57800000D03*
D54*
X47490000Y32130001D03*
D55*
X47490000Y37029999D03*
D33*
X21860000Y14280000D03*
D32*
X21860000Y12780000D03*
D34*
X4850000Y3780000D03*
D34*
X7350000Y3780000D03*
D56*
X11100000Y39250000D03*
D56*
X13600000Y42550000D03*
D56*
X16100000Y42550000D03*
D56*
X11100000Y42550000D03*
D56*
X13600000Y39250000D03*
D56*
X16100000Y39250000D03*
D57*
X30740000Y3430000D03*
D57*
X38360000Y3430000D03*
D21*
X16570000Y31020000D03*
D20*
X15070000Y31020000D03*
D44*
X25990000Y27843883D03*
D43*
X25990000Y24976117D03*
D41*
X39130000Y34630000D03*
D42*
X39130000Y39830000D03*
D16*
X34180000Y41330000D03*
D17*
X34180000Y39830000D03*
D17*
X51760000Y41950000D03*
D16*
X51760000Y43450000D03*
D35*
X32280000Y39830000D03*
D36*
X31330000Y42030000D03*
D35*
X30380000Y39830000D03*
D16*
X43250000Y12250000D03*
D17*
X43250000Y10750000D03*
D32*
X3430000Y29210000D03*
D33*
X3430000Y30710000D03*
D14*
X53010000Y21060000D03*
D15*
X54510000Y21060000D03*
D41*
X43300000Y16770000D03*
D42*
X43300000Y21970000D03*
D56*
X20170000Y2700000D03*
D56*
X22710000Y2700000D03*
D56*
X25250000Y2700000D03*
D51*
X11470000Y33420000D03*
D52*
X14370000Y33420000D03*
D58*
X37070000Y31210000D03*
D58*
X37070000Y28660000D03*
D58*
X37070000Y27390000D03*
D59*
X31730000Y27390000D03*
D59*
X31730000Y29940000D03*
D58*
X37070000Y29940000D03*
D59*
X31730000Y31210000D03*
D59*
X31730000Y28660000D03*
D58*
X14970000Y28910000D03*
D58*
X14970000Y26360000D03*
D58*
X14970000Y25090000D03*
D59*
X9630000Y25090000D03*
D59*
X9630000Y27640000D03*
D58*
X14970000Y27640000D03*
D59*
X9630000Y28910000D03*
D59*
X9630000Y26360000D03*
D60*
X30700000Y7000000D03*
D61*
X33900000Y7000000D03*
D17*
X46380000Y41950000D03*
D16*
X46380000Y43450000D03*
D54*
X20730000Y32240001D03*
D55*
X20730000Y37139999D03*
D17*
X26380000Y9250000D03*
D16*
X26380000Y10750000D03*
D17*
X48700000Y27070000D03*
D16*
X48700000Y28570000D03*
D21*
X49550000Y40140000D03*
D20*
X48050000Y40140000D03*
D62*
X47540000Y4900000D03*
D62*
X45000000Y2360000D03*
D62*
X42460000Y4900000D03*
D21*
X12970000Y31020000D03*
D20*
X11470000Y31020000D03*
D33*
X18580000Y11310000D03*
D32*
X18580000Y9810000D03*
D21*
X7330000Y25760000D03*
D20*
X5830000Y25760000D03*
D21*
X22230000Y40239999D03*
D20*
X20730000Y40239999D03*
D37*
X51550000Y58650000D03*
D37*
X51550000Y71100000D03*
D37*
X35250000Y71100000D03*
D37*
X51550000Y64850000D03*
D37*
X35250000Y64850000D03*
D37*
X35250000Y58650000D03*
D21*
X8130000Y32760000D03*
D20*
X6630000Y32760000D03*
D28*
X3760000Y39010000D03*
D29*
X3760000Y35710000D03*
D63*
X7400000Y7800000D03*
D63*
X24200000Y29100000D03*
D64*
X32665000Y74633000D03*
D63*
X51664000Y56300000D03*
D63*
X44631000Y14230000D03*
D63*
X51664000Y7800000D03*
D63*
X22000000Y17500000D03*
D63*
X47864000Y14300000D03*
D64*
X57997000Y68300000D03*
D64*
X26332000Y74633000D03*
D63*
X25570000Y5410000D03*
D63*
X32040000Y14050000D03*
D64*
X25770000Y43930000D03*
D63*
X31800000Y54700000D03*
D63*
X39500000Y24923883D03*
D64*
X57997000Y7800000D03*
D63*
X32270000Y50800000D03*
D63*
X13666000Y56300000D03*
D64*
X57997000Y14300000D03*
D63*
X37430000Y34630000D03*
D63*
X19999000Y68300000D03*
D63*
X43300000Y24270000D03*
D63*
X45331000Y68300000D03*
D63*
X45331000Y7800000D03*
D63*
X19999000Y20300000D03*
D63*
X27932000Y20200000D03*
D63*
X40930000Y48550000D03*
D63*
X32270000Y44500000D03*
D64*
X38998000Y74633000D03*
D63*
X12330000Y23100000D03*
D63*
X7333000Y14300000D03*
D63*
X26332000Y56300000D03*
D63*
X32665000Y62300000D03*
D64*
X46380000Y44780000D03*
D64*
X57997000Y20300000D03*
D63*
X10100000Y40900000D03*
D63*
X13700000Y17700000D03*
D63*
X7140000Y35700000D03*
D63*
X13666000Y14300000D03*
D65*
X29876117Y16766117D03*
D63*
X24200000Y23700000D03*
D64*
X1000000Y50300000D03*
D64*
X21060000Y25590000D03*
D66*
X28800000Y10750000D03*
D64*
X33140000Y54390000D03*
D63*
X24000000Y44300000D03*
D64*
X57997000Y38300000D03*
D63*
X34470000Y44500000D03*
D63*
X41700000Y21970000D03*
D64*
X51664000Y900000D03*
D64*
X19999000Y900000D03*
D63*
X15500000Y37700000D03*
D63*
X17699000Y44300000D03*
D63*
X25990000Y14010000D03*
D63*
X12970000Y32220000D03*
D63*
X48100000Y20500000D03*
D63*
X39800000Y31690000D03*
D63*
X51650000Y12500000D03*
D63*
X7333000Y62300000D03*
D64*
X7333000Y74633000D03*
D63*
X9830000Y45160000D03*
D63*
X46500000Y40000000D03*
D63*
X23000000Y34060000D03*
D65*
X9630000Y20990000D03*
D63*
X38750000Y12250000D03*
D63*
X7833000Y49900000D03*
D63*
X3760000Y41310000D03*
D63*
X42000000Y44300000D03*
D64*
X1000000Y7800000D03*
D64*
X57997000Y44300000D03*
D63*
X37330000Y48550000D03*
D63*
X44900000Y21970000D03*
D64*
X55400000Y37960078D03*
D63*
X11100000Y36300000D03*
D63*
X32665000Y68300000D03*
D63*
X40830000Y34630000D03*
D64*
X1000000Y68300000D03*
D64*
X24090000Y42000000D03*
D63*
X19699000Y50800000D03*
D63*
X54000000Y44600000D03*
D63*
X53690000Y38330000D03*
D63*
X26332000Y68300000D03*
D63*
X12400000Y40900000D03*
D63*
X24930000Y38300000D03*
D63*
X13666000Y50300000D03*
D63*
X30300000Y26400000D03*
D64*
X26332000Y900000D03*
D63*
X33370000Y49100000D03*
D63*
X45331000Y56300000D03*
D63*
X37100000Y44500000D03*
D63*
X35440000Y14050000D03*
D63*
X54430000Y30870000D03*
D63*
X32665000Y38300000D03*
D63*
X53010000Y19760000D03*
D64*
X57997000Y62300000D03*
D63*
X18400000Y30080000D03*
D64*
X31120000Y53230000D03*
D64*
X41910000Y53230000D03*
D64*
X1000000Y900000D03*
D63*
X34370000Y54120000D03*
D63*
X8533000Y56300000D03*
D63*
X32265000Y8500000D03*
D63*
X34470000Y50800000D03*
D64*
X13666000Y74633000D03*
D63*
X8610000Y37360000D03*
D63*
X22020000Y24770000D03*
D64*
X23000000Y23800000D03*
D63*
X51664000Y50300000D03*
D64*
X7333000Y900000D03*
D63*
X22190000Y41439999D03*
D63*
X38998000Y68300000D03*
D63*
X41500000Y29100000D03*
D64*
X19999000Y74633000D03*
D63*
X28300000Y23100000D03*
D64*
X13666000Y900000D03*
D63*
X44831000Y43400000D03*
D63*
X19999000Y56300000D03*
D63*
X26332000Y62300000D03*
D63*
X33330000Y28660000D03*
D63*
X7333000Y68300000D03*
D63*
X18400000Y32100000D03*
D63*
X33765000Y33300000D03*
D63*
X45331000Y32300000D03*
D64*
X1000000Y20300000D03*
D63*
X33370000Y42800000D03*
D63*
X5560000Y34160000D03*
D64*
X57997000Y50300000D03*
D63*
X26975000Y38630000D03*
D63*
X51664000Y68300000D03*
D64*
X1000000Y62300000D03*
D64*
X1000000Y56300000D03*
D63*
X13436000Y26900000D03*
D63*
X38998000Y56300000D03*
D64*
X57997000Y56300000D03*
D63*
X24200000Y20300000D03*
D64*
X57997000Y32300000D03*
D65*
X43060000Y28570000D03*
D63*
X13733000Y7800000D03*
D63*
X13666000Y68300000D03*
D63*
X30400000Y32200000D03*
D63*
X26332000Y50300000D03*
D63*
X51760000Y44650000D03*
D64*
X4730000Y23860000D03*
D63*
X35500000Y18100000D03*
D63*
X42000000Y40000000D03*
D63*
X39130000Y50750000D03*
D64*
X51664000Y74633000D03*
D63*
X51664000Y62300000D03*
D63*
X3430000Y28110000D03*
D65*
X46150000Y14810000D03*
D63*
X30300000Y47600000D03*
D63*
X30030000Y42030000D03*
D64*
X32665000Y900000D03*
D63*
X13666000Y20300000D03*
D63*
X19699000Y44300000D03*
D63*
X37100000Y41100000D03*
D63*
X27600000Y9250000D03*
D63*
X7633000Y27310000D03*
D63*
X42050000Y12250000D03*
D63*
X11400000Y25900000D03*
D64*
X16400000Y36800000D03*
D63*
X22000000Y20300000D03*
D63*
X50000000Y44650000D03*
D64*
X1000000Y26300000D03*
D63*
X17150000Y26210000D03*
D64*
X45331000Y74633000D03*
D63*
X24190000Y16310000D03*
D64*
X1000000Y44300000D03*
D63*
X38998000Y62300000D03*
D63*
X46731000Y50300000D03*
D63*
X45331000Y62300000D03*
D63*
X19999000Y17500000D03*
D63*
X22020000Y28790000D03*
D63*
X24200000Y26400000D03*
D63*
X30400000Y34800000D03*
D63*
X27132000Y43600000D03*
D63*
X50364000Y32300000D03*
D63*
X18199000Y36900000D03*
D67*
X31730000Y33400000D03*
D64*
X57997000Y900000D03*
D64*
X44900000Y41950000D03*
D65*
X29410000Y21510000D03*
D64*
X38998000Y900000D03*
D64*
X1000000Y32300000D03*
D63*
X19999000Y62300000D03*
D63*
X48700000Y25870000D03*
D63*
X13666000Y62300000D03*
D63*
X24232000Y32300000D03*
D63*
X40390000Y14250000D03*
D63*
X38998000Y8050000D03*
D63*
X50650000Y35530000D03*
D64*
X1000000Y14300000D03*
D63*
X29200000Y4900000D03*
D63*
X27790000Y16310000D03*
D64*
X45331000Y900000D03*
D64*
X1000000Y38300000D03*
D63*
X21900000Y7600000D03*
D64*
X57997000Y26300000D03*
D63*
X7333000Y20300000D03*
M02*
