%FSLAX46Y46*%
%MOMM*%
%ADD10C,0.300000*%
%ADD12C,0.600000*%
%ADD13C,0.700000*%
%ADD11C,0.800000*%
%AMPS20*
1,1,2.100000,0.000000,0.000000*
%
%ADD20PS20*%
%AMPS59*
1,1,1.600000,0.000000,0.000000*
%
%ADD59PS59*%
%AMPS30*
1,1,1.600000,0.000000,0.000000*
%
%ADD30PS30*%
%AMPS60*
1,1,2.200000,0.000000,0.000000*
%
%ADD60PS60*%
%AMPS66*
1,1,1.300000,0.000000,0.000000*
%
%ADD66PS66*%
%AMPS33*
1,1,2.200000,0.000000,0.000000*
%
%ADD33PS33*%
%AMPS21*
1,1,1.200000,0.000000,0.000000*
%
%ADD21PS21*%
%AMPS34*
1,1,1.200000,0.000000,0.000000*
%
%ADD34PS34*%
%AMPS58*
1,1,1.200000,0.000000,0.000000*
%
%ADD58PS58*%
%AMPS61*
1,1,1.200000,0.000000,0.000000*
%
%ADD61PS61*%
%AMPS55*
1,1,1.700000,0.000000,0.000000*
%
%ADD55PS55*%
%AMPS52*
1,1,1.700000,0.000000,0.000000*
%
%ADD52PS52*%
%AMPS37*
1,1,1.700000,0.000000,0.000000*
%
%ADD37PS37*%
%AMPS62*
21,1,1.594948,2.741421,0.000000,0.000000,0.000000*
%
%ADD62PS62*%
%AMPS29*
21,1,1.594948,2.741421,0.000000,0.000000,90.000000*
%
%ADD29PS29*%
%AMPS63*
21,1,1.594948,2.741421,0.000000,0.000000,180.000000*
%
%ADD63PS63*%
%AMPS28*
21,1,1.594948,2.741421,0.000000,0.000000,270.000000*
%
%ADD28PS28*%
%AMPS38*
21,1,1.600000,2.950000,0.000000,0.000000,0.000000*
%
%ADD38PS38*%
%AMPS42*
21,1,1.600000,2.950000,0.000000,0.000000,90.000000*
%
%ADD42PS42*%
%AMPS39*
21,1,1.600000,2.950000,0.000000,0.000000,180.000000*
%
%ADD39PS39*%
%AMPS43*
21,1,1.600000,2.950000,0.000000,0.000000,270.000000*
%
%ADD43PS43*%
%AMPS53*
21,1,0.600000,1.550000,0.000000,0.000000,0.000000*
%
%ADD53PS53*%
%AMPS44*
21,1,0.600000,1.550000,0.000000,0.000000,90.000000*
%
%ADD44PS44*%
%AMPS54*
21,1,0.600000,1.550000,0.000000,0.000000,180.000000*
%
%ADD54PS54*%
%AMPS45*
21,1,0.600000,1.550000,0.000000,0.000000,270.000000*
%
%ADD45PS45*%
%AMPS49*
21,1,1.600000,2.500000,0.000000,0.000000,0.000000*
%
%ADD49PS49*%
%AMPS35*
21,1,1.600000,2.500000,0.000000,0.000000,90.000000*
%
%ADD35PS35*%
%AMPS48*
21,1,1.600000,2.500000,0.000000,0.000000,180.000000*
%
%ADD48PS48*%
%AMPS36*
21,1,1.600000,2.500000,0.000000,0.000000,270.000000*
%
%ADD36PS36*%
%AMPS64*
21,1,0.900000,1.000000,0.000000,0.000000,0.000000*
%
%ADD64PS64*%
%AMPS41*
21,1,0.900000,1.000000,0.000000,0.000000,90.000000*
%
%ADD41PS41*%
%AMPS65*
21,1,0.900000,1.000000,0.000000,0.000000,180.000000*
%
%ADD65PS65*%
%AMPS40*
21,1,0.900000,1.000000,0.000000,0.000000,270.000000*
%
%ADD40PS40*%
%AMPS57*
21,1,1.400000,1.100000,0.000000,0.000000,0.000000*
%
%ADD57PS57*%
%AMPS56*
21,1,1.400000,1.100000,0.000000,0.000000,180.000000*
%
%ADD56PS56*%
%AMPS46*
21,1,0.400000,0.900000,0.000000,0.000000,90.000000*
%
%ADD46PS46*%
%AMPS47*
21,1,0.400000,0.900000,0.000000,0.000000,270.000000*
%
%ADD47PS47*%
%AMPS27*
21,1,0.600000,1.800000,0.000000,0.000000,0.000000*
%
%ADD27PS27*%
%AMPS26*
21,1,0.600000,1.800000,0.000000,0.000000,180.000000*
%
%ADD26PS26*%
%AMPS70*
21,1,0.701421,1.491421,0.000000,0.000000,90.000000*
%
%ADD70PS70*%
%AMPS69*
21,1,0.701421,1.491421,0.000000,0.000000,270.000000*
%
%ADD69PS69*%
%AMPS19*
21,1,0.900000,0.500000,0.000000,0.000000,0.000000*
%
%ADD19PS19*%
%AMPS22*
21,1,0.900000,0.500000,0.000000,0.000000,90.000000*
%
%ADD22PS22*%
%AMPS18*
21,1,0.900000,0.500000,0.000000,0.000000,180.000000*
%
%ADD18PS18*%
%AMPS23*
21,1,0.900000,0.500000,0.000000,0.000000,270.000000*
%
%ADD23PS23*%
%AMPS15*
21,1,1.700000,1.100000,0.000000,0.000000,0.000000*
%
%ADD15PS15*%
%AMPS32*
21,1,1.700000,1.100000,0.000000,0.000000,90.000000*
%
%ADD32PS32*%
%AMPS14*
21,1,1.700000,1.100000,0.000000,0.000000,180.000000*
%
%ADD14PS14*%
%AMPS31*
21,1,1.700000,1.100000,0.000000,0.000000,270.000000*
%
%ADD31PS31*%
%AMPS67*
21,1,0.700000,0.900000,0.000000,0.000000,0.000000*
%
%ADD67PS67*%
%AMPS68*
21,1,0.700000,0.900000,0.000000,0.000000,180.000000*
%
%ADD68PS68*%
%AMPS25*
21,1,0.850000,0.800000,0.000000,0.000000,0.000000*
%
%ADD25PS25*%
%AMPS16*
21,1,0.850000,0.800000,0.000000,0.000000,90.000000*
%
%ADD16PS16*%
%AMPS24*
21,1,0.850000,0.800000,0.000000,0.000000,180.000000*
%
%ADD24PS24*%
%AMPS17*
21,1,0.850000,0.800000,0.000000,0.000000,270.000000*
%
%ADD17PS17*%
%AMPS51*
21,1,1.750000,2.650000,0.000000,0.000000,0.000000*
%
%ADD51PS51*%
%AMPS50*
21,1,1.750000,2.650000,0.000000,0.000000,180.000000*
%
%ADD50PS50*%
%AMPS74*
1,1,1.200000,0.000000,0.000000*
%
%ADD74PS74*%
%AMPS73*
1,1,1.000000,0.000000,0.000000*
%
%ADD73PS73*%
%AMPS72*
1,1,0.700000,0.000000,0.000000*
%
%ADD72PS72*%
%AMPS71*
1,1,0.700000,0.000000,0.000000*
%
%ADD71PS71*%
G01*
%LPD*%
G36*
X58640000Y360000D02*
X58640000Y73640000D01*
X52640000Y73640000D01*
X52640000Y74867918D01*
X52521049Y74920646D01*
X52378039Y74791031D01*
X52275156Y74714727D01*
X52165288Y74648874D01*
X52049494Y74594108D01*
X51928893Y74550956D01*
X51804648Y74519835D01*
X51677937Y74501039D01*
X51550000Y74494753D01*
X51422063Y74501039D01*
X51295352Y74519835D01*
X51171107Y74550956D01*
X51050506Y74594108D01*
X50934712Y74648874D01*
X50824844Y74714727D01*
X50721961Y74791031D01*
X50627051Y74877051D01*
X50541031Y74971961D01*
X50464727Y75074844D01*
X50398874Y75184712D01*
X50344108Y75300506D01*
X50300956Y75421107D01*
X50269835Y75545352D01*
X50251039Y75672063D01*
X50244753Y75800000D01*
X50251039Y75927937D01*
X50269835Y76054648D01*
X50300956Y76178893D01*
X50344108Y76299494D01*
X50398874Y76415288D01*
X50464727Y76525156D01*
X50541031Y76628039D01*
X50627051Y76722949D01*
X50721961Y76808969D01*
X50824844Y76885273D01*
X50934712Y76951126D01*
X51050506Y77005892D01*
X51171107Y77049044D01*
X51295352Y77080165D01*
X51422063Y77098961D01*
X51550000Y77105247D01*
X51677937Y77098961D01*
X51804648Y77080165D01*
X51928893Y77049044D01*
X52049494Y77005892D01*
X52165288Y76951126D01*
X52275156Y76885273D01*
X52378039Y76808969D01*
X52521049Y76679354D01*
X52640000Y76732082D01*
X52640000Y80638322D01*
X31860000Y80541671D01*
X31860000Y65440000D01*
X27140000Y65440000D01*
X27140000Y80541671D01*
X6360000Y80638322D01*
X6360000Y76725334D01*
X6478952Y76672606D01*
X6625134Y76805098D01*
X6727627Y76881112D01*
X6837073Y76946711D01*
X6952421Y77001267D01*
X7072558Y77044252D01*
X7196330Y77075255D01*
X7322554Y77093979D01*
X7345000Y77095082D01*
X7345000Y74504918D01*
X7322554Y74506021D01*
X7196330Y74524745D01*
X7072558Y74555748D01*
X6952421Y74598733D01*
X6837073Y74653289D01*
X6727627Y74718888D01*
X6625134Y74794902D01*
X6478952Y74927394D01*
X6360000Y74874666D01*
X6360000Y73640000D01*
X360000Y73640000D01*
X360000Y360000D01*
X58640000Y360000D01*
D02*
G37*
%LPC*%
G36*
X23750000Y74494753D02*
X23622063Y74501039D01*
X23495352Y74519835D01*
X23371107Y74550956D01*
X23250506Y74594108D01*
X23134712Y74648874D01*
X23024844Y74714727D01*
X22921961Y74791031D01*
X22827051Y74877051D01*
X22741031Y74971961D01*
X22664727Y75074844D01*
X22598874Y75184712D01*
X22544108Y75300506D01*
X22500956Y75421107D01*
X22469835Y75545352D01*
X22451039Y75672063D01*
X22444753Y75800000D01*
X22451039Y75927937D01*
X22469835Y76054648D01*
X22500956Y76178893D01*
X22544108Y76299494D01*
X22598874Y76415288D01*
X22664727Y76525156D01*
X22741031Y76628039D01*
X22827051Y76722949D01*
X22921961Y76808969D01*
X23024844Y76885273D01*
X23134712Y76951126D01*
X23250506Y77005892D01*
X23371107Y77049044D01*
X23495352Y77080165D01*
X23622063Y77098961D01*
X23750000Y77105247D01*
X23877937Y77098961D01*
X24004648Y77080165D01*
X24128893Y77049044D01*
X24249494Y77005892D01*
X24365288Y76951126D01*
X24475156Y76885273D01*
X24578039Y76808969D01*
X24672949Y76722949D01*
X24758969Y76628039D01*
X24835273Y76525156D01*
X24901126Y76415288D01*
X24955892Y76299494D01*
X24999044Y76178893D01*
X25030165Y76054648D01*
X25048961Y75927937D01*
X25055247Y75800000D01*
X25048961Y75672063D01*
X25030165Y75545352D01*
X24999044Y75421107D01*
X24955892Y75300506D01*
X24901126Y75184712D01*
X24835273Y75074844D01*
X24758969Y74971961D01*
X24672949Y74877051D01*
X24578039Y74791031D01*
X24475156Y74714727D01*
X24365288Y74648874D01*
X24249494Y74594108D01*
X24128893Y74550956D01*
X24004648Y74519835D01*
X23877937Y74501039D01*
X23750000Y74494753D01*
D02*
G37*
%LPC*%
G36*
X8745082Y75905000D02*
X7555000Y75905000D01*
X7555000Y77095082D01*
X7577446Y77093979D01*
X7703670Y77075255D01*
X7827442Y77044252D01*
X7947579Y77001267D01*
X8062927Y76946711D01*
X8172373Y76881112D01*
X8274866Y76805098D01*
X8369409Y76719409D01*
X8455098Y76624866D01*
X8531112Y76522373D01*
X8596711Y76412927D01*
X8651267Y76297579D01*
X8694252Y76177442D01*
X8725255Y76053670D01*
X8743979Y75927446D01*
X8745082Y75905000D01*
D02*
G37*
%LPC*%
G36*
X35145000Y75905000D02*
X33954918Y75905000D01*
X33956021Y75927446D01*
X33974745Y76053670D01*
X34005748Y76177442D01*
X34048733Y76297579D01*
X34103289Y76412927D01*
X34168888Y76522373D01*
X34244902Y76624866D01*
X34330591Y76719409D01*
X34425134Y76805098D01*
X34527627Y76881112D01*
X34637073Y76946711D01*
X34752421Y77001267D01*
X34872558Y77044252D01*
X34996330Y77075255D01*
X35122554Y77093979D01*
X35145000Y77095082D01*
X35145000Y75905000D01*
D02*
G37*
%LPC*%
G36*
X36545082Y75905000D02*
X35355000Y75905000D01*
X35355000Y77095082D01*
X35377446Y77093979D01*
X35503670Y77075255D01*
X35627442Y77044252D01*
X35747579Y77001267D01*
X35862927Y76946711D01*
X35972373Y76881112D01*
X36074866Y76805098D01*
X36169409Y76719409D01*
X36255098Y76624866D01*
X36331112Y76522373D01*
X36396711Y76412927D01*
X36451267Y76297579D01*
X36494252Y76177442D01*
X36525255Y76053670D01*
X36543979Y75927446D01*
X36545082Y75905000D01*
D02*
G37*
%LPC*%
G36*
X35355000Y74504918D02*
X35355000Y75695000D01*
X36545082Y75695000D01*
X36543979Y75672554D01*
X36525255Y75546330D01*
X36494252Y75422558D01*
X36451267Y75302421D01*
X36396711Y75187073D01*
X36331112Y75077627D01*
X36255098Y74975134D01*
X36169409Y74880591D01*
X36074866Y74794902D01*
X35972373Y74718888D01*
X35862927Y74653289D01*
X35747579Y74598733D01*
X35627442Y74555748D01*
X35503670Y74524745D01*
X35377446Y74506021D01*
X35355000Y74504918D01*
D02*
G37*
%LPC*%
G36*
X35145000Y74504918D02*
X35122554Y74506021D01*
X34996330Y74524745D01*
X34872558Y74555748D01*
X34752421Y74598733D01*
X34637073Y74653289D01*
X34527627Y74718888D01*
X34425134Y74794902D01*
X34330591Y74880591D01*
X34244902Y74975134D01*
X34168888Y75077627D01*
X34103289Y75187073D01*
X34048733Y75302421D01*
X34005748Y75422558D01*
X33974745Y75546330D01*
X33956021Y75672554D01*
X33954918Y75695000D01*
X35145000Y75695000D01*
X35145000Y74504918D01*
D02*
G37*
%LPC*%
G36*
X7555000Y74504918D02*
X7555000Y75695000D01*
X8745082Y75695000D01*
X8743979Y75672554D01*
X8725255Y75546330D01*
X8694252Y75422558D01*
X8651267Y75302421D01*
X8596711Y75187073D01*
X8531112Y75077627D01*
X8455098Y74975134D01*
X8369409Y74880591D01*
X8274866Y74794902D01*
X8172373Y74718888D01*
X8062927Y74653289D01*
X7947579Y74598733D01*
X7827442Y74555748D01*
X7703670Y74524745D01*
X7577446Y74506021D01*
X7555000Y74504918D01*
D02*
G37*
%LPC*%
G36*
X7450000Y68244753D02*
X7322063Y68251039D01*
X7195352Y68269835D01*
X7071107Y68300956D01*
X6950506Y68344108D01*
X6834712Y68398874D01*
X6724844Y68464727D01*
X6621961Y68541031D01*
X6527051Y68627051D01*
X6441031Y68721961D01*
X6364727Y68824844D01*
X6298874Y68934712D01*
X6244108Y69050506D01*
X6200956Y69171107D01*
X6169835Y69295352D01*
X6151039Y69422063D01*
X6144753Y69550000D01*
X6151039Y69677937D01*
X6169835Y69804648D01*
X6200956Y69928893D01*
X6244108Y70049494D01*
X6298874Y70165288D01*
X6364727Y70275156D01*
X6441031Y70378039D01*
X6527051Y70472949D01*
X6621961Y70558969D01*
X6724844Y70635273D01*
X6834712Y70701126D01*
X6950506Y70755892D01*
X7071107Y70799044D01*
X7195352Y70830165D01*
X7322063Y70848961D01*
X7450000Y70855247D01*
X7577937Y70848961D01*
X7704648Y70830165D01*
X7828893Y70799044D01*
X7949494Y70755892D01*
X8065288Y70701126D01*
X8175156Y70635273D01*
X8278039Y70558969D01*
X8372949Y70472949D01*
X8458969Y70378039D01*
X8535273Y70275156D01*
X8601126Y70165288D01*
X8655892Y70049494D01*
X8699044Y69928893D01*
X8730165Y69804648D01*
X8748961Y69677937D01*
X8755247Y69550000D01*
X8748961Y69422063D01*
X8730165Y69295352D01*
X8699044Y69171107D01*
X8655892Y69050506D01*
X8601126Y68934712D01*
X8535273Y68824844D01*
X8458969Y68721961D01*
X8372949Y68627051D01*
X8278039Y68541031D01*
X8175156Y68464727D01*
X8065288Y68398874D01*
X7949494Y68344108D01*
X7828893Y68300956D01*
X7704648Y68269835D01*
X7577937Y68251039D01*
X7450000Y68244753D01*
D02*
G37*
%LPC*%
G36*
X23750000Y68244753D02*
X23622063Y68251039D01*
X23495352Y68269835D01*
X23371107Y68300956D01*
X23250506Y68344108D01*
X23134712Y68398874D01*
X23024844Y68464727D01*
X22921961Y68541031D01*
X22827051Y68627051D01*
X22741031Y68721961D01*
X22664727Y68824844D01*
X22598874Y68934712D01*
X22544108Y69050506D01*
X22500956Y69171107D01*
X22469835Y69295352D01*
X22451039Y69422063D01*
X22444753Y69550000D01*
X22451039Y69677937D01*
X22469835Y69804648D01*
X22500956Y69928893D01*
X22544108Y70049494D01*
X22598874Y70165288D01*
X22664727Y70275156D01*
X22741031Y70378039D01*
X22827051Y70472949D01*
X22921961Y70558969D01*
X23024844Y70635273D01*
X23134712Y70701126D01*
X23250506Y70755892D01*
X23371107Y70799044D01*
X23495352Y70830165D01*
X23622063Y70848961D01*
X23750000Y70855247D01*
X23877937Y70848961D01*
X24004648Y70830165D01*
X24128893Y70799044D01*
X24249494Y70755892D01*
X24365288Y70701126D01*
X24475156Y70635273D01*
X24578039Y70558969D01*
X24672949Y70472949D01*
X24758969Y70378039D01*
X24835273Y70275156D01*
X24901126Y70165288D01*
X24955892Y70049494D01*
X24999044Y69928893D01*
X25030165Y69804648D01*
X25048961Y69677937D01*
X25055247Y69550000D01*
X25048961Y69422063D01*
X25030165Y69295352D01*
X24999044Y69171107D01*
X24955892Y69050506D01*
X24901126Y68934712D01*
X24835273Y68824844D01*
X24758969Y68721961D01*
X24672949Y68627051D01*
X24578039Y68541031D01*
X24475156Y68464727D01*
X24365288Y68398874D01*
X24249494Y68344108D01*
X24128893Y68300956D01*
X24004648Y68269835D01*
X23877937Y68251039D01*
X23750000Y68244753D01*
D02*
G37*
%LPC*%
G36*
X35250000Y68244753D02*
X35122063Y68251039D01*
X34995352Y68269835D01*
X34871107Y68300956D01*
X34750506Y68344108D01*
X34634712Y68398874D01*
X34524844Y68464727D01*
X34421961Y68541031D01*
X34327051Y68627051D01*
X34241031Y68721961D01*
X34164727Y68824844D01*
X34098874Y68934712D01*
X34044108Y69050506D01*
X34000956Y69171107D01*
X33969835Y69295352D01*
X33951039Y69422063D01*
X33944753Y69550000D01*
X33951039Y69677937D01*
X33969835Y69804648D01*
X34000956Y69928893D01*
X34044108Y70049494D01*
X34098874Y70165288D01*
X34164727Y70275156D01*
X34241031Y70378039D01*
X34327051Y70472949D01*
X34421961Y70558969D01*
X34524844Y70635273D01*
X34634712Y70701126D01*
X34750506Y70755892D01*
X34871107Y70799044D01*
X34995352Y70830165D01*
X35122063Y70848961D01*
X35250000Y70855247D01*
X35377937Y70848961D01*
X35504648Y70830165D01*
X35628893Y70799044D01*
X35749494Y70755892D01*
X35865288Y70701126D01*
X35975156Y70635273D01*
X36078039Y70558969D01*
X36172949Y70472949D01*
X36258969Y70378039D01*
X36335273Y70275156D01*
X36401126Y70165288D01*
X36455892Y70049494D01*
X36499044Y69928893D01*
X36530165Y69804648D01*
X36548961Y69677937D01*
X36555247Y69550000D01*
X36548961Y69422063D01*
X36530165Y69295352D01*
X36499044Y69171107D01*
X36455892Y69050506D01*
X36401126Y68934712D01*
X36335273Y68824844D01*
X36258969Y68721961D01*
X36172949Y68627051D01*
X36078039Y68541031D01*
X35975156Y68464727D01*
X35865288Y68398874D01*
X35749494Y68344108D01*
X35628893Y68300956D01*
X35504648Y68269835D01*
X35377937Y68251039D01*
X35250000Y68244753D01*
D02*
G37*
%LPC*%
G36*
X51550000Y68244753D02*
X51422063Y68251039D01*
X51295352Y68269835D01*
X51171107Y68300956D01*
X51050506Y68344108D01*
X50934712Y68398874D01*
X50824844Y68464727D01*
X50721961Y68541031D01*
X50627051Y68627051D01*
X50541031Y68721961D01*
X50464727Y68824844D01*
X50398874Y68934712D01*
X50344108Y69050506D01*
X50300956Y69171107D01*
X50269835Y69295352D01*
X50251039Y69422063D01*
X50244753Y69550000D01*
X50251039Y69677937D01*
X50269835Y69804648D01*
X50300956Y69928893D01*
X50344108Y70049494D01*
X50398874Y70165288D01*
X50464727Y70275156D01*
X50541031Y70378039D01*
X50627051Y70472949D01*
X50721961Y70558969D01*
X50824844Y70635273D01*
X50934712Y70701126D01*
X51050506Y70755892D01*
X51171107Y70799044D01*
X51295352Y70830165D01*
X51422063Y70848961D01*
X51550000Y70855247D01*
X51677937Y70848961D01*
X51804648Y70830165D01*
X51928893Y70799044D01*
X52049494Y70755892D01*
X52165288Y70701126D01*
X52275156Y70635273D01*
X52378039Y70558969D01*
X52472949Y70472949D01*
X52558969Y70378039D01*
X52635273Y70275156D01*
X52701126Y70165288D01*
X52755892Y70049494D01*
X52799044Y69928893D01*
X52830165Y69804648D01*
X52848961Y69677937D01*
X52855247Y69550000D01*
X52848961Y69422063D01*
X52830165Y69295352D01*
X52799044Y69171107D01*
X52755892Y69050506D01*
X52701126Y68934712D01*
X52635273Y68824844D01*
X52558969Y68721961D01*
X52472949Y68627051D01*
X52378039Y68541031D01*
X52275156Y68464727D01*
X52165288Y68398874D01*
X52049494Y68344108D01*
X51928893Y68300956D01*
X51804648Y68269835D01*
X51677937Y68251039D01*
X51550000Y68244753D01*
D02*
G37*
%LPC*%
G36*
X7450000Y62044753D02*
X7322063Y62051039D01*
X7195352Y62069835D01*
X7071107Y62100956D01*
X6950506Y62144108D01*
X6834712Y62198874D01*
X6724844Y62264727D01*
X6621961Y62341031D01*
X6527051Y62427051D01*
X6441031Y62521961D01*
X6364727Y62624844D01*
X6298874Y62734712D01*
X6244108Y62850506D01*
X6200956Y62971107D01*
X6169835Y63095352D01*
X6151039Y63222063D01*
X6144753Y63350000D01*
X6151039Y63477937D01*
X6169835Y63604648D01*
X6200956Y63728893D01*
X6244108Y63849494D01*
X6298874Y63965288D01*
X6364727Y64075156D01*
X6441031Y64178039D01*
X6527051Y64272949D01*
X6621961Y64358969D01*
X6724844Y64435273D01*
X6834712Y64501126D01*
X6950506Y64555892D01*
X7071107Y64599044D01*
X7195352Y64630165D01*
X7322063Y64648961D01*
X7450000Y64655247D01*
X7577937Y64648961D01*
X7704648Y64630165D01*
X7828893Y64599044D01*
X7949494Y64555892D01*
X8065288Y64501126D01*
X8175156Y64435273D01*
X8278039Y64358969D01*
X8372949Y64272949D01*
X8458969Y64178039D01*
X8535273Y64075156D01*
X8601126Y63965288D01*
X8655892Y63849494D01*
X8699044Y63728893D01*
X8730165Y63604648D01*
X8748961Y63477937D01*
X8755247Y63350000D01*
X8748961Y63222063D01*
X8730165Y63095352D01*
X8699044Y62971107D01*
X8655892Y62850506D01*
X8601126Y62734712D01*
X8535273Y62624844D01*
X8458969Y62521961D01*
X8372949Y62427051D01*
X8278039Y62341031D01*
X8175156Y62264727D01*
X8065288Y62198874D01*
X7949494Y62144108D01*
X7828893Y62100956D01*
X7704648Y62069835D01*
X7577937Y62051039D01*
X7450000Y62044753D01*
D02*
G37*
%LPC*%
G36*
X23750000Y62044753D02*
X23622063Y62051039D01*
X23495352Y62069835D01*
X23371107Y62100956D01*
X23250506Y62144108D01*
X23134712Y62198874D01*
X23024844Y62264727D01*
X22921961Y62341031D01*
X22827051Y62427051D01*
X22741031Y62521961D01*
X22664727Y62624844D01*
X22598874Y62734712D01*
X22544108Y62850506D01*
X22500956Y62971107D01*
X22469835Y63095352D01*
X22451039Y63222063D01*
X22444753Y63350000D01*
X22451039Y63477937D01*
X22469835Y63604648D01*
X22500956Y63728893D01*
X22544108Y63849494D01*
X22598874Y63965288D01*
X22664727Y64075156D01*
X22741031Y64178039D01*
X22827051Y64272949D01*
X22921961Y64358969D01*
X23024844Y64435273D01*
X23134712Y64501126D01*
X23250506Y64555892D01*
X23371107Y64599044D01*
X23495352Y64630165D01*
X23622063Y64648961D01*
X23750000Y64655247D01*
X23877937Y64648961D01*
X24004648Y64630165D01*
X24128893Y64599044D01*
X24249494Y64555892D01*
X24365288Y64501126D01*
X24475156Y64435273D01*
X24578039Y64358969D01*
X24672949Y64272949D01*
X24758969Y64178039D01*
X24835273Y64075156D01*
X24901126Y63965288D01*
X24955892Y63849494D01*
X24999044Y63728893D01*
X25030165Y63604648D01*
X25048961Y63477937D01*
X25055247Y63350000D01*
X25048961Y63222063D01*
X25030165Y63095352D01*
X24999044Y62971107D01*
X24955892Y62850506D01*
X24901126Y62734712D01*
X24835273Y62624844D01*
X24758969Y62521961D01*
X24672949Y62427051D01*
X24578039Y62341031D01*
X24475156Y62264727D01*
X24365288Y62198874D01*
X24249494Y62144108D01*
X24128893Y62100956D01*
X24004648Y62069835D01*
X23877937Y62051039D01*
X23750000Y62044753D01*
D02*
G37*
%LPC*%
G36*
X35250000Y62044753D02*
X35122063Y62051039D01*
X34995352Y62069835D01*
X34871107Y62100956D01*
X34750506Y62144108D01*
X34634712Y62198874D01*
X34524844Y62264727D01*
X34421961Y62341031D01*
X34327051Y62427051D01*
X34241031Y62521961D01*
X34164727Y62624844D01*
X34098874Y62734712D01*
X34044108Y62850506D01*
X34000956Y62971107D01*
X33969835Y63095352D01*
X33951039Y63222063D01*
X33944753Y63350000D01*
X33951039Y63477937D01*
X33969835Y63604648D01*
X34000956Y63728893D01*
X34044108Y63849494D01*
X34098874Y63965288D01*
X34164727Y64075156D01*
X34241031Y64178039D01*
X34327051Y64272949D01*
X34421961Y64358969D01*
X34524844Y64435273D01*
X34634712Y64501126D01*
X34750506Y64555892D01*
X34871107Y64599044D01*
X34995352Y64630165D01*
X35122063Y64648961D01*
X35250000Y64655247D01*
X35377937Y64648961D01*
X35504648Y64630165D01*
X35628893Y64599044D01*
X35749494Y64555892D01*
X35865288Y64501126D01*
X35975156Y64435273D01*
X36078039Y64358969D01*
X36172949Y64272949D01*
X36258969Y64178039D01*
X36335273Y64075156D01*
X36401126Y63965288D01*
X36455892Y63849494D01*
X36499044Y63728893D01*
X36530165Y63604648D01*
X36548961Y63477937D01*
X36555247Y63350000D01*
X36548961Y63222063D01*
X36530165Y63095352D01*
X36499044Y62971107D01*
X36455892Y62850506D01*
X36401126Y62734712D01*
X36335273Y62624844D01*
X36258969Y62521961D01*
X36172949Y62427051D01*
X36078039Y62341031D01*
X35975156Y62264727D01*
X35865288Y62198874D01*
X35749494Y62144108D01*
X35628893Y62100956D01*
X35504648Y62069835D01*
X35377937Y62051039D01*
X35250000Y62044753D01*
D02*
G37*
%LPC*%
G36*
X51550000Y62044753D02*
X51422063Y62051039D01*
X51295352Y62069835D01*
X51171107Y62100956D01*
X51050506Y62144108D01*
X50934712Y62198874D01*
X50824844Y62264727D01*
X50721961Y62341031D01*
X50627051Y62427051D01*
X50541031Y62521961D01*
X50464727Y62624844D01*
X50398874Y62734712D01*
X50344108Y62850506D01*
X50300956Y62971107D01*
X50269835Y63095352D01*
X50251039Y63222063D01*
X50244753Y63350000D01*
X50251039Y63477937D01*
X50269835Y63604648D01*
X50300956Y63728893D01*
X50344108Y63849494D01*
X50398874Y63965288D01*
X50464727Y64075156D01*
X50541031Y64178039D01*
X50627051Y64272949D01*
X50721961Y64358969D01*
X50824844Y64435273D01*
X50934712Y64501126D01*
X51050506Y64555892D01*
X51171107Y64599044D01*
X51295352Y64630165D01*
X51422063Y64648961D01*
X51550000Y64655247D01*
X51677937Y64648961D01*
X51804648Y64630165D01*
X51928893Y64599044D01*
X52049494Y64555892D01*
X52165288Y64501126D01*
X52275156Y64435273D01*
X52378039Y64358969D01*
X52472949Y64272949D01*
X52558969Y64178039D01*
X52635273Y64075156D01*
X52701126Y63965288D01*
X52755892Y63849494D01*
X52799044Y63728893D01*
X52830165Y63604648D01*
X52848961Y63477937D01*
X52855247Y63350000D01*
X52848961Y63222063D01*
X52830165Y63095352D01*
X52799044Y62971107D01*
X52755892Y62850506D01*
X52701126Y62734712D01*
X52635273Y62624844D01*
X52558969Y62521961D01*
X52472949Y62427051D01*
X52378039Y62341031D01*
X52275156Y62264727D01*
X52165288Y62198874D01*
X52049494Y62144108D01*
X51928893Y62100956D01*
X51804648Y62069835D01*
X51677937Y62051039D01*
X51550000Y62044753D01*
D02*
G37*
%LPC*%
G36*
X39890000Y40864752D02*
X39811077Y40868631D01*
X39732906Y40880225D01*
X39656244Y40899429D01*
X39581851Y40926047D01*
X39510406Y40959838D01*
X39442630Y41000461D01*
X39379157Y41047536D01*
X39320604Y41100604D01*
X39267536Y41159157D01*
X39220461Y41222630D01*
X39179838Y41290406D01*
X39146047Y41361851D01*
X39119429Y41436244D01*
X39100225Y41512906D01*
X39088631Y41591077D01*
X39084752Y41670000D01*
X39088631Y41748923D01*
X39100225Y41827094D01*
X39119429Y41903756D01*
X39146047Y41978149D01*
X39179838Y42049594D01*
X39220461Y42117370D01*
X39285000Y42204392D01*
X39285000Y43745000D01*
X38210000Y43745000D01*
X38210000Y44145000D01*
X37295000Y44145000D01*
X37295000Y43995000D01*
X35185000Y43995000D01*
X35185000Y44145000D01*
X32720000Y44145000D01*
X32720000Y44045000D01*
X31410000Y44045000D01*
X31410000Y45455000D01*
X32720000Y45455000D01*
X32720000Y45355000D01*
X35185000Y45355000D01*
X35185000Y45505000D01*
X37295000Y45505000D01*
X37295000Y45355000D01*
X38210000Y45355000D01*
X38210000Y45755000D01*
X39285000Y45755000D01*
X39285000Y48759401D01*
X38584401Y49460000D01*
X37410000Y49460000D01*
X37410000Y51214401D01*
X34979437Y53644964D01*
X34971596Y53651380D01*
X34896137Y53743327D01*
X34840137Y53848095D01*
X34805652Y53961775D01*
X34795000Y54069935D01*
X34795000Y58949401D01*
X31849401Y61895000D01*
X31613509Y61895000D01*
X31565714Y61830556D01*
X31496172Y61753828D01*
X31419444Y61684286D01*
X31336258Y61622591D01*
X31247446Y61569358D01*
X31153820Y61525078D01*
X31056320Y61490191D01*
X30955873Y61465031D01*
X30853433Y61449835D01*
X30750000Y61444753D01*
X30646567Y61449835D01*
X30544127Y61465031D01*
X30443680Y61490191D01*
X30346180Y61525078D01*
X30252554Y61569358D01*
X30163742Y61622591D01*
X30080556Y61684286D01*
X30003828Y61753828D01*
X29934286Y61830556D01*
X29872591Y61913742D01*
X29819358Y62002554D01*
X29775078Y62096180D01*
X29740191Y62193680D01*
X29715031Y62294127D01*
X29699835Y62396567D01*
X29694753Y62500000D01*
X29699835Y62603433D01*
X29715031Y62705873D01*
X29740191Y62806320D01*
X29775078Y62903820D01*
X29819358Y62997446D01*
X29872591Y63086258D01*
X29934286Y63169444D01*
X30003828Y63246172D01*
X30080556Y63315714D01*
X30163742Y63377409D01*
X30252554Y63430642D01*
X30346180Y63474922D01*
X30443680Y63509809D01*
X30544127Y63534969D01*
X30646567Y63550165D01*
X30750000Y63555247D01*
X30853433Y63550165D01*
X30955873Y63534969D01*
X31056320Y63509809D01*
X31153820Y63474922D01*
X31247446Y63430642D01*
X31336258Y63377409D01*
X31419444Y63315714D01*
X31496172Y63246172D01*
X31565714Y63169444D01*
X31613509Y63105000D01*
X32110076Y63105000D01*
X32218220Y63094349D01*
X32331905Y63059861D01*
X32436669Y63003864D01*
X32520677Y62934920D01*
X35834920Y59620677D01*
X35903864Y59536669D01*
X35959861Y59431905D01*
X35994349Y59318220D01*
X36005000Y59210076D01*
X36005000Y54330599D01*
X37815598Y52520000D01*
X39570000Y52520000D01*
X39570000Y50185599D01*
X40324920Y49430677D01*
X40393864Y49346669D01*
X40449861Y49241905D01*
X40484349Y49128220D01*
X40495000Y49020076D01*
X40495000Y45755000D01*
X41570000Y45755000D01*
X41570000Y43745000D01*
X40495000Y43745000D01*
X40495000Y42204392D01*
X40559539Y42117370D01*
X40600162Y42049594D01*
X40633953Y41978149D01*
X40660571Y41903756D01*
X40679775Y41827094D01*
X40691369Y41748923D01*
X40695248Y41670000D01*
X40691369Y41591077D01*
X40679775Y41512906D01*
X40660571Y41436244D01*
X40633953Y41361851D01*
X40600162Y41290406D01*
X40559539Y41222630D01*
X40512464Y41159157D01*
X40459396Y41100604D01*
X40400843Y41047536D01*
X40337370Y41000461D01*
X40269594Y40959838D01*
X40198149Y40926047D01*
X40123756Y40899429D01*
X40047094Y40880225D01*
X39968923Y40868631D01*
X39890000Y40864752D01*
D02*
G37*
%LPC*%
G36*
X28145000Y62605000D02*
X27205122Y62605000D01*
X27219941Y62704897D01*
X27244983Y62804871D01*
X27279705Y62901911D01*
X27323764Y62995070D01*
X27376763Y63083491D01*
X27438150Y63166262D01*
X27507368Y63242632D01*
X27583738Y63311850D01*
X27666509Y63373237D01*
X27754930Y63426236D01*
X27848089Y63470295D01*
X27945129Y63505017D01*
X28045103Y63530059D01*
X28145000Y63544878D01*
X28145000Y62605000D01*
D02*
G37*
%LPC*%
G36*
X29294878Y62605000D02*
X28355000Y62605000D01*
X28355000Y63544878D01*
X28454897Y63530059D01*
X28554871Y63505017D01*
X28651911Y63470295D01*
X28745070Y63426236D01*
X28833491Y63373237D01*
X28916262Y63311850D01*
X28992632Y63242632D01*
X29061850Y63166262D01*
X29123237Y63083491D01*
X29176236Y62995070D01*
X29220295Y62901911D01*
X29255017Y62804871D01*
X29280059Y62704897D01*
X29294878Y62605000D01*
D02*
G37*
%LPC*%
G36*
X28355000Y61455122D02*
X28355000Y62395000D01*
X29294878Y62395000D01*
X29280059Y62295103D01*
X29255017Y62195129D01*
X29220295Y62098089D01*
X29176236Y62004930D01*
X29123237Y61916509D01*
X29061850Y61833738D01*
X28992632Y61757368D01*
X28916262Y61688150D01*
X28833491Y61626763D01*
X28745070Y61573764D01*
X28651911Y61529705D01*
X28554871Y61494983D01*
X28454897Y61469941D01*
X28355000Y61455122D01*
D02*
G37*
%LPC*%
G36*
X28145000Y61455122D02*
X28045103Y61469941D01*
X27945129Y61494983D01*
X27848089Y61529705D01*
X27754930Y61573764D01*
X27666509Y61626763D01*
X27583738Y61688150D01*
X27507368Y61757368D01*
X27438150Y61833738D01*
X27376763Y61916509D01*
X27323764Y62004930D01*
X27279705Y62098089D01*
X27244983Y62195129D01*
X27219941Y62295103D01*
X27205122Y62395000D01*
X28145000Y62395000D01*
X28145000Y61455122D01*
D02*
G37*
%LPC*%
G36*
X29225710Y54214290D02*
X27324290Y54214290D01*
X27324290Y55325710D01*
X29225710Y55325710D01*
X29225710Y55305000D01*
X30145000Y55305000D01*
X30145000Y56805000D01*
X30602953Y56805000D01*
X31345000Y57547047D01*
X31345000Y58673285D01*
X31307382Y58707380D01*
X31270784Y58747760D01*
X31238329Y58791520D01*
X31210317Y58838256D01*
X31187020Y58887514D01*
X31168660Y58938825D01*
X31155423Y58991672D01*
X31147426Y59045583D01*
X31144752Y59100000D01*
X31147426Y59154417D01*
X31155423Y59208328D01*
X31168660Y59261175D01*
X31187020Y59312486D01*
X31210317Y59361744D01*
X31238329Y59408480D01*
X31270784Y59452240D01*
X31307381Y59492619D01*
X31347760Y59529216D01*
X31391520Y59561671D01*
X31438256Y59589683D01*
X31487514Y59612980D01*
X31538825Y59631340D01*
X31591672Y59644577D01*
X31645583Y59652574D01*
X31700000Y59655248D01*
X31754417Y59652574D01*
X31808328Y59644577D01*
X31861175Y59631340D01*
X31912486Y59612980D01*
X31961744Y59589683D01*
X32008480Y59561671D01*
X32052240Y59529216D01*
X32092619Y59492619D01*
X32129216Y59452240D01*
X32161671Y59408480D01*
X32189683Y59361744D01*
X32212980Y59312486D01*
X32231340Y59261175D01*
X32244577Y59208328D01*
X32252574Y59154417D01*
X32255248Y59100000D01*
X32252574Y59045583D01*
X32244577Y58991672D01*
X32231340Y58938825D01*
X32212980Y58887514D01*
X32189683Y58838256D01*
X32161671Y58791520D01*
X32129216Y58747760D01*
X32092618Y58707380D01*
X32055000Y58673285D01*
X32055000Y57389923D01*
X32049151Y57330548D01*
X32028893Y57263770D01*
X31995996Y57202222D01*
X31952220Y57148877D01*
X31944448Y57142401D01*
X31155000Y56352953D01*
X31155000Y54595000D01*
X29225710Y54595000D01*
X29225710Y54214290D01*
D02*
G37*
%LPC*%
G36*
X29225710Y56754290D02*
X27324290Y56754290D01*
X27324290Y57865710D01*
X29063663Y57865710D01*
X29342401Y58144448D01*
X29348877Y58152220D01*
X29402222Y58195996D01*
X29463770Y58228893D01*
X29530548Y58249151D01*
X29589923Y58255000D01*
X29973285Y58255000D01*
X30007380Y58292618D01*
X30047760Y58329216D01*
X30091520Y58361671D01*
X30138256Y58389683D01*
X30187514Y58412980D01*
X30238825Y58431340D01*
X30291672Y58444577D01*
X30345583Y58452574D01*
X30400000Y58455248D01*
X30454417Y58452574D01*
X30508328Y58444577D01*
X30561175Y58431340D01*
X30612486Y58412980D01*
X30661744Y58389683D01*
X30708480Y58361671D01*
X30752240Y58329216D01*
X30792619Y58292619D01*
X30829216Y58252240D01*
X30861671Y58208480D01*
X30889683Y58161744D01*
X30912980Y58112486D01*
X30931340Y58061175D01*
X30944577Y58008328D01*
X30952574Y57954417D01*
X30955248Y57900000D01*
X30952574Y57845583D01*
X30944577Y57791672D01*
X30931340Y57738825D01*
X30912980Y57687514D01*
X30889683Y57638256D01*
X30861671Y57591520D01*
X30829216Y57547760D01*
X30792619Y57507381D01*
X30752240Y57470784D01*
X30708480Y57438329D01*
X30661744Y57410317D01*
X30612486Y57387020D01*
X30561175Y57368660D01*
X30508328Y57355423D01*
X30454417Y57347426D01*
X30400000Y57344752D01*
X30345583Y57347426D01*
X30291672Y57355423D01*
X30238825Y57368660D01*
X30187514Y57387020D01*
X30138256Y57410317D01*
X30091520Y57438329D01*
X30047760Y57470784D01*
X30007380Y57507382D01*
X29973285Y57545000D01*
X29747047Y57545000D01*
X29267598Y57065551D01*
X29261123Y57057780D01*
X29225710Y57028720D01*
X29225710Y56754290D01*
D02*
G37*
%LPC*%
G36*
X48000000Y50044752D02*
X47876973Y50050798D01*
X47755108Y50068874D01*
X47635622Y50098803D01*
X47519640Y50140302D01*
X47408282Y50192970D01*
X47302623Y50256300D01*
X47203681Y50329681D01*
X47112406Y50412406D01*
X47029681Y50503681D01*
X46956300Y50602623D01*
X46892970Y50708282D01*
X46840302Y50819640D01*
X46798803Y50935622D01*
X46768874Y51055108D01*
X46750798Y51176973D01*
X46744752Y51300000D01*
X46750798Y51423027D01*
X46768874Y51544892D01*
X46798803Y51664378D01*
X46840302Y51780360D01*
X46892970Y51891718D01*
X46956299Y51997376D01*
X47017737Y52080217D01*
X41750711Y57347243D01*
X41699993Y57344753D01*
X41645583Y57347426D01*
X41591672Y57355423D01*
X41538825Y57368660D01*
X41487514Y57387020D01*
X41438256Y57410317D01*
X41391520Y57438329D01*
X41347760Y57470784D01*
X41307381Y57507381D01*
X41270784Y57547760D01*
X41238329Y57591520D01*
X41210317Y57638256D01*
X41187020Y57687514D01*
X41168660Y57738825D01*
X41155423Y57791672D01*
X41147426Y57845583D01*
X41144752Y57900000D01*
X41147426Y57954417D01*
X41155423Y58008328D01*
X41168660Y58061175D01*
X41187020Y58112486D01*
X41210317Y58161744D01*
X41238329Y58208480D01*
X41270784Y58252240D01*
X41307381Y58292619D01*
X41347760Y58329216D01*
X41391520Y58361671D01*
X41438256Y58389683D01*
X41487514Y58412980D01*
X41538825Y58431340D01*
X41591672Y58444577D01*
X41645583Y58452574D01*
X41700000Y58455248D01*
X41754417Y58452574D01*
X41808328Y58444577D01*
X41861175Y58431340D01*
X41912486Y58412980D01*
X41961744Y58389683D01*
X42008480Y58361671D01*
X42052240Y58329216D01*
X42092619Y58292619D01*
X42129216Y58252240D01*
X42161671Y58208480D01*
X42189683Y58161744D01*
X42212980Y58112486D01*
X42231340Y58061175D01*
X42244577Y58008328D01*
X42252574Y57954417D01*
X42255248Y57900005D01*
X42252758Y57849288D01*
X47607814Y52494232D01*
X47755108Y52531126D01*
X47876973Y52549202D01*
X48000000Y52555248D01*
X48123027Y52549202D01*
X48244892Y52531126D01*
X48364378Y52501197D01*
X48480360Y52459698D01*
X48591718Y52407030D01*
X48697377Y52343700D01*
X48796319Y52270319D01*
X48887594Y52187594D01*
X48970319Y52096319D01*
X49043700Y51997377D01*
X49107030Y51891718D01*
X49159698Y51780360D01*
X49201197Y51664378D01*
X49231126Y51544892D01*
X49249202Y51423027D01*
X49255248Y51300000D01*
X49249202Y51176973D01*
X49231126Y51055108D01*
X49201197Y50935622D01*
X49159698Y50819640D01*
X49107030Y50708282D01*
X49043700Y50602623D01*
X48970319Y50503681D01*
X48887594Y50412406D01*
X48796319Y50329681D01*
X48697377Y50256300D01*
X48591718Y50192970D01*
X48480360Y50140302D01*
X48364378Y50098803D01*
X48244892Y50068874D01*
X48123027Y50050798D01*
X48000000Y50044752D01*
D02*
G37*
%LPC*%
G36*
X5075000Y45085000D02*
X3265000Y45085000D01*
X3265000Y45485000D01*
X2695000Y45485000D01*
X2695000Y45385000D01*
X1385000Y45385000D01*
X1385000Y46295000D01*
X2695000Y46295000D01*
X2695000Y46195000D01*
X3265000Y46195000D01*
X3265000Y46595000D01*
X3815000Y46595000D01*
X3815000Y52680066D01*
X3820849Y52739451D01*
X3841106Y52806229D01*
X3874003Y52867777D01*
X3917779Y52921122D01*
X3925551Y52927598D01*
X8552401Y57554448D01*
X8558877Y57562220D01*
X8612222Y57605996D01*
X8673770Y57638893D01*
X8740548Y57659151D01*
X8799923Y57665000D01*
X20174290Y57665000D01*
X20174290Y57865710D01*
X22075710Y57865710D01*
X22075710Y56754290D01*
X20174290Y56754290D01*
X20174290Y56955000D01*
X8957047Y56955000D01*
X4525000Y52522953D01*
X4525000Y46595000D01*
X5075000Y46595000D01*
X5075000Y45085000D01*
D02*
G37*
%LPC*%
G36*
X39565000Y55395000D02*
X38595000Y55395000D01*
X38595000Y56815000D01*
X39565000Y56815000D01*
X39565000Y55395000D01*
D02*
G37*
%LPC*%
G36*
X38385000Y55395000D02*
X37415000Y55395000D01*
X37415000Y56815000D01*
X38385000Y56815000D01*
X38385000Y55395000D01*
D02*
G37*
%LPC*%
G36*
X33650000Y55805000D02*
X33255000Y55805000D01*
X33255000Y56800000D01*
X33650000Y56800000D01*
X33650000Y55805000D01*
D02*
G37*
%LPC*%
G36*
X33045000Y55805000D02*
X32650000Y55805000D01*
X32650000Y56800000D01*
X33045000Y56800000D01*
X33045000Y55805000D01*
D02*
G37*
%LPC*%
G36*
X33650000Y54600000D02*
X33255000Y54600000D01*
X33255000Y55595000D01*
X33650000Y55595000D01*
X33650000Y54600000D01*
D02*
G37*
%LPC*%
G36*
X33045000Y54600000D02*
X32650000Y54600000D01*
X32650000Y55595000D01*
X33045000Y55595000D01*
X33045000Y54600000D01*
D02*
G37*
%LPC*%
G36*
X22075710Y54214290D02*
X20174290Y54214290D01*
X20174290Y54415000D01*
X16456715Y54415000D01*
X16422620Y54377382D01*
X16382240Y54340784D01*
X16338480Y54308329D01*
X16291744Y54280317D01*
X16242486Y54257020D01*
X16191175Y54238660D01*
X16138328Y54225423D01*
X16084417Y54217426D01*
X16030000Y54214752D01*
X15975583Y54217426D01*
X15921672Y54225423D01*
X15868825Y54238660D01*
X15817514Y54257020D01*
X15768256Y54280317D01*
X15721520Y54308329D01*
X15677760Y54340784D01*
X15637381Y54377381D01*
X15600784Y54417760D01*
X15568329Y54461520D01*
X15540317Y54508256D01*
X15517020Y54557514D01*
X15498660Y54608825D01*
X15485423Y54661672D01*
X15477426Y54715583D01*
X15474752Y54770000D01*
X15477426Y54824417D01*
X15485423Y54878328D01*
X15498660Y54931175D01*
X15517020Y54982486D01*
X15540317Y55031744D01*
X15568329Y55078480D01*
X15600784Y55122240D01*
X15637381Y55162619D01*
X15677760Y55199216D01*
X15721520Y55231671D01*
X15768256Y55259683D01*
X15817514Y55282980D01*
X15868825Y55301340D01*
X15921672Y55314577D01*
X15975583Y55322574D01*
X16030000Y55325248D01*
X16084417Y55322574D01*
X16138328Y55314577D01*
X16191175Y55301340D01*
X16242486Y55282980D01*
X16291744Y55259683D01*
X16338480Y55231671D01*
X16382240Y55199216D01*
X16422620Y55162618D01*
X16456715Y55125000D01*
X20174290Y55125000D01*
X20174290Y55325710D01*
X22075710Y55325710D01*
X22075710Y54214290D01*
D02*
G37*
%LPC*%
G36*
X39565000Y53765000D02*
X38595000Y53765000D01*
X38595000Y55185000D01*
X39565000Y55185000D01*
X39565000Y53765000D01*
D02*
G37*
%LPC*%
G36*
X38385000Y53765000D02*
X37415000Y53765000D01*
X37415000Y55185000D01*
X38385000Y55185000D01*
X38385000Y53765000D01*
D02*
G37*
%LPC*%
G36*
X29225710Y51674290D02*
X27324290Y51674290D01*
X27324290Y51875000D01*
X22075710Y51875000D01*
X22075710Y51674290D01*
X20174290Y51674290D01*
X20174290Y52785710D01*
X22075710Y52785710D01*
X22075710Y52585000D01*
X27324290Y52585000D01*
X27324290Y52785710D01*
X29225710Y52785710D01*
X29225710Y51674290D01*
D02*
G37*
%LPC*%
G36*
X11000000Y50044752D02*
X10876973Y50050798D01*
X10755108Y50068874D01*
X10635622Y50098803D01*
X10519640Y50140302D01*
X10408282Y50192970D01*
X10302623Y50256300D01*
X10203681Y50329681D01*
X10112406Y50412406D01*
X10029681Y50503681D01*
X9956300Y50602623D01*
X9892970Y50708282D01*
X9840302Y50819640D01*
X9795448Y50945000D01*
X7204552Y50945000D01*
X7159698Y50819640D01*
X7107030Y50708282D01*
X7043700Y50602623D01*
X6970319Y50503681D01*
X6887594Y50412406D01*
X6796319Y50329681D01*
X6697377Y50256300D01*
X6591718Y50192970D01*
X6480360Y50140302D01*
X6364378Y50098803D01*
X6244892Y50068874D01*
X6123027Y50050798D01*
X6000000Y50044752D01*
X5876973Y50050798D01*
X5755108Y50068874D01*
X5635622Y50098803D01*
X5519640Y50140302D01*
X5408282Y50192970D01*
X5302623Y50256300D01*
X5203681Y50329681D01*
X5112406Y50412406D01*
X5029681Y50503681D01*
X4956300Y50602623D01*
X4892970Y50708282D01*
X4840302Y50819640D01*
X4798803Y50935622D01*
X4768874Y51055108D01*
X4750798Y51176973D01*
X4744752Y51300000D01*
X4750798Y51423027D01*
X4768874Y51544892D01*
X4798803Y51664378D01*
X4840302Y51780360D01*
X4892970Y51891718D01*
X4956300Y51997377D01*
X5029681Y52096319D01*
X5112406Y52187594D01*
X5203681Y52270319D01*
X5302623Y52343700D01*
X5408282Y52407030D01*
X5519640Y52459698D01*
X5635622Y52501197D01*
X5755108Y52531126D01*
X5876973Y52549202D01*
X6000000Y52555248D01*
X6123027Y52549202D01*
X6244892Y52531126D01*
X6364378Y52501197D01*
X6480360Y52459698D01*
X6591718Y52407030D01*
X6697377Y52343700D01*
X6796319Y52270319D01*
X6887594Y52187594D01*
X6970319Y52096319D01*
X7043700Y51997377D01*
X7107030Y51891718D01*
X7159698Y51780360D01*
X7204552Y51655000D01*
X9795448Y51655000D01*
X9840302Y51780360D01*
X9892970Y51891718D01*
X9956300Y51997377D01*
X10029681Y52096319D01*
X10112406Y52187594D01*
X10203681Y52270319D01*
X10302623Y52343700D01*
X10408282Y52407030D01*
X10519640Y52459698D01*
X10635622Y52501197D01*
X10755108Y52531126D01*
X10876973Y52549202D01*
X11000000Y52555248D01*
X11123027Y52549202D01*
X11244892Y52531126D01*
X11364378Y52501197D01*
X11480360Y52459698D01*
X11591718Y52407030D01*
X11697377Y52343700D01*
X11796319Y52270319D01*
X11887594Y52187594D01*
X11970319Y52096319D01*
X12043700Y51997377D01*
X12107030Y51891718D01*
X12159698Y51780360D01*
X12201197Y51664378D01*
X12231126Y51544892D01*
X12249202Y51423027D01*
X12255248Y51300000D01*
X12249202Y51176973D01*
X12231126Y51055108D01*
X12201197Y50935622D01*
X12159698Y50819640D01*
X12107030Y50708282D01*
X12043700Y50602623D01*
X11970319Y50503681D01*
X11887594Y50412406D01*
X11796319Y50329681D01*
X11697377Y50256300D01*
X11591718Y50192970D01*
X11480360Y50140302D01*
X11364378Y50098803D01*
X11244892Y50068874D01*
X11123027Y50050798D01*
X11000000Y50044752D01*
D02*
G37*
%LPC*%
G36*
X16000000Y50044752D02*
X15876973Y50050798D01*
X15755108Y50068874D01*
X15635622Y50098803D01*
X15519640Y50140302D01*
X15408282Y50192970D01*
X15302623Y50256300D01*
X15203681Y50329681D01*
X15112406Y50412406D01*
X15029681Y50503681D01*
X14956300Y50602623D01*
X14892970Y50708282D01*
X14840302Y50819640D01*
X14798803Y50935622D01*
X14768874Y51055108D01*
X14750798Y51176973D01*
X14744752Y51300000D01*
X14750798Y51423027D01*
X14768874Y51544892D01*
X14798803Y51664378D01*
X14840302Y51780360D01*
X14892970Y51891718D01*
X14956300Y51997377D01*
X15029681Y52096319D01*
X15112406Y52187594D01*
X15203681Y52270319D01*
X15302623Y52343700D01*
X15408282Y52407030D01*
X15519640Y52459698D01*
X15635622Y52501197D01*
X15755108Y52531126D01*
X15876973Y52549202D01*
X16000000Y52555248D01*
X16123027Y52549202D01*
X16244892Y52531126D01*
X16364378Y52501197D01*
X16480360Y52459698D01*
X16591718Y52407030D01*
X16697377Y52343700D01*
X16796319Y52270319D01*
X16887594Y52187594D01*
X16970319Y52096319D01*
X17043700Y51997377D01*
X17107030Y51891718D01*
X17159698Y51780360D01*
X17201197Y51664378D01*
X17231126Y51544892D01*
X17249202Y51423027D01*
X17255248Y51300000D01*
X17249202Y51176973D01*
X17231126Y51055108D01*
X17201197Y50935622D01*
X17159698Y50819640D01*
X17107030Y50708282D01*
X17043700Y50602623D01*
X16970319Y50503681D01*
X16887594Y50412406D01*
X16796319Y50329681D01*
X16697377Y50256300D01*
X16591718Y50192970D01*
X16480360Y50140302D01*
X16364378Y50098803D01*
X16244892Y50068874D01*
X16123027Y50050798D01*
X16000000Y50044752D01*
D02*
G37*
%LPC*%
G36*
X51745000Y37215000D02*
X49735000Y37215000D01*
X49735000Y40125000D01*
X50385000Y40125000D01*
X50385000Y43412953D01*
X43600724Y50197229D01*
X43480360Y50140302D01*
X43364378Y50098803D01*
X43244892Y50068874D01*
X43123027Y50050798D01*
X43000000Y50044752D01*
X42876973Y50050798D01*
X42755108Y50068874D01*
X42635622Y50098803D01*
X42519640Y50140302D01*
X42408282Y50192970D01*
X42302623Y50256300D01*
X42203681Y50329681D01*
X42112406Y50412406D01*
X42029681Y50503681D01*
X41956300Y50602623D01*
X41892970Y50708282D01*
X41840302Y50819640D01*
X41798803Y50935622D01*
X41768874Y51055108D01*
X41750798Y51176973D01*
X41744752Y51300000D01*
X41750798Y51423027D01*
X41768874Y51544892D01*
X41798803Y51664378D01*
X41840302Y51780360D01*
X41892970Y51891718D01*
X41956300Y51997377D01*
X42029681Y52096319D01*
X42112406Y52187594D01*
X42203681Y52270319D01*
X42302623Y52343700D01*
X42408282Y52407030D01*
X42519640Y52459698D01*
X42635622Y52501197D01*
X42755108Y52531126D01*
X42876973Y52549202D01*
X43000000Y52555248D01*
X43123027Y52549202D01*
X43244892Y52531126D01*
X43364378Y52501197D01*
X43480360Y52459698D01*
X43591718Y52407030D01*
X43697377Y52343700D01*
X43796319Y52270319D01*
X43887594Y52187594D01*
X43970319Y52096319D01*
X44043700Y51997377D01*
X44107030Y51891718D01*
X44159698Y51780360D01*
X44201197Y51664378D01*
X44231126Y51544892D01*
X44249202Y51423027D01*
X44255248Y51300000D01*
X44249202Y51176973D01*
X44231126Y51055108D01*
X44201197Y50935622D01*
X44159699Y50819644D01*
X44102771Y50699275D01*
X50998148Y43803897D01*
X51035996Y43757776D01*
X51068893Y43696229D01*
X51089151Y43629451D01*
X51095000Y43570077D01*
X51095000Y40125000D01*
X51745000Y40125000D01*
X51745000Y37215000D01*
D02*
G37*
%LPC*%
G36*
X52895000Y51405000D02*
X51754918Y51405000D01*
X51755780Y51422538D01*
X51773783Y51543912D01*
X51803595Y51662927D01*
X51844927Y51778444D01*
X51897385Y51889358D01*
X51960463Y51994596D01*
X52033551Y52093143D01*
X52115946Y52184054D01*
X52206857Y52266449D01*
X52305404Y52339537D01*
X52410642Y52402615D01*
X52521556Y52455073D01*
X52637073Y52496405D01*
X52756088Y52526217D01*
X52877462Y52544220D01*
X52895000Y52545082D01*
X52895000Y51405000D01*
D02*
G37*
%LPC*%
G36*
X54245082Y51405000D02*
X53105000Y51405000D01*
X53105000Y52545082D01*
X53122538Y52544220D01*
X53243912Y52526217D01*
X53362927Y52496405D01*
X53478444Y52455073D01*
X53589358Y52402615D01*
X53694596Y52339537D01*
X53793143Y52266449D01*
X53884054Y52184054D01*
X53966449Y52093143D01*
X54039537Y51994596D01*
X54102615Y51889358D01*
X54155073Y51778444D01*
X54196405Y51662927D01*
X54226217Y51543912D01*
X54244220Y51422538D01*
X54245082Y51405000D01*
D02*
G37*
%LPC*%
G36*
X25300000Y47744752D02*
X25245583Y47747426D01*
X25191672Y47755423D01*
X25138825Y47768660D01*
X25087514Y47787020D01*
X25038256Y47810317D01*
X24991520Y47838329D01*
X24947760Y47870784D01*
X24907381Y47907381D01*
X24870784Y47947760D01*
X24838329Y47991520D01*
X24810317Y48038256D01*
X24787020Y48087514D01*
X24768660Y48138825D01*
X24755423Y48191672D01*
X24747426Y48245583D01*
X24744752Y48300000D01*
X24747426Y48354417D01*
X24755423Y48408328D01*
X24768660Y48461175D01*
X24787020Y48512486D01*
X24810317Y48561744D01*
X24838329Y48608480D01*
X24870784Y48652240D01*
X24907382Y48692620D01*
X24945000Y48726715D01*
X24945000Y49410066D01*
X24950849Y49469451D01*
X24971106Y49536229D01*
X25004003Y49597777D01*
X25047779Y49651122D01*
X25055551Y49657598D01*
X26642401Y51244448D01*
X26648877Y51252220D01*
X26702222Y51295996D01*
X26763770Y51328893D01*
X26830548Y51349151D01*
X26889923Y51355000D01*
X29410077Y51355000D01*
X29469451Y51349151D01*
X29536229Y51328893D01*
X29597776Y51295996D01*
X29643897Y51258148D01*
X30397046Y50505000D01*
X31155000Y50505000D01*
X31155000Y48295000D01*
X30145000Y48295000D01*
X30145000Y49752953D01*
X29252953Y50645000D01*
X27047047Y50645000D01*
X25655000Y49252953D01*
X25655000Y48726715D01*
X25692618Y48692620D01*
X25729216Y48652240D01*
X25761671Y48608480D01*
X25789683Y48561744D01*
X25812980Y48512486D01*
X25831340Y48461175D01*
X25844577Y48408328D01*
X25852574Y48354417D01*
X25855248Y48300000D01*
X25852574Y48245583D01*
X25844577Y48191672D01*
X25831340Y48138825D01*
X25812980Y48087514D01*
X25789683Y48038256D01*
X25761671Y47991520D01*
X25729216Y47947760D01*
X25692619Y47907381D01*
X25652240Y47870784D01*
X25608480Y47838329D01*
X25561744Y47810317D01*
X25512486Y47787020D01*
X25461175Y47768660D01*
X25408328Y47755423D01*
X25354417Y47747426D01*
X25300000Y47744752D01*
D02*
G37*
%LPC*%
G36*
X53105000Y50054918D02*
X53105000Y51195000D01*
X54245082Y51195000D01*
X54244220Y51177462D01*
X54226217Y51056088D01*
X54196405Y50937073D01*
X54155073Y50821556D01*
X54102615Y50710642D01*
X54039537Y50605404D01*
X53966449Y50506857D01*
X53884054Y50415946D01*
X53793143Y50333551D01*
X53694596Y50260463D01*
X53589358Y50197385D01*
X53478444Y50144927D01*
X53362927Y50103595D01*
X53243912Y50073783D01*
X53122538Y50055780D01*
X53105000Y50054918D01*
D02*
G37*
%LPC*%
G36*
X52895000Y50054918D02*
X52877462Y50055780D01*
X52756088Y50073783D01*
X52637073Y50103595D01*
X52521556Y50144927D01*
X52410642Y50197385D01*
X52305404Y50260463D01*
X52206857Y50333551D01*
X52115946Y50415946D01*
X52033551Y50506857D01*
X51960463Y50605404D01*
X51897385Y50710642D01*
X51844927Y50821556D01*
X51803595Y50937073D01*
X51773783Y51056088D01*
X51755780Y51177462D01*
X51754918Y51195000D01*
X52895000Y51195000D01*
X52895000Y50054918D01*
D02*
G37*
%LPC*%
G36*
X33650000Y49505000D02*
X33255000Y49505000D01*
X33255000Y50500000D01*
X33650000Y50500000D01*
X33650000Y49505000D01*
D02*
G37*
%LPC*%
G36*
X33045000Y49505000D02*
X32650000Y49505000D01*
X32650000Y50500000D01*
X33045000Y50500000D01*
X33045000Y49505000D01*
D02*
G37*
%LPC*%
G36*
X30820000Y44045000D02*
X29510000Y44045000D01*
X29510000Y44145000D01*
X28880000Y44145000D01*
X28880000Y44120000D01*
X27670000Y44120000D01*
X27670000Y46515000D01*
X27620000Y46515000D01*
X27620000Y47325000D01*
X27720000Y47325000D01*
X27720000Y49134290D01*
X27324290Y49134290D01*
X27324290Y50245710D01*
X28272138Y50245710D01*
X28275000Y50245992D01*
X28277862Y50245710D01*
X29225710Y50245710D01*
X29225710Y49134290D01*
X28830000Y49134290D01*
X28830000Y47325000D01*
X28930000Y47325000D01*
X28930000Y46515000D01*
X28880000Y46515000D01*
X28880000Y45355000D01*
X29510000Y45355000D01*
X29510000Y45455000D01*
X30820000Y45455000D01*
X30820000Y44045000D01*
D02*
G37*
%LPC*%
G36*
X23895000Y46364752D02*
X23840583Y46367426D01*
X23786672Y46375423D01*
X23733825Y46388660D01*
X23682514Y46407020D01*
X23633256Y46430317D01*
X23586520Y46458329D01*
X23542760Y46490784D01*
X23502381Y46527381D01*
X23465784Y46567760D01*
X23433329Y46611520D01*
X23405317Y46658256D01*
X23382020Y46707514D01*
X23363660Y46758825D01*
X23350423Y46811672D01*
X23342426Y46865583D01*
X23339753Y46919993D01*
X23342243Y46970711D01*
X21178664Y49134290D01*
X20174290Y49134290D01*
X20174290Y50245710D01*
X22075710Y50245710D01*
X22075710Y49241336D01*
X23844289Y47472757D01*
X23895007Y47475247D01*
X23949417Y47472574D01*
X24003328Y47464577D01*
X24056175Y47451340D01*
X24107486Y47432980D01*
X24156744Y47409683D01*
X24203480Y47381671D01*
X24247240Y47349216D01*
X24287620Y47312618D01*
X24321715Y47275000D01*
X25420000Y47275000D01*
X25420000Y47325000D01*
X26730000Y47325000D01*
X26730000Y46515000D01*
X25420000Y46515000D01*
X25420000Y46565000D01*
X24321715Y46565000D01*
X24287620Y46527382D01*
X24247240Y46490784D01*
X24203480Y46458329D01*
X24156744Y46430317D01*
X24107486Y46407020D01*
X24056175Y46388660D01*
X24003328Y46375423D01*
X23949417Y46367426D01*
X23895000Y46364752D01*
D02*
G37*
%LPC*%
G36*
X33650000Y48300000D02*
X33255000Y48300000D01*
X33255000Y49295000D01*
X33650000Y49295000D01*
X33650000Y48300000D01*
D02*
G37*
%LPC*%
G36*
X33045000Y48300000D02*
X32650000Y48300000D01*
X32650000Y49295000D01*
X33045000Y49295000D01*
X33045000Y48300000D01*
D02*
G37*
%LPC*%
G36*
X14750000Y45905000D02*
X12790000Y45905000D01*
X12790000Y46937953D01*
X11977954Y47750000D01*
X11245000Y47750000D01*
X11245000Y49010000D01*
X12455000Y49010000D01*
X12455000Y48277046D01*
X13817046Y46915000D01*
X14750000Y46915000D01*
X14750000Y45905000D01*
D02*
G37*
%LPC*%
G36*
X9410000Y45905000D02*
X7450000Y45905000D01*
X7450000Y46915000D01*
X8382953Y46915000D01*
X9745000Y48277046D01*
X9745000Y49010000D01*
X10955000Y49010000D01*
X10955000Y47750000D01*
X10222046Y47750000D01*
X9410000Y46937953D01*
X9410000Y45905000D01*
D02*
G37*
%LPC*%
G36*
X31765000Y47055000D02*
X31220000Y47055000D01*
X31220000Y47650000D01*
X31765000Y47650000D01*
X31765000Y47055000D01*
D02*
G37*
%LPC*%
G36*
X31010000Y47055000D02*
X30465000Y47055000D01*
X30465000Y47650000D01*
X31010000Y47650000D01*
X31010000Y47055000D01*
D02*
G37*
%LPC*%
G36*
X34580000Y46355000D02*
X34060000Y46355000D01*
X34060000Y46850000D01*
X34580000Y46850000D01*
X34580000Y46355000D01*
D02*
G37*
%LPC*%
G36*
X33850000Y46355000D02*
X33330000Y46355000D01*
X33330000Y46850000D01*
X33850000Y46850000D01*
X33850000Y46355000D01*
D02*
G37*
%LPC*%
G36*
X31765000Y46250000D02*
X31220000Y46250000D01*
X31220000Y46845000D01*
X31765000Y46845000D01*
X31765000Y46250000D01*
D02*
G37*
%LPC*%
G36*
X31010000Y46250000D02*
X30465000Y46250000D01*
X30465000Y46845000D01*
X31010000Y46845000D01*
X31010000Y46250000D01*
D02*
G37*
%LPC*%
G36*
X34580000Y45650000D02*
X34060000Y45650000D01*
X34060000Y46145000D01*
X34580000Y46145000D01*
X34580000Y45650000D01*
D02*
G37*
%LPC*%
G36*
X33850000Y45650000D02*
X33330000Y45650000D01*
X33330000Y46145000D01*
X33850000Y46145000D01*
X33850000Y45650000D01*
D02*
G37*
%LPC*%
G36*
X6885000Y45465000D02*
X6365000Y45465000D01*
X6365000Y45960000D01*
X6885000Y45960000D01*
X6885000Y45465000D01*
D02*
G37*
%LPC*%
G36*
X6155000Y45465000D02*
X5635000Y45465000D01*
X5635000Y45960000D01*
X6155000Y45960000D01*
X6155000Y45465000D01*
D02*
G37*
%LPC*%
G36*
X46765000Y44855000D02*
X45195000Y44855000D01*
X45195000Y45750000D01*
X46765000Y45750000D01*
X46765000Y44855000D01*
D02*
G37*
%LPC*%
G36*
X44985000Y44855000D02*
X43415000Y44855000D01*
X43415000Y45750000D01*
X44985000Y45750000D01*
X44985000Y44855000D01*
D02*
G37*
%LPC*%
G36*
X16569401Y44535000D02*
X15310000Y44535000D01*
X15310000Y44635000D01*
X12790000Y44635000D01*
X12790000Y45645000D01*
X15310000Y45645000D01*
X15310000Y45745000D01*
X16830076Y45745000D01*
X16938220Y45734349D01*
X17051905Y45699861D01*
X17156669Y45643864D01*
X17240677Y45574920D01*
X20660599Y42155000D01*
X35185000Y42155000D01*
X35185000Y42305000D01*
X37295000Y42305000D01*
X37295000Y42102863D01*
X37386669Y42053864D01*
X37470677Y41984920D01*
X40324920Y39130677D01*
X40393864Y39046669D01*
X40449861Y38941905D01*
X40484349Y38828220D01*
X40495000Y38720076D01*
X40495000Y37625000D01*
X41570000Y37625000D01*
X41570000Y35795599D01*
X44450599Y32915000D01*
X48155000Y32915000D01*
X48155000Y32965000D01*
X49565000Y32965000D01*
X49565000Y31655000D01*
X48155000Y31655000D01*
X48155000Y31705000D01*
X44189935Y31705000D01*
X44081775Y31715652D01*
X43968095Y31750137D01*
X43863327Y31806137D01*
X43771380Y31881596D01*
X43764964Y31889437D01*
X40039401Y35615000D01*
X38210000Y35615000D01*
X38210000Y37625000D01*
X39285000Y37625000D01*
X39285000Y38459401D01*
X36949401Y40795000D01*
X35185000Y40795000D01*
X35185000Y40945000D01*
X20370599Y40945000D01*
X19855000Y40429401D01*
X19855000Y39475000D01*
X17745000Y39475000D01*
X17745000Y40985000D01*
X18699402Y40985000D01*
X19409401Y41695000D01*
X16569401Y44535000D01*
D02*
G37*
%LPC*%
G36*
X11005000Y33345001D02*
X9695000Y33345001D01*
X9695000Y34255001D01*
X9995000Y34255001D01*
X9995000Y39990000D01*
X9745000Y39990000D01*
X9745000Y41250000D01*
X9995000Y41250000D01*
X9995000Y44713285D01*
X9957381Y44747381D01*
X9923285Y44785000D01*
X9410000Y44785000D01*
X9410000Y44635000D01*
X7450000Y44635000D01*
X7450000Y45645000D01*
X9410000Y45645000D01*
X9410000Y45495000D01*
X9923285Y45495000D01*
X9957380Y45532618D01*
X9997760Y45569216D01*
X10041520Y45601671D01*
X10088256Y45629683D01*
X10137514Y45652980D01*
X10188825Y45671340D01*
X10241672Y45684577D01*
X10295583Y45692574D01*
X10350000Y45695248D01*
X10404417Y45692574D01*
X10458328Y45684577D01*
X10511175Y45671340D01*
X10562486Y45652980D01*
X10611744Y45629683D01*
X10658480Y45601671D01*
X10702240Y45569216D01*
X10742619Y45532619D01*
X10779216Y45492240D01*
X10811671Y45448480D01*
X10839683Y45401744D01*
X10862980Y45352486D01*
X10881340Y45301175D01*
X10894577Y45248328D01*
X10902574Y45194417D01*
X10905248Y45140000D01*
X10902574Y45085583D01*
X10894577Y45031672D01*
X10881340Y44978825D01*
X10862980Y44927514D01*
X10839683Y44878256D01*
X10811671Y44831520D01*
X10779216Y44787760D01*
X10742618Y44747380D01*
X10705000Y44713285D01*
X10705000Y41250000D01*
X10955000Y41250000D01*
X10955000Y39990000D01*
X10705000Y39990000D01*
X10705000Y34255001D01*
X11005000Y34255001D01*
X11005000Y34155001D01*
X11525000Y34155001D01*
X11525000Y34255001D01*
X12835000Y34255001D01*
X12835000Y33345001D01*
X11525000Y33345001D01*
X11525000Y33445001D01*
X11005000Y33445001D01*
X11005000Y33345001D01*
D02*
G37*
%LPC*%
G36*
X27375000Y44855000D02*
X26880000Y44855000D01*
X26880000Y45375000D01*
X27375000Y45375000D01*
X27375000Y44855000D01*
D02*
G37*
%LPC*%
G36*
X26670000Y44855000D02*
X26175000Y44855000D01*
X26175000Y45375000D01*
X26670000Y45375000D01*
X26670000Y44855000D01*
D02*
G37*
%LPC*%
G36*
X6885000Y44760000D02*
X6365000Y44760000D01*
X6365000Y45255000D01*
X6885000Y45255000D01*
X6885000Y44760000D01*
D02*
G37*
%LPC*%
G36*
X6155000Y44760000D02*
X5635000Y44760000D01*
X5635000Y45255000D01*
X6155000Y45255000D01*
X6155000Y44760000D01*
D02*
G37*
%LPC*%
G36*
X5215000Y39585000D02*
X4305000Y39585000D01*
X4305000Y40895000D01*
X4405000Y40895000D01*
X4405000Y41415000D01*
X4305000Y41415000D01*
X4305000Y43285000D01*
X3265000Y43285000D01*
X3265000Y44795000D01*
X5075000Y44795000D01*
X5075000Y43285000D01*
X5015000Y43285000D01*
X5015000Y42725000D01*
X5215000Y42725000D01*
X5215000Y41415000D01*
X5115000Y41415000D01*
X5115000Y40895000D01*
X5215000Y40895000D01*
X5215000Y39585000D01*
D02*
G37*
%LPC*%
G36*
X2690000Y44445000D02*
X2145000Y44445000D01*
X2145000Y44790000D01*
X2690000Y44790000D01*
X2690000Y44445000D01*
D02*
G37*
%LPC*%
G36*
X1935000Y44445000D02*
X1390000Y44445000D01*
X1390000Y44790000D01*
X1935000Y44790000D01*
X1935000Y44445000D01*
D02*
G37*
%LPC*%
G36*
X46765000Y43750000D02*
X45195000Y43750000D01*
X45195000Y44645000D01*
X46765000Y44645000D01*
X46765000Y43750000D01*
D02*
G37*
%LPC*%
G36*
X44985000Y43750000D02*
X43415000Y43750000D01*
X43415000Y44645000D01*
X44985000Y44645000D01*
X44985000Y43750000D01*
D02*
G37*
%LPC*%
G36*
X27375000Y44125000D02*
X26880000Y44125000D01*
X26880000Y44645000D01*
X27375000Y44645000D01*
X27375000Y44125000D01*
D02*
G37*
%LPC*%
G36*
X26670000Y44125000D02*
X26175000Y44125000D01*
X26175000Y44645000D01*
X26670000Y44645000D01*
X26670000Y44125000D01*
D02*
G37*
%LPC*%
G36*
X6715000Y41415000D02*
X5805000Y41415000D01*
X5805000Y42725000D01*
X5905000Y42725000D01*
X5905000Y43255000D01*
X5630000Y43255000D01*
X5630000Y44465000D01*
X6890000Y44465000D01*
X6890000Y44215000D01*
X7450000Y44215000D01*
X7450000Y44365000D01*
X9410000Y44365000D01*
X9410000Y43355000D01*
X7450000Y43355000D01*
X7450000Y43505000D01*
X6890000Y43505000D01*
X6890000Y43255000D01*
X6615000Y43255000D01*
X6615000Y42725000D01*
X6715000Y42725000D01*
X6715000Y41415000D01*
D02*
G37*
%LPC*%
G36*
X24335000Y18785000D02*
X23425000Y18785000D01*
X23425000Y19085000D01*
X21049935Y19085000D01*
X20990548Y19090849D01*
X20923770Y19111106D01*
X20862223Y19144003D01*
X20808155Y19188372D01*
X20801738Y19196215D01*
X13956214Y26041740D01*
X13948371Y26048157D01*
X13904003Y26102223D01*
X13871106Y26163770D01*
X13850849Y26230548D01*
X13845000Y26289935D01*
X13845000Y33952953D01*
X11606213Y36191741D01*
X11598370Y36198158D01*
X11554003Y36252223D01*
X11521106Y36313770D01*
X11500849Y36380548D01*
X11495000Y36439935D01*
X11495000Y39990000D01*
X11245000Y39990000D01*
X11245000Y41250000D01*
X11495000Y41250000D01*
X11495000Y43433285D01*
X11457382Y43467380D01*
X11420784Y43507760D01*
X11388329Y43551520D01*
X11360317Y43598256D01*
X11337020Y43647514D01*
X11318660Y43698825D01*
X11305423Y43751672D01*
X11297426Y43805583D01*
X11294752Y43860000D01*
X11297426Y43914417D01*
X11305423Y43968328D01*
X11318660Y44021175D01*
X11337020Y44072486D01*
X11360317Y44121744D01*
X11388329Y44168480D01*
X11420784Y44212240D01*
X11457381Y44252619D01*
X11497760Y44289216D01*
X11541520Y44321671D01*
X11588256Y44349683D01*
X11637514Y44372980D01*
X11688825Y44391340D01*
X11741672Y44404577D01*
X11795583Y44412574D01*
X11850000Y44415248D01*
X11904417Y44412574D01*
X11958328Y44404577D01*
X12011175Y44391340D01*
X12062486Y44372980D01*
X12111744Y44349683D01*
X12158480Y44321671D01*
X12202240Y44289216D01*
X12242620Y44252618D01*
X12276715Y44215000D01*
X12790000Y44215000D01*
X12790000Y44365000D01*
X14750000Y44365000D01*
X14750000Y43355000D01*
X12790000Y43355000D01*
X12790000Y43505000D01*
X12276715Y43505000D01*
X12242619Y43467381D01*
X12205000Y43433285D01*
X12205000Y41250000D01*
X12455000Y41250000D01*
X12455000Y39990000D01*
X12205000Y39990000D01*
X12205000Y36597047D01*
X14458148Y34343897D01*
X14495996Y34297776D01*
X14528893Y34236229D01*
X14549151Y34169451D01*
X14555000Y34110077D01*
X14555000Y26447047D01*
X21207047Y19795000D01*
X23425000Y19795000D01*
X23425000Y20095000D01*
X24335000Y20095000D01*
X24335000Y18785000D01*
D02*
G37*
%LPC*%
G36*
X16565000Y43745000D02*
X16045000Y43745000D01*
X16045000Y44240000D01*
X16565000Y44240000D01*
X16565000Y43745000D01*
D02*
G37*
%LPC*%
G36*
X15835000Y43745000D02*
X15315000Y43745000D01*
X15315000Y44240000D01*
X15835000Y44240000D01*
X15835000Y43745000D01*
D02*
G37*
%LPC*%
G36*
X2690000Y43890000D02*
X2145000Y43890000D01*
X2145000Y44235000D01*
X2690000Y44235000D01*
X2690000Y43890000D01*
D02*
G37*
%LPC*%
G36*
X1935000Y43890000D02*
X1390000Y43890000D01*
X1390000Y44235000D01*
X1935000Y44235000D01*
X1935000Y43890000D01*
D02*
G37*
%LPC*%
G36*
X16565000Y43040000D02*
X16045000Y43040000D01*
X16045000Y43535000D01*
X16565000Y43535000D01*
X16565000Y43040000D01*
D02*
G37*
%LPC*%
G36*
X15835000Y43040000D02*
X15315000Y43040000D01*
X15315000Y43535000D01*
X15835000Y43535000D01*
X15835000Y43040000D01*
D02*
G37*
%LPC*%
G36*
X14750000Y42085000D02*
X12790000Y42085000D01*
X12790000Y43095000D01*
X14750000Y43095000D01*
X14750000Y42085000D01*
D02*
G37*
%LPC*%
G36*
X9405000Y42695000D02*
X8535000Y42695000D01*
X8535000Y43090000D01*
X9405000Y43090000D01*
X9405000Y42695000D01*
D02*
G37*
%LPC*%
G36*
X8325000Y42695000D02*
X7455000Y42695000D01*
X7455000Y43090000D01*
X8325000Y43090000D01*
X8325000Y42695000D01*
D02*
G37*
%LPC*%
G36*
X9405000Y42090000D02*
X8535000Y42090000D01*
X8535000Y42485000D01*
X9405000Y42485000D01*
X9405000Y42090000D01*
D02*
G37*
%LPC*%
G36*
X8325000Y42090000D02*
X7455000Y42090000D01*
X7455000Y42485000D01*
X8325000Y42485000D01*
X8325000Y42090000D01*
D02*
G37*
%LPC*%
G36*
X17020000Y40335000D02*
X16075000Y40335000D01*
X16075000Y40980000D01*
X17020000Y40980000D01*
X17020000Y40335000D01*
D02*
G37*
%LPC*%
G36*
X15865000Y40335000D02*
X14920000Y40335000D01*
X14920000Y40980000D01*
X15865000Y40980000D01*
X15865000Y40335000D01*
D02*
G37*
%LPC*%
G36*
X7840000Y39534752D02*
X7770883Y39538148D01*
X7702405Y39548307D01*
X7635284Y39565118D01*
X7570114Y39588438D01*
X7507551Y39618027D01*
X7448179Y39653614D01*
X7392600Y39694834D01*
X7348284Y39735000D01*
X6715000Y39735000D01*
X6715000Y39585000D01*
X5805000Y39585000D01*
X5805000Y40023025D01*
X5792524Y40046365D01*
X5763729Y40141289D01*
X5754007Y40239999D01*
X5763729Y40338711D01*
X5792524Y40433634D01*
X5805000Y40456974D01*
X5805000Y40895000D01*
X6715000Y40895000D01*
X6715000Y40745000D01*
X7348284Y40745000D01*
X7392600Y40785166D01*
X7448179Y40826386D01*
X7507551Y40861973D01*
X7570114Y40891562D01*
X7635284Y40914882D01*
X7702405Y40931693D01*
X7770883Y40941852D01*
X7840000Y40945248D01*
X7909117Y40941852D01*
X7977595Y40931693D01*
X8044716Y40914882D01*
X8109886Y40891562D01*
X8172449Y40861973D01*
X8231821Y40826386D01*
X8287401Y40785166D01*
X8338685Y40738685D01*
X8385166Y40687401D01*
X8426386Y40631821D01*
X8461973Y40572449D01*
X8491562Y40509886D01*
X8514882Y40444716D01*
X8531693Y40377595D01*
X8541852Y40309117D01*
X8545248Y40240000D01*
X8541852Y40170883D01*
X8531693Y40102405D01*
X8514882Y40035284D01*
X8491562Y39970114D01*
X8461973Y39907551D01*
X8426386Y39848179D01*
X8385166Y39792599D01*
X8338685Y39741315D01*
X8287401Y39694834D01*
X8231821Y39653614D01*
X8172449Y39618027D01*
X8109886Y39588438D01*
X8044716Y39565118D01*
X7977595Y39548307D01*
X7909117Y39538148D01*
X7840000Y39534752D01*
D02*
G37*
%LPC*%
G36*
X17020000Y39480000D02*
X16075000Y39480000D01*
X16075000Y40125000D01*
X17020000Y40125000D01*
X17020000Y39480000D01*
D02*
G37*
%LPC*%
G36*
X15865000Y39480000D02*
X14920000Y39480000D01*
X14920000Y40125000D01*
X15865000Y40125000D01*
X15865000Y39480000D01*
D02*
G37*
%LPC*%
G36*
X6997474Y37304999D02*
X6105000Y37304999D01*
X6105000Y38770709D01*
X6997474Y38770709D01*
X6997474Y37304999D01*
D02*
G37*
%LPC*%
G36*
X5895000Y37304999D02*
X5002526Y37304999D01*
X5002526Y38770709D01*
X5895000Y38770709D01*
X5895000Y37304999D01*
D02*
G37*
%LPC*%
G36*
X24420000Y29184752D02*
X24341077Y29188631D01*
X24262906Y29200225D01*
X24186244Y29219429D01*
X24111851Y29246047D01*
X24040406Y29279838D01*
X23972630Y29320461D01*
X23909157Y29367536D01*
X23850604Y29420604D01*
X23797536Y29479157D01*
X23750461Y29542630D01*
X23709838Y29610406D01*
X23676047Y29681851D01*
X23649429Y29756244D01*
X23630225Y29832906D01*
X23618631Y29911077D01*
X23614752Y29990000D01*
X23618631Y30068923D01*
X23630225Y30147094D01*
X23649429Y30223756D01*
X23676047Y30298149D01*
X23709838Y30369594D01*
X23750461Y30437370D01*
X23797536Y30500843D01*
X23850604Y30559396D01*
X23909157Y30612464D01*
X23972634Y30659542D01*
X24065000Y30714902D01*
X24065000Y31765098D01*
X23972634Y31820458D01*
X23909157Y31867536D01*
X23850604Y31920604D01*
X23797536Y31979157D01*
X23750461Y32042630D01*
X23709838Y32110406D01*
X23676047Y32181851D01*
X23649429Y32256244D01*
X23630225Y32332906D01*
X23618631Y32411077D01*
X23614752Y32490000D01*
X23618631Y32568923D01*
X23630225Y32647094D01*
X23649429Y32723756D01*
X23676047Y32798149D01*
X23709838Y32869594D01*
X23750461Y32937370D01*
X23797536Y33000843D01*
X23850604Y33059396D01*
X23909157Y33112464D01*
X23972634Y33159542D01*
X24065000Y33214902D01*
X24065000Y35742408D01*
X23920506Y35794108D01*
X23804712Y35848874D01*
X23694844Y35914727D01*
X23591961Y35991031D01*
X23497051Y36077051D01*
X23411031Y36171961D01*
X23334727Y36274844D01*
X23268874Y36384712D01*
X23214108Y36500506D01*
X23170956Y36621107D01*
X23139835Y36745352D01*
X23121039Y36872063D01*
X23114753Y37000000D01*
X23121039Y37127937D01*
X23139835Y37254648D01*
X23170956Y37378893D01*
X23214108Y37499494D01*
X23268874Y37615288D01*
X23334727Y37725156D01*
X23411031Y37828039D01*
X23497051Y37922949D01*
X23591961Y38008969D01*
X23694844Y38085273D01*
X23804712Y38151126D01*
X23920506Y38205892D01*
X24041107Y38249044D01*
X24165352Y38280165D01*
X24292063Y38298961D01*
X24420000Y38305247D01*
X24547937Y38298961D01*
X24674648Y38280165D01*
X24798893Y38249044D01*
X24919494Y38205892D01*
X25035288Y38151126D01*
X25145156Y38085273D01*
X25248039Y38008969D01*
X25342949Y37922949D01*
X25428969Y37828039D01*
X25505273Y37725156D01*
X25571126Y37615288D01*
X25625892Y37499494D01*
X25669044Y37378893D01*
X25700165Y37254648D01*
X25718961Y37127937D01*
X25725247Y37000000D01*
X25718961Y36872063D01*
X25700165Y36745352D01*
X25669044Y36621107D01*
X25625892Y36500506D01*
X25571126Y36384712D01*
X25505273Y36274844D01*
X25428969Y36171961D01*
X25342949Y36077051D01*
X25248039Y35991031D01*
X25145156Y35914727D01*
X25035288Y35848874D01*
X24919494Y35794108D01*
X24775000Y35742408D01*
X24775000Y33214902D01*
X24867366Y33159542D01*
X24930843Y33112464D01*
X24989396Y33059396D01*
X25042464Y33000843D01*
X25089539Y32937370D01*
X25130162Y32869594D01*
X25163953Y32798149D01*
X25190571Y32723756D01*
X25209775Y32647094D01*
X25221369Y32568923D01*
X25225248Y32490000D01*
X25221369Y32411077D01*
X25209775Y32332906D01*
X25190571Y32256244D01*
X25163953Y32181851D01*
X25130162Y32110406D01*
X25089539Y32042630D01*
X25042464Y31979157D01*
X24989396Y31920604D01*
X24930843Y31867536D01*
X24867366Y31820458D01*
X24775000Y31765098D01*
X24775000Y30714902D01*
X24867366Y30659542D01*
X24930843Y30612464D01*
X24989396Y30559396D01*
X25042464Y30500843D01*
X25089539Y30437370D01*
X25130162Y30369594D01*
X25163953Y30298149D01*
X25190571Y30223756D01*
X25209775Y30147094D01*
X25221369Y30068923D01*
X25225248Y29990000D01*
X25221369Y29911077D01*
X25209775Y29832906D01*
X25190571Y29756244D01*
X25163953Y29681851D01*
X25130162Y29610406D01*
X25089539Y29542630D01*
X25042464Y29479157D01*
X24989396Y29420604D01*
X24930843Y29367536D01*
X24867370Y29320461D01*
X24799594Y29279838D01*
X24728149Y29246047D01*
X24653756Y29219429D01*
X24577094Y29200225D01*
X24498923Y29188631D01*
X24420000Y29184752D01*
D02*
G37*
%LPC*%
G36*
X50510066Y18145000D02*
X38269935Y18145000D01*
X38210548Y18150849D01*
X38143770Y18171106D01*
X38082223Y18204003D01*
X38028157Y18248371D01*
X38021740Y18256214D01*
X37495615Y18782338D01*
X37371811Y18738039D01*
X37276116Y18714069D01*
X37178525Y18699594D01*
X37080000Y18694752D01*
X36981475Y18699594D01*
X36883884Y18714069D01*
X36788193Y18738038D01*
X36695304Y18771275D01*
X36606140Y18813445D01*
X36521512Y18864170D01*
X36442277Y18922935D01*
X36369183Y18989183D01*
X36302935Y19062277D01*
X36244170Y19141512D01*
X36193448Y19226136D01*
X36137231Y19345000D01*
X34725709Y19345000D01*
X34725709Y18437526D01*
X31574289Y18437526D01*
X31574289Y20442474D01*
X32345000Y20442474D01*
X32345000Y25545000D01*
X30077047Y25545000D01*
X29217662Y24685615D01*
X29261961Y24561811D01*
X29285931Y24466116D01*
X29300406Y24368525D01*
X29305248Y24270000D01*
X29300406Y24171475D01*
X29285931Y24073884D01*
X29261962Y23978193D01*
X29228725Y23885304D01*
X29186555Y23796140D01*
X29135830Y23711512D01*
X29077065Y23632277D01*
X29010817Y23559183D01*
X28937723Y23492935D01*
X28858488Y23434170D01*
X28773860Y23383445D01*
X28684696Y23341275D01*
X28591807Y23308038D01*
X28496116Y23284069D01*
X28398525Y23269594D01*
X28300000Y23264752D01*
X28201475Y23269594D01*
X28103884Y23284069D01*
X28008193Y23308038D01*
X27915304Y23341275D01*
X27826140Y23383445D01*
X27741512Y23434170D01*
X27662277Y23492935D01*
X27589183Y23559183D01*
X27522935Y23632277D01*
X27464170Y23711512D01*
X27413445Y23796140D01*
X27371275Y23885304D01*
X27338038Y23978193D01*
X27314069Y24073884D01*
X27299594Y24171475D01*
X27294752Y24270000D01*
X27299594Y24368525D01*
X27314069Y24466116D01*
X27338038Y24561807D01*
X27371275Y24654696D01*
X27413445Y24743860D01*
X27464170Y24828488D01*
X27522935Y24907723D01*
X27589183Y24980817D01*
X27662277Y25047065D01*
X27741512Y25105830D01*
X27826140Y25156555D01*
X27915304Y25198725D01*
X28008193Y25231962D01*
X28103884Y25255931D01*
X28201475Y25270406D01*
X28300000Y25275248D01*
X28398525Y25270406D01*
X28496116Y25255931D01*
X28591811Y25231961D01*
X28715615Y25187662D01*
X29672401Y26144448D01*
X29678877Y26152220D01*
X29732222Y26195996D01*
X29793770Y26228893D01*
X29860548Y26249151D01*
X29919923Y26255000D01*
X32345000Y26255000D01*
X32345000Y33652953D01*
X30138230Y35859724D01*
X29999494Y35794108D01*
X29878893Y35750956D01*
X29754648Y35719835D01*
X29627937Y35701039D01*
X29500000Y35694753D01*
X29372063Y35701039D01*
X29245352Y35719835D01*
X29121107Y35750956D01*
X29000506Y35794108D01*
X28884712Y35848874D01*
X28774844Y35914727D01*
X28671961Y35991031D01*
X28577051Y36077051D01*
X28491031Y36171961D01*
X28414727Y36274844D01*
X28348874Y36384712D01*
X28294108Y36500506D01*
X28250956Y36621107D01*
X28219835Y36745352D01*
X28201039Y36872063D01*
X28194753Y37000000D01*
X28201039Y37127937D01*
X28219835Y37254648D01*
X28250956Y37378893D01*
X28294108Y37499494D01*
X28348874Y37615288D01*
X28414727Y37725156D01*
X28491031Y37828039D01*
X28577051Y37922949D01*
X28671961Y38008969D01*
X28774844Y38085273D01*
X28884712Y38151126D01*
X29000506Y38205892D01*
X29121107Y38249044D01*
X29245352Y38280165D01*
X29372063Y38298961D01*
X29500000Y38305247D01*
X29627937Y38298961D01*
X29754648Y38280165D01*
X29878893Y38249044D01*
X29999494Y38205892D01*
X30115288Y38151126D01*
X30225156Y38085273D01*
X30328039Y38008969D01*
X30422949Y37922949D01*
X30508969Y37828039D01*
X30585273Y37725156D01*
X30651126Y37615288D01*
X30705892Y37499494D01*
X30749044Y37378893D01*
X30780165Y37254648D01*
X30798961Y37127937D01*
X30805247Y37000000D01*
X30798961Y36872063D01*
X30780165Y36745352D01*
X30749044Y36621107D01*
X30705892Y36500506D01*
X30640276Y36361770D01*
X32958148Y34043897D01*
X32995996Y33997776D01*
X33028893Y33936229D01*
X33049151Y33869451D01*
X33055000Y33810077D01*
X33055000Y20442474D01*
X34725709Y20442474D01*
X34725709Y20055000D01*
X36137231Y20055000D01*
X36193448Y20173864D01*
X36244170Y20258488D01*
X36302935Y20337723D01*
X36369183Y20410817D01*
X36442277Y20477065D01*
X36521512Y20535830D01*
X36606136Y20586552D01*
X36725000Y20642769D01*
X36725000Y21087231D01*
X36606136Y21143448D01*
X36521512Y21194170D01*
X36442277Y21252935D01*
X36369183Y21319183D01*
X36302935Y21392277D01*
X36244170Y21471512D01*
X36193445Y21556140D01*
X36151275Y21645304D01*
X36118038Y21738193D01*
X36094069Y21833884D01*
X36079594Y21931475D01*
X36074752Y22030000D01*
X36079594Y22128525D01*
X36094069Y22226116D01*
X36118038Y22321807D01*
X36151275Y22414696D01*
X36193445Y22503860D01*
X36244170Y22588488D01*
X36302935Y22667723D01*
X36369183Y22740817D01*
X36442277Y22807065D01*
X36521512Y22865830D01*
X36606140Y22916555D01*
X36695304Y22958725D01*
X36788193Y22991962D01*
X36883884Y23015931D01*
X36981475Y23030406D01*
X37080000Y23035248D01*
X37178525Y23030406D01*
X37276116Y23015931D01*
X37371807Y22991962D01*
X37464696Y22958725D01*
X37553860Y22916555D01*
X37638488Y22865830D01*
X37717723Y22807065D01*
X37790817Y22740817D01*
X37857065Y22667723D01*
X37915830Y22588488D01*
X37966555Y22503860D01*
X38008725Y22414696D01*
X38041962Y22321807D01*
X38065931Y22226116D01*
X38080406Y22128525D01*
X38085248Y22030000D01*
X38080406Y21931475D01*
X38065931Y21833884D01*
X38041962Y21738193D01*
X38008725Y21645304D01*
X37966555Y21556140D01*
X37915830Y21471512D01*
X37857065Y21392277D01*
X37790817Y21319183D01*
X37717723Y21252935D01*
X37638488Y21194170D01*
X37553864Y21143448D01*
X37435000Y21087231D01*
X37435000Y20642769D01*
X37553864Y20586552D01*
X37638488Y20535830D01*
X37717723Y20477065D01*
X37790817Y20410817D01*
X37857065Y20337723D01*
X37915830Y20258488D01*
X37966555Y20173860D01*
X38008725Y20084696D01*
X38041962Y19991807D01*
X38065931Y19896116D01*
X38080406Y19798525D01*
X38085248Y19700000D01*
X38080406Y19601475D01*
X38065931Y19503884D01*
X38041961Y19408189D01*
X37997662Y19284385D01*
X38427047Y18855000D01*
X50352953Y18855000D01*
X51897229Y20399276D01*
X51840302Y20519640D01*
X51798803Y20635622D01*
X51768874Y20755108D01*
X51750798Y20876973D01*
X51744752Y21000000D01*
X51750798Y21123027D01*
X51768874Y21244892D01*
X51798803Y21364378D01*
X51840302Y21480360D01*
X51892970Y21591718D01*
X51956300Y21697377D01*
X52029681Y21796319D01*
X52112406Y21887594D01*
X52203681Y21970319D01*
X52302623Y22043700D01*
X52408282Y22107030D01*
X52519640Y22159698D01*
X52635622Y22201197D01*
X52755108Y22231126D01*
X52876973Y22249202D01*
X53000000Y22255248D01*
X53123027Y22249202D01*
X53244892Y22231126D01*
X53364378Y22201197D01*
X53480360Y22159698D01*
X53591718Y22107030D01*
X53697377Y22043700D01*
X53796319Y21970319D01*
X53887594Y21887594D01*
X53970319Y21796319D01*
X54043700Y21697377D01*
X54107030Y21591718D01*
X54159698Y21480360D01*
X54201197Y21364378D01*
X54231126Y21244892D01*
X54249202Y21123027D01*
X54255248Y21000000D01*
X54249202Y20876973D01*
X54231126Y20755108D01*
X54201197Y20635622D01*
X54159698Y20519640D01*
X54107030Y20408282D01*
X54043700Y20302623D01*
X53970319Y20203681D01*
X53887594Y20112406D01*
X53796319Y20029681D01*
X53697377Y19956300D01*
X53591718Y19892970D01*
X53480360Y19840302D01*
X53364378Y19798803D01*
X53244892Y19768874D01*
X53123027Y19750798D01*
X53000000Y19744752D01*
X52876973Y19750798D01*
X52755108Y19768874D01*
X52635622Y19798803D01*
X52519640Y19840302D01*
X52399276Y19897229D01*
X50757598Y18255551D01*
X50751122Y18247779D01*
X50697777Y18204003D01*
X50636229Y18171106D01*
X50569451Y18150849D01*
X50510066Y18145000D01*
D02*
G37*
%LPC*%
G36*
X37080000Y31284752D02*
X37001077Y31288631D01*
X36922906Y31300225D01*
X36846244Y31319429D01*
X36771851Y31346047D01*
X36700406Y31379838D01*
X36632630Y31420461D01*
X36569157Y31467536D01*
X36510604Y31520604D01*
X36457536Y31579157D01*
X36410458Y31642634D01*
X36355098Y31735000D01*
X35304902Y31735000D01*
X35249542Y31642634D01*
X35202464Y31579157D01*
X35149396Y31520604D01*
X35090843Y31467536D01*
X35027370Y31420461D01*
X34959594Y31379838D01*
X34888149Y31346047D01*
X34813756Y31319429D01*
X34737094Y31300225D01*
X34658923Y31288631D01*
X34580000Y31284752D01*
X34501077Y31288631D01*
X34422906Y31300225D01*
X34346244Y31319429D01*
X34271851Y31346047D01*
X34200406Y31379838D01*
X34132630Y31420461D01*
X34069157Y31467536D01*
X34010604Y31520604D01*
X33957536Y31579157D01*
X33910461Y31642630D01*
X33869838Y31710406D01*
X33836047Y31781851D01*
X33809429Y31856244D01*
X33790225Y31932906D01*
X33778631Y32011077D01*
X33774752Y32090000D01*
X33778631Y32168923D01*
X33790225Y32247094D01*
X33809429Y32323756D01*
X33836047Y32398149D01*
X33869838Y32469594D01*
X33910461Y32537370D01*
X33957536Y32600843D01*
X34010604Y32659396D01*
X34069157Y32712464D01*
X34132634Y32759542D01*
X34225000Y32814902D01*
X34225000Y35742408D01*
X34080506Y35794108D01*
X33964712Y35848874D01*
X33854844Y35914727D01*
X33751961Y35991031D01*
X33657051Y36077051D01*
X33571031Y36171961D01*
X33494727Y36274844D01*
X33428874Y36384712D01*
X33374108Y36500506D01*
X33330956Y36621107D01*
X33299835Y36745352D01*
X33281039Y36872063D01*
X33274753Y37000000D01*
X33281039Y37127937D01*
X33299835Y37254648D01*
X33330956Y37378893D01*
X33374108Y37499494D01*
X33428874Y37615288D01*
X33494727Y37725156D01*
X33571031Y37828039D01*
X33657051Y37922949D01*
X33751961Y38008969D01*
X33854844Y38085273D01*
X33964712Y38151126D01*
X34080506Y38205892D01*
X34201107Y38249044D01*
X34325352Y38280165D01*
X34452063Y38298961D01*
X34580000Y38305247D01*
X34707937Y38298961D01*
X34834648Y38280165D01*
X34958893Y38249044D01*
X35079494Y38205892D01*
X35195288Y38151126D01*
X35305156Y38085273D01*
X35408039Y38008969D01*
X35502949Y37922949D01*
X35588969Y37828039D01*
X35665273Y37725156D01*
X35731126Y37615288D01*
X35785892Y37499494D01*
X35829044Y37378893D01*
X35860165Y37254648D01*
X35878961Y37127937D01*
X35885247Y37000000D01*
X35878961Y36872063D01*
X35860165Y36745352D01*
X35829044Y36621107D01*
X35785892Y36500506D01*
X35731126Y36384712D01*
X35665273Y36274844D01*
X35588969Y36171961D01*
X35502949Y36077051D01*
X35408039Y35991031D01*
X35305156Y35914727D01*
X35195288Y35848874D01*
X35079494Y35794108D01*
X34935000Y35742408D01*
X34935000Y32814902D01*
X35027366Y32759542D01*
X35090843Y32712464D01*
X35149396Y32659396D01*
X35202464Y32600843D01*
X35249542Y32537366D01*
X35304902Y32445000D01*
X36355098Y32445000D01*
X36410458Y32537366D01*
X36457536Y32600843D01*
X36510604Y32659396D01*
X36569157Y32712464D01*
X36632630Y32759539D01*
X36700406Y32800162D01*
X36771851Y32833953D01*
X36846244Y32860571D01*
X36922906Y32879775D01*
X37001077Y32891369D01*
X37080000Y32895248D01*
X37158923Y32891369D01*
X37237094Y32879775D01*
X37313756Y32860571D01*
X37388149Y32833953D01*
X37459594Y32800162D01*
X37527370Y32759539D01*
X37590843Y32712464D01*
X37649396Y32659396D01*
X37702464Y32600843D01*
X37749539Y32537370D01*
X37790162Y32469594D01*
X37823953Y32398149D01*
X37850571Y32323756D01*
X37869775Y32247094D01*
X37881369Y32168923D01*
X37885248Y32090000D01*
X37881369Y32011077D01*
X37869775Y31932906D01*
X37850571Y31856244D01*
X37823953Y31781851D01*
X37790162Y31710406D01*
X37749539Y31642630D01*
X37702464Y31579157D01*
X37649396Y31520604D01*
X37590843Y31467536D01*
X37527370Y31420461D01*
X37459594Y31379838D01*
X37388149Y31346047D01*
X37313756Y31319429D01*
X37237094Y31300225D01*
X37158923Y31288631D01*
X37080000Y31284752D01*
D02*
G37*
%LPC*%
G36*
X18505000Y32320000D02*
X16495000Y32320000D01*
X16495000Y35680000D01*
X16895000Y35680000D01*
X16895000Y36275000D01*
X14915000Y36275000D01*
X14915000Y36525000D01*
X14071716Y36525000D01*
X14027400Y36484834D01*
X13971821Y36443614D01*
X13912449Y36408027D01*
X13849886Y36378438D01*
X13784716Y36355118D01*
X13717595Y36338307D01*
X13649117Y36328148D01*
X13580000Y36324752D01*
X13510883Y36328148D01*
X13442405Y36338307D01*
X13375284Y36355118D01*
X13310114Y36378438D01*
X13247551Y36408027D01*
X13188179Y36443614D01*
X13132599Y36484834D01*
X13081315Y36531315D01*
X13034834Y36582599D01*
X12993614Y36638179D01*
X12958027Y36697551D01*
X12928438Y36760114D01*
X12905118Y36825284D01*
X12888307Y36892405D01*
X12878148Y36960883D01*
X12874752Y37030000D01*
X12878148Y37099117D01*
X12888307Y37167595D01*
X12905118Y37234716D01*
X12928438Y37299886D01*
X12958027Y37362449D01*
X12993614Y37421821D01*
X13034834Y37477401D01*
X13081315Y37528685D01*
X13132599Y37575166D01*
X13188179Y37616386D01*
X13247551Y37651973D01*
X13310114Y37681562D01*
X13375284Y37704882D01*
X13442405Y37721693D01*
X13510883Y37731852D01*
X13580000Y37735248D01*
X13649117Y37731852D01*
X13717595Y37721693D01*
X13784716Y37704882D01*
X13849886Y37681562D01*
X13912449Y37651973D01*
X13971821Y37616386D01*
X14027400Y37575166D01*
X14071716Y37535000D01*
X14915000Y37535000D01*
X14915000Y37785000D01*
X17025000Y37785000D01*
X17025000Y37635000D01*
X17745000Y37635000D01*
X17745000Y37785000D01*
X19855000Y37785000D01*
X19855000Y36275000D01*
X18105000Y36275000D01*
X18105000Y35680000D01*
X18505000Y35680000D01*
X18505000Y32320000D01*
D02*
G37*
%LPC*%
G36*
X46765000Y36725000D02*
X45195000Y36725000D01*
X45195000Y37620000D01*
X46765000Y37620000D01*
X46765000Y36725000D01*
D02*
G37*
%LPC*%
G36*
X44985000Y36725000D02*
X43415000Y36725000D01*
X43415000Y37620000D01*
X44985000Y37620000D01*
X44985000Y36725000D01*
D02*
G37*
%LPC*%
G36*
X6997474Y35629289D02*
X6105000Y35629289D01*
X6105000Y37094999D01*
X6997474Y37094999D01*
X6997474Y35629289D01*
D02*
G37*
%LPC*%
G36*
X5895000Y35629289D02*
X5002526Y35629289D01*
X5002526Y37094999D01*
X5895000Y37094999D01*
X5895000Y35629289D01*
D02*
G37*
%LPC*%
G36*
X51745000Y33915000D02*
X49735000Y33915000D01*
X49735000Y35015000D01*
X48986715Y35015000D01*
X48952620Y34977382D01*
X48912240Y34940784D01*
X48868480Y34908329D01*
X48821744Y34880317D01*
X48772486Y34857020D01*
X48721175Y34838660D01*
X48668328Y34825423D01*
X48614417Y34817426D01*
X48560000Y34814752D01*
X48505583Y34817426D01*
X48451672Y34825423D01*
X48398825Y34838660D01*
X48347514Y34857020D01*
X48298256Y34880317D01*
X48251520Y34908329D01*
X48207760Y34940784D01*
X48167381Y34977381D01*
X48130784Y35017760D01*
X48098329Y35061520D01*
X48070317Y35108256D01*
X48047020Y35157514D01*
X48028660Y35208825D01*
X48015423Y35261672D01*
X48007426Y35315583D01*
X48004752Y35370000D01*
X48007426Y35424417D01*
X48015423Y35478328D01*
X48028660Y35531175D01*
X48047020Y35582486D01*
X48070317Y35631744D01*
X48098329Y35678480D01*
X48130784Y35722240D01*
X48167381Y35762619D01*
X48207760Y35799216D01*
X48251520Y35831671D01*
X48298256Y35859683D01*
X48347514Y35882980D01*
X48398825Y35901340D01*
X48451672Y35914577D01*
X48505583Y35922574D01*
X48560000Y35925248D01*
X48614417Y35922574D01*
X48668328Y35914577D01*
X48721175Y35901340D01*
X48772486Y35882980D01*
X48821744Y35859683D01*
X48868480Y35831671D01*
X48912240Y35799216D01*
X48952620Y35762618D01*
X48986715Y35725000D01*
X49735000Y35725000D01*
X49735000Y36825000D01*
X51745000Y36825000D01*
X51745000Y33915000D01*
D02*
G37*
%LPC*%
G36*
X46765000Y35620000D02*
X45195000Y35620000D01*
X45195000Y36515000D01*
X46765000Y36515000D01*
X46765000Y35620000D01*
D02*
G37*
%LPC*%
G36*
X44985000Y35620000D02*
X43415000Y35620000D01*
X43415000Y36515000D01*
X44985000Y36515000D01*
X44985000Y35620000D01*
D02*
G37*
%LPC*%
G36*
X7002474Y30724291D02*
X4997526Y30724291D01*
X4997526Y33875711D01*
X7002474Y33875711D01*
X7002474Y32655001D01*
X9695000Y32655001D01*
X9695000Y32755001D01*
X11005000Y32755001D01*
X11005000Y31845001D01*
X9695000Y31845001D01*
X9695000Y31945001D01*
X7002474Y31945001D01*
X7002474Y30724291D01*
D02*
G37*
%LPC*%
G36*
X29395000Y32595000D02*
X28707553Y32595000D01*
X28715135Y32646117D01*
X28734219Y32722302D01*
X28760672Y32796233D01*
X28794251Y32867229D01*
X28834630Y32934597D01*
X28881402Y32997663D01*
X28934144Y33055856D01*
X28992337Y33108598D01*
X29055403Y33155370D01*
X29122771Y33195749D01*
X29193767Y33229328D01*
X29267698Y33255781D01*
X29343883Y33274865D01*
X29395000Y33282447D01*
X29395000Y32595000D01*
D02*
G37*
%LPC*%
G36*
X30292447Y32595000D02*
X29605000Y32595000D01*
X29605000Y33282447D01*
X29656117Y33274865D01*
X29732302Y33255781D01*
X29806233Y33229328D01*
X29877229Y33195749D01*
X29944597Y33155370D01*
X30007663Y33108598D01*
X30065856Y33055856D01*
X30118598Y32997663D01*
X30165370Y32934597D01*
X30205749Y32867229D01*
X30239328Y32796233D01*
X30265781Y32722302D01*
X30284865Y32646117D01*
X30292447Y32595000D01*
D02*
G37*
%LPC*%
G36*
X16000000Y19744752D02*
X15876973Y19750798D01*
X15755108Y19768874D01*
X15635622Y19798803D01*
X15519640Y19840302D01*
X15408282Y19892970D01*
X15302623Y19956300D01*
X15203681Y20029681D01*
X15112406Y20112406D01*
X15029681Y20203681D01*
X14956300Y20302623D01*
X14892970Y20408282D01*
X14840302Y20519640D01*
X14798803Y20635622D01*
X14768874Y20755108D01*
X14750798Y20876973D01*
X14744752Y21000000D01*
X14750798Y21123027D01*
X14768874Y21244892D01*
X14798803Y21364378D01*
X14840302Y21480360D01*
X14897229Y21600724D01*
X11936215Y24561738D01*
X11928372Y24568155D01*
X11884003Y24622223D01*
X11851106Y24683770D01*
X11830849Y24750548D01*
X11825000Y24809935D01*
X11825000Y31845001D01*
X11525000Y31845001D01*
X11525000Y32755001D01*
X12835000Y32755001D01*
X12835000Y31845001D01*
X12535000Y31845001D01*
X12535000Y24967047D01*
X15399276Y22102771D01*
X15519640Y22159698D01*
X15635622Y22201197D01*
X15755108Y22231126D01*
X15876973Y22249202D01*
X16000000Y22255248D01*
X16123027Y22249202D01*
X16244892Y22231126D01*
X16364378Y22201197D01*
X16480360Y22159698D01*
X16591718Y22107030D01*
X16697377Y22043700D01*
X16796319Y21970319D01*
X16887594Y21887594D01*
X16970319Y21796319D01*
X17043700Y21697377D01*
X17107030Y21591718D01*
X17159698Y21480360D01*
X17201197Y21364378D01*
X17231126Y21244892D01*
X17249202Y21123027D01*
X17255248Y21000000D01*
X17249202Y20876973D01*
X17231126Y20755108D01*
X17201197Y20635622D01*
X17159698Y20519640D01*
X17107030Y20408282D01*
X17043700Y20302623D01*
X16970319Y20203681D01*
X16887594Y20112406D01*
X16796319Y20029681D01*
X16697377Y19956300D01*
X16591718Y19892970D01*
X16480360Y19840302D01*
X16364378Y19798803D01*
X16244892Y19768874D01*
X16123027Y19750798D01*
X16000000Y19744752D01*
D02*
G37*
%LPC*%
G36*
X29605000Y31697553D02*
X29605000Y32385000D01*
X30292447Y32385000D01*
X30284865Y32333883D01*
X30265781Y32257698D01*
X30239328Y32183767D01*
X30205749Y32112771D01*
X30165370Y32045403D01*
X30118598Y31982337D01*
X30065856Y31924144D01*
X30007663Y31871402D01*
X29944597Y31824630D01*
X29877229Y31784251D01*
X29806233Y31750672D01*
X29732302Y31724219D01*
X29656117Y31705135D01*
X29605000Y31697553D01*
D02*
G37*
%LPC*%
G36*
X29395000Y31697553D02*
X29343883Y31705135D01*
X29267698Y31724219D01*
X29193767Y31750672D01*
X29122771Y31784251D01*
X29055403Y31824630D01*
X28992337Y31871402D01*
X28934144Y31924144D01*
X28881402Y31982337D01*
X28834630Y32045403D01*
X28794251Y32112771D01*
X28760672Y32183767D01*
X28734219Y32257698D01*
X28715135Y32333883D01*
X28707553Y32385000D01*
X29395000Y32385000D01*
X29395000Y31697553D01*
D02*
G37*
%LPC*%
G36*
X55145000Y27785000D02*
X53335000Y27785000D01*
X53335000Y29295000D01*
X53885000Y29295000D01*
X53885000Y30212953D01*
X53092953Y31005000D01*
X51765000Y31005000D01*
X51765000Y30705000D01*
X50355000Y30705000D01*
X50355000Y32015000D01*
X51765000Y32015000D01*
X51765000Y31715000D01*
X53250077Y31715000D01*
X53309451Y31709151D01*
X53376229Y31688893D01*
X53437776Y31655996D01*
X53483897Y31618148D01*
X54498148Y30603897D01*
X54535996Y30557776D01*
X54568893Y30496229D01*
X54589151Y30429451D01*
X54595000Y30370077D01*
X54595000Y29295000D01*
X55145000Y29295000D01*
X55145000Y28895000D01*
X55715000Y28895000D01*
X55715000Y28985000D01*
X57025000Y28985000D01*
X57025000Y28075000D01*
X55715000Y28075000D01*
X55715000Y28185000D01*
X55145000Y28185000D01*
X55145000Y27785000D01*
D02*
G37*
%LPC*%
G36*
X49515000Y28205000D02*
X48205000Y28205000D01*
X48205000Y29115000D01*
X48505000Y29115000D01*
X48505000Y29755000D01*
X48155000Y29755000D01*
X48155000Y30055000D01*
X47776715Y30055000D01*
X47742620Y30017382D01*
X47702240Y29980784D01*
X47658480Y29948329D01*
X47611744Y29920317D01*
X47562486Y29897020D01*
X47511175Y29878660D01*
X47458328Y29865423D01*
X47404417Y29857426D01*
X47350000Y29854752D01*
X47295583Y29857426D01*
X47241672Y29865423D01*
X47188825Y29878660D01*
X47137514Y29897020D01*
X47088256Y29920317D01*
X47041520Y29948329D01*
X46997760Y29980784D01*
X46957381Y30017381D01*
X46920784Y30057760D01*
X46888329Y30101520D01*
X46860317Y30148256D01*
X46837020Y30197514D01*
X46818660Y30248825D01*
X46805423Y30301672D01*
X46797426Y30355583D01*
X46794752Y30410000D01*
X46797426Y30464417D01*
X46805423Y30518328D01*
X46818660Y30571175D01*
X46837020Y30622486D01*
X46860317Y30671744D01*
X46888329Y30718480D01*
X46920784Y30762240D01*
X46957381Y30802619D01*
X46997760Y30839216D01*
X47041520Y30871671D01*
X47088256Y30899683D01*
X47137514Y30922980D01*
X47188825Y30941340D01*
X47241672Y30954577D01*
X47295583Y30962574D01*
X47350000Y30965248D01*
X47404417Y30962574D01*
X47458328Y30954577D01*
X47511175Y30941340D01*
X47562486Y30922980D01*
X47611744Y30899683D01*
X47658480Y30871671D01*
X47702240Y30839216D01*
X47742620Y30802618D01*
X47776715Y30765000D01*
X48155000Y30765000D01*
X48155000Y31065000D01*
X49565000Y31065000D01*
X49565000Y29755000D01*
X49215000Y29755000D01*
X49215000Y29115000D01*
X49515000Y29115000D01*
X49515000Y28205000D01*
D02*
G37*
%LPC*%
G36*
X29395000Y30095000D02*
X28707553Y30095000D01*
X28715135Y30146117D01*
X28734219Y30222302D01*
X28760672Y30296233D01*
X28794251Y30367229D01*
X28834630Y30434597D01*
X28881402Y30497663D01*
X28934144Y30555856D01*
X28992337Y30608598D01*
X29055403Y30655370D01*
X29122771Y30695749D01*
X29193767Y30729328D01*
X29267698Y30755781D01*
X29343883Y30774865D01*
X29395000Y30782447D01*
X29395000Y30095000D01*
D02*
G37*
%LPC*%
G36*
X30292447Y30095000D02*
X29605000Y30095000D01*
X29605000Y30782447D01*
X29656117Y30774865D01*
X29732302Y30755781D01*
X29806233Y30729328D01*
X29877229Y30695749D01*
X29944597Y30655370D01*
X30007663Y30608598D01*
X30065856Y30555856D01*
X30118598Y30497663D01*
X30165370Y30434597D01*
X30205749Y30367229D01*
X30239328Y30296233D01*
X30265781Y30222302D01*
X30284865Y30146117D01*
X30292447Y30095000D01*
D02*
G37*
%LPC*%
G36*
X18500000Y28905000D02*
X17605000Y28905000D01*
X17605000Y30475000D01*
X18500000Y30475000D01*
X18500000Y28905000D01*
D02*
G37*
%LPC*%
G36*
X17395000Y28905000D02*
X16500000Y28905000D01*
X16500000Y30475000D01*
X17395000Y30475000D01*
X17395000Y28905000D01*
D02*
G37*
%LPC*%
G36*
X29605000Y29197553D02*
X29605000Y29885000D01*
X30292447Y29885000D01*
X30284865Y29833883D01*
X30265781Y29757698D01*
X30239328Y29683767D01*
X30205749Y29612771D01*
X30165370Y29545403D01*
X30118598Y29482337D01*
X30065856Y29424144D01*
X30007663Y29371402D01*
X29944597Y29324630D01*
X29877229Y29284251D01*
X29806233Y29250672D01*
X29732302Y29224219D01*
X29656117Y29205135D01*
X29605000Y29197553D01*
D02*
G37*
%LPC*%
G36*
X29395000Y29197553D02*
X29343883Y29205135D01*
X29267698Y29224219D01*
X29193767Y29250672D01*
X29122771Y29284251D01*
X29055403Y29324630D01*
X28992337Y29371402D01*
X28934144Y29424144D01*
X28881402Y29482337D01*
X28834630Y29545403D01*
X28794251Y29612771D01*
X28760672Y29683767D01*
X28734219Y29757698D01*
X28715135Y29833883D01*
X28707553Y29885000D01*
X29395000Y29885000D01*
X29395000Y29197553D01*
D02*
G37*
%LPC*%
G36*
X7000000Y28255000D02*
X6105000Y28255000D01*
X6105000Y29600000D01*
X7000000Y29600000D01*
X7000000Y28255000D01*
D02*
G37*
%LPC*%
G36*
X5895000Y28255000D02*
X5000000Y28255000D01*
X5000000Y29600000D01*
X5895000Y29600000D01*
X5895000Y28255000D01*
D02*
G37*
%LPC*%
G36*
X55145000Y25985000D02*
X53335000Y25985000D01*
X53335000Y26385000D01*
X52605000Y26385000D01*
X52605000Y26085000D01*
X51695000Y26085000D01*
X51695000Y27395000D01*
X51795000Y27395000D01*
X51795000Y27900000D01*
X51545000Y27900000D01*
X51545000Y29160000D01*
X52755000Y29160000D01*
X52755000Y27900000D01*
X52505000Y27900000D01*
X52505000Y27395000D01*
X52605000Y27395000D01*
X52605000Y27095000D01*
X53335000Y27095000D01*
X53335000Y27495000D01*
X55145000Y27495000D01*
X55145000Y25985000D01*
D02*
G37*
%LPC*%
G36*
X51250000Y28635000D02*
X50755000Y28635000D01*
X50755000Y29155000D01*
X51250000Y29155000D01*
X51250000Y28635000D01*
D02*
G37*
%LPC*%
G36*
X50545000Y28635000D02*
X50050000Y28635000D01*
X50050000Y29155000D01*
X50545000Y29155000D01*
X50545000Y28635000D01*
D02*
G37*
%LPC*%
G36*
X18500000Y27125000D02*
X17605000Y27125000D01*
X17605000Y28695000D01*
X18500000Y28695000D01*
X18500000Y27125000D01*
D02*
G37*
%LPC*%
G36*
X17395000Y27125000D02*
X16500000Y27125000D01*
X16500000Y28695000D01*
X17395000Y28695000D01*
X17395000Y27125000D01*
D02*
G37*
%LPC*%
G36*
X25695000Y27675000D02*
X24805609Y27675000D01*
X24818978Y27765137D01*
X24842831Y27860359D01*
X24875899Y27952777D01*
X24917864Y28041508D01*
X24968328Y28125700D01*
X25026805Y28204547D01*
X25092723Y28277277D01*
X25165453Y28343195D01*
X25244300Y28401672D01*
X25328492Y28452136D01*
X25417223Y28494101D01*
X25509641Y28527169D01*
X25604863Y28551022D01*
X25695000Y28564391D01*
X25695000Y27675000D01*
D02*
G37*
%LPC*%
G36*
X26794391Y27675000D02*
X25905000Y27675000D01*
X25905000Y28564391D01*
X25995137Y28551022D01*
X26090359Y28527169D01*
X26182777Y28494101D01*
X26271508Y28452136D01*
X26355700Y28401672D01*
X26434547Y28343195D01*
X26507277Y28277277D01*
X26573195Y28204547D01*
X26631672Y28125700D01*
X26682136Y28041508D01*
X26724101Y27952777D01*
X26757169Y27860359D01*
X26781022Y27765137D01*
X26794391Y27675000D01*
D02*
G37*
%LPC*%
G36*
X28195000Y27675000D02*
X27305609Y27675000D01*
X27318978Y27765137D01*
X27342831Y27860359D01*
X27375899Y27952777D01*
X27417864Y28041508D01*
X27468328Y28125700D01*
X27526805Y28204547D01*
X27592723Y28277277D01*
X27665453Y28343195D01*
X27744300Y28401672D01*
X27828492Y28452136D01*
X27917223Y28494101D01*
X28009641Y28527169D01*
X28104863Y28551022D01*
X28195000Y28564391D01*
X28195000Y27675000D01*
D02*
G37*
%LPC*%
G36*
X29294391Y27675000D02*
X28405000Y27675000D01*
X28405000Y28564391D01*
X28495137Y28551022D01*
X28590359Y28527169D01*
X28682777Y28494101D01*
X28771508Y28452136D01*
X28855700Y28401672D01*
X28934547Y28343195D01*
X29007277Y28277277D01*
X29073195Y28204547D01*
X29131672Y28125700D01*
X29182136Y28041508D01*
X29224101Y27952777D01*
X29257169Y27860359D01*
X29281022Y27765137D01*
X29294391Y27675000D01*
D02*
G37*
%LPC*%
G36*
X30695000Y27675000D02*
X29805609Y27675000D01*
X29818978Y27765137D01*
X29842831Y27860359D01*
X29875899Y27952777D01*
X29917864Y28041508D01*
X29968328Y28125700D01*
X30026805Y28204547D01*
X30092723Y28277277D01*
X30165453Y28343195D01*
X30244300Y28401672D01*
X30328492Y28452136D01*
X30417223Y28494101D01*
X30509641Y28527169D01*
X30604863Y28551022D01*
X30695000Y28564391D01*
X30695000Y27675000D01*
D02*
G37*
%LPC*%
G36*
X31794391Y27675000D02*
X30905000Y27675000D01*
X30905000Y28564391D01*
X30995137Y28551022D01*
X31090359Y28527169D01*
X31182777Y28494101D01*
X31271508Y28452136D01*
X31355700Y28401672D01*
X31434547Y28343195D01*
X31507277Y28277277D01*
X31573195Y28204547D01*
X31631672Y28125700D01*
X31682136Y28041508D01*
X31724101Y27952777D01*
X31757169Y27860359D01*
X31781022Y27765137D01*
X31794391Y27675000D01*
D02*
G37*
%LPC*%
G36*
X51250000Y27905000D02*
X50755000Y27905000D01*
X50755000Y28425000D01*
X51250000Y28425000D01*
X51250000Y27905000D01*
D02*
G37*
%LPC*%
G36*
X50545000Y27905000D02*
X50050000Y27905000D01*
X50050000Y28425000D01*
X50545000Y28425000D01*
X50545000Y27905000D01*
D02*
G37*
%LPC*%
G36*
X7000000Y26700000D02*
X6105000Y26700000D01*
X6105000Y28045000D01*
X7000000Y28045000D01*
X7000000Y26700000D01*
D02*
G37*
%LPC*%
G36*
X5895000Y26700000D02*
X5000000Y26700000D01*
X5000000Y28045000D01*
X5895000Y28045000D01*
X5895000Y26700000D01*
D02*
G37*
%LPC*%
G36*
X34475000Y27115000D02*
X33787553Y27115000D01*
X33795135Y27166117D01*
X33814219Y27242302D01*
X33840672Y27316233D01*
X33874251Y27387229D01*
X33914630Y27454597D01*
X33961402Y27517663D01*
X34014144Y27575856D01*
X34072337Y27628598D01*
X34135403Y27675370D01*
X34202771Y27715749D01*
X34273767Y27749328D01*
X34347698Y27775781D01*
X34423883Y27794865D01*
X34475000Y27802447D01*
X34475000Y27115000D01*
D02*
G37*
%LPC*%
G36*
X35372447Y27115000D02*
X34685000Y27115000D01*
X34685000Y27802447D01*
X34736117Y27794865D01*
X34812302Y27775781D01*
X34886233Y27749328D01*
X34957229Y27715749D01*
X35024597Y27675370D01*
X35087663Y27628598D01*
X35145856Y27575856D01*
X35198598Y27517663D01*
X35245370Y27454597D01*
X35285749Y27387229D01*
X35319328Y27316233D01*
X35345781Y27242302D01*
X35364865Y27166117D01*
X35372447Y27115000D01*
D02*
G37*
%LPC*%
G36*
X36975000Y27115000D02*
X36287553Y27115000D01*
X36295135Y27166117D01*
X36314219Y27242302D01*
X36340672Y27316233D01*
X36374251Y27387229D01*
X36414630Y27454597D01*
X36461402Y27517663D01*
X36514144Y27575856D01*
X36572337Y27628598D01*
X36635403Y27675370D01*
X36702771Y27715749D01*
X36773767Y27749328D01*
X36847698Y27775781D01*
X36923883Y27794865D01*
X36975000Y27802447D01*
X36975000Y27115000D01*
D02*
G37*
%LPC*%
G36*
X37872447Y27115000D02*
X37185000Y27115000D01*
X37185000Y27802447D01*
X37236117Y27794865D01*
X37312302Y27775781D01*
X37386233Y27749328D01*
X37457229Y27715749D01*
X37524597Y27675370D01*
X37587663Y27628598D01*
X37645856Y27575856D01*
X37698598Y27517663D01*
X37745370Y27454597D01*
X37785749Y27387229D01*
X37819328Y27316233D01*
X37845781Y27242302D01*
X37864865Y27166117D01*
X37872447Y27115000D01*
D02*
G37*
%LPC*%
G36*
X49510000Y27265000D02*
X48965000Y27265000D01*
X48965000Y27610000D01*
X49510000Y27610000D01*
X49510000Y27265000D01*
D02*
G37*
%LPC*%
G36*
X48755000Y27265000D02*
X48210000Y27265000D01*
X48210000Y27610000D01*
X48755000Y27610000D01*
X48755000Y27265000D01*
D02*
G37*
%LPC*%
G36*
X57020000Y27135000D02*
X56475000Y27135000D01*
X56475000Y27480000D01*
X57020000Y27480000D01*
X57020000Y27135000D01*
D02*
G37*
%LPC*%
G36*
X56265000Y27135000D02*
X55720000Y27135000D01*
X55720000Y27480000D01*
X56265000Y27480000D01*
X56265000Y27135000D01*
D02*
G37*
%LPC*%
G36*
X30905000Y26575609D02*
X30905000Y27465000D01*
X31794391Y27465000D01*
X31781022Y27374863D01*
X31757169Y27279641D01*
X31724101Y27187223D01*
X31682136Y27098492D01*
X31631672Y27014300D01*
X31573195Y26935453D01*
X31507277Y26862723D01*
X31434547Y26796805D01*
X31355700Y26738328D01*
X31271508Y26687864D01*
X31182777Y26645899D01*
X31090359Y26612831D01*
X30995137Y26588978D01*
X30905000Y26575609D01*
D02*
G37*
%LPC*%
G36*
X30695000Y26575609D02*
X30604863Y26588978D01*
X30509641Y26612831D01*
X30417223Y26645899D01*
X30328492Y26687864D01*
X30244300Y26738328D01*
X30165453Y26796805D01*
X30092723Y26862723D01*
X30026805Y26935453D01*
X29968328Y27014300D01*
X29917864Y27098492D01*
X29875899Y27187223D01*
X29842831Y27279641D01*
X29818978Y27374863D01*
X29805609Y27465000D01*
X30695000Y27465000D01*
X30695000Y26575609D01*
D02*
G37*
%LPC*%
G36*
X28405000Y26575609D02*
X28405000Y27465000D01*
X29294391Y27465000D01*
X29281022Y27374863D01*
X29257169Y27279641D01*
X29224101Y27187223D01*
X29182136Y27098492D01*
X29131672Y27014300D01*
X29073195Y26935453D01*
X29007277Y26862723D01*
X28934547Y26796805D01*
X28855700Y26738328D01*
X28771508Y26687864D01*
X28682777Y26645899D01*
X28590359Y26612831D01*
X28495137Y26588978D01*
X28405000Y26575609D01*
D02*
G37*
%LPC*%
G36*
X28195000Y26575609D02*
X28104863Y26588978D01*
X28009641Y26612831D01*
X27917223Y26645899D01*
X27828492Y26687864D01*
X27744300Y26738328D01*
X27665453Y26796805D01*
X27592723Y26862723D01*
X27526805Y26935453D01*
X27468328Y27014300D01*
X27417864Y27098492D01*
X27375899Y27187223D01*
X27342831Y27279641D01*
X27318978Y27374863D01*
X27305609Y27465000D01*
X28195000Y27465000D01*
X28195000Y26575609D01*
D02*
G37*
%LPC*%
G36*
X25905000Y26575609D02*
X25905000Y27465000D01*
X26794391Y27465000D01*
X26781022Y27374863D01*
X26757169Y27279641D01*
X26724101Y27187223D01*
X26682136Y27098492D01*
X26631672Y27014300D01*
X26573195Y26935453D01*
X26507277Y26862723D01*
X26434547Y26796805D01*
X26355700Y26738328D01*
X26271508Y26687864D01*
X26182777Y26645899D01*
X26090359Y26612831D01*
X25995137Y26588978D01*
X25905000Y26575609D01*
D02*
G37*
%LPC*%
G36*
X25695000Y26575609D02*
X25604863Y26588978D01*
X25509641Y26612831D01*
X25417223Y26645899D01*
X25328492Y26687864D01*
X25244300Y26738328D01*
X25165453Y26796805D01*
X25092723Y26862723D01*
X25026805Y26935453D01*
X24968328Y27014300D01*
X24917864Y27098492D01*
X24875899Y27187223D01*
X24842831Y27279641D01*
X24818978Y27374863D01*
X24805609Y27465000D01*
X25695000Y27465000D01*
X25695000Y26575609D01*
D02*
G37*
%LPC*%
G36*
X48000000Y19744752D02*
X47876973Y19750798D01*
X47755108Y19768874D01*
X47635622Y19798803D01*
X47519640Y19840302D01*
X47408282Y19892970D01*
X47302623Y19956300D01*
X47203681Y20029681D01*
X47112406Y20112406D01*
X47029681Y20203681D01*
X46956300Y20302623D01*
X46892970Y20408282D01*
X46840302Y20519640D01*
X46795448Y20645000D01*
X44204552Y20645000D01*
X44159698Y20519640D01*
X44107030Y20408282D01*
X44043700Y20302623D01*
X43970319Y20203681D01*
X43887594Y20112406D01*
X43796319Y20029681D01*
X43697377Y19956300D01*
X43591718Y19892970D01*
X43480360Y19840302D01*
X43364378Y19798803D01*
X43244892Y19768874D01*
X43123027Y19750798D01*
X43000000Y19744752D01*
X42876973Y19750798D01*
X42755108Y19768874D01*
X42635622Y19798803D01*
X42519640Y19840302D01*
X42408282Y19892970D01*
X42302623Y19956300D01*
X42203681Y20029681D01*
X42112406Y20112406D01*
X42029681Y20203681D01*
X41956300Y20302623D01*
X41892970Y20408282D01*
X41840302Y20519640D01*
X41798803Y20635622D01*
X41768874Y20755108D01*
X41750798Y20876973D01*
X41744752Y21000000D01*
X41750798Y21123027D01*
X41768874Y21244892D01*
X41798803Y21364378D01*
X41840302Y21480360D01*
X41892970Y21591718D01*
X41956300Y21697377D01*
X42029681Y21796319D01*
X42112406Y21887594D01*
X42203681Y21970319D01*
X42302623Y22043700D01*
X42408282Y22107030D01*
X42519640Y22159698D01*
X42635622Y22201197D01*
X42755108Y22231126D01*
X42876973Y22249202D01*
X43000000Y22255248D01*
X43123027Y22249202D01*
X43244892Y22231126D01*
X43364378Y22201197D01*
X43480360Y22159698D01*
X43591718Y22107030D01*
X43697377Y22043700D01*
X43796319Y21970319D01*
X43887594Y21887594D01*
X43970319Y21796319D01*
X44043700Y21697377D01*
X44107030Y21591718D01*
X44159698Y21480360D01*
X44204552Y21355000D01*
X46795448Y21355000D01*
X46840302Y21480360D01*
X46892970Y21591718D01*
X46956300Y21697377D01*
X47029681Y21796319D01*
X47112406Y21887594D01*
X47203681Y21970319D01*
X47302623Y22043700D01*
X47408282Y22107030D01*
X47519640Y22159698D01*
X47635622Y22201197D01*
X47755108Y22231126D01*
X47876973Y22249202D01*
X48000000Y22255248D01*
X48123027Y22249202D01*
X48244892Y22231126D01*
X48364378Y22201197D01*
X48480360Y22159698D01*
X48600724Y22102771D01*
X50295000Y23797047D01*
X50295000Y26085000D01*
X50195000Y26085000D01*
X50195000Y27395000D01*
X51105000Y27395000D01*
X51105000Y26085000D01*
X51005000Y26085000D01*
X51005000Y23639923D01*
X50999151Y23580548D01*
X50978893Y23513770D01*
X50945996Y23452222D01*
X50902220Y23398877D01*
X50894448Y23392401D01*
X49102771Y21600724D01*
X49159698Y21480360D01*
X49201197Y21364378D01*
X49231126Y21244892D01*
X49249202Y21123027D01*
X49255248Y21000000D01*
X49249202Y20876973D01*
X49231126Y20755108D01*
X49201197Y20635622D01*
X49159698Y20519640D01*
X49107030Y20408282D01*
X49043700Y20302623D01*
X48970319Y20203681D01*
X48887594Y20112406D01*
X48796319Y20029681D01*
X48697377Y19956300D01*
X48591718Y19892970D01*
X48480360Y19840302D01*
X48364378Y19798803D01*
X48244892Y19768874D01*
X48123027Y19750798D01*
X48000000Y19744752D01*
D02*
G37*
%LPC*%
G36*
X49510000Y26710000D02*
X48965000Y26710000D01*
X48965000Y27055000D01*
X49510000Y27055000D01*
X49510000Y26710000D01*
D02*
G37*
%LPC*%
G36*
X48755000Y26710000D02*
X48210000Y26710000D01*
X48210000Y27055000D01*
X48755000Y27055000D01*
X48755000Y26710000D01*
D02*
G37*
%LPC*%
G36*
X57020000Y26580000D02*
X56475000Y26580000D01*
X56475000Y26925000D01*
X57020000Y26925000D01*
X57020000Y26580000D01*
D02*
G37*
%LPC*%
G36*
X56265000Y26580000D02*
X55720000Y26580000D01*
X55720000Y26925000D01*
X56265000Y26925000D01*
X56265000Y26580000D01*
D02*
G37*
%LPC*%
G36*
X37185000Y26217553D02*
X37185000Y26905000D01*
X37872447Y26905000D01*
X37864865Y26853883D01*
X37845781Y26777698D01*
X37819328Y26703767D01*
X37785749Y26632771D01*
X37745370Y26565403D01*
X37698598Y26502337D01*
X37645856Y26444144D01*
X37587663Y26391402D01*
X37524597Y26344630D01*
X37457229Y26304251D01*
X37386233Y26270672D01*
X37312302Y26244219D01*
X37236117Y26225135D01*
X37185000Y26217553D01*
D02*
G37*
%LPC*%
G36*
X36975000Y26217553D02*
X36923883Y26225135D01*
X36847698Y26244219D01*
X36773767Y26270672D01*
X36702771Y26304251D01*
X36635403Y26344630D01*
X36572337Y26391402D01*
X36514144Y26444144D01*
X36461402Y26502337D01*
X36414630Y26565403D01*
X36374251Y26632771D01*
X36340672Y26703767D01*
X36314219Y26777698D01*
X36295135Y26853883D01*
X36287553Y26905000D01*
X36975000Y26905000D01*
X36975000Y26217553D01*
D02*
G37*
%LPC*%
G36*
X34685000Y26217553D02*
X34685000Y26905000D01*
X35372447Y26905000D01*
X35364865Y26853883D01*
X35345781Y26777698D01*
X35319328Y26703767D01*
X35285749Y26632771D01*
X35245370Y26565403D01*
X35198598Y26502337D01*
X35145856Y26444144D01*
X35087663Y26391402D01*
X35024597Y26344630D01*
X34957229Y26304251D01*
X34886233Y26270672D01*
X34812302Y26244219D01*
X34736117Y26225135D01*
X34685000Y26217553D01*
D02*
G37*
%LPC*%
G36*
X34475000Y26217553D02*
X34423883Y26225135D01*
X34347698Y26244219D01*
X34273767Y26270672D01*
X34202771Y26304251D01*
X34135403Y26344630D01*
X34072337Y26391402D01*
X34014144Y26444144D01*
X33961402Y26502337D01*
X33914630Y26565403D01*
X33874251Y26632771D01*
X33840672Y26703767D01*
X33814219Y26777698D01*
X33795135Y26853883D01*
X33787553Y26905000D01*
X34475000Y26905000D01*
X34475000Y26217553D01*
D02*
G37*
%LPC*%
G36*
X11000000Y19744752D02*
X10876973Y19750798D01*
X10755108Y19768874D01*
X10635622Y19798803D01*
X10519640Y19840302D01*
X10408282Y19892970D01*
X10302623Y19956300D01*
X10203681Y20029681D01*
X10112406Y20112406D01*
X10029681Y20203681D01*
X9956300Y20302623D01*
X9892970Y20408282D01*
X9840302Y20519640D01*
X9795448Y20645000D01*
X7204552Y20645000D01*
X7159698Y20519640D01*
X7107030Y20408282D01*
X7043700Y20302623D01*
X6970319Y20203681D01*
X6887594Y20112406D01*
X6796319Y20029681D01*
X6697377Y19956300D01*
X6591718Y19892970D01*
X6480360Y19840302D01*
X6364378Y19798803D01*
X6244892Y19768874D01*
X6123027Y19750798D01*
X6000000Y19744752D01*
X5876973Y19750798D01*
X5755108Y19768874D01*
X5635622Y19798803D01*
X5519640Y19840302D01*
X5408282Y19892970D01*
X5302623Y19956300D01*
X5203681Y20029681D01*
X5112406Y20112406D01*
X5029681Y20203681D01*
X4956300Y20302623D01*
X4892970Y20408282D01*
X4840302Y20519640D01*
X4798803Y20635622D01*
X4768874Y20755108D01*
X4750798Y20876973D01*
X4744752Y21000000D01*
X4750798Y21123027D01*
X4768874Y21244892D01*
X4798803Y21364378D01*
X4840302Y21480360D01*
X4892970Y21591718D01*
X4956300Y21697377D01*
X5029681Y21796319D01*
X5112406Y21887594D01*
X5203681Y21970319D01*
X5302623Y22043700D01*
X5408282Y22107030D01*
X5519640Y22159698D01*
X5645000Y22204552D01*
X5645000Y23395000D01*
X4995000Y23395000D01*
X4995000Y26305000D01*
X7005000Y26305000D01*
X7005000Y23395000D01*
X6355000Y23395000D01*
X6355000Y22204552D01*
X6480360Y22159698D01*
X6591718Y22107030D01*
X6697377Y22043700D01*
X6796319Y21970319D01*
X6887594Y21887594D01*
X6970319Y21796319D01*
X7043700Y21697377D01*
X7107030Y21591718D01*
X7159698Y21480360D01*
X7204552Y21355000D01*
X9795448Y21355000D01*
X9840302Y21480360D01*
X9892970Y21591718D01*
X9956300Y21697377D01*
X10029681Y21796319D01*
X10112406Y21887594D01*
X10203681Y21970319D01*
X10302623Y22043700D01*
X10408282Y22107030D01*
X10519640Y22159698D01*
X10635622Y22201197D01*
X10755108Y22231126D01*
X10876973Y22249202D01*
X11000000Y22255248D01*
X11123027Y22249202D01*
X11244892Y22231126D01*
X11364378Y22201197D01*
X11480360Y22159698D01*
X11591718Y22107030D01*
X11697377Y22043700D01*
X11796319Y21970319D01*
X11887594Y21887594D01*
X11970319Y21796319D01*
X12043700Y21697377D01*
X12107030Y21591718D01*
X12159698Y21480360D01*
X12201197Y21364378D01*
X12231126Y21244892D01*
X12249202Y21123027D01*
X12255248Y21000000D01*
X12249202Y20876973D01*
X12231126Y20755108D01*
X12201197Y20635622D01*
X12159698Y20519640D01*
X12107030Y20408282D01*
X12043700Y20302623D01*
X11970319Y20203681D01*
X11887594Y20112406D01*
X11796319Y20029681D01*
X11697377Y19956300D01*
X11591718Y19892970D01*
X11480360Y19840302D01*
X11364378Y19798803D01*
X11244892Y19768874D01*
X11123027Y19750798D01*
X11000000Y19744752D01*
D02*
G37*
%LPC*%
G36*
X36975000Y24675000D02*
X36085609Y24675000D01*
X36098978Y24765137D01*
X36122831Y24860359D01*
X36155899Y24952777D01*
X36197864Y25041508D01*
X36248328Y25125700D01*
X36306805Y25204547D01*
X36372723Y25277277D01*
X36445453Y25343195D01*
X36524300Y25401672D01*
X36608492Y25452136D01*
X36697223Y25494101D01*
X36789641Y25527169D01*
X36884863Y25551022D01*
X36975000Y25564391D01*
X36975000Y24675000D01*
D02*
G37*
%LPC*%
G36*
X38074391Y24675000D02*
X37185000Y24675000D01*
X37185000Y25564391D01*
X37275137Y25551022D01*
X37370359Y25527169D01*
X37462777Y25494101D01*
X37551508Y25452136D01*
X37635700Y25401672D01*
X37714547Y25343195D01*
X37787277Y25277277D01*
X37853195Y25204547D01*
X37911672Y25125700D01*
X37962136Y25041508D01*
X38004101Y24952777D01*
X38037169Y24860359D01*
X38061022Y24765137D01*
X38074391Y24675000D01*
D02*
G37*
%LPC*%
G36*
X24345000Y20590000D02*
X23135000Y20590000D01*
X23135000Y21850000D01*
X23369781Y21850000D01*
X23411105Y21986228D01*
X23444003Y22047777D01*
X23487779Y22101122D01*
X23495551Y22107598D01*
X25021784Y23633831D01*
X24964171Y23711511D01*
X24913445Y23796140D01*
X24871275Y23885304D01*
X24838038Y23978193D01*
X24814069Y24073884D01*
X24799594Y24171475D01*
X24794752Y24270000D01*
X24799594Y24368525D01*
X24814069Y24466116D01*
X24838038Y24561807D01*
X24871275Y24654696D01*
X24913445Y24743860D01*
X24964170Y24828488D01*
X25022935Y24907723D01*
X25089183Y24980817D01*
X25162277Y25047065D01*
X25241512Y25105830D01*
X25326140Y25156555D01*
X25415304Y25198725D01*
X25508193Y25231962D01*
X25603884Y25255931D01*
X25701475Y25270406D01*
X25800000Y25275248D01*
X25898525Y25270406D01*
X25996116Y25255931D01*
X26091807Y25231962D01*
X26184696Y25198725D01*
X26273860Y25156555D01*
X26358488Y25105830D01*
X26437723Y25047065D01*
X26510817Y24980817D01*
X26577065Y24907723D01*
X26635830Y24828488D01*
X26686555Y24743860D01*
X26728725Y24654696D01*
X26761962Y24561807D01*
X26785931Y24466116D01*
X26800406Y24368525D01*
X26805248Y24270000D01*
X26800406Y24171475D01*
X26785931Y24073884D01*
X26761962Y23978193D01*
X26728725Y23885304D01*
X26686555Y23796140D01*
X26635830Y23711512D01*
X26577065Y23632277D01*
X26510817Y23559183D01*
X26437723Y23492935D01*
X26358488Y23434170D01*
X26273860Y23383445D01*
X26184696Y23341275D01*
X26091807Y23308038D01*
X25996116Y23284069D01*
X25898525Y23269594D01*
X25800000Y23264752D01*
X25663507Y23271460D01*
X24345000Y21952953D01*
X24345000Y20590000D01*
D02*
G37*
%LPC*%
G36*
X30800000Y23264752D02*
X30701475Y23269594D01*
X30603884Y23284069D01*
X30508193Y23308038D01*
X30415304Y23341275D01*
X30326140Y23383445D01*
X30241512Y23434170D01*
X30162277Y23492935D01*
X30089183Y23559183D01*
X30022935Y23632277D01*
X29964170Y23711512D01*
X29913445Y23796140D01*
X29871275Y23885304D01*
X29838038Y23978193D01*
X29814069Y24073884D01*
X29799594Y24171475D01*
X29794752Y24270000D01*
X29799594Y24368525D01*
X29814069Y24466116D01*
X29838038Y24561807D01*
X29871275Y24654696D01*
X29913445Y24743860D01*
X29964170Y24828488D01*
X30022935Y24907723D01*
X30089183Y24980817D01*
X30162277Y25047065D01*
X30241512Y25105830D01*
X30326140Y25156555D01*
X30415304Y25198725D01*
X30508193Y25231962D01*
X30603884Y25255931D01*
X30701475Y25270406D01*
X30800000Y25275248D01*
X30898525Y25270406D01*
X30996116Y25255931D01*
X31091807Y25231962D01*
X31184696Y25198725D01*
X31273860Y25156555D01*
X31358488Y25105830D01*
X31437723Y25047065D01*
X31510817Y24980817D01*
X31577065Y24907723D01*
X31635830Y24828488D01*
X31686555Y24743860D01*
X31728725Y24654696D01*
X31761962Y24561807D01*
X31785931Y24466116D01*
X31800406Y24368525D01*
X31805248Y24270000D01*
X31800406Y24171475D01*
X31785931Y24073884D01*
X31761962Y23978193D01*
X31728725Y23885304D01*
X31686555Y23796140D01*
X31635830Y23711512D01*
X31577065Y23632277D01*
X31510817Y23559183D01*
X31437723Y23492935D01*
X31358488Y23434170D01*
X31273860Y23383445D01*
X31184696Y23341275D01*
X31091807Y23308038D01*
X30996116Y23284069D01*
X30898525Y23269594D01*
X30800000Y23264752D01*
D02*
G37*
%LPC*%
G36*
X37185000Y23575609D02*
X37185000Y24465000D01*
X38074391Y24465000D01*
X38061022Y24374863D01*
X38037169Y24279641D01*
X38004101Y24187223D01*
X37962136Y24098492D01*
X37911672Y24014300D01*
X37853195Y23935453D01*
X37787277Y23862723D01*
X37714547Y23796805D01*
X37635700Y23738328D01*
X37551508Y23687864D01*
X37462777Y23645899D01*
X37370359Y23612831D01*
X37275137Y23588978D01*
X37185000Y23575609D01*
D02*
G37*
%LPC*%
G36*
X36975000Y23575609D02*
X36884863Y23588978D01*
X36789641Y23612831D01*
X36697223Y23645899D01*
X36608492Y23687864D01*
X36524300Y23738328D01*
X36445453Y23796805D01*
X36372723Y23862723D01*
X36306805Y23935453D01*
X36248328Y24014300D01*
X36197864Y24098492D01*
X36155899Y24187223D01*
X36122831Y24279641D01*
X36098978Y24374863D01*
X36085609Y24465000D01*
X36975000Y24465000D01*
X36975000Y23575609D01*
D02*
G37*
%LPC*%
G36*
X25840000Y21325000D02*
X25345000Y21325000D01*
X25345000Y21845000D01*
X25840000Y21845000D01*
X25840000Y21325000D01*
D02*
G37*
%LPC*%
G36*
X25135000Y21325000D02*
X24640000Y21325000D01*
X24640000Y21845000D01*
X25135000Y21845000D01*
X25135000Y21325000D01*
D02*
G37*
%LPC*%
G36*
X25840000Y20595000D02*
X25345000Y20595000D01*
X25345000Y21115000D01*
X25840000Y21115000D01*
X25840000Y20595000D01*
D02*
G37*
%LPC*%
G36*
X25135000Y20595000D02*
X24640000Y20595000D01*
X24640000Y21115000D01*
X25135000Y21115000D01*
X25135000Y20595000D01*
D02*
G37*
%LPC*%
G36*
X29825711Y18437526D02*
X26674291Y18437526D01*
X26674291Y19085000D01*
X25835000Y19085000D01*
X25835000Y18785000D01*
X24925000Y18785000D01*
X24925000Y20095000D01*
X25835000Y20095000D01*
X25835000Y19795000D01*
X26674291Y19795000D01*
X26674291Y20442474D01*
X29825711Y20442474D01*
X29825711Y18437526D01*
D02*
G37*
%LPC*%
G36*
X20225000Y15635000D02*
X19115000Y15635000D01*
X19115000Y16945000D01*
X19315000Y16945000D01*
X19315000Y17773285D01*
X19277382Y17807380D01*
X19240784Y17847760D01*
X19208329Y17891520D01*
X19180317Y17938256D01*
X19157020Y17987514D01*
X19138660Y18038825D01*
X19125423Y18091672D01*
X19117426Y18145583D01*
X19114752Y18200000D01*
X19117426Y18254417D01*
X19125423Y18308328D01*
X19138660Y18361175D01*
X19157020Y18412486D01*
X19180317Y18461744D01*
X19208329Y18508480D01*
X19240784Y18552240D01*
X19277381Y18592619D01*
X19317760Y18629216D01*
X19361520Y18661671D01*
X19408256Y18689683D01*
X19457514Y18712980D01*
X19508825Y18731340D01*
X19561672Y18744577D01*
X19615583Y18752574D01*
X19670000Y18755248D01*
X19724417Y18752574D01*
X19778328Y18744577D01*
X19831175Y18731340D01*
X19882486Y18712980D01*
X19931744Y18689683D01*
X19978480Y18661671D01*
X20022240Y18629216D01*
X20062619Y18592619D01*
X20099216Y18552240D01*
X20131671Y18508480D01*
X20159683Y18461744D01*
X20182980Y18412486D01*
X20201340Y18361175D01*
X20214577Y18308328D01*
X20222574Y18254417D01*
X20225248Y18200000D01*
X20222574Y18145583D01*
X20214577Y18091672D01*
X20201340Y18038825D01*
X20182980Y17987514D01*
X20159683Y17938256D01*
X20131671Y17891520D01*
X20099216Y17847760D01*
X20062618Y17807380D01*
X20025000Y17773285D01*
X20025000Y16945000D01*
X20225000Y16945000D01*
X20225000Y15635000D01*
D02*
G37*
%LPC*%
G36*
X22855000Y15135000D02*
X21545000Y15135000D01*
X21545000Y16045000D01*
X21845000Y16045000D01*
X21845000Y17773285D01*
X21807382Y17807380D01*
X21770784Y17847760D01*
X21738329Y17891520D01*
X21710317Y17938256D01*
X21687020Y17987514D01*
X21668660Y18038825D01*
X21655423Y18091672D01*
X21647426Y18145583D01*
X21644752Y18200000D01*
X21647426Y18254417D01*
X21655423Y18308328D01*
X21668660Y18361175D01*
X21687020Y18412486D01*
X21710317Y18461744D01*
X21738329Y18508480D01*
X21770784Y18552240D01*
X21807381Y18592619D01*
X21847760Y18629216D01*
X21891520Y18661671D01*
X21938256Y18689683D01*
X21987514Y18712980D01*
X22038825Y18731340D01*
X22091672Y18744577D01*
X22145583Y18752574D01*
X22200000Y18755248D01*
X22254417Y18752574D01*
X22308328Y18744577D01*
X22361175Y18731340D01*
X22412486Y18712980D01*
X22461744Y18689683D01*
X22508480Y18661671D01*
X22552240Y18629216D01*
X22592619Y18592619D01*
X22629216Y18552240D01*
X22661671Y18508480D01*
X22689683Y18461744D01*
X22712980Y18412486D01*
X22731340Y18361175D01*
X22744577Y18308328D01*
X22752574Y18254417D01*
X22755248Y18200000D01*
X22752574Y18145583D01*
X22744577Y18091672D01*
X22731340Y18038825D01*
X22712980Y17987514D01*
X22689683Y17938256D01*
X22661671Y17891520D01*
X22629216Y17847760D01*
X22592618Y17807380D01*
X22555000Y17773285D01*
X22555000Y16045000D01*
X22855000Y16045000D01*
X22855000Y15135000D01*
D02*
G37*
%LPC*%
G36*
X36975000Y17265000D02*
X36085609Y17265000D01*
X36098978Y17355137D01*
X36122831Y17450359D01*
X36155899Y17542777D01*
X36197864Y17631508D01*
X36248328Y17715700D01*
X36306805Y17794547D01*
X36372723Y17867277D01*
X36445453Y17933195D01*
X36524300Y17991672D01*
X36608492Y18042136D01*
X36697223Y18084101D01*
X36789641Y18117169D01*
X36884863Y18141022D01*
X36975000Y18154391D01*
X36975000Y17265000D01*
D02*
G37*
%LPC*%
G36*
X38074391Y17265000D02*
X37185000Y17265000D01*
X37185000Y18154391D01*
X37275137Y18141022D01*
X37370359Y18117169D01*
X37462777Y18084101D01*
X37551508Y18042136D01*
X37635700Y17991672D01*
X37714547Y17933195D01*
X37787277Y17867277D01*
X37853195Y17794547D01*
X37911672Y17715700D01*
X37962136Y17631508D01*
X38004101Y17542777D01*
X38037169Y17450359D01*
X38061022Y17355137D01*
X38074391Y17265000D01*
D02*
G37*
%LPC*%
G36*
X37185000Y16165609D02*
X37185000Y17055000D01*
X38074391Y17055000D01*
X38061022Y16964863D01*
X38037169Y16869641D01*
X38004101Y16777223D01*
X37962136Y16688492D01*
X37911672Y16604300D01*
X37853195Y16525453D01*
X37787277Y16452723D01*
X37714547Y16386805D01*
X37635700Y16328328D01*
X37551508Y16277864D01*
X37462777Y16235899D01*
X37370359Y16202831D01*
X37275137Y16178978D01*
X37185000Y16165609D01*
D02*
G37*
%LPC*%
G36*
X36975000Y16165609D02*
X36884863Y16178978D01*
X36789641Y16202831D01*
X36697223Y16235899D01*
X36608492Y16277864D01*
X36524300Y16328328D01*
X36445453Y16386805D01*
X36372723Y16452723D01*
X36306805Y16525453D01*
X36248328Y16604300D01*
X36197864Y16688492D01*
X36155899Y16777223D01*
X36122831Y16869641D01*
X36098978Y16964863D01*
X36085609Y17055000D01*
X36975000Y17055000D01*
X36975000Y16165609D01*
D02*
G37*
%LPC*%
G36*
X42125000Y9845000D02*
X40815000Y9845000D01*
X40815000Y11255000D01*
X42125000Y11255000D01*
X42125000Y11155000D01*
X44089401Y11155000D01*
X44785000Y11850599D01*
X44785000Y13455000D01*
X45635000Y13455000D01*
X45635000Y15235608D01*
X45570461Y15322630D01*
X45529838Y15390406D01*
X45496047Y15461851D01*
X45469429Y15536244D01*
X45450225Y15612906D01*
X45438631Y15691077D01*
X45434752Y15770000D01*
X45438631Y15848923D01*
X45450225Y15927094D01*
X45469429Y16003756D01*
X45496047Y16078149D01*
X45529838Y16149594D01*
X45570461Y16217370D01*
X45617536Y16280843D01*
X45670604Y16339396D01*
X45729157Y16392464D01*
X45792630Y16439539D01*
X45860406Y16480162D01*
X45931851Y16513953D01*
X46006244Y16540571D01*
X46082906Y16559775D01*
X46161077Y16571369D01*
X46240000Y16575248D01*
X46318923Y16571369D01*
X46397094Y16559775D01*
X46473756Y16540571D01*
X46548149Y16513953D01*
X46619594Y16480162D01*
X46687370Y16439539D01*
X46750843Y16392464D01*
X46809396Y16339396D01*
X46862464Y16280843D01*
X46909539Y16217370D01*
X46950162Y16149594D01*
X46983953Y16078149D01*
X47010571Y16003756D01*
X47029775Y15927094D01*
X47041369Y15848923D01*
X47045248Y15770000D01*
X47041369Y15691077D01*
X47029775Y15612906D01*
X47010571Y15536244D01*
X46983953Y15461851D01*
X46950162Y15390406D01*
X46909539Y15322630D01*
X46845000Y15235608D01*
X46845000Y13455000D01*
X47695000Y13455000D01*
X47695000Y11445000D01*
X46090599Y11445000D01*
X44774371Y10128772D01*
X44767902Y10121009D01*
X44676669Y10046135D01*
X44571904Y9990137D01*
X44458224Y9955652D01*
X44350065Y9945000D01*
X42125000Y9945000D01*
X42125000Y9845000D01*
D02*
G37*
%LPC*%
G36*
X34900000Y13955000D02*
X34005000Y13955000D01*
X34005000Y15300000D01*
X34900000Y15300000D01*
X34900000Y13955000D01*
D02*
G37*
%LPC*%
G36*
X33795000Y13955000D02*
X32900000Y13955000D01*
X32900000Y15300000D01*
X33795000Y15300000D01*
X33795000Y13955000D01*
D02*
G37*
%LPC*%
G36*
X19565000Y12155000D02*
X18255000Y12155000D01*
X18255000Y13065000D01*
X18665000Y13065000D01*
X18665000Y13735000D01*
X18465000Y13735000D01*
X18465000Y15045000D01*
X19575000Y15045000D01*
X19575000Y15040000D01*
X20215000Y15040000D01*
X20215000Y13740000D01*
X19575000Y13740000D01*
X19575000Y13735000D01*
X19375000Y13735000D01*
X19375000Y13065000D01*
X19565000Y13065000D01*
X19565000Y12155000D01*
D02*
G37*
%LPC*%
G36*
X20870000Y14495000D02*
X20425000Y14495000D01*
X20425000Y15040000D01*
X20870000Y15040000D01*
X20870000Y14495000D01*
D02*
G37*
%LPC*%
G36*
X22705000Y11070000D02*
X21695000Y11070000D01*
X21695000Y13030000D01*
X21845000Y13030000D01*
X21845000Y13635000D01*
X21545000Y13635000D01*
X21545000Y14545000D01*
X22855000Y14545000D01*
X22855000Y13635000D01*
X22555000Y13635000D01*
X22555000Y13030000D01*
X22705000Y13030000D01*
X22705000Y11070000D01*
D02*
G37*
%LPC*%
G36*
X20870000Y13740000D02*
X20425000Y13740000D01*
X20425000Y14285000D01*
X20870000Y14285000D01*
X20870000Y13740000D01*
D02*
G37*
%LPC*%
G36*
X34900000Y12400000D02*
X34005000Y12400000D01*
X34005000Y13745000D01*
X34900000Y13745000D01*
X34900000Y12400000D01*
D02*
G37*
%LPC*%
G36*
X33795000Y12400000D02*
X32900000Y12400000D01*
X32900000Y13745000D01*
X33795000Y13745000D01*
X33795000Y12400000D01*
D02*
G37*
%LPC*%
G36*
X50990000Y12555000D02*
X49645000Y12555000D01*
X49645000Y13450000D01*
X50990000Y13450000D01*
X50990000Y12555000D01*
D02*
G37*
%LPC*%
G36*
X49435000Y12555000D02*
X48090000Y12555000D01*
X48090000Y13450000D01*
X49435000Y13450000D01*
X49435000Y12555000D01*
D02*
G37*
%LPC*%
G36*
X41170000Y12855000D02*
X40625000Y12855000D01*
X40625000Y13450000D01*
X41170000Y13450000D01*
X41170000Y12855000D01*
D02*
G37*
%LPC*%
G36*
X40415000Y12855000D02*
X39870000Y12855000D01*
X39870000Y13450000D01*
X40415000Y13450000D01*
X40415000Y12855000D01*
D02*
G37*
%LPC*%
G36*
X34905000Y9095000D02*
X32895000Y9095000D01*
X32895000Y10045000D01*
X31241716Y10045000D01*
X31197400Y10004834D01*
X31141821Y9963614D01*
X31082449Y9928027D01*
X31019886Y9898438D01*
X30954716Y9875118D01*
X30887595Y9858307D01*
X30819117Y9848148D01*
X30750000Y9844752D01*
X30680883Y9848148D01*
X30612405Y9858307D01*
X30545284Y9875118D01*
X30480114Y9898438D01*
X30417551Y9928027D01*
X30358179Y9963614D01*
X30302599Y10004834D01*
X30251315Y10051315D01*
X30204834Y10102599D01*
X30163614Y10158179D01*
X30128027Y10217551D01*
X30098438Y10280114D01*
X30075118Y10345284D01*
X30058307Y10412405D01*
X30048150Y10480873D01*
X30045215Y10540607D01*
X29040821Y11545000D01*
X27360000Y11545000D01*
X27360000Y11445000D01*
X26100000Y11445000D01*
X26100000Y11545000D01*
X25255000Y11545000D01*
X25255000Y11070000D01*
X24245000Y11070000D01*
X24245000Y12039924D01*
X24244008Y12050000D01*
X24245000Y12060069D01*
X24245000Y13030000D01*
X25255000Y13030000D01*
X25255000Y12555000D01*
X26100000Y12555000D01*
X26100000Y12655000D01*
X27360000Y12655000D01*
X27360000Y12555000D01*
X29260075Y12555000D01*
X29348713Y12546269D01*
X29443636Y12517474D01*
X29531113Y12470716D01*
X29599962Y12414215D01*
X30759393Y11254785D01*
X30819127Y11251850D01*
X30887595Y11241693D01*
X30954716Y11224882D01*
X31019886Y11201562D01*
X31082449Y11171973D01*
X31141821Y11136386D01*
X31197400Y11095166D01*
X31241716Y11055000D01*
X32895000Y11055000D01*
X32895000Y12005000D01*
X34905000Y12005000D01*
X34905000Y11055000D01*
X37060000Y11055000D01*
X37060000Y11155000D01*
X38320000Y11155000D01*
X38320000Y11055000D01*
X38915000Y11055000D01*
X38915000Y11255000D01*
X40225000Y11255000D01*
X40225000Y9845000D01*
X38915000Y9845000D01*
X38915000Y10045000D01*
X38320000Y10045000D01*
X38320000Y9945000D01*
X37060000Y9945000D01*
X37060000Y10045000D01*
X34905000Y10045000D01*
X34905000Y9095000D01*
D02*
G37*
%LPC*%
G36*
X27647047Y7355000D02*
X34945000Y7355000D01*
X34945000Y8055000D01*
X36455000Y8055000D01*
X36455000Y5945000D01*
X34945000Y5945000D01*
X34945000Y6645000D01*
X27489935Y6645000D01*
X27430548Y6650849D01*
X27363770Y6671106D01*
X27302223Y6704003D01*
X27248158Y6748370D01*
X27241741Y6756213D01*
X23236214Y10761740D01*
X23228371Y10768157D01*
X23184003Y10822223D01*
X23151106Y10883770D01*
X23130849Y10950548D01*
X23119085Y11070000D01*
X22975000Y11070000D01*
X22975000Y13030000D01*
X23985000Y13030000D01*
X23985000Y11017047D01*
X27647047Y7355000D01*
D02*
G37*
%LPC*%
G36*
X19565000Y10655000D02*
X18255000Y10655000D01*
X18255000Y11565000D01*
X19565000Y11565000D01*
X19565000Y11465000D01*
X19842953Y11465000D01*
X20425000Y12047046D01*
X20425000Y13030000D01*
X21435000Y13030000D01*
X21435000Y11070000D01*
X20452047Y11070000D01*
X20247598Y10865551D01*
X20241122Y10857779D01*
X20187777Y10814003D01*
X20126229Y10781106D01*
X20059451Y10760849D01*
X20000066Y10755000D01*
X19565000Y10755000D01*
X19565000Y10655000D01*
D02*
G37*
%LPC*%
G36*
X43985000Y12155000D02*
X43465000Y12155000D01*
X43465000Y12650000D01*
X43985000Y12650000D01*
X43985000Y12155000D01*
D02*
G37*
%LPC*%
G36*
X43255000Y12155000D02*
X42735000Y12155000D01*
X42735000Y12650000D01*
X43255000Y12650000D01*
X43255000Y12155000D01*
D02*
G37*
%LPC*%
G36*
X38315000Y12155000D02*
X37795000Y12155000D01*
X37795000Y12650000D01*
X38315000Y12650000D01*
X38315000Y12155000D01*
D02*
G37*
%LPC*%
G36*
X37585000Y12155000D02*
X37065000Y12155000D01*
X37065000Y12650000D01*
X37585000Y12650000D01*
X37585000Y12155000D01*
D02*
G37*
%LPC*%
G36*
X41170000Y12050000D02*
X40625000Y12050000D01*
X40625000Y12645000D01*
X41170000Y12645000D01*
X41170000Y12050000D01*
D02*
G37*
%LPC*%
G36*
X40415000Y12050000D02*
X39870000Y12050000D01*
X39870000Y12645000D01*
X40415000Y12645000D01*
X40415000Y12050000D01*
D02*
G37*
%LPC*%
G36*
X50990000Y11450000D02*
X49645000Y11450000D01*
X49645000Y12345000D01*
X50990000Y12345000D01*
X50990000Y11450000D01*
D02*
G37*
%LPC*%
G36*
X49435000Y11450000D02*
X48090000Y11450000D01*
X48090000Y12345000D01*
X49435000Y12345000D01*
X49435000Y11450000D01*
D02*
G37*
%LPC*%
G36*
X43985000Y11450000D02*
X43465000Y11450000D01*
X43465000Y11945000D01*
X43985000Y11945000D01*
X43985000Y11450000D01*
D02*
G37*
%LPC*%
G36*
X43255000Y11450000D02*
X42735000Y11450000D01*
X42735000Y11945000D01*
X43255000Y11945000D01*
X43255000Y11450000D01*
D02*
G37*
%LPC*%
G36*
X38315000Y11450000D02*
X37795000Y11450000D01*
X37795000Y11945000D01*
X38315000Y11945000D01*
X38315000Y11450000D01*
D02*
G37*
%LPC*%
G36*
X37585000Y11450000D02*
X37065000Y11450000D01*
X37065000Y11945000D01*
X37585000Y11945000D01*
X37585000Y11450000D01*
D02*
G37*
%LPC*%
G36*
X27355000Y10655000D02*
X26835000Y10655000D01*
X26835000Y11150000D01*
X27355000Y11150000D01*
X27355000Y10655000D01*
D02*
G37*
%LPC*%
G36*
X26625000Y10655000D02*
X26105000Y10655000D01*
X26105000Y11150000D01*
X26625000Y11150000D01*
X26625000Y10655000D01*
D02*
G37*
%LPC*%
G36*
X27355000Y9950000D02*
X26835000Y9950000D01*
X26835000Y10445000D01*
X27355000Y10445000D01*
X27355000Y9950000D01*
D02*
G37*
%LPC*%
G36*
X26625000Y9950000D02*
X26105000Y9950000D01*
X26105000Y10445000D01*
X26625000Y10445000D01*
X26625000Y9950000D01*
D02*
G37*
%LPC*%
G36*
X42060000Y3914753D02*
X41976170Y3918872D01*
X41893142Y3931189D01*
X41811738Y3951578D01*
X41732709Y3979856D01*
X41656842Y4015739D01*
X41584852Y4058888D01*
X41517438Y4108886D01*
X41455249Y4165249D01*
X41398886Y4227438D01*
X41348888Y4294852D01*
X41305739Y4366842D01*
X41269856Y4442709D01*
X41241578Y4521738D01*
X41221189Y4603142D01*
X41208872Y4686170D01*
X41204753Y4770000D01*
X41208872Y4853830D01*
X41221189Y4936858D01*
X41241578Y5018262D01*
X41269856Y5097291D01*
X41305739Y5173158D01*
X41348888Y5245148D01*
X41398886Y5312562D01*
X41455249Y5374751D01*
X41517438Y5431114D01*
X41584852Y5481112D01*
X41705000Y5553125D01*
X41705000Y5692953D01*
X40752953Y6645000D01*
X39655000Y6645000D01*
X39655000Y5945000D01*
X38145000Y5945000D01*
X38145000Y8055000D01*
X39655000Y8055000D01*
X39655000Y7355000D01*
X40910077Y7355000D01*
X40969451Y7349151D01*
X41036229Y7328893D01*
X41097776Y7295996D01*
X41143897Y7258148D01*
X42318148Y6083897D01*
X42355996Y6037776D01*
X42388893Y5976229D01*
X42409151Y5909451D01*
X42415000Y5850077D01*
X42415000Y5553125D01*
X42535148Y5481112D01*
X42602562Y5431114D01*
X42664751Y5374751D01*
X42721114Y5312562D01*
X42771112Y5245148D01*
X42814261Y5173158D01*
X42850144Y5097291D01*
X42878422Y5018262D01*
X42898811Y4936858D01*
X42911128Y4853830D01*
X42915247Y4770000D01*
X42911128Y4686170D01*
X42898811Y4603142D01*
X42878422Y4521738D01*
X42850144Y4442709D01*
X42814261Y4366842D01*
X42771112Y4294852D01*
X42721114Y4227438D01*
X42664751Y4165249D01*
X42602562Y4108886D01*
X42535148Y4058888D01*
X42463158Y4015739D01*
X42387291Y3979856D01*
X42308262Y3951578D01*
X42226858Y3931189D01*
X42143830Y3918872D01*
X42060000Y3914753D01*
D02*
G37*
%LPC*%
G36*
X24747047Y4955000D02*
X29900077Y4955000D01*
X29959451Y4949151D01*
X30026229Y4928893D01*
X30087776Y4895996D01*
X30133897Y4858148D01*
X30735322Y4256724D01*
X30883680Y4309809D01*
X30984127Y4334969D01*
X31086567Y4350165D01*
X31190000Y4355247D01*
X31293433Y4350165D01*
X31395873Y4334969D01*
X31496320Y4309809D01*
X31593820Y4274922D01*
X31687446Y4230642D01*
X31776258Y4177409D01*
X31859444Y4115714D01*
X31936172Y4046172D01*
X32005714Y3969444D01*
X32067409Y3886258D01*
X32120642Y3797446D01*
X32164922Y3703820D01*
X32199809Y3606320D01*
X32224969Y3505873D01*
X32240165Y3403433D01*
X32245247Y3300000D01*
X32240165Y3196567D01*
X32224969Y3094127D01*
X32199809Y2993680D01*
X32164922Y2896180D01*
X32120642Y2802554D01*
X32067409Y2713742D01*
X32005714Y2630556D01*
X31936172Y2553828D01*
X31859444Y2484286D01*
X31776258Y2422591D01*
X31687446Y2369358D01*
X31593820Y2325078D01*
X31496320Y2290191D01*
X31395873Y2265031D01*
X31293433Y2249835D01*
X31190000Y2244753D01*
X31086567Y2249835D01*
X30984127Y2265031D01*
X30883680Y2290191D01*
X30786180Y2325078D01*
X30692554Y2369358D01*
X30603742Y2422591D01*
X30520556Y2484286D01*
X30443828Y2553828D01*
X30374286Y2630556D01*
X30312591Y2713742D01*
X30259358Y2802554D01*
X30215078Y2896180D01*
X30180191Y2993680D01*
X30155031Y3094127D01*
X30139835Y3196567D01*
X30134753Y3300000D01*
X30139835Y3403433D01*
X30155031Y3505873D01*
X30180191Y3606320D01*
X30233276Y3754678D01*
X29742953Y4245000D01*
X24589935Y4245000D01*
X24530548Y4250849D01*
X24463770Y4271106D01*
X24402223Y4304003D01*
X24348157Y4348371D01*
X24341740Y4356214D01*
X23236215Y5461738D01*
X23228372Y5468155D01*
X23184003Y5522223D01*
X23151106Y5583770D01*
X23106747Y5730000D01*
X22975000Y5730000D01*
X22975000Y7690000D01*
X23985000Y7690000D01*
X23985000Y5717047D01*
X24747047Y4955000D01*
D02*
G37*
%LPC*%
G36*
X20265000Y1769752D02*
X20166475Y1774594D01*
X20068884Y1789069D01*
X19973193Y1813038D01*
X19880304Y1846275D01*
X19791140Y1888445D01*
X19706512Y1939170D01*
X19627277Y1997935D01*
X19554183Y2064183D01*
X19487935Y2137277D01*
X19429170Y2216512D01*
X19378445Y2301140D01*
X19336275Y2390304D01*
X19303038Y2483193D01*
X19279069Y2578884D01*
X19264594Y2676475D01*
X19259752Y2775000D01*
X19264594Y2873525D01*
X19279069Y2971116D01*
X19303038Y3066807D01*
X19336275Y3159696D01*
X19378445Y3248860D01*
X19429170Y3333488D01*
X19487935Y3412723D01*
X19554183Y3485817D01*
X19627277Y3552065D01*
X19706512Y3610830D01*
X19791140Y3661555D01*
X19880304Y3703725D01*
X19973193Y3736962D01*
X20068884Y3760931D01*
X20166475Y3775406D01*
X20265000Y3780248D01*
X20363525Y3775406D01*
X20461116Y3760931D01*
X20556811Y3736961D01*
X20680615Y3692662D01*
X21845000Y4857047D01*
X21845000Y5730000D01*
X21695000Y5730000D01*
X21695000Y7690000D01*
X22705000Y7690000D01*
X22705000Y5730000D01*
X22555000Y5730000D01*
X22555000Y4699923D01*
X22549151Y4640548D01*
X22528893Y4573770D01*
X22495996Y4512222D01*
X22452220Y4458877D01*
X22444448Y4452401D01*
X21182662Y3190615D01*
X21226961Y3066811D01*
X21250931Y2971116D01*
X21265406Y2873525D01*
X21270248Y2775000D01*
X21265406Y2676475D01*
X21250931Y2578884D01*
X21226962Y2483193D01*
X21193725Y2390304D01*
X21151555Y2301140D01*
X21100830Y2216512D01*
X21042065Y2137277D01*
X20975817Y2064183D01*
X20902723Y1997935D01*
X20823488Y1939170D01*
X20738860Y1888445D01*
X20649696Y1846275D01*
X20556807Y1813038D01*
X20461116Y1789069D01*
X20363525Y1774594D01*
X20265000Y1769752D01*
D02*
G37*
%LPC*%
G36*
X4750000Y2594753D02*
X4646567Y2599835D01*
X4544127Y2615031D01*
X4443680Y2640191D01*
X4346180Y2675078D01*
X4252554Y2719358D01*
X4163742Y2772591D01*
X4080556Y2834286D01*
X4003828Y2903828D01*
X3934286Y2980556D01*
X3872591Y3063742D01*
X3819358Y3152554D01*
X3775078Y3246180D01*
X3740191Y3343680D01*
X3715031Y3444127D01*
X3699835Y3546567D01*
X3694753Y3650000D01*
X3699835Y3753433D01*
X3715031Y3855873D01*
X3740191Y3956320D01*
X3775078Y4053820D01*
X3819358Y4147446D01*
X3872591Y4236258D01*
X3934286Y4319444D01*
X4003828Y4396172D01*
X4080556Y4465714D01*
X4163742Y4527409D01*
X4252554Y4580642D01*
X4346180Y4624922D01*
X4443680Y4659809D01*
X4544127Y4684969D01*
X4646577Y4700166D01*
X4700783Y4702830D01*
X6952401Y6954448D01*
X6958877Y6962220D01*
X7012222Y7005996D01*
X7073770Y7038893D01*
X7140548Y7059151D01*
X7199923Y7065000D01*
X20425000Y7065000D01*
X20425000Y7690000D01*
X21435000Y7690000D01*
X21435000Y5730000D01*
X20425000Y5730000D01*
X20425000Y6355000D01*
X7357047Y6355000D01*
X5449601Y4447554D01*
X5565714Y4319444D01*
X5627409Y4236258D01*
X5680642Y4147446D01*
X5724922Y4053820D01*
X5759809Y3956320D01*
X5784969Y3855873D01*
X5800165Y3753433D01*
X5805247Y3650000D01*
X5800165Y3546567D01*
X5784969Y3444127D01*
X5759809Y3343680D01*
X5724922Y3246180D01*
X5680642Y3152554D01*
X5627409Y3063742D01*
X5565714Y2980556D01*
X5496172Y2903828D01*
X5419444Y2834286D01*
X5336258Y2772591D01*
X5247446Y2719358D01*
X5153820Y2675078D01*
X5056320Y2640191D01*
X4955873Y2615031D01*
X4853433Y2599835D01*
X4750000Y2594753D01*
D02*
G37*
%LPC*%
G36*
X25250000Y6815000D02*
X24855000Y6815000D01*
X24855000Y7685000D01*
X25250000Y7685000D01*
X25250000Y6815000D01*
D02*
G37*
%LPC*%
G36*
X24645000Y6815000D02*
X24250000Y6815000D01*
X24250000Y7685000D01*
X24645000Y7685000D01*
X24645000Y6815000D01*
D02*
G37*
%LPC*%
G36*
X25250000Y5735000D02*
X24855000Y5735000D01*
X24855000Y6605000D01*
X25250000Y6605000D01*
X25250000Y5735000D01*
D02*
G37*
%LPC*%
G36*
X24645000Y5735000D02*
X24250000Y5735000D01*
X24250000Y6605000D01*
X24645000Y6605000D01*
X24645000Y5735000D01*
D02*
G37*
%LPC*%
G36*
X44600000Y1374753D02*
X44516170Y1378872D01*
X44433142Y1391189D01*
X44351738Y1411578D01*
X44272709Y1439856D01*
X44196842Y1475739D01*
X44124852Y1518888D01*
X44057438Y1568886D01*
X43995249Y1625249D01*
X43938886Y1687438D01*
X43888888Y1754852D01*
X43845739Y1826842D01*
X43809856Y1902709D01*
X43781578Y1981738D01*
X43761189Y2063142D01*
X43748872Y2146170D01*
X43744753Y2230000D01*
X43748872Y2313830D01*
X43761189Y2396858D01*
X43781578Y2478262D01*
X43809856Y2557291D01*
X43845739Y2633158D01*
X43888888Y2705148D01*
X43938886Y2772562D01*
X43995249Y2834751D01*
X44057438Y2891114D01*
X44124852Y2941112D01*
X44196842Y2984261D01*
X44272709Y3020144D01*
X44351738Y3048422D01*
X44433142Y3068811D01*
X44516170Y3081128D01*
X44600000Y3085247D01*
X44683830Y3081128D01*
X44766858Y3068811D01*
X44902732Y3034778D01*
X46335222Y4467268D01*
X46301189Y4603142D01*
X46288872Y4686170D01*
X46284753Y4770000D01*
X46288872Y4853830D01*
X46301189Y4936858D01*
X46321578Y5018262D01*
X46349856Y5097291D01*
X46385739Y5173158D01*
X46428888Y5245148D01*
X46478886Y5312562D01*
X46535249Y5374751D01*
X46597438Y5431114D01*
X46664852Y5481112D01*
X46736842Y5524261D01*
X46812709Y5560144D01*
X46891738Y5588422D01*
X46973142Y5608811D01*
X47056170Y5621128D01*
X47140000Y5625247D01*
X47223830Y5621128D01*
X47306858Y5608811D01*
X47388262Y5588422D01*
X47467291Y5560144D01*
X47543158Y5524261D01*
X47615148Y5481112D01*
X47682562Y5431114D01*
X47744751Y5374751D01*
X47801114Y5312562D01*
X47851112Y5245148D01*
X47923125Y5125000D01*
X50640077Y5125000D01*
X50699451Y5119151D01*
X50766229Y5098893D01*
X50827776Y5065996D01*
X50873897Y5028148D01*
X51295322Y4606724D01*
X51443680Y4659809D01*
X51544127Y4684969D01*
X51646567Y4700165D01*
X51750000Y4705247D01*
X51853433Y4700165D01*
X51955873Y4684969D01*
X52056320Y4659809D01*
X52153820Y4624922D01*
X52247446Y4580642D01*
X52336258Y4527409D01*
X52419444Y4465714D01*
X52496172Y4396172D01*
X52565714Y4319444D01*
X52627409Y4236258D01*
X52680642Y4147446D01*
X52724922Y4053820D01*
X52759809Y3956320D01*
X52784969Y3855873D01*
X52800165Y3753433D01*
X52805247Y3650000D01*
X52800165Y3546567D01*
X52784969Y3444127D01*
X52759809Y3343680D01*
X52724922Y3246180D01*
X52680642Y3152554D01*
X52627409Y3063742D01*
X52565714Y2980556D01*
X52496172Y2903828D01*
X52419444Y2834286D01*
X52336258Y2772591D01*
X52247446Y2719358D01*
X52153820Y2675078D01*
X52056320Y2640191D01*
X51955873Y2615031D01*
X51853433Y2599835D01*
X51750000Y2594753D01*
X51646567Y2599835D01*
X51544127Y2615031D01*
X51443680Y2640191D01*
X51346180Y2675078D01*
X51252554Y2719358D01*
X51163742Y2772591D01*
X51080556Y2834286D01*
X51003828Y2903828D01*
X50934286Y2980556D01*
X50872591Y3063742D01*
X50819358Y3152554D01*
X50775078Y3246180D01*
X50740191Y3343680D01*
X50715031Y3444127D01*
X50699835Y3546567D01*
X50694753Y3650000D01*
X50699835Y3753433D01*
X50715031Y3855873D01*
X50740191Y3956320D01*
X50793276Y4104678D01*
X50482953Y4415000D01*
X47923125Y4415000D01*
X47851112Y4294852D01*
X47801114Y4227438D01*
X47744751Y4165249D01*
X47682562Y4108886D01*
X47615148Y4058888D01*
X47543158Y4015739D01*
X47467291Y3979856D01*
X47388262Y3951578D01*
X47306858Y3931189D01*
X47223830Y3918872D01*
X47140000Y3914753D01*
X47056170Y3918872D01*
X46973142Y3931189D01*
X46837268Y3965222D01*
X45404778Y2532732D01*
X45438811Y2396858D01*
X45451128Y2313830D01*
X45455247Y2230000D01*
X45451128Y2146170D01*
X45438811Y2063142D01*
X45418422Y1981738D01*
X45390144Y1902709D01*
X45354261Y1826842D01*
X45311112Y1754852D01*
X45261114Y1687438D01*
X45204751Y1625249D01*
X45142562Y1568886D01*
X45075148Y1518888D01*
X45003158Y1475739D01*
X44927291Y1439856D01*
X44848262Y1411578D01*
X44766858Y1391189D01*
X44683830Y1378872D01*
X44600000Y1374753D01*
D02*
G37*
%LPC*%
G36*
X7145000Y3755000D02*
X6205122Y3755000D01*
X6219941Y3854897D01*
X6244983Y3954871D01*
X6279705Y4051911D01*
X6323764Y4145070D01*
X6376763Y4233491D01*
X6438150Y4316262D01*
X6507368Y4392632D01*
X6583738Y4461850D01*
X6666509Y4523237D01*
X6754930Y4576236D01*
X6848089Y4620295D01*
X6945129Y4655017D01*
X7045103Y4680059D01*
X7145000Y4694878D01*
X7145000Y3755000D01*
D02*
G37*
%LPC*%
G36*
X8294878Y3755000D02*
X7355000Y3755000D01*
X7355000Y4694878D01*
X7454897Y4680059D01*
X7554871Y4655017D01*
X7651911Y4620295D01*
X7745070Y4576236D01*
X7833491Y4523237D01*
X7916262Y4461850D01*
X7992632Y4392632D01*
X8061850Y4316262D01*
X8123237Y4233491D01*
X8176236Y4145070D01*
X8220295Y4051911D01*
X8255017Y3954871D01*
X8280059Y3854897D01*
X8294878Y3755000D01*
D02*
G37*
%LPC*%
G36*
X54145000Y3755000D02*
X53205122Y3755000D01*
X53219941Y3854897D01*
X53244983Y3954871D01*
X53279705Y4051911D01*
X53323764Y4145070D01*
X53376763Y4233491D01*
X53438150Y4316262D01*
X53507368Y4392632D01*
X53583738Y4461850D01*
X53666509Y4523237D01*
X53754930Y4576236D01*
X53848089Y4620295D01*
X53945129Y4655017D01*
X54045103Y4680059D01*
X54145000Y4694878D01*
X54145000Y3755000D01*
D02*
G37*
%LPC*%
G36*
X55294878Y3755000D02*
X54355000Y3755000D01*
X54355000Y4694878D01*
X54454897Y4680059D01*
X54554871Y4655017D01*
X54651911Y4620295D01*
X54745070Y4576236D01*
X54833491Y4523237D01*
X54916262Y4461850D01*
X54992632Y4392632D01*
X55061850Y4316262D01*
X55123237Y4233491D01*
X55176236Y4145070D01*
X55220295Y4051911D01*
X55255017Y3954871D01*
X55280059Y3854897D01*
X55294878Y3755000D01*
D02*
G37*
%LPC*%
G36*
X38705000Y3405000D02*
X37765122Y3405000D01*
X37779941Y3504897D01*
X37804983Y3604871D01*
X37839705Y3701911D01*
X37883764Y3795070D01*
X37936763Y3883491D01*
X37998150Y3966262D01*
X38067368Y4042632D01*
X38143738Y4111850D01*
X38226509Y4173237D01*
X38314930Y4226236D01*
X38408089Y4270295D01*
X38505129Y4305017D01*
X38605103Y4330059D01*
X38705000Y4344878D01*
X38705000Y3405000D01*
D02*
G37*
%LPC*%
G36*
X39854878Y3405000D02*
X38915000Y3405000D01*
X38915000Y4344878D01*
X39014897Y4330059D01*
X39114871Y4305017D01*
X39211911Y4270295D01*
X39305070Y4226236D01*
X39393491Y4173237D01*
X39476262Y4111850D01*
X39552632Y4042632D01*
X39621850Y3966262D01*
X39683237Y3883491D01*
X39736236Y3795070D01*
X39780295Y3701911D01*
X39815017Y3604871D01*
X39840059Y3504897D01*
X39854878Y3405000D01*
D02*
G37*
%LPC*%
G36*
X25345000Y1769752D02*
X25246475Y1774594D01*
X25148884Y1789069D01*
X25053193Y1813038D01*
X24960304Y1846275D01*
X24871140Y1888445D01*
X24786512Y1939170D01*
X24707277Y1997935D01*
X24634183Y2064183D01*
X24567935Y2137277D01*
X24509170Y2216512D01*
X24458445Y2301140D01*
X24416275Y2390304D01*
X24383038Y2483193D01*
X24359069Y2578884D01*
X24344594Y2676475D01*
X24339752Y2775000D01*
X24344594Y2873525D01*
X24359069Y2971116D01*
X24383038Y3066807D01*
X24416275Y3159696D01*
X24458445Y3248860D01*
X24509170Y3333488D01*
X24567935Y3412723D01*
X24634183Y3485817D01*
X24707277Y3552065D01*
X24786512Y3610830D01*
X24871140Y3661555D01*
X24960304Y3703725D01*
X25053193Y3736962D01*
X25148884Y3760931D01*
X25246475Y3775406D01*
X25345000Y3780248D01*
X25443525Y3775406D01*
X25541116Y3760931D01*
X25636807Y3736962D01*
X25729696Y3703725D01*
X25818860Y3661555D01*
X25903488Y3610830D01*
X25982723Y3552065D01*
X26055817Y3485817D01*
X26122065Y3412723D01*
X26180830Y3333488D01*
X26231555Y3248860D01*
X26273725Y3159696D01*
X26306962Y3066807D01*
X26330931Y2971116D01*
X26345406Y2873525D01*
X26350248Y2775000D01*
X26345406Y2676475D01*
X26330931Y2578884D01*
X26306962Y2483193D01*
X26273725Y2390304D01*
X26231555Y2301140D01*
X26180830Y2216512D01*
X26122065Y2137277D01*
X26055817Y2064183D01*
X25982723Y1997935D01*
X25903488Y1939170D01*
X25818860Y1888445D01*
X25729696Y1846275D01*
X25636807Y1813038D01*
X25541116Y1789069D01*
X25443525Y1774594D01*
X25345000Y1769752D01*
D02*
G37*
%LPC*%
G36*
X22700000Y2880000D02*
X21810609Y2880000D01*
X21823978Y2970137D01*
X21847831Y3065359D01*
X21880899Y3157777D01*
X21922864Y3246508D01*
X21973328Y3330700D01*
X22031805Y3409547D01*
X22097723Y3482277D01*
X22170453Y3548195D01*
X22249300Y3606672D01*
X22333492Y3657136D01*
X22422223Y3699101D01*
X22514641Y3732169D01*
X22609863Y3756022D01*
X22700000Y3769391D01*
X22700000Y2880000D01*
D02*
G37*
%LPC*%
G36*
X23799391Y2880000D02*
X22910000Y2880000D01*
X22910000Y3769391D01*
X23000137Y3756022D01*
X23095359Y3732169D01*
X23187777Y3699101D01*
X23276508Y3657136D01*
X23360700Y3606672D01*
X23439547Y3548195D01*
X23512277Y3482277D01*
X23578195Y3409547D01*
X23636672Y3330700D01*
X23687136Y3246508D01*
X23729101Y3157777D01*
X23762169Y3065359D01*
X23786022Y2970137D01*
X23799391Y2880000D01*
D02*
G37*
%LPC*%
G36*
X54355000Y2605122D02*
X54355000Y3545000D01*
X55294878Y3545000D01*
X55280059Y3445103D01*
X55255017Y3345129D01*
X55220295Y3248089D01*
X55176236Y3154930D01*
X55123237Y3066509D01*
X55061850Y2983738D01*
X54992632Y2907368D01*
X54916262Y2838150D01*
X54833491Y2776763D01*
X54745070Y2723764D01*
X54651911Y2679705D01*
X54554871Y2644983D01*
X54454897Y2619941D01*
X54355000Y2605122D01*
D02*
G37*
%LPC*%
G36*
X54145000Y2605122D02*
X54045103Y2619941D01*
X53945129Y2644983D01*
X53848089Y2679705D01*
X53754930Y2723764D01*
X53666509Y2776763D01*
X53583738Y2838150D01*
X53507368Y2907368D01*
X53438150Y2983738D01*
X53376763Y3066509D01*
X53323764Y3154930D01*
X53279705Y3248089D01*
X53244983Y3345129D01*
X53219941Y3445103D01*
X53205122Y3545000D01*
X54145000Y3545000D01*
X54145000Y2605122D01*
D02*
G37*
%LPC*%
G36*
X7355000Y2605122D02*
X7355000Y3545000D01*
X8294878Y3545000D01*
X8280059Y3445103D01*
X8255017Y3345129D01*
X8220295Y3248089D01*
X8176236Y3154930D01*
X8123237Y3066509D01*
X8061850Y2983738D01*
X7992632Y2907368D01*
X7916262Y2838150D01*
X7833491Y2776763D01*
X7745070Y2723764D01*
X7651911Y2679705D01*
X7554871Y2644983D01*
X7454897Y2619941D01*
X7355000Y2605122D01*
D02*
G37*
%LPC*%
G36*
X7145000Y2605122D02*
X7045103Y2619941D01*
X6945129Y2644983D01*
X6848089Y2679705D01*
X6754930Y2723764D01*
X6666509Y2776763D01*
X6583738Y2838150D01*
X6507368Y2907368D01*
X6438150Y2983738D01*
X6376763Y3066509D01*
X6323764Y3154930D01*
X6279705Y3248089D01*
X6244983Y3345129D01*
X6219941Y3445103D01*
X6205122Y3545000D01*
X7145000Y3545000D01*
X7145000Y2605122D01*
D02*
G37*
%LPC*%
G36*
X38915000Y2255122D02*
X38915000Y3195000D01*
X39854878Y3195000D01*
X39840059Y3095103D01*
X39815017Y2995129D01*
X39780295Y2898089D01*
X39736236Y2804930D01*
X39683237Y2716509D01*
X39621850Y2633738D01*
X39552632Y2557368D01*
X39476262Y2488150D01*
X39393491Y2426763D01*
X39305070Y2373764D01*
X39211911Y2329705D01*
X39114871Y2294983D01*
X39014897Y2269941D01*
X38915000Y2255122D01*
D02*
G37*
%LPC*%
G36*
X38705000Y2255122D02*
X38605103Y2269941D01*
X38505129Y2294983D01*
X38408089Y2329705D01*
X38314930Y2373764D01*
X38226509Y2426763D01*
X38143738Y2488150D01*
X38067368Y2557368D01*
X37998150Y2633738D01*
X37936763Y2716509D01*
X37883764Y2804930D01*
X37839705Y2898089D01*
X37804983Y2995129D01*
X37779941Y3095103D01*
X37765122Y3195000D01*
X38705000Y3195000D01*
X38705000Y2255122D01*
D02*
G37*
%LPC*%
G36*
X22910000Y1780609D02*
X22910000Y2670000D01*
X23799391Y2670000D01*
X23786022Y2579863D01*
X23762169Y2484641D01*
X23729101Y2392223D01*
X23687136Y2303492D01*
X23636672Y2219300D01*
X23578195Y2140453D01*
X23512277Y2067723D01*
X23439547Y2001805D01*
X23360700Y1943328D01*
X23276508Y1892864D01*
X23187777Y1850899D01*
X23095359Y1817831D01*
X23000137Y1793978D01*
X22910000Y1780609D01*
D02*
G37*
%LPC*%
G36*
X22700000Y1780609D02*
X22609863Y1793978D01*
X22514641Y1817831D01*
X22422223Y1850899D01*
X22333492Y1892864D01*
X22249300Y1943328D01*
X22170453Y2001805D01*
X22097723Y2067723D01*
X22031805Y2140453D01*
X21973328Y2219300D01*
X21922864Y2303492D01*
X21880899Y2392223D01*
X21847831Y2484641D01*
X21823978Y2579863D01*
X21810609Y2670000D01*
X22700000Y2670000D01*
X22700000Y1780609D01*
D02*
G37*
G01*
%LPD*%
D10*
X31700000Y57400000D02*
X30650000Y56350000D01*
D10*
X11850000Y43860000D02*
X13770000Y43860000D01*
D10*
X32700000Y33800000D02*
X29500000Y37000000D01*
D11*
X39890000Y44750000D02*
X39890000Y49010000D01*
D10*
X29890000Y4600000D02*
X31190000Y3300000D01*
D11*
X44200000Y32310000D02*
X39890000Y36620000D01*
D10*
X11850000Y40620000D02*
X11850000Y36450000D01*
D11*
X39890000Y49010000D02*
X38490000Y50410000D01*
D10*
X10350000Y40620000D02*
X10350000Y33800001D01*
D11*
X36240000Y41550000D02*
X20410000Y41550000D01*
D10*
X21060000Y19440000D02*
X23880000Y19440000D01*
D10*
X50740000Y35370000D02*
X48560000Y35370000D01*
D10*
X27500000Y7000000D02*
X35700000Y7000000D01*
D10*
X25300000Y49400000D02*
X26900000Y51000000D01*
D10*
X19990000Y11110000D02*
X20930000Y12050000D01*
D10*
X6000000Y24850000D02*
X6000000Y21000000D01*
D11*
X30750000Y62500000D02*
X32100000Y62500000D01*
D11*
X30165000Y44750000D02*
X28275000Y44750000D01*
D10*
X21125000Y54770000D02*
X16030000Y54770000D01*
D12*
X13770000Y45140000D02*
X15940000Y45140000D01*
D11*
X39890000Y44750000D02*
X39890000Y41670000D01*
D10*
X50650000Y26740000D02*
X50650000Y23650000D01*
D11*
X39890000Y38710000D02*
X39890000Y36620000D01*
D11*
X17500000Y37030000D02*
X15970000Y37030000D01*
D10*
X50650000Y23650000D02*
X48000000Y21000000D01*
D10*
X6260000Y42070000D02*
X6260000Y43860000D01*
D10*
X13770000Y46410000D02*
X13770000Y46460000D01*
D10*
X23480000Y5720000D02*
X24600000Y4600000D01*
D12*
X29250000Y12050000D02*
X30750000Y10550000D01*
D10*
X4170000Y52670000D02*
X8810000Y57310000D01*
D10*
X19020000Y12720000D02*
X18910000Y12610000D01*
D10*
X51060000Y31360000D02*
X53240000Y31360000D01*
D10*
X23740000Y21220000D02*
X23740000Y21850000D01*
D10*
X50500000Y18500000D02*
X53000000Y21000000D01*
D10*
X52150000Y28530000D02*
X52150000Y26740000D01*
D10*
X41700000Y57900000D02*
X48000000Y51600000D01*
D10*
X4760000Y40240000D02*
X4760000Y42070000D01*
D10*
X23895000Y46920000D02*
X21125000Y49690000D01*
D10*
X23480000Y6710000D02*
X23480000Y5720000D01*
D11*
X39890000Y44750000D02*
X36240000Y44750000D01*
D10*
X38900000Y7000000D02*
X40900000Y7000000D01*
D10*
X37080000Y22030000D02*
X37080000Y19700000D01*
D11*
X20410000Y41550000D02*
X20120000Y41550000D01*
D11*
X46240000Y12450000D02*
X46240000Y15770000D01*
D10*
X18910000Y11110000D02*
X19990000Y11110000D01*
D10*
X25380000Y19440000D02*
X28250001Y19440000D01*
D10*
X6260000Y43860000D02*
X8430000Y43860000D01*
D10*
X11850000Y36450000D02*
X14200000Y34100000D01*
D11*
X17500000Y34000000D02*
X17500000Y37030000D01*
D10*
X37080000Y19700000D02*
X38280000Y18500000D01*
D10*
X22200000Y6710000D02*
X22200000Y4710000D01*
D10*
X24600000Y4600000D02*
X29890000Y4600000D01*
D11*
X17500000Y37030000D02*
X18800000Y37030000D01*
D11*
X28275000Y44750000D02*
X28275000Y46920000D01*
D11*
X48860000Y32310000D02*
X44200000Y32310000D01*
D11*
X32100000Y62500000D02*
X35400000Y59200000D01*
D11*
X20120000Y41550000D02*
X18800000Y40230000D01*
D10*
X28455000Y54950000D02*
X30650000Y54950000D01*
D10*
X30650000Y54950000D02*
X30650000Y55700000D01*
D10*
X48860000Y30410000D02*
X48860000Y28660000D01*
D10*
X24420000Y32490000D02*
X24420000Y29990000D01*
D10*
X4760000Y42070000D02*
X4660000Y42170000D01*
D12*
X39570000Y10550000D02*
X37690000Y10550000D01*
D10*
X8430000Y46460000D02*
X10350000Y48380000D01*
D10*
X4750000Y4250000D02*
X4750000Y3650000D01*
D10*
X50740000Y43560000D02*
X50740000Y38670000D01*
D12*
X6260000Y40240000D02*
X7840000Y40240000D01*
D10*
X47140000Y4770000D02*
X50630000Y4770000D01*
D10*
X53240000Y31360000D02*
X54240000Y30360000D01*
D10*
X11000000Y21000000D02*
X6000000Y21000000D01*
D10*
X22200000Y4710000D02*
X20265000Y2775000D01*
D10*
X28275000Y54770000D02*
X28455000Y54950000D01*
D10*
X13770000Y46460000D02*
X11850000Y48380000D01*
D10*
X30650000Y56350000D02*
X30650000Y55700000D01*
D11*
X38490000Y50410000D02*
X38490000Y50990000D01*
D10*
X14200000Y34100000D02*
X14200000Y26300000D01*
D11*
X35400000Y59200000D02*
X35400000Y54080000D01*
D10*
X56360000Y28540000D02*
X56370000Y28530000D01*
D11*
X43360000Y10550000D02*
X44340000Y10550000D01*
D12*
X30750000Y10550000D02*
X33900000Y10550000D01*
D10*
X4660000Y42170000D02*
X4660000Y43550000D01*
D11*
X36240000Y44750000D02*
X33955000Y44750000D01*
D10*
X30650000Y49400000D02*
X30650000Y49750000D01*
D10*
X23740000Y21850000D02*
X25800000Y23910000D01*
D11*
X44340000Y10550000D02*
X46240000Y12450000D01*
D10*
X48860000Y30410000D02*
X47350000Y30410000D01*
D11*
X33955000Y44750000D02*
X32065000Y44750000D01*
D10*
X2040000Y45840000D02*
X4170000Y45840000D01*
D10*
X6000000Y32300001D02*
X10350000Y32300001D01*
D10*
X52150000Y26740000D02*
X54240000Y26740000D01*
D10*
X12180000Y24820000D02*
X16000000Y21000000D01*
D10*
X32700000Y19889999D02*
X32700000Y25900000D01*
D11*
X43360000Y10550000D02*
X41470000Y10550000D01*
D10*
X8430000Y45140000D02*
X10350000Y45140000D01*
D10*
X44600000Y2230000D02*
X47140000Y4770000D01*
D10*
X7210000Y6710000D02*
X4750000Y4250000D01*
D10*
X12180000Y32300001D02*
X12180000Y24820000D01*
D10*
X26075000Y46920000D02*
X23895000Y46920000D01*
D10*
X22200000Y15590000D02*
X22200000Y18200000D01*
D10*
X22200000Y14090000D02*
X22200000Y12050000D01*
D10*
X34580000Y32090000D02*
X37080000Y32090000D01*
D10*
X6000000Y51300000D02*
X11000000Y51300000D01*
D10*
X43000000Y21000000D02*
X48000000Y21000000D01*
D10*
X38280000Y18500000D02*
X50500000Y18500000D01*
D10*
X33409999Y19700000D02*
X37080000Y19700000D01*
D13*
X28275000Y46920000D02*
X28275000Y49690000D01*
D10*
X24420000Y37000000D02*
X24420000Y32490000D01*
D10*
X23480000Y11020000D02*
X27500000Y7000000D01*
D11*
X36240000Y41550000D02*
X37050000Y41550000D01*
D11*
X16820000Y45140000D02*
X20410000Y41550000D01*
D10*
X20930000Y6710000D02*
X7210000Y6710000D01*
D10*
X29010000Y57310000D02*
X28275000Y57310000D01*
D10*
X32700000Y25900000D02*
X32700000Y33800000D01*
D10*
X30400000Y57900000D02*
X29600000Y57900000D01*
D10*
X33149999Y19440000D02*
X32700000Y19889999D01*
D10*
X34580000Y37000000D02*
X34580000Y32090000D01*
D10*
X11850000Y40620000D02*
X11850000Y43860000D01*
D10*
X48000000Y51600000D02*
X48000000Y51300000D01*
D10*
X40900000Y7000000D02*
X42060000Y5840000D01*
D12*
X15970000Y37030000D02*
X13580000Y37030000D01*
D10*
X19670000Y16290000D02*
X19670000Y18200000D01*
D10*
X31700000Y59100000D02*
X31700000Y57400000D01*
D12*
X37690000Y10550000D02*
X33900000Y10550000D01*
D11*
X37050000Y41550000D02*
X39890000Y38710000D01*
D10*
X26900000Y51000000D02*
X29400000Y51000000D01*
D10*
X50630000Y4770000D02*
X51750000Y3650000D01*
D12*
X26730000Y12050000D02*
X29250000Y12050000D01*
D10*
X4660000Y43550000D02*
X4170000Y44040000D01*
D10*
X4170000Y45840000D02*
X4170000Y52670000D01*
D10*
X54240000Y30360000D02*
X54240000Y28540000D01*
D10*
X14200000Y26300000D02*
X21060000Y19440000D01*
D10*
X42060000Y5840000D02*
X42060000Y4770000D01*
D10*
X29930000Y25900000D02*
X32700000Y25900000D01*
D10*
X23480000Y12050000D02*
X23480000Y11020000D01*
D10*
X33149999Y19440000D02*
X33409999Y19700000D01*
D10*
X54240000Y28540000D02*
X56360000Y28540000D01*
D10*
X8430000Y46410000D02*
X8430000Y46460000D01*
D10*
X19020000Y14390000D02*
X19020000Y12720000D01*
D11*
X35400000Y54080000D02*
X38490000Y50990000D01*
D10*
X21125000Y52230000D02*
X28275000Y52230000D01*
D10*
X28300000Y24270000D02*
X29930000Y25900000D01*
D10*
X25800000Y23910000D02*
X25800000Y24270000D01*
D12*
X24750000Y12050000D02*
X26730000Y12050000D01*
D10*
X10350000Y33800001D02*
X12180000Y33800001D01*
D10*
X43000000Y51300000D02*
X50740000Y43560000D01*
D10*
X29600000Y57900000D02*
X29010000Y57310000D01*
D10*
X30650000Y49750000D02*
X29400000Y51000000D01*
D11*
X15940000Y45140000D02*
X16820000Y45140000D01*
D10*
X25300000Y48300000D02*
X25300000Y49400000D01*
D10*
X8810000Y57310000D02*
X21125000Y57310000D01*
D10*
X10350000Y40620000D02*
X10350000Y45140000D01*
G75*
D14*
X36240000Y44750000D03*
D15*
X36240000Y41550000D03*
D16*
X25240000Y21220000D03*
D17*
X23740000Y21220000D03*
D18*
X18910000Y12610000D03*
D19*
X18910000Y11110000D03*
D20*
X6000000Y51300000D03*
D20*
X16000000Y51300000D03*
D20*
X11000000Y51300000D03*
D19*
X48860000Y27160000D03*
D18*
X48860000Y28660000D03*
D19*
X2040000Y44340000D03*
D18*
X2040000Y45840000D03*
D21*
X24420000Y29990000D03*
D21*
X29500000Y29990000D03*
D22*
X25380000Y19440000D03*
D23*
X23880000Y19440000D03*
D17*
X10350000Y40620000D03*
D16*
X11850000Y40620000D03*
D24*
X43360000Y12050000D03*
D25*
X43360000Y10550000D03*
D14*
X18800000Y40230000D03*
D15*
X18800000Y37030000D03*
D26*
X30650000Y55700000D03*
D27*
X33150000Y49400000D03*
D27*
X30650000Y49400000D03*
D26*
X33150000Y55700000D03*
D28*
X28250001Y19440000D03*
D29*
X33149999Y19440000D03*
D30*
X30800000Y27570000D03*
D30*
X28300000Y24270000D03*
D30*
X25800000Y24270000D03*
D30*
X30800000Y24270000D03*
D30*
X28300000Y27570000D03*
D30*
X25800000Y27570000D03*
D31*
X35700000Y7000000D03*
D32*
X38900000Y7000000D03*
D33*
X23750000Y63350000D03*
D33*
X23750000Y75800000D03*
D33*
X7450000Y75800000D03*
D33*
X23750000Y69550000D03*
D33*
X7450000Y69550000D03*
D33*
X7450000Y63350000D03*
D30*
X37080000Y24570000D03*
D30*
X37080000Y22030000D03*
D34*
X37080000Y27010000D03*
D34*
X37080000Y32090000D03*
D23*
X4760000Y40240000D03*
D22*
X6260000Y40240000D03*
D35*
X49540000Y12450000D03*
D36*
X46240000Y12450000D03*
D24*
X37690000Y12050000D03*
D25*
X37690000Y10550000D03*
D37*
X31190000Y3300000D03*
D37*
X38810000Y3300000D03*
D38*
X17500000Y28800000D03*
D39*
X17500000Y34000000D03*
D15*
X15970000Y37030000D03*
D14*
X15970000Y40230000D03*
D40*
X48860000Y30410000D03*
D41*
X51060000Y31360000D03*
D40*
X48860000Y32310000D03*
D42*
X45090000Y44750000D03*
D43*
X39890000Y44750000D03*
D44*
X13770000Y46410000D03*
D44*
X13770000Y43860000D03*
D44*
X13770000Y42590000D03*
D45*
X8430000Y42590000D03*
D45*
X8430000Y45140000D03*
D44*
X13770000Y45140000D03*
D45*
X8430000Y46410000D03*
D45*
X8430000Y43860000D03*
D46*
X28275000Y46920000D03*
D47*
X26075000Y46920000D03*
D16*
X11850000Y48380000D03*
D17*
X10350000Y48380000D03*
D48*
X50740000Y38670000D03*
D49*
X50740000Y35370000D03*
D48*
X6000000Y28150000D03*
D49*
X6000000Y24850000D03*
D50*
X38490000Y55290000D03*
D51*
X38490000Y50990000D03*
D52*
X30750000Y62500000D03*
D52*
X28250000Y62500000D03*
D22*
X6260000Y42070000D03*
D23*
X4760000Y42070000D03*
D53*
X24750000Y6710000D03*
D53*
X22200000Y6710000D03*
D53*
X20930000Y6710000D03*
D54*
X20930000Y12050000D03*
D54*
X23480000Y12050000D03*
D53*
X23480000Y6710000D03*
D54*
X24750000Y12050000D03*
D54*
X22200000Y12050000D03*
D20*
X43000000Y21000000D03*
D20*
X53000000Y21000000D03*
D20*
X48000000Y21000000D03*
D24*
X33955000Y46250000D03*
D25*
X33955000Y44750000D03*
D17*
X26775000Y44750000D03*
D16*
X28275000Y44750000D03*
D55*
X4750000Y3650000D03*
D55*
X7250000Y3650000D03*
D24*
X6260000Y45360000D03*
D25*
X6260000Y43860000D03*
D19*
X56370000Y27030000D03*
D18*
X56370000Y28530000D03*
D25*
X26730000Y10550000D03*
D24*
X26730000Y12050000D03*
D56*
X4170000Y45840000D03*
D57*
X4170000Y44040000D03*
D58*
X29500000Y32490000D03*
D58*
X24420000Y32490000D03*
D59*
X20265000Y2775000D03*
D59*
X22805000Y2775000D03*
D59*
X25345000Y2775000D03*
D60*
X29500000Y37000000D03*
D60*
X34580000Y37000000D03*
D60*
X24420000Y37000000D03*
D55*
X51750000Y3650000D03*
D55*
X54250000Y3650000D03*
D61*
X34580000Y32090000D03*
D61*
X34580000Y27010000D03*
D18*
X22200000Y15590000D03*
D19*
X22200000Y14090000D03*
D20*
X43000000Y51300000D03*
D20*
X53000000Y51300000D03*
D20*
X48000000Y51300000D03*
D18*
X12180000Y33800001D03*
D19*
X12180000Y32300001D03*
D22*
X52150000Y26740000D03*
D23*
X50650000Y26740000D03*
D62*
X6000000Y32300001D03*
D63*
X6000000Y37199999D03*
D25*
X15940000Y43640000D03*
D24*
X15940000Y45140000D03*
D30*
X37080000Y19700000D03*
D30*
X37080000Y17160000D03*
D64*
X41470000Y10550000D03*
D65*
X40520000Y12750000D03*
D64*
X39570000Y10550000D03*
D66*
X47140000Y4770000D03*
D66*
X44600000Y2230000D03*
D66*
X42060000Y4770000D03*
D67*
X19020000Y14390000D03*
D67*
X20320000Y14390000D03*
D68*
X19670000Y16290000D03*
D17*
X50650000Y28530000D03*
D16*
X52150000Y28530000D03*
D64*
X32065000Y44750000D03*
D65*
X31115000Y46950000D03*
D64*
X30165000Y44750000D03*
D69*
X21125000Y49690000D03*
D70*
X28275000Y52230000D03*
D70*
X28275000Y57310000D03*
D70*
X28275000Y54770000D03*
D69*
X21125000Y52230000D03*
D69*
X21125000Y57310000D03*
D70*
X28275000Y49690000D03*
D69*
X21125000Y54770000D03*
D20*
X6000000Y21000000D03*
D20*
X16000000Y21000000D03*
D20*
X11000000Y21000000D03*
D48*
X33900000Y13850000D03*
D49*
X33900000Y10550000D03*
D18*
X10350000Y33800001D03*
D19*
X10350000Y32300001D03*
D33*
X51550000Y63350000D03*
D33*
X51550000Y75800000D03*
D33*
X35250000Y75800000D03*
D33*
X51550000Y69550000D03*
D33*
X35250000Y69550000D03*
D33*
X35250000Y63350000D03*
D57*
X54240000Y26740000D03*
D56*
X54240000Y28540000D03*
D42*
X45090000Y36620000D03*
D43*
X39890000Y36620000D03*
D71*
X33150000Y51100000D03*
D71*
X33955000Y47450000D03*
D71*
X45090000Y46450000D03*
D71*
X21299000Y25000000D03*
D71*
X13666000Y61000000D03*
D72*
X51664000Y1000000D03*
D72*
X41700000Y57900000D03*
D71*
X26332000Y43000000D03*
D71*
X35700000Y20800000D03*
D71*
X45090000Y38420000D03*
D72*
X10350000Y45140000D03*
D71*
X25950000Y6710000D03*
D72*
X57997000Y73000000D03*
D71*
X47490000Y36620000D03*
D72*
X23895000Y46920000D03*
D72*
X19999000Y1000000D03*
D71*
X26400000Y40400000D03*
D72*
X32665000Y79000000D03*
D71*
X51664000Y55000000D03*
D71*
X51664000Y25000000D03*
D71*
X11900000Y46600000D03*
D72*
X1000000Y67000000D03*
D71*
X7700000Y37200000D03*
D71*
X45931000Y55000000D03*
D71*
X8333000Y55000000D03*
D71*
X45500000Y51500000D03*
D71*
X32700000Y40400000D03*
D71*
X33665000Y30800000D03*
D71*
X13666000Y67000000D03*
D73*
X13580000Y37030000D03*
D71*
X50650000Y29730000D03*
D71*
X33900000Y15950000D03*
D72*
X19670000Y18200000D03*
D72*
X1000000Y1000000D03*
D71*
X11133000Y31000000D03*
D71*
X3600000Y41100000D03*
D71*
X38698000Y31000000D03*
D71*
X10070000Y46600000D03*
D72*
X11850000Y43860000D03*
D72*
X7333000Y73000000D03*
D71*
X19400000Y22600000D03*
D71*
X23200000Y31000000D03*
D71*
X18500000Y19000000D03*
D72*
X1000000Y73000000D03*
D71*
X13666000Y55000000D03*
D71*
X47490000Y44750000D03*
D71*
X33100000Y8000000D03*
D72*
X13666000Y1000000D03*
D71*
X19400000Y35200000D03*
D71*
X33665000Y24800000D03*
D72*
X22200000Y18200000D03*
D71*
X13666000Y49000000D03*
D71*
X41100000Y31000000D03*
D71*
X7333000Y7800000D03*
D72*
X30400000Y57900000D03*
D71*
X23650000Y40400000D03*
D71*
X7333000Y49000000D03*
D72*
X57997000Y55000000D03*
D72*
X16030000Y54770000D03*
D71*
X52664000Y37000000D03*
D71*
X38698000Y25000000D03*
D71*
X45090000Y43050000D03*
D72*
X57997000Y49000000D03*
D71*
X13666000Y7800000D03*
D71*
X26775000Y45950000D03*
D71*
X15700000Y28800000D03*
D72*
X26332000Y79000000D03*
D71*
X36790000Y55290000D03*
D71*
X8430000Y41490000D03*
D72*
X1000000Y19000000D03*
D72*
X32665000Y73000000D03*
D71*
X31600000Y30800000D03*
D71*
X7333000Y19000000D03*
D72*
X900000Y43000000D03*
D72*
X26332000Y73000000D03*
D71*
X38198000Y42700000D03*
D71*
X32665000Y43000000D03*
D72*
X1000000Y61000000D03*
D72*
X57997000Y7000000D03*
D71*
X6000000Y30140000D03*
D71*
X51740000Y12450000D03*
D71*
X45331000Y61000000D03*
D71*
X41180000Y20800000D03*
D72*
X57997000Y1000000D03*
D71*
X26332000Y17800000D03*
D71*
X56370000Y25930000D03*
D72*
X13666000Y79000000D03*
D71*
X6260000Y46560000D03*
D71*
X23200000Y34800000D03*
D71*
X21299000Y31000000D03*
D72*
X1000000Y31000000D03*
D72*
X32665000Y1000000D03*
D71*
X43360000Y13250000D03*
D72*
X32665000Y67000000D03*
D72*
X57997000Y67000000D03*
D71*
X38998000Y73000000D03*
D71*
X20999000Y18400000D03*
D72*
X26332000Y1000000D03*
D72*
X57997000Y25000000D03*
D71*
X11500000Y35200000D03*
D71*
X45331000Y19700000D03*
D72*
X1000000Y13000000D03*
D71*
X45090000Y34820000D03*
D71*
X38998000Y67000000D03*
D71*
X32050000Y49400000D03*
D71*
X51664000Y67000000D03*
D71*
X19999000Y61000000D03*
D72*
X1000000Y37000000D03*
D71*
X8800000Y33300000D03*
D71*
X26332000Y55000000D03*
D72*
X1000000Y49000000D03*
D71*
X34250000Y49400000D03*
D74*
X46240000Y15770000D03*
D72*
X45331000Y1000000D03*
D72*
X26332000Y67000000D03*
D71*
X7333000Y67000000D03*
D71*
X37690000Y13250000D03*
D71*
X21646890Y43092254D03*
D71*
X45331000Y25000000D03*
D71*
X51664000Y7000000D03*
D71*
X45331000Y31000000D03*
D72*
X57997000Y43000000D03*
D71*
X26332000Y13700000D03*
D71*
X33100000Y5600000D03*
D71*
X26332000Y61000000D03*
D71*
X48860000Y26060000D03*
D73*
X30750000Y10550000D03*
D71*
X40520000Y14150000D03*
D72*
X38998000Y79000000D03*
D71*
X19399000Y56100000D03*
D71*
X50364000Y20500000D03*
D72*
X57997000Y37000000D03*
D72*
X51664000Y73000000D03*
D71*
X23300000Y25000000D03*
D71*
X27930000Y10550000D03*
D72*
X1000000Y55000000D03*
D71*
X17500000Y26300000D03*
D71*
X38400000Y47800000D03*
D71*
X51664000Y43000000D03*
D71*
X26332000Y31000000D03*
D71*
X31600000Y22200000D03*
D71*
X11100000Y25000000D03*
D71*
X40190000Y55290000D03*
D72*
X45331000Y79000000D03*
D71*
X7933000Y25000000D03*
D71*
X45331000Y73000000D03*
D72*
X19999000Y79000000D03*
D71*
X41100000Y25000000D03*
D71*
X19299000Y49000000D03*
D72*
X51664000Y79000000D03*
D71*
X38998000Y61000000D03*
D72*
X57997000Y61000000D03*
D71*
X21299000Y37000000D03*
D71*
X34250000Y55700000D03*
D71*
X26532000Y49000000D03*
D71*
X38698000Y20800000D03*
D72*
X31700000Y59100000D03*
D71*
X13136000Y31000000D03*
D71*
X35900000Y33400000D03*
D71*
X7333000Y13000000D03*
D71*
X23900000Y49000000D03*
D72*
X57997000Y13000000D03*
D71*
X14800000Y35200000D03*
D71*
X33300000Y59000000D03*
D72*
X1000000Y25000000D03*
D74*
X39890000Y41670000D03*
D71*
X13666000Y13000000D03*
D72*
X47350000Y30410000D03*
D71*
X13666000Y19000000D03*
D71*
X32050000Y55700000D03*
D71*
X33150000Y54000000D03*
D72*
X7333000Y1000000D03*
D73*
X7840000Y40240000D03*
D71*
X48800000Y33600000D03*
D72*
X57997000Y19000000D03*
D71*
X19999000Y67000000D03*
D72*
X25300000Y48300000D03*
D71*
X19999000Y73000000D03*
D71*
X51664000Y49000000D03*
D71*
X26440000Y21220000D03*
D71*
X14270000Y40230000D03*
D72*
X38998000Y1000000D03*
D71*
X13666000Y73000000D03*
D71*
X21300000Y20600000D03*
D71*
X20900000Y40400000D03*
D72*
X48560000Y35370000D03*
D72*
X57997000Y31000000D03*
D72*
X7333000Y79000000D03*
D71*
X13766000Y25000000D03*
D71*
X51664000Y61000000D03*
D71*
X45331000Y67000000D03*
D71*
X7333000Y61000000D03*
D71*
X19200000Y28800000D03*
D71*
X15940000Y42440000D03*
D71*
X45331000Y7000000D03*
D72*
X1000000Y7000000D03*
D71*
X37700000Y38800000D03*
D71*
X29815000Y46950000D03*
M02*
