%FSLAX46Y46*%
%MOMM*%
%AMPS10*
1,1,2.300000,0.000000,0.000000*
%
%ADD10PS10*%
%AMPS19*
1,1,1.800000,0.000000,0.000000*
%
%ADD19PS19*%
%AMPS12*
1,1,1.800000,0.000000,0.000000*
%
%ADD12PS12*%
%AMPS20*
1,1,2.400000,0.000000,0.000000*
%
%ADD20PS20*%
%AMPS22*
1,1,1.500000,0.000000,0.000000*
%
%ADD22PS22*%
%AMPS13*
1,1,2.400000,0.000000,0.000000*
%
%ADD13PS13*%
%AMPS11*
1,1,1.400000,0.000000,0.000000*
%
%ADD11PS11*%
%AMPS14*
1,1,1.400000,0.000000,0.000000*
%
%ADD14PS14*%
%AMPS18*
1,1,1.400000,0.000000,0.000000*
%
%ADD18PS18*%
%AMPS21*
1,1,1.400000,0.000000,0.000000*
%
%ADD21PS21*%
%AMPS17*
1,1,1.900000,0.000000,0.000000*
%
%ADD17PS17*%
%AMPS16*
1,1,1.900000,0.000000,0.000000*
%
%ADD16PS16*%
%AMPS15*
1,1,1.900000,0.000000,0.000000*
%
%ADD15PS15*%
%AMPS25*
1,1,1.000000,0.000000,0.000000*
%
%ADD25PS25*%
%AMPS24*
1,1,0.800000,0.000000,0.000000*
%
%ADD24PS24*%
%AMPS23*
1,1,0.550000,0.000000,0.000000*
%
%ADD23PS23*%
G01*
G01*
%LPD*%
G75*
D10*
X6000000Y51300000D03*
D10*
X16000000Y51300000D03*
D10*
X11000000Y51300000D03*
D11*
X24420000Y29990000D03*
D11*
X29500000Y29990000D03*
D12*
X30800000Y27570000D03*
D12*
X28300000Y24270000D03*
D12*
X25800000Y24270000D03*
D12*
X30800000Y24270000D03*
D12*
X28300000Y27570000D03*
D12*
X25800000Y27570000D03*
D13*
X23750000Y63350000D03*
D13*
X23750000Y75800000D03*
D13*
X7450000Y75800000D03*
D13*
X23750000Y69550000D03*
D13*
X7450000Y69550000D03*
D13*
X7450000Y63350000D03*
D12*
X37080000Y24570000D03*
D12*
X37080000Y22030000D03*
D14*
X37080000Y27010000D03*
D14*
X37080000Y32090000D03*
D15*
X31190000Y3300000D03*
D15*
X38810000Y3300000D03*
D16*
X30750000Y62500000D03*
D16*
X28250000Y62500000D03*
D10*
X43000000Y21000000D03*
D10*
X53000000Y21000000D03*
D10*
X48000000Y21000000D03*
D17*
X4750000Y3650000D03*
D17*
X7250000Y3650000D03*
D18*
X29500000Y32490000D03*
D18*
X24420000Y32490000D03*
D19*
X20265000Y2775000D03*
D19*
X22805000Y2775000D03*
D19*
X25345000Y2775000D03*
D20*
X29500000Y37000000D03*
D20*
X34580000Y37000000D03*
D20*
X24420000Y37000000D03*
D17*
X51750000Y3650000D03*
D17*
X54250000Y3650000D03*
D21*
X34580000Y32090000D03*
D21*
X34580000Y27010000D03*
D10*
X43000000Y51300000D03*
D10*
X53000000Y51300000D03*
D10*
X48000000Y51300000D03*
D12*
X37080000Y19700000D03*
D12*
X37080000Y17160000D03*
D22*
X47140000Y4770000D03*
D22*
X44600000Y2230000D03*
D22*
X42060000Y4770000D03*
D10*
X6000000Y21000000D03*
D10*
X16000000Y21000000D03*
D10*
X11000000Y21000000D03*
D13*
X51550000Y63350000D03*
D13*
X51550000Y75800000D03*
D13*
X35250000Y75800000D03*
D13*
X51550000Y69550000D03*
D13*
X35250000Y69550000D03*
D13*
X35250000Y63350000D03*
D23*
X41700000Y57900000D03*
D23*
X10350000Y45140000D03*
D23*
X23895000Y46920000D03*
D24*
X13580000Y37030000D03*
D23*
X19670000Y18200000D03*
D23*
X11850000Y43860000D03*
D23*
X22200000Y18200000D03*
D23*
X30400000Y57900000D03*
D23*
X16030000Y54770000D03*
D25*
X46240000Y15770000D03*
D24*
X30750000Y10550000D03*
D23*
X31700000Y59100000D03*
D25*
X39890000Y41670000D03*
D23*
X47350000Y30410000D03*
D24*
X7840000Y40240000D03*
D23*
X25300000Y48300000D03*
D23*
X48560000Y35370000D03*
M02*
