M48
FMAT,2
METRIC,TZ
T7C0.350
T2C0.500
T6C0.600
T8C0.800
T3C0.900
T5C1.000
T1C1.400
T4C1.500
%
G90
G05
M71
T7
X33.150Y51.100
X33.955Y47.450
X45.090Y46.350
X21.299Y25.000
X13.666Y61.000
X51.664Y1.000
X41.700Y57.900
X26.332Y43.000
X35.700Y20.800
X45.090Y38.420
X10.350Y45.140
X25.950Y6.710
X57.997Y73.000
X47.490Y36.620
X23.895Y46.920
X19.999Y1.000
X26.400Y40.400
X32.665Y79.000
X51.664Y55.000
X51.664Y25.000
X11.900Y46.600
X1.000Y67.000
X7.700Y37.200
X45.931Y55.000
X8.333Y55.000
X45.500Y51.500
X32.700Y40.400
X33.665Y30.800
X13.666Y67.000
X50.650Y29.730
X33.900Y15.950
X19.670Y18.200
X1.000Y1.000
X11.133Y31.000
X3.600Y41.100
X38.698Y31.000
X10.070Y46.600
X11.850Y43.860
X7.333Y73.000
X19.400Y22.600
X23.200Y31.000
X18.500Y19.000
X1.000Y73.000
X13.666Y55.000
X47.490Y44.750
X33.100Y8.000
X13.666Y1.000
X19.400Y35.200
X33.665Y24.800
X22.200Y18.200
X13.666Y49.000
X41.100Y31.000
X7.333Y7.800
X30.400Y57.900
X23.650Y40.400
X7.333Y49.000
X57.997Y55.000
X16.030Y54.770
X52.664Y37.000
X38.698Y25.000
X45.090Y43.150
X57.997Y49.000
X13.666Y7.800
X26.775Y45.950
X15.700Y28.800
X26.332Y79.000
X36.790Y55.290
X8.430Y41.490
X1.000Y19.000
X32.665Y73.000
X31.600Y30.800
X7.333Y19.000
X0.900Y43.000
X26.332Y73.000
X38.398Y43.000
X32.665Y43.000
X1.000Y61.000
X57.997Y7.000
X6.000Y30.140
X51.740Y12.450
X45.331Y61.000
X41.180Y20.800
X57.997Y1.000
X26.332Y17.800
X56.370Y25.930
X13.666Y79.000
X6.260Y46.560
X23.200Y34.800
X21.299Y31.000
X1.000Y31.000
X32.665Y1.000
X43.360Y13.250
X32.665Y67.000
X57.997Y67.000
X38.998Y73.000
X20.999Y18.400
X26.332Y1.000
X57.997Y25.000
X11.500Y35.200
X45.331Y19.700
X1.000Y13.000
X45.090Y34.820
X38.998Y67.000
X32.050Y49.400
X51.664Y67.000
X19.999Y61.000
X1.000Y37.000
X8.800Y33.300
X26.332Y55.000
X1.000Y49.000
X34.250Y49.400
X45.331Y1.000
X26.332Y67.000
X7.333Y67.000
X37.690Y13.250
X21.647Y43.092
X45.331Y25.000
X51.664Y7.000
X45.331Y31.000
X57.997Y43.000
X26.332Y13.700
X33.100Y5.600
X26.332Y61.000
X48.860Y26.060
X40.520Y14.150
X38.998Y79.000
X19.399Y56.100
X50.364Y20.500
X57.997Y37.000
X51.664Y73.000
X23.300Y25.000
X27.930Y10.550
X1.000Y55.000
X17.500Y26.300
X38.400Y47.800
X51.664Y43.000
X26.332Y31.000
X31.600Y22.200
X11.100Y25.000
X40.190Y55.290
X45.331Y79.000
X7.933Y25.000
X45.331Y73.000
X19.999Y79.000
X41.100Y25.000
X19.299Y49.000
X51.664Y79.000
X38.998Y61.000
X57.997Y61.000
X21.299Y37.000
X34.250Y55.700
X26.532Y49.000
X38.698Y20.800
X31.700Y59.100
X13.136Y31.000
X35.900Y33.400
X7.333Y13.000
X23.900Y49.000
X57.997Y13.000
X14.800Y35.200
X33.300Y59.000
X1.000Y25.000
X13.666Y13.000
X47.350Y30.410
X13.666Y19.000
X32.050Y55.700
X33.150Y54.000
X7.333Y1.000
X48.800Y33.600
X57.997Y19.000
X19.999Y67.000
X25.300Y48.300
X19.999Y73.000
X51.664Y49.000
X26.440Y21.220
X14.270Y40.230
X38.998Y1.000
X13.666Y73.000
X21.300Y20.500
X20.900Y40.400
X48.560Y35.370
X57.997Y31.000
X7.333Y79.000
X13.766Y25.000
X51.664Y61.000
X45.331Y67.000
X7.333Y61.000
X19.200Y28.800
X15.940Y42.440
X45.331Y7.000
X1.000Y7.000
X37.700Y38.800
X29.815Y46.950
T2
X24.420Y29.990
X29.500Y29.990
X37.080Y27.010
X37.080Y32.090
X29.500Y32.490
X24.420Y32.490
X34.580Y32.090
X34.580Y27.010
T6
X47.140Y4.770
X44.600Y2.230
X42.060Y4.770
X13.580Y37.030
X30.750Y10.550
X7.840Y40.240
T8
X46.240Y15.770
X39.890Y41.670
T3
X30.800Y27.570
X28.300Y24.270
X25.800Y24.270
X30.800Y24.270
X28.300Y27.570
X25.800Y27.570
X37.080Y24.570
X37.080Y22.030
X20.265Y2.775
X22.805Y2.775
X25.345Y2.775
X37.080Y19.700
X37.080Y17.160
T5
X31.190Y3.300
X38.810Y3.300
X30.750Y62.500
X28.250Y62.500
X4.750Y3.650
X7.250Y3.650
X51.750Y3.650
X54.250Y3.650
T1
X6.000Y51.300
X16.000Y51.300
X11.000Y51.300
X43.000Y21.000
X53.000Y21.000
X48.000Y21.000
X43.000Y51.300
X53.000Y51.300
X48.000Y51.300
X6.000Y21.000
X16.000Y21.000
X11.000Y21.000
T4
X23.750Y63.350
X23.750Y75.800
X7.450Y75.800
X23.750Y69.550
X7.450Y69.550
X7.450Y63.350
X29.500Y37.000
X34.580Y37.000
X24.420Y37.000
X51.550Y63.350
X51.550Y75.800
X35.250Y75.800
X51.550Y69.550
X35.250Y69.550
X35.250Y63.350
M30
