M48
FMAT,2
METRIC,TZ
T7C0.350
T10C0.400
T8C0.500
T5C0.600
T9C0.800
T6C0.900
T4C1.000
T2C1.400
T3C1.500
T1C3.100
%
G90
G05
M71
T7
X27.836Y70.100
X78.500Y76.100
X21.503Y76.100
X74.950Y27.200
X59.501Y82.100
X72.167Y16.100
X59.501Y76.100
X49.800Y56.200
X34.169Y22.100
X72.167Y22.100
X46.835Y16.100
X34.169Y28.100
X21.503Y82.100
X72.167Y70.100
X59.501Y88.100
X30.180Y38.010
X40.502Y82.100
X65.834Y16.100
X30.180Y36.740
X72.167Y94.433
X46.835Y76.100
X59.501Y16.100
X57.850Y68.000
X34.318Y36.890
X27.836Y76.100
X37.700Y55.990
X54.160Y68.600
X49.800Y32.800
X46.835Y94.433
X59.501Y22.100
X48.500Y41.470
X66.134Y70.100
X35.050Y32.700
X24.200Y52.100
X54.168Y28.100
X52.860Y70.500
X65.834Y94.433
X40.502Y88.100
X40.502Y70.600
X68.700Y29.550
X61.100Y30.150
X66.234Y64.100
X53.600Y56.200
X40.502Y28.100
X65.834Y88.100
X52.860Y64.200
X27.836Y88.100
X78.500Y52.100
X40.502Y16.100
X27.836Y82.100
X28.336Y51.700
X21.503Y34.100
X57.300Y30.150
X46.835Y34.100
X21.503Y88.100
X65.530Y43.500
X32.590Y55.350
X34.169Y82.100
X21.503Y16.100
X21.503Y22.100
X69.772Y49.278
X40.502Y94.433
X72.167Y88.100
X42.870Y29.710
X40.700Y55.500
X78.500Y16.100
X78.500Y22.100
X65.850Y30.350
X59.950Y51.700
X34.169Y16.100
X49.580Y25.870
X78.500Y40.100
X46.835Y82.100
X78.500Y82.100
X48.810Y23.230
X55.460Y70.500
X53.168Y94.433
X53.168Y88.100
X27.836Y28.100
X32.310Y48.740
X59.950Y70.400
X78.500Y70.100
X21.503Y52.100
X78.500Y34.100
X65.834Y76.100
X40.502Y76.100
X21.503Y46.100
X54.160Y66.100
X78.500Y64.100
X78.500Y28.100
X47.735Y63.400
X39.680Y63.680
X53.168Y16.100
X65.834Y22.100
X63.000Y29.550
X47.775Y58.200
X34.169Y94.433
X27.836Y94.433
X53.500Y61.700
X36.350Y42.390
X27.830Y34.200
X53.600Y32.800
X46.835Y88.100
X46.835Y70.100
X43.700Y34.100
X65.834Y82.100
X30.198Y47.050
X21.503Y58.100
X53.168Y82.100
X34.169Y76.100
X40.502Y34.100
X61.850Y54.300
X59.501Y34.100
X21.503Y64.100
X31.680Y41.550
X56.250Y61.000
X27.836Y40.100
X59.501Y94.433
X26.900Y57.100
X78.500Y88.100
X21.503Y28.100
X74.950Y30.600
X62.450Y68.000
X21.503Y70.100
X27.836Y16.100
X72.167Y82.100
X58.050Y54.300
X72.167Y76.100
X21.503Y40.100
X72.167Y64.100
X40.502Y22.100
X34.169Y88.100
X34.169Y70.100
X55.460Y64.200
X30.100Y65.100
X78.500Y46.100
X78.500Y58.100
X53.168Y22.100
T10
X68.832Y44.748
X70.772Y43.478
T8
X46.500Y56.000
X52.700Y72.100
X38.190Y36.890
X58.370Y46.760
X44.600Y53.100
X39.610Y48.890
X46.500Y64.060
X40.210Y72.110
X71.630Y40.250
X27.940Y35.470
X34.340Y49.000
X35.600Y56.000
T5
X68.840Y19.970
X66.300Y17.430
X63.760Y19.970
X36.575Y44.265
X43.820Y48.590
X43.920Y50.380
X36.575Y44.265
X25.450Y63.280
X72.472Y50.778
X33.000Y62.930
X39.000Y51.690
X40.390Y41.940
X43.820Y46.340
X35.350Y34.200
T9
X56.550Y59.500
X53.450Y26.850
T6
X43.710Y17.770
X46.250Y17.770
X48.790Y17.770
T4
X51.250Y77.600
X48.750Y77.600
X53.390Y18.500
X61.010Y18.500
X72.950Y18.850
X75.450Y18.850
X24.550Y18.880
X27.050Y18.880
X48.010Y47.270
X48.700Y38.000
X71.650Y31.300
X55.300Y47.270
T2
X63.500Y66.400
X73.500Y66.400
X68.500Y66.400
X63.500Y36.100
X73.500Y36.100
X68.500Y36.100
X26.500Y66.400
X36.500Y66.400
X31.500Y66.400
X63.700Y59.500
T3
X44.250Y78.450
X44.250Y90.900
X27.950Y90.900
X44.250Y84.650
X27.950Y84.650
X27.950Y78.450
X72.050Y78.450
X72.050Y90.900
X55.750Y90.900
X72.050Y84.650
X55.750Y84.650
X55.750Y78.450
X31.500Y52.100
X36.580Y52.100
X26.420Y52.100
T1
X92.000Y20.000
X8.000Y90.000
X8.000Y20.000
X92.000Y90.000
M30
