%FSLAX46Y46*%
%MOMM*%
%ADD10C,0.100000*%
%AMPS51*
21,1,1.594948,2.741421,0.000000,0.000000,0.000000*
%
%ADD51PS51*%
%AMPS52*
21,1,1.594948,2.741421,0.000000,0.000000,180.000000*
%
%ADD52PS52*%
%AMPS13*
21,1,1.600000,2.950000,0.000000,0.000000,0.000000*
%
%ADD13PS13*%
%AMPS14*
21,1,1.600000,2.950000,0.000000,0.000000,180.000000*
%
%ADD14PS14*%
%AMPS35*
21,1,0.600000,1.550000,0.000000,0.000000,0.000000*
%
%ADD35PS35*%
%AMPS43*
21,1,0.600000,1.550000,0.000000,0.000000,90.000000*
%
%ADD43PS43*%
%AMPS36*
21,1,0.600000,1.550000,0.000000,0.000000,180.000000*
%
%ADD36PS36*%
%AMPS44*
21,1,0.600000,1.550000,0.000000,0.000000,270.000000*
%
%ADD44PS44*%
%AMPS40*
21,1,1.600000,2.500000,0.000000,0.000000,0.000000*
%
%ADD40PS40*%
%AMPS47*
21,1,1.600000,2.500000,0.000000,0.000000,90.000000*
%
%ADD47PS47*%
%AMPS39*
21,1,1.600000,2.500000,0.000000,0.000000,180.000000*
%
%ADD39PS39*%
%AMPS48*
21,1,1.600000,2.500000,0.000000,0.000000,270.000000*
%
%ADD48PS48*%
%AMPS45*
21,1,0.900000,1.000000,0.000000,0.000000,0.000000*
%
%ADD45PS45*%
%AMPS23*
21,1,0.900000,1.000000,0.000000,0.000000,90.000000*
%
%ADD23PS23*%
%AMPS46*
21,1,0.900000,1.000000,0.000000,0.000000,180.000000*
%
%ADD46PS46*%
%AMPS24*
21,1,0.900000,1.000000,0.000000,0.000000,270.000000*
%
%ADD24PS24*%
%AMPS54*
21,1,0.400000,0.900000,0.000000,0.000000,0.000000*
%
%ADD54PS54*%
%AMPS17*
21,1,0.400000,0.900000,0.000000,0.000000,90.000000*
%
%ADD17PS17*%
%AMPS53*
21,1,0.400000,0.900000,0.000000,0.000000,180.000000*
%
%ADD53PS53*%
%AMPS18*
21,1,0.400000,0.900000,0.000000,0.000000,270.000000*
%
%ADD18PS18*%
%AMPS33*
21,1,0.550000,1.250000,0.000000,0.000000,90.000000*
%
%ADD33PS33*%
%AMPS34*
21,1,0.550000,1.250000,0.000000,0.000000,270.000000*
%
%ADD34PS34*%
%AMPS50*
21,1,0.600000,1.800000,0.000000,0.000000,0.000000*
%
%ADD50PS50*%
%AMPS49*
21,1,0.600000,1.800000,0.000000,0.000000,180.000000*
%
%ADD49PS49*%
%AMPS38*
21,1,0.701421,1.491421,0.000000,0.000000,90.000000*
%
%ADD38PS38*%
%AMPS37*
21,1,0.701421,1.491421,0.000000,0.000000,270.000000*
%
%ADD37PS37*%
%AMPS29*
21,1,1.800000,1.200000,0.000000,0.000000,0.000000*
%
%ADD29PS29*%
%AMPS41*
21,1,1.800000,1.200000,0.000000,0.000000,90.000000*
%
%ADD41PS41*%
%AMPS30*
21,1,1.800000,1.200000,0.000000,0.000000,180.000000*
%
%ADD30PS30*%
%AMPS42*
21,1,1.800000,1.200000,0.000000,0.000000,270.000000*
%
%ADD42PS42*%
%AMPS11*
21,1,2.300000,0.900000,0.000000,0.000000,90.000000*
%
%ADD11PS11*%
%AMPS12*
21,1,2.300000,0.900000,0.000000,0.000000,270.000000*
%
%ADD12PS12*%
%AMPS19*
21,1,0.900000,0.500000,0.000000,0.000000,0.000000*
%
%ADD19PS19*%
%AMPS22*
21,1,0.900000,0.500000,0.000000,0.000000,90.000000*
%
%ADD22PS22*%
%AMPS20*
21,1,0.900000,0.500000,0.000000,0.000000,180.000000*
%
%ADD20PS20*%
%AMPS21*
21,1,0.900000,0.500000,0.000000,0.000000,270.000000*
%
%ADD21PS21*%
%AMPS25*
21,1,1.700000,1.100000,0.000000,0.000000,90.000000*
%
%ADD25PS25*%
%AMPS26*
21,1,1.700000,1.100000,0.000000,0.000000,270.000000*
%
%ADD26PS26*%
%AMPS55*
21,1,0.700000,0.900000,0.000000,0.000000,0.000000*
%
%ADD55PS55*%
%AMPS56*
21,1,0.700000,0.900000,0.000000,0.000000,180.000000*
%
%ADD56PS56*%
%AMPS32*
21,1,0.850000,0.800000,0.000000,0.000000,0.000000*
%
%ADD32PS32*%
%AMPS16*
21,1,0.850000,0.800000,0.000000,0.000000,90.000000*
%
%ADD16PS16*%
%AMPS31*
21,1,0.850000,0.800000,0.000000,0.000000,180.000000*
%
%ADD31PS31*%
%AMPS15*
21,1,0.850000,0.800000,0.000000,0.000000,270.000000*
%
%ADD15PS15*%
%AMPS28*
21,1,1.750000,2.650000,0.000000,0.000000,0.000000*
%
%ADD28PS28*%
%AMPS27*
21,1,1.750000,2.650000,0.000000,0.000000,180.000000*
%
%ADD27PS27*%
G01*
%LPD*%
G36*
X93432013Y90593159D02*
X93550000Y90000000D01*
X93550000Y90000000D01*
X93432013Y89406840D01*
X93096015Y88903984D01*
X92593159Y88567986D01*
X92000000Y88450000D01*
X91406840Y88567986D01*
X90903984Y88903984D01*
X90567986Y89406840D01*
X90450000Y90000000D01*
X90567986Y90593159D01*
X90903984Y91096015D01*
X91406840Y91432013D01*
X92000000Y91550000D01*
X92593159Y91432013D01*
X93096015Y91096015D01*
X93432013Y90593159D01*
D02*
G37*
%LPD*%
G36*
X9432013Y90593159D02*
X9550000Y90000000D01*
X9550000Y90000000D01*
X9432013Y89406840D01*
X9096015Y88903984D01*
X8593159Y88567986D01*
X8000000Y88450000D01*
X7406840Y88567986D01*
X6903984Y88903984D01*
X6567986Y89406840D01*
X6450000Y90000000D01*
X6567986Y90593159D01*
X6903984Y91096015D01*
X7406840Y91432013D01*
X8000000Y91550000D01*
X8593159Y91432013D01*
X9096015Y91096015D01*
X9432013Y90593159D01*
D02*
G37*
%LPD*%
G36*
X9432013Y20593159D02*
X9550000Y20000000D01*
X9550000Y20000000D01*
X9432013Y19406840D01*
X9096015Y18903984D01*
X8593159Y18567986D01*
X8000000Y18450000D01*
X7406840Y18567986D01*
X6903984Y18903984D01*
X6567986Y19406840D01*
X6450000Y20000000D01*
X6567986Y20593159D01*
X6903984Y21096015D01*
X7406840Y21432013D01*
X8000000Y21550000D01*
X8593159Y21432013D01*
X9096015Y21096015D01*
X9432013Y20593159D01*
D02*
G37*
%LPD*%
G36*
X93432013Y20593159D02*
X93550000Y20000000D01*
X93550000Y20000000D01*
X93432013Y19406840D01*
X93096015Y18903984D01*
X92593159Y18567986D01*
X92000000Y18450000D01*
X91406840Y18567986D01*
X90903984Y18903984D01*
X90567986Y19406840D01*
X90450000Y20000000D01*
X90567986Y20593159D01*
X90903984Y21096015D01*
X91406840Y21432013D01*
X92000000Y21550000D01*
X92593159Y21432013D01*
X93096015Y21096015D01*
X93432013Y20593159D01*
D02*
G37*
G01*
%LPD*%
D10*
X100000000Y120000000D02*
X100000000Y0D01*
D10*
X0Y120000000D02*
X100000000Y120000000D01*
D10*
X100000000Y0D02*
X0Y0D01*
D10*
X0Y0D02*
X0Y120000000D01*
G75*
D11*
X28798466Y47050000D03*
D12*
X26061534Y47050000D03*
D13*
X59950000Y54300000D03*
D14*
X59950000Y59500000D03*
D15*
X70971668Y49278328D03*
D16*
X72471668Y49278328D03*
D17*
X49275000Y61680000D03*
D18*
X47075000Y61680000D03*
D19*
X68570000Y40130000D03*
D20*
X68570000Y41630000D03*
D12*
X73443068Y40250000D03*
D11*
X76180000Y40250000D03*
D21*
X28050000Y56320000D03*
D22*
X29550000Y56320000D03*
D22*
X35250000Y42390000D03*
D21*
X33750000Y42390000D03*
D23*
X35400000Y62380000D03*
D24*
X33200000Y61430000D03*
D23*
X35400000Y60480000D03*
D20*
X45060000Y32110000D03*
D19*
X45060000Y30610000D03*
D25*
X53300000Y47270000D03*
D26*
X50100000Y47270000D03*
D27*
X59950000Y68000000D03*
D28*
X59950000Y63700000D03*
D24*
X33200000Y56550000D03*
D23*
X35400000Y57500000D03*
D24*
X33200000Y58450000D03*
D29*
X30750000Y60480000D03*
D30*
X30750000Y63380000D03*
D21*
X35418466Y36890000D03*
D22*
X36918466Y36890000D03*
D20*
X63080000Y44610000D03*
D19*
X63080000Y43110000D03*
D20*
X24110160Y42050000D03*
D19*
X24110160Y40550000D03*
D19*
X63080000Y40130000D03*
D20*
X63080000Y41630000D03*
D31*
X63000000Y28350000D03*
D32*
X63000000Y26850000D03*
D24*
X38190000Y42490000D03*
D23*
X40390000Y43440000D03*
D24*
X38190000Y44390000D03*
D33*
X31680000Y40550000D03*
D34*
X26330160Y38010000D03*
D33*
X31680000Y34200000D03*
D34*
X26330160Y39280000D03*
D34*
X26330160Y36740000D03*
D34*
X26330160Y32930000D03*
D33*
X31680000Y38010000D03*
D34*
X26330160Y31660000D03*
D33*
X31680000Y31660000D03*
D33*
X31680000Y36740000D03*
D33*
X31680000Y32930000D03*
D33*
X31680000Y35470000D03*
D34*
X26330160Y35470000D03*
D33*
X31680000Y39280000D03*
D34*
X26330160Y40550000D03*
D34*
X26330160Y34200000D03*
D21*
X40920000Y48590000D03*
D22*
X42420000Y48590000D03*
D20*
X74680000Y46150000D03*
D19*
X74680000Y44650000D03*
D20*
X66740000Y41630000D03*
D19*
X66740000Y40130000D03*
D35*
X47610000Y23230000D03*
D35*
X45060000Y23230000D03*
D35*
X43790000Y23230000D03*
D36*
X43790000Y28570000D03*
D36*
X46340000Y28570000D03*
D35*
X46340000Y23230000D03*
D36*
X47610000Y28570000D03*
D36*
X45060000Y28570000D03*
D26*
X57900000Y23100000D03*
D25*
X61100000Y23100000D03*
D37*
X42125000Y64490000D03*
D38*
X49275000Y67030000D03*
D38*
X49275000Y72110000D03*
D38*
X49275000Y69570000D03*
D37*
X42125000Y67030000D03*
D37*
X42125000Y72110000D03*
D38*
X49275000Y64490000D03*
D37*
X42125000Y69570000D03*
D39*
X59200000Y30150000D03*
D40*
X59200000Y26850000D03*
D31*
X68700000Y28350000D03*
D32*
X68700000Y26850000D03*
D19*
X29060000Y42540000D03*
D20*
X29060000Y44040000D03*
D21*
X25770000Y42540000D03*
D22*
X27270000Y42540000D03*
D20*
X41770000Y29130000D03*
D19*
X41770000Y27630000D03*
D26*
X50100000Y44370000D03*
D25*
X53300000Y44370000D03*
D22*
X28600000Y60480000D03*
D21*
X27100000Y60480000D03*
D20*
X39000000Y54490000D03*
D19*
X39000000Y52990000D03*
D22*
X35275000Y44265000D03*
D21*
X33775000Y44265000D03*
D13*
X51700000Y32800000D03*
D14*
X51700000Y38000000D03*
D21*
X74680000Y43000000D03*
D22*
X76180000Y43000000D03*
D41*
X62880000Y46760000D03*
D42*
X59980000Y46760000D03*
D19*
X37700000Y57090000D03*
D20*
X37700000Y58590000D03*
D43*
X72471668Y47298328D03*
D43*
X72471668Y44748328D03*
D43*
X72471668Y43478328D03*
D44*
X67131668Y43478328D03*
D44*
X67131668Y46028328D03*
D43*
X72471668Y46028328D03*
D44*
X67131668Y47298328D03*
D44*
X67131668Y44748328D03*
D20*
X64910000Y47410000D03*
D19*
X64910000Y45910000D03*
D23*
X39680000Y62380000D03*
D24*
X37480000Y61430000D03*
D23*
X39680000Y60480000D03*
D17*
X29550000Y58300000D03*
D18*
X27350000Y58300000D03*
D45*
X42820000Y52290000D03*
D46*
X41870000Y54490000D03*
D45*
X40920000Y52290000D03*
D41*
X37240000Y46890000D03*
D42*
X34340000Y46890000D03*
D20*
X64910000Y41630000D03*
D19*
X64910000Y40130000D03*
D32*
X33850000Y32700000D03*
D31*
X33850000Y34200000D03*
D20*
X32310000Y47640000D03*
D19*
X32310000Y46140000D03*
D45*
X53060000Y59500000D03*
D46*
X52110000Y61700000D03*
D45*
X51160000Y59500000D03*
D47*
X74950000Y28900000D03*
D48*
X71650000Y28900000D03*
D15*
X25770000Y44340000D03*
D16*
X27270000Y44340000D03*
D20*
X32100000Y44040000D03*
D19*
X32100000Y42540000D03*
D49*
X51660000Y70500000D03*
D50*
X54160000Y64200000D03*
D50*
X51660000Y64200000D03*
D49*
X54160000Y70500000D03*
D51*
X68850000Y54450001D03*
D52*
X68850000Y59349999D03*
D14*
X51700000Y56200000D03*
D13*
X51700000Y51000000D03*
D53*
X39680000Y58590000D03*
D54*
X39680000Y56390000D03*
D15*
X40920000Y50380000D03*
D16*
X42420000Y50380000D03*
D19*
X25450000Y60480000D03*
D20*
X25450000Y61980000D03*
D21*
X40920000Y46340000D03*
D22*
X42420000Y46340000D03*
D22*
X28600000Y62310000D03*
D21*
X27100000Y62310000D03*
D11*
X36918466Y39640000D03*
D12*
X34181534Y39640000D03*
D26*
X50100000Y41470000D03*
D25*
X53300000Y41470000D03*
D19*
X39270000Y46140000D03*
D20*
X39270000Y47640000D03*
D15*
X47775000Y59500000D03*
D16*
X49275000Y59500000D03*
D16*
X43120000Y58590000D03*
D15*
X41620000Y58590000D03*
D32*
X31280000Y56800000D03*
D31*
X31280000Y58300000D03*
D21*
X41620000Y56810000D03*
D22*
X43120000Y56810000D03*
D32*
X49580000Y27070000D03*
D31*
X49580000Y28570000D03*
D45*
X66800000Y26850000D03*
D46*
X65850000Y29050000D03*
D45*
X64900000Y26850000D03*
D31*
X54950000Y61000000D03*
D32*
X54950000Y59500000D03*
D55*
X41770000Y30910000D03*
D55*
X43070000Y30910000D03*
D56*
X42420000Y32810000D03*
M02*
