<?xml version="1.0" encoding="UTF-8" standalone="no"?>
<svg
   width="387"
   height="343"
   viewBox="0 0 387 343"
   version="1.1"
   id="svg466"
   sodipodi:docname="tone-cushion-panel.gtp.svg"
   inkscape:version="1.2.2 (b0a8486541, 2022-12-01)"
   xmlns:inkscape="http://www.inkscape.org/namespaces/inkscape"
   xmlns:sodipodi="http://sodipodi.sourceforge.net/DTD/sodipodi-0.dtd"
   xmlns="http://www.w3.org/2000/svg"
   xmlns:svg="http://www.w3.org/2000/svg">
  <defs
     id="defs470" />
  <sodipodi:namedview
     id="namedview468"
     pagecolor="#505050"
     bordercolor="#ffffff"
     borderopacity="1"
     inkscape:showpageshadow="0"
     inkscape:pageopacity="0"
     inkscape:pagecheckerboard="1"
     inkscape:deskcolor="#505050"
     showgrid="false"
     inkscape:zoom="2.8284271"
     inkscape:cx="10.960155"
     inkscape:cy="254.91199"
     inkscape:current-layer="svg466" />
  <path
     fill-rule="evenodd"
     fill="#7373de"
     fill-opacity="1"
     d="m 298.86643,55.015601 0.33203,1.683594 -0.33203,1.679687 -0.95313,1.425782 -1.42578,0.953125 -1.67968,0.332031 -1.6836,-0.332031 -1.42578,-0.953125 -0.95312,-1.425782 -0.33204,-1.679687 0.33204,-1.683594 0.95312,-1.425781 1.42578,-0.949219 1.6836,-0.335937 1.67968,0.335937 1.42578,0.949219 z m 0,0"
     id="path132"
     style="fill:none;stroke:#000000;stroke-opacity:1;stroke-width:0.37795276;stroke-dasharray:none" />
  <path
     fill-rule="evenodd"
     fill="#7373de"
     fill-opacity="1"
     d="m 60.757072,55.015601 0.332031,1.683594 -0.332031,1.679687 -0.953125,1.425782 -1.425781,0.953125 -1.683594,0.332031 -1.679687,-0.332031 -1.425782,-0.953125 -0.953125,-1.425782 -0.332031,-1.679687 0.332031,-1.683594 0.953125,-1.425781 1.425782,-0.949219 1.679687,-0.335937 1.683594,0.335937 1.425781,0.949219 z m 0,0"
     id="path134"
     style="fill:none;stroke:#000000;stroke-opacity:1;stroke-width:0.37795276;stroke-dasharray:none" />
  <path
     fill-rule="evenodd"
     fill="#7373de"
     fill-opacity="1"
     d="m 60.757072,253.44169 0.332031,1.68359 -0.332031,1.67969 -0.953125,1.42578 -1.425781,0.95312 -1.683594,0.33203 -1.679687,-0.33203 -1.425782,-0.95312 -0.953125,-1.42578 -0.332031,-1.67969 0.332031,-1.68359 0.953125,-1.42579 1.425782,-0.95312 1.679687,-0.33203 1.683594,0.33203 1.425781,0.95312 z m 0,0"
     id="path136"
     style="fill:none;stroke:#000000;stroke-opacity:1;stroke-width:0.37795276;stroke-dasharray:none" />
  <path
     fill-rule="evenodd"
     fill="#7373de"
     fill-opacity="1"
     d="m 298.86643,253.44169 0.33203,1.68359 -0.33203,1.67969 -0.95313,1.42578 -1.42578,0.95312 -1.67968,0.33203 -1.6836,-0.33203 -1.42578,-0.95312 -0.95312,-1.42578 -0.33204,-1.67969 0.33204,-1.68359 0.95312,-1.42579 1.42578,-0.95312 1.6836,-0.33203 1.67968,0.33203 1.42578,0.95312 z m 0,0"
     id="path138"
     style="fill:none;stroke:#000000;stroke-opacity:1;stroke-width:0.37795276;stroke-dasharray:none" />
  <path
     fill="none"
     stroke-width="0.00393701"
     stroke-linecap="round"
     stroke-linejoin="miter"
     stroke="#7373de"
     stroke-opacity="1"
     stroke-miterlimit="10"
     d="M 351.49925,0.003915 V 311.81669"
     id="path140"
     style="fill:none;stroke:#000000;stroke-opacity:1;stroke-width:0.37795276;stroke-dasharray:none" />
  <path
     fill="none"
     stroke-width="0.00393701"
     stroke-linecap="round"
     stroke-linejoin="miter"
     stroke="#7373de"
     stroke-opacity="1"
     stroke-miterlimit="10"
     d="M 0.00318345,0.003915 H 351.49925"
     id="path142"
     style="fill:none;stroke:#000000;stroke-opacity:1;stroke-width:0.37795276;stroke-dasharray:none" />
  <path
     fill="none"
     stroke-width="0.00393701"
     stroke-linecap="round"
     stroke-linejoin="miter"
     stroke="#7373de"
     stroke-opacity="1"
     stroke-miterlimit="10"
     d="M 351.49925,311.81669 H 0.00318345"
     id="path144"
     style="fill:none;stroke:#000000;stroke-opacity:1;stroke-width:0.37795276;stroke-dasharray:none" />
  <path
     fill="none"
     stroke-width="0.00393701"
     stroke-linecap="round"
     stroke-linejoin="miter"
     stroke="#7373de"
     stroke-opacity="1"
     stroke-miterlimit="10"
     d="M 0.00318345,311.81669 V 0.003915"
     id="path146"
     style="fill:none;stroke:#000000;stroke-opacity:1;stroke-width:0.37795276;stroke-dasharray:none" />
  <path
     fill-rule="evenodd"
     fill="#7373de"
     fill-opacity="1"
     d="m 114.04221,180.33231 v 2.41016 h 2.26953 v -2.41016 z m 0,0"
     id="path148"
     style="fill:none;stroke:#000000;stroke-opacity:1;stroke-width:0.37795276;stroke-dasharray:none" />
  <path
     fill-rule="evenodd"
     fill="#7373de"
     fill-opacity="1"
     d="m 120.56174,182.74247 v -2.41016 h -2.26953 v 2.41016 z m 0,0"
     id="path150"
     style="fill:none;stroke:#000000;stroke-opacity:1;stroke-width:0.37795276;stroke-dasharray:none" />
  <path
     fill-rule="evenodd"
     fill="#7373de"
     fill-opacity="1"
     d="m 245.52659,162.91044 h -2.41016 v 2.26953 h 2.41016 z m 0,0"
     id="path152"
     style="fill:none;stroke:#000000;stroke-opacity:1;stroke-width:0.37795276;stroke-dasharray:none" />
  <path
     fill-rule="evenodd"
     fill="#7373de"
     fill-opacity="1"
     d="m 243.11643,169.43387 h 2.41016 v -2.26953 h -2.41016 z m 0,0"
     id="path154"
     style="fill:none;stroke:#000000;stroke-opacity:1;stroke-width:0.37795276;stroke-dasharray:none" />
  <path
     fill-rule="evenodd"
     fill="#7373de"
     fill-opacity="1"
     d="m 176.57346,188.62137 h -5.10156 v 3.40235 h 5.10156 z m 0,0"
     id="path156"
     style="fill:none;stroke:#000000;stroke-opacity:1;stroke-width:0.37795276;stroke-dasharray:none" />
  <path
     fill-rule="evenodd"
     fill="#7373de"
     fill-opacity="1"
     d="m 171.4719,200.24637 h 5.10156 v -3.40234 h -5.10156 z m 0,0"
     id="path158"
     style="fill:none;stroke:#000000;stroke-opacity:1;stroke-width:0.37795276;stroke-dasharray:none" />
  <path
     fill-rule="evenodd"
     fill="#7373de"
     fill-opacity="1"
     d="m 107.94846,200.387 v 2.55078 h 1.41797 V 200.387 Z m 0,0"
     id="path160"
     style="fill:none;stroke:#000000;stroke-opacity:1;stroke-width:0.37795276;stroke-dasharray:none" />
  <path
     fill-rule="evenodd"
     fill="#7373de"
     fill-opacity="1"
     d="M 113.61643,202.93778 V 200.387 h -1.41797 v 2.55078 z m 0,0"
     id="path162"
     style="fill:none;stroke:#000000;stroke-opacity:1;stroke-width:0.37795276;stroke-dasharray:none" />
  <path
     fill-rule="evenodd"
     fill="#7373de"
     fill-opacity="1"
     d="m 124.81174,205.01981 v -2.41016 h -2.26953 v 2.41016 z m 0,0"
     id="path164"
     style="fill:none;stroke:#000000;stroke-opacity:1;stroke-width:0.37795276;stroke-dasharray:none" />
  <path
     fill-rule="evenodd"
     fill="#7373de"
     fill-opacity="1"
     d="m 118.29221,202.60965 v 2.41016 h 2.26953 v -2.41016 z m 0,0"
     id="path166"
     style="fill:none;stroke:#000000;stroke-opacity:1;stroke-width:0.37795276;stroke-dasharray:none" />
  <path
     fill-rule="evenodd"
     fill="#7373de"
     fill-opacity="1"
     d="m 235.8469,236.13309 v -4.53515 h -7.08594 v 4.53515 z m 0,0"
     id="path168"
     style="fill:none;stroke:#000000;stroke-opacity:1;stroke-width:0.37795276;stroke-dasharray:none" />
  <path
     fill-rule="evenodd"
     fill="#7373de"
     fill-opacity="1"
     d="m 219.40549,231.59403 v 4.53516 h 7.08594 v -4.53516 z m 0,0"
     id="path170"
     style="fill:none;stroke:#000000;stroke-opacity:1;stroke-width:0.37795276;stroke-dasharray:none" />
  <path
     fill-rule="evenodd"
     fill="#7373de"
     fill-opacity="1"
     d="m 180.48362,122.74637 h -1.69922 v 5.10157 h 1.69922 z m 0,0"
     id="path172"
     style="fill:none;stroke:#000000;stroke-opacity:1;stroke-width:0.37795276;stroke-dasharray:none" />
  <path
     fill-rule="evenodd"
     fill="#7373de"
     fill-opacity="1"
     d="m 185.87034,145.70731 h 1.69921 v -5.10156 h -1.69921 z m 0,0"
     id="path174"
     style="fill:none;stroke:#000000;stroke-opacity:1;stroke-width:0.37795276;stroke-dasharray:none" />
  <path
     fill-rule="evenodd"
     fill="#7373de"
     fill-opacity="1"
     d="m 178.7844,145.70731 h 1.69922 v -5.10156 h -1.69922 z m 0,0"
     id="path176"
     style="fill:none;stroke:#000000;stroke-opacity:1;stroke-width:0.37795276;stroke-dasharray:none" />
  <path
     fill-rule="evenodd"
     fill="#7373de"
     fill-opacity="1"
     d="m 187.57346,122.74637 h -1.69922 v 5.10157 h 1.69922 z m 0,0"
     id="path178"
     style="fill:none;stroke:#000000;stroke-opacity:1;stroke-width:0.37795276;stroke-dasharray:none" />
  <path
     fill-rule="evenodd"
     fill="#7373de"
     fill-opacity="1"
     d="m 150.46409,141.34012 v 1.98828 h 4.22656 v -1.98828 z m 0,0"
     id="path180"
     style="fill:none;stroke:#000000;stroke-opacity:1;stroke-width:0.37795276;stroke-dasharray:none" />
  <path
     fill-rule="evenodd"
     fill="#7373de"
     fill-opacity="1"
     d="M 174.96018,136.12528 V 134.137 h -4.22656 v 1.98828 z m 0,0"
     id="path182"
     style="fill:none;stroke:#000000;stroke-opacity:1;stroke-width:0.37795276;stroke-dasharray:none" />
  <path
     fill-rule="evenodd"
     fill="#7373de"
     fill-opacity="1"
     d="m 174.96018,121.72684 v -1.98828 h -4.22656 v 1.98828 z m 0,0"
     id="path184"
     style="fill:none;stroke:#000000;stroke-opacity:1;stroke-width:0.37795276;stroke-dasharray:none" />
  <path
     fill-rule="evenodd"
     fill="#7373de"
     fill-opacity="1"
     d="m 174.96018,128.92606 v -1.98828 h -4.22656 v 1.98828 z m 0,0"
     id="path186"
     style="fill:none;stroke:#000000;stroke-opacity:1;stroke-width:0.37795276;stroke-dasharray:none" />
  <path
     fill-rule="evenodd"
     fill="#7373de"
     fill-opacity="1"
     d="m 150.46409,134.137 v 1.98828 h 4.22656 V 134.137 Z m 0,0"
     id="path188"
     style="fill:none;stroke:#000000;stroke-opacity:1;stroke-width:0.37795276;stroke-dasharray:none" />
  <path
     fill-rule="evenodd"
     fill="#7373de"
     fill-opacity="1"
     d="m 150.46409,119.73856 v 1.98828 h 4.22656 v -1.98828 z m 0,0"
     id="path190"
     style="fill:none;stroke:#000000;stroke-opacity:1;stroke-width:0.37795276;stroke-dasharray:none" />
  <path
     fill-rule="evenodd"
     fill="#7373de"
     fill-opacity="1"
     d="m 174.96018,143.3284 v -1.98828 h -4.22656 v 1.98828 z m 0,0"
     id="path192"
     style="fill:none;stroke:#000000;stroke-opacity:1;stroke-width:0.37795276;stroke-dasharray:none" />
  <path
     fill-rule="evenodd"
     fill="#7373de"
     fill-opacity="1"
     d="m 150.46409,126.93778 v 1.98828 h 4.22656 v -1.98828 z m 0,0"
     id="path194"
     style="fill:none;stroke:#000000;stroke-opacity:1;stroke-width:0.37795276;stroke-dasharray:none" />
  <path
     fill-rule="evenodd"
     fill="#7373de"
     fill-opacity="1"
     d="m 106.10471,192.16434 h 5.10156 V 188.762 h -5.10156 z m 0,0"
     id="path196"
     style="fill:none;stroke:#000000;stroke-opacity:1;stroke-width:0.37795276;stroke-dasharray:none" />
  <path
     fill-rule="evenodd"
     fill="#7373de"
     fill-opacity="1"
     d="m 111.20627,180.54325 h -5.10156 v 3.40234 h 5.10156 z m 0,0"
     id="path198"
     style="fill:none;stroke:#000000;stroke-opacity:1;stroke-width:0.37795276;stroke-dasharray:none" />
  <path
     fill-rule="evenodd"
     fill="#7373de"
     fill-opacity="1"
     d="m 190.0383,225.92606 h -4.53515 v 7.08594 h 4.53515 z m 0,0"
     id="path200"
     style="fill:none;stroke:#000000;stroke-opacity:1;stroke-width:0.37795276;stroke-dasharray:none" />
  <path
     fill-rule="evenodd"
     fill="#7373de"
     fill-opacity="1"
     d="m 185.50315,242.36747 h 4.53515 v -7.08594 h -4.53515 z m 0,0"
     id="path202"
     style="fill:none;stroke:#000000;stroke-opacity:1;stroke-width:0.37795276;stroke-dasharray:none" />
  <path
     fill-rule="evenodd"
     fill="#7373de"
     fill-opacity="1"
     d="m 205.53049,127.91825 h -4.96094 v 7.51172 h 4.96094 z m 0,0"
     id="path204"
     style="fill:none;stroke:#000000;stroke-opacity:1;stroke-width:0.37795276;stroke-dasharray:none" />
  <path
     fill-rule="evenodd"
     fill="#7373de"
     fill-opacity="1"
     d="m 200.56955,147.62137 h 4.96094 v -7.51172 h -4.96094 z m 0,0"
     id="path206"
     style="fill:none;stroke:#000000;stroke-opacity:1;stroke-width:0.37795276;stroke-dasharray:none" />
  <path
     fill-rule="evenodd"
     fill="#7373de"
     fill-opacity="1"
     d="m 107.37815,177.70731 v -2.55078 h -1.41797 v 2.55078 z m 0,0"
     id="path208"
     style="fill:none;stroke:#000000;stroke-opacity:1;stroke-width:0.37795276;stroke-dasharray:none" />
  <path
     fill-rule="evenodd"
     fill="#7373de"
     fill-opacity="1"
     d="m 101.71018,175.15653 v 2.55078 h 1.41797 v -2.55078 z m 0,0"
     id="path210"
     style="fill:none;stroke:#000000;stroke-opacity:1;stroke-width:0.37795276;stroke-dasharray:none" />
  <path
     fill-rule="evenodd"
     fill="#7373de"
     fill-opacity="1"
     d="m 235.06565,144.99637 h -2.41016 v 2.26953 h 2.41016 z m 0,0"
     id="path212"
     style="fill:none;stroke:#000000;stroke-opacity:1;stroke-width:0.37795276;stroke-dasharray:none" />
  <path
     fill-rule="evenodd"
     fill="#7373de"
     fill-opacity="1"
     d="m 232.65549,151.5159 h 2.41016 v -2.26953 h -2.41016 z m 0,0"
     id="path214"
     style="fill:none;stroke:#000000;stroke-opacity:1;stroke-width:0.37795276;stroke-dasharray:none" />
  <path
     fill-rule="evenodd"
     fill="#7373de"
     fill-opacity="1"
     d="m 137.34299,177.17215 h 2.55078 v -1.41796 h -2.55078 z m 0,0"
     id="path216"
     style="fill:none;stroke:#000000;stroke-opacity:1;stroke-width:0.37795276;stroke-dasharray:none" />
  <path
     fill-rule="evenodd"
     fill="#7373de"
     fill-opacity="1"
     d="m 139.89377,171.50028 h -2.55078 v 1.41797 h 2.55078 z m 0,0"
     id="path218"
     style="fill:none;stroke:#000000;stroke-opacity:1;stroke-width:0.37795276;stroke-dasharray:none" />
  <path
     fill-rule="evenodd"
     fill="#7373de"
     fill-opacity="1"
     d="m 179.55002,208.46512 h 5.10157 v -3.40234 h -5.10157 z m 0,0"
     id="path220"
     style="fill:none;stroke:#000000;stroke-opacity:1;stroke-width:0.37795276;stroke-dasharray:none" />
  <path
     fill-rule="evenodd"
     fill="#7373de"
     fill-opacity="1"
     d="m 184.65159,196.84403 h -5.10157 v 3.40234 h 5.10157 z m 0,0"
     id="path222"
     style="fill:none;stroke:#000000;stroke-opacity:1;stroke-width:0.37795276;stroke-dasharray:none" />
  <path
     fill-rule="evenodd"
     fill="#7373de"
     fill-opacity="1"
     d="m 208.0383,240.24247 h 2.55079 v -2.83594 h -2.55079 z m 0,0"
     id="path224"
     style="fill:none;stroke:#000000;stroke-opacity:1;stroke-width:0.37795276;stroke-dasharray:none" />
  <path
     fill-rule="evenodd"
     fill="#7373de"
     fill-opacity="1"
     d="m 207.89768,231.17215 h -2.55078 v 2.83594 h 2.55078 z m 0,0"
     id="path226"
     style="fill:none;stroke:#000000;stroke-opacity:1;stroke-width:0.37795276;stroke-dasharray:none" />
  <path
     fill-rule="evenodd"
     fill="#7373de"
     fill-opacity="1"
     d="m 202.65159,240.24247 h 2.55078 v -2.83594 h -2.55078 z m 0,0"
     id="path228"
     style="fill:none;stroke:#000000;stroke-opacity:1;stroke-width:0.37795276;stroke-dasharray:none" />
  <path
     fill-rule="evenodd"
     fill="#7373de"
     fill-opacity="1"
     d="m 240.38205,172.29325 h -2.55078 v 1.41797 h 2.55078 z m 0,0"
     id="path230"
     style="fill:none;stroke:#000000;stroke-opacity:1;stroke-width:0.37795276;stroke-dasharray:none" />
  <path
     fill-rule="evenodd"
     fill="#7373de"
     fill-opacity="1"
     d="m 237.83127,177.96512 h 2.55078 v -1.41797 h -2.55078 z m 0,0"
     id="path232"
     style="fill:none;stroke:#000000;stroke-opacity:1;stroke-width:0.37795276;stroke-dasharray:none" />
  <path
     fill-rule="evenodd"
     fill="#7373de"
     fill-opacity="1"
     d="m 174.12034,150.80887 v -1.13281 h -2.55079 v 1.13281 z m 0,0"
     id="path234"
     style="fill:none;stroke:#000000;stroke-opacity:1;stroke-width:0.37795276;stroke-dasharray:none" />
  <path
     fill-rule="evenodd"
     fill="#7373de"
     fill-opacity="1"
     d="m 165.33518,149.67606 v 1.13281 h 2.55078 v -1.13281 z m 0,0"
     id="path236"
     style="fill:none;stroke:#000000;stroke-opacity:1;stroke-width:0.37795276;stroke-dasharray:none" />
  <path
     fill-rule="evenodd"
     fill="#7373de"
     fill-opacity="1"
     d="m 202.39768,193.35575 h 5.10156 v -3.40235 h -5.10156 z m 0,0"
     id="path238"
     style="fill:none;stroke:#000000;stroke-opacity:1;stroke-width:0.37795276;stroke-dasharray:none" />
  <path
     fill-rule="evenodd"
     fill="#7373de"
     fill-opacity="1"
     d="m 207.49924,181.73465 h -5.10156 v 3.40235 h 5.10156 z m 0,0"
     id="path240"
     style="fill:none;stroke:#000000;stroke-opacity:1;stroke-width:0.37795276;stroke-dasharray:none" />
  <path
     fill-rule="evenodd"
     fill="#7373de"
     fill-opacity="1"
     d="m 139.5383,192.73465 h 2.41016 v -2.26953 h -2.41016 z m 0,0"
     id="path242"
     style="fill:none;stroke:#000000;stroke-opacity:1;stroke-width:0.37795276;stroke-dasharray:none" />
  <path
     fill-rule="evenodd"
     fill="#7373de"
     fill-opacity="1"
     d="m 141.94846,186.21512 h -2.41016 v 2.26953 h 2.41016 z m 0,0"
     id="path244"
     style="fill:none;stroke:#000000;stroke-opacity:1;stroke-width:0.37795276;stroke-dasharray:none" />
  <path
     fill-rule="evenodd"
     fill="#7373de"
     fill-opacity="1"
     d="m 230.00705,145.42215 h -2.55078 v 1.41797 h 2.55078 z m 0,0"
     id="path246"
     style="fill:none;stroke:#000000;stroke-opacity:1;stroke-width:0.37795276;stroke-dasharray:none" />
  <path
     fill-rule="evenodd"
     fill="#7373de"
     fill-opacity="1"
     d="m 227.45627,151.09012 h 2.55078 v -1.41797 h -2.55078 z m 0,0"
     id="path248"
     style="fill:none;stroke:#000000;stroke-opacity:1;stroke-width:0.37795276;stroke-dasharray:none" />
  <path
     fill-rule="evenodd"
     fill="#7373de"
     fill-opacity="1"
     d="m 245.5969,172.29325 h -2.55078 v 1.41797 h 2.55078 z m 0,0"
     id="path250"
     style="fill:none;stroke:#000000;stroke-opacity:1;stroke-width:0.37795276;stroke-dasharray:none" />
  <path
     fill-rule="evenodd"
     fill="#7373de"
     fill-opacity="1"
     d="m 243.04612,177.96512 h 2.55078 v -1.41797 h -2.55078 z m 0,0"
     id="path252"
     style="fill:none;stroke:#000000;stroke-opacity:1;stroke-width:0.37795276;stroke-dasharray:none" />
  <path
     fill-rule="evenodd"
     fill="#7373de"
     fill-opacity="1"
     d="m 199.77659,233.43778 h -2.41016 v 2.26953 h 2.41016 z m 0,0"
     id="path254"
     style="fill:none;stroke:#000000;stroke-opacity:1;stroke-width:0.37795276;stroke-dasharray:none" />
  <path
     fill-rule="evenodd"
     fill="#7373de"
     fill-opacity="1"
     d="m 197.36643,239.95731 h 2.41016 v -2.26953 h -2.41016 z m 0,0"
     id="path256"
     style="fill:none;stroke:#000000;stroke-opacity:1;stroke-width:0.37795276;stroke-dasharray:none" />
  <path
     fill-rule="evenodd"
     fill="#7373de"
     fill-opacity="1"
     d="m 163.5344,227.24637 h 4.53515 v -8.36328 h -4.53515 z m 0,0"
     id="path258"
     style="fill:none;stroke:#000000;stroke-opacity:1;stroke-width:0.37795276;stroke-dasharray:none" />
  <path
     fill-rule="evenodd"
     fill="#7373de"
     fill-opacity="1"
     d="m 168.06955,204.1409 h -4.53515 v 8.36329 h 4.53515 z m 0,0"
     id="path260"
     style="fill:none;stroke:#000000;stroke-opacity:1;stroke-width:0.37795276;stroke-dasharray:none" />
  <path
     fill-rule="evenodd"
     fill="#7373de"
     fill-opacity="1"
     d="m 167.46018,155.18778 v 2.41016 h 2.26953 v -2.41016 z m 0,0"
     id="path262"
     style="fill:none;stroke:#000000;stroke-opacity:1;stroke-width:0.37795276;stroke-dasharray:none" />
  <path
     fill-rule="evenodd"
     fill="#7373de"
     fill-opacity="1"
     d="m 173.97971,157.59794 v -2.41016 h -2.26953 v 2.41016 z m 0,0"
     id="path264"
     style="fill:none;stroke:#000000;stroke-opacity:1;stroke-width:0.37795276;stroke-dasharray:none" />
  <path
     fill-rule="evenodd"
     fill="#7373de"
     fill-opacity="1"
     d="m 237.83127,169.28934 h 2.55078 v -1.41797 h -2.55078 z m 0,0"
     id="path266"
     style="fill:none;stroke:#000000;stroke-opacity:1;stroke-width:0.37795276;stroke-dasharray:none" />
  <path
     fill-rule="evenodd"
     fill="#7373de"
     fill-opacity="1"
     d="m 240.38205,163.62137 h -2.55078 v 1.41797 h 2.55078 z m 0,0"
     id="path268"
     style="fill:none;stroke:#000000;stroke-opacity:1;stroke-width:0.37795276;stroke-dasharray:none" />
  <path
     fill-rule="evenodd"
     fill="#7373de"
     fill-opacity="1"
     d="m 196.44455,223.66825 h 5.10157 v -3.79688 h -5.10157 z m 0,0"
     id="path270"
     style="fill:none;stroke:#000000;stroke-opacity:1;stroke-width:0.37795276;stroke-dasharray:none" />
  <path
     fill-rule="evenodd"
     fill="#7373de"
     fill-opacity="1"
     d="m 201.54612,211.74247 h -5.10157 v 3.79687 h 5.10157 z m 0,0"
     id="path272"
     style="fill:none;stroke:#000000;stroke-opacity:1;stroke-width:0.37795276;stroke-dasharray:none" />
  <path
     fill-rule="evenodd"
     fill="#7373de"
     fill-opacity="1"
     d="m 144.11643,233.49637 h 1.98437 v -2.55078 h -1.98437 z m 0,0"
     id="path274"
     style="fill:none;stroke:#000000;stroke-opacity:1;stroke-width:0.37795276;stroke-dasharray:none" />
  <path
     fill-rule="evenodd"
     fill="#7373de"
     fill-opacity="1"
     d="m 147.80002,233.49637 h 1.98438 v -2.55078 h -1.98438 z m 0,0"
     id="path276"
     style="fill:none;stroke:#000000;stroke-opacity:1;stroke-width:0.37795276;stroke-dasharray:none" />
  <path
     fill-rule="evenodd"
     fill="#7373de"
     fill-opacity="1"
     d="m 147.94455,225.55887 h -1.98437 v 2.55078 h 1.98437 z m 0,0"
     id="path278"
     style="fill:none;stroke:#000000;stroke-opacity:1;stroke-width:0.37795276;stroke-dasharray:none" />
  <path
     fill-rule="evenodd"
     fill="#7373de"
     fill-opacity="1"
     d="m 175.8469,177.17215 v -5.10156 h -3.79688 v 5.10156 z m 0,0"
     id="path280"
     style="fill:none;stroke:#000000;stroke-opacity:1;stroke-width:0.37795276;stroke-dasharray:none" />
  <path
     fill-rule="evenodd"
     fill="#7373de"
     fill-opacity="1"
     d="m 163.92112,172.06669 v 5.10156 h 3.79687 v -5.10156 z m 0,0"
     id="path282"
     style="fill:none;stroke:#000000;stroke-opacity:1;stroke-width:0.37795276;stroke-dasharray:none" />
  <path
     fill-rule="evenodd"
     fill="#7373de"
     fill-opacity="1"
     d="m 236.66721,186.11356 h -1.69922 v 4.39453 h 1.69922 z m 0,0"
     id="path284"
     style="fill:none;stroke:#000000;stroke-opacity:1;stroke-width:0.37795276;stroke-dasharray:none" />
  <path
     fill-rule="evenodd"
     fill="#7373de"
     fill-opacity="1"
     d="m 243.89768,186.11356 h -1.69922 v 4.39453 h 1.69922 z m 0,0"
     id="path286"
     style="fill:none;stroke:#000000;stroke-opacity:1;stroke-width:0.37795276;stroke-dasharray:none" />
  <path
     fill-rule="evenodd"
     fill="#7373de"
     fill-opacity="1"
     d="m 247.49534,186.11356 h -1.69922 v 4.39453 h 1.69922 z m 0,0"
     id="path288"
     style="fill:none;stroke:#000000;stroke-opacity:1;stroke-width:0.37795276;stroke-dasharray:none" />
  <path
     fill-rule="evenodd"
     fill="#7373de"
     fill-opacity="1"
     d="m 245.79612,205.64481 h 1.69922 v -4.39453 h -1.69922 z m 0,0"
     id="path290"
     style="fill:none;stroke:#000000;stroke-opacity:1;stroke-width:0.37795276;stroke-dasharray:none" />
  <path
     fill-rule="evenodd"
     fill="#7373de"
     fill-opacity="1"
     d="m 238.56565,205.64481 h 1.69922 v -4.39453 h -1.69922 z m 0,0"
     id="path292"
     style="fill:none;stroke:#000000;stroke-opacity:1;stroke-width:0.37795276;stroke-dasharray:none" />
  <path
     fill-rule="evenodd"
     fill="#7373de"
     fill-opacity="1"
     d="m 240.26877,186.11356 h -1.69922 v 4.39453 h 1.69922 z m 0,0"
     id="path294"
     style="fill:none;stroke:#000000;stroke-opacity:1;stroke-width:0.37795276;stroke-dasharray:none" />
  <path
     fill-rule="evenodd"
     fill="#7373de"
     fill-opacity="1"
     d="m 234.96799,205.64481 h 1.69922 v -4.39453 h -1.69922 z m 0,0"
     id="path296"
     style="fill:none;stroke:#000000;stroke-opacity:1;stroke-width:0.37795276;stroke-dasharray:none" />
  <path
     fill-rule="evenodd"
     fill="#7373de"
     fill-opacity="1"
     d="m 242.19455,205.64481 h 1.69922 v -4.39453 h -1.69922 z m 0,0"
     id="path298"
     style="fill:none;stroke:#000000;stroke-opacity:1;stroke-width:0.37795276;stroke-dasharray:none" />
  <path
     fill-rule="evenodd"
     fill="#7373de"
     fill-opacity="1"
     d="m 238.39768,180.71512 v 2.55078 h 1.41797 v -2.55078 z m 0,0"
     id="path300"
     style="fill:none;stroke:#000000;stroke-opacity:1;stroke-width:0.37795276;stroke-dasharray:none" />
  <path
     fill-rule="evenodd"
     fill="#7373de"
     fill-opacity="1"
     d="m 244.06565,183.2659 v -2.55078 h -1.41797 v 2.55078 z m 0,0"
     id="path302"
     style="fill:none;stroke:#000000;stroke-opacity:1;stroke-width:0.37795276;stroke-dasharray:none" />
  <path
     fill-rule="evenodd"
     fill="#7373de"
     fill-opacity="1"
     d="m 196.44455,208.67606 h 5.10157 v -3.79687 h -5.10157 z m 0,0"
     id="path304"
     style="fill:none;stroke:#000000;stroke-opacity:1;stroke-width:0.37795276;stroke-dasharray:none" />
  <path
     fill-rule="evenodd"
     fill="#7373de"
     fill-opacity="1"
     d="m 201.54612,196.74637 h -5.10157 v 3.79688 h 5.10157 z m 0,0"
     id="path306"
     style="fill:none;stroke:#000000;stroke-opacity:1;stroke-width:0.37795276;stroke-dasharray:none" />
  <path
     fill-rule="evenodd"
     fill="#7373de"
     fill-opacity="1"
     d="m 160.4719,256.15653 h 1.69922 V 251.762 h -1.69922 z m 0,0"
     id="path308"
     style="fill:none;stroke:#000000;stroke-opacity:1;stroke-width:0.37795276;stroke-dasharray:none" />
  <path
     fill-rule="evenodd"
     fill="#7373de"
     fill-opacity="1"
     d="m 153.24534,256.15653 h 1.69921 V 251.762 h -1.69921 z m 0,0"
     id="path310"
     style="fill:none;stroke:#000000;stroke-opacity:1;stroke-width:0.37795276;stroke-dasharray:none" />
  <path
     fill-rule="evenodd"
     fill="#7373de"
     fill-opacity="1"
     d="m 149.64377,256.15653 h 1.69922 V 251.762 h -1.69922 z m 0,0"
     id="path312"
     style="fill:none;stroke:#000000;stroke-opacity:1;stroke-width:0.37795276;stroke-dasharray:none" />
  <path
     fill-rule="evenodd"
     fill="#7373de"
     fill-opacity="1"
     d="m 151.3469,236.62919 h -1.69922 v 4.39453 h 1.69922 z m 0,0"
     id="path314"
     style="fill:none;stroke:#000000;stroke-opacity:1;stroke-width:0.37795276;stroke-dasharray:none" />
  <path
     fill-rule="evenodd"
     fill="#7373de"
     fill-opacity="1"
     d="m 158.57346,236.62919 h -1.69922 v 4.39453 h 1.69922 z m 0,0"
     id="path316"
     style="fill:none;stroke:#000000;stroke-opacity:1;stroke-width:0.37795276;stroke-dasharray:none" />
  <path
     fill-rule="evenodd"
     fill="#7373de"
     fill-opacity="1"
     d="m 156.87424,256.15653 h 1.69922 V 251.762 h -1.69922 z m 0,0"
     id="path318"
     style="fill:none;stroke:#000000;stroke-opacity:1;stroke-width:0.37795276;stroke-dasharray:none" />
  <path
     fill-rule="evenodd"
     fill="#7373de"
     fill-opacity="1"
     d="m 162.17502,236.62919 h -1.69922 v 4.39453 h 1.69922 z m 0,0"
     id="path320"
     style="fill:none;stroke:#000000;stroke-opacity:1;stroke-width:0.37795276;stroke-dasharray:none" />
  <path
     fill-rule="evenodd"
     fill="#7373de"
     fill-opacity="1"
     d="m 154.94455,236.62919 h -1.69921 v 4.39453 h 1.69921 z m 0,0"
     id="path322"
     style="fill:none;stroke:#000000;stroke-opacity:1;stroke-width:0.37795276;stroke-dasharray:none" />
  <path
     fill-rule="evenodd"
     fill="#7373de"
     fill-opacity="1"
     d="m 164.1008,180.28934 v 5.10156 h 3.40235 v -5.10156 z m 0,0"
     id="path324"
     style="fill:none;stroke:#000000;stroke-opacity:1;stroke-width:0.37795276;stroke-dasharray:none" />
  <path
     fill-rule="evenodd"
     fill="#7373de"
     fill-opacity="1"
     d="m 175.7219,185.3909 v -5.10156 h -3.40235 v 5.10156 z m 0,0"
     id="path326"
     style="fill:none;stroke:#000000;stroke-opacity:1;stroke-width:0.37795276;stroke-dasharray:none" />
  <path
     fill-rule="evenodd"
     fill="#7373de"
     fill-opacity="1"
     d="m 187.88205,208.67606 h 5.10157 v -3.79687 h -5.10157 z m 0,0"
     id="path328"
     style="fill:none;stroke:#000000;stroke-opacity:1;stroke-width:0.37795276;stroke-dasharray:none" />
  <path
     fill-rule="evenodd"
     fill="#7373de"
     fill-opacity="1"
     d="m 192.98752,196.74637 h -5.10156 v 3.79688 h 5.10156 z m 0,0"
     id="path330"
     style="fill:none;stroke:#000000;stroke-opacity:1;stroke-width:0.37795276;stroke-dasharray:none" />
  <path
     fill-rule="evenodd"
     fill="#7373de"
     fill-opacity="1"
     d="m 224.48752,182.10575 h 4.51953 v -7.76953 h -4.51953 z m 0,0"
     id="path332"
     style="fill:none;stroke:#000000;stroke-opacity:1;stroke-width:0.37795276;stroke-dasharray:none" />
  <path
     fill-rule="evenodd"
     fill="#7373de"
     fill-opacity="1"
     d="m 229.00705,160.44559 h -4.51953 v 7.76953 h 4.51953 z m 0,0"
     id="path334"
     style="fill:none;stroke:#000000;stroke-opacity:1;stroke-width:0.37795276;stroke-dasharray:none" />
  <path
     fill-rule="evenodd"
     fill="#7373de"
     fill-opacity="1"
     d="m 155.37034,228.10965 h -2.55079 v 1.41797 h 2.55079 z m 0,0"
     id="path336"
     style="fill:none;stroke:#000000;stroke-opacity:1;stroke-width:0.37795276;stroke-dasharray:none" />
  <path
     fill-rule="evenodd"
     fill="#7373de"
     fill-opacity="1"
     d="m 152.81955,233.77762 h 2.55079 v -1.41797 h -2.55079 z m 0,0"
     id="path338"
     style="fill:none;stroke:#000000;stroke-opacity:1;stroke-width:0.37795276;stroke-dasharray:none" />
  <path
     fill-rule="evenodd"
     fill="#7373de"
     fill-opacity="1"
     d="m 139.80784,182.6409 v -2.55078 h -1.41797 v 2.55078 z m 0,0"
     id="path340"
     style="fill:none;stroke:#000000;stroke-opacity:1;stroke-width:0.37795276;stroke-dasharray:none" />
  <path
     fill-rule="evenodd"
     fill="#7373de"
     fill-opacity="1"
     d="m 134.13987,180.09012 v 2.55078 h 1.41797 v -2.55078 z m 0,0"
     id="path342"
     style="fill:none;stroke:#000000;stroke-opacity:1;stroke-width:0.37795276;stroke-dasharray:none" />
  <path
     fill-rule="evenodd"
     fill="#7373de"
     fill-opacity="1"
     d="m 168.35471,188.46903 h -5.10156 v 3.79687 h 5.10156 z m 0,0"
     id="path344"
     style="fill:none;stroke:#000000;stroke-opacity:1;stroke-width:0.37795276;stroke-dasharray:none" />
  <path
     fill-rule="evenodd"
     fill="#7373de"
     fill-opacity="1"
     d="m 163.24924,200.39872 h 5.10156 v -3.79688 h -5.10156 z m 0,0"
     id="path346"
     style="fill:none;stroke:#000000;stroke-opacity:1;stroke-width:0.37795276;stroke-dasharray:none" />
  <path
     fill-rule="evenodd"
     fill="#7373de"
     fill-opacity="1"
     d="m 200.78049,175.31278 h 4.53516 v -8.36328 h -4.53516 z m 0,0"
     id="path348"
     style="fill:none;stroke:#000000;stroke-opacity:1;stroke-width:0.37795276;stroke-dasharray:none" />
  <path
     fill-rule="evenodd"
     fill="#7373de"
     fill-opacity="1"
     d="m 205.31565,152.21122 h -4.53516 v 8.36328 h 4.53516 z m 0,0"
     id="path350"
     style="fill:none;stroke:#000000;stroke-opacity:1;stroke-width:0.37795276;stroke-dasharray:none" />
  <path
     fill-rule="evenodd"
     fill="#7373de"
     fill-opacity="1"
     d="m 190.2219,151.00809 h -2.41016 v 2.26953 h 2.41016 z m 0,0"
     id="path352"
     style="fill:none;stroke:#000000;stroke-opacity:1;stroke-width:0.37795276;stroke-dasharray:none" />
  <path
     fill-rule="evenodd"
     fill="#7373de"
     fill-opacity="1"
     d="m 187.81174,157.52762 h 2.41016 v -2.26953 h -2.41016 z m 0,0"
     id="path354"
     style="fill:none;stroke:#000000;stroke-opacity:1;stroke-width:0.37795276;stroke-dasharray:none" />
  <path
     fill-rule="evenodd"
     fill="#7373de"
     fill-opacity="1"
     d="m 237.64768,151.5159 h 2.41016 v -2.26953 h -2.41016 z m 0,0"
     id="path356"
     style="fill:none;stroke:#000000;stroke-opacity:1;stroke-width:0.37795276;stroke-dasharray:none" />
  <path
     fill-rule="evenodd"
     fill="#7373de"
     fill-opacity="1"
     d="m 240.05393,144.99637 h -2.41016 v 2.26953 h 2.41016 z m 0,0"
     id="path358"
     style="fill:none;stroke:#000000;stroke-opacity:1;stroke-width:0.37795276;stroke-dasharray:none" />
  <path
     fill-rule="evenodd"
     fill="#7373de"
     fill-opacity="1"
     d="m 182.35471,157.80887 h 2.55078 v -2.83593 h -2.55078 z m 0,0"
     id="path360"
     style="fill:none;stroke:#000000;stroke-opacity:1;stroke-width:0.37795276;stroke-dasharray:none" />
  <path
     fill-rule="evenodd"
     fill="#7373de"
     fill-opacity="1"
     d="m 182.21409,148.73856 h -2.55079 v 2.83594 h 2.55079 z m 0,0"
     id="path362"
     style="fill:none;stroke:#000000;stroke-opacity:1;stroke-width:0.37795276;stroke-dasharray:none" />
  <path
     fill-rule="evenodd"
     fill="#7373de"
     fill-opacity="1"
     d="m 176.9719,157.80887 h 2.55078 v -2.83593 h -2.55078 z m 0,0"
     id="path364"
     style="fill:none;stroke:#000000;stroke-opacity:1;stroke-width:0.37795276;stroke-dasharray:none" />
  <path
     fill-rule="evenodd"
     fill="#7373de"
     fill-opacity="1"
     d="m 215.93284,233.43778 h -2.41016 v 2.26953 h 2.41016 z m 0,0"
     id="path366"
     style="fill:none;stroke:#000000;stroke-opacity:1;stroke-width:0.37795276;stroke-dasharray:none" />
  <path
     fill-rule="evenodd"
     fill="#7373de"
     fill-opacity="1"
     d="m 213.52268,239.95731 h 2.41016 v -2.26953 h -2.41016 z m 0,0"
     id="path368"
     style="fill:none;stroke:#000000;stroke-opacity:1;stroke-width:0.37795276;stroke-dasharray:none" />
  <path
     fill-rule="evenodd"
     fill="#7373de"
     fill-opacity="1"
     d="m 100.57737,187.2034 h 2.55078 v -1.41796 h -2.55078 z m 0,0"
     id="path370"
     style="fill:none;stroke:#000000;stroke-opacity:1;stroke-width:0.37795276;stroke-dasharray:none" />
  <path
     fill-rule="evenodd"
     fill="#7373de"
     fill-opacity="1"
     d="m 103.12815,181.53544 h -2.55078 v 1.41796 h 2.55078 z m 0,0"
     id="path372"
     style="fill:none;stroke:#000000;stroke-opacity:1;stroke-width:0.37795276;stroke-dasharray:none" />
  <path
     fill-rule="evenodd"
     fill="#7373de"
     fill-opacity="1"
     d="m 241.26096,208.39481 v 2.41016 h 2.26953 v -2.41016 z m 0,0"
     id="path374"
     style="fill:none;stroke:#000000;stroke-opacity:1;stroke-width:0.37795276;stroke-dasharray:none" />
  <path
     fill-rule="evenodd"
     fill="#7373de"
     fill-opacity="1"
     d="m 247.78049,210.80497 v -2.41016 h -2.26953 v 2.41016 z m 0,0"
     id="path376"
     style="fill:none;stroke:#000000;stroke-opacity:1;stroke-width:0.37795276;stroke-dasharray:none" />
  <path
     fill-rule="evenodd"
     fill="#7373de"
     fill-opacity="1"
     d="m 212.6008,225.94169 h 4.53516 v -8.36329 h -4.53516 z m 0,0"
     id="path378"
     style="fill:none;stroke:#000000;stroke-opacity:1;stroke-width:0.37795276;stroke-dasharray:none" />
  <path
     fill-rule="evenodd"
     fill="#7373de"
     fill-opacity="1"
     d="m 217.13596,202.84012 h -4.53516 v 8.36328 h 4.53516 z m 0,0"
     id="path380"
     style="fill:none;stroke:#000000;stroke-opacity:1;stroke-width:0.37795276;stroke-dasharray:none" />
  <path
     fill-rule="evenodd"
     fill="#7373de"
     fill-opacity="1"
     d="m 122.94065,172.012 v 5.10156 h 3.40234 V 172.012 Z m 0,0"
     id="path382"
     style="fill:none;stroke:#000000;stroke-opacity:1;stroke-width:0.37795276;stroke-dasharray:none" />
  <path
     fill-rule="evenodd"
     fill="#7373de"
     fill-opacity="1"
     d="M 134.56565,177.11356 V 172.012 h -3.40235 v 5.10156 z m 0,0"
     id="path384"
     style="fill:none;stroke:#000000;stroke-opacity:1;stroke-width:0.37795276;stroke-dasharray:none" />
  <path
     fill-rule="evenodd"
     fill="#7373de"
     fill-opacity="1"
     d="m 199.40549,181.67606 v -1.69922 h -4.39453 v 1.69922 z m 0,0"
     id="path386"
     style="fill:none;stroke:#000000;stroke-opacity:1;stroke-width:0.37795276;stroke-dasharray:none" />
  <path
     fill-rule="evenodd"
     fill="#7373de"
     fill-opacity="1"
     d="m 199.40549,188.90653 v -1.69922 h -4.39453 v 1.69922 z m 0,0"
     id="path388"
     style="fill:none;stroke:#000000;stroke-opacity:1;stroke-width:0.37795276;stroke-dasharray:none" />
  <path
     fill-rule="evenodd"
     fill="#7373de"
     fill-opacity="1"
     d="m 199.40549,192.50419 v -1.69922 h -4.39453 v 1.69922 z m 0,0"
     id="path390"
     style="fill:none;stroke:#000000;stroke-opacity:1;stroke-width:0.37795276;stroke-dasharray:none" />
  <path
     fill-rule="evenodd"
     fill="#7373de"
     fill-opacity="1"
     d="m 179.87424,190.80497 v 1.69922 h 4.39453 v -1.69922 z m 0,0"
     id="path392"
     style="fill:none;stroke:#000000;stroke-opacity:1;stroke-width:0.37795276;stroke-dasharray:none" />
  <path
     fill-rule="evenodd"
     fill="#7373de"
     fill-opacity="1"
     d="m 179.87424,183.5784 v 1.69922 h 4.39453 v -1.69922 z m 0,0"
     id="path394"
     style="fill:none;stroke:#000000;stroke-opacity:1;stroke-width:0.37795276;stroke-dasharray:none" />
  <path
     fill-rule="evenodd"
     fill="#7373de"
     fill-opacity="1"
     d="m 199.40549,185.27762 v -1.69922 h -4.39453 v 1.69922 z m 0,0"
     id="path396"
     style="fill:none;stroke:#000000;stroke-opacity:1;stroke-width:0.37795276;stroke-dasharray:none" />
  <path
     fill-rule="evenodd"
     fill="#7373de"
     fill-opacity="1"
     d="m 179.87424,179.97684 v 1.69922 h 4.39453 v -1.69922 z m 0,0"
     id="path398"
     style="fill:none;stroke:#000000;stroke-opacity:1;stroke-width:0.37795276;stroke-dasharray:none" />
  <path
     fill-rule="evenodd"
     fill="#7373de"
     fill-opacity="1"
     d="m 179.87424,187.2034 v 1.69922 h 4.39453 v -1.69922 z m 0,0"
     id="path400"
     style="fill:none;stroke:#000000;stroke-opacity:1;stroke-width:0.37795276;stroke-dasharray:none" />
  <path
     fill-rule="evenodd"
     fill="#7373de"
     fill-opacity="1"
     d="m 136.76096,188.19559 v -1.69922 h -4.39453 v 1.69922 z m 0,0"
     id="path402"
     style="fill:none;stroke:#000000;stroke-opacity:1;stroke-width:0.37795276;stroke-dasharray:none" />
  <path
     fill-rule="evenodd"
     fill="#7373de"
     fill-opacity="1"
     d="m 136.76096,195.42606 v -1.69922 h -4.39453 v 1.69922 z m 0,0"
     id="path404"
     style="fill:none;stroke:#000000;stroke-opacity:1;stroke-width:0.37795276;stroke-dasharray:none" />
  <path
     fill-rule="evenodd"
     fill="#7373de"
     fill-opacity="1"
     d="m 136.76096,199.02762 v -1.69922 h -4.39453 v 1.69922 z m 0,0"
     id="path406"
     style="fill:none;stroke:#000000;stroke-opacity:1;stroke-width:0.37795276;stroke-dasharray:none" />
  <path
     fill-rule="evenodd"
     fill="#7373de"
     fill-opacity="1"
     d="m 117.22971,197.3245 v 1.69922 h 4.39453 v -1.69922 z m 0,0"
     id="path408"
     style="fill:none;stroke:#000000;stroke-opacity:1;stroke-width:0.37795276;stroke-dasharray:none" />
  <path
     fill-rule="evenodd"
     fill="#7373de"
     fill-opacity="1"
     d="m 117.22971,190.09794 v 1.69921 h 4.39453 v -1.69921 z m 0,0"
     id="path410"
     style="fill:none;stroke:#000000;stroke-opacity:1;stroke-width:0.37795276;stroke-dasharray:none" />
  <path
     fill-rule="evenodd"
     fill="#7373de"
     fill-opacity="1"
     d="m 136.76096,191.79715 v -1.69921 h -4.39453 v 1.69921 z m 0,0"
     id="path412"
     style="fill:none;stroke:#000000;stroke-opacity:1;stroke-width:0.37795276;stroke-dasharray:none" />
  <path
     fill-rule="evenodd"
     fill="#7373de"
     fill-opacity="1"
     d="m 117.22971,186.49637 v 1.69922 h 4.39453 v -1.69922 z m 0,0"
     id="path414"
     style="fill:none;stroke:#000000;stroke-opacity:1;stroke-width:0.37795276;stroke-dasharray:none" />
  <path
     fill-rule="evenodd"
     fill="#7373de"
     fill-opacity="1"
     d="m 117.22971,193.72684 v 1.69922 h 4.39453 v -1.69922 z m 0,0"
     id="path416"
     style="fill:none;stroke:#000000;stroke-opacity:1;stroke-width:0.37795276;stroke-dasharray:none" />
  <path
     fill-rule="evenodd"
     fill="#7373de"
     fill-opacity="1"
     d="m 177.59299,247.04325 v 4.82031 h 3.11719 v -4.82031 z m 0,0"
     id="path418"
     style="fill:none;stroke:#000000;stroke-opacity:1;stroke-width:0.37795276;stroke-dasharray:none" />
  <path
     fill-rule="evenodd"
     fill="#7373de"
     fill-opacity="1"
     d="m 189.7844,251.86356 v -4.82031 h -3.11719 v 4.82031 z m 0,0"
     id="path420"
     style="fill:none;stroke:#000000;stroke-opacity:1;stroke-width:0.37795276;stroke-dasharray:none" />
  <path
     fill-rule="evenodd"
     fill="#7373de"
     fill-opacity="1"
     d="m 222.39377,151.5159 h 2.41016 v -2.26953 h -2.41016 z m 0,0"
     id="path422"
     style="fill:none;stroke:#000000;stroke-opacity:1;stroke-width:0.37795276;stroke-dasharray:none" />
  <path
     fill-rule="evenodd"
     fill="#7373de"
     fill-opacity="1"
     d="m 224.80393,144.99637 h -2.41016 v 2.26953 h 2.41016 z m 0,0"
     id="path424"
     style="fill:none;stroke:#000000;stroke-opacity:1;stroke-width:0.37795276;stroke-dasharray:none" />
  <path
     fill-rule="evenodd"
     fill="#7373de"
     fill-opacity="1"
     d="m 148.63205,181.79325 h 4.51954 v -7.76953 h -4.51954 z m 0,0"
     id="path426"
     style="fill:none;stroke:#000000;stroke-opacity:1;stroke-width:0.37795276;stroke-dasharray:none" />
  <path
     fill-rule="evenodd"
     fill="#7373de"
     fill-opacity="1"
     d="m 153.15159,160.13309 h -4.51954 v 7.76953 h 4.51954 z m 0,0"
     id="path428"
     style="fill:none;stroke:#000000;stroke-opacity:1;stroke-width:0.37795276;stroke-dasharray:none" />
  <path
     fill-rule="evenodd"
     fill="#7373de"
     fill-opacity="1"
     d="m 165.70237,244.21122 h 2.41015 v -2.26953 h -2.41015 z m 0,0"
     id="path430"
     style="fill:none;stroke:#000000;stroke-opacity:1;stroke-width:0.37795276;stroke-dasharray:none" />
  <path
     fill-rule="evenodd"
     fill="#7373de"
     fill-opacity="1"
     d="m 168.11252,237.69169 h -2.41015 v 2.26953 h 2.41015 z m 0,0"
     id="path432"
     style="fill:none;stroke:#000000;stroke-opacity:1;stroke-width:0.37795276;stroke-dasharray:none" />
  <path
     fill-rule="evenodd"
     fill="#7373de"
     fill-opacity="1"
     d="m 228.9719,193.69559 h 2.41015 v -2.26953 h -2.41015 z m 0,0"
     id="path434"
     style="fill:none;stroke:#000000;stroke-opacity:1;stroke-width:0.37795276;stroke-dasharray:none" />
  <path
     fill-rule="evenodd"
     fill="#7373de"
     fill-opacity="1"
     d="m 231.38205,187.17606 h -2.41015 v 2.26953 h 2.41015 z m 0,0"
     id="path436"
     style="fill:none;stroke:#000000;stroke-opacity:1;stroke-width:0.37795276;stroke-dasharray:none" />
  <path
     fill-rule="evenodd"
     fill="#7373de"
     fill-opacity="1"
     d="m 233.29612,156.78934 v -2.55078 h -1.41797 v 2.55078 z m 0,0"
     id="path438"
     style="fill:none;stroke:#000000;stroke-opacity:1;stroke-width:0.37795276;stroke-dasharray:none" />
  <path
     fill-rule="evenodd"
     fill="#7373de"
     fill-opacity="1"
     d="m 227.62424,154.23856 v 2.55078 h 1.41797 v -2.55078 z m 0,0"
     id="path440"
     style="fill:none;stroke:#000000;stroke-opacity:1;stroke-width:0.37795276;stroke-dasharray:none" />
  <path
     fill-rule="evenodd"
     fill="#7373de"
     fill-opacity="1"
     d="m 129.60471,182.6409 v -2.55078 h -1.41797 v 2.55078 z m 0,0"
     id="path442"
     style="fill:none;stroke:#000000;stroke-opacity:1;stroke-width:0.37795276;stroke-dasharray:none" />
  <path
     fill-rule="evenodd"
     fill="#7373de"
     fill-opacity="1"
     d="m 123.93284,180.09012 v 2.55078 h 1.41796 v -2.55078 z m 0,0"
     id="path444"
     style="fill:none;stroke:#000000;stroke-opacity:1;stroke-width:0.37795276;stroke-dasharray:none" />
  <path
     fill-rule="evenodd"
     fill="#7373de"
     fill-opacity="1"
     d="m 146.07346,236.52762 h -2.55078 v 1.41797 h 2.55078 z m 0,0"
     id="path446"
     style="fill:none;stroke:#000000;stroke-opacity:1;stroke-width:0.37795276;stroke-dasharray:none" />
  <path
     fill-rule="evenodd"
     fill="#7373de"
     fill-opacity="1"
     d="m 143.52268,242.19559 h 2.55078 v -1.41797 h -2.55078 z m 0,0"
     id="path448"
     style="fill:none;stroke:#000000;stroke-opacity:1;stroke-width:0.37795276;stroke-dasharray:none" />
  <path
     fill-rule="evenodd"
     fill="#7373de"
     fill-opacity="1"
     d="m 113.61643,197.55106 v -2.55078 h -1.41797 v 2.55078 z m 0,0"
     id="path450"
     style="fill:none;stroke:#000000;stroke-opacity:1;stroke-width:0.37795276;stroke-dasharray:none" />
  <path
     fill-rule="evenodd"
     fill="#7373de"
     fill-opacity="1"
     d="m 107.94846,195.00028 v 2.55078 h 1.41797 v -2.55078 z m 0,0"
     id="path452"
     style="fill:none;stroke:#000000;stroke-opacity:1;stroke-width:0.37795276;stroke-dasharray:none" />
  <path
     fill-rule="evenodd"
     fill="#7373de"
     fill-opacity="1"
     d="m 155.8508,156.50419 v -2.55079 h -1.41796 v 2.55079 z m 0,0"
     id="path454"
     style="fill:none;stroke:#000000;stroke-opacity:1;stroke-width:0.37795276;stroke-dasharray:none" />
  <path
     fill-rule="evenodd"
     fill="#7373de"
     fill-opacity="1"
     d="m 150.18284,153.9534 v 2.55079 h 1.41796 v -2.55079 z m 0,0"
     id="path456"
     style="fill:none;stroke:#000000;stroke-opacity:1;stroke-width:0.37795276;stroke-dasharray:none" />
  <path
     fill-rule="evenodd"
     fill="#7373de"
     fill-opacity="1"
     d="m 115.88205,177.70731 v -2.55078 h -1.41796 v 2.55078 z m 0,0"
     id="path458"
     style="fill:none;stroke:#000000;stroke-opacity:1;stroke-width:0.37795276;stroke-dasharray:none" />
  <path
     fill-rule="evenodd"
     fill="#7373de"
     fill-opacity="1"
     d="m 110.21409,175.15653 v 2.55078 h 1.41797 v -2.55078 z m 0,0"
     id="path460"
     style="fill:none;stroke:#000000;stroke-opacity:1;stroke-width:0.37795276;stroke-dasharray:none" />
  <path
     fill-rule="evenodd"
     fill="#7373de"
     fill-opacity="1"
     d="m 105.05393,155.17215 h -4.53516 v 7.08594 h 4.53516 z m 0,0"
     id="path462"
     style="fill:none;stroke:#000000;stroke-opacity:1;stroke-width:0.37795276;stroke-dasharray:none" />
  <path
     fill-rule="evenodd"
     fill="#7373de"
     fill-opacity="1"
     d="m 100.51877,171.61356 h 4.53516 v -7.08594 h -4.53516 z m 0,0"
     id="path464"
     style="fill:none;stroke:#000000;stroke-opacity:1;stroke-width:0.37795276;stroke-dasharray:none" />
</svg>
