M48
FMAT,2
METRIC,TZ
T7C0.350
T6C0.600
T9C0.700
T8C0.800
T5C0.900
T2C1.000
T4C1.400
T3C1.500
T1C4.700
%
G90
G05
M71
T7
X47.900Y27.800
X73.165Y94.633
X92.164Y76.300
X85.131Y34.230
X92.164Y27.800
X62.500Y37.500
X88.364Y34.300
X98.497Y88.300
X66.832Y94.633
X66.070Y25.410
X72.540Y34.050
X66.270Y63.930
X72.300Y74.700
X80.000Y44.924
X98.497Y27.800
X72.770Y70.800
X54.166Y76.300
X98.497Y34.300
X77.930Y54.630
X60.499Y88.300
X83.800Y44.270
X85.831Y88.300
X85.831Y27.800
X60.499Y40.300
X68.432Y40.200
X81.430Y68.550
X72.770Y64.500
X79.498Y94.633
X52.830Y43.100
X47.833Y34.300
X66.832Y76.300
X73.165Y82.300
X86.880Y64.780
X98.497Y40.300
X50.600Y60.900
X54.200Y37.500
X47.640Y55.700
X54.166Y34.300
X64.700Y43.700
X41.500Y70.300
X61.560Y45.590
X73.640Y74.390
X64.500Y64.300
X98.497Y58.300
X74.970Y64.500
X82.200Y41.970
X92.164Y20.900
X60.499Y20.900
X56.000Y57.700
X58.199Y64.300
X66.490Y34.010
X53.470Y52.220
X88.600Y40.500
X80.300Y51.690
X92.150Y32.500
X47.833Y82.300
X47.833Y94.633
X50.330Y65.160
X87.000Y60.000
X63.500Y54.060
X79.250Y32.250
X48.333Y69.900
X44.260Y61.310
X82.500Y64.300
X41.500Y27.800
X98.497Y64.300
X77.830Y68.550
X85.400Y41.970
X95.900Y57.960
X51.600Y56.300
X73.165Y88.300
X81.330Y54.630
X41.500Y88.300
X64.590Y62.000
X60.199Y70.800
X94.500Y64.600
X94.190Y58.330
X66.832Y88.300
X52.900Y60.900
X65.430Y58.630
X54.166Y70.300
X70.800Y46.400
X66.832Y20.900
X73.870Y69.100
X85.831Y76.300
X77.600Y64.500
X75.940Y34.050
X94.930Y50.870
X73.165Y58.300
X93.510Y39.760
X98.497Y82.300
X58.900Y50.080
X71.620Y73.230
X82.410Y73.230
X41.500Y20.900
X74.870Y74.120
X49.033Y76.300
X72.765Y28.500
X74.970Y70.800
X54.166Y94.633
X49.110Y57.360
X62.520Y44.770
X63.500Y43.800
X92.164Y70.300
X47.833Y20.900
X62.690Y61.440
X79.498Y88.300
X82.000Y49.100
X60.499Y94.633
X68.800Y43.100
X54.166Y20.900
X85.331Y63.400
X60.499Y76.300
X66.832Y82.300
X73.830Y48.660
X47.833Y88.300
X58.900Y52.100
X74.265Y53.300
X85.831Y52.300
X41.500Y40.300
X73.870Y62.800
X46.060Y54.160
X98.497Y70.300
X67.475Y58.630
X92.164Y88.300
X41.500Y82.300
X41.500Y76.300
X53.936Y46.900
X79.498Y76.300
X98.497Y76.300
X64.700Y40.300
X98.497Y52.300
X54.233Y27.800
X54.166Y88.300
X70.900Y52.200
X66.832Y70.300
X92.260Y64.650
X45.230Y43.860
X76.000Y38.100
X82.500Y60.000
X79.630Y70.750
X92.164Y94.633
X92.164Y82.300
X43.930Y48.110
X70.800Y67.600
X70.530Y62.030
X73.165Y20.900
X54.166Y40.300
X60.199Y64.300
X77.600Y61.100
X68.100Y29.250
X48.133Y47.310
X82.550Y32.250
X51.900Y45.900
X56.900Y56.800
X62.500Y40.300
X90.500Y64.650
X41.500Y46.300
X57.650Y46.210
X85.831Y94.633
X64.690Y36.310
X41.500Y64.300
X79.498Y82.300
X87.231Y70.300
X85.831Y82.300
X60.499Y37.500
X62.520Y48.790
X64.700Y46.400
X70.900Y54.800
X67.632Y63.600
X90.864Y52.300
X58.699Y56.900
X98.497Y20.900
X85.400Y61.950
X79.498Y20.900
X41.500Y52.300
X60.499Y82.300
X89.200Y45.870
X54.166Y82.300
X64.732Y52.300
X80.890Y34.250
X79.498Y28.050
X91.150Y55.530
X41.500Y34.300
X69.700Y24.900
X68.290Y36.310
X85.831Y20.900
X41.500Y58.300
X62.400Y27.600
X98.497Y46.300
X47.833Y40.300
T6
X88.040Y24.900
X85.500Y22.360
X82.960Y24.900
X69.300Y30.750
T9
X72.230Y53.400
T8
X70.376Y36.766
X50.130Y40.990
X83.560Y48.570
X86.650Y34.810
X69.910Y41.510
T5
X51.600Y59.250
X54.100Y62.550
X56.600Y62.550
X51.600Y62.550
X54.100Y59.250
X56.600Y59.250
X60.670Y22.700
X63.210Y22.700
X65.750Y22.700
T2
X92.650Y23.780
X95.150Y23.780
X71.250Y77.800
X68.750Y77.800
X45.350Y23.780
X47.850Y23.780
X71.240Y23.430
X78.860Y23.430
T4
X46.500Y66.600
X56.500Y66.600
X51.500Y66.600
X83.500Y66.600
X93.500Y66.600
X88.500Y66.600
T3
X64.250Y78.650
X64.250Y91.100
X47.950Y91.100
X64.250Y84.850
X47.950Y84.850
X47.950Y78.650
X92.050Y78.650
X92.050Y91.100
X75.750Y91.100
X92.050Y84.850
X75.750Y84.850
X75.750Y78.650
T1
X110.000Y25.000
X30.000Y83.000
X30.000Y25.000
X110.000Y83.000
M30
