M48
FMAT,2
METRIC,TZ
T7C0.350
T6C0.600
T9C0.700
T8C0.800
T5C0.900
T2C1.000
T4C1.400
T3C1.500
T1C3.100
%
G90
G05
M71
T7
X27.900Y23.000
X44.700Y44.300
X24.700Y59.900
X53.165Y89.833
X72.164Y71.500
X65.131Y29.430
X72.164Y23.000
X42.500Y32.700
X68.364Y29.500
X78.497Y83.500
X35.650Y22.150
X46.832Y89.833
X53.165Y35.500
X46.070Y20.610
X52.540Y29.250
X46.270Y59.130
X52.300Y69.900
X60.000Y40.124
X78.497Y23.000
X48.000Y47.100
X52.770Y66.000
X53.480Y56.530
X34.166Y71.500
X78.497Y29.500
X57.930Y49.830
X40.499Y83.500
X63.800Y39.470
X65.831Y83.500
X65.831Y23.000
X53.700Y38.700
X40.499Y35.500
X48.432Y35.400
X48.000Y41.600
X61.430Y63.750
X52.770Y59.700
X50.900Y67.600
X59.498Y89.833
X32.830Y38.300
X27.833Y29.500
X46.832Y71.500
X53.165Y77.500
X66.880Y59.980
X78.497Y35.500
X30.600Y56.100
X34.200Y32.900
X73.740Y40.330
X27.640Y50.600
X34.166Y29.500
X44.700Y38.900
X21.500Y65.500
X41.560Y40.790
X53.640Y69.590
X44.500Y59.500
X78.497Y53.500
X54.970Y59.700
X62.200Y37.170
X72.164Y16.100
X40.499Y16.100
X35.300Y52.500
X38.220Y60.860
X46.490Y29.210
X33.470Y47.420
X68.600Y35.700
X60.300Y46.890
X72.150Y27.700
X27.833Y77.500
X27.833Y89.833
X30.330Y60.360
X65.600Y55.200
X43.500Y49.230
X59.250Y27.450
X28.133Y65.100
X24.260Y56.510
X62.500Y59.500
X21.500Y23.000
X78.497Y59.500
X48.000Y44.500
X57.830Y63.750
X65.400Y37.170
X75.900Y53.160
X31.600Y51.300
X53.165Y83.500
X61.330Y49.830
X71.100Y53.500
X29.270Y45.080
X21.500Y83.500
X44.590Y57.200
X40.199Y66.000
X59.998Y35.500
X74.500Y59.800
X74.190Y53.530
X46.832Y83.500
X43.300Y53.500
X32.900Y56.100
X45.430Y53.500
X34.166Y65.500
X50.800Y41.600
X46.832Y16.100
X53.870Y64.300
X65.831Y71.500
X57.600Y59.700
X55.940Y29.250
X74.930Y45.770
X53.165Y53.500
X73.510Y34.960
X78.497Y77.500
X40.600Y45.250
X51.820Y68.430
X62.410Y68.430
X21.500Y16.100
X54.780Y69.300
X29.033Y71.500
X52.765Y23.700
X54.970Y66.000
X34.166Y89.833
X28.900Y51.850
X42.520Y39.970
X43.500Y39.000
X72.164Y65.500
X27.833Y16.100
X42.690Y56.640
X59.498Y83.500
X62.000Y44.300
X40.499Y89.833
X48.800Y38.300
X34.166Y16.100
X56.700Y38.700
X65.631Y59.500
X40.499Y71.500
X46.832Y77.500
X53.830Y43.860
X27.833Y83.500
X38.900Y47.300
X54.265Y48.500
X65.831Y47.500
X21.500Y35.500
X53.870Y58.000
X26.200Y49.100
X78.497Y65.500
X47.475Y53.830
X72.164Y83.500
X21.500Y77.500
X21.500Y71.500
X33.766Y42.260
X30.100Y22.100
X59.498Y71.500
X78.497Y71.500
X44.700Y35.500
X78.497Y47.500
X34.166Y83.500
X50.900Y47.400
X46.832Y65.500
X72.260Y59.850
X56.000Y33.300
X62.500Y55.200
X59.630Y65.950
X65.431Y41.500
X72.164Y89.833
X72.164Y77.500
X23.930Y43.310
X50.800Y62.800
X50.530Y57.230
X53.165Y16.100
X34.166Y35.500
X40.099Y59.500
X57.600Y56.300
X48.100Y24.450
X28.133Y42.400
X62.550Y27.450
X31.900Y41.100
X36.900Y52.000
X42.500Y35.500
X70.500Y59.850
X21.500Y41.500
X31.070Y45.100
X36.200Y45.100
X37.650Y41.410
X65.831Y89.833
X44.690Y31.510
X21.500Y59.500
X59.498Y77.500
X66.731Y65.500
X65.831Y77.500
X40.499Y32.700
X42.520Y43.990
X44.700Y41.600
X50.900Y50.000
X47.432Y59.500
X70.864Y47.500
X38.699Y52.100
X78.497Y16.100
X65.200Y57.150
X59.498Y16.100
X21.500Y47.500
X40.499Y77.500
X69.200Y41.070
X34.166Y77.500
X44.732Y47.500
X60.890Y29.450
X59.498Y23.250
X71.150Y50.730
X27.433Y60.200
X21.500Y29.500
X40.499Y42.100
X49.700Y20.100
X48.290Y31.510
X65.831Y16.100
X23.250Y48.900
X67.800Y45.000
X21.500Y53.500
X40.200Y62.700
X42.400Y22.800
X78.497Y41.500
X27.833Y35.500
T6
X68.040Y20.100
X65.500Y17.560
X62.960Y20.100
X49.300Y25.950
T9
X52.230Y48.600
T8
X50.376Y31.966
X30.130Y36.190
X63.560Y43.770
X66.650Y30.010
X49.410Y36.710
T5
X31.600Y54.450
X34.100Y57.750
X36.600Y57.750
X31.600Y57.750
X34.100Y54.450
X36.600Y54.450
X40.670Y17.900
X43.210Y17.900
X45.750Y17.900
T2
X72.650Y18.980
X75.150Y18.980
X51.250Y73.000
X48.750Y73.000
X25.350Y18.980
X27.850Y18.980
X51.240Y18.630
X58.860Y18.630
T4
X26.500Y61.800
X36.500Y61.800
X31.500Y61.800
X63.500Y61.800
X73.500Y61.800
X68.500Y61.800
T3
X44.250Y73.850
X44.250Y86.300
X27.950Y86.300
X44.250Y80.050
X27.950Y80.050
X27.950Y73.850
X72.050Y73.850
X72.050Y86.300
X55.750Y86.300
X72.050Y80.050
X55.750Y80.050
X55.750Y73.850
T1
X92.000Y20.000
X8.000Y90.000
X8.000Y20.000
X92.000Y90.000
M30
