%FSLAX46Y46*%
%MOMM*%
%ADD10C,0.100000*%
%AMPS47*
21,1,1.594948,2.741421,0.000000,0.000000,0.000000*
%
%ADD47PS47*%
%AMPS48*
21,1,1.594948,2.741421,0.000000,0.000000,180.000000*
%
%ADD48PS48*%
%AMPS35*
21,1,1.600000,2.950000,0.000000,0.000000,0.000000*
%
%ADD35PS35*%
%AMPS36*
21,1,1.600000,2.950000,0.000000,0.000000,180.000000*
%
%ADD36PS36*%
%AMPS44*
21,1,0.600000,1.550000,0.000000,0.000000,0.000000*
%
%ADD44PS44*%
%AMPS49*
21,1,0.600000,1.550000,0.000000,0.000000,90.000000*
%
%ADD49PS49*%
%AMPS43*
21,1,0.600000,1.550000,0.000000,0.000000,180.000000*
%
%ADD43PS43*%
%AMPS50*
21,1,0.600000,1.550000,0.000000,0.000000,270.000000*
%
%ADD50PS50*%
%AMPS26*
21,1,1.600000,2.500000,0.000000,0.000000,0.000000*
%
%ADD26PS26*%
%AMPS19*
21,1,1.600000,2.500000,0.000000,0.000000,90.000000*
%
%ADD19PS19*%
%AMPS25*
21,1,1.600000,2.500000,0.000000,0.000000,180.000000*
%
%ADD25PS25*%
%AMPS20*
21,1,1.600000,2.500000,0.000000,0.000000,270.000000*
%
%ADD20PS20*%
%AMPS31*
21,1,0.900000,1.000000,0.000000,0.000000,0.000000*
%
%ADD31PS31*%
%AMPS32*
21,1,0.900000,1.000000,0.000000,0.000000,180.000000*
%
%ADD32PS32*%
%AMPS33*
21,1,0.400000,0.900000,0.000000,0.000000,90.000000*
%
%ADD33PS33*%
%AMPS34*
21,1,0.400000,0.900000,0.000000,0.000000,270.000000*
%
%ADD34PS34*%
%AMPS22*
21,1,0.600000,1.800000,0.000000,0.000000,0.000000*
%
%ADD22PS22*%
%AMPS21*
21,1,0.600000,1.800000,0.000000,0.000000,180.000000*
%
%ADD21PS21*%
%AMPS24*
21,1,0.701421,1.491421,0.000000,0.000000,90.000000*
%
%ADD24PS24*%
%AMPS23*
21,1,0.701421,1.491421,0.000000,0.000000,270.000000*
%
%ADD23PS23*%
%AMPS37*
21,1,1.800000,1.340000,0.000000,0.000000,0.000000*
%
%ADD37PS37*%
%AMPS41*
21,1,1.800000,1.340000,0.000000,0.000000,90.000000*
%
%ADD41PS41*%
%AMPS38*
21,1,1.800000,1.340000,0.000000,0.000000,180.000000*
%
%ADD38PS38*%
%AMPS42*
21,1,1.800000,1.340000,0.000000,0.000000,270.000000*
%
%ADD42PS42*%
%AMPS16*
21,1,1.800000,1.200000,0.000000,0.000000,0.000000*
%
%ADD16PS16*%
%AMPS46*
21,1,1.800000,1.200000,0.000000,0.000000,90.000000*
%
%ADD46PS46*%
%AMPS15*
21,1,1.800000,1.200000,0.000000,0.000000,180.000000*
%
%ADD15PS15*%
%AMPS45*
21,1,1.800000,1.200000,0.000000,0.000000,270.000000*
%
%ADD45PS45*%
%AMPS29*
21,1,0.900000,0.500000,0.000000,0.000000,0.000000*
%
%ADD29PS29*%
%AMPS18*
21,1,0.900000,0.500000,0.000000,0.000000,90.000000*
%
%ADD18PS18*%
%AMPS30*
21,1,0.900000,0.500000,0.000000,0.000000,180.000000*
%
%ADD30PS30*%
%AMPS17*
21,1,0.900000,0.500000,0.000000,0.000000,270.000000*
%
%ADD17PS17*%
%AMPS52*
21,1,1.700000,1.100000,0.000000,0.000000,90.000000*
%
%ADD52PS52*%
%AMPS51*
21,1,1.700000,1.100000,0.000000,0.000000,270.000000*
%
%ADD51PS51*%
%AMPS39*
21,1,0.700000,0.900000,0.000000,0.000000,0.000000*
%
%ADD39PS39*%
%AMPS40*
21,1,0.700000,0.900000,0.000000,0.000000,180.000000*
%
%ADD40PS40*%
%AMPS14*
21,1,0.850000,0.800000,0.000000,0.000000,0.000000*
%
%ADD14PS14*%
%AMPS12*
21,1,0.850000,0.800000,0.000000,0.000000,90.000000*
%
%ADD12PS12*%
%AMPS13*
21,1,0.850000,0.800000,0.000000,0.000000,180.000000*
%
%ADD13PS13*%
%AMPS11*
21,1,0.850000,0.800000,0.000000,0.000000,270.000000*
%
%ADD11PS11*%
%AMPS28*
21,1,1.750000,2.650000,0.000000,0.000000,0.000000*
%
%ADD28PS28*%
%AMPS27*
21,1,1.750000,2.650000,0.000000,0.000000,180.000000*
%
%ADD27PS27*%
G01*
%LPD*%
G36*
X112171116Y83899306D02*
X112350000Y83000000D01*
X112350000Y83000000D01*
X112171116Y82100693D01*
X111661700Y81338299D01*
X110899306Y80828883D01*
X110000000Y80650000D01*
X109100693Y80828883D01*
X108338299Y81338299D01*
X107828883Y82100693D01*
X107650000Y83000000D01*
X107828883Y83899306D01*
X108338299Y84661700D01*
X109100693Y85171116D01*
X110000000Y85350000D01*
X110899306Y85171116D01*
X111661700Y84661700D01*
X112171116Y83899306D01*
D02*
G37*
%LPD*%
G36*
X32171116Y83899306D02*
X32350000Y83000000D01*
X32350000Y83000000D01*
X32171116Y82100693D01*
X31661700Y81338299D01*
X30899306Y80828883D01*
X30000000Y80650000D01*
X29100693Y80828883D01*
X28338299Y81338299D01*
X27828883Y82100693D01*
X27650000Y83000000D01*
X27828883Y83899306D01*
X28338299Y84661700D01*
X29100693Y85171116D01*
X30000000Y85350000D01*
X30899306Y85171116D01*
X31661700Y84661700D01*
X32171116Y83899306D01*
D02*
G37*
%LPD*%
G36*
X32171116Y25899306D02*
X32350000Y25000000D01*
X32350000Y25000000D01*
X32171116Y24100693D01*
X31661700Y23338299D01*
X30899306Y22828883D01*
X30000000Y22650000D01*
X29100693Y22828883D01*
X28338299Y23338299D01*
X27828883Y24100693D01*
X27650000Y25000000D01*
X27828883Y25899306D01*
X28338299Y26661700D01*
X29100693Y27171116D01*
X30000000Y27350000D01*
X30899306Y27171116D01*
X31661700Y26661700D01*
X32171116Y25899306D01*
D02*
G37*
%LPD*%
G36*
X112171116Y25899306D02*
X112350000Y25000000D01*
X112350000Y25000000D01*
X112171116Y24100693D01*
X111661700Y23338299D01*
X110899306Y22828883D01*
X110000000Y22650000D01*
X109100693Y22828883D01*
X108338299Y23338299D01*
X107828883Y24100693D01*
X107650000Y25000000D01*
X107828883Y25899306D01*
X108338299Y26661700D01*
X109100693Y27171116D01*
X110000000Y27350000D01*
X110899306Y27171116D01*
X111661700Y26661700D01*
X112171116Y25899306D01*
D02*
G37*
G01*
%LPD*%
D10*
X140000000Y0D02*
X140000000Y125000000D01*
D10*
X0Y125000000D02*
X0Y0D01*
D10*
X0Y0D02*
X140000000Y0D01*
D10*
X140000000Y125000000D02*
X0Y125000000D01*
G75*
D11*
X48630000Y50960000D03*
D12*
X50130000Y50960000D03*
D13*
X94190000Y57130000D03*
D14*
X94190000Y55630000D03*
D15*
X69390000Y47860000D03*
D16*
X69390000Y44960000D03*
D17*
X46330000Y43860000D03*
D18*
X47830000Y43860000D03*
D12*
X51630000Y43100000D03*
D11*
X50130000Y43100000D03*
D19*
X89950000Y32500000D03*
D20*
X86650000Y32500000D03*
D21*
X71370000Y70800000D03*
D22*
X73870000Y64500000D03*
D22*
X71370000Y64500000D03*
D21*
X73870000Y70800000D03*
D23*
X61825000Y64790000D03*
D24*
X68975000Y67330000D03*
D24*
X68975000Y72410000D03*
D24*
X68975000Y69870000D03*
D23*
X61825000Y67330000D03*
D23*
X61825000Y72410000D03*
D24*
X68975000Y64790000D03*
D23*
X61825000Y69870000D03*
D16*
X46330000Y47810000D03*
D15*
X46330000Y50710000D03*
D25*
X74240000Y34050000D03*
D26*
X74240000Y30750000D03*
D27*
X79630000Y68550000D03*
D28*
X79630000Y64250000D03*
D18*
X45630000Y52760000D03*
D17*
X44130000Y52760000D03*
D13*
X90500000Y63450000D03*
D14*
X90500000Y61950000D03*
D29*
X56900000Y52750000D03*
D30*
X56900000Y54250000D03*
D16*
X72240000Y42060000D03*
D15*
X72240000Y44960000D03*
D31*
X81840000Y30750000D03*
D32*
X80890000Y32950000D03*
D31*
X79940000Y30750000D03*
D30*
X92350000Y53970000D03*
D29*
X92350000Y52470000D03*
D33*
X68975000Y62000000D03*
D34*
X66775000Y62000000D03*
D16*
X80300000Y47390000D03*
D15*
X80300000Y50290000D03*
D14*
X57650000Y47410000D03*
D13*
X57650000Y48910000D03*
D30*
X88690000Y63450000D03*
D29*
X88690000Y61950000D03*
D30*
X94190000Y53970000D03*
D29*
X94190000Y52470000D03*
D13*
X78050000Y32250000D03*
D14*
X78050000Y30750000D03*
D35*
X66490000Y36310000D03*
D36*
X66490000Y41510000D03*
D11*
X67475000Y59830000D03*
D12*
X68975000Y59830000D03*
D29*
X92350000Y55530000D03*
D30*
X92350000Y57030000D03*
D37*
X78200000Y36766117D03*
D38*
X78200000Y39633883D03*
D39*
X59190000Y33080000D03*
D39*
X60490000Y33080000D03*
D40*
X59840000Y34980000D03*
D41*
X69363883Y53400000D03*
D42*
X66496117Y53400000D03*
D43*
X91190000Y48570000D03*
D43*
X93740000Y48570000D03*
D43*
X95010000Y48570000D03*
D44*
X95010000Y43230000D03*
D44*
X92460000Y43230000D03*
D43*
X92460000Y48570000D03*
D44*
X91190000Y43230000D03*
D44*
X93740000Y43230000D03*
D17*
X92350000Y50800000D03*
D18*
X93850000Y50800000D03*
D37*
X78200000Y42056117D03*
D38*
X78200000Y44923883D03*
D44*
X64910000Y25410000D03*
D44*
X62360000Y25410000D03*
D44*
X61090000Y25410000D03*
D43*
X61090000Y30750000D03*
D43*
X63640000Y30750000D03*
D44*
X63640000Y25410000D03*
D43*
X64910000Y30750000D03*
D43*
X62360000Y30750000D03*
D45*
X66490000Y50500000D03*
D46*
X69390000Y50500000D03*
D37*
X75180000Y42056117D03*
D38*
X75180000Y44923883D03*
D47*
X87990000Y52130001D03*
D48*
X87990000Y57029999D03*
D30*
X62360000Y34280000D03*
D29*
X62360000Y32780000D03*
D18*
X57070000Y51020000D03*
D17*
X55570000Y51020000D03*
D38*
X66490000Y47843883D03*
D37*
X66490000Y44976117D03*
D35*
X79630000Y54630000D03*
D36*
X79630000Y59830000D03*
D13*
X74680000Y61330000D03*
D14*
X74680000Y59830000D03*
D14*
X92260000Y61950000D03*
D13*
X92260000Y63450000D03*
D31*
X72780000Y59830000D03*
D32*
X71830000Y62030000D03*
D31*
X70880000Y59830000D03*
D13*
X83750000Y32250000D03*
D14*
X83750000Y30750000D03*
D29*
X43930000Y49210000D03*
D30*
X43930000Y50710000D03*
D11*
X93510000Y41060000D03*
D12*
X95010000Y41060000D03*
D35*
X83800000Y36770000D03*
D36*
X83800000Y41970000D03*
D45*
X51970000Y53420000D03*
D46*
X54870000Y53420000D03*
D49*
X77570000Y51210000D03*
D49*
X77570000Y48660000D03*
D49*
X77570000Y47390000D03*
D50*
X72230000Y47390000D03*
D50*
X72230000Y49940000D03*
D49*
X77570000Y49940000D03*
D50*
X72230000Y51210000D03*
D50*
X72230000Y48660000D03*
D49*
X55470000Y48910000D03*
D49*
X55470000Y46360000D03*
D49*
X55470000Y45090000D03*
D50*
X50130000Y45090000D03*
D50*
X50130000Y47640000D03*
D49*
X55470000Y47640000D03*
D50*
X50130000Y48910000D03*
D50*
X50130000Y46360000D03*
D51*
X71200000Y27000000D03*
D52*
X74400000Y27000000D03*
D14*
X86880000Y61950000D03*
D13*
X86880000Y63450000D03*
D47*
X61230000Y52240001D03*
D48*
X61230000Y57139999D03*
D14*
X66880000Y29250000D03*
D13*
X66880000Y30750000D03*
D14*
X89200000Y47070000D03*
D13*
X89200000Y48570000D03*
D18*
X90050000Y60140000D03*
D17*
X88550000Y60140000D03*
D18*
X53470000Y51020000D03*
D17*
X51970000Y51020000D03*
D30*
X59080000Y31310000D03*
D29*
X59080000Y29810000D03*
D18*
X47830000Y45760000D03*
D17*
X46330000Y45760000D03*
D18*
X62730000Y60239999D03*
D17*
X61230000Y60239999D03*
D18*
X48630000Y52760000D03*
D17*
X47130000Y52760000D03*
D25*
X44260000Y59010000D03*
D26*
X44260000Y55710000D03*
M02*
