M48
FMAT,2
METRIC,TZ
T7C0.350
T6C0.600
T9C0.700
T8C0.800
T5C0.900
T2C1.000
T4C1.400
T3C1.500
T1C3.100
%
G90
G05
M71
T7
X27.900Y22.800
X44.700Y44.100
X53.165Y89.633
X72.164Y71.300
X65.131Y29.230
X72.164Y22.800
X42.500Y32.500
X68.364Y29.300
X78.497Y83.300
X46.832Y89.633
X46.070Y20.410
X52.540Y29.050
X46.270Y58.930
X52.300Y69.700
X60.000Y39.924
X78.497Y22.800
X52.770Y65.800
X34.166Y71.300
X78.497Y29.300
X57.930Y49.630
X40.499Y83.300
X63.800Y39.270
X65.831Y83.300
X65.831Y22.800
X40.499Y35.300
X48.432Y35.200
X61.430Y63.550
X52.770Y59.500
X59.498Y89.633
X32.830Y38.100
X27.833Y29.300
X46.832Y71.300
X53.165Y77.300
X66.880Y59.780
X78.497Y35.300
X30.600Y55.900
X34.200Y32.700
X27.640Y50.700
X34.166Y29.300
X44.700Y38.700
X21.500Y65.300
X41.560Y40.590
X53.640Y69.390
X44.500Y59.300
X78.497Y53.300
X54.970Y59.500
X62.200Y36.970
X72.164Y15.900
X40.499Y15.900
X36.000Y52.700
X38.199Y59.300
X46.490Y29.010
X33.470Y47.220
X68.600Y35.500
X60.300Y46.690
X72.150Y27.500
X27.833Y77.300
X27.833Y89.633
X30.330Y60.160
X67.000Y55.000
X43.500Y49.060
X59.250Y27.250
X28.333Y64.900
X24.260Y56.310
X62.500Y59.300
X21.500Y22.800
X78.497Y59.300
X57.830Y63.550
X65.400Y36.970
X75.900Y52.960
X31.600Y51.300
X53.165Y83.300
X61.330Y49.630
X21.500Y83.300
X44.590Y57.000
X40.199Y65.800
X74.500Y59.600
X74.190Y53.330
X46.832Y83.300
X32.900Y55.900
X45.430Y53.300
X34.166Y65.300
X50.800Y41.400
X46.832Y15.900
X53.870Y64.100
X65.831Y71.300
X57.600Y59.500
X55.940Y29.050
X74.930Y45.870
X53.165Y53.300
X73.510Y34.760
X78.497Y77.300
X38.900Y45.080
X51.620Y68.230
X62.410Y68.230
X21.500Y15.900
X54.870Y69.120
X29.033Y71.300
X52.765Y23.500
X54.970Y65.800
X34.166Y89.633
X29.110Y52.360
X42.520Y39.770
X43.500Y38.800
X72.164Y65.300
X27.833Y15.900
X42.690Y56.440
X59.498Y83.300
X62.000Y44.100
X40.499Y89.633
X48.800Y38.100
X34.166Y15.900
X65.331Y58.400
X40.499Y71.300
X46.832Y77.300
X53.830Y43.660
X27.833Y83.300
X38.900Y47.100
X54.265Y48.300
X65.831Y47.300
X21.500Y35.300
X53.870Y57.800
X26.060Y49.160
X78.497Y65.300
X47.475Y53.630
X72.164Y83.300
X21.500Y77.300
X21.500Y71.300
X33.936Y41.900
X59.498Y71.300
X78.497Y71.300
X44.700Y35.300
X78.497Y47.300
X34.233Y22.800
X34.166Y83.300
X50.900Y47.200
X46.832Y65.300
X72.260Y59.650
X25.230Y38.860
X56.000Y33.100
X62.500Y55.000
X59.630Y65.750
X72.164Y89.633
X72.164Y77.300
X23.930Y43.110
X50.800Y62.600
X50.530Y57.030
X53.165Y15.900
X34.166Y35.300
X40.199Y59.300
X57.600Y56.100
X48.100Y24.250
X28.133Y42.310
X62.550Y27.250
X31.900Y40.900
X36.900Y51.800
X42.500Y35.300
X70.500Y59.650
X21.500Y41.300
X37.650Y41.210
X65.831Y89.633
X44.690Y31.310
X21.500Y59.300
X59.498Y77.300
X67.231Y65.300
X65.831Y77.300
X40.499Y32.500
X42.520Y43.790
X44.700Y41.400
X50.900Y49.800
X47.632Y58.600
X70.864Y47.300
X38.699Y51.900
X78.497Y15.900
X65.400Y56.950
X59.498Y15.900
X21.500Y47.300
X40.499Y77.300
X69.200Y40.870
X34.166Y77.300
X44.732Y47.300
X60.890Y29.250
X59.498Y23.050
X71.150Y50.530
X21.500Y29.300
X49.700Y19.900
X48.290Y31.310
X65.831Y15.900
X21.500Y53.300
X42.400Y22.600
X78.497Y41.300
X27.833Y35.300
T6
X68.040Y19.900
X65.500Y17.360
X62.960Y19.900
X49.300Y25.750
T9
X52.230Y48.400
T8
X50.376Y31.766
X30.130Y35.990
X63.560Y43.570
X66.650Y29.810
X49.910Y36.510
T5
X31.600Y54.250
X34.100Y57.550
X36.600Y57.550
X31.600Y57.550
X34.100Y54.250
X36.600Y54.250
X40.670Y17.700
X43.210Y17.700
X45.750Y17.700
T2
X72.650Y18.780
X75.150Y18.780
X51.250Y72.800
X48.750Y72.800
X25.350Y18.780
X27.850Y18.780
X51.240Y18.430
X58.860Y18.430
T4
X26.500Y61.600
X36.500Y61.600
X31.500Y61.600
X63.500Y61.600
X73.500Y61.600
X68.500Y61.600
T3
X44.250Y73.650
X44.250Y86.100
X27.950Y86.100
X44.250Y79.850
X27.950Y79.850
X27.950Y73.650
X72.050Y73.650
X72.050Y86.100
X55.750Y86.100
X72.050Y79.850
X55.750Y79.850
X55.750Y73.650
T1
X92.000Y20.000
X8.000Y90.000
X8.000Y20.000
X92.000Y90.000
M30
