%FSLAX46Y46*%
%MOMM*%
%ADD10C,0.100000*%
%AMPS47*
21,1,1.594948,2.741421,0.000000,0.000000,0.000000*
%
%ADD47PS47*%
%AMPS48*
21,1,1.594948,2.741421,0.000000,0.000000,180.000000*
%
%ADD48PS48*%
%AMPS35*
21,1,1.600000,2.950000,0.000000,0.000000,0.000000*
%
%ADD35PS35*%
%AMPS36*
21,1,1.600000,2.950000,0.000000,0.000000,180.000000*
%
%ADD36PS36*%
%AMPS44*
21,1,0.600000,1.550000,0.000000,0.000000,0.000000*
%
%ADD44PS44*%
%AMPS49*
21,1,0.600000,1.550000,0.000000,0.000000,90.000000*
%
%ADD49PS49*%
%AMPS43*
21,1,0.600000,1.550000,0.000000,0.000000,180.000000*
%
%ADD43PS43*%
%AMPS50*
21,1,0.600000,1.550000,0.000000,0.000000,270.000000*
%
%ADD50PS50*%
%AMPS26*
21,1,1.600000,2.500000,0.000000,0.000000,0.000000*
%
%ADD26PS26*%
%AMPS19*
21,1,1.600000,2.500000,0.000000,0.000000,90.000000*
%
%ADD19PS19*%
%AMPS25*
21,1,1.600000,2.500000,0.000000,0.000000,180.000000*
%
%ADD25PS25*%
%AMPS20*
21,1,1.600000,2.500000,0.000000,0.000000,270.000000*
%
%ADD20PS20*%
%AMPS31*
21,1,0.900000,1.000000,0.000000,0.000000,0.000000*
%
%ADD31PS31*%
%AMPS32*
21,1,0.900000,1.000000,0.000000,0.000000,180.000000*
%
%ADD32PS32*%
%AMPS33*
21,1,0.400000,0.900000,0.000000,0.000000,90.000000*
%
%ADD33PS33*%
%AMPS34*
21,1,0.400000,0.900000,0.000000,0.000000,270.000000*
%
%ADD34PS34*%
%AMPS22*
21,1,0.600000,1.800000,0.000000,0.000000,0.000000*
%
%ADD22PS22*%
%AMPS21*
21,1,0.600000,1.800000,0.000000,0.000000,180.000000*
%
%ADD21PS21*%
%AMPS24*
21,1,0.701421,1.491421,0.000000,0.000000,90.000000*
%
%ADD24PS24*%
%AMPS23*
21,1,0.701421,1.491421,0.000000,0.000000,270.000000*
%
%ADD23PS23*%
%AMPS37*
21,1,1.800000,1.340000,0.000000,0.000000,0.000000*
%
%ADD37PS37*%
%AMPS41*
21,1,1.800000,1.340000,0.000000,0.000000,90.000000*
%
%ADD41PS41*%
%AMPS38*
21,1,1.800000,1.340000,0.000000,0.000000,180.000000*
%
%ADD38PS38*%
%AMPS42*
21,1,1.800000,1.340000,0.000000,0.000000,270.000000*
%
%ADD42PS42*%
%AMPS16*
21,1,1.800000,1.200000,0.000000,0.000000,0.000000*
%
%ADD16PS16*%
%AMPS46*
21,1,1.800000,1.200000,0.000000,0.000000,90.000000*
%
%ADD46PS46*%
%AMPS15*
21,1,1.800000,1.200000,0.000000,0.000000,180.000000*
%
%ADD15PS15*%
%AMPS45*
21,1,1.800000,1.200000,0.000000,0.000000,270.000000*
%
%ADD45PS45*%
%AMPS29*
21,1,0.900000,0.500000,0.000000,0.000000,0.000000*
%
%ADD29PS29*%
%AMPS18*
21,1,0.900000,0.500000,0.000000,0.000000,90.000000*
%
%ADD18PS18*%
%AMPS30*
21,1,0.900000,0.500000,0.000000,0.000000,180.000000*
%
%ADD30PS30*%
%AMPS17*
21,1,0.900000,0.500000,0.000000,0.000000,270.000000*
%
%ADD17PS17*%
%AMPS52*
21,1,1.700000,1.100000,0.000000,0.000000,90.000000*
%
%ADD52PS52*%
%AMPS51*
21,1,1.700000,1.100000,0.000000,0.000000,270.000000*
%
%ADD51PS51*%
%AMPS39*
21,1,0.700000,0.900000,0.000000,0.000000,0.000000*
%
%ADD39PS39*%
%AMPS40*
21,1,0.700000,0.900000,0.000000,0.000000,180.000000*
%
%ADD40PS40*%
%AMPS14*
21,1,0.850000,0.800000,0.000000,0.000000,0.000000*
%
%ADD14PS14*%
%AMPS12*
21,1,0.850000,0.800000,0.000000,0.000000,90.000000*
%
%ADD12PS12*%
%AMPS13*
21,1,0.850000,0.800000,0.000000,0.000000,180.000000*
%
%ADD13PS13*%
%AMPS11*
21,1,0.850000,0.800000,0.000000,0.000000,270.000000*
%
%ADD11PS11*%
%AMPS28*
21,1,1.750000,2.650000,0.000000,0.000000,0.000000*
%
%ADD28PS28*%
%AMPS27*
21,1,1.750000,2.650000,0.000000,0.000000,180.000000*
%
%ADD27PS27*%
G01*
%LPD*%
G36*
X93432013Y90593159D02*
X93550000Y90000000D01*
X93550000Y90000000D01*
X93432013Y89406840D01*
X93096015Y88903984D01*
X92593159Y88567986D01*
X92000000Y88450000D01*
X91406840Y88567986D01*
X90903984Y88903984D01*
X90567986Y89406840D01*
X90450000Y90000000D01*
X90567986Y90593159D01*
X90903984Y91096015D01*
X91406840Y91432013D01*
X92000000Y91550000D01*
X92593159Y91432013D01*
X93096015Y91096015D01*
X93432013Y90593159D01*
D02*
G37*
%LPD*%
G36*
X9432013Y90593159D02*
X9550000Y90000000D01*
X9550000Y90000000D01*
X9432013Y89406840D01*
X9096015Y88903984D01*
X8593159Y88567986D01*
X8000000Y88450000D01*
X7406840Y88567986D01*
X6903984Y88903984D01*
X6567986Y89406840D01*
X6450000Y90000000D01*
X6567986Y90593159D01*
X6903984Y91096015D01*
X7406840Y91432013D01*
X8000000Y91550000D01*
X8593159Y91432013D01*
X9096015Y91096015D01*
X9432013Y90593159D01*
D02*
G37*
%LPD*%
G36*
X9432013Y20593159D02*
X9550000Y20000000D01*
X9550000Y20000000D01*
X9432013Y19406840D01*
X9096015Y18903984D01*
X8593159Y18567986D01*
X8000000Y18450000D01*
X7406840Y18567986D01*
X6903984Y18903984D01*
X6567986Y19406840D01*
X6450000Y20000000D01*
X6567986Y20593159D01*
X6903984Y21096015D01*
X7406840Y21432013D01*
X8000000Y21550000D01*
X8593159Y21432013D01*
X9096015Y21096015D01*
X9432013Y20593159D01*
D02*
G37*
%LPD*%
G36*
X93432013Y20593159D02*
X93550000Y20000000D01*
X93550000Y20000000D01*
X93432013Y19406840D01*
X93096015Y18903984D01*
X92593159Y18567986D01*
X92000000Y18450000D01*
X91406840Y18567986D01*
X90903984Y18903984D01*
X90567986Y19406840D01*
X90450000Y20000000D01*
X90567986Y20593159D01*
X90903984Y21096015D01*
X91406840Y21432013D01*
X92000000Y21550000D01*
X92593159Y21432013D01*
X93096015Y21096015D01*
X93432013Y20593159D01*
D02*
G37*
G01*
%LPD*%
D10*
X100000000Y120000000D02*
X100000000Y0D01*
D10*
X0Y120000000D02*
X100000000Y120000000D01*
D10*
X100000000Y0D02*
X0Y0D01*
D10*
X0Y0D02*
X0Y120000000D01*
G75*
D11*
X28630000Y46160000D03*
D12*
X30130000Y46160000D03*
D13*
X74190000Y52330000D03*
D14*
X74190000Y50830000D03*
D15*
X49390000Y43060000D03*
D16*
X49390000Y40160000D03*
D17*
X26330000Y39060000D03*
D18*
X27830000Y39060000D03*
D12*
X31630000Y38300000D03*
D11*
X30130000Y38300000D03*
D19*
X69950000Y27700000D03*
D20*
X66650000Y27700000D03*
D21*
X51370000Y66000000D03*
D22*
X53870000Y59700000D03*
D22*
X51370000Y59700000D03*
D21*
X53870000Y66000000D03*
D23*
X41825000Y59990000D03*
D24*
X48975000Y62530000D03*
D24*
X48975000Y67610000D03*
D24*
X48975000Y65070000D03*
D23*
X41825000Y62530000D03*
D23*
X41825000Y67610000D03*
D24*
X48975000Y59990000D03*
D23*
X41825000Y65070000D03*
D16*
X26330000Y43010000D03*
D15*
X26330000Y45910000D03*
D25*
X54240000Y29250000D03*
D26*
X54240000Y25950000D03*
D27*
X59630000Y63750000D03*
D28*
X59630000Y59450000D03*
D18*
X25630000Y47960000D03*
D17*
X24130000Y47960000D03*
D13*
X70500000Y58650000D03*
D14*
X70500000Y57150000D03*
D29*
X36900000Y47950000D03*
D30*
X36900000Y49450000D03*
D16*
X52240000Y37260000D03*
D15*
X52240000Y40160000D03*
D31*
X61840000Y25950000D03*
D32*
X60890000Y28150000D03*
D31*
X59940000Y25950000D03*
D30*
X72350000Y49170000D03*
D29*
X72350000Y47670000D03*
D33*
X48975000Y57200000D03*
D34*
X46775000Y57200000D03*
D16*
X60300000Y42590000D03*
D15*
X60300000Y45490000D03*
D14*
X37650000Y42610000D03*
D13*
X37650000Y44110000D03*
D30*
X68690000Y58650000D03*
D29*
X68690000Y57150000D03*
D30*
X74190000Y49170000D03*
D29*
X74190000Y47670000D03*
D13*
X58050000Y27450000D03*
D14*
X58050000Y25950000D03*
D35*
X46490000Y31510000D03*
D36*
X46490000Y36710000D03*
D11*
X47475000Y55030000D03*
D12*
X48975000Y55030000D03*
D18*
X36970000Y46220000D03*
D17*
X35470000Y46220000D03*
D29*
X72350000Y50730000D03*
D30*
X72350000Y52230000D03*
D37*
X58200000Y31966117D03*
D38*
X58200000Y34833883D03*
D39*
X39190000Y28280000D03*
D39*
X40490000Y28280000D03*
D40*
X39840000Y30180000D03*
D41*
X49363883Y48600000D03*
D42*
X46496117Y48600000D03*
D43*
X71190000Y43770000D03*
D43*
X73740000Y43770000D03*
D43*
X75010000Y43770000D03*
D44*
X75010000Y38430000D03*
D44*
X72460000Y38430000D03*
D43*
X72460000Y43770000D03*
D44*
X71190000Y38430000D03*
D44*
X73740000Y38430000D03*
D17*
X72350000Y46000000D03*
D18*
X73850000Y46000000D03*
D37*
X58200000Y37256117D03*
D38*
X58200000Y40123883D03*
D44*
X44910000Y20610000D03*
D44*
X42360000Y20610000D03*
D44*
X41090000Y20610000D03*
D43*
X41090000Y25950000D03*
D43*
X43640000Y25950000D03*
D44*
X43640000Y20610000D03*
D43*
X44910000Y25950000D03*
D43*
X42360000Y25950000D03*
D45*
X46490000Y45700000D03*
D46*
X49390000Y45700000D03*
D37*
X55180000Y37256117D03*
D38*
X55180000Y40123883D03*
D47*
X67990000Y47330001D03*
D48*
X67990000Y52229999D03*
D30*
X42360000Y29480000D03*
D29*
X42360000Y27980000D03*
D38*
X46490000Y43043883D03*
D37*
X46490000Y40176117D03*
D35*
X59630000Y49830000D03*
D36*
X59630000Y55030000D03*
D13*
X54680000Y56530000D03*
D14*
X54680000Y55030000D03*
D14*
X72260000Y57150000D03*
D13*
X72260000Y58650000D03*
D31*
X52780000Y55030000D03*
D32*
X51830000Y57230000D03*
D31*
X50880000Y55030000D03*
D13*
X63750000Y27450000D03*
D14*
X63750000Y25950000D03*
D29*
X23930000Y44410000D03*
D30*
X23930000Y45910000D03*
D11*
X73510000Y36260000D03*
D12*
X75010000Y36260000D03*
D35*
X63800000Y31970000D03*
D36*
X63800000Y37170000D03*
D45*
X31970000Y48620000D03*
D46*
X34870000Y48620000D03*
D49*
X57570000Y46410000D03*
D49*
X57570000Y43860000D03*
D49*
X57570000Y42590000D03*
D50*
X52230000Y42590000D03*
D50*
X52230000Y45140000D03*
D49*
X57570000Y45140000D03*
D50*
X52230000Y46410000D03*
D50*
X52230000Y43860000D03*
D49*
X35470000Y44110000D03*
D49*
X35470000Y41560000D03*
D49*
X35470000Y40290000D03*
D50*
X30130000Y40290000D03*
D50*
X30130000Y42840000D03*
D49*
X35470000Y42840000D03*
D50*
X30130000Y44110000D03*
D50*
X30130000Y41560000D03*
D51*
X51200000Y22200000D03*
D52*
X54400000Y22200000D03*
D14*
X66880000Y57150000D03*
D13*
X66880000Y58650000D03*
D47*
X41230000Y47440001D03*
D48*
X41230000Y52339999D03*
D14*
X46880000Y24450000D03*
D13*
X46880000Y25950000D03*
D14*
X69200000Y42270000D03*
D13*
X69200000Y43770000D03*
D18*
X70050000Y55340000D03*
D17*
X68550000Y55340000D03*
D18*
X33470000Y46220000D03*
D17*
X31970000Y46220000D03*
D30*
X39080000Y26510000D03*
D29*
X39080000Y25010000D03*
D18*
X27830000Y40960000D03*
D17*
X26330000Y40960000D03*
D18*
X42730000Y55439999D03*
D17*
X41230000Y55439999D03*
D18*
X28630000Y47960000D03*
D17*
X27130000Y47960000D03*
D25*
X24260000Y54210000D03*
D26*
X24260000Y50910000D03*
M02*
