%FSLAX46Y46*%
%MOMM*%
%AMPS13*
1,1,2.300000,0.000000,0.000000*
%
%ADD13PS13*%
%AMPS18*
1,1,1.800000,0.000000,0.000000*
%
%ADD18PS18*%
%AMPS17*
1,1,2.400000,0.000000,0.000000*
%
%ADD17PS17*%
%AMPS19*
1,1,1.500000,0.000000,0.000000*
%
%ADD19PS19*%
%AMPS15*
1,1,2.400000,0.000000,0.000000*
%
%ADD15PS15*%
%AMPS12*
1,1,1.900000,0.000000,0.000000*
%
%ADD12PS12*%
%AMPS16*
1,1,1.900000,0.000000,0.000000*
%
%ADD16PS16*%
%AMPS14*
1,1,1.900000,0.000000,0.000000*
%
%ADD14PS14*%
%AMPS22*
1,1,1.000000,0.000000,0.000000*
%
%ADD22PS22*%
%AMPS21*
1,1,0.800000,0.000000,0.000000*
%
%ADD21PS21*%
%AMPS20*
1,1,0.550000,0.000000,0.000000*
%
%ADD20PS20*%
%AMPS11*
1,1,3.200000,0.000000,0.000000*
%
%ADD11PS11*%
%AMPS10*
1,1,0.700000,0.000000,0.000000*
%
%ADD10PS10*%
G01*
G01*
%LPD*%
G75*
D10*
X80630000Y19900000D03*
D10*
X9630000Y20800000D03*
D10*
X140370000Y19900000D03*
D10*
X80630000Y19000000D03*
D10*
X80630000Y73900000D03*
D10*
X69370000Y19900000D03*
D10*
X9630000Y18100000D03*
D10*
X69370000Y73000000D03*
D10*
X140370000Y74800000D03*
D10*
X9630000Y19900000D03*
D11*
X147000000Y3000000D03*
D10*
X140370000Y73900000D03*
D10*
X9630000Y74800000D03*
D10*
X69370000Y20800000D03*
D11*
X3000000Y97000000D03*
D10*
X140370000Y20800000D03*
D10*
X80630000Y73000000D03*
D11*
X3000000Y3000000D03*
D10*
X80630000Y71200000D03*
D10*
X69370000Y17200000D03*
D10*
X69370000Y71200000D03*
D10*
X140370000Y18100000D03*
D10*
X80630000Y18100000D03*
D10*
X140370000Y73000000D03*
D10*
X140370000Y19000000D03*
D10*
X69370000Y73900000D03*
D10*
X80630000Y74800000D03*
D10*
X69370000Y19000000D03*
D10*
X80630000Y20800000D03*
D10*
X9630000Y17200000D03*
D10*
X69370000Y18100000D03*
D10*
X9630000Y19000000D03*
D10*
X9630000Y71200000D03*
D10*
X140370000Y72100000D03*
D10*
X69370000Y74800000D03*
D10*
X140370000Y71200000D03*
D11*
X147000000Y97000000D03*
D10*
X140370000Y17200000D03*
D10*
X80630000Y17200000D03*
D10*
X80630000Y72100000D03*
D10*
X69370000Y72100000D03*
D10*
X9630000Y73900000D03*
D10*
X9630000Y72100000D03*
D10*
X9630000Y73000000D03*
D12*
X62150000Y12850000D03*
D12*
X64650000Y12850000D03*
D13*
X16000000Y60300000D03*
D13*
X26000000Y60300000D03*
D13*
X21000000Y60300000D03*
D14*
X40490000Y12500000D03*
D14*
X48110000Y12500000D03*
D13*
X53000000Y30000000D03*
D13*
X63000000Y30000000D03*
D13*
X58000000Y30000000D03*
D15*
X33750000Y72350000D03*
D15*
X33750000Y84800000D03*
D15*
X17450000Y84800000D03*
D15*
X33750000Y78550000D03*
D15*
X17450000Y78550000D03*
D15*
X17450000Y72350000D03*
D13*
X53000000Y60300000D03*
D13*
X63000000Y60300000D03*
D13*
X58000000Y60300000D03*
D12*
X14650000Y12850000D03*
D12*
X17150000Y12850000D03*
D16*
X40750000Y71500000D03*
D16*
X38250000Y71500000D03*
D17*
X21000000Y46000000D03*
D17*
X15920000Y46000000D03*
D17*
X26080000Y46000000D03*
D18*
X37050000Y11780000D03*
D18*
X26890000Y11780000D03*
D18*
X24350000Y11780000D03*
D18*
X29430000Y11780000D03*
D18*
X31970000Y11780000D03*
D18*
X34510000Y11780000D03*
D19*
X56740000Y13970000D03*
D19*
X54200000Y11430000D03*
D19*
X51660000Y13970000D03*
D15*
X61550000Y72350000D03*
D15*
X61550000Y84800000D03*
D15*
X45250000Y84800000D03*
D15*
X61550000Y78550000D03*
D15*
X45250000Y78550000D03*
D15*
X45250000Y72350000D03*
D17*
X39500000Y46000000D03*
D17*
X34420000Y46000000D03*
D17*
X44580000Y46000000D03*
D20*
X24800000Y52700000D03*
D20*
X51900000Y66900000D03*
D20*
X34600000Y57000000D03*
D20*
X33000000Y55800000D03*
D20*
X30900000Y51400000D03*
D20*
X17630000Y41030000D03*
D20*
X29650000Y52450000D03*
D21*
X60010000Y46810000D03*
D20*
X22900000Y46900000D03*
D20*
X40600000Y66900000D03*
D20*
X43200000Y48800000D03*
D21*
X22700000Y24900000D03*
D20*
X24200000Y46900000D03*
D21*
X38900000Y33000000D03*
D20*
X42600000Y68030000D03*
D21*
X59200000Y26100000D03*
D21*
X56800000Y40300000D03*
D22*
X45100000Y43300000D03*
D20*
X26140000Y63670000D03*
D21*
X51100000Y35900000D03*
D20*
X41900000Y40200000D03*
D21*
X25000000Y40700000D03*
D20*
X26490000Y38350000D03*
D22*
X56450000Y22950000D03*
D21*
X40900000Y20300000D03*
D12*
X133150000Y12850000D03*
D12*
X135650000Y12850000D03*
D13*
X87000000Y60300000D03*
D13*
X97000000Y60300000D03*
D13*
X92000000Y60300000D03*
D14*
X111490000Y12500000D03*
D14*
X119110000Y12500000D03*
D13*
X124000000Y30000000D03*
D13*
X134000000Y30000000D03*
D13*
X129000000Y30000000D03*
D15*
X104750000Y72350000D03*
D15*
X104750000Y84800000D03*
D15*
X88450000Y84800000D03*
D15*
X104750000Y78550000D03*
D15*
X88450000Y78550000D03*
D15*
X88450000Y72350000D03*
D13*
X124000000Y60300000D03*
D13*
X134000000Y60300000D03*
D13*
X129000000Y60300000D03*
D12*
X85650000Y12850000D03*
D12*
X88150000Y12850000D03*
D16*
X111750000Y71500000D03*
D16*
X109250000Y71500000D03*
D17*
X92000000Y46000000D03*
D17*
X86920000Y46000000D03*
D17*
X97080000Y46000000D03*
D18*
X108050000Y11780000D03*
D18*
X97890000Y11780000D03*
D18*
X95350000Y11780000D03*
D18*
X100430000Y11780000D03*
D18*
X102970000Y11780000D03*
D18*
X105510000Y11780000D03*
D19*
X127740000Y13970000D03*
D19*
X125200000Y11430000D03*
D19*
X122660000Y13970000D03*
D15*
X132550000Y72350000D03*
D15*
X132550000Y84800000D03*
D15*
X116250000Y84800000D03*
D15*
X132550000Y78550000D03*
D15*
X116250000Y78550000D03*
D15*
X116250000Y72350000D03*
D17*
X110500000Y46000000D03*
D17*
X105420000Y46000000D03*
D17*
X115580000Y46000000D03*
D20*
X95800000Y52700000D03*
D20*
X122900000Y66900000D03*
D20*
X105600000Y57000000D03*
D20*
X104000000Y55800000D03*
D20*
X101900000Y51400000D03*
D20*
X88630000Y41030000D03*
D20*
X100650000Y52450000D03*
D21*
X131010000Y46810000D03*
D20*
X93900000Y46900000D03*
D20*
X111600000Y66900000D03*
D20*
X114200000Y48800000D03*
D21*
X93700000Y24900000D03*
D20*
X95200000Y46900000D03*
D21*
X109900000Y33000000D03*
D20*
X113600000Y68030000D03*
D21*
X130200000Y26100000D03*
D21*
X127800000Y40300000D03*
D22*
X116100000Y43300000D03*
D20*
X97140000Y63670000D03*
D21*
X122100000Y35900000D03*
D20*
X112900000Y40200000D03*
D21*
X96000000Y40700000D03*
D20*
X97490000Y38350000D03*
D22*
X127450000Y22950000D03*
D21*
X111900000Y20300000D03*
M02*
