M48
FMAT,2
METRIC,TZ
T8C0.350
T1C0.500
T7C0.600
T9C0.800
T6C0.900
T3C1.000
T4C1.400
T5C1.500
T2C3.000
%
G90
G05
M71
T8
X17.333Y88.333
X24.800Y52.700
X64.286Y40.300
X67.997Y82.000
X25.200Y47.800
X39.800Y47.900
X67.997Y52.000
X44.265Y41.800
X23.666Y16.000
X60.664Y51.200
X44.190Y55.830
X29.099Y53.900
X36.000Y15.200
X11.000Y82.000
X61.664Y58.000
X17.333Y64.000
X37.000Y31.700
X47.700Y23.000
X42.160Y64.600
X31.900Y40.300
X51.900Y66.900
X28.400Y12.900
X34.600Y57.000
X33.000Y55.800
X27.350Y16.500
X46.900Y38.200
X30.900Y51.400
X59.750Y22.100
X17.630Y41.030
X39.700Y18.800
X36.332Y58.000
X28.700Y42.800
X48.998Y88.333
X17.333Y70.000
X39.500Y27.900
X11.000Y22.000
X55.331Y29.200
X34.199Y37.000
X11.000Y28.000
X17.100Y31.050
X22.766Y52.500
X28.300Y25.600
X57.240Y41.800
X25.600Y26.100
X47.798Y52.000
X33.400Y47.600
X29.650Y52.450
X23.666Y82.000
X29.999Y88.333
X29.999Y82.000
X59.500Y35.400
X21.470Y40.300
X17.333Y20.600
X22.900Y48.350
X45.600Y18.000
X55.331Y10.000
X61.664Y16.000
X40.899Y41.600
X20.100Y32.150
X67.997Y64.000
X33.300Y57.100
X29.999Y70.000
X42.665Y10.000
X19.300Y52.900
X29.999Y65.000
X17.333Y10.000
X22.900Y46.900
X40.600Y66.900
X43.200Y48.800
X50.500Y47.400
X55.331Y82.000
X63.064Y46.500
X35.032Y52.500
X47.100Y64.600
X43.365Y51.700
X61.950Y20.300
X23.666Y88.333
X25.900Y52.800
X55.331Y88.333
X54.300Y52.550
X17.333Y82.000
X11.000Y46.000
X11.000Y52.000
X14.000Y35.100
X45.600Y14.600
X29.700Y28.300
X61.364Y64.000
X55.331Y58.000
X35.100Y22.700
X35.700Y42.700
X46.910Y43.280
X42.665Y76.000
X24.200Y46.900
X67.997Y28.000
X42.665Y88.333
X19.500Y24.200
X61.664Y88.333
X21.250Y57.500
X26.500Y39.600
X53.600Y42.700
X54.800Y45.400
X37.232Y34.100
X42.600Y68.030
X60.364Y29.200
X27.900Y21.450
X64.400Y58.000
X28.699Y46.000
X37.300Y39.700
X54.300Y55.750
X11.000Y76.000
X61.664Y10.000
X48.998Y10.000
X61.664Y70.000
X26.699Y57.600
X55.331Y76.000
X24.266Y21.600
X26.300Y49.800
X23.300Y31.600
X48.998Y82.000
X42.030Y48.700
X36.332Y64.000
X34.732Y28.000
X42.865Y44.800
X29.999Y76.000
X65.950Y35.540
X23.666Y76.000
X45.860Y56.330
X23.666Y10.000
X44.360Y64.600
X44.700Y36.100
X23.666Y34.000
X26.400Y37.300
X49.825Y32.755
X33.100Y54.750
X64.900Y45.300
X67.997Y10.000
X67.997Y40.000
X26.140Y63.670
X61.664Y82.000
X50.500Y64.600
X55.175Y32.755
X51.975Y39.105
X18.900Y55.300
X45.630Y23.600
X61.664Y35.300
X48.998Y70.000
X41.790Y55.830
X67.997Y76.000
X11.600Y23.000
X17.333Y76.000
X16.533Y52.000
X31.799Y34.200
X50.600Y23.900
X11.000Y10.000
X31.800Y19.100
X19.800Y43.700
X41.900Y40.200
X11.000Y34.000
X48.998Y76.000
X38.700Y14.300
X56.550Y38.600
X42.030Y23.600
X56.600Y54.150
X43.780Y67.750
X19.230Y35.690
X67.997Y22.000
X36.332Y88.333
X55.331Y64.000
X49.825Y34.025
X29.699Y58.000
X36.332Y76.000
X30.860Y52.500
X15.933Y40.900
X29.700Y31.500
X33.200Y17.700
X11.000Y58.000
X49.825Y36.565
X36.332Y82.000
X67.997Y58.000
X44.360Y58.300
X48.998Y28.000
X36.732Y46.000
X61.800Y26.700
X67.997Y70.000
X22.366Y26.800
X67.997Y32.700
X67.997Y16.000
X34.500Y16.400
X55.175Y35.295
X16.300Y23.250
X19.800Y48.300
X27.700Y41.200
X11.000Y64.000
X53.300Y28.100
X54.731Y48.700
X40.900Y16.300
X36.332Y70.000
X40.130Y56.330
X16.000Y37.850
X59.400Y32.200
X46.800Y29.900
X26.490Y38.350
X36.332Y10.000
X55.331Y16.000
X16.033Y16.000
X23.666Y64.000
X18.033Y27.600
X47.798Y58.000
X61.664Y76.000
X49.730Y42.500
X11.000Y70.000
X22.400Y23.300
X11.000Y16.000
X44.500Y31.600
X43.260Y60.000
X43.260Y62.900
X26.000Y34.900
X25.166Y44.000
X15.200Y26.600
X42.160Y58.300
X59.500Y49.600
X40.765Y34.100
X23.666Y70.000
X64.800Y31.100
X67.997Y46.000
X29.600Y34.200
X40.760Y37.000
X64.000Y52.350
X42.665Y82.000
X55.331Y70.000
X45.800Y33.800
X29.999Y10.000
X53.500Y23.000
X11.000Y40.000
X44.700Y38.200
X17.133Y58.400
X88.333Y88.333
X95.800Y52.700
X135.286Y40.300
X138.997Y82.000
X96.200Y47.800
X110.800Y47.900
X138.997Y52.000
X115.265Y41.800
X94.666Y16.000
X131.664Y51.200
X115.190Y55.830
X100.099Y53.900
X107.000Y15.200
X82.000Y82.000
X132.664Y58.000
X88.333Y64.000
X108.000Y31.700
X118.700Y23.000
X113.160Y64.600
X102.900Y40.300
X122.900Y66.900
X99.400Y12.900
X105.600Y57.000
X104.000Y55.800
X98.350Y16.500
X117.900Y38.200
X101.900Y51.400
X130.750Y22.100
X88.630Y41.030
X110.700Y18.800
X107.332Y58.000
X99.700Y42.800
X119.998Y88.333
X88.333Y70.000
X110.500Y27.900
X82.000Y22.000
X126.331Y29.200
X105.199Y37.000
X82.000Y28.000
X88.100Y31.050
X93.766Y52.500
X99.300Y25.600
X128.240Y41.800
X96.600Y26.100
X118.798Y52.000
X104.400Y47.600
X100.650Y52.450
X94.666Y82.000
X100.999Y88.333
X100.999Y82.000
X130.500Y35.400
X92.470Y40.300
X88.333Y20.600
X93.900Y48.350
X116.600Y18.000
X126.331Y10.000
X132.664Y16.000
X111.899Y41.600
X91.100Y32.150
X138.997Y64.000
X104.300Y57.100
X100.999Y70.000
X113.665Y10.000
X90.300Y52.900
X100.999Y65.000
X88.333Y10.000
X93.900Y46.900
X111.600Y66.900
X114.200Y48.800
X121.500Y47.400
X126.331Y82.000
X134.064Y46.500
X106.032Y52.500
X118.100Y64.600
X114.365Y51.700
X132.950Y20.300
X94.666Y88.333
X96.900Y52.800
X126.331Y88.333
X125.300Y52.550
X88.333Y82.000
X82.000Y46.000
X82.000Y52.000
X85.000Y35.100
X116.600Y14.600
X100.700Y28.300
X132.364Y64.000
X126.331Y58.000
X106.100Y22.700
X106.700Y42.700
X117.910Y43.280
X113.665Y76.000
X95.200Y46.900
X138.997Y28.000
X113.665Y88.333
X90.500Y24.200
X132.664Y88.333
X92.250Y57.500
X97.500Y39.600
X124.600Y42.700
X125.800Y45.400
X108.232Y34.100
X113.600Y68.030
X131.364Y29.200
X98.900Y21.450
X135.400Y58.000
X99.699Y46.000
X108.300Y39.700
X125.300Y55.750
X82.000Y76.000
X132.664Y10.000
X119.998Y10.000
X132.664Y70.000
X97.699Y57.600
X126.331Y76.000
X95.266Y21.600
X97.300Y49.800
X94.300Y31.600
X119.998Y82.000
X113.030Y48.700
X107.332Y64.000
X105.732Y28.000
X113.865Y44.800
X100.999Y76.000
X136.950Y35.540
X94.666Y76.000
X116.860Y56.330
X94.666Y10.000
X115.360Y64.600
X115.700Y36.100
X94.666Y34.000
X97.400Y37.300
X120.825Y32.755
X104.100Y54.750
X135.900Y45.300
X138.997Y10.000
X138.997Y40.000
X97.140Y63.670
X132.664Y82.000
X121.500Y64.600
X126.175Y32.755
X122.975Y39.105
X89.900Y55.300
X116.630Y23.600
X132.664Y35.300
X119.998Y70.000
X112.790Y55.830
X138.997Y76.000
X82.600Y23.000
X88.333Y76.000
X87.533Y52.000
X102.799Y34.200
X121.600Y23.900
X82.000Y10.000
X102.800Y19.100
X90.800Y43.700
X112.900Y40.200
X82.000Y34.000
X119.998Y76.000
X109.700Y14.300
X127.550Y38.600
X113.030Y23.600
X127.600Y54.150
X114.780Y67.750
X90.230Y35.690
X138.997Y22.000
X107.332Y88.333
X126.331Y64.000
X120.825Y34.025
X100.699Y58.000
X107.332Y76.000
X101.860Y52.500
X86.933Y40.900
X100.700Y31.500
X104.200Y17.700
X82.000Y58.000
X120.825Y36.565
X107.332Y82.000
X138.997Y58.000
X115.360Y58.300
X119.998Y28.000
X107.732Y46.000
X132.800Y26.700
X138.997Y70.000
X93.366Y26.800
X138.997Y32.700
X138.997Y16.000
X105.500Y16.400
X126.175Y35.295
X87.300Y23.250
X90.800Y48.300
X98.700Y41.200
X82.000Y64.000
X124.300Y28.100
X125.731Y48.700
X111.900Y16.300
X107.332Y70.000
X111.130Y56.330
X87.000Y37.850
X130.400Y32.200
X117.800Y29.900
X97.490Y38.350
X107.332Y10.000
X126.331Y16.000
X87.033Y16.000
X94.666Y64.000
X89.033Y27.600
X118.798Y58.000
X132.664Y76.000
X120.730Y42.500
X82.000Y70.000
X93.400Y23.300
X82.000Y16.000
X115.500Y31.600
X114.260Y60.000
X114.260Y62.900
X97.000Y34.900
X96.166Y44.000
X86.200Y26.600
X113.160Y58.300
X130.500Y49.600
X111.765Y34.100
X94.666Y70.000
X135.800Y31.100
X138.997Y46.000
X100.600Y34.200
X111.760Y37.000
X135.000Y52.350
X113.665Y82.000
X126.331Y70.000
X116.800Y33.800
X100.999Y10.000
X124.500Y23.000
X82.000Y40.000
X115.700Y38.200
X88.133Y58.400
T1
X80.630Y19.900
X9.630Y20.800
X140.370Y19.900
X80.630Y19.000
X80.630Y73.900
X69.370Y19.900
X9.630Y18.100
X69.370Y73.000
X140.370Y74.800
X9.630Y19.900
X140.370Y73.900
X9.630Y74.800
X69.370Y20.800
X140.370Y20.800
X80.630Y73.000
X80.630Y71.200
X69.370Y17.200
X69.370Y71.200
X140.370Y18.100
X80.630Y18.100
X140.370Y73.000
X140.370Y19.000
X69.370Y73.900
X80.630Y74.800
X69.370Y19.000
X80.630Y20.800
X9.630Y17.200
X69.370Y18.100
X9.630Y19.000
X9.630Y71.200
X140.370Y72.100
X69.370Y74.800
X140.370Y71.200
X140.370Y17.200
X80.630Y17.200
X80.630Y72.100
X69.370Y72.100
X9.630Y73.900
X9.630Y72.100
X9.630Y73.000
T7
X56.740Y13.970
X54.200Y11.430
X51.660Y13.970
X60.010Y46.810
X22.700Y24.900
X38.900Y33.000
X59.200Y26.100
X56.800Y40.300
X51.100Y35.900
X25.000Y40.700
X40.900Y20.300
X127.740Y13.970
X125.200Y11.430
X122.660Y13.970
X131.010Y46.810
X93.700Y24.900
X109.900Y33.000
X130.200Y26.100
X127.800Y40.300
X122.100Y35.900
X96.000Y40.700
X111.900Y20.300
T9
X45.100Y43.300
X56.450Y22.950
X116.100Y43.300
X127.450Y22.950
T6
X37.050Y11.780
X26.890Y11.780
X24.350Y11.780
X29.430Y11.780
X31.970Y11.780
X34.510Y11.780
X108.050Y11.780
X97.890Y11.780
X95.350Y11.780
X100.430Y11.780
X102.970Y11.780
X105.510Y11.780
T3
X62.150Y12.850
X64.650Y12.850
X40.490Y12.500
X48.110Y12.500
X14.650Y12.850
X17.150Y12.850
X40.750Y71.500
X38.250Y71.500
X133.150Y12.850
X135.650Y12.850
X111.490Y12.500
X119.110Y12.500
X85.650Y12.850
X88.150Y12.850
X111.750Y71.500
X109.250Y71.500
T4
X16.000Y60.300
X26.000Y60.300
X21.000Y60.300
X53.000Y30.000
X63.000Y30.000
X58.000Y30.000
X53.000Y60.300
X63.000Y60.300
X58.000Y60.300
X87.000Y60.300
X97.000Y60.300
X92.000Y60.300
X124.000Y30.000
X134.000Y30.000
X129.000Y30.000
X124.000Y60.300
X134.000Y60.300
X129.000Y60.300
T5
X33.750Y72.350
X33.750Y84.800
X17.450Y84.800
X33.750Y78.550
X17.450Y78.550
X17.450Y72.350
X21.000Y46.000
X15.920Y46.000
X26.080Y46.000
X61.550Y72.350
X61.550Y84.800
X45.250Y84.800
X61.550Y78.550
X45.250Y78.550
X45.250Y72.350
X39.500Y46.000
X34.420Y46.000
X44.580Y46.000
X104.750Y72.350
X104.750Y84.800
X88.450Y84.800
X104.750Y78.550
X88.450Y78.550
X88.450Y72.350
X92.000Y46.000
X86.920Y46.000
X97.080Y46.000
X132.550Y72.350
X132.550Y84.800
X116.250Y84.800
X132.550Y78.550
X116.250Y78.550
X116.250Y72.350
X110.500Y46.000
X105.420Y46.000
X115.580Y46.000
T2
X147.000Y3.000
X3.000Y97.000
X3.000Y3.000
X147.000Y97.000
M30
