%FSLAX46Y46*%
%MOMM*%
%ADD10C,0.010000*%
%ADD11C,1.400000*%
G01*
G01*
%LPD*%
D10*
X0Y100000000D02*
X0Y0D01*
D10*
X0Y0D02*
X150000000Y0D01*
D10*
X150000000Y0D02*
X150000000Y100000000D01*
D10*
X150000000Y100000000D02*
X150000000Y100000000D01*
D10*
X150000000Y100000000D02*
X0Y100000000D01*
D11*
X38200000Y90700000D02*
X38200000Y75600000D01*
D11*
X63700000Y83700000D02*
X69700000Y83700000D01*
D11*
X9300000Y8300000D02*
X69700000Y8300000D01*
D11*
X63700000Y83700000D02*
X63700000Y90700000D01*
D11*
X9300000Y83700000D02*
X15300000Y83700000D01*
D11*
X15300000Y83700000D02*
X15300000Y90700000D01*
D11*
X69700000Y70000000D02*
X69700000Y22000000D01*
D11*
X40800000Y90700000D02*
X63700000Y90700000D01*
D11*
X9300000Y16000000D02*
X9300000Y8300000D01*
D11*
X15300000Y90700000D02*
X38200000Y90700000D01*
D11*
X40800000Y90700000D02*
X40800000Y75600000D01*
D11*
X69700000Y83700000D02*
X69700000Y76000000D01*
D11*
X9300000Y70000000D02*
X9300000Y22000000D01*
D11*
X38200000Y75600000D02*
X40800000Y75600000D01*
D11*
X9300000Y83700000D02*
X9300000Y76000000D01*
D11*
X69700000Y16000000D02*
X69700000Y8300000D01*
D11*
X109200000Y90700000D02*
X109200000Y75600000D01*
D11*
X134700000Y83700000D02*
X140700000Y83700000D01*
D11*
X80300000Y8300000D02*
X140700000Y8300000D01*
D11*
X134700000Y83700000D02*
X134700000Y90700000D01*
D11*
X80300000Y83700000D02*
X86300000Y83700000D01*
D11*
X86300000Y83700000D02*
X86300000Y90700000D01*
D11*
X140700000Y70000000D02*
X140700000Y22000000D01*
D11*
X111800000Y90700000D02*
X134700000Y90700000D01*
D11*
X80300000Y16000000D02*
X80300000Y8300000D01*
D11*
X86300000Y90700000D02*
X109200000Y90700000D01*
D11*
X111800000Y90700000D02*
X111800000Y75600000D01*
D11*
X140700000Y83700000D02*
X140700000Y76000000D01*
D11*
X80300000Y70000000D02*
X80300000Y22000000D01*
D11*
X109200000Y75600000D02*
X111800000Y75600000D01*
D11*
X80300000Y83700000D02*
X80300000Y76000000D01*
D11*
X140700000Y16000000D02*
X140700000Y8300000D01*
G75*
M02*
