%FSLAX46Y46*%
%MOMM*%
%AMPS33*
21,1,0.550000,1.500000,0.000000,0.000000,90.000000*
%
%ADD33PS33*%
%AMPS32*
21,1,0.550000,1.500000,0.000000,0.000000,270.000000*
%
%ADD32PS32*%
%AMPS47*
21,1,0.600000,1.700000,0.000000,0.000000,90.000000*
%
%ADD47PS47*%
%AMPS46*
21,1,0.600000,1.700000,0.000000,0.000000,270.000000*
%
%ADD46PS46*%
%AMPS42*
21,1,1.600000,2.950000,0.000000,0.000000,90.000000*
%
%ADD42PS42*%
%AMPS43*
21,1,1.600000,2.950000,0.000000,0.000000,270.000000*
%
%ADD43PS43*%
%AMPS14*
21,1,0.600000,1.550000,0.000000,0.000000,90.000000*
%
%ADD14PS14*%
%AMPS15*
21,1,0.600000,1.550000,0.000000,0.000000,270.000000*
%
%ADD15PS15*%
%AMPS34*
21,1,1.600000,2.500000,0.000000,0.000000,0.000000*
%
%ADD34PS34*%
%AMPS36*
21,1,1.600000,2.500000,0.000000,0.000000,90.000000*
%
%ADD36PS36*%
%AMPS35*
21,1,1.600000,2.500000,0.000000,0.000000,180.000000*
%
%ADD35PS35*%
%AMPS37*
21,1,1.600000,2.500000,0.000000,0.000000,270.000000*
%
%ADD37PS37*%
%AMPS56*
21,1,0.900000,1.000000,0.000000,0.000000,0.000000*
%
%ADD56PS56*%
%AMPS26*
21,1,0.900000,1.000000,0.000000,0.000000,90.000000*
%
%ADD26PS26*%
%AMPS57*
21,1,0.900000,1.000000,0.000000,0.000000,180.000000*
%
%ADD57PS57*%
%AMPS27*
21,1,0.900000,1.000000,0.000000,0.000000,270.000000*
%
%ADD27PS27*%
%AMPS20*
21,1,1.400000,1.100000,0.000000,0.000000,0.000000*
%
%ADD20PS20*%
%AMPS45*
21,1,1.400000,1.100000,0.000000,0.000000,90.000000*
%
%ADD45PS45*%
%AMPS21*
21,1,1.400000,1.100000,0.000000,0.000000,180.000000*
%
%ADD21PS21*%
%AMPS44*
21,1,1.400000,1.100000,0.000000,0.000000,270.000000*
%
%ADD44PS44*%
%AMPS24*
21,1,0.400000,0.900000,0.000000,0.000000,0.000000*
%
%ADD24PS24*%
%AMPS40*
21,1,0.400000,0.900000,0.000000,0.000000,90.000000*
%
%ADD40PS40*%
%AMPS25*
21,1,0.400000,0.900000,0.000000,0.000000,180.000000*
%
%ADD25PS25*%
%AMPS41*
21,1,0.400000,0.900000,0.000000,0.000000,270.000000*
%
%ADD41PS41*%
%AMPS54*
21,1,0.550000,1.250000,0.000000,0.000000,90.000000*
%
%ADD54PS54*%
%AMPS55*
21,1,0.550000,1.250000,0.000000,0.000000,270.000000*
%
%ADD55PS55*%
%AMPS11*
21,1,0.600000,1.800000,0.000000,0.000000,0.000000*
%
%ADD11PS11*%
%AMPS10*
21,1,0.600000,1.800000,0.000000,0.000000,180.000000*
%
%ADD10PS10*%
%AMPS51*
21,1,0.701421,1.491421,0.000000,0.000000,90.000000*
%
%ADD51PS51*%
%AMPS50*
21,1,0.701421,1.491421,0.000000,0.000000,270.000000*
%
%ADD50PS50*%
%AMPS38*
21,1,1.800000,1.200000,0.000000,0.000000,0.000000*
%
%ADD38PS38*%
%AMPS39*
21,1,1.800000,1.200000,0.000000,0.000000,180.000000*
%
%ADD39PS39*%
%AMPS52*
21,1,2.300000,0.900000,0.000000,0.000000,0.000000*
%
%ADD52PS52*%
%AMPS53*
21,1,2.300000,0.900000,0.000000,0.000000,180.000000*
%
%ADD53PS53*%
%AMPS12*
21,1,0.900000,0.500000,0.000000,0.000000,0.000000*
%
%ADD12PS12*%
%AMPS28*
21,1,0.900000,0.500000,0.000000,0.000000,90.000000*
%
%ADD28PS28*%
%AMPS13*
21,1,0.900000,0.500000,0.000000,0.000000,180.000000*
%
%ADD13PS13*%
%AMPS29*
21,1,0.900000,0.500000,0.000000,0.000000,270.000000*
%
%ADD29PS29*%
%AMPS23*
21,1,1.700000,1.100000,0.000000,0.000000,0.000000*
%
%ADD23PS23*%
%AMPS31*
21,1,1.700000,1.100000,0.000000,0.000000,90.000000*
%
%ADD31PS31*%
%AMPS22*
21,1,1.700000,1.100000,0.000000,0.000000,180.000000*
%
%ADD22PS22*%
%AMPS30*
21,1,1.700000,1.100000,0.000000,0.000000,270.000000*
%
%ADD30PS30*%
%AMPS48*
21,1,0.700000,0.900000,0.000000,0.000000,0.000000*
%
%ADD48PS48*%
%AMPS49*
21,1,0.700000,0.900000,0.000000,0.000000,180.000000*
%
%ADD49PS49*%
%AMPS19*
21,1,0.850000,0.800000,0.000000,0.000000,0.000000*
%
%ADD19PS19*%
%AMPS16*
21,1,0.850000,0.800000,0.000000,0.000000,90.000000*
%
%ADD16PS16*%
%AMPS18*
21,1,0.850000,0.800000,0.000000,0.000000,180.000000*
%
%ADD18PS18*%
%AMPS17*
21,1,0.850000,0.800000,0.000000,0.000000,270.000000*
%
%ADD17PS17*%
%AMPS59*
21,1,1.750000,2.650000,0.000000,0.000000,0.000000*
%
%ADD59PS59*%
%AMPS58*
21,1,1.750000,2.650000,0.000000,0.000000,180.000000*
%
%ADD58PS58*%
G01*
%LPD*%
G36*
X4385819Y97574025D02*
X4500000Y97000000D01*
X4500000Y97000000D01*
X4385819Y96425974D01*
X4060660Y95939339D01*
X3574025Y95614180D01*
X3000000Y95500000D01*
X2425974Y95614180D01*
X1939339Y95939339D01*
X1614180Y96425974D01*
X1500000Y97000000D01*
X1614180Y97574025D01*
X1939339Y98060660D01*
X2425974Y98385819D01*
X2999999Y98500000D01*
X3574025Y98385819D01*
X4060660Y98060660D01*
X4385819Y97574025D01*
D02*
G37*
%LPD*%
G36*
X4347550Y3666413D02*
X4500000Y3100000D01*
X4500000Y3100000D01*
X4424087Y2518362D01*
X4131370Y2010050D01*
X3666413Y1652449D01*
X3100000Y1500000D01*
X2518362Y1575912D01*
X2010050Y1868629D01*
X1652449Y2333586D01*
X1500000Y2900000D01*
X1575912Y3481637D01*
X1868629Y3989949D01*
X2333586Y4347550D01*
X2900000Y4500000D01*
X3481637Y4424087D01*
X3989949Y4131370D01*
X4347550Y3666413D01*
D02*
G37*
%LPD*%
G36*
X148347550Y3666413D02*
X148500000Y3100000D01*
X148500000Y3100000D01*
X148424087Y2518362D01*
X148131370Y2010050D01*
X147666413Y1652449D01*
X147100000Y1500000D01*
X146518362Y1575912D01*
X146010050Y1868629D01*
X145652449Y2333586D01*
X145500000Y2900000D01*
X145575912Y3481637D01*
X145868629Y3989949D01*
X146333586Y4347550D01*
X146900000Y4500000D01*
X147481637Y4424087D01*
X147989949Y4131370D01*
X148347550Y3666413D01*
D02*
G37*
%LPD*%
G36*
X148385819Y97574025D02*
X148500000Y97000000D01*
X148500000Y97000000D01*
X148385819Y96425974D01*
X148060660Y95939339D01*
X147574025Y95614180D01*
X147000000Y95500000D01*
X146425974Y95614180D01*
X145939339Y95939339D01*
X145614180Y96425974D01*
X145500000Y97000000D01*
X145614180Y97574025D01*
X145939339Y98060660D01*
X146425974Y98385819D01*
X147000000Y98500000D01*
X147574025Y98385819D01*
X148060660Y98060660D01*
X148385819Y97574025D01*
D02*
G37*
G01*
%LPD*%
G75*
D10*
X40760000Y64600000D03*
D11*
X43260000Y58300000D03*
D11*
X40760000Y58300000D03*
D10*
X43260000Y64600000D03*
D12*
X42070000Y49699994D03*
D13*
X42070000Y51199994D03*
D14*
X22970000Y39510000D03*
D14*
X22970000Y36960000D03*
D14*
X22970000Y35690000D03*
D15*
X17630000Y35690000D03*
D15*
X17630000Y38240000D03*
D14*
X22970000Y38240000D03*
D15*
X17630000Y39510000D03*
D15*
X17630000Y36960000D03*
D16*
X14650000Y39500000D03*
D17*
X13150000Y39500000D03*
D18*
X47700000Y21800000D03*
D19*
X47700000Y20300000D03*
D12*
X64000000Y53450000D03*
D13*
X64000000Y54950000D03*
D12*
X17100000Y32150000D03*
D13*
X17100000Y33650000D03*
D17*
X64450000Y34500000D03*
D16*
X65950000Y34500000D03*
D18*
X45860000Y55130000D03*
D19*
X45860000Y53630000D03*
D20*
X16300000Y27800000D03*
D21*
X16300000Y29600000D03*
D16*
X49730000Y43700000D03*
D17*
X48230000Y43700000D03*
D22*
X49120000Y48900000D03*
D23*
X49120000Y45700000D03*
D23*
X35700000Y38200000D03*
D22*
X35700000Y41400000D03*
D18*
X40130000Y55130000D03*
D19*
X40130000Y53630000D03*
D24*
X43600000Y35000000D03*
D25*
X43600000Y37200000D03*
D13*
X62600000Y34350000D03*
D12*
X62600000Y32850000D03*
D26*
X20800000Y26800000D03*
D27*
X18600000Y25850000D03*
D26*
X20800000Y24900000D03*
D28*
X21250000Y54400000D03*
D29*
X19750000Y54400000D03*
D18*
X53500000Y21800000D03*
D19*
X53500000Y20300000D03*
D30*
X43800000Y16400000D03*
D31*
X47000000Y16400000D03*
D16*
X58050000Y37400000D03*
D17*
X56550000Y37400000D03*
D25*
X45800000Y37200000D03*
D24*
X45800000Y35000000D03*
D32*
X60713845Y36490000D03*
D33*
X65886155Y37760000D03*
D33*
X65886155Y42840000D03*
D33*
X65886155Y41570000D03*
D32*
X60713845Y37760000D03*
D33*
X65886155Y36490000D03*
D33*
X65886155Y40300000D03*
D32*
X60713845Y42840000D03*
D32*
X60713845Y39030000D03*
D32*
X60713845Y44110000D03*
D33*
X65886155Y39030000D03*
D33*
X65886155Y44110000D03*
D32*
X60713845Y40300000D03*
D32*
X60713845Y41570000D03*
D22*
X38900000Y41400000D03*
D23*
X38900000Y38200000D03*
D34*
X65900000Y47350000D03*
D35*
X65900000Y50650000D03*
D13*
X56400000Y46710000D03*
D12*
X56400000Y45210000D03*
D36*
X59750000Y20300000D03*
D37*
X56450000Y20300000D03*
D13*
X14800000Y37850000D03*
D12*
X14800000Y36350000D03*
D29*
X19300000Y22950000D03*
D28*
X20800000Y22950000D03*
D20*
X39870000Y49600000D03*
D21*
X39870000Y51400000D03*
D19*
X38500000Y18800000D03*
D18*
X38500000Y20300000D03*
D26*
X15100000Y33650000D03*
D27*
X12900000Y32700000D03*
D26*
X15100000Y31750000D03*
D13*
X58300000Y35750000D03*
D12*
X58300000Y34250000D03*
D28*
X21250000Y56300000D03*
D29*
X19750000Y56300000D03*
D19*
X45800000Y39010000D03*
D18*
X45800000Y40510000D03*
D28*
X61510000Y48400000D03*
D29*
X60010000Y48400000D03*
D12*
X22900000Y49450000D03*
D13*
X22900000Y50950000D03*
D17*
X64450000Y32700000D03*
D16*
X65950000Y32700000D03*
D13*
X23300000Y30500000D03*
D12*
X23300000Y29000000D03*
D17*
X21470000Y41500000D03*
D16*
X22970000Y41500000D03*
D38*
X17600000Y53950000D03*
D39*
X17600000Y56850000D03*
D40*
X38370000Y55800000D03*
D41*
X36170000Y55800000D03*
D19*
X18900000Y32150000D03*
D18*
X18900000Y33650000D03*
D31*
X38900000Y35600000D03*
D30*
X35700000Y35600000D03*
D42*
X54300000Y54150000D03*
D43*
X49100000Y54150000D03*
D13*
X58300000Y46710000D03*
D12*
X58300000Y45210000D03*
D13*
X29900000Y23850000D03*
D12*
X29900000Y22350000D03*
D12*
X12900000Y36350000D03*
D13*
X12900000Y37850000D03*
D43*
X29700000Y29900000D03*
D42*
X34900000Y29900000D03*
D12*
X16300000Y24350000D03*
D13*
X16300000Y25850000D03*
D19*
X35900000Y49699994D03*
D18*
X35900000Y51199994D03*
D12*
X56400000Y34250000D03*
D13*
X56400000Y35750000D03*
D42*
X44500000Y29900000D03*
D43*
X39300000Y29900000D03*
D44*
X56400000Y48700000D03*
D45*
X58200000Y48700000D03*
D16*
X58100000Y43550000D03*
D17*
X56600000Y43550000D03*
D46*
X28950000Y19050000D03*
D46*
X28950000Y16500000D03*
D47*
X36250000Y16500000D03*
D47*
X36250000Y17750000D03*
D47*
X36250000Y20300000D03*
D46*
X28950000Y20300000D03*
D47*
X36250000Y19050000D03*
D46*
X28950000Y17750000D03*
D48*
X26600000Y22650000D03*
D48*
X27900000Y22650000D03*
D49*
X27250000Y24550000D03*
D12*
X22900000Y54550000D03*
D13*
X22900000Y56050000D03*
D50*
X31225000Y58590000D03*
D51*
X38375000Y61130000D03*
D51*
X38375000Y66210000D03*
D51*
X38375000Y63670000D03*
D50*
X31225000Y61130000D03*
D50*
X31225000Y66210000D03*
D51*
X38375000Y58590000D03*
D50*
X31225000Y63670000D03*
D13*
X65900000Y54950000D03*
D12*
X65900000Y53450000D03*
D39*
X27200000Y54250000D03*
D38*
X27200000Y51350000D03*
D13*
X24800000Y50950000D03*
D12*
X24800000Y49450000D03*
D13*
X25200000Y38350000D03*
D12*
X25200000Y36850000D03*
D52*
X52500000Y43931534D03*
D53*
X52500000Y46668466D03*
D12*
X24800000Y54550000D03*
D13*
X24800000Y56050000D03*
D20*
X21100000Y29000000D03*
D21*
X21100000Y30800000D03*
D28*
X53250000Y48800000D03*
D29*
X51750000Y48800000D03*
D17*
X56550000Y32600000D03*
D16*
X58050000Y32600000D03*
D54*
X53574920Y41645000D03*
D55*
X48225080Y39105000D03*
D54*
X53574920Y35295000D03*
D55*
X48225080Y40375000D03*
D55*
X48225080Y37835000D03*
D55*
X48225080Y34025000D03*
D54*
X53574920Y39105000D03*
D55*
X48225080Y32755000D03*
D54*
X53574920Y32755000D03*
D54*
X53574920Y37835000D03*
D54*
X53574920Y34025000D03*
D54*
X53574920Y36565000D03*
D55*
X48225080Y36565000D03*
D54*
X53574920Y40375000D03*
D55*
X48225080Y41645000D03*
D55*
X48225080Y35295000D03*
D13*
X26600000Y20550000D03*
D12*
X26600000Y19050000D03*
D18*
X58440000Y41800000D03*
D19*
X58440000Y40300000D03*
D21*
X13800000Y25600000D03*
D20*
X13800000Y23800000D03*
D12*
X60710000Y32850000D03*
D13*
X60710000Y34350000D03*
D56*
X51550000Y20300000D03*
D57*
X50600000Y22500000D03*
D56*
X49650000Y20300000D03*
D35*
X43830000Y23600000D03*
D34*
X43830000Y20300000D03*
D13*
X43600000Y40510000D03*
D12*
X43600000Y39010000D03*
D19*
X37700000Y49699994D03*
D18*
X37700000Y51199994D03*
D12*
X11600000Y24100000D03*
D13*
X11600000Y25600000D03*
D56*
X43940000Y53630000D03*
D57*
X42990000Y55830000D03*
D56*
X42040000Y53630000D03*
D58*
X48800000Y64600000D03*
D59*
X48800000Y60300000D03*
D28*
X22850000Y43300000D03*
D29*
X21350000Y43300000D03*
D13*
X18900000Y30350000D03*
D12*
X18900000Y28850000D03*
D21*
X13800000Y29600000D03*
D20*
X13800000Y27800000D03*
D19*
X21000000Y49450000D03*
D18*
X21000000Y50950000D03*
D10*
X111760000Y64600000D03*
D11*
X114260000Y58300000D03*
D11*
X111760000Y58300000D03*
D10*
X114260000Y64600000D03*
D12*
X113070000Y49699994D03*
D13*
X113070000Y51199994D03*
D14*
X93970000Y39510000D03*
D14*
X93970000Y36960000D03*
D14*
X93970000Y35690000D03*
D15*
X88630000Y35690000D03*
D15*
X88630000Y38240000D03*
D14*
X93970000Y38240000D03*
D15*
X88630000Y39510000D03*
D15*
X88630000Y36960000D03*
D16*
X85650000Y39500000D03*
D17*
X84150000Y39500000D03*
D18*
X118700000Y21800000D03*
D19*
X118700000Y20300000D03*
D12*
X135000000Y53450000D03*
D13*
X135000000Y54950000D03*
D12*
X88100000Y32150000D03*
D13*
X88100000Y33650000D03*
D17*
X135450000Y34500000D03*
D16*
X136950000Y34500000D03*
D18*
X116860000Y55130000D03*
D19*
X116860000Y53630000D03*
D20*
X87300000Y27800000D03*
D21*
X87300000Y29600000D03*
D16*
X120730000Y43700000D03*
D17*
X119230000Y43700000D03*
D22*
X120120000Y48900000D03*
D23*
X120120000Y45700000D03*
D23*
X106700000Y38200000D03*
D22*
X106700000Y41400000D03*
D18*
X111130000Y55130000D03*
D19*
X111130000Y53630000D03*
D24*
X114600000Y35000000D03*
D25*
X114600000Y37200000D03*
D13*
X133600000Y34350000D03*
D12*
X133600000Y32850000D03*
D26*
X91800000Y26800000D03*
D27*
X89600000Y25850000D03*
D26*
X91800000Y24900000D03*
D28*
X92250000Y54400000D03*
D29*
X90750000Y54400000D03*
D18*
X124500000Y21800000D03*
D19*
X124500000Y20300000D03*
D30*
X114800000Y16400000D03*
D31*
X118000000Y16400000D03*
D16*
X129050000Y37400000D03*
D17*
X127550000Y37400000D03*
D25*
X116800000Y37200000D03*
D24*
X116800000Y35000000D03*
D32*
X131713845Y36490000D03*
D33*
X136886155Y37760000D03*
D33*
X136886155Y42840000D03*
D33*
X136886155Y41570000D03*
D32*
X131713845Y37760000D03*
D33*
X136886155Y36490000D03*
D33*
X136886155Y40300000D03*
D32*
X131713845Y42840000D03*
D32*
X131713845Y39030000D03*
D32*
X131713845Y44110000D03*
D33*
X136886155Y39030000D03*
D33*
X136886155Y44110000D03*
D32*
X131713845Y40300000D03*
D32*
X131713845Y41570000D03*
D22*
X109900000Y41400000D03*
D23*
X109900000Y38200000D03*
D34*
X136900000Y47350000D03*
D35*
X136900000Y50650000D03*
D13*
X127400000Y46710000D03*
D12*
X127400000Y45210000D03*
D36*
X130750000Y20300000D03*
D37*
X127450000Y20300000D03*
D13*
X85800000Y37850000D03*
D12*
X85800000Y36350000D03*
D29*
X90300000Y22950000D03*
D28*
X91800000Y22950000D03*
D20*
X110870000Y49600000D03*
D21*
X110870000Y51400000D03*
D19*
X109500000Y18800000D03*
D18*
X109500000Y20300000D03*
D26*
X86100000Y33650000D03*
D27*
X83900000Y32700000D03*
D26*
X86100000Y31750000D03*
D13*
X129300000Y35750000D03*
D12*
X129300000Y34250000D03*
D28*
X92250000Y56300000D03*
D29*
X90750000Y56300000D03*
D19*
X116800000Y39010000D03*
D18*
X116800000Y40510000D03*
D28*
X132510000Y48400000D03*
D29*
X131010000Y48400000D03*
D12*
X93900000Y49450000D03*
D13*
X93900000Y50950000D03*
D17*
X135450000Y32700000D03*
D16*
X136950000Y32700000D03*
D13*
X94300000Y30500000D03*
D12*
X94300000Y29000000D03*
D17*
X92470000Y41500000D03*
D16*
X93970000Y41500000D03*
D38*
X88600000Y53950000D03*
D39*
X88600000Y56850000D03*
D40*
X109370000Y55800000D03*
D41*
X107170000Y55800000D03*
D19*
X89900000Y32150000D03*
D18*
X89900000Y33650000D03*
D31*
X109900000Y35600000D03*
D30*
X106700000Y35600000D03*
D42*
X125300000Y54150000D03*
D43*
X120100000Y54150000D03*
D13*
X129300000Y46710000D03*
D12*
X129300000Y45210000D03*
D13*
X100900000Y23850000D03*
D12*
X100900000Y22350000D03*
D12*
X83900000Y36350000D03*
D13*
X83900000Y37850000D03*
D43*
X100700000Y29900000D03*
D42*
X105900000Y29900000D03*
D12*
X87300000Y24350000D03*
D13*
X87300000Y25850000D03*
D19*
X106900000Y49699994D03*
D18*
X106900000Y51199994D03*
D12*
X127400000Y34250000D03*
D13*
X127400000Y35750000D03*
D42*
X115500000Y29900000D03*
D43*
X110300000Y29900000D03*
D44*
X127400000Y48700000D03*
D45*
X129200000Y48700000D03*
D16*
X129100000Y43550000D03*
D17*
X127600000Y43550000D03*
D46*
X99950000Y19050000D03*
D46*
X99950000Y16500000D03*
D47*
X107250000Y16500000D03*
D47*
X107250000Y17750000D03*
D47*
X107250000Y20300000D03*
D46*
X99950000Y20300000D03*
D47*
X107250000Y19050000D03*
D46*
X99950000Y17750000D03*
D48*
X97600000Y22650000D03*
D48*
X98900000Y22650000D03*
D49*
X98250000Y24550000D03*
D12*
X93900000Y54550000D03*
D13*
X93900000Y56050000D03*
D50*
X102225000Y58590000D03*
D51*
X109375000Y61130000D03*
D51*
X109375000Y66210000D03*
D51*
X109375000Y63670000D03*
D50*
X102225000Y61130000D03*
D50*
X102225000Y66210000D03*
D51*
X109375000Y58590000D03*
D50*
X102225000Y63670000D03*
D13*
X136900000Y54950000D03*
D12*
X136900000Y53450000D03*
D39*
X98200000Y54250000D03*
D38*
X98200000Y51350000D03*
D13*
X95800000Y50950000D03*
D12*
X95800000Y49450000D03*
D13*
X96200000Y38350000D03*
D12*
X96200000Y36850000D03*
D52*
X123500000Y43931534D03*
D53*
X123500000Y46668466D03*
D12*
X95800000Y54550000D03*
D13*
X95800000Y56050000D03*
D20*
X92100000Y29000000D03*
D21*
X92100000Y30800000D03*
D28*
X124250000Y48800000D03*
D29*
X122750000Y48800000D03*
D17*
X127550000Y32600000D03*
D16*
X129050000Y32600000D03*
D54*
X124574920Y41645000D03*
D55*
X119225080Y39105000D03*
D54*
X124574920Y35295000D03*
D55*
X119225080Y40375000D03*
D55*
X119225080Y37835000D03*
D55*
X119225080Y34025000D03*
D54*
X124574920Y39105000D03*
D55*
X119225080Y32755000D03*
D54*
X124574920Y32755000D03*
D54*
X124574920Y37835000D03*
D54*
X124574920Y34025000D03*
D54*
X124574920Y36565000D03*
D55*
X119225080Y36565000D03*
D54*
X124574920Y40375000D03*
D55*
X119225080Y41645000D03*
D55*
X119225080Y35295000D03*
D13*
X97600000Y20550000D03*
D12*
X97600000Y19050000D03*
D18*
X129440000Y41800000D03*
D19*
X129440000Y40300000D03*
D21*
X84800000Y25600000D03*
D20*
X84800000Y23800000D03*
D12*
X131710000Y32850000D03*
D13*
X131710000Y34350000D03*
D56*
X122550000Y20300000D03*
D57*
X121600000Y22500000D03*
D56*
X120650000Y20300000D03*
D35*
X114830000Y23600000D03*
D34*
X114830000Y20300000D03*
D13*
X114600000Y40510000D03*
D12*
X114600000Y39010000D03*
D19*
X108700000Y49699994D03*
D18*
X108700000Y51199994D03*
D12*
X82600000Y24100000D03*
D13*
X82600000Y25600000D03*
D56*
X114940000Y53630000D03*
D57*
X113990000Y55830000D03*
D56*
X113040000Y53630000D03*
D58*
X119800000Y64600000D03*
D59*
X119800000Y60300000D03*
D28*
X93850000Y43300000D03*
D29*
X92350000Y43300000D03*
D13*
X89900000Y30350000D03*
D12*
X89900000Y28850000D03*
D21*
X84800000Y29600000D03*
D20*
X84800000Y27800000D03*
D19*
X92000000Y49450000D03*
D18*
X92000000Y50950000D03*
M02*
