M48
FMAT,2
METRIC,TZ
T4C0.350
T5C0.500
T2C0.600
T1C1.000
T3C1.500
%
G90
G05
M71
T4
X27.770Y28.790
X27.000Y38.200
X62.000Y45.400
X16.250Y8.400
X16.250Y1.000
X47.240Y40.600
X30.500Y12.676
X51.700Y20.220
X46.750Y8.400
X34.000Y41.800
X62.000Y38.000
X23.875Y45.400
X36.900Y29.450
X46.750Y45.400
X62.000Y1.000
X37.200Y40.000
X54.375Y8.400
X62.000Y8.400
X38.830Y16.976
X38.550Y24.180
X31.500Y45.400
X23.875Y1.000
X16.250Y38.000
X21.300Y14.041
X39.125Y1.000
X33.330Y30.400
X31.500Y8.400
X38.830Y13.376
X8.625Y30.600
X46.040Y36.000
X18.100Y14.041
X53.612Y15.800
X44.250Y24.200
X51.300Y28.360
X1.000Y15.800
X62.000Y23.200
X54.375Y1.000
X1.000Y1.000
X8.625Y38.000
X36.500Y24.750
X46.040Y32.600
X8.625Y45.400
X62.000Y30.600
X44.840Y40.600
X46.750Y15.800
X1.000Y23.200
X36.000Y41.800
X46.040Y42.300
X39.125Y8.400
X44.840Y34.300
X1.000Y45.400
X1.000Y8.400
X19.700Y12.541
X8.625Y23.200
X22.430Y30.060
X40.070Y32.200
X34.000Y38.200
X14.200Y24.500
X41.430Y15.176
X8.625Y8.400
X1.000Y30.600
X29.640Y31.010
X46.750Y1.000
X8.625Y1.000
X54.375Y38.100
X1.000Y38.000
X16.250Y45.400
X8.625Y15.800
X41.370Y33.600
X47.240Y34.300
X25.800Y40.000
X27.000Y41.800
X14.200Y20.900
X62.000Y15.800
X31.500Y1.000
X39.125Y45.400
X32.900Y24.750
X54.375Y45.400
X46.040Y38.900
T5
X49.300Y43.400
X30.000Y38.280
X30.000Y41.720
X35.800Y38.000
X56.180Y42.210
X32.000Y41.720
X53.750Y22.360
X28.000Y43.260
X32.000Y38.280
X47.300Y32.500
T2
X4.730Y30.640
X7.270Y28.100
X4.730Y25.560
X36.400Y33.960
X12.300Y28.760
T1
X9.960Y34.100
X2.340Y34.100
X13.853Y39.099
X11.353Y39.099
X5.953Y39.099
X3.453Y39.099
X24.020Y5.380
X24.020Y2.880
X30.270Y32.610
X46.300Y21.400
X46.800Y24.050
X32.500Y21.130
X35.160Y28.200
X32.400Y17.600
X58.075Y30.180
X38.400Y28.890
X22.400Y22.700
X46.800Y27.300
T3
X15.690Y10.600
X4.270Y10.600
X4.270Y4.250
X4.270Y16.950
X15.690Y16.950
X15.690Y4.250
X55.700Y10.600
X44.280Y10.600
X44.280Y4.250
X44.280Y16.950
X55.700Y16.950
X55.700Y4.250
M30
