%FSLAX46Y46*%
%MOMM*%
%ADD12C,0.050000*%
%ADD10C,0.150000*%
%ADD11C,0.200000*%
G01*
%LPD*%
G01*
%LPD*%
D10*
X53369048Y28727142D02*
X53464284Y28774762D01*
D10*
X53273808Y28631904D02*
X53369048Y28727142D01*
D10*
X53226192Y28536666D02*
X53273808Y28631904D01*
D10*
X53226192Y28346190D02*
X53226192Y28536666D01*
D10*
X53273808Y28250952D02*
X53226192Y28346190D01*
D10*
X53369048Y28155714D02*
X53273808Y28250952D01*
D10*
X53464284Y28108096D02*
X53369048Y28155714D01*
D10*
X53607144Y28060476D02*
X53464284Y28108096D01*
D10*
X53845240Y28060476D02*
X53607144Y28060476D01*
D10*
X53988096Y28108096D02*
X53845240Y28060476D01*
D10*
X54083332Y28155714D02*
X53988096Y28108096D01*
D10*
X54178572Y28250952D02*
X54083332Y28155714D01*
D10*
X54226192Y28346190D02*
X54178572Y28250952D01*
D10*
X54226192Y28536666D02*
X54226192Y28346190D01*
D10*
X54178572Y28631904D02*
X54226192Y28536666D01*
D10*
X54083332Y28727142D02*
X54178572Y28631904D01*
D10*
X53988096Y28774762D02*
X54083332Y28727142D01*
D10*
X53702380Y29631904D02*
X53559524Y29679524D01*
D10*
X53797620Y29536666D02*
X53702380Y29631904D01*
D10*
X53845240Y29393810D02*
X53797620Y29536666D01*
D10*
X53845240Y29346190D02*
X53845240Y29393810D01*
D10*
X53797620Y29203334D02*
X53845240Y29346190D01*
D10*
X53702380Y29108096D02*
X53797620Y29203334D01*
D10*
X53559524Y29060476D02*
X53702380Y29108096D01*
D10*
X53511904Y29060476D02*
X53559524Y29060476D01*
D10*
X53369048Y29108096D02*
X53511904Y29060476D01*
D10*
X53273808Y29203334D02*
X53369048Y29108096D01*
D10*
X53226192Y29346190D02*
X53273808Y29203334D01*
D10*
X53226192Y29393810D02*
X53226192Y29346190D01*
D10*
X53273808Y29536666D02*
X53226192Y29393810D01*
D10*
X53369048Y29631904D02*
X53273808Y29536666D01*
D10*
X53559524Y29679524D02*
X53369048Y29631904D01*
D10*
X53797620Y29679524D02*
X53559524Y29679524D01*
D10*
X54035716Y29631904D02*
X53797620Y29679524D01*
D10*
X54178572Y29536666D02*
X54035716Y29631904D01*
D10*
X54226192Y29393810D02*
X54178572Y29536666D01*
D10*
X54226192Y29298572D02*
X54226192Y29393810D01*
D10*
X54178572Y29155714D02*
X54226192Y29298572D01*
D10*
X54083332Y29108096D02*
X54178572Y29155714D01*
D10*
X11190476Y42623808D02*
X11190476Y43623808D01*
D10*
X11809524Y43623808D02*
X11190476Y43623808D01*
D10*
X11571429Y43147620D02*
X11190476Y43147620D01*
D10*
X12571428Y43576192D02*
X12666667Y43480952D01*
D10*
X12428571Y43623808D02*
X12571428Y43576192D01*
D10*
X12238095Y43623808D02*
X12428571Y43623808D01*
D10*
X12095238Y43576192D02*
X12238095Y43623808D01*
D10*
X12000000Y43480952D02*
X12095238Y43576192D01*
D10*
X12000000Y43385716D02*
X12000000Y43480952D01*
D10*
X12047619Y43290476D02*
X12000000Y43385716D01*
D10*
X12095238Y43242856D02*
X12047619Y43290476D01*
D10*
X12190476Y43195240D02*
X12095238Y43242856D01*
D10*
X12476190Y43100000D02*
X12190476Y43195240D01*
D10*
X12571428Y43052380D02*
X12476190Y43100000D01*
D10*
X12619048Y43004760D02*
X12571428Y43052380D01*
D10*
X12666667Y42909524D02*
X12619048Y43004760D01*
D10*
X12666667Y42766668D02*
X12666667Y42909524D01*
D10*
X12571428Y42671428D02*
X12666667Y42766668D01*
D10*
X12428571Y42623808D02*
X12571428Y42671428D01*
D10*
X12238095Y42623808D02*
X12428571Y42623808D01*
D10*
X12095238Y42671428D02*
X12238095Y42623808D01*
D10*
X12000000Y42766668D02*
X12095238Y42671428D01*
D10*
X13142857Y42623808D02*
X12904762Y43623808D01*
D10*
X13142857Y42623808D02*
X13380952Y43623808D01*
D10*
X13619048Y42623808D02*
X13380952Y43623808D01*
D10*
X13619048Y42623808D02*
X13857143Y43623808D01*
D10*
X43510476Y34473808D02*
X43510476Y35473808D01*
D10*
X43939048Y35473808D02*
X43510476Y35473808D01*
D10*
X44081904Y35426192D02*
X43939048Y35473808D01*
D10*
X44129524Y35378572D02*
X44081904Y35426192D01*
D10*
X44177144Y35283332D02*
X44129524Y35378572D01*
D10*
X44177144Y35188096D02*
X44177144Y35283332D01*
D10*
X44129524Y35092856D02*
X44177144Y35188096D01*
D10*
X44081904Y35045240D02*
X44129524Y35092856D01*
D10*
X43939048Y34997620D02*
X44081904Y35045240D01*
D10*
X43510476Y34997620D02*
X43939048Y34997620D01*
D10*
X44177144Y34473808D02*
X43843808Y34997620D01*
D10*
X45081904Y35473808D02*
X44558096Y35473808D01*
D10*
X44796192Y35092856D02*
X45081904Y35473808D01*
D10*
X44939048Y35092856D02*
X44796192Y35092856D01*
D10*
X45034284Y35045240D02*
X44939048Y35092856D01*
D10*
X45081904Y34997620D02*
X45034284Y35045240D01*
D10*
X45129524Y34854760D02*
X45081904Y34997620D01*
D10*
X45129524Y34759524D02*
X45129524Y34854760D01*
D10*
X45081904Y34616668D02*
X45129524Y34759524D01*
D10*
X44986668Y34521428D02*
X45081904Y34616668D01*
D10*
X44843808Y34473808D02*
X44986668Y34521428D01*
D10*
X44700952Y34473808D02*
X44843808Y34473808D01*
D10*
X44558096Y34521428D02*
X44700952Y34473808D01*
D10*
X44510476Y34569048D02*
X44558096Y34521428D01*
D10*
X44462856Y34664284D02*
X44510476Y34569048D01*
D10*
X12169048Y20284524D02*
X12264286Y20332142D01*
D10*
X12073810Y20189286D02*
X12169048Y20284524D01*
D10*
X12026190Y20094048D02*
X12073810Y20189286D01*
D10*
X12026190Y19903572D02*
X12026190Y20094048D01*
D10*
X12073810Y19808334D02*
X12026190Y19903572D01*
D10*
X12169048Y19713096D02*
X12073810Y19808334D01*
D10*
X12264286Y19665476D02*
X12169048Y19713096D01*
D10*
X12407143Y19617858D02*
X12264286Y19665476D01*
D10*
X12645238Y19617858D02*
X12407143Y19617858D01*
D10*
X12788095Y19665476D02*
X12645238Y19617858D01*
D10*
X12883333Y19713096D02*
X12788095Y19665476D01*
D10*
X12978571Y19808334D02*
X12883333Y19713096D01*
D10*
X13026190Y19903572D02*
X12978571Y19808334D01*
D10*
X13026190Y20094048D02*
X13026190Y19903572D01*
D10*
X12978571Y20189286D02*
X13026190Y20094048D01*
D10*
X12883333Y20284524D02*
X12978571Y20189286D01*
D10*
X12788095Y20332142D02*
X12883333Y20284524D01*
D10*
X12073810Y20713096D02*
X12026190Y20855952D01*
D10*
X12169048Y20665476D02*
X12073810Y20713096D01*
D10*
X12264286Y20665476D02*
X12169048Y20665476D01*
D10*
X12359524Y20713096D02*
X12264286Y20665476D01*
D10*
X12407143Y20808334D02*
X12359524Y20713096D01*
D10*
X12454762Y20998810D02*
X12407143Y20808334D01*
D10*
X12502381Y21141666D02*
X12454762Y20998810D01*
D10*
X12597619Y21236904D02*
X12502381Y21141666D01*
D10*
X12692857Y21284524D02*
X12597619Y21236904D01*
D10*
X12835714Y21284524D02*
X12692857Y21284524D01*
D10*
X12930952Y21236904D02*
X12835714Y21284524D01*
D10*
X12978571Y21189286D02*
X12930952Y21236904D01*
D10*
X13026190Y21046428D02*
X12978571Y21189286D01*
D10*
X13026190Y20855952D02*
X13026190Y21046428D01*
D10*
X12978571Y20713096D02*
X13026190Y20855952D01*
D10*
X12930952Y20665476D02*
X12978571Y20713096D01*
D10*
X12835714Y20617858D02*
X12930952Y20665476D01*
D10*
X12692857Y20617858D02*
X12835714Y20617858D01*
D10*
X12597619Y20665476D02*
X12692857Y20617858D01*
D10*
X12502381Y20760714D02*
X12597619Y20665476D01*
D10*
X12454762Y20903572D02*
X12502381Y20760714D01*
D10*
X12407143Y21094048D02*
X12454762Y20903572D01*
D10*
X12359524Y21189286D02*
X12407143Y21094048D01*
D10*
X12264286Y21236904D02*
X12359524Y21189286D01*
D10*
X12169048Y21236904D02*
X12264286Y21236904D01*
D10*
X12073810Y21189286D02*
X12169048Y21236904D01*
D10*
X12026190Y21046428D02*
X12073810Y21189286D01*
D10*
X12026190Y20855952D02*
X12026190Y21046428D01*
D10*
X22750476Y30493810D02*
X22750476Y31493810D01*
D10*
X23750476Y31350952D02*
X23798096Y31255714D01*
D10*
X23655238Y31446190D02*
X23750476Y31350952D01*
D10*
X23560000Y31493810D02*
X23655238Y31446190D01*
D10*
X23369524Y31493810D02*
X23560000Y31493810D01*
D10*
X23274286Y31446190D02*
X23369524Y31493810D01*
D10*
X23179048Y31350952D02*
X23274286Y31446190D01*
D10*
X23131428Y31255714D02*
X23179048Y31350952D01*
D10*
X23083810Y31112858D02*
X23131428Y31255714D01*
D10*
X23083810Y30874762D02*
X23083810Y31112858D01*
D10*
X23131428Y30731904D02*
X23083810Y30874762D01*
D10*
X23179048Y30636666D02*
X23131428Y30731904D01*
D10*
X23274286Y30541428D02*
X23179048Y30636666D01*
D10*
X23369524Y30493810D02*
X23274286Y30541428D01*
D10*
X23560000Y30493810D02*
X23369524Y30493810D01*
D10*
X23655238Y30541428D02*
X23560000Y30493810D01*
D10*
X23750476Y30636666D02*
X23655238Y30541428D01*
D10*
X23798096Y30731904D02*
X23750476Y30636666D01*
D10*
X24321904Y31350952D02*
X24226666Y31303334D01*
D10*
X24464762Y31493810D02*
X24321904Y31350952D01*
D10*
X24464762Y30493810D02*
X24464762Y31493810D01*
D10*
X51776192Y28040476D02*
X50776192Y28040476D01*
D10*
X50776192Y28469048D02*
X50776192Y28040476D01*
D10*
X50823808Y28611904D02*
X50776192Y28469048D01*
D10*
X50871428Y28659524D02*
X50823808Y28611904D01*
D10*
X50966668Y28707142D02*
X50871428Y28659524D01*
D10*
X51061904Y28707142D02*
X50966668Y28707142D01*
D10*
X51157144Y28659524D02*
X51061904Y28707142D01*
D10*
X51204760Y28611904D02*
X51157144Y28659524D01*
D10*
X51252380Y28469048D02*
X51204760Y28611904D01*
D10*
X51252380Y28040476D02*
X51252380Y28469048D01*
D10*
X51776192Y28707142D02*
X51252380Y28373810D01*
D10*
X50823808Y29564286D02*
X50919048Y29611904D01*
D10*
X50776192Y29421428D02*
X50823808Y29564286D01*
D10*
X50776192Y29326190D02*
X50776192Y29421428D01*
D10*
X50823808Y29183334D02*
X50776192Y29326190D01*
D10*
X50966668Y29088096D02*
X50823808Y29183334D01*
D10*
X51204760Y29040476D02*
X50966668Y29088096D01*
D10*
X51442856Y29040476D02*
X51204760Y29040476D01*
D10*
X51633332Y29088096D02*
X51442856Y29040476D01*
D10*
X51728572Y29183334D02*
X51633332Y29088096D01*
D10*
X51776192Y29326190D02*
X51728572Y29183334D01*
D10*
X51776192Y29373810D02*
X51776192Y29326190D01*
D10*
X51728572Y29516666D02*
X51776192Y29373810D01*
D10*
X51633332Y29611904D02*
X51728572Y29516666D01*
D10*
X51490476Y29659524D02*
X51633332Y29611904D01*
D10*
X51442856Y29659524D02*
X51490476Y29659524D01*
D10*
X51300000Y29611904D02*
X51442856Y29659524D01*
D10*
X51204760Y29516666D02*
X51300000Y29611904D01*
D10*
X51157144Y29373810D02*
X51204760Y29516666D01*
D10*
X51157144Y29326190D02*
X51157144Y29373810D01*
D10*
X51204760Y29183334D02*
X51157144Y29326190D01*
D10*
X51300000Y29088096D02*
X51204760Y29183334D01*
D10*
X51442856Y29040476D02*
X51300000Y29088096D01*
D10*
X10706190Y29898096D02*
X9706190Y29898096D01*
D10*
X9706190Y30326666D02*
X9706190Y29898096D01*
D10*
X9753810Y30469524D02*
X9706190Y30326666D01*
D10*
X9801429Y30517142D02*
X9753810Y30469524D01*
D10*
X9896667Y30564762D02*
X9801429Y30517142D01*
D10*
X9991905Y30564762D02*
X9896667Y30564762D01*
D10*
X10087143Y30517142D02*
X9991905Y30564762D01*
D10*
X10134762Y30469524D02*
X10087143Y30517142D01*
D10*
X10182381Y30326666D02*
X10134762Y30469524D01*
D10*
X10182381Y29898096D02*
X10182381Y30326666D01*
D10*
X10706190Y30564762D02*
X10182381Y30231428D01*
D10*
X10372857Y30850476D02*
X9706190Y31326666D01*
D10*
X10372857Y31564762D02*
X10372857Y30850476D01*
D10*
X10706190Y31326666D02*
X9706190Y31326666D01*
D10*
X49140476Y16643810D02*
X49140476Y17643810D01*
D10*
X49569048Y17643810D02*
X49140476Y17643810D01*
D10*
X49711904Y17596190D02*
X49569048Y17643810D01*
D10*
X49759524Y17548572D02*
X49711904Y17596190D01*
D10*
X49807144Y17453334D02*
X49759524Y17548572D01*
D10*
X49807144Y17358096D02*
X49807144Y17453334D01*
D10*
X49759524Y17262858D02*
X49807144Y17358096D01*
D10*
X49711904Y17215238D02*
X49759524Y17262858D01*
D10*
X49569048Y17167620D02*
X49711904Y17215238D01*
D10*
X49140476Y17167620D02*
X49569048Y17167620D01*
D10*
X49807144Y16643810D02*
X49473808Y17167620D01*
D10*
X50283332Y16643810D02*
X50759524Y17643810D01*
D10*
X50759524Y17643810D02*
X50092856Y17643810D01*
D10*
X32324524Y26475952D02*
X32372142Y26380714D01*
D10*
X32229286Y26571190D02*
X32324524Y26475952D01*
D10*
X32134048Y26618810D02*
X32229286Y26571190D01*
D10*
X31943572Y26618810D02*
X32134048Y26618810D01*
D10*
X31848334Y26571190D02*
X31943572Y26618810D01*
D10*
X31753096Y26475952D02*
X31848334Y26571190D01*
D10*
X31705476Y26380714D02*
X31753096Y26475952D01*
D10*
X31657858Y26237858D02*
X31705476Y26380714D01*
D10*
X31657858Y25999762D02*
X31657858Y26237858D01*
D10*
X31705476Y25856904D02*
X31657858Y25999762D01*
D10*
X31753096Y25761666D02*
X31705476Y25856904D01*
D10*
X31848334Y25666428D02*
X31753096Y25761666D01*
D10*
X31943572Y25618810D02*
X31848334Y25666428D01*
D10*
X32134048Y25618810D02*
X31943572Y25618810D01*
D10*
X32229286Y25666428D02*
X32134048Y25618810D01*
D10*
X32324524Y25761666D02*
X32229286Y25666428D01*
D10*
X32372142Y25856904D02*
X32324524Y25761666D01*
D10*
X32657858Y25952142D02*
X33134048Y26618810D01*
D10*
X33372142Y25952142D02*
X32657858Y25952142D01*
D10*
X33134048Y25618810D02*
X33134048Y26618810D01*
D10*
X28433334Y19452650D02*
X28528572Y19500270D01*
D10*
X28338096Y19357412D02*
X28433334Y19452650D01*
D10*
X28290476Y19262174D02*
X28338096Y19357412D01*
D10*
X28242858Y19119318D02*
X28290476Y19262174D01*
D10*
X28242858Y18881222D02*
X28242858Y19119318D01*
D10*
X28290476Y18738364D02*
X28242858Y18881222D01*
D10*
X28338096Y18643126D02*
X28290476Y18738364D01*
D10*
X28433334Y18547888D02*
X28338096Y18643126D01*
D10*
X28528572Y18500270D02*
X28433334Y18547888D01*
D10*
X28719048Y18500270D02*
X28528572Y18500270D01*
D10*
X28814286Y18547888D02*
X28719048Y18500270D01*
D10*
X28909524Y18643126D02*
X28814286Y18547888D01*
D10*
X28957142Y18738364D02*
X28909524Y18643126D01*
D10*
X29004762Y18881222D02*
X28957142Y18738364D01*
D10*
X29004762Y19119318D02*
X29004762Y18881222D01*
D10*
X28957142Y19262174D02*
X29004762Y19119318D01*
D10*
X28909524Y19357412D02*
X28957142Y19262174D01*
D10*
X28814286Y19452650D02*
X28909524Y19357412D01*
D10*
X28719048Y19500270D02*
X28814286Y19452650D01*
D10*
X28528572Y19500270D02*
X28719048Y19500270D01*
D10*
X28957142Y18405032D02*
X28671428Y18690746D01*
D10*
X29528572Y19357412D02*
X29433334Y19309794D01*
D10*
X29671428Y19500270D02*
X29528572Y19357412D01*
D10*
X29671428Y18500270D02*
X29671428Y19500270D01*
D10*
X27859048Y34117144D02*
X27954286Y34164760D01*
D10*
X27763810Y34021904D02*
X27859048Y34117144D01*
D10*
X27716190Y33926668D02*
X27763810Y34021904D01*
D10*
X27716190Y33736192D02*
X27716190Y33926668D01*
D10*
X27763810Y33640952D02*
X27716190Y33736192D01*
D10*
X27859048Y33545714D02*
X27763810Y33640952D01*
D10*
X27954286Y33498096D02*
X27859048Y33545714D01*
D10*
X28097142Y33450476D02*
X27954286Y33498096D01*
D10*
X28335238Y33450476D02*
X28097142Y33450476D01*
D10*
X28478096Y33498096D02*
X28335238Y33450476D01*
D10*
X28573334Y33545714D02*
X28478096Y33498096D01*
D10*
X28668572Y33640952D02*
X28573334Y33545714D01*
D10*
X28716190Y33736192D02*
X28668572Y33640952D01*
D10*
X28716190Y33926668D02*
X28716190Y33736192D01*
D10*
X28668572Y34021904D02*
X28716190Y33926668D01*
D10*
X28573334Y34117144D02*
X28668572Y34021904D01*
D10*
X28478096Y34164760D02*
X28573334Y34117144D01*
D10*
X27763810Y35021904D02*
X27859048Y35069524D01*
D10*
X27716190Y34879048D02*
X27763810Y35021904D01*
D10*
X27716190Y34783808D02*
X27716190Y34879048D01*
D10*
X27763810Y34640952D02*
X27716190Y34783808D01*
D10*
X27906666Y34545716D02*
X27763810Y34640952D01*
D10*
X28144762Y34498096D02*
X27906666Y34545716D01*
D10*
X28382858Y34498096D02*
X28144762Y34498096D01*
D10*
X28573334Y34545716D02*
X28382858Y34498096D01*
D10*
X28668572Y34640952D02*
X28573334Y34545716D01*
D10*
X28716190Y34783808D02*
X28668572Y34640952D01*
D10*
X28716190Y34831428D02*
X28716190Y34783808D01*
D10*
X28668572Y34974284D02*
X28716190Y34831428D01*
D10*
X28573334Y35069524D02*
X28668572Y34974284D01*
D10*
X28430476Y35117144D02*
X28573334Y35069524D01*
D10*
X28382858Y35117144D02*
X28430476Y35117144D01*
D10*
X28240000Y35069524D02*
X28382858Y35117144D01*
D10*
X28144762Y34974284D02*
X28240000Y35069524D01*
D10*
X28097142Y34831428D02*
X28144762Y34974284D01*
D10*
X28097142Y34783808D02*
X28097142Y34831428D01*
D10*
X28144762Y34640952D02*
X28097142Y34783808D01*
D10*
X28240000Y34545716D02*
X28144762Y34640952D01*
D10*
X28382858Y34498096D02*
X28240000Y34545716D01*
D10*
X49183332Y19146190D02*
X49278572Y19193810D01*
D10*
X49088096Y19050952D02*
X49183332Y19146190D01*
D10*
X49040476Y18955714D02*
X49088096Y19050952D01*
D10*
X48992856Y18812858D02*
X49040476Y18955714D01*
D10*
X48992856Y18574762D02*
X48992856Y18812858D01*
D10*
X49040476Y18431904D02*
X48992856Y18574762D01*
D10*
X49088096Y18336666D02*
X49040476Y18431904D01*
D10*
X49183332Y18241428D02*
X49088096Y18336666D01*
D10*
X49278572Y18193810D02*
X49183332Y18241428D01*
D10*
X49469048Y18193810D02*
X49278572Y18193810D01*
D10*
X49564284Y18241428D02*
X49469048Y18193810D01*
D10*
X49659524Y18336666D02*
X49564284Y18241428D01*
D10*
X49707144Y18431904D02*
X49659524Y18336666D01*
D10*
X49754760Y18574762D02*
X49707144Y18431904D01*
D10*
X49754760Y18812858D02*
X49754760Y18574762D01*
D10*
X49707144Y18955714D02*
X49754760Y18812858D01*
D10*
X49659524Y19050952D02*
X49707144Y18955714D01*
D10*
X49564284Y19146190D02*
X49659524Y19050952D01*
D10*
X49469048Y19193810D02*
X49564284Y19146190D01*
D10*
X49278572Y19193810D02*
X49469048Y19193810D01*
D10*
X49707144Y18098572D02*
X49421428Y18384286D01*
D10*
X50659524Y19193810D02*
X50135716Y19193810D01*
D10*
X50373808Y18812858D02*
X50659524Y19193810D01*
D10*
X50516668Y18812858D02*
X50373808Y18812858D01*
D10*
X50611904Y18765238D02*
X50516668Y18812858D01*
D10*
X50659524Y18717620D02*
X50611904Y18765238D01*
D10*
X50707144Y18574762D02*
X50659524Y18717620D01*
D10*
X50707144Y18479524D02*
X50707144Y18574762D01*
D10*
X50659524Y18336666D02*
X50707144Y18479524D01*
D10*
X50564284Y18241428D02*
X50659524Y18336666D01*
D10*
X50421428Y18193810D02*
X50564284Y18241428D01*
D10*
X50278572Y18193810D02*
X50421428Y18193810D01*
D10*
X50135716Y18241428D02*
X50278572Y18193810D01*
D10*
X50088096Y18289048D02*
X50135716Y18241428D01*
D10*
X50040476Y18384286D02*
X50088096Y18289048D01*
D10*
X43869048Y19529524D02*
X43964284Y19577142D01*
D10*
X43773808Y19434286D02*
X43869048Y19529524D01*
D10*
X43726192Y19339048D02*
X43773808Y19434286D01*
D10*
X43726192Y19148572D02*
X43726192Y19339048D01*
D10*
X43773808Y19053334D02*
X43726192Y19148572D01*
D10*
X43869048Y18958096D02*
X43773808Y19053334D01*
D10*
X43964284Y18910476D02*
X43869048Y18958096D01*
D10*
X44107144Y18862858D02*
X43964284Y18910476D01*
D10*
X44345240Y18862858D02*
X44107144Y18862858D01*
D10*
X44488096Y18910476D02*
X44345240Y18862858D01*
D10*
X44583332Y18958096D02*
X44488096Y18910476D01*
D10*
X44678572Y19053334D02*
X44583332Y18958096D01*
D10*
X44726192Y19148572D02*
X44678572Y19053334D01*
D10*
X44726192Y19339048D02*
X44726192Y19148572D01*
D10*
X44678572Y19434286D02*
X44726192Y19339048D01*
D10*
X44583332Y19529524D02*
X44678572Y19434286D01*
D10*
X44488096Y19577142D02*
X44583332Y19529524D01*
D10*
X43916668Y19910476D02*
X43964284Y19910476D01*
D10*
X43821428Y19958096D02*
X43916668Y19910476D01*
D10*
X43773808Y20005714D02*
X43821428Y19958096D01*
D10*
X43726192Y20100952D02*
X43773808Y20005714D01*
D10*
X43726192Y20291428D02*
X43726192Y20100952D01*
D10*
X43773808Y20386666D02*
X43726192Y20291428D01*
D10*
X43821428Y20434286D02*
X43773808Y20386666D01*
D10*
X43916668Y20481904D02*
X43821428Y20434286D01*
D10*
X44011904Y20481904D02*
X43916668Y20481904D01*
D10*
X44107144Y20434286D02*
X44011904Y20481904D01*
D10*
X44250000Y20339048D02*
X44107144Y20434286D01*
D10*
X44726192Y19862858D02*
X44250000Y20339048D01*
D10*
X44726192Y20529524D02*
X44726192Y19862858D01*
D10*
X38169048Y19609524D02*
X38264284Y19657142D01*
D10*
X38073808Y19514286D02*
X38169048Y19609524D01*
D10*
X38026192Y19419048D02*
X38073808Y19514286D01*
D10*
X38026192Y19228572D02*
X38026192Y19419048D01*
D10*
X38073808Y19133334D02*
X38026192Y19228572D01*
D10*
X38169048Y19038096D02*
X38073808Y19133334D01*
D10*
X38264284Y18990476D02*
X38169048Y19038096D01*
D10*
X38407144Y18942858D02*
X38264284Y18990476D01*
D10*
X38645240Y18942858D02*
X38407144Y18942858D01*
D10*
X38788096Y18990476D02*
X38645240Y18942858D01*
D10*
X38883332Y19038096D02*
X38788096Y18990476D01*
D10*
X38978572Y19133334D02*
X38883332Y19038096D01*
D10*
X39026192Y19228572D02*
X38978572Y19133334D01*
D10*
X39026192Y19419048D02*
X39026192Y19228572D01*
D10*
X38978572Y19514286D02*
X39026192Y19419048D01*
D10*
X38883332Y19609524D02*
X38978572Y19514286D01*
D10*
X38788096Y19657142D02*
X38883332Y19609524D01*
D10*
X38026192Y20561904D02*
X38026192Y20038096D01*
D10*
X38407144Y20276190D02*
X38026192Y20561904D01*
D10*
X38407144Y20419048D02*
X38407144Y20276190D01*
D10*
X38454760Y20514286D02*
X38407144Y20419048D01*
D10*
X38502380Y20561904D02*
X38454760Y20514286D01*
D10*
X38645240Y20609524D02*
X38502380Y20561904D01*
D10*
X38740476Y20609524D02*
X38645240Y20609524D01*
D10*
X38883332Y20561904D02*
X38740476Y20609524D01*
D10*
X38978572Y20466666D02*
X38883332Y20561904D01*
D10*
X39026192Y20323810D02*
X38978572Y20466666D01*
D10*
X39026192Y20180952D02*
X39026192Y20323810D01*
D10*
X38978572Y20038096D02*
X39026192Y20180952D01*
D10*
X38930952Y19990476D02*
X38978572Y20038096D01*
D10*
X38835716Y19942858D02*
X38930952Y19990476D01*
D11*
X1182000Y22815714D02*
X1182000Y24315714D01*
D11*
X1824857Y24315714D02*
X1182000Y24315714D01*
D11*
X2039143Y24244286D02*
X1824857Y24315714D01*
D11*
X2110571Y24172858D02*
X2039143Y24244286D01*
D11*
X2182000Y24030000D02*
X2110571Y24172858D01*
D11*
X2182000Y23887142D02*
X2182000Y24030000D01*
D11*
X2110571Y23744286D02*
X2182000Y23887142D01*
D11*
X2039143Y23672858D02*
X2110571Y23744286D01*
D11*
X1824857Y23601428D02*
X2039143Y23672858D01*
D11*
X1824857Y23601428D02*
X1182000Y23601428D01*
D11*
X2039143Y23530000D02*
X1824857Y23601428D01*
D11*
X2110571Y23458572D02*
X2039143Y23530000D01*
D11*
X2182000Y23315714D02*
X2110571Y23458572D01*
D11*
X2182000Y23101428D02*
X2182000Y23315714D01*
D11*
X2110571Y22958572D02*
X2182000Y23101428D01*
D11*
X2039143Y22887142D02*
X2110571Y22958572D01*
D11*
X1824857Y22815714D02*
X2039143Y22887142D01*
D11*
X1182000Y22815714D02*
X1824857Y22815714D01*
D11*
X2682000Y22815714D02*
X2682000Y24315714D01*
D11*
X3324857Y24315714D02*
X2682000Y24315714D01*
D11*
X3539143Y24244286D02*
X3324857Y24315714D01*
D11*
X3610571Y24172858D02*
X3539143Y24244286D01*
D11*
X3682000Y24030000D02*
X3610571Y24172858D01*
D11*
X3682000Y23887142D02*
X3682000Y24030000D01*
D11*
X3610571Y23744286D02*
X3682000Y23887142D01*
D11*
X3539143Y23672858D02*
X3610571Y23744286D01*
D11*
X3324857Y23601428D02*
X3539143Y23672858D01*
D11*
X2682000Y23601428D02*
X3324857Y23601428D01*
D11*
X3682000Y22815714D02*
X3182000Y23601428D01*
D11*
X4182000Y22815714D02*
X4182000Y24315714D01*
D11*
X5682000Y24101428D02*
X5753428Y23958572D01*
D11*
X5539143Y24244286D02*
X5682000Y24101428D01*
D11*
X5396286Y24315714D02*
X5539143Y24244286D01*
D11*
X5110571Y24315714D02*
X5396286Y24315714D01*
D11*
X4967714Y24244286D02*
X5110571Y24315714D01*
D11*
X4824857Y24101428D02*
X4967714Y24244286D01*
D11*
X4753429Y23958572D02*
X4824857Y24101428D01*
D11*
X4682000Y23744286D02*
X4753429Y23958572D01*
D11*
X4682000Y23387142D02*
X4682000Y23744286D01*
D11*
X4753429Y23172858D02*
X4682000Y23387142D01*
D11*
X4824857Y23030000D02*
X4753429Y23172858D01*
D11*
X4967714Y22887142D02*
X4824857Y23030000D01*
D11*
X5110571Y22815714D02*
X4967714Y22887142D01*
D11*
X5396286Y22815714D02*
X5110571Y22815714D01*
D11*
X5539143Y22887142D02*
X5396286Y22815714D01*
D11*
X5682000Y23030000D02*
X5539143Y22887142D01*
D11*
X5753428Y23172858D02*
X5682000Y23030000D01*
D11*
X5753428Y23387142D02*
X5753428Y23172858D01*
D11*
X5753428Y23387142D02*
X5396286Y23387142D01*
D11*
X6253428Y22815714D02*
X6253428Y24315714D01*
D11*
X7253428Y22815714D02*
X7253428Y24315714D01*
D11*
X7253428Y23601428D02*
X6253428Y23601428D01*
D11*
X8110571Y22815714D02*
X8110571Y24315714D01*
D11*
X8610571Y24315714D02*
X7610571Y24315714D01*
D10*
X39840476Y24873810D02*
X39840476Y25873810D01*
D10*
X40269048Y25873810D02*
X39840476Y25873810D01*
D10*
X40411904Y25826190D02*
X40269048Y25873810D01*
D10*
X40459524Y25778572D02*
X40411904Y25826190D01*
D10*
X40507144Y25683334D02*
X40459524Y25778572D01*
D10*
X40507144Y25588096D02*
X40507144Y25683334D01*
D10*
X40459524Y25492858D02*
X40507144Y25588096D01*
D10*
X40411904Y25445238D02*
X40459524Y25492858D01*
D10*
X40269048Y25397620D02*
X40411904Y25445238D01*
D10*
X39840476Y25397620D02*
X40269048Y25397620D01*
D10*
X40507144Y24873810D02*
X40173808Y25397620D01*
D10*
X40840476Y24873810D02*
X40840476Y25873810D01*
D10*
X41459524Y25873810D02*
X40840476Y25873810D01*
D10*
X41221428Y25397620D02*
X40840476Y25397620D01*
D10*
X41459524Y24873810D02*
X40840476Y24873810D01*
D10*
X42364284Y25730952D02*
X42411904Y25635714D01*
D10*
X42269048Y25826190D02*
X42364284Y25730952D01*
D10*
X42173808Y25873810D02*
X42269048Y25826190D01*
D10*
X41983332Y25873810D02*
X42173808Y25873810D01*
D10*
X41888096Y25826190D02*
X41983332Y25873810D01*
D10*
X41792856Y25730952D02*
X41888096Y25826190D01*
D10*
X41745240Y25635714D02*
X41792856Y25730952D01*
D10*
X41697620Y25492858D02*
X41745240Y25635714D01*
D10*
X41697620Y25254762D02*
X41697620Y25492858D01*
D10*
X41745240Y25111904D02*
X41697620Y25254762D01*
D10*
X41792856Y25016666D02*
X41745240Y25111904D01*
D10*
X41888096Y24921428D02*
X41792856Y25016666D01*
D10*
X41983332Y24873810D02*
X41888096Y24921428D01*
D10*
X42173808Y24873810D02*
X41983332Y24873810D01*
D10*
X42269048Y24921428D02*
X42173808Y24873810D01*
D10*
X42364284Y25016666D02*
X42269048Y24921428D01*
D10*
X42411904Y25111904D02*
X42364284Y25016666D01*
D10*
X42411904Y25254762D02*
X42411904Y25111904D01*
D10*
X42411904Y25254762D02*
X42173808Y25254762D01*
D10*
X42935716Y25730952D02*
X42840476Y25683334D01*
D10*
X43078572Y25873810D02*
X42935716Y25730952D01*
D10*
X43078572Y24873810D02*
X43078572Y25873810D01*
D10*
X12423095Y26953810D02*
X12423095Y27953810D01*
D10*
X12756429Y27953810D02*
X12423095Y27953810D01*
D10*
X12899286Y27906190D02*
X12756429Y27953810D01*
D10*
X12994524Y27810952D02*
X12899286Y27906190D01*
D10*
X13042143Y27715714D02*
X12994524Y27810952D01*
D10*
X13089762Y27572858D02*
X13042143Y27715714D01*
D10*
X13089762Y27334762D02*
X13089762Y27572858D01*
D10*
X13042143Y27191904D02*
X13089762Y27334762D01*
D10*
X12994524Y27096666D02*
X13042143Y27191904D01*
D10*
X12899286Y27001428D02*
X12994524Y27096666D01*
D10*
X12756429Y26953810D02*
X12899286Y27001428D01*
D10*
X12423095Y26953810D02*
X12756429Y26953810D01*
D10*
X13375476Y27287142D02*
X13851667Y27953810D01*
D10*
X14089762Y27287142D02*
X13375476Y27287142D01*
D10*
X13851667Y26953810D02*
X13851667Y27953810D01*
D10*
X20176190Y11547072D02*
X19176190Y11547072D01*
D10*
X19176190Y11880406D02*
X19176190Y11547072D01*
D10*
X19223810Y12023263D02*
X19176190Y11880406D01*
D10*
X19319048Y12118501D02*
X19223810Y12023263D01*
D10*
X19414286Y12166120D02*
X19319048Y12118501D01*
D10*
X19557142Y12213739D02*
X19414286Y12166120D01*
D10*
X19795238Y12213739D02*
X19557142Y12213739D01*
D10*
X19938096Y12166120D02*
X19795238Y12213739D01*
D10*
X20033334Y12118501D02*
X19938096Y12166120D01*
D10*
X20128572Y12023263D02*
X20033334Y12118501D01*
D10*
X20176190Y11880406D02*
X20128572Y12023263D01*
D10*
X20176190Y11547072D02*
X20176190Y11880406D01*
D10*
X19319048Y12737548D02*
X19366666Y12642310D01*
D10*
X19176190Y12880406D02*
X19319048Y12737548D01*
D10*
X20176190Y12880406D02*
X19176190Y12880406D01*
D10*
X43510476Y36303808D02*
X43510476Y37303808D01*
D10*
X43939048Y37303808D02*
X43510476Y37303808D01*
D10*
X44081904Y37256192D02*
X43939048Y37303808D01*
D10*
X44129524Y37208572D02*
X44081904Y37256192D01*
D10*
X44177144Y37113332D02*
X44129524Y37208572D01*
D10*
X44177144Y37018096D02*
X44177144Y37113332D01*
D10*
X44129524Y36922856D02*
X44177144Y37018096D01*
D10*
X44081904Y36875240D02*
X44129524Y36922856D01*
D10*
X43939048Y36827620D02*
X44081904Y36875240D01*
D10*
X43510476Y36827620D02*
X43939048Y36827620D01*
D10*
X44177144Y36303808D02*
X43843808Y36827620D01*
D10*
X44510476Y37113332D02*
X44510476Y37065716D01*
D10*
X44558096Y37208572D02*
X44510476Y37113332D01*
D10*
X44605716Y37256192D02*
X44558096Y37208572D01*
D10*
X44700952Y37303808D02*
X44605716Y37256192D01*
D10*
X44891428Y37303808D02*
X44700952Y37303808D01*
D10*
X44986668Y37256192D02*
X44891428Y37303808D01*
D10*
X45034284Y37208572D02*
X44986668Y37256192D01*
D10*
X45081904Y37113332D02*
X45034284Y37208572D01*
D10*
X45081904Y37018096D02*
X45081904Y37113332D01*
D10*
X45034284Y36922856D02*
X45081904Y37018096D01*
D10*
X44939048Y36780000D02*
X45034284Y36922856D01*
D10*
X44462856Y36303808D02*
X44939048Y36780000D01*
D10*
X45129524Y36303808D02*
X44462856Y36303808D01*
D10*
X13203877Y31645952D02*
X13251496Y31550714D01*
D10*
X13108639Y31741190D02*
X13203877Y31645952D01*
D10*
X13013401Y31788810D02*
X13108639Y31741190D01*
D10*
X12822924Y31788810D02*
X13013401Y31788810D01*
D10*
X12727686Y31741190D02*
X12822924Y31788810D01*
D10*
X12632448Y31645952D02*
X12727686Y31741190D01*
D10*
X12584829Y31550714D02*
X12632448Y31645952D01*
D10*
X12537210Y31407858D02*
X12584829Y31550714D01*
D10*
X12537210Y31169762D02*
X12537210Y31407858D01*
D10*
X12584829Y31026904D02*
X12537210Y31169762D01*
D10*
X12632448Y30931666D02*
X12584829Y31026904D01*
D10*
X12727686Y30836428D02*
X12632448Y30931666D01*
D10*
X12822924Y30788810D02*
X12727686Y30836428D01*
D10*
X13013401Y30788810D02*
X12822924Y30788810D01*
D10*
X13108639Y30836428D02*
X13013401Y30788810D01*
D10*
X13203877Y30931666D02*
X13108639Y30836428D01*
D10*
X13251496Y31026904D02*
X13203877Y30931666D01*
D10*
X13727686Y30788810D02*
X14203877Y31788810D01*
D10*
X14203877Y31788810D02*
X13537210Y31788810D01*
D10*
X46763808Y36033332D02*
X46716192Y36128572D01*
D10*
X46859048Y35938096D02*
X46763808Y36033332D01*
D10*
X46954284Y35890476D02*
X46859048Y35938096D01*
D10*
X47097144Y35842856D02*
X46954284Y35890476D01*
D10*
X47335240Y35842856D02*
X47097144Y35842856D01*
D10*
X47478096Y35890476D02*
X47335240Y35842856D01*
D10*
X47573332Y35938096D02*
X47478096Y35890476D01*
D10*
X47668572Y36033332D02*
X47573332Y35938096D01*
D10*
X47716192Y36128572D02*
X47668572Y36033332D01*
D10*
X47716192Y36319048D02*
X47716192Y36128572D01*
D10*
X47668572Y36414284D02*
X47716192Y36319048D01*
D10*
X47573332Y36509524D02*
X47668572Y36414284D01*
D10*
X47478096Y36557144D02*
X47573332Y36509524D01*
D10*
X47335240Y36604760D02*
X47478096Y36557144D01*
D10*
X47097144Y36604760D02*
X47335240Y36604760D01*
D10*
X46954284Y36557144D02*
X47097144Y36604760D01*
D10*
X46859048Y36509524D02*
X46954284Y36557144D01*
D10*
X46763808Y36414284D02*
X46859048Y36509524D01*
D10*
X46716192Y36319048D02*
X46763808Y36414284D01*
D10*
X46716192Y36128572D02*
X46716192Y36319048D01*
D10*
X47716192Y36938096D02*
X46716192Y36938096D01*
D10*
X47382856Y36938096D02*
X46716192Y37604760D01*
D10*
X47716192Y37604760D02*
X47144760Y37176192D01*
D10*
X46859048Y38128572D02*
X46906668Y38033332D01*
D10*
X46716192Y38271428D02*
X46859048Y38128572D01*
D10*
X47716192Y38271428D02*
X46716192Y38271428D01*
D10*
X49576192Y27988096D02*
X48576192Y27988096D01*
D10*
X48576192Y28416666D02*
X48576192Y27988096D01*
D10*
X48623808Y28559524D02*
X48576192Y28416666D01*
D10*
X48671428Y28607142D02*
X48623808Y28559524D01*
D10*
X48766668Y28654762D02*
X48671428Y28607142D01*
D10*
X48861904Y28654762D02*
X48766668Y28654762D01*
D10*
X48957144Y28607142D02*
X48861904Y28654762D01*
D10*
X49004760Y28559524D02*
X48957144Y28607142D01*
D10*
X49052380Y28416666D02*
X49004760Y28559524D01*
D10*
X49052380Y27988096D02*
X49052380Y28416666D01*
D10*
X49576192Y28654762D02*
X49052380Y28321428D01*
D10*
X48576192Y29035714D02*
X48576192Y29511904D01*
D10*
X49004760Y28988096D02*
X48576192Y29035714D01*
D10*
X48957144Y29035714D02*
X49004760Y28988096D01*
D10*
X48909524Y29178572D02*
X48957144Y29035714D01*
D10*
X48909524Y29321428D02*
X48909524Y29178572D01*
D10*
X48957144Y29464286D02*
X48909524Y29321428D01*
D10*
X49052380Y29559524D02*
X48957144Y29464286D01*
D10*
X49195240Y29607142D02*
X49052380Y29559524D01*
D10*
X49290476Y29607142D02*
X49195240Y29607142D01*
D10*
X49433332Y29559524D02*
X49290476Y29607142D01*
D10*
X49528572Y29464286D02*
X49433332Y29559524D01*
D10*
X49576192Y29321428D02*
X49528572Y29464286D01*
D10*
X49576192Y29178572D02*
X49576192Y29321428D01*
D10*
X49528572Y29035714D02*
X49576192Y29178572D01*
D10*
X49480952Y28988096D02*
X49528572Y29035714D01*
D10*
X49385716Y28940476D02*
X49480952Y28988096D01*
D10*
X34660476Y35639524D02*
X34660476Y36353808D01*
D10*
X34708096Y35496668D02*
X34660476Y35639524D01*
D10*
X34803332Y35401428D02*
X34708096Y35496668D01*
D10*
X34946192Y35353808D02*
X34803332Y35401428D01*
D10*
X35041428Y35353808D02*
X34946192Y35353808D01*
D10*
X35184284Y35401428D02*
X35041428Y35353808D01*
D10*
X35279524Y35496668D02*
X35184284Y35401428D01*
D10*
X35327144Y35639524D02*
X35279524Y35496668D01*
D10*
X35327144Y36353808D02*
X35327144Y35639524D01*
D10*
X35898572Y36210952D02*
X35803332Y36163332D01*
D10*
X36041428Y36353808D02*
X35898572Y36210952D01*
D10*
X36041428Y35353808D02*
X36041428Y36353808D01*
D10*
X3490476Y42623808D02*
X3490476Y43623808D01*
D10*
X4061904Y42623808D02*
X3490476Y42623808D01*
D10*
X4300000Y42623808D02*
X4300000Y43623808D01*
D10*
X4919047Y43623808D02*
X4300000Y43623808D01*
D10*
X4680952Y43147620D02*
X4300000Y43147620D01*
D10*
X4919047Y42623808D02*
X4300000Y42623808D01*
D10*
X5204762Y42623808D02*
X5204762Y43623808D01*
D10*
X5538095Y43623808D02*
X5204762Y43623808D01*
D10*
X5680952Y43576192D02*
X5538095Y43623808D01*
D10*
X5776190Y43480952D02*
X5680952Y43576192D01*
D10*
X5823809Y43385716D02*
X5776190Y43480952D01*
D10*
X5871428Y43242856D02*
X5823809Y43385716D01*
D10*
X5871428Y43004760D02*
X5871428Y43242856D01*
D10*
X5823809Y42861904D02*
X5871428Y43004760D01*
D10*
X5776190Y42766668D02*
X5823809Y42861904D01*
D10*
X5680952Y42671428D02*
X5776190Y42766668D01*
D10*
X5538095Y42623808D02*
X5680952Y42671428D01*
D10*
X5204762Y42623808D02*
X5538095Y42623808D01*
D10*
X56299048Y27079762D02*
X56394284Y27127380D01*
D10*
X56203808Y26984524D02*
X56299048Y27079762D01*
D10*
X56156192Y26889286D02*
X56203808Y26984524D01*
D10*
X56156192Y26698810D02*
X56156192Y26889286D01*
D10*
X56203808Y26603572D02*
X56156192Y26698810D01*
D10*
X56299048Y26508334D02*
X56203808Y26603572D01*
D10*
X56394284Y26460714D02*
X56299048Y26508334D01*
D10*
X56537144Y26413096D02*
X56394284Y26460714D01*
D10*
X56775240Y26413096D02*
X56537144Y26413096D01*
D10*
X56918096Y26460714D02*
X56775240Y26413096D01*
D10*
X57013332Y26508334D02*
X56918096Y26460714D01*
D10*
X57108572Y26603572D02*
X57013332Y26508334D01*
D10*
X57156192Y26698810D02*
X57108572Y26603572D01*
D10*
X57156192Y26889286D02*
X57156192Y26698810D01*
D10*
X57108572Y26984524D02*
X57156192Y26889286D01*
D10*
X57013332Y27079762D02*
X57108572Y26984524D01*
D10*
X56918096Y27127380D02*
X57013332Y27079762D01*
D10*
X56299048Y27651190D02*
X56346668Y27555952D01*
D10*
X56156192Y27794048D02*
X56299048Y27651190D01*
D10*
X57156192Y27794048D02*
X56156192Y27794048D01*
D10*
X56203808Y28508334D02*
X56156192Y28651190D01*
D10*
X56346668Y28413096D02*
X56203808Y28508334D01*
D10*
X56584760Y28365476D02*
X56346668Y28413096D01*
D10*
X56727620Y28365476D02*
X56584760Y28365476D01*
D10*
X56965716Y28413096D02*
X56727620Y28365476D01*
D10*
X57108572Y28508334D02*
X56965716Y28413096D01*
D10*
X57156192Y28651190D02*
X57108572Y28508334D01*
D10*
X57156192Y28746428D02*
X57156192Y28651190D01*
D10*
X57108572Y28889286D02*
X57156192Y28746428D01*
D10*
X56965716Y28984524D02*
X57108572Y28889286D01*
D10*
X56727620Y29032142D02*
X56965716Y28984524D01*
D10*
X56584760Y29032142D02*
X56727620Y29032142D01*
D10*
X56346668Y28984524D02*
X56584760Y29032142D01*
D10*
X56203808Y28889286D02*
X56346668Y28984524D01*
D10*
X56156192Y28746428D02*
X56203808Y28889286D01*
D10*
X56156192Y28651190D02*
X56156192Y28746428D01*
D10*
X39369048Y30422142D02*
X39464284Y30469762D01*
D10*
X39273808Y30326904D02*
X39369048Y30422142D01*
D10*
X39226192Y30231666D02*
X39273808Y30326904D01*
D10*
X39226192Y30041190D02*
X39226192Y30231666D01*
D10*
X39273808Y29945952D02*
X39226192Y30041190D01*
D10*
X39369048Y29850714D02*
X39273808Y29945952D01*
D10*
X39464284Y29803096D02*
X39369048Y29850714D01*
D10*
X39607144Y29755476D02*
X39464284Y29803096D01*
D10*
X39845240Y29755476D02*
X39607144Y29755476D01*
D10*
X39988096Y29803096D02*
X39845240Y29755476D01*
D10*
X40083332Y29850714D02*
X39988096Y29803096D01*
D10*
X40178572Y29945952D02*
X40083332Y29850714D01*
D10*
X40226192Y30041190D02*
X40178572Y29945952D01*
D10*
X40226192Y30231666D02*
X40226192Y30041190D01*
D10*
X40178572Y30326904D02*
X40226192Y30231666D01*
D10*
X40083332Y30422142D02*
X40178572Y30326904D01*
D10*
X39988096Y30469762D02*
X40083332Y30422142D01*
D10*
X39226192Y30850714D02*
X39226192Y31326904D01*
D10*
X39654760Y30803096D02*
X39226192Y30850714D01*
D10*
X39607144Y30850714D02*
X39654760Y30803096D01*
D10*
X39559524Y30993572D02*
X39607144Y30850714D01*
D10*
X39559524Y31136428D02*
X39559524Y30993572D01*
D10*
X39607144Y31279286D02*
X39559524Y31136428D01*
D10*
X39702380Y31374524D02*
X39607144Y31279286D01*
D10*
X39845240Y31422142D02*
X39702380Y31374524D01*
D10*
X39940476Y31422142D02*
X39845240Y31422142D01*
D10*
X40083332Y31374524D02*
X39940476Y31422142D01*
D10*
X40178572Y31279286D02*
X40083332Y31374524D01*
D10*
X40226192Y31136428D02*
X40178572Y31279286D01*
D10*
X40226192Y30993572D02*
X40226192Y31136428D01*
D10*
X40178572Y30850714D02*
X40226192Y30993572D01*
D10*
X40130952Y30803096D02*
X40178572Y30850714D01*
D10*
X40035716Y30755476D02*
X40130952Y30803096D01*
D10*
X12520476Y33763808D02*
X12520476Y34763808D01*
D10*
X12853810Y34763808D02*
X12520476Y34763808D01*
D10*
X12996667Y34716192D02*
X12853810Y34763808D01*
D10*
X13091905Y34620952D02*
X12996667Y34716192D01*
D10*
X13139524Y34525716D02*
X13091905Y34620952D01*
D10*
X13187143Y34382856D02*
X13139524Y34525716D01*
D10*
X13187143Y34144760D02*
X13187143Y34382856D01*
D10*
X13139524Y34001904D02*
X13187143Y34144760D01*
D10*
X13091905Y33906668D02*
X13139524Y34001904D01*
D10*
X12996667Y33811428D02*
X13091905Y33906668D01*
D10*
X12853810Y33763808D02*
X12996667Y33811428D01*
D10*
X12520476Y33763808D02*
X12853810Y33763808D01*
D10*
X14091905Y34763808D02*
X13568095Y34763808D01*
D10*
X13806190Y34382856D02*
X14091905Y34763808D01*
D10*
X13949048Y34382856D02*
X13806190Y34382856D01*
D10*
X14044286Y34335240D02*
X13949048Y34382856D01*
D10*
X14091905Y34287620D02*
X14044286Y34335240D01*
D10*
X14139524Y34144760D02*
X14091905Y34287620D01*
D10*
X14139524Y34049524D02*
X14139524Y34144760D01*
D10*
X14091905Y33906668D02*
X14139524Y34049524D01*
D10*
X13996667Y33811428D02*
X14091905Y33906668D01*
D10*
X13853810Y33763808D02*
X13996667Y33811428D01*
D10*
X13710952Y33763808D02*
X13853810Y33763808D01*
D10*
X13568095Y33811428D02*
X13710952Y33763808D01*
D10*
X13520476Y33859048D02*
X13568095Y33811428D01*
D10*
X13472857Y33954284D02*
X13520476Y33859048D01*
D10*
X40119048Y17357142D02*
X40214284Y17404762D01*
D10*
X40023808Y17261904D02*
X40119048Y17357142D01*
D10*
X39976192Y17166666D02*
X40023808Y17261904D01*
D10*
X39976192Y16976190D02*
X39976192Y17166666D01*
D10*
X40023808Y16880952D02*
X39976192Y16976190D01*
D10*
X40119048Y16785714D02*
X40023808Y16880952D01*
D10*
X40214284Y16738095D02*
X40119048Y16785714D01*
D10*
X40357144Y16690476D02*
X40214284Y16738095D01*
D10*
X40595240Y16690476D02*
X40357144Y16690476D01*
D10*
X40738096Y16738095D02*
X40595240Y16690476D01*
D10*
X40833332Y16785714D02*
X40738096Y16738095D01*
D10*
X40928572Y16880952D02*
X40833332Y16785714D01*
D10*
X40976192Y16976190D02*
X40928572Y16880952D01*
D10*
X40976192Y17166666D02*
X40976192Y16976190D01*
D10*
X40928572Y17261904D02*
X40976192Y17166666D01*
D10*
X40833332Y17357142D02*
X40928572Y17261904D01*
D10*
X40738096Y17404762D02*
X40833332Y17357142D01*
D10*
X40119048Y17928572D02*
X40166668Y17833334D01*
D10*
X39976192Y18071428D02*
X40119048Y17928572D01*
D10*
X40976192Y18071428D02*
X39976192Y18071428D01*
D10*
X30836190Y27042858D02*
X29836190Y27042858D01*
D10*
X29836190Y27471428D02*
X29836190Y27042858D01*
D10*
X29883810Y27614286D02*
X29836190Y27471428D01*
D10*
X29931428Y27661904D02*
X29883810Y27614286D01*
D10*
X30026666Y27709524D02*
X29931428Y27661904D01*
D10*
X30169524Y27709524D02*
X30026666Y27709524D01*
D10*
X30264762Y27661904D02*
X30169524Y27709524D01*
D10*
X30312380Y27614286D02*
X30264762Y27661904D01*
D10*
X30360000Y27471428D02*
X30312380Y27614286D01*
D10*
X30360000Y27042858D02*
X30360000Y27471428D01*
D10*
X30836190Y28042858D02*
X29836190Y28042858D01*
D10*
X29836190Y28471428D02*
X29836190Y28042858D01*
D10*
X29883810Y28614286D02*
X29836190Y28471428D01*
D10*
X29931428Y28661904D02*
X29883810Y28614286D01*
D10*
X30026666Y28709524D02*
X29931428Y28661904D01*
D10*
X30121904Y28709524D02*
X30026666Y28709524D01*
D10*
X30217142Y28661904D02*
X30121904Y28709524D01*
D10*
X30264762Y28614286D02*
X30217142Y28661904D01*
D10*
X30312380Y28471428D02*
X30264762Y28614286D01*
D10*
X30312380Y28042858D02*
X30312380Y28471428D01*
D10*
X30836190Y28709524D02*
X30312380Y28376190D01*
D10*
X29883810Y29185714D02*
X29836190Y29280952D01*
D10*
X29979048Y29090476D02*
X29883810Y29185714D01*
D10*
X30074286Y29042858D02*
X29979048Y29090476D01*
D10*
X30217142Y28995238D02*
X30074286Y29042858D01*
D10*
X30455238Y28995238D02*
X30217142Y28995238D01*
D10*
X30598096Y29042858D02*
X30455238Y28995238D01*
D10*
X30693334Y29090476D02*
X30598096Y29042858D01*
D10*
X30788572Y29185714D02*
X30693334Y29090476D01*
D10*
X30836190Y29280952D02*
X30788572Y29185714D01*
D10*
X30836190Y29471428D02*
X30836190Y29280952D01*
D10*
X30788572Y29566666D02*
X30836190Y29471428D01*
D10*
X30693334Y29661904D02*
X30788572Y29566666D01*
D10*
X30598096Y29709524D02*
X30693334Y29661904D01*
D10*
X30455238Y29757142D02*
X30598096Y29709524D01*
D10*
X30217142Y29757142D02*
X30455238Y29757142D01*
D10*
X30074286Y29709524D02*
X30217142Y29757142D01*
D10*
X29979048Y29661904D02*
X30074286Y29709524D01*
D10*
X29883810Y29566666D02*
X29979048Y29661904D01*
D10*
X29836190Y29471428D02*
X29883810Y29566666D01*
D10*
X29836190Y29280952D02*
X29836190Y29471428D01*
D10*
X29979048Y30709524D02*
X30074286Y30757142D01*
D10*
X29883810Y30614286D02*
X29979048Y30709524D01*
D10*
X29836190Y30519048D02*
X29883810Y30614286D01*
D10*
X29836190Y30328572D02*
X29836190Y30519048D01*
D10*
X29883810Y30233334D02*
X29836190Y30328572D01*
D10*
X29979048Y30138096D02*
X29883810Y30233334D01*
D10*
X30074286Y30090476D02*
X29979048Y30138096D01*
D10*
X30217142Y30042858D02*
X30074286Y30090476D01*
D10*
X30455238Y30042858D02*
X30217142Y30042858D01*
D10*
X30598096Y30090476D02*
X30455238Y30042858D01*
D10*
X30693334Y30138096D02*
X30598096Y30090476D01*
D10*
X30788572Y30233334D02*
X30693334Y30138096D01*
D10*
X30836190Y30328572D02*
X30788572Y30233334D01*
D10*
X30836190Y30519048D02*
X30836190Y30328572D01*
D10*
X30788572Y30614286D02*
X30836190Y30519048D01*
D10*
X30693334Y30709524D02*
X30788572Y30614286D01*
D10*
X30598096Y30757142D02*
X30693334Y30709524D01*
D10*
X30455238Y30757142D02*
X30598096Y30757142D01*
D10*
X30455238Y30757142D02*
X30455238Y30519048D01*
D10*
X43653332Y31726190D02*
X43748572Y31773810D01*
D10*
X43558096Y31630952D02*
X43653332Y31726190D01*
D10*
X43510476Y31535714D02*
X43558096Y31630952D01*
D10*
X43462856Y31392858D02*
X43510476Y31535714D01*
D10*
X43462856Y31154762D02*
X43462856Y31392858D01*
D10*
X43510476Y31011904D02*
X43462856Y31154762D01*
D10*
X43558096Y30916666D02*
X43510476Y31011904D01*
D10*
X43653332Y30821428D02*
X43558096Y30916666D01*
D10*
X43748572Y30773810D02*
X43653332Y30821428D01*
D10*
X43939048Y30773810D02*
X43748572Y30773810D01*
D10*
X44034284Y30821428D02*
X43939048Y30773810D01*
D10*
X44129524Y30916666D02*
X44034284Y30821428D01*
D10*
X44177144Y31011904D02*
X44129524Y30916666D01*
D10*
X44224760Y31154762D02*
X44177144Y31011904D01*
D10*
X44224760Y31392858D02*
X44224760Y31154762D01*
D10*
X44177144Y31535714D02*
X44224760Y31392858D01*
D10*
X44129524Y31630952D02*
X44177144Y31535714D01*
D10*
X44034284Y31726190D02*
X44129524Y31630952D01*
D10*
X43939048Y31773810D02*
X44034284Y31726190D01*
D10*
X43748572Y31773810D02*
X43939048Y31773810D01*
D10*
X44177144Y30678572D02*
X43891428Y30964286D01*
D10*
X44558096Y31583334D02*
X44558096Y31535714D01*
D10*
X44605716Y31678572D02*
X44558096Y31583334D01*
D10*
X44653332Y31726190D02*
X44605716Y31678572D01*
D10*
X44748572Y31773810D02*
X44653332Y31726190D01*
D10*
X44939048Y31773810D02*
X44748572Y31773810D01*
D10*
X45034284Y31726190D02*
X44939048Y31773810D01*
D10*
X45081904Y31678572D02*
X45034284Y31726190D01*
D10*
X45129524Y31583334D02*
X45081904Y31678572D01*
D10*
X45129524Y31488096D02*
X45129524Y31583334D01*
D10*
X45081904Y31392858D02*
X45129524Y31488096D01*
D10*
X44986668Y31250000D02*
X45081904Y31392858D01*
D10*
X44510476Y30773810D02*
X44986668Y31250000D01*
D10*
X45177144Y30773810D02*
X44510476Y30773810D01*
D10*
X24526190Y10890476D02*
X23526190Y10890476D01*
D10*
X23526190Y11319048D02*
X23526190Y10890476D01*
D10*
X23573810Y11461905D02*
X23526190Y11319048D01*
D10*
X23621428Y11509524D02*
X23573810Y11461905D01*
D10*
X23716666Y11557143D02*
X23621428Y11509524D01*
D10*
X23811904Y11557143D02*
X23716666Y11557143D01*
D10*
X23907142Y11509524D02*
X23811904Y11557143D01*
D10*
X23954762Y11461905D02*
X23907142Y11509524D01*
D10*
X24002380Y11319048D02*
X23954762Y11461905D01*
D10*
X24002380Y10890476D02*
X24002380Y11319048D01*
D10*
X24526190Y11557143D02*
X24002380Y11223810D01*
D10*
X24526190Y12080952D02*
X23526190Y12080952D01*
D10*
X23526190Y12414286D02*
X23526190Y11747619D01*
D10*
X23669048Y12842857D02*
X23716666Y12747619D01*
D10*
X23526190Y12985714D02*
X23669048Y12842857D01*
D10*
X24526190Y12985714D02*
X23526190Y12985714D01*
D10*
X28040476Y10523810D02*
X28040476Y11523810D01*
D10*
X28469048Y11523810D02*
X28040476Y11523810D01*
D10*
X28611904Y11476190D02*
X28469048Y11523810D01*
D10*
X28659524Y11428571D02*
X28611904Y11476190D01*
D10*
X28707142Y11333333D02*
X28659524Y11428571D01*
D10*
X28707142Y11238095D02*
X28707142Y11333333D01*
D10*
X28659524Y11142857D02*
X28707142Y11238095D01*
D10*
X28611904Y11095238D02*
X28659524Y11142857D01*
D10*
X28469048Y11047619D02*
X28611904Y11095238D01*
D10*
X28040476Y11047619D02*
X28469048Y11047619D01*
D10*
X28707142Y10523810D02*
X28373810Y11047619D01*
D10*
X29230952Y11380952D02*
X29135714Y11333333D01*
D10*
X29373810Y11523810D02*
X29230952Y11380952D01*
D10*
X29373810Y10523810D02*
X29373810Y11523810D01*
D10*
X52988096Y40773808D02*
X52988096Y41773808D01*
D10*
X52988096Y41107144D02*
X53654760Y41773808D01*
D10*
X53654760Y40773808D02*
X53226192Y41345240D01*
D10*
X54178572Y41630952D02*
X54083332Y41583332D01*
D10*
X54321428Y41773808D02*
X54178572Y41630952D01*
D10*
X54321428Y40773808D02*
X54321428Y41773808D01*
D10*
X59013096Y31353810D02*
X59013096Y32353810D01*
D10*
X59346428Y32353810D02*
X59013096Y32353810D01*
D10*
X59489284Y32306190D02*
X59346428Y32353810D01*
D10*
X59584524Y32210952D02*
X59489284Y32306190D01*
D10*
X59632144Y32115714D02*
X59584524Y32210952D01*
D10*
X59679760Y31972858D02*
X59632144Y32115714D01*
D10*
X59679760Y31734762D02*
X59679760Y31972858D01*
D10*
X59632144Y31591904D02*
X59679760Y31734762D01*
D10*
X59584524Y31496666D02*
X59632144Y31591904D01*
D10*
X59489284Y31401428D02*
X59584524Y31496666D01*
D10*
X59346428Y31353810D02*
X59489284Y31401428D01*
D10*
X59013096Y31353810D02*
X59346428Y31353810D01*
D10*
X60013096Y32163334D02*
X60013096Y32115714D01*
D10*
X60060716Y32258572D02*
X60013096Y32163334D01*
D10*
X60108332Y32306190D02*
X60060716Y32258572D01*
D10*
X60203572Y32353810D02*
X60108332Y32306190D01*
D10*
X60394048Y32353810D02*
X60203572Y32353810D01*
D10*
X60489284Y32306190D02*
X60394048Y32353810D01*
D10*
X60536904Y32258572D02*
X60489284Y32306190D01*
D10*
X60584524Y32163334D02*
X60536904Y32258572D01*
D10*
X60584524Y32068096D02*
X60584524Y32163334D01*
D10*
X60536904Y31972858D02*
X60584524Y32068096D01*
D10*
X60441668Y31830000D02*
X60536904Y31972858D01*
D10*
X59965476Y31353810D02*
X60441668Y31830000D01*
D10*
X60632144Y31353810D02*
X59965476Y31353810D01*
D11*
X4235714Y36535716D02*
X4235714Y38035716D01*
D11*
X4807143Y36535716D02*
X4235714Y38035716D01*
D11*
X4807143Y36535716D02*
X5378571Y38035716D01*
D11*
X5378571Y36535716D02*
X5378571Y38035716D01*
D11*
X6164286Y37964284D02*
X6307143Y38035716D01*
D11*
X6021428Y37821428D02*
X6164286Y37964284D01*
D11*
X5950000Y37678572D02*
X6021428Y37821428D01*
D11*
X5878571Y37464284D02*
X5950000Y37678572D01*
D11*
X5878571Y37107144D02*
X5878571Y37464284D01*
D11*
X5950000Y36892856D02*
X5878571Y37107144D01*
D11*
X6021428Y36750000D02*
X5950000Y36892856D01*
D11*
X6164286Y36607144D02*
X6021428Y36750000D01*
D11*
X6307143Y36535716D02*
X6164286Y36607144D01*
D11*
X6592857Y36535716D02*
X6307143Y36535716D01*
D11*
X6735714Y36607144D02*
X6592857Y36535716D01*
D11*
X6878571Y36750000D02*
X6735714Y36607144D01*
D11*
X6950000Y36892856D02*
X6878571Y36750000D01*
D11*
X7021428Y37107144D02*
X6950000Y36892856D01*
D11*
X7021428Y37464284D02*
X7021428Y37107144D01*
D11*
X6950000Y37678572D02*
X7021428Y37464284D01*
D11*
X6878571Y37821428D02*
X6950000Y37678572D01*
D11*
X6735714Y37964284D02*
X6878571Y37821428D01*
D11*
X6592857Y38035716D02*
X6735714Y37964284D01*
D11*
X6307143Y38035716D02*
X6592857Y38035716D01*
D11*
X7521428Y36535716D02*
X7521428Y38035716D01*
D11*
X8021428Y38035716D02*
X7521428Y38035716D01*
D11*
X8235714Y37964284D02*
X8021428Y38035716D01*
D11*
X8378571Y37821428D02*
X8235714Y37964284D01*
D11*
X8450000Y37678572D02*
X8378571Y37821428D01*
D11*
X8521428Y37464284D02*
X8450000Y37678572D01*
D11*
X8521428Y37107144D02*
X8521428Y37464284D01*
D11*
X8450000Y36892856D02*
X8521428Y37107144D01*
D11*
X8378571Y36750000D02*
X8450000Y36892856D01*
D11*
X8235714Y36607144D02*
X8378571Y36750000D01*
D11*
X8021428Y36535716D02*
X8235714Y36607144D01*
D11*
X7521428Y36535716D02*
X8021428Y36535716D01*
D11*
X9021428Y36535716D02*
X9021428Y38035716D01*
D11*
X9950000Y38035716D02*
X9021428Y38035716D01*
D11*
X9592857Y37321428D02*
X9021428Y37321428D01*
D11*
X9950000Y36535716D02*
X9021428Y36535716D01*
D12*
X24870000Y15240000D02*
X24870000Y16560000D01*
D12*
X23170000Y15240000D02*
X23170000Y16560000D01*
D12*
X29125000Y15626461D02*
X28575000Y15626461D01*
D12*
X27400000Y15901461D02*
X27400000Y16926461D01*
D12*
X30300000Y16926461D02*
X30300000Y15901461D01*
D12*
X29525000Y16926461D02*
X30300000Y16926461D01*
D12*
X27400000Y16926461D02*
X28175000Y16926461D01*
D12*
X44650000Y22100000D02*
X44650000Y22300000D01*
D12*
X43850000Y22100000D02*
X43850000Y22300000D01*
D12*
X49575000Y20645000D02*
X50125000Y20645000D01*
D12*
X49575000Y19795000D02*
X50125000Y19795000D01*
D12*
X52950000Y26095000D02*
X52950000Y24845000D01*
D12*
X54550000Y26095000D02*
X54550000Y24845000D01*
D12*
X49140000Y39150000D02*
X45440000Y39150000D01*
D12*
X49140000Y35200000D02*
X49140000Y39700000D01*
D12*
X47940000Y35200000D02*
X46640000Y35200000D01*
D12*
X47940000Y39700000D02*
X46640000Y39700000D01*
D12*
X45440000Y39700000D02*
X45440000Y35200000D01*
D12*
X56700000Y33400000D02*
X56650000Y43400000D01*
D12*
X51250000Y43400000D02*
X57750000Y43400000D01*
D12*
X51250000Y40350000D02*
X51250000Y41550000D01*
D12*
X57750000Y43400000D02*
X57750000Y42850000D01*
D12*
X57750000Y36450000D02*
X57750000Y35250000D01*
D12*
X51250000Y35250000D02*
X51250000Y36450000D01*
D12*
X57750000Y33400000D02*
X51250000Y33400000D01*
D12*
X57750000Y40350000D02*
X57750000Y41550000D01*
D12*
X57750000Y39000000D02*
X57750000Y37800000D01*
D12*
X51250000Y42900000D02*
X51250000Y43400000D01*
D12*
X51250000Y37800000D02*
X51250000Y39000000D01*
D12*
X57750000Y33950000D02*
X57750000Y33400000D01*
D12*
X51250000Y33400000D02*
X51250000Y33950000D01*
D12*
X1200000Y36100000D02*
X11100000Y36100000D01*
D12*
X11100000Y32100000D02*
X1200000Y32100000D01*
D12*
X11100000Y36100000D02*
X11100000Y32100000D01*
D12*
X1200000Y32100000D02*
X1200000Y36100000D01*
D12*
X20500000Y16608977D02*
X20500000Y14808977D01*
D12*
X20500000Y16258977D02*
X18900000Y16258977D01*
D12*
X20500000Y16408977D02*
X18900000Y16408977D01*
D12*
X18900000Y16608977D02*
X18900000Y14808977D01*
D12*
X20500000Y16308977D02*
X18900000Y16308977D01*
D12*
X18900000Y16358977D02*
X20500000Y16358977D01*
D12*
X50875000Y26275000D02*
X50875000Y26825000D01*
D12*
X51725000Y26275000D02*
X51725000Y26825000D01*
D12*
X27840000Y31960000D02*
X27840000Y31760000D01*
D12*
X28640000Y31960000D02*
X28640000Y31760000D01*
D12*
X17355000Y29415000D02*
X17305000Y29415000D01*
D12*
X17305000Y27465000D02*
X17255000Y27465000D01*
D12*
X17255000Y27465000D02*
X17255000Y29415000D01*
D12*
X17205000Y27465000D02*
X17180000Y27465000D01*
D12*
X17205000Y29415000D02*
X17205000Y27465000D01*
D12*
X16355000Y29415000D02*
X17355000Y29415000D01*
D12*
X17305000Y29415000D02*
X17305000Y27465000D01*
D12*
X17355000Y27465000D02*
X17355000Y29415000D01*
D12*
X17255000Y29415000D02*
X17205000Y29415000D01*
D12*
X17355000Y27465000D02*
X16352500Y27465000D01*
D12*
X57555000Y20850000D02*
X56980000Y20850000D01*
D12*
X55930000Y21900000D02*
X55930000Y26150000D01*
D12*
X60180000Y20850000D02*
X59605000Y20850000D01*
D12*
X61230000Y26150000D02*
X59605000Y26150000D01*
D12*
X60180000Y20850000D02*
X61230000Y21900000D01*
D12*
X56980000Y20850000D02*
X55930000Y21900000D01*
D12*
X61230000Y21900000D02*
X61230000Y26150000D01*
D12*
X55930000Y26150000D02*
X57555000Y26150000D01*
D12*
X1200000Y31400000D02*
X8200000Y31400000D01*
D12*
X8200000Y24800000D02*
X1200000Y24800000D01*
D12*
X8200000Y31400000D02*
X8200000Y24800000D01*
D12*
X1200000Y24800000D02*
X1200000Y31400000D01*
D12*
X28375000Y13101461D02*
X28925000Y13101461D01*
D12*
X28375000Y12251461D02*
X28925000Y12251461D01*
D12*
X38950000Y22100000D02*
X38950000Y22300000D01*
D12*
X38150000Y22100000D02*
X38150000Y22300000D01*
D12*
X13500000Y19400000D02*
X13500000Y21675000D01*
D12*
X20100000Y24700000D02*
X20100000Y23725000D01*
D12*
X20100000Y20700000D02*
X20100000Y21675000D01*
D12*
X20100000Y20700000D02*
X18800000Y19400000D01*
D12*
X13500000Y26000000D02*
X13500000Y23725000D01*
D12*
X18800000Y26000000D02*
X20100000Y24700000D01*
D12*
X18800000Y19400000D02*
X13500000Y19400000D01*
D12*
X13500000Y26000000D02*
X18800000Y26000000D01*
D12*
X31260000Y28400000D02*
X32760000Y28400000D01*
D12*
X35460000Y30200000D02*
X35460000Y28400000D01*
D12*
X35460000Y28400000D02*
X33960000Y28400000D01*
D12*
X35260000Y30200000D02*
X35460000Y30200000D01*
D12*
X32690000Y30200000D02*
X34030000Y30200000D01*
D12*
X31460000Y30200000D02*
X31260000Y30200000D01*
D12*
X31260000Y30200000D02*
X31260000Y28400000D01*
D12*
X41645000Y35375000D02*
X42195000Y35375000D01*
D12*
X41645000Y34525000D02*
X42195000Y34525000D01*
D12*
X40920000Y30550000D02*
X40920000Y31525000D01*
D12*
X43120000Y31525000D02*
X43120000Y30550000D01*
D12*
X43120000Y30550000D02*
X42595000Y30550000D01*
D12*
X41445000Y30550000D02*
X40920000Y30550000D01*
D12*
X41945000Y31950000D02*
X42095000Y31950000D01*
D12*
X49550000Y22825000D02*
X49550000Y23375000D01*
D12*
X49825000Y24550000D02*
X50850000Y24550000D01*
D12*
X50850000Y21650000D02*
X49825000Y21650000D01*
D12*
X50850000Y22425000D02*
X50850000Y21650000D01*
D12*
X50850000Y24550000D02*
X50850000Y23775000D01*
D12*
X49525000Y26825000D02*
X49525000Y26275000D01*
D12*
X48675000Y26825000D02*
X48675000Y26275000D01*
D12*
X37750000Y31090000D02*
X37550000Y31090000D01*
D12*
X37750000Y30290000D02*
X37550000Y30290000D01*
D12*
X57825000Y31405000D02*
X57825000Y31180000D01*
D12*
X57825000Y32480000D02*
X57825000Y32255000D01*
D12*
X57300000Y31205000D02*
X57300000Y32455000D01*
D12*
X56125000Y32480000D02*
X57825000Y32480000D01*
D12*
X57825000Y31180000D02*
X56125000Y31180000D01*
D12*
X56125000Y32255000D02*
X56125000Y32480000D01*
D12*
X56125000Y31180000D02*
X56125000Y31405000D01*
D12*
X57400000Y31205000D02*
X57400000Y32455000D01*
D12*
X57350000Y31205000D02*
X57350000Y32455000D01*
D12*
X37720000Y32100000D02*
X33740000Y32100000D01*
D12*
X33740000Y37100000D02*
X37720000Y37100000D01*
D12*
X37080000Y32100000D02*
X37080000Y37100000D01*
D12*
X21410000Y33200000D02*
X25390000Y33200000D01*
D12*
X25390000Y28200000D02*
X21410000Y28200000D01*
D12*
X22050000Y33200000D02*
X22050000Y28200000D01*
D12*
X41675000Y21900000D02*
X41125000Y21900000D01*
D12*
X39950000Y22175000D02*
X39950000Y23200000D01*
D12*
X42850000Y23200000D02*
X42850000Y22175000D01*
D12*
X42075000Y23200000D02*
X42850000Y23200000D01*
D12*
X39950000Y23200000D02*
X40725000Y23200000D01*
D12*
X17471117Y32140000D02*
X16221117Y32140000D01*
D12*
X17471117Y30540000D02*
X16221117Y30540000D01*
D12*
X8850000Y46400000D02*
X8850000Y39400000D01*
D12*
X8850000Y46400000D02*
X16350000Y46400000D01*
D12*
X16350000Y46400000D02*
X16350000Y39400000D01*
D12*
X16350000Y39400000D02*
X14900000Y39400000D01*
D12*
X8850000Y39400000D02*
X10300000Y39400000D01*
D12*
X12400000Y39400000D02*
X12800000Y39400000D01*
D12*
X41645000Y37205000D02*
X42195000Y37205000D01*
D12*
X41645000Y36355000D02*
X42195000Y36355000D01*
D12*
X950000Y46400000D02*
X950000Y39400000D01*
D12*
X950000Y46400000D02*
X8450000Y46400000D01*
D12*
X8450000Y46400000D02*
X8450000Y39400000D01*
D12*
X8450000Y39400000D02*
X7000000Y39400000D01*
D12*
X950000Y39400000D02*
X2400000Y39400000D01*
D12*
X4500000Y39400000D02*
X4900000Y39400000D01*
D12*
X40000000Y46400000D02*
X40000000Y44200000D01*
D12*
X37150000Y41100000D02*
X25850000Y41100000D01*
D12*
X23000000Y46400000D02*
X23000000Y44200000D01*
D12*
X23000000Y46400000D02*
X40000000Y46400000D01*
D10*
X31857142Y44261904D02*
X31857142Y45023808D01*
D10*
X31809524Y44119048D02*
X31857142Y44261904D01*
D10*
X31761904Y44071428D02*
X31809524Y44119048D01*
D10*
X31666666Y44023808D02*
X31761904Y44071428D01*
D10*
X31571428Y44023808D02*
X31666666Y44023808D01*
D10*
X31476190Y44071428D02*
X31571428Y44023808D01*
D10*
X31428572Y44119048D02*
X31476190Y44071428D01*
D10*
X31380952Y44261904D02*
X31428572Y44119048D01*
D10*
X31380952Y44357144D02*
X31380952Y44261904D01*
D10*
X32428572Y44880952D02*
X32333334Y44833332D01*
D10*
X32571428Y45023808D02*
X32428572Y44880952D01*
D10*
X32571428Y44023808D02*
X32571428Y45023808D01*
D12*
X39530000Y18476461D02*
X39530000Y16201461D01*
D12*
X32930000Y13176461D02*
X32930000Y14151461D01*
D12*
X32930000Y17176461D02*
X32930000Y16201461D01*
D12*
X32930000Y17176461D02*
X34230000Y18476461D01*
D12*
X39530000Y11876461D02*
X39530000Y14151461D01*
D12*
X34230000Y11876461D02*
X32930000Y13176461D01*
D12*
X34230000Y18476461D02*
X39530000Y18476461D01*
D12*
X39530000Y11876461D02*
X34230000Y11876461D01*
D12*
X9430000Y27985000D02*
X9430000Y26335000D01*
D12*
X11030000Y27985000D02*
X11030000Y26335000D01*
D12*
X16305000Y33265000D02*
X16355000Y33265000D01*
D12*
X16355000Y35215000D02*
X16405000Y35215000D01*
D12*
X16405000Y35215000D02*
X16405000Y33265000D01*
D12*
X16455000Y35215000D02*
X16480000Y35215000D01*
D12*
X16455000Y33265000D02*
X16455000Y35215000D01*
D12*
X17305000Y33265000D02*
X16305000Y33265000D01*
D12*
X16355000Y33265000D02*
X16355000Y35215000D01*
D12*
X16305000Y35215000D02*
X16305000Y33265000D01*
D12*
X16405000Y33265000D02*
X16455000Y33265000D01*
D12*
X16305000Y35215000D02*
X17307500Y35215000D01*
D12*
X32550000Y21800000D02*
X33400000Y20950000D01*
D12*
X33400000Y20950000D02*
X32550000Y21800000D01*
D12*
X36000000Y20950000D02*
X36850000Y21800000D01*
D12*
X36000000Y20950000D02*
X35725000Y20950000D01*
D12*
X32550000Y25250000D02*
X33675000Y25250000D01*
D12*
X32550000Y25250000D02*
X32550000Y21800000D01*
D12*
X32550000Y21800000D02*
X33400000Y20950000D01*
D12*
X36850000Y25250000D02*
X35725000Y25250000D01*
D12*
X33400000Y20950000D02*
X33670000Y20950000D01*
D12*
X33400000Y20950000D02*
X33400000Y20950000D01*
D12*
X36850000Y21800000D02*
X36850000Y25250000D01*
G75*
M02*
