%FSLAX46Y46*%
%MOMM*%
%ADD14C,0.200000*%
%ADD10C,0.300000*%
%ADD13C,0.400000*%
%ADD11C,0.500000*%
%ADD18C,0.575000*%
%ADD19C,0.580000*%
%ADD20C,0.600000*%
%ADD16C,0.700000*%
%ADD17C,0.750000*%
%ADD15C,0.800000*%
%ADD12C,1.300000*%
%AMPS45*
1,1,2.300000,0.000000,0.000000*
%
%ADD45PS45*%
%AMPS44*
1,1,1.300000,0.000000,0.000000*
%
%ADD44PS44*%
%AMPS35*
1,1,1.700000,0.000000,0.000000*
%
%ADD35PS35*%
%AMPS61*
1,1,1.700000,0.000000,0.000000*
%
%ADD61PS61*%
%AMPS64*
1,1,1.700000,0.000000,0.000000*
%
%ADD64PS64*%
%AMPS42*
21,1,1.594948,2.741421,0.000000,0.000000,0.000000*
%
%ADD42PS42*%
%AMPS43*
21,1,1.594948,2.741421,0.000000,0.000000,180.000000*
%
%ADD43PS43*%
%AMPS47*
21,1,1.600000,2.950000,0.000000,0.000000,90.000000*
%
%ADD47PS47*%
%AMPS46*
21,1,1.600000,2.950000,0.000000,0.000000,270.000000*
%
%ADD46PS46*%
%AMPS58*
21,1,0.600000,1.550000,0.000000,0.000000,90.000000*
%
%ADD58PS58*%
%AMPS57*
21,1,0.600000,1.550000,0.000000,0.000000,270.000000*
%
%ADD57PS57*%
%AMPS68*
21,1,1.600000,2.500000,0.000000,0.000000,0.000000*
%
%ADD68PS68*%
%AMPS67*
21,1,1.600000,2.500000,0.000000,0.000000,180.000000*
%
%ADD67PS67*%
%AMPS23*
21,1,0.900000,1.000000,0.000000,0.000000,0.000000*
%
%ADD23PS23*%
%AMPS52*
21,1,0.900000,1.000000,0.000000,0.000000,90.000000*
%
%ADD52PS52*%
%AMPS24*
21,1,0.900000,1.000000,0.000000,0.000000,180.000000*
%
%ADD24PS24*%
%AMPS51*
21,1,0.900000,1.000000,0.000000,0.000000,270.000000*
%
%ADD51PS51*%
%AMPS62*
21,1,0.400000,1.700000,0.000000,0.000000,180.000000*
%
%ADD62PS62*%
%AMPS55*
21,1,0.400000,0.900000,0.000000,0.000000,90.000000*
%
%ADD55PS55*%
%AMPS56*
21,1,0.400000,0.900000,0.000000,0.000000,270.000000*
%
%ADD56PS56*%
%AMPS36*
21,1,1.300000,1.000000,0.000000,0.000000,0.000000*
%
%ADD36PS36*%
%AMPS37*
21,1,1.300000,1.000000,0.000000,0.000000,180.000000*
%
%ADD37PS37*%
%AMPS31*
21,1,0.600000,1.800000,0.000000,0.000000,0.000000*
%
%ADD31PS31*%
%AMPS32*
21,1,0.600000,1.800000,0.000000,0.000000,180.000000*
%
%ADD32PS32*%
%AMPS34*
21,1,0.701421,1.491421,0.000000,0.000000,90.000000*
%
%ADD34PS34*%
%AMPS33*
21,1,0.701421,1.491421,0.000000,0.000000,270.000000*
%
%ADD33PS33*%
%AMPS63*
21,1,2.500000,2.800000,0.000000,0.000000,180.000000*
%
%ADD63PS63*%
%AMPS41*
21,1,1.800000,1.340000,0.000000,0.000000,90.000000*
%
%ADD41PS41*%
%AMPS40*
21,1,1.800000,1.340000,0.000000,0.000000,270.000000*
%
%ADD40PS40*%
%AMPS30*
21,1,1.800000,1.200000,0.000000,0.000000,0.000000*
%
%ADD30PS30*%
%AMPS59*
21,1,1.800000,1.200000,0.000000,0.000000,90.000000*
%
%ADD59PS59*%
%AMPS29*
21,1,1.800000,1.200000,0.000000,0.000000,180.000000*
%
%ADD29PS29*%
%AMPS60*
21,1,1.800000,1.200000,0.000000,0.000000,270.000000*
%
%ADD60PS60*%
%AMPS39*
21,1,0.900000,0.500000,0.000000,0.000000,0.000000*
%
%ADD39PS39*%
%AMPS27*
21,1,0.900000,0.500000,0.000000,0.000000,90.000000*
%
%ADD27PS27*%
%AMPS38*
21,1,0.900000,0.500000,0.000000,0.000000,180.000000*
%
%ADD38PS38*%
%AMPS28*
21,1,0.900000,0.500000,0.000000,0.000000,270.000000*
%
%ADD28PS28*%
%AMPS66*
21,1,1.700000,1.100000,0.000000,0.000000,0.000000*
%
%ADD66PS66*%
%AMPS65*
21,1,1.700000,1.100000,0.000000,0.000000,180.000000*
%
%ADD65PS65*%
%AMPS50*
21,1,0.700000,0.900000,0.000000,0.000000,0.000000*
%
%ADD50PS50*%
%AMPS49*
21,1,0.700000,0.900000,0.000000,0.000000,180.000000*
%
%ADD49PS49*%
%AMPS48*
21,1,0.750000,1.300000,0.000000,0.000000,0.000000*
%
%ADD48PS48*%
%AMPS22*
21,1,1.831662,1.171341,0.000000,0.000000,0.000000*
%
%ADD22PS22*%
%AMPS21*
21,1,1.831662,1.171341,0.000000,0.000000,180.000000*
%
%ADD21PS21*%
%AMPS26*
21,1,0.850000,0.800000,0.000000,0.000000,0.000000*
%
%ADD26PS26*%
%AMPS54*
21,1,0.850000,0.800000,0.000000,0.000000,90.000000*
%
%ADD54PS54*%
%AMPS25*
21,1,0.850000,0.800000,0.000000,0.000000,180.000000*
%
%ADD25PS25*%
%AMPS53*
21,1,0.850000,0.800000,0.000000,0.000000,270.000000*
%
%ADD53PS53*%
%AMPS70*
1,1,1.400000,0.000000,0.000000*
%
%ADD70PS70*%
%AMPS72*
1,1,0.700000,0.000000,0.000000*
%
%ADD72PS72*%
%AMPS71*
1,1,0.900000,0.000000,0.000000*
%
%ADD71PS71*%
%AMPS73*
1,1,1.000000,0.000000,0.000000*
%
%ADD73PS73*%
%AMPS69*
1,1,0.700000,0.000000,0.000000*
%
%ADD69PS69*%
G01*
%LPD*%
G36*
X62640000Y360000D02*
X62640000Y46040000D01*
X360000Y46040000D01*
X360000Y360000D01*
X62640000Y360000D01*
D02*
G37*
%LPC*%
G36*
X51865710Y41664290D02*
X49984290Y41664290D01*
X49984290Y42213663D01*
X49438960Y42758995D01*
X49364226Y42747909D01*
X49300000Y42744753D01*
X49235774Y42747909D01*
X49172167Y42757345D01*
X49109790Y42772968D01*
X49049243Y42794634D01*
X48991122Y42822123D01*
X48935966Y42855182D01*
X48884316Y42893488D01*
X48836670Y42936670D01*
X48793488Y42984316D01*
X48755182Y43035966D01*
X48722123Y43091122D01*
X48694634Y43149243D01*
X48672968Y43209790D01*
X48657345Y43272167D01*
X48647909Y43335774D01*
X48644753Y43400000D01*
X48647909Y43464226D01*
X48657345Y43527833D01*
X48672968Y43590210D01*
X48694634Y43650757D01*
X48722123Y43708878D01*
X48755182Y43764034D01*
X48793488Y43815684D01*
X48836670Y43863330D01*
X48884316Y43906512D01*
X48935966Y43944818D01*
X48991122Y43977877D01*
X49049243Y44005366D01*
X49109790Y44027032D01*
X49172167Y44042655D01*
X49235774Y44052091D01*
X49300000Y44055247D01*
X49364226Y44052091D01*
X49427833Y44042655D01*
X49490210Y44027032D01*
X49550757Y44005366D01*
X49608878Y43977877D01*
X49664034Y43944818D01*
X49715684Y43906512D01*
X49763330Y43863330D01*
X49806512Y43815684D01*
X49844818Y43764034D01*
X49877877Y43708878D01*
X49905366Y43650757D01*
X49927032Y43590210D01*
X49942655Y43527833D01*
X49952091Y43464226D01*
X49955247Y43400000D01*
X49952091Y43335774D01*
X49941005Y43261040D01*
X50446337Y42755710D01*
X51865710Y42755710D01*
X51865710Y41664290D01*
D02*
G37*
%LPC*%
G36*
X40195000Y40855000D02*
X37305000Y40855000D01*
X37305000Y44045000D01*
X40195000Y44045000D01*
X40195000Y40855000D01*
D02*
G37*
%LPC*%
G36*
X25695000Y40855000D02*
X22805000Y40855000D01*
X22805000Y44045000D01*
X25695000Y44045000D01*
X25695000Y40855000D01*
D02*
G37*
%LPC*%
G36*
X28395000Y38955000D02*
X27605000Y38955000D01*
X27605000Y41045000D01*
X27645000Y41045000D01*
X27645000Y42708483D01*
X27584319Y42753485D01*
X27536670Y42796670D01*
X27493488Y42844316D01*
X27455182Y42895966D01*
X27422123Y42951122D01*
X27394634Y43009243D01*
X27372968Y43069790D01*
X27357345Y43132167D01*
X27347909Y43195774D01*
X27344753Y43260000D01*
X27347909Y43324226D01*
X27357345Y43387833D01*
X27372968Y43450210D01*
X27394634Y43510757D01*
X27422123Y43568878D01*
X27455182Y43624034D01*
X27493488Y43675684D01*
X27536670Y43723330D01*
X27584316Y43766512D01*
X27635966Y43804818D01*
X27691122Y43837877D01*
X27749243Y43865366D01*
X27809790Y43887032D01*
X27872167Y43902655D01*
X27935774Y43912091D01*
X28000000Y43915247D01*
X28064226Y43912091D01*
X28127833Y43902655D01*
X28190210Y43887032D01*
X28250757Y43865366D01*
X28308878Y43837877D01*
X28364034Y43804818D01*
X28415684Y43766512D01*
X28463330Y43723330D01*
X28506512Y43675684D01*
X28544818Y43624034D01*
X28577877Y43568878D01*
X28605366Y43510757D01*
X28627032Y43450210D01*
X28642655Y43387833D01*
X28652091Y43324226D01*
X28655247Y43260000D01*
X28652091Y43195774D01*
X28642655Y43132167D01*
X28627032Y43069790D01*
X28605366Y43009243D01*
X28577877Y42951122D01*
X28544818Y42895966D01*
X28506512Y42844316D01*
X28463330Y42796670D01*
X28415681Y42753485D01*
X28355000Y42708483D01*
X28355000Y41045000D01*
X28395000Y41045000D01*
X28395000Y38955000D01*
D02*
G37*
%LPC*%
G36*
X56180000Y41554753D02*
X56115774Y41557909D01*
X56052167Y41567345D01*
X55989790Y41582968D01*
X55929243Y41604634D01*
X55871122Y41632123D01*
X55815966Y41665182D01*
X55764316Y41703488D01*
X55716670Y41746670D01*
X55673488Y41794316D01*
X55635182Y41845966D01*
X55602123Y41901122D01*
X55574634Y41959243D01*
X55552968Y42019790D01*
X55537345Y42082167D01*
X55527909Y42145774D01*
X55524753Y42210000D01*
X55527909Y42274226D01*
X55537345Y42337833D01*
X55552968Y42400210D01*
X55574634Y42460757D01*
X55602123Y42518878D01*
X55635182Y42574034D01*
X55673488Y42625684D01*
X55716670Y42673330D01*
X55764316Y42716512D01*
X55815966Y42754818D01*
X55871122Y42787877D01*
X55929243Y42815366D01*
X55989790Y42837032D01*
X56052167Y42852655D01*
X56115774Y42862091D01*
X56180000Y42865247D01*
X56244226Y42862091D01*
X56307833Y42852655D01*
X56370210Y42837032D01*
X56430757Y42815366D01*
X56488878Y42787877D01*
X56544034Y42754818D01*
X56595684Y42716512D01*
X56643330Y42673330D01*
X56686515Y42625681D01*
X56731517Y42565000D01*
X57134290Y42565000D01*
X57134290Y42755710D01*
X59015710Y42755710D01*
X59015710Y41664290D01*
X57134290Y41664290D01*
X57134290Y41855000D01*
X56731517Y41855000D01*
X56686515Y41794319D01*
X56643330Y41746670D01*
X56595684Y41703488D01*
X56544034Y41665182D01*
X56488878Y41632123D01*
X56430757Y41604634D01*
X56370210Y41582968D01*
X56307833Y41567345D01*
X56244226Y41557909D01*
X56180000Y41554753D01*
D02*
G37*
%LPC*%
G36*
X30000000Y37624753D02*
X29935774Y37627909D01*
X29872167Y37637345D01*
X29809790Y37652968D01*
X29749243Y37674634D01*
X29691122Y37702123D01*
X29635966Y37735182D01*
X29584316Y37773488D01*
X29536670Y37816670D01*
X29493488Y37864316D01*
X29455182Y37915966D01*
X29422123Y37971122D01*
X29394634Y38029243D01*
X29372968Y38089790D01*
X29357345Y38152167D01*
X29347909Y38215774D01*
X29344753Y38280000D01*
X29347909Y38344226D01*
X29357345Y38407833D01*
X29372968Y38470210D01*
X29394634Y38530757D01*
X29422123Y38588878D01*
X29455182Y38644034D01*
X29493488Y38695684D01*
X29536670Y38743329D01*
X29595000Y38796195D01*
X29595000Y41203805D01*
X29536670Y41256671D01*
X29493488Y41304316D01*
X29455182Y41355966D01*
X29422123Y41411122D01*
X29394634Y41469243D01*
X29372968Y41529790D01*
X29357345Y41592167D01*
X29347909Y41655774D01*
X29344753Y41720000D01*
X29347909Y41784226D01*
X29357345Y41847833D01*
X29372968Y41910210D01*
X29394634Y41970757D01*
X29422123Y42028878D01*
X29455182Y42084034D01*
X29493488Y42135684D01*
X29536670Y42183330D01*
X29584316Y42226512D01*
X29635966Y42264818D01*
X29691122Y42297877D01*
X29749243Y42325366D01*
X29809790Y42347032D01*
X29872167Y42362655D01*
X29935774Y42372091D01*
X30000000Y42375247D01*
X30064226Y42372091D01*
X30127833Y42362655D01*
X30190210Y42347032D01*
X30250757Y42325366D01*
X30308878Y42297877D01*
X30364034Y42264818D01*
X30415684Y42226512D01*
X30463330Y42183330D01*
X30506512Y42135684D01*
X30544818Y42084034D01*
X30577877Y42028878D01*
X30605366Y41970757D01*
X30627032Y41910210D01*
X30642655Y41847833D01*
X30652091Y41784226D01*
X30655247Y41720000D01*
X30652091Y41655774D01*
X30642655Y41592167D01*
X30627032Y41529790D01*
X30605366Y41469243D01*
X30577877Y41411122D01*
X30544818Y41355966D01*
X30506512Y41304316D01*
X30463330Y41256671D01*
X30405000Y41203805D01*
X30405000Y38796195D01*
X30463330Y38743329D01*
X30506512Y38695684D01*
X30544818Y38644034D01*
X30577877Y38588878D01*
X30605366Y38530757D01*
X30627032Y38470210D01*
X30642655Y38407833D01*
X30652091Y38344226D01*
X30655247Y38280000D01*
X30652091Y38215774D01*
X30642655Y38152167D01*
X30627032Y38089790D01*
X30605366Y38029243D01*
X30577877Y37971122D01*
X30544818Y37915966D01*
X30506512Y37864316D01*
X30463330Y37816670D01*
X30415684Y37773488D01*
X30364034Y37735182D01*
X30308878Y37702123D01*
X30250757Y37674634D01*
X30190210Y37652968D01*
X30127833Y37637345D01*
X30064226Y37627909D01*
X30000000Y37624753D01*
D02*
G37*
%LPC*%
G36*
X32000000Y37624753D02*
X31935774Y37627909D01*
X31872167Y37637345D01*
X31809790Y37652968D01*
X31749243Y37674634D01*
X31691122Y37702123D01*
X31635966Y37735182D01*
X31584316Y37773488D01*
X31536670Y37816670D01*
X31493488Y37864316D01*
X31455182Y37915966D01*
X31422123Y37971122D01*
X31394634Y38029243D01*
X31372968Y38089790D01*
X31357345Y38152167D01*
X31347909Y38215774D01*
X31344753Y38280000D01*
X31347909Y38344226D01*
X31357345Y38407833D01*
X31372968Y38470210D01*
X31394634Y38530757D01*
X31422123Y38588878D01*
X31455182Y38644034D01*
X31493488Y38695684D01*
X31536670Y38743329D01*
X31595000Y38796195D01*
X31595000Y41203805D01*
X31536670Y41256671D01*
X31493488Y41304316D01*
X31455182Y41355966D01*
X31422123Y41411122D01*
X31394634Y41469243D01*
X31372968Y41529790D01*
X31357345Y41592167D01*
X31347909Y41655774D01*
X31344753Y41720000D01*
X31347909Y41784226D01*
X31357345Y41847833D01*
X31372968Y41910210D01*
X31394634Y41970757D01*
X31422123Y42028878D01*
X31455182Y42084034D01*
X31493488Y42135684D01*
X31536670Y42183330D01*
X31584316Y42226512D01*
X31635966Y42264818D01*
X31691122Y42297877D01*
X31749243Y42325366D01*
X31809790Y42347032D01*
X31872167Y42362655D01*
X31935774Y42372091D01*
X32000000Y42375247D01*
X32064226Y42372091D01*
X32127833Y42362655D01*
X32190210Y42347032D01*
X32250757Y42325366D01*
X32308878Y42297877D01*
X32364034Y42264818D01*
X32415684Y42226512D01*
X32463330Y42183330D01*
X32506512Y42135684D01*
X32544818Y42084034D01*
X32577877Y42028878D01*
X32605366Y41970757D01*
X32627032Y41910210D01*
X32642655Y41847833D01*
X32652091Y41784226D01*
X32655247Y41720000D01*
X32652091Y41655774D01*
X32642655Y41592167D01*
X32627032Y41529790D01*
X32605366Y41469243D01*
X32577877Y41411122D01*
X32544818Y41355966D01*
X32506512Y41304316D01*
X32463330Y41256671D01*
X32405000Y41203805D01*
X32405000Y38796195D01*
X32463330Y38743329D01*
X32506512Y38695684D01*
X32544818Y38644034D01*
X32577877Y38588878D01*
X32605366Y38530757D01*
X32627032Y38470210D01*
X32642655Y38407833D01*
X32652091Y38344226D01*
X32655247Y38280000D01*
X32652091Y38215774D01*
X32642655Y38152167D01*
X32627032Y38089790D01*
X32605366Y38029243D01*
X32577877Y37971122D01*
X32544818Y37915966D01*
X32506512Y37864316D01*
X32463330Y37816670D01*
X32415684Y37773488D01*
X32364034Y37735182D01*
X32308878Y37702123D01*
X32250757Y37674634D01*
X32190210Y37652968D01*
X32127833Y37637345D01*
X32064226Y37627909D01*
X32000000Y37624753D01*
D02*
G37*
%LPC*%
G36*
X43115000Y36135000D02*
X42225000Y36135000D01*
X42225000Y37425000D01*
X43115000Y37425000D01*
X43115000Y37085000D01*
X45253665Y37085000D01*
X48045000Y39876335D01*
X48045000Y41695000D01*
X49035000Y41695000D01*
X49035000Y39505000D01*
X48536335Y39505000D01*
X45602241Y36570906D01*
X45595767Y36563137D01*
X45550001Y36525578D01*
X45497098Y36497301D01*
X45439699Y36479887D01*
X45390066Y36475000D01*
X43115000Y36475000D01*
X43115000Y36135000D01*
D02*
G37*
%LPC*%
G36*
X46530000Y40750000D02*
X46190000Y40750000D01*
X46190000Y41690000D01*
X46530000Y41690000D01*
X46530000Y40750000D01*
D02*
G37*
%LPC*%
G36*
X45890000Y40750000D02*
X45550000Y40750000D01*
X45550000Y41690000D01*
X45890000Y41690000D01*
X45890000Y40750000D01*
D02*
G37*
%LPC*%
G36*
X35800000Y37344753D02*
X35735774Y37347909D01*
X35672167Y37357345D01*
X35609790Y37372968D01*
X35549243Y37394634D01*
X35491122Y37422123D01*
X35435966Y37455182D01*
X35384316Y37493488D01*
X35336670Y37536670D01*
X35293488Y37584316D01*
X35255182Y37635966D01*
X35222123Y37691122D01*
X35194634Y37749243D01*
X35172968Y37809790D01*
X35157345Y37872167D01*
X35147909Y37935774D01*
X35144753Y38000000D01*
X35147909Y38064226D01*
X35158995Y38138960D01*
X34756215Y38541738D01*
X34748372Y38548155D01*
X34704003Y38602223D01*
X34671106Y38663770D01*
X34650849Y38730548D01*
X34645000Y38789935D01*
X34645000Y38955000D01*
X34605000Y38955000D01*
X34605000Y41045000D01*
X35395000Y41045000D01*
X35395000Y38907047D01*
X35486537Y38815510D01*
X35661040Y38641005D01*
X35735774Y38652091D01*
X35800000Y38655247D01*
X35864226Y38652091D01*
X35927833Y38642655D01*
X35990210Y38627032D01*
X36050757Y38605366D01*
X36108878Y38577877D01*
X36164034Y38544818D01*
X36215684Y38506512D01*
X36263330Y38463330D01*
X36306512Y38415684D01*
X36344818Y38364034D01*
X36377877Y38308878D01*
X36405366Y38250757D01*
X36427032Y38190210D01*
X36442655Y38127833D01*
X36452091Y38064226D01*
X36455247Y38000000D01*
X36452091Y37935774D01*
X36442655Y37872167D01*
X36427032Y37809790D01*
X36405366Y37749243D01*
X36377877Y37691122D01*
X36344818Y37635966D01*
X36306512Y37584316D01*
X36263330Y37536670D01*
X36215684Y37493488D01*
X36164034Y37455182D01*
X36108878Y37422123D01*
X36050757Y37394634D01*
X35990210Y37372968D01*
X35927833Y37357345D01*
X35864226Y37347909D01*
X35800000Y37344753D01*
D02*
G37*
%LPC*%
G36*
X28850000Y40150000D02*
X28610000Y40150000D01*
X28610000Y41040000D01*
X28850000Y41040000D01*
X28850000Y40150000D01*
D02*
G37*
%LPC*%
G36*
X26850000Y40150000D02*
X26610000Y40150000D01*
X26610000Y41040000D01*
X26850000Y41040000D01*
X26850000Y40150000D01*
D02*
G37*
%LPC*%
G36*
X27390000Y40150000D02*
X27150000Y40150000D01*
X27150000Y41040000D01*
X27390000Y41040000D01*
X27390000Y40150000D01*
D02*
G37*
%LPC*%
G36*
X29390000Y40150000D02*
X29150000Y40150000D01*
X29150000Y41040000D01*
X29390000Y41040000D01*
X29390000Y40150000D01*
D02*
G37*
%LPC*%
G36*
X30850000Y40150000D02*
X30610000Y40150000D01*
X30610000Y41040000D01*
X30850000Y41040000D01*
X30850000Y40150000D01*
D02*
G37*
%LPC*%
G36*
X31390000Y40150000D02*
X31150000Y40150000D01*
X31150000Y41040000D01*
X31390000Y41040000D01*
X31390000Y40150000D01*
D02*
G37*
%LPC*%
G36*
X32850000Y40150000D02*
X32610000Y40150000D01*
X32610000Y41040000D01*
X32850000Y41040000D01*
X32850000Y40150000D01*
D02*
G37*
%LPC*%
G36*
X33850000Y40150000D02*
X33610000Y40150000D01*
X33610000Y41040000D01*
X33850000Y41040000D01*
X33850000Y40150000D01*
D02*
G37*
%LPC*%
G36*
X34390000Y40150000D02*
X34150000Y40150000D01*
X34150000Y41040000D01*
X34390000Y41040000D01*
X34390000Y40150000D01*
D02*
G37*
%LPC*%
G36*
X35850000Y40150000D02*
X35610000Y40150000D01*
X35610000Y41040000D01*
X35850000Y41040000D01*
X35850000Y40150000D01*
D02*
G37*
%LPC*%
G36*
X36390000Y40150000D02*
X36150000Y40150000D01*
X36150000Y41040000D01*
X36390000Y41040000D01*
X36390000Y40150000D01*
D02*
G37*
%LPC*%
G36*
X33390000Y40150000D02*
X33150000Y40150000D01*
X33150000Y41040000D01*
X33390000Y41040000D01*
X33390000Y40150000D01*
D02*
G37*
%LPC*%
G36*
X46530000Y39510000D02*
X46190000Y39510000D01*
X46190000Y40450000D01*
X46530000Y40450000D01*
X46530000Y39510000D01*
D02*
G37*
%LPC*%
G36*
X45890000Y39510000D02*
X45550000Y39510000D01*
X45550000Y40450000D01*
X45890000Y40450000D01*
X45890000Y39510000D01*
D02*
G37*
%LPC*%
G36*
X7270000Y27154645D02*
X7177339Y27159197D01*
X7085565Y27172811D01*
X6995578Y27195351D01*
X6908229Y27226606D01*
X6824356Y27266275D01*
X6744794Y27313962D01*
X6670274Y27369231D01*
X6601533Y27431533D01*
X6539231Y27500274D01*
X6483962Y27574794D01*
X6436275Y27654356D01*
X6396606Y27738229D01*
X6365351Y27825578D01*
X6342811Y27915565D01*
X6329197Y28007339D01*
X6324645Y28099999D01*
X6328848Y28185555D01*
X4815554Y29698848D01*
X4729999Y29694645D01*
X4637339Y29699197D01*
X4545565Y29712811D01*
X4455578Y29735351D01*
X4368229Y29766606D01*
X4284356Y29806275D01*
X4204794Y29853962D01*
X4130274Y29909231D01*
X4061533Y29971533D01*
X3999231Y30040274D01*
X3943962Y30114794D01*
X3896275Y30194356D01*
X3856606Y30278229D01*
X3825351Y30365578D01*
X3802811Y30455565D01*
X3789197Y30547339D01*
X3784645Y30640000D01*
X3789197Y30732661D01*
X3802811Y30824435D01*
X3825351Y30914422D01*
X3856606Y31001771D01*
X3896275Y31085644D01*
X3943962Y31165206D01*
X3999231Y31239726D01*
X4061534Y31308468D01*
X4125000Y31365990D01*
X4125000Y35219401D01*
X3032354Y36312047D01*
X3024513Y36318463D01*
X2949054Y36410410D01*
X2893054Y36515178D01*
X2858569Y36628858D01*
X2847917Y36737018D01*
X2847917Y38123177D01*
X2726308Y38213368D01*
X2643029Y38288849D01*
X2567548Y38372128D01*
X2500591Y38462409D01*
X2442800Y38558827D01*
X2394745Y38660432D01*
X2356881Y38766256D01*
X2329571Y38875284D01*
X2313077Y38986473D01*
X2307562Y39098737D01*
X2313077Y39211001D01*
X2329571Y39322190D01*
X2356881Y39431218D01*
X2394745Y39537042D01*
X2442800Y39638647D01*
X2500591Y39735065D01*
X2567548Y39825346D01*
X2643029Y39908625D01*
X2726308Y39984106D01*
X2816589Y40051063D01*
X2913007Y40108854D01*
X3014612Y40156909D01*
X3120436Y40194773D01*
X3229464Y40222083D01*
X3340653Y40238577D01*
X3452917Y40244092D01*
X3565181Y40238577D01*
X3676370Y40222083D01*
X3785398Y40194773D01*
X3891222Y40156909D01*
X3992827Y40108854D01*
X4089245Y40051063D01*
X4179526Y39984106D01*
X4262805Y39908625D01*
X4338286Y39825346D01*
X4405243Y39735065D01*
X4463034Y39638647D01*
X4511089Y39537042D01*
X4548953Y39431218D01*
X4576263Y39322190D01*
X4592757Y39211002D01*
X4596057Y39143830D01*
X4598272Y39098737D01*
X4592757Y38986473D01*
X4576263Y38875284D01*
X4548953Y38766256D01*
X4511089Y38660432D01*
X4463034Y38558827D01*
X4405243Y38462409D01*
X4338286Y38372128D01*
X4262805Y38288849D01*
X4179526Y38213368D01*
X4057917Y38123177D01*
X4057917Y36997682D01*
X5164920Y35890677D01*
X5233864Y35806669D01*
X5289861Y35701905D01*
X5324349Y35588220D01*
X5335000Y35480076D01*
X5335000Y31365990D01*
X5398466Y31308468D01*
X5460769Y31239726D01*
X5516038Y31165206D01*
X5563725Y31085644D01*
X5603394Y31001771D01*
X5634649Y30914422D01*
X5657189Y30824435D01*
X5670803Y30732661D01*
X5675355Y30640000D01*
X5671152Y30554446D01*
X7184445Y29041152D01*
X7270001Y29045355D01*
X7362661Y29040803D01*
X7454435Y29027189D01*
X7544422Y29004649D01*
X7631771Y28973394D01*
X7715644Y28933725D01*
X7795206Y28886038D01*
X7869726Y28830769D01*
X7938467Y28768467D01*
X8000769Y28699726D01*
X8056038Y28625206D01*
X8103725Y28545644D01*
X8143394Y28461771D01*
X8174649Y28374422D01*
X8197189Y28284435D01*
X8210803Y28192661D01*
X8215355Y28100000D01*
X8210803Y28007339D01*
X8197189Y27915565D01*
X8174649Y27825578D01*
X8143394Y27738229D01*
X8103725Y27654356D01*
X8056038Y27574794D01*
X8000769Y27500274D01*
X7938467Y27431533D01*
X7869726Y27369231D01*
X7795206Y27313962D01*
X7715644Y27266275D01*
X7631771Y27226606D01*
X7544422Y27195351D01*
X7454435Y27172811D01*
X7362661Y27159197D01*
X7270000Y27154645D01*
D02*
G37*
%LPC*%
G36*
X34030000Y36015000D02*
X32090000Y36015000D01*
X32090000Y36205000D01*
X31209935Y36205000D01*
X31160301Y36209887D01*
X31102901Y36227301D01*
X31050001Y36255576D01*
X31003509Y36293732D01*
X30997095Y36301570D01*
X30503665Y36795000D01*
X13341589Y36795000D01*
X13291955Y36799887D01*
X13234555Y36817301D01*
X13181655Y36845576D01*
X13135163Y36883732D01*
X13128749Y36891570D01*
X11919218Y38101103D01*
X11791221Y38040565D01*
X11685398Y38002701D01*
X11576370Y37975391D01*
X11465181Y37958897D01*
X11352917Y37953382D01*
X11240653Y37958897D01*
X11129464Y37975391D01*
X11020436Y38002701D01*
X10914612Y38040565D01*
X10813007Y38088620D01*
X10716589Y38146411D01*
X10626308Y38213368D01*
X10543029Y38288849D01*
X10467548Y38372128D01*
X10400591Y38462409D01*
X10342800Y38558827D01*
X10294745Y38660432D01*
X10256881Y38766256D01*
X10229571Y38875284D01*
X10213077Y38986473D01*
X10207562Y39098737D01*
X10213077Y39211001D01*
X10229571Y39322190D01*
X10256881Y39431218D01*
X10294745Y39537042D01*
X10342800Y39638647D01*
X10400591Y39735065D01*
X10467548Y39825346D01*
X10543029Y39908625D01*
X10626308Y39984106D01*
X10716589Y40051063D01*
X10813007Y40108854D01*
X10914612Y40156909D01*
X11020436Y40194773D01*
X11129464Y40222083D01*
X11240653Y40238577D01*
X11352917Y40244092D01*
X11465181Y40238577D01*
X11576370Y40222083D01*
X11685398Y40194773D01*
X11791222Y40156909D01*
X11892827Y40108854D01*
X11989245Y40051063D01*
X12079526Y39984106D01*
X12162805Y39908625D01*
X12238286Y39825346D01*
X12305243Y39735065D01*
X12363034Y39638647D01*
X12411089Y39537042D01*
X12448953Y39431218D01*
X12476263Y39322190D01*
X12492757Y39211002D01*
X12496057Y39143830D01*
X12498272Y39098737D01*
X12492757Y38986473D01*
X12476263Y38875284D01*
X12448953Y38766256D01*
X12411090Y38660436D01*
X12350553Y38532436D01*
X13477989Y37405000D01*
X30640075Y37405000D01*
X30689703Y37400110D01*
X30747097Y37382699D01*
X30800002Y37354421D01*
X30838542Y37322792D01*
X31346335Y36815000D01*
X32090000Y36815000D01*
X32090000Y37005000D01*
X34030000Y37005000D01*
X34030000Y36015000D01*
D02*
G37*
%LPC*%
G36*
X5802917Y39248737D02*
X4813620Y39248737D01*
X4824661Y39323167D01*
X4852090Y39432671D01*
X4890120Y39538958D01*
X4938388Y39641015D01*
X4996428Y39737845D01*
X5063673Y39828515D01*
X5139489Y39912165D01*
X5223139Y39987981D01*
X5313809Y40055226D01*
X5410639Y40113266D01*
X5512696Y40161534D01*
X5618983Y40199564D01*
X5728487Y40226993D01*
X5802917Y40238034D01*
X5802917Y39248737D01*
D02*
G37*
%LPC*%
G36*
X14992214Y39248737D02*
X14002917Y39248737D01*
X14002917Y40238034D01*
X14077347Y40226993D01*
X14186851Y40199564D01*
X14293138Y40161534D01*
X14395195Y40113266D01*
X14492025Y40055226D01*
X14582695Y39987981D01*
X14666345Y39912165D01*
X14742161Y39828515D01*
X14809406Y39737845D01*
X14867446Y39641015D01*
X14915714Y39538958D01*
X14953744Y39432671D01*
X14981173Y39323167D01*
X14992214Y39248737D01*
D02*
G37*
%LPC*%
G36*
X13702917Y39248737D02*
X12713620Y39248737D01*
X12724661Y39323167D01*
X12752090Y39432671D01*
X12790120Y39538958D01*
X12838388Y39641015D01*
X12896428Y39737845D01*
X12963673Y39828515D01*
X13039489Y39912165D01*
X13123139Y39987981D01*
X13213809Y40055226D01*
X13310639Y40113266D01*
X13412696Y40161534D01*
X13518983Y40199564D01*
X13628487Y40226993D01*
X13702917Y40238034D01*
X13702917Y39248737D01*
D02*
G37*
%LPC*%
G36*
X7092214Y39248737D02*
X6102917Y39248737D01*
X6102917Y40238034D01*
X6177347Y40226993D01*
X6286851Y40199564D01*
X6393138Y40161534D01*
X6495195Y40113266D01*
X6592025Y40055226D01*
X6682695Y39987981D01*
X6766345Y39912165D01*
X6842161Y39828515D01*
X6909406Y39737845D01*
X6967446Y39641015D01*
X7015714Y39538958D01*
X7053744Y39432671D01*
X7081173Y39323167D01*
X7092214Y39248737D01*
D02*
G37*
%LPC*%
G36*
X59572474Y24384289D02*
X57587526Y24384289D01*
X57587526Y27515709D01*
X59033662Y27515709D01*
X60267500Y28749547D01*
X60267500Y36975453D01*
X58118664Y39124290D01*
X57134290Y39124290D01*
X57134290Y40215710D01*
X59015710Y40215710D01*
X59015710Y39231336D01*
X60880648Y37366397D01*
X60918496Y37320276D01*
X60951393Y37258729D01*
X60971651Y37191951D01*
X60977500Y37132577D01*
X60977500Y28592423D01*
X60971651Y28533048D01*
X60951393Y28466270D01*
X60918496Y28404722D01*
X60874720Y28351377D01*
X60866948Y28344901D01*
X59572474Y27050427D01*
X59572474Y24384289D01*
D02*
G37*
%LPC*%
G36*
X47300000Y31844753D02*
X47235774Y31847909D01*
X47172167Y31857345D01*
X47109790Y31872968D01*
X47049243Y31894634D01*
X46991122Y31922123D01*
X46935966Y31955182D01*
X46884316Y31993488D01*
X46836670Y32036670D01*
X46793488Y32084316D01*
X46755182Y32135966D01*
X46722123Y32191122D01*
X46694634Y32249243D01*
X46672968Y32309790D01*
X46657345Y32372167D01*
X46647909Y32435774D01*
X46644753Y32500000D01*
X46647909Y32564226D01*
X46657345Y32627833D01*
X46672968Y32690210D01*
X46694634Y32750757D01*
X46722123Y32808878D01*
X46755182Y32864034D01*
X46793488Y32915684D01*
X46836670Y32963330D01*
X46884316Y33006512D01*
X46935966Y33044818D01*
X46991122Y33077877D01*
X47049243Y33105366D01*
X47109790Y33127032D01*
X47172167Y33142655D01*
X47235774Y33152091D01*
X47300000Y33155247D01*
X47364226Y33152091D01*
X47438960Y33141005D01*
X48045000Y33747047D01*
X48045000Y35395000D01*
X48185000Y35395000D01*
X48185000Y37295066D01*
X48190849Y37354451D01*
X48211106Y37421229D01*
X48244003Y37482777D01*
X48287779Y37536122D01*
X48295551Y37542598D01*
X49984290Y39231336D01*
X49984290Y40215710D01*
X51865710Y40215710D01*
X51865710Y39124290D01*
X50881336Y39124290D01*
X48895000Y37137953D01*
X48895000Y35395000D01*
X49035000Y35395000D01*
X49035000Y33205000D01*
X48507047Y33205000D01*
X47941005Y32638960D01*
X47952091Y32564226D01*
X47955247Y32500000D01*
X47952091Y32435774D01*
X47942655Y32372167D01*
X47927032Y32309790D01*
X47905366Y32249243D01*
X47877877Y32191122D01*
X47844818Y32135966D01*
X47806512Y32084316D01*
X47763330Y32036670D01*
X47715684Y31993488D01*
X47664034Y31955182D01*
X47608878Y31922123D01*
X47550757Y31894634D01*
X47490210Y31872968D01*
X47427833Y31857345D01*
X47364226Y31847909D01*
X47300000Y31844753D01*
D02*
G37*
%LPC*%
G36*
X36390000Y38960000D02*
X36150000Y38960000D01*
X36150000Y39850000D01*
X36390000Y39850000D01*
X36390000Y38960000D01*
D02*
G37*
%LPC*%
G36*
X29390000Y38960000D02*
X29150000Y38960000D01*
X29150000Y39850000D01*
X29390000Y39850000D01*
X29390000Y38960000D01*
D02*
G37*
%LPC*%
G36*
X30850000Y38960000D02*
X30610000Y38960000D01*
X30610000Y39850000D01*
X30850000Y39850000D01*
X30850000Y38960000D01*
D02*
G37*
%LPC*%
G36*
X31390000Y38960000D02*
X31150000Y38960000D01*
X31150000Y39850000D01*
X31390000Y39850000D01*
X31390000Y38960000D01*
D02*
G37*
%LPC*%
G36*
X32850000Y38960000D02*
X32610000Y38960000D01*
X32610000Y39850000D01*
X32850000Y39850000D01*
X32850000Y38960000D01*
D02*
G37*
%LPC*%
G36*
X33390000Y38960000D02*
X33150000Y38960000D01*
X33150000Y39850000D01*
X33390000Y39850000D01*
X33390000Y38960000D01*
D02*
G37*
%LPC*%
G36*
X33850000Y38960000D02*
X33610000Y38960000D01*
X33610000Y39850000D01*
X33850000Y39850000D01*
X33850000Y38960000D01*
D02*
G37*
%LPC*%
G36*
X34390000Y38960000D02*
X34150000Y38960000D01*
X34150000Y39850000D01*
X34390000Y39850000D01*
X34390000Y38960000D01*
D02*
G37*
%LPC*%
G36*
X35850000Y38960000D02*
X35610000Y38960000D01*
X35610000Y39850000D01*
X35850000Y39850000D01*
X35850000Y38960000D01*
D02*
G37*
%LPC*%
G36*
X26850000Y38960000D02*
X26610000Y38960000D01*
X26610000Y39850000D01*
X26850000Y39850000D01*
X26850000Y38960000D01*
D02*
G37*
%LPC*%
G36*
X28850000Y38960000D02*
X28610000Y38960000D01*
X28610000Y39850000D01*
X28850000Y39850000D01*
X28850000Y38960000D01*
D02*
G37*
%LPC*%
G36*
X27390000Y38960000D02*
X27150000Y38960000D01*
X27150000Y39850000D01*
X27390000Y39850000D01*
X27390000Y38960000D01*
D02*
G37*
%LPC*%
G36*
X6102917Y37959440D02*
X6102917Y38948737D01*
X7092214Y38948737D01*
X7081173Y38874307D01*
X7053744Y38764803D01*
X7015714Y38658516D01*
X6967446Y38556459D01*
X6909406Y38459629D01*
X6842161Y38368959D01*
X6766345Y38285309D01*
X6682695Y38209493D01*
X6592025Y38142248D01*
X6495195Y38084208D01*
X6393138Y38035940D01*
X6286851Y37997910D01*
X6177347Y37970481D01*
X6102917Y37959440D01*
D02*
G37*
%LPC*%
G36*
X5802917Y37959440D02*
X5728487Y37970481D01*
X5618983Y37997910D01*
X5512696Y38035940D01*
X5410639Y38084208D01*
X5313809Y38142248D01*
X5223139Y38209493D01*
X5139489Y38285309D01*
X5063673Y38368959D01*
X4996428Y38459629D01*
X4938388Y38556459D01*
X4890120Y38658516D01*
X4852090Y38764803D01*
X4824661Y38874307D01*
X4813620Y38948737D01*
X5802917Y38948737D01*
X5802917Y37959440D01*
D02*
G37*
%LPC*%
G36*
X13702917Y37959440D02*
X13628487Y37970481D01*
X13518983Y37997910D01*
X13412696Y38035940D01*
X13310639Y38084208D01*
X13213809Y38142248D01*
X13123139Y38209493D01*
X13039489Y38285309D01*
X12963673Y38368959D01*
X12896428Y38459629D01*
X12838388Y38556459D01*
X12790120Y38658516D01*
X12752090Y38764803D01*
X12724661Y38874307D01*
X12713620Y38948737D01*
X13702917Y38948737D01*
X13702917Y37959440D01*
D02*
G37*
%LPC*%
G36*
X14002917Y37959440D02*
X14002917Y38948737D01*
X14992214Y38948737D01*
X14981173Y38874307D01*
X14953744Y38764803D01*
X14915714Y38658516D01*
X14867446Y38556459D01*
X14809406Y38459629D01*
X14742161Y38368959D01*
X14666345Y38285309D01*
X14582695Y38209493D01*
X14492025Y38142248D01*
X14395195Y38084208D01*
X14293138Y38035940D01*
X14186851Y37997910D01*
X14077347Y37970481D01*
X14002917Y37959440D01*
D02*
G37*
%LPC*%
G36*
X51865710Y36584290D02*
X49984290Y36584290D01*
X49984290Y37675710D01*
X51865710Y37675710D01*
X51865710Y37485000D01*
X57134290Y37485000D01*
X57134290Y37675710D01*
X59015710Y37675710D01*
X59015710Y36584290D01*
X57134290Y36584290D01*
X57134290Y36775000D01*
X51865710Y36775000D01*
X51865710Y36584290D01*
D02*
G37*
%LPC*%
G36*
X39370000Y36015000D02*
X37430000Y36015000D01*
X37430000Y37005000D01*
X39370000Y37005000D01*
X39370000Y36815000D01*
X40725000Y36815000D01*
X40725000Y37425000D01*
X41615000Y37425000D01*
X41615000Y36135000D01*
X40725000Y36135000D01*
X40725000Y36205000D01*
X39370000Y36205000D01*
X39370000Y36015000D01*
D02*
G37*
%LPC*%
G36*
X9960000Y32954645D02*
X9847736Y32960160D01*
X9736547Y32976654D01*
X9627519Y33003964D01*
X9521695Y33041828D01*
X9420090Y33089883D01*
X9323672Y33147674D01*
X9233391Y33214631D01*
X9150112Y33290112D01*
X9074631Y33373391D01*
X9007674Y33463672D01*
X8949883Y33560090D01*
X8901828Y33661695D01*
X8863964Y33767519D01*
X8836654Y33876547D01*
X8820160Y33987736D01*
X8814645Y34100000D01*
X8820160Y34212264D01*
X8836654Y34323453D01*
X8863964Y34432481D01*
X8901828Y34538305D01*
X8949883Y34639910D01*
X9007674Y34736328D01*
X9074631Y34826609D01*
X9150112Y34909888D01*
X9233391Y34985369D01*
X9323672Y35052326D01*
X9420090Y35110117D01*
X9521695Y35158172D01*
X9627519Y35196036D01*
X9736547Y35223346D01*
X9847736Y35239840D01*
X9960000Y35245355D01*
X10072264Y35239840D01*
X10183453Y35223346D01*
X10292481Y35196036D01*
X10398304Y35158172D01*
X10526301Y35097634D01*
X11737758Y36309093D01*
X11744232Y36316862D01*
X11789998Y36354421D01*
X11842900Y36382698D01*
X11900300Y36400112D01*
X11949923Y36405000D01*
X30010075Y36405000D01*
X30059703Y36400110D01*
X30117097Y36382699D01*
X30170002Y36354421D01*
X30208542Y36322792D01*
X31966537Y34564798D01*
X32076335Y34455000D01*
X34030000Y34455000D01*
X34030000Y33465000D01*
X32090000Y33465000D01*
X32090000Y33656948D01*
X32022900Y33677301D01*
X31970001Y33705576D01*
X31923509Y33743732D01*
X31917095Y33751570D01*
X29873665Y35795000D01*
X12086335Y35795000D01*
X10957636Y34666301D01*
X11018173Y34538301D01*
X11056036Y34432481D01*
X11083346Y34323453D01*
X11099840Y34212264D01*
X11105355Y34100000D01*
X11099840Y33987736D01*
X11083346Y33876547D01*
X11056036Y33767519D01*
X11018172Y33661695D01*
X10970117Y33560090D01*
X10912326Y33463672D01*
X10845369Y33373391D01*
X10769888Y33290112D01*
X10686609Y33214631D01*
X10596328Y33147674D01*
X10499910Y33089883D01*
X10398305Y33041828D01*
X10292481Y33003964D01*
X10183453Y32976654D01*
X10072264Y32960160D01*
X9960000Y32954645D01*
D02*
G37*
%LPC*%
G36*
X41615000Y34305000D02*
X40725000Y34305000D01*
X40725000Y34935000D01*
X39370000Y34935000D01*
X39370000Y34745000D01*
X37430000Y34745000D01*
X37430000Y35735000D01*
X39370000Y35735000D01*
X39370000Y35545000D01*
X40725000Y35545000D01*
X40725000Y35595000D01*
X41615000Y35595000D01*
X41615000Y34305000D01*
D02*
G37*
%LPC*%
G36*
X35200000Y29555000D02*
X34060000Y29555000D01*
X34060000Y31245000D01*
X34590000Y31245000D01*
X34590000Y34148665D01*
X33993665Y34745000D01*
X32090000Y34745000D01*
X32090000Y35735000D01*
X34030000Y35735000D01*
X34030000Y35531837D01*
X34100003Y35494420D01*
X34138542Y35462792D01*
X35117792Y34483542D01*
X35149421Y34445002D01*
X35177699Y34392097D01*
X35195110Y34334703D01*
X35200000Y34285075D01*
X35200000Y29555000D01*
D02*
G37*
%LPC*%
G36*
X56855000Y29099000D02*
X41045000Y29099000D01*
X41045000Y31300000D01*
X49545000Y31300000D01*
X49545000Y35655000D01*
X52355000Y35655000D01*
X52355000Y31300000D01*
X54845000Y31300000D01*
X54845000Y32755000D01*
X56855000Y32755000D01*
X56855000Y29099000D01*
D02*
G37*
%LPD*%
G36*
X56600000Y29354000D02*
X56600000Y32500000D01*
X55100000Y32500000D01*
X55100000Y31045000D01*
X52100000Y31045000D01*
X52100000Y35400000D01*
X49800000Y35400000D01*
X49800000Y31045000D01*
X41300000Y31045000D01*
X41300000Y29354000D01*
X56600000Y29354000D01*
D02*
G37*
%LPC*%
G36*
X43215000Y31555000D02*
X42125000Y31555000D01*
X42125000Y32845000D01*
X42365000Y32845000D01*
X42365000Y34305000D01*
X42225000Y34305000D01*
X42225000Y35595000D01*
X43115000Y35595000D01*
X43115000Y34305000D01*
X42975000Y34305000D01*
X42975000Y32845000D01*
X43215000Y32845000D01*
X43215000Y31555000D01*
D02*
G37*
%LPC*%
G36*
X31455000Y31465000D02*
X29245000Y31465000D01*
X29245000Y31955000D01*
X27455000Y31955000D01*
X27455000Y32055000D01*
X19450000Y32055000D01*
X19450000Y32790000D01*
X17239000Y32790000D01*
X17239000Y35495000D01*
X21760734Y35495000D01*
X21755734Y33755000D01*
X31455000Y33755000D01*
X31455000Y31465000D01*
D02*
G37*
%LPD*%
G36*
X31200000Y31720000D02*
X31200000Y33500000D01*
X21500000Y33500000D01*
X21505000Y35240000D01*
X17494000Y35240000D01*
X17494000Y33045000D01*
X19705000Y33045000D01*
X19705000Y32310000D01*
X27710000Y32310000D01*
X27710000Y32210000D01*
X29500000Y32210000D01*
X29500000Y31720000D01*
X31200000Y31720000D01*
D02*
G37*
%LPC*%
G36*
X45890000Y34450000D02*
X45550000Y34450000D01*
X45550000Y35390000D01*
X45890000Y35390000D01*
X45890000Y34450000D01*
D02*
G37*
%LPC*%
G36*
X46530000Y34450000D02*
X46190000Y34450000D01*
X46190000Y35390000D01*
X46530000Y35390000D01*
X46530000Y34450000D01*
D02*
G37*
%LPC*%
G36*
X16261117Y27345000D02*
X14531117Y27345000D01*
X14531117Y29535000D01*
X14541117Y29535000D01*
X14541117Y33145000D01*
X14531117Y33145000D01*
X14531117Y35335000D01*
X16261117Y35335000D01*
X16261117Y33145000D01*
X16251117Y33145000D01*
X16251117Y29535000D01*
X16261117Y29535000D01*
X16261117Y27345000D01*
D02*
G37*
%LPC*%
G36*
X2190000Y34250000D02*
X1200703Y34250000D01*
X1211744Y34324430D01*
X1239173Y34433934D01*
X1277203Y34540221D01*
X1325471Y34642278D01*
X1383511Y34739108D01*
X1450756Y34829778D01*
X1526572Y34913428D01*
X1610222Y34989244D01*
X1700892Y35056489D01*
X1797722Y35114529D01*
X1899779Y35162797D01*
X2006066Y35200827D01*
X2115570Y35228256D01*
X2190000Y35239297D01*
X2190000Y34250000D01*
D02*
G37*
%LPC*%
G36*
X3479297Y34250000D02*
X2490000Y34250000D01*
X2490000Y35239297D01*
X2564430Y35228256D01*
X2673934Y35200827D01*
X2780221Y35162797D01*
X2882278Y35114529D01*
X2979108Y35056489D01*
X3069778Y34989244D01*
X3153428Y34913428D01*
X3229244Y34829778D01*
X3296489Y34739108D01*
X3354529Y34642278D01*
X3402797Y34540221D01*
X3440827Y34433934D01*
X3468256Y34324430D01*
X3479297Y34250000D01*
D02*
G37*
%LPC*%
G36*
X58075000Y29274753D02*
X57986268Y29279113D01*
X57898388Y29292149D01*
X57812224Y29313731D01*
X57728579Y29343661D01*
X57648263Y29381648D01*
X57572079Y29427310D01*
X57500715Y29480237D01*
X57434894Y29539894D01*
X57375237Y29605715D01*
X57322310Y29677079D01*
X57276648Y29753263D01*
X57238661Y29833579D01*
X57208731Y29917224D01*
X57187149Y30003388D01*
X57174113Y30091268D01*
X57169753Y30180000D01*
X57174113Y30268732D01*
X57187149Y30356612D01*
X57208731Y30442776D01*
X57238661Y30526421D01*
X57276648Y30606737D01*
X57322310Y30682921D01*
X57375237Y30754285D01*
X57434892Y30820104D01*
X57470000Y30851923D01*
X57470000Y31435000D01*
X57430000Y31435000D01*
X57430000Y32225000D01*
X57520000Y32225000D01*
X57520000Y34044290D01*
X57134290Y34044290D01*
X57134290Y35135710D01*
X57970620Y35135710D01*
X58075000Y35145992D01*
X58179379Y35135710D01*
X59015710Y35135710D01*
X59015710Y34044290D01*
X58630000Y34044290D01*
X58630000Y32225000D01*
X58720000Y32225000D01*
X58720000Y31435000D01*
X58680000Y31435000D01*
X58680000Y30851923D01*
X58715108Y30820104D01*
X58774763Y30754285D01*
X58827690Y30682921D01*
X58873352Y30606737D01*
X58911339Y30526421D01*
X58941269Y30442776D01*
X58962851Y30356612D01*
X58975887Y30268732D01*
X58980247Y30180000D01*
X58975887Y30091268D01*
X58962851Y30003388D01*
X58941269Y29917224D01*
X58911339Y29833579D01*
X58873352Y29753263D01*
X58827690Y29677079D01*
X58774763Y29605715D01*
X58715106Y29539894D01*
X58649285Y29480237D01*
X58577921Y29427310D01*
X58501737Y29381648D01*
X58421421Y29343661D01*
X58337776Y29313731D01*
X58251612Y29292149D01*
X58163732Y29279113D01*
X58075000Y29274753D01*
D02*
G37*
%LPC*%
G36*
X36400000Y33254752D02*
X36330883Y33258148D01*
X36262405Y33268307D01*
X36195284Y33285118D01*
X36130114Y33308438D01*
X36067551Y33338027D01*
X36008179Y33373614D01*
X35952599Y33414834D01*
X35901315Y33461315D01*
X35854834Y33512599D01*
X35813614Y33568179D01*
X35778027Y33627551D01*
X35748438Y33690114D01*
X35725118Y33755284D01*
X35708307Y33822405D01*
X35698148Y33890883D01*
X35694752Y33960000D01*
X35698148Y34029117D01*
X35708307Y34097595D01*
X35725118Y34164716D01*
X35748438Y34229886D01*
X35778027Y34292449D01*
X35813614Y34351821D01*
X35854834Y34407401D01*
X35901315Y34458685D01*
X35952599Y34505166D01*
X36008179Y34546386D01*
X36067551Y34581973D01*
X36130114Y34611562D01*
X36195284Y34634882D01*
X36262405Y34651693D01*
X36330883Y34661852D01*
X36400000Y34665248D01*
X36469117Y34661852D01*
X36537595Y34651693D01*
X36604716Y34634882D01*
X36669886Y34611562D01*
X36732449Y34581973D01*
X36791821Y34546386D01*
X36847401Y34505166D01*
X36898685Y34458685D01*
X36938279Y34415000D01*
X37430000Y34415000D01*
X37430000Y34455000D01*
X39370000Y34455000D01*
X39370000Y33465000D01*
X37430000Y33465000D01*
X37430000Y33505000D01*
X36938279Y33505000D01*
X36898685Y33461315D01*
X36847401Y33414834D01*
X36791821Y33373614D01*
X36732449Y33338027D01*
X36669886Y33308438D01*
X36604716Y33285118D01*
X36537595Y33268307D01*
X36469117Y33258148D01*
X36400000Y33254752D01*
D02*
G37*
%LPC*%
G36*
X46530000Y33210000D02*
X46190000Y33210000D01*
X46190000Y34150000D01*
X46530000Y34150000D01*
X46530000Y33210000D01*
D02*
G37*
%LPC*%
G36*
X45890000Y33210000D02*
X45550000Y33210000D01*
X45550000Y34150000D01*
X45890000Y34150000D01*
X45890000Y33210000D01*
D02*
G37*
%LPC*%
G36*
X2490000Y32960703D02*
X2490000Y33950000D01*
X3479297Y33950000D01*
X3468256Y33875570D01*
X3440827Y33766066D01*
X3402797Y33659779D01*
X3354529Y33557722D01*
X3296489Y33460892D01*
X3229244Y33370222D01*
X3153428Y33286572D01*
X3069778Y33210756D01*
X2979108Y33143511D01*
X2882278Y33085471D01*
X2780221Y33037203D01*
X2673934Y32999173D01*
X2564430Y32971744D01*
X2490000Y32960703D01*
D02*
G37*
%LPC*%
G36*
X2190000Y32960703D02*
X2115570Y32971744D01*
X2006066Y32999173D01*
X1899779Y33037203D01*
X1797722Y33085471D01*
X1700892Y33143511D01*
X1610222Y33210756D01*
X1526572Y33286572D01*
X1450756Y33370222D01*
X1383511Y33460892D01*
X1325471Y33557722D01*
X1277203Y33659779D01*
X1239173Y33766066D01*
X1211744Y33875570D01*
X1200703Y33950000D01*
X2190000Y33950000D01*
X2190000Y32960703D01*
D02*
G37*
%LPC*%
G36*
X38400000Y27984753D02*
X38311268Y27989113D01*
X38223388Y28002149D01*
X38137224Y28023731D01*
X38053579Y28053661D01*
X37973263Y28091648D01*
X37897079Y28137310D01*
X37825715Y28190237D01*
X37759894Y28249894D01*
X37700237Y28315715D01*
X37647310Y28387079D01*
X37601648Y28463263D01*
X37563661Y28543579D01*
X37533731Y28627224D01*
X37512149Y28713388D01*
X37499113Y28801268D01*
X37494753Y28890000D01*
X37499113Y28978732D01*
X37512149Y29066612D01*
X37533731Y29152776D01*
X37563661Y29236421D01*
X37601648Y29316737D01*
X37647310Y29392921D01*
X37700237Y29464285D01*
X37759894Y29530106D01*
X37820000Y29584583D01*
X37820000Y30070000D01*
X37805000Y30070000D01*
X37805000Y31310000D01*
X37907500Y31310000D01*
X37907500Y32195000D01*
X37430000Y32195000D01*
X37430000Y33185000D01*
X39370000Y33185000D01*
X39370000Y32195000D01*
X38892500Y32195000D01*
X38892500Y31310000D01*
X38995000Y31310000D01*
X38995000Y30070000D01*
X38980000Y30070000D01*
X38980000Y29584583D01*
X39040106Y29530106D01*
X39099763Y29464285D01*
X39152690Y29392921D01*
X39198352Y29316737D01*
X39236339Y29236421D01*
X39266269Y29152776D01*
X39287851Y29066612D01*
X39300887Y28978732D01*
X39305247Y28890000D01*
X39300887Y28801268D01*
X39287851Y28713388D01*
X39266269Y28627224D01*
X39236339Y28543579D01*
X39198352Y28463263D01*
X39152690Y28387079D01*
X39099763Y28315715D01*
X39040106Y28249894D01*
X38974285Y28190237D01*
X38902921Y28137310D01*
X38826737Y28091648D01*
X38746421Y28053661D01*
X38662776Y28023731D01*
X38576612Y28002149D01*
X38488732Y27989113D01*
X38400000Y27984753D01*
D02*
G37*
%LPC*%
G36*
X32910000Y32840000D02*
X32095000Y32840000D01*
X32095000Y33180000D01*
X32910000Y33180000D01*
X32910000Y32840000D01*
D02*
G37*
%LPC*%
G36*
X34025000Y32840000D02*
X33210000Y32840000D01*
X33210000Y33180000D01*
X34025000Y33180000D01*
X34025000Y32840000D01*
D02*
G37*
%LPC*%
G36*
X41910000Y32350000D02*
X41520000Y32350000D01*
X41520000Y32840000D01*
X41910000Y32840000D01*
X41910000Y32350000D01*
D02*
G37*
%LPC*%
G36*
X41220000Y32350000D02*
X40830000Y32350000D01*
X40830000Y32840000D01*
X41220000Y32840000D01*
X41220000Y32350000D01*
D02*
G37*
%LPC*%
G36*
X32910000Y32200000D02*
X32095000Y32200000D01*
X32095000Y32540000D01*
X32910000Y32540000D01*
X32910000Y32200000D01*
D02*
G37*
%LPC*%
G36*
X34025000Y32200000D02*
X33210000Y32200000D01*
X33210000Y32540000D01*
X34025000Y32540000D01*
X34025000Y32200000D01*
D02*
G37*
%LPC*%
G36*
X19091117Y30245000D02*
X17501117Y30245000D01*
X17501117Y32435000D01*
X19091117Y32435000D01*
X19091117Y31835000D01*
X21700000Y31835000D01*
X21700000Y30845000D01*
X19091117Y30845000D01*
X19091117Y30245000D01*
D02*
G37*
%LPC*%
G36*
X41910000Y31560000D02*
X41520000Y31560000D01*
X41520000Y32050000D01*
X41910000Y32050000D01*
X41910000Y31560000D01*
D02*
G37*
%LPC*%
G36*
X41220000Y31560000D02*
X40830000Y31560000D01*
X40830000Y32050000D01*
X41220000Y32050000D01*
X41220000Y31560000D01*
D02*
G37*
%LPC*%
G36*
X27040000Y30845000D02*
X25100000Y30845000D01*
X25100000Y31835000D01*
X27040000Y31835000D01*
X27040000Y30845000D01*
D02*
G37*
%LPC*%
G36*
X28855000Y31260000D02*
X28390000Y31260000D01*
X28390000Y31700000D01*
X28855000Y31700000D01*
X28855000Y31260000D01*
D02*
G37*
%LPC*%
G36*
X28090000Y31260000D02*
X27625000Y31260000D01*
X27625000Y31700000D01*
X28090000Y31700000D01*
X28090000Y31260000D01*
D02*
G37*
%LPC*%
G36*
X37490000Y30840000D02*
X37050000Y30840000D01*
X37050000Y31305000D01*
X37490000Y31305000D01*
X37490000Y30840000D01*
D02*
G37*
%LPC*%
G36*
X36750000Y30840000D02*
X36310000Y30840000D01*
X36310000Y31305000D01*
X36750000Y31305000D01*
X36750000Y30840000D01*
D02*
G37*
%LPC*%
G36*
X32655000Y30550000D02*
X32240000Y30550000D01*
X32240000Y31240000D01*
X32655000Y31240000D01*
X32655000Y30550000D01*
D02*
G37*
%LPC*%
G36*
X31940000Y30550000D02*
X31525000Y30550000D01*
X31525000Y31240000D01*
X31940000Y31240000D01*
X31940000Y30550000D01*
D02*
G37*
%LPC*%
G36*
X28855000Y30520000D02*
X28390000Y30520000D01*
X28390000Y30960000D01*
X28855000Y30960000D01*
X28855000Y30520000D01*
D02*
G37*
%LPC*%
G36*
X28090000Y30520000D02*
X27625000Y30520000D01*
X27625000Y30960000D01*
X28090000Y30960000D01*
X28090000Y30520000D01*
D02*
G37*
%LPC*%
G36*
X27040000Y29565000D02*
X25100000Y29565000D01*
X25100000Y30555000D01*
X27040000Y30555000D01*
X27040000Y29565000D01*
D02*
G37*
%LPC*%
G36*
X21695000Y30210000D02*
X20880000Y30210000D01*
X20880000Y30550000D01*
X21695000Y30550000D01*
X21695000Y30210000D01*
D02*
G37*
%LPC*%
G36*
X20580000Y30210000D02*
X19765000Y30210000D01*
X19765000Y30550000D01*
X20580000Y30550000D01*
X20580000Y30210000D01*
D02*
G37*
%LPC*%
G36*
X37490000Y30075000D02*
X37050000Y30075000D01*
X37050000Y30540000D01*
X37490000Y30540000D01*
X37490000Y30075000D01*
D02*
G37*
%LPC*%
G36*
X36750000Y30075000D02*
X36310000Y30075000D01*
X36310000Y30540000D01*
X36750000Y30540000D01*
X36750000Y30075000D01*
D02*
G37*
%LPC*%
G36*
X32655000Y29560000D02*
X32240000Y29560000D01*
X32240000Y30250000D01*
X32655000Y30250000D01*
X32655000Y29560000D01*
D02*
G37*
%LPC*%
G36*
X31940000Y29560000D02*
X31525000Y29560000D01*
X31525000Y30250000D01*
X31940000Y30250000D01*
X31940000Y29560000D01*
D02*
G37*
%LPC*%
G36*
X20580000Y29570000D02*
X19765000Y29570000D01*
X19765000Y29910000D01*
X20580000Y29910000D01*
X20580000Y29570000D01*
D02*
G37*
%LPC*%
G36*
X21695000Y29570000D02*
X20880000Y29570000D01*
X20880000Y29910000D01*
X21695000Y29910000D01*
X21695000Y29570000D01*
D02*
G37*
%LPC*%
G36*
X23850000Y20345000D02*
X17239000Y20345000D01*
X17239000Y29695000D01*
X19295000Y29695000D01*
X19295000Y25055000D01*
X23850000Y25055000D01*
X23850000Y20345000D01*
D02*
G37*
%LPD*%
G36*
X23595000Y20600000D02*
X23595000Y24800000D01*
X19040000Y24800000D01*
X19040000Y29440000D01*
X17494000Y29440000D01*
X17494000Y20600000D01*
X23595000Y20600000D01*
D02*
G37*
%LPC*%
G36*
X11275000Y28015000D02*
X9185000Y28015000D01*
X9185000Y29505000D01*
X11275000Y29505000D01*
X11275000Y29215000D01*
X11761721Y29215000D01*
X11801315Y29258685D01*
X11852599Y29305166D01*
X11908179Y29346386D01*
X11967551Y29381973D01*
X12030114Y29411562D01*
X12095284Y29434882D01*
X12162405Y29451693D01*
X12230883Y29461852D01*
X12300000Y29465248D01*
X12369117Y29461852D01*
X12437595Y29451693D01*
X12504716Y29434882D01*
X12569886Y29411562D01*
X12632449Y29381973D01*
X12691821Y29346386D01*
X12747401Y29305166D01*
X12798685Y29258685D01*
X12845166Y29207401D01*
X12886386Y29151821D01*
X12921973Y29092449D01*
X12951562Y29029886D01*
X12974882Y28964716D01*
X12991693Y28897595D01*
X13001852Y28829117D01*
X13005248Y28760000D01*
X13001852Y28690883D01*
X12991693Y28622405D01*
X12974882Y28555284D01*
X12951562Y28490114D01*
X12921973Y28427551D01*
X12886386Y28368179D01*
X12845166Y28312599D01*
X12798685Y28261315D01*
X12747401Y28214834D01*
X12691821Y28173614D01*
X12632449Y28138027D01*
X12569886Y28108438D01*
X12504716Y28085118D01*
X12437595Y28068307D01*
X12369117Y28058148D01*
X12300000Y28054752D01*
X12230883Y28058148D01*
X12162405Y28068307D01*
X12095284Y28085118D01*
X12030114Y28108438D01*
X11967551Y28138027D01*
X11908179Y28173614D01*
X11852599Y28214834D01*
X11801315Y28261315D01*
X11761721Y28305000D01*
X11275000Y28305000D01*
X11275000Y28015000D01*
D02*
G37*
%LPC*%
G36*
X21700000Y28295000D02*
X19760000Y28295000D01*
X19760000Y29285000D01*
X21700000Y29285000D01*
X21700000Y28295000D01*
D02*
G37*
%LPC*%
G36*
X27035000Y28940000D02*
X26220000Y28940000D01*
X26220000Y29280000D01*
X27035000Y29280000D01*
X27035000Y28940000D01*
D02*
G37*
%LPC*%
G36*
X25920000Y28940000D02*
X25105000Y28940000D01*
X25105000Y29280000D01*
X25920000Y29280000D01*
X25920000Y28940000D01*
D02*
G37*
%LPC*%
G36*
X35160000Y27294753D02*
X35071268Y27299113D01*
X34983388Y27312149D01*
X34897224Y27333731D01*
X34813579Y27363661D01*
X34733263Y27401648D01*
X34657079Y27447310D01*
X34585715Y27500237D01*
X34519894Y27559894D01*
X34460233Y27625719D01*
X34408852Y27695000D01*
X33930000Y27695000D01*
X33930000Y27355000D01*
X32790000Y27355000D01*
X32790000Y29045000D01*
X33930000Y29045000D01*
X33930000Y28705000D01*
X34408852Y28705000D01*
X34460233Y28774281D01*
X34519894Y28840106D01*
X34585715Y28899763D01*
X34657079Y28952690D01*
X34733263Y28998352D01*
X34813579Y29036339D01*
X34897224Y29066269D01*
X34983388Y29087851D01*
X35071268Y29100887D01*
X35160000Y29105247D01*
X35248732Y29100887D01*
X35336612Y29087851D01*
X35422776Y29066269D01*
X35506421Y29036339D01*
X35586737Y28998352D01*
X35662921Y28952690D01*
X35734285Y28899763D01*
X35800106Y28840106D01*
X35859763Y28774285D01*
X35912690Y28702921D01*
X35958352Y28626737D01*
X35996339Y28546421D01*
X36026269Y28462776D01*
X36047851Y28376612D01*
X36060887Y28288732D01*
X36065247Y28200000D01*
X36060887Y28111268D01*
X36047851Y28023388D01*
X36026269Y27937224D01*
X35996339Y27853579D01*
X35958352Y27773263D01*
X35912690Y27697079D01*
X35859763Y27625715D01*
X35800106Y27559894D01*
X35734285Y27500237D01*
X35662921Y27447310D01*
X35586737Y27401648D01*
X35506421Y27363661D01*
X35422776Y27333731D01*
X35336612Y27312149D01*
X35248732Y27299113D01*
X35160000Y27294753D01*
D02*
G37*
%LPC*%
G36*
X27035000Y28300000D02*
X26220000Y28300000D01*
X26220000Y28640000D01*
X27035000Y28640000D01*
X27035000Y28300000D01*
D02*
G37*
%LPC*%
G36*
X25920000Y28300000D02*
X25105000Y28300000D01*
X25105000Y28640000D01*
X25920000Y28640000D01*
X25920000Y28300000D01*
D02*
G37*
%LPC*%
G36*
X46800000Y26394753D02*
X46711268Y26399113D01*
X46623388Y26412149D01*
X46537224Y26433731D01*
X46453579Y26463661D01*
X46373263Y26501648D01*
X46297079Y26547310D01*
X46225715Y26600237D01*
X46159894Y26659894D01*
X46100237Y26725715D01*
X46047310Y26797079D01*
X46001648Y26873263D01*
X45963661Y26953579D01*
X45933731Y27037224D01*
X45912149Y27123388D01*
X45899113Y27211268D01*
X45894753Y27300000D01*
X45899113Y27388732D01*
X45912149Y27476612D01*
X45933731Y27562776D01*
X45963661Y27646421D01*
X46001648Y27726737D01*
X46047310Y27802921D01*
X46100237Y27874285D01*
X46159894Y27940106D01*
X46225715Y27999763D01*
X46297079Y28052690D01*
X46373263Y28098352D01*
X46453579Y28136339D01*
X46537224Y28166269D01*
X46623388Y28187851D01*
X46711268Y28200887D01*
X46800000Y28205247D01*
X46888732Y28200887D01*
X46976612Y28187851D01*
X47062776Y28166269D01*
X47146421Y28136339D01*
X47226737Y28098352D01*
X47302921Y28052690D01*
X47374285Y27999763D01*
X47440106Y27940106D01*
X47499763Y27874285D01*
X47552685Y27802928D01*
X47611379Y27705000D01*
X48455000Y27705000D01*
X48455000Y27745000D01*
X49745000Y27745000D01*
X49745000Y26855000D01*
X48455000Y26855000D01*
X48455000Y26895000D01*
X47611379Y26895000D01*
X47552685Y26797072D01*
X47499763Y26725715D01*
X47440106Y26659894D01*
X47374285Y26600237D01*
X47302921Y26547310D01*
X47226737Y26501648D01*
X47146421Y26463661D01*
X47062776Y26433731D01*
X46976612Y26412149D01*
X46888732Y26399113D01*
X46800000Y26394753D01*
D02*
G37*
%LPC*%
G36*
X51940000Y27450000D02*
X51450000Y27450000D01*
X51450000Y27740000D01*
X51940000Y27740000D01*
X51940000Y27450000D01*
D02*
G37*
%LPC*%
G36*
X51150000Y27450000D02*
X50660000Y27450000D01*
X50660000Y27740000D01*
X51150000Y27740000D01*
X51150000Y27450000D01*
D02*
G37*
%LPC*%
G36*
X51995000Y22455000D02*
X50605000Y22455000D01*
X50605000Y23745000D01*
X50945000Y23745000D01*
X50945000Y25355000D01*
X50655000Y25355000D01*
X50655000Y25445000D01*
X49745000Y25445000D01*
X49745000Y25355000D01*
X48455000Y25355000D01*
X48455000Y26245000D01*
X49745000Y26245000D01*
X49745000Y26155000D01*
X50655000Y26155000D01*
X50655000Y26245000D01*
X51945000Y26245000D01*
X51945000Y26155000D01*
X52482953Y26155000D01*
X52655000Y26327047D01*
X52655000Y27715000D01*
X54845000Y27715000D01*
X54845000Y26125000D01*
X53457047Y26125000D01*
X52887598Y25555551D01*
X52881122Y25547779D01*
X52827777Y25504003D01*
X52766229Y25471106D01*
X52699451Y25450849D01*
X52640066Y25445000D01*
X51945000Y25445000D01*
X51945000Y25355000D01*
X51655000Y25355000D01*
X51655000Y23745000D01*
X51995000Y23745000D01*
X51995000Y22455000D01*
D02*
G37*
%LPC*%
G36*
X51940000Y26860000D02*
X51450000Y26860000D01*
X51450000Y27150000D01*
X51940000Y27150000D01*
X51940000Y26860000D01*
D02*
G37*
%LPC*%
G36*
X51150000Y26860000D02*
X50660000Y26860000D01*
X50660000Y27150000D01*
X51150000Y27150000D01*
X51150000Y26860000D01*
D02*
G37*
%LPC*%
G36*
X4730000Y24614645D02*
X4637339Y24619197D01*
X4545565Y24632811D01*
X4455578Y24655351D01*
X4368229Y24686606D01*
X4284356Y24726275D01*
X4204794Y24773962D01*
X4130274Y24829231D01*
X4061533Y24891533D01*
X3999231Y24960274D01*
X3943962Y25034794D01*
X3896275Y25114356D01*
X3856606Y25198229D01*
X3825351Y25285578D01*
X3802811Y25375565D01*
X3789197Y25467339D01*
X3784645Y25560000D01*
X3789197Y25652661D01*
X3802811Y25744435D01*
X3825351Y25834422D01*
X3856606Y25921771D01*
X3896275Y26005644D01*
X3943962Y26085206D01*
X3999231Y26159726D01*
X4061533Y26228467D01*
X4130274Y26290769D01*
X4204794Y26346038D01*
X4284356Y26393725D01*
X4368229Y26433394D01*
X4455578Y26464649D01*
X4545565Y26487189D01*
X4637339Y26500803D01*
X4730000Y26505355D01*
X4822661Y26500803D01*
X4914435Y26487189D01*
X5004422Y26464649D01*
X5091771Y26433394D01*
X5175644Y26393725D01*
X5255206Y26346038D01*
X5329726Y26290769D01*
X5398468Y26228466D01*
X5455990Y26165000D01*
X9185000Y26165000D01*
X9185000Y26305000D01*
X11275000Y26305000D01*
X11275000Y24815000D01*
X9185000Y24815000D01*
X9185000Y24955000D01*
X5455990Y24955000D01*
X5398468Y24891534D01*
X5329726Y24829231D01*
X5255206Y24773962D01*
X5175644Y24726275D01*
X5091771Y24686606D01*
X5004422Y24655351D01*
X4914435Y24632811D01*
X4822661Y24619197D01*
X4730000Y24614645D01*
D02*
G37*
%LPC*%
G36*
X35690000Y24900000D02*
X34850000Y24900000D01*
X34850000Y26190000D01*
X35690000Y26190000D01*
X35690000Y24900000D01*
D02*
G37*
%LPC*%
G36*
X34550000Y24900000D02*
X33710000Y24900000D01*
X33710000Y26190000D01*
X34550000Y26190000D01*
X34550000Y24900000D01*
D02*
G37*
%LPC*%
G36*
X46800000Y23144753D02*
X46711268Y23149113D01*
X46623388Y23162149D01*
X46537224Y23183731D01*
X46453579Y23213661D01*
X46373263Y23251648D01*
X46297079Y23297310D01*
X46225715Y23350237D01*
X46159894Y23409894D01*
X46100237Y23475715D01*
X46047310Y23547079D01*
X46001648Y23623263D01*
X45963661Y23703579D01*
X45933731Y23787224D01*
X45912149Y23873388D01*
X45899113Y23961268D01*
X45894753Y24050000D01*
X45899113Y24138732D01*
X45912149Y24226612D01*
X45933731Y24312776D01*
X45963661Y24396421D01*
X46001648Y24476737D01*
X46047310Y24552921D01*
X46100237Y24624285D01*
X46159894Y24690106D01*
X46225715Y24749763D01*
X46297079Y24802690D01*
X46373263Y24848352D01*
X46453579Y24886339D01*
X46537224Y24916269D01*
X46623388Y24937851D01*
X46711268Y24950887D01*
X46800000Y24955247D01*
X46888732Y24950887D01*
X46976612Y24937851D01*
X47062776Y24916269D01*
X47146421Y24886339D01*
X47226737Y24848352D01*
X47302921Y24802690D01*
X47374285Y24749763D01*
X47440104Y24690108D01*
X47471923Y24655000D01*
X48405000Y24655000D01*
X48405000Y24695000D01*
X49795000Y24695000D01*
X49795000Y23405000D01*
X48405000Y23405000D01*
X48405000Y23445000D01*
X47471923Y23445000D01*
X47440104Y23409892D01*
X47374285Y23350237D01*
X47302921Y23297310D01*
X47226737Y23251648D01*
X47146421Y23213661D01*
X47062776Y23183731D01*
X46976612Y23162149D01*
X46888732Y23149113D01*
X46800000Y23144753D01*
D02*
G37*
%LPC*%
G36*
X53750000Y21704753D02*
X53685774Y21707909D01*
X53622167Y21717345D01*
X53559790Y21732968D01*
X53499243Y21754634D01*
X53441122Y21782123D01*
X53385966Y21815182D01*
X53334316Y21853488D01*
X53286670Y21896670D01*
X53243488Y21944316D01*
X53205182Y21995966D01*
X53172123Y22051122D01*
X53144634Y22109243D01*
X53122968Y22169790D01*
X53107345Y22232167D01*
X53097909Y22295774D01*
X53094753Y22360000D01*
X53097909Y22424226D01*
X53107345Y22487833D01*
X53122968Y22550210D01*
X53144634Y22610757D01*
X53172123Y22668878D01*
X53205182Y22724034D01*
X53243488Y22775684D01*
X53286670Y22823330D01*
X53334319Y22866515D01*
X53395000Y22911517D01*
X53395000Y23225000D01*
X52655000Y23225000D01*
X52655000Y24815000D01*
X54845000Y24815000D01*
X54845000Y23225000D01*
X54105000Y23225000D01*
X54105000Y22911517D01*
X54165681Y22866515D01*
X54213330Y22823330D01*
X54256512Y22775684D01*
X54294818Y22724034D01*
X54327877Y22668878D01*
X54355366Y22610757D01*
X54377032Y22550210D01*
X54392655Y22487833D01*
X54402091Y22424226D01*
X54405247Y22360000D01*
X54402091Y22295774D01*
X54392655Y22232167D01*
X54377032Y22169790D01*
X54355366Y22109243D01*
X54327877Y22051122D01*
X54294818Y21995966D01*
X54256512Y21944316D01*
X54213330Y21896670D01*
X54165684Y21853488D01*
X54114034Y21815182D01*
X54058878Y21782123D01*
X54000757Y21754634D01*
X53940210Y21732968D01*
X53877833Y21717345D01*
X53814226Y21707909D01*
X53750000Y21704753D01*
D02*
G37*
%LPC*%
G36*
X35690000Y23310000D02*
X34850000Y23310000D01*
X34850000Y24600000D01*
X35690000Y24600000D01*
X35690000Y23310000D01*
D02*
G37*
%LPC*%
G36*
X34550000Y23310000D02*
X33710000Y23310000D01*
X33710000Y24600000D01*
X34550000Y24600000D01*
X34550000Y23310000D01*
D02*
G37*
%LPC*%
G36*
X41250000Y23800000D02*
X40760000Y23800000D01*
X40760000Y24340000D01*
X41250000Y24340000D01*
X41250000Y23800000D01*
D02*
G37*
%LPC*%
G36*
X42040000Y23800000D02*
X41550000Y23800000D01*
X41550000Y24340000D01*
X42040000Y24340000D01*
X42040000Y23800000D01*
D02*
G37*
%LPC*%
G36*
X14050000Y22850000D02*
X12535000Y22850000D01*
X12535000Y23690000D01*
X14050000Y23690000D01*
X14050000Y22850000D01*
D02*
G37*
%LPC*%
G36*
X15865000Y22850000D02*
X14350000Y22850000D01*
X14350000Y23690000D01*
X15865000Y23690000D01*
X15865000Y22850000D01*
D02*
G37*
%LPC*%
G36*
X44100000Y23100000D02*
X43635000Y23100000D01*
X43635000Y23540000D01*
X44100000Y23540000D01*
X44100000Y23100000D01*
D02*
G37*
%LPC*%
G36*
X39165000Y23100000D02*
X38700000Y23100000D01*
X38700000Y23540000D01*
X39165000Y23540000D01*
X39165000Y23100000D01*
D02*
G37*
%LPC*%
G36*
X38400000Y23100000D02*
X37935000Y23100000D01*
X37935000Y23540000D01*
X38400000Y23540000D01*
X38400000Y23100000D01*
D02*
G37*
%LPC*%
G36*
X44865000Y23100000D02*
X44400000Y23100000D01*
X44400000Y23540000D01*
X44865000Y23540000D01*
X44865000Y23100000D01*
D02*
G37*
%LPC*%
G36*
X42040000Y22960000D02*
X41550000Y22960000D01*
X41550000Y23500000D01*
X42040000Y23500000D01*
X42040000Y22960000D01*
D02*
G37*
%LPC*%
G36*
X41250000Y22960000D02*
X40760000Y22960000D01*
X40760000Y23500000D01*
X41250000Y23500000D01*
X41250000Y22960000D01*
D02*
G37*
%LPC*%
G36*
X37655000Y19645000D02*
X31145000Y19645000D01*
X31145000Y23055000D01*
X37655000Y23055000D01*
X37655000Y22105000D01*
X39445000Y22105000D01*
X39445000Y22555000D01*
X41270000Y22555000D01*
X41270000Y20345000D01*
X37655000Y20345000D01*
X37655000Y19645000D01*
D02*
G37*
%LPD*%
G36*
X37400000Y19900000D02*
X37400000Y20600000D01*
X41015000Y20600000D01*
X41015000Y22300000D01*
X39700000Y22300000D01*
X39700000Y21850000D01*
X37400000Y21850000D01*
X37400000Y22800000D01*
X31400000Y22800000D01*
X31400000Y19900000D01*
X37400000Y19900000D01*
D02*
G37*
%LPC*%
G36*
X44100000Y22360000D02*
X43635000Y22360000D01*
X43635000Y22800000D01*
X44100000Y22800000D01*
X44100000Y22360000D01*
D02*
G37*
%LPC*%
G36*
X38400000Y22360000D02*
X37935000Y22360000D01*
X37935000Y22800000D01*
X38400000Y22800000D01*
X38400000Y22360000D01*
D02*
G37*
%LPC*%
G36*
X39165000Y22360000D02*
X38700000Y22360000D01*
X38700000Y22800000D01*
X39165000Y22800000D01*
X39165000Y22360000D01*
D02*
G37*
%LPC*%
G36*
X44865000Y22360000D02*
X44400000Y22360000D01*
X44400000Y22800000D01*
X44865000Y22800000D01*
X44865000Y22360000D01*
D02*
G37*
%LPC*%
G36*
X59572474Y19484291D02*
X57587526Y19484291D01*
X57587526Y20695001D01*
X52619934Y20695001D01*
X52560547Y20700850D01*
X52493769Y20721107D01*
X52432222Y20754004D01*
X52378154Y20798373D01*
X52371737Y20806216D01*
X51672953Y21505000D01*
X49455000Y21505000D01*
X49455000Y20865000D01*
X49545000Y20865000D01*
X49545000Y19575000D01*
X48655000Y19575000D01*
X48655000Y20865000D01*
X48745000Y20865000D01*
X48745000Y21505000D01*
X48405000Y21505000D01*
X48405000Y22795000D01*
X49795000Y22795000D01*
X49795000Y22215000D01*
X51830077Y22215000D01*
X51889451Y22209151D01*
X51956229Y22188893D01*
X52017776Y22155996D01*
X52063897Y22118148D01*
X52777046Y21405001D01*
X57587526Y21405001D01*
X57587526Y22615711D01*
X59572474Y22615711D01*
X59572474Y19484291D01*
D02*
G37*
%LPC*%
G36*
X47555000Y20045000D02*
X45145000Y20045000D01*
X45145000Y20345000D01*
X41525000Y20345000D01*
X41525000Y22555000D01*
X43355000Y22555000D01*
X43355000Y22105000D01*
X45145000Y22105000D01*
X45145000Y22755000D01*
X47555000Y22755000D01*
X47555000Y20045000D01*
D02*
G37*
%LPD*%
G36*
X47300000Y20300000D02*
X47300000Y22500000D01*
X45400000Y22500000D01*
X45400000Y21850000D01*
X43100000Y21850000D01*
X43100000Y22300000D01*
X41780000Y22300000D01*
X41780000Y20600000D01*
X45400000Y20600000D01*
X45400000Y20300000D01*
X47300000Y20300000D01*
D02*
G37*
%LPC*%
G36*
X14050000Y21710000D02*
X12535000Y21710000D01*
X12535000Y22550000D01*
X14050000Y22550000D01*
X14050000Y21710000D01*
D02*
G37*
%LPC*%
G36*
X15865000Y21710000D02*
X14350000Y21710000D01*
X14350000Y22550000D01*
X15865000Y22550000D01*
X15865000Y21710000D01*
D02*
G37*
%LPC*%
G36*
X51040000Y20370000D02*
X50750000Y20370000D01*
X50750000Y20860000D01*
X51040000Y20860000D01*
X51040000Y20370000D01*
D02*
G37*
%LPC*%
G36*
X50450000Y20370000D02*
X50160000Y20370000D01*
X50160000Y20860000D01*
X50450000Y20860000D01*
X50450000Y20370000D01*
D02*
G37*
%LPC*%
G36*
X51040000Y19580000D02*
X50750000Y19580000D01*
X50750000Y20070000D01*
X51040000Y20070000D01*
X51040000Y19580000D01*
D02*
G37*
%LPC*%
G36*
X50450000Y19580000D02*
X50160000Y19580000D01*
X50160000Y20070000D01*
X50450000Y20070000D01*
X50450000Y19580000D01*
D02*
G37*
%LPC*%
G36*
X36855000Y13645000D02*
X28775000Y13645000D01*
X28775000Y16115000D01*
X18145000Y16115000D01*
X18145000Y18855000D01*
X30055000Y18855000D01*
X30055000Y16375000D01*
X31145000Y16375000D01*
X31145000Y18855000D01*
X36855000Y18855000D01*
X36855000Y13645000D01*
D02*
G37*
%LPD*%
G36*
X36600000Y13900000D02*
X36600000Y18600000D01*
X31400000Y18600000D01*
X31400000Y16120000D01*
X30055000Y16120000D01*
X30055000Y16115000D01*
X29030000Y16115000D01*
X29030000Y13900000D01*
X36600000Y13900000D01*
D02*
G37*
%LPD*%
G36*
X29800000Y16370000D02*
X29800000Y18600000D01*
X18400000Y18600000D01*
X18400000Y16370000D01*
X29800000Y16370000D01*
D02*
G37*
%LPC*%
G36*
X55700000Y15504645D02*
X55558329Y15511605D01*
X55418022Y15532418D01*
X55280433Y15566882D01*
X55146894Y15614663D01*
X55018662Y15675312D01*
X54897007Y15748229D01*
X54783074Y15832727D01*
X54677980Y15927980D01*
X54582727Y16033074D01*
X54498229Y16147007D01*
X54425312Y16268662D01*
X54364663Y16396894D01*
X54316882Y16530433D01*
X54282418Y16668022D01*
X54261605Y16808329D01*
X54254645Y16950000D01*
X54261605Y17091671D01*
X54282418Y17231978D01*
X54316882Y17369567D01*
X54364663Y17503106D01*
X54425312Y17631338D01*
X54498229Y17752993D01*
X54582727Y17866926D01*
X54677980Y17972020D01*
X54783074Y18067273D01*
X54897007Y18151771D01*
X55018662Y18224688D01*
X55146894Y18285337D01*
X55280433Y18333118D01*
X55418022Y18367582D01*
X55558329Y18388395D01*
X55700000Y18395355D01*
X55841671Y18388395D01*
X55981978Y18367582D01*
X56119567Y18333118D01*
X56253106Y18285337D01*
X56381338Y18224688D01*
X56502993Y18151771D01*
X56616926Y18067273D01*
X56722020Y17972020D01*
X56817273Y17866926D01*
X56901771Y17752993D01*
X56974688Y17631338D01*
X57035337Y17503106D01*
X57083118Y17369567D01*
X57117582Y17231978D01*
X57138395Y17091671D01*
X57145355Y16950000D01*
X57138395Y16808329D01*
X57117582Y16668022D01*
X57083118Y16530433D01*
X57035337Y16396894D01*
X56974688Y16268662D01*
X56901771Y16147007D01*
X56817273Y16033074D01*
X56722020Y15927980D01*
X56616926Y15832727D01*
X56502993Y15748229D01*
X56381338Y15675312D01*
X56253106Y15614663D01*
X56119567Y15566882D01*
X55981978Y15532418D01*
X55841671Y15511605D01*
X55700000Y15504645D01*
D02*
G37*
%LPC*%
G36*
X4270000Y15504645D02*
X4128329Y15511605D01*
X3988022Y15532418D01*
X3850433Y15566882D01*
X3716894Y15614663D01*
X3588662Y15675312D01*
X3467007Y15748229D01*
X3353074Y15832727D01*
X3247980Y15927980D01*
X3152727Y16033074D01*
X3068229Y16147007D01*
X2995312Y16268662D01*
X2934663Y16396894D01*
X2886882Y16530433D01*
X2852418Y16668022D01*
X2831605Y16808329D01*
X2824645Y16950000D01*
X2831605Y17091671D01*
X2852418Y17231978D01*
X2886882Y17369567D01*
X2934663Y17503106D01*
X2995312Y17631338D01*
X3068229Y17752993D01*
X3152727Y17866926D01*
X3247980Y17972020D01*
X3353074Y18067273D01*
X3467007Y18151771D01*
X3588662Y18224688D01*
X3716894Y18285337D01*
X3850433Y18333118D01*
X3988022Y18367582D01*
X4128329Y18388395D01*
X4270000Y18395355D01*
X4411671Y18388395D01*
X4551978Y18367582D01*
X4689567Y18333118D01*
X4823106Y18285337D01*
X4951338Y18224688D01*
X5072993Y18151771D01*
X5186926Y18067273D01*
X5292020Y17972020D01*
X5387273Y17866926D01*
X5471771Y17752993D01*
X5544688Y17631338D01*
X5605337Y17503106D01*
X5653118Y17369567D01*
X5687582Y17231978D01*
X5708395Y17091671D01*
X5715355Y16950000D01*
X5708395Y16808329D01*
X5687582Y16668022D01*
X5653118Y16530433D01*
X5605337Y16396894D01*
X5544688Y16268662D01*
X5471771Y16147007D01*
X5387273Y16033074D01*
X5292020Y15927980D01*
X5186926Y15832727D01*
X5072993Y15748229D01*
X4951338Y15675312D01*
X4823106Y15614663D01*
X4689567Y15566882D01*
X4551978Y15532418D01*
X4411671Y15511605D01*
X4270000Y15504645D01*
D02*
G37*
%LPC*%
G36*
X15690000Y15504645D02*
X15548329Y15511605D01*
X15408022Y15532418D01*
X15270433Y15566882D01*
X15136894Y15614663D01*
X15008662Y15675312D01*
X14887007Y15748229D01*
X14773074Y15832727D01*
X14667980Y15927980D01*
X14572727Y16033074D01*
X14488229Y16147007D01*
X14415312Y16268662D01*
X14354663Y16396894D01*
X14306882Y16530433D01*
X14272418Y16668022D01*
X14251605Y16808329D01*
X14244645Y16950000D01*
X14251605Y17091671D01*
X14272418Y17231978D01*
X14306882Y17369567D01*
X14354663Y17503106D01*
X14415312Y17631338D01*
X14488229Y17752993D01*
X14572727Y17866926D01*
X14667980Y17972020D01*
X14773074Y18067273D01*
X14887007Y18151771D01*
X15008662Y18224688D01*
X15136894Y18285337D01*
X15270433Y18333118D01*
X15408022Y18367582D01*
X15548329Y18388395D01*
X15690000Y18395355D01*
X15831671Y18388395D01*
X15971978Y18367582D01*
X16109567Y18333118D01*
X16243106Y18285337D01*
X16371338Y18224688D01*
X16492993Y18151771D01*
X16606926Y18067273D01*
X16712020Y17972020D01*
X16807273Y17866926D01*
X16891771Y17752993D01*
X16964688Y17631338D01*
X17025337Y17503106D01*
X17073118Y17369567D01*
X17107582Y17231978D01*
X17128395Y17091671D01*
X17135355Y16950000D01*
X17128395Y16808329D01*
X17107582Y16668022D01*
X17073118Y16530433D01*
X17025337Y16396894D01*
X16964688Y16268662D01*
X16891771Y16147007D01*
X16807273Y16033074D01*
X16712020Y15927980D01*
X16606926Y15832727D01*
X16492993Y15748229D01*
X16371338Y15675312D01*
X16243106Y15614663D01*
X16109567Y15566882D01*
X15971978Y15532418D01*
X15831671Y15511605D01*
X15690000Y15504645D01*
D02*
G37*
%LPC*%
G36*
X44280000Y15504645D02*
X44138329Y15511605D01*
X43998022Y15532418D01*
X43860433Y15566882D01*
X43726894Y15614663D01*
X43598662Y15675312D01*
X43477007Y15748229D01*
X43363074Y15832727D01*
X43257980Y15927980D01*
X43162727Y16033074D01*
X43078229Y16147007D01*
X43005312Y16268662D01*
X42944663Y16396894D01*
X42896882Y16530433D01*
X42862418Y16668022D01*
X42841605Y16808329D01*
X42834645Y16950000D01*
X42841605Y17091671D01*
X42862418Y17231978D01*
X42896882Y17369567D01*
X42944663Y17503106D01*
X43005312Y17631338D01*
X43078229Y17752993D01*
X43162727Y17866926D01*
X43257980Y17972020D01*
X43363074Y18067273D01*
X43477007Y18151771D01*
X43598662Y18224688D01*
X43726894Y18285337D01*
X43860433Y18333118D01*
X43998022Y18367582D01*
X44138329Y18388395D01*
X44280000Y18395355D01*
X44421671Y18388395D01*
X44561978Y18367582D01*
X44699567Y18333118D01*
X44833106Y18285337D01*
X44961338Y18224688D01*
X45082993Y18151771D01*
X45196926Y18067273D01*
X45302020Y17972020D01*
X45397273Y17866926D01*
X45481771Y17752993D01*
X45554688Y17631338D01*
X45615337Y17503106D01*
X45663118Y17369567D01*
X45697582Y17231978D01*
X45718395Y17091671D01*
X45725355Y16950000D01*
X45718395Y16808329D01*
X45697582Y16668022D01*
X45663118Y16530433D01*
X45615337Y16396894D01*
X45554688Y16268662D01*
X45481771Y16147007D01*
X45397273Y16033074D01*
X45302020Y15927980D01*
X45196926Y15832727D01*
X45082993Y15748229D01*
X44961338Y15675312D01*
X44833106Y15614663D01*
X44699567Y15566882D01*
X44561978Y15532418D01*
X44421671Y15511605D01*
X44280000Y15504645D01*
D02*
G37*
%LPC*%
G36*
X40495000Y15326461D02*
X38980000Y15326461D01*
X38980000Y16166461D01*
X40495000Y16166461D01*
X40495000Y15326461D01*
D02*
G37*
%LPC*%
G36*
X38680000Y15326461D02*
X37165000Y15326461D01*
X37165000Y16166461D01*
X38680000Y16166461D01*
X38680000Y15326461D01*
D02*
G37*
%LPC*%
G36*
X28345000Y12031461D02*
X27455000Y12031461D01*
X27455000Y13321461D01*
X27545000Y13321461D01*
X27545000Y14481461D01*
X27255000Y14481461D01*
X27255000Y15871461D01*
X28545000Y15871461D01*
X28545000Y14481461D01*
X28255000Y14481461D01*
X28255000Y13321461D01*
X28345000Y13321461D01*
X28345000Y12031461D01*
D02*
G37*
%LPC*%
G36*
X24020000Y4234645D02*
X24012765Y4235000D01*
X21945000Y4235000D01*
X21945000Y15855000D01*
X26155000Y15855000D01*
X26155000Y4235000D01*
X24027235Y4235000D01*
X24020000Y4234645D01*
D02*
G37*
%LPD*%
G36*
X25900000Y4490000D02*
X25900000Y15600000D01*
X22200000Y15600000D01*
X22200000Y4490000D01*
X25900000Y4490000D01*
D02*
G37*
%LPC*%
G36*
X40495000Y14186461D02*
X38980000Y14186461D01*
X38980000Y15026461D01*
X40495000Y15026461D01*
X40495000Y14186461D01*
D02*
G37*
%LPC*%
G36*
X38680000Y14186461D02*
X37165000Y14186461D01*
X37165000Y15026461D01*
X38680000Y15026461D01*
X38680000Y14186461D01*
D02*
G37*
%LPC*%
G36*
X20540000Y14191493D02*
X19850000Y14191493D01*
X19850000Y14731493D01*
X20540000Y14731493D01*
X20540000Y14191493D01*
D02*
G37*
%LPC*%
G36*
X19550000Y14191493D02*
X18860000Y14191493D01*
X18860000Y14731493D01*
X19550000Y14731493D01*
X19550000Y14191493D01*
D02*
G37*
%LPC*%
G36*
X20540000Y13351493D02*
X19850000Y13351493D01*
X19850000Y13891493D01*
X20540000Y13891493D01*
X20540000Y13351493D01*
D02*
G37*
%LPC*%
G36*
X19550000Y13351493D02*
X18860000Y13351493D01*
X18860000Y13891493D01*
X19550000Y13891493D01*
X19550000Y13351493D01*
D02*
G37*
%LPC*%
G36*
X29250000Y12826461D02*
X28960000Y12826461D01*
X28960000Y13316461D01*
X29250000Y13316461D01*
X29250000Y12826461D01*
D02*
G37*
%LPC*%
G36*
X29840000Y12826461D02*
X29550000Y12826461D01*
X29550000Y13316461D01*
X29840000Y13316461D01*
X29840000Y12826461D01*
D02*
G37*
%LPC*%
G36*
X29840000Y12036461D02*
X29550000Y12036461D01*
X29550000Y12526461D01*
X29840000Y12526461D01*
X29840000Y12036461D01*
D02*
G37*
%LPC*%
G36*
X29250000Y12036461D02*
X28960000Y12036461D01*
X28960000Y12526461D01*
X29250000Y12526461D01*
X29250000Y12036461D01*
D02*
G37*
%LPC*%
G36*
X4270000Y9154645D02*
X4128329Y9161605D01*
X3988022Y9182418D01*
X3850433Y9216882D01*
X3716894Y9264663D01*
X3588662Y9325312D01*
X3467007Y9398229D01*
X3353074Y9482727D01*
X3247980Y9577980D01*
X3152727Y9683074D01*
X3068229Y9797007D01*
X2995312Y9918662D01*
X2934663Y10046894D01*
X2886882Y10180433D01*
X2852418Y10318022D01*
X2831605Y10458329D01*
X2824645Y10600000D01*
X2831605Y10741671D01*
X2852418Y10881978D01*
X2886882Y11019567D01*
X2934663Y11153106D01*
X2995312Y11281338D01*
X3068229Y11402993D01*
X3152727Y11516926D01*
X3247980Y11622020D01*
X3353074Y11717273D01*
X3467007Y11801771D01*
X3588662Y11874688D01*
X3716894Y11935337D01*
X3850433Y11983118D01*
X3988022Y12017582D01*
X4128329Y12038395D01*
X4270000Y12045355D01*
X4411671Y12038395D01*
X4551978Y12017582D01*
X4689567Y11983118D01*
X4823106Y11935337D01*
X4951338Y11874688D01*
X5072993Y11801771D01*
X5186926Y11717273D01*
X5292020Y11622020D01*
X5387273Y11516926D01*
X5471771Y11402993D01*
X5544688Y11281338D01*
X5605337Y11153106D01*
X5653118Y11019567D01*
X5687582Y10881978D01*
X5708395Y10741671D01*
X5715355Y10600000D01*
X5708395Y10458329D01*
X5687582Y10318022D01*
X5653118Y10180433D01*
X5605337Y10046894D01*
X5544688Y9918662D01*
X5471771Y9797007D01*
X5387273Y9683074D01*
X5292020Y9577980D01*
X5186926Y9482727D01*
X5072993Y9398229D01*
X4951338Y9325312D01*
X4823106Y9264663D01*
X4689567Y9216882D01*
X4551978Y9182418D01*
X4411671Y9161605D01*
X4270000Y9154645D01*
D02*
G37*
%LPC*%
G36*
X15690000Y9154645D02*
X15548329Y9161605D01*
X15408022Y9182418D01*
X15270433Y9216882D01*
X15136894Y9264663D01*
X15008662Y9325312D01*
X14887007Y9398229D01*
X14773074Y9482727D01*
X14667980Y9577980D01*
X14572727Y9683074D01*
X14488229Y9797007D01*
X14415312Y9918662D01*
X14354663Y10046894D01*
X14306882Y10180433D01*
X14272418Y10318022D01*
X14251605Y10458329D01*
X14244645Y10600000D01*
X14251605Y10741671D01*
X14272418Y10881978D01*
X14306882Y11019567D01*
X14354663Y11153106D01*
X14415312Y11281338D01*
X14488229Y11402993D01*
X14572727Y11516926D01*
X14667980Y11622020D01*
X14773074Y11717273D01*
X14887007Y11801771D01*
X15008662Y11874688D01*
X15136894Y11935337D01*
X15270433Y11983118D01*
X15408022Y12017582D01*
X15548329Y12038395D01*
X15690000Y12045355D01*
X15831671Y12038395D01*
X15971978Y12017582D01*
X16109567Y11983118D01*
X16243106Y11935337D01*
X16371338Y11874688D01*
X16492993Y11801771D01*
X16606926Y11717273D01*
X16712020Y11622020D01*
X16807273Y11516926D01*
X16891771Y11402993D01*
X16964688Y11281338D01*
X17025337Y11153106D01*
X17073118Y11019567D01*
X17107582Y10881978D01*
X17128395Y10741671D01*
X17135355Y10600000D01*
X17128395Y10458329D01*
X17107582Y10318022D01*
X17073118Y10180433D01*
X17025337Y10046894D01*
X16964688Y9918662D01*
X16891771Y9797007D01*
X16807273Y9683074D01*
X16712020Y9577980D01*
X16606926Y9482727D01*
X16492993Y9398229D01*
X16371338Y9325312D01*
X16243106Y9264663D01*
X16109567Y9216882D01*
X15971978Y9182418D01*
X15831671Y9161605D01*
X15690000Y9154645D01*
D02*
G37*
%LPC*%
G36*
X44280000Y9154645D02*
X44138329Y9161605D01*
X43998022Y9182418D01*
X43860433Y9216882D01*
X43726894Y9264663D01*
X43598662Y9325312D01*
X43477007Y9398229D01*
X43363074Y9482727D01*
X43257980Y9577980D01*
X43162727Y9683074D01*
X43078229Y9797007D01*
X43005312Y9918662D01*
X42944663Y10046894D01*
X42896882Y10180433D01*
X42862418Y10318022D01*
X42841605Y10458329D01*
X42834645Y10600000D01*
X42841605Y10741671D01*
X42862418Y10881978D01*
X42896882Y11019567D01*
X42944663Y11153106D01*
X43005312Y11281338D01*
X43078229Y11402993D01*
X43162727Y11516926D01*
X43257980Y11622020D01*
X43363074Y11717273D01*
X43477007Y11801771D01*
X43598662Y11874688D01*
X43726894Y11935337D01*
X43860433Y11983118D01*
X43998022Y12017582D01*
X44138329Y12038395D01*
X44280000Y12045355D01*
X44421671Y12038395D01*
X44561978Y12017582D01*
X44699567Y11983118D01*
X44833106Y11935337D01*
X44961338Y11874688D01*
X45082993Y11801771D01*
X45196926Y11717273D01*
X45302020Y11622020D01*
X45397273Y11516926D01*
X45481771Y11402993D01*
X45554688Y11281338D01*
X45615337Y11153106D01*
X45663118Y11019567D01*
X45697582Y10881978D01*
X45718395Y10741671D01*
X45725355Y10600000D01*
X45718395Y10458329D01*
X45697582Y10318022D01*
X45663118Y10180433D01*
X45615337Y10046894D01*
X45554688Y9918662D01*
X45481771Y9797007D01*
X45397273Y9683074D01*
X45302020Y9577980D01*
X45196926Y9482727D01*
X45082993Y9398229D01*
X44961338Y9325312D01*
X44833106Y9264663D01*
X44699567Y9216882D01*
X44561978Y9182418D01*
X44421671Y9161605D01*
X44280000Y9154645D01*
D02*
G37*
%LPC*%
G36*
X55700000Y9154645D02*
X55558329Y9161605D01*
X55418022Y9182418D01*
X55280433Y9216882D01*
X55146894Y9264663D01*
X55018662Y9325312D01*
X54897007Y9398229D01*
X54783074Y9482727D01*
X54677980Y9577980D01*
X54582727Y9683074D01*
X54498229Y9797007D01*
X54425312Y9918662D01*
X54364663Y10046894D01*
X54316882Y10180433D01*
X54282418Y10318022D01*
X54261605Y10458329D01*
X54254645Y10600000D01*
X54261605Y10741671D01*
X54282418Y10881978D01*
X54316882Y11019567D01*
X54364663Y11153106D01*
X54425312Y11281338D01*
X54498229Y11402993D01*
X54582727Y11516926D01*
X54677980Y11622020D01*
X54783074Y11717273D01*
X54897007Y11801771D01*
X55018662Y11874688D01*
X55146894Y11935337D01*
X55280433Y11983118D01*
X55418022Y12017582D01*
X55558329Y12038395D01*
X55700000Y12045355D01*
X55841671Y12038395D01*
X55981978Y12017582D01*
X56119567Y11983118D01*
X56253106Y11935337D01*
X56381338Y11874688D01*
X56502993Y11801771D01*
X56616926Y11717273D01*
X56722020Y11622020D01*
X56817273Y11516926D01*
X56901771Y11402993D01*
X56974688Y11281338D01*
X57035337Y11153106D01*
X57083118Y11019567D01*
X57117582Y10881978D01*
X57138395Y10741671D01*
X57145355Y10600000D01*
X57138395Y10458329D01*
X57117582Y10318022D01*
X57083118Y10180433D01*
X57035337Y10046894D01*
X56974688Y9918662D01*
X56901771Y9797007D01*
X56817273Y9683074D01*
X56722020Y9577980D01*
X56616926Y9482727D01*
X56502993Y9398229D01*
X56381338Y9325312D01*
X56253106Y9264663D01*
X56119567Y9216882D01*
X55981978Y9182418D01*
X55841671Y9161605D01*
X55700000Y9154645D01*
D02*
G37*
%LPC*%
G36*
X15690000Y2804645D02*
X15548329Y2811605D01*
X15408022Y2832418D01*
X15270433Y2866882D01*
X15136894Y2914663D01*
X15008662Y2975312D01*
X14887007Y3048229D01*
X14773074Y3132727D01*
X14667980Y3227980D01*
X14572727Y3333074D01*
X14488229Y3447007D01*
X14415312Y3568662D01*
X14354663Y3696894D01*
X14306882Y3830433D01*
X14272418Y3968022D01*
X14251605Y4108329D01*
X14244645Y4250000D01*
X14251605Y4391671D01*
X14272418Y4531978D01*
X14306882Y4669567D01*
X14354663Y4803106D01*
X14415312Y4931338D01*
X14488229Y5052993D01*
X14572727Y5166926D01*
X14667980Y5272020D01*
X14773074Y5367273D01*
X14887007Y5451771D01*
X15008662Y5524688D01*
X15136894Y5585337D01*
X15270433Y5633118D01*
X15408022Y5667582D01*
X15548329Y5688395D01*
X15690000Y5695355D01*
X15831671Y5688395D01*
X15971978Y5667582D01*
X16109567Y5633118D01*
X16243106Y5585337D01*
X16371338Y5524688D01*
X16492993Y5451771D01*
X16606926Y5367273D01*
X16712020Y5272020D01*
X16807273Y5166926D01*
X16891771Y5052993D01*
X16964688Y4931338D01*
X17025337Y4803106D01*
X17073118Y4669567D01*
X17107582Y4531978D01*
X17128395Y4391671D01*
X17135355Y4250000D01*
X17128395Y4108329D01*
X17107582Y3968022D01*
X17073118Y3830433D01*
X17025337Y3696894D01*
X16964688Y3568662D01*
X16891771Y3447007D01*
X16807273Y3333074D01*
X16712020Y3227980D01*
X16606926Y3132727D01*
X16492993Y3048229D01*
X16371338Y2975312D01*
X16243106Y2914663D01*
X16109567Y2866882D01*
X15971978Y2832418D01*
X15831671Y2811605D01*
X15690000Y2804645D01*
D02*
G37*
%LPC*%
G36*
X55700000Y2804645D02*
X55558329Y2811605D01*
X55418022Y2832418D01*
X55280433Y2866882D01*
X55146894Y2914663D01*
X55018662Y2975312D01*
X54897007Y3048229D01*
X54783074Y3132727D01*
X54677980Y3227980D01*
X54582727Y3333074D01*
X54498229Y3447007D01*
X54425312Y3568662D01*
X54364663Y3696894D01*
X54316882Y3830433D01*
X54282418Y3968022D01*
X54261605Y4108329D01*
X54254645Y4250000D01*
X54261605Y4391671D01*
X54282418Y4531978D01*
X54316882Y4669567D01*
X54364663Y4803106D01*
X54425312Y4931338D01*
X54498229Y5052993D01*
X54582727Y5166926D01*
X54677980Y5272020D01*
X54783074Y5367273D01*
X54897007Y5451771D01*
X55018662Y5524688D01*
X55146894Y5585337D01*
X55280433Y5633118D01*
X55418022Y5667582D01*
X55558329Y5688395D01*
X55700000Y5695355D01*
X55841671Y5688395D01*
X55981978Y5667582D01*
X56119567Y5633118D01*
X56253106Y5585337D01*
X56381338Y5524688D01*
X56502993Y5451771D01*
X56616926Y5367273D01*
X56722020Y5272020D01*
X56817273Y5166926D01*
X56901771Y5052993D01*
X56974688Y4931338D01*
X57035337Y4803106D01*
X57083118Y4669567D01*
X57117582Y4531978D01*
X57138395Y4391671D01*
X57145355Y4250000D01*
X57138395Y4108329D01*
X57117582Y3968022D01*
X57083118Y3830433D01*
X57035337Y3696894D01*
X56974688Y3568662D01*
X56901771Y3447007D01*
X56817273Y3333074D01*
X56722020Y3227980D01*
X56616926Y3132727D01*
X56502993Y3048229D01*
X56381338Y2975312D01*
X56253106Y2914663D01*
X56119567Y2866882D01*
X55981978Y2832418D01*
X55841671Y2811605D01*
X55700000Y2804645D01*
D02*
G37*
%LPC*%
G36*
X44130000Y4400000D02*
X42837786Y4400000D01*
X42857508Y4532955D01*
X42892090Y4671017D01*
X42940042Y4805029D01*
X43000895Y4933695D01*
X43074067Y5055775D01*
X43158858Y5170102D01*
X43254440Y5275560D01*
X43359898Y5371142D01*
X43474225Y5455933D01*
X43596305Y5529105D01*
X43724971Y5589958D01*
X43858983Y5637910D01*
X43997045Y5672492D01*
X44130000Y5692214D01*
X44130000Y4400000D01*
D02*
G37*
%LPC*%
G36*
X4120000Y4400000D02*
X2827786Y4400000D01*
X2847508Y4532955D01*
X2882090Y4671017D01*
X2930042Y4805029D01*
X2990895Y4933695D01*
X3064067Y5055775D01*
X3148858Y5170102D01*
X3244440Y5275560D01*
X3349898Y5371142D01*
X3464225Y5455933D01*
X3586305Y5529105D01*
X3714971Y5589958D01*
X3848983Y5637910D01*
X3987045Y5672492D01*
X4120000Y5692214D01*
X4120000Y4400000D01*
D02*
G37*
%LPC*%
G36*
X5712214Y4400000D02*
X4420000Y4400000D01*
X4420000Y5692214D01*
X4552955Y5672492D01*
X4691017Y5637910D01*
X4825029Y5589958D01*
X4953695Y5529105D01*
X5075775Y5455933D01*
X5190102Y5371142D01*
X5295560Y5275560D01*
X5391142Y5170102D01*
X5475933Y5055775D01*
X5549105Y4933695D01*
X5609958Y4805029D01*
X5657910Y4671017D01*
X5692492Y4532955D01*
X5712214Y4400000D01*
D02*
G37*
%LPC*%
G36*
X45722214Y4400000D02*
X44430000Y4400000D01*
X44430000Y5692214D01*
X44562955Y5672492D01*
X44701017Y5637910D01*
X44835029Y5589958D01*
X44963695Y5529105D01*
X45085775Y5455933D01*
X45200102Y5371142D01*
X45305560Y5275560D01*
X45401142Y5170102D01*
X45485933Y5055775D01*
X45559105Y4933695D01*
X45619958Y4805029D01*
X45667910Y4671017D01*
X45702492Y4532955D01*
X45722214Y4400000D01*
D02*
G37*
%LPC*%
G36*
X44430000Y2807786D02*
X44430000Y4100000D01*
X45722214Y4100000D01*
X45702492Y3967045D01*
X45667910Y3828983D01*
X45619958Y3694971D01*
X45559105Y3566305D01*
X45485933Y3444225D01*
X45401142Y3329898D01*
X45305560Y3224440D01*
X45200102Y3128858D01*
X45085775Y3044067D01*
X44963695Y2970895D01*
X44835029Y2910042D01*
X44701017Y2862090D01*
X44562955Y2827508D01*
X44430000Y2807786D01*
D02*
G37*
%LPC*%
G36*
X4120000Y2807786D02*
X3987045Y2827508D01*
X3848983Y2862090D01*
X3714971Y2910042D01*
X3586305Y2970895D01*
X3464225Y3044067D01*
X3349898Y3128858D01*
X3244440Y3224440D01*
X3148858Y3329898D01*
X3064067Y3444225D01*
X2990895Y3566305D01*
X2930042Y3694971D01*
X2882090Y3828983D01*
X2847508Y3967045D01*
X2827786Y4100000D01*
X4120000Y4100000D01*
X4120000Y2807786D01*
D02*
G37*
%LPC*%
G36*
X4420000Y2807786D02*
X4420000Y4100000D01*
X5712214Y4100000D01*
X5692492Y3967045D01*
X5657910Y3828983D01*
X5609958Y3694971D01*
X5549105Y3566305D01*
X5475933Y3444225D01*
X5391142Y3329898D01*
X5295560Y3224440D01*
X5190102Y3128858D01*
X5075775Y3044067D01*
X4953695Y2970895D01*
X4825029Y2910042D01*
X4691017Y2862090D01*
X4552955Y2827508D01*
X4420000Y2807786D01*
D02*
G37*
%LPC*%
G36*
X44130000Y2807786D02*
X43997045Y2827508D01*
X43858983Y2862090D01*
X43724971Y2910042D01*
X43596305Y2970895D01*
X43474225Y3044067D01*
X43359898Y3128858D01*
X43254440Y3224440D01*
X43158858Y3329898D01*
X43074067Y3444225D01*
X43000895Y3566305D01*
X42940042Y3694971D01*
X42892090Y3828983D01*
X42857508Y3967045D01*
X42837786Y4100000D01*
X44130000Y4100000D01*
X44130000Y2807786D01*
D02*
G37*
%LPC*%
G36*
X25159297Y3030000D02*
X24170000Y3030000D01*
X24170000Y4019297D01*
X24244430Y4008256D01*
X24353934Y3980827D01*
X24460221Y3942797D01*
X24562278Y3894529D01*
X24659108Y3836489D01*
X24749778Y3769244D01*
X24833428Y3693428D01*
X24909244Y3609778D01*
X24976489Y3519108D01*
X25034529Y3422278D01*
X25082797Y3320221D01*
X25120827Y3213934D01*
X25148256Y3104430D01*
X25159297Y3030000D01*
D02*
G37*
%LPC*%
G36*
X23870000Y3030000D02*
X22880703Y3030000D01*
X22891744Y3104430D01*
X22919173Y3213934D01*
X22957203Y3320221D01*
X23005471Y3422278D01*
X23063511Y3519108D01*
X23130756Y3609778D01*
X23206572Y3693428D01*
X23290222Y3769244D01*
X23380892Y3836489D01*
X23477722Y3894529D01*
X23579779Y3942797D01*
X23686066Y3980827D01*
X23795570Y4008256D01*
X23870000Y4019297D01*
X23870000Y3030000D01*
D02*
G37*
%LPC*%
G36*
X23870000Y1740703D02*
X23795570Y1751744D01*
X23686066Y1779173D01*
X23579779Y1817203D01*
X23477722Y1865471D01*
X23380892Y1923511D01*
X23290222Y1990756D01*
X23206572Y2066572D01*
X23130756Y2150222D01*
X23063511Y2240892D01*
X23005471Y2337722D01*
X22957203Y2439779D01*
X22919173Y2546066D01*
X22891744Y2655570D01*
X22880703Y2730000D01*
X23870000Y2730000D01*
X23870000Y1740703D01*
D02*
G37*
%LPC*%
G36*
X24170000Y1740703D02*
X24170000Y2730000D01*
X25159297Y2730000D01*
X25148256Y2655570D01*
X25120827Y2546066D01*
X25082797Y2439779D01*
X25034529Y2337722D01*
X24976489Y2240892D01*
X24909244Y2150222D01*
X24833428Y2066572D01*
X24749778Y1990756D01*
X24659108Y1923511D01*
X24562278Y1865471D01*
X24460221Y1817203D01*
X24353934Y1779173D01*
X24244430Y1751744D01*
X24170000Y1740703D01*
D02*
G37*
%LPD*%
G01*
%LPD*%
D10*
X27900000Y15176461D02*
X27900000Y12676461D01*
D11*
X36400000Y33960000D02*
X38400000Y33960000D01*
D12*
X15396117Y34240000D02*
X15396117Y31340000D01*
D13*
X46800000Y27300000D02*
X49100000Y27300000D01*
D10*
X48540000Y34300000D02*
X48540000Y33740000D01*
D12*
X15396117Y31340000D02*
X15396117Y28440000D01*
D14*
X34895000Y34275000D02*
X33930000Y35240000D01*
D10*
X50925000Y37130000D02*
X58075000Y37130000D01*
D14*
X40880000Y35240000D02*
X41170000Y34950000D01*
D14*
X31220000Y36510000D02*
X30630000Y37100000D01*
D11*
X12300000Y28760000D02*
X10230000Y28760000D01*
D15*
X58075000Y30180000D02*
X58075000Y31830000D01*
D16*
X58075000Y31830000D02*
X58075000Y34590000D01*
D10*
X35000000Y40000000D02*
X35000000Y38800000D01*
D10*
X35000000Y38800000D02*
X35800000Y38000000D01*
D10*
X60622500Y28602500D02*
X58580000Y26560000D01*
D10*
X48540000Y33740000D02*
X47300000Y32500000D01*
D14*
X32140000Y33960000D02*
X30000000Y36100000D01*
D10*
X48540000Y34300000D02*
X48540000Y37285000D01*
D14*
X38400000Y35240000D02*
X40880000Y35240000D01*
D10*
X49100000Y25800000D02*
X51300000Y25800000D01*
D14*
X48540000Y39940000D02*
X48540000Y40600000D01*
D14*
X34895000Y30665000D02*
X34895000Y34275000D01*
D10*
X58580000Y26560000D02*
X58580000Y25949999D01*
D10*
X50490000Y42210000D02*
X49300000Y43400000D01*
D10*
X48540000Y37285000D02*
X50925000Y39670000D01*
D10*
X58075000Y42210000D02*
X56180000Y42210000D01*
D13*
X30000000Y41720000D02*
X30000000Y40000000D01*
D15*
X10230000Y25560000D02*
X4730000Y25560000D01*
D15*
X7270000Y28100000D02*
X4730000Y30640000D01*
D10*
X28000000Y40000000D02*
X28000000Y43260000D01*
D10*
X58580000Y21050001D02*
X52629999Y21050001D01*
D14*
X30000000Y36100000D02*
X11960000Y36100000D01*
D15*
X4730000Y35470000D02*
X3452917Y36747083D01*
D14*
X33930000Y35240000D02*
X33060000Y35240000D01*
D14*
X42670000Y34950000D02*
X42670000Y32200000D01*
D17*
X38400000Y28890000D02*
X38400000Y30690000D01*
D15*
X3452917Y36747083D02*
X3452917Y39098737D01*
D13*
X30000000Y40000000D02*
X30000000Y38280000D01*
D10*
X53750000Y24020000D02*
X53750000Y22360000D01*
D14*
X11960000Y36100000D02*
X9960000Y34100000D01*
D10*
X49390000Y21860000D02*
X49100000Y22150000D01*
D14*
X45380000Y36780000D02*
X48540000Y39940000D01*
D10*
X52629999Y21050001D02*
X51820000Y21860000D01*
D10*
X60622500Y37122500D02*
X60622500Y28602500D01*
D10*
X51820000Y21860000D02*
X49390000Y21860000D01*
D15*
X4730000Y30640000D02*
X4730000Y35470000D01*
D14*
X33060000Y36510000D02*
X31220000Y36510000D01*
D10*
X60622500Y37122500D02*
X58075000Y39670000D01*
D14*
X33060000Y33960000D02*
X32140000Y33960000D01*
D14*
X38400000Y36510000D02*
X40900000Y36510000D01*
D10*
X50925000Y42210000D02*
X50490000Y42210000D01*
D18*
X38400000Y32690000D02*
X38400000Y30690000D01*
D14*
X30630000Y37100000D02*
X13351654Y37100000D01*
D14*
X13351654Y37100000D02*
X11352917Y39098737D01*
D13*
X32000000Y40000000D02*
X32000000Y41720000D01*
D19*
X20730000Y31340000D02*
X18296117Y31340000D01*
D14*
X40900000Y36510000D02*
X41170000Y36780000D01*
D10*
X51300000Y25800000D02*
X52630000Y25800000D01*
D10*
X49100000Y20220000D02*
X49100000Y22150000D01*
D14*
X42670000Y36780000D02*
X45380000Y36780000D01*
D15*
X46800000Y24050000D02*
X49100000Y24050000D01*
D10*
X51300000Y25800000D02*
X51300000Y23100000D01*
D20*
X35160000Y28200000D02*
X33360000Y28200000D01*
D13*
X32000000Y38280000D02*
X32000000Y40000000D01*
D10*
X52630000Y25800000D02*
X53750000Y26920000D01*
D14*
X34630000Y30400000D02*
X34895000Y30665000D01*
G75*
D21*
X24020000Y17376461D03*
D22*
X24020000Y14423539D03*
D23*
X29800000Y15176461D03*
D24*
X28850000Y17376461D03*
D23*
X27900000Y15176461D03*
D25*
X44250000Y22950000D03*
D26*
X44250000Y21450000D03*
D27*
X50600000Y20220000D03*
D28*
X49100000Y20220000D03*
D29*
X53750000Y26920000D03*
D30*
X53750000Y24020000D03*
D31*
X48540000Y34300000D03*
D32*
X46040000Y40600000D03*
D32*
X48540000Y40600000D03*
D31*
X46040000Y34300000D03*
D33*
X50925000Y34590000D03*
D34*
X58075000Y37130000D03*
D34*
X58075000Y42210000D03*
D34*
X58075000Y39670000D03*
D33*
X50925000Y37130000D03*
D33*
X50925000Y42210000D03*
D34*
X58075000Y34590000D03*
D33*
X50925000Y39670000D03*
D35*
X9960000Y34100000D03*
D35*
X2340000Y34100000D03*
D36*
X19700000Y14041493D03*
D37*
X19700000Y17376461D03*
D38*
X51300000Y27300000D03*
D39*
X51300000Y25800000D03*
D26*
X28240000Y31110000D03*
D25*
X28240000Y32610000D03*
D40*
X15396117Y28440000D03*
D41*
X18263883Y28440000D03*
D42*
X58580000Y21050001D03*
D43*
X58580000Y25949999D03*
D44*
X4730000Y30640000D03*
D44*
X7270000Y28100000D03*
D44*
X4730000Y25560000D03*
D45*
X15690000Y10600000D03*
D45*
X4270000Y10600000D03*
D45*
X4270000Y4250000D03*
D45*
X4270000Y16950000D03*
D45*
X15690000Y16950000D03*
D45*
X15690000Y4250000D03*
D27*
X29400000Y12676461D03*
D28*
X27900000Y12676461D03*
D25*
X38550000Y22950000D03*
D26*
X38550000Y21450000D03*
D46*
X14200000Y22700000D03*
D47*
X19400000Y22700000D03*
D48*
X33360000Y28200000D03*
D48*
X34630000Y30400000D03*
D48*
X32090000Y30400000D03*
D27*
X42670000Y34950000D03*
D28*
X41170000Y34950000D03*
D49*
X42670000Y32200000D03*
D49*
X41370000Y32200000D03*
D50*
X42020000Y30300000D03*
D51*
X49100000Y22150000D03*
D52*
X51300000Y23100000D03*
D51*
X49100000Y24050000D03*
D39*
X49100000Y25800000D03*
D38*
X49100000Y27300000D03*
D53*
X36900000Y30690000D03*
D54*
X38400000Y30690000D03*
D55*
X58075000Y31830000D03*
D56*
X55875000Y31830000D03*
D57*
X33060000Y32690000D03*
D57*
X33060000Y35240000D03*
D57*
X33060000Y36510000D03*
D58*
X38400000Y36510000D03*
D58*
X38400000Y33960000D03*
D57*
X33060000Y33960000D03*
D58*
X38400000Y32690000D03*
D58*
X38400000Y35240000D03*
D58*
X26070000Y32610000D03*
D58*
X26070000Y30060000D03*
D58*
X26070000Y28790000D03*
D57*
X20730000Y28790000D03*
D57*
X20730000Y31340000D03*
D58*
X26070000Y31340000D03*
D57*
X20730000Y32610000D03*
D57*
X20730000Y30060000D03*
D45*
X55700000Y10600000D03*
D45*
X44280000Y10600000D03*
D45*
X44280000Y4250000D03*
D45*
X44280000Y16950000D03*
D45*
X55700000Y16950000D03*
D45*
X55700000Y4250000D03*
D23*
X42350000Y21450000D03*
D24*
X41400000Y23650000D03*
D23*
X40450000Y21450000D03*
D59*
X18296117Y31340000D03*
D60*
X15396117Y31340000D03*
D61*
X13852917Y39098737D03*
D61*
X11352917Y39098737D03*
D27*
X42670000Y36780000D03*
D28*
X41170000Y36780000D03*
D61*
X5952917Y39098737D03*
D61*
X3452917Y39098737D03*
D62*
X34000000Y40000000D03*
D62*
X27000000Y40000000D03*
D62*
X30000000Y40000000D03*
D62*
X31000000Y40000000D03*
D62*
X36000000Y40000000D03*
D62*
X29000000Y40000000D03*
D63*
X38750000Y42450000D03*
D63*
X24250000Y42450000D03*
D62*
X33000000Y40000000D03*
D62*
X35000000Y40000000D03*
D62*
X28000000Y40000000D03*
D62*
X32000000Y40000000D03*
D47*
X38830000Y15176461D03*
D46*
X33630000Y15176461D03*
D64*
X24020000Y5380000D03*
D64*
X24020000Y2880000D03*
D65*
X10230000Y28760000D03*
D66*
X10230000Y25560000D03*
D41*
X18263883Y34240000D03*
D40*
X15396117Y34240000D03*
D67*
X34700000Y24750000D03*
D68*
X34700000Y21450000D03*
D69*
X27770000Y28790000D03*
D69*
X27000000Y38200000D03*
D70*
X30270000Y32610000D03*
D71*
X49300000Y43400000D03*
D72*
X62000000Y45400000D03*
D69*
X16250000Y8400000D03*
D72*
X16250000Y1000000D03*
D69*
X47240000Y40600000D03*
D69*
X30500000Y12676461D03*
D69*
X51700000Y20220000D03*
D69*
X46750000Y8400000D03*
D69*
X34000000Y41800000D03*
D71*
X30000000Y38280000D03*
D72*
X62000000Y38000000D03*
D72*
X23875000Y45400000D03*
D69*
X36900000Y29450000D03*
D72*
X46750000Y45400000D03*
D72*
X62000000Y1000000D03*
D69*
X37200000Y40000000D03*
D69*
X54375000Y8400000D03*
D72*
X62000000Y8400000D03*
D69*
X38830000Y16976461D03*
D69*
X38550000Y24180000D03*
D72*
X31500000Y45400000D03*
D71*
X30000000Y41720000D03*
D72*
X23875000Y1000000D03*
D69*
X16250000Y38000000D03*
D69*
X21300000Y14041493D03*
D72*
X39125000Y1000000D03*
D70*
X46300000Y21400000D03*
D69*
X33330000Y30400000D03*
D70*
X46800000Y24050000D03*
D69*
X31500000Y8400000D03*
D69*
X38830000Y13376461D03*
D69*
X8625000Y30600000D03*
D69*
X46040000Y36000000D03*
D70*
X32500000Y21130000D03*
D69*
X18100000Y14041493D03*
D69*
X53612500Y15800000D03*
D71*
X35800000Y38000000D03*
D69*
X44250000Y24200000D03*
D69*
X51300000Y28360000D03*
D72*
X1000000Y15800000D03*
D72*
X62000000Y23200000D03*
D72*
X54375000Y1000000D03*
D72*
X1000000Y1000000D03*
D69*
X8625000Y38000000D03*
D69*
X36500000Y24750000D03*
D69*
X46040000Y32600000D03*
D71*
X56180000Y42210000D03*
D72*
X8625000Y45400000D03*
D72*
X62000000Y30600000D03*
D69*
X44840000Y40600000D03*
D69*
X46750000Y15800000D03*
D72*
X1000000Y23200000D03*
D70*
X35160000Y28200000D03*
D69*
X36000000Y41800000D03*
D69*
X46040000Y42300000D03*
D71*
X32000000Y41720000D03*
D69*
X39125000Y8400000D03*
D69*
X44840000Y34300000D03*
D72*
X1000000Y45400000D03*
D72*
X1000000Y8400000D03*
D69*
X19700000Y12541493D03*
D69*
X8625000Y23200000D03*
D70*
X32400000Y17600000D03*
D70*
X58075000Y30180000D03*
D70*
X38400000Y28890000D03*
D69*
X22430000Y30060000D03*
D71*
X53750000Y22360000D03*
D69*
X40070000Y32200000D03*
D69*
X34000000Y38200000D03*
D69*
X14200000Y24500000D03*
D71*
X28000000Y43260000D03*
D69*
X41430000Y15176461D03*
D69*
X8625000Y8400000D03*
D72*
X1000000Y30600000D03*
D69*
X29640000Y31010000D03*
D73*
X36400000Y33960000D03*
D72*
X46750000Y1000000D03*
D72*
X8625000Y1000000D03*
D69*
X54375000Y38100000D03*
D72*
X1000000Y38000000D03*
D72*
X16250000Y45400000D03*
D70*
X22400000Y22700000D03*
D69*
X8625000Y15800000D03*
D70*
X46800000Y27300000D03*
D69*
X41370000Y33600000D03*
D69*
X47240000Y34300000D03*
D71*
X32000000Y38280000D03*
D69*
X25800000Y40000000D03*
D69*
X27000000Y41800000D03*
D73*
X12300000Y28760000D03*
D69*
X14200000Y20900000D03*
D72*
X62000000Y15800000D03*
D72*
X31500000Y1000000D03*
D72*
X39125000Y45400000D03*
D69*
X32900000Y24750000D03*
D72*
X54375000Y45400000D03*
D69*
X46040000Y38900000D03*
D71*
X47300000Y32500000D03*
M02*
