%FSLAX46Y46*%
%MOMM*%
%AMPS30*
21,1,1.594948,2.741421,0.000000,0.000000,0.000000*
%
%ADD30PS30*%
%AMPS31*
21,1,1.594948,2.741421,0.000000,0.000000,180.000000*
%
%ADD31PS31*%
%AMPS33*
21,1,1.600000,2.950000,0.000000,0.000000,90.000000*
%
%ADD33PS33*%
%AMPS32*
21,1,1.600000,2.950000,0.000000,0.000000,270.000000*
%
%ADD32PS32*%
%AMPS44*
21,1,0.600000,1.550000,0.000000,0.000000,90.000000*
%
%ADD44PS44*%
%AMPS43*
21,1,0.600000,1.550000,0.000000,0.000000,270.000000*
%
%ADD43PS43*%
%AMPS52*
21,1,1.600000,2.500000,0.000000,0.000000,0.000000*
%
%ADD52PS52*%
%AMPS51*
21,1,1.600000,2.500000,0.000000,0.000000,180.000000*
%
%ADD51PS51*%
%AMPS12*
21,1,0.900000,1.000000,0.000000,0.000000,0.000000*
%
%ADD12PS12*%
%AMPS38*
21,1,0.900000,1.000000,0.000000,0.000000,90.000000*
%
%ADD38PS38*%
%AMPS13*
21,1,0.900000,1.000000,0.000000,0.000000,180.000000*
%
%ADD13PS13*%
%AMPS37*
21,1,0.900000,1.000000,0.000000,0.000000,270.000000*
%
%ADD37PS37*%
%AMPS47*
21,1,0.400000,1.700000,0.000000,0.000000,180.000000*
%
%ADD47PS47*%
%AMPS41*
21,1,0.400000,0.900000,0.000000,0.000000,90.000000*
%
%ADD41PS41*%
%AMPS42*
21,1,0.400000,0.900000,0.000000,0.000000,270.000000*
%
%ADD42PS42*%
%AMPS24*
21,1,1.300000,1.000000,0.000000,0.000000,0.000000*
%
%ADD24PS24*%
%AMPS25*
21,1,1.300000,1.000000,0.000000,0.000000,180.000000*
%
%ADD25PS25*%
%AMPS20*
21,1,0.600000,1.800000,0.000000,0.000000,0.000000*
%
%ADD20PS20*%
%AMPS21*
21,1,0.600000,1.800000,0.000000,0.000000,180.000000*
%
%ADD21PS21*%
%AMPS23*
21,1,0.701421,1.491421,0.000000,0.000000,90.000000*
%
%ADD23PS23*%
%AMPS22*
21,1,0.701421,1.491421,0.000000,0.000000,270.000000*
%
%ADD22PS22*%
%AMPS48*
21,1,2.500000,2.800000,0.000000,0.000000,180.000000*
%
%ADD48PS48*%
%AMPS29*
21,1,1.800000,1.340000,0.000000,0.000000,90.000000*
%
%ADD29PS29*%
%AMPS28*
21,1,1.800000,1.340000,0.000000,0.000000,270.000000*
%
%ADD28PS28*%
%AMPS19*
21,1,1.800000,1.200000,0.000000,0.000000,0.000000*
%
%ADD19PS19*%
%AMPS45*
21,1,1.800000,1.200000,0.000000,0.000000,90.000000*
%
%ADD45PS45*%
%AMPS18*
21,1,1.800000,1.200000,0.000000,0.000000,180.000000*
%
%ADD18PS18*%
%AMPS46*
21,1,1.800000,1.200000,0.000000,0.000000,270.000000*
%
%ADD46PS46*%
%AMPS27*
21,1,0.900000,0.500000,0.000000,0.000000,0.000000*
%
%ADD27PS27*%
%AMPS16*
21,1,0.900000,0.500000,0.000000,0.000000,90.000000*
%
%ADD16PS16*%
%AMPS26*
21,1,0.900000,0.500000,0.000000,0.000000,180.000000*
%
%ADD26PS26*%
%AMPS17*
21,1,0.900000,0.500000,0.000000,0.000000,270.000000*
%
%ADD17PS17*%
%AMPS50*
21,1,1.700000,1.100000,0.000000,0.000000,0.000000*
%
%ADD50PS50*%
%AMPS49*
21,1,1.700000,1.100000,0.000000,0.000000,180.000000*
%
%ADD49PS49*%
%AMPS36*
21,1,0.700000,0.900000,0.000000,0.000000,0.000000*
%
%ADD36PS36*%
%AMPS35*
21,1,0.700000,0.900000,0.000000,0.000000,180.000000*
%
%ADD35PS35*%
%AMPS34*
21,1,0.750000,1.300000,0.000000,0.000000,0.000000*
%
%ADD34PS34*%
%AMPS11*
21,1,1.831662,1.171341,0.000000,0.000000,0.000000*
%
%ADD11PS11*%
%AMPS10*
21,1,1.831662,1.171341,0.000000,0.000000,180.000000*
%
%ADD10PS10*%
%AMPS15*
21,1,0.850000,0.800000,0.000000,0.000000,0.000000*
%
%ADD15PS15*%
%AMPS40*
21,1,0.850000,0.800000,0.000000,0.000000,90.000000*
%
%ADD40PS40*%
%AMPS14*
21,1,0.850000,0.800000,0.000000,0.000000,180.000000*
%
%ADD14PS14*%
%AMPS39*
21,1,0.850000,0.800000,0.000000,0.000000,270.000000*
%
%ADD39PS39*%
G01*
%LPD*%
G01*
%LPD*%
G75*
D10*
X24020000Y17376461D03*
D11*
X24020000Y14423539D03*
D12*
X29800000Y15176461D03*
D13*
X28850000Y17376461D03*
D12*
X27900000Y15176461D03*
D14*
X44250000Y22950000D03*
D15*
X44250000Y21450000D03*
D16*
X50600000Y20220000D03*
D17*
X49100000Y20220000D03*
D18*
X53750000Y26920000D03*
D19*
X53750000Y24020000D03*
D20*
X48540000Y34300000D03*
D21*
X46040000Y40600000D03*
D21*
X48540000Y40600000D03*
D20*
X46040000Y34300000D03*
D22*
X50925000Y34590000D03*
D23*
X58075000Y37130000D03*
D23*
X58075000Y42210000D03*
D23*
X58075000Y39670000D03*
D22*
X50925000Y37130000D03*
D22*
X50925000Y42210000D03*
D23*
X58075000Y34590000D03*
D22*
X50925000Y39670000D03*
D24*
X19700000Y14041493D03*
D25*
X19700000Y17376461D03*
D26*
X51300000Y27300000D03*
D27*
X51300000Y25800000D03*
D15*
X28240000Y31110000D03*
D14*
X28240000Y32610000D03*
D28*
X15396117Y28440000D03*
D29*
X18263883Y28440000D03*
D30*
X58580000Y21050001D03*
D31*
X58580000Y25949999D03*
D16*
X29400000Y12676461D03*
D17*
X27900000Y12676461D03*
D14*
X38550000Y22950000D03*
D15*
X38550000Y21450000D03*
D32*
X14200000Y22700000D03*
D33*
X19400000Y22700000D03*
D34*
X33360000Y28200000D03*
D34*
X34630000Y30400000D03*
D34*
X32090000Y30400000D03*
D16*
X42670000Y34950000D03*
D17*
X41170000Y34950000D03*
D35*
X42670000Y32200000D03*
D35*
X41370000Y32200000D03*
D36*
X42020000Y30300000D03*
D37*
X49100000Y22150000D03*
D38*
X51300000Y23100000D03*
D37*
X49100000Y24050000D03*
D27*
X49100000Y25800000D03*
D26*
X49100000Y27300000D03*
D39*
X36900000Y30690000D03*
D40*
X38400000Y30690000D03*
D41*
X58075000Y31830000D03*
D42*
X55875000Y31830000D03*
D43*
X33060000Y32690000D03*
D43*
X33060000Y35240000D03*
D43*
X33060000Y36510000D03*
D44*
X38400000Y36510000D03*
D44*
X38400000Y33960000D03*
D43*
X33060000Y33960000D03*
D44*
X38400000Y32690000D03*
D44*
X38400000Y35240000D03*
D44*
X26070000Y32610000D03*
D44*
X26070000Y30060000D03*
D44*
X26070000Y28790000D03*
D43*
X20730000Y28790000D03*
D43*
X20730000Y31340000D03*
D44*
X26070000Y31340000D03*
D43*
X20730000Y32610000D03*
D43*
X20730000Y30060000D03*
D12*
X42350000Y21450000D03*
D13*
X41400000Y23650000D03*
D12*
X40450000Y21450000D03*
D45*
X18296117Y31340000D03*
D46*
X15396117Y31340000D03*
D16*
X42670000Y36780000D03*
D17*
X41170000Y36780000D03*
D47*
X34000000Y40000000D03*
D47*
X27000000Y40000000D03*
D47*
X30000000Y40000000D03*
D47*
X31000000Y40000000D03*
D47*
X36000000Y40000000D03*
D47*
X29000000Y40000000D03*
D48*
X38750000Y42450000D03*
D48*
X24250000Y42450000D03*
D47*
X33000000Y40000000D03*
D47*
X35000000Y40000000D03*
D47*
X28000000Y40000000D03*
D47*
X32000000Y40000000D03*
D33*
X38830000Y15176461D03*
D32*
X33630000Y15176461D03*
D49*
X10230000Y28760000D03*
D50*
X10230000Y25560000D03*
D29*
X18263883Y34240000D03*
D28*
X15396117Y34240000D03*
D51*
X34700000Y24750000D03*
D52*
X34700000Y21450000D03*
M02*
