%FSLAX46Y46*%
%MOMM*%
%AMPS12*
1,1,2.300000,0.000000,0.000000*
%
%ADD12PS12*%
%AMPS11*
1,1,1.300000,0.000000,0.000000*
%
%ADD11PS11*%
%AMPS10*
1,1,1.700000,0.000000,0.000000*
%
%ADD10PS10*%
%AMPS13*
1,1,1.700000,0.000000,0.000000*
%
%ADD13PS13*%
%AMPS14*
1,1,1.700000,0.000000,0.000000*
%
%ADD14PS14*%
%AMPS16*
1,1,1.400000,0.000000,0.000000*
%
%ADD16PS16*%
%AMPS18*
1,1,0.700000,0.000000,0.000000*
%
%ADD18PS18*%
%AMPS17*
1,1,0.900000,0.000000,0.000000*
%
%ADD17PS17*%
%AMPS19*
1,1,1.000000,0.000000,0.000000*
%
%ADD19PS19*%
%AMPS15*
1,1,0.700000,0.000000,0.000000*
%
%ADD15PS15*%
G01*
%LPD*%
G36*
X62640000Y360000D02*
X62640000Y46040000D01*
X360000Y46040000D01*
X360000Y360000D01*
X62640000Y360000D01*
D02*
G37*
%LPC*%
G36*
X49300000Y42744753D02*
X49235774Y42747909D01*
X49172167Y42757345D01*
X49109790Y42772968D01*
X49049243Y42794634D01*
X48991122Y42822123D01*
X48935966Y42855182D01*
X48884316Y42893488D01*
X48836670Y42936670D01*
X48793488Y42984316D01*
X48755182Y43035966D01*
X48722123Y43091122D01*
X48694634Y43149243D01*
X48672968Y43209790D01*
X48657345Y43272167D01*
X48647909Y43335774D01*
X48644753Y43400000D01*
X48647909Y43464226D01*
X48657345Y43527833D01*
X48672968Y43590210D01*
X48694634Y43650757D01*
X48722123Y43708878D01*
X48755182Y43764034D01*
X48793488Y43815684D01*
X48836670Y43863330D01*
X48884316Y43906512D01*
X48935966Y43944818D01*
X48991122Y43977877D01*
X49049243Y44005366D01*
X49109790Y44027032D01*
X49172167Y44042655D01*
X49235774Y44052091D01*
X49300000Y44055247D01*
X49364226Y44052091D01*
X49427833Y44042655D01*
X49490210Y44027032D01*
X49550757Y44005366D01*
X49608878Y43977877D01*
X49664034Y43944818D01*
X49715684Y43906512D01*
X49763330Y43863330D01*
X49806512Y43815684D01*
X49844818Y43764034D01*
X49877877Y43708878D01*
X49905366Y43650757D01*
X49927032Y43590210D01*
X49942655Y43527833D01*
X49952091Y43464226D01*
X49955247Y43400000D01*
X49952091Y43335774D01*
X49942655Y43272167D01*
X49927032Y43209790D01*
X49905366Y43149243D01*
X49877877Y43091122D01*
X49844818Y43035966D01*
X49806512Y42984316D01*
X49763330Y42936670D01*
X49715684Y42893488D01*
X49664034Y42855182D01*
X49608878Y42822123D01*
X49550757Y42794634D01*
X49490210Y42772968D01*
X49427833Y42757345D01*
X49364226Y42747909D01*
X49300000Y42744753D01*
D02*
G37*
%LPC*%
G36*
X28000000Y42604753D02*
X27935774Y42607909D01*
X27872167Y42617345D01*
X27809790Y42632968D01*
X27749243Y42654634D01*
X27691122Y42682123D01*
X27635966Y42715182D01*
X27584316Y42753488D01*
X27536670Y42796670D01*
X27493488Y42844316D01*
X27455182Y42895966D01*
X27422123Y42951122D01*
X27394634Y43009243D01*
X27372968Y43069790D01*
X27357345Y43132167D01*
X27347909Y43195774D01*
X27344753Y43260000D01*
X27347909Y43324226D01*
X27357345Y43387833D01*
X27372968Y43450210D01*
X27394634Y43510757D01*
X27422123Y43568878D01*
X27455182Y43624034D01*
X27493488Y43675684D01*
X27536670Y43723330D01*
X27584316Y43766512D01*
X27635966Y43804818D01*
X27691122Y43837877D01*
X27749243Y43865366D01*
X27809790Y43887032D01*
X27872167Y43902655D01*
X27935774Y43912091D01*
X28000000Y43915247D01*
X28064226Y43912091D01*
X28127833Y43902655D01*
X28190210Y43887032D01*
X28250757Y43865366D01*
X28308878Y43837877D01*
X28364034Y43804818D01*
X28415684Y43766512D01*
X28463330Y43723330D01*
X28506512Y43675684D01*
X28544818Y43624034D01*
X28577877Y43568878D01*
X28605366Y43510757D01*
X28627032Y43450210D01*
X28642655Y43387833D01*
X28652091Y43324226D01*
X28655247Y43260000D01*
X28652091Y43195774D01*
X28642655Y43132167D01*
X28627032Y43069790D01*
X28605368Y43009247D01*
X28577877Y42951122D01*
X28544818Y42895966D01*
X28506512Y42844316D01*
X28463330Y42796670D01*
X28415684Y42753488D01*
X28364034Y42715182D01*
X28308878Y42682123D01*
X28250757Y42654634D01*
X28190210Y42632968D01*
X28127833Y42617345D01*
X28064226Y42607909D01*
X28000000Y42604753D01*
D02*
G37*
%LPC*%
G36*
X56180000Y41554753D02*
X56115774Y41557909D01*
X56052167Y41567345D01*
X55989790Y41582968D01*
X55929243Y41604634D01*
X55871122Y41632123D01*
X55815966Y41665182D01*
X55764316Y41703488D01*
X55716670Y41746670D01*
X55673488Y41794316D01*
X55635182Y41845966D01*
X55602123Y41901122D01*
X55574634Y41959243D01*
X55552968Y42019790D01*
X55537345Y42082167D01*
X55527909Y42145774D01*
X55524753Y42210000D01*
X55527909Y42274226D01*
X55537345Y42337833D01*
X55552968Y42400210D01*
X55574634Y42460757D01*
X55602123Y42518878D01*
X55635182Y42574034D01*
X55673488Y42625684D01*
X55716670Y42673330D01*
X55764316Y42716512D01*
X55815966Y42754818D01*
X55871122Y42787877D01*
X55929243Y42815366D01*
X55989790Y42837032D01*
X56052167Y42852655D01*
X56115774Y42862091D01*
X56180000Y42865247D01*
X56244226Y42862091D01*
X56307833Y42852655D01*
X56370210Y42837032D01*
X56430757Y42815366D01*
X56488878Y42787877D01*
X56544034Y42754818D01*
X56595684Y42716512D01*
X56643330Y42673330D01*
X56686512Y42625684D01*
X56724818Y42574034D01*
X56757877Y42518878D01*
X56785366Y42460757D01*
X56807032Y42400210D01*
X56822655Y42337833D01*
X56832091Y42274226D01*
X56835247Y42210000D01*
X56832091Y42145774D01*
X56822655Y42082167D01*
X56807032Y42019790D01*
X56785366Y41959243D01*
X56757877Y41901122D01*
X56724818Y41845966D01*
X56686512Y41794316D01*
X56643330Y41746670D01*
X56595684Y41703488D01*
X56544034Y41665182D01*
X56488878Y41632123D01*
X56430757Y41604634D01*
X56370210Y41582968D01*
X56307833Y41567345D01*
X56244226Y41557909D01*
X56180000Y41554753D01*
D02*
G37*
%LPC*%
G36*
X36855000Y13645000D02*
X23595000Y13645000D01*
X23595000Y20345000D01*
X17239000Y20345000D01*
X17239000Y37660000D01*
X28745000Y37660000D01*
X28745000Y42855000D01*
X33255000Y42855000D01*
X33255000Y31555000D01*
X54845000Y31555000D01*
X54845000Y32755000D01*
X59655000Y32755000D01*
X59655000Y28845000D01*
X48055000Y28845000D01*
X48055000Y18745000D01*
X42455000Y18745000D01*
X42455000Y17545000D01*
X36855000Y17545000D01*
X36855000Y13645000D01*
D02*
G37*
%LPD*%
G36*
X36600000Y13900000D02*
X36600000Y17800000D01*
X42200000Y17800000D01*
X42200000Y19000000D01*
X47800000Y19000000D01*
X47800000Y28845000D01*
X41525000Y28845000D01*
X41525000Y19645000D01*
X31145000Y19645000D01*
X31145000Y31555000D01*
X33000000Y31555000D01*
X33000000Y42600000D01*
X31130000Y42600000D01*
X31130000Y35060000D01*
X23850000Y35050000D01*
X23850000Y13900000D01*
X36600000Y13900000D01*
D02*
G37*
%LPC*%
G36*
X29640000Y30454752D02*
X29585583Y30457426D01*
X29531672Y30465423D01*
X29478825Y30478660D01*
X29427514Y30497020D01*
X29378256Y30520317D01*
X29331520Y30548329D01*
X29287760Y30580784D01*
X29247381Y30617381D01*
X29210784Y30657760D01*
X29178329Y30701520D01*
X29150317Y30748256D01*
X29127020Y30797514D01*
X29108660Y30848825D01*
X29095423Y30901672D01*
X29087426Y30955583D01*
X29084752Y31010000D01*
X29087426Y31064417D01*
X29095423Y31118328D01*
X29108660Y31171175D01*
X29127020Y31222486D01*
X29150317Y31271744D01*
X29178329Y31318480D01*
X29210784Y31362240D01*
X29247381Y31402619D01*
X29287760Y31439216D01*
X29331520Y31471671D01*
X29378256Y31499683D01*
X29427514Y31522980D01*
X29478825Y31541340D01*
X29531672Y31554577D01*
X29585583Y31562574D01*
X29640000Y31565248D01*
X29694417Y31562574D01*
X29748328Y31554577D01*
X29801175Y31541340D01*
X29852486Y31522980D01*
X29901744Y31499683D01*
X29948480Y31471671D01*
X29992240Y31439216D01*
X30032619Y31402619D01*
X30069216Y31362240D01*
X30101671Y31318480D01*
X30129683Y31271744D01*
X30152980Y31222486D01*
X30171340Y31171175D01*
X30184577Y31118328D01*
X30192574Y31064417D01*
X30195248Y31010000D01*
X30192574Y30955583D01*
X30184577Y30901672D01*
X30171340Y30848825D01*
X30152980Y30797514D01*
X30129683Y30748256D01*
X30101671Y30701520D01*
X30069216Y30657760D01*
X30032619Y30617381D01*
X29992240Y30580784D01*
X29948480Y30548329D01*
X29901744Y30520317D01*
X29852486Y30497020D01*
X29801175Y30478660D01*
X29748328Y30465423D01*
X29694417Y30457426D01*
X29640000Y30454752D01*
D02*
G37*
%LPD*%
G36*
X29640000Y30710059D02*
X29669385Y30711504D01*
X29698522Y30715826D01*
X29727060Y30722973D01*
X29754788Y30732895D01*
X29781394Y30745478D01*
X29806635Y30760608D01*
X29830278Y30778143D01*
X29852089Y30797911D01*
X29871857Y30819722D01*
X29889392Y30843365D01*
X29904522Y30868606D01*
X29917105Y30895212D01*
X29927027Y30922940D01*
X29934174Y30951478D01*
X29938496Y30980615D01*
X29939941Y31010000D01*
X29938496Y31039385D01*
X29934174Y31068522D01*
X29927027Y31097060D01*
X29917105Y31124788D01*
X29904522Y31151394D01*
X29889392Y31176635D01*
X29871857Y31200278D01*
X29852089Y31222089D01*
X29830278Y31241857D01*
X29806635Y31259392D01*
X29781394Y31274522D01*
X29754788Y31287105D01*
X29727060Y31297027D01*
X29698522Y31304174D01*
X29669385Y31308496D01*
X29640000Y31309941D01*
X29610615Y31308496D01*
X29581478Y31304174D01*
X29552940Y31297027D01*
X29525212Y31287105D01*
X29498606Y31274522D01*
X29473365Y31259392D01*
X29449722Y31241857D01*
X29427911Y31222089D01*
X29408143Y31200278D01*
X29390608Y31176635D01*
X29375478Y31151394D01*
X29362895Y31124788D01*
X29352973Y31097060D01*
X29345826Y31068522D01*
X29341504Y31039385D01*
X29340059Y31010000D01*
X29341504Y30980615D01*
X29345826Y30951478D01*
X29352973Y30922940D01*
X29362895Y30895212D01*
X29375478Y30868606D01*
X29390608Y30843365D01*
X29408143Y30819722D01*
X29427911Y30797911D01*
X29449722Y30778143D01*
X29473365Y30760608D01*
X29498606Y30745478D01*
X29525212Y30732895D01*
X29552940Y30722973D01*
X29581478Y30715826D01*
X29610615Y30711504D01*
X29640000Y30710059D01*
D02*
G37*
%LPC*%
G36*
X27770000Y28234752D02*
X27715583Y28237426D01*
X27661672Y28245423D01*
X27608825Y28258660D01*
X27557514Y28277020D01*
X27508256Y28300317D01*
X27461520Y28328329D01*
X27417760Y28360784D01*
X27377381Y28397381D01*
X27340784Y28437760D01*
X27308329Y28481520D01*
X27280317Y28528256D01*
X27257020Y28577514D01*
X27238660Y28628825D01*
X27225423Y28681672D01*
X27217426Y28735583D01*
X27214752Y28790000D01*
X27217426Y28844417D01*
X27225423Y28898328D01*
X27238660Y28951175D01*
X27257020Y29002486D01*
X27280317Y29051744D01*
X27308329Y29098480D01*
X27340784Y29142240D01*
X27377381Y29182619D01*
X27417760Y29219216D01*
X27461520Y29251671D01*
X27508256Y29279683D01*
X27557514Y29302980D01*
X27608825Y29321340D01*
X27661672Y29334577D01*
X27715583Y29342574D01*
X27770000Y29345248D01*
X27824417Y29342574D01*
X27878328Y29334577D01*
X27931175Y29321340D01*
X27982486Y29302980D01*
X28031744Y29279683D01*
X28078480Y29251671D01*
X28122240Y29219216D01*
X28162619Y29182619D01*
X28199216Y29142240D01*
X28231671Y29098480D01*
X28259683Y29051744D01*
X28282980Y29002486D01*
X28301340Y28951175D01*
X28314577Y28898328D01*
X28322574Y28844417D01*
X28325248Y28790000D01*
X28322574Y28735583D01*
X28314577Y28681672D01*
X28301340Y28628825D01*
X28282980Y28577514D01*
X28259683Y28528256D01*
X28231671Y28481520D01*
X28199216Y28437760D01*
X28162619Y28397381D01*
X28122240Y28360784D01*
X28078480Y28328329D01*
X28031744Y28300317D01*
X27982486Y28277020D01*
X27931175Y28258660D01*
X27878328Y28245423D01*
X27824417Y28237426D01*
X27770000Y28234752D01*
D02*
G37*
%LPD*%
G36*
X27770000Y28490059D02*
X27799385Y28491504D01*
X27828522Y28495826D01*
X27857060Y28502973D01*
X27884788Y28512895D01*
X27911394Y28525478D01*
X27936635Y28540608D01*
X27960278Y28558143D01*
X27982089Y28577911D01*
X28001857Y28599722D01*
X28019392Y28623365D01*
X28034522Y28648606D01*
X28047105Y28675212D01*
X28057027Y28702940D01*
X28064174Y28731478D01*
X28068496Y28760615D01*
X28069941Y28790000D01*
X28068496Y28819385D01*
X28064174Y28848522D01*
X28057027Y28877060D01*
X28047105Y28904788D01*
X28034522Y28931394D01*
X28019392Y28956635D01*
X28001857Y28980278D01*
X27982089Y29002089D01*
X27960278Y29021857D01*
X27936635Y29039392D01*
X27911394Y29054522D01*
X27884788Y29067105D01*
X27857060Y29077027D01*
X27828522Y29084174D01*
X27799385Y29088496D01*
X27770000Y29089941D01*
X27740615Y29088496D01*
X27711478Y29084174D01*
X27682940Y29077027D01*
X27655212Y29067105D01*
X27628606Y29054522D01*
X27603365Y29039392D01*
X27579722Y29021857D01*
X27557911Y29002089D01*
X27538143Y28980278D01*
X27520608Y28956635D01*
X27505478Y28931394D01*
X27492895Y28904788D01*
X27482973Y28877060D01*
X27475826Y28848522D01*
X27471504Y28819385D01*
X27470059Y28790000D01*
X27471504Y28760615D01*
X27475826Y28731478D01*
X27482973Y28702940D01*
X27492895Y28675212D01*
X27505478Y28648606D01*
X27520608Y28623365D01*
X27538143Y28599722D01*
X27557911Y28577911D01*
X27579722Y28558143D01*
X27603365Y28540608D01*
X27628606Y28525478D01*
X27655212Y28512895D01*
X27682940Y28502973D01*
X27711478Y28495826D01*
X27740615Y28491504D01*
X27770000Y28490059D01*
D02*
G37*
%LPC*%
G36*
X44250000Y23644752D02*
X44195583Y23647426D01*
X44141672Y23655423D01*
X44088825Y23668660D01*
X44037514Y23687020D01*
X43988256Y23710317D01*
X43941520Y23738329D01*
X43897760Y23770784D01*
X43857381Y23807381D01*
X43820784Y23847760D01*
X43788329Y23891520D01*
X43760317Y23938256D01*
X43737020Y23987514D01*
X43718660Y24038825D01*
X43705423Y24091672D01*
X43697426Y24145583D01*
X43694752Y24200000D01*
X43697426Y24254417D01*
X43705423Y24308328D01*
X43718660Y24361175D01*
X43737020Y24412486D01*
X43760317Y24461744D01*
X43788329Y24508480D01*
X43820784Y24552240D01*
X43857381Y24592619D01*
X43897760Y24629216D01*
X43941520Y24661671D01*
X43988256Y24689683D01*
X44037514Y24712980D01*
X44088825Y24731340D01*
X44141672Y24744577D01*
X44195583Y24752574D01*
X44250000Y24755248D01*
X44304417Y24752574D01*
X44358328Y24744577D01*
X44411175Y24731340D01*
X44462486Y24712980D01*
X44511744Y24689683D01*
X44558480Y24661671D01*
X44602240Y24629216D01*
X44642619Y24592619D01*
X44679216Y24552240D01*
X44711671Y24508480D01*
X44739683Y24461744D01*
X44762980Y24412486D01*
X44781340Y24361175D01*
X44794577Y24308328D01*
X44802574Y24254417D01*
X44805248Y24200000D01*
X44802574Y24145583D01*
X44794577Y24091672D01*
X44781340Y24038825D01*
X44762980Y23987514D01*
X44739683Y23938256D01*
X44711671Y23891520D01*
X44679216Y23847760D01*
X44642619Y23807381D01*
X44602240Y23770784D01*
X44558480Y23738329D01*
X44511744Y23710317D01*
X44462486Y23687020D01*
X44411175Y23668660D01*
X44358328Y23655423D01*
X44304417Y23647426D01*
X44250000Y23644752D01*
D02*
G37*
%LPD*%
G36*
X44250000Y23900059D02*
X44279385Y23901504D01*
X44308522Y23905826D01*
X44337060Y23912973D01*
X44364788Y23922895D01*
X44391394Y23935478D01*
X44416635Y23950608D01*
X44440278Y23968143D01*
X44462089Y23987911D01*
X44481857Y24009722D01*
X44499392Y24033365D01*
X44514522Y24058606D01*
X44527105Y24085212D01*
X44537027Y24112940D01*
X44544174Y24141478D01*
X44548496Y24170615D01*
X44549941Y24200000D01*
X44548496Y24229385D01*
X44544174Y24258522D01*
X44537027Y24287060D01*
X44527105Y24314788D01*
X44514522Y24341394D01*
X44499392Y24366635D01*
X44481857Y24390278D01*
X44462089Y24412089D01*
X44440278Y24431857D01*
X44416635Y24449392D01*
X44391394Y24464522D01*
X44364788Y24477105D01*
X44337060Y24487027D01*
X44308522Y24494174D01*
X44279385Y24498496D01*
X44250000Y24499941D01*
X44220615Y24498496D01*
X44191478Y24494174D01*
X44162940Y24487027D01*
X44135212Y24477105D01*
X44108606Y24464522D01*
X44083365Y24449392D01*
X44059722Y24431857D01*
X44037911Y24412089D01*
X44018143Y24390278D01*
X44000608Y24366635D01*
X43985478Y24341394D01*
X43972895Y24314788D01*
X43962973Y24287060D01*
X43955826Y24258522D01*
X43951504Y24229385D01*
X43950059Y24200000D01*
X43951504Y24170615D01*
X43955826Y24141478D01*
X43962973Y24112940D01*
X43972895Y24085212D01*
X43985478Y24058606D01*
X44000608Y24033365D01*
X44018143Y24009722D01*
X44037911Y23987911D01*
X44059722Y23968143D01*
X44083365Y23950608D01*
X44108606Y23935478D01*
X44135212Y23922895D01*
X44162940Y23912973D01*
X44191478Y23905826D01*
X44220615Y23901504D01*
X44250000Y23900059D01*
D02*
G37*
%LPD*%
G36*
X23595000Y20600000D02*
X23595000Y35304650D01*
X30875000Y35314650D01*
X30875000Y42600000D01*
X29000000Y42600000D01*
X29000000Y37405000D01*
X17494000Y37405000D01*
X17494000Y20600000D01*
X23595000Y20600000D01*
D02*
G37*
%LPC*%
G36*
X22430000Y29504752D02*
X22375583Y29507426D01*
X22321672Y29515423D01*
X22268825Y29528660D01*
X22217514Y29547020D01*
X22168256Y29570317D01*
X22121520Y29598329D01*
X22077760Y29630784D01*
X22037381Y29667381D01*
X22000784Y29707760D01*
X21968329Y29751520D01*
X21940317Y29798256D01*
X21917020Y29847514D01*
X21898660Y29898825D01*
X21885423Y29951672D01*
X21877426Y30005583D01*
X21874752Y30060000D01*
X21877426Y30114417D01*
X21885423Y30168328D01*
X21898660Y30221175D01*
X21917020Y30272486D01*
X21940317Y30321744D01*
X21968329Y30368480D01*
X22000784Y30412240D01*
X22037381Y30452619D01*
X22077760Y30489216D01*
X22121520Y30521671D01*
X22168256Y30549683D01*
X22217514Y30572980D01*
X22268825Y30591340D01*
X22321672Y30604577D01*
X22375583Y30612574D01*
X22430000Y30615248D01*
X22484417Y30612574D01*
X22538328Y30604577D01*
X22591175Y30591340D01*
X22642486Y30572980D01*
X22691744Y30549683D01*
X22738480Y30521671D01*
X22782240Y30489216D01*
X22822619Y30452619D01*
X22859216Y30412240D01*
X22891671Y30368480D01*
X22919683Y30321744D01*
X22942980Y30272486D01*
X22961340Y30221175D01*
X22974577Y30168328D01*
X22982574Y30114417D01*
X22985248Y30060000D01*
X22982574Y30005583D01*
X22974577Y29951672D01*
X22961340Y29898825D01*
X22942980Y29847514D01*
X22919683Y29798256D01*
X22891671Y29751520D01*
X22859216Y29707760D01*
X22822619Y29667381D01*
X22782240Y29630784D01*
X22738480Y29598329D01*
X22691744Y29570317D01*
X22642486Y29547020D01*
X22591175Y29528660D01*
X22538328Y29515423D01*
X22484417Y29507426D01*
X22430000Y29504752D01*
D02*
G37*
%LPD*%
G36*
X22430000Y29760059D02*
X22459385Y29761504D01*
X22488522Y29765826D01*
X22517060Y29772973D01*
X22544788Y29782895D01*
X22571394Y29795478D01*
X22596635Y29810608D01*
X22620278Y29828143D01*
X22642089Y29847911D01*
X22661857Y29869722D01*
X22679392Y29893365D01*
X22694522Y29918606D01*
X22707105Y29945212D01*
X22717027Y29972940D01*
X22724174Y30001478D01*
X22728496Y30030615D01*
X22729941Y30060000D01*
X22728496Y30089385D01*
X22724174Y30118522D01*
X22717027Y30147060D01*
X22707105Y30174788D01*
X22694522Y30201394D01*
X22679392Y30226635D01*
X22661857Y30250278D01*
X22642089Y30272089D01*
X22620278Y30291857D01*
X22596635Y30309392D01*
X22571394Y30324522D01*
X22544788Y30337105D01*
X22517060Y30347027D01*
X22488522Y30354174D01*
X22459385Y30358496D01*
X22430000Y30359941D01*
X22400615Y30358496D01*
X22371478Y30354174D01*
X22342940Y30347027D01*
X22315212Y30337105D01*
X22288606Y30324522D01*
X22263365Y30309392D01*
X22239722Y30291857D01*
X22217911Y30272089D01*
X22198143Y30250278D01*
X22180608Y30226635D01*
X22165478Y30201394D01*
X22152895Y30174788D01*
X22142973Y30147060D01*
X22135826Y30118522D01*
X22131504Y30089385D01*
X22130059Y30060000D01*
X22131504Y30030615D01*
X22135826Y30001478D01*
X22142973Y29972940D01*
X22152895Y29945212D01*
X22165478Y29918606D01*
X22180608Y29893365D01*
X22198143Y29869722D01*
X22217911Y29847911D01*
X22239722Y29828143D01*
X22263365Y29810608D01*
X22288606Y29795478D01*
X22315212Y29782895D01*
X22342940Y29772973D01*
X22371478Y29765826D01*
X22400615Y29761504D01*
X22430000Y29760059D01*
D02*
G37*
%LPD*%
G36*
X41270000Y19900000D02*
X41270000Y29100000D01*
X59400000Y29100000D01*
X59400000Y32500000D01*
X55100000Y32500000D01*
X55100000Y31300000D01*
X31400000Y31300000D01*
X31400000Y19900000D01*
X41270000Y19900000D01*
D02*
G37*
%LPC*%
G36*
X33330000Y29844752D02*
X33275583Y29847426D01*
X33221672Y29855423D01*
X33168825Y29868660D01*
X33117514Y29887020D01*
X33068256Y29910317D01*
X33021520Y29938329D01*
X32977760Y29970784D01*
X32937381Y30007381D01*
X32900784Y30047760D01*
X32868329Y30091520D01*
X32840317Y30138256D01*
X32817020Y30187514D01*
X32798660Y30238825D01*
X32785423Y30291672D01*
X32777426Y30345583D01*
X32774752Y30400000D01*
X32777426Y30454417D01*
X32785423Y30508328D01*
X32798660Y30561175D01*
X32817020Y30612486D01*
X32840317Y30661744D01*
X32868329Y30708480D01*
X32900784Y30752240D01*
X32937381Y30792619D01*
X32977760Y30829216D01*
X33021520Y30861671D01*
X33068256Y30889683D01*
X33117514Y30912980D01*
X33168825Y30931340D01*
X33221672Y30944577D01*
X33275583Y30952574D01*
X33330000Y30955248D01*
X33384417Y30952574D01*
X33438328Y30944577D01*
X33491175Y30931340D01*
X33542486Y30912980D01*
X33591744Y30889683D01*
X33638480Y30861671D01*
X33682240Y30829216D01*
X33722619Y30792619D01*
X33759216Y30752240D01*
X33791671Y30708480D01*
X33819683Y30661744D01*
X33842980Y30612486D01*
X33861340Y30561175D01*
X33874577Y30508328D01*
X33882574Y30454417D01*
X33885248Y30400000D01*
X33882574Y30345583D01*
X33874577Y30291672D01*
X33861340Y30238825D01*
X33842980Y30187514D01*
X33819683Y30138256D01*
X33791671Y30091520D01*
X33759216Y30047760D01*
X33722619Y30007381D01*
X33682240Y29970784D01*
X33638480Y29938329D01*
X33591744Y29910317D01*
X33542486Y29887020D01*
X33491175Y29868660D01*
X33438328Y29855423D01*
X33384417Y29847426D01*
X33330000Y29844752D01*
D02*
G37*
%LPD*%
G36*
X33330000Y30100059D02*
X33359385Y30101504D01*
X33388522Y30105826D01*
X33417060Y30112973D01*
X33444788Y30122895D01*
X33471394Y30135478D01*
X33496635Y30150608D01*
X33520278Y30168143D01*
X33542089Y30187911D01*
X33561857Y30209722D01*
X33579392Y30233365D01*
X33594522Y30258606D01*
X33607105Y30285212D01*
X33617027Y30312940D01*
X33624174Y30341478D01*
X33628496Y30370615D01*
X33629941Y30400000D01*
X33628496Y30429385D01*
X33624174Y30458522D01*
X33617027Y30487060D01*
X33607105Y30514788D01*
X33594522Y30541394D01*
X33579392Y30566635D01*
X33561857Y30590278D01*
X33542089Y30612089D01*
X33520278Y30631857D01*
X33496635Y30649392D01*
X33471394Y30664522D01*
X33444788Y30677105D01*
X33417060Y30687027D01*
X33388522Y30694174D01*
X33359385Y30698496D01*
X33330000Y30699941D01*
X33300615Y30698496D01*
X33271478Y30694174D01*
X33242940Y30687027D01*
X33215212Y30677105D01*
X33188606Y30664522D01*
X33163365Y30649392D01*
X33139722Y30631857D01*
X33117911Y30612089D01*
X33098143Y30590278D01*
X33080608Y30566635D01*
X33065478Y30541394D01*
X33052895Y30514788D01*
X33042973Y30487060D01*
X33035826Y30458522D01*
X33031504Y30429385D01*
X33030059Y30400000D01*
X33031504Y30370615D01*
X33035826Y30341478D01*
X33042973Y30312940D01*
X33052895Y30285212D01*
X33065478Y30258606D01*
X33080608Y30233365D01*
X33098143Y30209722D01*
X33117911Y30187911D01*
X33139722Y30168143D01*
X33163365Y30150608D01*
X33188606Y30135478D01*
X33215212Y30122895D01*
X33242940Y30112973D01*
X33271478Y30105826D01*
X33300615Y30101504D01*
X33330000Y30100059D01*
D02*
G37*
%LPC*%
G36*
X36900000Y28894752D02*
X36845583Y28897426D01*
X36791672Y28905423D01*
X36738825Y28918660D01*
X36687514Y28937020D01*
X36638256Y28960317D01*
X36591520Y28988329D01*
X36547760Y29020784D01*
X36507381Y29057381D01*
X36470784Y29097760D01*
X36438329Y29141520D01*
X36410317Y29188256D01*
X36387020Y29237514D01*
X36368660Y29288825D01*
X36355423Y29341672D01*
X36347426Y29395583D01*
X36344752Y29450000D01*
X36347426Y29504417D01*
X36355423Y29558328D01*
X36368660Y29611175D01*
X36387020Y29662486D01*
X36410317Y29711744D01*
X36438329Y29758480D01*
X36470784Y29802240D01*
X36507381Y29842619D01*
X36547760Y29879216D01*
X36591520Y29911671D01*
X36638256Y29939683D01*
X36687514Y29962980D01*
X36738825Y29981340D01*
X36791672Y29994577D01*
X36845583Y30002574D01*
X36900000Y30005248D01*
X36954417Y30002574D01*
X37008328Y29994577D01*
X37061175Y29981340D01*
X37112486Y29962980D01*
X37161744Y29939683D01*
X37208480Y29911671D01*
X37252240Y29879216D01*
X37292619Y29842619D01*
X37329216Y29802240D01*
X37361671Y29758480D01*
X37389683Y29711744D01*
X37412980Y29662486D01*
X37431340Y29611175D01*
X37444577Y29558328D01*
X37452574Y29504417D01*
X37455248Y29450000D01*
X37452574Y29395583D01*
X37444577Y29341672D01*
X37431340Y29288825D01*
X37412980Y29237514D01*
X37389683Y29188256D01*
X37361671Y29141520D01*
X37329216Y29097760D01*
X37292619Y29057381D01*
X37252240Y29020784D01*
X37208480Y28988329D01*
X37161744Y28960317D01*
X37112486Y28937020D01*
X37061175Y28918660D01*
X37008328Y28905423D01*
X36954417Y28897426D01*
X36900000Y28894752D01*
D02*
G37*
%LPD*%
G36*
X36900000Y29150059D02*
X36929385Y29151504D01*
X36958522Y29155826D01*
X36987060Y29162973D01*
X37014788Y29172895D01*
X37041394Y29185478D01*
X37066635Y29200608D01*
X37090278Y29218143D01*
X37112089Y29237911D01*
X37131857Y29259722D01*
X37149392Y29283365D01*
X37164522Y29308606D01*
X37177105Y29335212D01*
X37187027Y29362940D01*
X37194174Y29391478D01*
X37198496Y29420615D01*
X37199941Y29450000D01*
X37198496Y29479385D01*
X37194174Y29508522D01*
X37187027Y29537060D01*
X37177105Y29564788D01*
X37164522Y29591394D01*
X37149392Y29616635D01*
X37131857Y29640278D01*
X37112089Y29662089D01*
X37090278Y29681857D01*
X37066635Y29699392D01*
X37041394Y29714522D01*
X37014788Y29727105D01*
X36987060Y29737027D01*
X36958522Y29744174D01*
X36929385Y29748496D01*
X36900000Y29749941D01*
X36870615Y29748496D01*
X36841478Y29744174D01*
X36812940Y29737027D01*
X36785212Y29727105D01*
X36758606Y29714522D01*
X36733365Y29699392D01*
X36709722Y29681857D01*
X36687911Y29662089D01*
X36668143Y29640278D01*
X36650608Y29616635D01*
X36635478Y29591394D01*
X36622895Y29564788D01*
X36612973Y29537060D01*
X36605826Y29508522D01*
X36601504Y29479385D01*
X36600059Y29450000D01*
X36601504Y29420615D01*
X36605826Y29391478D01*
X36612973Y29362940D01*
X36622895Y29335212D01*
X36635478Y29308606D01*
X36650608Y29283365D01*
X36668143Y29259722D01*
X36687911Y29237911D01*
X36709722Y29218143D01*
X36733365Y29200608D01*
X36758606Y29185478D01*
X36785212Y29172895D01*
X36812940Y29162973D01*
X36841478Y29155826D01*
X36870615Y29151504D01*
X36900000Y29150059D01*
D02*
G37*
%LPC*%
G36*
X36500000Y24194752D02*
X36445583Y24197426D01*
X36391672Y24205423D01*
X36338825Y24218660D01*
X36287514Y24237020D01*
X36238256Y24260317D01*
X36191520Y24288329D01*
X36147760Y24320784D01*
X36107381Y24357381D01*
X36070784Y24397760D01*
X36038329Y24441520D01*
X36010317Y24488256D01*
X35987020Y24537514D01*
X35968660Y24588825D01*
X35955423Y24641672D01*
X35947426Y24695583D01*
X35944752Y24750000D01*
X35947426Y24804417D01*
X35955423Y24858328D01*
X35968660Y24911175D01*
X35987020Y24962486D01*
X36010317Y25011744D01*
X36038329Y25058480D01*
X36070784Y25102240D01*
X36107381Y25142619D01*
X36147760Y25179216D01*
X36191520Y25211671D01*
X36238256Y25239683D01*
X36287514Y25262980D01*
X36338825Y25281340D01*
X36391672Y25294577D01*
X36445583Y25302574D01*
X36500000Y25305248D01*
X36554417Y25302574D01*
X36608328Y25294577D01*
X36661175Y25281340D01*
X36712486Y25262980D01*
X36761744Y25239683D01*
X36808480Y25211671D01*
X36852240Y25179216D01*
X36892619Y25142619D01*
X36929216Y25102240D01*
X36961671Y25058480D01*
X36989683Y25011744D01*
X37012980Y24962486D01*
X37031340Y24911175D01*
X37044577Y24858328D01*
X37052574Y24804417D01*
X37055248Y24750000D01*
X37052574Y24695583D01*
X37044577Y24641672D01*
X37031340Y24588825D01*
X37012980Y24537514D01*
X36989683Y24488256D01*
X36961671Y24441520D01*
X36929216Y24397760D01*
X36892619Y24357381D01*
X36852240Y24320784D01*
X36808480Y24288329D01*
X36761744Y24260317D01*
X36712486Y24237020D01*
X36661175Y24218660D01*
X36608328Y24205423D01*
X36554417Y24197426D01*
X36500000Y24194752D01*
D02*
G37*
%LPD*%
G36*
X36500000Y24450059D02*
X36529385Y24451504D01*
X36558522Y24455826D01*
X36587060Y24462973D01*
X36614788Y24472895D01*
X36641394Y24485478D01*
X36666635Y24500608D01*
X36690278Y24518143D01*
X36712089Y24537911D01*
X36731857Y24559722D01*
X36749392Y24583365D01*
X36764522Y24608606D01*
X36777105Y24635212D01*
X36787027Y24662940D01*
X36794174Y24691478D01*
X36798496Y24720615D01*
X36799941Y24750000D01*
X36798496Y24779385D01*
X36794174Y24808522D01*
X36787027Y24837060D01*
X36777105Y24864788D01*
X36764522Y24891394D01*
X36749392Y24916635D01*
X36731857Y24940278D01*
X36712089Y24962089D01*
X36690278Y24981857D01*
X36666635Y24999392D01*
X36641394Y25014522D01*
X36614788Y25027105D01*
X36587060Y25037027D01*
X36558522Y25044174D01*
X36529385Y25048496D01*
X36500000Y25049941D01*
X36470615Y25048496D01*
X36441478Y25044174D01*
X36412940Y25037027D01*
X36385212Y25027105D01*
X36358606Y25014522D01*
X36333365Y24999392D01*
X36309722Y24981857D01*
X36287911Y24962089D01*
X36268143Y24940278D01*
X36250608Y24916635D01*
X36235478Y24891394D01*
X36222895Y24864788D01*
X36212973Y24837060D01*
X36205826Y24808522D01*
X36201504Y24779385D01*
X36200059Y24750000D01*
X36201504Y24720615D01*
X36205826Y24691478D01*
X36212973Y24662940D01*
X36222895Y24635212D01*
X36235478Y24608606D01*
X36250608Y24583365D01*
X36268143Y24559722D01*
X36287911Y24537911D01*
X36309722Y24518143D01*
X36333365Y24500608D01*
X36358606Y24485478D01*
X36385212Y24472895D01*
X36412940Y24462973D01*
X36441478Y24455826D01*
X36470615Y24451504D01*
X36500000Y24450059D01*
D02*
G37*
%LPC*%
G36*
X32900000Y24194752D02*
X32845583Y24197426D01*
X32791672Y24205423D01*
X32738825Y24218660D01*
X32687514Y24237020D01*
X32638256Y24260317D01*
X32591520Y24288329D01*
X32547760Y24320784D01*
X32507381Y24357381D01*
X32470784Y24397760D01*
X32438329Y24441520D01*
X32410317Y24488256D01*
X32387020Y24537514D01*
X32368660Y24588825D01*
X32355423Y24641672D01*
X32347426Y24695583D01*
X32344752Y24750000D01*
X32347426Y24804417D01*
X32355423Y24858328D01*
X32368660Y24911175D01*
X32387020Y24962486D01*
X32410317Y25011744D01*
X32438329Y25058480D01*
X32470784Y25102240D01*
X32507381Y25142619D01*
X32547760Y25179216D01*
X32591520Y25211671D01*
X32638256Y25239683D01*
X32687514Y25262980D01*
X32738825Y25281340D01*
X32791672Y25294577D01*
X32845583Y25302574D01*
X32900000Y25305248D01*
X32954417Y25302574D01*
X33008328Y25294577D01*
X33061175Y25281340D01*
X33112486Y25262980D01*
X33161744Y25239683D01*
X33208480Y25211671D01*
X33252240Y25179216D01*
X33292619Y25142619D01*
X33329216Y25102240D01*
X33361671Y25058480D01*
X33389683Y25011744D01*
X33412980Y24962486D01*
X33431340Y24911175D01*
X33444577Y24858328D01*
X33452574Y24804417D01*
X33455248Y24750000D01*
X33452574Y24695583D01*
X33444577Y24641672D01*
X33431340Y24588825D01*
X33412980Y24537514D01*
X33389683Y24488256D01*
X33361671Y24441520D01*
X33329216Y24397760D01*
X33292619Y24357381D01*
X33252240Y24320784D01*
X33208480Y24288329D01*
X33161744Y24260317D01*
X33112486Y24237020D01*
X33061175Y24218660D01*
X33008328Y24205423D01*
X32954417Y24197426D01*
X32900000Y24194752D01*
D02*
G37*
%LPD*%
G36*
X32900000Y24450059D02*
X32929385Y24451504D01*
X32958522Y24455826D01*
X32987060Y24462973D01*
X33014788Y24472895D01*
X33041394Y24485478D01*
X33066635Y24500608D01*
X33090278Y24518143D01*
X33112089Y24537911D01*
X33131857Y24559722D01*
X33149392Y24583365D01*
X33164522Y24608606D01*
X33177105Y24635212D01*
X33187027Y24662940D01*
X33194174Y24691478D01*
X33198496Y24720615D01*
X33199941Y24750000D01*
X33198496Y24779385D01*
X33194174Y24808522D01*
X33187027Y24837060D01*
X33177105Y24864788D01*
X33164522Y24891394D01*
X33149392Y24916635D01*
X33131857Y24940278D01*
X33112089Y24962089D01*
X33090278Y24981857D01*
X33066635Y24999392D01*
X33041394Y25014522D01*
X33014788Y25027105D01*
X32987060Y25037027D01*
X32958522Y25044174D01*
X32929385Y25048496D01*
X32900000Y25049941D01*
X32870615Y25048496D01*
X32841478Y25044174D01*
X32812940Y25037027D01*
X32785212Y25027105D01*
X32758606Y25014522D01*
X32733365Y24999392D01*
X32709722Y24981857D01*
X32687911Y24962089D01*
X32668143Y24940278D01*
X32650608Y24916635D01*
X32635478Y24891394D01*
X32622895Y24864788D01*
X32612973Y24837060D01*
X32605826Y24808522D01*
X32601504Y24779385D01*
X32600059Y24750000D01*
X32601504Y24720615D01*
X32605826Y24691478D01*
X32612973Y24662940D01*
X32622895Y24635212D01*
X32635478Y24608606D01*
X32650608Y24583365D01*
X32668143Y24559722D01*
X32687911Y24537911D01*
X32709722Y24518143D01*
X32733365Y24500608D01*
X32758606Y24485478D01*
X32785212Y24472895D01*
X32812940Y24462973D01*
X32841478Y24455826D01*
X32870615Y24451504D01*
X32900000Y24450059D01*
D02*
G37*
%LPC*%
G36*
X38550000Y23624752D02*
X38495583Y23627426D01*
X38441672Y23635423D01*
X38388825Y23648660D01*
X38337514Y23667020D01*
X38288256Y23690317D01*
X38241520Y23718329D01*
X38197760Y23750784D01*
X38157381Y23787381D01*
X38120784Y23827760D01*
X38088329Y23871520D01*
X38060317Y23918256D01*
X38037020Y23967514D01*
X38018660Y24018825D01*
X38005423Y24071672D01*
X37997426Y24125583D01*
X37994752Y24180000D01*
X37997426Y24234417D01*
X38005423Y24288328D01*
X38018660Y24341175D01*
X38037020Y24392486D01*
X38060317Y24441744D01*
X38088329Y24488480D01*
X38120784Y24532240D01*
X38157381Y24572619D01*
X38197760Y24609216D01*
X38241520Y24641671D01*
X38288256Y24669683D01*
X38337514Y24692980D01*
X38388825Y24711340D01*
X38441672Y24724577D01*
X38495583Y24732574D01*
X38550000Y24735248D01*
X38604417Y24732574D01*
X38658328Y24724577D01*
X38711175Y24711340D01*
X38762486Y24692980D01*
X38811744Y24669683D01*
X38858480Y24641671D01*
X38902240Y24609216D01*
X38942619Y24572619D01*
X38979216Y24532240D01*
X39011671Y24488480D01*
X39039683Y24441744D01*
X39062980Y24392486D01*
X39081340Y24341175D01*
X39094577Y24288328D01*
X39102574Y24234417D01*
X39105248Y24180000D01*
X39102574Y24125583D01*
X39094577Y24071672D01*
X39081340Y24018825D01*
X39062980Y23967514D01*
X39039683Y23918256D01*
X39011671Y23871520D01*
X38979216Y23827760D01*
X38942619Y23787381D01*
X38902240Y23750784D01*
X38858480Y23718329D01*
X38811744Y23690317D01*
X38762486Y23667020D01*
X38711175Y23648660D01*
X38658328Y23635423D01*
X38604417Y23627426D01*
X38550000Y23624752D01*
D02*
G37*
%LPD*%
G36*
X38550000Y23880059D02*
X38579385Y23881504D01*
X38608522Y23885826D01*
X38637060Y23892973D01*
X38664788Y23902895D01*
X38691394Y23915478D01*
X38716635Y23930608D01*
X38740278Y23948143D01*
X38762089Y23967911D01*
X38781857Y23989722D01*
X38799392Y24013365D01*
X38814522Y24038606D01*
X38827105Y24065212D01*
X38837027Y24092940D01*
X38844174Y24121478D01*
X38848496Y24150615D01*
X38849941Y24180000D01*
X38848496Y24209385D01*
X38844174Y24238522D01*
X38837027Y24267060D01*
X38827105Y24294788D01*
X38814522Y24321394D01*
X38799392Y24346635D01*
X38781857Y24370278D01*
X38762089Y24392089D01*
X38740278Y24411857D01*
X38716635Y24429392D01*
X38691394Y24444522D01*
X38664788Y24457105D01*
X38637060Y24467027D01*
X38608522Y24474174D01*
X38579385Y24478496D01*
X38550000Y24479941D01*
X38520615Y24478496D01*
X38491478Y24474174D01*
X38462940Y24467027D01*
X38435212Y24457105D01*
X38408606Y24444522D01*
X38383365Y24429392D01*
X38359722Y24411857D01*
X38337911Y24392089D01*
X38318143Y24370278D01*
X38300608Y24346635D01*
X38285478Y24321394D01*
X38272895Y24294788D01*
X38262973Y24267060D01*
X38255826Y24238522D01*
X38251504Y24209385D01*
X38250059Y24180000D01*
X38251504Y24150615D01*
X38255826Y24121478D01*
X38262973Y24092940D01*
X38272895Y24065212D01*
X38285478Y24038606D01*
X38300608Y24013365D01*
X38318143Y23989722D01*
X38337911Y23967911D01*
X38359722Y23948143D01*
X38383365Y23930608D01*
X38408606Y23915478D01*
X38435212Y23902895D01*
X38462940Y23892973D01*
X38491478Y23885826D01*
X38520615Y23881504D01*
X38550000Y23880059D01*
D02*
G37*
%LPC*%
G36*
X3452917Y37953382D02*
X3340653Y37958897D01*
X3229464Y37975391D01*
X3120436Y38002701D01*
X3014612Y38040565D01*
X2913007Y38088620D01*
X2816589Y38146411D01*
X2726308Y38213368D01*
X2643029Y38288849D01*
X2567548Y38372128D01*
X2500591Y38462409D01*
X2442800Y38558827D01*
X2394745Y38660432D01*
X2356881Y38766256D01*
X2329571Y38875284D01*
X2313077Y38986473D01*
X2307562Y39098737D01*
X2313077Y39211001D01*
X2329571Y39322190D01*
X2356881Y39431218D01*
X2394745Y39537042D01*
X2442800Y39638647D01*
X2500591Y39735065D01*
X2567548Y39825346D01*
X2643029Y39908625D01*
X2726308Y39984106D01*
X2816589Y40051063D01*
X2913007Y40108854D01*
X3014612Y40156909D01*
X3120436Y40194773D01*
X3229464Y40222083D01*
X3340653Y40238577D01*
X3452917Y40244092D01*
X3565181Y40238577D01*
X3676370Y40222083D01*
X3785398Y40194773D01*
X3891222Y40156909D01*
X3992827Y40108854D01*
X4089245Y40051063D01*
X4179526Y39984106D01*
X4262805Y39908625D01*
X4338286Y39825346D01*
X4405243Y39735065D01*
X4463034Y39638647D01*
X4511089Y39537042D01*
X4548953Y39431218D01*
X4576263Y39322190D01*
X4592757Y39211002D01*
X4596057Y39143830D01*
X4598272Y39098737D01*
X4592757Y38986473D01*
X4576263Y38875284D01*
X4548953Y38766256D01*
X4511089Y38660432D01*
X4463034Y38558827D01*
X4405243Y38462409D01*
X4338286Y38372128D01*
X4262805Y38288849D01*
X4179526Y38213368D01*
X4089245Y38146411D01*
X3992827Y38088620D01*
X3891222Y38040565D01*
X3785398Y38002701D01*
X3676370Y37975391D01*
X3565181Y37958897D01*
X3452917Y37953382D01*
D02*
G37*
%LPC*%
G36*
X11352917Y37953382D02*
X11240653Y37958897D01*
X11129464Y37975391D01*
X11020436Y38002701D01*
X10914612Y38040565D01*
X10813007Y38088620D01*
X10716589Y38146411D01*
X10626308Y38213368D01*
X10543029Y38288849D01*
X10467548Y38372128D01*
X10400591Y38462409D01*
X10342800Y38558827D01*
X10294745Y38660432D01*
X10256881Y38766256D01*
X10229571Y38875284D01*
X10213077Y38986473D01*
X10207562Y39098737D01*
X10213077Y39211001D01*
X10229571Y39322190D01*
X10256881Y39431218D01*
X10294745Y39537042D01*
X10342800Y39638647D01*
X10400591Y39735065D01*
X10467548Y39825346D01*
X10543029Y39908625D01*
X10626308Y39984106D01*
X10716589Y40051063D01*
X10813007Y40108854D01*
X10914612Y40156909D01*
X11020436Y40194773D01*
X11129464Y40222083D01*
X11240653Y40238577D01*
X11352917Y40244092D01*
X11465181Y40238577D01*
X11576370Y40222083D01*
X11685398Y40194773D01*
X11791222Y40156909D01*
X11892827Y40108854D01*
X11989245Y40051063D01*
X12079526Y39984106D01*
X12162805Y39908625D01*
X12238286Y39825346D01*
X12305243Y39735065D01*
X12363034Y39638647D01*
X12411089Y39537042D01*
X12448953Y39431218D01*
X12476263Y39322190D01*
X12492757Y39211002D01*
X12496057Y39143830D01*
X12498272Y39098737D01*
X12492757Y38986473D01*
X12476263Y38875284D01*
X12448953Y38766256D01*
X12411089Y38660432D01*
X12363034Y38558827D01*
X12305243Y38462409D01*
X12238286Y38372128D01*
X12162805Y38288849D01*
X12079526Y38213368D01*
X11989245Y38146411D01*
X11892827Y38088620D01*
X11791222Y38040565D01*
X11685398Y38002701D01*
X11576370Y37975391D01*
X11465181Y37958897D01*
X11352917Y37953382D01*
D02*
G37*
%LPC*%
G36*
X5802917Y39248737D02*
X4813620Y39248737D01*
X4824661Y39323167D01*
X4852090Y39432671D01*
X4890120Y39538958D01*
X4938388Y39641015D01*
X4996428Y39737845D01*
X5063673Y39828515D01*
X5139489Y39912165D01*
X5223139Y39987981D01*
X5313809Y40055226D01*
X5410639Y40113266D01*
X5512696Y40161534D01*
X5618983Y40199564D01*
X5728487Y40226993D01*
X5802917Y40238034D01*
X5802917Y39248737D01*
D02*
G37*
%LPC*%
G36*
X7092214Y39248737D02*
X6102917Y39248737D01*
X6102917Y40238034D01*
X6177347Y40226993D01*
X6286851Y40199564D01*
X6393138Y40161534D01*
X6495195Y40113266D01*
X6592025Y40055226D01*
X6682695Y39987981D01*
X6766345Y39912165D01*
X6842161Y39828515D01*
X6909406Y39737845D01*
X6967446Y39641015D01*
X7015714Y39538958D01*
X7053744Y39432671D01*
X7081173Y39323167D01*
X7092214Y39248737D01*
D02*
G37*
%LPC*%
G36*
X13702917Y39248737D02*
X12713620Y39248737D01*
X12724661Y39323167D01*
X12752090Y39432671D01*
X12790120Y39538958D01*
X12838388Y39641015D01*
X12896428Y39737845D01*
X12963673Y39828515D01*
X13039489Y39912165D01*
X13123139Y39987981D01*
X13213809Y40055226D01*
X13310639Y40113266D01*
X13412696Y40161534D01*
X13518983Y40199564D01*
X13628487Y40226993D01*
X13702917Y40238034D01*
X13702917Y39248737D01*
D02*
G37*
%LPC*%
G36*
X14992214Y39248737D02*
X14002917Y39248737D01*
X14002917Y40238034D01*
X14077347Y40226993D01*
X14186851Y40199564D01*
X14293138Y40161534D01*
X14395195Y40113266D01*
X14492025Y40055226D01*
X14582695Y39987981D01*
X14666345Y39912165D01*
X14742161Y39828515D01*
X14809406Y39737845D01*
X14867446Y39641015D01*
X14915714Y39538958D01*
X14953744Y39432671D01*
X14981173Y39323167D01*
X14992214Y39248737D01*
D02*
G37*
%LPC*%
G36*
X13702917Y37959440D02*
X13628487Y37970481D01*
X13518983Y37997910D01*
X13412696Y38035940D01*
X13310639Y38084208D01*
X13213809Y38142248D01*
X13123139Y38209493D01*
X13039489Y38285309D01*
X12963673Y38368959D01*
X12896428Y38459629D01*
X12838388Y38556459D01*
X12790120Y38658516D01*
X12752090Y38764803D01*
X12724661Y38874307D01*
X12713620Y38948737D01*
X13702917Y38948737D01*
X13702917Y37959440D01*
D02*
G37*
%LPC*%
G36*
X6102917Y37959440D02*
X6102917Y38948737D01*
X7092214Y38948737D01*
X7081173Y38874307D01*
X7053744Y38764803D01*
X7015714Y38658516D01*
X6967446Y38556459D01*
X6909406Y38459629D01*
X6842161Y38368959D01*
X6766345Y38285309D01*
X6682695Y38209493D01*
X6592025Y38142248D01*
X6495195Y38084208D01*
X6393138Y38035940D01*
X6286851Y37997910D01*
X6177347Y37970481D01*
X6102917Y37959440D01*
D02*
G37*
%LPC*%
G36*
X5802917Y37959440D02*
X5728487Y37970481D01*
X5618983Y37997910D01*
X5512696Y38035940D01*
X5410639Y38084208D01*
X5313809Y38142248D01*
X5223139Y38209493D01*
X5139489Y38285309D01*
X5063673Y38368959D01*
X4996428Y38459629D01*
X4938388Y38556459D01*
X4890120Y38658516D01*
X4852090Y38764803D01*
X4824661Y38874307D01*
X4813620Y38948737D01*
X5802917Y38948737D01*
X5802917Y37959440D01*
D02*
G37*
%LPC*%
G36*
X14002917Y37959440D02*
X14002917Y38948737D01*
X14992214Y38948737D01*
X14981173Y38874307D01*
X14953744Y38764803D01*
X14915714Y38658516D01*
X14867446Y38556459D01*
X14809406Y38459629D01*
X14742161Y38368959D01*
X14666345Y38285309D01*
X14582695Y38209493D01*
X14492025Y38142248D01*
X14395195Y38084208D01*
X14293138Y38035940D01*
X14186851Y37997910D01*
X14077347Y37970481D01*
X14002917Y37959440D01*
D02*
G37*
%LPC*%
G36*
X35800000Y37344753D02*
X35735774Y37347909D01*
X35672167Y37357345D01*
X35609790Y37372968D01*
X35549243Y37394634D01*
X35491122Y37422123D01*
X35435966Y37455182D01*
X35384316Y37493488D01*
X35336670Y37536670D01*
X35293488Y37584316D01*
X35255182Y37635966D01*
X35222123Y37691122D01*
X35194634Y37749243D01*
X35172968Y37809790D01*
X35157345Y37872167D01*
X35147909Y37935774D01*
X35144753Y38000000D01*
X35147909Y38064226D01*
X35157345Y38127833D01*
X35172968Y38190210D01*
X35194634Y38250757D01*
X35222123Y38308878D01*
X35255182Y38364034D01*
X35293488Y38415684D01*
X35336670Y38463330D01*
X35384316Y38506512D01*
X35435966Y38544818D01*
X35491122Y38577877D01*
X35549243Y38605366D01*
X35609790Y38627032D01*
X35672167Y38642655D01*
X35735774Y38652091D01*
X35800000Y38655247D01*
X35864226Y38652091D01*
X35927833Y38642655D01*
X35990210Y38627032D01*
X36050757Y38605366D01*
X36108878Y38577877D01*
X36164034Y38544818D01*
X36215684Y38506512D01*
X36263330Y38463330D01*
X36306512Y38415684D01*
X36344818Y38364034D01*
X36377877Y38308878D01*
X36405366Y38250757D01*
X36427032Y38190210D01*
X36442655Y38127833D01*
X36452091Y38064226D01*
X36455247Y38000000D01*
X36452091Y37935774D01*
X36442655Y37872167D01*
X36427032Y37809790D01*
X36405366Y37749243D01*
X36377877Y37691122D01*
X36344818Y37635966D01*
X36306512Y37584316D01*
X36263330Y37536670D01*
X36215684Y37493488D01*
X36164034Y37455182D01*
X36108878Y37422123D01*
X36050757Y37394634D01*
X35990210Y37372968D01*
X35927833Y37357345D01*
X35864226Y37347909D01*
X35800000Y37344753D01*
D02*
G37*
%LPC*%
G36*
X9960000Y32954645D02*
X9847736Y32960160D01*
X9736547Y32976654D01*
X9627519Y33003964D01*
X9521695Y33041828D01*
X9420090Y33089883D01*
X9323672Y33147674D01*
X9233391Y33214631D01*
X9150112Y33290112D01*
X9074631Y33373391D01*
X9007674Y33463672D01*
X8949883Y33560090D01*
X8901828Y33661695D01*
X8863964Y33767519D01*
X8836654Y33876547D01*
X8820160Y33987736D01*
X8814645Y34100000D01*
X8820160Y34212264D01*
X8836654Y34323453D01*
X8863964Y34432481D01*
X8901828Y34538305D01*
X8949883Y34639910D01*
X9007674Y34736328D01*
X9074631Y34826609D01*
X9150112Y34909888D01*
X9233391Y34985369D01*
X9323672Y35052326D01*
X9420090Y35110117D01*
X9521695Y35158172D01*
X9627519Y35196036D01*
X9736547Y35223346D01*
X9847736Y35239840D01*
X9960000Y35245355D01*
X10072264Y35239840D01*
X10183453Y35223346D01*
X10292481Y35196036D01*
X10398305Y35158172D01*
X10499910Y35110117D01*
X10596328Y35052326D01*
X10686609Y34985369D01*
X10769888Y34909888D01*
X10845369Y34826609D01*
X10912326Y34736328D01*
X10970117Y34639910D01*
X11018172Y34538305D01*
X11056036Y34432481D01*
X11083346Y34323453D01*
X11099840Y34212264D01*
X11105355Y34100000D01*
X11099840Y33987736D01*
X11083346Y33876547D01*
X11056036Y33767519D01*
X11018172Y33661695D01*
X10970117Y33560090D01*
X10912326Y33463672D01*
X10845369Y33373391D01*
X10769888Y33290112D01*
X10686609Y33214631D01*
X10596328Y33147674D01*
X10499910Y33089883D01*
X10398305Y33041828D01*
X10292481Y33003964D01*
X10183453Y32976654D01*
X10072264Y32960160D01*
X9960000Y32954645D01*
D02*
G37*
%LPC*%
G36*
X2190000Y34250000D02*
X1200703Y34250000D01*
X1211744Y34324430D01*
X1239173Y34433934D01*
X1277203Y34540221D01*
X1325471Y34642278D01*
X1383511Y34739108D01*
X1450756Y34829778D01*
X1526572Y34913428D01*
X1610222Y34989244D01*
X1700892Y35056489D01*
X1797722Y35114529D01*
X1899779Y35162797D01*
X2006066Y35200827D01*
X2115570Y35228256D01*
X2190000Y35239297D01*
X2190000Y34250000D01*
D02*
G37*
%LPC*%
G36*
X3479297Y34250000D02*
X2490000Y34250000D01*
X2490000Y35239297D01*
X2564430Y35228256D01*
X2673934Y35200827D01*
X2780221Y35162797D01*
X2882278Y35114529D01*
X2979108Y35056489D01*
X3069778Y34989244D01*
X3153428Y34913428D01*
X3229244Y34829778D01*
X3296489Y34739108D01*
X3354529Y34642278D01*
X3402797Y34540221D01*
X3440827Y34433934D01*
X3468256Y34324430D01*
X3479297Y34250000D01*
D02*
G37*
%LPC*%
G36*
X36400000Y33254752D02*
X36330883Y33258148D01*
X36262405Y33268307D01*
X36195284Y33285118D01*
X36130114Y33308438D01*
X36067551Y33338027D01*
X36008179Y33373614D01*
X35952599Y33414834D01*
X35901315Y33461315D01*
X35854834Y33512599D01*
X35813614Y33568179D01*
X35778027Y33627551D01*
X35748438Y33690114D01*
X35725118Y33755284D01*
X35708307Y33822405D01*
X35698148Y33890883D01*
X35694752Y33960000D01*
X35698148Y34029117D01*
X35708307Y34097595D01*
X35725118Y34164716D01*
X35748438Y34229886D01*
X35778027Y34292449D01*
X35813614Y34351821D01*
X35854834Y34407401D01*
X35901315Y34458685D01*
X35952599Y34505166D01*
X36008179Y34546386D01*
X36067551Y34581973D01*
X36130114Y34611562D01*
X36195284Y34634882D01*
X36262405Y34651693D01*
X36330883Y34661852D01*
X36400000Y34665248D01*
X36469117Y34661852D01*
X36537595Y34651693D01*
X36604716Y34634882D01*
X36669886Y34611562D01*
X36732449Y34581973D01*
X36791821Y34546386D01*
X36847401Y34505166D01*
X36898685Y34458685D01*
X36945166Y34407401D01*
X36986386Y34351821D01*
X37021973Y34292449D01*
X37051562Y34229886D01*
X37074882Y34164716D01*
X37091693Y34097595D01*
X37101852Y34029117D01*
X37105248Y33960000D01*
X37101852Y33890883D01*
X37091693Y33822405D01*
X37074882Y33755284D01*
X37051562Y33690114D01*
X37021973Y33627551D01*
X36986386Y33568179D01*
X36945166Y33512599D01*
X36898685Y33461315D01*
X36847401Y33414834D01*
X36791821Y33373614D01*
X36732449Y33338027D01*
X36669886Y33308438D01*
X36604716Y33285118D01*
X36537595Y33268307D01*
X36469117Y33258148D01*
X36400000Y33254752D01*
D02*
G37*
%LPC*%
G36*
X2490000Y32960703D02*
X2490000Y33950000D01*
X3479297Y33950000D01*
X3468256Y33875570D01*
X3440827Y33766066D01*
X3402797Y33659779D01*
X3354529Y33557722D01*
X3296489Y33460892D01*
X3229244Y33370222D01*
X3153428Y33286572D01*
X3069778Y33210756D01*
X2979108Y33143511D01*
X2882278Y33085471D01*
X2780221Y33037203D01*
X2673934Y32999173D01*
X2564430Y32971744D01*
X2490000Y32960703D01*
D02*
G37*
%LPC*%
G36*
X2190000Y32960703D02*
X2115570Y32971744D01*
X2006066Y32999173D01*
X1899779Y33037203D01*
X1797722Y33085471D01*
X1700892Y33143511D01*
X1610222Y33210756D01*
X1526572Y33286572D01*
X1450756Y33370222D01*
X1383511Y33460892D01*
X1325471Y33557722D01*
X1277203Y33659779D01*
X1239173Y33766066D01*
X1211744Y33875570D01*
X1200703Y33950000D01*
X2190000Y33950000D01*
X2190000Y32960703D01*
D02*
G37*
%LPC*%
G36*
X47300000Y31844753D02*
X47235774Y31847909D01*
X47172167Y31857345D01*
X47109790Y31872968D01*
X47049243Y31894634D01*
X46991122Y31922123D01*
X46935966Y31955182D01*
X46884316Y31993488D01*
X46836670Y32036670D01*
X46793488Y32084316D01*
X46755182Y32135966D01*
X46722123Y32191122D01*
X46694634Y32249243D01*
X46672968Y32309790D01*
X46657345Y32372167D01*
X46647909Y32435774D01*
X46644753Y32500000D01*
X46647909Y32564226D01*
X46657345Y32627833D01*
X46672968Y32690210D01*
X46694634Y32750757D01*
X46722123Y32808878D01*
X46755182Y32864034D01*
X46793488Y32915684D01*
X46836670Y32963330D01*
X46884316Y33006512D01*
X46935966Y33044818D01*
X46991122Y33077877D01*
X47049243Y33105366D01*
X47109790Y33127032D01*
X47172167Y33142655D01*
X47235774Y33152091D01*
X47300000Y33155247D01*
X47364226Y33152091D01*
X47427833Y33142655D01*
X47490210Y33127032D01*
X47550757Y33105366D01*
X47608878Y33077877D01*
X47664034Y33044818D01*
X47715684Y33006512D01*
X47763330Y32963330D01*
X47806512Y32915684D01*
X47844818Y32864034D01*
X47877877Y32808878D01*
X47905366Y32750757D01*
X47927032Y32690210D01*
X47942655Y32627833D01*
X47952091Y32564226D01*
X47955247Y32500000D01*
X47952091Y32435774D01*
X47942655Y32372167D01*
X47927032Y32309790D01*
X47905366Y32249243D01*
X47877877Y32191122D01*
X47844818Y32135966D01*
X47806512Y32084316D01*
X47763330Y32036670D01*
X47715684Y31993488D01*
X47664034Y31955182D01*
X47608878Y31922123D01*
X47550757Y31894634D01*
X47490210Y31872968D01*
X47427833Y31857345D01*
X47364226Y31847909D01*
X47300000Y31844753D01*
D02*
G37*
%LPC*%
G36*
X4730000Y29694645D02*
X4637339Y29699197D01*
X4545565Y29712811D01*
X4455578Y29735351D01*
X4368229Y29766606D01*
X4284356Y29806275D01*
X4204794Y29853962D01*
X4130274Y29909231D01*
X4061533Y29971533D01*
X3999231Y30040274D01*
X3943962Y30114794D01*
X3896275Y30194356D01*
X3856606Y30278229D01*
X3825351Y30365578D01*
X3802811Y30455565D01*
X3789197Y30547339D01*
X3784645Y30640000D01*
X3789197Y30732661D01*
X3802811Y30824435D01*
X3825351Y30914422D01*
X3856606Y31001771D01*
X3896275Y31085644D01*
X3943962Y31165206D01*
X3999231Y31239726D01*
X4061533Y31308467D01*
X4130274Y31370769D01*
X4204794Y31426038D01*
X4284356Y31473725D01*
X4368229Y31513394D01*
X4455578Y31544649D01*
X4545565Y31567189D01*
X4637339Y31580803D01*
X4730000Y31585355D01*
X4822661Y31580803D01*
X4914435Y31567189D01*
X5004422Y31544649D01*
X5091771Y31513394D01*
X5175644Y31473725D01*
X5255206Y31426038D01*
X5329726Y31370769D01*
X5398467Y31308467D01*
X5460769Y31239726D01*
X5516038Y31165206D01*
X5563725Y31085644D01*
X5603394Y31001771D01*
X5634649Y30914422D01*
X5657189Y30824435D01*
X5670803Y30732661D01*
X5675355Y30640000D01*
X5670803Y30547339D01*
X5657189Y30455565D01*
X5634649Y30365578D01*
X5603394Y30278229D01*
X5563725Y30194356D01*
X5516038Y30114794D01*
X5460769Y30040274D01*
X5398467Y29971533D01*
X5329726Y29909231D01*
X5255206Y29853962D01*
X5175644Y29806275D01*
X5091771Y29766606D01*
X5004422Y29735351D01*
X4914435Y29712811D01*
X4822661Y29699197D01*
X4730000Y29694645D01*
D02*
G37*
%LPC*%
G36*
X12300000Y28054752D02*
X12230883Y28058148D01*
X12162405Y28068307D01*
X12095284Y28085118D01*
X12030114Y28108438D01*
X11967551Y28138027D01*
X11908179Y28173614D01*
X11852599Y28214834D01*
X11801315Y28261315D01*
X11754834Y28312599D01*
X11713614Y28368179D01*
X11678027Y28427551D01*
X11648438Y28490114D01*
X11625118Y28555284D01*
X11608307Y28622405D01*
X11598148Y28690883D01*
X11594752Y28760000D01*
X11598148Y28829117D01*
X11608307Y28897595D01*
X11625118Y28964716D01*
X11648438Y29029886D01*
X11678027Y29092449D01*
X11713614Y29151821D01*
X11754834Y29207401D01*
X11801315Y29258685D01*
X11852599Y29305166D01*
X11908179Y29346386D01*
X11967551Y29381973D01*
X12030114Y29411562D01*
X12095284Y29434882D01*
X12162405Y29451693D01*
X12230883Y29461852D01*
X12300000Y29465248D01*
X12369117Y29461852D01*
X12437595Y29451693D01*
X12504716Y29434882D01*
X12569886Y29411562D01*
X12632449Y29381973D01*
X12691821Y29346386D01*
X12747401Y29305166D01*
X12798685Y29258685D01*
X12845166Y29207401D01*
X12886386Y29151821D01*
X12921973Y29092449D01*
X12951562Y29029886D01*
X12974882Y28964716D01*
X12991693Y28897595D01*
X13001852Y28829117D01*
X13005248Y28760000D01*
X13001852Y28690883D01*
X12991693Y28622405D01*
X12974882Y28555284D01*
X12951562Y28490114D01*
X12921973Y28427551D01*
X12886386Y28368179D01*
X12845166Y28312599D01*
X12798685Y28261315D01*
X12747401Y28214834D01*
X12691821Y28173614D01*
X12632449Y28138027D01*
X12569886Y28108438D01*
X12504716Y28085118D01*
X12437595Y28068307D01*
X12369117Y28058148D01*
X12300000Y28054752D01*
D02*
G37*
%LPC*%
G36*
X7270000Y27154645D02*
X7177339Y27159197D01*
X7085565Y27172811D01*
X6995578Y27195351D01*
X6908229Y27226606D01*
X6824356Y27266275D01*
X6744794Y27313962D01*
X6670274Y27369231D01*
X6601533Y27431533D01*
X6539231Y27500274D01*
X6483962Y27574794D01*
X6436275Y27654356D01*
X6396606Y27738229D01*
X6365351Y27825578D01*
X6342811Y27915565D01*
X6329197Y28007339D01*
X6324645Y28100000D01*
X6329197Y28192661D01*
X6342811Y28284435D01*
X6365351Y28374422D01*
X6396606Y28461771D01*
X6436275Y28545644D01*
X6483962Y28625206D01*
X6539231Y28699726D01*
X6601533Y28768467D01*
X6670274Y28830769D01*
X6744794Y28886038D01*
X6824356Y28933725D01*
X6908229Y28973394D01*
X6995578Y29004649D01*
X7085565Y29027189D01*
X7177339Y29040803D01*
X7270000Y29045355D01*
X7362661Y29040803D01*
X7454435Y29027189D01*
X7544422Y29004649D01*
X7631771Y28973394D01*
X7715644Y28933725D01*
X7795206Y28886038D01*
X7869726Y28830769D01*
X7938467Y28768467D01*
X8000769Y28699726D01*
X8056038Y28625206D01*
X8103725Y28545644D01*
X8143394Y28461771D01*
X8174649Y28374422D01*
X8197189Y28284435D01*
X8210803Y28192661D01*
X8215355Y28100000D01*
X8210803Y28007339D01*
X8197189Y27915565D01*
X8174649Y27825578D01*
X8143394Y27738229D01*
X8103725Y27654356D01*
X8056038Y27574794D01*
X8000769Y27500274D01*
X7938467Y27431533D01*
X7869726Y27369231D01*
X7795206Y27313962D01*
X7715644Y27266275D01*
X7631771Y27226606D01*
X7544422Y27195351D01*
X7454435Y27172811D01*
X7362661Y27159197D01*
X7270000Y27154645D01*
D02*
G37*
%LPC*%
G36*
X4730000Y24614645D02*
X4637339Y24619197D01*
X4545565Y24632811D01*
X4455578Y24655351D01*
X4368229Y24686606D01*
X4284356Y24726275D01*
X4204794Y24773962D01*
X4130274Y24829231D01*
X4061533Y24891533D01*
X3999231Y24960274D01*
X3943962Y25034794D01*
X3896275Y25114356D01*
X3856606Y25198229D01*
X3825351Y25285578D01*
X3802811Y25375565D01*
X3789197Y25467339D01*
X3784645Y25560000D01*
X3789197Y25652661D01*
X3802811Y25744435D01*
X3825351Y25834422D01*
X3856606Y25921771D01*
X3896275Y26005644D01*
X3943962Y26085206D01*
X3999231Y26159726D01*
X4061533Y26228467D01*
X4130274Y26290769D01*
X4204794Y26346038D01*
X4284356Y26393725D01*
X4368229Y26433394D01*
X4455578Y26464649D01*
X4545565Y26487189D01*
X4637339Y26500803D01*
X4730000Y26505355D01*
X4822661Y26500803D01*
X4914435Y26487189D01*
X5004422Y26464649D01*
X5091771Y26433394D01*
X5175644Y26393725D01*
X5255206Y26346038D01*
X5329726Y26290769D01*
X5398467Y26228467D01*
X5460769Y26159726D01*
X5516038Y26085206D01*
X5563725Y26005644D01*
X5603394Y25921771D01*
X5634649Y25834422D01*
X5657189Y25744435D01*
X5670803Y25652661D01*
X5675355Y25560000D01*
X5670803Y25467339D01*
X5657189Y25375565D01*
X5634649Y25285578D01*
X5603394Y25198229D01*
X5563725Y25114356D01*
X5516038Y25034794D01*
X5460769Y24960274D01*
X5398467Y24891533D01*
X5329726Y24829231D01*
X5255206Y24773962D01*
X5175644Y24726275D01*
X5091771Y24686606D01*
X5004422Y24655351D01*
X4914435Y24632811D01*
X4822661Y24619197D01*
X4730000Y24614645D01*
D02*
G37*
%LPC*%
G36*
X53750000Y21704753D02*
X53685774Y21707909D01*
X53622167Y21717345D01*
X53559790Y21732968D01*
X53499243Y21754634D01*
X53441122Y21782123D01*
X53385966Y21815182D01*
X53334316Y21853488D01*
X53286670Y21896670D01*
X53243488Y21944316D01*
X53205182Y21995966D01*
X53172123Y22051122D01*
X53144634Y22109243D01*
X53122968Y22169790D01*
X53107345Y22232167D01*
X53097909Y22295774D01*
X53094753Y22360000D01*
X53097909Y22424226D01*
X53107345Y22487833D01*
X53122968Y22550210D01*
X53144634Y22610757D01*
X53172123Y22668878D01*
X53205182Y22724034D01*
X53243488Y22775684D01*
X53286670Y22823330D01*
X53334316Y22866512D01*
X53385966Y22904818D01*
X53441122Y22937877D01*
X53499243Y22965366D01*
X53559790Y22987032D01*
X53622167Y23002655D01*
X53685774Y23012091D01*
X53750000Y23015247D01*
X53814226Y23012091D01*
X53877833Y23002655D01*
X53940210Y22987032D01*
X54000757Y22965366D01*
X54058878Y22937877D01*
X54114034Y22904818D01*
X54165684Y22866512D01*
X54213330Y22823330D01*
X54256512Y22775684D01*
X54294818Y22724034D01*
X54327877Y22668878D01*
X54355366Y22610757D01*
X54377032Y22550210D01*
X54392655Y22487833D01*
X54402091Y22424226D01*
X54405247Y22360000D01*
X54402091Y22295774D01*
X54392655Y22232167D01*
X54377032Y22169790D01*
X54355366Y22109243D01*
X54327877Y22051122D01*
X54294818Y21995966D01*
X54256512Y21944316D01*
X54213330Y21896670D01*
X54165684Y21853488D01*
X54114034Y21815182D01*
X54058878Y21782123D01*
X54000757Y21754634D01*
X53940210Y21732968D01*
X53877833Y21717345D01*
X53814226Y21707909D01*
X53750000Y21704753D01*
D02*
G37*
%LPC*%
G36*
X4270000Y15504645D02*
X4128329Y15511605D01*
X3988022Y15532418D01*
X3850433Y15566882D01*
X3716894Y15614663D01*
X3588662Y15675312D01*
X3467007Y15748229D01*
X3353074Y15832727D01*
X3247980Y15927980D01*
X3152727Y16033074D01*
X3068229Y16147007D01*
X2995312Y16268662D01*
X2934663Y16396894D01*
X2886882Y16530433D01*
X2852418Y16668022D01*
X2831605Y16808329D01*
X2824645Y16950000D01*
X2831605Y17091671D01*
X2852418Y17231978D01*
X2886882Y17369567D01*
X2934663Y17503106D01*
X2995312Y17631338D01*
X3068229Y17752993D01*
X3152727Y17866926D01*
X3247980Y17972020D01*
X3353074Y18067273D01*
X3467007Y18151771D01*
X3588662Y18224688D01*
X3716894Y18285337D01*
X3850433Y18333118D01*
X3988022Y18367582D01*
X4128329Y18388395D01*
X4270000Y18395355D01*
X4411671Y18388395D01*
X4551978Y18367582D01*
X4689567Y18333118D01*
X4823106Y18285337D01*
X4951338Y18224688D01*
X5072993Y18151771D01*
X5186926Y18067273D01*
X5292020Y17972020D01*
X5387273Y17866926D01*
X5471771Y17752993D01*
X5544688Y17631338D01*
X5605337Y17503106D01*
X5653118Y17369567D01*
X5687582Y17231978D01*
X5708395Y17091671D01*
X5715355Y16950000D01*
X5708395Y16808329D01*
X5687582Y16668022D01*
X5653118Y16530433D01*
X5605337Y16396894D01*
X5544688Y16268662D01*
X5471771Y16147007D01*
X5387273Y16033074D01*
X5292020Y15927980D01*
X5186926Y15832727D01*
X5072993Y15748229D01*
X4951338Y15675312D01*
X4823106Y15614663D01*
X4689567Y15566882D01*
X4551978Y15532418D01*
X4411671Y15511605D01*
X4270000Y15504645D01*
D02*
G37*
%LPC*%
G36*
X15690000Y15504645D02*
X15548329Y15511605D01*
X15408022Y15532418D01*
X15270433Y15566882D01*
X15136894Y15614663D01*
X15008662Y15675312D01*
X14887007Y15748229D01*
X14773074Y15832727D01*
X14667980Y15927980D01*
X14572727Y16033074D01*
X14488229Y16147007D01*
X14415312Y16268662D01*
X14354663Y16396894D01*
X14306882Y16530433D01*
X14272418Y16668022D01*
X14251605Y16808329D01*
X14244645Y16950000D01*
X14251605Y17091671D01*
X14272418Y17231978D01*
X14306882Y17369567D01*
X14354663Y17503106D01*
X14415312Y17631338D01*
X14488229Y17752993D01*
X14572727Y17866926D01*
X14667980Y17972020D01*
X14773074Y18067273D01*
X14887007Y18151771D01*
X15008662Y18224688D01*
X15136894Y18285337D01*
X15270433Y18333118D01*
X15408022Y18367582D01*
X15548329Y18388395D01*
X15690000Y18395355D01*
X15831671Y18388395D01*
X15971978Y18367582D01*
X16109567Y18333118D01*
X16243106Y18285337D01*
X16371338Y18224688D01*
X16492993Y18151771D01*
X16606926Y18067273D01*
X16712020Y17972020D01*
X16807273Y17866926D01*
X16891771Y17752993D01*
X16964688Y17631338D01*
X17025337Y17503106D01*
X17073118Y17369567D01*
X17107582Y17231978D01*
X17128395Y17091671D01*
X17135355Y16950000D01*
X17128395Y16808329D01*
X17107582Y16668022D01*
X17073118Y16530433D01*
X17025337Y16396894D01*
X16964688Y16268662D01*
X16891771Y16147007D01*
X16807273Y16033074D01*
X16712020Y15927980D01*
X16606926Y15832727D01*
X16492993Y15748229D01*
X16371338Y15675312D01*
X16243106Y15614663D01*
X16109567Y15566882D01*
X15971978Y15532418D01*
X15831671Y15511605D01*
X15690000Y15504645D01*
D02*
G37*
%LPC*%
G36*
X44280000Y15504645D02*
X44138329Y15511605D01*
X43998022Y15532418D01*
X43860433Y15566882D01*
X43726894Y15614663D01*
X43598662Y15675312D01*
X43477007Y15748229D01*
X43363074Y15832727D01*
X43257980Y15927980D01*
X43162727Y16033074D01*
X43078229Y16147007D01*
X43005312Y16268662D01*
X42944663Y16396894D01*
X42896882Y16530433D01*
X42862418Y16668022D01*
X42841605Y16808329D01*
X42834645Y16950000D01*
X42841605Y17091671D01*
X42862418Y17231978D01*
X42896882Y17369567D01*
X42944663Y17503106D01*
X43005312Y17631338D01*
X43078229Y17752993D01*
X43162727Y17866926D01*
X43257980Y17972020D01*
X43363074Y18067273D01*
X43477007Y18151771D01*
X43598662Y18224688D01*
X43726894Y18285337D01*
X43860433Y18333118D01*
X43998022Y18367582D01*
X44138329Y18388395D01*
X44280000Y18395355D01*
X44421671Y18388395D01*
X44561978Y18367582D01*
X44699567Y18333118D01*
X44833106Y18285337D01*
X44961338Y18224688D01*
X45082993Y18151771D01*
X45196926Y18067273D01*
X45302020Y17972020D01*
X45397273Y17866926D01*
X45481771Y17752993D01*
X45554688Y17631338D01*
X45615337Y17503106D01*
X45663118Y17369567D01*
X45697582Y17231978D01*
X45718395Y17091671D01*
X45725355Y16950000D01*
X45718395Y16808329D01*
X45697582Y16668022D01*
X45663118Y16530433D01*
X45615337Y16396894D01*
X45554688Y16268662D01*
X45481771Y16147007D01*
X45397273Y16033074D01*
X45302020Y15927980D01*
X45196926Y15832727D01*
X45082993Y15748229D01*
X44961338Y15675312D01*
X44833106Y15614663D01*
X44699567Y15566882D01*
X44561978Y15532418D01*
X44421671Y15511605D01*
X44280000Y15504645D01*
D02*
G37*
%LPC*%
G36*
X55700000Y15504645D02*
X55558329Y15511605D01*
X55418022Y15532418D01*
X55280433Y15566882D01*
X55146894Y15614663D01*
X55018662Y15675312D01*
X54897007Y15748229D01*
X54783074Y15832727D01*
X54677980Y15927980D01*
X54582727Y16033074D01*
X54498229Y16147007D01*
X54425312Y16268662D01*
X54364663Y16396894D01*
X54316882Y16530433D01*
X54282418Y16668022D01*
X54261605Y16808329D01*
X54254645Y16950000D01*
X54261605Y17091671D01*
X54282418Y17231978D01*
X54316882Y17369567D01*
X54364663Y17503106D01*
X54425312Y17631338D01*
X54498229Y17752993D01*
X54582727Y17866926D01*
X54677980Y17972020D01*
X54783074Y18067273D01*
X54897007Y18151771D01*
X55018662Y18224688D01*
X55146894Y18285337D01*
X55280433Y18333118D01*
X55418022Y18367582D01*
X55558329Y18388395D01*
X55700000Y18395355D01*
X55841671Y18388395D01*
X55981978Y18367582D01*
X56119567Y18333118D01*
X56253106Y18285337D01*
X56381338Y18224688D01*
X56502993Y18151771D01*
X56616926Y18067273D01*
X56722020Y17972020D01*
X56817273Y17866926D01*
X56901771Y17752993D01*
X56974688Y17631338D01*
X57035337Y17503106D01*
X57083118Y17369567D01*
X57117582Y17231978D01*
X57138395Y17091671D01*
X57145355Y16950000D01*
X57138395Y16808329D01*
X57117582Y16668022D01*
X57083118Y16530433D01*
X57035337Y16396894D01*
X56974688Y16268662D01*
X56901771Y16147007D01*
X56817273Y16033074D01*
X56722020Y15927980D01*
X56616926Y15832727D01*
X56502993Y15748229D01*
X56381338Y15675312D01*
X56253106Y15614663D01*
X56119567Y15566882D01*
X55981978Y15532418D01*
X55841671Y15511605D01*
X55700000Y15504645D01*
D02*
G37*
%LPC*%
G36*
X4270000Y9154645D02*
X4128329Y9161605D01*
X3988022Y9182418D01*
X3850433Y9216882D01*
X3716894Y9264663D01*
X3588662Y9325312D01*
X3467007Y9398229D01*
X3353074Y9482727D01*
X3247980Y9577980D01*
X3152727Y9683074D01*
X3068229Y9797007D01*
X2995312Y9918662D01*
X2934663Y10046894D01*
X2886882Y10180433D01*
X2852418Y10318022D01*
X2831605Y10458329D01*
X2824645Y10600000D01*
X2831605Y10741671D01*
X2852418Y10881978D01*
X2886882Y11019567D01*
X2934663Y11153106D01*
X2995312Y11281338D01*
X3068229Y11402993D01*
X3152727Y11516926D01*
X3247980Y11622020D01*
X3353074Y11717273D01*
X3467007Y11801771D01*
X3588662Y11874688D01*
X3716894Y11935337D01*
X3850433Y11983118D01*
X3988022Y12017582D01*
X4128329Y12038395D01*
X4270000Y12045355D01*
X4411671Y12038395D01*
X4551978Y12017582D01*
X4689567Y11983118D01*
X4823106Y11935337D01*
X4951338Y11874688D01*
X5072993Y11801771D01*
X5186926Y11717273D01*
X5292020Y11622020D01*
X5387273Y11516926D01*
X5471771Y11402993D01*
X5544688Y11281338D01*
X5605337Y11153106D01*
X5653118Y11019567D01*
X5687582Y10881978D01*
X5708395Y10741671D01*
X5715355Y10600000D01*
X5708395Y10458329D01*
X5687582Y10318022D01*
X5653118Y10180433D01*
X5605337Y10046894D01*
X5544688Y9918662D01*
X5471771Y9797007D01*
X5387273Y9683074D01*
X5292020Y9577980D01*
X5186926Y9482727D01*
X5072993Y9398229D01*
X4951338Y9325312D01*
X4823106Y9264663D01*
X4689567Y9216882D01*
X4551978Y9182418D01*
X4411671Y9161605D01*
X4270000Y9154645D01*
D02*
G37*
%LPC*%
G36*
X15690000Y9154645D02*
X15548329Y9161605D01*
X15408022Y9182418D01*
X15270433Y9216882D01*
X15136894Y9264663D01*
X15008662Y9325312D01*
X14887007Y9398229D01*
X14773074Y9482727D01*
X14667980Y9577980D01*
X14572727Y9683074D01*
X14488229Y9797007D01*
X14415312Y9918662D01*
X14354663Y10046894D01*
X14306882Y10180433D01*
X14272418Y10318022D01*
X14251605Y10458329D01*
X14244645Y10600000D01*
X14251605Y10741671D01*
X14272418Y10881978D01*
X14306882Y11019567D01*
X14354663Y11153106D01*
X14415312Y11281338D01*
X14488229Y11402993D01*
X14572727Y11516926D01*
X14667980Y11622020D01*
X14773074Y11717273D01*
X14887007Y11801771D01*
X15008662Y11874688D01*
X15136894Y11935337D01*
X15270433Y11983118D01*
X15408022Y12017582D01*
X15548329Y12038395D01*
X15690000Y12045355D01*
X15831671Y12038395D01*
X15971978Y12017582D01*
X16109567Y11983118D01*
X16243106Y11935337D01*
X16371338Y11874688D01*
X16492993Y11801771D01*
X16606926Y11717273D01*
X16712020Y11622020D01*
X16807273Y11516926D01*
X16891771Y11402993D01*
X16964688Y11281338D01*
X17025337Y11153106D01*
X17073118Y11019567D01*
X17107582Y10881978D01*
X17128395Y10741671D01*
X17135355Y10600000D01*
X17128395Y10458329D01*
X17107582Y10318022D01*
X17073118Y10180433D01*
X17025337Y10046894D01*
X16964688Y9918662D01*
X16891771Y9797007D01*
X16807273Y9683074D01*
X16712020Y9577980D01*
X16606926Y9482727D01*
X16492993Y9398229D01*
X16371338Y9325312D01*
X16243106Y9264663D01*
X16109567Y9216882D01*
X15971978Y9182418D01*
X15831671Y9161605D01*
X15690000Y9154645D01*
D02*
G37*
%LPC*%
G36*
X44280000Y9154645D02*
X44138329Y9161605D01*
X43998022Y9182418D01*
X43860433Y9216882D01*
X43726894Y9264663D01*
X43598662Y9325312D01*
X43477007Y9398229D01*
X43363074Y9482727D01*
X43257980Y9577980D01*
X43162727Y9683074D01*
X43078229Y9797007D01*
X43005312Y9918662D01*
X42944663Y10046894D01*
X42896882Y10180433D01*
X42862418Y10318022D01*
X42841605Y10458329D01*
X42834645Y10600000D01*
X42841605Y10741671D01*
X42862418Y10881978D01*
X42896882Y11019567D01*
X42944663Y11153106D01*
X43005312Y11281338D01*
X43078229Y11402993D01*
X43162727Y11516926D01*
X43257980Y11622020D01*
X43363074Y11717273D01*
X43477007Y11801771D01*
X43598662Y11874688D01*
X43726894Y11935337D01*
X43860433Y11983118D01*
X43998022Y12017582D01*
X44138329Y12038395D01*
X44280000Y12045355D01*
X44421671Y12038395D01*
X44561978Y12017582D01*
X44699567Y11983118D01*
X44833106Y11935337D01*
X44961338Y11874688D01*
X45082993Y11801771D01*
X45196926Y11717273D01*
X45302020Y11622020D01*
X45397273Y11516926D01*
X45481771Y11402993D01*
X45554688Y11281338D01*
X45615337Y11153106D01*
X45663118Y11019567D01*
X45697582Y10881978D01*
X45718395Y10741671D01*
X45725355Y10600000D01*
X45718395Y10458329D01*
X45697582Y10318022D01*
X45663118Y10180433D01*
X45615337Y10046894D01*
X45554688Y9918662D01*
X45481771Y9797007D01*
X45397273Y9683074D01*
X45302020Y9577980D01*
X45196926Y9482727D01*
X45082993Y9398229D01*
X44961338Y9325312D01*
X44833106Y9264663D01*
X44699567Y9216882D01*
X44561978Y9182418D01*
X44421671Y9161605D01*
X44280000Y9154645D01*
D02*
G37*
%LPC*%
G36*
X55700000Y9154645D02*
X55558329Y9161605D01*
X55418022Y9182418D01*
X55280433Y9216882D01*
X55146894Y9264663D01*
X55018662Y9325312D01*
X54897007Y9398229D01*
X54783074Y9482727D01*
X54677980Y9577980D01*
X54582727Y9683074D01*
X54498229Y9797007D01*
X54425312Y9918662D01*
X54364663Y10046894D01*
X54316882Y10180433D01*
X54282418Y10318022D01*
X54261605Y10458329D01*
X54254645Y10600000D01*
X54261605Y10741671D01*
X54282418Y10881978D01*
X54316882Y11019567D01*
X54364663Y11153106D01*
X54425312Y11281338D01*
X54498229Y11402993D01*
X54582727Y11516926D01*
X54677980Y11622020D01*
X54783074Y11717273D01*
X54897007Y11801771D01*
X55018662Y11874688D01*
X55146894Y11935337D01*
X55280433Y11983118D01*
X55418022Y12017582D01*
X55558329Y12038395D01*
X55700000Y12045355D01*
X55841671Y12038395D01*
X55981978Y12017582D01*
X56119567Y11983118D01*
X56253106Y11935337D01*
X56381338Y11874688D01*
X56502993Y11801771D01*
X56616926Y11717273D01*
X56722020Y11622020D01*
X56817273Y11516926D01*
X56901771Y11402993D01*
X56974688Y11281338D01*
X57035337Y11153106D01*
X57083118Y11019567D01*
X57117582Y10881978D01*
X57138395Y10741671D01*
X57145355Y10600000D01*
X57138395Y10458329D01*
X57117582Y10318022D01*
X57083118Y10180433D01*
X57035337Y10046894D01*
X56974688Y9918662D01*
X56901771Y9797007D01*
X56817273Y9683074D01*
X56722020Y9577980D01*
X56616926Y9482727D01*
X56502993Y9398229D01*
X56381338Y9325312D01*
X56253106Y9264663D01*
X56119567Y9216882D01*
X55981978Y9182418D01*
X55841671Y9161605D01*
X55700000Y9154645D01*
D02*
G37*
%LPC*%
G36*
X24020000Y4234645D02*
X23974906Y4236860D01*
X23907736Y4240160D01*
X23796547Y4256654D01*
X23687519Y4283964D01*
X23581695Y4321828D01*
X23480090Y4369883D01*
X23383672Y4427674D01*
X23293391Y4494631D01*
X23210112Y4570112D01*
X23134631Y4653391D01*
X23067674Y4743672D01*
X23009883Y4840090D01*
X22961828Y4941695D01*
X22923964Y5047519D01*
X22896654Y5156547D01*
X22880160Y5267736D01*
X22874645Y5380000D01*
X22880160Y5492264D01*
X22896654Y5603453D01*
X22923964Y5712481D01*
X22961828Y5818305D01*
X23009883Y5919910D01*
X23067674Y6016328D01*
X23134631Y6106609D01*
X23210112Y6189888D01*
X23293391Y6265369D01*
X23383672Y6332326D01*
X23480090Y6390117D01*
X23581695Y6438172D01*
X23687519Y6476036D01*
X23796547Y6503346D01*
X23907736Y6519840D01*
X24020000Y6525355D01*
X24132264Y6519840D01*
X24243453Y6503346D01*
X24352481Y6476036D01*
X24458305Y6438172D01*
X24559910Y6390117D01*
X24656328Y6332326D01*
X24746609Y6265369D01*
X24829888Y6189888D01*
X24905369Y6106609D01*
X24972326Y6016328D01*
X25030117Y5919910D01*
X25078172Y5818305D01*
X25116036Y5712481D01*
X25143346Y5603453D01*
X25159840Y5492264D01*
X25165355Y5380000D01*
X25159840Y5267736D01*
X25143346Y5156547D01*
X25116036Y5047519D01*
X25078172Y4941695D01*
X25030117Y4840090D01*
X24972326Y4743672D01*
X24905369Y4653391D01*
X24829888Y4570112D01*
X24746609Y4494631D01*
X24656328Y4427674D01*
X24559910Y4369883D01*
X24458305Y4321828D01*
X24352481Y4283964D01*
X24243453Y4256654D01*
X24132265Y4240160D01*
X24065093Y4236860D01*
X24020000Y4234645D01*
D02*
G37*
%LPC*%
G36*
X15690000Y2804645D02*
X15548329Y2811605D01*
X15408022Y2832418D01*
X15270433Y2866882D01*
X15136894Y2914663D01*
X15008662Y2975312D01*
X14887007Y3048229D01*
X14773074Y3132727D01*
X14667980Y3227980D01*
X14572727Y3333074D01*
X14488229Y3447007D01*
X14415312Y3568662D01*
X14354663Y3696894D01*
X14306882Y3830433D01*
X14272418Y3968022D01*
X14251605Y4108329D01*
X14244645Y4250000D01*
X14251605Y4391671D01*
X14272418Y4531978D01*
X14306882Y4669567D01*
X14354663Y4803106D01*
X14415312Y4931338D01*
X14488229Y5052993D01*
X14572727Y5166926D01*
X14667980Y5272020D01*
X14773074Y5367273D01*
X14887007Y5451771D01*
X15008662Y5524688D01*
X15136894Y5585337D01*
X15270433Y5633118D01*
X15408022Y5667582D01*
X15548329Y5688395D01*
X15690000Y5695355D01*
X15831671Y5688395D01*
X15971978Y5667582D01*
X16109567Y5633118D01*
X16243106Y5585337D01*
X16371338Y5524688D01*
X16492993Y5451771D01*
X16606926Y5367273D01*
X16712020Y5272020D01*
X16807273Y5166926D01*
X16891771Y5052993D01*
X16964688Y4931338D01*
X17025337Y4803106D01*
X17073118Y4669567D01*
X17107582Y4531978D01*
X17128395Y4391671D01*
X17135355Y4250000D01*
X17128395Y4108329D01*
X17107582Y3968022D01*
X17073118Y3830433D01*
X17025337Y3696894D01*
X16964688Y3568662D01*
X16891771Y3447007D01*
X16807273Y3333074D01*
X16712020Y3227980D01*
X16606926Y3132727D01*
X16492993Y3048229D01*
X16371338Y2975312D01*
X16243106Y2914663D01*
X16109567Y2866882D01*
X15971978Y2832418D01*
X15831671Y2811605D01*
X15690000Y2804645D01*
D02*
G37*
%LPC*%
G36*
X55700000Y2804645D02*
X55558329Y2811605D01*
X55418022Y2832418D01*
X55280433Y2866882D01*
X55146894Y2914663D01*
X55018662Y2975312D01*
X54897007Y3048229D01*
X54783074Y3132727D01*
X54677980Y3227980D01*
X54582727Y3333074D01*
X54498229Y3447007D01*
X54425312Y3568662D01*
X54364663Y3696894D01*
X54316882Y3830433D01*
X54282418Y3968022D01*
X54261605Y4108329D01*
X54254645Y4250000D01*
X54261605Y4391671D01*
X54282418Y4531978D01*
X54316882Y4669567D01*
X54364663Y4803106D01*
X54425312Y4931338D01*
X54498229Y5052993D01*
X54582727Y5166926D01*
X54677980Y5272020D01*
X54783074Y5367273D01*
X54897007Y5451771D01*
X55018662Y5524688D01*
X55146894Y5585337D01*
X55280433Y5633118D01*
X55418022Y5667582D01*
X55558329Y5688395D01*
X55700000Y5695355D01*
X55841671Y5688395D01*
X55981978Y5667582D01*
X56119567Y5633118D01*
X56253106Y5585337D01*
X56381338Y5524688D01*
X56502993Y5451771D01*
X56616926Y5367273D01*
X56722020Y5272020D01*
X56817273Y5166926D01*
X56901771Y5052993D01*
X56974688Y4931338D01*
X57035337Y4803106D01*
X57083118Y4669567D01*
X57117582Y4531978D01*
X57138395Y4391671D01*
X57145355Y4250000D01*
X57138395Y4108329D01*
X57117582Y3968022D01*
X57083118Y3830433D01*
X57035337Y3696894D01*
X56974688Y3568662D01*
X56901771Y3447007D01*
X56817273Y3333074D01*
X56722020Y3227980D01*
X56616926Y3132727D01*
X56502993Y3048229D01*
X56381338Y2975312D01*
X56253106Y2914663D01*
X56119567Y2866882D01*
X55981978Y2832418D01*
X55841671Y2811605D01*
X55700000Y2804645D01*
D02*
G37*
%LPC*%
G36*
X5712214Y4400000D02*
X4420000Y4400000D01*
X4420000Y5692214D01*
X4552955Y5672492D01*
X4691017Y5637910D01*
X4825029Y5589958D01*
X4953695Y5529105D01*
X5075775Y5455933D01*
X5190102Y5371142D01*
X5295560Y5275560D01*
X5391142Y5170102D01*
X5475933Y5055775D01*
X5549105Y4933695D01*
X5609958Y4805029D01*
X5657910Y4671017D01*
X5692492Y4532955D01*
X5712214Y4400000D01*
D02*
G37*
%LPC*%
G36*
X4120000Y4400000D02*
X2827786Y4400000D01*
X2847508Y4532955D01*
X2882090Y4671017D01*
X2930042Y4805029D01*
X2990895Y4933695D01*
X3064067Y5055775D01*
X3148858Y5170102D01*
X3244440Y5275560D01*
X3349898Y5371142D01*
X3464225Y5455933D01*
X3586305Y5529105D01*
X3714971Y5589958D01*
X3848983Y5637910D01*
X3987045Y5672492D01*
X4120000Y5692214D01*
X4120000Y4400000D01*
D02*
G37*
%LPC*%
G36*
X45722214Y4400000D02*
X44430000Y4400000D01*
X44430000Y5692214D01*
X44562955Y5672492D01*
X44701017Y5637910D01*
X44835029Y5589958D01*
X44963695Y5529105D01*
X45085775Y5455933D01*
X45200102Y5371142D01*
X45305560Y5275560D01*
X45401142Y5170102D01*
X45485933Y5055775D01*
X45559105Y4933695D01*
X45619958Y4805029D01*
X45667910Y4671017D01*
X45702492Y4532955D01*
X45722214Y4400000D01*
D02*
G37*
%LPC*%
G36*
X44130000Y4400000D02*
X42837786Y4400000D01*
X42857508Y4532955D01*
X42892090Y4671017D01*
X42940042Y4805029D01*
X43000895Y4933695D01*
X43074067Y5055775D01*
X43158858Y5170102D01*
X43254440Y5275560D01*
X43359898Y5371142D01*
X43474225Y5455933D01*
X43596305Y5529105D01*
X43724971Y5589958D01*
X43858983Y5637910D01*
X43997045Y5672492D01*
X44130000Y5692214D01*
X44130000Y4400000D01*
D02*
G37*
%LPC*%
G36*
X4120000Y2807786D02*
X3987045Y2827508D01*
X3848983Y2862090D01*
X3714971Y2910042D01*
X3586305Y2970895D01*
X3464225Y3044067D01*
X3349898Y3128858D01*
X3244440Y3224440D01*
X3148858Y3329898D01*
X3064067Y3444225D01*
X2990895Y3566305D01*
X2930042Y3694971D01*
X2882090Y3828983D01*
X2847508Y3967045D01*
X2827786Y4100000D01*
X4120000Y4100000D01*
X4120000Y2807786D01*
D02*
G37*
%LPC*%
G36*
X4420000Y2807786D02*
X4420000Y4100000D01*
X5712214Y4100000D01*
X5692492Y3967045D01*
X5657910Y3828983D01*
X5609958Y3694971D01*
X5549105Y3566305D01*
X5475933Y3444225D01*
X5391142Y3329898D01*
X5295560Y3224440D01*
X5190102Y3128858D01*
X5075775Y3044067D01*
X4953695Y2970895D01*
X4825029Y2910042D01*
X4691017Y2862090D01*
X4552955Y2827508D01*
X4420000Y2807786D01*
D02*
G37*
%LPC*%
G36*
X44130000Y2807786D02*
X43997045Y2827508D01*
X43858983Y2862090D01*
X43724971Y2910042D01*
X43596305Y2970895D01*
X43474225Y3044067D01*
X43359898Y3128858D01*
X43254440Y3224440D01*
X43158858Y3329898D01*
X43074067Y3444225D01*
X43000895Y3566305D01*
X42940042Y3694971D01*
X42892090Y3828983D01*
X42857508Y3967045D01*
X42837786Y4100000D01*
X44130000Y4100000D01*
X44130000Y2807786D01*
D02*
G37*
%LPC*%
G36*
X44430000Y2807786D02*
X44430000Y4100000D01*
X45722214Y4100000D01*
X45702492Y3967045D01*
X45667910Y3828983D01*
X45619958Y3694971D01*
X45559105Y3566305D01*
X45485933Y3444225D01*
X45401142Y3329898D01*
X45305560Y3224440D01*
X45200102Y3128858D01*
X45085775Y3044067D01*
X44963695Y2970895D01*
X44835029Y2910042D01*
X44701017Y2862090D01*
X44562955Y2827508D01*
X44430000Y2807786D01*
D02*
G37*
%LPC*%
G36*
X25159297Y3030000D02*
X24170000Y3030000D01*
X24170000Y4019297D01*
X24244430Y4008256D01*
X24353934Y3980827D01*
X24460221Y3942797D01*
X24562278Y3894529D01*
X24659108Y3836489D01*
X24749778Y3769244D01*
X24833428Y3693428D01*
X24909244Y3609778D01*
X24976489Y3519108D01*
X25034529Y3422278D01*
X25082797Y3320221D01*
X25120827Y3213934D01*
X25148256Y3104430D01*
X25159297Y3030000D01*
D02*
G37*
%LPC*%
G36*
X23870000Y3030000D02*
X22880703Y3030000D01*
X22891744Y3104430D01*
X22919173Y3213934D01*
X22957203Y3320221D01*
X23005471Y3422278D01*
X23063511Y3519108D01*
X23130756Y3609778D01*
X23206572Y3693428D01*
X23290222Y3769244D01*
X23380892Y3836489D01*
X23477722Y3894529D01*
X23579779Y3942797D01*
X23686066Y3980827D01*
X23795570Y4008256D01*
X23870000Y4019297D01*
X23870000Y3030000D01*
D02*
G37*
%LPC*%
G36*
X23870000Y1740703D02*
X23795570Y1751744D01*
X23686066Y1779173D01*
X23579779Y1817203D01*
X23477722Y1865471D01*
X23380892Y1923511D01*
X23290222Y1990756D01*
X23206572Y2066572D01*
X23130756Y2150222D01*
X23063511Y2240892D01*
X23005471Y2337722D01*
X22957203Y2439779D01*
X22919173Y2546066D01*
X22891744Y2655570D01*
X22880703Y2730000D01*
X23870000Y2730000D01*
X23870000Y1740703D01*
D02*
G37*
%LPC*%
G36*
X24170000Y1740703D02*
X24170000Y2730000D01*
X25159297Y2730000D01*
X25148256Y2655570D01*
X25120827Y2546066D01*
X25082797Y2439779D01*
X25034529Y2337722D01*
X24976489Y2240892D01*
X24909244Y2150222D01*
X24833428Y2066572D01*
X24749778Y1990756D01*
X24659108Y1923511D01*
X24562278Y1865471D01*
X24460221Y1817203D01*
X24353934Y1779173D01*
X24244430Y1751744D01*
X24170000Y1740703D01*
D02*
G37*
%LPD*%
G01*
%LPD*%
G75*
D10*
X9960000Y34100000D03*
D10*
X2340000Y34100000D03*
D11*
X4730000Y30640000D03*
D11*
X7270000Y28100000D03*
D11*
X4730000Y25560000D03*
D12*
X15690000Y10600000D03*
D12*
X4270000Y10600000D03*
D12*
X4270000Y4250000D03*
D12*
X4270000Y16950000D03*
D12*
X15690000Y16950000D03*
D12*
X15690000Y4250000D03*
D12*
X55700000Y10600000D03*
D12*
X44280000Y10600000D03*
D12*
X44280000Y4250000D03*
D12*
X44280000Y16950000D03*
D12*
X55700000Y16950000D03*
D12*
X55700000Y4250000D03*
D13*
X13852917Y39098737D03*
D13*
X11352917Y39098737D03*
D13*
X5952917Y39098737D03*
D13*
X3452917Y39098737D03*
D14*
X24020000Y5380000D03*
D14*
X24020000Y2880000D03*
D15*
X27770000Y28790000D03*
D15*
X27000000Y38200000D03*
D16*
X30270000Y32610000D03*
D17*
X49300000Y43400000D03*
D18*
X62000000Y45400000D03*
D15*
X16250000Y8400000D03*
D18*
X16250000Y1000000D03*
D15*
X47240000Y40600000D03*
D15*
X30500000Y12676461D03*
D15*
X51700000Y20220000D03*
D15*
X46750000Y8400000D03*
D15*
X34000000Y41800000D03*
D17*
X30000000Y38280000D03*
D18*
X62000000Y38000000D03*
D18*
X23875000Y45400000D03*
D15*
X36900000Y29450000D03*
D18*
X46750000Y45400000D03*
D18*
X62000000Y1000000D03*
D15*
X37200000Y40000000D03*
D15*
X54375000Y8400000D03*
D18*
X62000000Y8400000D03*
D15*
X38830000Y16976461D03*
D15*
X38550000Y24180000D03*
D18*
X31500000Y45400000D03*
D17*
X30000000Y41720000D03*
D18*
X23875000Y1000000D03*
D15*
X16250000Y38000000D03*
D15*
X21300000Y14041493D03*
D18*
X39125000Y1000000D03*
D16*
X46300000Y21400000D03*
D15*
X33330000Y30400000D03*
D16*
X46800000Y24050000D03*
D15*
X31500000Y8400000D03*
D15*
X38830000Y13376461D03*
D15*
X8625000Y30600000D03*
D15*
X46040000Y36000000D03*
D16*
X32500000Y21130000D03*
D15*
X18100000Y14041493D03*
D15*
X53612500Y15800000D03*
D17*
X35800000Y38000000D03*
D15*
X44250000Y24200000D03*
D15*
X51300000Y28360000D03*
D18*
X1000000Y15800000D03*
D18*
X62000000Y23200000D03*
D18*
X54375000Y1000000D03*
D18*
X1000000Y1000000D03*
D15*
X8625000Y38000000D03*
D15*
X36500000Y24750000D03*
D15*
X46040000Y32600000D03*
D17*
X56180000Y42210000D03*
D18*
X8625000Y45400000D03*
D18*
X62000000Y30600000D03*
D15*
X44840000Y40600000D03*
D15*
X46750000Y15800000D03*
D18*
X1000000Y23200000D03*
D16*
X35160000Y28200000D03*
D15*
X36000000Y41800000D03*
D15*
X46040000Y42300000D03*
D17*
X32000000Y41720000D03*
D15*
X39125000Y8400000D03*
D15*
X44840000Y34300000D03*
D18*
X1000000Y45400000D03*
D18*
X1000000Y8400000D03*
D15*
X19700000Y12541493D03*
D15*
X8625000Y23200000D03*
D16*
X32400000Y17600000D03*
D16*
X58075000Y30180000D03*
D16*
X38400000Y28890000D03*
D15*
X22430000Y30060000D03*
D17*
X53750000Y22360000D03*
D15*
X40070000Y32200000D03*
D15*
X34000000Y38200000D03*
D15*
X14200000Y24500000D03*
D17*
X28000000Y43260000D03*
D15*
X41430000Y15176461D03*
D15*
X8625000Y8400000D03*
D18*
X1000000Y30600000D03*
D15*
X29640000Y31010000D03*
D19*
X36400000Y33960000D03*
D18*
X46750000Y1000000D03*
D18*
X8625000Y1000000D03*
D15*
X54375000Y38100000D03*
D18*
X1000000Y38000000D03*
D18*
X16250000Y45400000D03*
D16*
X22400000Y22700000D03*
D15*
X8625000Y15800000D03*
D16*
X46800000Y27300000D03*
D15*
X41370000Y33600000D03*
D15*
X47240000Y34300000D03*
D17*
X32000000Y38280000D03*
D15*
X25800000Y40000000D03*
D15*
X27000000Y41800000D03*
D19*
X12300000Y28760000D03*
D15*
X14200000Y20900000D03*
D18*
X62000000Y15800000D03*
D18*
X31500000Y1000000D03*
D18*
X39125000Y45400000D03*
D15*
X32900000Y24750000D03*
D18*
X54375000Y45400000D03*
D15*
X46040000Y38900000D03*
D17*
X47300000Y32500000D03*
M02*
