%FSLAX46Y46*%
%MOMM*%
%AMPS12*
1,1,2.500000,0.000000,0.000000*
%
%ADD12PS12*%
%AMPS11*
1,1,1.500000,0.000000,0.000000*
%
%ADD11PS11*%
%AMPS10*
1,1,1.900000,0.000000,0.000000*
%
%ADD10PS10*%
%AMPS13*
1,1,1.900000,0.000000,0.000000*
%
%ADD13PS13*%
%AMPS14*
1,1,1.900000,0.000000,0.000000*
%
%ADD14PS14*%
%AMPS15*
1,1,1.200000,0.000000,0.000000*
%
%ADD15PS15*%
%AMPS17*
1,1,0.550000,0.000000,0.000000*
%
%ADD17PS17*%
%AMPS16*
1,1,0.700000,0.000000,0.000000*
%
%ADD16PS16*%
%AMPS18*
1,1,0.800000,0.000000,0.000000*
%
%ADD18PS18*%
G01*
%LPD*%
G01*
%LPD*%
G75*
D10*
X9960000Y34100000D03*
D10*
X2340000Y34100000D03*
D11*
X4730000Y30640000D03*
D11*
X7270000Y28100000D03*
D11*
X4730000Y25560000D03*
D12*
X15690000Y10600000D03*
D12*
X4270000Y10600000D03*
D12*
X4270000Y4250000D03*
D12*
X4270000Y16950000D03*
D12*
X15690000Y16950000D03*
D12*
X15690000Y4250000D03*
D12*
X55700000Y10600000D03*
D12*
X44280000Y10600000D03*
D12*
X44280000Y4250000D03*
D12*
X44280000Y16950000D03*
D12*
X55700000Y16950000D03*
D12*
X55700000Y4250000D03*
D13*
X13852917Y39098737D03*
D13*
X11352917Y39098737D03*
D13*
X5952917Y39098737D03*
D13*
X3452917Y39098737D03*
D14*
X24020000Y5380000D03*
D14*
X24020000Y2880000D03*
D15*
X30270000Y32610000D03*
D16*
X49300000Y43400000D03*
D17*
X62000000Y45400000D03*
D17*
X16250000Y1000000D03*
D16*
X30000000Y38280000D03*
D17*
X62000000Y38000000D03*
D17*
X23875000Y45400000D03*
D17*
X46750000Y45400000D03*
D17*
X62000000Y1000000D03*
D17*
X62000000Y8400000D03*
D17*
X31500000Y45400000D03*
D16*
X30000000Y41720000D03*
D17*
X23875000Y1000000D03*
D17*
X39125000Y1000000D03*
D15*
X46300000Y21400000D03*
D15*
X46800000Y24050000D03*
D15*
X32500000Y21130000D03*
D16*
X35800000Y38000000D03*
D17*
X1000000Y15800000D03*
D17*
X62000000Y23200000D03*
D17*
X54375000Y1000000D03*
D17*
X1000000Y1000000D03*
D16*
X56180000Y42210000D03*
D17*
X8625000Y45400000D03*
D17*
X62000000Y30600000D03*
D17*
X1000000Y23200000D03*
D15*
X35160000Y28200000D03*
D16*
X32000000Y41720000D03*
D17*
X1000000Y45400000D03*
D17*
X1000000Y8400000D03*
D15*
X32400000Y17600000D03*
D15*
X58075000Y30180000D03*
D15*
X38400000Y28890000D03*
D16*
X53750000Y22360000D03*
D16*
X28000000Y43400000D03*
D17*
X1000000Y30600000D03*
D18*
X36441869Y33997500D03*
D17*
X46750000Y1000000D03*
D17*
X8625000Y1000000D03*
D17*
X1000000Y38000000D03*
D17*
X16250000Y45400000D03*
D15*
X22400000Y22700000D03*
D15*
X46800000Y27300000D03*
D16*
X32000000Y38280000D03*
D18*
X12300000Y28760000D03*
D17*
X62000000Y15800000D03*
D17*
X31500000Y1000000D03*
D17*
X39125000Y45400000D03*
D17*
X54375000Y45400000D03*
D16*
X47300000Y32500000D03*
M02*
