%FSLAX46Y46*%
%MOMM*%
%AMPS34*
1,1,2.500000,0.000000,0.000000*
%
%ADD34PS34*%
%AMPS33*
1,1,1.500000,0.000000,0.000000*
%
%ADD33PS33*%
%AMPS24*
1,1,1.900000,0.000000,0.000000*
%
%ADD24PS24*%
%AMPS50*
1,1,1.900000,0.000000,0.000000*
%
%ADD50PS50*%
%AMPS53*
1,1,1.900000,0.000000,0.000000*
%
%ADD53PS53*%
%AMPS31*
21,1,1.794948,2.941421,0.000000,0.000000,0.000000*
%
%ADD31PS31*%
%AMPS32*
21,1,1.794948,2.941421,0.000000,0.000000,180.000000*
%
%ADD32PS32*%
%AMPS36*
21,1,1.800000,3.150000,0.000000,0.000000,90.000000*
%
%ADD36PS36*%
%AMPS35*
21,1,1.800000,3.150000,0.000000,0.000000,270.000000*
%
%ADD35PS35*%
%AMPS47*
21,1,0.800000,1.750000,0.000000,0.000000,90.000000*
%
%ADD47PS47*%
%AMPS46*
21,1,0.800000,1.750000,0.000000,0.000000,270.000000*
%
%ADD46PS46*%
%AMPS57*
21,1,1.800000,2.700000,0.000000,0.000000,0.000000*
%
%ADD57PS57*%
%AMPS56*
21,1,1.800000,2.700000,0.000000,0.000000,180.000000*
%
%ADD56PS56*%
%AMPS12*
21,1,1.100000,1.200000,0.000000,0.000000,0.000000*
%
%ADD12PS12*%
%AMPS41*
21,1,1.100000,1.200000,0.000000,0.000000,90.000000*
%
%ADD41PS41*%
%AMPS13*
21,1,1.100000,1.200000,0.000000,0.000000,180.000000*
%
%ADD13PS13*%
%AMPS40*
21,1,1.100000,1.200000,0.000000,0.000000,270.000000*
%
%ADD40PS40*%
%AMPS51*
21,1,0.600000,1.900000,0.000000,0.000000,180.000000*
%
%ADD51PS51*%
%AMPS44*
21,1,0.600000,1.100000,0.000000,0.000000,90.000000*
%
%ADD44PS44*%
%AMPS45*
21,1,0.600000,1.100000,0.000000,0.000000,270.000000*
%
%ADD45PS45*%
%AMPS25*
21,1,1.500000,1.200000,0.000000,0.000000,0.000000*
%
%ADD25PS25*%
%AMPS26*
21,1,1.500000,1.200000,0.000000,0.000000,180.000000*
%
%ADD26PS26*%
%AMPS20*
21,1,0.800000,2.000000,0.000000,0.000000,0.000000*
%
%ADD20PS20*%
%AMPS21*
21,1,0.800000,2.000000,0.000000,0.000000,180.000000*
%
%ADD21PS21*%
%AMPS23*
21,1,0.901421,1.691421,0.000000,0.000000,90.000000*
%
%ADD23PS23*%
%AMPS22*
21,1,0.901421,1.691421,0.000000,0.000000,270.000000*
%
%ADD22PS22*%
%AMPS52*
21,1,2.700000,3.000000,0.000000,0.000000,180.000000*
%
%ADD52PS52*%
%AMPS30*
21,1,2.000000,1.540000,0.000000,0.000000,90.000000*
%
%ADD30PS30*%
%AMPS29*
21,1,2.000000,1.540000,0.000000,0.000000,270.000000*
%
%ADD29PS29*%
%AMPS19*
21,1,2.000000,1.400000,0.000000,0.000000,0.000000*
%
%ADD19PS19*%
%AMPS48*
21,1,2.000000,1.400000,0.000000,0.000000,90.000000*
%
%ADD48PS48*%
%AMPS18*
21,1,2.000000,1.400000,0.000000,0.000000,180.000000*
%
%ADD18PS18*%
%AMPS49*
21,1,2.000000,1.400000,0.000000,0.000000,270.000000*
%
%ADD49PS49*%
%AMPS28*
21,1,1.100000,0.700000,0.000000,0.000000,0.000000*
%
%ADD28PS28*%
%AMPS16*
21,1,1.100000,0.700000,0.000000,0.000000,90.000000*
%
%ADD16PS16*%
%AMPS27*
21,1,1.100000,0.700000,0.000000,0.000000,180.000000*
%
%ADD27PS27*%
%AMPS17*
21,1,1.100000,0.700000,0.000000,0.000000,270.000000*
%
%ADD17PS17*%
%AMPS55*
21,1,1.900000,1.300000,0.000000,0.000000,0.000000*
%
%ADD55PS55*%
%AMPS54*
21,1,1.900000,1.300000,0.000000,0.000000,180.000000*
%
%ADD54PS54*%
%AMPS39*
21,1,0.900000,1.100000,0.000000,0.000000,0.000000*
%
%ADD39PS39*%
%AMPS38*
21,1,0.900000,1.100000,0.000000,0.000000,180.000000*
%
%ADD38PS38*%
%AMPS37*
21,1,0.950000,1.500000,0.000000,0.000000,0.000000*
%
%ADD37PS37*%
%AMPS11*
21,1,2.031662,1.371341,0.000000,0.000000,0.000000*
%
%ADD11PS11*%
%AMPS10*
21,1,2.031662,1.371341,0.000000,0.000000,180.000000*
%
%ADD10PS10*%
%AMPS15*
21,1,1.050000,1.000000,0.000000,0.000000,0.000000*
%
%ADD15PS15*%
%AMPS43*
21,1,1.050000,1.000000,0.000000,0.000000,90.000000*
%
%ADD43PS43*%
%AMPS14*
21,1,1.050000,1.000000,0.000000,0.000000,180.000000*
%
%ADD14PS14*%
%AMPS42*
21,1,1.050000,1.000000,0.000000,0.000000,270.000000*
%
%ADD42PS42*%
%AMPS58*
1,1,1.200000,0.000000,0.000000*
%
%ADD58PS58*%
%AMPS60*
1,1,0.550000,0.000000,0.000000*
%
%ADD60PS60*%
%AMPS59*
1,1,0.700000,0.000000,0.000000*
%
%ADD59PS59*%
%AMPS61*
1,1,0.800000,0.000000,0.000000*
%
%ADD61PS61*%
G01*
%LPD*%
G01*
%LPD*%
G75*
D10*
X24020000Y17376461D03*
D11*
X24020000Y14423539D03*
D12*
X29800000Y15176461D03*
D13*
X28850000Y17376461D03*
D12*
X27900000Y15176461D03*
D14*
X44250000Y22950000D03*
D15*
X44250000Y21450000D03*
D16*
X50600000Y20220000D03*
D17*
X49100000Y20220000D03*
D18*
X53750000Y26920000D03*
D19*
X53750000Y24020000D03*
D20*
X48540000Y34300000D03*
D21*
X46040000Y40600000D03*
D21*
X48540000Y40600000D03*
D20*
X46040000Y34300000D03*
D22*
X50925000Y34590000D03*
D23*
X58075000Y37130000D03*
D23*
X58075000Y42210000D03*
D23*
X58075000Y39670000D03*
D22*
X50925000Y37130000D03*
D22*
X50925000Y42210000D03*
D23*
X58075000Y34590000D03*
D22*
X50925000Y39670000D03*
D24*
X9960000Y34100000D03*
D24*
X2340000Y34100000D03*
D25*
X19700000Y14041493D03*
D26*
X19700000Y17376461D03*
D27*
X51300000Y27300000D03*
D28*
X51300000Y25800000D03*
D15*
X28240000Y31110000D03*
D14*
X28240000Y32610000D03*
D29*
X15396117Y28440000D03*
D30*
X18263883Y28440000D03*
D31*
X58580000Y21050001D03*
D32*
X58580000Y25949999D03*
D33*
X4730000Y30640000D03*
D33*
X7270000Y28100000D03*
D33*
X4730000Y25560000D03*
D34*
X15690000Y10600000D03*
D34*
X4270000Y10600000D03*
D34*
X4270000Y4250000D03*
D34*
X4270000Y16950000D03*
D34*
X15690000Y16950000D03*
D34*
X15690000Y4250000D03*
D16*
X29400000Y12676461D03*
D17*
X27900000Y12676461D03*
D14*
X38550000Y22950000D03*
D15*
X38550000Y21450000D03*
D35*
X14200000Y22700000D03*
D36*
X19400000Y22700000D03*
D37*
X33360000Y28200000D03*
D37*
X34630000Y30400000D03*
D37*
X32090000Y30400000D03*
D16*
X42670000Y34950000D03*
D17*
X41170000Y34950000D03*
D38*
X42670000Y32200000D03*
D38*
X41370000Y32200000D03*
D39*
X42020000Y30300000D03*
D40*
X49100000Y22150000D03*
D41*
X51300000Y23100000D03*
D40*
X49100000Y24050000D03*
D28*
X49100000Y25800000D03*
D27*
X49100000Y27300000D03*
D42*
X36900000Y30690000D03*
D43*
X38400000Y30690000D03*
D44*
X58075000Y31830000D03*
D45*
X55875000Y31830000D03*
D46*
X33060000Y32690000D03*
D46*
X33060000Y35240000D03*
D46*
X33060000Y36510000D03*
D47*
X38400000Y36510000D03*
D47*
X38400000Y33960000D03*
D46*
X33060000Y33960000D03*
D47*
X38400000Y32690000D03*
D47*
X38400000Y35240000D03*
D47*
X26070000Y32610000D03*
D47*
X26070000Y30060000D03*
D47*
X26070000Y28790000D03*
D46*
X20730000Y28790000D03*
D46*
X20730000Y31340000D03*
D47*
X26070000Y31340000D03*
D46*
X20730000Y32610000D03*
D46*
X20730000Y30060000D03*
D34*
X55700000Y10600000D03*
D34*
X44280000Y10600000D03*
D34*
X44280000Y4250000D03*
D34*
X44280000Y16950000D03*
D34*
X55700000Y16950000D03*
D34*
X55700000Y4250000D03*
D12*
X42350000Y21450000D03*
D13*
X41400000Y23650000D03*
D12*
X40450000Y21450000D03*
D48*
X18296117Y31340000D03*
D49*
X15396117Y31340000D03*
D50*
X13852917Y39098737D03*
D50*
X11352917Y39098737D03*
D16*
X42670000Y36780000D03*
D17*
X41170000Y36780000D03*
D50*
X5952917Y39098737D03*
D50*
X3452917Y39098737D03*
D51*
X34000000Y40000000D03*
D51*
X27000000Y40000000D03*
D51*
X30000000Y40000000D03*
D51*
X31000000Y40000000D03*
D51*
X36000000Y40000000D03*
D51*
X29000000Y40000000D03*
D52*
X38750000Y42450000D03*
D52*
X24250000Y42450000D03*
D51*
X33000000Y40000000D03*
D51*
X35000000Y40000000D03*
D51*
X28000000Y40000000D03*
D51*
X32000000Y40000000D03*
D36*
X38830000Y15176461D03*
D35*
X33630000Y15176461D03*
D53*
X24020000Y5380000D03*
D53*
X24020000Y2880000D03*
D54*
X10230000Y28760000D03*
D55*
X10230000Y25560000D03*
D30*
X18263883Y34240000D03*
D29*
X15396117Y34240000D03*
D56*
X34700000Y24750000D03*
D57*
X34700000Y21450000D03*
D58*
X30270000Y32610000D03*
D59*
X49300000Y43400000D03*
D60*
X62000000Y45400000D03*
D60*
X16250000Y1000000D03*
D59*
X30000000Y38280000D03*
D60*
X62000000Y38000000D03*
D60*
X23875000Y45400000D03*
D60*
X46750000Y45400000D03*
D60*
X62000000Y1000000D03*
D60*
X62000000Y8400000D03*
D60*
X31500000Y45400000D03*
D59*
X30000000Y41720000D03*
D60*
X23875000Y1000000D03*
D60*
X39125000Y1000000D03*
D58*
X46300000Y21400000D03*
D58*
X46800000Y24050000D03*
D58*
X32500000Y21130000D03*
D59*
X35800000Y38000000D03*
D60*
X1000000Y15800000D03*
D60*
X62000000Y23200000D03*
D60*
X54375000Y1000000D03*
D60*
X1000000Y1000000D03*
D59*
X56180000Y42210000D03*
D60*
X8625000Y45400000D03*
D60*
X62000000Y30600000D03*
D60*
X1000000Y23200000D03*
D58*
X35160000Y28200000D03*
D59*
X32000000Y41720000D03*
D60*
X1000000Y45400000D03*
D60*
X1000000Y8400000D03*
D58*
X32400000Y17600000D03*
D58*
X58075000Y30180000D03*
D58*
X38400000Y28890000D03*
D59*
X53750000Y22360000D03*
D59*
X28000000Y43260000D03*
D60*
X1000000Y30600000D03*
D61*
X36400000Y33960000D03*
D60*
X46750000Y1000000D03*
D60*
X8625000Y1000000D03*
D60*
X1000000Y38000000D03*
D60*
X16250000Y45400000D03*
D58*
X22400000Y22700000D03*
D58*
X46800000Y27300000D03*
D59*
X32000000Y38280000D03*
D61*
X12300000Y28760000D03*
D60*
X62000000Y15800000D03*
D60*
X31500000Y1000000D03*
D60*
X39125000Y45400000D03*
D60*
X54375000Y45400000D03*
D59*
X47300000Y32500000D03*
M02*
