%FSLAX46Y46*%
%MOMM*%
%ADD10C,0.050000*%
%ADD11C,0.150000*%
G01*
%LPD*%
G01*
%LPD*%
D10*
X7490000Y21400000D02*
X2180000Y21400000D01*
D10*
X6740000Y-8700000D02*
X16240000Y-8700000D01*
D10*
X6740000Y0D02*
X6740000Y-8700000D01*
D10*
X6740000Y0D02*
X16240000Y0D01*
D10*
X7490000Y24400000D02*
X7490000Y21400000D01*
D10*
X16240000Y0D02*
X17920000Y0D01*
D10*
X17920000Y21400000D02*
X15490000Y21400000D01*
D10*
X16240000Y-8700000D02*
X16240000Y0D01*
D10*
X2180000Y0D02*
X6740000Y0D01*
D10*
X15490000Y24400000D02*
X7490000Y24400000D01*
D10*
X2180000Y21400000D02*
X2180000Y0D01*
D10*
X7490000Y21400000D02*
X15490000Y21400000D01*
D10*
X17920000Y0D02*
X17920000Y21400000D01*
D10*
X15490000Y21400000D02*
X15490000Y24400000D01*
D10*
X47500000Y21400000D02*
X42190000Y21400000D01*
D10*
X46750000Y-8700000D02*
X56250000Y-8700000D01*
D10*
X46750000Y0D02*
X46750000Y-8700000D01*
D10*
X46750000Y0D02*
X56250000Y0D01*
D10*
X47500000Y24400000D02*
X47500000Y21400000D01*
D10*
X56250000Y0D02*
X57930000Y0D01*
D10*
X57930000Y21400000D02*
X55500000Y21400000D01*
D10*
X56250000Y-8700000D02*
X56250000Y0D01*
D10*
X42190000Y0D02*
X46750000Y0D01*
D10*
X55500000Y24400000D02*
X47500000Y24400000D01*
D10*
X42190000Y21400000D02*
X42190000Y0D01*
D10*
X47500000Y21400000D02*
X55500000Y21400000D01*
D10*
X57930000Y0D02*
X57930000Y21400000D01*
D10*
X55500000Y21400000D02*
X55500000Y24400000D01*
D10*
X26370000Y7830000D02*
X20620000Y7830000D01*
D10*
X26370000Y2830000D02*
X26370000Y430000D01*
D10*
X26370000Y7830000D02*
X26370000Y5430000D01*
D10*
X20620000Y430000D02*
X26370000Y430000D01*
D10*
X20620000Y7830000D02*
X20620000Y430000D01*
D11*
X19193810Y2401428D02*
X20193810Y2401428D01*
D11*
X20193810Y2734762D02*
X20193810Y2401428D01*
D11*
X20146190Y2877619D02*
X20193810Y2734762D01*
D11*
X20050952Y2972857D02*
X20146190Y2877619D01*
D11*
X19955714Y3020476D02*
X20050952Y2972857D01*
D11*
X19812858Y3068095D02*
X19955714Y3020476D01*
D11*
X19574762Y3068095D02*
X19812858Y3068095D01*
D11*
X19431904Y3020476D02*
X19574762Y3068095D01*
D11*
X19336666Y2972857D02*
X19431904Y3020476D01*
D11*
X19241428Y2877619D02*
X19336666Y2972857D01*
D11*
X19193810Y2734762D02*
X19241428Y2877619D01*
D11*
X19193810Y2401428D02*
X19193810Y2734762D01*
D11*
X20050952Y4020476D02*
X19955714Y4068095D01*
D11*
X20146190Y3925238D02*
X20050952Y4020476D01*
D11*
X20193810Y3830000D02*
X20146190Y3925238D01*
D11*
X20193810Y3639523D02*
X20193810Y3830000D01*
D11*
X20146190Y3544285D02*
X20193810Y3639523D01*
D11*
X20050952Y3449047D02*
X20146190Y3544285D01*
D11*
X19955714Y3401428D02*
X20050952Y3449047D01*
D11*
X19812858Y3353809D02*
X19955714Y3401428D01*
D11*
X19574762Y3353809D02*
X19812858Y3353809D01*
D11*
X19431904Y3401428D02*
X19574762Y3353809D01*
D11*
X19336666Y3449047D02*
X19431904Y3401428D01*
D11*
X19241428Y3544285D02*
X19336666Y3449047D01*
D11*
X19193810Y3639523D02*
X19241428Y3544285D01*
D11*
X19193810Y3830000D02*
X19193810Y3639523D01*
D11*
X19241428Y3925238D02*
X19193810Y3830000D01*
D11*
X19336666Y4020476D02*
X19241428Y3925238D01*
D11*
X19431904Y4068095D02*
X19336666Y4020476D01*
D11*
X19622380Y5258571D02*
X19622380Y4401428D01*
D11*
X19193810Y5639524D02*
X20193810Y5639524D01*
G75*
M02*
